%FSLAX45Y45*%
G04 Gerber Fmt 4.5, Leading zero omitted, Abs format (unit mm)*
G04 Created by KiCad (PCBNEW (5.1.5)-3) date 2020-02-10 18:47:00*
%MOMM*%
%LPD*%
G04 APERTURE LIST*
%ADD10C,0.200000*%
%ADD11C,0.300000*%
G04 APERTURE END LIST*
D10*
X9190990Y-12556490D02*
X9224010Y-12589510D01*
X9224010Y-12556490D02*
X9190990Y-12589510D01*
X9381490Y-11857990D02*
X9414510Y-11891010D01*
X9414510Y-11857990D02*
X9381490Y-11891010D01*
X9381490Y-13635990D02*
X9414510Y-13669010D01*
X9414510Y-13635990D02*
X9381490Y-13669010D01*
X9635490Y-18715990D02*
X9668510Y-18749010D01*
X9668510Y-18715990D02*
X9635490Y-18749010D01*
X9698990Y-15350490D02*
X9732010Y-15383510D01*
X9732010Y-15350490D02*
X9698990Y-15383510D01*
X9762490Y-11476990D02*
X9795510Y-11510010D01*
X9795510Y-11476990D02*
X9762490Y-11510010D01*
X9825990Y-12429490D02*
X9859010Y-12462510D01*
X9859010Y-12429490D02*
X9825990Y-12462510D01*
X9889490Y-16620490D02*
X9922510Y-16653510D01*
X9922510Y-16620490D02*
X9889490Y-16653510D01*
X9952990Y-15540990D02*
X9986010Y-15574010D01*
X9986010Y-15540990D02*
X9952990Y-15574010D01*
X10206990Y-10905490D02*
X10240010Y-10938510D01*
X10240010Y-10905490D02*
X10206990Y-10938510D01*
X10206990Y-19541490D02*
X10240010Y-19574510D01*
X10240010Y-19541490D02*
X10206990Y-19574510D01*
X10270490Y-14905990D02*
X10303510Y-14939010D01*
X10303510Y-14905990D02*
X10270490Y-14939010D01*
X10333990Y-11857990D02*
X10367010Y-11891010D01*
X10367010Y-11857990D02*
X10333990Y-11891010D01*
X10397490Y-12238990D02*
X10430510Y-12272010D01*
X10430510Y-12238990D02*
X10397490Y-12272010D01*
X10524490Y-14334490D02*
X10557510Y-14367510D01*
X10557510Y-14334490D02*
X10524490Y-14367510D01*
X10524490Y-15223490D02*
X10557510Y-15256510D01*
X10557510Y-15223490D02*
X10524490Y-15256510D01*
X10638790Y-12746990D02*
X10671810Y-12780010D01*
X10671810Y-12746990D02*
X10638790Y-12780010D01*
X10651490Y-11095990D02*
X10684510Y-11129010D01*
X10684510Y-11095990D02*
X10651490Y-11129010D01*
X10651490Y-14334490D02*
X10684510Y-14367510D01*
X10684510Y-14334490D02*
X10651490Y-14367510D01*
X10765790Y-13826490D02*
X10798810Y-13859510D01*
X10798810Y-13826490D02*
X10765790Y-13859510D01*
X10778490Y-13000990D02*
X10811510Y-13034010D01*
X10811510Y-13000990D02*
X10778490Y-13034010D01*
X10778490Y-13254990D02*
X10811510Y-13288010D01*
X10811510Y-13254990D02*
X10778490Y-13288010D01*
X10778490Y-13953490D02*
X10811510Y-13986510D01*
X10811510Y-13953490D02*
X10778490Y-13986510D01*
X10778490Y-14334490D02*
X10811510Y-14367510D01*
X10811510Y-14334490D02*
X10778490Y-14367510D01*
X10841990Y-16048990D02*
X10875010Y-16082010D01*
X10875010Y-16048990D02*
X10841990Y-16082010D01*
X10905490Y-5571490D02*
X10938510Y-5604510D01*
X10938510Y-5571490D02*
X10905490Y-5604510D01*
X10905490Y-7603490D02*
X10938510Y-7636510D01*
X10938510Y-7603490D02*
X10905490Y-7636510D01*
X10905490Y-8301990D02*
X10938510Y-8335010D01*
X10938510Y-8301990D02*
X10905490Y-8335010D01*
X10905490Y-9254490D02*
X10938510Y-9287510D01*
X10938510Y-9254490D02*
X10905490Y-9287510D01*
X10905490Y-9952990D02*
X10938510Y-9986010D01*
X10938510Y-9952990D02*
X10905490Y-9986010D01*
X10968990Y-6142990D02*
X11002010Y-6176010D01*
X11002010Y-6142990D02*
X10968990Y-6176010D01*
X11032490Y-14524990D02*
X11065510Y-14558010D01*
X11065510Y-14524990D02*
X11032490Y-14558010D01*
X11095990Y-11222990D02*
X11129010Y-11256010D01*
X11129010Y-11222990D02*
X11095990Y-11256010D01*
X11095990Y-12429490D02*
X11129010Y-12462510D01*
X11129010Y-12429490D02*
X11095990Y-12462510D01*
X11095990Y-12619990D02*
X11129010Y-12653010D01*
X11129010Y-12619990D02*
X11095990Y-12653010D01*
X11222990Y-5190490D02*
X11256010Y-5223510D01*
X11256010Y-5190490D02*
X11222990Y-5223510D01*
X11286490Y-15667990D02*
X11319510Y-15701010D01*
X11319510Y-15667990D02*
X11286490Y-15701010D01*
X11413490Y-3475990D02*
X11446510Y-3509010D01*
X11446510Y-3475990D02*
X11413490Y-3509010D01*
X11413490Y-6079490D02*
X11446510Y-6112510D01*
X11446510Y-6079490D02*
X11413490Y-6112510D01*
X11413490Y-13699490D02*
X11446510Y-13732510D01*
X11446510Y-13699490D02*
X11413490Y-13732510D01*
X11476990Y-9127490D02*
X11510010Y-9160510D01*
X11510010Y-9127490D02*
X11476990Y-9160510D01*
X11476990Y-9698990D02*
X11510010Y-9732010D01*
X11510010Y-9698990D02*
X11476990Y-9732010D01*
X11476990Y-15350490D02*
X11510010Y-15383510D01*
X11510010Y-15350490D02*
X11476990Y-15383510D01*
X11540490Y-4936490D02*
X11573510Y-4969510D01*
X11573510Y-4936490D02*
X11540490Y-4969510D01*
X11540490Y-9635490D02*
X11573510Y-9668510D01*
X11573510Y-9635490D02*
X11540490Y-9668510D01*
X11540490Y-16112490D02*
X11573510Y-16145510D01*
X11573510Y-16112490D02*
X11540490Y-16145510D01*
X11603990Y-9571990D02*
X11637010Y-9605010D01*
X11637010Y-9571990D02*
X11603990Y-9605010D01*
X11667490Y-9508490D02*
X11700510Y-9541510D01*
X11700510Y-9508490D02*
X11667490Y-9541510D01*
X11667490Y-9889490D02*
X11700510Y-9922510D01*
X11700510Y-9889490D02*
X11667490Y-9922510D01*
X11730990Y-15096490D02*
X11764010Y-15129510D01*
X11764010Y-15096490D02*
X11730990Y-15129510D01*
X11730990Y-15731490D02*
X11764010Y-15764510D01*
X11764010Y-15731490D02*
X11730990Y-15764510D01*
X11730990Y-15858490D02*
X11764010Y-15891510D01*
X11764010Y-15858490D02*
X11730990Y-15891510D01*
X11730990Y-16239490D02*
X11764010Y-16272510D01*
X11764010Y-16239490D02*
X11730990Y-16272510D01*
X11794490Y-4745990D02*
X11827510Y-4779010D01*
X11827510Y-4745990D02*
X11794490Y-4779010D01*
X11794490Y-9508490D02*
X11827510Y-9541510D01*
X11827510Y-9508490D02*
X11794490Y-9541510D01*
X11794490Y-9889490D02*
X11827510Y-9922510D01*
X11827510Y-9889490D02*
X11794490Y-9922510D01*
X11794490Y-13889990D02*
X11827510Y-13923010D01*
X11827510Y-13889990D02*
X11794490Y-13923010D01*
X11794490Y-15985490D02*
X11827510Y-16018510D01*
X11827510Y-15985490D02*
X11794490Y-16018510D01*
X11857990Y-9444990D02*
X11891010Y-9478010D01*
X11891010Y-9444990D02*
X11857990Y-9478010D01*
X11857990Y-9952990D02*
X11891010Y-9986010D01*
X11891010Y-9952990D02*
X11857990Y-9986010D01*
X11857990Y-15540990D02*
X11891010Y-15574010D01*
X11891010Y-15540990D02*
X11857990Y-15574010D01*
X11857990Y-16620490D02*
X11891010Y-16653510D01*
X11891010Y-16620490D02*
X11857990Y-16653510D01*
X11921490Y-5253990D02*
X11954510Y-5287010D01*
X11954510Y-5253990D02*
X11921490Y-5287010D01*
X11921490Y-9381490D02*
X11954510Y-9414510D01*
X11954510Y-9381490D02*
X11921490Y-9414510D01*
X11921490Y-10016490D02*
X11954510Y-10049510D01*
X11954510Y-10016490D02*
X11921490Y-10049510D01*
X11921490Y-14016990D02*
X11954510Y-14050010D01*
X11954510Y-14016990D02*
X11921490Y-14050010D01*
X11921490Y-16366490D02*
X11954510Y-16399510D01*
X11954510Y-16366490D02*
X11921490Y-16399510D01*
X11984990Y-10397490D02*
X12018010Y-10430510D01*
X12018010Y-10397490D02*
X11984990Y-10430510D01*
X12048490Y-10270490D02*
X12081510Y-10303510D01*
X12081510Y-10270490D02*
X12048490Y-10303510D01*
X12048490Y-15604490D02*
X12081510Y-15637510D01*
X12081510Y-15604490D02*
X12048490Y-15637510D01*
X12175490Y-9127490D02*
X12208510Y-9160510D01*
X12208510Y-9127490D02*
X12175490Y-9160510D01*
X12175490Y-15667990D02*
X12208510Y-15701010D01*
X12208510Y-15667990D02*
X12175490Y-15701010D01*
X12238990Y-9063990D02*
X12272010Y-9097010D01*
X12272010Y-9063990D02*
X12238990Y-9097010D01*
X12302490Y-9000490D02*
X12335510Y-9033510D01*
X12335510Y-9000490D02*
X12302490Y-9033510D01*
X12302490Y-13762990D02*
X12335510Y-13796010D01*
X12335510Y-13762990D02*
X12302490Y-13796010D01*
X12302490Y-15794990D02*
X12335510Y-15828010D01*
X12335510Y-15794990D02*
X12302490Y-15828010D01*
X12365990Y-8936990D02*
X12399010Y-8970010D01*
X12399010Y-8936990D02*
X12365990Y-8970010D01*
X12429490Y-4809490D02*
X12462510Y-4842510D01*
X12462510Y-4809490D02*
X12429490Y-4842510D01*
X12429490Y-9635490D02*
X12462510Y-9668510D01*
X12462510Y-9635490D02*
X12429490Y-9668510D01*
X12429490Y-9762490D02*
X12462510Y-9795510D01*
X12462510Y-9762490D02*
X12429490Y-9795510D01*
X12429490Y-11222990D02*
X12462510Y-11256010D01*
X12462510Y-11222990D02*
X12429490Y-11256010D01*
X12429490Y-15921990D02*
X12462510Y-15955010D01*
X12462510Y-15921990D02*
X12429490Y-15955010D01*
X12492990Y-9063990D02*
X12526010Y-9097010D01*
X12526010Y-9063990D02*
X12492990Y-9097010D01*
X12492990Y-15223490D02*
X12526010Y-15256510D01*
X12526010Y-15223490D02*
X12492990Y-15256510D01*
X12492990Y-16556990D02*
X12526010Y-16590010D01*
X12526010Y-16556990D02*
X12492990Y-16590010D01*
X12556490Y-9635490D02*
X12589510Y-9668510D01*
X12589510Y-9635490D02*
X12556490Y-9668510D01*
X12556490Y-9762490D02*
X12589510Y-9795510D01*
X12589510Y-9762490D02*
X12556490Y-9795510D01*
X12619990Y-8809990D02*
X12653010Y-8843010D01*
X12653010Y-8809990D02*
X12619990Y-8843010D01*
X12619990Y-11286490D02*
X12653010Y-11319510D01*
X12653010Y-11286490D02*
X12619990Y-11319510D01*
X12619990Y-16429990D02*
X12653010Y-16463010D01*
X12653010Y-16429990D02*
X12619990Y-16463010D01*
X12619990Y-16683990D02*
X12653010Y-16717010D01*
X12653010Y-16683990D02*
X12619990Y-16717010D01*
X12683490Y-4555490D02*
X12716510Y-4588510D01*
X12716510Y-4555490D02*
X12683490Y-4588510D01*
X12683490Y-8873490D02*
X12716510Y-8906510D01*
X12716510Y-8873490D02*
X12683490Y-8906510D01*
X12683490Y-9000490D02*
X12716510Y-9033510D01*
X12716510Y-9000490D02*
X12683490Y-9033510D01*
X12746990Y-9063990D02*
X12780010Y-9097010D01*
X12780010Y-9063990D02*
X12746990Y-9097010D01*
X12746990Y-10333990D02*
X12780010Y-10367010D01*
X12780010Y-10333990D02*
X12746990Y-10367010D01*
X12746990Y-12365990D02*
X12780010Y-12399010D01*
X12780010Y-12365990D02*
X12746990Y-12399010D01*
X12746990Y-15858490D02*
X12780010Y-15891510D01*
X12780010Y-15858490D02*
X12746990Y-15891510D01*
X12746990Y-16556990D02*
X12780010Y-16590010D01*
X12780010Y-16556990D02*
X12746990Y-16590010D01*
X12810490Y-9127490D02*
X12843510Y-9160510D01*
X12843510Y-9127490D02*
X12810490Y-9160510D01*
X12810490Y-10270490D02*
X12843510Y-10303510D01*
X12843510Y-10270490D02*
X12810490Y-10303510D01*
X12810490Y-13699490D02*
X12843510Y-13732510D01*
X12843510Y-13699490D02*
X12810490Y-13732510D01*
X12810490Y-14524990D02*
X12843510Y-14558010D01*
X12843510Y-14524990D02*
X12810490Y-14558010D01*
X12873990Y-15858490D02*
X12907010Y-15891510D01*
X12907010Y-15858490D02*
X12873990Y-15891510D01*
X12937490Y-11413490D02*
X12970510Y-11446510D01*
X12970510Y-11413490D02*
X12937490Y-11446510D01*
X13000990Y-16069924D02*
X13034010Y-16102944D01*
X13034010Y-16069924D02*
X13000990Y-16102944D01*
X13064490Y-2205990D02*
X13097510Y-2239010D01*
X13097510Y-2205990D02*
X13064490Y-2239010D01*
X13064490Y-9381490D02*
X13097510Y-9414510D01*
X13097510Y-9381490D02*
X13064490Y-9414510D01*
X13064490Y-10016490D02*
X13097510Y-10049510D01*
X13097510Y-10016490D02*
X13064490Y-10049510D01*
X13127990Y-9444990D02*
X13161010Y-9478010D01*
X13161010Y-9444990D02*
X13127990Y-9478010D01*
X13191490Y-3221990D02*
X13224510Y-3255010D01*
X13224510Y-3221990D02*
X13191490Y-3255010D01*
X13191490Y-9508490D02*
X13224510Y-9541510D01*
X13224510Y-9508490D02*
X13191490Y-9541510D01*
X13191490Y-10016490D02*
X13224510Y-10049510D01*
X13224510Y-10016490D02*
X13191490Y-10049510D01*
X13191490Y-15731490D02*
X13224510Y-15764510D01*
X13224510Y-15731490D02*
X13191490Y-15764510D01*
X13254990Y-9952990D02*
X13288010Y-9986010D01*
X13288010Y-9952990D02*
X13254990Y-9986010D01*
X13318490Y-9508490D02*
X13351510Y-9541510D01*
X13351510Y-9508490D02*
X13318490Y-9541510D01*
X13318490Y-10397490D02*
X13351510Y-10430510D01*
X13351510Y-10397490D02*
X13318490Y-10430510D01*
X13318490Y-15159990D02*
X13351510Y-15193010D01*
X13351510Y-15159990D02*
X13318490Y-15193010D01*
X13381990Y-9254490D02*
X13415010Y-9287510D01*
X13415010Y-9254490D02*
X13381990Y-9287510D01*
X13381990Y-9571990D02*
X13415010Y-9605010D01*
X13415010Y-9571990D02*
X13381990Y-9605010D01*
X13445490Y-2142490D02*
X13478510Y-2175510D01*
X13478510Y-2142490D02*
X13445490Y-2175510D01*
X13445490Y-9635490D02*
X13478510Y-9668510D01*
X13478510Y-9635490D02*
X13445490Y-9668510D01*
X13508990Y-6396990D02*
X13542010Y-6430010D01*
X13542010Y-6396990D02*
X13508990Y-6430010D01*
X13508990Y-16112490D02*
X13542010Y-16145510D01*
X13542010Y-16112490D02*
X13508990Y-16145510D01*
X13572490Y-2713990D02*
X13605510Y-2747010D01*
X13605510Y-2713990D02*
X13572490Y-2747010D01*
X13572490Y-10079990D02*
X13605510Y-10113010D01*
X13605510Y-10079990D02*
X13572490Y-10113010D01*
X13572490Y-15413990D02*
X13605510Y-15447010D01*
X13605510Y-15413990D02*
X13572490Y-15447010D01*
X13635990Y-7920990D02*
X13669010Y-7954010D01*
X13669010Y-7920990D02*
X13635990Y-7954010D01*
X13635990Y-13889990D02*
X13669010Y-13923010D01*
X13669010Y-13889990D02*
X13635990Y-13923010D01*
X13635990Y-14651990D02*
X13669010Y-14685010D01*
X13669010Y-14651990D02*
X13635990Y-14685010D01*
X13635990Y-15858490D02*
X13669010Y-15891510D01*
X13669010Y-15858490D02*
X13635990Y-15891510D01*
X13826490Y-3158490D02*
X13859510Y-3191510D01*
X13859510Y-3158490D02*
X13826490Y-3191510D01*
X13826490Y-16112490D02*
X13859510Y-16145510D01*
X13859510Y-16112490D02*
X13826490Y-16145510D01*
X13953490Y-2459990D02*
X13986510Y-2493010D01*
X13986510Y-2459990D02*
X13953490Y-2493010D01*
X13953490Y-8492490D02*
X13986510Y-8525510D01*
X13986510Y-8492490D02*
X13953490Y-8525510D01*
X13953490Y-16302990D02*
X13986510Y-16336010D01*
X13986510Y-16302990D02*
X13953490Y-16336010D01*
X14016990Y-7349490D02*
X14050010Y-7382510D01*
X14050010Y-7349490D02*
X14016990Y-7382510D01*
X14016990Y-8238490D02*
X14050010Y-8271510D01*
X14050010Y-8238490D02*
X14016990Y-8271510D01*
X14143990Y-16048990D02*
X14177010Y-16082010D01*
X14177010Y-16048990D02*
X14143990Y-16082010D01*
X14207490Y-9952990D02*
X14240510Y-9986010D01*
X14240510Y-9952990D02*
X14207490Y-9986010D01*
X14334490Y-16048990D02*
X14367510Y-16082010D01*
X14367510Y-16048990D02*
X14334490Y-16082010D01*
X14397990Y-3983990D02*
X14431010Y-4017010D01*
X14431010Y-3983990D02*
X14397990Y-4017010D01*
X14461490Y-2205990D02*
X14494510Y-2239010D01*
X14494510Y-2205990D02*
X14461490Y-2239010D01*
X14524990Y-5190490D02*
X14558010Y-5223510D01*
X14558010Y-5190490D02*
X14524990Y-5223510D01*
X14588490Y-9635490D02*
X14621510Y-9668510D01*
X14621510Y-9635490D02*
X14588490Y-9668510D01*
X14651990Y-5571490D02*
X14685010Y-5604510D01*
X14685010Y-5571490D02*
X14651990Y-5604510D01*
X14651990Y-6587490D02*
X14685010Y-6620510D01*
X14685010Y-6587490D02*
X14651990Y-6620510D01*
X14651990Y-8301990D02*
X14685010Y-8335010D01*
X14685010Y-8301990D02*
X14651990Y-8335010D01*
X14715490Y-6841490D02*
X14748510Y-6874510D01*
X14748510Y-6841490D02*
X14715490Y-6874510D01*
X14715490Y-16429990D02*
X14748510Y-16463010D01*
X14748510Y-16429990D02*
X14715490Y-16463010D01*
X14778990Y-3729990D02*
X14812010Y-3763010D01*
X14812010Y-3729990D02*
X14778990Y-3763010D01*
X14778990Y-7349490D02*
X14812010Y-7382510D01*
X14812010Y-7349490D02*
X14778990Y-7382510D01*
X14778990Y-8555990D02*
X14812010Y-8589010D01*
X14812010Y-8555990D02*
X14778990Y-8589010D01*
X14842490Y-14334490D02*
X14875510Y-14367510D01*
X14875510Y-14334490D02*
X14842490Y-14367510D01*
X14842490Y-19414490D02*
X14875510Y-19447510D01*
X14875510Y-19414490D02*
X14842490Y-19447510D01*
X14969490Y-16112490D02*
X15002510Y-16145510D01*
X15002510Y-16112490D02*
X14969490Y-16145510D01*
X15350490Y-16556990D02*
X15383510Y-16590010D01*
X15383510Y-16556990D02*
X15350490Y-16590010D01*
X15477490Y-6269990D02*
X15510510Y-6303010D01*
X15510510Y-6269990D02*
X15477490Y-6303010D01*
X15540990Y-19350990D02*
X15574010Y-19384010D01*
X15574010Y-19350990D02*
X15540990Y-19384010D01*
X15667990Y-16175990D02*
X15701010Y-16209010D01*
X15701010Y-16175990D02*
X15667990Y-16209010D01*
X15667990Y-17001490D02*
X15701010Y-17034510D01*
X15701010Y-17001490D02*
X15667990Y-17034510D01*
X9702800Y-18986500D02*
G75*
G03X9702800Y-18986500I-50800J0D01*
G01*
X9702800Y-19240500D02*
G75*
G03X9702800Y-19240500I-50800J0D01*
G01*
X9702800Y-19494500D02*
G75*
G03X9702800Y-19494500I-50800J0D01*
G01*
X15468600Y-17317720D02*
G75*
G03X15468600Y-17317720I-50800J0D01*
G01*
X15468600Y-18816320D02*
G75*
G03X15468600Y-18816320I-50800J0D01*
G01*
D11*
X8339256Y-20134714D02*
X8339256Y-19834714D01*
X8410685Y-19834714D01*
X8453542Y-19849000D01*
X8482113Y-19877572D01*
X8496399Y-19906143D01*
X8510685Y-19963286D01*
X8510685Y-20006143D01*
X8496399Y-20063286D01*
X8482113Y-20091857D01*
X8453542Y-20120429D01*
X8410685Y-20134714D01*
X8339256Y-20134714D01*
X8639256Y-20134714D02*
X8639256Y-19934714D01*
X8639256Y-19991857D02*
X8653542Y-19963286D01*
X8667828Y-19949000D01*
X8696399Y-19934714D01*
X8724970Y-19934714D01*
X8824970Y-20134714D02*
X8824970Y-19934714D01*
X8824970Y-19834714D02*
X8810685Y-19849000D01*
X8824970Y-19863286D01*
X8839256Y-19849000D01*
X8824970Y-19834714D01*
X8824970Y-19863286D01*
X9010685Y-20134714D02*
X8982113Y-20120429D01*
X8967828Y-20091857D01*
X8967828Y-19834714D01*
X9167828Y-20134714D02*
X9139256Y-20120429D01*
X9124970Y-20091857D01*
X9124970Y-19834714D01*
X9510685Y-20134714D02*
X9510685Y-19834714D01*
X9610685Y-20049000D01*
X9710685Y-19834714D01*
X9710685Y-20134714D01*
X9982113Y-20134714D02*
X9982113Y-19977572D01*
X9967828Y-19949000D01*
X9939256Y-19934714D01*
X9882113Y-19934714D01*
X9853542Y-19949000D01*
X9982113Y-20120429D02*
X9953542Y-20134714D01*
X9882113Y-20134714D01*
X9853542Y-20120429D01*
X9839256Y-20091857D01*
X9839256Y-20063286D01*
X9853542Y-20034714D01*
X9882113Y-20020429D01*
X9953542Y-20020429D01*
X9982113Y-20006143D01*
X10124970Y-19934714D02*
X10124970Y-20234714D01*
X10124970Y-19949000D02*
X10153542Y-19934714D01*
X10210685Y-19934714D01*
X10239256Y-19949000D01*
X10253542Y-19963286D01*
X10267828Y-19991857D01*
X10267828Y-20077572D01*
X10253542Y-20106143D01*
X10239256Y-20120429D01*
X10210685Y-20134714D01*
X10153542Y-20134714D01*
X10124970Y-20120429D01*
X10396399Y-20106143D02*
X10410685Y-20120429D01*
X10396399Y-20134714D01*
X10382113Y-20120429D01*
X10396399Y-20106143D01*
X10396399Y-20134714D01*
X10396399Y-19949000D02*
X10410685Y-19963286D01*
X10396399Y-19977572D01*
X10382113Y-19963286D01*
X10396399Y-19949000D01*
X10396399Y-19977572D01*
X8019808Y-20612490D02*
X8052828Y-20645510D01*
X8052828Y-20612490D02*
X8019808Y-20645510D01*
X8396399Y-20464714D02*
X8424970Y-20464714D01*
X8453542Y-20479000D01*
X8467828Y-20493286D01*
X8482113Y-20521857D01*
X8496399Y-20579000D01*
X8496399Y-20650429D01*
X8482113Y-20707572D01*
X8467828Y-20736143D01*
X8453542Y-20750429D01*
X8424970Y-20764714D01*
X8396399Y-20764714D01*
X8367828Y-20750429D01*
X8353542Y-20736143D01*
X8339256Y-20707572D01*
X8324970Y-20650429D01*
X8324970Y-20579000D01*
X8339256Y-20521857D01*
X8353542Y-20493286D01*
X8367828Y-20479000D01*
X8396399Y-20464714D01*
X8624970Y-20736143D02*
X8639256Y-20750429D01*
X8624970Y-20764714D01*
X8610685Y-20750429D01*
X8624970Y-20736143D01*
X8624970Y-20764714D01*
X8739256Y-20464714D02*
X8924970Y-20464714D01*
X8824970Y-20579000D01*
X8867828Y-20579000D01*
X8896399Y-20593286D01*
X8910685Y-20607572D01*
X8924970Y-20636143D01*
X8924970Y-20707572D01*
X8910685Y-20736143D01*
X8896399Y-20750429D01*
X8867828Y-20764714D01*
X8782113Y-20764714D01*
X8753542Y-20750429D01*
X8739256Y-20736143D01*
X9024970Y-20464714D02*
X9210685Y-20464714D01*
X9110685Y-20579000D01*
X9153542Y-20579000D01*
X9182113Y-20593286D01*
X9196399Y-20607572D01*
X9210685Y-20636143D01*
X9210685Y-20707572D01*
X9196399Y-20736143D01*
X9182113Y-20750429D01*
X9153542Y-20764714D01*
X9067828Y-20764714D01*
X9039256Y-20750429D01*
X9024970Y-20736143D01*
X9339256Y-20764714D02*
X9339256Y-20564714D01*
X9339256Y-20593286D02*
X9353542Y-20579000D01*
X9382113Y-20564714D01*
X9424970Y-20564714D01*
X9453542Y-20579000D01*
X9467828Y-20607572D01*
X9467828Y-20764714D01*
X9467828Y-20607572D02*
X9482113Y-20579000D01*
X9510685Y-20564714D01*
X9553542Y-20564714D01*
X9582113Y-20579000D01*
X9596399Y-20607572D01*
X9596399Y-20764714D01*
X9739256Y-20764714D02*
X9739256Y-20564714D01*
X9739256Y-20593286D02*
X9753542Y-20579000D01*
X9782113Y-20564714D01*
X9824970Y-20564714D01*
X9853542Y-20579000D01*
X9867828Y-20607572D01*
X9867828Y-20764714D01*
X9867828Y-20607572D02*
X9882113Y-20579000D01*
X9910685Y-20564714D01*
X9953542Y-20564714D01*
X9982113Y-20579000D01*
X9996399Y-20607572D01*
X9996399Y-20764714D01*
X10582113Y-20450429D02*
X10324970Y-20836143D01*
X10967828Y-20464714D02*
X10996399Y-20464714D01*
X11024970Y-20479000D01*
X11039256Y-20493286D01*
X11053542Y-20521857D01*
X11067828Y-20579000D01*
X11067828Y-20650429D01*
X11053542Y-20707572D01*
X11039256Y-20736143D01*
X11024970Y-20750429D01*
X10996399Y-20764714D01*
X10967828Y-20764714D01*
X10939256Y-20750429D01*
X10924970Y-20736143D01*
X10910685Y-20707572D01*
X10896399Y-20650429D01*
X10896399Y-20579000D01*
X10910685Y-20521857D01*
X10924970Y-20493286D01*
X10939256Y-20479000D01*
X10967828Y-20464714D01*
X11196399Y-20736143D02*
X11210685Y-20750429D01*
X11196399Y-20764714D01*
X11182113Y-20750429D01*
X11196399Y-20736143D01*
X11196399Y-20764714D01*
X11396399Y-20464714D02*
X11424970Y-20464714D01*
X11453542Y-20479000D01*
X11467828Y-20493286D01*
X11482113Y-20521857D01*
X11496399Y-20579000D01*
X11496399Y-20650429D01*
X11482113Y-20707572D01*
X11467828Y-20736143D01*
X11453542Y-20750429D01*
X11424970Y-20764714D01*
X11396399Y-20764714D01*
X11367828Y-20750429D01*
X11353542Y-20736143D01*
X11339256Y-20707572D01*
X11324970Y-20650429D01*
X11324970Y-20579000D01*
X11339256Y-20521857D01*
X11353542Y-20493286D01*
X11367828Y-20479000D01*
X11396399Y-20464714D01*
X11782113Y-20764714D02*
X11610685Y-20764714D01*
X11696399Y-20764714D02*
X11696399Y-20464714D01*
X11667828Y-20507572D01*
X11639256Y-20536143D01*
X11610685Y-20550429D01*
X11882113Y-20464714D02*
X12067828Y-20464714D01*
X11967828Y-20579000D01*
X12010685Y-20579000D01*
X12039256Y-20593286D01*
X12053542Y-20607572D01*
X12067828Y-20636143D01*
X12067828Y-20707572D01*
X12053542Y-20736143D01*
X12039256Y-20750429D01*
X12010685Y-20764714D01*
X11924970Y-20764714D01*
X11896399Y-20750429D01*
X11882113Y-20736143D01*
X12182113Y-20464714D02*
X12182113Y-20521857D01*
X12296399Y-20464714D02*
X12296399Y-20521857D01*
X12739256Y-20879000D02*
X12724970Y-20864714D01*
X12696399Y-20821857D01*
X12682113Y-20793286D01*
X12667828Y-20750429D01*
X12653542Y-20679000D01*
X12653542Y-20621857D01*
X12667828Y-20550429D01*
X12682113Y-20507572D01*
X12696399Y-20479000D01*
X12724970Y-20436143D01*
X12739256Y-20421857D01*
X13010685Y-20764714D02*
X12839256Y-20764714D01*
X12924970Y-20764714D02*
X12924970Y-20464714D01*
X12896399Y-20507572D01*
X12867828Y-20536143D01*
X12839256Y-20550429D01*
X13267828Y-20464714D02*
X13210685Y-20464714D01*
X13182113Y-20479000D01*
X13167828Y-20493286D01*
X13139256Y-20536143D01*
X13124970Y-20593286D01*
X13124970Y-20707572D01*
X13139256Y-20736143D01*
X13153542Y-20750429D01*
X13182113Y-20764714D01*
X13239256Y-20764714D01*
X13267828Y-20750429D01*
X13282113Y-20736143D01*
X13296399Y-20707572D01*
X13296399Y-20636143D01*
X13282113Y-20607572D01*
X13267828Y-20593286D01*
X13239256Y-20579000D01*
X13182113Y-20579000D01*
X13153542Y-20593286D01*
X13139256Y-20607572D01*
X13124970Y-20636143D01*
X13582113Y-20764714D02*
X13410685Y-20764714D01*
X13496399Y-20764714D02*
X13496399Y-20464714D01*
X13467828Y-20507572D01*
X13439256Y-20536143D01*
X13410685Y-20550429D01*
X13939256Y-20764714D02*
X13939256Y-20464714D01*
X14067828Y-20764714D02*
X14067828Y-20607572D01*
X14053542Y-20579000D01*
X14024970Y-20564714D01*
X13982113Y-20564714D01*
X13953542Y-20579000D01*
X13939256Y-20593286D01*
X14253542Y-20764714D02*
X14224970Y-20750429D01*
X14210685Y-20736143D01*
X14196399Y-20707572D01*
X14196399Y-20621857D01*
X14210685Y-20593286D01*
X14224970Y-20579000D01*
X14253542Y-20564714D01*
X14296399Y-20564714D01*
X14324970Y-20579000D01*
X14339256Y-20593286D01*
X14353542Y-20621857D01*
X14353542Y-20707572D01*
X14339256Y-20736143D01*
X14324970Y-20750429D01*
X14296399Y-20764714D01*
X14253542Y-20764714D01*
X14524970Y-20764714D02*
X14496399Y-20750429D01*
X14482113Y-20721857D01*
X14482113Y-20464714D01*
X14753542Y-20750429D02*
X14724970Y-20764714D01*
X14667828Y-20764714D01*
X14639256Y-20750429D01*
X14624970Y-20721857D01*
X14624970Y-20607572D01*
X14639256Y-20579000D01*
X14667828Y-20564714D01*
X14724970Y-20564714D01*
X14753542Y-20579000D01*
X14767828Y-20607572D01*
X14767828Y-20636143D01*
X14624970Y-20664714D01*
X14882113Y-20750429D02*
X14910685Y-20764714D01*
X14967828Y-20764714D01*
X14996399Y-20750429D01*
X15010685Y-20721857D01*
X15010685Y-20707572D01*
X14996399Y-20679000D01*
X14967828Y-20664714D01*
X14924970Y-20664714D01*
X14896399Y-20650429D01*
X14882113Y-20621857D01*
X14882113Y-20607572D01*
X14896399Y-20579000D01*
X14924970Y-20564714D01*
X14967828Y-20564714D01*
X14996399Y-20579000D01*
X15110685Y-20879000D02*
X15124970Y-20864714D01*
X15153542Y-20821857D01*
X15167828Y-20793286D01*
X15182113Y-20750429D01*
X15196399Y-20679000D01*
X15196399Y-20621857D01*
X15182113Y-20550429D01*
X15167828Y-20507572D01*
X15153542Y-20479000D01*
X15124970Y-20436143D01*
X15110685Y-20421857D01*
X8052828Y-21025000D02*
G75*
G03X8052828Y-21025000I-50800J0D01*
G01*
X8496399Y-21160714D02*
X8324970Y-21160714D01*
X8410685Y-21160714D02*
X8410685Y-20860714D01*
X8382113Y-20903572D01*
X8353542Y-20932143D01*
X8324970Y-20946429D01*
X8624970Y-21132143D02*
X8639256Y-21146429D01*
X8624970Y-21160714D01*
X8610685Y-21146429D01*
X8624970Y-21132143D01*
X8624970Y-21160714D01*
X8824970Y-20860714D02*
X8853542Y-20860714D01*
X8882113Y-20875000D01*
X8896399Y-20889286D01*
X8910685Y-20917857D01*
X8924970Y-20975000D01*
X8924970Y-21046429D01*
X8910685Y-21103572D01*
X8896399Y-21132143D01*
X8882113Y-21146429D01*
X8853542Y-21160714D01*
X8824970Y-21160714D01*
X8796399Y-21146429D01*
X8782113Y-21132143D01*
X8767828Y-21103572D01*
X8753542Y-21046429D01*
X8753542Y-20975000D01*
X8767828Y-20917857D01*
X8782113Y-20889286D01*
X8796399Y-20875000D01*
X8824970Y-20860714D01*
X9039256Y-20889286D02*
X9053542Y-20875000D01*
X9082113Y-20860714D01*
X9153542Y-20860714D01*
X9182113Y-20875000D01*
X9196399Y-20889286D01*
X9210685Y-20917857D01*
X9210685Y-20946429D01*
X9196399Y-20989286D01*
X9024970Y-21160714D01*
X9210685Y-21160714D01*
X9339256Y-21160714D02*
X9339256Y-20960714D01*
X9339256Y-20989286D02*
X9353542Y-20975000D01*
X9382113Y-20960714D01*
X9424970Y-20960714D01*
X9453542Y-20975000D01*
X9467828Y-21003572D01*
X9467828Y-21160714D01*
X9467828Y-21003572D02*
X9482113Y-20975000D01*
X9510685Y-20960714D01*
X9553542Y-20960714D01*
X9582113Y-20975000D01*
X9596399Y-21003572D01*
X9596399Y-21160714D01*
X9739256Y-21160714D02*
X9739256Y-20960714D01*
X9739256Y-20989286D02*
X9753542Y-20975000D01*
X9782113Y-20960714D01*
X9824970Y-20960714D01*
X9853542Y-20975000D01*
X9867828Y-21003572D01*
X9867828Y-21160714D01*
X9867828Y-21003572D02*
X9882113Y-20975000D01*
X9910685Y-20960714D01*
X9953542Y-20960714D01*
X9982113Y-20975000D01*
X9996399Y-21003572D01*
X9996399Y-21160714D01*
X10582113Y-20846429D02*
X10324970Y-21232143D01*
X10967828Y-20860714D02*
X10996399Y-20860714D01*
X11024970Y-20875000D01*
X11039256Y-20889286D01*
X11053542Y-20917857D01*
X11067828Y-20975000D01*
X11067828Y-21046429D01*
X11053542Y-21103572D01*
X11039256Y-21132143D01*
X11024970Y-21146429D01*
X10996399Y-21160714D01*
X10967828Y-21160714D01*
X10939256Y-21146429D01*
X10924970Y-21132143D01*
X10910685Y-21103572D01*
X10896399Y-21046429D01*
X10896399Y-20975000D01*
X10910685Y-20917857D01*
X10924970Y-20889286D01*
X10939256Y-20875000D01*
X10967828Y-20860714D01*
X11196399Y-21132143D02*
X11210685Y-21146429D01*
X11196399Y-21160714D01*
X11182113Y-21146429D01*
X11196399Y-21132143D01*
X11196399Y-21160714D01*
X11396399Y-20860714D02*
X11424970Y-20860714D01*
X11453542Y-20875000D01*
X11467828Y-20889286D01*
X11482113Y-20917857D01*
X11496399Y-20975000D01*
X11496399Y-21046429D01*
X11482113Y-21103572D01*
X11467828Y-21132143D01*
X11453542Y-21146429D01*
X11424970Y-21160714D01*
X11396399Y-21160714D01*
X11367828Y-21146429D01*
X11353542Y-21132143D01*
X11339256Y-21103572D01*
X11324970Y-21046429D01*
X11324970Y-20975000D01*
X11339256Y-20917857D01*
X11353542Y-20889286D01*
X11367828Y-20875000D01*
X11396399Y-20860714D01*
X11753542Y-20960714D02*
X11753542Y-21160714D01*
X11682113Y-20846429D02*
X11610685Y-21060714D01*
X11796399Y-21060714D01*
X11967828Y-20860714D02*
X11996399Y-20860714D01*
X12024970Y-20875000D01*
X12039256Y-20889286D01*
X12053542Y-20917857D01*
X12067828Y-20975000D01*
X12067828Y-21046429D01*
X12053542Y-21103572D01*
X12039256Y-21132143D01*
X12024970Y-21146429D01*
X11996399Y-21160714D01*
X11967828Y-21160714D01*
X11939256Y-21146429D01*
X11924970Y-21132143D01*
X11910685Y-21103572D01*
X11896399Y-21046429D01*
X11896399Y-20975000D01*
X11910685Y-20917857D01*
X11924970Y-20889286D01*
X11939256Y-20875000D01*
X11967828Y-20860714D01*
X12182113Y-20860714D02*
X12182113Y-20917857D01*
X12296399Y-20860714D02*
X12296399Y-20917857D01*
X12739256Y-21275000D02*
X12724970Y-21260714D01*
X12696399Y-21217857D01*
X12682113Y-21189286D01*
X12667828Y-21146429D01*
X12653542Y-21075000D01*
X12653542Y-21017857D01*
X12667828Y-20946429D01*
X12682113Y-20903572D01*
X12696399Y-20875000D01*
X12724970Y-20832143D01*
X12739256Y-20817857D01*
X12996399Y-20860714D02*
X12853542Y-20860714D01*
X12839256Y-21003572D01*
X12853542Y-20989286D01*
X12882113Y-20975000D01*
X12953542Y-20975000D01*
X12982113Y-20989286D01*
X12996399Y-21003572D01*
X13010685Y-21032143D01*
X13010685Y-21103572D01*
X12996399Y-21132143D01*
X12982113Y-21146429D01*
X12953542Y-21160714D01*
X12882113Y-21160714D01*
X12853542Y-21146429D01*
X12839256Y-21132143D01*
X13367828Y-21160714D02*
X13367828Y-20860714D01*
X13496399Y-21160714D02*
X13496399Y-21003572D01*
X13482113Y-20975000D01*
X13453542Y-20960714D01*
X13410685Y-20960714D01*
X13382113Y-20975000D01*
X13367828Y-20989286D01*
X13682113Y-21160714D02*
X13653542Y-21146429D01*
X13639256Y-21132143D01*
X13624970Y-21103572D01*
X13624970Y-21017857D01*
X13639256Y-20989286D01*
X13653542Y-20975000D01*
X13682113Y-20960714D01*
X13724970Y-20960714D01*
X13753542Y-20975000D01*
X13767828Y-20989286D01*
X13782113Y-21017857D01*
X13782113Y-21103572D01*
X13767828Y-21132143D01*
X13753542Y-21146429D01*
X13724970Y-21160714D01*
X13682113Y-21160714D01*
X13953542Y-21160714D02*
X13924970Y-21146429D01*
X13910685Y-21117857D01*
X13910685Y-20860714D01*
X14182113Y-21146429D02*
X14153542Y-21160714D01*
X14096399Y-21160714D01*
X14067828Y-21146429D01*
X14053542Y-21117857D01*
X14053542Y-21003572D01*
X14067828Y-20975000D01*
X14096399Y-20960714D01*
X14153542Y-20960714D01*
X14182113Y-20975000D01*
X14196399Y-21003572D01*
X14196399Y-21032143D01*
X14053542Y-21060714D01*
X14310685Y-21146429D02*
X14339256Y-21160714D01*
X14396399Y-21160714D01*
X14424970Y-21146429D01*
X14439256Y-21117857D01*
X14439256Y-21103572D01*
X14424970Y-21075000D01*
X14396399Y-21060714D01*
X14353542Y-21060714D01*
X14324970Y-21046429D01*
X14310685Y-21017857D01*
X14310685Y-21003572D01*
X14324970Y-20975000D01*
X14353542Y-20960714D01*
X14396399Y-20960714D01*
X14424970Y-20975000D01*
X14539256Y-21275000D02*
X14553542Y-21260714D01*
X14582113Y-21217857D01*
X14596399Y-21189286D01*
X14610685Y-21146429D01*
X14624970Y-21075000D01*
X14624970Y-21017857D01*
X14610685Y-20946429D01*
X14596399Y-20903572D01*
X14582113Y-20875000D01*
X14553542Y-20832143D01*
X14539256Y-20817857D01*
M02*
