M48
; DRILL file {KiCad (5.1.5)-3} date 2/10/2020 6:47:00 PM
; FORMAT={-:-/ absolute / inch / decimal}
; #@! TF.CreationDate,2020-02-10T18:47:00-06:00
; #@! TF.GenerationSoftware,Kicad,Pcbnew,(5.1.5)-3
; #@! TF.FileFunction,Plated,1,2,PTH
FMAT,2
INCH
T1C0.0130
T2C0.0400
%
G90
G05
T1
X3.625Y-4.95
X3.7Y-4.675
X3.7Y-5.375
X3.8Y-7.375
X3.825Y-6.05
X3.85Y-4.525
X3.875Y-4.9
X3.9Y-6.55
X3.925Y-6.125
X4.025Y-4.3
X4.025Y-7.7
X4.05Y-5.875
X4.075Y-4.675
X4.1Y-4.825
X4.15Y-5.65
X4.15Y-6.0
X4.195Y-5.025
X4.2Y-4.375
X4.2Y-5.65
X4.245Y-5.45
X4.25Y-5.125
X4.25Y-5.225
X4.25Y-5.5
X4.25Y-5.65
X4.275Y-6.325
X4.3Y-2.2
X4.3Y-3.0
X4.3Y-3.275
X4.3Y-3.65
X4.3Y-3.925
X4.325Y-2.425
X4.35Y-5.725
X4.375Y-4.425
X4.375Y-4.9
X4.375Y-4.975
X4.425Y-2.05
X4.45Y-6.175
X4.5Y-1.375
X4.5Y-2.4
X4.5Y-5.4
X4.525Y-3.6
X4.525Y-3.825
X4.525Y-6.05
X4.55Y-1.95
X4.55Y-3.8
X4.55Y-6.35
X4.575Y-3.775
X4.6Y-3.75
X4.6Y-3.9
X4.625Y-5.95
X4.625Y-6.2
X4.625Y-6.25
X4.625Y-6.4
X4.65Y-1.875
X4.65Y-3.75
X4.65Y-3.9
X4.65Y-5.475
X4.65Y-6.3
X4.675Y-3.725
X4.675Y-3.925
X4.675Y-6.125
X4.675Y-6.55
X4.7Y-2.075
X4.7Y-3.7
X4.7Y-3.95
X4.7Y-5.525
X4.7Y-6.45
X4.725Y-4.1
X4.75Y-4.05
X4.75Y-6.15
X4.8Y-3.6
X4.8Y-6.175
X4.825Y-3.575
X4.85Y-3.55
X4.85Y-5.425
X4.85Y-6.225
X4.875Y-3.525
X4.9Y-1.9
X4.9Y-3.8
X4.9Y-3.85
X4.9Y-4.425
X4.9Y-6.275
X4.925Y-3.575
X4.925Y-6.0
X4.925Y-6.525
X4.95Y-3.8
X4.95Y-3.85
X4.975Y-3.475
X4.975Y-4.45
X4.975Y-6.475
X4.975Y-6.575
X5.0Y-1.8
X5.0Y-3.5
X5.0Y-3.55
X5.025Y-3.575
X5.025Y-4.075
X5.025Y-4.875
X5.025Y-6.25
X5.025Y-6.525
X5.05Y-3.6
X5.05Y-4.05
X5.05Y-5.4
X5.05Y-5.725
X5.075Y-6.25
X5.1Y-4.5
X5.125Y-6.3332
X5.15Y-0.875
X5.15Y-3.7
X5.15Y-3.95
X5.175Y-3.725
X5.2Y-1.275
X5.2Y-3.75
X5.2Y-3.95
X5.2Y-6.2
X5.225Y-3.925
X5.25Y-3.75
X5.25Y-4.1
X5.25Y-5.975
X5.275Y-3.65
X5.275Y-3.775
X5.3Y-0.85
X5.3Y-3.8
X5.325Y-2.525
X5.325Y-6.35
X5.35Y-1.075
X5.35Y-3.975
X5.35Y-6.075
X5.375Y-3.125
X5.375Y-5.475
X5.375Y-5.775
X5.375Y-6.25
X5.45Y-1.25
X5.45Y-6.35
X5.5Y-0.975
X5.5Y-3.35
X5.5Y-6.425
X5.525Y-2.9
X5.525Y-3.25
X5.575Y-6.325
X5.6Y-3.925
X5.65Y-6.325
X5.675Y-1.575
X5.7Y-0.875
X5.725Y-2.05
X5.75Y-3.8
X5.775Y-2.2
X5.775Y-2.6
X5.775Y-3.275
X5.8Y-2.7
X5.8Y-6.475
X5.825Y-1.475
X5.825Y-2.9
X5.825Y-3.375
X5.85Y-5.65
X5.85Y-7.65
X5.9Y-6.35
X6.05Y-6.525
X6.1Y-2.475
X6.125Y-7.625
X6.175Y-6.375
X6.175Y-6.7
T2
X3.8Y-7.475
X3.8Y-7.575
X3.8Y-7.675
X6.07Y-6.818
X6.07Y-7.408
T0
M30
