G04 #@! TF.GenerationSoftware,KiCad,Pcbnew,(5.1.5)-3*
G04 #@! TF.CreationDate,2020-02-10T18:46:58-06:00*
G04 #@! TF.ProjectId,tymkrs_Cyphercon_2020_llama,74796d6b-7273-45f4-9379-70686572636f,V0*
G04 #@! TF.SameCoordinates,Original*
G04 #@! TF.FileFunction,Soldermask,Top*
G04 #@! TF.FilePolarity,Negative*
%FSLAX46Y46*%
G04 Gerber Fmt 4.6, Leading zero omitted, Abs format (unit mm)*
G04 Created by KiCad (PCBNEW (5.1.5)-3) date 2020-02-10 18:46:58*
%MOMM*%
%LPD*%
G04 APERTURE LIST*
%ADD10C,0.010000*%
%ADD11C,0.100000*%
G04 APERTURE END LIST*
D10*
G36*
X142395399Y-76089740D02*
G01*
X142740007Y-76334929D01*
X142992357Y-76703426D01*
X143139969Y-77162715D01*
X143170363Y-77680281D01*
X143071057Y-78223609D01*
X142946822Y-78542571D01*
X142764142Y-78841828D01*
X142484206Y-79199383D01*
X142139662Y-79583585D01*
X141763160Y-79962781D01*
X141387351Y-80305320D01*
X141044883Y-80579549D01*
X140768408Y-80753818D01*
X140618225Y-80800000D01*
X140495786Y-80741058D01*
X140263985Y-80584548D01*
X139967101Y-80360939D01*
X139882053Y-80293434D01*
X139143272Y-79628328D01*
X138600719Y-78976759D01*
X138255312Y-78340122D01*
X138107965Y-77719812D01*
X138102196Y-77581509D01*
X138116984Y-77455082D01*
X138539356Y-77455082D01*
X138547799Y-77802173D01*
X138553696Y-77833367D01*
X138737858Y-78339149D01*
X139090740Y-78876731D01*
X139621645Y-79459485D01*
X139809392Y-79638062D01*
X140123186Y-79921067D01*
X140385483Y-80143688D01*
X140560358Y-80276164D01*
X140608427Y-80300000D01*
X140723158Y-80241035D01*
X140942968Y-80086481D01*
X141219115Y-79870721D01*
X141797060Y-79339153D01*
X142245250Y-78800038D01*
X142544797Y-78280113D01*
X142676689Y-77807416D01*
X142684263Y-77247141D01*
X142580413Y-76848119D01*
X142360767Y-76602665D01*
X142020952Y-76503094D01*
X141932857Y-76500000D01*
X141613720Y-76578534D01*
X141298281Y-76779656D01*
X141044118Y-77051646D01*
X140908810Y-77342783D01*
X140900000Y-77427755D01*
X140850430Y-77667724D01*
X140731641Y-77815353D01*
X140588512Y-77828959D01*
X140524815Y-77776233D01*
X140432980Y-77593048D01*
X140354495Y-77329105D01*
X140354195Y-77327703D01*
X140187026Y-76962545D01*
X139892853Y-76688319D01*
X139525017Y-76531597D01*
X139136860Y-76518951D01*
X138896822Y-76601700D01*
X138733921Y-76782862D01*
X138608082Y-77091317D01*
X138539356Y-77455082D01*
X138116984Y-77455082D01*
X138171177Y-76991773D01*
X138367736Y-76528954D01*
X138667170Y-76205563D01*
X139044776Y-76034109D01*
X139475851Y-76027104D01*
X139935692Y-76197057D01*
X140304669Y-76466115D01*
X140530726Y-76663577D01*
X140658464Y-76738745D01*
X140736183Y-76705353D01*
X140796774Y-76606027D01*
X140986795Y-76402175D01*
X141296814Y-76206641D01*
X141649348Y-76059389D01*
X141966915Y-76000382D01*
X141971016Y-76000373D01*
X142395399Y-76089740D01*
G37*
X142395399Y-76089740D02*
X142740007Y-76334929D01*
X142992357Y-76703426D01*
X143139969Y-77162715D01*
X143170363Y-77680281D01*
X143071057Y-78223609D01*
X142946822Y-78542571D01*
X142764142Y-78841828D01*
X142484206Y-79199383D01*
X142139662Y-79583585D01*
X141763160Y-79962781D01*
X141387351Y-80305320D01*
X141044883Y-80579549D01*
X140768408Y-80753818D01*
X140618225Y-80800000D01*
X140495786Y-80741058D01*
X140263985Y-80584548D01*
X139967101Y-80360939D01*
X139882053Y-80293434D01*
X139143272Y-79628328D01*
X138600719Y-78976759D01*
X138255312Y-78340122D01*
X138107965Y-77719812D01*
X138102196Y-77581509D01*
X138116984Y-77455082D01*
X138539356Y-77455082D01*
X138547799Y-77802173D01*
X138553696Y-77833367D01*
X138737858Y-78339149D01*
X139090740Y-78876731D01*
X139621645Y-79459485D01*
X139809392Y-79638062D01*
X140123186Y-79921067D01*
X140385483Y-80143688D01*
X140560358Y-80276164D01*
X140608427Y-80300000D01*
X140723158Y-80241035D01*
X140942968Y-80086481D01*
X141219115Y-79870721D01*
X141797060Y-79339153D01*
X142245250Y-78800038D01*
X142544797Y-78280113D01*
X142676689Y-77807416D01*
X142684263Y-77247141D01*
X142580413Y-76848119D01*
X142360767Y-76602665D01*
X142020952Y-76503094D01*
X141932857Y-76500000D01*
X141613720Y-76578534D01*
X141298281Y-76779656D01*
X141044118Y-77051646D01*
X140908810Y-77342783D01*
X140900000Y-77427755D01*
X140850430Y-77667724D01*
X140731641Y-77815353D01*
X140588512Y-77828959D01*
X140524815Y-77776233D01*
X140432980Y-77593048D01*
X140354495Y-77329105D01*
X140354195Y-77327703D01*
X140187026Y-76962545D01*
X139892853Y-76688319D01*
X139525017Y-76531597D01*
X139136860Y-76518951D01*
X138896822Y-76601700D01*
X138733921Y-76782862D01*
X138608082Y-77091317D01*
X138539356Y-77455082D01*
X138116984Y-77455082D01*
X138171177Y-76991773D01*
X138367736Y-76528954D01*
X138667170Y-76205563D01*
X139044776Y-76034109D01*
X139475851Y-76027104D01*
X139935692Y-76197057D01*
X140304669Y-76466115D01*
X140530726Y-76663577D01*
X140658464Y-76738745D01*
X140736183Y-76705353D01*
X140796774Y-76606027D01*
X140986795Y-76402175D01*
X141296814Y-76206641D01*
X141649348Y-76059389D01*
X141966915Y-76000382D01*
X141971016Y-76000373D01*
X142395399Y-76089740D01*
G36*
X127718778Y-116220194D02*
G01*
X128340146Y-116250000D01*
X128702385Y-116877312D01*
X128893890Y-117199842D01*
X129056124Y-117456827D01*
X129155754Y-117595595D01*
X129159250Y-117599250D01*
X129308687Y-117615649D01*
X129597758Y-117527990D01*
X129797147Y-117442176D01*
X130350682Y-117249087D01*
X130811322Y-117223343D01*
X131172076Y-117364537D01*
X131339568Y-117531750D01*
X131466307Y-117815534D01*
X131553036Y-118235695D01*
X131595691Y-118731868D01*
X131590210Y-119243685D01*
X131532530Y-119710782D01*
X131496448Y-119862684D01*
X131248441Y-120396878D01*
X130820558Y-120907070D01*
X130232768Y-121377035D01*
X129505044Y-121790550D01*
X128736874Y-122104515D01*
X128116604Y-122270960D01*
X127618594Y-122295930D01*
X127222505Y-122178184D01*
X126982048Y-121997433D01*
X126789336Y-121776286D01*
X126719251Y-121574882D01*
X126737090Y-121289490D01*
X126739486Y-121272433D01*
X126788632Y-120870072D01*
X126791747Y-120608612D01*
X126741682Y-120432770D01*
X126631285Y-120287263D01*
X126609150Y-120264705D01*
X126442419Y-120148064D01*
X126254746Y-120147416D01*
X125999772Y-120271535D01*
X125777609Y-120422116D01*
X125657319Y-120473724D01*
X125521511Y-120429531D01*
X125322492Y-120267178D01*
X125202609Y-120152547D01*
X124981337Y-119918241D01*
X124835102Y-119728429D01*
X124800000Y-119649321D01*
X124805567Y-119638640D01*
X125403326Y-119638640D01*
X125419321Y-119783498D01*
X125580490Y-119851085D01*
X125876796Y-119806146D01*
X125991336Y-119765134D01*
X126407842Y-119666257D01*
X126741278Y-119744342D01*
X127010328Y-120004171D01*
X127028004Y-120030464D01*
X127237651Y-120486873D01*
X127255624Y-120917029D01*
X127202954Y-121092868D01*
X127132234Y-121421969D01*
X127220718Y-121654697D01*
X127451326Y-121789146D01*
X127806979Y-121823409D01*
X128270596Y-121755582D01*
X128825098Y-121583757D01*
X129391003Y-121337022D01*
X130095374Y-120930158D01*
X130611921Y-120489433D01*
X130951530Y-120003643D01*
X131103097Y-119575219D01*
X131171790Y-119079282D01*
X131167624Y-118586774D01*
X131096987Y-118152875D01*
X130966269Y-117832767D01*
X130890794Y-117741669D01*
X130768020Y-117645582D01*
X130646103Y-117620407D01*
X130463692Y-117670757D01*
X130171724Y-117795769D01*
X129805849Y-117937546D01*
X129447300Y-118042799D01*
X129284989Y-118073783D01*
X129101611Y-118089059D01*
X128967588Y-118058271D01*
X128844584Y-117948750D01*
X128694264Y-117727827D01*
X128505578Y-117409550D01*
X128280210Y-117043372D01*
X128110601Y-116824991D01*
X127966346Y-116721718D01*
X127845588Y-116700000D01*
X127660849Y-116745882D01*
X127609046Y-116892874D01*
X127691752Y-117154994D01*
X127910544Y-117546259D01*
X127947207Y-117604423D01*
X128255324Y-118111187D01*
X128453108Y-118499443D01*
X128555270Y-118806773D01*
X128576525Y-119070757D01*
X128564370Y-119180818D01*
X128434463Y-119631761D01*
X128224383Y-119900092D01*
X127939933Y-119983775D01*
X127586915Y-119880774D01*
X127238470Y-119645903D01*
X126817719Y-119337354D01*
X126472474Y-119178444D01*
X126160242Y-119157331D01*
X125847001Y-119258125D01*
X125542540Y-119451765D01*
X125403326Y-119638640D01*
X124805567Y-119638640D01*
X124872221Y-119510780D01*
X125054278Y-119304657D01*
X125294257Y-119081006D01*
X125540247Y-118889880D01*
X125668425Y-118811999D01*
X126096007Y-118700601D01*
X126580538Y-118757580D01*
X127086694Y-118973868D01*
X127520216Y-119287263D01*
X127743593Y-119469757D01*
X127877772Y-119527666D01*
X127974703Y-119478102D01*
X128003063Y-119446309D01*
X128116604Y-119158267D01*
X128069485Y-118780082D01*
X127866070Y-118334599D01*
X127758537Y-118166686D01*
X127548445Y-117816732D01*
X127351471Y-117413469D01*
X127187269Y-117007783D01*
X127075491Y-116650557D01*
X127035791Y-116392678D01*
X127046487Y-116323093D01*
X127148930Y-116245649D01*
X127396759Y-116214572D01*
X127718778Y-116220194D01*
G37*
X127718778Y-116220194D02*
X128340146Y-116250000D01*
X128702385Y-116877312D01*
X128893890Y-117199842D01*
X129056124Y-117456827D01*
X129155754Y-117595595D01*
X129159250Y-117599250D01*
X129308687Y-117615649D01*
X129597758Y-117527990D01*
X129797147Y-117442176D01*
X130350682Y-117249087D01*
X130811322Y-117223343D01*
X131172076Y-117364537D01*
X131339568Y-117531750D01*
X131466307Y-117815534D01*
X131553036Y-118235695D01*
X131595691Y-118731868D01*
X131590210Y-119243685D01*
X131532530Y-119710782D01*
X131496448Y-119862684D01*
X131248441Y-120396878D01*
X130820558Y-120907070D01*
X130232768Y-121377035D01*
X129505044Y-121790550D01*
X128736874Y-122104515D01*
X128116604Y-122270960D01*
X127618594Y-122295930D01*
X127222505Y-122178184D01*
X126982048Y-121997433D01*
X126789336Y-121776286D01*
X126719251Y-121574882D01*
X126737090Y-121289490D01*
X126739486Y-121272433D01*
X126788632Y-120870072D01*
X126791747Y-120608612D01*
X126741682Y-120432770D01*
X126631285Y-120287263D01*
X126609150Y-120264705D01*
X126442419Y-120148064D01*
X126254746Y-120147416D01*
X125999772Y-120271535D01*
X125777609Y-120422116D01*
X125657319Y-120473724D01*
X125521511Y-120429531D01*
X125322492Y-120267178D01*
X125202609Y-120152547D01*
X124981337Y-119918241D01*
X124835102Y-119728429D01*
X124800000Y-119649321D01*
X124805567Y-119638640D01*
X125403326Y-119638640D01*
X125419321Y-119783498D01*
X125580490Y-119851085D01*
X125876796Y-119806146D01*
X125991336Y-119765134D01*
X126407842Y-119666257D01*
X126741278Y-119744342D01*
X127010328Y-120004171D01*
X127028004Y-120030464D01*
X127237651Y-120486873D01*
X127255624Y-120917029D01*
X127202954Y-121092868D01*
X127132234Y-121421969D01*
X127220718Y-121654697D01*
X127451326Y-121789146D01*
X127806979Y-121823409D01*
X128270596Y-121755582D01*
X128825098Y-121583757D01*
X129391003Y-121337022D01*
X130095374Y-120930158D01*
X130611921Y-120489433D01*
X130951530Y-120003643D01*
X131103097Y-119575219D01*
X131171790Y-119079282D01*
X131167624Y-118586774D01*
X131096987Y-118152875D01*
X130966269Y-117832767D01*
X130890794Y-117741669D01*
X130768020Y-117645582D01*
X130646103Y-117620407D01*
X130463692Y-117670757D01*
X130171724Y-117795769D01*
X129805849Y-117937546D01*
X129447300Y-118042799D01*
X129284989Y-118073783D01*
X129101611Y-118089059D01*
X128967588Y-118058271D01*
X128844584Y-117948750D01*
X128694264Y-117727827D01*
X128505578Y-117409550D01*
X128280210Y-117043372D01*
X128110601Y-116824991D01*
X127966346Y-116721718D01*
X127845588Y-116700000D01*
X127660849Y-116745882D01*
X127609046Y-116892874D01*
X127691752Y-117154994D01*
X127910544Y-117546259D01*
X127947207Y-117604423D01*
X128255324Y-118111187D01*
X128453108Y-118499443D01*
X128555270Y-118806773D01*
X128576525Y-119070757D01*
X128564370Y-119180818D01*
X128434463Y-119631761D01*
X128224383Y-119900092D01*
X127939933Y-119983775D01*
X127586915Y-119880774D01*
X127238470Y-119645903D01*
X126817719Y-119337354D01*
X126472474Y-119178444D01*
X126160242Y-119157331D01*
X125847001Y-119258125D01*
X125542540Y-119451765D01*
X125403326Y-119638640D01*
X124805567Y-119638640D01*
X124872221Y-119510780D01*
X125054278Y-119304657D01*
X125294257Y-119081006D01*
X125540247Y-118889880D01*
X125668425Y-118811999D01*
X126096007Y-118700601D01*
X126580538Y-118757580D01*
X127086694Y-118973868D01*
X127520216Y-119287263D01*
X127743593Y-119469757D01*
X127877772Y-119527666D01*
X127974703Y-119478102D01*
X128003063Y-119446309D01*
X128116604Y-119158267D01*
X128069485Y-118780082D01*
X127866070Y-118334599D01*
X127758537Y-118166686D01*
X127548445Y-117816732D01*
X127351471Y-117413469D01*
X127187269Y-117007783D01*
X127075491Y-116650557D01*
X127035791Y-116392678D01*
X127046487Y-116323093D01*
X127148930Y-116245649D01*
X127396759Y-116214572D01*
X127718778Y-116220194D01*
G36*
X128906867Y-138522420D02*
G01*
X129369438Y-138803651D01*
X129773491Y-139248309D01*
X129988784Y-139616020D01*
X130261743Y-140304895D01*
X130433854Y-141023847D01*
X130500315Y-141724560D01*
X130456320Y-142358724D01*
X130310413Y-142850000D01*
X129960297Y-143385861D01*
X129488858Y-143780196D01*
X128927781Y-144020272D01*
X128308751Y-144093361D01*
X127663452Y-143986734D01*
X127563726Y-143953518D01*
X127117681Y-143715503D01*
X126713315Y-143361862D01*
X126450751Y-142998682D01*
X126293696Y-142523560D01*
X126234395Y-141929283D01*
X126251285Y-141570347D01*
X126711609Y-141570347D01*
X126712561Y-142107848D01*
X126769468Y-142543887D01*
X126795149Y-142635303D01*
X127026726Y-143040411D01*
X127395203Y-143349049D01*
X127855843Y-143548451D01*
X128363902Y-143625850D01*
X128874641Y-143568479D01*
X129343320Y-143363571D01*
X129344528Y-143362780D01*
X129678550Y-143065929D01*
X129894813Y-142676833D01*
X130000649Y-142170556D01*
X130003393Y-141522158D01*
X129976780Y-141212815D01*
X129841042Y-140471307D01*
X129616629Y-139860415D01*
X129321729Y-139387254D01*
X128974534Y-139058936D01*
X128593234Y-138882576D01*
X128196019Y-138865287D01*
X127801079Y-139014183D01*
X127426605Y-139336377D01*
X127090786Y-139838982D01*
X126991641Y-140045438D01*
X126856432Y-140469504D01*
X126761327Y-141001020D01*
X126711609Y-141570347D01*
X126251285Y-141570347D01*
X126265566Y-141266892D01*
X126379927Y-140587431D01*
X126570195Y-139941941D01*
X126829090Y-139381466D01*
X127004068Y-139120250D01*
X127434379Y-138703532D01*
X127912704Y-138467937D01*
X128412412Y-138409040D01*
X128906867Y-138522420D01*
G37*
X128906867Y-138522420D02*
X129369438Y-138803651D01*
X129773491Y-139248309D01*
X129988784Y-139616020D01*
X130261743Y-140304895D01*
X130433854Y-141023847D01*
X130500315Y-141724560D01*
X130456320Y-142358724D01*
X130310413Y-142850000D01*
X129960297Y-143385861D01*
X129488858Y-143780196D01*
X128927781Y-144020272D01*
X128308751Y-144093361D01*
X127663452Y-143986734D01*
X127563726Y-143953518D01*
X127117681Y-143715503D01*
X126713315Y-143361862D01*
X126450751Y-142998682D01*
X126293696Y-142523560D01*
X126234395Y-141929283D01*
X126251285Y-141570347D01*
X126711609Y-141570347D01*
X126712561Y-142107848D01*
X126769468Y-142543887D01*
X126795149Y-142635303D01*
X127026726Y-143040411D01*
X127395203Y-143349049D01*
X127855843Y-143548451D01*
X128363902Y-143625850D01*
X128874641Y-143568479D01*
X129343320Y-143363571D01*
X129344528Y-143362780D01*
X129678550Y-143065929D01*
X129894813Y-142676833D01*
X130000649Y-142170556D01*
X130003393Y-141522158D01*
X129976780Y-141212815D01*
X129841042Y-140471307D01*
X129616629Y-139860415D01*
X129321729Y-139387254D01*
X128974534Y-139058936D01*
X128593234Y-138882576D01*
X128196019Y-138865287D01*
X127801079Y-139014183D01*
X127426605Y-139336377D01*
X127090786Y-139838982D01*
X126991641Y-140045438D01*
X126856432Y-140469504D01*
X126761327Y-141001020D01*
X126711609Y-141570347D01*
X126251285Y-141570347D01*
X126265566Y-141266892D01*
X126379927Y-140587431D01*
X126570195Y-139941941D01*
X126829090Y-139381466D01*
X127004068Y-139120250D01*
X127434379Y-138703532D01*
X127912704Y-138467937D01*
X128412412Y-138409040D01*
X128906867Y-138522420D01*
G36*
X106750000Y-177042815D02*
G01*
X108133435Y-177115609D01*
X109524670Y-177188749D01*
X110901489Y-177261072D01*
X112241679Y-177331412D01*
X113523023Y-177398606D01*
X114723307Y-177461489D01*
X115820317Y-177518898D01*
X116791837Y-177569668D01*
X117615652Y-177612634D01*
X118269547Y-177646633D01*
X118450000Y-177655984D01*
X119619331Y-177706885D01*
X120954387Y-177748303D01*
X122421117Y-177780236D01*
X123985471Y-177802685D01*
X125613398Y-177815650D01*
X127270849Y-177819131D01*
X128923773Y-177813128D01*
X130538118Y-177797641D01*
X132079836Y-177772670D01*
X133514876Y-177738215D01*
X134809187Y-177694276D01*
X135650000Y-177655984D01*
X136240765Y-177625323D01*
X137009039Y-177585314D01*
X137932607Y-177537120D01*
X138989253Y-177481903D01*
X140156763Y-177420826D01*
X141412920Y-177355052D01*
X142735511Y-177285744D01*
X144102321Y-177214064D01*
X145491133Y-177141177D01*
X146879734Y-177068244D01*
X147350000Y-177043531D01*
X155950000Y-176591520D01*
X156518085Y-177191064D01*
X157279653Y-178090326D01*
X157883695Y-179007672D01*
X158324722Y-179927251D01*
X158597245Y-180833210D01*
X158695777Y-181709698D01*
X158614827Y-182540864D01*
X158506018Y-182932507D01*
X158021063Y-184068461D01*
X157388798Y-185103278D01*
X156702109Y-185928433D01*
X155950000Y-186706867D01*
X147350000Y-186255955D01*
X144587497Y-186113792D01*
X142017333Y-185987145D01*
X139632470Y-185875752D01*
X137425871Y-185779350D01*
X135390497Y-185697677D01*
X133519310Y-185630472D01*
X131805274Y-185577472D01*
X130241350Y-185538416D01*
X128820500Y-185513040D01*
X127535687Y-185501084D01*
X127049999Y-185500000D01*
X125826186Y-185506510D01*
X124469242Y-185526217D01*
X122972140Y-185559380D01*
X121327851Y-185606261D01*
X119529348Y-185667120D01*
X117569603Y-185742219D01*
X115441587Y-185831817D01*
X113138274Y-185936176D01*
X110652635Y-186055556D01*
X107977642Y-186190219D01*
X106774462Y-186252521D01*
X105483984Y-186319840D01*
X104251669Y-186384087D01*
X103092018Y-186444509D01*
X102019533Y-186500351D01*
X101048714Y-186550860D01*
X100194062Y-186595282D01*
X99470079Y-186632863D01*
X98891264Y-186662849D01*
X98472120Y-186684488D01*
X98227146Y-186697024D01*
X98166362Y-186700000D01*
X98087823Y-186632793D01*
X97902002Y-186451553D01*
X97639786Y-186186846D01*
X97433825Y-185975000D01*
X96778273Y-185204059D01*
X96230840Y-184373129D01*
X95808342Y-183517523D01*
X95527599Y-182672557D01*
X95405427Y-181873545D01*
X95401500Y-181707484D01*
X95497296Y-180836784D01*
X95774056Y-179928361D01*
X96221622Y-179003424D01*
X96829837Y-178083179D01*
X97542474Y-177237630D01*
X98150000Y-176590089D01*
X106750000Y-177042815D01*
G37*
X106750000Y-177042815D02*
X108133435Y-177115609D01*
X109524670Y-177188749D01*
X110901489Y-177261072D01*
X112241679Y-177331412D01*
X113523023Y-177398606D01*
X114723307Y-177461489D01*
X115820317Y-177518898D01*
X116791837Y-177569668D01*
X117615652Y-177612634D01*
X118269547Y-177646633D01*
X118450000Y-177655984D01*
X119619331Y-177706885D01*
X120954387Y-177748303D01*
X122421117Y-177780236D01*
X123985471Y-177802685D01*
X125613398Y-177815650D01*
X127270849Y-177819131D01*
X128923773Y-177813128D01*
X130538118Y-177797641D01*
X132079836Y-177772670D01*
X133514876Y-177738215D01*
X134809187Y-177694276D01*
X135650000Y-177655984D01*
X136240765Y-177625323D01*
X137009039Y-177585314D01*
X137932607Y-177537120D01*
X138989253Y-177481903D01*
X140156763Y-177420826D01*
X141412920Y-177355052D01*
X142735511Y-177285744D01*
X144102321Y-177214064D01*
X145491133Y-177141177D01*
X146879734Y-177068244D01*
X147350000Y-177043531D01*
X155950000Y-176591520D01*
X156518085Y-177191064D01*
X157279653Y-178090326D01*
X157883695Y-179007672D01*
X158324722Y-179927251D01*
X158597245Y-180833210D01*
X158695777Y-181709698D01*
X158614827Y-182540864D01*
X158506018Y-182932507D01*
X158021063Y-184068461D01*
X157388798Y-185103278D01*
X156702109Y-185928433D01*
X155950000Y-186706867D01*
X147350000Y-186255955D01*
X144587497Y-186113792D01*
X142017333Y-185987145D01*
X139632470Y-185875752D01*
X137425871Y-185779350D01*
X135390497Y-185697677D01*
X133519310Y-185630472D01*
X131805274Y-185577472D01*
X130241350Y-185538416D01*
X128820500Y-185513040D01*
X127535687Y-185501084D01*
X127049999Y-185500000D01*
X125826186Y-185506510D01*
X124469242Y-185526217D01*
X122972140Y-185559380D01*
X121327851Y-185606261D01*
X119529348Y-185667120D01*
X117569603Y-185742219D01*
X115441587Y-185831817D01*
X113138274Y-185936176D01*
X110652635Y-186055556D01*
X107977642Y-186190219D01*
X106774462Y-186252521D01*
X105483984Y-186319840D01*
X104251669Y-186384087D01*
X103092018Y-186444509D01*
X102019533Y-186500351D01*
X101048714Y-186550860D01*
X100194062Y-186595282D01*
X99470079Y-186632863D01*
X98891264Y-186662849D01*
X98472120Y-186684488D01*
X98227146Y-186697024D01*
X98166362Y-186700000D01*
X98087823Y-186632793D01*
X97902002Y-186451553D01*
X97639786Y-186186846D01*
X97433825Y-185975000D01*
X96778273Y-185204059D01*
X96230840Y-184373129D01*
X95808342Y-183517523D01*
X95527599Y-182672557D01*
X95405427Y-181873545D01*
X95401500Y-181707484D01*
X95497296Y-180836784D01*
X95774056Y-179928361D01*
X96221622Y-179003424D01*
X96829837Y-178083179D01*
X97542474Y-177237630D01*
X98150000Y-176590089D01*
X106750000Y-177042815D01*
D11*
G36*
X96749676Y-194187859D02*
G01*
X96892973Y-194247214D01*
X97021938Y-194333386D01*
X97131614Y-194443062D01*
X97217786Y-194572027D01*
X97277141Y-194715324D01*
X97307400Y-194867447D01*
X97307400Y-195022553D01*
X97277141Y-195174676D01*
X97217786Y-195317973D01*
X97131614Y-195446938D01*
X97021938Y-195556614D01*
X96892973Y-195642786D01*
X96749676Y-195702141D01*
X96597553Y-195732400D01*
X96442447Y-195732400D01*
X96290324Y-195702141D01*
X96147027Y-195642786D01*
X96018062Y-195556614D01*
X95908386Y-195446938D01*
X95822214Y-195317973D01*
X95762859Y-195174676D01*
X95732600Y-195022553D01*
X95732600Y-194867447D01*
X95762859Y-194715324D01*
X95822214Y-194572027D01*
X95908386Y-194443062D01*
X96018062Y-194333386D01*
X96147027Y-194247214D01*
X96290324Y-194187859D01*
X96442447Y-194157600D01*
X96597553Y-194157600D01*
X96749676Y-194187859D01*
G37*
G36*
X154301245Y-192778751D02*
G01*
X154335866Y-192789253D01*
X154367774Y-192806308D01*
X154395741Y-192829259D01*
X154418692Y-192857226D01*
X154435747Y-192889134D01*
X154446249Y-192923755D01*
X154450400Y-192965901D01*
X154450400Y-194384099D01*
X154446249Y-194426245D01*
X154435747Y-194460866D01*
X154418692Y-194492774D01*
X154395741Y-194520741D01*
X154367774Y-194543692D01*
X154335866Y-194560747D01*
X154301245Y-194571249D01*
X154259099Y-194575400D01*
X153340901Y-194575400D01*
X153298755Y-194571249D01*
X153264134Y-194560747D01*
X153232226Y-194543692D01*
X153204259Y-194520741D01*
X153181308Y-194492774D01*
X153164253Y-194460866D01*
X153153751Y-194426245D01*
X153149600Y-194384099D01*
X153149600Y-192965901D01*
X153153751Y-192923755D01*
X153164253Y-192889134D01*
X153181308Y-192857226D01*
X153204259Y-192829259D01*
X153232226Y-192806308D01*
X153264134Y-192789253D01*
X153298755Y-192778751D01*
X153340901Y-192774600D01*
X154259099Y-192774600D01*
X154301245Y-192778751D01*
G37*
G36*
X151501245Y-192778751D02*
G01*
X151535866Y-192789253D01*
X151567774Y-192806308D01*
X151595741Y-192829259D01*
X151618692Y-192857226D01*
X151635747Y-192889134D01*
X151646249Y-192923755D01*
X151650400Y-192965901D01*
X151650400Y-194384099D01*
X151646249Y-194426245D01*
X151635747Y-194460866D01*
X151618692Y-194492774D01*
X151595741Y-194520741D01*
X151567774Y-194543692D01*
X151535866Y-194560747D01*
X151501245Y-194571249D01*
X151459099Y-194575400D01*
X150540901Y-194575400D01*
X150498755Y-194571249D01*
X150464134Y-194560747D01*
X150432226Y-194543692D01*
X150404259Y-194520741D01*
X150381308Y-194492774D01*
X150364253Y-194460866D01*
X150353751Y-194426245D01*
X150349600Y-194384099D01*
X150349600Y-192965901D01*
X150353751Y-192923755D01*
X150364253Y-192889134D01*
X150381308Y-192857226D01*
X150404259Y-192829259D01*
X150432226Y-192806308D01*
X150464134Y-192789253D01*
X150498755Y-192778751D01*
X150540901Y-192774600D01*
X151459099Y-192774600D01*
X151501245Y-192778751D01*
G37*
G36*
X96749676Y-191647859D02*
G01*
X96892973Y-191707214D01*
X97021938Y-191793386D01*
X97131614Y-191903062D01*
X97217786Y-192032027D01*
X97277141Y-192175324D01*
X97307400Y-192327447D01*
X97307400Y-192482553D01*
X97277141Y-192634676D01*
X97217786Y-192777973D01*
X97131614Y-192906938D01*
X97021938Y-193016614D01*
X96892973Y-193102786D01*
X96749676Y-193162141D01*
X96597553Y-193192400D01*
X96442447Y-193192400D01*
X96290324Y-193162141D01*
X96147027Y-193102786D01*
X96018062Y-193016614D01*
X95908386Y-192906938D01*
X95822214Y-192777973D01*
X95762859Y-192634676D01*
X95732600Y-192482553D01*
X95732600Y-192327447D01*
X95762859Y-192175324D01*
X95822214Y-192032027D01*
X95908386Y-191903062D01*
X96018062Y-191793386D01*
X96147027Y-191707214D01*
X96290324Y-191647859D01*
X96442447Y-191617600D01*
X96597553Y-191617600D01*
X96749676Y-191647859D01*
G37*
G36*
X97307400Y-190652400D02*
G01*
X95732600Y-190652400D01*
X95732600Y-189077600D01*
X97307400Y-189077600D01*
X97307400Y-190652400D01*
G37*
G36*
X154444721Y-187283940D02*
G01*
X154542201Y-187324318D01*
X154611130Y-187352869D01*
X154611131Y-187352870D01*
X154760896Y-187452939D01*
X154888261Y-187580304D01*
X154955125Y-187680374D01*
X154988331Y-187730070D01*
X155016882Y-187798999D01*
X155057260Y-187896479D01*
X155092400Y-188073139D01*
X155092400Y-188253261D01*
X155057260Y-188429921D01*
X155016882Y-188527401D01*
X154988331Y-188596330D01*
X154988330Y-188596331D01*
X154888261Y-188746096D01*
X154760896Y-188873461D01*
X154660826Y-188940325D01*
X154611130Y-188973531D01*
X154542201Y-189002082D01*
X154444721Y-189042460D01*
X154268061Y-189077600D01*
X154087939Y-189077600D01*
X153911279Y-189042460D01*
X153813799Y-189002082D01*
X153744870Y-188973531D01*
X153695174Y-188940325D01*
X153595104Y-188873461D01*
X153467739Y-188746096D01*
X153367670Y-188596331D01*
X153367669Y-188596330D01*
X153339118Y-188527401D01*
X153298740Y-188429921D01*
X153263600Y-188253261D01*
X153263600Y-188073139D01*
X153298740Y-187896479D01*
X153339118Y-187798999D01*
X153367669Y-187730070D01*
X153400875Y-187680374D01*
X153467739Y-187580304D01*
X153595104Y-187452939D01*
X153744869Y-187352870D01*
X153744870Y-187352869D01*
X153813799Y-187324318D01*
X153911279Y-187283940D01*
X154087939Y-187248800D01*
X154268061Y-187248800D01*
X154444721Y-187283940D01*
G37*
G36*
X155092400Y-174091600D02*
G01*
X153263600Y-174091600D01*
X153263600Y-172262800D01*
X155092400Y-172262800D01*
X155092400Y-174091600D01*
G37*
G36*
X104631292Y-158697439D02*
G01*
X104662872Y-158707019D01*
X104691978Y-158722577D01*
X104717488Y-158743512D01*
X104738423Y-158769022D01*
X104753981Y-158798128D01*
X104763561Y-158829708D01*
X104767400Y-158868690D01*
X104767400Y-159444310D01*
X104763561Y-159483292D01*
X104753981Y-159514872D01*
X104738423Y-159543978D01*
X104717488Y-159569488D01*
X104691978Y-159590423D01*
X104662872Y-159605981D01*
X104631292Y-159615561D01*
X104592310Y-159619400D01*
X103941690Y-159619400D01*
X103902708Y-159615561D01*
X103871128Y-159605981D01*
X103842022Y-159590423D01*
X103816512Y-159569488D01*
X103795577Y-159543978D01*
X103780019Y-159514872D01*
X103770439Y-159483292D01*
X103766600Y-159444310D01*
X103766600Y-158868690D01*
X103770439Y-158829708D01*
X103780019Y-158798128D01*
X103795577Y-158769022D01*
X103816512Y-158743512D01*
X103842022Y-158722577D01*
X103871128Y-158707019D01*
X103902708Y-158697439D01*
X103941690Y-158693600D01*
X104592310Y-158693600D01*
X104631292Y-158697439D01*
G37*
G36*
X104631292Y-157122439D02*
G01*
X104662872Y-157132019D01*
X104691978Y-157147577D01*
X104717488Y-157168512D01*
X104738423Y-157194022D01*
X104753981Y-157223128D01*
X104763561Y-157254708D01*
X104767400Y-157293690D01*
X104767400Y-157869310D01*
X104763561Y-157908292D01*
X104753981Y-157939872D01*
X104738423Y-157968978D01*
X104717488Y-157994488D01*
X104691978Y-158015423D01*
X104662872Y-158030981D01*
X104631292Y-158040561D01*
X104592310Y-158044400D01*
X103941690Y-158044400D01*
X103902708Y-158040561D01*
X103871128Y-158030981D01*
X103842022Y-158015423D01*
X103816512Y-157994488D01*
X103795577Y-157968978D01*
X103780019Y-157939872D01*
X103770439Y-157908292D01*
X103766600Y-157869310D01*
X103766600Y-157293690D01*
X103770439Y-157254708D01*
X103780019Y-157223128D01*
X103795577Y-157194022D01*
X103816512Y-157168512D01*
X103842022Y-157147577D01*
X103871128Y-157132019D01*
X103902708Y-157122439D01*
X103941690Y-157118600D01*
X104592310Y-157118600D01*
X104631292Y-157122439D01*
G37*
G36*
X128113639Y-156577097D02*
G01*
X128144526Y-156588722D01*
X128172549Y-156606148D01*
X128196639Y-156628711D01*
X128219454Y-156660549D01*
X128247629Y-156709350D01*
X128247635Y-156709358D01*
X128479085Y-157110242D01*
X128479090Y-157110252D01*
X128507263Y-157159050D01*
X128523429Y-157194728D01*
X128530924Y-157226872D01*
X128532004Y-157259855D01*
X128526629Y-157292413D01*
X128515004Y-157323300D01*
X128497578Y-157351323D01*
X128475015Y-157375413D01*
X128443177Y-157398228D01*
X128394376Y-157426403D01*
X128394368Y-157426409D01*
X127928532Y-157695359D01*
X127928522Y-157695364D01*
X127879724Y-157723537D01*
X127844046Y-157739703D01*
X127811902Y-157747198D01*
X127778919Y-157748278D01*
X127746361Y-157742903D01*
X127715474Y-157731278D01*
X127687451Y-157713852D01*
X127663361Y-157691289D01*
X127640546Y-157659451D01*
X127612371Y-157610650D01*
X127612365Y-157610642D01*
X127380915Y-157209758D01*
X127380910Y-157209748D01*
X127352737Y-157160950D01*
X127336571Y-157125272D01*
X127329076Y-157093128D01*
X127327996Y-157060145D01*
X127333371Y-157027587D01*
X127344996Y-156996700D01*
X127362422Y-156968677D01*
X127384985Y-156944587D01*
X127416823Y-156921772D01*
X127465624Y-156893597D01*
X127465632Y-156893591D01*
X127931468Y-156624641D01*
X127931478Y-156624636D01*
X127980276Y-156596463D01*
X128015954Y-156580297D01*
X128048098Y-156572802D01*
X128081081Y-156571722D01*
X128113639Y-156577097D01*
G37*
G36*
X127326139Y-155213105D02*
G01*
X127357026Y-155224730D01*
X127385049Y-155242156D01*
X127409139Y-155264719D01*
X127431954Y-155296557D01*
X127460129Y-155345358D01*
X127460135Y-155345366D01*
X127691585Y-155746250D01*
X127691590Y-155746260D01*
X127719763Y-155795058D01*
X127735929Y-155830736D01*
X127743424Y-155862880D01*
X127744504Y-155895863D01*
X127739129Y-155928421D01*
X127727504Y-155959308D01*
X127710078Y-155987331D01*
X127687515Y-156011421D01*
X127655677Y-156034236D01*
X127606876Y-156062411D01*
X127606868Y-156062417D01*
X127141032Y-156331367D01*
X127141022Y-156331372D01*
X127092224Y-156359545D01*
X127056546Y-156375711D01*
X127024402Y-156383206D01*
X126991419Y-156384286D01*
X126958861Y-156378911D01*
X126927974Y-156367286D01*
X126899951Y-156349860D01*
X126875861Y-156327297D01*
X126853046Y-156295459D01*
X126824871Y-156246658D01*
X126824865Y-156246650D01*
X126593415Y-155845766D01*
X126593410Y-155845756D01*
X126565237Y-155796958D01*
X126549071Y-155761280D01*
X126541576Y-155729136D01*
X126540496Y-155696153D01*
X126545871Y-155663595D01*
X126557496Y-155632708D01*
X126574922Y-155604685D01*
X126597485Y-155580595D01*
X126629323Y-155557780D01*
X126678124Y-155529605D01*
X126678132Y-155529599D01*
X127143968Y-155260649D01*
X127143978Y-155260644D01*
X127192776Y-155232471D01*
X127228454Y-155216305D01*
X127260598Y-155208810D01*
X127293581Y-155207730D01*
X127326139Y-155213105D01*
G37*
G36*
X108146828Y-151991794D02*
G01*
X108178613Y-152000683D01*
X108208046Y-152015599D01*
X108234008Y-152035974D01*
X108259515Y-152065708D01*
X108632694Y-152598662D01*
X108651906Y-152632793D01*
X108662174Y-152664162D01*
X108666124Y-152696922D01*
X108663606Y-152729830D01*
X108654717Y-152761615D01*
X108639801Y-152791048D01*
X108619426Y-152817010D01*
X108589692Y-152842517D01*
X108118174Y-153172678D01*
X108084043Y-153191890D01*
X108052674Y-153202158D01*
X108019913Y-153206108D01*
X107987006Y-153203590D01*
X107955221Y-153194701D01*
X107925788Y-153179785D01*
X107899826Y-153159410D01*
X107874319Y-153129676D01*
X107501140Y-152596722D01*
X107481928Y-152562591D01*
X107471660Y-152531222D01*
X107467710Y-152498462D01*
X107470228Y-152465554D01*
X107479117Y-152433769D01*
X107494033Y-152404336D01*
X107514408Y-152378374D01*
X107544142Y-152352867D01*
X108015660Y-152022706D01*
X108049791Y-152003494D01*
X108081160Y-151993226D01*
X108113921Y-151989276D01*
X108146828Y-151991794D01*
G37*
G36*
X136721828Y-151483794D02*
G01*
X136753613Y-151492683D01*
X136783046Y-151507599D01*
X136809008Y-151527974D01*
X136834515Y-151557708D01*
X137207694Y-152090662D01*
X137226906Y-152124793D01*
X137237174Y-152156162D01*
X137241124Y-152188922D01*
X137238606Y-152221830D01*
X137229717Y-152253615D01*
X137214801Y-152283048D01*
X137194426Y-152309010D01*
X137164692Y-152334517D01*
X136693174Y-152664678D01*
X136659043Y-152683890D01*
X136627674Y-152694158D01*
X136594913Y-152698108D01*
X136562006Y-152695590D01*
X136530221Y-152686701D01*
X136500788Y-152671785D01*
X136474826Y-152651410D01*
X136449319Y-152621676D01*
X136076140Y-152088722D01*
X136056928Y-152054591D01*
X136046660Y-152023222D01*
X136042710Y-151990462D01*
X136045228Y-151957554D01*
X136054117Y-151925769D01*
X136069033Y-151896336D01*
X136089408Y-151870374D01*
X136119142Y-151844867D01*
X136590660Y-151514706D01*
X136624791Y-151495494D01*
X136656160Y-151485226D01*
X136688921Y-151481276D01*
X136721828Y-151483794D01*
G37*
G36*
X94754276Y-151570903D02*
G01*
X94785412Y-151581852D01*
X94813811Y-151598663D01*
X94838381Y-151620690D01*
X94858185Y-151647091D01*
X94875126Y-151682409D01*
X94894401Y-151735368D01*
X94894403Y-151735371D01*
X94996796Y-152016693D01*
X95071999Y-152223312D01*
X95081725Y-152261262D01*
X95083524Y-152294213D01*
X95078860Y-152326879D01*
X95067910Y-152358016D01*
X95051100Y-152386415D01*
X95029074Y-152410984D01*
X95002670Y-152430790D01*
X94967357Y-152447729D01*
X94914395Y-152467005D01*
X94914392Y-152467007D01*
X94431158Y-152642889D01*
X94355973Y-152670254D01*
X94318023Y-152679980D01*
X94285073Y-152681779D01*
X94252406Y-152677115D01*
X94221270Y-152666166D01*
X94192871Y-152649355D01*
X94168301Y-152627328D01*
X94148497Y-152600927D01*
X94131556Y-152565609D01*
X94096737Y-152469944D01*
X93982529Y-152156162D01*
X93934683Y-152024706D01*
X93924957Y-151986756D01*
X93923158Y-151953805D01*
X93927822Y-151921139D01*
X93938772Y-151890002D01*
X93955582Y-151861603D01*
X93977608Y-151837034D01*
X94004012Y-151817228D01*
X94039325Y-151800289D01*
X94092287Y-151781013D01*
X94092290Y-151781011D01*
X94597751Y-151597039D01*
X94597752Y-151597039D01*
X94650709Y-151577764D01*
X94688659Y-151568038D01*
X94721609Y-151566239D01*
X94754276Y-151570903D01*
G37*
G36*
X109436994Y-151088410D02*
G01*
X109468779Y-151097299D01*
X109498212Y-151112215D01*
X109524174Y-151132590D01*
X109549681Y-151162324D01*
X109922860Y-151695278D01*
X109942072Y-151729409D01*
X109952340Y-151760778D01*
X109956290Y-151793538D01*
X109953772Y-151826446D01*
X109944883Y-151858231D01*
X109929967Y-151887664D01*
X109909592Y-151913626D01*
X109879858Y-151939133D01*
X109408340Y-152269294D01*
X109374209Y-152288506D01*
X109342840Y-152298774D01*
X109310079Y-152302724D01*
X109277172Y-152300206D01*
X109245387Y-152291317D01*
X109215954Y-152276401D01*
X109189992Y-152256026D01*
X109164485Y-152226292D01*
X108791306Y-151693338D01*
X108772094Y-151659207D01*
X108761826Y-151627838D01*
X108757876Y-151595078D01*
X108760394Y-151562170D01*
X108769283Y-151530385D01*
X108784199Y-151500952D01*
X108804574Y-151474990D01*
X108834308Y-151449483D01*
X109305826Y-151119322D01*
X109339957Y-151100110D01*
X109371326Y-151089842D01*
X109404087Y-151085892D01*
X109436994Y-151088410D01*
G37*
G36*
X138011994Y-150580410D02*
G01*
X138043779Y-150589299D01*
X138073212Y-150604215D01*
X138099174Y-150624590D01*
X138124681Y-150654324D01*
X138497860Y-151187278D01*
X138517072Y-151221409D01*
X138527340Y-151252778D01*
X138531290Y-151285538D01*
X138528772Y-151318446D01*
X138519883Y-151350231D01*
X138504967Y-151379664D01*
X138484592Y-151405626D01*
X138454858Y-151431133D01*
X137983340Y-151761294D01*
X137949209Y-151780506D01*
X137917840Y-151790774D01*
X137885079Y-151794724D01*
X137852172Y-151792206D01*
X137820387Y-151783317D01*
X137790954Y-151768401D01*
X137764992Y-151748026D01*
X137739485Y-151718292D01*
X137366306Y-151185338D01*
X137347094Y-151151207D01*
X137336826Y-151119838D01*
X137332876Y-151087078D01*
X137335394Y-151054170D01*
X137344283Y-151022385D01*
X137359199Y-150992952D01*
X137379574Y-150966990D01*
X137409308Y-150941483D01*
X137880826Y-150611322D01*
X137914957Y-150592110D01*
X137946326Y-150581842D01*
X137979087Y-150577892D01*
X138011994Y-150580410D01*
G37*
G36*
X94215594Y-150090885D02*
G01*
X94246730Y-150101834D01*
X94275129Y-150118645D01*
X94299699Y-150140672D01*
X94319503Y-150167073D01*
X94336444Y-150202391D01*
X94355719Y-150255350D01*
X94355721Y-150255353D01*
X94447818Y-150508389D01*
X94533317Y-150743294D01*
X94543043Y-150781244D01*
X94544842Y-150814195D01*
X94540178Y-150846861D01*
X94529228Y-150877998D01*
X94512418Y-150906397D01*
X94490392Y-150930966D01*
X94463988Y-150950772D01*
X94428675Y-150967711D01*
X94375713Y-150986987D01*
X94375710Y-150986989D01*
X93893979Y-151162324D01*
X93817291Y-151190236D01*
X93779341Y-151199962D01*
X93746391Y-151201761D01*
X93713724Y-151197097D01*
X93682588Y-151186148D01*
X93654189Y-151169337D01*
X93629619Y-151147310D01*
X93609815Y-151120909D01*
X93592874Y-151085591D01*
X93569869Y-151022385D01*
X93432020Y-150643650D01*
X93396001Y-150544688D01*
X93386275Y-150506738D01*
X93384476Y-150473787D01*
X93389140Y-150441121D01*
X93400090Y-150409984D01*
X93416900Y-150381585D01*
X93438926Y-150357016D01*
X93465330Y-150337210D01*
X93500643Y-150320271D01*
X93553605Y-150300995D01*
X93553608Y-150300993D01*
X94059069Y-150117021D01*
X94059070Y-150117021D01*
X94112027Y-150097746D01*
X94149977Y-150088020D01*
X94182927Y-150086221D01*
X94215594Y-150090885D01*
G37*
G36*
X148802417Y-145974121D02*
G01*
X148833304Y-145985746D01*
X148861327Y-146003172D01*
X148885417Y-146025735D01*
X148908232Y-146057573D01*
X148936407Y-146106374D01*
X148936413Y-146106382D01*
X149205363Y-146572218D01*
X149205368Y-146572228D01*
X149233541Y-146621026D01*
X149249707Y-146656704D01*
X149257202Y-146688848D01*
X149258282Y-146721831D01*
X149252907Y-146754389D01*
X149241282Y-146785276D01*
X149223856Y-146813299D01*
X149201293Y-146837389D01*
X149169455Y-146860204D01*
X149120654Y-146888379D01*
X149120646Y-146888385D01*
X148719762Y-147119835D01*
X148719752Y-147119840D01*
X148670954Y-147148013D01*
X148635276Y-147164179D01*
X148603132Y-147171674D01*
X148570149Y-147172754D01*
X148537591Y-147167379D01*
X148506704Y-147155754D01*
X148478681Y-147138328D01*
X148454591Y-147115765D01*
X148431776Y-147083927D01*
X148403601Y-147035126D01*
X148403595Y-147035118D01*
X148134645Y-146569282D01*
X148134640Y-146569272D01*
X148106467Y-146520474D01*
X148090301Y-146484796D01*
X148082806Y-146452652D01*
X148081726Y-146419669D01*
X148087101Y-146387111D01*
X148098726Y-146356224D01*
X148116152Y-146328201D01*
X148138715Y-146304111D01*
X148170553Y-146281296D01*
X148219354Y-146253121D01*
X148219362Y-146253115D01*
X148620246Y-146021665D01*
X148620256Y-146021660D01*
X148669054Y-145993487D01*
X148704732Y-145977321D01*
X148736876Y-145969826D01*
X148769859Y-145968746D01*
X148802417Y-145974121D01*
G37*
G36*
X150166409Y-145186621D02*
G01*
X150197296Y-145198246D01*
X150225319Y-145215672D01*
X150249409Y-145238235D01*
X150272224Y-145270073D01*
X150300399Y-145318874D01*
X150300405Y-145318882D01*
X150569355Y-145784718D01*
X150569360Y-145784728D01*
X150597533Y-145833526D01*
X150613699Y-145869204D01*
X150621194Y-145901348D01*
X150622274Y-145934331D01*
X150616899Y-145966889D01*
X150605274Y-145997776D01*
X150587848Y-146025799D01*
X150565285Y-146049889D01*
X150533447Y-146072704D01*
X150484646Y-146100879D01*
X150484638Y-146100885D01*
X150083754Y-146332335D01*
X150083744Y-146332340D01*
X150034946Y-146360513D01*
X149999268Y-146376679D01*
X149967124Y-146384174D01*
X149934141Y-146385254D01*
X149901583Y-146379879D01*
X149870696Y-146368254D01*
X149842673Y-146350828D01*
X149818583Y-146328265D01*
X149795768Y-146296427D01*
X149767593Y-146247626D01*
X149767587Y-146247618D01*
X149498637Y-145781782D01*
X149498632Y-145781772D01*
X149470459Y-145732974D01*
X149454293Y-145697296D01*
X149446798Y-145665152D01*
X149445718Y-145632169D01*
X149451093Y-145599611D01*
X149462718Y-145568724D01*
X149480144Y-145540701D01*
X149502707Y-145516611D01*
X149534545Y-145493796D01*
X149583346Y-145465621D01*
X149583354Y-145465615D01*
X149984238Y-145234165D01*
X149984248Y-145234160D01*
X150033046Y-145205987D01*
X150068724Y-145189821D01*
X150100868Y-145182326D01*
X150133851Y-145181246D01*
X150166409Y-145186621D01*
G37*
G36*
X124048554Y-144654142D02*
G01*
X124079923Y-144664410D01*
X124108676Y-144680595D01*
X124133723Y-144702083D01*
X124154103Y-144728049D01*
X124169017Y-144757480D01*
X124179568Y-144795206D01*
X124189354Y-144850708D01*
X124189355Y-144850710D01*
X124269737Y-145306577D01*
X124269738Y-145306591D01*
X124279522Y-145362079D01*
X124282511Y-145401141D01*
X124278561Y-145433900D01*
X124268293Y-145465269D01*
X124252106Y-145494026D01*
X124230620Y-145519071D01*
X124204657Y-145539447D01*
X124175222Y-145554365D01*
X124137495Y-145564916D01*
X123921366Y-145603025D01*
X123552266Y-145668107D01*
X123552264Y-145668107D01*
X123496765Y-145677893D01*
X123457702Y-145680882D01*
X123424942Y-145676932D01*
X123393573Y-145666664D01*
X123364820Y-145650479D01*
X123339773Y-145628991D01*
X123319393Y-145603025D01*
X123304479Y-145573594D01*
X123293928Y-145535868D01*
X123283993Y-145479522D01*
X123203759Y-145024497D01*
X123203758Y-145024483D01*
X123193974Y-144968995D01*
X123190985Y-144929933D01*
X123194935Y-144897174D01*
X123205203Y-144865805D01*
X123221390Y-144837048D01*
X123242876Y-144812003D01*
X123268839Y-144791627D01*
X123298274Y-144776709D01*
X123336001Y-144766158D01*
X123656366Y-144709669D01*
X123921230Y-144662967D01*
X123921232Y-144662967D01*
X123976731Y-144653181D01*
X124015794Y-144650192D01*
X124048554Y-144654142D01*
G37*
G36*
X123775058Y-143103068D02*
G01*
X123806427Y-143113336D01*
X123835180Y-143129521D01*
X123860227Y-143151009D01*
X123880607Y-143176975D01*
X123895521Y-143206406D01*
X123906072Y-143244132D01*
X123915858Y-143299634D01*
X123915859Y-143299636D01*
X123996241Y-143755503D01*
X123996242Y-143755517D01*
X124006026Y-143811005D01*
X124009015Y-143850067D01*
X124005065Y-143882826D01*
X123994797Y-143914195D01*
X123978610Y-143942952D01*
X123957124Y-143967997D01*
X123931161Y-143988373D01*
X123901726Y-144003291D01*
X123863999Y-144013842D01*
X123647870Y-144051951D01*
X123278770Y-144117033D01*
X123278768Y-144117033D01*
X123223269Y-144126819D01*
X123184206Y-144129808D01*
X123151446Y-144125858D01*
X123120077Y-144115590D01*
X123091324Y-144099405D01*
X123066277Y-144077917D01*
X123045897Y-144051951D01*
X123030983Y-144022520D01*
X123020432Y-143984794D01*
X123010497Y-143928448D01*
X122930263Y-143473423D01*
X122930262Y-143473409D01*
X122920478Y-143417921D01*
X122917489Y-143378859D01*
X122921439Y-143346100D01*
X122931707Y-143314731D01*
X122947894Y-143285974D01*
X122969380Y-143260929D01*
X122995343Y-143240553D01*
X123024778Y-143225635D01*
X123062505Y-143215084D01*
X123382870Y-143158595D01*
X123647734Y-143111893D01*
X123647736Y-143111893D01*
X123703235Y-143102107D01*
X123742298Y-143099118D01*
X123775058Y-143103068D01*
G37*
G36*
X115278554Y-141774142D02*
G01*
X115309923Y-141784410D01*
X115338676Y-141800595D01*
X115363723Y-141822083D01*
X115384103Y-141848049D01*
X115399017Y-141877480D01*
X115409568Y-141915206D01*
X115419354Y-141970708D01*
X115419355Y-141970710D01*
X115499737Y-142426577D01*
X115499738Y-142426591D01*
X115509522Y-142482079D01*
X115512511Y-142521141D01*
X115508561Y-142553900D01*
X115498293Y-142585269D01*
X115482106Y-142614026D01*
X115460620Y-142639071D01*
X115434657Y-142659447D01*
X115405222Y-142674365D01*
X115367495Y-142684916D01*
X115151366Y-142723025D01*
X114782266Y-142788107D01*
X114782264Y-142788107D01*
X114726765Y-142797893D01*
X114687702Y-142800882D01*
X114654942Y-142796932D01*
X114623573Y-142786664D01*
X114594820Y-142770479D01*
X114569773Y-142748991D01*
X114549393Y-142723025D01*
X114534479Y-142693594D01*
X114523928Y-142655868D01*
X114513993Y-142599522D01*
X114433759Y-142144497D01*
X114433758Y-142144483D01*
X114423974Y-142088995D01*
X114420985Y-142049933D01*
X114424935Y-142017174D01*
X114435203Y-141985805D01*
X114451390Y-141957048D01*
X114472876Y-141932003D01*
X114498839Y-141911627D01*
X114528274Y-141896709D01*
X114566001Y-141886158D01*
X114886366Y-141829669D01*
X115151230Y-141782967D01*
X115151232Y-141782967D01*
X115206731Y-141773181D01*
X115245794Y-141770192D01*
X115278554Y-141774142D01*
G37*
G36*
X115005058Y-140223068D02*
G01*
X115036427Y-140233336D01*
X115065180Y-140249521D01*
X115090227Y-140271009D01*
X115110607Y-140296975D01*
X115125521Y-140326406D01*
X115136072Y-140364132D01*
X115145858Y-140419634D01*
X115145859Y-140419636D01*
X115226241Y-140875503D01*
X115226242Y-140875517D01*
X115236026Y-140931005D01*
X115239015Y-140970067D01*
X115235065Y-141002826D01*
X115224797Y-141034195D01*
X115208610Y-141062952D01*
X115187124Y-141087997D01*
X115161161Y-141108373D01*
X115131726Y-141123291D01*
X115093999Y-141133842D01*
X114877870Y-141171951D01*
X114508770Y-141237033D01*
X114508768Y-141237033D01*
X114453269Y-141246819D01*
X114414206Y-141249808D01*
X114381446Y-141245858D01*
X114350077Y-141235590D01*
X114321324Y-141219405D01*
X114296277Y-141197917D01*
X114275897Y-141171951D01*
X114260983Y-141142520D01*
X114250432Y-141104794D01*
X114240497Y-141048448D01*
X114160263Y-140593423D01*
X114160262Y-140593409D01*
X114150478Y-140537921D01*
X114147489Y-140498859D01*
X114151439Y-140466100D01*
X114161707Y-140434731D01*
X114177894Y-140405974D01*
X114199380Y-140380929D01*
X114225343Y-140360553D01*
X114254778Y-140345635D01*
X114292505Y-140335084D01*
X114612870Y-140278596D01*
X114877734Y-140231893D01*
X114877736Y-140231893D01*
X114933235Y-140222107D01*
X114972298Y-140219118D01*
X115005058Y-140223068D01*
G37*
G36*
X149967124Y-137079826D02*
G01*
X149999268Y-137087321D01*
X150034946Y-137103487D01*
X150083744Y-137131660D01*
X150083754Y-137131665D01*
X150484638Y-137363115D01*
X150484646Y-137363121D01*
X150533447Y-137391296D01*
X150565285Y-137414111D01*
X150587848Y-137438201D01*
X150605274Y-137466224D01*
X150616899Y-137497111D01*
X150622274Y-137529669D01*
X150621194Y-137562652D01*
X150613699Y-137594796D01*
X150597533Y-137630474D01*
X150569360Y-137679272D01*
X150569355Y-137679282D01*
X150300405Y-138145118D01*
X150300399Y-138145126D01*
X150272224Y-138193927D01*
X150249409Y-138225765D01*
X150225319Y-138248328D01*
X150197296Y-138265754D01*
X150166409Y-138277379D01*
X150133851Y-138282754D01*
X150100868Y-138281674D01*
X150068724Y-138274179D01*
X150033046Y-138258013D01*
X149984248Y-138229840D01*
X149984238Y-138229835D01*
X149583354Y-137998385D01*
X149583346Y-137998379D01*
X149534545Y-137970204D01*
X149502707Y-137947389D01*
X149480144Y-137923299D01*
X149462718Y-137895276D01*
X149451093Y-137864389D01*
X149445718Y-137831831D01*
X149446798Y-137798848D01*
X149454293Y-137766704D01*
X149470459Y-137731026D01*
X149498632Y-137682228D01*
X149498637Y-137682218D01*
X149767587Y-137216382D01*
X149767593Y-137216374D01*
X149795768Y-137167573D01*
X149818583Y-137135735D01*
X149842673Y-137113172D01*
X149870696Y-137095746D01*
X149901583Y-137084121D01*
X149934141Y-137078746D01*
X149967124Y-137079826D01*
G37*
G36*
X148603132Y-136292326D02*
G01*
X148635276Y-136299821D01*
X148670954Y-136315987D01*
X148719752Y-136344160D01*
X148719762Y-136344165D01*
X149120646Y-136575615D01*
X149120654Y-136575621D01*
X149169455Y-136603796D01*
X149201293Y-136626611D01*
X149223856Y-136650701D01*
X149241282Y-136678724D01*
X149252907Y-136709611D01*
X149258282Y-136742169D01*
X149257202Y-136775152D01*
X149249707Y-136807296D01*
X149233541Y-136842974D01*
X149205368Y-136891772D01*
X149205363Y-136891782D01*
X148936413Y-137357618D01*
X148936407Y-137357626D01*
X148908232Y-137406427D01*
X148885417Y-137438265D01*
X148861327Y-137460828D01*
X148833304Y-137478254D01*
X148802417Y-137489879D01*
X148769859Y-137495254D01*
X148736876Y-137494174D01*
X148704732Y-137486679D01*
X148669054Y-137470513D01*
X148620256Y-137442340D01*
X148620246Y-137442335D01*
X148219362Y-137210885D01*
X148219354Y-137210879D01*
X148170553Y-137182704D01*
X148138715Y-137159889D01*
X148116152Y-137135799D01*
X148098726Y-137107776D01*
X148087101Y-137076889D01*
X148081726Y-137044331D01*
X148082806Y-137011348D01*
X148090301Y-136979204D01*
X148106467Y-136943526D01*
X148134640Y-136894728D01*
X148134645Y-136894718D01*
X148403595Y-136428882D01*
X148403601Y-136428874D01*
X148431776Y-136380073D01*
X148454591Y-136348235D01*
X148478681Y-136325672D01*
X148506704Y-136308246D01*
X148537591Y-136296621D01*
X148570149Y-136291246D01*
X148603132Y-136292326D01*
G37*
G36*
X113173639Y-133037097D02*
G01*
X113204526Y-133048722D01*
X113232549Y-133066148D01*
X113256639Y-133088711D01*
X113279454Y-133120549D01*
X113307629Y-133169350D01*
X113307635Y-133169358D01*
X113539085Y-133570242D01*
X113539090Y-133570252D01*
X113567263Y-133619050D01*
X113583429Y-133654728D01*
X113590924Y-133686872D01*
X113592004Y-133719855D01*
X113586629Y-133752413D01*
X113575004Y-133783300D01*
X113557578Y-133811323D01*
X113535015Y-133835413D01*
X113503177Y-133858228D01*
X113454376Y-133886403D01*
X113454368Y-133886409D01*
X112988532Y-134155359D01*
X112988522Y-134155364D01*
X112939724Y-134183537D01*
X112904046Y-134199703D01*
X112871902Y-134207198D01*
X112838919Y-134208278D01*
X112806361Y-134202903D01*
X112775474Y-134191278D01*
X112747451Y-134173852D01*
X112723361Y-134151289D01*
X112700546Y-134119451D01*
X112672371Y-134070650D01*
X112672365Y-134070642D01*
X112440915Y-133669758D01*
X112440910Y-133669748D01*
X112412737Y-133620950D01*
X112396571Y-133585272D01*
X112389076Y-133553128D01*
X112387996Y-133520145D01*
X112393371Y-133487587D01*
X112404996Y-133456700D01*
X112422422Y-133428677D01*
X112444985Y-133404587D01*
X112476823Y-133381772D01*
X112525624Y-133353597D01*
X112525632Y-133353591D01*
X112991468Y-133084641D01*
X112991478Y-133084636D01*
X113040276Y-133056463D01*
X113075954Y-133040297D01*
X113108098Y-133032802D01*
X113141081Y-133031722D01*
X113173639Y-133037097D01*
G37*
G36*
X91098554Y-132494142D02*
G01*
X91129923Y-132504410D01*
X91158676Y-132520595D01*
X91183723Y-132542083D01*
X91204103Y-132568049D01*
X91219017Y-132597480D01*
X91229568Y-132635206D01*
X91239354Y-132690708D01*
X91239355Y-132690710D01*
X91319737Y-133146577D01*
X91319738Y-133146591D01*
X91329522Y-133202079D01*
X91332511Y-133241141D01*
X91328561Y-133273900D01*
X91318293Y-133305269D01*
X91302106Y-133334026D01*
X91280620Y-133359071D01*
X91254657Y-133379447D01*
X91225222Y-133394365D01*
X91187495Y-133404916D01*
X90971366Y-133443025D01*
X90602266Y-133508107D01*
X90602264Y-133508107D01*
X90546765Y-133517893D01*
X90507702Y-133520882D01*
X90474942Y-133516932D01*
X90443573Y-133506664D01*
X90414820Y-133490479D01*
X90389773Y-133468991D01*
X90369393Y-133443025D01*
X90354479Y-133413594D01*
X90343928Y-133375868D01*
X90333993Y-133319522D01*
X90253759Y-132864497D01*
X90253758Y-132864483D01*
X90243974Y-132808995D01*
X90240985Y-132769933D01*
X90244935Y-132737174D01*
X90255203Y-132705805D01*
X90271390Y-132677048D01*
X90292876Y-132652003D01*
X90318839Y-132631627D01*
X90348274Y-132616709D01*
X90386001Y-132606158D01*
X90706366Y-132549670D01*
X90971230Y-132502967D01*
X90971232Y-132502967D01*
X91026731Y-132493181D01*
X91065794Y-132490192D01*
X91098554Y-132494142D01*
G37*
G36*
X137484995Y-132054974D02*
G01*
X137540483Y-132064758D01*
X137540497Y-132064759D01*
X137996364Y-132145141D01*
X137996366Y-132145142D01*
X138051868Y-132154928D01*
X138089592Y-132165478D01*
X138119028Y-132180396D01*
X138144991Y-132200772D01*
X138166477Y-132225817D01*
X138182664Y-132254574D01*
X138192932Y-132285943D01*
X138196882Y-132318702D01*
X138193893Y-132357765D01*
X138184107Y-132413264D01*
X138184107Y-132413266D01*
X138168290Y-132502967D01*
X138080916Y-132998495D01*
X138070364Y-133036224D01*
X138055450Y-133065654D01*
X138035070Y-133091620D01*
X138010023Y-133113108D01*
X137981270Y-133129293D01*
X137949901Y-133139561D01*
X137917141Y-133143511D01*
X137878079Y-133140522D01*
X137822591Y-133130738D01*
X137822577Y-133130737D01*
X137366710Y-133050355D01*
X137366708Y-133050354D01*
X137311206Y-133040568D01*
X137273482Y-133030018D01*
X137244046Y-133015100D01*
X137218083Y-132994724D01*
X137196597Y-132969679D01*
X137180410Y-132940922D01*
X137170142Y-132909553D01*
X137166192Y-132876794D01*
X137169181Y-132837731D01*
X137181136Y-132769933D01*
X137229748Y-132494236D01*
X137282158Y-132197001D01*
X137292710Y-132159272D01*
X137307624Y-132129842D01*
X137328004Y-132103876D01*
X137353051Y-132082388D01*
X137381804Y-132066203D01*
X137413173Y-132055935D01*
X137445933Y-132051985D01*
X137484995Y-132054974D01*
G37*
G36*
X135933921Y-131781478D02*
G01*
X135989409Y-131791262D01*
X135989423Y-131791263D01*
X136445290Y-131871645D01*
X136445292Y-131871646D01*
X136500794Y-131881432D01*
X136538518Y-131891982D01*
X136567954Y-131906900D01*
X136593917Y-131927276D01*
X136615403Y-131952321D01*
X136631590Y-131981078D01*
X136641858Y-132012447D01*
X136645808Y-132045206D01*
X136642819Y-132084269D01*
X136633033Y-132139768D01*
X136633033Y-132139770D01*
X136600746Y-132322880D01*
X136529842Y-132724999D01*
X136519290Y-132762728D01*
X136504376Y-132792158D01*
X136483996Y-132818124D01*
X136458949Y-132839612D01*
X136430196Y-132855797D01*
X136398827Y-132866065D01*
X136366067Y-132870015D01*
X136327005Y-132867026D01*
X136271517Y-132857242D01*
X136271503Y-132857241D01*
X135815636Y-132776859D01*
X135815634Y-132776858D01*
X135760132Y-132767072D01*
X135722408Y-132756522D01*
X135692972Y-132741604D01*
X135667009Y-132721228D01*
X135645523Y-132696183D01*
X135629336Y-132667426D01*
X135619068Y-132636057D01*
X135615118Y-132603298D01*
X135618107Y-132564235D01*
X135628656Y-132504410D01*
X135682860Y-132197001D01*
X135731084Y-131923505D01*
X135741636Y-131885776D01*
X135756550Y-131856346D01*
X135776930Y-131830380D01*
X135801977Y-131808892D01*
X135830730Y-131792707D01*
X135862099Y-131782439D01*
X135894859Y-131778489D01*
X135933921Y-131781478D01*
G37*
G36*
X112386139Y-131673105D02*
G01*
X112417026Y-131684730D01*
X112445049Y-131702156D01*
X112469139Y-131724719D01*
X112491954Y-131756557D01*
X112520129Y-131805358D01*
X112520135Y-131805366D01*
X112751585Y-132206250D01*
X112751590Y-132206260D01*
X112779763Y-132255058D01*
X112795929Y-132290736D01*
X112803424Y-132322880D01*
X112804504Y-132355863D01*
X112799129Y-132388421D01*
X112787504Y-132419308D01*
X112770078Y-132447331D01*
X112747515Y-132471421D01*
X112715677Y-132494236D01*
X112666876Y-132522411D01*
X112666868Y-132522417D01*
X112201032Y-132791367D01*
X112201022Y-132791372D01*
X112152224Y-132819545D01*
X112116546Y-132835711D01*
X112084402Y-132843206D01*
X112051419Y-132844286D01*
X112018861Y-132838911D01*
X111987974Y-132827286D01*
X111959951Y-132809860D01*
X111935861Y-132787297D01*
X111913046Y-132755459D01*
X111884871Y-132706658D01*
X111884865Y-132706650D01*
X111653415Y-132305766D01*
X111653410Y-132305756D01*
X111625237Y-132256958D01*
X111609071Y-132221280D01*
X111601576Y-132189136D01*
X111600496Y-132156153D01*
X111605871Y-132123595D01*
X111617496Y-132092708D01*
X111634922Y-132064685D01*
X111657485Y-132040595D01*
X111689323Y-132017780D01*
X111738124Y-131989605D01*
X111738132Y-131989599D01*
X112203968Y-131720649D01*
X112203978Y-131720644D01*
X112252776Y-131692471D01*
X112288454Y-131676305D01*
X112320598Y-131668810D01*
X112353581Y-131667730D01*
X112386139Y-131673105D01*
G37*
G36*
X90825058Y-130943068D02*
G01*
X90856427Y-130953336D01*
X90885180Y-130969521D01*
X90910227Y-130991009D01*
X90930607Y-131016975D01*
X90945521Y-131046406D01*
X90956072Y-131084132D01*
X90965858Y-131139634D01*
X90965859Y-131139636D01*
X91046241Y-131595503D01*
X91046242Y-131595517D01*
X91056026Y-131651005D01*
X91059015Y-131690067D01*
X91055065Y-131722826D01*
X91044797Y-131754195D01*
X91028610Y-131782952D01*
X91007124Y-131807997D01*
X90981161Y-131828373D01*
X90951726Y-131843291D01*
X90913999Y-131853842D01*
X90593634Y-131910330D01*
X90328770Y-131957033D01*
X90328768Y-131957033D01*
X90273269Y-131966819D01*
X90234206Y-131969808D01*
X90201446Y-131965858D01*
X90170077Y-131955590D01*
X90141324Y-131939405D01*
X90116277Y-131917917D01*
X90095897Y-131891951D01*
X90080983Y-131862520D01*
X90070432Y-131824794D01*
X90058400Y-131756557D01*
X89980263Y-131313423D01*
X89980262Y-131313409D01*
X89970478Y-131257921D01*
X89967489Y-131218859D01*
X89971439Y-131186100D01*
X89981707Y-131154731D01*
X89997894Y-131125974D01*
X90019380Y-131100929D01*
X90045343Y-131080553D01*
X90074778Y-131065635D01*
X90112505Y-131055084D01*
X90432870Y-130998596D01*
X90697734Y-130951893D01*
X90697736Y-130951893D01*
X90753235Y-130942107D01*
X90792298Y-130939118D01*
X90825058Y-130943068D01*
G37*
G36*
X122766780Y-130728925D02*
G01*
X122766783Y-130728925D01*
X123302636Y-130775806D01*
X123302637Y-130775806D01*
X123358779Y-130780718D01*
X123397279Y-130787940D01*
X123427907Y-130800237D01*
X123455543Y-130818270D01*
X123479135Y-130841352D01*
X123497763Y-130868584D01*
X123510727Y-130898940D01*
X123517517Y-130931232D01*
X123517944Y-130970410D01*
X123513033Y-131026543D01*
X123513033Y-131026547D01*
X123495833Y-131223137D01*
X123467776Y-131543831D01*
X123460555Y-131582329D01*
X123448257Y-131612958D01*
X123430225Y-131640593D01*
X123407143Y-131664184D01*
X123379910Y-131682813D01*
X123349554Y-131695777D01*
X123317263Y-131702567D01*
X123278084Y-131702994D01*
X123221950Y-131698083D01*
X123221947Y-131698083D01*
X122686094Y-131651202D01*
X122686093Y-131651202D01*
X122629951Y-131646290D01*
X122591451Y-131639068D01*
X122560823Y-131626771D01*
X122533187Y-131608738D01*
X122509595Y-131585656D01*
X122490967Y-131558424D01*
X122478003Y-131528068D01*
X122471213Y-131495776D01*
X122470786Y-131456598D01*
X122491586Y-131218859D01*
X122516042Y-130939322D01*
X122520954Y-130883177D01*
X122528175Y-130844679D01*
X122540473Y-130814050D01*
X122558505Y-130786415D01*
X122581587Y-130762824D01*
X122608820Y-130744195D01*
X122639176Y-130731231D01*
X122671467Y-130724441D01*
X122710646Y-130724014D01*
X122766780Y-130728925D01*
G37*
G36*
X122904050Y-129159917D02*
G01*
X122904053Y-129159917D01*
X123439906Y-129206798D01*
X123439907Y-129206798D01*
X123496049Y-129211710D01*
X123534549Y-129218932D01*
X123565177Y-129231229D01*
X123592813Y-129249262D01*
X123616405Y-129272344D01*
X123635033Y-129299576D01*
X123647997Y-129329932D01*
X123654787Y-129362224D01*
X123655214Y-129401402D01*
X123650303Y-129457535D01*
X123650303Y-129457539D01*
X123645295Y-129514782D01*
X123605046Y-129974823D01*
X123597825Y-130013321D01*
X123585527Y-130043950D01*
X123567495Y-130071585D01*
X123544413Y-130095176D01*
X123517180Y-130113805D01*
X123486824Y-130126769D01*
X123454533Y-130133559D01*
X123415354Y-130133986D01*
X123359220Y-130129075D01*
X123359217Y-130129075D01*
X122823364Y-130082194D01*
X122823363Y-130082194D01*
X122767221Y-130077282D01*
X122728721Y-130070060D01*
X122698093Y-130057763D01*
X122670457Y-130039730D01*
X122646865Y-130016648D01*
X122628237Y-129989416D01*
X122615273Y-129959060D01*
X122608483Y-129926768D01*
X122608056Y-129887590D01*
X122658224Y-129314169D01*
X122665445Y-129275671D01*
X122677743Y-129245042D01*
X122695775Y-129217407D01*
X122718857Y-129193816D01*
X122746090Y-129175187D01*
X122776446Y-129162223D01*
X122808737Y-129155433D01*
X122847916Y-129155006D01*
X122904050Y-129159917D01*
G37*
G36*
X106905293Y-128535439D02*
G01*
X106936873Y-128545019D01*
X106965979Y-128560577D01*
X106991489Y-128581512D01*
X107012424Y-128607022D01*
X107027982Y-128636128D01*
X107037562Y-128667708D01*
X107041401Y-128706690D01*
X107041401Y-129357310D01*
X107037562Y-129396292D01*
X107027982Y-129427872D01*
X107012424Y-129456978D01*
X106991489Y-129482488D01*
X106965979Y-129503423D01*
X106936873Y-129518981D01*
X106905293Y-129528561D01*
X106866311Y-129532400D01*
X106290691Y-129532400D01*
X106251709Y-129528561D01*
X106220129Y-129518981D01*
X106191023Y-129503423D01*
X106165513Y-129482488D01*
X106144578Y-129456978D01*
X106129020Y-129427872D01*
X106119440Y-129396292D01*
X106115601Y-129357310D01*
X106115601Y-128706690D01*
X106119440Y-128667708D01*
X106129020Y-128636128D01*
X106144578Y-128607022D01*
X106165513Y-128581512D01*
X106191023Y-128560577D01*
X106220129Y-128545019D01*
X106251709Y-128535439D01*
X106290691Y-128531600D01*
X106866311Y-128531600D01*
X106905293Y-128535439D01*
G37*
G36*
X105330291Y-128535439D02*
G01*
X105361871Y-128545019D01*
X105390977Y-128560577D01*
X105416487Y-128581512D01*
X105437422Y-128607022D01*
X105452980Y-128636128D01*
X105462560Y-128667708D01*
X105466399Y-128706690D01*
X105466399Y-129357310D01*
X105462560Y-129396292D01*
X105452980Y-129427872D01*
X105437422Y-129456978D01*
X105416487Y-129482488D01*
X105390977Y-129503423D01*
X105361871Y-129518981D01*
X105330291Y-129528561D01*
X105291309Y-129532400D01*
X104715689Y-129532400D01*
X104676707Y-129528561D01*
X104645127Y-129518981D01*
X104616021Y-129503423D01*
X104590511Y-129482488D01*
X104569576Y-129456978D01*
X104554018Y-129427872D01*
X104544438Y-129396292D01*
X104540599Y-129357310D01*
X104540599Y-128706690D01*
X104544438Y-128667708D01*
X104554018Y-128636128D01*
X104569576Y-128607022D01*
X104590511Y-128581512D01*
X104616021Y-128560577D01*
X104645127Y-128545019D01*
X104676707Y-128535439D01*
X104715689Y-128531600D01*
X105291309Y-128531600D01*
X105330291Y-128535439D01*
G37*
G36*
X90343269Y-122413180D02*
G01*
X90398768Y-122422966D01*
X90398770Y-122422966D01*
X90663634Y-122469668D01*
X90983999Y-122526157D01*
X91021728Y-122536709D01*
X91051158Y-122551623D01*
X91077124Y-122572003D01*
X91098612Y-122597050D01*
X91114797Y-122625803D01*
X91125065Y-122657172D01*
X91129015Y-122689932D01*
X91126026Y-122728994D01*
X91116242Y-122784482D01*
X91116241Y-122784496D01*
X91042979Y-123199983D01*
X91026072Y-123295867D01*
X91015522Y-123333591D01*
X91000604Y-123363027D01*
X90980228Y-123388990D01*
X90955183Y-123410476D01*
X90926426Y-123426663D01*
X90895057Y-123436931D01*
X90862298Y-123440881D01*
X90823235Y-123437892D01*
X90767736Y-123428106D01*
X90767734Y-123428106D01*
X90398651Y-123363027D01*
X90182505Y-123324915D01*
X90144776Y-123314363D01*
X90115346Y-123299449D01*
X90089380Y-123279069D01*
X90067892Y-123254022D01*
X90051707Y-123225269D01*
X90041439Y-123193900D01*
X90037489Y-123161140D01*
X90040478Y-123122078D01*
X90050262Y-123066590D01*
X90050263Y-123066576D01*
X90130645Y-122610709D01*
X90130646Y-122610707D01*
X90140432Y-122555205D01*
X90150982Y-122517481D01*
X90165900Y-122488045D01*
X90186276Y-122462082D01*
X90211321Y-122440596D01*
X90240078Y-122424409D01*
X90271447Y-122414141D01*
X90304206Y-122410191D01*
X90343269Y-122413180D01*
G37*
G36*
X90616765Y-120862108D02*
G01*
X90672264Y-120871894D01*
X90672266Y-120871894D01*
X90937130Y-120918597D01*
X91257495Y-120975085D01*
X91295224Y-120985637D01*
X91324654Y-121000551D01*
X91350620Y-121020931D01*
X91372108Y-121045978D01*
X91388293Y-121074731D01*
X91398561Y-121106100D01*
X91402511Y-121138860D01*
X91399522Y-121177922D01*
X91389738Y-121233410D01*
X91389737Y-121233424D01*
X91316475Y-121648911D01*
X91299568Y-121744795D01*
X91289018Y-121782519D01*
X91274100Y-121811955D01*
X91253724Y-121837918D01*
X91228679Y-121859404D01*
X91199922Y-121875591D01*
X91168553Y-121885859D01*
X91135794Y-121889809D01*
X91096731Y-121886820D01*
X91041232Y-121877034D01*
X91041230Y-121877034D01*
X90672147Y-121811955D01*
X90456001Y-121773843D01*
X90418272Y-121763291D01*
X90388842Y-121748377D01*
X90362876Y-121727997D01*
X90341388Y-121702950D01*
X90325203Y-121674197D01*
X90314935Y-121642828D01*
X90310985Y-121610068D01*
X90313974Y-121571006D01*
X90323758Y-121515518D01*
X90323759Y-121515504D01*
X90404141Y-121059637D01*
X90404142Y-121059635D01*
X90413928Y-121004133D01*
X90424478Y-120966409D01*
X90439396Y-120936973D01*
X90459772Y-120911010D01*
X90484817Y-120889524D01*
X90513574Y-120873337D01*
X90544943Y-120863069D01*
X90577702Y-120859119D01*
X90616765Y-120862108D01*
G37*
G36*
X122665292Y-118692439D02*
G01*
X122696872Y-118702019D01*
X122725978Y-118717577D01*
X122751488Y-118738512D01*
X122772423Y-118764022D01*
X122787981Y-118793128D01*
X122797561Y-118824708D01*
X122801400Y-118863690D01*
X122801400Y-119439310D01*
X122797561Y-119478292D01*
X122787981Y-119509872D01*
X122772423Y-119538978D01*
X122751488Y-119564488D01*
X122725978Y-119585423D01*
X122696872Y-119600981D01*
X122665292Y-119610561D01*
X122626310Y-119614400D01*
X121975690Y-119614400D01*
X121936708Y-119610561D01*
X121905128Y-119600981D01*
X121876022Y-119585423D01*
X121850512Y-119564488D01*
X121829577Y-119538978D01*
X121814019Y-119509872D01*
X121804439Y-119478292D01*
X121800600Y-119439310D01*
X121800600Y-118863690D01*
X121804439Y-118824708D01*
X121814019Y-118793128D01*
X121829577Y-118764022D01*
X121850512Y-118738512D01*
X121876022Y-118717577D01*
X121905128Y-118702019D01*
X121936708Y-118692439D01*
X121975690Y-118688600D01*
X122626310Y-118688600D01*
X122665292Y-118692439D01*
G37*
G36*
X122665292Y-117117439D02*
G01*
X122696872Y-117127019D01*
X122725978Y-117142577D01*
X122751488Y-117163512D01*
X122772423Y-117189022D01*
X122787981Y-117218128D01*
X122797561Y-117249708D01*
X122801400Y-117288690D01*
X122801400Y-117864310D01*
X122797561Y-117903292D01*
X122787981Y-117934872D01*
X122772423Y-117963978D01*
X122751488Y-117989488D01*
X122725978Y-118010423D01*
X122696872Y-118025981D01*
X122665292Y-118035561D01*
X122626310Y-118039400D01*
X121975690Y-118039400D01*
X121936708Y-118035561D01*
X121905128Y-118025981D01*
X121876022Y-118010423D01*
X121850512Y-117989488D01*
X121829577Y-117963978D01*
X121814019Y-117934872D01*
X121804439Y-117903292D01*
X121800600Y-117864310D01*
X121800600Y-117288690D01*
X121804439Y-117249708D01*
X121814019Y-117218128D01*
X121829577Y-117189022D01*
X121850512Y-117163512D01*
X121876022Y-117142577D01*
X121905128Y-117127019D01*
X121936708Y-117117439D01*
X121975690Y-117113600D01*
X122626310Y-117113600D01*
X122665292Y-117117439D01*
G37*
G36*
X128606176Y-109344685D02*
G01*
X128638467Y-109351475D01*
X128668823Y-109364439D01*
X128701146Y-109386550D01*
X128744320Y-109422778D01*
X128744324Y-109422780D01*
X128856880Y-109517226D01*
X129199554Y-109804763D01*
X129226949Y-109832763D01*
X129244982Y-109860400D01*
X129257278Y-109891025D01*
X129263362Y-109923458D01*
X129263002Y-109956462D01*
X129256212Y-109988753D01*
X129243248Y-110019109D01*
X129221137Y-110051432D01*
X129184909Y-110094607D01*
X129184907Y-110094610D01*
X129180759Y-110099553D01*
X128851133Y-110492387D01*
X128823133Y-110519782D01*
X128795498Y-110537814D01*
X128764869Y-110550112D01*
X128732439Y-110556195D01*
X128699434Y-110555835D01*
X128667143Y-110549045D01*
X128636787Y-110536081D01*
X128604464Y-110513970D01*
X128561290Y-110477742D01*
X128561286Y-110477740D01*
X128417316Y-110356934D01*
X128106056Y-110095757D01*
X128078661Y-110067757D01*
X128060628Y-110040120D01*
X128048332Y-110009495D01*
X128042248Y-109977062D01*
X128042608Y-109944058D01*
X128049398Y-109911767D01*
X128062362Y-109881411D01*
X128084473Y-109849088D01*
X128120701Y-109805913D01*
X128120703Y-109805910D01*
X128247465Y-109654841D01*
X128454477Y-109408133D01*
X128482477Y-109380738D01*
X128510112Y-109362706D01*
X128540741Y-109350408D01*
X128573171Y-109344325D01*
X128606176Y-109344685D01*
G37*
G36*
X93591757Y-108679343D02*
G01*
X93646197Y-108693930D01*
X93646202Y-108693931D01*
X93932117Y-108770542D01*
X94220217Y-108847738D01*
X94256873Y-108861534D01*
X94284896Y-108878960D01*
X94308986Y-108901523D01*
X94328207Y-108928345D01*
X94341826Y-108958404D01*
X94349321Y-108990548D01*
X94350401Y-109023531D01*
X94344021Y-109062172D01*
X94329434Y-109116612D01*
X94329433Y-109116617D01*
X94209626Y-109563744D01*
X94209622Y-109563753D01*
X94195037Y-109618187D01*
X94181242Y-109654841D01*
X94163813Y-109682868D01*
X94141253Y-109706955D01*
X94114429Y-109726176D01*
X94084368Y-109739797D01*
X94052227Y-109747291D01*
X94019244Y-109748371D01*
X93980603Y-109741991D01*
X93926163Y-109727404D01*
X93926158Y-109727403D01*
X93473853Y-109606208D01*
X93352143Y-109573596D01*
X93315487Y-109559800D01*
X93287464Y-109542374D01*
X93263374Y-109519811D01*
X93244153Y-109492989D01*
X93230534Y-109462930D01*
X93223039Y-109430786D01*
X93221959Y-109397803D01*
X93228339Y-109359162D01*
X93242926Y-109304722D01*
X93242927Y-109304717D01*
X93362734Y-108857590D01*
X93362738Y-108857581D01*
X93377323Y-108803147D01*
X93391118Y-108766493D01*
X93408547Y-108738466D01*
X93431107Y-108714379D01*
X93457931Y-108695158D01*
X93487992Y-108681537D01*
X93520133Y-108674043D01*
X93553116Y-108672963D01*
X93591757Y-108679343D01*
G37*
G36*
X129618566Y-108138165D02*
G01*
X129650857Y-108144955D01*
X129681213Y-108157919D01*
X129713536Y-108180030D01*
X129756710Y-108216258D01*
X129756714Y-108216260D01*
X129768270Y-108225957D01*
X130211944Y-108598243D01*
X130239339Y-108626243D01*
X130257372Y-108653880D01*
X130269668Y-108684505D01*
X130275752Y-108716938D01*
X130275392Y-108749942D01*
X130268602Y-108782233D01*
X130255638Y-108812589D01*
X130233527Y-108844912D01*
X130197299Y-108888087D01*
X130197297Y-108888090D01*
X130193149Y-108893033D01*
X129863523Y-109285867D01*
X129835523Y-109313262D01*
X129807888Y-109331294D01*
X129777259Y-109343592D01*
X129744829Y-109349675D01*
X129711824Y-109349315D01*
X129679533Y-109342525D01*
X129649177Y-109329561D01*
X129616854Y-109307450D01*
X129573680Y-109271222D01*
X129573676Y-109271220D01*
X129389428Y-109116617D01*
X129118446Y-108889237D01*
X129091051Y-108861237D01*
X129073018Y-108833600D01*
X129060722Y-108802975D01*
X129054638Y-108770542D01*
X129054998Y-108737538D01*
X129061788Y-108705247D01*
X129074752Y-108674891D01*
X129096863Y-108642568D01*
X129133091Y-108599393D01*
X129133093Y-108599390D01*
X129235227Y-108477671D01*
X129466867Y-108201613D01*
X129494867Y-108174218D01*
X129522502Y-108156186D01*
X129553131Y-108143888D01*
X129585561Y-108137805D01*
X129618566Y-108138165D01*
G37*
G36*
X93999397Y-107158009D02*
G01*
X94053837Y-107172596D01*
X94053842Y-107172597D01*
X94324646Y-107245159D01*
X94627857Y-107326404D01*
X94664513Y-107340200D01*
X94692536Y-107357626D01*
X94716626Y-107380189D01*
X94735847Y-107407011D01*
X94749466Y-107437070D01*
X94756961Y-107469214D01*
X94758041Y-107502197D01*
X94751661Y-107540838D01*
X94737074Y-107595278D01*
X94737073Y-107595283D01*
X94617266Y-108042410D01*
X94617262Y-108042419D01*
X94602677Y-108096853D01*
X94588882Y-108133507D01*
X94571453Y-108161534D01*
X94548893Y-108185621D01*
X94522069Y-108204842D01*
X94492008Y-108218463D01*
X94459867Y-108225957D01*
X94426884Y-108227037D01*
X94388243Y-108220657D01*
X94333803Y-108206070D01*
X94333798Y-108206069D01*
X93881493Y-108084874D01*
X93759783Y-108052262D01*
X93723127Y-108038466D01*
X93695104Y-108021040D01*
X93671014Y-107998477D01*
X93651793Y-107971655D01*
X93638174Y-107941596D01*
X93630679Y-107909452D01*
X93629599Y-107876469D01*
X93635979Y-107837828D01*
X93650566Y-107783388D01*
X93650567Y-107783383D01*
X93770374Y-107336256D01*
X93770378Y-107336247D01*
X93784963Y-107281813D01*
X93798758Y-107245159D01*
X93816187Y-107217132D01*
X93838747Y-107193045D01*
X93865571Y-107173824D01*
X93895632Y-107160203D01*
X93927773Y-107152709D01*
X93960756Y-107151629D01*
X93999397Y-107158009D01*
G37*
G36*
X134108152Y-100170797D02*
G01*
X134140296Y-100178292D01*
X134175974Y-100194458D01*
X134224772Y-100222631D01*
X134224782Y-100222636D01*
X134690618Y-100491586D01*
X134690626Y-100491592D01*
X134739427Y-100519767D01*
X134771265Y-100542582D01*
X134793828Y-100566672D01*
X134811254Y-100594695D01*
X134822879Y-100625582D01*
X134828254Y-100658140D01*
X134827174Y-100691123D01*
X134819679Y-100723267D01*
X134803513Y-100758945D01*
X134775340Y-100807743D01*
X134775335Y-100807753D01*
X134543885Y-101208637D01*
X134543879Y-101208645D01*
X134515704Y-101257446D01*
X134492889Y-101289284D01*
X134468799Y-101311847D01*
X134440776Y-101329273D01*
X134409889Y-101340898D01*
X134377331Y-101346273D01*
X134344348Y-101345193D01*
X134312204Y-101337698D01*
X134276526Y-101321532D01*
X134227728Y-101293359D01*
X134227718Y-101293354D01*
X133761882Y-101024404D01*
X133761874Y-101024398D01*
X133713073Y-100996223D01*
X133681235Y-100973408D01*
X133658672Y-100949318D01*
X133641246Y-100921295D01*
X133629621Y-100890408D01*
X133624246Y-100857850D01*
X133625326Y-100824867D01*
X133632821Y-100792723D01*
X133648987Y-100757045D01*
X133677160Y-100708247D01*
X133677165Y-100708237D01*
X133908615Y-100307353D01*
X133908621Y-100307345D01*
X133936796Y-100258544D01*
X133959611Y-100226706D01*
X133983701Y-100204143D01*
X134011724Y-100186717D01*
X134042611Y-100175092D01*
X134075169Y-100169717D01*
X134108152Y-100170797D01*
G37*
G36*
X134895652Y-98806807D02*
G01*
X134927796Y-98814302D01*
X134963474Y-98830468D01*
X135012272Y-98858641D01*
X135012282Y-98858646D01*
X135478118Y-99127596D01*
X135478126Y-99127602D01*
X135526927Y-99155777D01*
X135558765Y-99178592D01*
X135581328Y-99202682D01*
X135598754Y-99230705D01*
X135610379Y-99261592D01*
X135615754Y-99294150D01*
X135614674Y-99327133D01*
X135607179Y-99359277D01*
X135591013Y-99394955D01*
X135562840Y-99443753D01*
X135562835Y-99443763D01*
X135331385Y-99844647D01*
X135331379Y-99844655D01*
X135303204Y-99893456D01*
X135280389Y-99925294D01*
X135256299Y-99947857D01*
X135228276Y-99965283D01*
X135197389Y-99976908D01*
X135164831Y-99982283D01*
X135131848Y-99981203D01*
X135099704Y-99973708D01*
X135064026Y-99957542D01*
X135015228Y-99929369D01*
X135015218Y-99929364D01*
X134549382Y-99660414D01*
X134549374Y-99660408D01*
X134500573Y-99632233D01*
X134468735Y-99609418D01*
X134446172Y-99585328D01*
X134428746Y-99557305D01*
X134417121Y-99526418D01*
X134411746Y-99493860D01*
X134412826Y-99460877D01*
X134420321Y-99428733D01*
X134436487Y-99393055D01*
X134464660Y-99344257D01*
X134464665Y-99344247D01*
X134696115Y-98943363D01*
X134696121Y-98943355D01*
X134724296Y-98894554D01*
X134747111Y-98862716D01*
X134771201Y-98840153D01*
X134799224Y-98822727D01*
X134830111Y-98811102D01*
X134862669Y-98805727D01*
X134895652Y-98806807D01*
G37*
G36*
X97261757Y-96979343D02*
G01*
X97316197Y-96993930D01*
X97316202Y-96993931D01*
X97587006Y-97066493D01*
X97890217Y-97147738D01*
X97926873Y-97161534D01*
X97954896Y-97178960D01*
X97978986Y-97201523D01*
X97998207Y-97228345D01*
X98011826Y-97258404D01*
X98019321Y-97290548D01*
X98020401Y-97323531D01*
X98014021Y-97362172D01*
X97999434Y-97416612D01*
X97999433Y-97416617D01*
X97879626Y-97863744D01*
X97879622Y-97863753D01*
X97865037Y-97918187D01*
X97851242Y-97954841D01*
X97833813Y-97982868D01*
X97811253Y-98006955D01*
X97784429Y-98026176D01*
X97754368Y-98039797D01*
X97722227Y-98047291D01*
X97689244Y-98048371D01*
X97650603Y-98041991D01*
X97596163Y-98027404D01*
X97596158Y-98027403D01*
X97143853Y-97906208D01*
X97022143Y-97873596D01*
X96985487Y-97859800D01*
X96957464Y-97842374D01*
X96933374Y-97819811D01*
X96914153Y-97792989D01*
X96900534Y-97762930D01*
X96893039Y-97730786D01*
X96891959Y-97697803D01*
X96898339Y-97659162D01*
X96912926Y-97604722D01*
X96912927Y-97604717D01*
X97032734Y-97157590D01*
X97032738Y-97157581D01*
X97047323Y-97103147D01*
X97061118Y-97066493D01*
X97078547Y-97038466D01*
X97101107Y-97014379D01*
X97127931Y-96995158D01*
X97157992Y-96981537D01*
X97190133Y-96974043D01*
X97223116Y-96972963D01*
X97261757Y-96979343D01*
G37*
G36*
X97669397Y-95458009D02*
G01*
X97723837Y-95472596D01*
X97723842Y-95472597D01*
X97994646Y-95545159D01*
X98297857Y-95626404D01*
X98334513Y-95640200D01*
X98362536Y-95657626D01*
X98386626Y-95680189D01*
X98405847Y-95707011D01*
X98419466Y-95737070D01*
X98426961Y-95769214D01*
X98428041Y-95802197D01*
X98421661Y-95840838D01*
X98407074Y-95895278D01*
X98407073Y-95895283D01*
X98287266Y-96342410D01*
X98287262Y-96342419D01*
X98272677Y-96396853D01*
X98258882Y-96433507D01*
X98241453Y-96461534D01*
X98218893Y-96485621D01*
X98192069Y-96504842D01*
X98162008Y-96518463D01*
X98129867Y-96525957D01*
X98096884Y-96527037D01*
X98058243Y-96520657D01*
X98003803Y-96506070D01*
X98003798Y-96506069D01*
X97596199Y-96396853D01*
X97429783Y-96352262D01*
X97393127Y-96338466D01*
X97365104Y-96321040D01*
X97341014Y-96298477D01*
X97321793Y-96271655D01*
X97308174Y-96241596D01*
X97300679Y-96209452D01*
X97299599Y-96176469D01*
X97305979Y-96137828D01*
X97320566Y-96083388D01*
X97320567Y-96083383D01*
X97440374Y-95636256D01*
X97440378Y-95636247D01*
X97454963Y-95581813D01*
X97468758Y-95545159D01*
X97486187Y-95517132D01*
X97508747Y-95493045D01*
X97535571Y-95473824D01*
X97565632Y-95460203D01*
X97597773Y-95452709D01*
X97630756Y-95451629D01*
X97669397Y-95458009D01*
G37*
G36*
X148215123Y-95252826D02*
G01*
X148247267Y-95260321D01*
X148282945Y-95276487D01*
X148331743Y-95304660D01*
X148331753Y-95304665D01*
X148732637Y-95536115D01*
X148732645Y-95536121D01*
X148781446Y-95564296D01*
X148813284Y-95587111D01*
X148835847Y-95611201D01*
X148853273Y-95639224D01*
X148864898Y-95670111D01*
X148870273Y-95702669D01*
X148869193Y-95735652D01*
X148861698Y-95767796D01*
X148845532Y-95803474D01*
X148817359Y-95852272D01*
X148817354Y-95852282D01*
X148548404Y-96318118D01*
X148548398Y-96318126D01*
X148520223Y-96366927D01*
X148497408Y-96398765D01*
X148473318Y-96421328D01*
X148445295Y-96438754D01*
X148414408Y-96450379D01*
X148381850Y-96455754D01*
X148348867Y-96454674D01*
X148316723Y-96447179D01*
X148281045Y-96431013D01*
X148232247Y-96402840D01*
X148232237Y-96402835D01*
X147831353Y-96171385D01*
X147831345Y-96171379D01*
X147782544Y-96143204D01*
X147750706Y-96120389D01*
X147728143Y-96096299D01*
X147710717Y-96068276D01*
X147699092Y-96037389D01*
X147693717Y-96004831D01*
X147694797Y-95971848D01*
X147702292Y-95939704D01*
X147718458Y-95904026D01*
X147746631Y-95855228D01*
X147746636Y-95855218D01*
X148015586Y-95389382D01*
X148015592Y-95389374D01*
X148043767Y-95340573D01*
X148066582Y-95308735D01*
X148090672Y-95286172D01*
X148118695Y-95268746D01*
X148149582Y-95257121D01*
X148182140Y-95251746D01*
X148215123Y-95252826D01*
G37*
G36*
X146851133Y-94465326D02*
G01*
X146883277Y-94472821D01*
X146918955Y-94488987D01*
X146967753Y-94517160D01*
X146967763Y-94517165D01*
X147368647Y-94748615D01*
X147368655Y-94748621D01*
X147417456Y-94776796D01*
X147449294Y-94799611D01*
X147471857Y-94823701D01*
X147489283Y-94851724D01*
X147500908Y-94882611D01*
X147506283Y-94915169D01*
X147505203Y-94948152D01*
X147497708Y-94980296D01*
X147481542Y-95015974D01*
X147453369Y-95064772D01*
X147453364Y-95064782D01*
X147184414Y-95530618D01*
X147184408Y-95530626D01*
X147156233Y-95579427D01*
X147133418Y-95611265D01*
X147109328Y-95633828D01*
X147081305Y-95651254D01*
X147050418Y-95662879D01*
X147017860Y-95668254D01*
X146984877Y-95667174D01*
X146952733Y-95659679D01*
X146917055Y-95643513D01*
X146868257Y-95615340D01*
X146868247Y-95615335D01*
X146467363Y-95383885D01*
X146467355Y-95383879D01*
X146418554Y-95355704D01*
X146386716Y-95332889D01*
X146364153Y-95308799D01*
X146346727Y-95280776D01*
X146335102Y-95249889D01*
X146329727Y-95217331D01*
X146330807Y-95184348D01*
X146338302Y-95152204D01*
X146354468Y-95116526D01*
X146382641Y-95067728D01*
X146382646Y-95067718D01*
X146651596Y-94601882D01*
X146651602Y-94601874D01*
X146679777Y-94553073D01*
X146702592Y-94521235D01*
X146726682Y-94498672D01*
X146754705Y-94481246D01*
X146785592Y-94469621D01*
X146818150Y-94464246D01*
X146851133Y-94465326D01*
G37*
G36*
X135980973Y-87150721D02*
G01*
X136011602Y-87163019D01*
X136039237Y-87181051D01*
X136067237Y-87208446D01*
X136311629Y-87499702D01*
X136449220Y-87663676D01*
X136449222Y-87663680D01*
X136485450Y-87706854D01*
X136507561Y-87739177D01*
X136520525Y-87769533D01*
X136527315Y-87801824D01*
X136527675Y-87834828D01*
X136521591Y-87867261D01*
X136509295Y-87897886D01*
X136491262Y-87925523D01*
X136463867Y-87953523D01*
X136203862Y-88171692D01*
X136066090Y-88287297D01*
X136066087Y-88287299D01*
X136022912Y-88323527D01*
X135990589Y-88345638D01*
X135960233Y-88358602D01*
X135927942Y-88365392D01*
X135894937Y-88365752D01*
X135862507Y-88359669D01*
X135831878Y-88347371D01*
X135804243Y-88329339D01*
X135776243Y-88301944D01*
X135428635Y-87887680D01*
X135394260Y-87846714D01*
X135394258Y-87846710D01*
X135358030Y-87803536D01*
X135335919Y-87771213D01*
X135322955Y-87740857D01*
X135316165Y-87708566D01*
X135315805Y-87675562D01*
X135321889Y-87643129D01*
X135334185Y-87612504D01*
X135352218Y-87584867D01*
X135379613Y-87556867D01*
X135665537Y-87316949D01*
X135777390Y-87223093D01*
X135777393Y-87223091D01*
X135820568Y-87186863D01*
X135852891Y-87164752D01*
X135883247Y-87151788D01*
X135915538Y-87144998D01*
X135948543Y-87144638D01*
X135980973Y-87150721D01*
G37*
G36*
X100981839Y-87099825D02*
G01*
X101013208Y-87110093D01*
X101047339Y-87129305D01*
X101580293Y-87502484D01*
X101610027Y-87527991D01*
X101630402Y-87553953D01*
X101645318Y-87583386D01*
X101654207Y-87615171D01*
X101656725Y-87648079D01*
X101652775Y-87680839D01*
X101642507Y-87712208D01*
X101623295Y-87746339D01*
X101293134Y-88217857D01*
X101267627Y-88247591D01*
X101241665Y-88267966D01*
X101212232Y-88282882D01*
X101180447Y-88291771D01*
X101147540Y-88294289D01*
X101114779Y-88290339D01*
X101083410Y-88280071D01*
X101049279Y-88260859D01*
X100516325Y-87887680D01*
X100486591Y-87862173D01*
X100466216Y-87836211D01*
X100451300Y-87806778D01*
X100442411Y-87774993D01*
X100439893Y-87742085D01*
X100443843Y-87709325D01*
X100454111Y-87677956D01*
X100473323Y-87643825D01*
X100803484Y-87172307D01*
X100828991Y-87142573D01*
X100854953Y-87122198D01*
X100884386Y-87107282D01*
X100916171Y-87098393D01*
X100949078Y-87095875D01*
X100981839Y-87099825D01*
G37*
G36*
X137187493Y-86138331D02*
G01*
X137218122Y-86150629D01*
X137245757Y-86168661D01*
X137273757Y-86196056D01*
X137463383Y-86422044D01*
X137655740Y-86651286D01*
X137655742Y-86651290D01*
X137691970Y-86694464D01*
X137714081Y-86726787D01*
X137727045Y-86757143D01*
X137733835Y-86789434D01*
X137734195Y-86822438D01*
X137728111Y-86854871D01*
X137715815Y-86885496D01*
X137697782Y-86913133D01*
X137670387Y-86941133D01*
X137438733Y-87135513D01*
X137272610Y-87274907D01*
X137272607Y-87274909D01*
X137229432Y-87311137D01*
X137197109Y-87333248D01*
X137166753Y-87346212D01*
X137134462Y-87353002D01*
X137101457Y-87353362D01*
X137069027Y-87347279D01*
X137038398Y-87334981D01*
X137010763Y-87316949D01*
X136982763Y-87289554D01*
X136640389Y-86881528D01*
X136600780Y-86834324D01*
X136600778Y-86834320D01*
X136564550Y-86791146D01*
X136542439Y-86758823D01*
X136529475Y-86728467D01*
X136522685Y-86696176D01*
X136522325Y-86663172D01*
X136528409Y-86630739D01*
X136540705Y-86600114D01*
X136558738Y-86572477D01*
X136586133Y-86544477D01*
X136920645Y-86263789D01*
X136983910Y-86210703D01*
X136983913Y-86210701D01*
X137027088Y-86174473D01*
X137059411Y-86152362D01*
X137089767Y-86139398D01*
X137122058Y-86132608D01*
X137155063Y-86132248D01*
X137187493Y-86138331D01*
G37*
G36*
X101885221Y-85809661D02*
G01*
X101916590Y-85819929D01*
X101950721Y-85839141D01*
X102483675Y-86212320D01*
X102513409Y-86237827D01*
X102533784Y-86263789D01*
X102548700Y-86293222D01*
X102557589Y-86325007D01*
X102560107Y-86357915D01*
X102556157Y-86390675D01*
X102545889Y-86422044D01*
X102526677Y-86456175D01*
X102196516Y-86927693D01*
X102171009Y-86957427D01*
X102145047Y-86977802D01*
X102115614Y-86992718D01*
X102083829Y-87001607D01*
X102050922Y-87004125D01*
X102018161Y-87000175D01*
X101986792Y-86989907D01*
X101952661Y-86970695D01*
X101419707Y-86597516D01*
X101389973Y-86572009D01*
X101369598Y-86546047D01*
X101354682Y-86516614D01*
X101345793Y-86484829D01*
X101343275Y-86451921D01*
X101347225Y-86419161D01*
X101357493Y-86387792D01*
X101376705Y-86353661D01*
X101706866Y-85882143D01*
X101732373Y-85852409D01*
X101758335Y-85832034D01*
X101787768Y-85817118D01*
X101819553Y-85808229D01*
X101852460Y-85805711D01*
X101885221Y-85809661D01*
G37*
G36*
X141855152Y-84422797D02*
G01*
X141887296Y-84430292D01*
X141922974Y-84446458D01*
X141971772Y-84474631D01*
X141971782Y-84474636D01*
X142437618Y-84743586D01*
X142437626Y-84743592D01*
X142486427Y-84771767D01*
X142518265Y-84794582D01*
X142540828Y-84818672D01*
X142558254Y-84846695D01*
X142569879Y-84877582D01*
X142575254Y-84910140D01*
X142574174Y-84943123D01*
X142566679Y-84975267D01*
X142550513Y-85010945D01*
X142522340Y-85059743D01*
X142522335Y-85059753D01*
X142290885Y-85460637D01*
X142290879Y-85460645D01*
X142262704Y-85509446D01*
X142239889Y-85541284D01*
X142215799Y-85563847D01*
X142187776Y-85581273D01*
X142156889Y-85592898D01*
X142124331Y-85598273D01*
X142091348Y-85597193D01*
X142059204Y-85589698D01*
X142023526Y-85573532D01*
X141974728Y-85545359D01*
X141974718Y-85545354D01*
X141508882Y-85276404D01*
X141508874Y-85276398D01*
X141460073Y-85248223D01*
X141428235Y-85225408D01*
X141405672Y-85201318D01*
X141388246Y-85173295D01*
X141376621Y-85142408D01*
X141371246Y-85109850D01*
X141372326Y-85076867D01*
X141379821Y-85044723D01*
X141395987Y-85009045D01*
X141424160Y-84960247D01*
X141424165Y-84960237D01*
X141655615Y-84559353D01*
X141655621Y-84559345D01*
X141683796Y-84510544D01*
X141706611Y-84478706D01*
X141730701Y-84456143D01*
X141758724Y-84438717D01*
X141789611Y-84427092D01*
X141822169Y-84421717D01*
X141855152Y-84422797D01*
G37*
G36*
X114384478Y-83261511D02*
G01*
X114416058Y-83271091D01*
X114445164Y-83286649D01*
X114475438Y-83311494D01*
X114515290Y-83351346D01*
X114515296Y-83351351D01*
X114895649Y-83731704D01*
X114895654Y-83731710D01*
X114935506Y-83771562D01*
X114960351Y-83801836D01*
X114975909Y-83830942D01*
X114985489Y-83862522D01*
X114988723Y-83895364D01*
X114985489Y-83928206D01*
X114975909Y-83959786D01*
X114960351Y-83988892D01*
X114935506Y-84019166D01*
X114895654Y-84059018D01*
X114895649Y-84059024D01*
X114568330Y-84386343D01*
X114568324Y-84386348D01*
X114528472Y-84426200D01*
X114498198Y-84451045D01*
X114469092Y-84466603D01*
X114437512Y-84476183D01*
X114404670Y-84479417D01*
X114371828Y-84476183D01*
X114340248Y-84466603D01*
X114311142Y-84451045D01*
X114280868Y-84426200D01*
X114241016Y-84386348D01*
X114241010Y-84386343D01*
X113860657Y-84005990D01*
X113860652Y-84005984D01*
X113820800Y-83966132D01*
X113795955Y-83935858D01*
X113780397Y-83906752D01*
X113770817Y-83875172D01*
X113767583Y-83842330D01*
X113770817Y-83809488D01*
X113780397Y-83777908D01*
X113795955Y-83748802D01*
X113820800Y-83718528D01*
X113860652Y-83678676D01*
X113860657Y-83678670D01*
X114187976Y-83351351D01*
X114187982Y-83351346D01*
X114227834Y-83311494D01*
X114258108Y-83286649D01*
X114287214Y-83271091D01*
X114318794Y-83261511D01*
X114351636Y-83258277D01*
X114384478Y-83261511D01*
G37*
G36*
X142642652Y-83058807D02*
G01*
X142674796Y-83066302D01*
X142710474Y-83082468D01*
X142759272Y-83110641D01*
X142759282Y-83110646D01*
X143225118Y-83379596D01*
X143225126Y-83379602D01*
X143273927Y-83407777D01*
X143305765Y-83430592D01*
X143328328Y-83454682D01*
X143345754Y-83482705D01*
X143357379Y-83513592D01*
X143362754Y-83546150D01*
X143361674Y-83579133D01*
X143354179Y-83611277D01*
X143338013Y-83646955D01*
X143309840Y-83695753D01*
X143309835Y-83695763D01*
X143078385Y-84096647D01*
X143078379Y-84096655D01*
X143050204Y-84145456D01*
X143027389Y-84177294D01*
X143003299Y-84199857D01*
X142975276Y-84217283D01*
X142944389Y-84228908D01*
X142911831Y-84234283D01*
X142878848Y-84233203D01*
X142846704Y-84225708D01*
X142811026Y-84209542D01*
X142762228Y-84181369D01*
X142762218Y-84181364D01*
X142296382Y-83912414D01*
X142296374Y-83912408D01*
X142247573Y-83884233D01*
X142215735Y-83861418D01*
X142193172Y-83837328D01*
X142175746Y-83809305D01*
X142164121Y-83778418D01*
X142158746Y-83745860D01*
X142159826Y-83712877D01*
X142167321Y-83680733D01*
X142183487Y-83645055D01*
X142211660Y-83596257D01*
X142211665Y-83596247D01*
X142443115Y-83195363D01*
X142443121Y-83195355D01*
X142471296Y-83146554D01*
X142494111Y-83114716D01*
X142518201Y-83092153D01*
X142546224Y-83074727D01*
X142577111Y-83063102D01*
X142609669Y-83057727D01*
X142642652Y-83058807D01*
G37*
G36*
X151990292Y-82942439D02*
G01*
X152021872Y-82952019D01*
X152050978Y-82967577D01*
X152076488Y-82988512D01*
X152097423Y-83014022D01*
X152112981Y-83043128D01*
X152122561Y-83074708D01*
X152126400Y-83113690D01*
X152126400Y-83764310D01*
X152122561Y-83803292D01*
X152112981Y-83834872D01*
X152097423Y-83863978D01*
X152076488Y-83889488D01*
X152050978Y-83910423D01*
X152021872Y-83925981D01*
X151990292Y-83935561D01*
X151951310Y-83939400D01*
X151375690Y-83939400D01*
X151336708Y-83935561D01*
X151305128Y-83925981D01*
X151276022Y-83910423D01*
X151250512Y-83889488D01*
X151229577Y-83863978D01*
X151214019Y-83834872D01*
X151204439Y-83803292D01*
X151200600Y-83764310D01*
X151200600Y-83113690D01*
X151204439Y-83074708D01*
X151214019Y-83043128D01*
X151229577Y-83014022D01*
X151250512Y-82988512D01*
X151276022Y-82967577D01*
X151305128Y-82952019D01*
X151336708Y-82942439D01*
X151375690Y-82938600D01*
X151951310Y-82938600D01*
X151990292Y-82942439D01*
G37*
G36*
X150415292Y-82942439D02*
G01*
X150446872Y-82952019D01*
X150475978Y-82967577D01*
X150501488Y-82988512D01*
X150522423Y-83014022D01*
X150537981Y-83043128D01*
X150547561Y-83074708D01*
X150551400Y-83113690D01*
X150551400Y-83764310D01*
X150547561Y-83803292D01*
X150537981Y-83834872D01*
X150522423Y-83863978D01*
X150501488Y-83889488D01*
X150475978Y-83910423D01*
X150446872Y-83925981D01*
X150415292Y-83935561D01*
X150376310Y-83939400D01*
X149800690Y-83939400D01*
X149761708Y-83935561D01*
X149730128Y-83925981D01*
X149701022Y-83910423D01*
X149675512Y-83889488D01*
X149654577Y-83863978D01*
X149639019Y-83834872D01*
X149629439Y-83803292D01*
X149625600Y-83764310D01*
X149625600Y-83113690D01*
X149629439Y-83074708D01*
X149639019Y-83043128D01*
X149654577Y-83014022D01*
X149675512Y-82988512D01*
X149701022Y-82967577D01*
X149730128Y-82952019D01*
X149761708Y-82942439D01*
X149800690Y-82938600D01*
X150376310Y-82938600D01*
X150415292Y-82942439D01*
G37*
G36*
X115498172Y-82147817D02*
G01*
X115529752Y-82157397D01*
X115558858Y-82172955D01*
X115589132Y-82197800D01*
X115628984Y-82237652D01*
X115628990Y-82237657D01*
X116009343Y-82618010D01*
X116009348Y-82618016D01*
X116049200Y-82657868D01*
X116074045Y-82688142D01*
X116089603Y-82717248D01*
X116099183Y-82748828D01*
X116102417Y-82781670D01*
X116099183Y-82814512D01*
X116089603Y-82846092D01*
X116074045Y-82875198D01*
X116049200Y-82905472D01*
X116009348Y-82945324D01*
X116009343Y-82945330D01*
X115682024Y-83272649D01*
X115682018Y-83272654D01*
X115642166Y-83312506D01*
X115611892Y-83337351D01*
X115582786Y-83352909D01*
X115551206Y-83362489D01*
X115518364Y-83365723D01*
X115485522Y-83362489D01*
X115453942Y-83352909D01*
X115424836Y-83337351D01*
X115394562Y-83312506D01*
X115354710Y-83272654D01*
X115354704Y-83272649D01*
X114974351Y-82892296D01*
X114974346Y-82892290D01*
X114934494Y-82852438D01*
X114909649Y-82822164D01*
X114894091Y-82793058D01*
X114884511Y-82761478D01*
X114881277Y-82728636D01*
X114884511Y-82695794D01*
X114894091Y-82664214D01*
X114909649Y-82635108D01*
X114934494Y-82604834D01*
X114974346Y-82564982D01*
X114974351Y-82564976D01*
X115301670Y-82237657D01*
X115301676Y-82237652D01*
X115341528Y-82197800D01*
X115371802Y-82172955D01*
X115400908Y-82157397D01*
X115432488Y-82147817D01*
X115465330Y-82144583D01*
X115498172Y-82147817D01*
G37*
G36*
X107157176Y-80877685D02*
G01*
X107189467Y-80884475D01*
X107219823Y-80897439D01*
X107252146Y-80919550D01*
X107295320Y-80955778D01*
X107295324Y-80955780D01*
X107329322Y-80984308D01*
X107750554Y-81337763D01*
X107777949Y-81365763D01*
X107795982Y-81393400D01*
X107808278Y-81424025D01*
X107814362Y-81456458D01*
X107814002Y-81489462D01*
X107807212Y-81521753D01*
X107794248Y-81552109D01*
X107772137Y-81584432D01*
X107735909Y-81627607D01*
X107735907Y-81627610D01*
X107731759Y-81632553D01*
X107402133Y-82025387D01*
X107374133Y-82052782D01*
X107346498Y-82070814D01*
X107315869Y-82083112D01*
X107283439Y-82089195D01*
X107250434Y-82088835D01*
X107218143Y-82082045D01*
X107187787Y-82069081D01*
X107155464Y-82046970D01*
X107112290Y-82010742D01*
X107112286Y-82010740D01*
X106968316Y-81889934D01*
X106657056Y-81628757D01*
X106629661Y-81600757D01*
X106611628Y-81573120D01*
X106599332Y-81542495D01*
X106593248Y-81510062D01*
X106593608Y-81477058D01*
X106600398Y-81444767D01*
X106613362Y-81414411D01*
X106635473Y-81382088D01*
X106671701Y-81338913D01*
X106671703Y-81338910D01*
X106773837Y-81217191D01*
X107005477Y-80941133D01*
X107033477Y-80913738D01*
X107061112Y-80895706D01*
X107091741Y-80883408D01*
X107124171Y-80877325D01*
X107157176Y-80877685D01*
G37*
G36*
X108169566Y-79671165D02*
G01*
X108201857Y-79677955D01*
X108232213Y-79690919D01*
X108264536Y-79713030D01*
X108307710Y-79749258D01*
X108307714Y-79749260D01*
X108341712Y-79777788D01*
X108762944Y-80131243D01*
X108790339Y-80159243D01*
X108808372Y-80186880D01*
X108820668Y-80217505D01*
X108826752Y-80249938D01*
X108826392Y-80282942D01*
X108819602Y-80315233D01*
X108806638Y-80345589D01*
X108784527Y-80377912D01*
X108748299Y-80421087D01*
X108748297Y-80421090D01*
X108744149Y-80426033D01*
X108414523Y-80818867D01*
X108386523Y-80846262D01*
X108358888Y-80864294D01*
X108328259Y-80876592D01*
X108295829Y-80882675D01*
X108262824Y-80882315D01*
X108230533Y-80875525D01*
X108200177Y-80862561D01*
X108167854Y-80840450D01*
X108124680Y-80804222D01*
X108124676Y-80804220D01*
X107980706Y-80683414D01*
X107669446Y-80422237D01*
X107642051Y-80394237D01*
X107624018Y-80366600D01*
X107611722Y-80335975D01*
X107605638Y-80303542D01*
X107605998Y-80270538D01*
X107612788Y-80238247D01*
X107625752Y-80207891D01*
X107647863Y-80175568D01*
X107684091Y-80132393D01*
X107684093Y-80132390D01*
X107786227Y-80010671D01*
X108017867Y-79734613D01*
X108045867Y-79707218D01*
X108073502Y-79689186D01*
X108104131Y-79676888D01*
X108136561Y-79670805D01*
X108169566Y-79671165D01*
G37*
G36*
X120099478Y-78435511D02*
G01*
X120131058Y-78445091D01*
X120160164Y-78460649D01*
X120190438Y-78485494D01*
X120230290Y-78525346D01*
X120230296Y-78525351D01*
X120610649Y-78905704D01*
X120610654Y-78905710D01*
X120650506Y-78945562D01*
X120675351Y-78975836D01*
X120690909Y-79004942D01*
X120700489Y-79036522D01*
X120703723Y-79069364D01*
X120700489Y-79102206D01*
X120690909Y-79133786D01*
X120675351Y-79162892D01*
X120650506Y-79193166D01*
X120610654Y-79233018D01*
X120610649Y-79233024D01*
X120283330Y-79560343D01*
X120283324Y-79560348D01*
X120243472Y-79600200D01*
X120213198Y-79625045D01*
X120184092Y-79640603D01*
X120152512Y-79650183D01*
X120119670Y-79653417D01*
X120086828Y-79650183D01*
X120055248Y-79640603D01*
X120026142Y-79625045D01*
X119995868Y-79600200D01*
X119956016Y-79560348D01*
X119956010Y-79560343D01*
X119575657Y-79179990D01*
X119575652Y-79179984D01*
X119535800Y-79140132D01*
X119510955Y-79109858D01*
X119495397Y-79080752D01*
X119485817Y-79049172D01*
X119482583Y-79016330D01*
X119485817Y-78983488D01*
X119495397Y-78951908D01*
X119510955Y-78922802D01*
X119535800Y-78892528D01*
X119575652Y-78852676D01*
X119575657Y-78852670D01*
X119902976Y-78525351D01*
X119902982Y-78525346D01*
X119942834Y-78485494D01*
X119973108Y-78460649D01*
X120002214Y-78445091D01*
X120033794Y-78435511D01*
X120066636Y-78432277D01*
X120099478Y-78435511D01*
G37*
G36*
X121213172Y-77321817D02*
G01*
X121244752Y-77331397D01*
X121273858Y-77346955D01*
X121304132Y-77371800D01*
X121343984Y-77411652D01*
X121343990Y-77411657D01*
X121724343Y-77792010D01*
X121724348Y-77792016D01*
X121764200Y-77831868D01*
X121789045Y-77862142D01*
X121804603Y-77891248D01*
X121814183Y-77922828D01*
X121817417Y-77955670D01*
X121814183Y-77988512D01*
X121804603Y-78020092D01*
X121789045Y-78049198D01*
X121764200Y-78079472D01*
X121724348Y-78119324D01*
X121724343Y-78119330D01*
X121397024Y-78446649D01*
X121397018Y-78446654D01*
X121357166Y-78486506D01*
X121326892Y-78511351D01*
X121297786Y-78526909D01*
X121266206Y-78536489D01*
X121233364Y-78539723D01*
X121200522Y-78536489D01*
X121168942Y-78526909D01*
X121139836Y-78511351D01*
X121109562Y-78486506D01*
X121069710Y-78446654D01*
X121069704Y-78446649D01*
X120689351Y-78066296D01*
X120689346Y-78066290D01*
X120649494Y-78026438D01*
X120624649Y-77996164D01*
X120609091Y-77967058D01*
X120599511Y-77935478D01*
X120596277Y-77902636D01*
X120599511Y-77869794D01*
X120609091Y-77838214D01*
X120624649Y-77809108D01*
X120649494Y-77778834D01*
X120689346Y-77738982D01*
X120689351Y-77738976D01*
X121016670Y-77411657D01*
X121016676Y-77411652D01*
X121056528Y-77371800D01*
X121086802Y-77346955D01*
X121115908Y-77331397D01*
X121147488Y-77321817D01*
X121180330Y-77318583D01*
X121213172Y-77321817D01*
G37*
G36*
X108937292Y-74433439D02*
G01*
X108968872Y-74443019D01*
X108997978Y-74458577D01*
X109023488Y-74479512D01*
X109044423Y-74505022D01*
X109059981Y-74534128D01*
X109069561Y-74565708D01*
X109073400Y-74604690D01*
X109073400Y-75255310D01*
X109069561Y-75294292D01*
X109059981Y-75325872D01*
X109044423Y-75354978D01*
X109023488Y-75380488D01*
X108997978Y-75401423D01*
X108968872Y-75416981D01*
X108937292Y-75426561D01*
X108898310Y-75430400D01*
X108322690Y-75430400D01*
X108283708Y-75426561D01*
X108252128Y-75416981D01*
X108223022Y-75401423D01*
X108197512Y-75380488D01*
X108176577Y-75354978D01*
X108161019Y-75325872D01*
X108151439Y-75294292D01*
X108147600Y-75255310D01*
X108147600Y-74604690D01*
X108151439Y-74565708D01*
X108161019Y-74534128D01*
X108176577Y-74505022D01*
X108197512Y-74479512D01*
X108223022Y-74458577D01*
X108252128Y-74443019D01*
X108283708Y-74433439D01*
X108322690Y-74429600D01*
X108898310Y-74429600D01*
X108937292Y-74433439D01*
G37*
G36*
X107362292Y-74433439D02*
G01*
X107393872Y-74443019D01*
X107422978Y-74458577D01*
X107448488Y-74479512D01*
X107469423Y-74505022D01*
X107484981Y-74534128D01*
X107494561Y-74565708D01*
X107498400Y-74604690D01*
X107498400Y-75255310D01*
X107494561Y-75294292D01*
X107484981Y-75325872D01*
X107469423Y-75354978D01*
X107448488Y-75380488D01*
X107422978Y-75401423D01*
X107393872Y-75416981D01*
X107362292Y-75426561D01*
X107323310Y-75430400D01*
X106747690Y-75430400D01*
X106708708Y-75426561D01*
X106677128Y-75416981D01*
X106648022Y-75401423D01*
X106622512Y-75380488D01*
X106601577Y-75354978D01*
X106586019Y-75325872D01*
X106576439Y-75294292D01*
X106572600Y-75255310D01*
X106572600Y-74604690D01*
X106576439Y-74565708D01*
X106586019Y-74534128D01*
X106601577Y-74505022D01*
X106622512Y-74479512D01*
X106648022Y-74458577D01*
X106677128Y-74443019D01*
X106708708Y-74433439D01*
X106747690Y-74429600D01*
X107323310Y-74429600D01*
X107362292Y-74433439D01*
G37*
G36*
X152498292Y-72020439D02*
G01*
X152529872Y-72030019D01*
X152558978Y-72045577D01*
X152584488Y-72066512D01*
X152605423Y-72092022D01*
X152620981Y-72121128D01*
X152630561Y-72152708D01*
X152634400Y-72191690D01*
X152634400Y-72842310D01*
X152630561Y-72881292D01*
X152620981Y-72912872D01*
X152605423Y-72941978D01*
X152584488Y-72967488D01*
X152558978Y-72988423D01*
X152529872Y-73003981D01*
X152498292Y-73013561D01*
X152459310Y-73017400D01*
X151883690Y-73017400D01*
X151844708Y-73013561D01*
X151813128Y-73003981D01*
X151784022Y-72988423D01*
X151758512Y-72967488D01*
X151737577Y-72941978D01*
X151722019Y-72912872D01*
X151712439Y-72881292D01*
X151708600Y-72842310D01*
X151708600Y-72191690D01*
X151712439Y-72152708D01*
X151722019Y-72121128D01*
X151737577Y-72092022D01*
X151758512Y-72066512D01*
X151784022Y-72045577D01*
X151813128Y-72030019D01*
X151844708Y-72020439D01*
X151883690Y-72016600D01*
X152459310Y-72016600D01*
X152498292Y-72020439D01*
G37*
G36*
X150923292Y-72020439D02*
G01*
X150954872Y-72030019D01*
X150983978Y-72045577D01*
X151009488Y-72066512D01*
X151030423Y-72092022D01*
X151045981Y-72121128D01*
X151055561Y-72152708D01*
X151059400Y-72191690D01*
X151059400Y-72842310D01*
X151055561Y-72881292D01*
X151045981Y-72912872D01*
X151030423Y-72941978D01*
X151009488Y-72967488D01*
X150983978Y-72988423D01*
X150954872Y-73003981D01*
X150923292Y-73013561D01*
X150884310Y-73017400D01*
X150308690Y-73017400D01*
X150269708Y-73013561D01*
X150238128Y-73003981D01*
X150209022Y-72988423D01*
X150183512Y-72967488D01*
X150162577Y-72941978D01*
X150147019Y-72912872D01*
X150137439Y-72881292D01*
X150133600Y-72842310D01*
X150133600Y-72191690D01*
X150137439Y-72152708D01*
X150147019Y-72121128D01*
X150162577Y-72092022D01*
X150183512Y-72066512D01*
X150209022Y-72045577D01*
X150238128Y-72030019D01*
X150269708Y-72020439D01*
X150308690Y-72016600D01*
X150884310Y-72016600D01*
X150923292Y-72020439D01*
G37*
G36*
X133333292Y-66114439D02*
G01*
X133364872Y-66124019D01*
X133393978Y-66139577D01*
X133419488Y-66160512D01*
X133440423Y-66186022D01*
X133455981Y-66215128D01*
X133465561Y-66246708D01*
X133469400Y-66285690D01*
X133469400Y-66861310D01*
X133465561Y-66900292D01*
X133455981Y-66931872D01*
X133440423Y-66960978D01*
X133419488Y-66986488D01*
X133393978Y-67007423D01*
X133364872Y-67022981D01*
X133333292Y-67032561D01*
X133294310Y-67036400D01*
X132643690Y-67036400D01*
X132604708Y-67032561D01*
X132573128Y-67022981D01*
X132544022Y-67007423D01*
X132518512Y-66986488D01*
X132497577Y-66960978D01*
X132482019Y-66931872D01*
X132472439Y-66900292D01*
X132468600Y-66861310D01*
X132468600Y-66285690D01*
X132472439Y-66246708D01*
X132482019Y-66215128D01*
X132497577Y-66186022D01*
X132518512Y-66160512D01*
X132544022Y-66139577D01*
X132573128Y-66124019D01*
X132604708Y-66114439D01*
X132643690Y-66110600D01*
X133294310Y-66110600D01*
X133333292Y-66114439D01*
G37*
G36*
X148409478Y-65809511D02*
G01*
X148441058Y-65819091D01*
X148470164Y-65834649D01*
X148500438Y-65859494D01*
X148540290Y-65899346D01*
X148540296Y-65899351D01*
X148920649Y-66279704D01*
X148920654Y-66279710D01*
X148960506Y-66319562D01*
X148985351Y-66349836D01*
X149000909Y-66378942D01*
X149010489Y-66410522D01*
X149013723Y-66443364D01*
X149010489Y-66476206D01*
X149000909Y-66507786D01*
X148985351Y-66536892D01*
X148960506Y-66567166D01*
X148920654Y-66607018D01*
X148920649Y-66607024D01*
X148593330Y-66934343D01*
X148593324Y-66934348D01*
X148553472Y-66974200D01*
X148523198Y-66999045D01*
X148494092Y-67014603D01*
X148462512Y-67024183D01*
X148429670Y-67027417D01*
X148396828Y-67024183D01*
X148365248Y-67014603D01*
X148336142Y-66999045D01*
X148305868Y-66974200D01*
X148266016Y-66934348D01*
X148266010Y-66934343D01*
X147885657Y-66553990D01*
X147885652Y-66553984D01*
X147845800Y-66514132D01*
X147820955Y-66483858D01*
X147805397Y-66454752D01*
X147795817Y-66423172D01*
X147792583Y-66390330D01*
X147795817Y-66357488D01*
X147805397Y-66325908D01*
X147820955Y-66296802D01*
X147845800Y-66266528D01*
X147885652Y-66226676D01*
X147885657Y-66226670D01*
X148212976Y-65899351D01*
X148212982Y-65899346D01*
X148252834Y-65859494D01*
X148283108Y-65834649D01*
X148312214Y-65819091D01*
X148343794Y-65809511D01*
X148376636Y-65806277D01*
X148409478Y-65809511D01*
G37*
G36*
X149523172Y-64695817D02*
G01*
X149554752Y-64705397D01*
X149583858Y-64720955D01*
X149614132Y-64745800D01*
X149653984Y-64785652D01*
X149653990Y-64785657D01*
X150034343Y-65166010D01*
X150034348Y-65166016D01*
X150074200Y-65205868D01*
X150099045Y-65236142D01*
X150114603Y-65265248D01*
X150124183Y-65296828D01*
X150127417Y-65329670D01*
X150124183Y-65362512D01*
X150114603Y-65394092D01*
X150099045Y-65423198D01*
X150074200Y-65453472D01*
X150034348Y-65493324D01*
X150034343Y-65493330D01*
X149707024Y-65820649D01*
X149707018Y-65820654D01*
X149667166Y-65860506D01*
X149636892Y-65885351D01*
X149607786Y-65900909D01*
X149576206Y-65910489D01*
X149543364Y-65913723D01*
X149510522Y-65910489D01*
X149478942Y-65900909D01*
X149449836Y-65885351D01*
X149419562Y-65860506D01*
X149379710Y-65820654D01*
X149379704Y-65820649D01*
X148999351Y-65440296D01*
X148999346Y-65440290D01*
X148959494Y-65400438D01*
X148934649Y-65370164D01*
X148919091Y-65341058D01*
X148909511Y-65309478D01*
X148906277Y-65276636D01*
X148909511Y-65243794D01*
X148919091Y-65212214D01*
X148934649Y-65183108D01*
X148959494Y-65152834D01*
X148999346Y-65112982D01*
X148999351Y-65112976D01*
X149326670Y-64785657D01*
X149326676Y-64785652D01*
X149366528Y-64745800D01*
X149396802Y-64720955D01*
X149425908Y-64705397D01*
X149457488Y-64695817D01*
X149490330Y-64692583D01*
X149523172Y-64695817D01*
G37*
G36*
X108102756Y-64440957D02*
G01*
X108140703Y-64450682D01*
X108436929Y-64558500D01*
X108628646Y-64628279D01*
X108628649Y-64628280D01*
X108681608Y-64647556D01*
X108716925Y-64664497D01*
X108743328Y-64684302D01*
X108765354Y-64708871D01*
X108782164Y-64737270D01*
X108793114Y-64768407D01*
X108797778Y-64801073D01*
X108795979Y-64834029D01*
X108786257Y-64871964D01*
X108682257Y-65157702D01*
X108592167Y-65405223D01*
X108563729Y-65483354D01*
X108546788Y-65518673D01*
X108526984Y-65545073D01*
X108502414Y-65567100D01*
X108474015Y-65583911D01*
X108442879Y-65594860D01*
X108410212Y-65599524D01*
X108377260Y-65597725D01*
X108339313Y-65588000D01*
X108018689Y-65471302D01*
X107851370Y-65410403D01*
X107851367Y-65410402D01*
X107798408Y-65391126D01*
X107763091Y-65374185D01*
X107736688Y-65354380D01*
X107714662Y-65329811D01*
X107697852Y-65301412D01*
X107686902Y-65270275D01*
X107682238Y-65237609D01*
X107684037Y-65204653D01*
X107693759Y-65166718D01*
X107832454Y-64785657D01*
X107897010Y-64608290D01*
X107897012Y-64608287D01*
X107916287Y-64555328D01*
X107933228Y-64520009D01*
X107953032Y-64493609D01*
X107977602Y-64471582D01*
X108006001Y-64454771D01*
X108037137Y-64443822D01*
X108069804Y-64439158D01*
X108102756Y-64440957D01*
G37*
G36*
X133333292Y-64539439D02*
G01*
X133364872Y-64549019D01*
X133393978Y-64564577D01*
X133419488Y-64585512D01*
X133440423Y-64611022D01*
X133455981Y-64640128D01*
X133465561Y-64671708D01*
X133469400Y-64710690D01*
X133469400Y-65286310D01*
X133465561Y-65325292D01*
X133455981Y-65356872D01*
X133440423Y-65385978D01*
X133419488Y-65411488D01*
X133393978Y-65432423D01*
X133364872Y-65447981D01*
X133333292Y-65457561D01*
X133294310Y-65461400D01*
X132643690Y-65461400D01*
X132604708Y-65457561D01*
X132573128Y-65447981D01*
X132544022Y-65432423D01*
X132518512Y-65411488D01*
X132497577Y-65385978D01*
X132482019Y-65356872D01*
X132472439Y-65325292D01*
X132468600Y-65286310D01*
X132468600Y-64710690D01*
X132472439Y-64671708D01*
X132482019Y-64640128D01*
X132497577Y-64611022D01*
X132518512Y-64585512D01*
X132544022Y-64564577D01*
X132573128Y-64549019D01*
X132604708Y-64539439D01*
X132643690Y-64535600D01*
X133294310Y-64535600D01*
X133333292Y-64539439D01*
G37*
G36*
X106622740Y-63902275D02*
G01*
X106660687Y-63912000D01*
X106956913Y-64019818D01*
X107148630Y-64089597D01*
X107148633Y-64089598D01*
X107201592Y-64108874D01*
X107236909Y-64125815D01*
X107263312Y-64145620D01*
X107285338Y-64170189D01*
X107302148Y-64198588D01*
X107313098Y-64229725D01*
X107317762Y-64262391D01*
X107315963Y-64295347D01*
X107306241Y-64333282D01*
X107185751Y-64664325D01*
X107117282Y-64852444D01*
X107083713Y-64944672D01*
X107066772Y-64979991D01*
X107046968Y-65006391D01*
X107022398Y-65028418D01*
X106993999Y-65045229D01*
X106962863Y-65056178D01*
X106930196Y-65060842D01*
X106897244Y-65059043D01*
X106859297Y-65049318D01*
X106538673Y-64932620D01*
X106371354Y-64871721D01*
X106371351Y-64871720D01*
X106318392Y-64852444D01*
X106283075Y-64835503D01*
X106256672Y-64815698D01*
X106234646Y-64791129D01*
X106217836Y-64762730D01*
X106206886Y-64731593D01*
X106202222Y-64698927D01*
X106204021Y-64665971D01*
X106213743Y-64628036D01*
X106350581Y-64252076D01*
X106416994Y-64069608D01*
X106416996Y-64069605D01*
X106436271Y-64016646D01*
X106453212Y-63981327D01*
X106473016Y-63954927D01*
X106497586Y-63932900D01*
X106525985Y-63916089D01*
X106557121Y-63905140D01*
X106589788Y-63900476D01*
X106622740Y-63902275D01*
G37*
G36*
X143653269Y-60623180D02*
G01*
X143708768Y-60632966D01*
X143708770Y-60632966D01*
X143973634Y-60679669D01*
X144293999Y-60736157D01*
X144331728Y-60746709D01*
X144361158Y-60761623D01*
X144387124Y-60782003D01*
X144408612Y-60807050D01*
X144424797Y-60835803D01*
X144435065Y-60867172D01*
X144439015Y-60899932D01*
X144436026Y-60938994D01*
X144426242Y-60994482D01*
X144426241Y-60994496D01*
X144352979Y-61409983D01*
X144336072Y-61505867D01*
X144325522Y-61543591D01*
X144310604Y-61573027D01*
X144290228Y-61598990D01*
X144265183Y-61620476D01*
X144236426Y-61636663D01*
X144205057Y-61646931D01*
X144172298Y-61650881D01*
X144133235Y-61647892D01*
X144077736Y-61638106D01*
X144077734Y-61638106D01*
X143708651Y-61573027D01*
X143492505Y-61534915D01*
X143454776Y-61524363D01*
X143425346Y-61509449D01*
X143399380Y-61489069D01*
X143377892Y-61464022D01*
X143361707Y-61435269D01*
X143351439Y-61403900D01*
X143347489Y-61371140D01*
X143350478Y-61332078D01*
X143360262Y-61276590D01*
X143360263Y-61276576D01*
X143440645Y-60820709D01*
X143440646Y-60820707D01*
X143450432Y-60765205D01*
X143460982Y-60727481D01*
X143475900Y-60698045D01*
X143496276Y-60672082D01*
X143521321Y-60650596D01*
X143550078Y-60634409D01*
X143581447Y-60624141D01*
X143614206Y-60620191D01*
X143653269Y-60623180D01*
G37*
G36*
X143926765Y-59072108D02*
G01*
X143982264Y-59081894D01*
X143982266Y-59081894D01*
X144247130Y-59128597D01*
X144567495Y-59185085D01*
X144605224Y-59195637D01*
X144634654Y-59210551D01*
X144660620Y-59230931D01*
X144682108Y-59255978D01*
X144698293Y-59284731D01*
X144708561Y-59316100D01*
X144712511Y-59348860D01*
X144709522Y-59387922D01*
X144699738Y-59443410D01*
X144699737Y-59443424D01*
X144626475Y-59858911D01*
X144609568Y-59954795D01*
X144599018Y-59992519D01*
X144584100Y-60021955D01*
X144563724Y-60047918D01*
X144538679Y-60069404D01*
X144509922Y-60085591D01*
X144478553Y-60095859D01*
X144445794Y-60099809D01*
X144406731Y-60096820D01*
X144351232Y-60087034D01*
X144351230Y-60087034D01*
X143982147Y-60021955D01*
X143766001Y-59983843D01*
X143728272Y-59973291D01*
X143698842Y-59958377D01*
X143672876Y-59937997D01*
X143651388Y-59912950D01*
X143635203Y-59884197D01*
X143624935Y-59852828D01*
X143620985Y-59820068D01*
X143623974Y-59781006D01*
X143633758Y-59725518D01*
X143633759Y-59725504D01*
X143714141Y-59269637D01*
X143714142Y-59269635D01*
X143723928Y-59214133D01*
X143734478Y-59176409D01*
X143749396Y-59146973D01*
X143769772Y-59121010D01*
X143794817Y-59099524D01*
X143823574Y-59083337D01*
X143854943Y-59073069D01*
X143887702Y-59069119D01*
X143926765Y-59072108D01*
G37*
G36*
X112666206Y-58289511D02*
G01*
X112697786Y-58299091D01*
X112726892Y-58314649D01*
X112757166Y-58339494D01*
X112797018Y-58379346D01*
X112797024Y-58379351D01*
X113124343Y-58706670D01*
X113124348Y-58706676D01*
X113164200Y-58746528D01*
X113189045Y-58776802D01*
X113204603Y-58805908D01*
X113214183Y-58837488D01*
X113217417Y-58870330D01*
X113214183Y-58903172D01*
X113204603Y-58934752D01*
X113189045Y-58963858D01*
X113164200Y-58994132D01*
X113124348Y-59033984D01*
X113124343Y-59033990D01*
X112743990Y-59414343D01*
X112743984Y-59414348D01*
X112704132Y-59454200D01*
X112673858Y-59479045D01*
X112644752Y-59494603D01*
X112613172Y-59504183D01*
X112580330Y-59507417D01*
X112547488Y-59504183D01*
X112515908Y-59494603D01*
X112486802Y-59479045D01*
X112456528Y-59454200D01*
X112416676Y-59414348D01*
X112416670Y-59414343D01*
X112089351Y-59087024D01*
X112089346Y-59087018D01*
X112049494Y-59047166D01*
X112024649Y-59016892D01*
X112009091Y-58987786D01*
X111999511Y-58956206D01*
X111996277Y-58923364D01*
X111999511Y-58890522D01*
X112009091Y-58858942D01*
X112024649Y-58829836D01*
X112049494Y-58799562D01*
X112089346Y-58759710D01*
X112089351Y-58759704D01*
X112469704Y-58379351D01*
X112469710Y-58379346D01*
X112509562Y-58339494D01*
X112539836Y-58314649D01*
X112568942Y-58299091D01*
X112600522Y-58289511D01*
X112633364Y-58286277D01*
X112666206Y-58289511D01*
G37*
G36*
X111552512Y-57175817D02*
G01*
X111584092Y-57185397D01*
X111613198Y-57200955D01*
X111643472Y-57225800D01*
X111683324Y-57265652D01*
X111683330Y-57265657D01*
X112010649Y-57592976D01*
X112010654Y-57592982D01*
X112050506Y-57632834D01*
X112075351Y-57663108D01*
X112090909Y-57692214D01*
X112100489Y-57723794D01*
X112103723Y-57756636D01*
X112100489Y-57789478D01*
X112090909Y-57821058D01*
X112075351Y-57850164D01*
X112050506Y-57880438D01*
X112010654Y-57920290D01*
X112010649Y-57920296D01*
X111630296Y-58300649D01*
X111630290Y-58300654D01*
X111590438Y-58340506D01*
X111560164Y-58365351D01*
X111531058Y-58380909D01*
X111499478Y-58390489D01*
X111466636Y-58393723D01*
X111433794Y-58390489D01*
X111402214Y-58380909D01*
X111373108Y-58365351D01*
X111342834Y-58340506D01*
X111302982Y-58300654D01*
X111302976Y-58300649D01*
X110975657Y-57973330D01*
X110975652Y-57973324D01*
X110935800Y-57933472D01*
X110910955Y-57903198D01*
X110895397Y-57874092D01*
X110885817Y-57842512D01*
X110882583Y-57809670D01*
X110885817Y-57776828D01*
X110895397Y-57745248D01*
X110910955Y-57716142D01*
X110935800Y-57685868D01*
X110975652Y-57646016D01*
X110975657Y-57646010D01*
X111356010Y-57265657D01*
X111356016Y-57265652D01*
X111395868Y-57225800D01*
X111426142Y-57200955D01*
X111455248Y-57185397D01*
X111486828Y-57175817D01*
X111519670Y-57172583D01*
X111552512Y-57175817D01*
G37*
G36*
X144520276Y-56466902D02*
G01*
X144551412Y-56477851D01*
X144579811Y-56494662D01*
X144604381Y-56516689D01*
X144624185Y-56543090D01*
X144641126Y-56578408D01*
X144660401Y-56631367D01*
X144660403Y-56631370D01*
X144752500Y-56884406D01*
X144837999Y-57119311D01*
X144847725Y-57157261D01*
X144849524Y-57190212D01*
X144844860Y-57222878D01*
X144833910Y-57254015D01*
X144817100Y-57282414D01*
X144795074Y-57306983D01*
X144768670Y-57326789D01*
X144733357Y-57343728D01*
X144680395Y-57363004D01*
X144680392Y-57363006D01*
X144312448Y-57496926D01*
X144121973Y-57566253D01*
X144084023Y-57575979D01*
X144051073Y-57577778D01*
X144018406Y-57573114D01*
X143987270Y-57562165D01*
X143958871Y-57545354D01*
X143934301Y-57523327D01*
X143914497Y-57496926D01*
X143897556Y-57461608D01*
X143861668Y-57363006D01*
X143719958Y-56973662D01*
X143700683Y-56920705D01*
X143690957Y-56882755D01*
X143689158Y-56849804D01*
X143693822Y-56817138D01*
X143704772Y-56786001D01*
X143721582Y-56757602D01*
X143743608Y-56733033D01*
X143770012Y-56713227D01*
X143805325Y-56696288D01*
X143858287Y-56677012D01*
X143858290Y-56677010D01*
X144363751Y-56493038D01*
X144363752Y-56493038D01*
X144416709Y-56473763D01*
X144454659Y-56464037D01*
X144487609Y-56462238D01*
X144520276Y-56466902D01*
G37*
G36*
X143981594Y-54986886D02*
G01*
X144012730Y-54997835D01*
X144041129Y-55014646D01*
X144065699Y-55036673D01*
X144085503Y-55063074D01*
X144102444Y-55098392D01*
X144121719Y-55151351D01*
X144121721Y-55151354D01*
X144213818Y-55404390D01*
X144299317Y-55639295D01*
X144309043Y-55677245D01*
X144310842Y-55710196D01*
X144306178Y-55742862D01*
X144295228Y-55773999D01*
X144278418Y-55802398D01*
X144256392Y-55826967D01*
X144229988Y-55846773D01*
X144194675Y-55863712D01*
X144141713Y-55882988D01*
X144141710Y-55882990D01*
X143773766Y-56016910D01*
X143583291Y-56086237D01*
X143545341Y-56095963D01*
X143512391Y-56097762D01*
X143479724Y-56093098D01*
X143448588Y-56082149D01*
X143420189Y-56065338D01*
X143395619Y-56043311D01*
X143375815Y-56016910D01*
X143358874Y-55981592D01*
X143322986Y-55882990D01*
X143181276Y-55493646D01*
X143162001Y-55440689D01*
X143152275Y-55402739D01*
X143150476Y-55369788D01*
X143155140Y-55337122D01*
X143166090Y-55305985D01*
X143182900Y-55277586D01*
X143204926Y-55253017D01*
X143231330Y-55233211D01*
X143266643Y-55216272D01*
X143319605Y-55196996D01*
X143319608Y-55196994D01*
X143825069Y-55013022D01*
X143825070Y-55013022D01*
X143878027Y-54993747D01*
X143915977Y-54984021D01*
X143948927Y-54982222D01*
X143981594Y-54986886D01*
G37*
G36*
X142703829Y-52768393D02*
G01*
X142735614Y-52777282D01*
X142765047Y-52792198D01*
X142791009Y-52812573D01*
X142816516Y-52842307D01*
X143146677Y-53313825D01*
X143165889Y-53347956D01*
X143176157Y-53379325D01*
X143180107Y-53412086D01*
X143177589Y-53444993D01*
X143168700Y-53476778D01*
X143153784Y-53506211D01*
X143133409Y-53532173D01*
X143103675Y-53557680D01*
X142570721Y-53930859D01*
X142536590Y-53950071D01*
X142505221Y-53960339D01*
X142472461Y-53964289D01*
X142439553Y-53961771D01*
X142407768Y-53952882D01*
X142378335Y-53937966D01*
X142352373Y-53917591D01*
X142326866Y-53887857D01*
X141996705Y-53416339D01*
X141977493Y-53382208D01*
X141967225Y-53350839D01*
X141963275Y-53318078D01*
X141965793Y-53285171D01*
X141974682Y-53253386D01*
X141989598Y-53223953D01*
X142009973Y-53197991D01*
X142039707Y-53172484D01*
X142572661Y-52799305D01*
X142606792Y-52780093D01*
X142638161Y-52769825D01*
X142670921Y-52765875D01*
X142703829Y-52768393D01*
G37*
G36*
X141800447Y-51478229D02*
G01*
X141832232Y-51487118D01*
X141861665Y-51502034D01*
X141887627Y-51522409D01*
X141913134Y-51552143D01*
X142243295Y-52023661D01*
X142262507Y-52057792D01*
X142272775Y-52089161D01*
X142276725Y-52121922D01*
X142274207Y-52154829D01*
X142265318Y-52186614D01*
X142250402Y-52216047D01*
X142230027Y-52242009D01*
X142200293Y-52267516D01*
X141667339Y-52640695D01*
X141633208Y-52659907D01*
X141601839Y-52670175D01*
X141569079Y-52674125D01*
X141536171Y-52671607D01*
X141504386Y-52662718D01*
X141474953Y-52647802D01*
X141448991Y-52627427D01*
X141423484Y-52597693D01*
X141093323Y-52126175D01*
X141074111Y-52092044D01*
X141063843Y-52060675D01*
X141059893Y-52027914D01*
X141062411Y-51995007D01*
X141071300Y-51963222D01*
X141086216Y-51933789D01*
X141106591Y-51907827D01*
X141136325Y-51882320D01*
X141669279Y-51509141D01*
X141703410Y-51489929D01*
X141734779Y-51479661D01*
X141767539Y-51475711D01*
X141800447Y-51478229D01*
G37*
G36*
X118717220Y-50674209D02*
G01*
X118755167Y-50683934D01*
X119051393Y-50791752D01*
X119243110Y-50861531D01*
X119243113Y-50861532D01*
X119296072Y-50880808D01*
X119331389Y-50897749D01*
X119357792Y-50917554D01*
X119379818Y-50942123D01*
X119396628Y-50970522D01*
X119407578Y-51001659D01*
X119412242Y-51034325D01*
X119410443Y-51067281D01*
X119400721Y-51105216D01*
X119305446Y-51366981D01*
X119211762Y-51624378D01*
X119178193Y-51716606D01*
X119161252Y-51751925D01*
X119141448Y-51778325D01*
X119116878Y-51800352D01*
X119088479Y-51817163D01*
X119057343Y-51828112D01*
X119024676Y-51832776D01*
X118991724Y-51830977D01*
X118953777Y-51821252D01*
X118633153Y-51704554D01*
X118465834Y-51643655D01*
X118465831Y-51643654D01*
X118412872Y-51624378D01*
X118377555Y-51607437D01*
X118351152Y-51587632D01*
X118329126Y-51563063D01*
X118312316Y-51534664D01*
X118301366Y-51503527D01*
X118296702Y-51470861D01*
X118298501Y-51437905D01*
X118308223Y-51399970D01*
X118445061Y-51024010D01*
X118511474Y-50841542D01*
X118511476Y-50841539D01*
X118530751Y-50788580D01*
X118547692Y-50753261D01*
X118567496Y-50726861D01*
X118592066Y-50704834D01*
X118620465Y-50688023D01*
X118651601Y-50677074D01*
X118684268Y-50672410D01*
X118717220Y-50674209D01*
G37*
G36*
X125269292Y-50383439D02*
G01*
X125300872Y-50393019D01*
X125329978Y-50408577D01*
X125355488Y-50429512D01*
X125376423Y-50455022D01*
X125391981Y-50484128D01*
X125401561Y-50515708D01*
X125405400Y-50554690D01*
X125405400Y-51205310D01*
X125401561Y-51244292D01*
X125391981Y-51275872D01*
X125376423Y-51304978D01*
X125355488Y-51330488D01*
X125329978Y-51351423D01*
X125300872Y-51366981D01*
X125269292Y-51376561D01*
X125230310Y-51380400D01*
X124654690Y-51380400D01*
X124615708Y-51376561D01*
X124584128Y-51366981D01*
X124555022Y-51351423D01*
X124529512Y-51330488D01*
X124508577Y-51304978D01*
X124493019Y-51275872D01*
X124483439Y-51244292D01*
X124479600Y-51205310D01*
X124479600Y-50554690D01*
X124483439Y-50515708D01*
X124493019Y-50484128D01*
X124508577Y-50455022D01*
X124529512Y-50429512D01*
X124555022Y-50408577D01*
X124584128Y-50393019D01*
X124615708Y-50383439D01*
X124654690Y-50379600D01*
X125230310Y-50379600D01*
X125269292Y-50383439D01*
G37*
G36*
X126844292Y-50383439D02*
G01*
X126875872Y-50393019D01*
X126904978Y-50408577D01*
X126930488Y-50429512D01*
X126951423Y-50455022D01*
X126966981Y-50484128D01*
X126976561Y-50515708D01*
X126980400Y-50554690D01*
X126980400Y-51205310D01*
X126976561Y-51244292D01*
X126966981Y-51275872D01*
X126951423Y-51304978D01*
X126930488Y-51330488D01*
X126904978Y-51351423D01*
X126875872Y-51366981D01*
X126844292Y-51376561D01*
X126805310Y-51380400D01*
X126229690Y-51380400D01*
X126190708Y-51376561D01*
X126159128Y-51366981D01*
X126130022Y-51351423D01*
X126104512Y-51330488D01*
X126083577Y-51304978D01*
X126068019Y-51275872D01*
X126058439Y-51244292D01*
X126054600Y-51205310D01*
X126054600Y-50554690D01*
X126058439Y-50515708D01*
X126068019Y-50484128D01*
X126083577Y-50455022D01*
X126104512Y-50429512D01*
X126130022Y-50408577D01*
X126159128Y-50393019D01*
X126190708Y-50383439D01*
X126229690Y-50379600D01*
X126805310Y-50379600D01*
X126844292Y-50383439D01*
G37*
G36*
X117237204Y-50135527D02*
G01*
X117275151Y-50145252D01*
X117571377Y-50253070D01*
X117763094Y-50322849D01*
X117763097Y-50322850D01*
X117816056Y-50342126D01*
X117851373Y-50359067D01*
X117877776Y-50378872D01*
X117899802Y-50403441D01*
X117916612Y-50431840D01*
X117927562Y-50462977D01*
X117932226Y-50495643D01*
X117930427Y-50528599D01*
X117920705Y-50566534D01*
X117800215Y-50897577D01*
X117731746Y-51085696D01*
X117698177Y-51177924D01*
X117681236Y-51213243D01*
X117661432Y-51239643D01*
X117636862Y-51261670D01*
X117608463Y-51278481D01*
X117577327Y-51289430D01*
X117544660Y-51294094D01*
X117511708Y-51292295D01*
X117473761Y-51282570D01*
X117153137Y-51165872D01*
X116985818Y-51104973D01*
X116985815Y-51104972D01*
X116932856Y-51085696D01*
X116897539Y-51068755D01*
X116871136Y-51048950D01*
X116849110Y-51024381D01*
X116832300Y-50995982D01*
X116821350Y-50964845D01*
X116816686Y-50932179D01*
X116818485Y-50899223D01*
X116828207Y-50861288D01*
X116966088Y-50482463D01*
X117031458Y-50302860D01*
X117031460Y-50302857D01*
X117050735Y-50249898D01*
X117067676Y-50214579D01*
X117087480Y-50188179D01*
X117112050Y-50166152D01*
X117140449Y-50149341D01*
X117171585Y-50138392D01*
X117204252Y-50133728D01*
X117237204Y-50135527D01*
G37*
G36*
X116455152Y-42893797D02*
G01*
X116487296Y-42901292D01*
X116522974Y-42917458D01*
X116571772Y-42945631D01*
X116571782Y-42945636D01*
X117037618Y-43214586D01*
X117037626Y-43214592D01*
X117086427Y-43242767D01*
X117118265Y-43265582D01*
X117140828Y-43289672D01*
X117158254Y-43317695D01*
X117169879Y-43348582D01*
X117175254Y-43381140D01*
X117174174Y-43414123D01*
X117166679Y-43446267D01*
X117150513Y-43481945D01*
X117122340Y-43530743D01*
X117122335Y-43530753D01*
X116890885Y-43931637D01*
X116890879Y-43931645D01*
X116862704Y-43980446D01*
X116839889Y-44012284D01*
X116815799Y-44034847D01*
X116787776Y-44052273D01*
X116756889Y-44063898D01*
X116724331Y-44069273D01*
X116691348Y-44068193D01*
X116659204Y-44060698D01*
X116623526Y-44044532D01*
X116574728Y-44016359D01*
X116574718Y-44016354D01*
X116108882Y-43747404D01*
X116108874Y-43747398D01*
X116060073Y-43719223D01*
X116028235Y-43696408D01*
X116005672Y-43672318D01*
X115988246Y-43644295D01*
X115976621Y-43613408D01*
X115971246Y-43580850D01*
X115972326Y-43547867D01*
X115979821Y-43515723D01*
X115995987Y-43480045D01*
X116024160Y-43431247D01*
X116024165Y-43431237D01*
X116255615Y-43030353D01*
X116255621Y-43030345D01*
X116283796Y-42981544D01*
X116306611Y-42949706D01*
X116330701Y-42927143D01*
X116358724Y-42909717D01*
X116389611Y-42898092D01*
X116422169Y-42892717D01*
X116455152Y-42893797D01*
G37*
G36*
X117242652Y-41529807D02*
G01*
X117274796Y-41537302D01*
X117310474Y-41553468D01*
X117359272Y-41581641D01*
X117359282Y-41581646D01*
X117825118Y-41850596D01*
X117825126Y-41850602D01*
X117873927Y-41878777D01*
X117905765Y-41901592D01*
X117928328Y-41925682D01*
X117945754Y-41953705D01*
X117957379Y-41984592D01*
X117962754Y-42017150D01*
X117961674Y-42050133D01*
X117954179Y-42082277D01*
X117938013Y-42117955D01*
X117909840Y-42166753D01*
X117909835Y-42166763D01*
X117678385Y-42567647D01*
X117678379Y-42567655D01*
X117650204Y-42616456D01*
X117627389Y-42648294D01*
X117603299Y-42670857D01*
X117575276Y-42688283D01*
X117544389Y-42699908D01*
X117511831Y-42705283D01*
X117478848Y-42704203D01*
X117446704Y-42696708D01*
X117411026Y-42680542D01*
X117362228Y-42652369D01*
X117362218Y-42652364D01*
X116896382Y-42383414D01*
X116896374Y-42383408D01*
X116847573Y-42355233D01*
X116815735Y-42332418D01*
X116793172Y-42308328D01*
X116775746Y-42280305D01*
X116764121Y-42249418D01*
X116758746Y-42216860D01*
X116759826Y-42183877D01*
X116767321Y-42151733D01*
X116783487Y-42116055D01*
X116811660Y-42067257D01*
X116811665Y-42067247D01*
X117043115Y-41666363D01*
X117043121Y-41666355D01*
X117071296Y-41617554D01*
X117094111Y-41585716D01*
X117118201Y-41563153D01*
X117146224Y-41545727D01*
X117177111Y-41534102D01*
X117209669Y-41528727D01*
X117242652Y-41529807D01*
G37*
G36*
X137401005Y-35172881D02*
G01*
X137432704Y-35182045D01*
X137462007Y-35197219D01*
X137487794Y-35217823D01*
X137509061Y-35243056D01*
X137524996Y-35271951D01*
X137536859Y-35309293D01*
X137672128Y-35945682D01*
X137676479Y-35984617D01*
X137673674Y-36017503D01*
X137664509Y-36049203D01*
X137649336Y-36078506D01*
X137628734Y-36104291D01*
X137603499Y-36125559D01*
X137574604Y-36141494D01*
X137537262Y-36153357D01*
X137482144Y-36165073D01*
X137482140Y-36165074D01*
X137297106Y-36204404D01*
X136974233Y-36273033D01*
X136935299Y-36277384D01*
X136902413Y-36274579D01*
X136870714Y-36265415D01*
X136841411Y-36250241D01*
X136815624Y-36229637D01*
X136794357Y-36204404D01*
X136778422Y-36175509D01*
X136766559Y-36138167D01*
X136631290Y-35501778D01*
X136626939Y-35462843D01*
X136629744Y-35429957D01*
X136638909Y-35398257D01*
X136654082Y-35368954D01*
X136674684Y-35343169D01*
X136699919Y-35321901D01*
X136728814Y-35305966D01*
X136766156Y-35294103D01*
X136821274Y-35282387D01*
X136821278Y-35282386D01*
X137127132Y-35217375D01*
X137329185Y-35174427D01*
X137368119Y-35170076D01*
X137401005Y-35172881D01*
G37*
G36*
X138941587Y-34845421D02*
G01*
X138973286Y-34854585D01*
X139002589Y-34869759D01*
X139028376Y-34890363D01*
X139049643Y-34915596D01*
X139065578Y-34944491D01*
X139077441Y-34981833D01*
X139212710Y-35618222D01*
X139217061Y-35657157D01*
X139214256Y-35690043D01*
X139205091Y-35721743D01*
X139189918Y-35751046D01*
X139169316Y-35776831D01*
X139144081Y-35798099D01*
X139115186Y-35814034D01*
X139077844Y-35825897D01*
X139022726Y-35837613D01*
X139022722Y-35837614D01*
X138837688Y-35876944D01*
X138514815Y-35945573D01*
X138475881Y-35949924D01*
X138442995Y-35947119D01*
X138411296Y-35937955D01*
X138381993Y-35922781D01*
X138356206Y-35902177D01*
X138334939Y-35876944D01*
X138319004Y-35848049D01*
X138307141Y-35810707D01*
X138171872Y-35174318D01*
X138167521Y-35135383D01*
X138170326Y-35102497D01*
X138179491Y-35070797D01*
X138194664Y-35041494D01*
X138215266Y-35015709D01*
X138240501Y-34994441D01*
X138269396Y-34978506D01*
X138306738Y-34966643D01*
X138361856Y-34954927D01*
X138361860Y-34954926D01*
X138667714Y-34889915D01*
X138869767Y-34846967D01*
X138908701Y-34842616D01*
X138941587Y-34845421D01*
G37*
G36*
X141554292Y-31298439D02*
G01*
X141585872Y-31308019D01*
X141614978Y-31323577D01*
X141640488Y-31344512D01*
X141661423Y-31370022D01*
X141676981Y-31399128D01*
X141686561Y-31430708D01*
X141690400Y-31469690D01*
X141690400Y-32045310D01*
X141686561Y-32084292D01*
X141676981Y-32115872D01*
X141661423Y-32144978D01*
X141640488Y-32170488D01*
X141614978Y-32191423D01*
X141585872Y-32206981D01*
X141554292Y-32216561D01*
X141515310Y-32220400D01*
X140864690Y-32220400D01*
X140825708Y-32216561D01*
X140794128Y-32206981D01*
X140765022Y-32191423D01*
X140739512Y-32170488D01*
X140718577Y-32144978D01*
X140703019Y-32115872D01*
X140693439Y-32084292D01*
X140689600Y-32045310D01*
X140689600Y-31469690D01*
X140693439Y-31430708D01*
X140703019Y-31399128D01*
X140718577Y-31370022D01*
X140739512Y-31344512D01*
X140765022Y-31323577D01*
X140794128Y-31308019D01*
X140825708Y-31298439D01*
X140864690Y-31294600D01*
X141515310Y-31294600D01*
X141554292Y-31298439D01*
G37*
G36*
X141554292Y-29723439D02*
G01*
X141585872Y-29733019D01*
X141614978Y-29748577D01*
X141640488Y-29769512D01*
X141661423Y-29795022D01*
X141676981Y-29824128D01*
X141686561Y-29855708D01*
X141690400Y-29894690D01*
X141690400Y-30470310D01*
X141686561Y-30509292D01*
X141676981Y-30540872D01*
X141661423Y-30569978D01*
X141640488Y-30595488D01*
X141614978Y-30616423D01*
X141585872Y-30631981D01*
X141554292Y-30641561D01*
X141515310Y-30645400D01*
X140864690Y-30645400D01*
X140825708Y-30641561D01*
X140794128Y-30631981D01*
X140765022Y-30616423D01*
X140739512Y-30595488D01*
X140718577Y-30569978D01*
X140703019Y-30540872D01*
X140693439Y-30509292D01*
X140689600Y-30470310D01*
X140689600Y-29894690D01*
X140693439Y-29855708D01*
X140703019Y-29824128D01*
X140718577Y-29795022D01*
X140739512Y-29769512D01*
X140765022Y-29748577D01*
X140794128Y-29733019D01*
X140825708Y-29723439D01*
X140864690Y-29719600D01*
X141515310Y-29719600D01*
X141554292Y-29723439D01*
G37*
G36*
X129279629Y-27938193D02*
G01*
X129311414Y-27947082D01*
X129340847Y-27961998D01*
X129366809Y-27982373D01*
X129392316Y-28012107D01*
X129765495Y-28545061D01*
X129784707Y-28579192D01*
X129794975Y-28610561D01*
X129798925Y-28643321D01*
X129796407Y-28676229D01*
X129787518Y-28708014D01*
X129772602Y-28737447D01*
X129752227Y-28763409D01*
X129722493Y-28788916D01*
X129250975Y-29119077D01*
X129216844Y-29138289D01*
X129185475Y-29148557D01*
X129152714Y-29152507D01*
X129119807Y-29149989D01*
X129088022Y-29141100D01*
X129058589Y-29126184D01*
X129032627Y-29105809D01*
X129007120Y-29076075D01*
X128633941Y-28543121D01*
X128614729Y-28508990D01*
X128604461Y-28477621D01*
X128600511Y-28444861D01*
X128603029Y-28411953D01*
X128611918Y-28380168D01*
X128626834Y-28350735D01*
X128647209Y-28324773D01*
X128676943Y-28299266D01*
X129148461Y-27969105D01*
X129182592Y-27949893D01*
X129213961Y-27939625D01*
X129246722Y-27935675D01*
X129279629Y-27938193D01*
G37*
G36*
X130569793Y-27034811D02*
G01*
X130601578Y-27043700D01*
X130631011Y-27058616D01*
X130656973Y-27078991D01*
X130682480Y-27108725D01*
X131055659Y-27641679D01*
X131074871Y-27675810D01*
X131085139Y-27707179D01*
X131089089Y-27739939D01*
X131086571Y-27772847D01*
X131077682Y-27804632D01*
X131062766Y-27834065D01*
X131042391Y-27860027D01*
X131012657Y-27885534D01*
X130541139Y-28215695D01*
X130507008Y-28234907D01*
X130475639Y-28245175D01*
X130442878Y-28249125D01*
X130409971Y-28246607D01*
X130378186Y-28237718D01*
X130348753Y-28222802D01*
X130322791Y-28202427D01*
X130297284Y-28172693D01*
X129924105Y-27639739D01*
X129904893Y-27605608D01*
X129894625Y-27574239D01*
X129890675Y-27541479D01*
X129893193Y-27508571D01*
X129902082Y-27476786D01*
X129916998Y-27447353D01*
X129937373Y-27421391D01*
X129967107Y-27395884D01*
X130438625Y-27065723D01*
X130472756Y-27046511D01*
X130504125Y-27036243D01*
X130536886Y-27032293D01*
X130569793Y-27034811D01*
G37*
G36*
X134082862Y-25133822D02*
G01*
X134113999Y-25144772D01*
X134142398Y-25161582D01*
X134166967Y-25183608D01*
X134186773Y-25210012D01*
X134203712Y-25245325D01*
X134222988Y-25298287D01*
X134222990Y-25298290D01*
X134380594Y-25731306D01*
X134426237Y-25856709D01*
X134435963Y-25894659D01*
X134437762Y-25927609D01*
X134433098Y-25960276D01*
X134422149Y-25991412D01*
X134405338Y-26019811D01*
X134383311Y-26044381D01*
X134356910Y-26064185D01*
X134321592Y-26081126D01*
X134268633Y-26100401D01*
X134268630Y-26100403D01*
X134101311Y-26161302D01*
X133780689Y-26277999D01*
X133742739Y-26287725D01*
X133709788Y-26289524D01*
X133677122Y-26284860D01*
X133645985Y-26273910D01*
X133617586Y-26257100D01*
X133593017Y-26235074D01*
X133573211Y-26208670D01*
X133556272Y-26173357D01*
X133522703Y-26081126D01*
X133353022Y-25614931D01*
X133353022Y-25614930D01*
X133333747Y-25561973D01*
X133324021Y-25524023D01*
X133322222Y-25491073D01*
X133326886Y-25458406D01*
X133337835Y-25427270D01*
X133354646Y-25398871D01*
X133376673Y-25374301D01*
X133403074Y-25354497D01*
X133438392Y-25337556D01*
X133491351Y-25318281D01*
X133491354Y-25318279D01*
X133788816Y-25210012D01*
X133979295Y-25140683D01*
X134017245Y-25130957D01*
X134050196Y-25129158D01*
X134082862Y-25133822D01*
G37*
G36*
X135562878Y-24595140D02*
G01*
X135594015Y-24606090D01*
X135622414Y-24622900D01*
X135646983Y-24644926D01*
X135666789Y-24671330D01*
X135683728Y-24706643D01*
X135703004Y-24759605D01*
X135703006Y-24759608D01*
X135838165Y-25130957D01*
X135906253Y-25318027D01*
X135915979Y-25355977D01*
X135917778Y-25388927D01*
X135913114Y-25421594D01*
X135902165Y-25452730D01*
X135885354Y-25481129D01*
X135863327Y-25505699D01*
X135836926Y-25525503D01*
X135801608Y-25542444D01*
X135748649Y-25561719D01*
X135748646Y-25561721D01*
X135581327Y-25622620D01*
X135260705Y-25739317D01*
X135222755Y-25749043D01*
X135189804Y-25750842D01*
X135157138Y-25746178D01*
X135126001Y-25735228D01*
X135097602Y-25718418D01*
X135073033Y-25696392D01*
X135053227Y-25669988D01*
X135036288Y-25634675D01*
X135009827Y-25561973D01*
X134833038Y-25076249D01*
X134833038Y-25076248D01*
X134813763Y-25023291D01*
X134804037Y-24985341D01*
X134802238Y-24952391D01*
X134806902Y-24919724D01*
X134817851Y-24888588D01*
X134834662Y-24860189D01*
X134856689Y-24835619D01*
X134883090Y-24815815D01*
X134918408Y-24798874D01*
X134971367Y-24779599D01*
X134971370Y-24779597D01*
X135268832Y-24671330D01*
X135459311Y-24602001D01*
X135497261Y-24592275D01*
X135530212Y-24590476D01*
X135562878Y-24595140D01*
G37*
G36*
X146502862Y-22193822D02*
G01*
X146533999Y-22204772D01*
X146562398Y-22221582D01*
X146586967Y-22243608D01*
X146606773Y-22270012D01*
X146623712Y-22305325D01*
X146642988Y-22358287D01*
X146642990Y-22358290D01*
X146800594Y-22791306D01*
X146846237Y-22916709D01*
X146855963Y-22954659D01*
X146857762Y-22987609D01*
X146853098Y-23020276D01*
X146842149Y-23051412D01*
X146825338Y-23079811D01*
X146803311Y-23104381D01*
X146776910Y-23124185D01*
X146741592Y-23141126D01*
X146688633Y-23160401D01*
X146688630Y-23160403D01*
X146521311Y-23221302D01*
X146200689Y-23337999D01*
X146162739Y-23347725D01*
X146129788Y-23349524D01*
X146097122Y-23344860D01*
X146065985Y-23333910D01*
X146037586Y-23317100D01*
X146013017Y-23295074D01*
X145993211Y-23268670D01*
X145976272Y-23233357D01*
X145942703Y-23141126D01*
X145773022Y-22674931D01*
X145773022Y-22674930D01*
X145753747Y-22621973D01*
X145744021Y-22584023D01*
X145742222Y-22551073D01*
X145746886Y-22518406D01*
X145757835Y-22487270D01*
X145774646Y-22458871D01*
X145796673Y-22434301D01*
X145823074Y-22414497D01*
X145858392Y-22397556D01*
X145911351Y-22378281D01*
X145911354Y-22378279D01*
X146208816Y-22270012D01*
X146399295Y-22200683D01*
X146437245Y-22190957D01*
X146470196Y-22189158D01*
X146502862Y-22193822D01*
G37*
G36*
X147982878Y-21655140D02*
G01*
X148014015Y-21666090D01*
X148042414Y-21682900D01*
X148066983Y-21704926D01*
X148086789Y-21731330D01*
X148103728Y-21766643D01*
X148123004Y-21819605D01*
X148123006Y-21819608D01*
X148258165Y-22190957D01*
X148326253Y-22378027D01*
X148335979Y-22415977D01*
X148337778Y-22448927D01*
X148333114Y-22481594D01*
X148322165Y-22512730D01*
X148305354Y-22541129D01*
X148283327Y-22565699D01*
X148256926Y-22585503D01*
X148221608Y-22602444D01*
X148168649Y-22621719D01*
X148168646Y-22621721D01*
X148001327Y-22682620D01*
X147680705Y-22799317D01*
X147642755Y-22809043D01*
X147609804Y-22810842D01*
X147577138Y-22806178D01*
X147546001Y-22795228D01*
X147517602Y-22778418D01*
X147493033Y-22756392D01*
X147473227Y-22729988D01*
X147456288Y-22694675D01*
X147429827Y-22621973D01*
X147253038Y-22136249D01*
X147253038Y-22136248D01*
X147233763Y-22083291D01*
X147224037Y-22045341D01*
X147222238Y-22012391D01*
X147226902Y-21979724D01*
X147237851Y-21948588D01*
X147254662Y-21920189D01*
X147276689Y-21895619D01*
X147303090Y-21875815D01*
X147338408Y-21858874D01*
X147391367Y-21839599D01*
X147391370Y-21839597D01*
X147688832Y-21731330D01*
X147879311Y-21662001D01*
X147917261Y-21652275D01*
X147950212Y-21650476D01*
X147982878Y-21655140D01*
G37*
G36*
X132403829Y-19530793D02*
G01*
X132435614Y-19539682D01*
X132465047Y-19554598D01*
X132491009Y-19574973D01*
X132516516Y-19604707D01*
X132889695Y-20137661D01*
X132908907Y-20171792D01*
X132919175Y-20203161D01*
X132923125Y-20235921D01*
X132920607Y-20268829D01*
X132911718Y-20300614D01*
X132896802Y-20330047D01*
X132876427Y-20356009D01*
X132846693Y-20381516D01*
X132375175Y-20711677D01*
X132341044Y-20730889D01*
X132309675Y-20741157D01*
X132276914Y-20745107D01*
X132244007Y-20742589D01*
X132212222Y-20733700D01*
X132182789Y-20718784D01*
X132156827Y-20698409D01*
X132131320Y-20668675D01*
X131758141Y-20135721D01*
X131738929Y-20101590D01*
X131728661Y-20070221D01*
X131724711Y-20037461D01*
X131727229Y-20004553D01*
X131736118Y-19972768D01*
X131751034Y-19943335D01*
X131771409Y-19917373D01*
X131801143Y-19891866D01*
X132272661Y-19561705D01*
X132306792Y-19542493D01*
X132338161Y-19532225D01*
X132370922Y-19528275D01*
X132403829Y-19530793D01*
G37*
G36*
X133693993Y-18627411D02*
G01*
X133725778Y-18636300D01*
X133755211Y-18651216D01*
X133781173Y-18671591D01*
X133806680Y-18701325D01*
X134179859Y-19234279D01*
X134199071Y-19268410D01*
X134209339Y-19299779D01*
X134213289Y-19332539D01*
X134210771Y-19365447D01*
X134201882Y-19397232D01*
X134186966Y-19426665D01*
X134166591Y-19452627D01*
X134136857Y-19478134D01*
X133665339Y-19808295D01*
X133631208Y-19827507D01*
X133599839Y-19837775D01*
X133567078Y-19841725D01*
X133534171Y-19839207D01*
X133502386Y-19830318D01*
X133472953Y-19815402D01*
X133446991Y-19795027D01*
X133421484Y-19765293D01*
X133048305Y-19232339D01*
X133029093Y-19198208D01*
X133018825Y-19166839D01*
X133014875Y-19134079D01*
X133017393Y-19101171D01*
X133026282Y-19069386D01*
X133041198Y-19039953D01*
X133061573Y-19013991D01*
X133091307Y-18988484D01*
X133562825Y-18658323D01*
X133596956Y-18639111D01*
X133628325Y-18628843D01*
X133661086Y-18624893D01*
X133693993Y-18627411D01*
G37*
G36*
X140582756Y-18120957D02*
G01*
X140620703Y-18130682D01*
X140916929Y-18238500D01*
X141108646Y-18308279D01*
X141108649Y-18308280D01*
X141161608Y-18327556D01*
X141196925Y-18344497D01*
X141223328Y-18364302D01*
X141245354Y-18388871D01*
X141262164Y-18417270D01*
X141273114Y-18448407D01*
X141277778Y-18481073D01*
X141275979Y-18514029D01*
X141266257Y-18551964D01*
X141162257Y-18837702D01*
X141077298Y-19071126D01*
X141043729Y-19163354D01*
X141026788Y-19198673D01*
X141006984Y-19225073D01*
X140982414Y-19247100D01*
X140954015Y-19263911D01*
X140922879Y-19274860D01*
X140890212Y-19279524D01*
X140857260Y-19277725D01*
X140819313Y-19268000D01*
X140498689Y-19151302D01*
X140331370Y-19090403D01*
X140331367Y-19090402D01*
X140278408Y-19071126D01*
X140243091Y-19054185D01*
X140216688Y-19034380D01*
X140194662Y-19009811D01*
X140177852Y-18981412D01*
X140166902Y-18950275D01*
X140162238Y-18917609D01*
X140164037Y-18884653D01*
X140173759Y-18846718D01*
X140310597Y-18470758D01*
X140377010Y-18288290D01*
X140377012Y-18288287D01*
X140396287Y-18235328D01*
X140413228Y-18200009D01*
X140433032Y-18173609D01*
X140457602Y-18151582D01*
X140486001Y-18134771D01*
X140517137Y-18123822D01*
X140549804Y-18119158D01*
X140582756Y-18120957D01*
G37*
G36*
X139102740Y-17582275D02*
G01*
X139140687Y-17592000D01*
X139436913Y-17699818D01*
X139628630Y-17769597D01*
X139628633Y-17769598D01*
X139681592Y-17788874D01*
X139716909Y-17805815D01*
X139743312Y-17825620D01*
X139765338Y-17850189D01*
X139782148Y-17878588D01*
X139793098Y-17909725D01*
X139797762Y-17942391D01*
X139795963Y-17975347D01*
X139786241Y-18013282D01*
X139665751Y-18344325D01*
X139597282Y-18532444D01*
X139563713Y-18624672D01*
X139546772Y-18659991D01*
X139526968Y-18686391D01*
X139502398Y-18708418D01*
X139473999Y-18725229D01*
X139442863Y-18736178D01*
X139410196Y-18740842D01*
X139377244Y-18739043D01*
X139339297Y-18729318D01*
X139018673Y-18612620D01*
X138851354Y-18551721D01*
X138851351Y-18551720D01*
X138798392Y-18532444D01*
X138763075Y-18515503D01*
X138736672Y-18495698D01*
X138714646Y-18471129D01*
X138697836Y-18442730D01*
X138686886Y-18411593D01*
X138682222Y-18378927D01*
X138684021Y-18345971D01*
X138693743Y-18308036D01*
X138830581Y-17932076D01*
X138896994Y-17749608D01*
X138896996Y-17749605D01*
X138916271Y-17696646D01*
X138933212Y-17661327D01*
X138953016Y-17634927D01*
X138977586Y-17612900D01*
X139005985Y-17596089D01*
X139037121Y-17585140D01*
X139069788Y-17580476D01*
X139102740Y-17582275D01*
G37*
M02*
