<?xml version="1.0" encoding="UTF-8" standalone="no"?>
<svg
   xmlns:dc="http://purl.org/dc/elements/1.1/"
   xmlns:cc="http://creativecommons.org/ns#"
   xmlns:rdf="http://www.w3.org/1999/02/22-rdf-syntax-ns#"
   xmlns:svg="http://www.w3.org/2000/svg"
   xmlns="http://www.w3.org/2000/svg"
   xmlns:sodipodi="http://sodipodi.sourceforge.net/DTD/sodipodi-0.dtd"
   xmlns:inkscape="http://www.inkscape.org/namespaces/inkscape"
   width="210mm"
   height="297mm"
   viewBox="0 0 210 297"
   version="1.1"
   id="svg8"
   inkscape:version="1.0.1 (3bc2e813f5, 2020-09-07)"
   sodipodi:docname="llama-F_SilkS_body.svg">
  <defs
     id="defs2" />
  <sodipodi:namedview
     id="base"
     pagecolor="#ffffff"
     bordercolor="#666666"
     borderopacity="1.0"
     inkscape:pageopacity="0.0"
     inkscape:pageshadow="2"
     inkscape:zoom="0.35"
     inkscape:cx="400"
     inkscape:cy="560"
     inkscape:document-units="mm"
     inkscape:current-layer="layer1"
     inkscape:document-rotation="0"
     showgrid="false"
     inkscape:window-width="3840"
     inkscape:window-height="2137"
     inkscape:window-x="-8"
     inkscape:window-y="1072"
     inkscape:window-maximized="1" />
  <metadata
     id="metadata5">
    <rdf:RDF>
      <cc:Work
         rdf:about="">
        <dc:format>image/svg+xml</dc:format>
        <dc:type
           rdf:resource="http://purl.org/dc/dcmitype/StillImage" />
        <dc:title></dc:title>
      </cc:Work>
    </rdf:RDF>
  </metadata>
  <g
     inkscape:label="Layer 1"
     inkscape:groupmode="layer"
     id="layer1">
    <path
       style="fill:#000000;stroke-width:0.265;stroke-miterlimit:4;stroke-dasharray:none"
       d="m -139.20863,855.1618 c -6.65068,-0.45575 -15.4934,-1.59181 -20.55659,-2.64099 -9.02314,-1.86979 -25.36991,-9.71963 -30.44955,-14.62212 -2.55379,-2.46473 -5.99337,-7.57608 -8.66138,-12.87113 -1.1556,-2.29347 -5.31469,-12.42725 -5.95602,-14.51208 -0.34733,-1.12909 -0.34315,-1.14755 0.22333,-0.98637 3.6529,1.0395 9.83964,2.05139 16.18771,2.64769 11.05237,1.03814 18.42613,1.2709 20.5123,0.64743 1.47471,-0.44074 3.27888,-2.17604 3.521,-3.38661 0.33321,-1.66606 -0.51189,-2.89394 -3.66949,-5.33152 -1.5636,-1.20705 -3.31073,-2.67874 -3.8825,-3.27046 -2.43671,-2.52158 -4.98292,-7.73615 -7.20164,-14.74872 -1.23735,-3.91081 -2.38289,-8.3933 -2.19341,-8.58279 0.0593,-0.0593 0.444,0.69731 0.85496,1.68127 5.2831,12.64949 21.24573,36.64627 28.8542,43.37682 6.83201,6.04367 12.00286,8.82407 22.78869,12.2537 3.14286,0.99933 5.8226,1.97398 5.95498,2.16588 0.3914,0.56735 0.0478,11.17973 -0.43103,13.31346 -0.52963,2.36006 -0.97492,2.93497 -3.21884,4.15603 l -1.82881,0.99515 -3.83646,-0.0335 c -2.11005,-0.0185 -5.2652,-0.13144 -7.01145,-0.25111 z m 11.24402,-29.98909 c -6.6541,-2.39229 -8.02099,-2.98154 -10.14321,-4.37275 -2.61721,-1.71563 -6.61678,-5.37583 -10.76745,-9.85379 -6.65759,-7.18254 -8.28748,-9.54509 -16.66134,-24.15091 -4.9448,-8.62478 -8.81322,-16.62049 -11.39275,-23.54791 -3.43337,-9.22042 -5.5235,-13.34755 -7.32292,-14.45964 -0.79823,-0.49335 -1.34638,-0.58695 -3.52927,-0.60283 -3.07319,-0.0222 -3.9151,0.39399 -4.28957,2.12122 -0.38771,1.78826 -0.0478,20.18948 0.44002,23.82377 0.84855,6.32129 2.33233,12.37925 4.39178,17.93073 1.2521,3.37519 1.84231,4.82584 3.81293,9.37168 l 0.95439,2.2016 -1.51936,-0.17167 c -6.78525,-0.76668 -14.69776,-2.33714 -18.24852,-3.62196 -6.59889,-2.38776 -12.65013,-8.18872 -16.43935,-15.7594 -2.17992,-4.35539 -4.62525,-11.76584 -5.43414,-16.46788 -1.18352,-6.87978 -1.27843,-24.17061 -0.17864,-32.54375 2.19146,-16.68428 8.64191,-37.26418 16.60764,-52.98591 3.49826,-6.90446 11.14189,-18.82111 14.97491,-23.34638 1.2326,-1.45521 5.19055,-5.80099 8.79544,-9.6573 9.33242,-9.98326 10.00651,-10.85119 10.34488,-13.31992 0.19634,-1.43242 -0.58028,-3.35153 -1.63632,-4.04346 -1.08973,-0.71401 -3.39367,-0.56428 -5.60353,0.36422 -0.98616,0.41434 -4.95683,2.5563 -8.8237,4.75993 -11.04755,6.29569 -15.86547,8.63881 -20.58002,10.00882 -4.04404,1.17518 -4.03928,1.14306 0.5217,-3.52427 13.96325,-14.2888 24.45727,-28.106 33.30719,-43.85469 3.43424,-6.11135 9.37653,-18.64794 11.74116,-24.77061 3.65322,-9.4592 5.92443,-20.79168 6.42589,-32.06269 l 0.17426,-3.91663 1.12681,4.4458 c 1.55934,6.15233 2.8163,9.84086 5.95024,17.46102 2.86334,6.96219 3.68765,9.16416 3.68604,9.84652 -5.3e-4,0.25151 -0.4909,0.62309 -1.21536,0.92104 -1.67575,0.68924 -2.7524,2.19895 -2.7524,3.85953 0,2.189 2.11804,7.41325 6.81424,16.80768 3.15062,6.30262 4.26012,8.26273 7.51369,13.27426 1.43321,2.2076 2.66673,4.17247 2.74114,4.36639 0.17572,0.45791 -1.54276,3.06295 -3.03916,4.607 -1.93753,1.99927 -1.9026,1.99136 -9.09104,2.05264 -4.49992,0.0384 -6.62921,0.15491 -7.18782,0.39346 -2.34469,1.00126 -4.18088,3.12936 -5.15386,5.97321 -1.2667,3.70229 -0.15247,9.42536 2.0385,10.47049 0.652,0.31099 5.93109,0.72088 10.03961,0.77949 l 1.368,0.0196 0.18005,1.68124 c 0.34198,3.19339 -0.12086,4.81568 -2.52708,8.85759 -6.07365,10.20241 -9.57545,19.71725 -11.01995,29.9426 -0.65662,4.6481 -0.65377,18.32526 0.005,24.87065 1.79953,17.87478 3.99242,28.39739 7.40755,35.54529 1.55305,3.25051 2.82958,5.06899 5.33147,7.59495 2.4476,2.47112 4.37834,3.51811 7.21168,3.91075 1.02559,0.14213 2.3236,0.47075 2.88448,0.73028 1.65533,0.76594 4.56759,3.93435 5.94212,6.46472 l 1.21818,2.24255 2.03867,26.72292 c 2.2157,29.04334 3.32435,44.14716 3.2462,44.22529 -0.0274,0.0274 -2.13309,-0.69911 -4.67928,-1.61451 z m 19.73394,-154.01675 c -1.0067,-0.19994 -1.94112,-0.47426 -2.07648,-0.60965 -0.15178,-0.15176 0.23875,-0.68749 1.01874,-1.39753 3.66632,-3.3375 4.46841,-4.17375 5.16496,-5.38477 0.90889,-1.58023 0.99835,-3.1396 0.26244,-4.57459 -1.13472,-2.21269 -2.02117,-2.62449 -13.20625,-6.13524 -14.11296,-4.42974 -17.20344,-5.60099 -17.70817,-6.71132 -0.39055,-0.85913 0.14294,-2.30806 2.01229,-5.46531 2.52461,-4.26395 2.93961,-6.50478 1.60966,-8.69172 -0.51767,-0.85122 -1.22839,-1.25309 -4.00787,-2.26613 -0.68441,-0.24945 -1.31202,-0.66662 -1.39468,-0.92708 -0.22007,-0.69336 -1.9989,-2.41466 -2.91719,-2.82281 -0.72455,-0.32205 -0.54679,-0.35369 2.039,-0.36317 l 2.83275,-0.0103 2.85579,-3.19892 c 6.52511,-7.30912 8.06077,-10.35275 7.23366,-14.3369 -0.34467,-1.66029 -1.20813,-2.77201 -2.32676,-2.99575 -0.45624,-0.0912 -0.93779,-0.47222 -1.2477,-0.98716 -0.27759,-0.46122 -3.21547,-6.17363 -6.52862,-12.69423 l -6.02391,-11.85566 1.1651,-1.70183 c 1.79093,-2.61591 1.99295,-3.72623 1.34642,-7.39986 -0.7785,-4.42344 -2.47491,-10.03308 -4.91937,-16.2672 -2.82836,-7.21317 -4.38465,-13.21231 -6.21174,-23.94479 -1.12568,-6.61233 -1.6213,-11.16592 -1.98703,-18.25625 -0.61851,-11.99097 -1.12679,-13.10431 -6.40637,-14.03255 -1.17636,-0.20682 -2.18687,-0.42407 -2.24557,-0.48278 -0.23812,-0.23813 -1.697,-6.60107 -2.22263,-9.69405 -0.67876,-3.99404 -0.58051,-5.56066 0.56443,-8.9999 1.09727,-3.29608 2.21313,-5.35911 3.62639,-6.70457 2.28433,-2.17477 2.76451,-2.74124 5.52711,-6.52053 5.45442,-7.46172 9.1053,-14.37177 15.68429,-29.68566 8.185,-19.0522 12.78307,-27.81946 18.70562,-35.66642 4.5866,-6.07692 28.388589,-34.15808 31.914009,-37.65156 0.99934,-0.99028 2.97194,-2.55582 4.38356,-3.47895 2.31802,-1.51591 10.79078,-6.22991 11.19735,-6.22991 0.0915,0 0.10963,1.0418 0.0403,2.31511 -0.1149,2.11118 -0.0712,2.39453 0.49624,3.21683 0.91139,1.32074 1.83725,1.90346 3.33558,2.09931 l 1.331,0.17396 -2.21706,3.30729 c -1.21938,1.81901 -2.81397,4.47387 -3.54353,5.89968 -1.8837,3.68139 -1.79108,5.07272 0.4739,7.11901 1.52803,1.38047 2.60688,1.66148 6.26942,1.63304 5.80669,-0.0451 12.35502,-1.75308 19.06737,-4.97327 9.54377,-4.57854 15.63784,-10.81963 14.12679,-14.46763 -0.86517,-2.08873 -2.88188,-1.62645 -9.55071,2.18922 -6.85628,3.92289 -10.98313,6.06099 -13.85387,7.17756 -2.59218,1.00822 -6.37164,1.97123 -6.64876,1.6941 -0.3857,-0.38568 6.67619,-8.10117 10.48108,-11.45114 1.55537,-1.3694 2.9665,-2.79389 3.13583,-3.16555 0.52147,-1.14451 0.3691,-2.16146 -0.4636,-3.09407 l -0.77149,-0.86407 -5.18163,-0.0819 c -2.8499,-0.0451 -5.18164,-0.16531 -5.18164,-0.26723 0,-0.10191 2.26249,-2.44546 5.02776,-5.20784 5.42684,-5.42121 5.85489,-6.04687 5.20352,-7.60582 -0.8292,-1.98453 -6.83968,-5.70206 -14.06773,-8.70101 l -2.11667,-0.87823 1.19062,-0.18492 c 1.87542,-0.2913 13.90553,-0.25334 17.64653,0.0557 1.86332,0.1539 6.62557,0.6891 10.58279,1.18927 3.95722,0.5002 8.44233,0.93983 9.96691,0.97692 3.22403,0.0785 3.85124,-0.20346 4.86471,-2.18686 1.23244,-2.41194 0.51336,-4.82732 -2.9816,-10.01516 -1.63661,-2.42936 -2.37662,-3.73777 -2.11398,-3.73777 0.58143,0 6.04698,2.85945 8.07215,4.22317 2.38184,1.6039 6.1154,4.52911 12.1480296,9.51788 7.91255,6.54336 11.87755,9.15766 15.59681,10.28364 2.5944304,0.78545 2.9886704,0.83201 10.6197404,1.25445 10.11457,0.55991 12.5004,0.91995 17.40212,2.62612 6.09928,2.12301 12.86963,5.68547 16.86065,8.87182 1.36703,1.09141 3.46425,2.75828 4.66048,3.70417 3.38148,2.6738 5.32723,4.59737 7.59225,7.50575 6.10372,7.83738 7.74604,11.32322 12.35731,26.22862 4.15348,13.42562 5.13424,17.79244 8.46791,37.70313 2.63866,15.75964 4.3671,24.27436 7.25069,35.71875 2.58744,10.26904 3.92515,16.5866 4.76205,22.48959 1.820811,12.84314 2.356171,27.39824 1.226161,33.3375 -1.321721,6.94706 -5.155751,14.79555 -12.886051,26.37869 -3.11799,4.67201 -7.68181,10.8191 -9.58633,12.91193 -1.00545,1.10488 -1.2509,1.25751 -1.48913,0.92604 -0.1569,-0.21828 -0.23829,-0.95908 -0.18082,-1.64623 0.10994,-1.31512 1.06003,-3.38051 4.41539,-9.59856 7.67562,-14.22418 10.11637,-21.16077 10.14773,-28.83958 0.0182,-4.49329 -0.71962,-6.27153 -3.20778,-7.72967 -1.06352,-0.62328 -1.5362,-0.72938 -3.23218,-0.72562 -4.55943,0.0101 -6.809,2.42784 -16.68619,17.93327 -1.37403,2.15696 -3.67691,5.49071 -5.11754,7.40834 -2.82279,3.75742 -8.37052,10.57976 -8.49519,10.44699 -0.0419,-0.0447 0.33192,-2.10529 0.83079,-4.57914 1.09561,-5.43325 1.29246,-9.13556 0.54629,-10.27555 -0.52443,-0.80121 -0.64868,-0.86251 -3.85842,-1.90338 -2.40319,-0.77934 -1.61766,-0.76216 -10.21665,-0.22318 -2.04139,0.12795 -2.77775,0.0469 -5.15937,-0.56777 -5.23735,-1.3517 -7.04051,-0.93742 -6.98598,1.60509 0.0484,2.25772 3.23029,5.7644 5.9808,6.59138 0.6256,0.1881 2.62575,0.41974 4.44476,0.51475 1.81901,0.095 3.97677,0.23884 4.79499,0.31956 l 1.4877,0.1468 -0.51112,2.29301 c -1.53763,6.89803 -1.9258,12.52582 -1.0041,14.55703 1.64307,3.6209 5.1512,5.36914 8.48837,4.23005 5.35074,-1.82636 16.05232,-14.78611 24.98105,-30.25238 2.7504,-4.76422 4.36224,-7.30652 4.35917,-6.87565 0,0.14359 -0.23323,1.22606 -0.51599,2.40552 -0.83058,3.46416 -2.81379,8.09424 -8.55517,19.97315 -2.49436,5.16081 -4.4401,9.8605 -5.08338,12.27823 -0.26496,0.99579 -0.42035,2.65015 -0.41688,4.43841 0.006,2.82917 0.13946,3.40297 1.50082,6.42657 0.14941,0.33182 -5.97215,6.35961 -9.94629,9.79395 -4.08663,3.53156 -9.0542,7.42442 -14.985,11.74309 -2.8906,2.10484 -7.69641,5.62528 -10.67959,7.8232 -12.2839,9.05039 -15.06697,10.56063 -29.2364604,15.86523 -3.78354,1.41645 -7.81791,3.04192 -8.96526,3.61215 -4.06295,2.0193 -8.4516796,5.55146 -10.0345696,8.07606 -2.01905,3.22027 -2.30533,7.22694 -0.77637,10.86596 1.06605,2.53728 3.21685,5.70738 6.0301596,8.88799 l 2.30095,2.60136 -0.2979,7.71739 c -0.16384,4.24458 -0.42101,8.16018 -0.57147,8.70135 -0.15047,0.54121 -0.56622,1.33176 -0.92389,1.75684 -1.8435496,2.19093 -5.0666096,2.50055 -40.3397696,3.87501 -21.40817,0.8342 -30.70352,1.31529 -38.76146,2.00609 -13.158499,1.12811 -17.657859,1.26217 -20.880369,0.62214 z m 322.20533,-22.70495 c -8.49315,-2.76241 -17.57489,-17.59889 -25.93326,-42.36617 -0.86747,-2.57045 -1.24159,-4.19812 -1.48061,-6.44149 -0.3088,-2.89854 -0.34997,-3.0284 -1.19497,-3.77032 -1.25724,-1.10386 -2.98651,-1.09357 -4.03047,0.0241 -1.07342,1.14909 -1.32419,3.12288 -1.32419,10.42287 v 6.27716 l -0.82169,-0.478 c -1.12038,-0.6517 -3.28128,-3.04901 -4.22428,-4.68638 -1.30543,-2.26671 -2.37025,-5.34572 -3.71288,-10.736 -0.70617,-2.83514 -1.50222,-5.44716 -1.769,-5.80448 -0.98351,-1.31731 -1.78914,-1.70085 -3.61572,-1.72135 -1.58236,-0.0177 -1.78697,0.0465 -2.53759,0.79705 -0.44905,0.44903 -1.0954,1.58012 -1.43634,2.51355 -0.60122,1.64602 -0.6282,1.67563 -0.89673,0.98324 -1.07762,-2.77889 -2.91793,-10.32875 -3.59881,-14.76423 -0.23455,-1.52796 -0.60179,-3.89548 -0.81608,-5.26116 -0.58613,-3.73562 -1.7158,-5.32217 -3.78952,-5.32217 -1.25883,0 -2.15934,1.03262 -4.07093,4.66823 -0.9837,1.87087 -2.06621,3.7493 -2.40557,4.1743 l -0.61703,0.77275 -1.13927,-1.4342 c -0.62661,-0.78881 -1.65891,-2.50577 -2.29399,-3.81545 -0.97311,-2.00682 -1.28088,-3.06769 -1.95731,-6.74688 -1.50942,-8.21002 -3.04903,-13.13328 -4.68903,-14.99433 -1.43398,-1.62727 -3.67511,-2.11649 -5.5745,-1.21685 -0.53131,0.25165 -1.69894,1.20073 -2.59472,2.10907 l -1.62869,1.65153 -0.14841,-2.70441 c -0.0816,-1.48741 -0.27043,-7.8836 -0.4196,-14.21376 -0.65942,-27.98255 -3.53094,-44.27032 -12.52434,-71.04063 -3.00845,-8.95516 -3.83519,-11.05231 -6.1018,-15.47812 -1.15514,-2.25558 -2.95238,-5.76792 -3.99383,-7.80521 -3.143731,-6.14969 -4.343401,-10.47464 -6.238291,-22.48959 -1.38954,-8.81059 -2.53995,-14.57399 -4.48903,-22.48958 -4.43677,-18.01865 -7.35293,-25.79833 -12.64515,-33.73438 -2.78339,-4.1739 -5.87137,-7.71794 -10.2639,-11.77975 -7.0751,-6.5424 -10.59173,-9.44319 -14.53076,-11.9861 -1.45521,-0.93943 -3.08086,-1.99731 -3.61254,-2.35088 -1.40042,-0.93122 -2.91804,-3.25231 -5.11668,-7.8255 -4.76562,-9.91248 -6.76952,-15.71331 -7.9258,-22.94318 -0.22111,-1.38245 -0.76298,-5.72434 -1.20417,-9.64864 -0.87794,-7.80931 -1.14986,-9.72918 -1.74279,-12.30588 -0.75959,-3.30086 -2.501,-5.29585 -4.66058,-5.33919 -1.615,-0.0324 -2.51791,0.51054 -4.54818,2.73505 -0.96175,1.05379 -1.74864,1.79525 -1.74864,1.64778 0,-0.14751 0.3534,-1.8097 0.78532,-3.69377 1.28382,-5.60007 2.06707,-11.14862 2.78052,-19.69744 0.702,-8.41155 1.0449,-10.81426 2.16791,-15.19034 0.49629,-1.93389 0.62856,-2.95783 0.5037,-3.89903 -0.11996,-0.90437 -0.0519,-1.50355 0.23365,-2.05568 0.79325,-1.53392 3.40606,-4.30033 7.10827,-7.52607 4.88567,-4.25689 5.73522,-5.20015 5.73522,-6.36773 0,-1.4306 -0.94004,-2.0039 -3.27684,-1.99837 -3.81913,0.009 -8.79618,2.82096 -13.80703,7.80071 -4.58169,4.55324 -6.68128,8.157 -8.23393,14.13274 -0.89434,3.44207 -1.11818,8.69352 -0.52026,12.20563 0.2342,1.3757 0.4963,3.57283 0.58244,4.88252 0.18915,2.87596 0.25429,2.92666 -2.80659,-2.18358 l -2.10029,-3.50661 0.002,-2.18202 c 0.006,-5.20713 2.20496,-10.96878 10.57076,-27.69401 l 4.2435,-8.48379 -0.0661,-17.39796 c -0.0744,-19.57462 -0.14837,-18.70345 1.94177,-22.87784 2.73521,-5.46269 6.20816,-9.90335 15.98761,-20.4425 11.27442,-12.1502 14.77023,-16.31691 26.97652,-32.15365 5.95191,-7.72216 11.03421,-14.14026 16.62819,-20.9986 3.93806,-4.828173 11.098081,-15.08771 14.612251,-20.937859 5.03343,-8.379222 6.66107,-13.423398 5.08074,-15.745408 -0.95581,-1.404382 -1.92683,-1.981676 -3.33317,-1.981676 -2.09899,0 -2.67547,0.633201 -5.938021,6.522323 -3.60188,6.501633 -7.66315,12.912937 -11.93199,18.836403 l -1.87703,2.604558 -0.49623,-1.678517 c -0.47892,-1.619885 -0.48048,-1.817131 -0.0452,-5.647266 0.99933,-8.792634 2.95248,-16.10958 5.83943,-21.875698 3.23546,-6.462157 5.90929,-9.862657 17.036471,-21.666567 7.54692,-8.00587 8.48479,-9.26 8.48479,-11.34576 0,-1.96591 -1.28635,-3.4526 -2.9873,-3.4526 -2.50323,0 -9.47047,5.81247 -18.394631,15.34583 -7.15142,7.63961 -11.39862,13.317566 -14.06686,18.80558 -1.42452,2.929943 -1.59912,3.627014 -2.76765,11.051144 -0.35147,2.232924 -0.70895,4.129802 -0.79441,4.215262 -0.0855,0.08546 -0.57727,-0.25318 -1.09287,-0.752581 -0.89609,-0.86786 -0.92977,-0.966338 -0.76274,-2.230861 0.0961,-0.727604 0.5701,-2.870729 1.05334,-4.7625 2.47951,-9.706822 5.06764,-14.331134 13.63305,-24.358734 3.03178,-3.54931 3.98354,-4.97909 4.15237,-6.2379 0.67773,-5.0529 -7.06168,-2.55399 -14.30181,4.61783 -5.25889,5.20925 -8.73535,11.72096 -12.10379,22.671512 -0.55954,1.819011 -1.02719,3.069167 -1.03923,2.778125 -0.25247,-6.101556 -0.57751,-8.742124 -1.57962,-12.832287 -1.56334,-6.38104 -1.9459,-9.39581 -1.81266,-14.28414 0.0838,-3.07573 0.2176,-4.30425 0.53364,-4.90176 0.95462,-1.80482 4.96221,-4.93402 12.37909,-9.66586 12.60731,-8.0432 18.45061,-12.85031 19.32461,-15.897748 0.32954,-1.14906 -0.0818,-2.4183202 -0.93104,-2.8728202 -1.3411,-0.71771 -3.10365,-0.1837 -9.00086,2.7271102 -8.96573,4.425368 -18.28803,9.838688 -23.15105,13.443448 -3.32007,2.46102 -6.38373,5.65023 -7.38851,7.6912 -1.09771,2.22975 -1.4536,5.4692 -1.22965,11.19286 0.22717,5.80641 0.81068,10.11356 2.02051,14.914269 1.2436,4.934611 1.47421,6.608762 1.83603,13.328994 0.15473,2.873507 0.40674,5.903119 0.56007,6.732508 0.71056,3.843867 2.48369,5.525426 6.91666,6.559577 1.73683,0.405183 3.01209,1.083363 7.42653,3.949488 l 3.11505,2.022449 -0.2122,2.969287 c -0.30398,4.253785 -0.24873,8.646375 0.12174,9.676975 0.31869,0.88654 0.31723,0.889 -3.56106,6.08542 -2.13394,2.85919 -5.20361,6.86541 -6.82151,8.9027 -1.61793,2.03729 -4.7116,5.96635 -6.87488,8.73125 -5.57893,7.13044 -8.42333,10.42829 -22.36711,25.93258 -9.58628,10.65916 -9.98657,11.12935 -12.0474,14.15179 -2.7315,4.00606 -4.57746,8.47961 -5.71778,13.85666 -0.52964,2.49748 -0.58031,3.7239 -0.74458,18.02564 l -0.17627,15.34583 -0.68737,1.98437 c -1.01869,2.94087 -2.25805,5.54048 -5.24775,11.00744 -4.6877404,8.57202 -6.6039604,13.20474 -7.5399904,18.22902 -0.83016,4.45598 -0.27156,11.7787 1.1881,15.57486 0.74295,1.9322 7.8786804,11.92017 10.0105204,14.01186 l 1.57048,1.5409 -0.48036,2.6265 c -0.26419,1.44454 -1.07683,4.98784 -1.80586,7.87394 -0.72904,2.88611 -1.40117,5.89235 -1.49364,6.68055 -0.22676,1.93296 0.22201,3.4703 1.27061,4.35263 0.71626,0.6027 1.02756,0.69149 2.0724,0.59108 1.98252,-0.1905 3.41053,-1.08553 6.67039,-4.18087 l 3.06991,-2.91499 0.14796,1.13115 c 0.0814,0.62214 0.57247,4.58396 1.09133,8.80406 1.52925,12.43814 1.85374,13.71836 5.39863,21.29896 2.56461,5.48426 4.1075,9.22097 3.89506,9.43338 -0.0901,0.0901 -1.32834,-0.0286 -2.75153,-0.2639 -1.42322,-0.23529 -5.32609,-0.73522 -8.67307,-1.11093 -7.25729,-0.81468 -11.34803,-1.49053 -13.46813,-2.2251 -1.93,-0.66873 -5.4276904,-2.98106 -11.79798043,-7.79973 -10.39370957,-7.86209 -12.12273957,-9.1395 -14.68596957,-10.85008 -5.38658,-3.59477 -10.38458,-5.43904 -14.94896,-5.51625 -3.49198,-0.0591 -5.54152,0.88553 -6.65727,3.06824 -0.47377,0.92684 -0.56342,1.54408 -0.54537,3.75499 0.0244,2.98837 0.63008,5.39499 1.95742,7.77759 l 0.7953,1.42756 -1.01619,-0.17322 c -5.26855,-0.89813 -15.95626,-1.4845 -27.13533,-1.48879 l -6.53999,-0.003 -2.05897,1.76313 c -3.5362,3.0281 -5.64792,5.20115 -6.31295,6.49631 -1.16444,2.26769 -0.71343,4.45151 1.26995,6.14921 0.98731,0.84508 4.99769,2.9618 8.53691,4.50583 l 1.58415,0.69109 -3.56852,1.86857 c -9.10983,4.77012 -12.68146,6.91806 -19.44352,11.69315 -3.46998,2.45036 -5.0576,3.96394 -10.030736,9.56292 -6.196783,6.97661 -20.842893,24.24573 -25.005003,29.48323 -7.03765,8.85598 -17.16862,26.68027 -20.08641,35.33969 -0.4413,1.30968 -1.09954,3.45281 -1.46276,4.7625 -0.36322,1.30968 -0.94522,3.02228 -1.29334,3.80574 l -0.63295,1.42451 -0.32838,-3.74814 c -0.51672,-5.8978 -1.15022,-7.3398 -3.50278,-7.9733 -1.56458,-0.42129 -3.21831,-0.15369 -5.18801,0.83945 -1.44331,0.72776 -8.93346,6.4566 -12.98374,9.93063 -0.77204,0.66217 -1.43851,1.16097 -1.48104,1.10837 -0.1037,-0.12809 -0.68711,-3.79204 -0.68711,-4.31525 0,-0.23723 1.32619,-1.27466 3.10886,-2.43197 6.19136,-4.01945 11.1877,-8.28223 12.58778,-10.7397 1.73644,-3.04782 0.60395,-5.495 -2.54294,-5.495 -1.4775,0 -3.74287,1.34792 -9.97577,5.93566 -2.48435,1.82861 -4.56172,3.32475 -4.61639,3.32475 -0.0547,0 -0.17953,-0.58274 -0.27748,-1.29497 -0.17402,-1.26524 -0.15177,-1.32141 0.96987,-2.4474 2.5102,-2.51992 6.15923,-6.8236 7.54246,-8.89558 3.71481,-5.56456 2.58642,-7.92623 -4.03009,-8.43481 l -2.14524,-0.16492 -0.75238,1.29228 c -0.41382,0.71075 -1.387,2.24372 -2.16262,3.40659 -1.33032,1.99451 -1.41022,2.06581 -1.41022,1.25841 0,-2.1885 -1.10014,-18.04898 -1.47273,-21.2321 -0.71126,-6.07634 -1.72511,-10.78584 -4.77179,-22.16578 l -1.75133,-6.54151 0.15164,-22.48958 c 0.23261,-34.49802 0.35775,-35.8447 4.91729,-52.91667 3.32229,-12.43939 5.05434,-16.7431 13.80668,-34.30601 8.2936,-16.64237 10.59003,-22.19185 12.76589,-30.84949 1.46575,-5.83213 1.8245,-8.89659 1.71567,-14.65543 l -0.094,-4.97282 0.45543,1.33985 c 0.66757,1.96398 1.74637,6.94389 2.24278,10.3531 0.27855,1.91299 0.44119,4.86661 0.45526,8.26788 l 0.0219,5.29166 -0.98698,2.01904 c -0.54285,1.11046 -2.85456,4.80139 -5.13716,8.20208 -4.28777,6.38805 -6.56984,10.62138 -7.39807,13.72368 -1.20096,4.49842 -0.009,12.81393 2.23702,15.60158 0.82391,1.02277 2.3698,1.68584 3.35428,1.43875 1.37223,-0.34441 1.71343,-1.58681 2.35553,-8.57705 0.5582,-6.0769 1.43121,-8.39843 5.00634,-13.31307 4.44275,-6.10738 5.05803,-7.04181 6.12722,-9.30542 2.07117,-4.38494 2.11577,-4.72938 2.107,-16.27188 -0.005,-6.64358 -0.12341,-11.04966 -0.34033,-12.66835 -0.18293,-1.36504 -0.27941,-2.53508 -0.21441,-2.60006 0.18365,-0.18365 5.08893,3.08351 7.41255,4.9371 4.26686,3.40378 9.20637,8.6841 12.6798,13.55465 l 1.26094,1.76811 -0.41291,6.48126 c -0.22709,3.5647 -0.57356,7.64206 -0.76991,9.06079 -0.36257,2.61971 -0.2285,4.00737 0.43872,4.54091 1.91749,1.53326 5.05431,-0.8685 7.3498,-5.62753 1.31543,-2.72717 1.86532,-5.4524 2.0287,-10.05417 0.19808,-5.57895 -0.2674,-7.07686 -4.34193,-13.97201 -4.64502,-7.86058 -7.74262,-11.61031 -11.84722,-14.34142 -2.56982,-1.7099 -8.06358,-4.40491 -14.46066,-7.09382 l -4.59624,-1.93194 -2.32869,-2.89396 c -5.19057,-6.45049 -7.03386,-9.06044 -7.50727,-10.62976 -1.30103,-4.31271 0.0921,-14.72814 4.82476,-36.07248 4.2854,-19.32702 7.68192,-28.47559 18.65629,-50.251067 6.39002,-12.679152 9.83752,-18.621826 12.66306,-21.828126 2.02907,-2.30251 3.23464,-4.163933 5.05762,-7.809019 1.94216,-3.883425 3.66339,-8.224205 4.61473,-11.637855 0.38527,-1.38245 0.76539,-2.69214 0.84471,-2.91042 0.0793,-0.21828 0.54888,1.32953 1.04345,3.43959 0.85152,3.63291 0.88395,3.94734 0.61118,5.92648 -0.32701,2.372727 -1.39175,5.61509 -3.48413,10.609974 -3.32965,7.948454 -3.6246,9.449356 -3.82323,19.45521 -0.17315,8.722545 -0.009,10.014347 1.47635,11.604202 1.0123,1.08368 2.53572,1.152631 3.52862,0.159729 0.863,-0.862992 1.27788,-2.430595 2.5905,-9.78789 0.59713,-3.34698 1.38014,-7.255484 1.74003,-8.685557 0.67311,-2.674752 2.22092,-7.057152 2.4925,-7.057152 0.0841,0 0.56096,2.291953 1.05977,5.093229 l 0.906923,5.093229 0.14995,16.668751 c 0.15704,17.456862 0.1996,18.054982 1.32769,18.658712 1.423286,0.7617 3.007196,-0.0257 3.908396,-1.94287 1.32424,-2.8172 1.46353,-4.5834 1.5687,-19.890842 l 0.0981,-14.287501 -1.06049,-7.540625 c -1.34135,-9.5377 -2.31056,-17.041019 -2.68284,-20.769789 -0.43962,-4.40323 -1.123126,-8.20248 -3.689046,-20.50521 l -2.345263,-11.24479 1.43759,-5.55625 c 3.380803,-13.0666382 4.904489,-17.5543182 9.028249,-26.590628 2.97313,-6.51494 6.1652,-12.75278 8.12367,-15.875 0.95845,-1.52797 1.9275,-3.33412 2.15343,-4.0137 0.48557,-1.46048 1.43405,-2.25428 6.60006,-5.52382 7.3634,-4.66026 12.09186,-8.3925 13.71835,-10.82812 0.85165,-1.27532 0.43778,-3.43961 -0.88692,-4.63812 -0.82021,-0.74205 -3.57205,-0.6867 -5.54155,0.11147 -0.79275,0.32128 -3.65025,2.03451 -6.35,3.80719 -5.15056,3.38193 -13.50333,7.80103 -16.81488,8.89606 -1.01864,0.33684 -2.74505,0.66297 -3.83646,0.72472 l -1.98437,0.11229 1.19062,-1.00089 c 2.10594,-1.7703 5.82843,-5.46754 6.87606,-6.82937 0.55972,-0.72761 2.59018,-3.82323 4.51212,-6.87917 5.62005,-8.93601 16.06084,-24.52029 19.49855,-29.10417 7.8212,-10.42887 12.59301,-15.00161 23.88202,-22.885725 2.98318,-2.08343 6.43599,-4.58509 7.67292,-5.55929 1.23693,-0.97417 3.43958,-2.54095 4.89479,-3.48173 5.25277,-3.39587 15.04172,-11.94705 24.4781096,-21.38296 3.42201997,-3.42186 6.75577,-6.98522 7.40833,-7.91856 1.11754,-1.59843 2.52137,-3.47766 7.0736604,-9.46909 1.05514,-1.3887 2.83153,-4.02834 3.94754,-5.86587 4.49008,-7.39296 7.36946,-11.49533 9.80357,-13.96754 1.69431,-1.72082 17.85976,-12.55316 18.21033,-12.20258 0.0517,0.0517 -0.98264,1.3399 -2.29849,2.86263 -7.8695,9.10669 -10.73814,15.3498 -10.00752,21.77971 0.36854,3.24355 2.20194,11.93035 3.18743,15.10247 0.91874,2.95719 1.55062,4.32035 3.44488,7.43167 l 1.29215,2.12227 -0.50859,1.7784 c -1.23616,4.3226 -2.6026,14.13227 -2.91994,20.96228 -0.40423,8.69968 0.35018,16.307935 1.97636,19.931545 0.85124,1.89679 1.47913,2.53791 3.01704,3.08051 3.25197,1.14737 7.17619,-0.39394 10.90205,-4.28193 2.92196,-3.04909 5.21716,-6.291615 13.91203,-19.653925 2.03587,-3.12869 4.62206,-7.09488 5.74712,-8.81374 l 2.04555,-3.12518 1.14549,1.05587 c 2.01369,1.85613 3.09396,2.2688 5.96061,2.27695 2.34897,0.007 2.64345,-0.0552 4.49792,-0.94496 1.0914,-0.52366 2.66814,-1.5118 3.50387,-2.19585 2.9976,-2.45357 6.60819,-7.33804 9.9104,-13.407 l 1.80959,-3.32581 0.920881,1.58131 c 1.3244,2.27422 4.21,5.24542 6.70954,6.90856 2.90836,1.93516 7.66519,4.2074 13.40038,6.40112 2.60951,0.99811 4.74708,1.88912 4.75017,1.98001 0.003,0.0909 -1.27238,1.04336 -2.83432,2.11666 -8.78623,6.03745 -11.01458,8.81042 -10.97235,13.65407 0.0342,3.92345 1.58485,8.0714 4.45188,11.908525 2.50428,3.35164 5.17064,5.08019 7.85217,5.09032 2.61808,0.01 3.51652,-0.76756 4.79348,-4.14806 1.21505,-3.216625 3.2303,-4.794145 7.52526,-5.890735 2.02292,-0.5165 6.88964,-1.32136 10.47675,-1.73266 l 1.57584,-0.18068 -2.08489,1.94408 c -2.93696,2.73857 -5.20793,5.478125 -6.36247,7.675175 -0.97969,1.86441 -0.98877,1.90994 -0.85513,4.29437 0.28988,5.17109 3.14346,9.46917 8.73051,13.1499 2.93799,1.9355 4.88006,2.69007 6.96823,2.70737 2.56431,0.0212 4.22939,-1.30762 4.88174,-3.89612 1.32612,-5.26193 3.04324,-6.52074 16.92347,-12.40647 1.52797,-0.64794 2.80212,-1.15935 2.83146,-1.13649 0.0294,0.0228 0.16844,2.83533 0.30912,6.24998 0.21055,5.11154 0.35575,6.52672 0.82192,8.00976 1.10178,3.50531 3.41435,4.81619 7.12976,4.04151 4.16629,-0.8687 8.99885,-4.11895 24.21805,-16.28836 4.06823,-3.253 7.52753,-5.91452 7.68734,-5.91452 0.49363,0 4.78229,3.73817 5.10749,4.45188 0.16888,0.37063 0.61116,1.8919 0.98285,3.38061 0.37168,1.4887 0.98141,3.63892 1.3549,4.77824 l 0.67911,2.07148 -2.13643,4.41081 c -3.23602,6.68094 -4.26019,9.57353 -5.21523,14.72954 -0.58611,3.16421 -0.575,8.5956 0.023,11.2448 0.53027,2.34918 2.24406,6.1696 3.25016,7.24537 1.28419,1.37316 2.95971,2.27963 4.21368,2.27963 2.42305,0 3.52322,-0.9389 5.89283,-5.02889 2.43406,-4.20126 8.09646,-9.51865 11.46622,-10.76756 2.00982,-0.74491 2.11892,-0.5692 1.96707,3.16791 -0.10457,2.57355 -0.27684,3.66429 -0.8418,5.32924 -0.81994,2.41654 -1.17052,2.96621 -3.72711,5.84409 -3.97959,4.47966 -4.75588,5.90052 -4.57673,8.37702 0.0859,1.18727 0.40891,2.14014 1.36681,4.0318 l 1.25436,2.47711 2.82943,1.28829 2.82945,1.28828 h 4.49793 c 4.21886,0 4.62925,-0.0452 6.61458,-0.72832 1.16417,-0.40055 2.91409,-1.13001 3.88874,-1.62102 l 1.77207,-0.89271 0.14116,0.69498 c 0.0776,0.38225 0.44836,2.54045 0.82383,4.79603 2.03017,12.19559 3.8921,18.2284898 6.59043,21.3539898 0.5761,0.66733 1.67023,1.46232 2.73097,1.98437 1.69315,0.83327996 1.89606,0.86978996 4.68525,0.84298996 3.89342,-0.0374 7.36367,-1.01223996 14.45291,-4.05986996 l 2.27703,-0.97888 0.45136,3.24572 c 1.0655,7.66194 2.33145,11.25123 5.44218,15.4299482 l 1.6614,2.23179 -4.23748,4.11821 c -2.33064,2.26499 -4.54391,4.59444 -4.9184,5.17652 -1.49029,2.31637 -1.86057,5.77342 -0.98504,9.19668 0.93773,3.66654 1.88267,4.93567 3.83908,5.1562 1.11691,0.12589 1.26799,0.0653 2.22162,-0.8912 0.92284,-0.92562 1.06593,-1.25981 1.4587,-3.40751 0.23951,-1.30969 0.43524,-2.69251 0.43493,-3.07295 0,-0.85588 1.49143,-2.41134 5.68341,-5.92469 2.98545,-2.50216 4.32921,-3.91149 5.35064,-5.61184 l 0.5113,-0.85116 -0.10165,2.30637 c -0.25281,5.73593 -1.38933,9.66592 -4.6855,16.20237 -1.21233,2.40406 -2.39504,5.01351 -2.62824,5.79877 -0.23318,0.78526 -0.60304,3.69988 -0.8219,6.47689 -0.21887,2.77704 -0.62731,6.00165 -0.90766,7.16582 -2.03681,8.458121 -11.99351,29.646484 -23.43639,49.873957 -1.76993,3.1287 -4.66815,8.32604 -6.44046,11.54965 -3.24081,5.8946 -5.24434,9.16585 -12.77708,20.86181 -2.24933,3.4925 -4.91437,7.65969 -5.9223,9.26042 -2.82951,4.49358 -9.31511,12.86362 -16.8112,21.69583 -1.97612,2.32834 -8.15793,9.88881 -13.73736,16.80105 -9.62382,11.92276 -12.54778,15.41867 -18.8101,22.48958 -1.48214,1.67349 -4.09961,4.88817 -5.8166,7.14375 -1.71701,2.25557 -4.62399,5.81149 -6.45999,7.90204 -3.86863,4.40502 -6.47451,7.60444 -9.88295,12.13398 -1.33887,1.77922 -3.71266,4.60486 -5.27511,6.27922 -1.56241,1.67434 -4.2619,4.56383 -5.99884,6.42107 -1.73694,1.85724 -3.83447,4.28905 -4.66116,5.40404 -2.7834,3.75396 -7.12973,13.30428 -7.12973,15.66635 0,1.6669 1.22309,4.93945 3.81831,10.21641 1.35196,2.74904 2.39614,5.25777 2.64649,6.35852 0.22744,0.99994 0.53361,3.9385 0.6804,6.53018 0.41294,7.29046 0.44151,7.45699 1.45283,8.46831 1.31173,1.31172 3.2099,1.21131 4.82052,-0.25496 1.33734,-1.2175 2.2098,-5.73071 2.20573,-11.41039 -0.004,-5.33014 -0.4277,-6.76635 -3.54912,-12.02489 -2.01906,-3.40146 -3.0257,-5.66227 -3.25012,-7.29949 -0.14361,-1.04782 -0.0388,-1.36083 1.08329,-3.23511 0.68326,-1.14131 1.56503,-2.45634 1.95953,-2.9223 l 0.71726,-0.84724 1.84337,2.14362 c 4.80161,5.58372 6.98043,8.70591 8.76793,12.56425 1.04007,2.24496 1.07714,2.47202 0.28535,1.74805 -2.01385,-1.8414 -4.96462,-1.86074 -5.90682,-0.0387 -0.68337,1.32148 -0.4767,4.4206 0.56938,8.53887 2.00869,7.90781 2.66208,16.11802 2.40207,30.18422 -0.18788,10.16471 -0.66775,18.67678 -1.64073,29.10417 -2.50479,26.84349 -3.09102,36.68713 -3.53759,59.39896 -0.36229,18.42569 -0.11287,22.07723 3.01797,44.18542 2.1167,14.94665 3.28676,23.78371 4.50168,33.99896 2.29983,19.33744 5.60305,38.56135 8.72892,50.8 2.63586,10.32012 9.21197,28.80572 12.49582,35.126 1.62748,3.13235 6.25274,9.15194 12.00706,15.62675 4.11853,4.63417 3.88823,4.14324 3.3347,7.10961 -0.25276,1.35446 -0.58283,2.99842 -0.73348,3.65327 -0.94083,4.08947 -1.13826,9.18403 -0.53827,13.89062 0.33142,2.59996 0.5311,3.24908 1.87177,6.08542 1.89159,4.00179 3.9325,7.30337 7.10988,11.5017 l 2.49725,3.29959 -0.59285,2.45915 c -0.84477,3.50422 -3.05131,7.81886 -5.02238,9.82077 -2.69557,2.73775 -6.18977,3.82231 -9.18056,2.84954 z M -5.1916114,633.17677 c -1.06694,-2.31476 -1.3018,-3.93528 -0.70281,-4.84944 0.82289,-1.2559 4.3352,-2.83411 8.00085,-3.59508 0.8404,-0.17447 1.83284,-0.53594 2.20543,-0.80327 0.37258,-0.26731 2.04664,-0.9842 3.72013,-1.59303 9.5891104,-3.48875 23.1107204,-10.53928 29.3437004,-15.30059 1.44634,-1.10488 6.91946,-5.25571 12.16247,-9.22412 16.0429,-12.14276 21.10883,-16.39533 28.4848,-23.91132 6.59374,-6.71894 11.33023,-12.70892 17.64858,-22.31925 5.055741,-7.68985 8.100591,-12.94511 13.156521,-22.70744 l 2.71634,-5.24494 -0.16682,-11.95298 c -0.0918,-6.57413 -0.22212,-13.50079 -0.28966,-15.39256 l -0.12282,-3.43958 0.40187,1.5875 c 0.63667,2.51505 2.4365,12.26958 3.14722,17.05719 1.36808,9.21575 1.7897,15.14821 2.39795,33.74281 0.22373,6.83948 0.52617,13.49767 0.67209,14.79601 0.29255,2.60281 0.97086,4.45172 1.79507,4.89283 0.94226,0.50427 2.36759,0.3229 3.81658,-0.4857 0.76179,-0.42508 1.92085,-0.91146 2.5757,-1.08087 0.65484,-0.16939 1.81025,-0.64061 2.56757,-1.04717 l 1.37694,-0.73919 0.27414,1.35704 c 2.19368,10.85999 3.71083,28.57471 3.71707,43.40165 l 0.003,4.20917 -1.61123,2.48722 c -2.6483,4.0881 -4.35854,8.03889 -4.86797,11.24529 l -0.15637,0.9842 -1.37855,-0.53946 c -3.2208,-1.26029 -8.75594,-3.73843 -16.06296,-7.1915 -22.177411,-10.48039 -21.774071,-10.359 -34.395841,-10.35095 -9.97606,0.006 -15.27278,0.58528 -22.75416,2.487 -7.09684,1.80398 -11.72988,3.66099 -23.9448,9.59752 -15.18516,7.38008 -18.8387104,8.94578 -23.3051504,9.9872 -3.24042,0.75557 -6.6413,2.56202 -8.27571,4.39576 l -1.27603,1.43169 -0.87192,-1.89164 z M 352.38247,615.38375 c -5.86705,-2.99561 -19.18753,-10.18386 -20.0773,-10.83447 -0.43809,-0.32033 -0.0862,-0.69726 3.97989,-4.26273 4.92527,-4.3189 9.42478,-7.46924 13.45631,-9.42147 1.45521,-0.70469 7.11068,-2.9482 12.56771,-4.9856 5.45703,-2.03739 12.42219,-4.73135 15.47813,-5.98656 8.71569,-3.57995 8.88058,-3.64485 8.9875,-3.53793 0.0556,0.0556 -0.0309,0.59597 -0.19233,1.20075 -1.02772,3.85043 3.72335,7.29428 13.43893,9.74125 1.9231,0.48435 3.88996,1.08408 4.37081,1.33273 l 0.87429,0.45212 -3.06348,0.88059 c -5.69542,1.63713 -11.9611,4.37195 -16.11656,7.03445 -1.98163,1.26971 -2.4438,1.71254 -6.1825,5.92386 -1.01864,1.14742 -2.20927,2.47002 -2.64583,2.9391 l -0.79375,0.85286 -3.70417,-1.72506 c -8.49272,-3.95512 -11.92291,-5.23843 -15.17017,-5.67545 -2.65769,-0.35766 -3.92369,-0.0493 -5.04629,1.22929 -0.72073,0.82087 -0.81791,1.12114 -0.81791,2.52679 0,1.48807 0.15764,1.9014 2.34699,6.15384 2.32769,4.52117 4.36091,8.89614 4.20626,9.05081 -0.0443,0.0442 -2.69769,-1.25589 -5.89653,-2.88917 z m -67.5963,-1.20676 -6.4823,-0.16365 -5.02708,-2.01631 c -6.35733,-2.54984 -11.18232,-4.29908 -13.81622,-5.0089 -2.24473,-0.60492 -5.51334,-2.16398 -10.33349,-4.92879 -3.91391,-2.24499 -18.83495,-12.17668 -19.02056,-12.66037 -0.0763,-0.19873 0.31023,-1.10958 0.85887,-2.02417 0.99562,-1.65978 9.74764,-14.72485 14.60865,-21.80793 6.38985,-9.31075 8.65772,-17.153 10.43356,-36.07891 0.23997,-2.55759 0.33525,-9.99572 0.33551,-26.19375 0,-30.42708 -0.2513,-34.67357 -3.84495,-64.85337 -3.34978,-28.13182 -3.62688,-33.17145 -4.52884,-82.3653 l -0.31975,-17.44054 1.30423,-1.14779 c 2.80035,-2.46446 6.05264,-3.33552 10.23644,-2.74161 l 2.27838,0.3234 -1.80911,2.09357 c -2.0337,2.35344 -3.96351,5.85184 -4.65577,8.43997 -0.68278,2.55281 -0.64564,5.93024 0.0804,7.3089 1.82221,3.46017 4.33843,3.37741 12.34331,-0.406 1.87495,-0.88619 3.47541,-1.61123 3.55659,-1.61123 0.45474,0 -1.993,2.09423 -3.92496,3.35812 -2.60739,1.70576 -6.22478,5.27407 -8.8073,8.68783 -3.48363,4.60491 -5.34175,9.53251 -4.69781,12.45833 0.34756,1.57903 1.02609,2.30301 2.59104,2.76452 1.72286,0.50808 2.84073,0.0433 5.30424,-2.20535 1.15231,-1.05183 2.75902,-2.30915 3.57047,-2.79403 3.70954,-2.21676 12.1217,-5.39636 18.10912,-6.84487 2.7492,-0.66511 3.19116,-0.69295 12.74561,-0.80325 15.26659,-0.17622 20.05788,0.37287 33.22942,3.80814 15.63973,4.07901 21.5025,6.37599 42.59791,16.68958 41.99692,20.53235 41.40521,20.27454 56.2932,24.52772 10.37495,2.96389 14.19704,4.30628 18.84847,6.61995 3.93612,1.95789 8.28637,5.08749 10.58275,7.61331 1.94069,2.13466 4.78798,6.42758 7.6323,11.5075 2.41774,4.31802 2.80725,4.92577 6.15167,9.59792 2.71669,3.79521 4.97451,7.5057 4.63589,7.61857 -0.44137,0.14713 -4.77747,-1.41423 -8.36512,-3.0121 -2.6267,-1.16991 -3.81476,-1.55723 -5.02708,-1.63891 -1.43364,-0.0966 -1.64896,-0.0412 -2.22168,0.57166 -0.54218,0.58023 -0.63812,0.95877 -0.66146,2.60996 -0.0246,1.74543 0.0542,2.05838 0.81984,3.2521 1.23351,1.92331 1.59988,2.94865 1.8079,5.0596 l 0.18558,1.88346 -1.87016,1.09223 c -1.02856,0.60071 -2.21715,1.16163 -2.64128,1.24645 -1.01005,0.20201 -2.7274,-0.86357 -3.58741,-2.22594 -0.797,-1.26251 -2.35209,-2.63977 -3.22923,-2.85991 -1.28789,-0.32324 -2.77263,0.0722 -3.72047,0.99089 -1.34445,1.3031 -1.56056,2.47108 -1.04578,5.6523 0.94063,5.81329 1.07761,11.90514 0.27463,12.21327 -0.77935,0.29909 -5.06793,-2.57736 -7.80682,-5.23616 -0.95475,-0.92686 -2.87322,-3.29371 -4.26326,-5.2597 -2.48494,-3.51454 -4.35454,-5.55361 -5.09201,-5.55361 -0.20574,0 -0.41375,-0.0962 -0.46228,-0.21383 -0.18082,-0.43844 -2.5159,-1.85425 -3.5116,-2.12918 -2.20581,-0.60905 -5.63248,0.93667 -10.46721,4.72165 -1.67349,1.31013 -3.11782,2.38246 -3.20961,2.38296 -0.22323,0 -1.91735,-3.47011 -2.58207,-5.29076 -2.09796,-5.74622 -3.43704,-11.70239 -3.70382,-16.47439 -0.21952,-3.92684 -0.41939,-4.31096 -2.22189,-4.27016 -1.30712,0.0296 -2.94603,0.80909 -3.92896,1.86875 -1.26248,1.36102 -1.62803,2.43393 -1.76085,5.16808 -0.38129,7.8496 3.59119,21.07864 7.61762,25.36798 1.27486,1.35811 4.10868,2.89124 5.34479,2.89161 2.87089,0 5.86243,-1.46868 8.96401,-4.40335 2.17749,-2.06032 3.52012,-3.00591 4.26503,-3.00379 0.18915,0 0.75189,0.78999 1.25055,1.75434 3.48128,6.73217 12.19245,14.04552 18.72893,15.72361 2.44636,0.62807 6.82182,0.92636 9.67125,0.65934 l 2.04626,-0.19174 v -5.82695 -5.82694 l 0.72761,0.18306 c 0.88378,0.22236 3.89173,0.21998 4.59626,-0.004 0.45757,-0.14523 0.4948,-0.0584 0.36483,0.85029 -0.0796,0.5566 -0.44622,3.21466 -0.8147,5.9068 -3.62807,26.50609 -6.44168,35.37093 -14.08421,44.37517 -4.04477,4.76547 -11.23228,11.71393 -16.32207,15.77922 -5.37385,4.29221 -8.78229,6.23406 -16.74482,9.5399 -9.17697,3.81003 -11.88961,5.12061 -23.34734,11.2799 -10.72316,5.76443 -14.65233,7.47795 -27.81887,12.13194 -10.49184,3.70859 -15.06188,5.77943 -21.09449,9.55868 -5.89177,3.69102 -9.17824,6.24494 -16.06095,12.48096 -9.27393,8.40253 -17.06779,14.3851 -21.23527,16.30016 -1.43952,0.66151 -1.68286,0.68707 -6.91597,0.72638 -2.98318,0.0225 -8.34099,-0.0329 -11.90625,-0.12287 z M -196.2977,584.56355 c -0.54482,-0.2154 -0.20519,-0.64174 5.64427,-7.08525 4.38633,-4.83179 6.10208,-6.97595 8.86793,-11.08223 3.81499,-5.66386 6.85038,-10.94579 11.40294,-19.84248 l 3.24939,-6.35 -0.12368,1.5875 c -1.02035,13.09661 -2.57508,20.00615 -6.98219,31.03039 -1.28684,3.219 -3.0097,6.71303 -3.51818,7.13504 -0.19914,0.16526 -1.31077,0.42082 -2.47029,0.56788 -1.33951,0.16989 -3.79647,0.85862 -6.73842,1.88888 -2.54661,0.89181 -5.50388,1.79049 -6.57171,1.99705 -2.15019,0.41593 -2.10238,0.41325 -2.76006,0.15322 z M 221.12347,579.938 c -4.04077,-4.74276 -9.21449,-12.07027 -10.91121,-15.45347 -3.80531,-7.58769 -9.1994,-25.31086 -12.07423,-39.67194 -2.84541,-14.214 -8.30477,-50.23104 -11.38296,-75.0965 -2.82792,-22.84392 -2.63183,-20.10122 -2.62932,-36.77709 0,-8.49217 0.14367,-17.35775 0.33359,-20.76979 0.57792,-10.38249 1.10466,-18.65519 1.76887,-27.78125 2.18691,-30.04863 2.21011,-30.54104 2.42747,-51.51872 l 0.17333,-16.72598 1.05592,-1.26568 c 1.43225,-1.71675 2.9458,-5.03452 3.51446,-7.7039 0.41069,-1.92789 0.42911,-2.48582 0.14648,-4.44053 -0.80682,-5.58038 -4.95435,-13.52034 -10.5568,-20.20978 -1.15779,-1.38245 -2.30148,-2.89459 -2.54151,-3.36029 -1.23875,-2.40355 -0.0714,-4.75318 6.28314,-12.647 6.34305,-7.87948 24.89126,-30.1583 27.8338,-33.43199 5.20295,-5.78849 6.07176,-6.82447 8.24167,-9.82738 2.88464,-3.99209 13.71795,-17.47044 23.18001,-28.83959 5.73884,-6.89552 13.28873,-17.22551 22.43162,-30.69167 3.93755,-5.79942 5.85258,-8.93468 8.96929,-14.68437 1.49876,-2.7649 5.00653,-9.07521 7.79502,-14.02292 6.67441,-11.84251 6.40149,-11.33054 12.62195,-23.680207 2.96857,-5.893594 6.22263,-12.713071 7.23122,-15.154382 l 1.83383,-4.438782 1.75048,3.645032 c 3.68639,7.676092 5.94532,9.401043 12.9276,9.87179 5.55839,0.374756 7.88601,-0.164544 9.2365,-2.140056 0.9476,-1.386178 0.68178,-3.54584 -1.15438,-9.378394 -1.48841,-4.72792 -1.49828,-4.780942 -1.35676,-7.299775 0.38016,-6.766031 3.31801,-15.689713 6.86978,-20.866733 l 0.80886,-1.17899 0.24825,0.78211 c 0.38238,1.2046 0.32295,18.922288 -0.0802,23.933179 -0.52874,6.570927 -0.49315,14.003259 0.0773,16.139584 0.98767,3.699113 2.97649,7.022042 6.79927,11.360256 2.05274,2.329498 2.63821,2.7509 3.77716,2.718515 0.89551,-0.0254 4.40269,-2.344606 10.90599,-7.211616 9.11826,-6.824054 13.87803,-11.8949 17.91637,-19.087228 l 1.43894,-2.56278 0.32358,3.139757 c 0.17796,1.726883 0.43633,3.532929 0.57415,4.013438 0.23429,0.816928 0.09,1.140143 -2.22369,4.979247 -1.36083,2.258087 -3.18987,5.236713 -4.06458,6.619161 -0.87469,1.382448 -3.58474,5.966354 -6.02232,10.186459 -4.89233,8.469945 -7.93985,13.205565 -12.08897,18.785415 -1.51492,2.03729 -3.81497,5.19245 -5.11122,7.01146 -3.52769,4.9503 -5.17575,6.90605 -9.25658,10.98484 -5.9196,5.91661 -13.34966,12.25992 -18.09658,15.44973 -3.32038,2.23121 -6.27118,3.88956 -16.04166,9.0155 -13.14558,6.89665 -16.15268,8.82539 -19.75847,12.67301 -4.4418,4.73969 -8.58129,13.98503 -15.46598,34.54255 -6.40149,19.11463 -10.1818,31.36751 -15.84148,51.34583 -1.69021,5.96635 -4.24577,14.41979 -5.67904,18.78542 -2.08961,6.36481 -2.73831,8.72384 -3.27415,11.90625 -0.3675,2.18281 -1.3867,7.1239 -2.26483,10.98021 -4.26204,18.71622 -4.74956,28.79939 -3.71628,76.86146 0.79015,36.75401 1.29024,45.05648 3.96028,65.74896 2.63528,20.42292 3.50729,31.44615 3.95584,50.00625 0.55176,22.83076 -0.83516,41.92767 -3.98045,54.80817 -1.51616,6.20895 -5.91957,14.42464 -12.37855,23.09548 -1.40259,1.88288 -3.62556,4.96986 -4.93993,6.85996 -1.3144,1.89008 -2.50503,3.46628 -2.64584,3.50263 -0.14083,0.0364 -0.98411,-0.78843 -1.87396,-1.83287 z M -166.29742,465.40572 c -1.24906,-6.33328 -3.24594,-19.33244 -3.00321,-19.54998 0.63287,-0.56722 4.39123,-2.88653 4.67747,-2.88653 0.48668,0 3.94799,-2.30322 5.87078,-3.90655 l 1.62292,-1.35326 0.17618,3.09293 c 0.28035,4.92164 0.69662,8.45949 1.21553,10.33086 0.36126,1.30279 0.4108,1.86786 0.19855,2.26444 -0.15555,0.29065 -1.31557,1.61253 -2.57782,2.93754 -1.26225,1.32498 -3.11268,3.5924 -4.11206,5.03875 -0.99937,1.44632 -2.26137,3.26064 -2.80443,4.0318 l -0.98738,1.40216 z M 346.34447,86.156326 c -1.05897,-2.220648 -1.19288,-8.160068 -0.45284,-20.086082 0.13544,-2.182813 0.25337,-7.564994 0.26207,-11.960411 l 0.0159,-7.99166 0.85989,-0.14489 c 0.47295,-0.0797 1.69334,-0.26775 2.71198,-0.41791 4.4131,-0.65047 7.50121,-1.8633 9.18044,-3.6055 1.69915,-1.76287 2.99955,-5.37893 3.65445,-10.16214 0.79449,-5.80263 4.1344,-10.10809 12.45727,-16.05857 1.25037,-0.89395 2.70888,-2.10741 3.24115,-2.69656 1.46089,-1.617048 1.24666,-3.1402582 -0.54708,-3.8897382 -1.67439,-0.69959 -5.42737,0.16311 -9.19523,2.1137302 -3.81426,1.974658 -8.74032,7.474348 -10.99195,12.271958 -1.65608,3.52867 -1.82632,3.94824 -2.76318,6.8114 -0.5217,1.59438 -1.23835,3.39339 -1.59253,3.99775 -0.77229,1.31781 -1.97458,1.89953 -6.23784,3.01803 l -2.9033,0.7617 -0.55941,-1.10484 c -0.85611,-1.69085 -3.12473,-4.88522 -3.98139,-5.60605 -2.60538,-2.19228 -5.64896,-1.00401 -8.81838,3.44287 -7.59055,10.64998 -13.07724,26.281404 -12.0386,34.297538 0.13902,1.0727 0.33137,2.545689 0.42749,3.273293 0.15862,1.200706 0.13605,1.286245 -0.24418,0.926042 -0.821,-0.77777 -2.84639,-4.664023 -3.49258,-6.701473 -1.13147,-3.567563 -1.46857,-6.445039 -1.61716,-13.80374 l -0.13891,-6.87916 1.64645,-2.91042 c 4.7307,-8.36237 5.72394,-12.8301 5.46664,-24.58921 -0.18645,-8.5216782 -0.59632,-10.0504582 -4.14235,-15.4507382 -2.472,-3.76465004 -2.4892,-3.81114004 -2.291,-6.18797 l 0.1727,-2.07076 3.32658,-5.2194098 c 5.97482,-9.37459 8.38877,-12.44296 11.60899,-14.75621 0.87312,-0.62722 2.06375,-1.63103 2.64583,-2.2307 1.01566,-1.04633 1.05833,-1.16007 1.05833,-2.82025 0,-1.55935 -0.0718,-1.79171 -0.72802,-2.35617 -0.89885,-0.77316 -2.2905,-1.17663 -4.06506,-1.17856 -2.64314,-0.003 -6.45906,2.51127 -10.05271,6.62332 -3.42165,3.91519 -9.14691,13.1927 -11.23826,18.2109798 -1.1452,2.74801 -1.79803,5.53759 -2.18313,9.32882996 -0.32874,3.23623004 -0.33607,3.26023004 -0.63656,2.08331004 -0.81624,-3.19702004 -1.25286,-15.3004298 -0.62995,-17.4624998 0.18868,-0.65485 1.41888,-3.50714 2.73378,-6.33841 3.88644,-8.36841 4.1387,-9.20396 5.10696,-16.91641 0.7869,-6.26774 1.2709,-8.74217 2.00869,-10.26908 0.61386,-1.27045 2.75892,-3.34047 5.97649,-5.76744 l 2.21832,-1.67323 2.17284,-0.14967 c 15.02106,-1.03471 18.07342,-1.43161 22.58581,-2.93683 2.91,-0.9707 6.0773,-2.47687 8.81211,-4.19047 3.27242,-2.05049 7.89734,-5.45306 8.65023,-6.36405 1.31281,-1.58845 2.05907,-1.99615 4.63373,-2.53148 3.26401,-0.67865 5.20007,-1.37266 7.18513,-2.5755 1.91103,-1.15801 5.70418,-4.88043 8.98194,-8.81452 4.49041,-5.38956 7.17146,-12.64886 6.73738,-18.242445 -0.26895,-3.46546 -2.40898,-8.22965 -5.41991,-12.0659 -1.9849,-2.52899 -3.89752,-3.18987 -5.2673,-1.82009 -0.6091,0.60909 -0.66717,0.8364 -0.55761,2.18281 0.0755,0.92832 0.73848,3.18712 1.734,5.90809 1.65873,4.53366 2.37623,7.924515 2.04753,9.676565 -0.0909,0.48461 -0.45876,1.78009 -0.81743,2.87885 -0.55798,1.70931 -1.09667,2.56823 -3.73155,5.94958 -1.69367,2.17355 -3.11748,3.91382 -3.16399,3.86731 -0.0465,-0.0465 0.3211,-1.03032 0.81693,-2.18623 1.13382,-2.64324 2.20469,-7.70808 2.52952,-11.96369 0.28681,-3.757615 -0.0241,-8.748345 -0.63617,-10.213315 -0.58253,-1.39423 -1.57442,-2.28196 -2.54973,-2.28196 -1.98255,0 -2.38342,0.90782 -3.29062,7.45189 -1.57703,11.375945 -2.7104,14.832355 -6.96982,21.255415 -2.63543,3.97412 -4.88855,6.30597 -8.01634,8.29651 -0.64061,0.4077 -1.33536,0.94887 -1.5439,1.20264 -0.20855,0.25376 -0.8423,0.69765 -1.40832,0.98644 -0.56603,0.28877 -2.25248,1.35499 -3.74764,2.3694 -1.49519,1.01439 -3.71893,2.26814 -4.94168,2.78609 -3.60423,1.52672 -12.11749,3.0194 -20.33267,3.56507 -3.15698,0.20969 -4.57769,0.4281 -6.09989,0.93785 -6.27893,2.10259 -12.39941,6.24993 -14.79357,10.02445 -1.09016,1.71868 -2.04015,4.77171 -2.3963,7.70117 -1.50186,12.3534 -1.81325,13.67761 -4.56325,19.40428 -1.73334,3.60961 -2.56069,4.58616 -7.0885,8.36684 -5.39433,4.50422 -9.74223,6.52905 -12.52175,5.83142 -1.91014,-0.4794 -3.51224,-3.08385 -4.54081,-7.38177 -0.89424,-3.73655 -1.19147,-7.454 -1.18964,-14.87789 l 0.003,-6.35 3.33173,-3.95833 c 1.83246,-2.17707 5.02735,-5.71087 7.09973,-7.85291 5.09455,-5.26574 5.03214,-5.13019 7.54062,-16.36689 0.43858,-1.96453 1.2065,-5.3173 1.70654,-7.45061 0.50004,-2.13331 1.10553,-5.05034 1.34554,-6.48229 0.34364,-2.05026 0.62156,-2.8847 1.30775,-3.92647 1.34295,-2.0388 4.86876,-5.4019 9.81139,-9.3585 5.19229,-4.15647 7.30845,-6.210915 9.75704,-9.472355 3.26107,-4.34359 4.57623,-8.02193 3.4712,-9.70841 -0.85548,-1.30564 -2.95833,-1.35853 -4.30244,-0.10821 -0.35573,0.33091 -1.87278,2.03038 -3.37122,3.77663 -3.2444,3.78098 -5.10148,5.47418 -11.24312,10.25094 -5.95583,4.632255 -7.51414,6.144505 -9.48587,9.205525 -0.8871,1.37718 -1.89521,2.88644 -2.24025,3.35391 -0.45646,0.61838 -1.11472,2.85287 -2.41626,8.20208 -1.50963,6.20429 -3.54721,13.35289 -4.04561,14.19341 -0.63966,1.07874 -0.80558,-3.75499 -0.1977,-5.75884 0.24853,-0.81923 0.39402,-2.39657 0.39402,-4.27162 0,-5.67544 1.56215,-8.88402 8.68826,-17.84519 4.6324,-5.8253 5.17316,-7.002865 3.83177,-8.344245 -0.63513,-0.63516 -2.99551,-0.40865 -4.91085,0.47122 -5.02663,2.309185 -9.54236,6.951905 -12.58999,12.944085 -1.84703,3.63154 -2.8104,7.11978 -3.64151,13.18519 l -0.34444,2.51354 0.0741,-3.70416 c 0.0695,-3.47274 0.13669,-3.89427 1.07609,-6.74688 1.15409,-3.50443 3.52557,-9.159 5.44732,-12.98853 2.13892,-4.262285 2.41499,-6.324395 1.04228,-7.785555 -2.06283,-2.1958 -4.83582,-1.18284 -7.38725,2.69846 -1.70156,2.588455 -6.68705,12.482335 -8.24167,16.355835 l -1.16808,2.91042 0.038,8.06979 c 0.0339,7.19584 0.32716,12.99006 1.15168,22.75417 0.14131,1.67349 0.25887,4.12559 0.26122,5.44914 l 0.004,2.40641 -2.71198,2.62628 c -6.01241,5.82237 -10.46919,7.42845 -14.06773,5.06955 l -0.87382,-0.57279 1.40952,-1.66151 c 0.7752,-0.91381 1.66455,-2.16146 1.9763,-2.77254 0.31174,-0.61105 1.20645,-2.07272 1.98824,-3.2481 0.78179,-1.17539 1.81065,-3.1491 2.2864,-4.38603 l 0.86495,-2.24896 -0.0204,-5.02708 c -0.0217,-5.34098 -0.33851,-7.57936 -1.43333,-10.12431 -1.5708,-3.65146 -4.12739,-3.84905 -10.92568,-0.84449 -4.36433,1.92883 -9.11209,5.06486 -13.17464,8.70217 l -1.83036,1.63875 v -1.58102 c 0,-3.63977 1.15978,-7.50983 4.6853,-15.63442 4.15075,-9.56548 4.49979,-11.4197 2.99511,-15.9109 -1.59938,-4.77377 -3.65043,-8.01209 -7.93004,-12.520295 -3.18365,-3.35373 -4.11454,-4.86397 -5.10543,-8.28279 -0.52832,-1.82287 -0.59642,-2.63437 -0.58391,-6.95833 0.0132,-4.57951 0.0597,-5.03113 0.72083,-7.01146 0.95372,-2.8566 2.2483,-4.96376 5.10244,-8.30524 2.6285,-3.07726 3.40926,-3.78225 10.04454,-9.06947 11.53573,-9.19205 14.3619,-13.07674 19.2954,-26.52255 0.91244,-2.48681 1.92768,-5.35492 2.25608,-6.37357 0.32837,-1.01865 0.73175,-1.98689 0.8964,-2.15164 1.029,-1.02979 5.95334,-1.82767 14.45454,-2.34204 12.73042,-0.77028 14.58036,-1.09387 15.2369,-2.66518 0.94337,-2.25779 -1.39898,-3.82048 -6.56984,-4.38301 -3.24546,-0.35306 -18.27319,-0.15618 -20.97019,0.27472 -4.14644,0.66252 -6.13656,1.65735 -7.86977,3.93401 -0.54483,0.71565 -2.81699,4.86103 -5.04925,9.21197 -4.09149,7.97473 -5.694,10.95346 -5.8928,10.95346 -0.0907,0 -0.11901,-2.92497 -0.13338,-13.75833 -0.005,-3.49515 2.49169,-9.32646 5.14178,-12.01103 4.83831,-4.90124 10.87163,-7.269 28.75238,-11.28374 6.98894,-1.56921 7.9375,-2.05642 7.9375,-4.07685 0,-2.43438 -1.09315,-2.83377 -7.78677,-2.84499 -5.32826,-0.009 -8.61203,0.30969 -13.10275,1.27132 -12.18311,2.6089 -22.34671,9.31908 -26.40933,17.43591 -2.06134,4.1184 -2.29534,6.20316 -2.68441,23.91619 l -0.24056,10.95164 -0.77901,0.77901 -0.77904,0.77901 -0.18812,-2.33791 c -0.10345,-1.28587 -0.66818,-6.50512 -1.25495,-11.59835 -0.9113,-7.9107 -1.08701,-10.33206 -1.20539,-16.61298 -0.18333,-9.72473 -0.0331,-10.44797 3.17207,-15.26932 4.10543,-6.17561 7.19754,-7.95946 30.35618,-17.51261 13.21972,-5.45325 15.08125,-6.48737 15.08125,-8.37798 0,-2.44192 -2.79758,-3.19402 -8.46299,-2.27525 -12.43979,2.01739 -28.34985,8.7962 -38.7966,16.53005 -3.32158,2.45901 -5.24695,4.42349 -6.83922,6.97818 -4.65949,7.47585 -5.2398,15.68537 -2.50597,35.45104 1.86103,13.45531 2.11026,16.93916 1.45632,20.35707 -0.48218,2.52016 -0.85506,3.23091 -3.98005,7.58701 -3.10306,4.32551 -3.96843,5.77397 -5.2841,8.84433 -2.52473,5.89198 -3.55261,14.03832 -2.41292,19.12353 l 0.48654,2.17098 -3.74676,3.91443 c -5.03865,5.264135 -12.64314,12.464185 -15.24238,14.431765 -1.99925,1.51339 -4.36727,2.83583 -5.08818,2.84154 -0.82642,0.007 -0.91638,-4.28347 -0.19214,-9.16104 0.50133,-3.37632 0.48107,-3.32242 1.46868,-3.9058 2.07282,-1.224475 5.13646,-3.792515 5.83112,-4.887945 0.91998,-1.45063 1.02532,-3.52608 0.26361,-5.19367 -0.56494,-1.23682 -2.43512,-3.03665 -3.96785,-3.81857 -3.65977,-1.86709 -7.85427,-0.87254 -8.39121,1.98959 -0.13748,0.73295 -0.003,1.27328 0.63677,2.56474 0.95081,1.91833 0.96766,1.88097 -1.71471,3.79912 -2.13619,1.52755 -4.96602,2.8176 -10.9388,4.98671 -9.26444,3.364555 -13.63435,5.809465 -18.63823,10.427845 -1.59253,1.46984 -2.97132,2.67245 -3.06401,2.67245 -0.30035,0 -1.82914,-2.29881 -2.37384,-3.5695 -1.20502,-2.81119 -0.38891,-4.14546 5.42295,-8.86626 3.20874,-2.606365 7.53856,-7.063585 8.95541,-9.218965 1.63872,-2.49282 2.11489,-3.90827 1.97331,-5.86555 -0.0976,-1.34993 -0.24368,-1.73659 -0.90604,-2.39898 -0.63542,-0.63539 -1.02711,-0.79441 -2.0054,-0.81404 -0.66866,-0.0135 -1.55549,0.15203 -1.97067,0.36767 -4.06104,2.1091 -4.94568,2.33031 -12.99814,3.25024 -13.60942,1.5548 -18.50271,3.06388 -22.55081,6.95463 -1.07791,1.036 -2.00255,1.84092 -2.05478,1.78872 -0.30249,-0.3025 -1.44663,-4.19746 -1.56987,-5.34419 l -0.14603,-1.35895 2.08442,-1.66426 c 1.14644,-0.91535 6.60881,-4.66177 12.1386,-8.32541 11.20836,-7.42579 13.73378,-9.28089 18.57955,-13.64792 6.44509,-5.80837 10.64215,-11.21809 13.05451,-16.82639 0.51951,-1.20774 0.57298,-1.6647 0.43342,-3.70416 -0.19471,-2.84502 -1.00912,-6.11093 -2.22787,-8.93411 -2.30278,-5.33429 -2.25706,-5.1834 -2.0704,-6.83337 0.26215,-2.31706 0.24813,-2.30164 2.09087,-2.30235 2.89092,0 8.71787,-0.51454 10.68436,-0.94136 2.42432,-0.52618 3.50869,-1.46661 3.50869,-3.04292 0,-2.42189 -2.36646,-3.47411 -8.99583,-3.99992 -2.11006,-0.16735 -3.93121,-0.38539 -4.04699,-0.48453 -0.35362,-0.30274 3.43905,-1.84393 6.94666,-2.82289 9.04759,-2.52511 10.15309,-3.05015 10.15309,-4.82196 0,-2.11492 -2.27478,-2.83514 -8.10529,-2.56619 -8.04929,0.37129 -12.86987,2.0715 -16.11414,5.68346 -1.80258,2.00684 -2.43474,3.53161 -3.79806,9.16049 -1.92133,7.93279 -1.86711,9.48438 0.5471,15.65875 0.65366,1.67172 1.18962,3.41628 1.19105,3.87681 0.003,0.46056 0.28668,1.44751 0.63392,2.19324 l 0.63132,1.35588 -0.51676,1.15422 c -1.81824,4.06117 -9.67422,11.74321 -19.37036,18.94149 -2.01866,1.49866 -3.81868,2.72482 -3.99999,2.72482 -0.18132,0 -2.16109,-0.8835 -4.39947,-1.96332 -2.2384,-1.07984 -6.8449,-3.15703 -10.2367,-4.61602 -9.41819,-4.05125 -11.25731,-5.25161 -12.58755,-8.21582 -1.0594,-2.36059 -1.29659,-4.14533 -1.32655,-9.98037 -0.0249,-4.83672 0.018,-5.37875 0.46244,-5.87122 0.70501,-0.78102 2.48428,-1.31119 5.97556,-1.78059 9.30127,-1.25052 12.35454,-2.57736 11.79484,-5.12561 -0.33761,-1.53723 -1.96662,-2.51619 -5.60303,-3.36714 -2.7232,-0.63728 -10.05263,-0.63797 -13.15519,0 -1.14707,0.2354 -2.17673,0.37166 -2.28812,0.30281 -0.35605,-0.22005 -2.564341,-6.53383 -3.039661,-8.69071 -0.61725,-2.80099 -0.44148,-5.1267 0.53258,-7.04702 0.910541,-1.79512 1.387631,-2.42708 4.981571,-6.59847 5.18229,-6.01496 7.32042,-9.84443 8.28162,-14.83278 0.23365,-1.21256 0.39952,-3.88819 0.42646,-6.87917 0.038,-4.22381 -0.0209,-5.02909 -0.43003,-5.87444 -0.88588,-1.83039 -3.11325,-1.91675 -4.02818,-0.15621 -0.24902,0.47922 -0.89357,2.41909 -1.43234,4.31086 -0.92001,3.23051 -0.98907,3.37526 -1.13581,2.38125 -0.0859,-0.58208 -0.23146,-5.9399 -0.3234,-11.90625 -0.18314,-11.88212 -0.0447,-13.56029 1.30694,-15.83775 0.79393,-1.33784 2.7492,-3.3972 4.67603,-4.92498 l 1.43706,-1.13945 4.84722,0.17293 c 5.33842,0.19044 6.28674,0.01 6.89007,-1.31469 0.93752,-2.05761 -0.25779,-3.93586 -3.40831,-5.35578 -4.60746,-2.07653 -9.28021,-1.81795 -13.62205,0.7538 -3.2667,1.93493 -7.05929,6.19633 -9.063141,10.18342 -1.81893,3.61921 -1.77456,3.19355 -1.77919,17.06562 -0.004,11.52869 -0.0446,12.68357 -0.49255,13.96908 -0.82632,2.37111 -2.74116,4.1257 -9.1494,8.38353 -3.13944,2.08598 -6.67221,4.57137 -7.85058,5.5231 -4.11041,3.31978 -7.34968,7.30277 -8.42211,10.35571 -1.54827,4.40754 -1.63748,4.8899 -2.12887,11.51025 -1.02769,13.84575 -1.10178,20.19218 -0.38618,33.07668 l 0.31617,5.69227 -2.6321,3.96502 c -1.44767,2.18075 -4.64677,7.06062 -7.10914,10.84416 -6.4253,9.87279 -11.16039,16.90455 -13.38548,19.87793 l -1.93498,2.5857 -0.21947,-1.17764 c -0.31629,-1.69714 0.0441,-13.88835 0.51194,-17.31724 1.10585,-8.10525 5.05653,-19.44053 9.68176,-27.7789 3.33595,-6.01403 3.90626,-7.24524 3.9052,-8.43065 -0.003,-2.66584 -2.81159,-4.60643 -5.59927,-3.868 -2.11034,0.55901 -5.56157,4.85563 -8.89175,11.0699 l -1.32781,2.47774 -0.45206,-1.5517 c -0.71181,-2.44329 -2.1475,-8.74286 -2.6605,-11.67384 -0.43838,-2.50478 -0.44037,-2.78503 -0.0318,-4.47707 0.98055,-4.06082 3.57233,-7.87804 10.47724,-15.43102 6.75013,-7.38365 10.25747,-12.03881 12.53813,-16.64137 0.97062,-1.95882 1.10821,-2.45798 1.10821,-4.02101 0,-1.52455 -0.0935,-1.88407 -0.64143,-2.46734 -1.0522,-1.12004 -2.33752,-0.94647 -5.72048,0.77242 -1.5752,0.80037 -2.92923,1.45521 -3.009,1.45521 -0.0797,0 0.49369,-0.55872 1.27431,-1.24158 2.1631,-1.89222 2.72246,-3.75973 1.49405,-4.98817 -0.51131,-0.51128 -0.91935,-0.64823 -1.91823,-0.64383 -2.94338,0.013 -8.57811,2.95269 -12.5671,6.5565 -0.56033,0.50626 -1.05907,0.874 -1.10826,0.8172 -0.0492,-0.0568 -0.43151,-1.59153 -0.84955,-3.41054 -0.5488,-2.38781 -0.76105,-4.00624 -0.76345,-5.82131 l -0.003,-2.51401 2.22379,-4.10057 c 1.22309,-2.25531 3.16873,-5.85986 4.32366,-8.01013 1.84561,-3.43617 2.22528,-3.97354 3.13563,-4.43796 1.6695,-0.85172 4.54949,-3.74862 5.34803,-5.37943 0.89543,-1.82872 1.34927,-4.93202 1.12667,-7.7043 -0.23534,-2.93113 -0.58893,-4.06323 -1.57797,-5.05227 -0.74012,-0.74012 -0.80592,-0.91241 -0.50546,-1.32331 0.75983,-1.03915 0.26186,-3.21842 -0.87442,-3.82651 -0.74782,-0.40024 -0.76621,-0.54528 -0.20627,-1.62809 1.0723,-2.07364 1.46161,-3.76809 1.4519,-6.31952 -0.01,-2.462 0.0111,-2.55037 0.67175,-2.90396 0.99457,-0.53229 3.12777,-2.9569 3.77156,-4.28675 0.30622,-0.63262 0.69442,-2.12339 0.86264,-3.31288 0.51179,-3.61905 -0.43905,-8.39419 -1.94315,-9.75857 -0.29218,-0.26503 -1.01753,-0.72001 -1.61195,-1.01105 -0.59438,-0.29104 -1.20348,-0.73208 -1.35353,-0.9801 -0.62672,-1.03584 1.1973,-6.30775 3.44377,-9.95339 1.82885,-2.96796 5.99048,-6.98391 11.65685,-11.24884 5.77109,-4.34377 6.96587,-5.57945 6.96587,-7.20447 0,-2.05502 -1.56316,-2.68105 -4.50958,-1.80607 -3.86694,1.14837 -9.87409,4.73972 -14.01125,8.37652 -6.07764,5.34265 -10.34809,12.20566 -11.37346,18.27824 -0.15118,0.89522 -0.34713,2.04441 -0.43548,2.55373 l -0.16063,0.92604 -0.39227,-1.05833 c -0.54911,-1.48151 -0.73546,-6.87356 -0.35256,-10.20225 0.34121,-2.9663 1.093,-5.53202 2.53622,-8.65566 0.99007,-2.14289 2.13572,-3.83083 5.66182,-8.34187 2.69568,-3.44863 3.19344,-4.31781 3.19344,-5.57622 0,-2.30119 -2.83395,-2.65163 -6.39162,-0.79037 -3.41775,1.78806 -8.02613,6.95966 -10.36277,11.62932 -1.69246,3.38232 -1.81161,4.11207 -2.04777,12.54434 -0.12023,4.29287 -0.22516,7.97716 -0.23321,8.18735 -0.0423,1.10588 -3.12684,-4.47405 -3.82518,-6.91984 -0.23723,-0.83081 -0.66985,-3.093 -0.96137,-5.02708 -1.12829,-7.48541 -1.7032,-9.72219 -3.34656,-13.02007 -1.053,-2.11314 -2.048,-3.76404 -6.88002,-11.41518 l -1.34732,-2.13336 1.14053,-1.37343 c 0.62729,-0.75538 1.38675,-1.77183 1.68769,-2.25875 0.9302,-1.5051 2.38923,-5.90772 2.80273,-8.45727 0.45137,-2.78302 0.51898,-7.53255 0.1273,-8.94265 -0.67912,-2.44486 -2.6123,-4.07723 -6.287,-5.30873 -2.56309,-0.85897 -2.59126,-0.86207 -7.86397,-0.8599 -4.2508704,0.003 -5.6559504,0.0967 -7.1437504,0.48257 -1.87587,0.48655 -5.70908003,2.19829 -7.70683,3.44152 l -1.09225,0.67971 -0.14865,-0.74324 c -0.27167,-1.35837 -1.06003,-8.51106 -0.95004,-8.61965 0.24822,-0.24505 18.8567704,-10.38129 21.4296404,-11.67294 3.39849,-1.70608 7.88897,-3.64119 9.69228,-4.17671 l 1.32796,-0.39436 0.56646,1.00788 c 0.31155,0.55435 1.11353,1.75101 1.78216,2.6593 l 1.21571,1.65139 -0.32303,2.99866 c -0.40124,3.72501 -0.20939,5.21973 0.79952,6.22863 1.94196,1.94197 5.23549,-0.0723 6.62699,-4.05294 0.31877,-0.91183 0.41905,-0.97731 1.75194,-1.14387 2.61435,-0.32663 3.50927,-1.65436 4.05902,-6.02194 l 0.3233,-2.56837 1.43335,-0.53628 c 0.78835,-0.29496 1.57771,-0.53774 1.75416,-0.53951 0.68167,-0.007 4.4531,-1.82674 5.73358,-2.76667 2.41551,-1.77316 3.46977,-3.9107 3.51345,-7.12356 0.0236,-1.74046 -0.61386,-3.39254 -1.79774,-4.65863 l -0.61849,-0.66146 4.15335,-0.007 c 4.53933,-0.008 6.7809,-0.44551 9.76183,-1.90511 2.53437,-1.24098 5.53572,-4.99891 6.87195,-8.60422 l 0.45627,-1.23111 0.62288,2.16972 c 1.694,5.9006 3.19855,7.54948 10.29491,11.28241 2.14083,1.12615 2.65888,1.64288 3.00072,2.99307 0.80484,3.17897 2.35024,5.03481 5.03357,6.04465 1.65594,0.6232 3.7002,2.2552 3.69535,2.9501 0,0.1819 -0.74543,0.80174 -1.65364,1.37745 -3.53378,2.23988 -6.36437,5.94307 -7.49171,9.8012 -1.7296,5.9192 1.85801,14.40265 8.18412,19.3525 3.506051,2.74328 6.229111,3.93554 10.730551,4.69831 1.37004,0.23214 2.54643,0.47757 2.61424,0.54539 0.18778,0.18777 0.82788,4.6319 0.83852,5.82173 0.005,0.57705 -0.40278,2.24393 -0.90654,3.70416 -3.4879,10.11024 -3.89761,15.07012 -1.52826,18.5016 1.51191,2.18967 6.28295,5.35612 8.76387,5.81642 1.25193,0.23228 2.81247,-0.24982 3.45572,-1.0676 0.70827,-0.9004 0.70782,-2.52912 0,-4.63396 -0.29953,-0.88916 -0.44836,-1.70183 -0.33073,-1.80594 0.11761,-0.10411 1.16637,-0.57751 2.33053,-1.05201 8.02757,-3.27186 11.26739,-5.90921 12.82669,-10.44139 1.29984,-3.77803 0.98036,-6.52772 -1.29572,-11.15147 -0.87133,-1.77003 -1.81602,-4.16981 -2.11601,-5.37506 -0.74922,-3.0103 -1.43343,-4.44757 -2.37439,-4.98761 l -0.78994,-0.45336 0.49019,-0.79836 c 0.26961,-0.4391 0.75666,-1.57226 1.08233,-2.51814 1.14903,-3.33722 0.96602,-15.22442 -0.31903,-20.72222 -0.37452,-1.60229 -1.04937,-3.30216 -2.15334,-5.42396 -4.38042,-8.41891 -4.55904,-8.92437 -4.55144,-12.87987 0.005,-2.81921 0.0413,-2.99746 1.14691,-5.68854 1.78332,-4.34075 1.98438,-9.08328 0.48136,-11.35451 l -0.64715,-0.97788 2.94625,-1.27608 c 6.37304,-2.76032 5.87102,-2.60678 6.84477,-2.09323 0.68921,0.36349 1.46695,0.44583 3.84535,0.40707 3.71234,-0.0605 5.54005,-0.43524 11.99634,-2.45968 5.78826,-1.81496 7.76737,-2.70608 9.97246,-4.49029 l 1.53154,-1.23923 0.58362,0.89029 c 0.32096,0.48964 0.58359,0.99666 0.58359,1.12668 0,0.12999 -0.93136,1.36329 -2.06968,2.74063 -5.4017,6.53598 -6.86265,8.87368 -8.17041,13.07378 -0.6499,2.08722 -0.72874,2.73801 -0.71686,5.91704 0.009,2.49285 0.15015,4.08746 0.46619,5.27862 1.08636,4.09443 4.99653,10.16545 8.99062,13.95907 2.75088,2.61282 3.76561,3.09126 8.01027,3.77688 1.87242,0.30244 1.8865,0.31101 3.537,2.15447 l 1.65708,1.85084 -0.81388,1.01275 c -4.32726,5.38469 -6.65422,16.53661 -4.85206,23.2533 0.32551,1.21314 0.96155,2.93812 1.4134,3.83328 1.02561,2.03169 3.70853,4.73123 6.10359,6.14138 0.97973,0.57682 1.7834,1.13006 1.78594,1.22939 0.003,0.0993 -0.22767,0.25434 -0.51162,0.34446 -0.28393,0.0901 -1.42984,0.76025 -2.54643,1.48918 -5.69979,3.72083 -9.25521,9.22613 -9.79329,15.16406 -0.23688,2.61414 0.20611,4.91612 1.62576,8.44797 0.64683,1.60916 1.17605,3.17605 1.17605,3.48196 0,0.80915 -1.50752,3.18588 -3.93465,6.20332 -3.0253,3.76108 -4.66177,6.27713 -6.27033,9.64054 -2.21954,4.6409 -3.25115,9.86351 -2.74484,13.89584 0.30517,2.43038 0.95689,3.892 2.23631,5.01531 0.98049,0.86088 1.07317,0.88654 2.62382,0.72657 0.88405,-0.0912 1.90426,-0.19515 2.26711,-0.23095 0.63492,-0.0627 0.6672,0.009 0.85873,1.91373 0.37396,3.71798 1.31963,5.88309 3.09105,7.07684 1.62546,1.0954 3.68696,0.58613 5.00769,-1.23712 0.43256,-0.59711 1.23888,-2.1541 1.79183,-3.45993 0.55296,-1.30585 1.06963,-2.37373 1.14816,-2.37307 0.0786,0 0.79156,1.28058 1.58446,2.84427 1.84647,3.64144 3.27419,5.21764 5.07611,5.60409 2.14315,0.45963 3.2503,0.13732 4.94408,-1.43923 l 1.48201,-1.37946 0.73443,1.01383 c 0.96579,1.33321 2.47534,2.08656 4.18111,2.08656 1.72693,0 2.93754,-0.62582 4.71069,-2.4352 2.8315,-2.88933 4.13399,-5.54492 4.80645,-9.79977 0.44588,-2.82109 0.64913,-3.11086 2.18213,-3.11086 3.2004,0 5.00639,-1.14017 5.98776,-3.78024 0.7091,-1.90759 0.71649,-3.09554 0.033,-5.30836 -1.07741,-3.48829 -4.55224,-7.61114 -9.12109,-10.82212 -1.88249,-1.323 -2.3989,-1.82491 -2.4655,-2.39623 -0.0771,-0.66111 0.0694,-0.79195 1.7198,-1.53601 7.39383,-3.3334 10.29335,-5.09362 12.55905,-7.62428 3.25329,-3.63371 4.80478,-9.22407 4.19058,-15.09943 -0.15973,-1.52797 -0.3588,-4.21982 -0.44238,-5.98186 -0.14709,-3.1006 -0.12433,-3.288 0.70712,-5.82083 0.47252,-1.43942 1.21447,-3.18225 1.64881,-3.87298 0.43431,-0.69072 2.53367,-2.9337 4.66526,-4.98437 7.59442,-7.30621 8.71916,-9.05503 9.99006,-15.53306 0.0655,-0.33366 0.26429,-0.65259 0.44185,-0.70876 0.17757,-0.0562 1.87066,-0.51658 3.76243,-1.02312 4.87918,-1.30643 6.05036,-1.79911 9.99342,-4.20407 1.92519,-1.1742 3.98391,-2.41253 4.57497,-2.75185 l 1.07463,-0.61696 3.1587,2.77133 c 5.51386,4.83764 8.80544,6.74319 11.64794,6.74319 1.46687,0 2.67033,-0.59039 5.93055,-2.90941 3.76553,-2.67845 4.91234,-3.15825 8.81656,-3.68861 3.89048,-0.52848 3.58137,-0.6487 7.58761,2.95095 10.98883,9.87365 19.49852,16.23415 31.08854,23.23693 5.36959,3.24435 8.12054,5.07817 11.56282,7.70797 2.88431,2.20351 7.66093,6.35098 7.49988,6.51206 -0.0579,0.0579 -2.34667,-0.67471 -5.08608,-1.62803 -9.38218,-3.26507 -12.80512,-4.08022 -18.12695,-4.31681 -3.2965,-0.14655 -3.78828,-0.10726 -5.48473,0.43823 -1.02495,0.32956 -3.1459,1.37559 -4.71321,2.32452 -1.56731,0.94893 -3.53743,2.14119 -4.37804,2.64951 l -1.52836,0.92417 -2.23293,-1.50122 c -3.44022,-2.31289 -4.35292,-2.6529 -7.14573,-2.66216 -2.198,-0.007 -2.53397,0.0654 -4.36563,0.94416 -1.0914,0.52364 -2.60945,1.51694 -3.37343,2.20734 -1.23003,1.11154 -1.38907,1.3751 -1.38907,2.30185 0,0.91131 0.10216,1.08956 0.79026,1.37888 0.53255,0.22391 1.28757,0.27019 2.31511,0.14184 3.42193,-0.42735 4.2646,-0.30922 8.70907,1.22084 3.91965,1.3494 4.42138,1.45939 6.85681,1.50286 3.05753,0.0546 4.07353,-0.28337 8.8155,-2.93222 1.54442,-0.86272 3.2843,-1.69722 3.86638,-1.85444 3.24588,-0.87667 7.55676,0.18579 18.88903,4.6554 9.17109,3.61723 12.4986,5.51093 14.31022,8.14403 0.73914,1.07432 0.86435,1.55007 1.20338,4.57261 l 0.37838,3.37355 -1.0506,2.11666 c -1.72773,3.48089 -2.7096,8.23032 -3.54775,17.16067 -0.20294,2.16233 -0.47548,4.03799 -0.60563,4.16814 -0.13015,0.13015 -0.93051,0.41735 -1.77858,0.63825 -2.03327,0.52959 -4.26977,1.52519 -10.33595,4.60113 -3.0816,1.56258 -6.22263,2.93542 -8.11639,3.54738 -3.27257,1.05756 -4.22055,1.61136 -4.85349,2.83527 -1.20028,2.32114 0.79553,4.80923 5.82613,7.26319 5.25518,2.56352 8.2854,2.59431 14.00543,0.14242 l 1.24248,-0.53258 -0.17455,0.59328 c -0.45624,1.55083 -3.09623,5.78659 -5.43448,8.7195 -3.82464,4.79727 -3.82046,4.78655 -3.80638,9.73315 0.0159,5.56231 0.91702,9.92166 3.09036,14.94896 1.95424,4.52046 5.76569,9.79299 9.97342,13.79662 3.13457,2.98251 5.07444,5.37355 6.40868,7.89921 2.57982,4.88349 5.12609,7.52488 9.23983,9.58501 5.60592,2.80739 9.45335,3.19429 17.57813,1.7676 3.47869,-0.61084 3.1393,-1.23055 2.87506,5.24999 -0.31935,7.83278 -0.26855,9.14358 0.40574,10.46528 0.65995,1.2936 2.08693,2.78284 3.23575,3.37693 2.12281,1.09773 2.8952,1.21595 7.77095,1.18928 5.24936,-0.0287 6.65025,-0.23686 7.34218,-1.09096 0.72748,-0.89797 0.59214,-2.95471 -0.3379,-5.13551 -0.94771,-2.22229 -0.9839,-3.3764 -0.25741,-8.2097 0.63791,-4.24392 0.68144,-8.99973 0.1061,-11.58944 -0.55719,-2.50791 -2.22769,-6.0162 -5.18668,-10.89269 -1.32697,-2.18691 -2.46295,-4.03574 -2.52442,-4.1085 -0.0614,-0.0728 -4.75191,-0.1955 -10.42326,-0.27273 -11.49244,-0.15656 -10.80008,-0.0238 -10.80727,-2.07034 -0.006,-1.79604 0.70257,-4.16573 2.10891,-7.04964 1.23174,-2.52589 1.52191,-2.88613 6.40165,-7.94715 5.84157,-6.05857 7.9098,-8.33726 12.11863,-13.35181 1.64888,-1.96453 3.16873,-3.77187 3.3774,-4.01632 0.32385,-0.37936 0.33653,-1.25137 0.0866,-5.95312 -0.43666,-8.21309 -1.39432,-12.07792 -3.45387,-13.9386 -0.54409,-0.49154 -1.13231,-0.94141 -1.30714,-0.99967 -0.21543,-0.0718 -0.0119,-0.75044 0.63145,-2.10508 0.5534,-1.16533 1.93961,-5.50098 3.32359,-10.39522 1.30585,-4.61785 2.77852,-9.60948 3.27266,-11.09247 1.05407,-3.16354 1.82578,-8.29656 1.85724,-12.35368 0.0209,-2.69426 -0.006,-2.82655 -0.88614,-4.38217 l -0.90771,-1.60401 0.88993,-1.55543 0.88992,-1.55543 0.72777,3.42405 c 1.30212,6.12645 2.85221,10.71661 5.08767,15.06569 1.98033,3.85273 3.81519,5.22328 5.69288,4.25228 1.39409,-0.72094 1.75885,-1.7517 1.73876,-4.91373 -0.0169,-2.67095 -0.0715,-2.92614 -1.41234,-6.61459 -3.26123,-8.97072 -3.99397,-12.12747 -3.99397,-17.20628 0,-5.65348 0.87802,-9.0266 3.60879,-13.86395 0.82288,-1.4577 1.28132,-2.63859 1.44512,-3.72248 0.13195,-0.87312 0.35566,-2.06375 0.4971,-2.64583 0.14148,-0.58208 0.26186,-2.1299 0.26758,-3.43958 0.006,-1.30969 0.10231,-2.52598 0.21471,-2.70286 0.15883,-0.24995 0.52633,-0.23553 1.64959,0.0647 0.79489,0.21246 3.35024,0.74035 5.67857,1.1731 4.81812,0.89551 6.64131,1.40341 7.42887,2.06944 0.60428,0.51105 2.22842,2.6733 2.22842,2.96672 0,0.10142 -1.36191,0.25739 -3.02646,0.34661 -6.26525,0.33575 -8.19068,1.03306 -8.92093,3.23075 -0.76319,2.29682 -1.09442,9.43046 -0.94607,20.37556 0.18121,13.36783 0.44455,14.60413 3.42897,16.09635 1.23966,0.61984 1.86674,0.76015 3.44279,0.77028 3.47506,0.0225 8.12863,-1.95921 10.4303,-4.44148 1.02311,-1.10339 1.19565,-1.18771 2.43009,-1.18771 1.65936,0 3.87808,0.46365 9.65602,2.01784 7.52882,2.02517 10.6027,1.87402 13.10563,-0.64437 1.6528,-1.66298 2.86692,-4.2564 5.08291,-10.85717 l 1.83478,-5.46526 -0.12134,4.23333 c -0.29482,10.28565 -3.27387,20.89174 -7.22844,25.7348 -1.11816,1.36938 -3.64572,3.11251 -5.06828,3.49534 -0.52192,0.14046 -2.43721,0.38486 -4.25622,0.54313 -4.3747,0.38063 -5.83808,0.81182 -7.28662,2.14702 -2.47666,2.28293 -3.13542,6.19799 -4.24492,25.2282 l -0.44726,7.67141 5.12951,5.00256 c 10.66382,10.3999 16.14844,14.18275 20.56307,14.18275 1.38213,0 1.8933,-0.17462 4.57068,-1.56128 5.12939,-2.65665 10.68464,-4.25955 14.76256,-4.25955 2.62548,0 3.14465,0.38788 4.08014,3.04829 1.05888,3.01143 2.10417,8.32879 1.63726,8.32879 -0.0711,0 -1.02679,-0.24622 -2.12365,-0.54713 -3.82481,-1.04931 -9.63715,-1.1027 -11.16359,-0.10255 -1.17578,0.77041 -2.4633,2.96153 -7.37801,12.55593 -2.72079,5.31151 -5.38118,10.4312 -5.91198,11.37709 l -0.96507,1.71979 -1.44386,0.18952 c -0.79415,0.10422 -3.9442,0.37359 -7.00013,0.59859 -6.72259,0.49496 -10.35291,0.9988 -13.43652,1.86484 -4.04942,1.13726 -5.97353,2.49161 -7.25924,5.10979 -0.63932,1.30186 -0.73531,1.80904 -0.73417,3.87892 0,2.13135 0.0907,2.5704 0.85368,4.18362 2.11759,4.47776 7.69297,8.46887 15.45669,11.06464 5.55559,1.85748 10.5205,2.66898 18.94359,3.09623 5.68716,0.28848 5.65761,0.25787 6.80698,7.05551 0.70472,4.16785 1.51141,10.22496 1.37936,10.35701 -0.0478,0.0478 -1.26349,-0.56319 -2.70153,-1.35771 -2.94325,-1.6262 -4.67355,-2.11513 -6.8475,-1.93484 -2.65671,0.22032 -4.68799,2.26661 -5.59424,5.63555 -0.56502,2.10042 -0.572,10.33086 -0.0127,15.08125 0.62008,5.26753 1.16795,7.09919 3.5415,11.8401 0.0546,0.10914 -0.18492,0.19844 -0.53237,0.19844 -0.80825,0 -2.78699,1.25174 -3.70689,2.345 -0.8554,1.01656 -1.28979,2.4421 -1.08879,3.57288 0.081,0.45596 0.66397,1.90056 1.29543,3.21024 3.06329,6.35373 8.29365,10.16315 17.44932,12.708895 4.9734,1.38285 4.71366,1.10289 2.61043,2.81369 -3.23831,2.63411 -3.54623,2.73391 -8.43126,2.73222 -4.59647,-0.003 -5.64057,-0.17648 -10.9015,-1.82594 -5.41964,-1.69924 -7.29924,-1.76221 -9.2053,-0.3084 -2.042,1.55752 -2.62213,2.89004 -5.19181,11.92538 -2.85544,10.04011 -2.97156,10.57333 -2.9672,13.62604 0.005,3.44815 0.24183,4.10728 2.85248,7.93512 2.54264,3.72814 3.9171,6.46493 5.18326,10.32087 1.24756,3.79925 1.61819,6.29247 1.28905,8.67153 -0.64344,4.65071 -3.09711,12.42401 -5.44615,17.2535 l -1.47781,3.03832 -0.92117,-1.05394 c -2.87557,-3.29012 -11.25577,-15.09083 -15.21899,-21.43085 -3.18225,-5.09072 -4.39857,-7.71123 -5.01269,-10.79969 -0.57685,-2.90105 -1.11316,-4.19827 -2.12657,-5.14379 -1.42726,-1.33165 -3.58028,-1.2329 -4.80306,0.22029 -0.8709,1.035 -1.06439,2.18335 -0.86249,5.119 0.36206,5.26431 2.30138,10.82773 5.72318,16.4183 2.63229,4.30064 3.42125,6.54897 4.2454,12.0982 0.30938,2.08315 0.96591,6.0497 1.45896,8.8146 0.49306,2.76489 1.02029,6.18493 1.17163,7.60005 0.34954,3.2687198 0.72348,12.9135498 0.94314,24.326528 l 0.17142,8.90784 -2.12754,4.4006 c -5.9245,12.25423 -8.38489,15.06138 -22.3887,25.54396 -3.1397,2.35024 -5.91005,4.580652 -6.15627,4.956439 -0.541,0.825686 -2.46031,8.966121 -4.44127,18.836958 -0.80132,3.992933 -1.50908,7.311973 -1.57279,7.375684 -0.14325,0.143246 -2.31047,-1.670314 -3.62982,-3.037469 -1.40163,-1.452431 -1.83711,-2.716504 -2.03589,-5.909549 -0.24252,-3.895778 -0.0488,-4.896511 1.81795,-9.392708 1.99253,-4.799066 2.81938,-7.904719 3.19358,-11.994935 0.42323,-4.62598 1.68939,-8.47453 3.44657,-10.47584 0.48828,-0.55613 2.47607,-2.07415 4.41729,-3.37338 3.98873,-2.6696 5.49307,-4.03752 5.82885,-5.30032 0.28959,-1.08908 -0.0322,-2.3164 -0.76578,-2.92063 -1.44981,-1.1942 -7.38111,0.0251 -12.21208,2.51023 -2.78352,1.43196 -4.32216,3.15934 -6.16622,6.92267 -1.61155,3.28877 -2.05275,5.04592 -2.47947,9.8752 -0.17195,1.94596 -0.49662,3.79066 -0.81491,4.63021 -0.83288,2.196835 -0.82839,2.194189 -2.05738,1.20909 l -1.0878,-0.87188 -0.0138,-6.93954 -0.0138,-6.93955 3.09803,-4.9667 c 5.52048,-8.85034 6.03369,-10.22051 4.16248,-11.11282 -1.20113,-0.57277 -2.80956,-0.0999 -5.27984,1.55234 -4.63402,3.09943 -9.00033,9.16466 -10.40744,14.45696 -0.64783,2.4366 -0.9829,5.51447 -1.37456,12.62639 -0.33274,6.041527 -0.76058,8.885348 -1.72043,11.435429 -1.39322,3.701415 -4.82889,9.419696 -7.01794,11.680561 -2.05682,2.124286 -9.5372,7.412593 -12.9707,9.169717 l -1.21557,0.622115 -0.43657,-0.915485 z M 273.23851,-54.182885 c 0.0899,-0.3638 0.16496,-2.20715 0.16695,-4.0963 l 0.004,-3.43488 0.64913,0.95528 c 0.357,0.52541 1.13046,1.3567 1.71876,1.84735 l 1.06965,0.89209 -1.47198,1.85209 c -0.8096,1.01864 -1.6582,2.03067 -1.88576,2.24896 -0.37169,0.35655 -0.39714,0.32967 -0.25038,-0.26459 z M 78.859129,-132.97226 c -0.85231,-0.94179 -1.2931,-2.57323 -1.51207,-5.59644 -0.12187,-1.68243 -0.48869,-5.44023 -0.81518,-8.35065 -0.68525,-6.10836 -0.81357,-16.77188 -0.2675,-22.225 1.07138,-10.69864 2.02631,-16.06582 3.3087,-18.59648 1.42147,-2.80511 3.78116,-4.82303 12.99429,-11.11215 2.61882,-1.78769 5.14845,-3.55913 5.62139,-3.93653 l 0.8599,-0.6862 v 1.16026 c 0,0.99195 -0.17661,1.37112 -1.21737,2.6136 -1.58941,1.89746 -3.25057,4.43958 -4.40791,6.74545 -2.75119,5.4815 -2.51489,8.51493 1.62253,20.82935 l 1.84251,5.48394 -0.89731,4.16303 c -1.92,8.90799 -5.30021,17.4615 -9.16101,23.18163 -2.00806,2.97513 -6.07942,6.79889 -7.23911,6.79889 -0.16724,0 -0.49657,-0.21272 -0.73186,-0.4727 z m -99.7815,-24.79501 c 0.96691,-7.88013 5.30252,-19.35879 9.59383,-25.4 3.1806996,-4.4777 5.8028196,-6.65326 12.7556496,-10.58333 5.82136,-3.29052 7.48802,-4.66228 7.78255,-6.40556 0.25593,-1.51488 -0.31283,-2.66684 -2.06253,-4.17743 -1.31227,-1.13295 -1.50977,-1.43878 -1.7784,-2.75407 -0.47946,-2.34755 -1.28838,-2.96643 -4.48049003,-3.42787 -1.62197,-0.23444 -2.65716997,-0.63068 -5.66836997,-2.16971 -5.4020196,-2.76096 -6.4400096,-2.77069 -10.5159396,-0.0986 -2.87554,1.8851 -4.7439,2.59501 -6.28382,2.3876 -2.70505,-0.36438 -5.72361,-2.4498 -8.44814,-5.8366 -1.65488,-2.05714 -5.50826,-8.25326 -5.27671,-8.48482 0.0718,-0.0718 1.54733,-0.003 3.27895,0.15603 4.40938,0.40134 33.8493196,0.4015 37.2796596,1.8e-4 4.8813504,-0.57102 8.7227004,-1.66992 12.5677104,-3.59518 2.5609,-1.28231 3.16908,-1.84211 4.01663,-3.69724 0.51608,-1.12958 0.61665,-1.85759 0.69846,-5.05566 0.0999,-3.90697 0.062,-4.1539 -1.37759,-8.96395 -0.75679,-2.52865 -1.33146,-5.83015 -1.88824,-10.84792 -0.76958,-6.93557 -1.39455,-9.31955 -2.86819,-10.94086 -0.31099,-0.34216 -1.63701,-1.25746 -2.9467,-2.03399 -3.0972,-1.83636 -6.0396104,-4.22346 -8.9986104,-7.30033 -3.03753,-3.15851 -4.72189003,-5.40617 -5.92232,-7.90294 -0.9503,-1.97655 -0.95398,-1.99798 -0.93257,-5.42396 0.0183,-2.92817 0.12739,-3.79365 0.73371,-5.82083 1.06422997,-3.55815 2.27630997,-5.80023 4.71764,-8.72649 2.15786,-2.58652 12.0292004,-12.84087 12.3537504,-12.83311 0.22725,0.006 6.18435,9.10912 6.9194,10.57431 1.44481,2.87991 2.55168,7.44606 3.17602,13.10195 0.5414,4.90451 1.5775,7.70578 4.40996,11.923 2.29595,3.41842 2.38516,3.64916 2.97685,7.69922 0.87519,5.99048 1.75747,8.25087 4.12142,10.5588 1.95519,1.90887 3.38836,2.53561 6.52465,2.85332 2.07859,0.21056 2.59538,0.34611 2.59223,0.67996 -0.007,0.73811 -0.77915,3.81211 -1.34467,5.35273 -0.50046,1.36337 -0.63381,1.51207 -1.5022,1.67497 -1.41584,0.26562 -3.91935,1.61221 -5.21123,2.80305 -2.25676,2.08021 -2.89314,5.03785 -2.74119,12.74043 0.10483,5.31437 0.14258,5.46161 1.85825,7.2449 l 1.0474,1.08868 -1.64576,3.27694 c -0.90516,1.80229 -2.13891,4.41849 -2.74166,5.81372 l -1.09593,2.5368 -1.01357,-0.35089 c -0.55748,-0.19301 -1.99702,-0.49311 -3.19903,-0.66691 -1.96483,-0.28408 -2.31551,-0.2663 -3.47385,0.17605 -3.57113,1.36385 -6.68068,6.62189 -6.39719,10.81726 0.15439,2.28467 0.7913,3.43336 3.24536,5.85298 3.79069,3.7375 7.21064,4.94749 10.00836,3.54105 0.61267,-0.308 1.31003,-0.73205 1.54966,-0.94234 0.39651,-0.34793 0.5233,-0.11952 1.40875,2.53777 0.53517,1.60608 0.90797,3.02541 0.82846,3.15405 -0.18798,0.30416 -6.84399,5.46928 -12.06563,9.36302 -2.25557,1.68198 -5.54932,4.44127 -7.31943,6.1318 l -3.21838,3.07369 -3.7930704,-0.95059 c -4.73964,-1.1878 -9.99624003,-1.50956 -13.0206,-0.79698 -2.21243,0.52128 -5.54365,2.21366 -7.1630296,3.6391 -2.10492,1.85283 -5.10461,6.84295 -6.39859,10.64432 -0.7194,2.11344 -1.54489,3.56693 -2.87095,5.05511 l -0.94305,1.05833 z m 49.39546,-49.93926 c -0.96407,-0.67394 -1.07189,-1.21671 -0.39891,-2.008 l 0.46302,-0.54443 1.43603,0.58986 c 0.7898,0.32443 1.47283,0.70506 1.51781,0.84585 0.064,0.20013 -1.22733,1.2469 -2.03033,1.64589 -0.0742,0.0369 -0.51859,-0.20127 -0.98762,-0.52917 z m 14.76862,-31.45681 c 0.0233,-2.26383 0.36401,-3.37182 1.36141,-4.42857 0.56158,-0.59502 2.74728,-1.88473 3.19405,-1.88473 0.16857,0 -0.87047,5.70896 -1.17115,6.43485 -0.37825,0.91313 -1.0995,1.40491 -2.41226,1.64481 l -0.99218,0.18132 0.0201,-1.94768 z m -0.62074,-30.91514 c -0.91829,-0.72712 -1.51606,-1.86102 -1.51606,-2.87581 0,-1.11125 0.9476,-1.36194 5.14829,-1.36194 3.98177,0 4.33914,0.1383 4.55716,1.76358 l 0.14533,1.08355 -1.7675,0.87014 c -1.40345,0.69093 -2.18633,0.89389 -3.80092,0.98549 -1.7947,0.10178 -2.11945,0.0472 -2.7663,-0.46501 z M 7.7674086,-378.47737 c -0.21828,-0.0938 -0.55209,-0.3596 -0.7418,-0.59063 -0.37407,-0.45561 -1.9266,-3.52901 -1.83049,-3.62368 0.0323,-0.0318 1.36843,-0.30456 2.96916,-0.60608 4.8727104,-0.91782 8.1385104,-2.95212 10.8342604,-6.74873 0.62969,-0.88686 2.30391,-3.93417 3.72048,-6.77183 5.26524,-10.54729 7.17785,-12.45944 13.88154,-13.87824 1.66995,-0.35345 3.07592,-0.60298 3.12436,-0.55454 0.0485,0.0485 0.79833,2.75011 1.66643,6.00366 2.04806,7.67596 2.74799,9.75456 3.82219,11.35084 l 0.88268,1.31162 -0.9743,0.009 c -2.52145,0.0222 -4.96306,1.46984 -9.83784,5.83229 -1.81901,1.62782 -3.54828,3.11872 -3.84281,3.31314 -0.29454,0.19439 -1.59462,0.66037 -2.88909,1.03547 -1.29447,0.37513 -3.62263,1.20182 -5.17368,1.83708 -4.80759,1.96906 -5.19915,2.04981 -10.45172,2.15562 -2.61937,0.0527 -4.9410904,0.019 -5.1593704,-0.0746 z m 68.9506804,-32.27962 c -0.0919,-0.28953 -1.29942,-1.76641 -2.68338,-3.28192 -3.7584,-4.11559 -3.74213,-4.07924 -4.07471,-9.10092 -0.15404,-2.32585 -0.28009,-6.20512 -0.28009,-8.62055 v -4.39174 l 1.32477,-0.85842 c 1.72416,-1.11723 3.33851,-3.12671 5.18946,-6.45977 0.82248,-1.48103 1.73722,-3.09629 2.03279,-3.58942 l 0.53737,-0.89664 0.50117,2.48073 c 1.11435,5.51587 3.25761,9.42128 8.4632,15.42148 1.24788,1.43835 2.69423,3.33422 3.21411,4.21306 l 0.94525,1.59785 -1.7775,0.71567 c -5.21028,2.0978 -9.4071,5.964 -12.11098,11.1569 -0.88313,1.69603 -1.14904,2.03089 -1.28146,1.61369 z m -48.17199,-7.11523 c -1.26384,-3.02477 -2.73207,-9.0239 -3.65303,-14.9261 -0.45064,-2.88803 -0.55904,-4.79573 -0.56399,-9.9252 -0.005,-5.67421 0.07,-6.81136 0.70942,-10.68486 0.79585,-4.82134 0.7297,-5.39078 -0.70613,-6.07896 -1.7663,-0.84656 -4.37918,1.04746 -6.59466,4.78036 -1.05934,1.78488 -2.29738,5.31312 -2.29738,6.54717 0,0.72263 -0.0635,0.76097 -1.52136,0.91823 -0.83674,0.0903 -5.2718204,0.39971 -9.8557304,0.68766 -15.2810096,0.95985 -20.3879496,1.55834 -22.6527696,2.65472 -2.45052,1.18628 -3.39302,3.00421 -6.02787,11.62672 -0.73428,2.40292 -1.99882,5.06711 -2.48143,5.22798 -0.30546,0.10181 -0.73013,-1.20031 -1.13941,-3.49372 -0.13127,-0.73557 -0.31346,-3.8377 -0.40487,-6.89364 -0.17403,-5.81776 0.10797,-8.81904 1.03664,-11.03278 0.82361,-1.96329 6.02828,-5.0219 10.89992,-6.40554 1.30969,-0.37197 4.52438,-1.19938 7.1437496,-1.83869 5.44411,-1.32871 10.90107,-3.28287 14.99588,-5.37006 5.0778004,-2.58826 5.3470904,-3.18157 6.7277404,-14.82236 l 0.13104,-1.10485 1.64038,-0.14364 c 0.90221,-0.079 4.43835,-0.27017 7.85809,-0.42481 12.96365,-0.58621 17.94518,-1.30977 28.12626,-4.08525 3.46398,-0.94432 6.70843,-1.79393 7.2099,-1.88799 0.85018,-0.15949 0.91175,-0.12438 0.91175,0.51986 0,0.68897 -0.80952,1.74924 -1.33556,1.74924 -0.15248,0 -1.90865,0.18415 -3.90261,0.4092 -6.21635,0.70165 -7.65955,1.34689 -11.03267,4.93255 -1.58827,1.68833 -2.28497,2.71375 -3.44353,5.06814 -0.7988,1.62336 -1.63327,3.66594 -1.85436,4.53906 -0.73903,2.91846 -0.96985,9.22671 -0.84976,23.22399 0.12507,14.57632 0.15624,14.97944 1.76922,22.87966 l 0.71578,3.50573 -1.74107,0.003 c -0.95758,0 -2.92132,0.17944 -4.36385,0.39687 -1.44251,0.21744 -2.72085,0.39532 -2.84071,0.39532 -0.11987,0 -0.39573,-0.42551 -0.61302,-0.94557 z"
       id="path847" />
  </g>
</svg>
