<?xml version="1.0" encoding="UTF-8" standalone="no"?>
<svg
   xmlns:dc="http://purl.org/dc/elements/1.1/"
   xmlns:cc="http://creativecommons.org/ns#"
   xmlns:rdf="http://www.w3.org/1999/02/22-rdf-syntax-ns#"
   xmlns:svg="http://www.w3.org/2000/svg"
   xmlns="http://www.w3.org/2000/svg"
   xmlns:sodipodi="http://sodipodi.sourceforge.net/DTD/sodipodi-0.dtd"
   xmlns:inkscape="http://www.inkscape.org/namespaces/inkscape"
   width="210mm"
   height="297mm"
   viewBox="0 0 210 297"
   version="1.1"
   id="svg845"
   inkscape:version="1.0.1 (3bc2e813f5, 2020-09-07)"
   sodipodi:docname="llama-F_SilkS_hair.svg">
  <defs
     id="defs839" />
  <sodipodi:namedview
     id="base"
     pagecolor="#ffffff"
     bordercolor="#666666"
     borderopacity="1.0"
     inkscape:pageopacity="0.0"
     inkscape:pageshadow="2"
     inkscape:zoom="0.35"
     inkscape:cx="400"
     inkscape:cy="-1154.2857"
     inkscape:document-units="mm"
     inkscape:current-layer="layer1"
     inkscape:document-rotation="0"
     showgrid="false"
     inkscape:window-width="3840"
     inkscape:window-height="2137"
     inkscape:window-x="-8"
     inkscape:window-y="1072"
     inkscape:window-maximized="1" />
  <metadata
     id="metadata842">
    <rdf:RDF>
      <cc:Work
         rdf:about="">
        <dc:format>image/svg+xml</dc:format>
        <dc:type
           rdf:resource="http://purl.org/dc/dcmitype/StillImage" />
        <dc:title></dc:title>
      </cc:Work>
    </rdf:RDF>
  </metadata>
  <g
     inkscape:label="Layer 1"
     inkscape:groupmode="layer"
     id="layer1">
    <path
       style="fill:#000000;stroke-width:0.264583"
       d="m 271.26726,487.92637 c -0.54396,-0.37023 -1.06574,-0.97888 -1.15954,-1.35255 -0.46543,-1.85447 0.65294,-6.07248 1.95543,-7.37495 0.88718,-0.8872 2.84348,-1.93212 2.64798,-1.41438 -0.7111,1.88323 -1.93355,6.96563 -2.26618,9.42163 l -0.1887,1.39337 z m -20.30997,-20.10953 c -4.75655,-0.97189 -7.44583,-2.90287 -9.72916,-6.98584 -2.3169,-4.14301 -3.36857,-9.1965 -3.14298,-15.10261 0.22603,-5.91722 1.37583,-10.6046 3.7901,-15.45095 1.75506,-3.52303 2.47711,-4.46082 6.44877,-8.37578 3.9538,-3.89734 4.41952,-4.6677 3.91861,-6.48182 -0.38322,-1.38795 -1.55651,-2.03986 -3.36677,-1.87063 -4.00828,0.3747 -8.44785,4.42537 -14.82535,13.52669 l -2.67239,3.81376 -0.006,9.07301 -0.006,9.07302 -0.53247,-0.66146 c -1.58567,-1.96975 -4.62008,-6.83289 -5.77813,-9.26042 -1.6328,-3.42273 -2.16593,-5.36744 -2.17728,-7.9421 -0.0119,-2.6915 0.4309,-3.78635 5.75712,-14.2352 3.98047,-7.80875 4.43169,-8.82957 4.52932,-10.2472 0.0973,-1.41306 0.0246,-1.69961 -0.70794,-2.79517 -2.39504,-3.58132 -3.75878,-4.40748 -6.76738,-4.09974 l -1.5875,0.16237 0.92604,-0.56941 c 1.43856,-0.88455 4.05217,-2.07727 4.55244,-2.07751 0.30388,-1.3e-4 0.88562,0.84294 1.77991,2.57948 2.08322,4.04527 4.66852,6.79638 8.48218,9.02618 7.32591,4.28345 13.83093,3.85202 23.20808,-1.53927 3.24356,-1.86483 4.40619,-2.35222 4.6541,-1.95106 0.0751,0.1215 0.3945,2.75696 0.7098,5.85655 l 0.57325,5.63568 -2.33458,2.52378 c -10.35124,11.19032 -17.095,19.15396 -18.74817,22.13954 -0.89611,1.61838 -1.46433,4.60597 -1.63168,8.57904 -0.28109,6.67311 1.14676,10.24477 4.53154,11.33522 2.8634,0.9225 4.80399,2.56969 6.32947,5.3725 l 0.73502,1.35049 -2.5962,-0.0249 c -1.42791,-0.0138 -3.37011,-0.18299 -4.31599,-0.37627 z m -3.175,-65.06885 c -1.72276,-0.48495 -3.01808,-1.07047 -4.85847,-2.19617 l -1.62383,-0.99322 4.36563,-0.16708 c 5.07772,-0.19434 7.42124,-0.70631 10.77328,-2.35353 1.61726,-0.79472 2.46459,-1.41276 3.30729,-2.41228 0.71451,-0.84746 1.71569,-1.63801 2.71068,-2.14032 0.86776,-0.43807 2.02862,-1.08114 2.57969,-1.42904 0.5511,-0.34788 1.00198,-0.58645 1.00198,-0.53017 0,0.48289 -0.93927,2.53843 -1.71162,3.74583 -2.21514,3.46282 -6.47742,6.46909 -11.61889,8.19502 -2.17304,0.72949 -3.13711,0.78447 -4.92574,0.28096 z M 75.578885,395.44317 c -2.2501,-4.12925 -3.70972,-5.54186 -5.7263,-5.54186 -2.00726,0 -3.80196,1.61883 -3.85765,3.47956 -0.0495,1.65426 -0.39526,1.59962 -1.12517,-0.17772 -1.57742,-3.84112 -3.27821,-5.6801 -5.25515,-5.68211 -1.49217,-0.003 -2.23814,0.39375 -4.07874,2.16119 -1.5671,1.50482 -1.69317,1.57557 -1.69317,0.95052 0,-1.37774 0.57308,-6.19728 0.9499,-7.9887 0.36105,-1.71627 2.27735,-6.91938 2.70825,-7.3533 0.1042,-0.10493 0.78224,-0.008 1.50678,0.21532 2.66173,0.82058 5.92598,1.41878 9.92206,1.81832 2.25242,0.22519 4.51202,0.48382 5.02134,0.57473 1.79033,0.31956 6.98974,2.73489 8.54747,3.97063 0.84259,0.66842 1.48863,1.25865 1.43566,1.31162 -0.053,0.053 -0.50435,-0.0206 -1.00307,-0.16375 -2.38098,-0.68287 -4.25958,0.0475 -4.74331,1.84396 -0.15846,0.58843 -0.39698,3.54473 -0.53004,6.5696 -0.13309,3.02488 -0.33692,5.74924 -0.453,6.05412 -0.17885,0.46993 -0.4265,0.15888 -1.62586,-2.04213 z m 164.530485,-5.70643 c -4.00174,-0.66778 -5.32855,-1.71741 -4.92048,-3.89266 l 0.18058,-0.96242 0.98088,0.6486 c 0.53949,0.35671 2.82314,1.49283 5.07479,2.52471 2.25163,1.03187 4.14671,1.92897 4.21127,1.99353 0.25027,0.25027 -3.38926,0.045 -5.52704,-0.31176 z m 12.7926,-6.1699 c -4.39523,-1.17877 -8.88134,-3.56886 -11.67966,-6.22263 -0.97591,-0.92554 -1.70849,-1.74945 -1.62795,-1.83097 0.0805,-0.0815 1.13498,0.51361 2.3432,1.32255 6.40752,4.28984 8.20851,4.8673 15.89889,5.09778 l 5.42396,0.16253 -1.5875,0.92604 c -1.49442,0.87175 -1.74262,0.92975 -4.23333,0.98904 -1.93699,0.0461 -3.15267,-0.0729 -4.53761,-0.44434 z m 1.66384,-11.00066 c -0.85299,-0.21619 -2.30328,-0.75219 -3.22287,-1.19105 -1.69873,-0.81074 -5.3463,-3.50049 -4.93358,-3.63805 0.12428,-0.0414 0.99002,0.11692 1.92389,0.3519 2.63615,0.66326 10.17813,0.82489 12.88617,0.27617 2.60029,-0.52689 5.60885,-1.5182 8.22557,-2.71031 1.07321,-0.48893 2.05547,-0.88895 2.18282,-0.88895 0.34766,0 0.26043,2.6932 -0.10854,3.35121 -0.17674,0.3152 -0.6459,0.82759 -1.04253,1.13864 -1.20764,0.94702 -4.98375,2.57177 -7.08404,3.04805 -2.78278,0.63106 -6.89062,0.75319 -8.82689,0.26239 z M 69.849995,362.78625 c -4.5643,-1.00647 -7.88443,-3.13129 -10.94716,-7.00593 -1.55639,-1.96897 -1.80623,-3.00553 -1.25894,-5.22324 0.94054,-3.81143 3.38158,-6.60027 8.38491,-9.57961 1.81062,-1.07818 3.54303,-2.1844 3.84979,-2.45827 0.54973,-0.49073 0.56422,-0.48808 1.00425,0.18349 0.52607,0.80287 0.70922,0.52697 -3.35666,5.056 -4.50977,5.02346 -5.54773,8.2745 -3.10293,9.71867 1.65764,0.9792 2.53961,0.59362 8.29247,-3.62519 4.65621,-3.4146 6.23726,-4.38713 7.45291,-4.5844 1.28469,-0.20847 1.97588,0.47418 4.78306,4.72395 2.85295,4.31911 4.05519,5.17993 6.06274,4.34112 0.51054,-0.21333 0.92827,-0.28175 0.92827,-0.15206 0,0.12973 -0.56555,0.98452 -1.25677,1.89958 -2.27905,3.01704 -5.96202,5.15115 -11.30472,6.55056 -2.45555,0.64314 -6.98429,0.71696 -9.53122,0.15533 z m 182.562495,-1.96522 c -2.68245,-0.96866 -9.25068,-4.70818 -9.78328,-5.56995 -0.0791,-0.12801 0.30215,-1.81975 0.84727,-3.75947 0.91163,-3.24397 0.9914,-3.80254 0.99481,-6.96634 0.003,-3.09121 -0.0731,-3.66737 -0.75406,-5.68855 -1.10488,-3.27914 -3.21905,-8.28455 -4.52604,-10.71562 -0.6259,-1.16417 -1.9481,-4.02167 -2.93828,-6.35 -2.5108,-5.90399 -8.58219,-17.87816 -11.05268,-21.79836 -1.13602,-1.80263 -3.9968,-6.26748 -6.35731,-9.92188 -2.36048,-3.6544 -4.86634,-7.57732 -5.56858,-8.71762 -3.5534,-5.77017 -15.73495,-18.93568 -21.36695,-23.09286 -6.6679,-4.92183 -16.02841,-9.84644 -25.57984,-13.45769 -5.22102,-1.97398 -13.56953,-4.12938 -27.68589,-7.14782 -10.77802,-2.30463 -13.3617,-2.94413 -15.74271,-3.89652 -1.09141,-0.43657 -4.06797,-1.4767 -6.61459,-2.3114 -4.04828,-1.32694 -7.84883,-2.87933 -8.94717,-3.65459 -0.27549,-0.19444 -0.13904,-0.66852 0.65333,-2.26988 0.55084,-1.11324 1.08673,-2.02409 1.19087,-2.02409 0.10411,0 3.6201,1.26217 7.81333,2.80479 19.64893,7.22863 24.07573,8.39999 31.83339,8.42341 4.08869,0.0124 5.02344,-0.071 7.99256,-0.71231 1.84931,-0.39947 3.87337,-0.72615 4.49792,-0.72594 1.58589,0 4.42122,0.52919 11.32202,2.11114 7.84665,1.79877 15.1978,3.25236 21.04346,4.16105 4.64894,0.72265 5.00059,0.7389 15.99821,0.7389 12.53794,0 13.23803,-0.0723 18.21082,-1.88156 3.52984,-1.28423 8.2875,-2.48407 9.85007,-2.48407 2.67399,0 6.18324,2.06246 8.92035,5.24264 7.14822,8.30541 15.85251,22.79703 20.0129,33.31917 5.15776,13.04467 6.81085,26.95945 5.17872,43.59132 -0.75205,7.66361 -3.36008,20.03301 -5.3974,25.59892 -2.84514,7.77277 -4.17187,10.25543 -7.14123,13.36315 -4.02723,4.21484 -4.70395,4.58652 -6.90402,3.79203 z m 18.38855,-7.782 c 0,-0.10594 0.41304,-1.0128 0.91789,-2.01528 3.65659,-7.26104 6.29142,-16.31614 7.41616,-25.48721 1.18838,-9.69004 1.1864,-29.10559 -0.004,-37.7644 -1.04608,-7.60992 -2.56373,-11.94292 -8.20142,-23.41563 -6.73356,-13.70279 -13.35034,-23.46013 -20.85641,-30.75564 l -3.33246,-3.23898 1.38057,-1.03071 c 0.75933,-0.56689 1.91638,-1.29696 2.57122,-1.62234 2.40689,-1.19595 6.82218,-5.3675 10.43501,-9.85896 1.18406,-1.47204 0.96253,-1.48717 4.80716,0.32843 6.92928,3.27228 12.4219,6.99145 16.78488,11.36539 7.26755,7.28577 11.28122,16.09037 13.35056,29.28641 1.01684,6.48441 1.35188,12.82859 0.97776,18.51451 -0.57986,8.81293 -1.92177,15.56306 -5.71711,28.75838 -2.2501,7.82299 -2.6755,9.72138 -3.47298,15.49816 -0.57099,4.13644 -1.38943,6.52356 -3.50705,10.22916 -0.99634,1.74347 -2.68377,4.77729 -3.74986,6.74182 -3.84731,7.0897 -6.86837,11.80245 -8.72683,13.61358 -0.59026,0.57526 -1.0732,0.95922 -1.0732,0.85331 z M 92.427525,350.86796 c -0.0785,-0.79615 -0.63399,-2.42699 -1.38343,-4.06193 -0.68868,-1.50244 -1.1948,-2.78911 -1.12466,-2.85922 0.0701,-0.0701 0.59722,-0.1905 1.17134,-0.2675 0.99155,-0.133 1.05923,-0.0959 1.35075,0.74036 0.40891,1.173 0.6532,5.98572 0.35454,6.98476 -0.22614,0.75653 -0.24345,0.73136 -0.36854,-0.53647 z m 142.330535,-4.09374 c -0.52692,-0.94588 -1.40216,-2.85088 -1.945,-4.23333 l -0.98698,-2.51354 -3.99431,-3.97497 c -4.35776,-4.33665 -6.19508,-5.68664 -16.2974,-11.97462 -9.22753,-5.74347 -22.69554,-14.43871 -24.93384,-16.0978 -1.20226,-0.89117 -3.32472,-2.67711 -4.71656,-3.96875 -6.15461,-5.71156 -9.68264,-7.51417 -14.68533,-7.50322 -4.13446,0.009 -5.94154,0.65548 -12.35551,4.41981 l -3.3777,1.98234 -1.12022,-0.92114 c -0.61611,-0.50666 -2.01319,-1.72419 -3.1046,-2.70566 -3.75311,-3.37508 -6.58696,-4.88958 -9.54516,-5.10122 -2.54926,-0.1824 -4.59163,0.53732 -9.23954,3.25602 -2.65194,1.55117 -4.1638,2.27226 -5.00851,2.38881 -0.66545,0.0918 -2.45896,0.44831 -3.98555,0.79222 -1.52659,0.34388 -2.84678,0.54078 -2.93375,0.43754 -0.087,-0.10324 -0.4254,-0.9616 -0.75208,-1.90749 -0.93313,-2.70176 -3.42291,-6.82215 -5.91542,-9.78958 -0.42781,-0.50932 -1.80298,-1.97361 -3.05591,-3.25395 -3.55656,-3.63432 -5.69931,-4.82897 -9.190935,-5.12411 -2.17067,-0.18349 -2.10455,-0.0961 -1.69212,-2.2353 0.40998,-2.12633 0.34163,-7.99934 -0.11819,-10.15643 -1.14046,-5.35012 -4.35117,-10.95206 -7.50638,-13.09688 -1.25408,-0.85249 -1.36298,-1.0101 -1.37089,-1.98437 -0.005,-0.58209 0.21069,-1.41791 0.47868,-1.85738 0.26803,-0.43945 2.08328,-2.27798 4.03392,-4.08556 5.00965,-4.6423 8.21037,-7.97841 10.227045,-10.65967 0.95768,-1.27331 1.77694,-2.3151 1.82052,-2.3151 0.0436,0 1.00621,0.56356 2.13915,1.25238 3.3868,2.05912 7.36211,3.48329 13.17242,4.7191 1.16416,0.2476 3.84307,0.97563 5.95312,1.61783 2.11005,0.64219 9.73005,2.64758 16.93333,4.45637 7.20329,1.8088 15.06141,3.89583 17.4625,4.63786 11.53928,3.56608 20.6573,8.23566 27.84428,14.25977 6.8454,5.73781 19.16433,19.56634 21.77732,24.44597 0.40167,0.75012 2.00253,3.32838 3.55746,5.72947 12.43674,19.20462 20.83353,35.46565 23.28212,45.08765 0.53337,2.09592 0.68204,5.65433 0.29393,7.03527 -0.17212,0.61243 -0.25689,0.53401 -1.14391,-1.05834 z m -236.7424452,1.12051 c 0,-0.33972 1.49036996,-2.68832 2.65726996,-4.18748 2.14429004,-2.75476 2.56815004,-4.1602 1.70836004,-5.66428 -0.20796,-0.3638 -0.38235,-0.74768 -0.38751,-0.85309 -0.0183,-0.37161 1.47807,-0.93107 4.41624,-1.65129 l 2.97037,-0.72814 1.1968202,0.70139 c 0.65823,0.38573 1.19679,0.85217 1.19679,1.0365 0,0.5555 -1.8185902,3.40993 -2.8608402,4.49035 -0.5366,0.55624 -1.74953,1.52588 -2.69541,2.1548 -2.16146,1.43711 -8.20209,4.89947 -8.20209,4.70124 z m 86.2541702,-11.93556 -0.92604,-0.19254 1.19062,-0.20439 c 0.65485,-0.11242 2.47817,-0.50541 4.05186,-0.87334 1.57369,-0.36793 2.92142,-0.60875 2.995,-0.53517 0.0736,0.0736 -0.61867,0.50255 -1.53831,0.95327 -1.77774,0.8713 -4.06059,1.20827 -5.77313,0.85217 z m -18.79976,-9.52347 c -1.67716,-1.0827 -2.73611,-2.29534 -3.72679,-4.26773 -0.77634,-1.54569 -0.87444,-2.00101 -0.96893,-4.49791 -0.18034,-4.76589 1.12427,-8.89328 4.00791,-12.68003 0.82275,-1.08042 1.4959,-2.04748 1.4959,-2.14902 0,-0.10158 2.35149,-0.25014 5.22552,-0.33018 7.02723,-0.19568 9.95667,-0.88458 15.41198,-3.62434 3.75791,-1.8873 6.26827,-3.83744 7.13161,-5.54006 0.26329,-0.51924 0.56401,-1.68822 0.66828,-2.59773 l 0.18958,-1.65364 h 1.17313 c 1.62444,0 2.61052,0.48643 4.519405,2.22945 5.73526,5.23696 8.62155,10.84869 8.65131,16.82055 0.0148,2.96158 -0.24119,3.58068 -2.79042,6.74957 -2.50577,3.11483 -9.185745,8.8437 -9.436155,8.09255 -0.0445,-0.13367 0.50583,-1.41447 1.22307,-2.84621 1.991295,-3.97518 3.735085,-8.11871 3.989245,-9.47914 0.12581,-0.67342 0.13333,-1.64754 0.0167,-2.16469 -0.4558,-2.02092 -2.661915,-3.29623 -4.735935,-2.73778 -2.29671,0.61846 -3.28932,1.73535 -11.47206,12.90855 -1.28011,1.74794 -3.05039,3.91914 -3.93394,4.82491 -1.54704,1.58597 -1.64594,1.64153 -2.67528,1.50347 -2.16685,-0.29062 -4.68955,-1.85192 -7.94025,-4.91421 -4.68498,-4.41341 -5.3526,-4.81026 -6.96166,-4.13795 -0.69165,0.28897 -0.93142,0.59573 -1.17621,1.50473 -0.62079,2.30548 0.18902,5.1044 2.26534,7.82966 0.80309,1.0541 1.36226,1.91654 1.24256,1.91654 -0.11967,0 -0.74692,-0.34171 -1.39388,-0.75936 z m -73.7767302,-8.65518 c -4.0189198,-1.08074 -8.2829398,-4.90813 -10.6510198,-9.56032 -1.48563,-2.91857 -1.49748,-4.01871 -0.0659,-6.10159 1.83698,-2.6726 4.72789,-3.98494 9.2990698,-4.22137 5.23177,-0.27059 7.68517,0.66074 13.38578,5.0813 1.28883,0.99946 1.73474,1.19777 2.69306,1.19777 0.68196,0 1.31421,-0.16571 1.55644,-0.40797 0.36755,-0.36753 0.42465,-0.34139 0.57663,0.26414 0.0928,0.36965 0.12073,2.01176 0.0621,3.64911 -0.1176,3.28609 -0.54689,4.52546 -2.16191,6.24178 -1.46089,1.55255 -5.15069,3.10161 -9.232,3.8758 -2.55897,0.48543 -3.60103,0.48186 -5.46232,-0.0188 z m 14.06356,-21.53764 c -0.46887,-0.55846 -1.70384,-1.58139 -2.74442,-2.27314 l -1.89193,-1.25775 1.26992,-0.6454 1.26989,-0.64537 0.48938,0.62286 c 0.62465,0.79499 2.72076,4.95307 2.57193,5.1019 -0.0618,0.0618 -0.49591,-0.34462 -0.96477,-0.9031 z m -85.6638898,-6.35407 c 0.31369,-1.96509 2.00084,-4.77856 5.39451,-8.99584 l 0.53227,-0.66146 2.52814,1.25503 c 1.39049,0.69027 2.52815,1.36215 2.52815,1.49304 0,0.27678 -0.0842,0.31303 -3.55793,1.53186 -4.7679,1.67288 -5.70347,2.33175 -6.88967,4.85182 -0.60524,1.2858 -0.66638,1.34581 -0.53547,0.52555 z m 149.88932,-1.72734 c 0,-0.38055 1.83893,-3.70321 3.28785,-5.94055 3.43823,-5.30927 3.89223,-6.4456 3.21897,-8.05694 -0.41045,-0.98232 -1.62962,-1.73767 -2.80469,-1.73767 -2.27957,0 -6.09208,4.25772 -9.41515,10.51456 -0.71413,1.34464 -1.37765,2.44597 -1.47444,2.4474 -0.29048,0.004 -2.60913,-3.20381 -3.2979,-4.563 -0.43264,-0.85382 -0.76906,-2.23372 -1.03304,-4.23725 -0.57367,-4.35436 -0.94636,-5.19079 -2.48007,-5.56575 -2.23038,-0.54528 -5.57223,3.62463 -5.57808,6.96029 -0.003,1.42763 0.69596,4.05735 1.80957,6.81302 0.44672,1.10543 0.48524,1.38906 0.18862,1.38906 -1.10654,0 -4.32112,-3.99984 -6.29105,-7.82781 -2.08201,-4.04582 -2.45481,-6.20593 -1.65584,-9.59506 0.63886,-2.71007 4.23521,-9.87806 6.04038,-12.03928 l 0.6305,-0.75486 1.76263,1.71977 c 2.04258,1.99295 5.04595,4.13618 7.23088,5.16006 1.38649,0.64971 1.78125,0.71078 4.30461,0.66585 1.52797,-0.0272 4.00915,-0.29067 5.51376,-0.58544 2.68533,-0.52615 8.06423,-2.25811 10.84352,-3.4916 l 1.40833,-0.625 0.44376,0.59068 c 0.24407,0.32486 1.01211,1.58356 1.70674,2.7971 2.89634,5.05989 4.29279,10.0879 3.67073,13.21668 -0.50202,2.5251 -1.66929,4.65791 -3.63641,6.64448 -1.44886,1.4632 -2.28907,2.02893 -4.96038,3.33986 -3.58683,1.76022 -9.4338,3.4717 -9.4338,2.7614 z M -5.4239652,271.01086 c 0,-0.0705 0.23765,-0.68262 0.52813,-1.36027 0.68782,-1.60462 1.58314,-6.02681 1.64034,-8.10199 0.0389,-1.41383 -0.0365,-1.69921 -0.56187,-2.12463 -1.36186,-1.10276 -1.9032,-0.6821 -5.19141,4.03412 -3.0002198,4.30316 -5.0368498,6.63237 -6.2322598,7.12751 -0.71851,0.29763 -0.94457,0.27752 -1.74874,-0.15555 -2.30492,-1.24129 -4.15031,-4.41542 -5.76157,-9.91 -1.05169,-3.58645 -1.46944,-4.42819 -2.86872,-5.78035 l -0.91641,-0.88556 -0.95001,1.01785 c -1.7472,1.87201 -2.08952,2.91897 -1.95884,5.9911 0.11491,2.70131 0.54856,4.21433 2.42313,8.45436 0.24127,0.5457 0.34777,0.99166 0.23667,0.991 -0.45786,-0.003 -3.56251,-3.03813 -4.17317,-4.08014 -0.8496,-1.44971 -1.27934,-4.58579 -1.13845,-8.30768 0.13002,-3.43477 0.53041,-4.39351 2.00256,-4.79497 0.54472,-0.14856 2.77283,-1.28402 4.95136,-2.52327 2.17852,-1.23923 4.14305,-2.25301 4.36562,-2.25285 0.22257,1.8e-4 1.26905,0.70683 2.3255,1.57033 3.86313,3.15756 7.68805,5.17038 14.0529498,7.39515 2.09092,0.73086 4.01576996,1.5226 4.27743996,1.7594 0.77975,0.70567 2.37067004,3.9727 2.37067004,4.86831 0,1.84767 -1.82222004,4.03717 -4.8948,5.88142 -1.53296,0.92015 -2.77812,1.45204 -2.77812,1.18671 z m -55.6947898,-2.50639 c -0.87313,-0.4285 -2.11543,-1.32578 -2.76064,-1.99396 -1.00433,-1.04005 -1.25277,-1.52992 -1.7264,-3.40423 -0.30428,-1.20415 -0.51012,-2.4733 -0.45742,-2.82033 0.35518,-2.33889 8.15684,-6.88636 12.43807,-7.25001 l 1.6728,-0.1421 0.70845,1.07929 c 0.64629,0.98456 2.23816,2.68231 3.51096,3.74443 1.37491,1.14734 -0.1076,5.56609 -2.756,8.21447 -2.09116,2.09116 -4.28183,3.11854 -6.92566,3.24792 -1.92055,0.094 -2.26374,0.0314 -3.70416,-0.67548 z m -9.10553,-18.17122 c -0.29496,-0.78832 -0.6169,-1.75461 -0.71549,-2.14733 l -0.1792,-0.71403 1.66547,0.17409 c 0.91604,0.0957 2.68984,0.17574 3.94179,0.1778 l 2.27629,0.004 -1.98437,1.0796 c -1.09141,0.59381 -2.54323,1.48008 -3.22631,1.96956 l -1.2419,0.88993 z m 72.2086498,-1.35792 c -6.70644,-1.0147 -10.13536,-2.63983 -14.5844398,-6.91232 -3.26353,-3.13399 -4.3171,-5.48211 -5.01459,-11.17629 -0.75139,-6.13402 0.79607,-13.78664 5.06965,-25.07075 1.03304,-2.7277 1.89093,-5.34919 1.90643,-5.82555 0.0628,-1.93087 -2.01808,-2.56341 -4.45056,-1.35281 -2.7106,1.349 -5.18374,4.23421 -7.34512,8.5689 -1.94292,3.89657 -2.83485,7.12748 -4.38253,15.875 l -0.18725,1.05834 -0.71702,-1.54827 c -1.04619,-2.25904 -1.67434,-4.46847 -2.17114,-7.63661 -0.43165,-2.75268 -0.42879,-2.85893 0.15615,-5.80538 0.62794,-3.16318 0.33632,-2.50407 5.74191,-12.97732 1.36327,-2.6413 1.59237,-4.2632 0.73594,-5.20975 -1.0587,-1.17009 -2.78485,-0.63441 -6.63252,2.05836 -2.07812,1.45436 -2.15916,1.48489 -3.84855,1.45084 -2.10754,-0.0425 -4.89847,-0.59164 -4.58745,-0.90265 0.76358,-0.76357 12.00861,-5.42793 18.47268,-7.66236 2.17715,-0.75256 4.39832,-1.59272 4.93593,-1.86698 2.74399,-1.39989 2.82533,-4.24479 0.15036,-5.25831 -1.15247,-0.43664 -4.06349,-0.33123 -6.39892,0.23175 -5.59189,1.34795 -16.3123,5.55937 -22.00928,8.64616 -1.71927,0.93155 -3.26986,1.63851 -3.44575,1.57102 -0.72155,-0.27689 -2.24139,-3.1314 -3.3741,-6.33706 -1.31535,-3.72259 -1.7026,-5.83822 -1.23016,-6.72098 0.16421,-0.30683 2.5299,-2.04155 5.25706,-3.85492 5.95136,-3.95722 8.5176,-5.9916 11.40236,-9.03915 6.39328,-6.75404 10.35478,-13.74458 17.16368,-30.28736 5.42528,-13.18116 6.84784,-15.53224 10.5236898,-17.39261 0.58208,-0.29459 3.43958,-1.32435 6.34999996,-2.28834 6.09825004,-2.01986 7.93274004,-2.94518 8.49183004,-4.28322 1.63621,-3.916 -3.28713,-5.67241 -26.6157898,-9.495282 -14.29506,-2.34254 -22.4255,-3.24158 -26.72291,-2.95497 -3.25388,0.21702 -8.03122,1.22089 -11.57889,2.43309 -3.27096,1.117662 -9.47713,4.062952 -17.52528,8.317062 -7.37815,3.89996 -25.23017,12.95771 -25.33396,12.85393 -0.16324,-0.16324 -0.599455,-6.18745 -1.380995,-19.07195 -1.09097,-17.985712 -1.69127,-26.342822 -1.99714,-27.803312 -0.10547,-0.5036 0.12059,-0.60076 2.61656,-1.12448 1.502605,-0.31529 3.027915,-0.57325 3.389575,-0.57325 0.36166,0 1.89775,0.7494 3.41353,1.66533 3.14976,1.9033 3.69356,2.14475 6.06326,2.69211 3.88141,0.89653 9.53979,0.20202 12.94876,-1.58935 2.19959,-1.15585 4.25064,-3.2343 5.48323,-5.55646 0.46045,-0.86749 1.51635,-3.30366 2.34646,-5.41371 0.83013,-2.11006 1.80996,-4.35241 2.17746,-4.983 l 0.66816,-1.14655 0.68953,0.68606 c 0.37922,0.37733 1.99922,2.56014 3.59994,4.8507 2.27042,3.24885 3.12913,4.27152 3.90502,4.65063 0.96662,0.47229 1.01872,0.47208 1.85208,-0.007 0.47162,-0.27133 1.08672,-0.95965 1.36689,-1.52961 0.46125,-0.93834 0.48091,-1.23164 0.20807,-3.10369 -0.5606,-3.84611 -2.24449,-7.07318 -5.34768,-10.24839 -2.45062,-2.50752 -3.99031,-3.32406 -6.21771,-3.29747 -1.99879,0.0239 -3.75534,0.88246 -5.44933,2.66364 -1.95641,2.05711 -2.35334,2.81426 -4.08993,7.80183 -2.27312,6.52846 -3.55616,8.52371 -6.53867,10.16831 -1.12816,0.62208 -1.70305,0.76317 -3.10436,0.76189 -2.19348,-0.002 -3.61019,-0.65448 -7.65696,-3.52635 -1.6647,-1.18139 -3.39111,-2.21572 -3.83645,-2.29851 -0.44535,-0.0828 -2.56607,-0.11372 -4.71273,-0.0687 -2.146665,0.045 -3.902835,0.0634 -3.902615,0.0409 2.3e-4,-0.0225 -0.17215,-1.62984 -0.38305,-3.57187 -0.21091,-1.94203 -0.56585,-6.74565 -0.78875,-10.67472 -0.2229,-3.92906 -0.47165,-8.21531 -0.55277,-9.525 l -0.14749,-2.38125 4.44197,4.49064 c 6.538155,6.6098 9.196685,9.05216 10.737615,9.86453 1.25998,0.66425 1.62513,0.72608 4.28769,0.72608 3.87524,0 4.63015,-0.37095 10.18833,-5.0064 7.04861,-5.87846 9.51371,-7.28821 12.77419,-7.30538 0.90406,-0.005 2.47603,-0.11583 3.49332,-0.24683 1.67259,-0.21537 1.93842,-0.18341 2.77813,0.33406 1.85854,1.14536 5.2275,4.03073 8.07228,6.91354 3.40979,3.45539 6.05893,5.64979 15.21354,12.60203 10.5565,8.01687 15.27283,11.85243 16.6915,13.57436 1.26725,1.53815 2.04283,3.19149 3.55458,7.57733 1.79411,5.20513 3.1065698,7.94635 4.8575098,10.14554 1.96942,2.47361 6.1536,6.3987 7.60398996,7.13317 3.02702004,1.532862 7.09485004,2.260312 13.88123024,2.482392 l 4.91697,0.16091 3.10089,6.20847 c 1.7055,3.41467 3.06474,6.24318 3.02056,6.28559 -0.0442,0.0424 -1.5091,0.31909 -3.25535,0.61484 -5.07466,0.85945 -9.02574,2.28081 -13.4012602,4.82095 -4.45838,2.58826 -6.18709,4.48827 -5.46131,6.00254 0.1906,0.39769 0.67572,0.88084 1.07804,1.07367 0.94263,0.45179 2.20541,0.19825 8.5241102,-1.71142 6.96182,-2.10404 15.50236,-4.12227 15.87352,-3.7511 0.16174,0.16172 4.64785,11.14388 4.57112,11.19019 -0.0394,0.0238 -1.7386,1.12101 -3.77589,2.43825 -5.3626,3.46725 -9.66338,6.11966 -12.82653,7.91043 -3.454,1.95544 -5.64853,3.99407 -6.1042802,5.67059 -0.55586,2.04494 -0.42799,6.15505 0.28202,9.06444 l 0.6301602,2.58212 -1.9927402,3.90017 C 0.80146476,179.605 0.63970476,179.94514 0.22906476,181.9392 c -0.5784,2.80869 -0.39269,5.88262 0.44821,7.41918 1.72310004,3.14865 5.68510004,3.25525 18.90188024,0.50856 2.0373,-0.42339 6.14495,-1.37448 9.12813,-2.11357 l 5.42396,-1.34377 0.5887,0.7374 c 0.32377,0.40558 1.11135,1.71476 1.75016,2.9093 l 1.16152,2.17194 -0.45804,1.02304 c -1.53046,3.41842 -4.04712,10.12288 -4.5533,12.13019 -0.53718,2.13016 -0.59436,2.9977 -0.59976,9.10148 -0.007,7.82916 -0.30562,6.61281 3.70372,15.08125 1.27458,2.69214 2.95857,6.26401 3.74222,7.9375 l 1.42478,3.04271 -0.99875,0.85958 c -2.60342,2.24068 -9.75059,5.12482 -14.18556,5.72439 -0.94774,0.12814 -0.99216,0.10473 -0.66146,-0.34827 2.18792,-2.99704 4.74173,-7.09017 5.10374,-8.18004 0.79369,-2.38964 -0.13116,-4.00878 -2.28984,-4.00878 -1.56424,0 -2.67086,0.89998 -10.11481,8.22605 l -6.69668,6.59061 -3.2749902,-0.0259 c -1.80123,-0.0143 -4.40608,-0.19712 -5.78853,-0.40627 z m 64.3527002,-1.17927 c -2.98122,-1.94792 -5.21115,-5.36948 -6.4508,-9.89788 -0.52502,-1.91789 -0.59373,-2.96151 -0.73181,-11.1125 -0.15566,-9.19007 -0.24141,-9.91018 -1.225,-10.28764 -2.15635,-0.82745 -3.75039,1.07514 -5.25716,6.27478 -1.02362,3.53224 -1.27908,6.26523 -1.17052,12.5231 l 0.0984,5.66949 -0.73522,-0.87214 c -0.99306,-1.17806 -6.71097,-12.55345 -8.24672,-16.40634 -1.7558,-4.40489 -2.08222,-6.19225 -1.92249,-10.52729 0.15018,-4.07625 0.54732,-5.89156 3.21268,-14.68438 0.92636,-3.05594 1.7522,-5.86512 1.83523,-6.24266 0.32062,-1.45764 -3.17612,-7.55552 -5.6414,-9.83792 -2.03419,-1.8833 -3.07461,-2.16961 -7.71578,-2.12331 -3.12721,0.0312 -4.76829,0.24347 -12.5677,1.62573 -12.4826502,2.21224 -11.3085602,2.07188 -11.0926602,1.32623 0.0992,-0.34269 1.3522802,-3.00432 2.7845802,-5.91474 2.5286,-5.13815 4.79496,-8.97879 8.34922,-14.14872 1.97035,-2.86605 2.60802,-4.62923 2.24359,-6.20371 -0.37503,-1.62023 -1.05535,-2.30363 -3.00371,-3.01731 -0.97327,-0.3565 -1.76956,-0.74282 -1.76956,-0.8585 0,-0.44714 2.4689,-2.19351 7.02659,-4.97021 2.61107,-1.59073 4.77533,-2.867 4.80952,-2.83614 0.0342,0.0309 -0.17418,0.51964 -0.46303,1.08619 -0.35896,0.70407 -0.52517,1.55667 -0.52517,2.69393 0,0.91512 0.0338,1.66385 0.0752,1.66385 0.0413,0 2.03015,-0.65437 4.4196,-1.45415 2.38943,-0.79979 4.42637,-1.36533 4.52652,-1.25678 0.22759,0.24674 1.50005,6.66113 2.76847,13.95572 1.49124,8.57607 2.6199,11.49969 6.17834,16.00428 4.11707,5.21179 9.9936,9.72685 30.75492,23.62967 l 10.49073,7.02514 -0.84672,1.27669 c -0.46569,0.70221 -1.62303,2.32267 -2.57183,3.60106 -4.32001,5.8207 -5.65073,9.28672 -4.11823,10.72642 1.36149,1.27905 3.24088,0.38695 5.88142,-2.7918 1.68696,-2.03081 5.1336,-7.11219 5.83687,-8.60531 0.25704,-0.54571 0.55837,-0.99219 0.66966,-0.99219 0.11128,0 0.85793,0.39492 1.6592,0.87762 l 1.45687,0.8776 -1.74172,2.89272 c -0.95795,1.59096 -2.52344,4.37485 -3.47888,6.1864 -1.46055,2.76927 -1.73714,3.50174 -1.73714,4.6001 0,1.09681 0.11662,1.40671 0.7271,1.9318 1.70537,1.46693 3.60206,0.36846 7.24175,-4.19409 1.43002,-1.79258 3.19172,-4.11665 3.914905,-5.16459 1.25973,-1.82546 1.75977,-2.222 2.10253,-1.6674 0.25509,0.41272 -3.987685,8.92013 -5.810795,11.65151 -2.09381,3.13692 -5.80419,7.25104 -9.71696,10.7742 -4.62579,4.16526 -6.83458,5.71836 -9.2978,6.53783 -1.19711,0.39825 -8.26026,1.73797 -9.16284,1.73797 -0.22317,0 -1.15115,-0.48705 -2.06219,-1.08233 z m -135.26103,-8.01421 c -1.76099,-0.3884 -2.5037,-0.76358 -3.66059,-1.84928 -0.73343,-0.68828 -1.63108,-1.98196 -1.63108,-2.35071 0,-0.0515 1.27992,0.0616 2.84427,0.25122 1.56435,0.18968 5.4777,0.50684 8.69633,0.70477 3.21863,0.19794 5.98683,0.44318 6.15156,0.54499 0.66585,0.41153 0.19362,0.88223 -1.95334,1.94699 l -2.25285,1.11731 -3.36954,-0.0222 c -1.85325,-0.0122 -4.0244,-0.16661 -4.82476,-0.34311 z m -2.34826,-11.76692 -3.80346,-0.41267 0.16356,-1.73119 c 0.09,-0.95219 0.16442,-2.11768 0.16545,-2.59001 l 0.003,-0.85881 2.18282,1.6201 c 2.38471,1.76993 4.35043,2.95312 6.40823,3.85717 l 1.33083,0.5847 -1.32292,-0.0283 c -0.7276,-0.0156 -3.03448,-0.21399 -5.12638,-0.44098 z m 13.85763,-6.50144 c -0.14552,-0.0543 -1.15755,-0.29859 -2.24895,-0.54293 -2.74275,-0.61402 -6.4129,-2.44353 -8.30403,-4.13941 -2.43049,-2.17958 -3.50592,-3.71379 -4.2998,-6.13423 -0.65683,-2.00252 -0.71271,-2.52087 -0.7343,-6.81085 l -0.0233,-4.64333 1.00383,-2.03171 c 1.61541,-3.26948 4.23212,-5.59266 7.42027,-6.58789 2.43789,-0.76102 2.34852,-0.82605 3.00471,2.18702 1.01674,4.66876 2.47015,7.02503 5.79787,9.39964 3.01066,2.14837 7.35671,3.75171 12.23028,4.51199 l 1.41113,0.22014 -1.72275,2.83675 c -0.9475,1.56023 -2.40872,4.05898 -3.24713,5.55279 -1.92564,3.4309 -3.50467,5.06108 -5.43097,5.60692 -1.43862,0.40761 -4.37393,0.7552 -4.85682,0.5751 z M 178.21025,147.34533 c -1.82022,-6.53651 -2.26684,-11.9158 -1.15887,-13.95757 0.64923,-1.1964 2.38262,-2.91591 5.58162,-5.53695 2.648,-2.16961 3.57013,-3.59101 3.58714,-5.52944 0.0241,-2.75593 -1.52905,-4.5102 -9.01774,-10.18465 -8.1594,-6.18271 -13.95037,-11.50817 -17.84921,-16.414442 -3.2539,-4.09469 -3.64099,-5.55781 -3.83387,-14.49081 -0.0789,-3.65637 -0.0556,-9.11152 0.0519,-12.12254 0.18783,-5.25975 0.2177,-5.48305 0.76107,-5.69003 4.26019,-1.6228 17.68036,-8.14278 21.59995,-10.49401 5.29098,-3.17388 9.45867,-6.82175 10.9338,-9.57011 0.99185,-1.84797 1.20198,-3.87821 0.57208,-5.52756 -0.90815,-2.37798 -6.29203,-7.26902 -9.70803,-8.81939 -3.19382,-1.44951 -6.64568,0.32274 -6.16541,3.16544 0.30073,1.77987 1.49061,3.05806 4.9226,5.2879 l 3.16469,2.05617 -1.05418,0.95239 c -2.88248,2.60415 -4.25548,2.62071 -9.94159,0.11993 -9.62996,-4.23531 -17.52785,-6.8669 -29.89792,-9.96204 -15.04389,-3.76415 -27.41935,-5.32345 -49.807805,-6.27573 l -4.29948,-0.18288 -0.0103,-1.08542 c -0.0412,-4.29644 -0.5388,-14.2051304 -0.74811,-14.8981604 l -0.25614,-0.84817 2.82244,-1.50592 c 3.63368,-1.93876 8.99634,-5.13551998 20.814105,-12.40762 16.21258,-9.9764596 26.29469,-15.6783396 36.77709,-20.7990996 10.0104,-4.89019 16.18165,-7.29269 23.61533,-9.1936 l 4.95967,-1.26826 0.68328,0.81354 c 3.85107,4.58524 7.42971,12.95561 13.8656,32.4312496 1.70712,5.16599002 3.55391,10.36334 4.10395,11.54967 1.69857,3.6635104 3.94721,5.5352104 7.59902,6.3251804 1.22174,0.2643 4.79004,0.4677 11.18669,0.63768 20.02208,0.53206 22.44264,0.95884 28.90573,5.09651 l 2.05052,1.31274 v 24.92405 24.92404 l -1.60173,2.60047 c -4.0404,6.55975 -7.10698,9.65228 -12.42119,12.52624 -3.14296,1.69974 -6.35937,2.6005 -16.80104,4.70517 -14.7465,2.97236 -24.10704,6.00441 -25.88384,8.38425 -0.70705,0.94701 -0.68697,2.665632 0.0479,4.099132 0.31565,0.61573 1.58406,2.52073 2.81869,4.23334 4.65037,6.45067 5.66806,9.46647 5.88237,17.43159 0.26056,9.68514 -0.44982,11.17654 -8.18636,17.1866 -2.22613,1.72935 -5.0241,4.01048 -6.21769,5.06919 l -2.17014,1.92491 -0.27651,-0.99298 z m -375.44699,-33.90911 c -0.46404,-1.12029 -2.42946,-2.86049 -4.08858,-3.62006 -1.39479,-0.63856 -5.12869,-1.69611 -5.98845,-1.69611 -0.41557,0 -0.47303,-0.57273 -0.63049,-6.28385 -0.24231,-8.788712 -0.62374,-15.903262 -1.10997,-20.703652 -0.22848,-2.25557 -0.43337,-5.72869 -0.45532,-7.71803 -0.0388,-3.51698 -0.0217,-3.63675 0.62126,-4.33142 0.6603,-0.71346 0.66513,-0.71422 3.57161,-0.56328 1.60073,0.0831 5.8199,0.51907 9.37593,0.96878 13.68517,1.73066 19.79779,1.52671 28.72407,-0.95837 6.27129,-1.74593 11.50285,-4.6126 14.99322,-8.21564 2.51202,-2.5931 2.69681,-3.45572 3.10711,-14.50392 0.14052,-3.78354 0.38708,-7.3241 0.54791,-7.86791 0.63246,-2.13836 6.5544,-9.21699 9.79447,-11.70753 1.61724,-1.24312 5.34423,-3.61123 5.47602,-3.47943 0.0465,0.0465 -0.0557,1.27986 -0.22716,2.74086 -0.24337,2.07427 -0.23535,4.53305 0.0366,11.22061 l 0.34822,8.56424 -1.2617,2.51354 c -4.26818,8.50306 -7.3495,13.81948 -9.14504,15.7786 -2.18772,2.38703 -2.40388,3.87667 -0.78587,5.41584 1.48513,1.41278 3.52685,1.91387 5.21102,1.27892 1.49649,-0.56421 3.71081,-3.23548 5.7986,-6.99524 l 1.02847,-1.85208 0.3134,3.43958 c 0.25873,2.83955 0.83379,10.71169 1.52252,20.84178 l 0.12182,1.79178 -1.77104,-0.20428 c -3.55016,-0.40949 -7.14096,-0.2205 -9.8463,0.51823 -3.03598,0.82902 -6.75757,2.39646 -10.39705,4.379 -5.70563,3.10802 -5.65638,3.09252 -9.8381,3.09679 -6.07181,0.006 -6.36158,-0.16493 -15.74449,-9.29865 -3.45153,-3.35985 -6.68971,-6.28739 -7.27604,-6.57802 -0.85046,-0.42156 -1.59844,-0.52371 -3.83468,-0.52371 -2.58884,0 -2.90257,0.0589 -4.60482,0.86507 -4.26547,2.02 -9.87918,7.44391 -11.15092,10.77391 -0.87365,2.28763 -0.008,6.90609 1.66723,8.89724 0.37788,0.44908 1.79703,1.647152 3.15367,2.662382 2.32105,1.73693 3.86326,3.30677 4.54987,4.6314 0.16476,0.31786 0.29956,1.42314 0.29956,2.45619 0,1.48071 -0.13776,2.14244 -0.65084,3.12625 -1.05132,2.01592 -1.08274,2.04053 -1.45568,1.14019 z m 64.68048,-0.30308 c 3.17162,-0.644 3.57187,-0.64243 3.57187,0.014 0,0.49958 -0.16644,0.5275 -2.97656,0.49935 l -2.97656,-0.0298 z M 318.02916,89.182418 c -2.76489,-0.93433 -5.19329,-1.76149 -5.39644,-1.83814 -0.2263,-0.0854 0.33729,-0.56224 1.45521,-1.23126 6.57656,-3.9357 8.29659,-7.16607 7.9348,-14.90235 l -0.14846,-3.175 0.50845,1.06396 c 0.27967,0.58518 0.84326,2.13299 1.25246,3.43959 0.73067,2.3331 0.74359,2.48692 0.72197,8.59333 -0.0266,7.52404 -0.22659,9.7984 -0.85894,9.76911 -0.24308,-0.0112 -2.70415,-0.78491 -5.46905,-1.71924 z m -27.38437,-9.40743 c -2.28875,-0.82595 -7.17857,-2.01341 -10.40802,-2.52753 -2.33381,-0.37153 -4.56319,-0.47042 -10.62636,-0.47135 -7.18875,-10e-4 -8.0672,0.0528 -13.92163,0.85471 -3.43681,0.47074 -6.3591,0.8559 -6.49402,0.8559 -0.13491,0 0.19995,-1.33946 0.74409,-2.97657 2.20142,-6.62326 2.62123,-11.48468 2.10778,-24.40781 -0.36026,-9.06723 -0.54533,-11.42877 -0.85715,-10.93687 -0.15583,0.24585 -0.22531,0.14368 -0.22815,-0.33541 l -0.004,-0.68894 3.30431,-0.18359 c 3.84045,-0.21338 7.71215,-0.75553 9.86507,-1.38139 1.52791,-0.44418 4.51175,-1.67079 9.54955,-3.92565 1.50857,-0.67522 2.77336,-1.19197 2.81062,-1.14833 0.0373,0.0436 0.26339,0.46407 0.50249,0.93428 0.63376,1.24628 3.8368,5.00735 7.55023,8.86561 l 3.244,3.37055 0.89983,6.9482 c 1.67716,12.9509 3.43566,24.92986 3.97525,27.07979 0.19535,0.77827 -0.0394,0.78694 -2.01384,0.0744 z m 73.03069,-4.67546 c -2.20753,-0.91935 -3.81815,-2.44485 -4.24548,-4.02115 -0.2395,-0.88339 -0.27504,-3.0413 -0.13774,-8.36249 0.12779,-4.95204 0.0947,-7.50749 -0.10692,-8.2562 -0.55962,-2.07827 -2.24952,-3.39556 -5.71331,-4.4536 -2.19424,-0.67024 -8.10075,-0.66422 -11.23349,0.0114 -5.36893,1.15796 -10.06975,3.36523 -13.5481,6.36152 l -2.30333,1.98408 -1.76435,-1.96356 c -0.97041,-1.07997 -2.02427,-2.35646 -2.34193,-2.83665 -0.95451,-1.44286 -2.19416,-4.94354 -2.77286,-7.83023 -1.67362,-8.34845 -4.53313,-27.9166 -5.7264,-39.1867804 l -0.17934,-1.69392 2.47804,0.18 c 13.86255,1.00693 21.02302,2.16265 28.20805,4.55286 9.74915,3.2432104 20.16376,9.5486204 24.55061,14.8639004 3.63233,4.40111 6.74671,11.42553 6.73129,15.1824 -0.0106,2.60131 -1.17176,4.45302 -5.97043,9.52169 -6.15905,6.50559 -8.18274,9.72389 -9.18075,14.60027 l -0.58256,2.84656 0.98361,1.90862 c 0.541,1.04975 1.79044,2.90816 2.77657,4.1298 2.59585,3.21588 2.58879,3.20544 2.15593,3.18904 -0.19966,-0.008 -1.13435,-0.33498 -2.07711,-0.7276 z M -88.387075,41.755648 c -4.99015,-4.43908 -16.264975,-16.29121 -19.424345,-20.41894 -3.23528,-4.22688 -7.05989,-7.02493 -10.46353,-7.65501 -1.31563,-0.24355 -5.90061,-0.54215 -16.66256,-1.08515 -12.92369,-0.65208 -20.15819,-1.97839 -21.59937,-3.9598404 -0.26644,-0.36632 -0.82557,-2.31419 -1.25313,-4.36562 -1.19937,-5.75455 -2.45315,-8.44535 -4.59577,-9.86327 -2.1645,-1.4324 -5.17442,-0.98053 -6.47927,0.97271 -0.81154,1.21479 -0.75862,2.32006 0.18209,3.80341002 1.3165,2.07589998 1.54903,2.65309998 2.81409,6.98521998 1.37847,4.7204904 2.44494,7.2758904 3.49381,8.3716104 0.91325,0.95406 2.89173,2.06949 5.08026,2.86417 l 1.71979,0.62448 -1.74731,0.0774 c -3.13342,0.13871 -7.33196,-0.33556 -8.12629,-0.91797 -1.97656,-1.44923 -3.3977,-5.07411 -5.33824,-13.6161104 -1.24884,-5.49725 -2.26,-9.09078 -2.75808,-9.80189 -0.54879,-0.78351 -2.02311,-1.78669 -3.09993,-2.10932 -2.32265,-0.69588 -6.41452,0.79411 -10.68015,3.88901 -1.16417,0.84466 -2.87985,2.07351 -3.81263,2.7308 l -1.69595,1.19506002 0.18307,-1.55764002 c 0.35335,-3.00646 2.63307,-8.6579296 4.74849,-11.7715896 3.07055,-4.51951 5.15388,-5.80098 10.33835,-6.35917 2.37786,-0.25602 3.37628,-0.23374 6.32088,0.14102 10.10799,1.28645 17.66893,4.46939 31.55507,13.2837896 6.7047,4.25589 8.50773,5.14781 10.73205,5.30889 2.14501,0.15535 3.40927,-0.22917 4.75706,-1.44682 1.71101,-1.5458 2.5248,-4.47072 5.13839,-18.4683396 2.39151,-12.8082 3.36612,-16.01295 4.86737,-16.00507 0.88154,0.005 6.39113,2.60546 8.51981,4.02183 3.22146,2.14349 7.152355,5.6152 14.797875,13.06926 3.71583,3.6228 7.98499,7.76629 9.48698,9.20777 1.50199,1.4414796 2.83467,2.9297596 2.96153,3.3072996 0.12684,0.37753 0.53758,3.9011 0.91274,7.83017002 0.37515,3.92905998 0.78779,7.61676998 0.91699,8.19490998 0.1292,0.57813 0.18661,1.09944 0.12758,1.15845 -0.38174,0.38176 -4.70101,1.1565604 -7.14417,1.2815404 -2.89354,0.14802 -2.92217,0.14363 -3.78333,-0.58099 -1.48516,-1.2496804 -2.12791,-2.9573104 -3.22544,-8.5691704 -1.29772,-6.63548 -1.99998,-8.60651 -3.61129,-10.13581 -1.0943,-1.0386 -2.20145,-1.4167996 -5.994115,-2.0475596 -3.45207,-0.57411 -5.14155,-1.03751 -6.79627,-1.86411 -1.98392,-0.99105 -4.16585,-0.89087 -5.62684,0.25835 -0.98947,0.77831 -2.50312,3.1862096 -3.2496,5.1694296 -1.0124,2.68972 -1.7651,4.01698 -3.78968,6.68249002 -1.93683,2.54998998 -2.49533,3.82177998 -2.23968,5.10004998 0.22448,1.12241 0.97762,1.64479 2.5606,1.77607 1.84302,0.15283 3.0762,-0.47589 4.95844,-2.52799 1.39685,-1.52291 2.03812,-2.50494 4.07251,-6.23652 0.94002,-1.72424 1.02789,-1.80602 1.82025,-1.69413 4.14876,0.58587 9.054935,1.34987 9.141375,1.42351 0.0587,0.05 0.32143,1.96775002 0.58381,4.26163 0.55084,4.81566 1.20553,7.58898 2.36504,10.0185104 1.71039,3.58381 5.59807,6.30117 9.55582,6.67921 2.36879,0.22626 7.04845,-0.061 10.3632,-0.63609 2.28701,-0.3968 2.4161,-0.39306 3.06112,0.0885 1.19621,0.89309 9.29998,12.74814 9.59996,14.04384 0.0593,0.25616 -0.71122,0.5383 -2.69507,0.9868 -6.008,1.35829 -8.73988,2.83256 -13.87081,7.48547 -2.5029,2.26975 -3.90678,3.31709 -4.79856,3.57993 -0.42397,0.12496 -1.13078,-0.36 -3.17499,-2.17846 z M 284.08293,29.566388 c -0.7566,-1.48434 -1.37564,-2.87643 -1.37564,-3.09353 0,-0.68822 -0.97864,-2.32602 -1.94371,-3.25288 -0.83296,-0.79998 -1.08559,-0.89347 -2.38287,-0.88181 -1.71545,0.0154 -2.86228,0.48556 -6.89427,2.82633 -3.6267,2.10548 -7.18473,3.77864 -10.47499,4.92589 -2.25695,0.78695 -2.81958,0.87781 -5.51145,0.89002 -2.50786,0.0114 -3.05081,-0.0588 -3.32163,-0.42916 -0.19487,-0.26649 -0.44921,-2.37308 -0.63895,-5.29166 -0.34208,-5.26197 -0.75147,-7.46368 -1.75662,-9.44728 -1.87838,-3.70681 -7.9552,-8.0113404 -12.91987,-9.1518304 -2.50566,-0.5756 -7.08888,-0.89646 -17.12648,-1.199 -5.02047,-0.15133 -10.94237,-0.34471 -13.15979,-0.42974 l -4.03165,-0.1546 -1.05254,-1.90674 c -1.59276,-2.88535998 -2.70584,-6.00457 -4.88029,-13.6761696 -4.57724,-16.14881 -8.28365,-24.56664 -13.86295,-31.48478 -2.6988,-3.3464 -4.14853,-4.17563 -7.33049,-4.1929 -3.60053,-0.0195 -8.47818,0.96999 -13.89063,2.81801 -11.62661,3.96976 -20.46541,8.0926 -32.7756,15.2881 -2.66102,1.55541 -4.89609,2.77015 -4.96681,2.69942 -0.0707,-0.0707 0.16319,-0.70597 0.51983,-1.41166 0.98292,-1.94509 2.053,-5.57259 2.21871,-7.52151 0.18508,-2.17647 -0.79528,-6.24514 -2.15574,-8.94662 -1.03191,-2.0491 -3.28872,-4.94725 -5.68164,-7.29625 -0.88482,-0.86857 -1.60875,-1.74084 -1.60875,-1.93838 0,-0.19754 1.29085,-3.1183 2.86856,-6.49058 1.57769,-3.37227 3.08769,-6.75148 3.35556,-7.50933 0.26783,-0.75786 0.9925,-2.05377 1.61036,-2.87981 2.72399,-3.64185 11.03489,-11.82224 16.63948,-16.37819 5.21333,-4.23789 10.53357,-7.23411 19.18229,-10.80303 5.37668,-2.2187 8.93938,-3.407328 14.4198,-4.810948 8.63372,-2.21123 16.57331,-3.17325 24.07708,-2.91736 6.26504,0.21365 8.67974,0.46835 14.02292,1.47915 6.84823,1.29552 11.47693,2.75179 16.13958,5.077768 4.95506,2.47186 9.85412,6.4904 11.59159,9.50823 1.29481,2.24897 1.86126,5.91202 2.69271,17.41357 0.7974,11.03049 1.24265,12.70184 3.72221,13.97244 1.93752,0.99283 9.99951,1.71969 19.29975,1.74006 10.20487,0.0224 11.67942,-0.34155 27.51666,-6.79087 13.09746,-5.33361 20.40165,-7.65773 26.41404,-8.40468 3.45575,-0.42933 8.20116,-0.19642 10.71256,0.52578 3.94078,1.13326 7.95189,3.75588 10.82799,7.07978 3.31772,3.83424 6.9971,10.17519 7.87601,13.57332 0.70647,2.73131 0.46922,4.28015 -0.97763,6.38255 -1.41886,2.06174 -1.69016,3.09422 -2.07494,7.89655 -0.15703,1.95991 -0.32851,3.60646 -0.38106,3.659 -0.0525,0.0525 -0.24802,-0.59852 -0.43439,-1.4468 -0.33549,-1.52695 -0.48628,-13.11123 -0.22214,-17.06541 0.0991,-1.48389 0.0313,-1.88101 -0.42627,-2.49539 -1.05823,-1.4209 -2.2882,-1.81587 -5.97003,-1.91712 -4.06194,-0.11172 -6.5718,0.24857 -9.11916,1.30904 -3.11936,1.29858 -5.46923,3.14728 -10.61331,8.34971 -5.94323,6.01066 -6.45329,6.31205 -10.66271,6.30038 -2.40533,-0.007 -3.45271,-0.17461 -7.80521,-1.25158 -8.3993,-2.07829 -9.62483,-2.10061 -11.33607,-0.20649 -1.76125,1.94951 -2.29206,3.67797 -2.94894,9.60275 -0.41519,3.74459 -0.68297,4.7645 -1.86164,7.09053 -0.39896,0.7873 -1.72333,3.67875 -2.94304,6.42542 l -2.21765,4.99395 1.44735,10.88592962 c 2.09756,15.77620038 4.15909,32.45640038 4.05127,32.77979038 -0.0512,0.15368 -0.71218,-0.93504 -1.46876,-2.41938 z M 82.745095,-1.4836024 c -0.7367,-0.914 -2.70864,-5.07681 -2.70864,-5.718 0,-1.37792 0.82526,-3.5152496 3.0104,-7.7965396 2.50677,-4.91143 4.16145,-7.62613 5.09675,-8.36185 0.60566,-0.47641 0.73197,-0.48552 1.75022,-0.12625 1.70973,0.60323 4.34136,2.16101 4.94318,2.92612 1.01113,1.28543 0.48985,3.61825 -1.72297,7.71085 -2.94896,5.4540696 -5.27669,8.4397596 -8.21639,10.5388496 -1.81372,1.29509 -1.78425,1.28377 -2.15255,0.82682 z m -162.00337,-18.4680196 -2.76889,-3.23196 0.45953,-3.07371 c 1.02317,-6.84361 0.89691,-14.87407 -0.32938,-20.95019 -1.3081,-6.48151 -3.1492,-10.21142 -8.01209,-16.23171 l -2.11855,-2.62278 3.70489,0.16854 c 4.61618,0.20999 5.5603,0.49277 6.35032,1.90202 1.31201,2.34043 2.96595,8.80507 3.65537,14.2875 0.81138,6.45221 0.98309,7.43529 1.5157,8.67661 1.01615,2.36843 3.13959,3.56237 7.14981,4.0201 0.83674,0.0955 1.52135,0.29078 1.52135,0.43393 0,0.14315 -0.82846,2.08982 -1.84105,4.32594 -1.77575,3.92146 -5.83187,13.91449 -5.83187,14.36791 0,0.12168 -0.15441,0.43241 -0.34314,0.6905 -0.30985,0.42377 -0.61153,0.15594 -3.112,-2.7627 z m 107.81186,-2.14689 c -3.10441,-2.35935 -8.90061,-8.37755 -10.86662,-11.28282 l -0.83383,-1.23223 0.53826,-1.06288 c 0.78037,-1.54095 5.02357,-5.66868 7.45329,-7.25047 l 2.09055,-1.36097 1.12133,1.96744 c 2.27997,4.00024 3.72483,5.18424 6.32654,5.18424 0.8265,0 1.71563,-0.11396 1.97588,-0.25323 0.36928,-0.19764 0.63529,-0.084 1.21182,0.51778 l 0.73866,0.771 -2.69267,4.77011 c -3.26072,5.77645 -5.61893,9.59513 -6.00487,9.72372 -0.1573,0.0524 -0.63355,-0.16885 -1.05834,-0.49169 z m 31.40639,-1.42993 c -2.81623,-1.33023 -4.89469,-2.01252 -5.46457,-1.79384 -0.77777,0.29846 -0.44442,-0.33148 2.61136,-4.93476 3.47612,-5.2365 7.36568,-9.91869 8.89777,-10.71097 0.59574,-0.30807 0.88025,-0.29398 2.04838,0.10148 1.39055,0.47075 3.18754,1.66623 3.42165,2.27632 0.14676,0.38244 -0.59812,1.93715 -2.34458,4.89359 -0.64474,1.09141 -2.28076,4.09773 -3.63562,6.68073 -1.35487,2.58299 -2.59598,4.6881 -2.75806,4.67801 -0.16206,-0.0101 -1.4114,-0.54584 -2.77633,-1.19056 z"
       id="path1422" />
  </g>
</svg>
