<?xml version="1.0" encoding="UTF-8" standalone="no"?>
<svg
   xmlns:dc="http://purl.org/dc/elements/1.1/"
   xmlns:cc="http://creativecommons.org/ns#"
   xmlns:rdf="http://www.w3.org/1999/02/22-rdf-syntax-ns#"
   xmlns:svg="http://www.w3.org/2000/svg"
   xmlns="http://www.w3.org/2000/svg"
   xmlns:sodipodi="http://sodipodi.sourceforge.net/DTD/sodipodi-0.dtd"
   xmlns:inkscape="http://www.inkscape.org/namespaces/inkscape"
   width="210mm"
   height="297mm"
   viewBox="0 0 210 297"
   version="1.1"
   id="svg8"
   inkscape:version="1.0.1 (3bc2e813f5, 2020-09-07)"
   sodipodi:docname="scalled_fuzzy.svg">
  <defs
     id="defs2" />
  <sodipodi:namedview
     id="base"
     pagecolor="#ffffff"
     bordercolor="#666666"
     borderopacity="1.0"
     inkscape:pageopacity="0.0"
     inkscape:pageshadow="2"
     inkscape:zoom="1.979899"
     inkscape:cx="4.809704"
     inkscape:cy="89.527392"
     inkscape:document-units="mm"
     inkscape:current-layer="layer1"
     inkscape:document-rotation="0"
     showgrid="false"
     inkscape:window-width="3840"
     inkscape:window-height="2137"
     inkscape:window-x="-8"
     inkscape:window-y="1072"
     inkscape:window-maximized="1" />
  <metadata
     id="metadata5">
    <rdf:RDF>
      <cc:Work
         rdf:about="">
        <dc:format>image/svg+xml</dc:format>
        <dc:type
           rdf:resource="http://purl.org/dc/dcmitype/StillImage" />
        <dc:title></dc:title>
      </cc:Work>
    </rdf:RDF>
  </metadata>
  <g
     inkscape:label="Layer 1"
     inkscape:groupmode="layer"
     id="layer1">
    <path
       style="fill:#000000;stroke-width:0.026;stroke:none;stroke-opacity:1;stroke-miterlimit:4;stroke-dasharray:none"
       d="m -25.964581,63.423359 c -0.27488,-0.25337 -0.78599,-1.13893 -1.07768,-1.86721 -0.20509,-0.51204 -0.29602,-0.79223 -0.54097,-1.66687 -0.74264,-2.65177 -0.81531,-3.177 -0.85114,-6.15156 -0.02196,-1.82302 -0.02514,-1.78644 0.36313,-4.16719 0.26085,-1.59952 0.22998,-1.44753 0.29017,-1.42842 0.10229,0.0325 0.26762,-0.0407 0.40058,-0.17717 0.18772,-0.19273 0.28631,-0.4018 0.28631,-0.60715 0,-0.15541 -0.0051,-0.16856 -0.10082,-0.25873 l -0.10083,-0.095 0.54538,-0.7276 c 0.65593,-0.87511 1.02307,-1.3896 1.1366,-1.59279 0.14763,-0.26421 0.13479,-0.52505 -0.03159,-0.64199 -0.09652,-0.0679 -0.23717,-0.0959 -0.3372,-0.0672 -0.04916,0.0141 -0.09435,0.0207 -0.10042,0.0146 -0.01195,-0.0119 0.94633,-1.20278 1.01123,-1.25664 0.03172,-0.0263 0.0713,-0.0217 0.20323,0.024 0.23919,0.0828 0.46666,0.0987 0.58046,0.0406 0.23865,-0.12187 1.3189,-1.13927 2.48825,-2.34347 1.52474,-1.57017 1.5886,-1.65297 2.03787,-2.64215 0.10204,-0.22467 0.20702,-0.43898 0.23329,-0.47625 0.14477,-0.20537 0.31707,-0.68881 0.50157,-1.40724 0.09205,-0.35846 0.478531,-2.10535 0.836061,-3.77903 0.0667,-0.31222 0.12378,-0.56837 0.12685,-0.56922 0.0031,-8e-4 0.07418,-0.034 0.15802,-0.0738 l 0.15242,-0.0723 -0.01362,0.0991 c -0.02259,0.16435 -0.06637,1.63281 -0.06581,2.20737 0.001,0.7782 0.05163,1.04334 0.25761,1.3427 0.21588,0.31374 0.57197,0.43296 0.99126,0.33187 0.41599,-0.1003 0.87997,-0.32801 1.84623,-0.90608 0.99319,-0.59419 1.71374,-1.09653 2.60524,-1.81627 0.53176,-0.42932 0.73242,-0.56944 0.87841,-0.61337 0.16114,-0.0485 0.17858,-0.0649 0.34796,-0.32809 0.1649,-0.25619 0.27102,-0.39071 0.57395,-0.7276 0.7624097,-0.84789 0.9276197,-1.12643 1.3182397,-2.2225 0.24551,-0.68891 0.34702,-0.94216 0.6507,-1.62336 0.13205,-0.29622 0.240085,-0.54923 0.240085,-0.56224 0,-0.013 0.01913,-0.0237 0.04252,-0.0237 0.0269,0 0.03693,0.0146 0.0273,0.0396 -0.03399,0.0886 -0.208438,0.94477 -0.284488,1.39631 -0.10911,0.64778 -0.0999,0.88213 0.04556,1.15894 0.08832,0.16807 0.121294,0.20381 0.284693,0.30855 0.236338,0.15149 0.313762,0.17754 0.649352,0.21848 0.430305,0.0525 1.127765,-0.002 1.831202,-0.14329 0.481748,-0.0967 1.375532,-0.36018 1.835629,-0.5411 0.777341,-0.30566 1.321263,-0.63456 2.358607,-1.4262 1.00388503,-0.76611 1.47694103,-1.09298 1.33596103,-0.9231 -0.05046,0.0608 -0.135938,0.33705 -0.135673,0.43846 3e-4,0.1091 0.125894,0.34683 0.217495,0.41164 0.03304,0.0234 0.142187,0.0676 0.242554,0.0982 0.167553,0.0512 0.223846,0.0545 0.68791897,0.0405 1.07733,-0.0324 2.86002,-0.34325 4.11464,-0.71743 1.03725,-0.30934 2.1173,-0.78767 3.12444,-1.38374 0.6647801,-0.39344 1.6507501,-1.04658 2.2621803,-1.49854 2.02231,-1.49485 4.13057,-3.69493 5.27444,-5.50415 0.47048,-0.74416 0.73157,-1.24995 1.35382,-2.62271 0.1715,-0.37836 0.45528,-0.982 0.63063,-1.34143 0.17534,-0.35943 0.34561,-0.71581 0.37837,-0.79197 l 0.0596,-0.13846 0.0303,0.11728 c 0.0477,0.18495 0.20941,0.4788 0.32051,0.58253 0.20051,0.18722 0.23499,0.20369 0.46705,0.22302 0.2717,0.0226 0.34043,-0.003 0.58926,-0.21909 0.13845,-0.12027 0.21467,-0.21508 0.31331,-0.38972 0.41902,-0.74184 0.70485,-2.0454 0.86157,-3.92914 0.0466,-0.5605599 0.0626,-1.4993799 0.0295,-1.7330199 -0.0446,-0.31459 -0.19501,-0.5958 -0.4658,-0.87078 -0.2666,-0.27071 -0.45594,-0.37252 -0.688,-0.36997 -0.23819,0.003 -0.34876,0.0657 -0.43279,0.24668 -0.10565,0.22763 -0.0932,0.42006 0.0431,0.66874 0.16403,0.2991 0.21673,0.505 0.23529,0.91917 0.0321,0.71569 -0.11004,2.1545599 -0.31086,3.1475199 -0.0424,0.20964 -0.0771,0.38824 -0.0772,0.39688 0,0.009 -0.0219,-0.02 -0.0486,-0.0637 -0.0267,-0.0437 -0.11114,-0.14778 -0.18766,-0.2314 -0.12886,-0.14081 -0.14081,-0.16519 -0.16216,-0.33073 -0.0127,-0.0983 -0.0235,-0.71448 -0.0241,-1.36933 -10e-4,-1.2004899 -0.0295,-2.0245199 -0.0818,-2.3757099 -0.11643,-0.78145 -0.5098,-1.81324 -0.92465,-2.42528 -0.29028,-0.42826 -0.57031,-0.63913 -0.85806,-0.64614 -0.18037,-0.004 -0.37411,0.11812 -0.53378,0.33755 -0.10448,0.14359 -0.11575,0.17365 -0.1147,0.30607 0.002,0.19771 0.0431,0.3016 0.20184,0.5046 0.31278,0.40004 0.47656,0.72603 0.66854,1.33059 0.27809,0.87577 0.30587,1.10771 0.2826,2.35978 -0.0373,2.0067199 -0.10661,2.5780199 -0.40445,3.3337499 -0.0516,0.13097 -0.27584,0.61317 -0.49828,1.07156 -0.22244,0.45839 -0.5022,1.04775 -0.6217,1.30969 -0.84547,1.85321 -1.54372,2.93544 -2.85082,4.41854 -0.52858,0.59975 -1.84619,1.93976 -1.87702,1.90893 -0.006,-0.006 0.0567,-0.24083 0.13816,-0.52292 0.43893,-1.51915 0.80539,-3.0051 0.80577,-3.26725 3e-4,-0.19468 -0.0679,-0.31597 -0.21954,-0.39029 -0.12517,-0.0614 -0.23298,-0.0442 -0.39454,0.0628 -0.22836,0.15125 -0.32504,0.4084 -0.88015,2.34099 -0.6670902,2.32251 -0.8181702,2.7506 -1.0538902,2.98632 -0.23162,0.23161 -1.06091,0.7724 -1.6034701,1.04563 -0.15162,0.0763 -0.44485,0.24513 -0.65162,0.37506 -0.51875,0.32597 -0.90527,0.52785 -1.39529,0.7288 -0.85173,0.34928 -1.88732,0.6418 -2.92939,0.82745 -0.75226,0.13402 -0.8202,0.1441 -0.8202,0.12175 0,-0.0101 0.0757,-0.10934 0.16815,-0.22061 0.28963,-0.34848 0.67338,-0.86864 0.74476,-1.0095 0.0382,-0.0753 0.0816,-0.22518 0.0981,-0.33866 0.0334,-0.22921 0.0119,-0.30448 -0.13944,-0.48806 -0.0917,-0.1113 -0.20474,-0.15167 -0.42519,-0.15188 -0.0819,0 -0.19475,-0.0193 -0.25078,-0.0427 -0.19683,-0.0822 -0.54437,0.0191 -1.08944,0.31765 -0.78938897,0.43237 -2.11759201,1.31841 -3.221812,2.14926 -0.912689,0.68674 -1.403435,0.99783 -2.006476,1.27195 -0.752726,0.34217 -2.118566,0.69545 -2.725055,0.70487 l -0.26774,0.004 -0.0086,-0.0751 c -0.0077,-0.067 0.05819,-0.54031 0.09171,-0.65914 0.0072,-0.0255 0.03537,-0.0463 0.06263,-0.0463 0.02726,0 0.05693,-0.0119 0.06592,-0.0265 0.009,-0.0146 0.038,-0.0265 0.06447,-0.0265 0.02646,0 0.06181,-0.0165 0.07856,-0.0367 0.01675,-0.0202 0.106204,-0.0448 0.198792,-0.0547 0.151784,-0.0163 0.211244,-0.0437 0.604322,-0.27912 0.239787,-0.14361 0.619106,-0.35877 0.842936,-0.47814 0.455192,-0.24276 0.712944,-0.4308 0.767384,-0.55983 0.02005,-0.0475 0.03646,-0.15986 0.03646,-0.24964 0,-0.19743 -0.05478,-0.27058 -0.277813,-0.37103 -0.114594,-0.0516 -0.173635,-0.0626 -0.277812,-0.0519 -0.108445,0.0112 -0.123452,0.008 -0.08325,-0.0176 0.557128,-0.35482 0.695092,-0.42753 1.068157,-0.56297 0.456084,-0.16557 0.627703,-0.27373 0.751631,-0.47368 0.111924,-0.18058 0.01047,-0.43733 -0.220488,-0.55799 -0.111622,-0.0583 -0.482124,-0.0485 -0.699675,0.0186 -0.519191,0.16003 -1.539382,0.67041 -2.119452,1.06031 -0.105503,0.0709 -0.191823,0.12295 -0.191823,0.11564 0,-0.007 0.02966,-0.12972 0.06591,-0.272 0.08584,-0.33697 0.08818,-0.57516 0.0069,-0.69797 -0.07127,-0.10764 -0.309771,-0.23336 -0.444989,-0.23458 -0.148133,-10e-4 -0.360638,0.0731 -0.461582,0.16178 -0.05073,0.0445 -0.09223,0.0731 -0.09223,0.0635 0,-0.01 0.07628,-0.26385 0.169521,-0.56498 0.468924,-1.51451 0.537451,-1.8579 0.411885,-2.06385 -0.06356,-0.10425 -0.19196,-0.16377 -0.353285,-0.16377 -0.09641,0 -0.1407,0.0183 -0.246441,0.10189 -0.349181,0.27601 -0.534617,0.62162 -1.038448,1.9354 -0.50106,1.30656 -0.74101,1.90631 -1.05329,2.6326 -0.61243,1.42442 -0.7753697,1.81897 -0.9495997,2.29935 -0.22882,0.63094 -0.32718,0.87207 -0.42632,1.04517 l -0.08194,0.14307 -0.01359,-0.0901 c -0.0075,-0.0496 -0.02722,-0.23137 -0.04388,-0.40397 -0.05132,-0.53177 -0.1086,-0.67663 -0.30427,-0.76948 -0.13732,-0.0652 -0.2551,-0.052 -0.39991,0.0448 -0.10756,0.0719 -0.13669,0.10986 -0.17764,0.23151 -0.07517,0.22331 -0.09665,0.6123 -0.06722,1.21709 0.01451,0.29831 0.02874,0.60812 0.03161,0.68846 l 0.0052,0.14607 -0.42333,0.38789 c -0.37369,0.34241 -0.42567,0.38161 -0.44326,0.33426 -0.01097,-0.0295 -0.03204,-0.62102 -0.04684,-1.31448 -0.01479,-0.69347 -0.03679,-1.31814 -0.04888,-1.38816 -0.03904,-0.22609 -0.19713,-0.37702 -0.39052,-0.37283 -0.20042,0.004 -0.35304,0.16252 -0.40683,0.42163 -0.06716,0.32353 -0.08242,0.65022 -0.09705,2.07723 l -0.01533,1.496 -0.50192,0.34285 c -0.27605,0.18857 -0.53052,0.35811 -0.56548,0.37676 l -0.06358,0.0339 v -0.5503 c 0,-0.68824 0.03579,-1.25049 0.12148,-1.90861 0.08986,-0.69013 0.06515,-0.88114 -0.12882,-0.99572 -0.10818,-0.0639 -0.32787,-0.0648 -0.42325,-0.002 -0.09119,0.0603 -0.22873,0.30338 -0.33491,0.59193 -0.19812,0.53842 -0.31575,1.85462 -0.26286,2.94125 l 0.02507,0.51502 -0.06059,0.0464 c -0.06426,0.0492 -0.61062,0.35074 -0.68898,0.38021 -0.0418,0.0157 -0.0463,-0.004 -0.04626,-0.2037 0,-0.45598 0.09817,-2.00723 0.16034,-2.53622 0.07333,-0.62383 0.23484,-1.27078 0.52726,-2.11202 0.33954,-0.97674 0.61214,-1.52062 1.28208,-2.55788 0.49979,-0.77381 0.62844,-0.99994 0.71693,-1.26009 0.0938,-0.27579 0.07416,-0.54839 -0.04905,-0.6806 -0.09155,-0.0982 -0.30925,-0.19745 -0.43395,-0.19775 -0.22916,-6e-4 -0.53144,0.2908 -1.05197,1.01397 -0.73755,1.02465 -1.24768,1.92613 -1.52525,2.6953 l -0.08946,0.24791 -0.25669,0.19527 c -0.14118,0.10739 -0.28218,0.19527 -0.31332,0.19527 -0.03115,0 -0.08598,-0.0231 -0.12184,-0.0513 -0.03586,-0.0282 -0.12323,-0.0706 -0.19416,-0.0941 -0.30268,-0.10054 -0.50557,0.0681 -0.805671,0.66959 -0.11716,0.23483 -0.33671,0.76991 -0.40372,0.98394 -0.07657,0.24458 -0.3027,1.1816 -0.5108,2.11667 -0.2427,1.09053 -0.37527,1.63426 -0.52732,2.16269 -0.05761,0.20024 -0.13588,0.48909 -0.17393,0.64189 -0.31082,1.24816 -0.61619,2.00913 -1.11289,2.77329 -0.19282,0.29663 -0.38823,0.55783 -0.55423,0.74083 -0.4,0.44094 -0.95079,0.98769 -0.96178,0.95473 -0.0055,-0.0164 0.0035,-0.216 0.02,-0.44356 0.01647,-0.22755 0.0539,-0.7471 0.08319,-1.15456 0.13518,-1.88082 0.36092,-3.19557 0.83359,-4.8551 0.20822,-0.73105 0.23745,-0.95263 0.14554,-1.10336 -0.07603,-0.12468 -0.19154,-0.17496 -0.36833,-0.16029 -0.1382,0.0115 -0.15441,0.0205 -0.2727,0.1526 -0.52617,0.58747 -1.07075,2.65237 -1.29084,4.89459 -0.08433,0.8591 -0.20933,2.64987 -0.22741,3.25784 l -0.01702,0.57232 -0.19268,0.1914 -0.19269,0.1914 -0.0199,-0.41976 c -0.02403,-0.50676 0.002,-3.10598 0.03901,-3.89904 0.07308,-1.56483 0.11816,-1.94389 0.32095,-2.69875 0.30833,-1.14767 0.68476,-2.09906 1.56509,-3.95552 0.27255,-0.57476 0.37801,-0.86474 0.40416,-1.11132 0.015,-0.14145 0.0086,-0.17463 -0.05863,-0.3033 -0.09573,-0.18325 -0.19378,-0.24237 -0.42996,-0.25927 -0.42146,-0.0302 -0.60057,0.18912 -1.35645,1.66066 -1.36101,2.64957 -1.73708,4.19197 -1.845,7.56709 -0.0516,1.61357 -0.0574,1.76263 -0.08243,2.11666 -0.01389,0.19646 -0.03178,0.39291 -0.03977,0.43657 l -0.01453,0.0794 -0.20331,3e-4 c -0.18826,3e-4 -0.21605,0.008 -0.3753,0.10223 -0.09459,0.0561 -0.2897,0.20477 -0.43359,0.33044 -0.42185,0.36845 -0.76646,0.63993 -0.78533,0.61867 -0.01666,-0.0188 -0.05701,-0.3082 -0.09128,-0.65476 -0.0086,-0.0873 -0.02619,-0.45045 -0.03902,-0.80697 -0.02378,-0.66086 -0.04635,-0.80735 -0.14952,-0.9705 -0.18191,-0.28766 -0.58422,-0.62875 -0.81102,-0.68758 -0.07476,-0.0194 -0.19598,-0.0353 -0.26936,-0.0353 -0.11373,0 -0.15901,0.0172 -0.30683,0.11633 -0.15528,0.10417 -0.18359,0.13747 -0.27069,0.31844 -0.2465,0.5121 -0.38125,1.41004 -0.49462,3.29586 -0.01531,0.25466 -0.04001,0.56422 -0.0549,0.68791 -0.03665,0.30459 -0.13258,0.76901 -0.15587,0.75461 -0.01039,-0.006 -0.0269,-0.28302 -0.03668,-0.61465 -0.0214,-0.72554 -0.08285,-2.01366 -0.13669,-2.86516 -0.07509,-1.18765 -0.19725,-2.79217 -0.22339,-2.93415 -0.04416,-0.23985 -0.17322,-0.33228 -0.4402,-0.31528 -0.3915,0.0249 -0.44875,0.27434 -0.40574,1.76776 0.02504,0.86955 0.14145,4.30439 0.18338,5.41073 0.04986,1.31544 0.10498,2.00416 0.19117,2.38842 0.04027,0.17956 0.0043,0.3231 -0.14416,0.57491 -0.15568,0.26408 -0.55398,0.78719 -0.77041,1.01182 -0.21079,0.21878 -0.19882,0.22155 -0.31381,-0.0725 -0.08789,-0.22477 -0.11656,-0.4062 -0.16518,-1.0451 -0.13201,-1.73457 -0.15372,-5.45522 -0.04101,-7.02657 0.01417,-0.19749 0.06162,-0.62016 0.10545,-0.93927 0.04383,-0.31911 0.11021,-0.86 0.14751,-1.20197 0.0854,-0.78307 0.11984,-1.02621 0.23586,-1.66503 0.05135,-0.28274 0.12359,-0.74113 0.16053,-1.01864 0.03695,-0.27751 0.13207,-0.82603 0.2114,-1.21894 0.07932,-0.3929 0.16785,-0.87431 0.19672,-1.06978 0.18432,-1.24761 0.47031,-2.36885 1.1511,-4.51293 0.36706,-1.15605 0.44669,-1.4253 0.57899,-1.95791 0.22014,-0.88621 0.35084,-1.7503 0.52024,-3.43959 0.04377,-0.43656 0.0872,-0.83542 0.09649,-0.88635 0.02995,-0.1641 0.15594,-0.50582 0.34142,-0.92604 0.17023,-0.38566 2.00448,-4.06347 2.87145,-5.75746 l 0.39411,-0.77006 0.43591,-0.3015 c 0.84709,-0.5859 1.56369,-0.91743 2.19684,-1.01634 0.33411,-0.0522 0.57035,-0.11514 1.5875,-0.42293 0.45112,-0.13651 0.92613,-0.2746 1.05558,-0.30688 l 0.23536,-0.0587 0.06891,0.0815 c 0.0379,0.0448 0.15948,0.13986 0.27018,0.2112 0.49411,0.31844 1.279601,0.39175 2.590081,0.24174 1.28724,-0.14736 3.31792,-0.57842 3.80063,-0.80677 0.24215,-0.11456 0.33211,-0.32256 0.23747,-0.54906 -0.05228,-0.12512 -0.15287,-0.19315 -0.31569,-0.21349 -0.17149,-0.0214 -0.42324,0.008 -1.23533,0.14379 -1.13913,0.19064 -1.97818,0.28956 -2.91919,0.34414 l -0.49825,0.0289 -0.13115,-0.0741 c -0.07213,-0.0408 -0.13128,-0.0838 -0.13145,-0.0956 0,-0.0118 0.07325,-0.0803 0.16314,-0.15213 0.14418,-0.11525 0.17824,-0.13065 0.28903,-0.13065 0.18963,0 0.3278,-0.0616 0.55127,-0.24569 0.49816,-0.41043 1.1277,-0.66113 2.27248,-0.90496 0.30888,-0.0658 0.6244,-0.1442 0.70114,-0.1742499 0.23069,-0.0903 0.3909,-0.28092 0.3909,-0.46506 0,-0.1182 -0.09794,-0.28766 -0.19712,-0.34107 l -0.09036,-0.0487 0.07815,-0.0987 c 0.2414,-0.30479 0.24792,-0.63686 0.01467,-0.74754 -0.13223,-0.0627 -0.33681,-0.0566 -0.42494,0.0127 -0.03911,0.0308 -0.075,0.0516 -0.07976,0.0463 -0.0048,-0.005 -0.03921,-0.0705 -0.07655,-0.14484 -0.1013,-0.20171 -0.29709,-0.27609 -0.47818,-0.18165 -0.04219,0.022 -0.08102,0.0357 -0.0863,0.0304 -0.0053,-0.005 0.04411,-0.11487 0.10977,-0.24354 0.14528,-0.28472 0.15609,-0.41793 0.05078,-0.62576 -0.05655,-0.11158 -0.06352,-0.1465 -0.03969,-0.1988 0.06418,-0.14086 0.01288,-0.38612 -0.10423,-0.49832 -0.16001,-0.1533 -0.44458,-0.10932 -0.7012,0.10838 l -0.16184,0.13729 -0.03036,-0.1135 c -0.03301,-0.12342 -0.12303,-0.20564 -0.25684,-0.23459 -0.09367,-0.0203 -0.31341,0.0398 -0.386,0.10549 -0.04865,0.044 -0.05042,0.0425 -0.05042,-0.0449 0,-0.22764 -0.18969,-0.38639 -0.42331,-0.35426 -0.25335,0.0348 -0.40272,0.20378 -1.322141,1.49532 -0.81109,1.13936 -1.15661,1.59604 -1.64115,2.16916 -0.22761,0.2692199 -0.57504,0.6859299 -0.77206,0.9260399 -0.39394,0.48008 -0.54173,0.6287 -0.71111,0.71511 -0.12305,0.0628 -0.52981,0.19122 -0.54799,0.17304 -0.01882,-0.0188 0.19135,-0.64539 0.35232,-1.05033 0.43926,-1.1049999 1.18573,-2.3552899 2.01992,-3.3832299 0.63997,-0.78861 1.671711,-1.79028 2.031581,-1.97236 0.14373,-0.0727 0.17129,-0.0769 0.56773,-0.087 0.79961,-0.0204 3.33302,0.0778 4.32236,0.16738 0.86118,0.078 1.57023,0.10213 3.04271,0.10346 2.6516647,0.002 3.0329717,-0.0755 4.9734547,-1.01593 2.067338,-1.00193 3.377104,-1.4444 5.27914603,-1.78342 1.18552197,-0.2113 1.87927197,-0.28895 3.01583197,-0.33754 1.02636,-0.0439 2.07935,-0.0109 4.90844,0.15373 1.0716401,0.0624 3.1278803,0.0629 4.2465603,0.001 0.44384,-0.0245 0.98539,-0.0446 1.20345,-0.0447 h 0.39647 l 0.17279,0.18521 c 0.17049,0.18274 0.1746,0.1852 0.30841,0.1852 0.11889,0 0.15117,-0.0129 0.26179,-0.10426 0.12972,-0.10719 0.38882,-0.39113 0.43407,-0.47568 0.0195,-0.0364 0.0956,-0.0587 0.32419,-0.0949 0.17826,-0.0282 0.3494,-0.0726 0.4244,-0.11002 0.10687,-0.0533 0.12568,-0.0564 0.12568,-0.0203 0,0.066 0.31184,0.37468 0.46971,0.46501 0.12913,0.0739 0.15902,0.0803 0.3325,0.0716 0.17442,-0.009 0.20572,-0.0197 0.3683,-0.1285 0.35353,-0.23651 0.70364,-0.76283 0.8142,-1.22401 0.099,-0.41310005 0.0489,-0.73736005 -0.13311,-0.86094005 -0.0793,-0.0538 -0.11704,-0.0612 -0.27046,-0.0528 -0.17012,0.009 -0.18392,0.0152 -0.29992,0.12797 -0.0669,0.065 -0.16067,0.19511 -0.20844,0.2891 l -0.0869,0.17088 -0.0434,-0.14914 c -0.0498,-0.17139 -0.18441,-0.30695 -0.37821,-0.38096 -0.10865,-0.0415 -0.12601,-0.0413 -0.28921,0.003 -0.0955,0.0258 -0.20838,0.0762 -0.25085,0.11197 -0.0425,0.0357 -0.0772,0.0571 -0.0772,0.0476 0,-0.01 0.0285,-0.13267 0.0633,-0.27355 0.0485,-0.19619 0.0671,-0.36234 0.0796,-0.70982 0.0156,-0.43490995 0.0125,-0.47592995 -0.0751,-0.99218995 -0.23874,-1.4064 -0.62484,-1.9627 -1.73463,-2.4993 -1.5928,-0.77013 -3.29435,-1.07715 -6.6542703,-1.20066 -2.46819,-0.0907 -3.21863,-0.14579 -3.97913,-0.29193 -0.9359,-0.17984 -1.70675,-0.50206 -2.99264197,-1.25095 -2.31206403,-1.34651 -3.70747903,-2.40159 -4.38116603,-3.3126301 -0.34988,-0.47315 -1.397463,-2.06608 -2.105374,-3.20138 -0.477177,-0.76526 -0.626896,-1.02065 -1.109044,-1.89177 -1.522397,-2.75059 -2.460907,-5.38724 -2.712327,-7.62 -0.06625,-0.58837 -0.07296,-0.73497 -0.07264,-1.5875 10e-4,-1.73555 0.14279,-3.30593 0.42266,-4.6699 0.32353,-1.5767 0.93039,-3.89336 1.269864,-4.84761 0.278756,-0.78357 0.59215,-1.70906 0.649078,-1.91678 0.03126,-0.11406 0.06439,-0.20738 0.07363,-0.20738 0.0092,0 0.04836,0.0644 0.08694,0.14302 0.109693,0.22366 0.273926,0.32655 0.615569,0.38566 0.532987,0.0922 1.333897,-0.28892 1.659998,-0.78997 0.1001,-0.1538 0.112403,-0.18962 0.109974,-0.32017 -0.0053,-0.2847 -0.123549,-0.39761 -0.416311,-0.39761 -0.15213,0 -0.207227,0.017 -0.515914,0.15875 -0.190076,0.0873 -0.36241,0.15875 -0.382963,0.15875 -0.02669,0 -0.0426,-0.051 -0.05566,-0.17851 -0.02002,-0.19541 -0.08947,-0.35835 -0.213193,-0.50024 -0.06434,-0.0738 -0.118883,-0.10196 -0.277313,-0.14326 -0.18415,-0.048 -0.207735,-0.0487 -0.35605,-0.0107 -0.08736,0.0224 -0.179104,0.059 -0.203877,0.0815 -0.04105,0.0371 -0.04677,0.0353 -0.06454,-0.0207 -0.01072,-0.0338 -0.09509,-0.13973 -0.187471,-0.23542 l -0.167972,-0.17399 0.08586,-0.11201 c 0.04722,-0.0616 0.21087,-0.21503 0.363667,-0.34094 0.68417,-0.56379 1.02729,-0.89379 1.739495,-1.67299 0.481894,-0.52722 1.042554,-1.08119 1.276755,-1.26151 0.746707,-0.57493 2.115664,-1.24941 3.32052099,-1.63603 1.88209601,-0.60392 2.55158601,-0.79332 3.18822601,-0.90194 0.33945,-0.0579 1.119,-0.0739 1.93146,-0.0396 1.23149,0.052 1.65379,0.11178 2.93688,0.41558 0.40018,0.0947 1.2574301,0.29701 1.9050001,0.44947 1.7463702,0.41116 2.5489802,0.63189 3.3470502,0.9205 1.35478,0.48994 2.40208,1.06725 3.18728,1.75696 0.45356,0.39841 0.61933,0.56916 0.98139,1.0109 0.77566,0.94637 1.61542,2.17332 2.14952,3.1406 0.3271,0.59241 0.36587,0.77209 0.36367,1.68538 -0.001,0.54846 -0.0103,0.68431 -0.0678,1.02418 -0.0811,0.47894 -0.19023,0.80002 -0.27641,0.8129 -0.0464,0.007 -0.0557,-10e-4 -0.0442,-0.0397 0.0355,-0.11764 0.0783,-1.00878 0.0805,-1.67565 0.003,-0.79155 -0.0128,-0.90625 -0.16162,-1.20197 -0.19586,-0.38923 -0.40304,-0.569 -0.68121,-0.59111 -0.11982,-0.01 -0.15023,0 -0.29248,0.093 -0.26474,0.17285 -0.41695,0.49256 -0.74301,1.56068 -0.17124,0.56097 -0.3536,1.09621 -0.40832,1.19845 -0.0252,0.0471 -0.0461,0.0301 -0.22059,-0.1794 -0.26814,-0.32197 -0.61021,-0.63498 -0.78443,-0.71778 -0.26405,-0.12549 -0.512,-0.0752 -0.77621,0.15734 -0.21518,0.1894 -0.28278,0.50744 -0.28367,1.33441 -9e-4,0.8364 0.12877,1.70815 0.30469,2.04834 0.0224,0.0434 0.0408,0.12142 0.0408,0.17335 0,0.0894 -0.004,0.0935 -0.0728,0.0779 -0.23077,-0.0523 -0.70368,-0.27599 -0.98185,-0.46446 -0.46115,-0.31244 -1.15634,-0.98309 -1.93222,-1.86403 -0.54783,-0.62199 -0.66409,-0.80066 -1.23991,-1.90548 -0.8662202,-1.66202 -1.2667402,-2.1219 -2.4907203,-2.8599 -0.47573,-0.28684 -1.19583,-0.65656 -1.48462,-0.76225 -0.65962,-0.2414 -2.23853,-0.0405 -3.46555,0.44088 -0.83202,0.32644 -1.38938,0.76784 -1.79504,1.42159 -0.0868,0.13994 -0.28447,0.50697 -0.43917997,0.81562 -0.224626,0.44813 -0.297566,0.57072 -0.36208,0.60854 -0.222813,0.13062 -0.636262,0.86737 -0.813511,1.44965 -0.247259,0.81228 -0.202796,1.6578 0.15862,3.01625 0.231709,0.87093 0.402709,1.20175 0.70235,1.35878 0.07328,0.0384 0.281221,0.0357 0.41772097,-0.005 0.079,-0.0238 0.13977,-0.0742 0.24478,-0.20302 0.0768,-0.0942 0.15005,-0.20706 0.16272,-0.25071 0.0149,-0.0513 0.0276,-0.0653 0.036,-0.0397 0.007,0.0218 0.0804,0.24838 0.16284,0.50345 0.18077,0.55929 0.42124,1.06474 0.58077,1.22072 0.1861,0.18195 0.24389,0.20708 0.47654,0.20719 0.19971,10e-5 0.21105,-0.003 0.29493,-0.0871 0.16343,-0.16344 0.18454,-0.37754 0.0636,-0.64452 -0.133,-0.29347 -0.31865,-0.77813 -0.30907,-0.80686 0.005,-0.0146 0.18532,0.14133 0.40099,0.34657 1.15686,1.10088 1.65065,1.45032 2.54176,1.79873 0.57041,0.22302 0.84445,0.25539 2.8194101,0.33304 1.0955,0.0431 1.5208402,0.0753 1.7594802,0.13342 0.21491,0.0523 0.51568,0.20301 0.66822,0.33481 0.25735,0.22236 0.32257,0.44281 0.34337,1.16054 0.0221,0.76186 -0.0523,1.06962 -0.39889,1.6516 -0.30774,0.5167 -0.47793,0.63352 -1.0757202,0.73836 -0.47585,0.0834 -2.5936801,0.25383 -3.1551401,0.25383 -1.05848,0 -2.24469,-0.18998 -3.08446,-0.49401 -1.19576,-0.4329 -2.97135197,-1.2406 -3.60978697,-1.64207 -0.372385,-0.23416 -0.66971304,-0.47132 -0.86655204,-0.69117 -0.59267199,-0.66196 -0.72575499,-1.02499 -0.93736899,-2.55702 -0.143647,-1.03998 -0.205496,-1.40786 -0.268232,-1.59544 -0.08302,-0.24824 -0.127418,-0.31353 -0.258741,-0.38053 -0.09037,-0.0461 -0.135753,-0.052 -0.289036,-0.0378 -0.222184,0.0207 -0.290931,0.0545 -0.444545,0.2189 -0.104109,0.11141 -0.129053,0.16225 -0.192598,0.39257 -0.05475,0.19843 -0.121775,0.35058 -0.268084,0.60854 -0.128987,0.22742 -0.21893,0.42464 -0.265473,0.58208 -0.06694,0.22645 -0.06971,0.25888 -0.05645,0.66146 0.01124,0.34127 0.02995,0.49514 0.0965,0.79375 0.17168,0.77029 0.527836,1.57909 0.969139,2.20085 0.13615,0.19182 0.258848,0.35576 0.272659,0.36429 0.01381,0.009 -0.04628,0.16322 -0.133549,0.34374 -0.261717,0.5414 -0.265856,0.57351 -0.280455,2.17486 l -0.01234,1.35311 0.310595,0.6445 c 0.663429,1.37662 1.394991,2.44273 2.30919603,3.36517 0.667723,0.67375 1.62101197,1.37634 2.54472197,1.87553 0.39291,0.21233 0.99761,0.473 2.95088,1.27204 2.02822,0.82971 2.30359,0.93024 3.06119,1.11759 0.5226301,0.12924 3.0037403,0.6722 3.6716803,0.80349 1.70801,0.33574 3.35512,0.49431 6.48229,0.62408 2.61716,0.1086 3.4587,0.23838 4.59052,0.7079301 1.1198,0.46456 2.7419,1.59408 4.29948,2.99387 0.52242,0.4695 1.44667,1.38389 1.98175,1.96062 0.80361,0.86616 1.32392,1.52786 2.19119,2.78662 0.50775,0.73697 0.79727,1.14237996 1.44886,2.02879995 1.56341,2.12689005 2.30083,3.61397005 2.57812,5.19906005 0.15087,0.86245 0.17741,2.07596 0.0541,2.47385 -0.0719,0.23201 -0.29511,0.6713 -0.49071,0.96573 -0.17469,0.26296 -0.1734,0.26148 -0.18913,0.21735 -0.0413,-0.11574 -0.40841,-0.61727 -0.90482,-1.23599 -0.77777,-0.96941 -1.32045,-1.69436 -1.63401,-2.18281 -0.16408,-0.2556 -0.30821,-0.60349 -0.53714,-1.29646 -0.24545,-0.743 -0.27778,-0.82648 -0.37649,-0.97231 -0.1352,-0.19975 -0.30167,-0.23975 -0.53661,-0.12896 -0.14737,0.0695 -0.21075,0.13235 -0.31008,0.30752 -0.1423,0.25093 -0.21182,0.55173 -0.33868,1.46536 -0.057,0.41059 -0.17934,1.09729 -0.25915,1.45485 l -0.0465,0.20824 -0.0971,-0.20824 c -0.42356,-0.9087 -0.66462,-2.54745 -0.54827,-3.72719 0.0576,-0.58381 0.0367,-0.70583 -0.13591,-0.7951 -0.0898,-0.0464 -0.25379,-0.0484 -0.33371,-0.004 -0.0803,0.0446 -0.27537,0.27738 -0.38671,0.4614 -0.29558,0.48856 -0.33417,1.48107 -0.10777,2.77181 0.25045,1.42781 0.74314,2.47844 1.36794,2.91703 0.15105,0.10603 0.17064,0.11245 0.34331,0.11245 0.11248,0 0.21728,-0.0162 0.27167,-0.042 0.12345,-0.0586 0.32075,-0.27722 0.38567,-0.42738 0.0741,-0.17145 0.26686,-0.85373 0.34386,-1.21729 0.0347,-0.1637 0.069,-0.29754 0.0763,-0.29744 0.007,0 0.0658,0.0864 0.1301,0.1918 0.2517,0.41265 0.8459,1.23193 1.62113,2.23523 l 0.31156,0.40322 0.0302,1.13137 c 0.0324,1.2158099 0.0182,2.8183299 -0.0289,3.2480299 -0.0881,0.80416 -0.51443,2.25026 -1.07262,3.63802 -0.14926,0.37107 -0.32923,0.84732 -0.39992,1.05833 -0.0707,0.21101 -0.13234,0.38942 -0.13697,0.39648 -0.0204,0.0311 -0.50859,-0.68961 -0.66278,-0.97856 -0.14668,-0.27487 -0.17001,-0.50688 -0.17029,-1.69334 -3e-4,-0.96487 0.0241,-1.40525 0.11327,-2.05052 0.11346,-0.82109 0.10141,-1.00345 -0.0782,-1.18305 -0.0923,-0.0923 -0.11194,-0.10018 -0.24966,-0.10018 -0.0822,0 -0.18779,0.0166 -0.23462,0.0368 -0.12515,0.0541 -0.40454,0.35307 -0.47246,0.50559 l -0.0589,0.13229 -0.02,-0.0933 c -0.011,-0.0513 -0.0623,-0.35879 -0.11406,-0.68328 -0.12038,-0.75487 -0.1481,-0.84934 -0.29386,-1.00147 l -0.11507,-0.1201 -0.17319,0.011 c -0.20508,0.0131 -0.28323,0.0615 -0.39865,0.24716 l -0.0794,0.12767 0.004,0.41218 c 0.005,0.57313 0.11525,1.24634 0.46237,2.81988 0.19377,0.87834 0.28251,1.38478 0.31529,1.79917 0.0318,0.40281 0.0615,0.58147 0.16477,0.99219 0.0793,0.31545 0.0832,0.35516 0.0836,0.85989 5e-4,0.58514 -0.0295,0.83116 -0.22552,1.85209 -0.14368,0.74829 -0.31543,1.45158 -0.47165,1.93145 -0.12726,0.39091 -0.34101,0.89053 -0.39534,0.92412 -0.0159,0.01 -0.0611,-0.0484 -0.10558,-0.13597 -0.0428,-0.0842 -0.17515,-0.27816 -0.29416,-0.43096 -0.556,-0.71384 -0.62636,-0.82502 -0.73676,-1.16417 -0.12411,-0.38128 -0.14078,-0.59453 -0.1613,-2.06375 -0.0222,-1.59033 -0.0202,-1.57582 -0.26362,-1.92242 -0.18673,-0.26588 -0.26682,-0.32653 -0.43122,-0.32653 -0.11987,0 -0.14312,0.0102 -0.22948,0.10036 -0.0529,0.0552 -0.16444,0.20848 -0.24795,0.34063 -0.0835,0.13214 -0.22886,0.32213 -0.32298,0.42219 -0.20092,0.2136 -0.18829,0.24473 -0.14621,-0.36047 0.0747,-1.07487 0.29294,-1.89331 0.67013,-2.51355 0.36499,-0.60017 0.42038,-0.76999 0.30901,-0.94742 -0.0633,-0.10086 -0.23565,-0.18888 -0.37134,-0.18965 -0.11714,-7e-4 -0.36592,0.12858 -0.55135,0.28643 -0.37571,0.31983 -0.84548,1.23436 -0.96927,1.88696 -0.19331,1.01904 -0.29385,3.07287 -0.16328,3.3355 0.0743,0.14943 0.18538,0.20547 0.40726,0.20547 0.2565,0 0.59213,-0.13654 0.94955,-0.38631 l 0.0566,-0.0395 0.0139,0.93391 c 0.0163,1.10015 0.0258,1.16646 0.26831,1.88461 l 0.16918,0.50091 -0.14652,0.29215 c -0.2469,0.4923 -0.54395,0.89421 -1.17517,1.58998 -0.37056,0.40847 -1.20471,1.23912 -1.63725,1.63041 -0.65545,0.59292 -1.7506,1.48341 -2.03815,1.65726 l -0.0934,0.0565 -0.22405,-0.0652 c -0.30509,-0.0887 -0.53617,-0.10677 -0.68363,-0.0534 -0.36568,0.1324 -0.89555,0.65799 -1.7761,1.76176 -0.19155,0.24011 -0.61223,0.76385 -0.93484,1.16386 -1.94185,2.40776 -3.64582,4.12381 -5.14562,5.18208 -0.77682,0.54813 -1.26063,0.80313 -3.6430202,1.92011 -1.3800701,0.64705 -1.3036201,0.62302 -1.3078301,0.41118 -0.002,-0.0778 0.0188,-0.11378 0.11968,-0.21167 0.1619,-0.15714 0.257,-0.36396 0.25719,-0.55933 3e-4,-0.16403 -0.0297,-0.22644 -0.17999,-0.37677 -0.11346,-0.11346 -0.2248,-0.13718 -0.44711,-0.0952 -0.14414,0.0272 -0.24852,0.0815 -0.71658,0.37302 -0.96976,0.60392 -1.87687,0.94925 -3.14932,1.1989 -0.59749,0.11722 -0.67243,0.12622 -2.47384997,0.29687 -0.24011,0.0228 -0.560898,0.0641 -0.712864,0.092 -0.362461,0.0664 -0.34547,0.069 -0.34547,-0.0532 0,-0.14441 -0.09652,-0.25263 -0.275711,-0.30912 -0.26717604,-0.0842 -0.41259904,-0.008 -0.85219403,0.44647 -0.323043,0.33399 -0.684062,0.76098 -1.124117,1.32952 -0.20353,0.26295 -0.304154,0.37365 -0.318751,0.35065 -0.03128,-0.0493 -0.02662,-0.65732 0.0071,-0.93259 0.01862,-0.1518 0.0714,-0.3571 0.146256,-0.56886 0.09634,-0.27254 0.157578,-0.39236 0.34507,-0.67529 0.125367,-0.18917 0.273666,-0.39899 0.329554,-0.46626 0.05589,-0.0673 0.138636,-0.19228 0.183885,-0.27781 0.06923,-0.13086 0.07999,-0.17524 0.0679,-0.28 -0.0281,-0.24333 -0.158652,-0.34694 -0.440481,-0.34957 -0.154239,-10e-4 -0.186989,0.008 -0.3175,0.0937 -0.303305,0.19854 -0.623991,0.54476 -0.933744,1.00811 -0.27982,0.41857 -0.417806,0.82565 -0.508121,1.49907 -0.07967,0.59403 -0.09788,0.69776 -0.14818,0.84395 -0.06564,0.19079 -0.268481,0.57177 -0.594096,1.11585 -0.245821,0.41075 -0.26163,0.43091 -0.28,0.35718 -0.02506,-0.10055 -0.122926,-1.22216 -0.144188,-1.65241 -0.01946,-0.39391 0.01889,-0.66798 0.171667,-1.22667 0.179544,-0.65657 0.197451,-0.81008 0.112898,-0.96773 -0.08763,-0.16341 -0.181401,-0.19304 -0.560194,-0.17703 -0.181901,0.008 -0.539089,0.0452 -0.79375,0.0834 -0.272582,0.0409 -0.628904,0.0744 -0.866339,0.0815 -0.221824,0.007 -0.423516,0.0198 -0.448204,0.0292 -0.02521,0.01 -0.04947,0.003 -0.05535,-0.0142 -0.0058,-0.0173 -0.02094,-0.0249 -0.03374,-0.017 -0.04424,0.0273 -0.654051,-0.0681 -0.840616,-0.13152 -0.42142,-0.14333 -1.12728,-0.14732 -1.49342,-0.008 -0.2223697,0.0843 -0.5545097,0.32855 -0.6992497,0.51411 -0.30854,0.39556 -0.37422,0.54317 -0.91624,2.05919 -0.65422,1.82985 -1.10642,2.94915 -1.6034,3.96875 -0.2485,0.50981 -0.73535,1.41416 -0.79545,1.47757 -0.01165,0.0123 -0.10876,-0.0517 -0.21579,-0.14228 -0.17659,-0.14939 -0.46376,-0.31657 -0.54387,-0.31662 -0.14101,0 -0.31725,0.0687 -0.42091,0.16422 -0.23528,0.21687 -0.27471,0.46782 -0.27547,1.75329 -0.001,1.00692 -0.02868,1.59443 -0.09303,1.94538 -0.02268,0.12369 -0.10293,0.46144 -0.17835,0.75055 l -0.13711,0.52566 -0.04719,-0.15524 c -0.07355,-0.24192 -0.19599,-0.88027 -0.25815,-1.34586 -0.11747,-0.87983 -0.17681,-1.09227 -0.33377,-1.195 -0.09485,-0.0621 -0.30957,-0.0614 -0.42922,10e-4 -0.26594,0.13961 -0.31271,0.86791 -0.12472,1.94206 0.05168,0.29527 0.09396,0.54232 0.09396,0.54901 0,0.007 -0.0219,0.0122 -0.04867,0.0122 -0.02676,0 -0.06201,-0.0293 -0.07831,-0.0651 -0.04868,-0.10683 -0.22762,-0.20833 -0.36729,-0.20833 h -0.12116 l 0.01515,-1.44418 c 0.0083,-0.7943 0.02759,-1.61683 0.04279,-1.82783 0.04937,-0.68529 0.10938,-1.37322 0.19042,-2.18281 0.10466,-1.04556 0.12446,-1.62098 0.06553,-1.90481 -0.08189,-0.39444 -0.30692,-0.5918 -0.67741,-0.59409 -0.50021,-0.003 -0.77923,0.42185 -1.449701,2.20785 -1.17636,3.1336 -1.6766,4.83824 -2.16241,7.36865 -0.4162,2.16789 -0.63131,2.95349 -1.09824,4.01085 -0.17017,0.38534 -0.45113,0.93601 -0.47785,0.93654 -0.0086,3e-4 -0.08479,-0.15522 -0.16936,-0.34533 -0.08458,-0.1901 -0.20105,-0.42525 -0.25882,-0.52255 -0.20594,-0.34681 -0.48306,-0.56495 -0.76675,-0.60357 -0.10801,-0.0147 -0.14996,-0.005 -0.29753,0.0675 -0.09448,0.0465 -0.20071,0.12255 -0.23605,0.16896 -0.16823,0.22096 -0.25714,1.03649 -0.20268,1.85912 0.01696,0.25621 0.04237,0.52666 0.05647,0.60098 0.05806,0.30616 0.07328,0.57469 0.05132,0.90571 -0.02814,0.42439 -0.05342,0.62119 -0.07977,0.62119 -0.02262,0 -0.25604,-0.35474 -0.66154,-1.00541 -0.49183,-0.78919 -0.64537,-0.96132 -0.85745,-0.96132 -0.14958,0 -0.30227,0.0818 -0.36455,0.19536 -0.18313,0.33384 0.35457,1.42806 1.3591,2.76576 l 0.25994,0.34615 -0.06987,0.34884 c -0.03842,0.19187 -0.07282,0.34566 -0.07643,0.34177 -0.0036,-0.004 -0.08128,-0.13805 -0.17259,-0.29812 -0.30947,-0.54251 -0.42238,-0.68615 -0.61789,-0.78612 -0.12917,-0.066 -0.28329,-0.0512 -0.37855,0.0365 -0.08544,0.0786 -0.16456,0.2493 -0.16531,0.35657 -0.0018,0.25733 0.40179,1.14541 0.79656,1.75281 0.07053,0.10851 0.13603,0.2388 0.14554,0.28951 0.02322,0.12378 -0.03675,0.57839 -0.09316,0.70624 l -0.04528,0.10264 -0.12443,-0.1147 z M -8.3219903,9.2512191 c 0.377932,-0.0673 0.536959,-0.17014 0.594684,-0.38451 0.03252,-0.12077 -0.0033,-0.26295 -0.08568,-0.34037 -0.130959,-0.12303 -0.233855,-0.14202 -0.90449,-0.16688 -1.3242897,-0.0491 -2.7706197,-0.28908 -3.2771297,-0.54377 -0.31392,-0.15784 -0.41514,-0.26518 -0.45199,-0.47928 l -0.0148,-0.086 h 0.15313 c 0.32024,0 1.73507,0.15914 3.6555497,0.41119 0.708501,0.093 0.91012,0.0633 1.020661,-0.15051 0.115564,-0.22348 0.09805,-0.3786 -0.06297,-0.55762 -0.197707,-0.21982 -0.49627,-0.3037 -1.71175,-0.48091 -1.2354297,-0.18013 -2.4950697,-0.30742 -3.0278297,-0.30597 -0.56444,0.002 -0.75995,0.0588 -0.95853,0.28053 -0.0882,0.0985 -0.13627,0.37077 -0.13715,0.77683 -0.001,0.34933 0.0058,0.40439 0.07361,0.61562 0.15226,0.47444 0.49578,0.79059 1.12973,1.03972 0.56441,0.2218 1.19247,0.35482 1.9809,0.41954 0.29666,0.0244 1.8213497,-0.0115 2.0240597,-0.0476 z M -17.19363,53.667609 c -0.06936,-0.28283 -0.12697,-0.71039 -0.14919,-1.10729 -0.009,-0.16007 -0.02232,-0.37439 -0.02968,-0.47625 l -0.01338,-0.18521 0.10657,0.27524 c 0.05862,0.15139 0.19002,0.44918 0.292,0.66177 0.10198,0.21258 0.18542,0.41179 0.18542,0.44268 0,0.0679 -0.18565,0.44233 -0.27199,0.54862 l -0.06192,0.0762 z m 33.147156,-84.07527 c 0,-0.0377 0.0257,-0.11207 0.0572,-0.16534 0.0409,-0.0693 0.0578,-0.14358 0.0595,-0.26097 l 0.002,-0.16409 -0.16524,-0.18322 c -0.18162,-0.20139 -0.24621,-0.35174 -0.29511,-0.68694 -0.0323,-0.22105 -0.0694,-0.88636 -0.0495,-0.88636 0.008,0 0.0803,0.0882 0.16141,0.19589 0.2037,0.27063 0.40269,0.46328 0.54237,0.52506 0.12267,0.0543 0.25783,0.0517 0.48859,-0.009 0.14566,-0.0385 0.37922,-0.26136 0.54929,-0.52422 0.13719,-0.21205 0.41531,-0.81089 0.4271,-0.91962 0.003,-0.0266 0.0118,0.32067 0.0199,0.77179 0.0131,0.7346 0.0198,0.83077 0.0648,0.92141 0.0276,0.0557 0.0782,0.11953 0.11245,0.14195 0.0865,0.0566 0.0789,0.1539 -0.021,0.26929 -0.13853,0.16006 -0.52645,0.50206 -0.73703,0.64978 -0.3977,0.27898 -0.59583,0.35712 -0.95912,0.37827 l -0.25797,0.015 v -0.0685 z"
       id="path847" />
  </g>
</svg>
