<?xml version="1.0" encoding="UTF-8" standalone="no"?>
<svg
   xmlns:dc="http://purl.org/dc/elements/1.1/"
   xmlns:cc="http://creativecommons.org/ns#"
   xmlns:rdf="http://www.w3.org/1999/02/22-rdf-syntax-ns#"
   xmlns:svg="http://www.w3.org/2000/svg"
   xmlns="http://www.w3.org/2000/svg"
   xmlns:sodipodi="http://sodipodi.sourceforge.net/DTD/sodipodi-0.dtd"
   xmlns:inkscape="http://www.inkscape.org/namespaces/inkscape"
   width="210mm"
   height="297mm"
   viewBox="0 0 210 297"
   version="1.1"
   id="svg913"
   inkscape:version="1.0.1 (3bc2e813f5, 2020-09-07)"
   sodipodi:docname="coyote-F_SilkS_body_shrunk.svg">
  <defs
     id="defs907" />
  <sodipodi:namedview
     id="base"
     pagecolor="#ffffff"
     bordercolor="#666666"
     borderopacity="1.0"
     inkscape:pageopacity="0.0"
     inkscape:pageshadow="2"
     inkscape:zoom="0.49497475"
     inkscape:cx="640.61812"
     inkscape:cy="490.56637"
     inkscape:document-units="mm"
     inkscape:current-layer="layer1"
     inkscape:document-rotation="0"
     showgrid="false"
     inkscape:window-width="3840"
     inkscape:window-height="2137"
     inkscape:window-x="-8"
     inkscape:window-y="1072"
     inkscape:window-maximized="1" />
  <metadata
     id="metadata910">
    <rdf:RDF>
      <cc:Work
         rdf:about="">
        <dc:format>image/svg+xml</dc:format>
        <dc:type
           rdf:resource="http://purl.org/dc/dcmitype/StillImage" />
        <dc:title></dc:title>
      </cc:Work>
    </rdf:RDF>
  </metadata>
  <g
     inkscape:label="Layer 1"
     inkscape:groupmode="layer"
     id="layer1">
    <path
       style="fill:#000000;stroke-width:0.0265;stroke-miterlimit:4;stroke-dasharray:none"
       d="m 65.357967,222.76546 c -0.182354,-0.0726 -0.424782,-0.0999 -1.275871,-0.14357 -0.644042,-0.0331 -0.706609,-0.0571 -0.304928,-0.11713 0.939569,-0.14045 1.788458,-0.52879 2.54668,-1.16501 0.59128,-0.49614 1.048466,-1.20742 1.396261,-2.17227 0.632177,-1.75378 0.68694,-3.31134 0.185142,-5.26572 -0.125792,-0.48993 -0.22561,-0.82376 -0.541926,-1.8124 -0.252552,-0.78934 -0.393735,-1.26923 -0.622733,-2.11666 -0.221618,-0.82013 -0.459075,-1.5353 -0.599176,-1.8046 -0.08792,-0.16898 -0.154415,-0.25104 -0.345249,-0.42605 -0.129996,-0.11921 -0.248676,-0.21675 -0.263732,-0.21675 -0.01506,0 -0.09454,0.13097 -0.176618,0.29104 l -0.149242,0.29104 8e-4,0.50271 c 7e-4,0.43288 0.0089,0.53343 0.05933,0.72383 0.08081,0.30526 0.209794,0.62238 0.482332,1.1859 l 0.232619,0.48098 -0.01861,1.31086 c -0.01024,0.72097 -0.02687,1.31911 -0.03697,1.32921 -0.01009,0.0101 -0.01835,-0.0187 -0.01835,-0.0641 0,-0.11292 -0.0952,-0.60261 -0.173791,-0.89394 -0.222937,-0.82642 -0.564207,-1.62254 -1.167411,-2.72338 -0.377923,-0.6897 -0.612245,-1.15379 -0.80154,-1.5875 -0.20339,-0.466 -0.557632,-1.37183 -0.711288,-1.81883 l -0.134092,-0.39009 0.07753,-0.0573 c 0.194549,-0.14383 0.220279,-0.44979 0.05417,-0.64417 -0.08223,-0.0962 -0.282126,-1.12993 -0.401099,-2.07418 -0.07422,-0.58906 -0.05752,-1.0152 0.06869,-1.75325 0.05102,-0.29835 0.111007,-0.70818 0.133303,-0.91074 0.07187,-0.6529 0.191403,-1.24936 0.412741,-2.05946 0.252202,-0.92307 0.497298,-1.59506 0.693821,-1.90227 0.141962,-0.22192 0.274606,-0.35688 0.728212,-0.74094 0.223542,-0.18926 0.43986,-0.39025 0.480706,-0.44664 0.103944,-0.14349 0.12214,-0.27915 0.05715,-0.42608 -0.04298,-0.0972 -0.07737,-0.12987 -0.199215,-0.18948 -0.145669,-0.0713 -0.1557,-0.0723 -0.922424,-0.0967 -0.426335,-0.0135 -0.906123,-0.0344 -1.066196,-0.0463 l -0.291042,-0.0217 -0.116854,-0.10996 c -0.06427,-0.0605 -0.111895,-0.1141 -0.105833,-0.11917 0.03524,-0.0295 0.508793,-0.0965 0.791541,-0.11201 0.181902,-0.01 0.382386,-0.0335 0.445521,-0.0524 0.06313,-0.0188 0.261278,-0.11871 0.440317,-0.2219 0.345842,-0.19935 0.984392,-0.51185 1.238005,-0.60587 0.35899,-0.13309 0.59389,-0.29529 1.209907,-0.83548 0.211006,-0.18503 0.621771,-0.5164 0.912813,-0.73638 0.581233,-0.43932 1.16783,-0.99621 1.455232,-1.38154 0.241644,-0.32398 0.629992,-0.98869 0.762072,-1.30439 0.297147,-0.71025 0.544576,-1.50036 0.721157,-2.30287 0.0119,-0.0541 0.05767,-0.0154 0.396243,0.33454 0.625077,0.64608 1.127593,1.07688 1.90324,1.63162 l 0.424139,0.30334 0.0064,0.11289 c 0.01653,0.29231 0.29407,0.62356 0.90865,1.08449 l 0.306492,0.22987 0.107684,0.23271 c 0.153937,0.33266 0.430171,1.09035 0.571959,1.56885 0.308448,1.04093 0.508009,2.13838 0.601404,3.30729 0.04665,0.58391 0.03916,2.26394 -0.01286,2.88396 -0.244083,2.90913 -0.798062,5.24794 -2.517001,10.62635 -1.282312,4.01225 -1.625224,5.34617 -1.787982,6.95521 -0.03809,0.37656 -0.04025,1.5268 -0.0033,1.7305 0.02389,0.13154 0.01979,0.15622 -0.05121,0.30794 -0.04662,0.0996 -0.114146,0.34058 -0.170508,0.60842 -0.05133,0.24391 -0.129422,0.55182 -0.173543,0.68425 -0.300674,0.90244 -1.013173,1.70532 -1.993092,2.24593 -0.833348,0.45974 -2.374443,0.91748 -3.227916,0.95876 -0.237672,0.0115 -0.281479,0.006 -0.430692,-0.0534 z m 28.946568,-29.44173 c -0.193804,-0.24017 -0.287456,-0.46936 -0.376788,-0.92212 l -0.02925,-0.14827 -1.606272,-0.0159 c -0.917633,-0.009 -1.684755,-0.028 -1.789342,-0.0441 -0.304695,-0.047 -0.452988,-0.13286 -0.92256,-0.53429 -0.235921,-0.20168 -0.613497,-0.49975 -0.839055,-0.66237 l -0.410104,-0.29567 -1.124479,0.11117 c -2.093222,0.20695 -2.447607,0.22918 -4.29948,0.26976 -0.727604,0.0159 -1.402996,0.0392 -1.500871,0.0516 -0.198363,0.0252 -0.315306,0.0918 -0.379479,0.21588 -0.03771,0.0729 -0.04884,0.0776 -0.151736,0.0637 -0.06107,-0.008 -0.277727,-0.033 -0.481456,-0.0551 -2.106372,-0.22845 -3.381582,-0.44464 -3.350145,-0.56797 0.07548,-0.29612 0.06465,-0.44311 -0.04445,-0.60345 -0.0926,-0.13609 -0.326227,-0.33529 -1.376677,-1.17385 -0.475392,-0.37949 -0.868683,-0.69377 -0.87398,-0.69839 -0.0053,-0.005 0.01554,-0.0404 0.0463,-0.0795 0.04127,-0.0525 0.05593,-0.1086 0.05593,-0.21411 0,-0.15566 -0.0559,-0.29151 -0.194051,-0.47163 -0.146699,-0.19126 -0.607332,-0.64952 -0.917199,-0.91248 -0.387215,-0.3286 -1.045837,-1.00072 -1.530016,-1.56137 l -0.377013,-0.43657 0.101672,-0.0299 c 0.252117,-0.0741 0.516792,-0.26819 0.76258,-0.55914 0.08282,-0.098 0.158522,-0.18145 0.168215,-0.18536 0.0097,-0.004 0.03899,0.0378 0.06509,0.0926 0.103273,0.21694 0.373222,0.66574 0.513537,0.85377 0.576123,0.77205 1.297556,1.2574 2.245114,1.5104 0.542213,0.14478 0.909603,0.18271 1.768215,0.18255 0.917719,-3e-4 1.313364,-0.026 2.219627,-0.14503 0.676385,-0.0888 0.686249,-0.0893 0.78052,-0.0413 0.19502,0.0993 0.374057,0.13384 0.69425,0.13384 0.510156,0 0.834407,-0.0792 2.801124,-0.68438 1.332096,-0.40988 1.432724,-0.44724 2.685522,-0.99681 0.189177,-0.083 0.48628,-0.19724 0.660228,-0.2539 0.189812,-0.0618 0.380238,-0.14462 0.47625,-0.20709 0.284086,-0.18483 0.549735,-0.27682 0.994307,-0.34431 0.09508,-0.0144 0.720153,-0.0439 1.389062,-0.0654 0.668906,-0.0216 1.311444,-0.0523 1.427861,-0.0683 0.116417,-0.016 0.443839,-0.09 0.727604,-0.1645 0.490715,-0.12876 0.532106,-0.13532 0.846667,-0.1344 0.252092,7e-4 0.40758,0.0173 0.653955,0.0695 0.483134,0.10242 0.943522,0.24524 1.218096,0.37789 0.207309,0.10015 0.263163,0.14153 0.364197,0.26978 0.161054,0.20445 0.342188,0.56113 0.409434,0.80625 0.03039,0.11075 0.08482,0.27414 0.12096,0.3631 0.07855,0.1933 0.483703,1.05242 0.691094,1.46545 l 0.148035,0.29481 -0.01604,0.93927 c -0.0187,1.09492 -0.04655,1.48853 -0.139187,1.9668 -0.122653,0.63327 -0.328922,1.40479 -0.446805,1.67122 -0.08858,0.2002 -0.179398,0.28979 -0.445672,0.43964 -0.50936,0.28666 -0.782328,0.51965 -0.944269,0.80598 -0.09149,0.16177 -0.312941,0.46099 -0.341087,0.46088 -0.0088,0 -0.06636,-0.0625 -0.127982,-0.1389 z m 6.578095,-0.35882 c -0.38907,-0.72739 -0.54178,-0.93422 -0.82657,-1.1195 -0.320539,-0.20853 -0.692168,-0.29381 -1.538443,-0.35301 -0.797488,-0.0558 -0.915357,-0.0679 -0.900057,-0.0927 0.02698,-0.0437 0.177459,-0.73529 0.238509,-1.09625 0.111919,-0.66174 0.169513,-1.33088 0.224716,-2.61086 l 0.02691,-0.62394 -0.288034,-0.64606 c -0.408342,-0.91591 -0.563078,-1.23568 -0.896448,-1.85261 -0.507119,-0.93845 -0.519766,-1.08892 -0.114194,-1.35855 0.206968,-0.13759 0.37668,-0.21287 1.043668,-0.46292 1.082098,-0.40568 1.372089,-0.47147 2.186283,-0.49601 l 0.48948,-0.0147 0.37042,0.1451 c 0.20372,0.0798 0.42544,0.16503 0.49268,0.18939 l 0.12228,0.0443 0.22699,0.5911 c 0.24106,0.62776 0.26308,0.70393 0.53339,1.84562 0.31999,1.35155 0.37356,1.82942 0.34951,3.11776 -0.0221,1.18529 -0.1066,2.05993 -0.25554,2.64583 -0.0425,0.16735 -0.0842,0.33702 -0.0925,0.37703 -0.0118,0.0568 -0.0303,0.0728 -0.0838,0.0728 -0.0846,0 -0.25275,0.0917 -0.29642,0.16165 -0.0178,0.0285 -0.0559,0.16624 -0.0847,0.30609 -0.10322,0.50166 -0.39394,1.2344 -0.54043,1.36215 -0.039,0.034 -0.11138,0.076 -0.16077,0.0933 l -0.0898,0.0314 z m 26.42543,-0.52748 c -0.007,-0.0255 -0.0208,-0.22489 -0.0304,-0.44317 -0.01,-0.21828 -0.0351,-0.48501 -0.0568,-0.59273 -0.0452,-0.2241 -0.0429,-0.24232 0.16318,-1.31227 0.23547,-1.22267 0.24399,-1.38522 0.11867,-2.26653 -0.0824,-0.57924 -0.0977,-0.87151 -0.0536,-1.025 0.0932,-0.32499 0.11438,-1.43372 0.0407,-2.12934 -0.0229,-0.21657 -0.0349,-0.40063 -0.0265,-0.40901 0.0209,-0.0209 1.05548,0.1892 1.34915,0.27397 0.38075,0.1099 0.50299,0.17739 0.71907,0.397 0.31427,0.31942 0.55728,0.73856 0.67468,1.1637 0.0499,0.18054 0.0584,0.27781 0.0579,0.66146 -6e-4,0.49864 -0.0226,0.64046 -0.27623,1.78593 -0.30584,1.38115 -0.43946,1.83803 -0.6855,2.34386 -0.19424,0.39935 -0.36172,0.58901 -0.58251,0.65966 -0.32104,0.10272 -0.51809,0.22993 -1.05833,0.68323 -0.16735,0.14041 -0.3124,0.25536 -0.32233,0.25542 -0.01,0 -0.0239,-0.0207 -0.0311,-0.0462 z m -3.87318,-0.14628 c -0.2399,-0.31774 -0.34739,-0.40205 -1.22383,-0.95995 -0.78324,-0.49857 -0.64544,-0.44606 -1.55974,-0.59431 -0.36649,-0.0594 -1.29059,-0.25791 -1.34755,-0.28945 -0.0201,-0.0111 -0.11571,-0.27487 -0.21244,-0.58608 -0.20832,-0.67023 -0.29934,-0.87509 -0.46974,-1.05727 -0.21077,-0.22532 -0.46362,-0.3203 -0.94813,-0.35614 -0.29804,-0.022 -1.22589,0.0281 -1.73302,0.0936 -0.21101,0.0273 -0.56819,0.0735 -0.79375,0.10279 -0.62691,0.0814 -1.20167,0.11147 -2.1299,0.11157 -0.91665,0 -1.37759,-0.0273 -1.85632,-0.11046 -0.41873,-0.0727 -1.02073,-0.21276 -1.42328,-0.33111 l -0.33424,-0.0983 -0.18169,-0.37874 c -0.39616,-0.82575 -0.76907,-1.41702 -0.96681,-1.5329 -0.0886,-0.0519 -0.11922,-0.0861 -0.11922,-0.13308 0,-0.0613 -0.1216,-0.66686 -0.1474,-0.73411 -0.009,-0.0237 0.0489,-0.0423 0.20041,-0.0644 0.2607,-0.038 0.38905,-0.0931 0.68424,-0.29355 0.32616,-0.22151 0.53076,-0.3175 0.80375,-0.37708 0.13147,-0.0287 0.26183,-0.0644 0.2897,-0.0793 0.0611,-0.0327 0.15344,-0.17795 0.15358,-0.24164 3e-4,-0.16352 1.8394,-0.812 3.42645,-1.20821 0.80229,-0.2003 1.40636,-0.31324 1.46264,-0.27347 0.025,0.0177 0.0929,0.0577 0.15087,0.089 0.10214,0.0551 0.12541,0.0564 0.75407,0.0414 0.35676,-0.008 0.86524,-0.034 1.12995,-0.0566 0.47776,-0.0409 0.48196,-0.0408 0.57514,0.0142 0.10461,0.0617 0.23615,0.0755 1.28514,0.13458 0.94423,0.0532 1.8682,0.0425 2.4474,-0.0284 1.40373,-0.17173 2.28882,-0.22974 3.10885,-0.20378 0.62812,0.0199 0.99574,0.0637 1.03337,0.12319 0.0133,0.021 0.0243,0.0704 0.0246,0.10976 3e-4,0.0394 0.0546,0.32444 0.12093,0.63349 0.1547,0.72126 0.22537,1.23066 0.30946,2.23063 0.006,0.0705 -0.009,0.0869 -0.15217,0.16611 -0.29091,0.16108 -0.39054,0.33984 -0.33001,0.59214 0.0234,0.0976 0.0748,0.17966 0.2112,0.33755 0.2189,0.25332 0.25424,0.31874 0.28944,0.53565 0.0359,0.2214 0.0354,0.83794 -9e-4,1.09963 -0.0577,0.41582 -0.43585,1.43159 -0.70673,1.89853 -0.1267,0.21842 -0.24118,0.36058 -0.64892,0.80579 -0.33648,0.3674 -1.00252,1.00838 -1.04781,1.00838 -0.0121,0 -0.0695,-0.0628 -0.12752,-0.13967 z m -18.87174,-0.42257 c -6e-4,-0.51989 -0.16396,-0.82021 -0.50828,-0.93457 -0.0696,-0.0231 -0.12651,-0.055 -0.12651,-0.0709 0,-0.0159 0.0208,-0.13102 0.0463,-0.25585 0.0418,-0.20486 0.0462,-0.42784 0.0457,-2.29071 -6e-4,-2.11341 -0.0133,-2.44461 -0.1077,-2.81781 -0.085,-0.33594 -0.40468,-1.09956 -0.58393,-1.39486 -0.311,-0.51234 -0.30368,-0.4906 -0.34101,-1.01285 -0.0182,-0.25466 -0.0289,-0.46739 -0.0238,-0.47273 0.005,-0.005 0.25099,-0.0193 0.54639,-0.031 0.42812,-0.017 0.58005,-0.0333 0.74877,-0.0805 0.25177,-0.0704 0.35873,-0.0687 0.88818,0.014 0.41527,0.0649 0.46998,0.0878 0.53959,0.22625 0.0468,0.093 0.11313,0.38805 0.16068,0.71444 0.0412,0.28264 0.14678,0.78976 0.20936,1.00542 0.019,0.0655 0.11324,0.32877 0.2094,0.58508 0.21866,0.58282 0.24703,0.69585 0.28071,1.11871 0.0352,0.44155 0.0348,1.45251 -8e-4,1.84162 -0.087,0.95254 -0.47816,2.06164 -0.96119,2.72521 -0.15533,0.21338 -0.37807,0.43972 -0.50722,0.5154 -0.18762,0.10996 -0.29045,0.25395 -0.35611,0.49864 -0.0891,0.33192 -0.15823,0.38298 -0.15855,0.11705 z m 25.75885,0.14127 c -0.0101,-0.0164 0.0432,-0.16222 0.11841,-0.32412 0.43716,-0.94075 0.86441,-2.31012 1.01835,-3.26392 0.0359,-0.22227 0.0731,-0.42617 0.0827,-0.45313 0.0335,-0.0939 0.0961,-0.14161 0.18615,-0.14161 0.0728,0 0.0943,0.0134 0.11735,0.0728 0.0418,0.1079 0.0321,0.84512 -0.0159,1.21047 -0.0972,0.73898 -0.372,1.91353 -0.5255,2.24577 -0.12385,0.26806 -0.34196,0.43272 -0.75805,0.57228 -0.0946,0.0317 -0.17941,0.0697 -0.18851,0.0845 -0.0108,0.0175 -0.0229,0.0165 -0.0349,-0.003 z m -53.037186,-7.08348 c -1.066076,-0.079 -1.774355,-0.35259 -2.316392,-0.89474 -1.056503,-1.05671 -1.59711,-3.11139 -2.008729,-7.63456 -0.147552,-1.62142 -0.279535,-3.65262 -0.531232,-8.17563 -0.130848,-2.35136 -0.127851,-2.26021 -0.09311,-2.83104 0.0526,-0.86422 0.07546,-0.99767 0.39877,-2.32833 0.243369,-1.00163 0.287659,-1.19393 0.499699,-2.16958 0.183479,-0.84424 0.312465,-1.30928 0.424968,-1.53215 0.113522,-0.22488 0.382231,-0.53693 1.062216,-1.23355 1.41971,-1.45443 1.673157,-1.72542 2.176313,-2.3269 0.292448,-0.3496 0.793037,-0.93329 1.11242,-1.29709 1.127331,-1.28412 2.526719,-2.99225 4.486948,-5.47688 1.255177,-1.59097 1.658177,-2.07108 2.206163,-2.62833 0.373418,-0.37973 0.630468,-0.60069 0.939017,-0.80718 0.214347,-0.14344 0.79265,-0.45434 0.810996,-0.43599 0.005,0.005 -0.08976,0.13032 -0.21055,0.27853 -1.071398,1.31461 -1.575318,2.18418 -1.511677,2.60856 0.03517,0.23454 0.250291,0.46657 0.521173,0.56215 0.271776,0.0959 0.53704,0.0518 2.153318,-0.35796 1.87197,-0.47457 2.345384,-0.57434 3.50774,-0.73919 1.795992,-0.25471 3.861528,-0.38148 4.7643,-0.29241 0.34699,0.0342 1.079378,0.1656 1.462082,0.26226 0.89286,0.22549 1.299562,0.52063 2.688693,1.95115 0.57303,0.59011 0.7496,0.79254 0.73177,0.83899 -0.008,0.0206 -0.0658,0.0457 -0.12863,0.0558 -0.23423,0.0377 -0.436685,0.2121 -0.553901,0.47708 -0.05128,0.11592 -0.05646,0.19835 -0.07961,1.26549 -0.03668,1.69134 0.0043,2.35383 0.180216,2.91224 0.141815,0.45022 0.543675,1.33703 0.765385,1.68906 0.0774,0.12298 0.0788,0.13105 0.0567,0.33073 -0.0125,0.11257 -0.0191,0.42493 -0.0148,0.69415 0.008,0.47622 0.01,0.49274 0.0787,0.60987 0.0487,0.0829 0.11189,0.14277 0.20276,0.19222 0.25426,0.13839 1.01091,0.24837 1.51646,0.22043 l 0.28187,-0.0156 0.22321,0.24398 c 0.12277,0.13418 0.2668,0.30144 0.32006,0.37168 0.096,0.12661 0.0968,0.12989 0.0968,0.38364 -2e-5,0.29358 -0.0685,0.92923 -0.19869,1.84525 -0.14653,1.03077 -0.28064,1.65768 -0.4266,1.99423 l -0.0678,0.15629 -0.25249,-0.24883 c -0.30451,-0.30008 -0.45088,-0.38214 -0.68161,-0.38214 -0.44648,0 -0.75687,0.38087 -1.09498,1.34364 -0.0958,0.27284 -0.15828,0.40777 -0.22462,0.48528 -0.19448,0.22721 -0.29717,0.46823 -0.996179,2.33827 -0.953696,2.55136 -1.541505,3.91926 -2.552018,5.93882 -1.078782,2.156 -1.792292,3.16892 -3.334287,4.73343 -1.417261,1.43797 -2.383885,2.29738 -3.407796,3.02984 -0.54501,0.38988 -1.900899,1.29089 -2.329153,1.54776 -0.648528,0.389 -0.86809,0.48112 -1.657057,0.69525 -0.79184,0.21492 -1.142567,0.34085 -1.858925,0.6675 -0.649591,0.2962 -0.801992,0.3365 -1.766965,0.46734 -0.64013,0.0868 -1.036271,0.15317 -1.494896,0.25048 -0.740743,0.15718 -1.300373,0.23481 -2.275417,0.31564 -0.504886,0.0419 -1.357787,0.0691 -1.600729,0.0511 z m 30.343956,-1.84566 c -0.1112,-0.0506 -0.24428,-0.0999 -0.29572,-0.10959 -0.0921,-0.0173 -0.0952,-0.0222 -0.20504,-0.32585 -0.30511,-0.84357 -0.4439,-1.08623 -0.71847,-1.25618 -0.0813,-0.0503 -0.36347,-0.1225 -0.48358,-0.1237 -0.16829,-0.002 -0.16492,-0.0195 0.0892,-0.47024 0.81456,-1.44479 1.58097,-3.24384 2.33458,-5.48013 0.69623,-2.06601 1.16242,-3.84166 1.38524,-5.27614 0.0955,-0.61497 0.11604,-1.03692 0.0908,-1.86712 -0.0455,-1.49654 -0.19198,-2.77511 -0.61784,-5.3938 -0.0952,-0.58555 -0.17314,-1.08793 -0.17314,-1.11641 0,-0.0601 0.2236,-0.25099 0.43009,-0.36715 0.0763,-0.0429 0.32927,-0.15301 0.5621,-0.24461 0.51127,-0.20113 1.57494,-0.73047 1.90913,-0.95008 0.27477,-0.18056 0.42124,-0.33359 0.55766,-0.58262 0.052,-0.0948 0.13906,-0.22669 0.19358,-0.29302 0.18455,-0.22454 0.30701,-0.4418 0.44299,-0.78589 0.3247,-0.82164 0.66016,-2.27279 0.74948,-3.24223 0.0502,-0.54501 0.0206,-0.93938 -0.10763,-1.43281 -0.0634,-0.24403 -0.10638,-0.46572 -0.10183,-0.5254 l 0.008,-0.10324 0.25135,-0.10501 c 0.13825,-0.0577 0.88239,-0.36139 1.65365,-0.67475 1.99604,-0.811 2.19171,-0.89714 3.53219,-1.55499 2.00691,-0.9849 2.62791,-1.21204 3.66447,-1.34028 0.36139,-0.0447 1.7083,-0.0456 1.98438,-0.001 0.53611,0.086 1.08926,0.26086 2.50031,0.79029 2.96721,1.1133 4.11047,1.68159 4.82691,2.39935 0.31917,0.31975 0.58406,0.65614 0.70638,0.89705 l 0.0779,0.15333 -0.0576,0.15794 c -0.0522,0.14319 -0.0562,0.19189 -0.0425,0.52136 0.0105,0.25303 0.0389,0.4763 0.0936,0.73507 0.0717,0.33917 0.13231,0.57003 0.45421,1.72925 0.088,0.31692 0.22275,0.889 0.30534,1.29639 l 0.0182,0.09 -0.2345,-0.12451 c -0.12897,-0.0685 -0.27685,-0.17044 -0.32863,-0.22659 -0.0518,-0.0561 -0.18706,-0.27873 -0.30063,-0.49466 -0.32077,-0.60984 -0.40586,-0.70019 -0.66162,-0.70249 -0.10764,-0.001 -0.18054,0.0216 -0.35952,0.11157 -0.31705,0.15928 -0.49503,0.27619 -0.64948,0.42665 l -0.13392,0.13046 -0.39524,-0.43913 c -0.45344,-0.50379 -0.68495,-0.80472 -0.93388,-1.21392 -0.21009,-0.34533 -0.27317,-0.3996 -0.46218,-0.39762 -0.33112,0.004 -0.4294,0.22894 -0.36409,0.83525 0.0754,0.70049 0.27166,1.08486 1.09613,2.14722 0.41471,0.53438 0.50732,0.63196 0.69211,0.72924 0.1128,0.0594 0.16542,0.0696 0.35719,0.0696 0.19591,0 0.24365,-0.01 0.37041,-0.0757 0.0853,-0.0444 0.2262,-0.15914 0.34056,-0.27744 l 0.19503,-0.20174 -0.0183,0.27781 c -0.0101,0.1528 -0.0411,0.57547 -0.0689,0.93927 -0.10629,1.38931 -0.1752,2.72045 -0.26368,5.09323 -0.11514,3.08771 -0.15473,3.45047 -0.54721,5.01386 -0.2525,1.00577 -0.45105,1.55813 -0.79874,2.22205 -0.62801,1.19921 -1.25435,2.0596 -2.15857,2.9652 -0.82163,0.82287 -1.68569,1.48541 -2.94183,2.25568 -0.43951,0.26951 -0.89728,0.52051 -2.19253,1.20217 -1.05389,0.55464 -1.33837,0.71203 -1.85137,1.02429 -0.83941,0.51092 -1.74543,0.9682 -2.25775,1.13949 -0.17646,0.059 -0.4967,0.1476 -0.71165,0.1969 -0.5999,0.13757 -2.32403,0.47412 -3.32665,0.64936 -2.00176,0.34986 -2.68932,0.52774 -4.1953,1.08537 -0.38596,0.14292 -0.8384,0.2961 -1.00541,0.34042 -0.42847,0.11368 -1.04451,0.21483 -1.40168,0.23015 -0.30316,0.013 -0.30501,0.0127 -0.50646,-0.079 z m -35.99998,-0.26825 c -0.188851,-0.17544 -0.219631,-0.21723 -0.258226,-0.35057 -0.152424,-0.5266 -0.351653,-0.98444 -0.561189,-1.28966 -0.209583,-0.30528 -0.646481,-0.84982 -1.177718,-1.46787 -0.509213,-0.59243 -0.658092,-0.81253 -0.982069,-1.45189 -0.391491,-0.7726 -1.611353,-3.42605 -2.105825,-4.58061 -0.732576,-1.71052 -1.767372,-4.83347 -2.10345,-6.34809 -0.263275,-1.18651 -0.65439,-3.78941 -0.727835,-4.84378 -0.06066,-0.87078 -0.01035,-4.14922 0.10637,-6.93209 0.01495,-0.35652 0.06819,-1.32093 0.118306,-2.14312 0.05011,-0.8222 0.115337,-1.92948 0.144939,-2.46063 0.176632,-3.16938 0.297551,-4.75891 0.503705,-6.62147 0.158335,-1.43053 0.219898,-1.73265 0.607815,-2.98291 0.256106,-0.82543 0.412377,-1.47783 0.779527,-3.25437 0.503351,-2.43558 0.604035,-2.84815 0.861275,-3.52917 0.22913,-0.60659 0.362854,-0.90152 1.24304,-2.74146 0.677949,-1.41718 1.049825,-2.21264 1.337924,-2.86187 1.583801,-3.56907 2.639059,-6.99231 3.118368,-10.11594 0.209359,-1.36439 0.310911,-2.39014 0.61033,-6.16479 0.228149,-2.87619 0.286634,-3.50742 0.399585,-4.31271 0.167817,-1.19647 0.373258,-2.01136 0.703728,-2.79135 0.334648,-0.78987 1.052124,-2.03988 1.451158,-2.52827 0.0839,-0.10268 0.512007,-0.56107 0.951354,-1.01864 0.439347,-0.45757 0.875764,-0.93315 0.969815,-1.05684 0.09405,-0.1237 0.2372,-0.35884 0.318109,-0.52253 l 0.147107,-0.29764 0.229676,0.21826 c 0.52953,0.50321 1.035997,0.75188 1.716049,0.84258 0.29915,0.0399 1.548394,0.0156 2.067697,-0.0402 0.209974,-0.0226 0.386439,-0.0364 0.392145,-0.0307 0.0057,0.006 -0.107646,0.18117 -0.251894,0.38993 -0.307667,0.44525 -0.588167,0.88323 -0.588167,0.91837 0,0.0294 -0.310035,0.49377 -0.770735,1.15452 -1.785414,2.56068 -2.354264,3.67311 -2.678882,5.23875 -0.07989,0.38532 -0.211872,1.25015 -0.278606,1.82562 -0.04873,0.42024 -0.05026,0.42586 -0.208304,0.7673 -0.278102,0.6008 -0.568875,1.45127 -0.770657,2.25405 -0.163553,0.6507 -0.231107,1.2606 -0.187312,1.69114 0.03404,0.33466 0.09386,0.53603 0.280859,0.94545 l 0.143118,0.31335 -0.315565,0.82436 c -0.725424,1.89504 -0.786285,2.12878 -1.182596,4.54175 -0.659729,4.01682 -1.130646,5.99721 -2.22405,9.35302 -0.463916,1.42383 -0.615591,1.98334 -0.777039,2.86643 -0.05836,0.31923 -0.119758,0.62047 -0.136432,0.6694 -0.04272,0.12535 -0.140162,0.25918 -0.421183,0.57844 -0.710677,0.80739 -0.975545,1.22329 -1.314292,2.06375 -0.433142,1.07467 -0.520705,1.66563 -0.27918,1.88421 0.08448,0.0765 0.286649,0.15256 0.450835,0.16972 l 0.156364,0.0163 -0.116107,0.37377 c -0.275181,0.88585 -0.350684,1.24973 -0.353461,1.70345 -0.0017,0.27627 0.0038,0.30977 0.07583,0.46303 0.04271,0.0909 0.117482,0.20388 0.166157,0.25116 0.116392,0.11304 0.332088,0.19185 0.525078,0.19185 0.358261,0 0.897115,-0.22016 1.339385,-0.54725 0.263307,-0.19473 0.801848,-0.70876 0.967468,-0.92344 l 0.10639,-0.1379 0.243592,0.18197 c 0.274894,0.20534 0.611627,0.38427 1.566509,0.83236 1.721318,0.80776 2.788626,1.24206 3.930103,1.5992 1.153942,0.36104 1.700873,0.43795 3.094584,0.43517 1.124207,-0.002 2.012708,-0.0742 3.094687,-0.25044 0.16683,-0.0272 0.306266,-0.0465 0.309856,-0.0429 0.0036,0.004 -0.07338,0.0404 -0.17104,0.0817 -0.966197,0.40908 -1.931998,1.12616 -2.675288,1.98632 -0.233771,0.27053 -0.823874,1.00155 -1.153247,1.42865 -1.418794,1.83975 -3.444611,4.32997 -4.842933,5.95313 -0.351017,0.40746 -0.85073,0.99087 -1.110473,1.29646 -0.602271,0.70859 -1.01937,1.16929 -1.747587,1.9303 -1.542393,1.61186 -1.751467,1.85527 -1.997159,2.32517 -0.244543,0.4677 -0.304131,0.68346 -0.5675,2.05484 -0.09642,0.50205 -0.258806,1.27 -0.360867,1.70656 -0.55183,2.36045 -0.555997,2.43166 -0.380028,6.49553 0.276527,6.38617 0.492891,9.23988 0.872746,11.51101 0.09009,0.53865 0.221686,1.2077 0.289266,1.47069 l 0.03499,0.13617 -0.138021,0.32685 c -0.161342,0.38206 -0.256231,0.57819 -0.279736,0.57819 -0.0092,0 -0.113269,-0.0896 -0.231193,-0.19919 z m 18.803091,-0.25022 c 1.135735,-0.74577 2.502475,-1.91643 4.092123,-3.50507 1.873483,-1.87228 2.505366,-2.76364 3.780128,-5.33239 0.821341,-1.65507 1.506302,-3.25305 2.370298,-5.52977 0.54868,-1.44582 0.72175,-1.85548 0.94841,-2.2449 0.13529,-0.23244 0.42656,-0.90061 0.42684,-0.97917 0,-0.0211 0.0403,-6e-4 0.0981,0.0502 0.0539,0.0473 0.17237,0.12083 0.2633,0.16338 0.14521,0.0679 0.19498,0.0774 0.40906,0.0774 0.22602,0 0.25758,-0.007 0.4344,-0.0942 0.44081,-0.21786 0.79507,-0.7604 1.03181,-1.58022 0.0816,-0.28275 0.24787,-1.18071 0.29193,-1.57708 0.0101,-0.0909 0.026,-0.16537 0.0353,-0.16537 0.009,0 0.062,0.0306 0.11711,0.0681 0.18339,0.12462 0.31261,0.16884 0.49521,0.16945 0.41668,0.001 0.73745,-0.16095 1.36276,-0.68972 l 0.24139,-0.20412 0.0577,0.17927 c 0.0785,0.24365 0.17399,0.36525 0.38212,0.48648 0.19093,0.11121 0.19753,0.12207 0.30795,0.50696 0.0782,0.2727 0.30877,1.23514 0.35652,1.48844 0.0227,0.12041 0.054,0.35258 0.0696,0.51594 0.0373,0.39019 0.0367,3.11394 -8e-4,3.77894 -0.14202,2.51763 -0.97548,6.22578 -2.04164,9.0834 -0.5568,1.49241 -1.04437,2.54086 -1.70829,3.67348 l -0.19774,0.33735 -0.51996,-0.001 c -0.28598,-7e-4 -0.63468,-0.0105 -0.77488,-0.0219 -0.22993,-0.0186 -0.26883,-0.0297 -0.39688,-0.11398 -0.17873,-0.11761 -0.42539,-0.21541 -0.69758,-0.27662 -0.17104,-0.0385 -0.32341,-0.0472 -0.79375,-0.0454 -0.66774,0.003 -0.890236,0.0265 -1.587503,0.17101 -1.078426,0.22346 -2.091489,0.3964 -3.783542,0.64588 -1.565658,0.23085 -1.915387,0.3027 -2.313638,0.47538 -0.27899,0.12096 -0.306689,0.12837 -1.033341,0.27649 -0.356526,0.0727 -0.909928,0.1861 -1.229783,0.25207 -0.780854,0.16104 -0.794859,0.15995 -0.492734,-0.0384 z m 17.744139,-22.11293 c 0.0117,-0.0546 0.024,-0.22563 0.0274,-0.38014 0.004,-0.20433 0.0186,-0.30491 0.0517,-0.36894 0.025,-0.0484 0.26235,-0.43992 0.52737,-0.87002 0.96961,-1.57362 1.27441,-2.09992 1.30882,-2.26 0.0309,-0.14363 0.0491,-0.47589 0.0949,-1.7319 l 0.038,-1.04032 0.21606,-0.45458 c 0.60489,-1.27265 0.75058,-1.72321 0.68773,-2.1269 -0.0711,-0.45648 -0.53927,-0.7005 -0.88713,-0.46237 -0.16005,0.10956 -0.27299,0.30102 -0.65841,1.11605 -0.632,1.33651 -0.7056,1.6154 -0.75857,2.87473 -0.0487,1.15907 -0.0819,1.34566 -0.33298,1.87454 -0.208,0.43814 -1.00266,1.69755 -1.44154,2.28461 -0.15211,0.20347 -1.0795,1.2077 -1.09811,1.18909 -0.005,-0.005 0.0158,-0.0792 0.0451,-0.16605 0.0735,-0.21756 0.0741,-0.52172 0.001,-0.66317 -0.10026,-0.19501 -0.22922,-0.28133 -0.67366,-0.45094 -0.47064,-0.1796 -0.74927,-0.35973 -1.1576,-0.74837 -0.22382,-0.21302 -0.22463,-0.21428 -0.16919,-0.26075 0.0306,-0.0257 0.19733,-0.15578 0.37042,-0.28909 0.699,-0.53836 1.48511,-1.26994 1.73953,-1.61884 0.0725,-0.0995 0.1445,-0.23938 0.17661,-0.34335 0.0923,-0.29885 0.15569,-1.03847 0.19765,-2.30657 0.0272,-0.82282 0.0669,-1.43618 0.10951,-1.69177 0.0235,-0.14083 0.0982,-0.40354 0.17132,-0.60228 0.20444,-0.55558 0.24618,-0.72708 0.24661,-1.01325 3e-4,-0.20596 -0.01,-0.27047 -0.0559,-0.35719 -0.1161,-0.21847 -0.285,-0.31473 -0.52537,-0.29942 -0.13026,0.008 -0.18528,0.0262 -0.26326,0.0857 -0.17825,0.13595 -0.43606,0.58396 -0.85384,1.48373 l -0.18428,0.39688 -0.0166,1.44198 c -0.0195,1.69936 -0.0455,2.22548 -0.11774,2.38793 -0.0678,0.15233 -0.36529,0.46439 -0.79737,0.83635 -0.82873,0.71343 -1.60198,1.24784 -2.01776,1.39454 l -0.10062,0.0355 v -0.36533 -0.36534 l -0.12088,-0.28833 c -0.0665,-0.15859 -0.14403,-0.37259 -0.17233,-0.47556 -0.0283,-0.10297 -0.10604,-0.32919 -0.17278,-0.50271 -0.2293,-0.59615 -0.27697,-0.73311 -0.34357,-0.98702 -0.11831,-0.45111 -0.17073,-0.89207 -0.18781,-1.57995 l -0.0158,-0.63753 0.41039,-0.6457 c 0.91996,-1.44748 0.99769,-1.60788 1.05497,-2.17718 0.0616,-0.61233 -0.0293,-1.23055 -0.39945,-2.71509 -0.0707,-0.28376 -0.19488,-0.79831 -0.27587,-1.14342 l -0.14726,-0.62748 3e-4,-0.48377 c 6e-4,-1.2168 0.14388,-2.97825 0.33296,-4.09441 0.0511,-0.30191 0.0944,-0.655 0.0974,-0.79467 0.005,-0.22241 -0.003,-0.2685 -0.0642,-0.40027 -0.0821,-0.17592 -0.35638,-0.46645 -0.518,-0.5487 -0.26876,-0.13679 -0.38707,-0.14789 -1.568216,-0.14714 -1.658874,0.001 -2.509673,0.0896 -3.704166,0.38536 -1.215403,0.30099 -2.420668,0.77868 -4.7625,1.88759 -0.995387,0.47133 -1.395942,0.61969 -2.883959,1.06813 -1.894974,0.57108 -2.295501,0.65538 -3.968749,0.8353 -1.361528,0.1464 -1.530112,0.15795 -2.328335,0.15945 -0.716498,0.001 -0.772596,-0.002 -1.126094,-0.071 -1.162009,-0.22608 -3.23656,-0.98834 -4.552838,-1.67287 -0.848295,-0.44116 -1.236411,-0.74682 -1.508849,-1.1883 -0.289078,-0.46844 -0.777399,-1.17705 -0.857707,-1.24462 -0.105993,-0.0892 -0.178253,-0.10531 -0.31137,-0.0695 -0.164001,0.0442 -0.230356,0.12079 -0.35659,0.4118 -0.07832,0.18054 -0.169199,0.33289 -0.284703,0.47727 -0.09331,0.11664 -0.252341,0.3512 -0.353393,0.52124 -0.101053,0.17004 -0.2351,0.37794 -0.297883,0.462 -0.192876,0.25823 -0.589948,0.63967 -0.589948,0.56672 0,-0.11398 0.499588,-1.41239 0.777575,-2.0209 0.235108,-0.51464 0.292757,-0.70975 0.273256,-0.9248 -0.03432,-0.3785 -0.299261,-0.57824 -0.716153,-0.53993 l -0.181259,0.0167 0.09738,-0.17718 c 0.214576,-0.39037 0.642451,-0.86054 0.892802,-0.98107 0.239343,-0.11521 0.336676,-0.20413 0.789458,-0.72116 1.066491,-1.21783 2.164525,-2.38395 2.808905,-2.98307 0.869296,-0.80824 1.966162,-1.7057 2.243032,-1.83526 0.06549,-0.0306 0.256178,-0.15921 0.423762,-0.28571 0.498087,-0.37599 0.921788,-0.57811 1.69763,-0.80982 0.789914,-0.23592 1.404703,-0.31949 2.17669,-0.29588 0.928926,0.0284 1.714614,0.19168 2.726607,0.56658 0.370583,0.13728 0.663318,0.26437 2.301875,0.99933 1.633767,0.73282 2.825318,1.13083 3.95552,1.32124 0.849038,0.14304 1.419927,0.16283 6.151563,0.2133 5.625847,0.06 6.565207,0.0882 7.111327,0.21352 1.15287,0.26453 1.50186,0.44153 2.18371,1.10748 0.57655,0.56311 0.66336,0.7288 1.04088,1.98673 0.13102,0.43656 0.30287,0.99989 0.38188,1.25185 0.079,0.25196 0.19675,0.66867 0.26162,0.92604 0.0649,0.25737 0.16049,0.59295 0.21247,0.74575 0.052,0.1528 0.15453,0.48617 0.22791,0.74083 0.2098,0.72819 1.21212,3.69333 2.14652,6.35 0.43501,1.23682 0.5279,1.59085 0.57966,2.20928 0.0387,0.46289 -0.008,1.11095 -0.16754,2.34156 -0.10674,0.82142 -0.10848,0.84811 -0.12056,1.85123 -0.0136,1.12584 0.0109,1.62189 0.11305,2.29703 0.0359,0.23697 0.0652,0.47443 0.0652,0.5277 0,0.0876 -0.17984,0.88744 -0.31988,1.42269 -0.16006,0.6117 -0.59604,1.87134 -0.78096,2.25634 -0.0786,0.1637 -0.12163,0.21572 -0.28671,0.3469 -0.40691,0.32336 -0.65731,0.44164 -1.65628,0.78234 -0.72787,0.24825 -0.84549,0.30317 -0.97752,0.45648 -0.0952,0.11059 -0.31774,0.29795 -0.35435,0.29839 -0.0131,3e-4 -0.014,-0.0433 -0.002,-0.0989 z m -7.8752,-12.59763 c -0.736826,-0.74877 -0.892436,-0.89384 -1.108505,-1.03343 -0.507738,-0.32802 -1.097899,-0.57359 -1.779543,-0.74049 -1.71205,-0.41919 -3.331554,-0.41933 -6.541603,-6e-4 -1.209368,0.15777 -1.961864,0.3007 -3.133788,0.59522 -0.428451,0.10767 -0.78268,0.19209 -0.787178,0.18759 -0.01027,-0.0103 0.625771,-0.78772 1.141561,-1.39535 0.72627,-0.85558 0.968113,-1.22723 1.008393,-1.54962 0.04478,-0.35843 -0.164156,-0.63455 -0.537141,-0.70985 l -0.138571,-0.028 0.442841,-0.12941 c 1.511631,-0.44175 2.102975,-0.67159 3.935341,-1.52956 1.828523,-0.85617 2.271649,-1.03158 3.466042,-1.37204 1.168056,-0.33295 1.593445,-0.38093 3.872641,-0.43681 0.73047,-0.0179 0.75016,-0.017 0.73591,0.0321 -0.0802,0.27642 -0.20289,1.08898 -0.30729,2.03485 -0.16826,1.52446 -0.19674,1.88618 -0.19792,2.51355 -0.001,0.72074 -3e-4,0.7276 0.314,2.03729 0.32297,1.34582 0.52524,2.34228 0.48386,2.38366 -0.007,0.007 -0.39762,-0.38007 -0.86905,-0.85915 z m 9.68884,-13.27912 c -0.27067,-0.76547 -0.7269,-1.40653 -1.48215,-2.08262 -0.7456,-0.66746 -1.22021,-0.90953 -2.22499,-1.13482 -1.24439,-0.27902 -1.8795,-0.30858 -7.764893,-0.36141 -3.022819,-0.0271 -4.667213,-0.0602 -5.278437,-0.10626 -0.9124,-0.0687 -1.995419,-0.34351 -3.042708,-0.77209 -0.600904,-0.2459 -1.878542,-0.86767 -1.878542,-0.91419 0,-0.0697 0.386215,-1.46395 0.635545,-2.29442 0.633124,-2.10879 1.144365,-3.30667 1.882958,-4.41193 l 0.20775,-0.31088 h 0.107927 c 0.143263,0 0.271332,-0.0641 0.365344,-0.18277 0.0423,-0.0534 0.201057,-0.33477 0.352785,-0.62524 0.665192,-1.27345 1.150996,-1.95954 2.062551,-2.9129 0.370936,-0.38795 0.472268,-0.51132 0.681697,-0.82992 0.223342,-0.33978 0.462438,-0.8421 0.673769,-1.41553 0.314381,-0.85304 0.415383,-1.10228 0.696944,-1.71979 0.639477,-1.40246 0.698204,-1.56993 0.946375,-2.69875 0.04799,-0.21828 0.08813,-0.37833 0.0892,-0.35567 0.0043,0.0908 0.112752,0.93304 0.163351,1.26849 0.181354,1.20227 0.424911,1.8078 0.811842,2.0184 0.248894,0.13546 0.578541,0.11832 0.904891,-0.0471 0.07298,-0.037 0.132461,-0.0581 0.13217,-0.047 -3e-4,0.0112 -0.01818,0.18103 -0.03977,0.37748 -0.0678,0.61717 -0.0784,1.1673 -0.02802,1.45521 0.0811,0.46346 0.356904,1.19662 0.78237,2.07969 0.365051,0.75768 0.683891,1.26958 0.887521,1.42489 0.36692,0.27987 0.79177,0.23926 1.13998,-0.10896 0.0905,-0.0905 0.14783,-0.13071 0.15563,-0.10919 0.007,0.0187 0.0544,0.29603 0.10582,0.61617 0.0514,0.32015 0.11161,0.64506 0.13377,0.72204 0.10356,0.35959 0.50666,0.50184 0.90362,0.31886 0.27278,-0.12574 0.64307,-0.58453 0.96355,-1.19382 l 0.15616,-0.29687 -0.0186,0.14552 c -0.0102,0.08 -0.0193,0.81227 -0.0202,1.62719 -0.001,1.32422 0.003,1.50067 0.0444,1.6605 0.0856,0.33305 0.22073,0.5291 0.4228,0.61351 0.125,0.0522 0.39092,0.0529 0.51426,0.001 0.0522,-0.0218 0.0995,-0.0397 0.10498,-0.0397 0.005,0 0.01,0.12422 0.01,0.27606 0,0.21217 0.0214,0.38002 0.0925,0.72526 0.18058,0.87675 0.44661,1.46389 1.07165,2.36519 0.12369,0.17836 0.30824,0.40931 0.4101,0.51321 0.22214,0.22658 0.34469,0.27424 0.70519,0.27424 h 0.23256 l 0.0535,0.17859 c 0.0294,0.0982 0.13113,0.54173 0.22598,0.98557 0.25591,1.19755 0.299,1.30473 0.57984,1.44213 0.29828,0.14594 0.58629,0.11703 0.94654,-0.095 0.25135,-0.14793 0.40663,-0.31157 0.61763,-0.65085 0.10429,-0.1677 0.19125,-0.28233 0.20073,-0.26458 0.009,0.0172 0.0547,0.18014 0.10118,0.36204 0.29704,1.16297 0.50798,1.69502 0.78869,1.98932 0.18285,0.1917 0.37115,0.28749 0.60145,0.30598 l 0.17205,0.0138 -0.0577,0.0956 c -0.26403,0.43717 -1.29641,1.67879 -1.81154,2.17871 l -0.12899,0.12519 z m -35.535888,-1.59201 c 0,-0.0484 0.09139,-0.34456 0.608775,-1.97276 0.245082,-0.77126 0.530346,-1.68208 0.633921,-2.02406 0.283341,-0.93551 0.34102,-1.10531 0.453865,-1.33614 0.272791,-0.55802 0.642648,-2.36001 0.909618,-4.43178 0.196925,-1.5282 0.243204,-1.72487 0.846728,-3.59833 0.574123,-1.7822 0.726602,-2.32233 0.795465,-2.81781 0.04934,-0.35502 0.103711,-0.5138 0.421292,-1.23031 0.261515,-0.59002 0.448148,-0.96289 0.82383,-1.64589 0.165742,-0.30132 0.393381,-0.73443 0.505865,-0.96245 0.186048,-0.37716 0.20433,-0.42837 0.202445,-0.56706 -0.0025,-0.18043 -0.08711,-0.34668 -0.241226,-0.47372 -0.357922,-0.29503 -0.733766,-0.25101 -1.059341,0.12408 -0.200822,0.23137 -0.319825,0.34625 -0.459362,0.44345 -0.06331,0.0441 -0.159945,0.14437 -0.214743,0.2228 -0.0548,0.0784 -0.09948,0.1257 -0.09929,0.10502 2e-4,-0.0207 0.113893,-0.31739 0.252674,-0.65936 0.631201,-1.55535 0.619896,-1.52006 0.617882,-1.92878 -0.0027,-0.54556 0.236369,-1.58616 0.517263,-2.25164 0.399204,-0.94576 1.455807,-2.59682 3.713031,-5.80201 0.317493,-0.45083 0.183162,-0.33718 1.229533,-1.04024 0.716383,-0.48134 1.351711,-0.77243 2.329481,-1.06731 0.757875,-0.228556 1.036571,-0.276896 1.592397,-0.276186 0.390795,5e-4 0.523225,0.011 0.738042,0.0585 0.569577,0.1259 1.07374,0.334196 1.710579,0.706756 0.796251,0.46581 0.921674,0.53223 1.065975,0.56453 0.416975,0.0933 1.393986,0.94697 2.305145,2.01412 0.532506,0.62366 0.733078,0.8449 1.329055,1.46598 l 0.507754,0.52914 -0.177025,0.0952 c -0.224517,0.12078 -0.330105,0.26649 -0.373441,0.51533 -0.01671,0.0959 -0.04134,0.71274 -0.05475,1.37068 -0.02825,1.38652 0.01936,1.06539 -0.461764,3.11447 -0.754775,3.21454 -0.789207,3.33596 -1.628249,5.74146 -0.311494,0.89304 -0.318373,0.90429 -1.005803,1.64486 -0.661413,0.71253 -1.189815,1.35945 -2.081855,2.54879 -0.349263,0.46566 -0.71533,0.94082 -0.81348,1.0559 -0.223965,0.26261 -0.278482,0.34923 -0.394232,0.62644 -0.05114,0.12246 -0.21168,0.46673 -0.356761,0.76505 -0.784958,1.61403 -1.465387,3.53354 -2.005344,5.65714 -0.09364,0.36826 -0.107833,0.40396 -0.155932,0.39213 -0.0291,-0.007 -0.226049,-0.0729 -0.437658,-0.1461 -1.622009,-0.56107 -3.485562,-0.7767 -4.622105,-0.53484 -1.193037,0.25388 -2.641079,0.80769 -3.182009,1.21697 -0.09459,0.0716 -0.247859,0.20892 -0.340601,0.30523 -0.111899,0.1162 -0.383361,0.32334 -0.806979,0.61578 -1.552254,1.07155 -1.966769,1.44311 -2.871936,2.57432 -0.279212,0.34894 -0.266734,0.33525 -0.266734,0.29265 z m 37.654688,-2.10536 c -0.23715,-0.30149 -0.52005,-1.30881 -0.90275,-3.21438 -0.0831,-0.41372 -0.39248,-0.58312 -0.75591,-0.41388 -0.24791,0.11545 -0.38128,0.30223 -0.84703,1.18623 -0.14331,0.27199 -0.26862,0.48955 -0.27848,0.48346 -0.01,-0.006 -0.026,-0.0738 -0.0359,-0.15058 -0.0595,-0.46149 -0.29974,-1.27806 -0.49165,-1.67087 -0.22628,-0.46316 -0.51481,-0.60452 -0.95458,-0.46764 -0.11424,0.0356 -0.17996,0.0437 -0.21224,0.0265 -0.0938,-0.0502 -0.39857,-0.49604 -0.55074,-0.80559 -0.20527,-0.41756 -0.33416,-0.8261 -0.4299,-1.36261 -0.06,-0.33633 -0.0449,-1.41973 0.0282,-2.02406 0.0335,-0.27649 0.062,-0.62177 0.0635,-0.76729 0.002,-0.2422 -0.004,-0.27603 -0.0711,-0.39988 -0.0956,-0.17539 -0.23846,-0.26191 -0.3919,-0.23737 -0.2264,0.0362 -0.33392,0.14292 -0.52501,0.52109 -0.056,0.11073 -0.17648,0.30053 -0.26784,0.42178 -0.15373,0.20402 -0.16745,0.21563 -0.18414,0.15585 -0.0466,-0.16682 -0.0114,-0.87568 0.0851,-1.71496 l 0.0559,-0.48621 0.13956,-0.21494 c 0.59476,-0.91598 0.89357,-2.12109 0.89304,-3.60161 -5e-4,-1.38857 -0.25979,-2.61924 -0.77662,-3.68598 -0.14771,-0.30487 -0.213,-0.40882 -0.33494,-0.5333 -0.23967,-0.24465 -0.4937,-0.28084 -0.68977,-0.0983 -0.20556,0.19139 -0.18928,0.49764 0.0747,1.40582 0.33936,1.16739 0.47709,2.0321 0.47639,2.99095 -4e-4,0.53205 -0.0224,0.72286 -0.0637,0.55169 -0.029,-0.1203 -0.17689,-0.31847 -0.28162,-0.37733 l -0.0964,-0.0542 -0.0182,-0.53625 c -0.0458,-1.34785 -0.17402,-2.50993 -0.3126,-2.83206 -0.18785,-0.43667 -0.71738,-0.37951 -0.85265,0.0921 -0.0485,0.16897 -0.0825,0.79734 -0.12021,2.21697 -0.0611,2.3034 -0.12424,3.07778 -0.2893,3.5481 l -0.0501,0.14284 -0.0317,-0.0865 c -0.11557,-0.31497 -0.33037,-0.68179 -0.51282,-0.87574 -0.38607,-0.41039 -0.926,-0.28462 -1.3021,0.30332 l -0.0995,0.15549 -0.16715,-0.3436 c -0.22497,-0.46248 -0.38465,-0.84446 -0.55841,-1.3358 -0.13463,-0.38069 -0.14596,-0.43134 -0.15798,-0.70621 -0.0303,-0.69317 0.14564,-2.10234 0.49492,-3.96369 0.16485,-0.87847 0.19576,-1.13203 0.15895,-1.30368 -0.0799,-0.37261 -0.53745,-0.46276 -0.85442,-0.16835 -0.0927,0.0861 -0.248446,0.35293 -0.349554,0.59891 -0.10423,0.25357 -0.189732,0.39194 -0.496705,0.8038 -0.335579,0.45026 -0.562358,0.69315 -0.597429,0.63988 -0.04249,-0.0645 -0.128598,-0.44759 -0.184758,-0.82191 -0.128731,-0.85802 -0.205494,-2.17842 -0.269553,-4.63657 l -0.02947,-1.13084 0.108284,-0.12301 c 0.275693,-0.31321 0.194974,-0.57118 -0.40131,-1.2826 -0.557553,-0.66521 -1.055568,-1.29862 -1.229143,-1.56331 -0.17772,-0.27102 -0.264837,-0.36005 -0.439496,-0.44915 -0.133133,-0.0679 -0.36662,-0.30125 -0.882494,-0.88192 -0.855096,-0.96249 -1.564635,-1.50694 -3.024643,-2.320896 -0.777986,-0.43373 -1.502846,-0.77379 -2.103437,-0.9868 -0.521404,-0.18492 -0.72439,-0.23144 -0.962798,-0.22061 -0.189547,0.009 -0.219461,0.0176 -0.316256,0.0954 l -0.106905,0.0859 h -0.326456 c -0.381093,0 -0.781796,0.0454 -1.515502,0.17169 -1.094544,0.1884 -2.207985,0.43289 -2.751667,0.60421 -0.40578,0.12787 -1.676233,0.33781 -2.500313,0.41318 -0.383144,0.035 -0.920912,0.0355 -1.230312,10e-4 -0.77907,-0.0867 -1.268378,-0.44122 -1.971396,-1.42827 -0.184176,-0.25859 -0.239242,-0.3567 -0.252445,-0.44979 -0.06484,-0.45721 -0.166544,-0.68367 -0.421993,-0.93969 -0.215099,-0.21558 -0.444128,-0.34584 -0.794735,-0.45201 -0.208364,-0.0631 -0.283693,-0.0721 -0.620786,-0.0743 -0.291381,-0.002 -0.424364,0.009 -0.552956,0.0443 -0.09312,0.0257 -0.173507,0.0426 -0.178636,0.0375 -0.0051,-0.005 -0.03909,-0.24049 -0.07546,-0.52302 -0.03638,-0.28253 -0.09235,-0.67918 -0.124379,-0.88144 l -0.05824,-0.36775 0.08898,-0.0743 c 0.122344,-0.10214 0.655217,-0.37155 1.64153,-0.82991 0.989496,-0.45985 1.284415,-0.61816 1.47426,-0.79138 0.194959,-0.17789 0.275105,-0.32319 0.291595,-0.52861 0.02505,-0.31203 -0.07998,-0.53231 -0.596529,-1.25112 -0.393192,-0.54714 -0.613701,-0.91563 -0.613701,-1.02553 0,-0.0224 0.09432,-0.0279 0.346621,-0.02 0.673367,0.021 1.579391,-0.0716 2.172702,-0.22198 0.673751,-0.17079 1.674817,-0.53377 2.204401,-0.7993 1.240243,-0.62186 1.80217,-1.38897 2.485372,-3.39288 0.321364,-0.9426 0.52183,-1.70642 0.574165,-2.18768 0.04726,-0.43461 -0.04712,-0.66333 -0.316629,-0.76732 -0.104605,-0.0404 -0.202477,-0.0478 -0.613923,-0.0468 -0.537676,10e-4 -0.836813,0.0391 -1.364757,0.17244 -0.170664,0.0431 -0.315435,0.0732 -0.321714,0.0669 -0.02108,-0.0211 0.506595,-0.57899 0.747199,-0.79002 0.401932,-0.35253 0.831656,-0.61448 1.810895,-1.10386 1.773798,-0.88647 2.299228,-1.18344 3.613064,-2.04206 0.630521,-0.41205 1.155825,-0.72235 1.743004,-1.02958 0.321821,-0.16839 0.566563,-0.31463 0.630648,-0.37682 0.355959,-0.34545 0.227266,-0.79834 -0.254342,-0.89506 -0.251214,-0.0504 -0.54942,0.0166 -1.129662,0.25385 -0.03144,0.0129 -0.02152,-0.0253 0.03882,-0.14936 0.06239,-0.12827 0.08122,-0.20318 0.08178,-0.32538 0.0016,-0.33808 -0.215474,-0.49851 -0.581078,-0.42954 l -0.105833,0.02 0.07937,-0.0428 c 0.236569,-0.12765 0.550582,-0.31732 0.947504,-0.5723 0.63485,-0.40783 0.87692,-0.52115 1.574631,-0.73712 0.32484,-0.10055 0.40173,-0.11674 0.386683,-0.0814 -0.09363,0.21973 -0.380198,1.10496 -0.462671,1.42922 -0.212199,0.83431 -0.34957,1.86789 -0.352174,2.64976 -0.0024,0.70899 0.07335,0.94031 0.368033,1.12448 0.112564,0.0704 0.149786,0.0793 0.327395,0.0785 0.244623,-10e-4 0.373804,-0.0605 0.569804,-0.26212 0.176022,-0.18108 0.329629,-0.48174 0.6091,-1.19222 0.49751,-1.26477 0.709232,-1.78711 0.720008,-1.77633 0.0062,0.006 -0.05578,0.22386 -0.137726,0.4837 -0.326162,1.03418 -0.598464,2.07235 -0.779719,2.97274 -0.165317,0.82121 -0.196877,1.14465 -0.197493,2.02406 -8e-4,1.09932 0.06435,1.4631 0.375393,2.09694 0.181999,0.37089 0.291481,0.48275 0.472467,0.48275 0.225883,0 0.35456,-0.10204 0.535871,-0.42495 0.121169,-0.2158 0.176157,-0.39596 0.297318,-0.97412 0.09722,-0.46391 0.292026,-1.20198 0.363984,-1.37906 0.01939,-0.0477 0.02377,0.0372 0.01574,0.30427 -0.04548,1.51139 -0.03165,2.07219 0.0574,2.32834 0.05946,0.17102 0.286258,0.39996 0.499706,0.5044 0.133961,0.0656 0.190696,0.0777 0.363339,0.0777 0.198855,0 0.205443,0.002 0.235095,0.0737 0.07788,0.18806 0.394079,0.36318 0.654759,0.36263 0.362736,-8e-4 0.743797,-0.37581 1.070859,-1.05397 l 0.139115,-0.28846 0.168061,0.86317 c 0.504037,2.58874 0.720916,3.45038 1.025297,4.07343 0.327965,0.67132 0.875666,0.90349 1.278016,0.54174 0.23283,-0.20934 0.3106,-0.4519 0.37163,-1.15908 0.0176,-0.20373 0.0404,-0.37977 0.0507,-0.39119 0.0103,-0.0114 0.0627,0.0455 0.11648,0.12648 0.13786,0.20763 0.26815,0.32986 0.48471,0.45472 l 0.18769,0.10821 0.16214,-0.0914 c 0.22457,-0.12656 0.32977,-0.24478 0.42772,-0.4807 0.19913,-0.47961 0.50728,-0.9999 0.83685,-1.41295 0.13814,-0.17312 0.14769,-0.17991 0.19411,-0.1379 0.0696,0.0629 0.23634,0.39655 0.38285,0.76576 0.1395,0.35152 0.20291,0.46303 0.33424,0.58769 0.29543,0.28044 0.59139,0.17304 1.3569,-0.49243 0.56733,-0.49318 0.91113,-0.74132 1.62385,-1.17203 l 0.44187,-0.26703 1.15094,-0.002 c 0.97942,-0.002 1.19825,0.005 1.46844,0.0449 0.63778,0.0952 1.09001,0.23807 1.65855,0.52392 l 0.206,0.10358 -0.068,0.15203 c -0.51001,1.14088 -0.7722,2.35656 -0.86019,3.98849 -0.0506,0.93754 -0.006,1.33066 0.18594,1.63284 0.0435,0.0686 0.55342,0.60438 1.13311,1.19063 1.62612,1.64453 1.66567,1.70157 1.7922,2.58494 0.0238,0.16608 0.0604,0.33518 0.0814,0.37579 0.0603,0.1166 0.21128,0.20426 1.17952,0.68484 1.16514,0.57829 1.37123,0.63478 2.31666,0.63495 0.66806,0 1.2388,-0.097 1.57562,-0.2681 0.10701,-0.0544 0.10711,-0.0543 0.0994,0.0816 -0.0143,0.25352 -0.17021,0.57253 -0.39294,0.80421 -0.32555,0.33861 -0.72247,0.51521 -1.52549,0.67873 -0.3758,0.0765 -0.50855,0.12586 -0.62728,0.23314 -0.30853,0.27873 -0.26979,0.596276 0.13944,1.142796 0.24698,0.32985 0.92584,1.00187 1.13352,1.1221 0.19965,0.11558 0.47706,0.21307 0.71693,0.25193 0.21024,0.0341 0.64532,0.0368 0.75706,0.005 0.0675,-0.0194 0.12378,-0.006 0.31733,0.0736 0.30271,0.1249 0.74745,0.36059 1.02351,0.5424 0.19376,0.12761 0.23042,0.16547 0.33967,0.35078 0.10365,0.17582 0.23472,0.44143 0.23472,0.47567 0,0.005 -0.0281,0.01 -0.0625,0.01 -0.0704,0 -0.27521,-0.0822 -0.75571,-0.30349 -0.71549,-0.32944 -1.0209,-0.42462 -1.30458,-0.40655 -0.27582,0.0176 -0.42863,0.16514 -0.4619,0.44611 -0.0357,0.30123 0.0836,0.62831 0.4349,1.19262 0.13045,0.20955 0.354,0.60126 0.49677,0.87047 0.32035,0.60408 0.51496,0.93027 0.78797,1.32078 l 0.21122,0.30214 -0.018,0.61068 c -0.0458,1.55715 -0.12174,2.74076 -0.19154,2.98496 -0.0101,0.0355 -0.10741,-0.0417 -0.42674,-0.33875 -0.48243,-0.44872 -0.69519,-0.5984 -1.00868,-0.70963 -0.20728,-0.0735 -0.2569,-0.0808 -0.54552,-0.0796 -0.3686,0.002 -0.55899,0.0469 -0.70538,0.16825 -0.14175,0.11747 -0.21206,0.28119 -0.21352,0.49721 -0.002,0.23739 0.0553,0.38998 0.25914,0.69436 0.3262,0.48719 0.38192,0.7369 0.38203,1.71206 0,0.61691 -0.0522,1.60732 -0.0952,1.80478 -0.0115,0.0528 -0.0492,-7e-4 -0.21443,-0.30428 -0.43663,-0.80215 -0.50824,-0.86113 -1.1044,-0.90954 -0.18698,-0.0152 -0.36639,-0.0276 -0.39868,-0.0276 h -0.0587 l -0.0151,1.8587 c -0.0148,1.82217 -0.0305,2.30079 -0.11194,3.41974 -0.076,1.04384 -0.15286,1.60818 -0.36939,2.71198 -0.0814,0.41473 -0.21833,1.15292 -0.30439,1.64041 -0.29868,1.69203 -0.5987,2.99988 -0.86409,3.76671 -0.17629,0.50938 -0.49936,1.22491 -1.08278,2.39808 -0.583,1.17234 -0.58627,1.1781 -0.75973,1.34034 -0.32379,0.30283 -0.82422,0.6583 -0.96696,0.68685 -0.0609,0.0122 -0.0869,0.001 -0.13207,-0.0564 z m 11.54721,-39.347776 c -0.047,-1.63592 -0.10283,-1.95873 -0.38234,-2.21125 -0.15906,-0.1437 -0.32197,-0.1793 -0.55446,-0.12118 -0.2052,0.0513 -0.38981,0.26516 -0.74272,0.86035 -0.27067,0.4565 -0.64753,1.0019 -0.75245,1.08898 -0.0346,0.0287 -0.0419,0.006 -0.0562,-0.17332 -0.0235,-0.29452 -0.0653,-0.50803 -0.12088,-0.61697 -0.0447,-0.0876 -0.2024,-0.25016 -0.3332,-0.34342 -0.0549,-0.0391 -0.0554,-0.0482 -0.0353,-0.66145 0.0112,-0.34198 0.0214,-0.90959 0.0226,-1.26136 l 0.002,-0.63958 -0.0693,-0.0824 c -0.10353,-0.12303 -0.19276,-0.15743 -0.48664,-0.18759 -0.43539,-0.0447 -0.67499,0.0263 -0.86372,0.25582 -0.1358,0.16516 -0.26088,0.29047 -0.42884,0.42967 -0.0765,0.0634 -0.18162,0.17926 -0.23349,0.25738 l -0.0943,0.14205 -0.0794,-0.0986 c -0.11523,-0.14314 -0.14026,-0.21658 -0.23253,-0.6823 -0.13603,-0.68654 -0.23085,-0.88088 -0.4895,-1.00324 -0.29875,-0.14133 -1.26058,-0.34303 -2.26102,-0.47415 -0.62732,-0.0822 -1.00913,-0.11459 -1.72313,-0.1461 l -0.54573,-0.0241 -0.27499,-0.14685 c -0.66378,-0.35446 -1.4454,-0.61208 -2.25834,-0.74433 -0.61641,-0.10028 -2.06073,-0.0992 -2.76671,0.002 -0.35811,0.0514 -0.4927,0.10119 -1.12266,0.41551 -0.75008,0.37426 -1.43445,0.77025 -1.74429,1.00929 -0.0571,0.0441 -0.10773,0.0685 -0.11245,0.0544 -0.0215,-0.0644 -0.27926,-0.44167 -0.42567,-0.62302 -0.22522,-0.27895 -0.62893,-0.65754 -0.80117,-0.75131 -0.11339,-0.0617 -0.17624,-0.0782 -0.29309,-0.077 -0.21873,0.002 -0.30662,0.0686 -0.51598,0.38906 -0.0967,0.14809 -0.29855,0.4424 -0.44846,0.65403 -0.14992,0.21163 -0.33778,0.48863 -0.41746,0.61554 l -0.14487,0.23075 -0.0591,-0.24512 c -0.0818,-0.33922 -0.095,-0.75989 -0.0384,-1.22408 0.0539,-0.44245 0.0607,-1.0201 0.0137,-1.16671 -0.0738,-0.23003 -0.22722,-0.35465 -0.43668,-0.35465 -0.22781,0 -0.35263,0.11189 -0.54763,0.49092 -0.15102,0.29354 -0.41955,0.97363 -0.60536,1.53315 l -0.14058,0.42333 -0.125322,-0.62177 c -0.06893,-0.34198 -0.126135,-0.64856 -0.127124,-0.6813 -0.0015,-0.0509 0.01184,-0.0595 0.09186,-0.0595 0.05151,0 0.139806,-0.0235 0.196206,-0.0523 0.19688,-0.10044 0.27866,-0.27453 0.41042,-0.87373 0.23003,-1.04606 0.54432,-1.86943 1.26244,-3.30729 0.43774,-0.87648 0.72012,-1.38969 1.96531,-3.57187 1.65346,-2.89767 2.05637,-3.63313 2.10174,-3.83646 0.087,-0.38991 -0.27628,-0.66724 -0.63678,-0.48611 -0.0828,0.0416 -0.18933,0.16979 -0.4187,0.50388 l -0.16661,0.24268 -0.0778,-0.0575 c -0.1249,-0.0922 -0.35777,-0.0792 -0.57591,0.0322 -0.6121,0.31263 -2.51737,1.82193 -3.61526,2.86391 -0.860856,0.817 -1.465165,1.50827 -2.119085,2.424 -0.140745,0.19709 -0.259937,0.34624 -0.264872,0.33144 -0.01748,-0.0525 0.397735,-1.65264 0.592307,-2.28267 0.176644,-0.57198 0.617479,-1.61399 1.040995,-2.46062 0.783255,-1.56577 1.530135,-2.81005 3.062365,-5.10179 0.47016,-0.7032 0.88436,-1.33682 0.92044,-1.40802 0.0366,-0.0722 0.0656,-0.17526 0.0656,-0.23289 0,-0.0613 0.0367,-0.18406 0.0904,-0.30169 0.16847,-0.36969 0.23173,-0.61296 0.24601,-0.94603 0.0124,-0.28837 -0.004,-0.41871 -0.0855,-0.67961 -0.0158,-0.0506 -0.005,-0.0605 0.0838,-0.0794 0.056,-0.0119 0.19262,-0.0215 0.30355,-0.0215 0.24281,0 0.23193,-0.007 0.78864,0.48435 1.322,1.16603 1.79862,1.40712 3.12217,1.5793 0.18093,0.0235 0.46073,0.0707 0.62177,0.10482 0.16105,0.0341 0.36192,0.0701 0.44639,0.0799 0.13443,0.0157 0.15693,0.0267 0.18041,0.0885 0.0148,0.0388 0.0566,0.10959 0.093,0.1573 l 0.0662,0.0867 -0.0673,0.0799 c -0.085,0.10104 -0.12909,0.26196 -0.10578,0.38623 0.0218,0.11603 0.16682,0.28397 0.30709,0.35552 l 0.1016,0.0518 -0.0777,0.0984 c -0.18753,0.23731 -0.14124,0.53495 0.10581,0.68047 0.0799,0.0471 0.13515,0.0527 0.49994,0.0508 l 0.41011,-0.002 5e-4,0.22699 c 7e-4,0.32388 0.05,0.44415 0.30347,0.74094 0.21521,0.25197 0.26719,0.32712 0.49216,0.71143 0.0708,0.12098 0.18455,0.28593 0.25273,0.36657 0.0682,0.0806 0.19345,0.27851 0.27838,0.43972 0.186,0.35306 0.37635,0.57079 0.60228,0.68891 l 0.16068,0.084 0.53513,-0.002 0.53514,-0.002 -0.0961,0.0545 c -0.33321,0.18889 -0.36369,0.62932 -0.0539,0.77927 0.28351,0.13724 0.90918,0.008 1.65183,-0.34169 0.34291,-0.16139 0.6196,-0.34229 1.05268,-0.68827 0.62001,-0.49531 0.97559,-0.75304 1.19062,-0.863 0.20694,-0.10582 0.37387,-0.16448 0.34933,-0.12276 -0.007,0.0115 -0.063,0.10425 -0.12505,0.20611 -0.062,0.10187 -0.13487,0.2368 -0.1619,0.29985 -0.0567,0.13235 -0.0647,0.38224 -0.0153,0.47988 0.0518,0.10237 0.19656,0.18608 0.32064,0.18542 0.18883,-10e-4 0.30258,-0.0774 0.63086,-0.42347 l 0.30936,-0.32615 0.13978,0.0748 c 0.0769,0.0412 0.19336,0.11048 0.25884,0.15407 0.0655,0.0436 0.23813,0.14423 0.38365,0.22367 0.33221,0.18136 0.56399,0.35203 0.77141,0.56803 0.17124,0.17833 0.37549,0.47413 0.46124,0.668 l 0.0514,0.11617 -0.13931,0.13034 c -0.0766,0.0717 -0.30005,0.27357 -0.4965,0.44862 -0.56031,0.49928 -0.8175,0.81657 -1.04573,1.29012 -0.20309,0.4214 -0.30363,0.79972 -0.30363,1.14256 0,0.0919 -0.0113,0.16712 -0.0251,0.16712 -0.0237,0 -0.32714,-0.10754 -0.67122,-0.23789 -0.10323,-0.0391 -0.14951,-0.07 -0.14042,-0.0936 0.007,-0.0194 0.039,-0.17602 0.07,-0.34799 0.0719,-0.39788 0.11823,-0.50041 0.32268,-0.71394 0.22677,-0.23684 0.40945,-0.36166 0.91743,-0.62688 0.23853,-0.12453 0.46291,-0.25371 0.49861,-0.28705 0.11549,-0.10786 0.15432,-0.22288 0.14326,-0.42436 -0.007,-0.12022 -0.17173,-0.27794 -0.34319,-0.32779 -0.27297,-0.0794 -0.71523,0.0241 -1.26153,0.29524 -0.78449,0.38929 -1.37363,1.15153 -1.45656,1.88452 l -0.0177,0.15671 -0.17377,-0.0631 c -0.29218,-0.10606 -0.85684,-0.24483 -1.22773,-0.30174 -0.45828,-0.0703 -1.53795,-0.0978 -1.99433,-0.0508 -0.58718,0.0605 -0.99408,0.20503 -1.3669,0.48552 -0.0834,0.0627 -0.36913,0.30555 -0.635,0.53959 -0.60718,0.5345 -0.63066,0.55341 -1.46235,1.17741 -0.37836,0.28387 -0.75043,0.56646 -0.82683,0.62797 l -0.1389,0.11184 -6e-4,-0.29991 c -0.001,-0.4469 -0.0428,-0.57109 -0.23723,-0.70339 -0.16496,-0.11228 -0.36661,-0.0646 -0.5434,0.12838 -0.22319,0.24367 -0.51302,0.93458 -0.56922,1.35695 -0.0191,0.14389 -0.0264,0.59156 -0.0203,1.26382 l 0.009,1.041 0.0716,0.19784 c 0.18023,0.49769 0.54693,0.84166 0.92657,0.86912 0.52322,0.0378 0.75011,-0.43043 0.49133,-1.01404 -0.17544,-0.39566 -0.1907,-0.59036 -0.0705,-0.89987 l 0.0615,-0.15847 0.0152,0.34396 c 0.0134,0.30369 0.0235,0.36011 0.0859,0.48189 0.0389,0.0759 0.10837,0.18079 0.15436,0.23317 0.2812,0.32027 1.05255,0.6787 1.99346,0.92633 0.64796,0.17053 1.04367,0.23673 1.96257,0.32833 l 0.50736,0.0506 0.52451,0.4397 c 0.95889,0.80381 1.24726,0.96002 2.03397,1.10182 0.30645,0.0552 0.40529,0.0575 3.21336,0.0753 l 2.89719,0.0183 0.43134,0.16348 c 0.74761,0.28333 1.09728,0.37426 1.94991,0.50702 0.29104,0.0453 0.70181,0.12311 0.91281,0.17286 0.60004,0.14149 0.81485,0.16064 1.36739,0.12193 0.26254,-0.0184 0.74113,-0.0778 1.08001,-0.13416 0.41143,-0.0684 0.61914,-0.0927 0.64125,-0.075 0.0504,0.0403 0.21864,0.39059 0.21864,0.45523 0,0.13281 -0.43801,0.56391 -0.66146,0.65101 -0.23971,0.0934 -0.34803,0.20632 -0.38395,0.40008 -0.0258,0.13948 0.042,0.34366 0.19403,0.5839 0.18089,0.28584 0.22961,0.45015 0.22961,0.77432 0,0.25592 -0.004,0.27318 -0.11741,0.5273 -0.20218,0.4524 -0.57612,1.04247 -1.08264,1.70842 -0.27704,0.36424 -0.61483,0.77363 -0.6277,0.76076 -0.005,-0.005 0.0508,-0.17882 0.12288,-0.38732 0.25492,-0.73707 0.37007,-1.32231 0.37112,-1.88615 0.001,-0.58531 -0.0812,-0.91729 -0.29153,-1.17646 -0.31833,-0.39222 -0.7525,-0.40189 -1.12828,-0.0251 -0.29458,0.29536 -0.54522,0.70675 -1.5328,2.51586 -0.38131,0.6985 -0.7175,1.30962 -0.74708,1.35806 l -0.0538,0.088 -0.0166,-0.57753 z m -24.275488,-8.73122 c -0.150516,-0.87369 -0.223673,-1.08333 -0.475967,-1.36394 -0.222549,-0.24753 -0.44129,-0.33624 -0.694954,-0.28184 -0.113112,0.0243 -0.164246,0.0557 -0.281943,0.1734 l -0.143769,0.14378 0.01752,-0.15365 c 0.04289,-0.37608 0.03439,-0.35651 0.202454,-0.46572 0.219292,-0.14249 0.321614,-0.26425 1.060691,-1.2622 0.87834,-1.18599 1.790776,-2.16477 2.959926,-3.17513 0.7614,-0.65799 1.61317,-1.36503 1.61317,-1.33907 0,0.008 -0.11131,0.19044 -0.24736,0.4056 -0.368,0.582 -0.97177,1.56356 -1.33917,2.17714 -1.16097,1.9389 -2.070507,3.87768 -2.484321,5.29562 l -0.100452,0.3442 z m 30.225988,-1.20227 c -1.14188,-0.0861 -2.17916,-0.20345 -2.6634,-0.30144 -0.43341,-0.0877 -0.64598,-0.1552 -1.04077,-0.33049 -0.18918,-0.084 -0.38851,-0.16691 -0.44295,-0.18424 -0.13672,-0.0435 -0.34234,-0.20179 -0.76133,-0.58599 -0.4971,-0.45584 -0.60334,-0.54204 -0.9653,-0.78324 -0.17463,-0.11636 -0.46038,-0.32434 -0.635,-0.46217 -0.54572,-0.43073 -0.66606,-0.49403 -1.07214,-0.56395 -0.42654,-0.0734 -0.47715,-0.0905 -0.46178,-0.15544 0.007,-0.031 0.0358,-0.18148 0.0632,-0.33427 0.13629,-0.75976 0.37645,-1.00933 1.60646,-1.66944 0.67053,-0.35985 0.9242,-0.51455 1.0786,-0.65778 0.22557,-0.20924 0.28297,-0.43581 0.16811,-0.66358 -0.0711,-0.14098 -0.23578,-0.23712 -0.4062,-0.23712 -0.14901,0 -0.53668,0.10323 -0.92768,0.24702 -0.84297,0.31001 -1.23106,0.54986 -1.8667,1.15366 -0.6479,0.61545 -0.83929,0.9728 -0.84047,1.56927 -3e-4,0.12733 -0.0102,0.23151 -0.0222,0.23151 -0.0492,0 -0.2693,-0.0859 -0.2693,-0.10508 0,-0.0114 0.0197,-0.0371 0.0438,-0.0571 0.069,-0.0572 0.1128,-0.18899 0.13221,-0.39781 0.0155,-0.16714 0.0416,-0.23965 0.19548,-0.54393 0.24886,-0.49204 0.38127,-0.64432 1.11019,-1.27672 0.43422,-0.37673 0.54204,-0.49375 0.62809,-0.68171 0.0613,-0.13392 0.0654,-0.16653 0.0529,-0.42651 -0.0237,-0.49556 -0.23371,-1.0509 -0.54177,-1.43244 -0.24421,-0.30248 -0.78871,-0.81992 -1.02554,-0.97458 -0.11639,-0.076 -0.43488,-0.25149 -0.70777,-0.38997 -0.28083,-0.14251 -0.49615,-0.26755 -0.49615,-0.28812 0,-0.02 -0.006,-0.0529 -0.0141,-0.0731 -0.0109,-0.0283 0.0693,-0.0532 0.35035,-0.1089 0.71325,-0.1412 1.40041,-0.4238 1.78042,-0.73221 0.10914,-0.0886 0.35322,-0.27782 0.54239,-0.42055 0.18918,-0.14272 0.43624,-0.3457 0.54902,-0.45105 0.17242,-0.16107 0.20505,-0.18216 0.20505,-0.13257 0,0.0631 0.45377,0.66022 0.91416,1.20302 0.33711,0.39744 1.01828,1.06438 1.40094,1.37167 0.37792,0.30348 0.83977,0.60983 0.99973,0.66312 0.16953,0.0565 0.41295,0.0522 0.65213,-0.0114 0.37505,-0.0997 0.34786,-0.11115 0.87472,0.36724 0.38343,0.34815 0.58483,0.49281 0.78316,0.56252 0.17046,0.0599 0.40506,0.0641 0.58205,0.0104 0.18852,-0.0572 0.22842,-0.0506 0.29258,0.0485 0.0621,0.0959 0.16053,0.35318 0.14069,0.36764 -0.45637,0.33249 -0.51932,0.39786 -0.59087,0.61353 -0.0919,0.27705 -0.0577,0.40226 0.31252,1.14257 0.29912,0.59818 0.39545,0.73429 0.62175,0.87846 0.0808,0.0515 0.35532,0.24467 0.60998,0.4293 1.08973,0.79005 1.40344,0.9352 2.01083,0.9304 0.16735,-0.001 0.36976,-0.0138 0.44979,-0.0277 0.08,-0.0139 0.14925,-0.0218 0.15381,-0.0175 0.0305,0.0288 -0.75794,1.6367 -0.97561,1.98978 -0.35397,0.57419 -1.17517,1.39905 -1.63891,1.64622 -0.14164,0.0755 -0.17099,0.0812 -0.40049,0.0777 -0.13621,-0.002 -0.37862,-0.0136 -0.53869,-0.0257 z m -33.056887,-0.42085 c -0.0077,-0.32918 0.10101,-1.62848 0.182918,-2.18583 0.08891,-0.605 0.06739,-0.79878 -0.104778,-0.94365 -0.06735,-0.0567 -0.112234,-0.0715 -0.216112,-0.0715 -0.206803,0 -0.305459,0.059 -0.5949,0.3556 -0.330073,0.33828 -0.56765,0.63085 -0.811863,0.99979 -0.10333,0.15611 -0.191402,0.28031 -0.195712,0.27599 -0.01004,-0.01 0.243107,-0.97197 0.387538,-1.47263 0.173434,-0.6012 0.584448,-1.82061 0.780327,-2.3151 0.413801,-1.04464 0.79987,-1.73345 1.505194,-2.68552 0.582731,-0.78659 0.706154,-1.01471 0.722921,-1.33615 0.0096,-0.18489 0.0034,-0.2248 -0.04974,-0.31551 -0.143886,-0.24584 -0.423212,-0.28517 -0.797396,-0.11229 -0.499197,0.23064 -1.454875,0.87722 -1.901592,1.28656 -0.09597,0.0879 -0.181959,0.15989 -0.191087,0.15989 -0.02617,0 0.158437,-0.28166 0.355504,-0.5424 0.382072,-0.50552 0.545383,-0.65309 1.772645,-1.60181 0.537903,-0.41581 1.214932,-1.00692 1.352352,-1.18071 0.06712,-0.0849 0.267398,-0.36208 0.445061,-0.61598 0.177662,-0.2539 0.402119,-0.56293 0.498792,-0.68673 l 0.175773,-0.2251 0.02167,0.10431 c 0.04826,0.23228 0.202022,0.35634 0.441662,0.35634 0.25462,0 0.3512,-0.0805 0.79514,-0.66275 0.27388,-0.35922 0.77171,-0.8758 1.08496,-1.12583 0.31024,-0.24762 0.47711,-0.36251 0.49727,-0.34235 0.0102,0.0102 0.0185,0.12174 0.0185,0.2479 -1e-5,0.22479 -0.003,0.23561 -0.15037,0.54058 -0.22326,0.46206 -0.48285,0.88468 -0.81588,1.32828 -1.03694,1.38123 -2.750135,4.24155 -3.491381,5.82917 -0.862216,1.84671 -1.191918,3.17092 -1.664808,6.68656 -0.02829,0.21028 -0.05104,0.31875 -0.05263,0.2509 z m -12.094261,-3.92334 c 0,-0.0215 0.443264,-0.34403 0.714376,-0.51985 0.138245,-0.0897 0.477573,-0.2747 0.754063,-0.41123 0.276489,-0.13652 0.799523,-0.42147 1.162296,-0.63322 0.362773,-0.21174 0.663043,-0.38154 0.667266,-0.37731 0.0042,0.004 -0.02975,0.1023 -0.07551,0.21795 -0.06593,0.16666 -0.08358,0.25142 -0.08509,0.4087 -0.0017,0.17438 0.0071,0.21231 0.07232,0.31282 0.141587,0.21822 0.462159,0.29856 0.812999,0.20377 0.277548,-0.075 0.274627,-0.0664 -0.02751,0.0812 -0.662176,0.32336 -1.216703,0.49584 -1.862503,0.57929 -0.408649,0.0528 -2.132707,0.16428 -2.132707,0.1379 z m 0.157584,-2.16614 c -0.137604,-0.0993 -0.313142,-0.20433 -0.390087,-0.23349 -0.166101,-0.063 -0.393018,-0.0688 -0.525477,-0.0134 -0.09359,0.0391 -0.09459,0.0389 -0.07698,-0.0198 0.03954,-0.13175 0.04858,-0.52018 0.01415,-0.6075 -0.04576,-0.11605 -0.148148,-0.2248 -0.277207,-0.29444 -0.09394,-0.0507 -0.144497,-0.0568 -0.449792,-0.0542 -0.524698,0.004 -0.647038,0.062 -1.125104,0.52995 l -0.278437,0.27255 6e-4,-0.23258 c 6e-4,-0.21223 -0.0056,-0.24076 -0.07064,-0.32619 -0.09799,-0.12872 -0.238992,-0.19163 -0.41434,-0.18486 -0.196326,0.008 -0.374902,0.0999 -0.618681,0.32 -0.127833,0.1154 -0.242094,0.19498 -0.304271,0.21193 -0.162507,0.0443 -0.619337,0.1604 -0.631047,0.1604 -0.0059,0 0.032,-0.0596 0.08434,-0.13246 0.05234,-0.0729 0.117807,-0.19205 0.145476,-0.26487 0.06122,-0.16111 0.06637,-0.43904 0.01062,-0.57248 -0.02183,-0.0522 -0.03969,-0.0965 -0.03969,-0.0984 -10e-7,-0.002 0.943569,-0.003 2.096823,-0.003 1.884183,-6e-5 2.192077,-0.006 3.036096,-0.06 1.699094,-0.10841 2.250485,-0.13633 3.241146,-0.1641 1.126559,-0.0316 1.670444,-0.061 2.487084,-0.13472 1.319649,-0.11909 1.68834,-0.1967 2.634265,-0.55457 0.192646,-0.0729 0.354944,-0.12783 0.360659,-0.12212 0.0161,0.0161 -0.225809,0.22283 -0.398764,0.34076 -0.26434,0.18025 -0.623922,0.33201 -1.363512,0.57545 -0.991674,0.32642 -1.065678,0.36108 -1.822947,0.85366 -0.2228,0.14492 -0.411668,0.25692 -0.419701,0.24889 -0.008,-0.008 6e-4,-0.0778 0.01915,-0.15495 0.0461,-0.19164 0.04246,-0.41444 -0.0084,-0.51235 -0.06503,-0.12523 -0.205102,-0.24784 -0.317825,-0.27819 -0.196549,-0.0529 -0.819727,0.0901 -1.688452,0.38762 -0.772438,0.26451 -1.149892,0.43285 -1.717302,0.76591 -0.167349,0.0982 -0.447671,0.25824 -0.622938,0.35557 l -0.318668,0.17696 -0.250187,-0.18046 z m -4.271854,-2.88128 c -2.169224,-0.0558 -3.3342,-0.22501 -4.047187,-0.58767 l -0.212605,-0.10814 0.687917,-0.0977 c 1.415159,-0.201 2.220139,-0.40147 3.254375,-0.81046 1.00501,-0.39743 2.405893,-1.08677 3.823229,-1.88129 0.298317,-0.16724 0.732897,-0.41088 0.96573,-0.54143 0.517654,-0.29025 1.157279,-0.6149 1.944687,-0.98703 2.023364,-0.95627 3.749813,-2.02416 7.011459,-4.33694 1.750152,-1.241 2.150469,-1.50584 2.698374,-1.78518 0.417078,-0.21263 0.523174,-0.25232 1.971521,-0.73739 1.382866,-0.46314 1.805088,-0.58868 2.774218,-0.82483 1.69991,-0.41422 2.39436,-0.49047 4.27693,-0.46962 0.5748,0.006 1.071,0.0205 1.10266,0.0315 0.0323,0.0112 0.16978,0.18044 0.31363,0.38626 0.3834,0.54858 0.65903,0.87974 1.02419,1.23055 0.99947,0.96019 1.61927,1.14944 3.764,1.14934 2.21088,0 5.55097,-0.2732 7.15697,-0.58515 0.89451,-0.17376 1.31808,-0.29981 2.00157,-0.59568 0.0174,-0.008 0.0444,0.0299 0.0631,0.0879 0.0625,0.19304 0.25671,0.58057 0.57992,1.15707 0.34399,0.61359 0.63648,1.17435 0.63584,1.21903 -3e-4,0.0147 -0.0622,0.0566 -0.13768,0.093 -0.34979,0.16852 -0.45998,0.61253 -0.25826,1.04066 0.068,0.14426 0.26769,0.37416 0.40814,0.46982 0.0866,0.059 0.0937,0.074 0.0938,0.19842 3e-4,0.10778 0.0268,0.18904 0.13352,0.40732 0.32216,0.65878 0.45405,1.03037 0.51588,1.45347 l 0.0442,0.3021 -0.11313,0.21384 c -0.22829,0.43151 -0.58255,0.88853 -0.68873,0.88853 -0.0628,0 -0.0631,0.004 0.0138,-0.13557 0.14467,-0.26157 0.16085,-0.37568 0.16085,-1.13443 0,-0.63857 -0.005,-0.72582 -0.0619,-0.97763 -0.11375,-0.50821 -0.23867,-0.75819 -0.45213,-0.90478 -0.0737,-0.0506 -0.12324,-0.0619 -0.26459,-0.0603 -0.38423,0.004 -0.6455,0.2637 -1.01835,1.01081 l -0.14893,0.29842 -0.10848,-0.0868 c -0.0597,-0.0477 -0.27937,-0.28475 -0.48823,-0.52674 -0.53576,-0.62077 -0.77712,-0.82049 -1.17525,-0.97252 -0.11865,-0.0453 -0.23641,-0.0824 -0.26169,-0.0824 -0.0695,0 -0.35447,0.20968 -0.46376,0.34125 -0.0532,0.064 -0.12703,0.16819 -0.16415,0.23152 -0.0371,0.0633 -0.0769,0.10932 -0.0885,0.10218 -0.0115,-0.007 -0.12373,-0.20435 -0.2493,-0.43825 -0.4411,-0.82167 -0.7468,-1.2628 -1.16467,-1.68066 -0.31398,-0.31397 -0.57144,-0.46328 -0.83124,-0.48208 -0.41373,-0.0299 -0.74317,0.23884 -0.82512,0.67314 -0.0421,0.223 -0.0226,0.45209 0.0843,0.98886 0.0463,0.23248 0.0778,0.42897 0.0701,0.43666 -0.008,0.008 -0.14601,-0.0851 -0.30738,-0.2062 -0.70872,-0.53184 -1.28534,-0.78998 -1.5846,-0.7094 -0.13316,0.0358 -0.31507,0.22409 -0.3388,0.35057 l -0.0166,0.0886 -0.28268,-0.13896 c -0.46359,-0.22788 -0.94661,-0.33929 -1.18767,-0.27392 -0.31996,0.0868 -0.43897,0.43891 -0.2742,0.81139 0.0305,0.0688 0.05,0.13049 0.0435,0.13703 -0.007,0.007 -0.11735,-0.0124 -0.24625,-0.0421 -0.67904,-0.15635 -1.2844,-0.17834 -1.52955,-0.0556 -0.0707,0.0354 -0.1648,0.11009 -0.2092,0.16601 -0.0741,0.0933 -0.0807,0.11826 -0.0807,0.30427 0,0.15951 0.0133,0.2296 0.0625,0.32958 0.11571,0.23501 0.38302,0.46118 0.86523,0.73209 l 0.21339,0.11988 -0.33245,-0.007 c -0.81539,-0.0164 -1.5495,-0.0975 -1.98609,-0.21946 -0.43481,-0.12147 -0.9099,-0.40841 -1.66688,-1.00675 -0.5264,-0.41608 -0.66031,-0.50138 -0.92995,-0.59236 -0.17563,-0.0593 -0.28343,-0.077 -0.52526,-0.0866 -0.70659,-0.0279 -1.36094,0.19407 -2.19656,0.745 -0.18982,0.12515 -0.35458,0.22754 -0.36613,0.22754 -0.0115,0 -0.0484,-0.0292 -0.0819,-0.0648 -0.15919,-0.16944 -0.54465,-0.24554 -0.82743,-0.16333 -0.2306,0.067 -0.52669,0.28495 -0.956625,0.70407 -0.461547,0.44993 -0.819952,0.85973 -1.528556,1.74774 -0.60823,0.76222 -0.825299,0.99837 -1.227659,1.3356 -0.625017,0.52383 -1.570099,1.19505 -2.02265,1.43653 -0.391189,0.20874 -1.797844,0.73235 -2.711452,1.0093 -0.450035,0.13643 -0.849982,0.21936 -2.165726,0.44906 -1.229352,0.21461 -1.780585,0.24756 -4.899176,0.29279 -1.992807,0.0289 -3.884436,0.0282 -5.053542,-0.002 z m 32.770178,-0.0419 c -0.0448,-0.0569 -0.18674,-0.45143 -0.18674,-0.51892 0,-0.01 0.0506,0.004 0.11245,0.0306 0.44455,0.19037 1.27119,0.22944 2.02886,0.0959 0.1227,-0.0216 0.22716,-0.0352 0.23214,-0.0303 0.016,0.016 -0.65976,0.27617 -0.86533,0.33323 -0.29637,0.0823 -0.80508,0.15963 -1.04979,0.15964 -0.20262,0 -0.21988,-0.004 -0.27159,-0.0702 z m 5.22132,-3.09627 c -0.11495,-0.0826 -0.34382,-0.23103 -0.50861,-0.3298 -0.52064,-0.31205 -0.67791,-0.43779 -1.5657,-1.25179 -0.25466,-0.2335 -0.52035,-0.47305 -0.59042,-0.53234 l -0.12741,-0.1078 0.0772,-0.0827 c 0.14888,-0.15937 0.21792,-0.5998 0.21991,-1.40296 7e-4,-0.26758 0.005,-0.48242 0.009,-0.47742 0.0366,0.0407 0.25802,0.42928 0.44999,0.78961 0.4273,0.80203 0.51909,0.92231 0.80311,1.05233 0.12293,0.0563 0.17046,0.0637 0.33775,0.053 0.29313,-0.0188 0.47805,-0.12027 0.76081,-0.4174 l 0.22595,-0.23743 0.57787,0.56188 c 0.44703,0.43466 0.61663,0.58228 0.74909,0.65196 0.0942,0.0495 0.25389,0.14307 0.35495,0.20785 0.15941,0.10217 0.19753,0.11591 0.28791,0.10379 l 0.10416,-0.014 -0.0142,0.40144 c -0.0151,0.4267 -0.0729,0.72178 -0.19252,0.98352 l -0.0605,0.13229 -0.002,-0.19844 c -0.005,-0.42187 -0.23103,-0.66293 -0.58894,-0.62854 -0.21697,0.0208 -0.34601,0.13574 -0.77435,0.68948 -0.20219,0.26138 -0.23865,0.26504 -0.53306,0.0534 z m 7.45069,-0.003 c 0,-0.14084 -0.0824,-1.32555 -0.10711,-1.54019 -0.0863,-0.74965 -0.29944,-1.11547 -0.67443,-1.15774 -0.10914,-0.0123 -0.1206,-0.0198 -0.10653,-0.0696 0.009,-0.0307 0.0299,-0.17804 0.0472,-0.32738 0.0368,-0.31776 0.009,-0.51072 -0.098,-0.67191 -0.0812,-0.12265 -0.23873,-0.2075 -0.3853,-0.2075 h -0.10921 l 0.0164,-0.0992 c 0.0254,-0.15382 -0.0277,-0.56759 -0.0919,-0.71705 -0.0534,-0.12415 -0.2077,-0.29441 -0.4044,-0.44626 -0.041,-0.0317 -0.0869,-0.10228 -0.10203,-0.15724 -0.0252,-0.0914 -0.0305,-0.0957 -0.0627,-0.0516 -0.0399,0.0546 -0.0358,0.0556 -0.1999,-0.0476 l -0.12166,-0.0765 -0.0178,-0.49143 -0.0178,-0.49143 -0.35988,-0.60381 c -0.19793,-0.33209 -0.35328,-0.6104 -0.34522,-0.61846 0.008,-0.008 0.20297,0.13941 0.43314,0.3277 0.76019,0.62188 1.34509,1.07054 2.07214,1.58949 l 0.38364,0.27384 1.74625,-0.0119 c 1.90049,-0.0129 1.88803,-0.0122 3.175,-0.19323 0.52944,-0.0745 4.38862,-0.70776 4.67674,-0.76742 0.0888,-0.0184 0.0734,-0.0535 -0.0336,-0.077 -0.0435,-0.009 -0.0791,-0.0267 -0.0791,-0.0381 0,-0.0223 0.23914,-0.0622 0.25827,-0.0431 0.0491,0.0491 -0.17174,0.66216 -0.41063,1.13962 -0.45965,0.91867 -0.83751,1.42847 -1.69826,2.29127 -0.78151,0.78337 -1.78107,1.57404 -2.99782,2.37132 -0.68323,0.44769 -1.13819,0.68003 -1.54394,0.78848 -0.17847,0.0477 -0.96928,0.10436 -2.00814,0.14389 -0.90743,0.0345 -0.83343,0.0363 -0.83343,-0.0199 z m 10.67588,-5.90057 c 0.01,-0.0247 0.0537,-0.18185 0.0976,-0.3492 0.0439,-0.16735 0.0827,-0.30737 0.0862,-0.31115 0.0107,-0.0115 1.08329,0.0492 1.12594,0.0637 0.0427,0.0145 -0.25729,0.16446 -0.92173,0.46068 -0.29126,0.12985 -0.40078,0.16823 -0.38802,0.13599 z m -45.574422,-0.10472 c 0,-0.0144 0.06402,-0.16244 0.142264,-0.32897 0.326292,-0.69443 0.391943,-0.94377 0.296892,-1.12758 -0.08836,-0.17087 -0.406146,-0.24563 -0.809572,-0.19047 -0.26093,0.0357 -0.869643,0.18816 -1.361583,0.34108 -0.188616,0.0586 -0.346165,0.10336 -0.350113,0.0994 -0.0113,-0.0113 0.371652,-0.47753 0.655011,-0.79744 0.822917,-0.92907 2.752569,-2.6393 4.178085,-3.703 0.995889,-0.74311 1.618581,-1.08928 2.475151,-1.376 0.307583,-0.10296 1.323731,-0.38444 1.613344,-0.44692 l 0.07937,-0.0171 -0.0917,0.0728 c -0.05043,0.04 -0.237075,0.18822 -0.414761,0.32932 -1.292709,1.02656 -2.823302,2.56067 -4.760018,4.77095 -0.586494,0.66934 -0.673417,0.80111 -0.673417,1.02087 0,0.21028 0.147187,0.36222 0.378793,0.39103 l 0.13212,0.0164 -0.685406,0.44729 c -0.376971,0.246 -0.712192,0.46466 -0.744934,0.4859 -0.03274,0.0212 -0.05953,0.0268 -0.05953,0.0124 z m 3.034837,-2.28813 c 1.991194,-1.96019 2.255639,-2.21549 2.666934,-2.57468 0.803473,-0.7017 1.283309,-1.06622 2.69875,-2.05023 1.020601,-0.70951 1.487061,-1.04365 2.103441,-1.50678 0.60151,-0.45196 0.91007,-0.67478 1.71979,-1.24193 l 0.7276,-0.50963 0.43656,0.0171 c 0.62316,0.0245 1.26015,0.0803 2.27542,0.19937 0.85009,0.0997 1.24267,0.13831 2.28865,0.22511 0.6852,0.0569 1.03303,0.10462 2.22192,0.30508 l 1.05891,0.17856 -0.46302,0.004 c -1.19663,0.01 -1.83292,0.078 -3.11685,0.3343 -2.00293,0.39985 -3.62545,0.85909 -5.44242,1.54044 -1.30335,0.48874 -2.22936,0.90393 -2.51073,1.12572 -0.25202,0.19865 -0.25157,0.54197 9e-4,0.70844 0.16205,0.10684 0.36758,0.0687 1.43471,-0.26591 1.29505,-0.40612 2.19343,-0.60224 3.5754,-0.78049 0.64378,-0.083 3.93079,-0.44166 4.85511,-0.52971 2.43898,-0.23232 4.60628,-0.22703 6.07218,0.0148 1.09649,0.18091 1.85482,0.46777 3.21469,1.21605 0.23283,0.12812 0.45596,0.241 0.49584,0.25086 0.23228,0.0574 0.8482,1.00031 0.84888,1.29957 7e-4,0.29061 -0.46444,0.71699 -1.06686,0.97805 -0.45529,0.19731 -1.31319,0.35609 -3.3338,0.61703 -1.78876,0.23099 -3.85446,0.31279 -6.09864,0.24148 -0.81368,-0.0259 -0.86238,-0.0378 -1.27,-0.31223 -0.25346,-0.17061 -0.94384,-0.80483 -0.91149,-0.83731 0.008,-0.008 0.40091,-0.002 0.87313,0.0139 0.98285,0.0327 4.96669,0.0131 5.96502,-0.0293 1.01744,-0.0432 1.45044,-0.0904 2.19605,-0.2392 0.9739,-0.19443 1.48188,-0.40491 1.6185,-0.67064 0.0236,-0.0458 0.0943,-0.14076 0.15722,-0.21094 0.1239,-0.13823 0.15693,-0.24198 0.13605,-0.42725 -0.0157,-0.13971 -0.0863,-0.244 -0.23457,-0.3467 -0.10992,-0.0761 -0.1174,-0.0774 -0.45791,-0.0761 -0.32747,0.001 -0.37976,0.009 -0.96794,0.15078 -0.93527,0.22486 -1.47488,0.31741 -2.30188,0.39482 -0.46587,0.0436 -2.3858,0.0442 -3.18822,0.001 -3.63008,-0.1955 -5.51873,-0.22899 -7.77875,-0.13795 -2.5971,0.10462 -3.30299,0.21747 -5.027086,0.80363 -2.060848,0.70065 -3.099652,1.08068 -3.505729,1.28251 -0.292286,0.14526 -1.088195,0.63186 -2.306902,1.41037 -0.315633,0.20162 -0.581113,0.36659 -0.589955,0.36659 -0.0088,0 0.410141,-0.41958 0.931069,-0.9324 z"
       id="path1490" />
  </g>
</svg>
