%FSLAX45Y45*%
G04 Gerber Fmt 4.5, Leading zero omitted, Abs format (unit mm)*
G04 Created by KiCad (PCBNEW (5.1.5)-3) date 2019-12-28 19:55:43*
%MOMM*%
%LPD*%
G04 APERTURE LIST*
%TA.AperFunction,Profile*%
%ADD10C,0.150000*%
%TD*%
%ADD11C,0.200000*%
%ADD12C,0.300000*%
G04 APERTURE END LIST*
D10*
X17208500Y-7683500D02*
X14097000Y-7683500D01*
X17208500Y-10477500D02*
X17208500Y-7683500D01*
X14097000Y-10477500D02*
X17208500Y-10477500D01*
X14097000Y-7683500D02*
X14097000Y-10477500D01*
D11*
X14715490Y-7920990D02*
X14748510Y-7954010D01*
X14748510Y-7920990D02*
X14715490Y-7954010D01*
X14715490Y-10206990D02*
X14748510Y-10240010D01*
X14748510Y-10206990D02*
X14715490Y-10240010D01*
X15096490Y-9063990D02*
X15129510Y-9097010D01*
X15129510Y-9063990D02*
X15096490Y-9097010D01*
X15477490Y-7920990D02*
X15510510Y-7954010D01*
X15510510Y-7920990D02*
X15477490Y-7954010D01*
X15477490Y-10206990D02*
X15510510Y-10240010D01*
X15510510Y-10206990D02*
X15477490Y-10240010D01*
X16809000Y-8128000D02*
G75*
G03X16809000Y-8128000I-45000J0D01*
G01*
X16809000Y-8382000D02*
G75*
G03X16809000Y-8382000I-45000J0D01*
G01*
X16319500Y-8522500D02*
X16319500Y-8622500D01*
X16269500Y-8572500D02*
X16369500Y-8572500D01*
X16319500Y-8776500D02*
X16319500Y-8876500D01*
X16269500Y-8826500D02*
X16369500Y-8826500D01*
X16319500Y-9030500D02*
X16319500Y-9130500D01*
X16269500Y-9080500D02*
X16369500Y-9080500D01*
X16319500Y-9284500D02*
X16319500Y-9384500D01*
X16269500Y-9334500D02*
X16369500Y-9334500D01*
X16319500Y-9538500D02*
X16319500Y-9638500D01*
X16269500Y-9588500D02*
X16369500Y-9588500D01*
D12*
X14375928Y-10950714D02*
X14375928Y-10650714D01*
X14447357Y-10650714D01*
X14490214Y-10665000D01*
X14518786Y-10693572D01*
X14533071Y-10722143D01*
X14547357Y-10779286D01*
X14547357Y-10822143D01*
X14533071Y-10879286D01*
X14518786Y-10907857D01*
X14490214Y-10936429D01*
X14447357Y-10950714D01*
X14375928Y-10950714D01*
X14675928Y-10950714D02*
X14675928Y-10750714D01*
X14675928Y-10807857D02*
X14690214Y-10779286D01*
X14704500Y-10765000D01*
X14733071Y-10750714D01*
X14761643Y-10750714D01*
X14861643Y-10950714D02*
X14861643Y-10750714D01*
X14861643Y-10650714D02*
X14847357Y-10665000D01*
X14861643Y-10679286D01*
X14875928Y-10665000D01*
X14861643Y-10650714D01*
X14861643Y-10679286D01*
X15047357Y-10950714D02*
X15018786Y-10936429D01*
X15004500Y-10907857D01*
X15004500Y-10650714D01*
X15204500Y-10950714D02*
X15175928Y-10936429D01*
X15161643Y-10907857D01*
X15161643Y-10650714D01*
X15547357Y-10950714D02*
X15547357Y-10650714D01*
X15647357Y-10865000D01*
X15747357Y-10650714D01*
X15747357Y-10950714D01*
X16018786Y-10950714D02*
X16018786Y-10793572D01*
X16004500Y-10765000D01*
X15975928Y-10750714D01*
X15918786Y-10750714D01*
X15890214Y-10765000D01*
X16018786Y-10936429D02*
X15990214Y-10950714D01*
X15918786Y-10950714D01*
X15890214Y-10936429D01*
X15875928Y-10907857D01*
X15875928Y-10879286D01*
X15890214Y-10850714D01*
X15918786Y-10836429D01*
X15990214Y-10836429D01*
X16018786Y-10822143D01*
X16161643Y-10750714D02*
X16161643Y-11050714D01*
X16161643Y-10765000D02*
X16190214Y-10750714D01*
X16247357Y-10750714D01*
X16275928Y-10765000D01*
X16290214Y-10779286D01*
X16304500Y-10807857D01*
X16304500Y-10893572D01*
X16290214Y-10922143D01*
X16275928Y-10936429D01*
X16247357Y-10950714D01*
X16190214Y-10950714D01*
X16161643Y-10936429D01*
X16433071Y-10922143D02*
X16447357Y-10936429D01*
X16433071Y-10950714D01*
X16418786Y-10936429D01*
X16433071Y-10922143D01*
X16433071Y-10950714D01*
X16433071Y-10765000D02*
X16447357Y-10779286D01*
X16433071Y-10793572D01*
X16418786Y-10779286D01*
X16433071Y-10765000D01*
X16433071Y-10793572D01*
X14056480Y-11428490D02*
X14089500Y-11461510D01*
X14089500Y-11428490D02*
X14056480Y-11461510D01*
X14433071Y-11280714D02*
X14461643Y-11280714D01*
X14490214Y-11295000D01*
X14504500Y-11309286D01*
X14518786Y-11337857D01*
X14533071Y-11395000D01*
X14533071Y-11466429D01*
X14518786Y-11523571D01*
X14504500Y-11552143D01*
X14490214Y-11566429D01*
X14461643Y-11580714D01*
X14433071Y-11580714D01*
X14404500Y-11566429D01*
X14390214Y-11552143D01*
X14375928Y-11523571D01*
X14361643Y-11466429D01*
X14361643Y-11395000D01*
X14375928Y-11337857D01*
X14390214Y-11309286D01*
X14404500Y-11295000D01*
X14433071Y-11280714D01*
X14661643Y-11552143D02*
X14675928Y-11566429D01*
X14661643Y-11580714D01*
X14647357Y-11566429D01*
X14661643Y-11552143D01*
X14661643Y-11580714D01*
X14775928Y-11280714D02*
X14961643Y-11280714D01*
X14861643Y-11395000D01*
X14904500Y-11395000D01*
X14933071Y-11409286D01*
X14947357Y-11423571D01*
X14961643Y-11452143D01*
X14961643Y-11523571D01*
X14947357Y-11552143D01*
X14933071Y-11566429D01*
X14904500Y-11580714D01*
X14818786Y-11580714D01*
X14790214Y-11566429D01*
X14775928Y-11552143D01*
X15061643Y-11280714D02*
X15247357Y-11280714D01*
X15147357Y-11395000D01*
X15190214Y-11395000D01*
X15218786Y-11409286D01*
X15233071Y-11423571D01*
X15247357Y-11452143D01*
X15247357Y-11523571D01*
X15233071Y-11552143D01*
X15218786Y-11566429D01*
X15190214Y-11580714D01*
X15104500Y-11580714D01*
X15075928Y-11566429D01*
X15061643Y-11552143D01*
X15375928Y-11580714D02*
X15375928Y-11380714D01*
X15375928Y-11409286D02*
X15390214Y-11395000D01*
X15418786Y-11380714D01*
X15461643Y-11380714D01*
X15490214Y-11395000D01*
X15504500Y-11423571D01*
X15504500Y-11580714D01*
X15504500Y-11423571D02*
X15518786Y-11395000D01*
X15547357Y-11380714D01*
X15590214Y-11380714D01*
X15618786Y-11395000D01*
X15633071Y-11423571D01*
X15633071Y-11580714D01*
X15775928Y-11580714D02*
X15775928Y-11380714D01*
X15775928Y-11409286D02*
X15790214Y-11395000D01*
X15818786Y-11380714D01*
X15861643Y-11380714D01*
X15890214Y-11395000D01*
X15904500Y-11423571D01*
X15904500Y-11580714D01*
X15904500Y-11423571D02*
X15918786Y-11395000D01*
X15947357Y-11380714D01*
X15990214Y-11380714D01*
X16018786Y-11395000D01*
X16033071Y-11423571D01*
X16033071Y-11580714D01*
X16618786Y-11266429D02*
X16361643Y-11652143D01*
X17004500Y-11280714D02*
X17033071Y-11280714D01*
X17061643Y-11295000D01*
X17075928Y-11309286D01*
X17090214Y-11337857D01*
X17104500Y-11395000D01*
X17104500Y-11466429D01*
X17090214Y-11523571D01*
X17075928Y-11552143D01*
X17061643Y-11566429D01*
X17033071Y-11580714D01*
X17004500Y-11580714D01*
X16975928Y-11566429D01*
X16961643Y-11552143D01*
X16947357Y-11523571D01*
X16933071Y-11466429D01*
X16933071Y-11395000D01*
X16947357Y-11337857D01*
X16961643Y-11309286D01*
X16975928Y-11295000D01*
X17004500Y-11280714D01*
X17233071Y-11552143D02*
X17247357Y-11566429D01*
X17233071Y-11580714D01*
X17218786Y-11566429D01*
X17233071Y-11552143D01*
X17233071Y-11580714D01*
X17433071Y-11280714D02*
X17461643Y-11280714D01*
X17490214Y-11295000D01*
X17504500Y-11309286D01*
X17518786Y-11337857D01*
X17533071Y-11395000D01*
X17533071Y-11466429D01*
X17518786Y-11523571D01*
X17504500Y-11552143D01*
X17490214Y-11566429D01*
X17461643Y-11580714D01*
X17433071Y-11580714D01*
X17404500Y-11566429D01*
X17390214Y-11552143D01*
X17375928Y-11523571D01*
X17361643Y-11466429D01*
X17361643Y-11395000D01*
X17375928Y-11337857D01*
X17390214Y-11309286D01*
X17404500Y-11295000D01*
X17433071Y-11280714D01*
X17818786Y-11580714D02*
X17647357Y-11580714D01*
X17733071Y-11580714D02*
X17733071Y-11280714D01*
X17704500Y-11323571D01*
X17675928Y-11352143D01*
X17647357Y-11366429D01*
X17918786Y-11280714D02*
X18104500Y-11280714D01*
X18004500Y-11395000D01*
X18047357Y-11395000D01*
X18075928Y-11409286D01*
X18090214Y-11423571D01*
X18104500Y-11452143D01*
X18104500Y-11523571D01*
X18090214Y-11552143D01*
X18075928Y-11566429D01*
X18047357Y-11580714D01*
X17961643Y-11580714D01*
X17933071Y-11566429D01*
X17918786Y-11552143D01*
X18218786Y-11280714D02*
X18218786Y-11337857D01*
X18333071Y-11280714D02*
X18333071Y-11337857D01*
X18775928Y-11695000D02*
X18761643Y-11680714D01*
X18733071Y-11637857D01*
X18718786Y-11609286D01*
X18704500Y-11566429D01*
X18690214Y-11495000D01*
X18690214Y-11437857D01*
X18704500Y-11366429D01*
X18718786Y-11323571D01*
X18733071Y-11295000D01*
X18761643Y-11252143D01*
X18775928Y-11237857D01*
X19033071Y-11280714D02*
X18890214Y-11280714D01*
X18875928Y-11423571D01*
X18890214Y-11409286D01*
X18918786Y-11395000D01*
X18990214Y-11395000D01*
X19018786Y-11409286D01*
X19033071Y-11423571D01*
X19047357Y-11452143D01*
X19047357Y-11523571D01*
X19033071Y-11552143D01*
X19018786Y-11566429D01*
X18990214Y-11580714D01*
X18918786Y-11580714D01*
X18890214Y-11566429D01*
X18875928Y-11552143D01*
X19404500Y-11580714D02*
X19404500Y-11280714D01*
X19533071Y-11580714D02*
X19533071Y-11423571D01*
X19518786Y-11395000D01*
X19490214Y-11380714D01*
X19447357Y-11380714D01*
X19418786Y-11395000D01*
X19404500Y-11409286D01*
X19718786Y-11580714D02*
X19690214Y-11566429D01*
X19675928Y-11552143D01*
X19661643Y-11523571D01*
X19661643Y-11437857D01*
X19675928Y-11409286D01*
X19690214Y-11395000D01*
X19718786Y-11380714D01*
X19761643Y-11380714D01*
X19790214Y-11395000D01*
X19804500Y-11409286D01*
X19818786Y-11437857D01*
X19818786Y-11523571D01*
X19804500Y-11552143D01*
X19790214Y-11566429D01*
X19761643Y-11580714D01*
X19718786Y-11580714D01*
X19990214Y-11580714D02*
X19961643Y-11566429D01*
X19947357Y-11537857D01*
X19947357Y-11280714D01*
X20218786Y-11566429D02*
X20190214Y-11580714D01*
X20133071Y-11580714D01*
X20104500Y-11566429D01*
X20090214Y-11537857D01*
X20090214Y-11423571D01*
X20104500Y-11395000D01*
X20133071Y-11380714D01*
X20190214Y-11380714D01*
X20218786Y-11395000D01*
X20233071Y-11423571D01*
X20233071Y-11452143D01*
X20090214Y-11480714D01*
X20347357Y-11566429D02*
X20375928Y-11580714D01*
X20433071Y-11580714D01*
X20461643Y-11566429D01*
X20475928Y-11537857D01*
X20475928Y-11523571D01*
X20461643Y-11495000D01*
X20433071Y-11480714D01*
X20390214Y-11480714D01*
X20361643Y-11466429D01*
X20347357Y-11437857D01*
X20347357Y-11423571D01*
X20361643Y-11395000D01*
X20390214Y-11380714D01*
X20433071Y-11380714D01*
X20461643Y-11395000D01*
X20575928Y-11695000D02*
X20590214Y-11680714D01*
X20618786Y-11637857D01*
X20633071Y-11609286D01*
X20647357Y-11566429D01*
X20661643Y-11495000D01*
X20661643Y-11437857D01*
X20647357Y-11366429D01*
X20633071Y-11323571D01*
X20618786Y-11295000D01*
X20590214Y-11252143D01*
X20575928Y-11237857D01*
X14089500Y-11841000D02*
G75*
G03X14089500Y-11841000I-45000J0D01*
G01*
X14433071Y-11676714D02*
X14461643Y-11676714D01*
X14490214Y-11691000D01*
X14504500Y-11705286D01*
X14518786Y-11733857D01*
X14533071Y-11791000D01*
X14533071Y-11862429D01*
X14518786Y-11919571D01*
X14504500Y-11948143D01*
X14490214Y-11962429D01*
X14461643Y-11976714D01*
X14433071Y-11976714D01*
X14404500Y-11962429D01*
X14390214Y-11948143D01*
X14375928Y-11919571D01*
X14361643Y-11862429D01*
X14361643Y-11791000D01*
X14375928Y-11733857D01*
X14390214Y-11705286D01*
X14404500Y-11691000D01*
X14433071Y-11676714D01*
X14661643Y-11948143D02*
X14675928Y-11962429D01*
X14661643Y-11976714D01*
X14647357Y-11962429D01*
X14661643Y-11948143D01*
X14661643Y-11976714D01*
X14818786Y-11976714D02*
X14875928Y-11976714D01*
X14904500Y-11962429D01*
X14918786Y-11948143D01*
X14947357Y-11905286D01*
X14961643Y-11848143D01*
X14961643Y-11733857D01*
X14947357Y-11705286D01*
X14933071Y-11691000D01*
X14904500Y-11676714D01*
X14847357Y-11676714D01*
X14818786Y-11691000D01*
X14804500Y-11705286D01*
X14790214Y-11733857D01*
X14790214Y-11805286D01*
X14804500Y-11833857D01*
X14818786Y-11848143D01*
X14847357Y-11862429D01*
X14904500Y-11862429D01*
X14933071Y-11848143D01*
X14947357Y-11833857D01*
X14961643Y-11805286D01*
X15147357Y-11676714D02*
X15175928Y-11676714D01*
X15204500Y-11691000D01*
X15218786Y-11705286D01*
X15233071Y-11733857D01*
X15247357Y-11791000D01*
X15247357Y-11862429D01*
X15233071Y-11919571D01*
X15218786Y-11948143D01*
X15204500Y-11962429D01*
X15175928Y-11976714D01*
X15147357Y-11976714D01*
X15118786Y-11962429D01*
X15104500Y-11948143D01*
X15090214Y-11919571D01*
X15075928Y-11862429D01*
X15075928Y-11791000D01*
X15090214Y-11733857D01*
X15104500Y-11705286D01*
X15118786Y-11691000D01*
X15147357Y-11676714D01*
X15375928Y-11976714D02*
X15375928Y-11776714D01*
X15375928Y-11805286D02*
X15390214Y-11791000D01*
X15418786Y-11776714D01*
X15461643Y-11776714D01*
X15490214Y-11791000D01*
X15504500Y-11819571D01*
X15504500Y-11976714D01*
X15504500Y-11819571D02*
X15518786Y-11791000D01*
X15547357Y-11776714D01*
X15590214Y-11776714D01*
X15618786Y-11791000D01*
X15633071Y-11819571D01*
X15633071Y-11976714D01*
X15775928Y-11976714D02*
X15775928Y-11776714D01*
X15775928Y-11805286D02*
X15790214Y-11791000D01*
X15818786Y-11776714D01*
X15861643Y-11776714D01*
X15890214Y-11791000D01*
X15904500Y-11819571D01*
X15904500Y-11976714D01*
X15904500Y-11819571D02*
X15918786Y-11791000D01*
X15947357Y-11776714D01*
X15990214Y-11776714D01*
X16018786Y-11791000D01*
X16033071Y-11819571D01*
X16033071Y-11976714D01*
X16618786Y-11662429D02*
X16361643Y-12048143D01*
X17004500Y-11676714D02*
X17033071Y-11676714D01*
X17061643Y-11691000D01*
X17075928Y-11705286D01*
X17090214Y-11733857D01*
X17104500Y-11791000D01*
X17104500Y-11862429D01*
X17090214Y-11919571D01*
X17075928Y-11948143D01*
X17061643Y-11962429D01*
X17033071Y-11976714D01*
X17004500Y-11976714D01*
X16975928Y-11962429D01*
X16961643Y-11948143D01*
X16947357Y-11919571D01*
X16933071Y-11862429D01*
X16933071Y-11791000D01*
X16947357Y-11733857D01*
X16961643Y-11705286D01*
X16975928Y-11691000D01*
X17004500Y-11676714D01*
X17233071Y-11948143D02*
X17247357Y-11962429D01*
X17233071Y-11976714D01*
X17218786Y-11962429D01*
X17233071Y-11948143D01*
X17233071Y-11976714D01*
X17433071Y-11676714D02*
X17461643Y-11676714D01*
X17490214Y-11691000D01*
X17504500Y-11705286D01*
X17518786Y-11733857D01*
X17533071Y-11791000D01*
X17533071Y-11862429D01*
X17518786Y-11919571D01*
X17504500Y-11948143D01*
X17490214Y-11962429D01*
X17461643Y-11976714D01*
X17433071Y-11976714D01*
X17404500Y-11962429D01*
X17390214Y-11948143D01*
X17375928Y-11919571D01*
X17361643Y-11862429D01*
X17361643Y-11791000D01*
X17375928Y-11733857D01*
X17390214Y-11705286D01*
X17404500Y-11691000D01*
X17433071Y-11676714D01*
X17633071Y-11676714D02*
X17818786Y-11676714D01*
X17718786Y-11791000D01*
X17761643Y-11791000D01*
X17790214Y-11805286D01*
X17804500Y-11819571D01*
X17818786Y-11848143D01*
X17818786Y-11919571D01*
X17804500Y-11948143D01*
X17790214Y-11962429D01*
X17761643Y-11976714D01*
X17675928Y-11976714D01*
X17647357Y-11962429D01*
X17633071Y-11948143D01*
X18090214Y-11676714D02*
X17947357Y-11676714D01*
X17933071Y-11819571D01*
X17947357Y-11805286D01*
X17975928Y-11791000D01*
X18047357Y-11791000D01*
X18075928Y-11805286D01*
X18090214Y-11819571D01*
X18104500Y-11848143D01*
X18104500Y-11919571D01*
X18090214Y-11948143D01*
X18075928Y-11962429D01*
X18047357Y-11976714D01*
X17975928Y-11976714D01*
X17947357Y-11962429D01*
X17933071Y-11948143D01*
X18218786Y-11676714D02*
X18218786Y-11733857D01*
X18333071Y-11676714D02*
X18333071Y-11733857D01*
X18775928Y-12091000D02*
X18761643Y-12076714D01*
X18733071Y-12033857D01*
X18718786Y-12005286D01*
X18704500Y-11962429D01*
X18690214Y-11891000D01*
X18690214Y-11833857D01*
X18704500Y-11762429D01*
X18718786Y-11719571D01*
X18733071Y-11691000D01*
X18761643Y-11648143D01*
X18775928Y-11633857D01*
X18875928Y-11705286D02*
X18890214Y-11691000D01*
X18918786Y-11676714D01*
X18990214Y-11676714D01*
X19018786Y-11691000D01*
X19033071Y-11705286D01*
X19047357Y-11733857D01*
X19047357Y-11762429D01*
X19033071Y-11805286D01*
X18861643Y-11976714D01*
X19047357Y-11976714D01*
X19404500Y-11976714D02*
X19404500Y-11676714D01*
X19533071Y-11976714D02*
X19533071Y-11819571D01*
X19518786Y-11791000D01*
X19490214Y-11776714D01*
X19447357Y-11776714D01*
X19418786Y-11791000D01*
X19404500Y-11805286D01*
X19718786Y-11976714D02*
X19690214Y-11962429D01*
X19675928Y-11948143D01*
X19661643Y-11919571D01*
X19661643Y-11833857D01*
X19675928Y-11805286D01*
X19690214Y-11791000D01*
X19718786Y-11776714D01*
X19761643Y-11776714D01*
X19790214Y-11791000D01*
X19804500Y-11805286D01*
X19818786Y-11833857D01*
X19818786Y-11919571D01*
X19804500Y-11948143D01*
X19790214Y-11962429D01*
X19761643Y-11976714D01*
X19718786Y-11976714D01*
X19990214Y-11976714D02*
X19961643Y-11962429D01*
X19947357Y-11933857D01*
X19947357Y-11676714D01*
X20218786Y-11962429D02*
X20190214Y-11976714D01*
X20133071Y-11976714D01*
X20104500Y-11962429D01*
X20090214Y-11933857D01*
X20090214Y-11819571D01*
X20104500Y-11791000D01*
X20133071Y-11776714D01*
X20190214Y-11776714D01*
X20218786Y-11791000D01*
X20233071Y-11819571D01*
X20233071Y-11848143D01*
X20090214Y-11876714D01*
X20347357Y-11962429D02*
X20375928Y-11976714D01*
X20433071Y-11976714D01*
X20461643Y-11962429D01*
X20475928Y-11933857D01*
X20475928Y-11919571D01*
X20461643Y-11891000D01*
X20433071Y-11876714D01*
X20390214Y-11876714D01*
X20361643Y-11862429D01*
X20347357Y-11833857D01*
X20347357Y-11819571D01*
X20361643Y-11791000D01*
X20390214Y-11776714D01*
X20433071Y-11776714D01*
X20461643Y-11791000D01*
X20575928Y-12091000D02*
X20590214Y-12076714D01*
X20618786Y-12033857D01*
X20633071Y-12005286D01*
X20647357Y-11962429D01*
X20661643Y-11891000D01*
X20661643Y-11833857D01*
X20647357Y-11762429D01*
X20633071Y-11719571D01*
X20618786Y-11691000D01*
X20590214Y-11648143D01*
X20575928Y-11633857D01*
X14039500Y-12187000D02*
X14039500Y-12287000D01*
X13989500Y-12237000D02*
X14089500Y-12237000D01*
X14533071Y-12372714D02*
X14361643Y-12372714D01*
X14447357Y-12372714D02*
X14447357Y-12072714D01*
X14418786Y-12115571D01*
X14390214Y-12144143D01*
X14361643Y-12158429D01*
X14661643Y-12344143D02*
X14675928Y-12358429D01*
X14661643Y-12372714D01*
X14647357Y-12358429D01*
X14661643Y-12344143D01*
X14661643Y-12372714D01*
X14861643Y-12072714D02*
X14890214Y-12072714D01*
X14918786Y-12087000D01*
X14933071Y-12101286D01*
X14947357Y-12129857D01*
X14961643Y-12187000D01*
X14961643Y-12258429D01*
X14947357Y-12315571D01*
X14933071Y-12344143D01*
X14918786Y-12358429D01*
X14890214Y-12372714D01*
X14861643Y-12372714D01*
X14833071Y-12358429D01*
X14818786Y-12344143D01*
X14804500Y-12315571D01*
X14790214Y-12258429D01*
X14790214Y-12187000D01*
X14804500Y-12129857D01*
X14818786Y-12101286D01*
X14833071Y-12087000D01*
X14861643Y-12072714D01*
X15147357Y-12072714D02*
X15175928Y-12072714D01*
X15204500Y-12087000D01*
X15218786Y-12101286D01*
X15233071Y-12129857D01*
X15247357Y-12187000D01*
X15247357Y-12258429D01*
X15233071Y-12315571D01*
X15218786Y-12344143D01*
X15204500Y-12358429D01*
X15175928Y-12372714D01*
X15147357Y-12372714D01*
X15118786Y-12358429D01*
X15104500Y-12344143D01*
X15090214Y-12315571D01*
X15075928Y-12258429D01*
X15075928Y-12187000D01*
X15090214Y-12129857D01*
X15104500Y-12101286D01*
X15118786Y-12087000D01*
X15147357Y-12072714D01*
X15375928Y-12372714D02*
X15375928Y-12172714D01*
X15375928Y-12201286D02*
X15390214Y-12187000D01*
X15418786Y-12172714D01*
X15461643Y-12172714D01*
X15490214Y-12187000D01*
X15504500Y-12215571D01*
X15504500Y-12372714D01*
X15504500Y-12215571D02*
X15518786Y-12187000D01*
X15547357Y-12172714D01*
X15590214Y-12172714D01*
X15618786Y-12187000D01*
X15633071Y-12215571D01*
X15633071Y-12372714D01*
X15775928Y-12372714D02*
X15775928Y-12172714D01*
X15775928Y-12201286D02*
X15790214Y-12187000D01*
X15818786Y-12172714D01*
X15861643Y-12172714D01*
X15890214Y-12187000D01*
X15904500Y-12215571D01*
X15904500Y-12372714D01*
X15904500Y-12215571D02*
X15918786Y-12187000D01*
X15947357Y-12172714D01*
X15990214Y-12172714D01*
X16018786Y-12187000D01*
X16033071Y-12215571D01*
X16033071Y-12372714D01*
X16618786Y-12058429D02*
X16361643Y-12444143D01*
X17004500Y-12072714D02*
X17033071Y-12072714D01*
X17061643Y-12087000D01*
X17075928Y-12101286D01*
X17090214Y-12129857D01*
X17104500Y-12187000D01*
X17104500Y-12258429D01*
X17090214Y-12315571D01*
X17075928Y-12344143D01*
X17061643Y-12358429D01*
X17033071Y-12372714D01*
X17004500Y-12372714D01*
X16975928Y-12358429D01*
X16961643Y-12344143D01*
X16947357Y-12315571D01*
X16933071Y-12258429D01*
X16933071Y-12187000D01*
X16947357Y-12129857D01*
X16961643Y-12101286D01*
X16975928Y-12087000D01*
X17004500Y-12072714D01*
X17233071Y-12344143D02*
X17247357Y-12358429D01*
X17233071Y-12372714D01*
X17218786Y-12358429D01*
X17233071Y-12344143D01*
X17233071Y-12372714D01*
X17433071Y-12072714D02*
X17461643Y-12072714D01*
X17490214Y-12087000D01*
X17504500Y-12101286D01*
X17518786Y-12129857D01*
X17533071Y-12187000D01*
X17533071Y-12258429D01*
X17518786Y-12315571D01*
X17504500Y-12344143D01*
X17490214Y-12358429D01*
X17461643Y-12372714D01*
X17433071Y-12372714D01*
X17404500Y-12358429D01*
X17390214Y-12344143D01*
X17375928Y-12315571D01*
X17361643Y-12258429D01*
X17361643Y-12187000D01*
X17375928Y-12129857D01*
X17390214Y-12101286D01*
X17404500Y-12087000D01*
X17433071Y-12072714D01*
X17633071Y-12072714D02*
X17818786Y-12072714D01*
X17718786Y-12187000D01*
X17761643Y-12187000D01*
X17790214Y-12201286D01*
X17804500Y-12215571D01*
X17818786Y-12244143D01*
X17818786Y-12315571D01*
X17804500Y-12344143D01*
X17790214Y-12358429D01*
X17761643Y-12372714D01*
X17675928Y-12372714D01*
X17647357Y-12358429D01*
X17633071Y-12344143D01*
X17961643Y-12372714D02*
X18018786Y-12372714D01*
X18047357Y-12358429D01*
X18061643Y-12344143D01*
X18090214Y-12301286D01*
X18104500Y-12244143D01*
X18104500Y-12129857D01*
X18090214Y-12101286D01*
X18075928Y-12087000D01*
X18047357Y-12072714D01*
X17990214Y-12072714D01*
X17961643Y-12087000D01*
X17947357Y-12101286D01*
X17933071Y-12129857D01*
X17933071Y-12201286D01*
X17947357Y-12229857D01*
X17961643Y-12244143D01*
X17990214Y-12258429D01*
X18047357Y-12258429D01*
X18075928Y-12244143D01*
X18090214Y-12229857D01*
X18104500Y-12201286D01*
X18218786Y-12072714D02*
X18218786Y-12129857D01*
X18333071Y-12072714D02*
X18333071Y-12129857D01*
X18775928Y-12487000D02*
X18761643Y-12472714D01*
X18733071Y-12429857D01*
X18718786Y-12401286D01*
X18704500Y-12358429D01*
X18690214Y-12287000D01*
X18690214Y-12229857D01*
X18704500Y-12158429D01*
X18718786Y-12115571D01*
X18733071Y-12087000D01*
X18761643Y-12044143D01*
X18775928Y-12029857D01*
X19033071Y-12072714D02*
X18890214Y-12072714D01*
X18875928Y-12215571D01*
X18890214Y-12201286D01*
X18918786Y-12187000D01*
X18990214Y-12187000D01*
X19018786Y-12201286D01*
X19033071Y-12215571D01*
X19047357Y-12244143D01*
X19047357Y-12315571D01*
X19033071Y-12344143D01*
X19018786Y-12358429D01*
X18990214Y-12372714D01*
X18918786Y-12372714D01*
X18890214Y-12358429D01*
X18875928Y-12344143D01*
X19404500Y-12372714D02*
X19404500Y-12072714D01*
X19533071Y-12372714D02*
X19533071Y-12215571D01*
X19518786Y-12187000D01*
X19490214Y-12172714D01*
X19447357Y-12172714D01*
X19418786Y-12187000D01*
X19404500Y-12201286D01*
X19718786Y-12372714D02*
X19690214Y-12358429D01*
X19675928Y-12344143D01*
X19661643Y-12315571D01*
X19661643Y-12229857D01*
X19675928Y-12201286D01*
X19690214Y-12187000D01*
X19718786Y-12172714D01*
X19761643Y-12172714D01*
X19790214Y-12187000D01*
X19804500Y-12201286D01*
X19818786Y-12229857D01*
X19818786Y-12315571D01*
X19804500Y-12344143D01*
X19790214Y-12358429D01*
X19761643Y-12372714D01*
X19718786Y-12372714D01*
X19990214Y-12372714D02*
X19961643Y-12358429D01*
X19947357Y-12329857D01*
X19947357Y-12072714D01*
X20218786Y-12358429D02*
X20190214Y-12372714D01*
X20133071Y-12372714D01*
X20104500Y-12358429D01*
X20090214Y-12329857D01*
X20090214Y-12215571D01*
X20104500Y-12187000D01*
X20133071Y-12172714D01*
X20190214Y-12172714D01*
X20218786Y-12187000D01*
X20233071Y-12215571D01*
X20233071Y-12244143D01*
X20090214Y-12272714D01*
X20347357Y-12358429D02*
X20375928Y-12372714D01*
X20433071Y-12372714D01*
X20461643Y-12358429D01*
X20475928Y-12329857D01*
X20475928Y-12315571D01*
X20461643Y-12287000D01*
X20433071Y-12272714D01*
X20390214Y-12272714D01*
X20361643Y-12258429D01*
X20347357Y-12229857D01*
X20347357Y-12215571D01*
X20361643Y-12187000D01*
X20390214Y-12172714D01*
X20433071Y-12172714D01*
X20461643Y-12187000D01*
X20575928Y-12487000D02*
X20590214Y-12472714D01*
X20618786Y-12429857D01*
X20633071Y-12401286D01*
X20647357Y-12358429D01*
X20661643Y-12287000D01*
X20661643Y-12229857D01*
X20647357Y-12158429D01*
X20633071Y-12115571D01*
X20618786Y-12087000D01*
X20590214Y-12044143D01*
X20575928Y-12029857D01*
M02*
