%FSLAX45Y45*%
G04 Gerber Fmt 4.5, Leading zero omitted, Abs format (unit mm)*
G04 Created by KiCad (PCBNEW (5.1.5)-3) date 2019-12-28 19:55:43*
%MOMM*%
%LPD*%
G04 APERTURE LIST*
%TA.AperFunction,Profile*%
%ADD10C,0.150000*%
%TD*%
%ADD11C,0.200000*%
%ADD12C,0.300000*%
G04 APERTURE END LIST*
D10*
X17208500Y-7683500D02*
X14097000Y-7683500D01*
X17208500Y-10477500D02*
X17208500Y-7683500D01*
X14097000Y-10477500D02*
X17208500Y-10477500D01*
X14097000Y-7683500D02*
X14097000Y-10477500D01*
D11*
X16756000Y-8945500D02*
X17026000Y-9215500D01*
X17026000Y-8945500D02*
X16756000Y-9215500D01*
D12*
X14375928Y-10950714D02*
X14375928Y-10650714D01*
X14447357Y-10650714D01*
X14490214Y-10665000D01*
X14518786Y-10693572D01*
X14533071Y-10722143D01*
X14547357Y-10779286D01*
X14547357Y-10822143D01*
X14533071Y-10879286D01*
X14518786Y-10907857D01*
X14490214Y-10936429D01*
X14447357Y-10950714D01*
X14375928Y-10950714D01*
X14675928Y-10950714D02*
X14675928Y-10750714D01*
X14675928Y-10807857D02*
X14690214Y-10779286D01*
X14704500Y-10765000D01*
X14733071Y-10750714D01*
X14761643Y-10750714D01*
X14861643Y-10950714D02*
X14861643Y-10750714D01*
X14861643Y-10650714D02*
X14847357Y-10665000D01*
X14861643Y-10679286D01*
X14875928Y-10665000D01*
X14861643Y-10650714D01*
X14861643Y-10679286D01*
X15047357Y-10950714D02*
X15018786Y-10936429D01*
X15004500Y-10907857D01*
X15004500Y-10650714D01*
X15204500Y-10950714D02*
X15175928Y-10936429D01*
X15161643Y-10907857D01*
X15161643Y-10650714D01*
X15547357Y-10950714D02*
X15547357Y-10650714D01*
X15647357Y-10865000D01*
X15747357Y-10650714D01*
X15747357Y-10950714D01*
X16018786Y-10950714D02*
X16018786Y-10793572D01*
X16004500Y-10765000D01*
X15975928Y-10750714D01*
X15918786Y-10750714D01*
X15890214Y-10765000D01*
X16018786Y-10936429D02*
X15990214Y-10950714D01*
X15918786Y-10950714D01*
X15890214Y-10936429D01*
X15875928Y-10907857D01*
X15875928Y-10879286D01*
X15890214Y-10850714D01*
X15918786Y-10836429D01*
X15990214Y-10836429D01*
X16018786Y-10822143D01*
X16161643Y-10750714D02*
X16161643Y-11050714D01*
X16161643Y-10765000D02*
X16190214Y-10750714D01*
X16247357Y-10750714D01*
X16275928Y-10765000D01*
X16290214Y-10779286D01*
X16304500Y-10807857D01*
X16304500Y-10893572D01*
X16290214Y-10922143D01*
X16275928Y-10936429D01*
X16247357Y-10950714D01*
X16190214Y-10950714D01*
X16161643Y-10936429D01*
X16433071Y-10922143D02*
X16447357Y-10936429D01*
X16433071Y-10950714D01*
X16418786Y-10936429D01*
X16433071Y-10922143D01*
X16433071Y-10950714D01*
X16433071Y-10765000D02*
X16447357Y-10779286D01*
X16433071Y-10793572D01*
X16418786Y-10779286D01*
X16433071Y-10765000D01*
X16433071Y-10793572D01*
X13819500Y-11310000D02*
X14089500Y-11580000D01*
X14089500Y-11310000D02*
X13819500Y-11580000D01*
X14361643Y-11309286D02*
X14375928Y-11295000D01*
X14404500Y-11280714D01*
X14475928Y-11280714D01*
X14504500Y-11295000D01*
X14518786Y-11309286D01*
X14533071Y-11337857D01*
X14533071Y-11366429D01*
X14518786Y-11409286D01*
X14347357Y-11580714D01*
X14533071Y-11580714D01*
X14661643Y-11552143D02*
X14675928Y-11566429D01*
X14661643Y-11580714D01*
X14647357Y-11566429D01*
X14661643Y-11552143D01*
X14661643Y-11580714D01*
X14775928Y-11280714D02*
X14975928Y-11280714D01*
X14847357Y-11580714D01*
X15147357Y-11280714D02*
X15175928Y-11280714D01*
X15204500Y-11295000D01*
X15218786Y-11309286D01*
X15233071Y-11337857D01*
X15247357Y-11395000D01*
X15247357Y-11466429D01*
X15233071Y-11523571D01*
X15218786Y-11552143D01*
X15204500Y-11566429D01*
X15175928Y-11580714D01*
X15147357Y-11580714D01*
X15118786Y-11566429D01*
X15104500Y-11552143D01*
X15090214Y-11523571D01*
X15075928Y-11466429D01*
X15075928Y-11395000D01*
X15090214Y-11337857D01*
X15104500Y-11309286D01*
X15118786Y-11295000D01*
X15147357Y-11280714D01*
X15375928Y-11580714D02*
X15375928Y-11380714D01*
X15375928Y-11409286D02*
X15390214Y-11395000D01*
X15418786Y-11380714D01*
X15461643Y-11380714D01*
X15490214Y-11395000D01*
X15504500Y-11423571D01*
X15504500Y-11580714D01*
X15504500Y-11423571D02*
X15518786Y-11395000D01*
X15547357Y-11380714D01*
X15590214Y-11380714D01*
X15618786Y-11395000D01*
X15633071Y-11423571D01*
X15633071Y-11580714D01*
X15775928Y-11580714D02*
X15775928Y-11380714D01*
X15775928Y-11409286D02*
X15790214Y-11395000D01*
X15818786Y-11380714D01*
X15861643Y-11380714D01*
X15890214Y-11395000D01*
X15904500Y-11423571D01*
X15904500Y-11580714D01*
X15904500Y-11423571D02*
X15918786Y-11395000D01*
X15947357Y-11380714D01*
X15990214Y-11380714D01*
X16018786Y-11395000D01*
X16033071Y-11423571D01*
X16033071Y-11580714D01*
X16618786Y-11266429D02*
X16361643Y-11652143D01*
X17004500Y-11280714D02*
X17033071Y-11280714D01*
X17061643Y-11295000D01*
X17075928Y-11309286D01*
X17090214Y-11337857D01*
X17104500Y-11395000D01*
X17104500Y-11466429D01*
X17090214Y-11523571D01*
X17075928Y-11552143D01*
X17061643Y-11566429D01*
X17033071Y-11580714D01*
X17004500Y-11580714D01*
X16975928Y-11566429D01*
X16961643Y-11552143D01*
X16947357Y-11523571D01*
X16933071Y-11466429D01*
X16933071Y-11395000D01*
X16947357Y-11337857D01*
X16961643Y-11309286D01*
X16975928Y-11295000D01*
X17004500Y-11280714D01*
X17233071Y-11552143D02*
X17247357Y-11566429D01*
X17233071Y-11580714D01*
X17218786Y-11566429D01*
X17233071Y-11552143D01*
X17233071Y-11580714D01*
X17533071Y-11580714D02*
X17361643Y-11580714D01*
X17447357Y-11580714D02*
X17447357Y-11280714D01*
X17418786Y-11323571D01*
X17390214Y-11352143D01*
X17361643Y-11366429D01*
X17718786Y-11280714D02*
X17747357Y-11280714D01*
X17775928Y-11295000D01*
X17790214Y-11309286D01*
X17804500Y-11337857D01*
X17818786Y-11395000D01*
X17818786Y-11466429D01*
X17804500Y-11523571D01*
X17790214Y-11552143D01*
X17775928Y-11566429D01*
X17747357Y-11580714D01*
X17718786Y-11580714D01*
X17690214Y-11566429D01*
X17675928Y-11552143D01*
X17661643Y-11523571D01*
X17647357Y-11466429D01*
X17647357Y-11395000D01*
X17661643Y-11337857D01*
X17675928Y-11309286D01*
X17690214Y-11295000D01*
X17718786Y-11280714D01*
X18075928Y-11280714D02*
X18018786Y-11280714D01*
X17990214Y-11295000D01*
X17975928Y-11309286D01*
X17947357Y-11352143D01*
X17933071Y-11409286D01*
X17933071Y-11523571D01*
X17947357Y-11552143D01*
X17961643Y-11566429D01*
X17990214Y-11580714D01*
X18047357Y-11580714D01*
X18075928Y-11566429D01*
X18090214Y-11552143D01*
X18104500Y-11523571D01*
X18104500Y-11452143D01*
X18090214Y-11423571D01*
X18075928Y-11409286D01*
X18047357Y-11395000D01*
X17990214Y-11395000D01*
X17961643Y-11409286D01*
X17947357Y-11423571D01*
X17933071Y-11452143D01*
X18218786Y-11280714D02*
X18218786Y-11337857D01*
X18333071Y-11280714D02*
X18333071Y-11337857D01*
X18775928Y-11695000D02*
X18761643Y-11680714D01*
X18733071Y-11637857D01*
X18718786Y-11609286D01*
X18704500Y-11566429D01*
X18690214Y-11495000D01*
X18690214Y-11437857D01*
X18704500Y-11366429D01*
X18718786Y-11323571D01*
X18733071Y-11295000D01*
X18761643Y-11252143D01*
X18775928Y-11237857D01*
X19047357Y-11580714D02*
X18875928Y-11580714D01*
X18961643Y-11580714D02*
X18961643Y-11280714D01*
X18933071Y-11323571D01*
X18904500Y-11352143D01*
X18875928Y-11366429D01*
X19404500Y-11580714D02*
X19404500Y-11280714D01*
X19533071Y-11580714D02*
X19533071Y-11423571D01*
X19518786Y-11395000D01*
X19490214Y-11380714D01*
X19447357Y-11380714D01*
X19418786Y-11395000D01*
X19404500Y-11409286D01*
X19718786Y-11580714D02*
X19690214Y-11566429D01*
X19675928Y-11552143D01*
X19661643Y-11523571D01*
X19661643Y-11437857D01*
X19675928Y-11409286D01*
X19690214Y-11395000D01*
X19718786Y-11380714D01*
X19761643Y-11380714D01*
X19790214Y-11395000D01*
X19804500Y-11409286D01*
X19818786Y-11437857D01*
X19818786Y-11523571D01*
X19804500Y-11552143D01*
X19790214Y-11566429D01*
X19761643Y-11580714D01*
X19718786Y-11580714D01*
X19990214Y-11580714D02*
X19961643Y-11566429D01*
X19947357Y-11537857D01*
X19947357Y-11280714D01*
X20218786Y-11566429D02*
X20190214Y-11580714D01*
X20133071Y-11580714D01*
X20104500Y-11566429D01*
X20090214Y-11537857D01*
X20090214Y-11423571D01*
X20104500Y-11395000D01*
X20133071Y-11380714D01*
X20190214Y-11380714D01*
X20218786Y-11395000D01*
X20233071Y-11423571D01*
X20233071Y-11452143D01*
X20090214Y-11480714D01*
X20333071Y-11695000D02*
X20347357Y-11680714D01*
X20375928Y-11637857D01*
X20390214Y-11609286D01*
X20404500Y-11566429D01*
X20418786Y-11495000D01*
X20418786Y-11437857D01*
X20404500Y-11366429D01*
X20390214Y-11323571D01*
X20375928Y-11295000D01*
X20347357Y-11252143D01*
X20333071Y-11237857D01*
X20875928Y-11695000D02*
X20861643Y-11680714D01*
X20833071Y-11637857D01*
X20818786Y-11609286D01*
X20804500Y-11566429D01*
X20790214Y-11495000D01*
X20790214Y-11437857D01*
X20804500Y-11366429D01*
X20818786Y-11323571D01*
X20833071Y-11295000D01*
X20861643Y-11252143D01*
X20875928Y-11237857D01*
X20990214Y-11380714D02*
X20990214Y-11580714D01*
X20990214Y-11409286D02*
X21004500Y-11395000D01*
X21033071Y-11380714D01*
X21075928Y-11380714D01*
X21104500Y-11395000D01*
X21118786Y-11423571D01*
X21118786Y-11580714D01*
X21304500Y-11580714D02*
X21275928Y-11566429D01*
X21261643Y-11552143D01*
X21247357Y-11523571D01*
X21247357Y-11437857D01*
X21261643Y-11409286D01*
X21275928Y-11395000D01*
X21304500Y-11380714D01*
X21347357Y-11380714D01*
X21375928Y-11395000D01*
X21390214Y-11409286D01*
X21404500Y-11437857D01*
X21404500Y-11523571D01*
X21390214Y-11552143D01*
X21375928Y-11566429D01*
X21347357Y-11580714D01*
X21304500Y-11580714D01*
X21490214Y-11380714D02*
X21604500Y-11380714D01*
X21533071Y-11280714D02*
X21533071Y-11537857D01*
X21547357Y-11566429D01*
X21575928Y-11580714D01*
X21604500Y-11580714D01*
X21933071Y-11380714D02*
X21933071Y-11680714D01*
X21933071Y-11395000D02*
X21961643Y-11380714D01*
X22018786Y-11380714D01*
X22047357Y-11395000D01*
X22061643Y-11409286D01*
X22075928Y-11437857D01*
X22075928Y-11523571D01*
X22061643Y-11552143D01*
X22047357Y-11566429D01*
X22018786Y-11580714D01*
X21961643Y-11580714D01*
X21933071Y-11566429D01*
X22247357Y-11580714D02*
X22218786Y-11566429D01*
X22204500Y-11537857D01*
X22204500Y-11280714D01*
X22490214Y-11580714D02*
X22490214Y-11423571D01*
X22475928Y-11395000D01*
X22447357Y-11380714D01*
X22390214Y-11380714D01*
X22361643Y-11395000D01*
X22490214Y-11566429D02*
X22461643Y-11580714D01*
X22390214Y-11580714D01*
X22361643Y-11566429D01*
X22347357Y-11537857D01*
X22347357Y-11509286D01*
X22361643Y-11480714D01*
X22390214Y-11466429D01*
X22461643Y-11466429D01*
X22490214Y-11452143D01*
X22590214Y-11380714D02*
X22704500Y-11380714D01*
X22633071Y-11280714D02*
X22633071Y-11537857D01*
X22647357Y-11566429D01*
X22675928Y-11580714D01*
X22704500Y-11580714D01*
X22918786Y-11566429D02*
X22890214Y-11580714D01*
X22833071Y-11580714D01*
X22804500Y-11566429D01*
X22790214Y-11537857D01*
X22790214Y-11423571D01*
X22804500Y-11395000D01*
X22833071Y-11380714D01*
X22890214Y-11380714D01*
X22918786Y-11395000D01*
X22933071Y-11423571D01*
X22933071Y-11452143D01*
X22790214Y-11480714D01*
X23190214Y-11580714D02*
X23190214Y-11280714D01*
X23190214Y-11566429D02*
X23161643Y-11580714D01*
X23104500Y-11580714D01*
X23075928Y-11566429D01*
X23061643Y-11552143D01*
X23047357Y-11523571D01*
X23047357Y-11437857D01*
X23061643Y-11409286D01*
X23075928Y-11395000D01*
X23104500Y-11380714D01*
X23161643Y-11380714D01*
X23190214Y-11395000D01*
X23304500Y-11695000D02*
X23318786Y-11680714D01*
X23347357Y-11637857D01*
X23361643Y-11609286D01*
X23375928Y-11566429D01*
X23390214Y-11495000D01*
X23390214Y-11437857D01*
X23375928Y-11366429D01*
X23361643Y-11323571D01*
X23347357Y-11295000D01*
X23318786Y-11252143D01*
X23304500Y-11237857D01*
M02*
