M48
; DRILL file {KiCad (5.1.5)-3} date 12/28/2019 5:54:19 PM
; FORMAT={-:-/ absolute / inch / decimal}
; #@! TF.CreationDate,2019-12-28T17:54:19-06:00
; #@! TF.GenerationSoftware,Kicad,Pcbnew,(5.1.5)-3
; #@! TF.FileFunction,Plated,1,2,PTH
FMAT,2
INCH
T1C0.0130
T2C0.0354
T3C0.0394
T4C0.0400
%
G90
G05
T1
X5.8Y-3.35
X5.85Y-3.35
X5.95Y-3.45
X6.2Y-3.4
X6.25Y-3.525
X6.3Y-3.175
X6.325Y-2.975
X6.375Y-3.325
T2
X6.45Y-3.4
X6.45Y-3.5
T3
X5.575Y-3.1
X5.575Y-3.2
X5.575Y-3.3
X5.575Y-3.4
X5.575Y-3.5
X5.4Y-3.1
X5.4Y-3.2
X5.4Y-3.3
X5.4Y-3.4
T4
X6.45Y-3.05
X6.45Y-3.15
X6.45Y-3.25
T0
M30
