G04 #@! TF.GenerationSoftware,KiCad,Pcbnew,(5.1.5)-3*
G04 #@! TF.CreationDate,2019-12-28T17:54:17-06:00*
G04 #@! TF.ProjectId,tymkrs_Cyphercon_2020_IRhack,74796d6b-7273-45f4-9379-70686572636f,V0*
G04 #@! TF.SameCoordinates,Original*
G04 #@! TF.FileFunction,Paste,Top*
G04 #@! TF.FilePolarity,Positive*
%FSLAX46Y46*%
G04 Gerber Fmt 4.6, Leading zero omitted, Abs format (unit mm)*
G04 Created by KiCad (PCBNEW (5.1.5)-3) date 2019-12-28 17:54:17*
%MOMM*%
%LPD*%
G04 APERTURE LIST*
%ADD10C,0.100000*%
%ADD11C,0.635000*%
G04 APERTURE END LIST*
D10*
G36*
X161567691Y-79091053D02*
G01*
X161588926Y-79094203D01*
X161609750Y-79099419D01*
X161629962Y-79106651D01*
X161649368Y-79115830D01*
X161667781Y-79126866D01*
X161685024Y-79139654D01*
X161700930Y-79154070D01*
X161715346Y-79169976D01*
X161728134Y-79187219D01*
X161739170Y-79205632D01*
X161748349Y-79225038D01*
X161755581Y-79245250D01*
X161760797Y-79266074D01*
X161763947Y-79287309D01*
X161765000Y-79308750D01*
X161765000Y-79746250D01*
X161763947Y-79767691D01*
X161760797Y-79788926D01*
X161755581Y-79809750D01*
X161748349Y-79829962D01*
X161739170Y-79849368D01*
X161728134Y-79867781D01*
X161715346Y-79885024D01*
X161700930Y-79900930D01*
X161685024Y-79915346D01*
X161667781Y-79928134D01*
X161649368Y-79939170D01*
X161629962Y-79948349D01*
X161609750Y-79955581D01*
X161588926Y-79960797D01*
X161567691Y-79963947D01*
X161546250Y-79965000D01*
X161033750Y-79965000D01*
X161012309Y-79963947D01*
X160991074Y-79960797D01*
X160970250Y-79955581D01*
X160950038Y-79948349D01*
X160930632Y-79939170D01*
X160912219Y-79928134D01*
X160894976Y-79915346D01*
X160879070Y-79900930D01*
X160864654Y-79885024D01*
X160851866Y-79867781D01*
X160840830Y-79849368D01*
X160831651Y-79829962D01*
X160824419Y-79809750D01*
X160819203Y-79788926D01*
X160816053Y-79767691D01*
X160815000Y-79746250D01*
X160815000Y-79308750D01*
X160816053Y-79287309D01*
X160819203Y-79266074D01*
X160824419Y-79245250D01*
X160831651Y-79225038D01*
X160840830Y-79205632D01*
X160851866Y-79187219D01*
X160864654Y-79169976D01*
X160879070Y-79154070D01*
X160894976Y-79139654D01*
X160912219Y-79126866D01*
X160930632Y-79115830D01*
X160950038Y-79106651D01*
X160970250Y-79099419D01*
X160991074Y-79094203D01*
X161012309Y-79091053D01*
X161033750Y-79090000D01*
X161546250Y-79090000D01*
X161567691Y-79091053D01*
G37*
G36*
X161567691Y-77516053D02*
G01*
X161588926Y-77519203D01*
X161609750Y-77524419D01*
X161629962Y-77531651D01*
X161649368Y-77540830D01*
X161667781Y-77551866D01*
X161685024Y-77564654D01*
X161700930Y-77579070D01*
X161715346Y-77594976D01*
X161728134Y-77612219D01*
X161739170Y-77630632D01*
X161748349Y-77650038D01*
X161755581Y-77670250D01*
X161760797Y-77691074D01*
X161763947Y-77712309D01*
X161765000Y-77733750D01*
X161765000Y-78171250D01*
X161763947Y-78192691D01*
X161760797Y-78213926D01*
X161755581Y-78234750D01*
X161748349Y-78254962D01*
X161739170Y-78274368D01*
X161728134Y-78292781D01*
X161715346Y-78310024D01*
X161700930Y-78325930D01*
X161685024Y-78340346D01*
X161667781Y-78353134D01*
X161649368Y-78364170D01*
X161629962Y-78373349D01*
X161609750Y-78380581D01*
X161588926Y-78385797D01*
X161567691Y-78388947D01*
X161546250Y-78390000D01*
X161033750Y-78390000D01*
X161012309Y-78388947D01*
X160991074Y-78385797D01*
X160970250Y-78380581D01*
X160950038Y-78373349D01*
X160930632Y-78364170D01*
X160912219Y-78353134D01*
X160894976Y-78340346D01*
X160879070Y-78325930D01*
X160864654Y-78310024D01*
X160851866Y-78292781D01*
X160840830Y-78274368D01*
X160831651Y-78254962D01*
X160824419Y-78234750D01*
X160819203Y-78213926D01*
X160816053Y-78192691D01*
X160815000Y-78171250D01*
X160815000Y-77733750D01*
X160816053Y-77712309D01*
X160819203Y-77691074D01*
X160824419Y-77670250D01*
X160831651Y-77650038D01*
X160840830Y-77630632D01*
X160851866Y-77612219D01*
X160864654Y-77594976D01*
X160879070Y-77579070D01*
X160894976Y-77564654D01*
X160912219Y-77551866D01*
X160930632Y-77540830D01*
X160950038Y-77531651D01*
X160970250Y-77524419D01*
X160991074Y-77519203D01*
X161012309Y-77516053D01*
X161033750Y-77515000D01*
X161546250Y-77515000D01*
X161567691Y-77516053D01*
G37*
G36*
X148042691Y-86521053D02*
G01*
X148063926Y-86524203D01*
X148084750Y-86529419D01*
X148104962Y-86536651D01*
X148124368Y-86545830D01*
X148142781Y-86556866D01*
X148160024Y-86569654D01*
X148175930Y-86584070D01*
X148190346Y-86599976D01*
X148203134Y-86617219D01*
X148214170Y-86635632D01*
X148223349Y-86655038D01*
X148230581Y-86675250D01*
X148235797Y-86696074D01*
X148238947Y-86717309D01*
X148240000Y-86738750D01*
X148240000Y-87251250D01*
X148238947Y-87272691D01*
X148235797Y-87293926D01*
X148230581Y-87314750D01*
X148223349Y-87334962D01*
X148214170Y-87354368D01*
X148203134Y-87372781D01*
X148190346Y-87390024D01*
X148175930Y-87405930D01*
X148160024Y-87420346D01*
X148142781Y-87433134D01*
X148124368Y-87444170D01*
X148104962Y-87453349D01*
X148084750Y-87460581D01*
X148063926Y-87465797D01*
X148042691Y-87468947D01*
X148021250Y-87470000D01*
X147583750Y-87470000D01*
X147562309Y-87468947D01*
X147541074Y-87465797D01*
X147520250Y-87460581D01*
X147500038Y-87453349D01*
X147480632Y-87444170D01*
X147462219Y-87433134D01*
X147444976Y-87420346D01*
X147429070Y-87405930D01*
X147414654Y-87390024D01*
X147401866Y-87372781D01*
X147390830Y-87354368D01*
X147381651Y-87334962D01*
X147374419Y-87314750D01*
X147369203Y-87293926D01*
X147366053Y-87272691D01*
X147365000Y-87251250D01*
X147365000Y-86738750D01*
X147366053Y-86717309D01*
X147369203Y-86696074D01*
X147374419Y-86675250D01*
X147381651Y-86655038D01*
X147390830Y-86635632D01*
X147401866Y-86617219D01*
X147414654Y-86599976D01*
X147429070Y-86584070D01*
X147444976Y-86569654D01*
X147462219Y-86556866D01*
X147480632Y-86545830D01*
X147500038Y-86536651D01*
X147520250Y-86529419D01*
X147541074Y-86524203D01*
X147562309Y-86521053D01*
X147583750Y-86520000D01*
X148021250Y-86520000D01*
X148042691Y-86521053D01*
G37*
G36*
X149617691Y-86521053D02*
G01*
X149638926Y-86524203D01*
X149659750Y-86529419D01*
X149679962Y-86536651D01*
X149699368Y-86545830D01*
X149717781Y-86556866D01*
X149735024Y-86569654D01*
X149750930Y-86584070D01*
X149765346Y-86599976D01*
X149778134Y-86617219D01*
X149789170Y-86635632D01*
X149798349Y-86655038D01*
X149805581Y-86675250D01*
X149810797Y-86696074D01*
X149813947Y-86717309D01*
X149815000Y-86738750D01*
X149815000Y-87251250D01*
X149813947Y-87272691D01*
X149810797Y-87293926D01*
X149805581Y-87314750D01*
X149798349Y-87334962D01*
X149789170Y-87354368D01*
X149778134Y-87372781D01*
X149765346Y-87390024D01*
X149750930Y-87405930D01*
X149735024Y-87420346D01*
X149717781Y-87433134D01*
X149699368Y-87444170D01*
X149679962Y-87453349D01*
X149659750Y-87460581D01*
X149638926Y-87465797D01*
X149617691Y-87468947D01*
X149596250Y-87470000D01*
X149158750Y-87470000D01*
X149137309Y-87468947D01*
X149116074Y-87465797D01*
X149095250Y-87460581D01*
X149075038Y-87453349D01*
X149055632Y-87444170D01*
X149037219Y-87433134D01*
X149019976Y-87420346D01*
X149004070Y-87405930D01*
X148989654Y-87390024D01*
X148976866Y-87372781D01*
X148965830Y-87354368D01*
X148956651Y-87334962D01*
X148949419Y-87314750D01*
X148944203Y-87293926D01*
X148941053Y-87272691D01*
X148940000Y-87251250D01*
X148940000Y-86738750D01*
X148941053Y-86717309D01*
X148944203Y-86696074D01*
X148949419Y-86675250D01*
X148956651Y-86655038D01*
X148965830Y-86635632D01*
X148976866Y-86617219D01*
X148989654Y-86599976D01*
X149004070Y-86584070D01*
X149019976Y-86569654D01*
X149037219Y-86556866D01*
X149055632Y-86545830D01*
X149075038Y-86536651D01*
X149095250Y-86529419D01*
X149116074Y-86524203D01*
X149137309Y-86521053D01*
X149158750Y-86520000D01*
X149596250Y-86520000D01*
X149617691Y-86521053D01*
G37*
G36*
X146954703Y-84790722D02*
G01*
X146969264Y-84792882D01*
X146983543Y-84796459D01*
X146997403Y-84801418D01*
X147010710Y-84807712D01*
X147023336Y-84815280D01*
X147035159Y-84824048D01*
X147046066Y-84833934D01*
X147055952Y-84844841D01*
X147064720Y-84856664D01*
X147072288Y-84869290D01*
X147078582Y-84882597D01*
X147083541Y-84896457D01*
X147087118Y-84910736D01*
X147089278Y-84925297D01*
X147090000Y-84940000D01*
X147090000Y-85240000D01*
X147089278Y-85254703D01*
X147087118Y-85269264D01*
X147083541Y-85283543D01*
X147078582Y-85297403D01*
X147072288Y-85310710D01*
X147064720Y-85323336D01*
X147055952Y-85335159D01*
X147046066Y-85346066D01*
X147035159Y-85355952D01*
X147023336Y-85364720D01*
X147010710Y-85372288D01*
X146997403Y-85378582D01*
X146983543Y-85383541D01*
X146969264Y-85387118D01*
X146954703Y-85389278D01*
X146940000Y-85390000D01*
X145290000Y-85390000D01*
X145275297Y-85389278D01*
X145260736Y-85387118D01*
X145246457Y-85383541D01*
X145232597Y-85378582D01*
X145219290Y-85372288D01*
X145206664Y-85364720D01*
X145194841Y-85355952D01*
X145183934Y-85346066D01*
X145174048Y-85335159D01*
X145165280Y-85323336D01*
X145157712Y-85310710D01*
X145151418Y-85297403D01*
X145146459Y-85283543D01*
X145142882Y-85269264D01*
X145140722Y-85254703D01*
X145140000Y-85240000D01*
X145140000Y-84940000D01*
X145140722Y-84925297D01*
X145142882Y-84910736D01*
X145146459Y-84896457D01*
X145151418Y-84882597D01*
X145157712Y-84869290D01*
X145165280Y-84856664D01*
X145174048Y-84844841D01*
X145183934Y-84833934D01*
X145194841Y-84824048D01*
X145206664Y-84815280D01*
X145219290Y-84807712D01*
X145232597Y-84801418D01*
X145246457Y-84796459D01*
X145260736Y-84792882D01*
X145275297Y-84790722D01*
X145290000Y-84790000D01*
X146940000Y-84790000D01*
X146954703Y-84790722D01*
G37*
G36*
X146954703Y-83520722D02*
G01*
X146969264Y-83522882D01*
X146983543Y-83526459D01*
X146997403Y-83531418D01*
X147010710Y-83537712D01*
X147023336Y-83545280D01*
X147035159Y-83554048D01*
X147046066Y-83563934D01*
X147055952Y-83574841D01*
X147064720Y-83586664D01*
X147072288Y-83599290D01*
X147078582Y-83612597D01*
X147083541Y-83626457D01*
X147087118Y-83640736D01*
X147089278Y-83655297D01*
X147090000Y-83670000D01*
X147090000Y-83970000D01*
X147089278Y-83984703D01*
X147087118Y-83999264D01*
X147083541Y-84013543D01*
X147078582Y-84027403D01*
X147072288Y-84040710D01*
X147064720Y-84053336D01*
X147055952Y-84065159D01*
X147046066Y-84076066D01*
X147035159Y-84085952D01*
X147023336Y-84094720D01*
X147010710Y-84102288D01*
X146997403Y-84108582D01*
X146983543Y-84113541D01*
X146969264Y-84117118D01*
X146954703Y-84119278D01*
X146940000Y-84120000D01*
X145290000Y-84120000D01*
X145275297Y-84119278D01*
X145260736Y-84117118D01*
X145246457Y-84113541D01*
X145232597Y-84108582D01*
X145219290Y-84102288D01*
X145206664Y-84094720D01*
X145194841Y-84085952D01*
X145183934Y-84076066D01*
X145174048Y-84065159D01*
X145165280Y-84053336D01*
X145157712Y-84040710D01*
X145151418Y-84027403D01*
X145146459Y-84013543D01*
X145142882Y-83999264D01*
X145140722Y-83984703D01*
X145140000Y-83970000D01*
X145140000Y-83670000D01*
X145140722Y-83655297D01*
X145142882Y-83640736D01*
X145146459Y-83626457D01*
X145151418Y-83612597D01*
X145157712Y-83599290D01*
X145165280Y-83586664D01*
X145174048Y-83574841D01*
X145183934Y-83563934D01*
X145194841Y-83554048D01*
X145206664Y-83545280D01*
X145219290Y-83537712D01*
X145232597Y-83531418D01*
X145246457Y-83526459D01*
X145260736Y-83522882D01*
X145275297Y-83520722D01*
X145290000Y-83520000D01*
X146940000Y-83520000D01*
X146954703Y-83520722D01*
G37*
G36*
X146954703Y-82250722D02*
G01*
X146969264Y-82252882D01*
X146983543Y-82256459D01*
X146997403Y-82261418D01*
X147010710Y-82267712D01*
X147023336Y-82275280D01*
X147035159Y-82284048D01*
X147046066Y-82293934D01*
X147055952Y-82304841D01*
X147064720Y-82316664D01*
X147072288Y-82329290D01*
X147078582Y-82342597D01*
X147083541Y-82356457D01*
X147087118Y-82370736D01*
X147089278Y-82385297D01*
X147090000Y-82400000D01*
X147090000Y-82700000D01*
X147089278Y-82714703D01*
X147087118Y-82729264D01*
X147083541Y-82743543D01*
X147078582Y-82757403D01*
X147072288Y-82770710D01*
X147064720Y-82783336D01*
X147055952Y-82795159D01*
X147046066Y-82806066D01*
X147035159Y-82815952D01*
X147023336Y-82824720D01*
X147010710Y-82832288D01*
X146997403Y-82838582D01*
X146983543Y-82843541D01*
X146969264Y-82847118D01*
X146954703Y-82849278D01*
X146940000Y-82850000D01*
X145290000Y-82850000D01*
X145275297Y-82849278D01*
X145260736Y-82847118D01*
X145246457Y-82843541D01*
X145232597Y-82838582D01*
X145219290Y-82832288D01*
X145206664Y-82824720D01*
X145194841Y-82815952D01*
X145183934Y-82806066D01*
X145174048Y-82795159D01*
X145165280Y-82783336D01*
X145157712Y-82770710D01*
X145151418Y-82757403D01*
X145146459Y-82743543D01*
X145142882Y-82729264D01*
X145140722Y-82714703D01*
X145140000Y-82700000D01*
X145140000Y-82400000D01*
X145140722Y-82385297D01*
X145142882Y-82370736D01*
X145146459Y-82356457D01*
X145151418Y-82342597D01*
X145157712Y-82329290D01*
X145165280Y-82316664D01*
X145174048Y-82304841D01*
X145183934Y-82293934D01*
X145194841Y-82284048D01*
X145206664Y-82275280D01*
X145219290Y-82267712D01*
X145232597Y-82261418D01*
X145246457Y-82256459D01*
X145260736Y-82252882D01*
X145275297Y-82250722D01*
X145290000Y-82250000D01*
X146940000Y-82250000D01*
X146954703Y-82250722D01*
G37*
G36*
X146954703Y-80980722D02*
G01*
X146969264Y-80982882D01*
X146983543Y-80986459D01*
X146997403Y-80991418D01*
X147010710Y-80997712D01*
X147023336Y-81005280D01*
X147035159Y-81014048D01*
X147046066Y-81023934D01*
X147055952Y-81034841D01*
X147064720Y-81046664D01*
X147072288Y-81059290D01*
X147078582Y-81072597D01*
X147083541Y-81086457D01*
X147087118Y-81100736D01*
X147089278Y-81115297D01*
X147090000Y-81130000D01*
X147090000Y-81430000D01*
X147089278Y-81444703D01*
X147087118Y-81459264D01*
X147083541Y-81473543D01*
X147078582Y-81487403D01*
X147072288Y-81500710D01*
X147064720Y-81513336D01*
X147055952Y-81525159D01*
X147046066Y-81536066D01*
X147035159Y-81545952D01*
X147023336Y-81554720D01*
X147010710Y-81562288D01*
X146997403Y-81568582D01*
X146983543Y-81573541D01*
X146969264Y-81577118D01*
X146954703Y-81579278D01*
X146940000Y-81580000D01*
X145290000Y-81580000D01*
X145275297Y-81579278D01*
X145260736Y-81577118D01*
X145246457Y-81573541D01*
X145232597Y-81568582D01*
X145219290Y-81562288D01*
X145206664Y-81554720D01*
X145194841Y-81545952D01*
X145183934Y-81536066D01*
X145174048Y-81525159D01*
X145165280Y-81513336D01*
X145157712Y-81500710D01*
X145151418Y-81487403D01*
X145146459Y-81473543D01*
X145142882Y-81459264D01*
X145140722Y-81444703D01*
X145140000Y-81430000D01*
X145140000Y-81130000D01*
X145140722Y-81115297D01*
X145142882Y-81100736D01*
X145146459Y-81086457D01*
X145151418Y-81072597D01*
X145157712Y-81059290D01*
X145165280Y-81046664D01*
X145174048Y-81034841D01*
X145183934Y-81023934D01*
X145194841Y-81014048D01*
X145206664Y-81005280D01*
X145219290Y-80997712D01*
X145232597Y-80991418D01*
X145246457Y-80986459D01*
X145260736Y-80982882D01*
X145275297Y-80980722D01*
X145290000Y-80980000D01*
X146940000Y-80980000D01*
X146954703Y-80980722D01*
G37*
G36*
X146954703Y-79710722D02*
G01*
X146969264Y-79712882D01*
X146983543Y-79716459D01*
X146997403Y-79721418D01*
X147010710Y-79727712D01*
X147023336Y-79735280D01*
X147035159Y-79744048D01*
X147046066Y-79753934D01*
X147055952Y-79764841D01*
X147064720Y-79776664D01*
X147072288Y-79789290D01*
X147078582Y-79802597D01*
X147083541Y-79816457D01*
X147087118Y-79830736D01*
X147089278Y-79845297D01*
X147090000Y-79860000D01*
X147090000Y-80160000D01*
X147089278Y-80174703D01*
X147087118Y-80189264D01*
X147083541Y-80203543D01*
X147078582Y-80217403D01*
X147072288Y-80230710D01*
X147064720Y-80243336D01*
X147055952Y-80255159D01*
X147046066Y-80266066D01*
X147035159Y-80275952D01*
X147023336Y-80284720D01*
X147010710Y-80292288D01*
X146997403Y-80298582D01*
X146983543Y-80303541D01*
X146969264Y-80307118D01*
X146954703Y-80309278D01*
X146940000Y-80310000D01*
X145290000Y-80310000D01*
X145275297Y-80309278D01*
X145260736Y-80307118D01*
X145246457Y-80303541D01*
X145232597Y-80298582D01*
X145219290Y-80292288D01*
X145206664Y-80284720D01*
X145194841Y-80275952D01*
X145183934Y-80266066D01*
X145174048Y-80255159D01*
X145165280Y-80243336D01*
X145157712Y-80230710D01*
X145151418Y-80217403D01*
X145146459Y-80203543D01*
X145142882Y-80189264D01*
X145140722Y-80174703D01*
X145140000Y-80160000D01*
X145140000Y-79860000D01*
X145140722Y-79845297D01*
X145142882Y-79830736D01*
X145146459Y-79816457D01*
X145151418Y-79802597D01*
X145157712Y-79789290D01*
X145165280Y-79776664D01*
X145174048Y-79764841D01*
X145183934Y-79753934D01*
X145194841Y-79744048D01*
X145206664Y-79735280D01*
X145219290Y-79727712D01*
X145232597Y-79721418D01*
X145246457Y-79716459D01*
X145260736Y-79712882D01*
X145275297Y-79710722D01*
X145290000Y-79710000D01*
X146940000Y-79710000D01*
X146954703Y-79710722D01*
G37*
G36*
X146954703Y-78440722D02*
G01*
X146969264Y-78442882D01*
X146983543Y-78446459D01*
X146997403Y-78451418D01*
X147010710Y-78457712D01*
X147023336Y-78465280D01*
X147035159Y-78474048D01*
X147046066Y-78483934D01*
X147055952Y-78494841D01*
X147064720Y-78506664D01*
X147072288Y-78519290D01*
X147078582Y-78532597D01*
X147083541Y-78546457D01*
X147087118Y-78560736D01*
X147089278Y-78575297D01*
X147090000Y-78590000D01*
X147090000Y-78890000D01*
X147089278Y-78904703D01*
X147087118Y-78919264D01*
X147083541Y-78933543D01*
X147078582Y-78947403D01*
X147072288Y-78960710D01*
X147064720Y-78973336D01*
X147055952Y-78985159D01*
X147046066Y-78996066D01*
X147035159Y-79005952D01*
X147023336Y-79014720D01*
X147010710Y-79022288D01*
X146997403Y-79028582D01*
X146983543Y-79033541D01*
X146969264Y-79037118D01*
X146954703Y-79039278D01*
X146940000Y-79040000D01*
X145290000Y-79040000D01*
X145275297Y-79039278D01*
X145260736Y-79037118D01*
X145246457Y-79033541D01*
X145232597Y-79028582D01*
X145219290Y-79022288D01*
X145206664Y-79014720D01*
X145194841Y-79005952D01*
X145183934Y-78996066D01*
X145174048Y-78985159D01*
X145165280Y-78973336D01*
X145157712Y-78960710D01*
X145151418Y-78947403D01*
X145146459Y-78933543D01*
X145142882Y-78919264D01*
X145140722Y-78904703D01*
X145140000Y-78890000D01*
X145140000Y-78590000D01*
X145140722Y-78575297D01*
X145142882Y-78560736D01*
X145146459Y-78546457D01*
X145151418Y-78532597D01*
X145157712Y-78519290D01*
X145165280Y-78506664D01*
X145174048Y-78494841D01*
X145183934Y-78483934D01*
X145194841Y-78474048D01*
X145206664Y-78465280D01*
X145219290Y-78457712D01*
X145232597Y-78451418D01*
X145246457Y-78446459D01*
X145260736Y-78442882D01*
X145275297Y-78440722D01*
X145290000Y-78440000D01*
X146940000Y-78440000D01*
X146954703Y-78440722D01*
G37*
G36*
X146954703Y-77170722D02*
G01*
X146969264Y-77172882D01*
X146983543Y-77176459D01*
X146997403Y-77181418D01*
X147010710Y-77187712D01*
X147023336Y-77195280D01*
X147035159Y-77204048D01*
X147046066Y-77213934D01*
X147055952Y-77224841D01*
X147064720Y-77236664D01*
X147072288Y-77249290D01*
X147078582Y-77262597D01*
X147083541Y-77276457D01*
X147087118Y-77290736D01*
X147089278Y-77305297D01*
X147090000Y-77320000D01*
X147090000Y-77620000D01*
X147089278Y-77634703D01*
X147087118Y-77649264D01*
X147083541Y-77663543D01*
X147078582Y-77677403D01*
X147072288Y-77690710D01*
X147064720Y-77703336D01*
X147055952Y-77715159D01*
X147046066Y-77726066D01*
X147035159Y-77735952D01*
X147023336Y-77744720D01*
X147010710Y-77752288D01*
X146997403Y-77758582D01*
X146983543Y-77763541D01*
X146969264Y-77767118D01*
X146954703Y-77769278D01*
X146940000Y-77770000D01*
X145290000Y-77770000D01*
X145275297Y-77769278D01*
X145260736Y-77767118D01*
X145246457Y-77763541D01*
X145232597Y-77758582D01*
X145219290Y-77752288D01*
X145206664Y-77744720D01*
X145194841Y-77735952D01*
X145183934Y-77726066D01*
X145174048Y-77715159D01*
X145165280Y-77703336D01*
X145157712Y-77690710D01*
X145151418Y-77677403D01*
X145146459Y-77663543D01*
X145142882Y-77649264D01*
X145140722Y-77634703D01*
X145140000Y-77620000D01*
X145140000Y-77320000D01*
X145140722Y-77305297D01*
X145142882Y-77290736D01*
X145146459Y-77276457D01*
X145151418Y-77262597D01*
X145157712Y-77249290D01*
X145165280Y-77236664D01*
X145174048Y-77224841D01*
X145183934Y-77213934D01*
X145194841Y-77204048D01*
X145206664Y-77195280D01*
X145219290Y-77187712D01*
X145232597Y-77181418D01*
X145246457Y-77176459D01*
X145260736Y-77172882D01*
X145275297Y-77170722D01*
X145290000Y-77170000D01*
X146940000Y-77170000D01*
X146954703Y-77170722D01*
G37*
G36*
X151904703Y-77170722D02*
G01*
X151919264Y-77172882D01*
X151933543Y-77176459D01*
X151947403Y-77181418D01*
X151960710Y-77187712D01*
X151973336Y-77195280D01*
X151985159Y-77204048D01*
X151996066Y-77213934D01*
X152005952Y-77224841D01*
X152014720Y-77236664D01*
X152022288Y-77249290D01*
X152028582Y-77262597D01*
X152033541Y-77276457D01*
X152037118Y-77290736D01*
X152039278Y-77305297D01*
X152040000Y-77320000D01*
X152040000Y-77620000D01*
X152039278Y-77634703D01*
X152037118Y-77649264D01*
X152033541Y-77663543D01*
X152028582Y-77677403D01*
X152022288Y-77690710D01*
X152014720Y-77703336D01*
X152005952Y-77715159D01*
X151996066Y-77726066D01*
X151985159Y-77735952D01*
X151973336Y-77744720D01*
X151960710Y-77752288D01*
X151947403Y-77758582D01*
X151933543Y-77763541D01*
X151919264Y-77767118D01*
X151904703Y-77769278D01*
X151890000Y-77770000D01*
X150240000Y-77770000D01*
X150225297Y-77769278D01*
X150210736Y-77767118D01*
X150196457Y-77763541D01*
X150182597Y-77758582D01*
X150169290Y-77752288D01*
X150156664Y-77744720D01*
X150144841Y-77735952D01*
X150133934Y-77726066D01*
X150124048Y-77715159D01*
X150115280Y-77703336D01*
X150107712Y-77690710D01*
X150101418Y-77677403D01*
X150096459Y-77663543D01*
X150092882Y-77649264D01*
X150090722Y-77634703D01*
X150090000Y-77620000D01*
X150090000Y-77320000D01*
X150090722Y-77305297D01*
X150092882Y-77290736D01*
X150096459Y-77276457D01*
X150101418Y-77262597D01*
X150107712Y-77249290D01*
X150115280Y-77236664D01*
X150124048Y-77224841D01*
X150133934Y-77213934D01*
X150144841Y-77204048D01*
X150156664Y-77195280D01*
X150169290Y-77187712D01*
X150182597Y-77181418D01*
X150196457Y-77176459D01*
X150210736Y-77172882D01*
X150225297Y-77170722D01*
X150240000Y-77170000D01*
X151890000Y-77170000D01*
X151904703Y-77170722D01*
G37*
G36*
X151904703Y-78440722D02*
G01*
X151919264Y-78442882D01*
X151933543Y-78446459D01*
X151947403Y-78451418D01*
X151960710Y-78457712D01*
X151973336Y-78465280D01*
X151985159Y-78474048D01*
X151996066Y-78483934D01*
X152005952Y-78494841D01*
X152014720Y-78506664D01*
X152022288Y-78519290D01*
X152028582Y-78532597D01*
X152033541Y-78546457D01*
X152037118Y-78560736D01*
X152039278Y-78575297D01*
X152040000Y-78590000D01*
X152040000Y-78890000D01*
X152039278Y-78904703D01*
X152037118Y-78919264D01*
X152033541Y-78933543D01*
X152028582Y-78947403D01*
X152022288Y-78960710D01*
X152014720Y-78973336D01*
X152005952Y-78985159D01*
X151996066Y-78996066D01*
X151985159Y-79005952D01*
X151973336Y-79014720D01*
X151960710Y-79022288D01*
X151947403Y-79028582D01*
X151933543Y-79033541D01*
X151919264Y-79037118D01*
X151904703Y-79039278D01*
X151890000Y-79040000D01*
X150240000Y-79040000D01*
X150225297Y-79039278D01*
X150210736Y-79037118D01*
X150196457Y-79033541D01*
X150182597Y-79028582D01*
X150169290Y-79022288D01*
X150156664Y-79014720D01*
X150144841Y-79005952D01*
X150133934Y-78996066D01*
X150124048Y-78985159D01*
X150115280Y-78973336D01*
X150107712Y-78960710D01*
X150101418Y-78947403D01*
X150096459Y-78933543D01*
X150092882Y-78919264D01*
X150090722Y-78904703D01*
X150090000Y-78890000D01*
X150090000Y-78590000D01*
X150090722Y-78575297D01*
X150092882Y-78560736D01*
X150096459Y-78546457D01*
X150101418Y-78532597D01*
X150107712Y-78519290D01*
X150115280Y-78506664D01*
X150124048Y-78494841D01*
X150133934Y-78483934D01*
X150144841Y-78474048D01*
X150156664Y-78465280D01*
X150169290Y-78457712D01*
X150182597Y-78451418D01*
X150196457Y-78446459D01*
X150210736Y-78442882D01*
X150225297Y-78440722D01*
X150240000Y-78440000D01*
X151890000Y-78440000D01*
X151904703Y-78440722D01*
G37*
G36*
X151904703Y-79710722D02*
G01*
X151919264Y-79712882D01*
X151933543Y-79716459D01*
X151947403Y-79721418D01*
X151960710Y-79727712D01*
X151973336Y-79735280D01*
X151985159Y-79744048D01*
X151996066Y-79753934D01*
X152005952Y-79764841D01*
X152014720Y-79776664D01*
X152022288Y-79789290D01*
X152028582Y-79802597D01*
X152033541Y-79816457D01*
X152037118Y-79830736D01*
X152039278Y-79845297D01*
X152040000Y-79860000D01*
X152040000Y-80160000D01*
X152039278Y-80174703D01*
X152037118Y-80189264D01*
X152033541Y-80203543D01*
X152028582Y-80217403D01*
X152022288Y-80230710D01*
X152014720Y-80243336D01*
X152005952Y-80255159D01*
X151996066Y-80266066D01*
X151985159Y-80275952D01*
X151973336Y-80284720D01*
X151960710Y-80292288D01*
X151947403Y-80298582D01*
X151933543Y-80303541D01*
X151919264Y-80307118D01*
X151904703Y-80309278D01*
X151890000Y-80310000D01*
X150240000Y-80310000D01*
X150225297Y-80309278D01*
X150210736Y-80307118D01*
X150196457Y-80303541D01*
X150182597Y-80298582D01*
X150169290Y-80292288D01*
X150156664Y-80284720D01*
X150144841Y-80275952D01*
X150133934Y-80266066D01*
X150124048Y-80255159D01*
X150115280Y-80243336D01*
X150107712Y-80230710D01*
X150101418Y-80217403D01*
X150096459Y-80203543D01*
X150092882Y-80189264D01*
X150090722Y-80174703D01*
X150090000Y-80160000D01*
X150090000Y-79860000D01*
X150090722Y-79845297D01*
X150092882Y-79830736D01*
X150096459Y-79816457D01*
X150101418Y-79802597D01*
X150107712Y-79789290D01*
X150115280Y-79776664D01*
X150124048Y-79764841D01*
X150133934Y-79753934D01*
X150144841Y-79744048D01*
X150156664Y-79735280D01*
X150169290Y-79727712D01*
X150182597Y-79721418D01*
X150196457Y-79716459D01*
X150210736Y-79712882D01*
X150225297Y-79710722D01*
X150240000Y-79710000D01*
X151890000Y-79710000D01*
X151904703Y-79710722D01*
G37*
G36*
X151904703Y-80980722D02*
G01*
X151919264Y-80982882D01*
X151933543Y-80986459D01*
X151947403Y-80991418D01*
X151960710Y-80997712D01*
X151973336Y-81005280D01*
X151985159Y-81014048D01*
X151996066Y-81023934D01*
X152005952Y-81034841D01*
X152014720Y-81046664D01*
X152022288Y-81059290D01*
X152028582Y-81072597D01*
X152033541Y-81086457D01*
X152037118Y-81100736D01*
X152039278Y-81115297D01*
X152040000Y-81130000D01*
X152040000Y-81430000D01*
X152039278Y-81444703D01*
X152037118Y-81459264D01*
X152033541Y-81473543D01*
X152028582Y-81487403D01*
X152022288Y-81500710D01*
X152014720Y-81513336D01*
X152005952Y-81525159D01*
X151996066Y-81536066D01*
X151985159Y-81545952D01*
X151973336Y-81554720D01*
X151960710Y-81562288D01*
X151947403Y-81568582D01*
X151933543Y-81573541D01*
X151919264Y-81577118D01*
X151904703Y-81579278D01*
X151890000Y-81580000D01*
X150240000Y-81580000D01*
X150225297Y-81579278D01*
X150210736Y-81577118D01*
X150196457Y-81573541D01*
X150182597Y-81568582D01*
X150169290Y-81562288D01*
X150156664Y-81554720D01*
X150144841Y-81545952D01*
X150133934Y-81536066D01*
X150124048Y-81525159D01*
X150115280Y-81513336D01*
X150107712Y-81500710D01*
X150101418Y-81487403D01*
X150096459Y-81473543D01*
X150092882Y-81459264D01*
X150090722Y-81444703D01*
X150090000Y-81430000D01*
X150090000Y-81130000D01*
X150090722Y-81115297D01*
X150092882Y-81100736D01*
X150096459Y-81086457D01*
X150101418Y-81072597D01*
X150107712Y-81059290D01*
X150115280Y-81046664D01*
X150124048Y-81034841D01*
X150133934Y-81023934D01*
X150144841Y-81014048D01*
X150156664Y-81005280D01*
X150169290Y-80997712D01*
X150182597Y-80991418D01*
X150196457Y-80986459D01*
X150210736Y-80982882D01*
X150225297Y-80980722D01*
X150240000Y-80980000D01*
X151890000Y-80980000D01*
X151904703Y-80980722D01*
G37*
G36*
X151904703Y-82250722D02*
G01*
X151919264Y-82252882D01*
X151933543Y-82256459D01*
X151947403Y-82261418D01*
X151960710Y-82267712D01*
X151973336Y-82275280D01*
X151985159Y-82284048D01*
X151996066Y-82293934D01*
X152005952Y-82304841D01*
X152014720Y-82316664D01*
X152022288Y-82329290D01*
X152028582Y-82342597D01*
X152033541Y-82356457D01*
X152037118Y-82370736D01*
X152039278Y-82385297D01*
X152040000Y-82400000D01*
X152040000Y-82700000D01*
X152039278Y-82714703D01*
X152037118Y-82729264D01*
X152033541Y-82743543D01*
X152028582Y-82757403D01*
X152022288Y-82770710D01*
X152014720Y-82783336D01*
X152005952Y-82795159D01*
X151996066Y-82806066D01*
X151985159Y-82815952D01*
X151973336Y-82824720D01*
X151960710Y-82832288D01*
X151947403Y-82838582D01*
X151933543Y-82843541D01*
X151919264Y-82847118D01*
X151904703Y-82849278D01*
X151890000Y-82850000D01*
X150240000Y-82850000D01*
X150225297Y-82849278D01*
X150210736Y-82847118D01*
X150196457Y-82843541D01*
X150182597Y-82838582D01*
X150169290Y-82832288D01*
X150156664Y-82824720D01*
X150144841Y-82815952D01*
X150133934Y-82806066D01*
X150124048Y-82795159D01*
X150115280Y-82783336D01*
X150107712Y-82770710D01*
X150101418Y-82757403D01*
X150096459Y-82743543D01*
X150092882Y-82729264D01*
X150090722Y-82714703D01*
X150090000Y-82700000D01*
X150090000Y-82400000D01*
X150090722Y-82385297D01*
X150092882Y-82370736D01*
X150096459Y-82356457D01*
X150101418Y-82342597D01*
X150107712Y-82329290D01*
X150115280Y-82316664D01*
X150124048Y-82304841D01*
X150133934Y-82293934D01*
X150144841Y-82284048D01*
X150156664Y-82275280D01*
X150169290Y-82267712D01*
X150182597Y-82261418D01*
X150196457Y-82256459D01*
X150210736Y-82252882D01*
X150225297Y-82250722D01*
X150240000Y-82250000D01*
X151890000Y-82250000D01*
X151904703Y-82250722D01*
G37*
G36*
X151904703Y-83520722D02*
G01*
X151919264Y-83522882D01*
X151933543Y-83526459D01*
X151947403Y-83531418D01*
X151960710Y-83537712D01*
X151973336Y-83545280D01*
X151985159Y-83554048D01*
X151996066Y-83563934D01*
X152005952Y-83574841D01*
X152014720Y-83586664D01*
X152022288Y-83599290D01*
X152028582Y-83612597D01*
X152033541Y-83626457D01*
X152037118Y-83640736D01*
X152039278Y-83655297D01*
X152040000Y-83670000D01*
X152040000Y-83970000D01*
X152039278Y-83984703D01*
X152037118Y-83999264D01*
X152033541Y-84013543D01*
X152028582Y-84027403D01*
X152022288Y-84040710D01*
X152014720Y-84053336D01*
X152005952Y-84065159D01*
X151996066Y-84076066D01*
X151985159Y-84085952D01*
X151973336Y-84094720D01*
X151960710Y-84102288D01*
X151947403Y-84108582D01*
X151933543Y-84113541D01*
X151919264Y-84117118D01*
X151904703Y-84119278D01*
X151890000Y-84120000D01*
X150240000Y-84120000D01*
X150225297Y-84119278D01*
X150210736Y-84117118D01*
X150196457Y-84113541D01*
X150182597Y-84108582D01*
X150169290Y-84102288D01*
X150156664Y-84094720D01*
X150144841Y-84085952D01*
X150133934Y-84076066D01*
X150124048Y-84065159D01*
X150115280Y-84053336D01*
X150107712Y-84040710D01*
X150101418Y-84027403D01*
X150096459Y-84013543D01*
X150092882Y-83999264D01*
X150090722Y-83984703D01*
X150090000Y-83970000D01*
X150090000Y-83670000D01*
X150090722Y-83655297D01*
X150092882Y-83640736D01*
X150096459Y-83626457D01*
X150101418Y-83612597D01*
X150107712Y-83599290D01*
X150115280Y-83586664D01*
X150124048Y-83574841D01*
X150133934Y-83563934D01*
X150144841Y-83554048D01*
X150156664Y-83545280D01*
X150169290Y-83537712D01*
X150182597Y-83531418D01*
X150196457Y-83526459D01*
X150210736Y-83522882D01*
X150225297Y-83520722D01*
X150240000Y-83520000D01*
X151890000Y-83520000D01*
X151904703Y-83520722D01*
G37*
G36*
X151904703Y-84790722D02*
G01*
X151919264Y-84792882D01*
X151933543Y-84796459D01*
X151947403Y-84801418D01*
X151960710Y-84807712D01*
X151973336Y-84815280D01*
X151985159Y-84824048D01*
X151996066Y-84833934D01*
X152005952Y-84844841D01*
X152014720Y-84856664D01*
X152022288Y-84869290D01*
X152028582Y-84882597D01*
X152033541Y-84896457D01*
X152037118Y-84910736D01*
X152039278Y-84925297D01*
X152040000Y-84940000D01*
X152040000Y-85240000D01*
X152039278Y-85254703D01*
X152037118Y-85269264D01*
X152033541Y-85283543D01*
X152028582Y-85297403D01*
X152022288Y-85310710D01*
X152014720Y-85323336D01*
X152005952Y-85335159D01*
X151996066Y-85346066D01*
X151985159Y-85355952D01*
X151973336Y-85364720D01*
X151960710Y-85372288D01*
X151947403Y-85378582D01*
X151933543Y-85383541D01*
X151919264Y-85387118D01*
X151904703Y-85389278D01*
X151890000Y-85390000D01*
X150240000Y-85390000D01*
X150225297Y-85389278D01*
X150210736Y-85387118D01*
X150196457Y-85383541D01*
X150182597Y-85378582D01*
X150169290Y-85372288D01*
X150156664Y-85364720D01*
X150144841Y-85355952D01*
X150133934Y-85346066D01*
X150124048Y-85335159D01*
X150115280Y-85323336D01*
X150107712Y-85310710D01*
X150101418Y-85297403D01*
X150096459Y-85283543D01*
X150092882Y-85269264D01*
X150090722Y-85254703D01*
X150090000Y-85240000D01*
X150090000Y-84940000D01*
X150090722Y-84925297D01*
X150092882Y-84910736D01*
X150096459Y-84896457D01*
X150101418Y-84882597D01*
X150107712Y-84869290D01*
X150115280Y-84856664D01*
X150124048Y-84844841D01*
X150133934Y-84833934D01*
X150144841Y-84824048D01*
X150156664Y-84815280D01*
X150169290Y-84807712D01*
X150182597Y-84801418D01*
X150196457Y-84796459D01*
X150210736Y-84792882D01*
X150225297Y-84790722D01*
X150240000Y-84790000D01*
X151890000Y-84790000D01*
X151904703Y-84790722D01*
G37*
G36*
X137654191Y-89061053D02*
G01*
X137675426Y-89064203D01*
X137696250Y-89069419D01*
X137716462Y-89076651D01*
X137735868Y-89085830D01*
X137754281Y-89096866D01*
X137771524Y-89109654D01*
X137787430Y-89124070D01*
X137801846Y-89139976D01*
X137814634Y-89157219D01*
X137825670Y-89175632D01*
X137834849Y-89195038D01*
X137842081Y-89215250D01*
X137847297Y-89236074D01*
X137850447Y-89257309D01*
X137851500Y-89278750D01*
X137851500Y-89791250D01*
X137850447Y-89812691D01*
X137847297Y-89833926D01*
X137842081Y-89854750D01*
X137834849Y-89874962D01*
X137825670Y-89894368D01*
X137814634Y-89912781D01*
X137801846Y-89930024D01*
X137787430Y-89945930D01*
X137771524Y-89960346D01*
X137754281Y-89973134D01*
X137735868Y-89984170D01*
X137716462Y-89993349D01*
X137696250Y-90000581D01*
X137675426Y-90005797D01*
X137654191Y-90008947D01*
X137632750Y-90010000D01*
X137195250Y-90010000D01*
X137173809Y-90008947D01*
X137152574Y-90005797D01*
X137131750Y-90000581D01*
X137111538Y-89993349D01*
X137092132Y-89984170D01*
X137073719Y-89973134D01*
X137056476Y-89960346D01*
X137040570Y-89945930D01*
X137026154Y-89930024D01*
X137013366Y-89912781D01*
X137002330Y-89894368D01*
X136993151Y-89874962D01*
X136985919Y-89854750D01*
X136980703Y-89833926D01*
X136977553Y-89812691D01*
X136976500Y-89791250D01*
X136976500Y-89278750D01*
X136977553Y-89257309D01*
X136980703Y-89236074D01*
X136985919Y-89215250D01*
X136993151Y-89195038D01*
X137002330Y-89175632D01*
X137013366Y-89157219D01*
X137026154Y-89139976D01*
X137040570Y-89124070D01*
X137056476Y-89109654D01*
X137073719Y-89096866D01*
X137092132Y-89085830D01*
X137111538Y-89076651D01*
X137131750Y-89069419D01*
X137152574Y-89064203D01*
X137173809Y-89061053D01*
X137195250Y-89060000D01*
X137632750Y-89060000D01*
X137654191Y-89061053D01*
G37*
G36*
X139229191Y-89061053D02*
G01*
X139250426Y-89064203D01*
X139271250Y-89069419D01*
X139291462Y-89076651D01*
X139310868Y-89085830D01*
X139329281Y-89096866D01*
X139346524Y-89109654D01*
X139362430Y-89124070D01*
X139376846Y-89139976D01*
X139389634Y-89157219D01*
X139400670Y-89175632D01*
X139409849Y-89195038D01*
X139417081Y-89215250D01*
X139422297Y-89236074D01*
X139425447Y-89257309D01*
X139426500Y-89278750D01*
X139426500Y-89791250D01*
X139425447Y-89812691D01*
X139422297Y-89833926D01*
X139417081Y-89854750D01*
X139409849Y-89874962D01*
X139400670Y-89894368D01*
X139389634Y-89912781D01*
X139376846Y-89930024D01*
X139362430Y-89945930D01*
X139346524Y-89960346D01*
X139329281Y-89973134D01*
X139310868Y-89984170D01*
X139291462Y-89993349D01*
X139271250Y-90000581D01*
X139250426Y-90005797D01*
X139229191Y-90008947D01*
X139207750Y-90010000D01*
X138770250Y-90010000D01*
X138748809Y-90008947D01*
X138727574Y-90005797D01*
X138706750Y-90000581D01*
X138686538Y-89993349D01*
X138667132Y-89984170D01*
X138648719Y-89973134D01*
X138631476Y-89960346D01*
X138615570Y-89945930D01*
X138601154Y-89930024D01*
X138588366Y-89912781D01*
X138577330Y-89894368D01*
X138568151Y-89874962D01*
X138560919Y-89854750D01*
X138555703Y-89833926D01*
X138552553Y-89812691D01*
X138551500Y-89791250D01*
X138551500Y-89278750D01*
X138552553Y-89257309D01*
X138555703Y-89236074D01*
X138560919Y-89215250D01*
X138568151Y-89195038D01*
X138577330Y-89175632D01*
X138588366Y-89157219D01*
X138601154Y-89139976D01*
X138615570Y-89124070D01*
X138631476Y-89109654D01*
X138648719Y-89096866D01*
X138667132Y-89085830D01*
X138686538Y-89076651D01*
X138706750Y-89069419D01*
X138727574Y-89064203D01*
X138748809Y-89061053D01*
X138770250Y-89060000D01*
X139207750Y-89060000D01*
X139229191Y-89061053D01*
G37*
G36*
X161047691Y-85886053D02*
G01*
X161068926Y-85889203D01*
X161089750Y-85894419D01*
X161109962Y-85901651D01*
X161129368Y-85910830D01*
X161147781Y-85921866D01*
X161165024Y-85934654D01*
X161180930Y-85949070D01*
X161195346Y-85964976D01*
X161208134Y-85982219D01*
X161219170Y-86000632D01*
X161228349Y-86020038D01*
X161235581Y-86040250D01*
X161240797Y-86061074D01*
X161243947Y-86082309D01*
X161245000Y-86103750D01*
X161245000Y-86616250D01*
X161243947Y-86637691D01*
X161240797Y-86658926D01*
X161235581Y-86679750D01*
X161228349Y-86699962D01*
X161219170Y-86719368D01*
X161208134Y-86737781D01*
X161195346Y-86755024D01*
X161180930Y-86770930D01*
X161165024Y-86785346D01*
X161147781Y-86798134D01*
X161129368Y-86809170D01*
X161109962Y-86818349D01*
X161089750Y-86825581D01*
X161068926Y-86830797D01*
X161047691Y-86833947D01*
X161026250Y-86835000D01*
X160588750Y-86835000D01*
X160567309Y-86833947D01*
X160546074Y-86830797D01*
X160525250Y-86825581D01*
X160505038Y-86818349D01*
X160485632Y-86809170D01*
X160467219Y-86798134D01*
X160449976Y-86785346D01*
X160434070Y-86770930D01*
X160419654Y-86755024D01*
X160406866Y-86737781D01*
X160395830Y-86719368D01*
X160386651Y-86699962D01*
X160379419Y-86679750D01*
X160374203Y-86658926D01*
X160371053Y-86637691D01*
X160370000Y-86616250D01*
X160370000Y-86103750D01*
X160371053Y-86082309D01*
X160374203Y-86061074D01*
X160379419Y-86040250D01*
X160386651Y-86020038D01*
X160395830Y-86000632D01*
X160406866Y-85982219D01*
X160419654Y-85964976D01*
X160434070Y-85949070D01*
X160449976Y-85934654D01*
X160467219Y-85921866D01*
X160485632Y-85910830D01*
X160505038Y-85901651D01*
X160525250Y-85894419D01*
X160546074Y-85889203D01*
X160567309Y-85886053D01*
X160588750Y-85885000D01*
X161026250Y-85885000D01*
X161047691Y-85886053D01*
G37*
G36*
X159472691Y-85886053D02*
G01*
X159493926Y-85889203D01*
X159514750Y-85894419D01*
X159534962Y-85901651D01*
X159554368Y-85910830D01*
X159572781Y-85921866D01*
X159590024Y-85934654D01*
X159605930Y-85949070D01*
X159620346Y-85964976D01*
X159633134Y-85982219D01*
X159644170Y-86000632D01*
X159653349Y-86020038D01*
X159660581Y-86040250D01*
X159665797Y-86061074D01*
X159668947Y-86082309D01*
X159670000Y-86103750D01*
X159670000Y-86616250D01*
X159668947Y-86637691D01*
X159665797Y-86658926D01*
X159660581Y-86679750D01*
X159653349Y-86699962D01*
X159644170Y-86719368D01*
X159633134Y-86737781D01*
X159620346Y-86755024D01*
X159605930Y-86770930D01*
X159590024Y-86785346D01*
X159572781Y-86798134D01*
X159554368Y-86809170D01*
X159534962Y-86818349D01*
X159514750Y-86825581D01*
X159493926Y-86830797D01*
X159472691Y-86833947D01*
X159451250Y-86835000D01*
X159013750Y-86835000D01*
X158992309Y-86833947D01*
X158971074Y-86830797D01*
X158950250Y-86825581D01*
X158930038Y-86818349D01*
X158910632Y-86809170D01*
X158892219Y-86798134D01*
X158874976Y-86785346D01*
X158859070Y-86770930D01*
X158844654Y-86755024D01*
X158831866Y-86737781D01*
X158820830Y-86719368D01*
X158811651Y-86699962D01*
X158804419Y-86679750D01*
X158799203Y-86658926D01*
X158796053Y-86637691D01*
X158795000Y-86616250D01*
X158795000Y-86103750D01*
X158796053Y-86082309D01*
X158799203Y-86061074D01*
X158804419Y-86040250D01*
X158811651Y-86020038D01*
X158820830Y-86000632D01*
X158831866Y-85982219D01*
X158844654Y-85964976D01*
X158859070Y-85949070D01*
X158874976Y-85934654D01*
X158892219Y-85921866D01*
X158910632Y-85910830D01*
X158930038Y-85901651D01*
X158950250Y-85894419D01*
X158971074Y-85889203D01*
X158992309Y-85886053D01*
X159013750Y-85885000D01*
X159451250Y-85885000D01*
X159472691Y-85886053D01*
G37*
G36*
X157567691Y-80171053D02*
G01*
X157588926Y-80174203D01*
X157609750Y-80179419D01*
X157629962Y-80186651D01*
X157649368Y-80195830D01*
X157667781Y-80206866D01*
X157685024Y-80219654D01*
X157700930Y-80234070D01*
X157715346Y-80249976D01*
X157728134Y-80267219D01*
X157739170Y-80285632D01*
X157748349Y-80305038D01*
X157755581Y-80325250D01*
X157760797Y-80346074D01*
X157763947Y-80367309D01*
X157765000Y-80388750D01*
X157765000Y-80901250D01*
X157763947Y-80922691D01*
X157760797Y-80943926D01*
X157755581Y-80964750D01*
X157748349Y-80984962D01*
X157739170Y-81004368D01*
X157728134Y-81022781D01*
X157715346Y-81040024D01*
X157700930Y-81055930D01*
X157685024Y-81070346D01*
X157667781Y-81083134D01*
X157649368Y-81094170D01*
X157629962Y-81103349D01*
X157609750Y-81110581D01*
X157588926Y-81115797D01*
X157567691Y-81118947D01*
X157546250Y-81120000D01*
X157108750Y-81120000D01*
X157087309Y-81118947D01*
X157066074Y-81115797D01*
X157045250Y-81110581D01*
X157025038Y-81103349D01*
X157005632Y-81094170D01*
X156987219Y-81083134D01*
X156969976Y-81070346D01*
X156954070Y-81055930D01*
X156939654Y-81040024D01*
X156926866Y-81022781D01*
X156915830Y-81004368D01*
X156906651Y-80984962D01*
X156899419Y-80964750D01*
X156894203Y-80943926D01*
X156891053Y-80922691D01*
X156890000Y-80901250D01*
X156890000Y-80388750D01*
X156891053Y-80367309D01*
X156894203Y-80346074D01*
X156899419Y-80325250D01*
X156906651Y-80305038D01*
X156915830Y-80285632D01*
X156926866Y-80267219D01*
X156939654Y-80249976D01*
X156954070Y-80234070D01*
X156969976Y-80219654D01*
X156987219Y-80206866D01*
X157005632Y-80195830D01*
X157025038Y-80186651D01*
X157045250Y-80179419D01*
X157066074Y-80174203D01*
X157087309Y-80171053D01*
X157108750Y-80170000D01*
X157546250Y-80170000D01*
X157567691Y-80171053D01*
G37*
G36*
X159142691Y-80171053D02*
G01*
X159163926Y-80174203D01*
X159184750Y-80179419D01*
X159204962Y-80186651D01*
X159224368Y-80195830D01*
X159242781Y-80206866D01*
X159260024Y-80219654D01*
X159275930Y-80234070D01*
X159290346Y-80249976D01*
X159303134Y-80267219D01*
X159314170Y-80285632D01*
X159323349Y-80305038D01*
X159330581Y-80325250D01*
X159335797Y-80346074D01*
X159338947Y-80367309D01*
X159340000Y-80388750D01*
X159340000Y-80901250D01*
X159338947Y-80922691D01*
X159335797Y-80943926D01*
X159330581Y-80964750D01*
X159323349Y-80984962D01*
X159314170Y-81004368D01*
X159303134Y-81022781D01*
X159290346Y-81040024D01*
X159275930Y-81055930D01*
X159260024Y-81070346D01*
X159242781Y-81083134D01*
X159224368Y-81094170D01*
X159204962Y-81103349D01*
X159184750Y-81110581D01*
X159163926Y-81115797D01*
X159142691Y-81118947D01*
X159121250Y-81120000D01*
X158683750Y-81120000D01*
X158662309Y-81118947D01*
X158641074Y-81115797D01*
X158620250Y-81110581D01*
X158600038Y-81103349D01*
X158580632Y-81094170D01*
X158562219Y-81083134D01*
X158544976Y-81070346D01*
X158529070Y-81055930D01*
X158514654Y-81040024D01*
X158501866Y-81022781D01*
X158490830Y-81004368D01*
X158481651Y-80984962D01*
X158474419Y-80964750D01*
X158469203Y-80943926D01*
X158466053Y-80922691D01*
X158465000Y-80901250D01*
X158465000Y-80388750D01*
X158466053Y-80367309D01*
X158469203Y-80346074D01*
X158474419Y-80325250D01*
X158481651Y-80305038D01*
X158490830Y-80285632D01*
X158501866Y-80267219D01*
X158514654Y-80249976D01*
X158529070Y-80234070D01*
X158544976Y-80219654D01*
X158562219Y-80206866D01*
X158580632Y-80195830D01*
X158600038Y-80186651D01*
X158620250Y-80179419D01*
X158641074Y-80174203D01*
X158662309Y-80171053D01*
X158683750Y-80170000D01*
X159121250Y-80170000D01*
X159142691Y-80171053D01*
G37*
G36*
X155967691Y-75726053D02*
G01*
X155988926Y-75729203D01*
X156009750Y-75734419D01*
X156029962Y-75741651D01*
X156049368Y-75750830D01*
X156067781Y-75761866D01*
X156085024Y-75774654D01*
X156100930Y-75789070D01*
X156115346Y-75804976D01*
X156128134Y-75822219D01*
X156139170Y-75840632D01*
X156148349Y-75860038D01*
X156155581Y-75880250D01*
X156160797Y-75901074D01*
X156163947Y-75922309D01*
X156165000Y-75943750D01*
X156165000Y-76456250D01*
X156163947Y-76477691D01*
X156160797Y-76498926D01*
X156155581Y-76519750D01*
X156148349Y-76539962D01*
X156139170Y-76559368D01*
X156128134Y-76577781D01*
X156115346Y-76595024D01*
X156100930Y-76610930D01*
X156085024Y-76625346D01*
X156067781Y-76638134D01*
X156049368Y-76649170D01*
X156029962Y-76658349D01*
X156009750Y-76665581D01*
X155988926Y-76670797D01*
X155967691Y-76673947D01*
X155946250Y-76675000D01*
X155508750Y-76675000D01*
X155487309Y-76673947D01*
X155466074Y-76670797D01*
X155445250Y-76665581D01*
X155425038Y-76658349D01*
X155405632Y-76649170D01*
X155387219Y-76638134D01*
X155369976Y-76625346D01*
X155354070Y-76610930D01*
X155339654Y-76595024D01*
X155326866Y-76577781D01*
X155315830Y-76559368D01*
X155306651Y-76539962D01*
X155299419Y-76519750D01*
X155294203Y-76498926D01*
X155291053Y-76477691D01*
X155290000Y-76456250D01*
X155290000Y-75943750D01*
X155291053Y-75922309D01*
X155294203Y-75901074D01*
X155299419Y-75880250D01*
X155306651Y-75860038D01*
X155315830Y-75840632D01*
X155326866Y-75822219D01*
X155339654Y-75804976D01*
X155354070Y-75789070D01*
X155369976Y-75774654D01*
X155387219Y-75761866D01*
X155405632Y-75750830D01*
X155425038Y-75741651D01*
X155445250Y-75734419D01*
X155466074Y-75729203D01*
X155487309Y-75726053D01*
X155508750Y-75725000D01*
X155946250Y-75725000D01*
X155967691Y-75726053D01*
G37*
G36*
X154392691Y-75726053D02*
G01*
X154413926Y-75729203D01*
X154434750Y-75734419D01*
X154454962Y-75741651D01*
X154474368Y-75750830D01*
X154492781Y-75761866D01*
X154510024Y-75774654D01*
X154525930Y-75789070D01*
X154540346Y-75804976D01*
X154553134Y-75822219D01*
X154564170Y-75840632D01*
X154573349Y-75860038D01*
X154580581Y-75880250D01*
X154585797Y-75901074D01*
X154588947Y-75922309D01*
X154590000Y-75943750D01*
X154590000Y-76456250D01*
X154588947Y-76477691D01*
X154585797Y-76498926D01*
X154580581Y-76519750D01*
X154573349Y-76539962D01*
X154564170Y-76559368D01*
X154553134Y-76577781D01*
X154540346Y-76595024D01*
X154525930Y-76610930D01*
X154510024Y-76625346D01*
X154492781Y-76638134D01*
X154474368Y-76649170D01*
X154454962Y-76658349D01*
X154434750Y-76665581D01*
X154413926Y-76670797D01*
X154392691Y-76673947D01*
X154371250Y-76675000D01*
X153933750Y-76675000D01*
X153912309Y-76673947D01*
X153891074Y-76670797D01*
X153870250Y-76665581D01*
X153850038Y-76658349D01*
X153830632Y-76649170D01*
X153812219Y-76638134D01*
X153794976Y-76625346D01*
X153779070Y-76610930D01*
X153764654Y-76595024D01*
X153751866Y-76577781D01*
X153740830Y-76559368D01*
X153731651Y-76539962D01*
X153724419Y-76519750D01*
X153719203Y-76498926D01*
X153716053Y-76477691D01*
X153715000Y-76456250D01*
X153715000Y-75943750D01*
X153716053Y-75922309D01*
X153719203Y-75901074D01*
X153724419Y-75880250D01*
X153731651Y-75860038D01*
X153740830Y-75840632D01*
X153751866Y-75822219D01*
X153764654Y-75804976D01*
X153779070Y-75789070D01*
X153794976Y-75774654D01*
X153812219Y-75761866D01*
X153830632Y-75750830D01*
X153850038Y-75741651D01*
X153870250Y-75734419D01*
X153891074Y-75729203D01*
X153912309Y-75726053D01*
X153933750Y-75725000D01*
X154371250Y-75725000D01*
X154392691Y-75726053D01*
G37*
G36*
X147712691Y-75091053D02*
G01*
X147733926Y-75094203D01*
X147754750Y-75099419D01*
X147774962Y-75106651D01*
X147794368Y-75115830D01*
X147812781Y-75126866D01*
X147830024Y-75139654D01*
X147845930Y-75154070D01*
X147860346Y-75169976D01*
X147873134Y-75187219D01*
X147884170Y-75205632D01*
X147893349Y-75225038D01*
X147900581Y-75245250D01*
X147905797Y-75266074D01*
X147908947Y-75287309D01*
X147910000Y-75308750D01*
X147910000Y-75821250D01*
X147908947Y-75842691D01*
X147905797Y-75863926D01*
X147900581Y-75884750D01*
X147893349Y-75904962D01*
X147884170Y-75924368D01*
X147873134Y-75942781D01*
X147860346Y-75960024D01*
X147845930Y-75975930D01*
X147830024Y-75990346D01*
X147812781Y-76003134D01*
X147794368Y-76014170D01*
X147774962Y-76023349D01*
X147754750Y-76030581D01*
X147733926Y-76035797D01*
X147712691Y-76038947D01*
X147691250Y-76040000D01*
X147253750Y-76040000D01*
X147232309Y-76038947D01*
X147211074Y-76035797D01*
X147190250Y-76030581D01*
X147170038Y-76023349D01*
X147150632Y-76014170D01*
X147132219Y-76003134D01*
X147114976Y-75990346D01*
X147099070Y-75975930D01*
X147084654Y-75960024D01*
X147071866Y-75942781D01*
X147060830Y-75924368D01*
X147051651Y-75904962D01*
X147044419Y-75884750D01*
X147039203Y-75863926D01*
X147036053Y-75842691D01*
X147035000Y-75821250D01*
X147035000Y-75308750D01*
X147036053Y-75287309D01*
X147039203Y-75266074D01*
X147044419Y-75245250D01*
X147051651Y-75225038D01*
X147060830Y-75205632D01*
X147071866Y-75187219D01*
X147084654Y-75169976D01*
X147099070Y-75154070D01*
X147114976Y-75139654D01*
X147132219Y-75126866D01*
X147150632Y-75115830D01*
X147170038Y-75106651D01*
X147190250Y-75099419D01*
X147211074Y-75094203D01*
X147232309Y-75091053D01*
X147253750Y-75090000D01*
X147691250Y-75090000D01*
X147712691Y-75091053D01*
G37*
G36*
X146137691Y-75091053D02*
G01*
X146158926Y-75094203D01*
X146179750Y-75099419D01*
X146199962Y-75106651D01*
X146219368Y-75115830D01*
X146237781Y-75126866D01*
X146255024Y-75139654D01*
X146270930Y-75154070D01*
X146285346Y-75169976D01*
X146298134Y-75187219D01*
X146309170Y-75205632D01*
X146318349Y-75225038D01*
X146325581Y-75245250D01*
X146330797Y-75266074D01*
X146333947Y-75287309D01*
X146335000Y-75308750D01*
X146335000Y-75821250D01*
X146333947Y-75842691D01*
X146330797Y-75863926D01*
X146325581Y-75884750D01*
X146318349Y-75904962D01*
X146309170Y-75924368D01*
X146298134Y-75942781D01*
X146285346Y-75960024D01*
X146270930Y-75975930D01*
X146255024Y-75990346D01*
X146237781Y-76003134D01*
X146219368Y-76014170D01*
X146199962Y-76023349D01*
X146179750Y-76030581D01*
X146158926Y-76035797D01*
X146137691Y-76038947D01*
X146116250Y-76040000D01*
X145678750Y-76040000D01*
X145657309Y-76038947D01*
X145636074Y-76035797D01*
X145615250Y-76030581D01*
X145595038Y-76023349D01*
X145575632Y-76014170D01*
X145557219Y-76003134D01*
X145539976Y-75990346D01*
X145524070Y-75975930D01*
X145509654Y-75960024D01*
X145496866Y-75942781D01*
X145485830Y-75924368D01*
X145476651Y-75904962D01*
X145469419Y-75884750D01*
X145464203Y-75863926D01*
X145461053Y-75842691D01*
X145460000Y-75821250D01*
X145460000Y-75308750D01*
X145461053Y-75287309D01*
X145464203Y-75266074D01*
X145469419Y-75245250D01*
X145476651Y-75225038D01*
X145485830Y-75205632D01*
X145496866Y-75187219D01*
X145509654Y-75169976D01*
X145524070Y-75154070D01*
X145539976Y-75139654D01*
X145557219Y-75126866D01*
X145575632Y-75115830D01*
X145595038Y-75106651D01*
X145615250Y-75099419D01*
X145636074Y-75094203D01*
X145657309Y-75091053D01*
X145678750Y-75090000D01*
X146116250Y-75090000D01*
X146137691Y-75091053D01*
G37*
G36*
X155967691Y-79536053D02*
G01*
X155988926Y-79539203D01*
X156009750Y-79544419D01*
X156029962Y-79551651D01*
X156049368Y-79560830D01*
X156067781Y-79571866D01*
X156085024Y-79584654D01*
X156100930Y-79599070D01*
X156115346Y-79614976D01*
X156128134Y-79632219D01*
X156139170Y-79650632D01*
X156148349Y-79670038D01*
X156155581Y-79690250D01*
X156160797Y-79711074D01*
X156163947Y-79732309D01*
X156165000Y-79753750D01*
X156165000Y-80266250D01*
X156163947Y-80287691D01*
X156160797Y-80308926D01*
X156155581Y-80329750D01*
X156148349Y-80349962D01*
X156139170Y-80369368D01*
X156128134Y-80387781D01*
X156115346Y-80405024D01*
X156100930Y-80420930D01*
X156085024Y-80435346D01*
X156067781Y-80448134D01*
X156049368Y-80459170D01*
X156029962Y-80468349D01*
X156009750Y-80475581D01*
X155988926Y-80480797D01*
X155967691Y-80483947D01*
X155946250Y-80485000D01*
X155508750Y-80485000D01*
X155487309Y-80483947D01*
X155466074Y-80480797D01*
X155445250Y-80475581D01*
X155425038Y-80468349D01*
X155405632Y-80459170D01*
X155387219Y-80448134D01*
X155369976Y-80435346D01*
X155354070Y-80420930D01*
X155339654Y-80405024D01*
X155326866Y-80387781D01*
X155315830Y-80369368D01*
X155306651Y-80349962D01*
X155299419Y-80329750D01*
X155294203Y-80308926D01*
X155291053Y-80287691D01*
X155290000Y-80266250D01*
X155290000Y-79753750D01*
X155291053Y-79732309D01*
X155294203Y-79711074D01*
X155299419Y-79690250D01*
X155306651Y-79670038D01*
X155315830Y-79650632D01*
X155326866Y-79632219D01*
X155339654Y-79614976D01*
X155354070Y-79599070D01*
X155369976Y-79584654D01*
X155387219Y-79571866D01*
X155405632Y-79560830D01*
X155425038Y-79551651D01*
X155445250Y-79544419D01*
X155466074Y-79539203D01*
X155487309Y-79536053D01*
X155508750Y-79535000D01*
X155946250Y-79535000D01*
X155967691Y-79536053D01*
G37*
G36*
X154392691Y-79536053D02*
G01*
X154413926Y-79539203D01*
X154434750Y-79544419D01*
X154454962Y-79551651D01*
X154474368Y-79560830D01*
X154492781Y-79571866D01*
X154510024Y-79584654D01*
X154525930Y-79599070D01*
X154540346Y-79614976D01*
X154553134Y-79632219D01*
X154564170Y-79650632D01*
X154573349Y-79670038D01*
X154580581Y-79690250D01*
X154585797Y-79711074D01*
X154588947Y-79732309D01*
X154590000Y-79753750D01*
X154590000Y-80266250D01*
X154588947Y-80287691D01*
X154585797Y-80308926D01*
X154580581Y-80329750D01*
X154573349Y-80349962D01*
X154564170Y-80369368D01*
X154553134Y-80387781D01*
X154540346Y-80405024D01*
X154525930Y-80420930D01*
X154510024Y-80435346D01*
X154492781Y-80448134D01*
X154474368Y-80459170D01*
X154454962Y-80468349D01*
X154434750Y-80475581D01*
X154413926Y-80480797D01*
X154392691Y-80483947D01*
X154371250Y-80485000D01*
X153933750Y-80485000D01*
X153912309Y-80483947D01*
X153891074Y-80480797D01*
X153870250Y-80475581D01*
X153850038Y-80468349D01*
X153830632Y-80459170D01*
X153812219Y-80448134D01*
X153794976Y-80435346D01*
X153779070Y-80420930D01*
X153764654Y-80405024D01*
X153751866Y-80387781D01*
X153740830Y-80369368D01*
X153731651Y-80349962D01*
X153724419Y-80329750D01*
X153719203Y-80308926D01*
X153716053Y-80287691D01*
X153715000Y-80266250D01*
X153715000Y-79753750D01*
X153716053Y-79732309D01*
X153719203Y-79711074D01*
X153724419Y-79690250D01*
X153731651Y-79670038D01*
X153740830Y-79650632D01*
X153751866Y-79632219D01*
X153764654Y-79614976D01*
X153779070Y-79599070D01*
X153794976Y-79584654D01*
X153812219Y-79571866D01*
X153830632Y-79560830D01*
X153850038Y-79551651D01*
X153870250Y-79544419D01*
X153891074Y-79539203D01*
X153912309Y-79536053D01*
X153933750Y-79535000D01*
X154371250Y-79535000D01*
X154392691Y-79536053D01*
G37*
G36*
X155967691Y-77631053D02*
G01*
X155988926Y-77634203D01*
X156009750Y-77639419D01*
X156029962Y-77646651D01*
X156049368Y-77655830D01*
X156067781Y-77666866D01*
X156085024Y-77679654D01*
X156100930Y-77694070D01*
X156115346Y-77709976D01*
X156128134Y-77727219D01*
X156139170Y-77745632D01*
X156148349Y-77765038D01*
X156155581Y-77785250D01*
X156160797Y-77806074D01*
X156163947Y-77827309D01*
X156165000Y-77848750D01*
X156165000Y-78361250D01*
X156163947Y-78382691D01*
X156160797Y-78403926D01*
X156155581Y-78424750D01*
X156148349Y-78444962D01*
X156139170Y-78464368D01*
X156128134Y-78482781D01*
X156115346Y-78500024D01*
X156100930Y-78515930D01*
X156085024Y-78530346D01*
X156067781Y-78543134D01*
X156049368Y-78554170D01*
X156029962Y-78563349D01*
X156009750Y-78570581D01*
X155988926Y-78575797D01*
X155967691Y-78578947D01*
X155946250Y-78580000D01*
X155508750Y-78580000D01*
X155487309Y-78578947D01*
X155466074Y-78575797D01*
X155445250Y-78570581D01*
X155425038Y-78563349D01*
X155405632Y-78554170D01*
X155387219Y-78543134D01*
X155369976Y-78530346D01*
X155354070Y-78515930D01*
X155339654Y-78500024D01*
X155326866Y-78482781D01*
X155315830Y-78464368D01*
X155306651Y-78444962D01*
X155299419Y-78424750D01*
X155294203Y-78403926D01*
X155291053Y-78382691D01*
X155290000Y-78361250D01*
X155290000Y-77848750D01*
X155291053Y-77827309D01*
X155294203Y-77806074D01*
X155299419Y-77785250D01*
X155306651Y-77765038D01*
X155315830Y-77745632D01*
X155326866Y-77727219D01*
X155339654Y-77709976D01*
X155354070Y-77694070D01*
X155369976Y-77679654D01*
X155387219Y-77666866D01*
X155405632Y-77655830D01*
X155425038Y-77646651D01*
X155445250Y-77639419D01*
X155466074Y-77634203D01*
X155487309Y-77631053D01*
X155508750Y-77630000D01*
X155946250Y-77630000D01*
X155967691Y-77631053D01*
G37*
G36*
X154392691Y-77631053D02*
G01*
X154413926Y-77634203D01*
X154434750Y-77639419D01*
X154454962Y-77646651D01*
X154474368Y-77655830D01*
X154492781Y-77666866D01*
X154510024Y-77679654D01*
X154525930Y-77694070D01*
X154540346Y-77709976D01*
X154553134Y-77727219D01*
X154564170Y-77745632D01*
X154573349Y-77765038D01*
X154580581Y-77785250D01*
X154585797Y-77806074D01*
X154588947Y-77827309D01*
X154590000Y-77848750D01*
X154590000Y-78361250D01*
X154588947Y-78382691D01*
X154585797Y-78403926D01*
X154580581Y-78424750D01*
X154573349Y-78444962D01*
X154564170Y-78464368D01*
X154553134Y-78482781D01*
X154540346Y-78500024D01*
X154525930Y-78515930D01*
X154510024Y-78530346D01*
X154492781Y-78543134D01*
X154474368Y-78554170D01*
X154454962Y-78563349D01*
X154434750Y-78570581D01*
X154413926Y-78575797D01*
X154392691Y-78578947D01*
X154371250Y-78580000D01*
X153933750Y-78580000D01*
X153912309Y-78578947D01*
X153891074Y-78575797D01*
X153870250Y-78570581D01*
X153850038Y-78563349D01*
X153830632Y-78554170D01*
X153812219Y-78543134D01*
X153794976Y-78530346D01*
X153779070Y-78515930D01*
X153764654Y-78500024D01*
X153751866Y-78482781D01*
X153740830Y-78464368D01*
X153731651Y-78444962D01*
X153724419Y-78424750D01*
X153719203Y-78403926D01*
X153716053Y-78382691D01*
X153715000Y-78361250D01*
X153715000Y-77848750D01*
X153716053Y-77827309D01*
X153719203Y-77806074D01*
X153724419Y-77785250D01*
X153731651Y-77765038D01*
X153740830Y-77745632D01*
X153751866Y-77727219D01*
X153764654Y-77709976D01*
X153779070Y-77694070D01*
X153794976Y-77679654D01*
X153812219Y-77666866D01*
X153830632Y-77655830D01*
X153850038Y-77646651D01*
X153870250Y-77639419D01*
X153891074Y-77634203D01*
X153912309Y-77631053D01*
X153933750Y-77630000D01*
X154371250Y-77630000D01*
X154392691Y-77631053D01*
G37*
G36*
X159399504Y-74811204D02*
G01*
X159423773Y-74814804D01*
X159447571Y-74820765D01*
X159470671Y-74829030D01*
X159492849Y-74839520D01*
X159513893Y-74852133D01*
X159533598Y-74866747D01*
X159551777Y-74883223D01*
X159568253Y-74901402D01*
X159582867Y-74921107D01*
X159595480Y-74942151D01*
X159605970Y-74964329D01*
X159614235Y-74987429D01*
X159620196Y-75011227D01*
X159623796Y-75035496D01*
X159625000Y-75060000D01*
X159625000Y-75810000D01*
X159623796Y-75834504D01*
X159620196Y-75858773D01*
X159614235Y-75882571D01*
X159605970Y-75905671D01*
X159595480Y-75927849D01*
X159582867Y-75948893D01*
X159568253Y-75968598D01*
X159551777Y-75986777D01*
X159533598Y-76003253D01*
X159513893Y-76017867D01*
X159492849Y-76030480D01*
X159470671Y-76040970D01*
X159447571Y-76049235D01*
X159423773Y-76055196D01*
X159399504Y-76058796D01*
X159375000Y-76060000D01*
X158125000Y-76060000D01*
X158100496Y-76058796D01*
X158076227Y-76055196D01*
X158052429Y-76049235D01*
X158029329Y-76040970D01*
X158007151Y-76030480D01*
X157986107Y-76017867D01*
X157966402Y-76003253D01*
X157948223Y-75986777D01*
X157931747Y-75968598D01*
X157917133Y-75948893D01*
X157904520Y-75927849D01*
X157894030Y-75905671D01*
X157885765Y-75882571D01*
X157879804Y-75858773D01*
X157876204Y-75834504D01*
X157875000Y-75810000D01*
X157875000Y-75060000D01*
X157876204Y-75035496D01*
X157879804Y-75011227D01*
X157885765Y-74987429D01*
X157894030Y-74964329D01*
X157904520Y-74942151D01*
X157917133Y-74921107D01*
X157931747Y-74901402D01*
X157948223Y-74883223D01*
X157966402Y-74866747D01*
X157986107Y-74852133D01*
X158007151Y-74839520D01*
X158029329Y-74829030D01*
X158052429Y-74820765D01*
X158076227Y-74814804D01*
X158100496Y-74811204D01*
X158125000Y-74810000D01*
X159375000Y-74810000D01*
X159399504Y-74811204D01*
G37*
G36*
X159399504Y-77611204D02*
G01*
X159423773Y-77614804D01*
X159447571Y-77620765D01*
X159470671Y-77629030D01*
X159492849Y-77639520D01*
X159513893Y-77652133D01*
X159533598Y-77666747D01*
X159551777Y-77683223D01*
X159568253Y-77701402D01*
X159582867Y-77721107D01*
X159595480Y-77742151D01*
X159605970Y-77764329D01*
X159614235Y-77787429D01*
X159620196Y-77811227D01*
X159623796Y-77835496D01*
X159625000Y-77860000D01*
X159625000Y-78610000D01*
X159623796Y-78634504D01*
X159620196Y-78658773D01*
X159614235Y-78682571D01*
X159605970Y-78705671D01*
X159595480Y-78727849D01*
X159582867Y-78748893D01*
X159568253Y-78768598D01*
X159551777Y-78786777D01*
X159533598Y-78803253D01*
X159513893Y-78817867D01*
X159492849Y-78830480D01*
X159470671Y-78840970D01*
X159447571Y-78849235D01*
X159423773Y-78855196D01*
X159399504Y-78858796D01*
X159375000Y-78860000D01*
X158125000Y-78860000D01*
X158100496Y-78858796D01*
X158076227Y-78855196D01*
X158052429Y-78849235D01*
X158029329Y-78840970D01*
X158007151Y-78830480D01*
X157986107Y-78817867D01*
X157966402Y-78803253D01*
X157948223Y-78786777D01*
X157931747Y-78768598D01*
X157917133Y-78748893D01*
X157904520Y-78727849D01*
X157894030Y-78705671D01*
X157885765Y-78682571D01*
X157879804Y-78658773D01*
X157876204Y-78634504D01*
X157875000Y-78610000D01*
X157875000Y-77860000D01*
X157876204Y-77835496D01*
X157879804Y-77811227D01*
X157885765Y-77787429D01*
X157894030Y-77764329D01*
X157904520Y-77742151D01*
X157917133Y-77721107D01*
X157931747Y-77701402D01*
X157948223Y-77683223D01*
X157966402Y-77666747D01*
X157986107Y-77652133D01*
X158007151Y-77639520D01*
X158029329Y-77629030D01*
X158052429Y-77620765D01*
X158076227Y-77614804D01*
X158100496Y-77611204D01*
X158125000Y-77610000D01*
X159375000Y-77610000D01*
X159399504Y-77611204D01*
G37*
G36*
X153304504Y-86756204D02*
G01*
X153328773Y-86759804D01*
X153352571Y-86765765D01*
X153375671Y-86774030D01*
X153397849Y-86784520D01*
X153418893Y-86797133D01*
X153438598Y-86811747D01*
X153456777Y-86828223D01*
X153473253Y-86846402D01*
X153487867Y-86866107D01*
X153500480Y-86887151D01*
X153510970Y-86909329D01*
X153519235Y-86932429D01*
X153525196Y-86956227D01*
X153528796Y-86980496D01*
X153530000Y-87005000D01*
X153530000Y-88255000D01*
X153528796Y-88279504D01*
X153525196Y-88303773D01*
X153519235Y-88327571D01*
X153510970Y-88350671D01*
X153500480Y-88372849D01*
X153487867Y-88393893D01*
X153473253Y-88413598D01*
X153456777Y-88431777D01*
X153438598Y-88448253D01*
X153418893Y-88462867D01*
X153397849Y-88475480D01*
X153375671Y-88485970D01*
X153352571Y-88494235D01*
X153328773Y-88500196D01*
X153304504Y-88503796D01*
X153280000Y-88505000D01*
X152530000Y-88505000D01*
X152505496Y-88503796D01*
X152481227Y-88500196D01*
X152457429Y-88494235D01*
X152434329Y-88485970D01*
X152412151Y-88475480D01*
X152391107Y-88462867D01*
X152371402Y-88448253D01*
X152353223Y-88431777D01*
X152336747Y-88413598D01*
X152322133Y-88393893D01*
X152309520Y-88372849D01*
X152299030Y-88350671D01*
X152290765Y-88327571D01*
X152284804Y-88303773D01*
X152281204Y-88279504D01*
X152280000Y-88255000D01*
X152280000Y-87005000D01*
X152281204Y-86980496D01*
X152284804Y-86956227D01*
X152290765Y-86932429D01*
X152299030Y-86909329D01*
X152309520Y-86887151D01*
X152322133Y-86866107D01*
X152336747Y-86846402D01*
X152353223Y-86828223D01*
X152371402Y-86811747D01*
X152391107Y-86797133D01*
X152412151Y-86784520D01*
X152434329Y-86774030D01*
X152457429Y-86765765D01*
X152481227Y-86759804D01*
X152505496Y-86756204D01*
X152530000Y-86755000D01*
X153280000Y-86755000D01*
X153304504Y-86756204D01*
G37*
G36*
X156104504Y-86756204D02*
G01*
X156128773Y-86759804D01*
X156152571Y-86765765D01*
X156175671Y-86774030D01*
X156197849Y-86784520D01*
X156218893Y-86797133D01*
X156238598Y-86811747D01*
X156256777Y-86828223D01*
X156273253Y-86846402D01*
X156287867Y-86866107D01*
X156300480Y-86887151D01*
X156310970Y-86909329D01*
X156319235Y-86932429D01*
X156325196Y-86956227D01*
X156328796Y-86980496D01*
X156330000Y-87005000D01*
X156330000Y-88255000D01*
X156328796Y-88279504D01*
X156325196Y-88303773D01*
X156319235Y-88327571D01*
X156310970Y-88350671D01*
X156300480Y-88372849D01*
X156287867Y-88393893D01*
X156273253Y-88413598D01*
X156256777Y-88431777D01*
X156238598Y-88448253D01*
X156218893Y-88462867D01*
X156197849Y-88475480D01*
X156175671Y-88485970D01*
X156152571Y-88494235D01*
X156128773Y-88500196D01*
X156104504Y-88503796D01*
X156080000Y-88505000D01*
X155330000Y-88505000D01*
X155305496Y-88503796D01*
X155281227Y-88500196D01*
X155257429Y-88494235D01*
X155234329Y-88485970D01*
X155212151Y-88475480D01*
X155191107Y-88462867D01*
X155171402Y-88448253D01*
X155153223Y-88431777D01*
X155136747Y-88413598D01*
X155122133Y-88393893D01*
X155109520Y-88372849D01*
X155099030Y-88350671D01*
X155090765Y-88327571D01*
X155084804Y-88303773D01*
X155081204Y-88279504D01*
X155080000Y-88255000D01*
X155080000Y-87005000D01*
X155081204Y-86980496D01*
X155084804Y-86956227D01*
X155090765Y-86932429D01*
X155099030Y-86909329D01*
X155109520Y-86887151D01*
X155122133Y-86866107D01*
X155136747Y-86846402D01*
X155153223Y-86828223D01*
X155171402Y-86811747D01*
X155191107Y-86797133D01*
X155212151Y-86784520D01*
X155234329Y-86774030D01*
X155257429Y-86765765D01*
X155281227Y-86759804D01*
X155305496Y-86756204D01*
X155330000Y-86755000D01*
X156080000Y-86755000D01*
X156104504Y-86756204D01*
G37*
D11*
X145415000Y-88900000D03*
X144780000Y-89535000D03*
X144780000Y-88265000D03*
M02*
