%FSLAX45Y45*%
G04 Gerber Fmt 4.5, Leading zero omitted, Abs format (unit mm)*
G04 Created by KiCad (PCBNEW (5.1.5)-3) date 2020-01-05 20:33:49*
%MOMM*%
%LPD*%
G04 APERTURE LIST*
%TA.AperFunction,Profile*%
%ADD10C,0.150000*%
%TD*%
%ADD11C,0.200000*%
%ADD12C,0.300000*%
G04 APERTURE END LIST*
D10*
X9334500Y-18351500D02*
X9334500Y-9525000D01*
X12382500Y-18351500D02*
X9334500Y-18351500D01*
X12382500Y-9525000D02*
X12382500Y-18351500D01*
X9334500Y-9525000D02*
X12382500Y-9525000D01*
D11*
X9635490Y-12937490D02*
X9668510Y-12970510D01*
X9668510Y-12937490D02*
X9635490Y-12970510D01*
X9737090Y-11057890D02*
X9770110Y-11090910D01*
X9770110Y-11057890D02*
X9737090Y-11090910D01*
X9762490Y-11286490D02*
X9795510Y-11319510D01*
X9795510Y-11286490D02*
X9762490Y-11319510D01*
X9787890Y-13953490D02*
X9820910Y-13986510D01*
X9820910Y-13953490D02*
X9787890Y-13986510D01*
X9889490Y-12937490D02*
X9922510Y-12970510D01*
X9922510Y-12937490D02*
X9889490Y-12970510D01*
X9940290Y-12175490D02*
X9973310Y-12208510D01*
X9973310Y-12175490D02*
X9940290Y-12208510D01*
X10397490Y-13140690D02*
X10430510Y-13173710D01*
X10430510Y-13140690D02*
X10397490Y-13173710D01*
X10448290Y-14359890D02*
X10481310Y-14392910D01*
X10481310Y-14359890D02*
X10448290Y-14392910D01*
X10448290Y-14613890D02*
X10481310Y-14646910D01*
X10481310Y-14613890D02*
X10448290Y-14646910D01*
X10460990Y-13318490D02*
X10494010Y-13351510D01*
X10494010Y-13318490D02*
X10460990Y-13351510D01*
X10524490Y-13699490D02*
X10557510Y-13732510D01*
X10557510Y-13699490D02*
X10524490Y-13732510D01*
X10651490Y-11476990D02*
X10684510Y-11510010D01*
X10684510Y-11476990D02*
X10651490Y-11510010D01*
X10651490Y-11857990D02*
X10684510Y-11891010D01*
X10684510Y-11857990D02*
X10651490Y-11891010D01*
X10651490Y-12111990D02*
X10684510Y-12145010D01*
X10684510Y-12111990D02*
X10651490Y-12145010D01*
X10651490Y-16493490D02*
X10684510Y-16526510D01*
X10684510Y-16493490D02*
X10651490Y-16526510D01*
X10753090Y-15528290D02*
X10786110Y-15561310D01*
X10786110Y-15528290D02*
X10753090Y-15561310D01*
X10778490Y-10651490D02*
X10811510Y-10684510D01*
X10811510Y-10651490D02*
X10778490Y-10684510D01*
X10778490Y-14207490D02*
X10811510Y-14240510D01*
X10811510Y-14207490D02*
X10778490Y-14240510D01*
X10803890Y-9991090D02*
X10836910Y-10024110D01*
X10836910Y-9991090D02*
X10803890Y-10024110D01*
X10841990Y-11349990D02*
X10875010Y-11383010D01*
X10875010Y-11349990D02*
X10841990Y-11383010D01*
X10854690Y-11515090D02*
X10887710Y-11548110D01*
X10887710Y-11515090D02*
X10854690Y-11548110D01*
X10968990Y-10143490D02*
X11002010Y-10176510D01*
X11002010Y-10143490D02*
X10968990Y-10176510D01*
X10968990Y-11032490D02*
X11002010Y-11065510D01*
X11002010Y-11032490D02*
X10968990Y-11065510D01*
X10968990Y-12048490D02*
X11002010Y-12081510D01*
X11002010Y-12048490D02*
X10968990Y-12081510D01*
X10968990Y-13191490D02*
X11002010Y-13224510D01*
X11002010Y-13191490D02*
X10968990Y-13224510D01*
X11032490Y-13445490D02*
X11065510Y-13478510D01*
X11065510Y-13445490D02*
X11032490Y-13478510D01*
X11057890Y-11921490D02*
X11090910Y-11954510D01*
X11090910Y-11921490D02*
X11057890Y-11954510D01*
X11159490Y-10905490D02*
X11192510Y-10938510D01*
X11192510Y-10905490D02*
X11159490Y-10938510D01*
X11159490Y-11464290D02*
X11192510Y-11497310D01*
X11192510Y-11464290D02*
X11159490Y-11497310D01*
X11159490Y-11857990D02*
X11192510Y-11891010D01*
X11192510Y-11857990D02*
X11159490Y-11891010D01*
X11159490Y-12238990D02*
X11192510Y-12272010D01*
X11192510Y-12238990D02*
X11159490Y-12272010D01*
X11159490Y-12365990D02*
X11192510Y-12399010D01*
X11192510Y-12365990D02*
X11159490Y-12399010D01*
X11159490Y-12619990D02*
X11192510Y-12653010D01*
X11192510Y-12619990D02*
X11159490Y-12653010D01*
X11210290Y-15477490D02*
X11243310Y-15510510D01*
X11243310Y-15477490D02*
X11210290Y-15510510D01*
X11362690Y-13547090D02*
X11395710Y-13580110D01*
X11395710Y-13547090D02*
X11362690Y-13580110D01*
X11362690Y-14156690D02*
X11395710Y-14189710D01*
X11395710Y-14156690D02*
X11362690Y-14189710D01*
X11413490Y-10905490D02*
X11446510Y-10938510D01*
X11446510Y-10905490D02*
X11413490Y-10938510D01*
X11413490Y-13064490D02*
X11446510Y-13097510D01*
X11446510Y-13064490D02*
X11413490Y-13097510D01*
X11476990Y-15286990D02*
X11510010Y-15320010D01*
X11510010Y-15286990D02*
X11476990Y-15320010D01*
X11603990Y-15858490D02*
X11637010Y-15891510D01*
X11637010Y-15858490D02*
X11603990Y-15891510D01*
X11870690Y-17204690D02*
X11903710Y-17237710D01*
X11903710Y-17204690D02*
X11870690Y-17237710D01*
X11984990Y-15286990D02*
X12018010Y-15320010D01*
X12018010Y-15286990D02*
X11984990Y-15320010D01*
X11984990Y-15985490D02*
X12018010Y-16018510D01*
X12018010Y-15985490D02*
X11984990Y-16018510D01*
X11984990Y-16620490D02*
X12018010Y-16653510D01*
X12018010Y-16620490D02*
X11984990Y-16653510D01*
X12023090Y-14004290D02*
X12056110Y-14037310D01*
X12056110Y-14004290D02*
X12023090Y-14037310D01*
X12048490Y-10778490D02*
X12081510Y-10811510D01*
X12081510Y-10778490D02*
X12048490Y-10811510D01*
X12111990Y-11222990D02*
X12145010Y-11256010D01*
X12145010Y-11222990D02*
X12111990Y-11256010D01*
X10200000Y-10160000D02*
G75*
G03X10200000Y-10160000I-40000J0D01*
G01*
X10200000Y-10414000D02*
G75*
G03X10200000Y-10414000I-40000J0D01*
G01*
X10200000Y-10668000D02*
G75*
G03X10200000Y-10668000I-40000J0D01*
G01*
X10200000Y-10922000D02*
G75*
G03X10200000Y-10922000I-40000J0D01*
G01*
X10200000Y-11176000D02*
G75*
G03X10200000Y-11176000I-40000J0D01*
G01*
X10200000Y-11430000D02*
G75*
G03X10200000Y-11430000I-40000J0D01*
G01*
X10200000Y-11684000D02*
G75*
G03X10200000Y-11684000I-40000J0D01*
G01*
X10200000Y-11938000D02*
G75*
G03X10200000Y-11938000I-40000J0D01*
G01*
X10200000Y-12192000D02*
G75*
G03X10200000Y-12192000I-40000J0D01*
G01*
X10200000Y-12446000D02*
G75*
G03X10200000Y-12446000I-40000J0D01*
G01*
X10200000Y-12700000D02*
G75*
G03X10200000Y-12700000I-40000J0D01*
G01*
X10200000Y-12954000D02*
G75*
G03X10200000Y-12954000I-40000J0D01*
G01*
X10200000Y-13208000D02*
G75*
G03X10200000Y-13208000I-40000J0D01*
G01*
X10200000Y-13462000D02*
G75*
G03X10200000Y-13462000I-40000J0D01*
G01*
X10200000Y-13716000D02*
G75*
G03X10200000Y-13716000I-40000J0D01*
G01*
X10200000Y-13970000D02*
G75*
G03X10200000Y-13970000I-40000J0D01*
G01*
X10200000Y-14224000D02*
G75*
G03X10200000Y-14224000I-40000J0D01*
G01*
X10200000Y-14478000D02*
G75*
G03X10200000Y-14478000I-40000J0D01*
G01*
X10200000Y-14732000D02*
G75*
G03X10200000Y-14732000I-40000J0D01*
G01*
X10200000Y-14986000D02*
G75*
G03X10200000Y-14986000I-40000J0D01*
G01*
X11724000Y-10160000D02*
G75*
G03X11724000Y-10160000I-40000J0D01*
G01*
X11724000Y-10414000D02*
G75*
G03X11724000Y-10414000I-40000J0D01*
G01*
X11724000Y-10668000D02*
G75*
G03X11724000Y-10668000I-40000J0D01*
G01*
X11724000Y-10922000D02*
G75*
G03X11724000Y-10922000I-40000J0D01*
G01*
X11724000Y-11176000D02*
G75*
G03X11724000Y-11176000I-40000J0D01*
G01*
X11724000Y-11430000D02*
G75*
G03X11724000Y-11430000I-40000J0D01*
G01*
X11724000Y-11684000D02*
G75*
G03X11724000Y-11684000I-40000J0D01*
G01*
X11724000Y-11938000D02*
G75*
G03X11724000Y-11938000I-40000J0D01*
G01*
X11724000Y-12192000D02*
G75*
G03X11724000Y-12192000I-40000J0D01*
G01*
X11724000Y-12446000D02*
G75*
G03X11724000Y-12446000I-40000J0D01*
G01*
X11724000Y-12700000D02*
G75*
G03X11724000Y-12700000I-40000J0D01*
G01*
X11724000Y-12954000D02*
G75*
G03X11724000Y-12954000I-40000J0D01*
G01*
X11724000Y-13208000D02*
G75*
G03X11724000Y-13208000I-40000J0D01*
G01*
X11724000Y-13462000D02*
G75*
G03X11724000Y-13462000I-40000J0D01*
G01*
X11724000Y-13716000D02*
G75*
G03X11724000Y-13716000I-40000J0D01*
G01*
X11724000Y-13970000D02*
G75*
G03X11724000Y-13970000I-40000J0D01*
G01*
X11724000Y-14224000D02*
G75*
G03X11724000Y-14224000I-40000J0D01*
G01*
X11724000Y-14478000D02*
G75*
G03X11724000Y-14478000I-40000J0D01*
G01*
X11724000Y-14732000D02*
G75*
G03X11724000Y-14732000I-40000J0D01*
G01*
X11724000Y-14986000D02*
G75*
G03X11724000Y-14986000I-40000J0D01*
G01*
X9588500Y-12015000D02*
X9588500Y-12115000D01*
X9538500Y-12065000D02*
X9638500Y-12065000D01*
X9588500Y-12269000D02*
X9588500Y-12369000D01*
X9538500Y-12319000D02*
X9638500Y-12319000D01*
X10130000Y-16316000D02*
X10130000Y-16416000D01*
X10080000Y-16366000D02*
X10180000Y-16366000D01*
X10130000Y-16593000D02*
X10130000Y-16693000D01*
X10080000Y-16643000D02*
X10180000Y-16643000D01*
X10130000Y-16870000D02*
X10130000Y-16970000D01*
X10080000Y-16920000D02*
X10180000Y-16920000D01*
X10130000Y-17147000D02*
X10130000Y-17247000D01*
X10080000Y-17197000D02*
X10180000Y-17197000D01*
X10414000Y-16177500D02*
X10414000Y-16277500D01*
X10364000Y-16227500D02*
X10464000Y-16227500D01*
X10414000Y-16454500D02*
X10414000Y-16554500D01*
X10364000Y-16504500D02*
X10464000Y-16504500D01*
X10414000Y-16731500D02*
X10414000Y-16831500D01*
X10364000Y-16781500D02*
X10464000Y-16781500D01*
X10414000Y-17008500D02*
X10414000Y-17108500D01*
X10364000Y-17058500D02*
X10464000Y-17058500D01*
X10414000Y-17285500D02*
X10414000Y-17385500D01*
X10364000Y-17335500D02*
X10464000Y-17335500D01*
X12065000Y-11888000D02*
X12065000Y-11988000D01*
X12015000Y-11938000D02*
X12115000Y-11938000D01*
X12065000Y-12142000D02*
X12065000Y-12242000D01*
X12015000Y-12192000D02*
X12115000Y-12192000D01*
X12065000Y-12396000D02*
X12065000Y-12496000D01*
X12015000Y-12446000D02*
X12115000Y-12446000D01*
X12065000Y-12650000D02*
X12065000Y-12750000D01*
X12015000Y-12700000D02*
X12115000Y-12700000D01*
X12065000Y-12904000D02*
X12065000Y-13004000D01*
X12015000Y-12954000D02*
X12115000Y-12954000D01*
X10731500Y-9665500D02*
X10731500Y-9765500D01*
X10681500Y-9715500D02*
X10781500Y-9715500D01*
X10985500Y-9665500D02*
X10985500Y-9765500D01*
X10935500Y-9715500D02*
X11035500Y-9715500D01*
X11239500Y-9665500D02*
X11239500Y-9765500D01*
X11189500Y-9715500D02*
X11289500Y-9715500D01*
X11493500Y-9665500D02*
X11493500Y-9765500D01*
X11443500Y-9715500D02*
X11543500Y-9715500D01*
X11747500Y-9665500D02*
X11747500Y-9765500D01*
X11697500Y-9715500D02*
X11797500Y-9715500D01*
X10379835Y-15639835D02*
X10379835Y-15424165D01*
X10164165Y-15424165D01*
X10164165Y-15639835D01*
X10379835Y-15639835D01*
X10379835Y-18138835D02*
X10379835Y-17923165D01*
X10164165Y-17923165D01*
X10164165Y-18138835D01*
X10379835Y-18138835D01*
D12*
X9613428Y-18824714D02*
X9613428Y-18524714D01*
X9684857Y-18524714D01*
X9727714Y-18539000D01*
X9756286Y-18567572D01*
X9770571Y-18596143D01*
X9784857Y-18653286D01*
X9784857Y-18696143D01*
X9770571Y-18753286D01*
X9756286Y-18781857D01*
X9727714Y-18810429D01*
X9684857Y-18824714D01*
X9613428Y-18824714D01*
X9913428Y-18824714D02*
X9913428Y-18624714D01*
X9913428Y-18681857D02*
X9927714Y-18653286D01*
X9942000Y-18639000D01*
X9970571Y-18624714D01*
X9999143Y-18624714D01*
X10099143Y-18824714D02*
X10099143Y-18624714D01*
X10099143Y-18524714D02*
X10084857Y-18539000D01*
X10099143Y-18553286D01*
X10113428Y-18539000D01*
X10099143Y-18524714D01*
X10099143Y-18553286D01*
X10284857Y-18824714D02*
X10256286Y-18810429D01*
X10242000Y-18781857D01*
X10242000Y-18524714D01*
X10442000Y-18824714D02*
X10413428Y-18810429D01*
X10399143Y-18781857D01*
X10399143Y-18524714D01*
X10784857Y-18824714D02*
X10784857Y-18524714D01*
X10884857Y-18739000D01*
X10984857Y-18524714D01*
X10984857Y-18824714D01*
X11256286Y-18824714D02*
X11256286Y-18667572D01*
X11242000Y-18639000D01*
X11213428Y-18624714D01*
X11156286Y-18624714D01*
X11127714Y-18639000D01*
X11256286Y-18810429D02*
X11227714Y-18824714D01*
X11156286Y-18824714D01*
X11127714Y-18810429D01*
X11113428Y-18781857D01*
X11113428Y-18753286D01*
X11127714Y-18724714D01*
X11156286Y-18710429D01*
X11227714Y-18710429D01*
X11256286Y-18696143D01*
X11399143Y-18624714D02*
X11399143Y-18924714D01*
X11399143Y-18639000D02*
X11427714Y-18624714D01*
X11484857Y-18624714D01*
X11513428Y-18639000D01*
X11527714Y-18653286D01*
X11542000Y-18681857D01*
X11542000Y-18767572D01*
X11527714Y-18796143D01*
X11513428Y-18810429D01*
X11484857Y-18824714D01*
X11427714Y-18824714D01*
X11399143Y-18810429D01*
X11670571Y-18796143D02*
X11684857Y-18810429D01*
X11670571Y-18824714D01*
X11656286Y-18810429D01*
X11670571Y-18796143D01*
X11670571Y-18824714D01*
X11670571Y-18639000D02*
X11684857Y-18653286D01*
X11670571Y-18667572D01*
X11656286Y-18653286D01*
X11670571Y-18639000D01*
X11670571Y-18667572D01*
X9293980Y-19302490D02*
X9327000Y-19335510D01*
X9327000Y-19302490D02*
X9293980Y-19335510D01*
X9670571Y-19154714D02*
X9699143Y-19154714D01*
X9727714Y-19169000D01*
X9742000Y-19183286D01*
X9756286Y-19211857D01*
X9770571Y-19269000D01*
X9770571Y-19340429D01*
X9756286Y-19397572D01*
X9742000Y-19426143D01*
X9727714Y-19440429D01*
X9699143Y-19454714D01*
X9670571Y-19454714D01*
X9642000Y-19440429D01*
X9627714Y-19426143D01*
X9613428Y-19397572D01*
X9599143Y-19340429D01*
X9599143Y-19269000D01*
X9613428Y-19211857D01*
X9627714Y-19183286D01*
X9642000Y-19169000D01*
X9670571Y-19154714D01*
X9899143Y-19426143D02*
X9913428Y-19440429D01*
X9899143Y-19454714D01*
X9884857Y-19440429D01*
X9899143Y-19426143D01*
X9899143Y-19454714D01*
X10013428Y-19154714D02*
X10199143Y-19154714D01*
X10099143Y-19269000D01*
X10142000Y-19269000D01*
X10170571Y-19283286D01*
X10184857Y-19297572D01*
X10199143Y-19326143D01*
X10199143Y-19397572D01*
X10184857Y-19426143D01*
X10170571Y-19440429D01*
X10142000Y-19454714D01*
X10056286Y-19454714D01*
X10027714Y-19440429D01*
X10013428Y-19426143D01*
X10299143Y-19154714D02*
X10484857Y-19154714D01*
X10384857Y-19269000D01*
X10427714Y-19269000D01*
X10456286Y-19283286D01*
X10470571Y-19297572D01*
X10484857Y-19326143D01*
X10484857Y-19397572D01*
X10470571Y-19426143D01*
X10456286Y-19440429D01*
X10427714Y-19454714D01*
X10342000Y-19454714D01*
X10313428Y-19440429D01*
X10299143Y-19426143D01*
X10613428Y-19454714D02*
X10613428Y-19254714D01*
X10613428Y-19283286D02*
X10627714Y-19269000D01*
X10656286Y-19254714D01*
X10699143Y-19254714D01*
X10727714Y-19269000D01*
X10742000Y-19297572D01*
X10742000Y-19454714D01*
X10742000Y-19297572D02*
X10756286Y-19269000D01*
X10784857Y-19254714D01*
X10827714Y-19254714D01*
X10856286Y-19269000D01*
X10870571Y-19297572D01*
X10870571Y-19454714D01*
X11013428Y-19454714D02*
X11013428Y-19254714D01*
X11013428Y-19283286D02*
X11027714Y-19269000D01*
X11056286Y-19254714D01*
X11099143Y-19254714D01*
X11127714Y-19269000D01*
X11142000Y-19297572D01*
X11142000Y-19454714D01*
X11142000Y-19297572D02*
X11156286Y-19269000D01*
X11184857Y-19254714D01*
X11227714Y-19254714D01*
X11256286Y-19269000D01*
X11270571Y-19297572D01*
X11270571Y-19454714D01*
X11856286Y-19140429D02*
X11599143Y-19526143D01*
X12242000Y-19154714D02*
X12270571Y-19154714D01*
X12299143Y-19169000D01*
X12313428Y-19183286D01*
X12327714Y-19211857D01*
X12342000Y-19269000D01*
X12342000Y-19340429D01*
X12327714Y-19397572D01*
X12313428Y-19426143D01*
X12299143Y-19440429D01*
X12270571Y-19454714D01*
X12242000Y-19454714D01*
X12213428Y-19440429D01*
X12199143Y-19426143D01*
X12184857Y-19397572D01*
X12170571Y-19340429D01*
X12170571Y-19269000D01*
X12184857Y-19211857D01*
X12199143Y-19183286D01*
X12213428Y-19169000D01*
X12242000Y-19154714D01*
X12470571Y-19426143D02*
X12484857Y-19440429D01*
X12470571Y-19454714D01*
X12456286Y-19440429D01*
X12470571Y-19426143D01*
X12470571Y-19454714D01*
X12670571Y-19154714D02*
X12699143Y-19154714D01*
X12727714Y-19169000D01*
X12742000Y-19183286D01*
X12756286Y-19211857D01*
X12770571Y-19269000D01*
X12770571Y-19340429D01*
X12756286Y-19397572D01*
X12742000Y-19426143D01*
X12727714Y-19440429D01*
X12699143Y-19454714D01*
X12670571Y-19454714D01*
X12642000Y-19440429D01*
X12627714Y-19426143D01*
X12613428Y-19397572D01*
X12599143Y-19340429D01*
X12599143Y-19269000D01*
X12613428Y-19211857D01*
X12627714Y-19183286D01*
X12642000Y-19169000D01*
X12670571Y-19154714D01*
X13056286Y-19454714D02*
X12884857Y-19454714D01*
X12970571Y-19454714D02*
X12970571Y-19154714D01*
X12942000Y-19197572D01*
X12913428Y-19226143D01*
X12884857Y-19240429D01*
X13156286Y-19154714D02*
X13342000Y-19154714D01*
X13242000Y-19269000D01*
X13284857Y-19269000D01*
X13313428Y-19283286D01*
X13327714Y-19297572D01*
X13342000Y-19326143D01*
X13342000Y-19397572D01*
X13327714Y-19426143D01*
X13313428Y-19440429D01*
X13284857Y-19454714D01*
X13199143Y-19454714D01*
X13170571Y-19440429D01*
X13156286Y-19426143D01*
X13456286Y-19154714D02*
X13456286Y-19211857D01*
X13570571Y-19154714D02*
X13570571Y-19211857D01*
X14013428Y-19569000D02*
X13999143Y-19554714D01*
X13970571Y-19511857D01*
X13956286Y-19483286D01*
X13942000Y-19440429D01*
X13927714Y-19369000D01*
X13927714Y-19311857D01*
X13942000Y-19240429D01*
X13956286Y-19197572D01*
X13970571Y-19169000D01*
X13999143Y-19126143D01*
X14013428Y-19111857D01*
X14256286Y-19254714D02*
X14256286Y-19454714D01*
X14184857Y-19140429D02*
X14113428Y-19354714D01*
X14299143Y-19354714D01*
X14384857Y-19154714D02*
X14584857Y-19154714D01*
X14456286Y-19454714D01*
X14927714Y-19454714D02*
X14927714Y-19154714D01*
X15056286Y-19454714D02*
X15056286Y-19297572D01*
X15042000Y-19269000D01*
X15013428Y-19254714D01*
X14970571Y-19254714D01*
X14942000Y-19269000D01*
X14927714Y-19283286D01*
X15242000Y-19454714D02*
X15213428Y-19440429D01*
X15199143Y-19426143D01*
X15184857Y-19397572D01*
X15184857Y-19311857D01*
X15199143Y-19283286D01*
X15213428Y-19269000D01*
X15242000Y-19254714D01*
X15284857Y-19254714D01*
X15313428Y-19269000D01*
X15327714Y-19283286D01*
X15342000Y-19311857D01*
X15342000Y-19397572D01*
X15327714Y-19426143D01*
X15313428Y-19440429D01*
X15284857Y-19454714D01*
X15242000Y-19454714D01*
X15513428Y-19454714D02*
X15484857Y-19440429D01*
X15470571Y-19411857D01*
X15470571Y-19154714D01*
X15742000Y-19440429D02*
X15713428Y-19454714D01*
X15656286Y-19454714D01*
X15627714Y-19440429D01*
X15613428Y-19411857D01*
X15613428Y-19297572D01*
X15627714Y-19269000D01*
X15656286Y-19254714D01*
X15713428Y-19254714D01*
X15742000Y-19269000D01*
X15756286Y-19297572D01*
X15756286Y-19326143D01*
X15613428Y-19354714D01*
X15870571Y-19440429D02*
X15899143Y-19454714D01*
X15956286Y-19454714D01*
X15984857Y-19440429D01*
X15999143Y-19411857D01*
X15999143Y-19397572D01*
X15984857Y-19369000D01*
X15956286Y-19354714D01*
X15913428Y-19354714D01*
X15884857Y-19340429D01*
X15870571Y-19311857D01*
X15870571Y-19297572D01*
X15884857Y-19269000D01*
X15913428Y-19254714D01*
X15956286Y-19254714D01*
X15984857Y-19269000D01*
X16099143Y-19569000D02*
X16113428Y-19554714D01*
X16142000Y-19511857D01*
X16156286Y-19483286D01*
X16170571Y-19440429D01*
X16184857Y-19369000D01*
X16184857Y-19311857D01*
X16170571Y-19240429D01*
X16156286Y-19197572D01*
X16142000Y-19169000D01*
X16113428Y-19126143D01*
X16099143Y-19111857D01*
X9327000Y-19715000D02*
G75*
G03X9327000Y-19715000I-40000J0D01*
G01*
X9670571Y-19550714D02*
X9699143Y-19550714D01*
X9727714Y-19565000D01*
X9742000Y-19579286D01*
X9756286Y-19607857D01*
X9770571Y-19665000D01*
X9770571Y-19736429D01*
X9756286Y-19793572D01*
X9742000Y-19822143D01*
X9727714Y-19836429D01*
X9699143Y-19850714D01*
X9670571Y-19850714D01*
X9642000Y-19836429D01*
X9627714Y-19822143D01*
X9613428Y-19793572D01*
X9599143Y-19736429D01*
X9599143Y-19665000D01*
X9613428Y-19607857D01*
X9627714Y-19579286D01*
X9642000Y-19565000D01*
X9670571Y-19550714D01*
X9899143Y-19822143D02*
X9913428Y-19836429D01*
X9899143Y-19850714D01*
X9884857Y-19836429D01*
X9899143Y-19822143D01*
X9899143Y-19850714D01*
X10084857Y-19679286D02*
X10056286Y-19665000D01*
X10042000Y-19650714D01*
X10027714Y-19622143D01*
X10027714Y-19607857D01*
X10042000Y-19579286D01*
X10056286Y-19565000D01*
X10084857Y-19550714D01*
X10142000Y-19550714D01*
X10170571Y-19565000D01*
X10184857Y-19579286D01*
X10199143Y-19607857D01*
X10199143Y-19622143D01*
X10184857Y-19650714D01*
X10170571Y-19665000D01*
X10142000Y-19679286D01*
X10084857Y-19679286D01*
X10056286Y-19693572D01*
X10042000Y-19707857D01*
X10027714Y-19736429D01*
X10027714Y-19793572D01*
X10042000Y-19822143D01*
X10056286Y-19836429D01*
X10084857Y-19850714D01*
X10142000Y-19850714D01*
X10170571Y-19836429D01*
X10184857Y-19822143D01*
X10199143Y-19793572D01*
X10199143Y-19736429D01*
X10184857Y-19707857D01*
X10170571Y-19693572D01*
X10142000Y-19679286D01*
X10384857Y-19550714D02*
X10413428Y-19550714D01*
X10442000Y-19565000D01*
X10456286Y-19579286D01*
X10470571Y-19607857D01*
X10484857Y-19665000D01*
X10484857Y-19736429D01*
X10470571Y-19793572D01*
X10456286Y-19822143D01*
X10442000Y-19836429D01*
X10413428Y-19850714D01*
X10384857Y-19850714D01*
X10356286Y-19836429D01*
X10342000Y-19822143D01*
X10327714Y-19793572D01*
X10313428Y-19736429D01*
X10313428Y-19665000D01*
X10327714Y-19607857D01*
X10342000Y-19579286D01*
X10356286Y-19565000D01*
X10384857Y-19550714D01*
X10613428Y-19850714D02*
X10613428Y-19650714D01*
X10613428Y-19679286D02*
X10627714Y-19665000D01*
X10656286Y-19650714D01*
X10699143Y-19650714D01*
X10727714Y-19665000D01*
X10742000Y-19693572D01*
X10742000Y-19850714D01*
X10742000Y-19693572D02*
X10756286Y-19665000D01*
X10784857Y-19650714D01*
X10827714Y-19650714D01*
X10856286Y-19665000D01*
X10870571Y-19693572D01*
X10870571Y-19850714D01*
X11013428Y-19850714D02*
X11013428Y-19650714D01*
X11013428Y-19679286D02*
X11027714Y-19665000D01*
X11056286Y-19650714D01*
X11099143Y-19650714D01*
X11127714Y-19665000D01*
X11142000Y-19693572D01*
X11142000Y-19850714D01*
X11142000Y-19693572D02*
X11156286Y-19665000D01*
X11184857Y-19650714D01*
X11227714Y-19650714D01*
X11256286Y-19665000D01*
X11270571Y-19693572D01*
X11270571Y-19850714D01*
X11856286Y-19536429D02*
X11599143Y-19922143D01*
X12242000Y-19550714D02*
X12270571Y-19550714D01*
X12299143Y-19565000D01*
X12313428Y-19579286D01*
X12327714Y-19607857D01*
X12342000Y-19665000D01*
X12342000Y-19736429D01*
X12327714Y-19793572D01*
X12313428Y-19822143D01*
X12299143Y-19836429D01*
X12270571Y-19850714D01*
X12242000Y-19850714D01*
X12213428Y-19836429D01*
X12199143Y-19822143D01*
X12184857Y-19793572D01*
X12170571Y-19736429D01*
X12170571Y-19665000D01*
X12184857Y-19607857D01*
X12199143Y-19579286D01*
X12213428Y-19565000D01*
X12242000Y-19550714D01*
X12470571Y-19822143D02*
X12484857Y-19836429D01*
X12470571Y-19850714D01*
X12456286Y-19836429D01*
X12470571Y-19822143D01*
X12470571Y-19850714D01*
X12670571Y-19550714D02*
X12699143Y-19550714D01*
X12727714Y-19565000D01*
X12742000Y-19579286D01*
X12756286Y-19607857D01*
X12770571Y-19665000D01*
X12770571Y-19736429D01*
X12756286Y-19793572D01*
X12742000Y-19822143D01*
X12727714Y-19836429D01*
X12699143Y-19850714D01*
X12670571Y-19850714D01*
X12642000Y-19836429D01*
X12627714Y-19822143D01*
X12613428Y-19793572D01*
X12599143Y-19736429D01*
X12599143Y-19665000D01*
X12613428Y-19607857D01*
X12627714Y-19579286D01*
X12642000Y-19565000D01*
X12670571Y-19550714D01*
X12870571Y-19550714D02*
X13056286Y-19550714D01*
X12956286Y-19665000D01*
X12999143Y-19665000D01*
X13027714Y-19679286D01*
X13042000Y-19693572D01*
X13056286Y-19722143D01*
X13056286Y-19793572D01*
X13042000Y-19822143D01*
X13027714Y-19836429D01*
X12999143Y-19850714D01*
X12913428Y-19850714D01*
X12884857Y-19836429D01*
X12870571Y-19822143D01*
X13342000Y-19850714D02*
X13170571Y-19850714D01*
X13256286Y-19850714D02*
X13256286Y-19550714D01*
X13227714Y-19593572D01*
X13199143Y-19622143D01*
X13170571Y-19636429D01*
X13456286Y-19550714D02*
X13456286Y-19607857D01*
X13570571Y-19550714D02*
X13570571Y-19607857D01*
X14013428Y-19965000D02*
X13999143Y-19950714D01*
X13970571Y-19907857D01*
X13956286Y-19879286D01*
X13942000Y-19836429D01*
X13927714Y-19765000D01*
X13927714Y-19707857D01*
X13942000Y-19636429D01*
X13956286Y-19593572D01*
X13970571Y-19565000D01*
X13999143Y-19522143D01*
X14013428Y-19507857D01*
X14256286Y-19650714D02*
X14256286Y-19850714D01*
X14184857Y-19536429D02*
X14113428Y-19750714D01*
X14299143Y-19750714D01*
X14470571Y-19550714D02*
X14499143Y-19550714D01*
X14527714Y-19565000D01*
X14542000Y-19579286D01*
X14556286Y-19607857D01*
X14570571Y-19665000D01*
X14570571Y-19736429D01*
X14556286Y-19793572D01*
X14542000Y-19822143D01*
X14527714Y-19836429D01*
X14499143Y-19850714D01*
X14470571Y-19850714D01*
X14442000Y-19836429D01*
X14427714Y-19822143D01*
X14413428Y-19793572D01*
X14399143Y-19736429D01*
X14399143Y-19665000D01*
X14413428Y-19607857D01*
X14427714Y-19579286D01*
X14442000Y-19565000D01*
X14470571Y-19550714D01*
X14927714Y-19850714D02*
X14927714Y-19550714D01*
X15056286Y-19850714D02*
X15056286Y-19693572D01*
X15042000Y-19665000D01*
X15013428Y-19650714D01*
X14970571Y-19650714D01*
X14942000Y-19665000D01*
X14927714Y-19679286D01*
X15242000Y-19850714D02*
X15213428Y-19836429D01*
X15199143Y-19822143D01*
X15184857Y-19793572D01*
X15184857Y-19707857D01*
X15199143Y-19679286D01*
X15213428Y-19665000D01*
X15242000Y-19650714D01*
X15284857Y-19650714D01*
X15313428Y-19665000D01*
X15327714Y-19679286D01*
X15342000Y-19707857D01*
X15342000Y-19793572D01*
X15327714Y-19822143D01*
X15313428Y-19836429D01*
X15284857Y-19850714D01*
X15242000Y-19850714D01*
X15513428Y-19850714D02*
X15484857Y-19836429D01*
X15470571Y-19807857D01*
X15470571Y-19550714D01*
X15742000Y-19836429D02*
X15713428Y-19850714D01*
X15656286Y-19850714D01*
X15627714Y-19836429D01*
X15613428Y-19807857D01*
X15613428Y-19693572D01*
X15627714Y-19665000D01*
X15656286Y-19650714D01*
X15713428Y-19650714D01*
X15742000Y-19665000D01*
X15756286Y-19693572D01*
X15756286Y-19722143D01*
X15613428Y-19750714D01*
X15870571Y-19836429D02*
X15899143Y-19850714D01*
X15956286Y-19850714D01*
X15984857Y-19836429D01*
X15999143Y-19807857D01*
X15999143Y-19793572D01*
X15984857Y-19765000D01*
X15956286Y-19750714D01*
X15913428Y-19750714D01*
X15884857Y-19736429D01*
X15870571Y-19707857D01*
X15870571Y-19693572D01*
X15884857Y-19665000D01*
X15913428Y-19650714D01*
X15956286Y-19650714D01*
X15984857Y-19665000D01*
X16099143Y-19965000D02*
X16113428Y-19950714D01*
X16142000Y-19907857D01*
X16156286Y-19879286D01*
X16170571Y-19836429D01*
X16184857Y-19765000D01*
X16184857Y-19707857D01*
X16170571Y-19636429D01*
X16156286Y-19593572D01*
X16142000Y-19565000D01*
X16113428Y-19522143D01*
X16099143Y-19507857D01*
X9277000Y-20061000D02*
X9277000Y-20161000D01*
X9227000Y-20111000D02*
X9327000Y-20111000D01*
X9770571Y-20246714D02*
X9599143Y-20246714D01*
X9684857Y-20246714D02*
X9684857Y-19946714D01*
X9656286Y-19989572D01*
X9627714Y-20018143D01*
X9599143Y-20032429D01*
X9899143Y-20218143D02*
X9913428Y-20232429D01*
X9899143Y-20246714D01*
X9884857Y-20232429D01*
X9899143Y-20218143D01*
X9899143Y-20246714D01*
X10099143Y-19946714D02*
X10127714Y-19946714D01*
X10156286Y-19961000D01*
X10170571Y-19975286D01*
X10184857Y-20003857D01*
X10199143Y-20061000D01*
X10199143Y-20132429D01*
X10184857Y-20189572D01*
X10170571Y-20218143D01*
X10156286Y-20232429D01*
X10127714Y-20246714D01*
X10099143Y-20246714D01*
X10070571Y-20232429D01*
X10056286Y-20218143D01*
X10042000Y-20189572D01*
X10027714Y-20132429D01*
X10027714Y-20061000D01*
X10042000Y-20003857D01*
X10056286Y-19975286D01*
X10070571Y-19961000D01*
X10099143Y-19946714D01*
X10384857Y-19946714D02*
X10413428Y-19946714D01*
X10442000Y-19961000D01*
X10456286Y-19975286D01*
X10470571Y-20003857D01*
X10484857Y-20061000D01*
X10484857Y-20132429D01*
X10470571Y-20189572D01*
X10456286Y-20218143D01*
X10442000Y-20232429D01*
X10413428Y-20246714D01*
X10384857Y-20246714D01*
X10356286Y-20232429D01*
X10342000Y-20218143D01*
X10327714Y-20189572D01*
X10313428Y-20132429D01*
X10313428Y-20061000D01*
X10327714Y-20003857D01*
X10342000Y-19975286D01*
X10356286Y-19961000D01*
X10384857Y-19946714D01*
X10613428Y-20246714D02*
X10613428Y-20046714D01*
X10613428Y-20075286D02*
X10627714Y-20061000D01*
X10656286Y-20046714D01*
X10699143Y-20046714D01*
X10727714Y-20061000D01*
X10742000Y-20089572D01*
X10742000Y-20246714D01*
X10742000Y-20089572D02*
X10756286Y-20061000D01*
X10784857Y-20046714D01*
X10827714Y-20046714D01*
X10856286Y-20061000D01*
X10870571Y-20089572D01*
X10870571Y-20246714D01*
X11013428Y-20246714D02*
X11013428Y-20046714D01*
X11013428Y-20075286D02*
X11027714Y-20061000D01*
X11056286Y-20046714D01*
X11099143Y-20046714D01*
X11127714Y-20061000D01*
X11142000Y-20089572D01*
X11142000Y-20246714D01*
X11142000Y-20089572D02*
X11156286Y-20061000D01*
X11184857Y-20046714D01*
X11227714Y-20046714D01*
X11256286Y-20061000D01*
X11270571Y-20089572D01*
X11270571Y-20246714D01*
X11856286Y-19932429D02*
X11599143Y-20318143D01*
X12242000Y-19946714D02*
X12270571Y-19946714D01*
X12299143Y-19961000D01*
X12313428Y-19975286D01*
X12327714Y-20003857D01*
X12342000Y-20061000D01*
X12342000Y-20132429D01*
X12327714Y-20189572D01*
X12313428Y-20218143D01*
X12299143Y-20232429D01*
X12270571Y-20246714D01*
X12242000Y-20246714D01*
X12213428Y-20232429D01*
X12199143Y-20218143D01*
X12184857Y-20189572D01*
X12170571Y-20132429D01*
X12170571Y-20061000D01*
X12184857Y-20003857D01*
X12199143Y-19975286D01*
X12213428Y-19961000D01*
X12242000Y-19946714D01*
X12470571Y-20218143D02*
X12484857Y-20232429D01*
X12470571Y-20246714D01*
X12456286Y-20232429D01*
X12470571Y-20218143D01*
X12470571Y-20246714D01*
X12670571Y-19946714D02*
X12699143Y-19946714D01*
X12727714Y-19961000D01*
X12742000Y-19975286D01*
X12756286Y-20003857D01*
X12770571Y-20061000D01*
X12770571Y-20132429D01*
X12756286Y-20189572D01*
X12742000Y-20218143D01*
X12727714Y-20232429D01*
X12699143Y-20246714D01*
X12670571Y-20246714D01*
X12642000Y-20232429D01*
X12627714Y-20218143D01*
X12613428Y-20189572D01*
X12599143Y-20132429D01*
X12599143Y-20061000D01*
X12613428Y-20003857D01*
X12627714Y-19975286D01*
X12642000Y-19961000D01*
X12670571Y-19946714D01*
X12870571Y-19946714D02*
X13056286Y-19946714D01*
X12956286Y-20061000D01*
X12999143Y-20061000D01*
X13027714Y-20075286D01*
X13042000Y-20089572D01*
X13056286Y-20118143D01*
X13056286Y-20189572D01*
X13042000Y-20218143D01*
X13027714Y-20232429D01*
X12999143Y-20246714D01*
X12913428Y-20246714D01*
X12884857Y-20232429D01*
X12870571Y-20218143D01*
X13199143Y-20246714D02*
X13256286Y-20246714D01*
X13284857Y-20232429D01*
X13299143Y-20218143D01*
X13327714Y-20175286D01*
X13342000Y-20118143D01*
X13342000Y-20003857D01*
X13327714Y-19975286D01*
X13313428Y-19961000D01*
X13284857Y-19946714D01*
X13227714Y-19946714D01*
X13199143Y-19961000D01*
X13184857Y-19975286D01*
X13170571Y-20003857D01*
X13170571Y-20075286D01*
X13184857Y-20103857D01*
X13199143Y-20118143D01*
X13227714Y-20132429D01*
X13284857Y-20132429D01*
X13313428Y-20118143D01*
X13327714Y-20103857D01*
X13342000Y-20075286D01*
X13456286Y-19946714D02*
X13456286Y-20003857D01*
X13570571Y-19946714D02*
X13570571Y-20003857D01*
X14013428Y-20361000D02*
X13999143Y-20346714D01*
X13970571Y-20303857D01*
X13956286Y-20275286D01*
X13942000Y-20232429D01*
X13927714Y-20161000D01*
X13927714Y-20103857D01*
X13942000Y-20032429D01*
X13956286Y-19989572D01*
X13970571Y-19961000D01*
X13999143Y-19918143D01*
X14013428Y-19903857D01*
X14113428Y-19975286D02*
X14127714Y-19961000D01*
X14156286Y-19946714D01*
X14227714Y-19946714D01*
X14256286Y-19961000D01*
X14270571Y-19975286D01*
X14284857Y-20003857D01*
X14284857Y-20032429D01*
X14270571Y-20075286D01*
X14099143Y-20246714D01*
X14284857Y-20246714D01*
X14570571Y-20246714D02*
X14399143Y-20246714D01*
X14484857Y-20246714D02*
X14484857Y-19946714D01*
X14456286Y-19989572D01*
X14427714Y-20018143D01*
X14399143Y-20032429D01*
X14927714Y-20246714D02*
X14927714Y-19946714D01*
X15056286Y-20246714D02*
X15056286Y-20089572D01*
X15042000Y-20061000D01*
X15013428Y-20046714D01*
X14970571Y-20046714D01*
X14942000Y-20061000D01*
X14927714Y-20075286D01*
X15242000Y-20246714D02*
X15213428Y-20232429D01*
X15199143Y-20218143D01*
X15184857Y-20189572D01*
X15184857Y-20103857D01*
X15199143Y-20075286D01*
X15213428Y-20061000D01*
X15242000Y-20046714D01*
X15284857Y-20046714D01*
X15313428Y-20061000D01*
X15327714Y-20075286D01*
X15342000Y-20103857D01*
X15342000Y-20189572D01*
X15327714Y-20218143D01*
X15313428Y-20232429D01*
X15284857Y-20246714D01*
X15242000Y-20246714D01*
X15513428Y-20246714D02*
X15484857Y-20232429D01*
X15470571Y-20203857D01*
X15470571Y-19946714D01*
X15742000Y-20232429D02*
X15713428Y-20246714D01*
X15656286Y-20246714D01*
X15627714Y-20232429D01*
X15613428Y-20203857D01*
X15613428Y-20089572D01*
X15627714Y-20061000D01*
X15656286Y-20046714D01*
X15713428Y-20046714D01*
X15742000Y-20061000D01*
X15756286Y-20089572D01*
X15756286Y-20118143D01*
X15613428Y-20146714D01*
X15870571Y-20232429D02*
X15899143Y-20246714D01*
X15956286Y-20246714D01*
X15984857Y-20232429D01*
X15999143Y-20203857D01*
X15999143Y-20189572D01*
X15984857Y-20161000D01*
X15956286Y-20146714D01*
X15913428Y-20146714D01*
X15884857Y-20132429D01*
X15870571Y-20103857D01*
X15870571Y-20089572D01*
X15884857Y-20061000D01*
X15913428Y-20046714D01*
X15956286Y-20046714D01*
X15984857Y-20061000D01*
X16099143Y-20361000D02*
X16113428Y-20346714D01*
X16142000Y-20303857D01*
X16156286Y-20275286D01*
X16170571Y-20232429D01*
X16184857Y-20161000D01*
X16184857Y-20103857D01*
X16170571Y-20032429D01*
X16156286Y-19989572D01*
X16142000Y-19961000D01*
X16113428Y-19918143D01*
X16099143Y-19903857D01*
X9282335Y-20614835D02*
X9282335Y-20399165D01*
X9066665Y-20399165D01*
X9066665Y-20614835D01*
X9282335Y-20614835D01*
X9584857Y-20342714D02*
X9770571Y-20342714D01*
X9670571Y-20457000D01*
X9713428Y-20457000D01*
X9742000Y-20471286D01*
X9756286Y-20485572D01*
X9770571Y-20514143D01*
X9770571Y-20585572D01*
X9756286Y-20614143D01*
X9742000Y-20628429D01*
X9713428Y-20642714D01*
X9627714Y-20642714D01*
X9599143Y-20628429D01*
X9584857Y-20614143D01*
X9899143Y-20614143D02*
X9913428Y-20628429D01*
X9899143Y-20642714D01*
X9884857Y-20628429D01*
X9899143Y-20614143D01*
X9899143Y-20642714D01*
X10099143Y-20342714D02*
X10127714Y-20342714D01*
X10156286Y-20357000D01*
X10170571Y-20371286D01*
X10184857Y-20399857D01*
X10199143Y-20457000D01*
X10199143Y-20528429D01*
X10184857Y-20585572D01*
X10170571Y-20614143D01*
X10156286Y-20628429D01*
X10127714Y-20642714D01*
X10099143Y-20642714D01*
X10070571Y-20628429D01*
X10056286Y-20614143D01*
X10042000Y-20585572D01*
X10027714Y-20528429D01*
X10027714Y-20457000D01*
X10042000Y-20399857D01*
X10056286Y-20371286D01*
X10070571Y-20357000D01*
X10099143Y-20342714D01*
X10470571Y-20342714D02*
X10327714Y-20342714D01*
X10313428Y-20485572D01*
X10327714Y-20471286D01*
X10356286Y-20457000D01*
X10427714Y-20457000D01*
X10456286Y-20471286D01*
X10470571Y-20485572D01*
X10484857Y-20514143D01*
X10484857Y-20585572D01*
X10470571Y-20614143D01*
X10456286Y-20628429D01*
X10427714Y-20642714D01*
X10356286Y-20642714D01*
X10327714Y-20628429D01*
X10313428Y-20614143D01*
X10613428Y-20642714D02*
X10613428Y-20442714D01*
X10613428Y-20471286D02*
X10627714Y-20457000D01*
X10656286Y-20442714D01*
X10699143Y-20442714D01*
X10727714Y-20457000D01*
X10742000Y-20485572D01*
X10742000Y-20642714D01*
X10742000Y-20485572D02*
X10756286Y-20457000D01*
X10784857Y-20442714D01*
X10827714Y-20442714D01*
X10856286Y-20457000D01*
X10870571Y-20485572D01*
X10870571Y-20642714D01*
X11013428Y-20642714D02*
X11013428Y-20442714D01*
X11013428Y-20471286D02*
X11027714Y-20457000D01*
X11056286Y-20442714D01*
X11099143Y-20442714D01*
X11127714Y-20457000D01*
X11142000Y-20485572D01*
X11142000Y-20642714D01*
X11142000Y-20485572D02*
X11156286Y-20457000D01*
X11184857Y-20442714D01*
X11227714Y-20442714D01*
X11256286Y-20457000D01*
X11270571Y-20485572D01*
X11270571Y-20642714D01*
X11856286Y-20328429D02*
X11599143Y-20714143D01*
X12242000Y-20342714D02*
X12270571Y-20342714D01*
X12299143Y-20357000D01*
X12313428Y-20371286D01*
X12327714Y-20399857D01*
X12342000Y-20457000D01*
X12342000Y-20528429D01*
X12327714Y-20585572D01*
X12313428Y-20614143D01*
X12299143Y-20628429D01*
X12270571Y-20642714D01*
X12242000Y-20642714D01*
X12213428Y-20628429D01*
X12199143Y-20614143D01*
X12184857Y-20585572D01*
X12170571Y-20528429D01*
X12170571Y-20457000D01*
X12184857Y-20399857D01*
X12199143Y-20371286D01*
X12213428Y-20357000D01*
X12242000Y-20342714D01*
X12470571Y-20614143D02*
X12484857Y-20628429D01*
X12470571Y-20642714D01*
X12456286Y-20628429D01*
X12470571Y-20614143D01*
X12470571Y-20642714D01*
X12770571Y-20642714D02*
X12599143Y-20642714D01*
X12684857Y-20642714D02*
X12684857Y-20342714D01*
X12656286Y-20385572D01*
X12627714Y-20414143D01*
X12599143Y-20428429D01*
X12884857Y-20371286D02*
X12899143Y-20357000D01*
X12927714Y-20342714D01*
X12999143Y-20342714D01*
X13027714Y-20357000D01*
X13042000Y-20371286D01*
X13056286Y-20399857D01*
X13056286Y-20428429D01*
X13042000Y-20471286D01*
X12870571Y-20642714D01*
X13056286Y-20642714D01*
X13242000Y-20342714D02*
X13270571Y-20342714D01*
X13299143Y-20357000D01*
X13313428Y-20371286D01*
X13327714Y-20399857D01*
X13342000Y-20457000D01*
X13342000Y-20528429D01*
X13327714Y-20585572D01*
X13313428Y-20614143D01*
X13299143Y-20628429D01*
X13270571Y-20642714D01*
X13242000Y-20642714D01*
X13213428Y-20628429D01*
X13199143Y-20614143D01*
X13184857Y-20585572D01*
X13170571Y-20528429D01*
X13170571Y-20457000D01*
X13184857Y-20399857D01*
X13199143Y-20371286D01*
X13213428Y-20357000D01*
X13242000Y-20342714D01*
X13456286Y-20342714D02*
X13456286Y-20399857D01*
X13570571Y-20342714D02*
X13570571Y-20399857D01*
X14013428Y-20757000D02*
X13999143Y-20742714D01*
X13970571Y-20699857D01*
X13956286Y-20671286D01*
X13942000Y-20628429D01*
X13927714Y-20557000D01*
X13927714Y-20499857D01*
X13942000Y-20428429D01*
X13956286Y-20385572D01*
X13970571Y-20357000D01*
X13999143Y-20314143D01*
X14013428Y-20299857D01*
X14113428Y-20371286D02*
X14127714Y-20357000D01*
X14156286Y-20342714D01*
X14227714Y-20342714D01*
X14256286Y-20357000D01*
X14270571Y-20371286D01*
X14284857Y-20399857D01*
X14284857Y-20428429D01*
X14270571Y-20471286D01*
X14099143Y-20642714D01*
X14284857Y-20642714D01*
X14642000Y-20642714D02*
X14642000Y-20342714D01*
X14770571Y-20642714D02*
X14770571Y-20485572D01*
X14756286Y-20457000D01*
X14727714Y-20442714D01*
X14684857Y-20442714D01*
X14656286Y-20457000D01*
X14642000Y-20471286D01*
X14956286Y-20642714D02*
X14927714Y-20628429D01*
X14913428Y-20614143D01*
X14899143Y-20585572D01*
X14899143Y-20499857D01*
X14913428Y-20471286D01*
X14927714Y-20457000D01*
X14956286Y-20442714D01*
X14999143Y-20442714D01*
X15027714Y-20457000D01*
X15042000Y-20471286D01*
X15056286Y-20499857D01*
X15056286Y-20585572D01*
X15042000Y-20614143D01*
X15027714Y-20628429D01*
X14999143Y-20642714D01*
X14956286Y-20642714D01*
X15227714Y-20642714D02*
X15199143Y-20628429D01*
X15184857Y-20599857D01*
X15184857Y-20342714D01*
X15456286Y-20628429D02*
X15427714Y-20642714D01*
X15370571Y-20642714D01*
X15342000Y-20628429D01*
X15327714Y-20599857D01*
X15327714Y-20485572D01*
X15342000Y-20457000D01*
X15370571Y-20442714D01*
X15427714Y-20442714D01*
X15456286Y-20457000D01*
X15470571Y-20485572D01*
X15470571Y-20514143D01*
X15327714Y-20542714D01*
X15584857Y-20628429D02*
X15613428Y-20642714D01*
X15670571Y-20642714D01*
X15699143Y-20628429D01*
X15713428Y-20599857D01*
X15713428Y-20585572D01*
X15699143Y-20557000D01*
X15670571Y-20542714D01*
X15627714Y-20542714D01*
X15599143Y-20528429D01*
X15584857Y-20499857D01*
X15584857Y-20485572D01*
X15599143Y-20457000D01*
X15627714Y-20442714D01*
X15670571Y-20442714D01*
X15699143Y-20457000D01*
X15813428Y-20757000D02*
X15827714Y-20742714D01*
X15856286Y-20699857D01*
X15870571Y-20671286D01*
X15884857Y-20628429D01*
X15899143Y-20557000D01*
X15899143Y-20499857D01*
X15884857Y-20428429D01*
X15870571Y-20385572D01*
X15856286Y-20357000D01*
X15827714Y-20314143D01*
X15813428Y-20299857D01*
M02*
