M48
; DRILL file {KiCad (5.1.5)-3} date 1/5/2020 8:33:48 PM
; FORMAT={-:-/ absolute / inch / decimal}
; #@! TF.CreationDate,2020-01-05T20:33:48-06:00
; #@! TF.GenerationSoftware,Kicad,Pcbnew,(5.1.5)-3
; #@! TF.FileFunction,Plated,1,2,PTH
FMAT,2
INCH
T1C0.0130
T2C0.0315
T3C0.0394
T4C0.1201
%
G90
G05
T1
X3.8Y-5.1
X3.84Y-4.36
X3.85Y-4.45
X3.86Y-5.5
X3.9Y-5.1
X3.92Y-4.8
X4.1Y-5.18
X4.12Y-5.66
X4.12Y-5.76
X4.125Y-5.25
X4.15Y-5.4
X4.2Y-4.525
X4.2Y-4.675
X4.2Y-4.775
X4.2Y-6.5
X4.24Y-6.12
X4.25Y-4.2
X4.25Y-5.6
X4.26Y-3.94
X4.275Y-4.475
X4.28Y-4.54
X4.325Y-4.0
X4.325Y-4.35
X4.325Y-4.75
X4.325Y-5.2
X4.35Y-5.3
X4.36Y-4.7
X4.4Y-4.3
X4.4Y-4.52
X4.4Y-4.675
X4.4Y-4.825
X4.4Y-4.875
X4.4Y-4.975
X4.42Y-6.1
X4.48Y-5.34
X4.48Y-5.58
X4.5Y-4.3
X4.5Y-5.15
X4.525Y-6.025
X4.575Y-6.25
X4.68Y-6.78
X4.725Y-6.025
X4.725Y-6.3
X4.725Y-6.55
X4.74Y-5.52
X4.75Y-4.25
X4.775Y-4.425
T2
X4.0Y-4.0
X4.0Y-4.1
X4.0Y-4.2
X4.0Y-4.3
X4.0Y-4.4
X4.0Y-4.5
X4.0Y-4.6
X4.0Y-4.7
X4.0Y-4.8
X4.0Y-4.9
X4.0Y-5.0
X4.0Y-5.1
X4.0Y-5.2
X4.0Y-5.3
X4.0Y-5.4
X4.0Y-5.5
X4.0Y-5.6
X4.0Y-5.7
X4.0Y-5.8
X4.0Y-5.9
X4.6Y-4.0
X4.6Y-4.1
X4.6Y-4.2
X4.6Y-4.3
X4.6Y-4.4
X4.6Y-4.5
X4.6Y-4.6
X4.6Y-4.7
X4.6Y-4.8
X4.6Y-4.9
X4.6Y-5.0
X4.6Y-5.1
X4.6Y-5.2
X4.6Y-5.3
X4.6Y-5.4
X4.6Y-5.5
X4.6Y-5.6
X4.6Y-5.7
X4.6Y-5.8
X4.6Y-5.9
T3
X3.775Y-4.75
X3.775Y-4.85
X3.9882Y-6.4433
X3.9882Y-6.5524
X3.9882Y-6.6614
X3.9882Y-6.7705
X4.1Y-6.3888
X4.1Y-6.4978
X4.1Y-6.6069
X4.1Y-6.7159
X4.1Y-6.825
X4.75Y-4.7
X4.75Y-4.8
X4.75Y-4.9
X4.75Y-5.0
X4.75Y-5.1
X4.225Y-3.825
X4.325Y-3.825
X4.425Y-3.825
X4.525Y-3.825
X4.625Y-3.825
T4
X4.0441Y-6.115
X4.0441Y-7.0988
T0
M30
