G04 #@! TF.GenerationSoftware,KiCad,Pcbnew,(5.1.5)-3*
G04 #@! TF.CreationDate,2020-02-09T18:17:14-06:00*
G04 #@! TF.ProjectId,tymkrs_Cyphercon_2020_parrot,74796d6b-7273-45f4-9379-70686572636f,V0*
G04 #@! TF.SameCoordinates,Original*
G04 #@! TF.FileFunction,Paste,Top*
G04 #@! TF.FilePolarity,Positive*
%FSLAX46Y46*%
G04 Gerber Fmt 4.6, Leading zero omitted, Abs format (unit mm)*
G04 Created by KiCad (PCBNEW (5.1.5)-3) date 2020-02-09 18:17:14*
%MOMM*%
%LPD*%
G04 APERTURE LIST*
%ADD10C,0.100000*%
G04 APERTURE END LIST*
D10*
G36*
X140539758Y-26679623D02*
G01*
X140561110Y-26681844D01*
X140582141Y-26686147D01*
X140602650Y-26692490D01*
X141013765Y-26842124D01*
X141033553Y-26850447D01*
X141052430Y-26860670D01*
X141070214Y-26872694D01*
X141086733Y-26886403D01*
X141101830Y-26901665D01*
X141115358Y-26918333D01*
X141127187Y-26936247D01*
X141137203Y-26955234D01*
X141145310Y-26975112D01*
X141151429Y-26995688D01*
X141155502Y-27016766D01*
X141157490Y-27038140D01*
X141157373Y-27059607D01*
X141155152Y-27080959D01*
X141150849Y-27101991D01*
X141144506Y-27122499D01*
X140969221Y-27604091D01*
X140960898Y-27623879D01*
X140950675Y-27642756D01*
X140938651Y-27660540D01*
X140924942Y-27677059D01*
X140909680Y-27692156D01*
X140893012Y-27705684D01*
X140875098Y-27717513D01*
X140856111Y-27727529D01*
X140836233Y-27735636D01*
X140815657Y-27741755D01*
X140794580Y-27745828D01*
X140773205Y-27747816D01*
X140751738Y-27747699D01*
X140730386Y-27745478D01*
X140709355Y-27741175D01*
X140688846Y-27734832D01*
X140277731Y-27585198D01*
X140257943Y-27576875D01*
X140239066Y-27566652D01*
X140221282Y-27554628D01*
X140204763Y-27540919D01*
X140189666Y-27525657D01*
X140176138Y-27508989D01*
X140164309Y-27491075D01*
X140154293Y-27472088D01*
X140146186Y-27452210D01*
X140140067Y-27431634D01*
X140135994Y-27410556D01*
X140134006Y-27389182D01*
X140134123Y-27367715D01*
X140136344Y-27346363D01*
X140140647Y-27325331D01*
X140146990Y-27304823D01*
X140322275Y-26823231D01*
X140330598Y-26803443D01*
X140340821Y-26784566D01*
X140352845Y-26766782D01*
X140366554Y-26750263D01*
X140381816Y-26735166D01*
X140398484Y-26721638D01*
X140416398Y-26709809D01*
X140435385Y-26699793D01*
X140455263Y-26691686D01*
X140475839Y-26685567D01*
X140496916Y-26681494D01*
X140518291Y-26679506D01*
X140539758Y-26679623D01*
G37*
G36*
X139059742Y-26140941D02*
G01*
X139081094Y-26143162D01*
X139102125Y-26147465D01*
X139122634Y-26153808D01*
X139533749Y-26303442D01*
X139553537Y-26311765D01*
X139572414Y-26321988D01*
X139590198Y-26334012D01*
X139606717Y-26347721D01*
X139621814Y-26362983D01*
X139635342Y-26379651D01*
X139647171Y-26397565D01*
X139657187Y-26416552D01*
X139665294Y-26436430D01*
X139671413Y-26457006D01*
X139675486Y-26478084D01*
X139677474Y-26499458D01*
X139677357Y-26520925D01*
X139675136Y-26542277D01*
X139670833Y-26563309D01*
X139664490Y-26583817D01*
X139489205Y-27065409D01*
X139480882Y-27085197D01*
X139470659Y-27104074D01*
X139458635Y-27121858D01*
X139444926Y-27138377D01*
X139429664Y-27153474D01*
X139412996Y-27167002D01*
X139395082Y-27178831D01*
X139376095Y-27188847D01*
X139356217Y-27196954D01*
X139335641Y-27203073D01*
X139314564Y-27207146D01*
X139293189Y-27209134D01*
X139271722Y-27209017D01*
X139250370Y-27206796D01*
X139229339Y-27202493D01*
X139208830Y-27196150D01*
X138797715Y-27046516D01*
X138777927Y-27038193D01*
X138759050Y-27027970D01*
X138741266Y-27015946D01*
X138724747Y-27002237D01*
X138709650Y-26986975D01*
X138696122Y-26970307D01*
X138684293Y-26952393D01*
X138674277Y-26933406D01*
X138666170Y-26913528D01*
X138660051Y-26892952D01*
X138655978Y-26871874D01*
X138653990Y-26850500D01*
X138654107Y-26829033D01*
X138656328Y-26807681D01*
X138660631Y-26786649D01*
X138666974Y-26766141D01*
X138842259Y-26284549D01*
X138850582Y-26264761D01*
X138860805Y-26245884D01*
X138872829Y-26228100D01*
X138886538Y-26211581D01*
X138901800Y-26196484D01*
X138918468Y-26182956D01*
X138936382Y-26171127D01*
X138955369Y-26161111D01*
X138975247Y-26153004D01*
X138995823Y-26146885D01*
X139016900Y-26142812D01*
X139038275Y-26140824D01*
X139059742Y-26140941D01*
G37*
G36*
X96000287Y-115461366D02*
G01*
X96021639Y-115463587D01*
X96042671Y-115467890D01*
X96063179Y-115474233D01*
X96544771Y-115649518D01*
X96564559Y-115657841D01*
X96583436Y-115668064D01*
X96601220Y-115680088D01*
X96617739Y-115693797D01*
X96632836Y-115709059D01*
X96646364Y-115725727D01*
X96658193Y-115743641D01*
X96668209Y-115762628D01*
X96676316Y-115782506D01*
X96682435Y-115803082D01*
X96686508Y-115824159D01*
X96688496Y-115845534D01*
X96688379Y-115867001D01*
X96686158Y-115888353D01*
X96681855Y-115909384D01*
X96675512Y-115929893D01*
X96525878Y-116341008D01*
X96517555Y-116360796D01*
X96507332Y-116379673D01*
X96495308Y-116397457D01*
X96481599Y-116413976D01*
X96466337Y-116429073D01*
X96449669Y-116442601D01*
X96431755Y-116454430D01*
X96412768Y-116464446D01*
X96392890Y-116472553D01*
X96372314Y-116478672D01*
X96351236Y-116482745D01*
X96329862Y-116484733D01*
X96308395Y-116484616D01*
X96287043Y-116482395D01*
X96266011Y-116478092D01*
X96245503Y-116471749D01*
X95763911Y-116296464D01*
X95744123Y-116288141D01*
X95725246Y-116277918D01*
X95707462Y-116265894D01*
X95690943Y-116252185D01*
X95675846Y-116236923D01*
X95662318Y-116220255D01*
X95650489Y-116202341D01*
X95640473Y-116183354D01*
X95632366Y-116163476D01*
X95626247Y-116142900D01*
X95622174Y-116121823D01*
X95620186Y-116100448D01*
X95620303Y-116078981D01*
X95622524Y-116057629D01*
X95626827Y-116036598D01*
X95633170Y-116016089D01*
X95782804Y-115604974D01*
X95791127Y-115585186D01*
X95801350Y-115566309D01*
X95813374Y-115548525D01*
X95827083Y-115532006D01*
X95842345Y-115516909D01*
X95859013Y-115503381D01*
X95876927Y-115491552D01*
X95895914Y-115481536D01*
X95915792Y-115473429D01*
X95936368Y-115467310D01*
X95957446Y-115463237D01*
X95978820Y-115461249D01*
X96000287Y-115461366D01*
G37*
G36*
X95461605Y-116941384D02*
G01*
X95482957Y-116943605D01*
X95503989Y-116947908D01*
X95524497Y-116954251D01*
X96006089Y-117129536D01*
X96025877Y-117137859D01*
X96044754Y-117148082D01*
X96062538Y-117160106D01*
X96079057Y-117173815D01*
X96094154Y-117189077D01*
X96107682Y-117205745D01*
X96119511Y-117223659D01*
X96129527Y-117242646D01*
X96137634Y-117262524D01*
X96143753Y-117283100D01*
X96147826Y-117304177D01*
X96149814Y-117325552D01*
X96149697Y-117347019D01*
X96147476Y-117368371D01*
X96143173Y-117389402D01*
X96136830Y-117409911D01*
X95987196Y-117821026D01*
X95978873Y-117840814D01*
X95968650Y-117859691D01*
X95956626Y-117877475D01*
X95942917Y-117893994D01*
X95927655Y-117909091D01*
X95910987Y-117922619D01*
X95893073Y-117934448D01*
X95874086Y-117944464D01*
X95854208Y-117952571D01*
X95833632Y-117958690D01*
X95812554Y-117962763D01*
X95791180Y-117964751D01*
X95769713Y-117964634D01*
X95748361Y-117962413D01*
X95727329Y-117958110D01*
X95706821Y-117951767D01*
X95225229Y-117776482D01*
X95205441Y-117768159D01*
X95186564Y-117757936D01*
X95168780Y-117745912D01*
X95152261Y-117732203D01*
X95137164Y-117716941D01*
X95123636Y-117700273D01*
X95111807Y-117682359D01*
X95101791Y-117663372D01*
X95093684Y-117643494D01*
X95087565Y-117622918D01*
X95083492Y-117601841D01*
X95081504Y-117580466D01*
X95081621Y-117558999D01*
X95083842Y-117537647D01*
X95088145Y-117516616D01*
X95094488Y-117496107D01*
X95244122Y-117084992D01*
X95252445Y-117065204D01*
X95262668Y-117046327D01*
X95274692Y-117028543D01*
X95288401Y-117012024D01*
X95303663Y-116996927D01*
X95320331Y-116983399D01*
X95338245Y-116971570D01*
X95357232Y-116961554D01*
X95377110Y-116953447D01*
X95397686Y-116947328D01*
X95418764Y-116943255D01*
X95440138Y-116941267D01*
X95461605Y-116941384D01*
G37*
G36*
X96127287Y-106444366D02*
G01*
X96148639Y-106446587D01*
X96169671Y-106450890D01*
X96190179Y-106457233D01*
X96671771Y-106632518D01*
X96691559Y-106640841D01*
X96710436Y-106651064D01*
X96728220Y-106663088D01*
X96744739Y-106676797D01*
X96759836Y-106692059D01*
X96773364Y-106708727D01*
X96785193Y-106726641D01*
X96795209Y-106745628D01*
X96803316Y-106765506D01*
X96809435Y-106786082D01*
X96813508Y-106807159D01*
X96815496Y-106828534D01*
X96815379Y-106850001D01*
X96813158Y-106871353D01*
X96808855Y-106892384D01*
X96802512Y-106912893D01*
X96652878Y-107324008D01*
X96644555Y-107343796D01*
X96634332Y-107362673D01*
X96622308Y-107380457D01*
X96608599Y-107396976D01*
X96593337Y-107412073D01*
X96576669Y-107425601D01*
X96558755Y-107437430D01*
X96539768Y-107447446D01*
X96519890Y-107455553D01*
X96499314Y-107461672D01*
X96478236Y-107465745D01*
X96456862Y-107467733D01*
X96435395Y-107467616D01*
X96414043Y-107465395D01*
X96393011Y-107461092D01*
X96372503Y-107454749D01*
X95890911Y-107279464D01*
X95871123Y-107271141D01*
X95852246Y-107260918D01*
X95834462Y-107248894D01*
X95817943Y-107235185D01*
X95802846Y-107219923D01*
X95789318Y-107203255D01*
X95777489Y-107185341D01*
X95767473Y-107166354D01*
X95759366Y-107146476D01*
X95753247Y-107125900D01*
X95749174Y-107104823D01*
X95747186Y-107083448D01*
X95747303Y-107061981D01*
X95749524Y-107040629D01*
X95753827Y-107019598D01*
X95760170Y-106999089D01*
X95909804Y-106587974D01*
X95918127Y-106568186D01*
X95928350Y-106549309D01*
X95940374Y-106531525D01*
X95954083Y-106515006D01*
X95969345Y-106499909D01*
X95986013Y-106486381D01*
X96003927Y-106474552D01*
X96022914Y-106464536D01*
X96042792Y-106456429D01*
X96063368Y-106450310D01*
X96084446Y-106446237D01*
X96105820Y-106444249D01*
X96127287Y-106444366D01*
G37*
G36*
X95588605Y-107924384D02*
G01*
X95609957Y-107926605D01*
X95630989Y-107930908D01*
X95651497Y-107937251D01*
X96133089Y-108112536D01*
X96152877Y-108120859D01*
X96171754Y-108131082D01*
X96189538Y-108143106D01*
X96206057Y-108156815D01*
X96221154Y-108172077D01*
X96234682Y-108188745D01*
X96246511Y-108206659D01*
X96256527Y-108225646D01*
X96264634Y-108245524D01*
X96270753Y-108266100D01*
X96274826Y-108287177D01*
X96276814Y-108308552D01*
X96276697Y-108330019D01*
X96274476Y-108351371D01*
X96270173Y-108372402D01*
X96263830Y-108392911D01*
X96114196Y-108804026D01*
X96105873Y-108823814D01*
X96095650Y-108842691D01*
X96083626Y-108860475D01*
X96069917Y-108876994D01*
X96054655Y-108892091D01*
X96037987Y-108905619D01*
X96020073Y-108917448D01*
X96001086Y-108927464D01*
X95981208Y-108935571D01*
X95960632Y-108941690D01*
X95939554Y-108945763D01*
X95918180Y-108947751D01*
X95896713Y-108947634D01*
X95875361Y-108945413D01*
X95854329Y-108941110D01*
X95833821Y-108934767D01*
X95352229Y-108759482D01*
X95332441Y-108751159D01*
X95313564Y-108740936D01*
X95295780Y-108728912D01*
X95279261Y-108715203D01*
X95264164Y-108699941D01*
X95250636Y-108683273D01*
X95238807Y-108665359D01*
X95228791Y-108646372D01*
X95220684Y-108626494D01*
X95214565Y-108605918D01*
X95210492Y-108584841D01*
X95208504Y-108563466D01*
X95208621Y-108541999D01*
X95210842Y-108520647D01*
X95215145Y-108499616D01*
X95221488Y-108479107D01*
X95371122Y-108067992D01*
X95379445Y-108048204D01*
X95389668Y-108029327D01*
X95401692Y-108011543D01*
X95415401Y-107995024D01*
X95430663Y-107979927D01*
X95447331Y-107966399D01*
X95465245Y-107954570D01*
X95484232Y-107944554D01*
X95504110Y-107936447D01*
X95524686Y-107930328D01*
X95545764Y-107926255D01*
X95567138Y-107924267D01*
X95588605Y-107924384D01*
G37*
G36*
X90109065Y-110506426D02*
G01*
X90130363Y-110509112D01*
X90635077Y-110598107D01*
X90656009Y-110602868D01*
X90676374Y-110609657D01*
X90695976Y-110618410D01*
X90714625Y-110629042D01*
X90732143Y-110641451D01*
X90748360Y-110655517D01*
X90763120Y-110671105D01*
X90776281Y-110688064D01*
X90787716Y-110706232D01*
X90797315Y-110725433D01*
X90804987Y-110745483D01*
X90810656Y-110766188D01*
X90814268Y-110787349D01*
X90815789Y-110808762D01*
X90815204Y-110830221D01*
X90812518Y-110851520D01*
X90736546Y-111282373D01*
X90731785Y-111303306D01*
X90724996Y-111323671D01*
X90716243Y-111343272D01*
X90705611Y-111361922D01*
X90693202Y-111379439D01*
X90679136Y-111395656D01*
X90663548Y-111410416D01*
X90646588Y-111423577D01*
X90628421Y-111435012D01*
X90609219Y-111444612D01*
X90589170Y-111452283D01*
X90568465Y-111457952D01*
X90547304Y-111461564D01*
X90525891Y-111463085D01*
X90504431Y-111462500D01*
X90483133Y-111459814D01*
X89978419Y-111370819D01*
X89957487Y-111366058D01*
X89937122Y-111359269D01*
X89917520Y-111350516D01*
X89898871Y-111339884D01*
X89881353Y-111327475D01*
X89865136Y-111313409D01*
X89850376Y-111297821D01*
X89837215Y-111280862D01*
X89825780Y-111262694D01*
X89816181Y-111243493D01*
X89808509Y-111223443D01*
X89802840Y-111202738D01*
X89799228Y-111181577D01*
X89797707Y-111160164D01*
X89798292Y-111138705D01*
X89800978Y-111117406D01*
X89876950Y-110686553D01*
X89881711Y-110665620D01*
X89888500Y-110645255D01*
X89897253Y-110625654D01*
X89907885Y-110607004D01*
X89920294Y-110589487D01*
X89934360Y-110573270D01*
X89949948Y-110558510D01*
X89966908Y-110545349D01*
X89985075Y-110533914D01*
X90004277Y-110524314D01*
X90024326Y-110516643D01*
X90045031Y-110510974D01*
X90066192Y-110507362D01*
X90087605Y-110505841D01*
X90109065Y-110506426D01*
G37*
G36*
X89835569Y-112057500D02*
G01*
X89856867Y-112060186D01*
X90361581Y-112149181D01*
X90382513Y-112153942D01*
X90402878Y-112160731D01*
X90422480Y-112169484D01*
X90441129Y-112180116D01*
X90458647Y-112192525D01*
X90474864Y-112206591D01*
X90489624Y-112222179D01*
X90502785Y-112239138D01*
X90514220Y-112257306D01*
X90523819Y-112276507D01*
X90531491Y-112296557D01*
X90537160Y-112317262D01*
X90540772Y-112338423D01*
X90542293Y-112359836D01*
X90541708Y-112381295D01*
X90539022Y-112402594D01*
X90463050Y-112833447D01*
X90458289Y-112854380D01*
X90451500Y-112874745D01*
X90442747Y-112894346D01*
X90432115Y-112912996D01*
X90419706Y-112930513D01*
X90405640Y-112946730D01*
X90390052Y-112961490D01*
X90373092Y-112974651D01*
X90354925Y-112986086D01*
X90335723Y-112995686D01*
X90315674Y-113003357D01*
X90294969Y-113009026D01*
X90273808Y-113012638D01*
X90252395Y-113014159D01*
X90230935Y-113013574D01*
X90209637Y-113010888D01*
X89704923Y-112921893D01*
X89683991Y-112917132D01*
X89663626Y-112910343D01*
X89644024Y-112901590D01*
X89625375Y-112890958D01*
X89607857Y-112878549D01*
X89591640Y-112864483D01*
X89576880Y-112848895D01*
X89563719Y-112831936D01*
X89552284Y-112813768D01*
X89542685Y-112794567D01*
X89535013Y-112774517D01*
X89529344Y-112753812D01*
X89525732Y-112732651D01*
X89524211Y-112711238D01*
X89524796Y-112689779D01*
X89527482Y-112668480D01*
X89603454Y-112237627D01*
X89608215Y-112216694D01*
X89615004Y-112196329D01*
X89623757Y-112176728D01*
X89634389Y-112158078D01*
X89646798Y-112140561D01*
X89660864Y-112124344D01*
X89676452Y-112109584D01*
X89693412Y-112096423D01*
X89711579Y-112084988D01*
X89730781Y-112075388D01*
X89750830Y-112067717D01*
X89771535Y-112062048D01*
X89792696Y-112058436D01*
X89814109Y-112056915D01*
X89835569Y-112057500D01*
G37*
G36*
X91209691Y-130602052D02*
G01*
X91230926Y-130605202D01*
X91251750Y-130610418D01*
X91271962Y-130617650D01*
X91291368Y-130626829D01*
X91309781Y-130637865D01*
X91327024Y-130650653D01*
X91342930Y-130665069D01*
X91357346Y-130680975D01*
X91370134Y-130698218D01*
X91381170Y-130716631D01*
X91390349Y-130736037D01*
X91397581Y-130756249D01*
X91402797Y-130777073D01*
X91405947Y-130798308D01*
X91407000Y-130819749D01*
X91407000Y-131257249D01*
X91405947Y-131278690D01*
X91402797Y-131299925D01*
X91397581Y-131320749D01*
X91390349Y-131340961D01*
X91381170Y-131360367D01*
X91370134Y-131378780D01*
X91357346Y-131396023D01*
X91342930Y-131411929D01*
X91327024Y-131426345D01*
X91309781Y-131439133D01*
X91291368Y-131450169D01*
X91271962Y-131459348D01*
X91251750Y-131466580D01*
X91230926Y-131471796D01*
X91209691Y-131474946D01*
X91188250Y-131475999D01*
X90675750Y-131475999D01*
X90654309Y-131474946D01*
X90633074Y-131471796D01*
X90612250Y-131466580D01*
X90592038Y-131459348D01*
X90572632Y-131450169D01*
X90554219Y-131439133D01*
X90536976Y-131426345D01*
X90521070Y-131411929D01*
X90506654Y-131396023D01*
X90493866Y-131378780D01*
X90482830Y-131360367D01*
X90473651Y-131340961D01*
X90466419Y-131320749D01*
X90461203Y-131299925D01*
X90458053Y-131278690D01*
X90457000Y-131257249D01*
X90457000Y-130819749D01*
X90458053Y-130798308D01*
X90461203Y-130777073D01*
X90466419Y-130756249D01*
X90473651Y-130736037D01*
X90482830Y-130716631D01*
X90493866Y-130698218D01*
X90506654Y-130680975D01*
X90521070Y-130665069D01*
X90536976Y-130650653D01*
X90554219Y-130637865D01*
X90572632Y-130626829D01*
X90592038Y-130617650D01*
X90612250Y-130610418D01*
X90633074Y-130605202D01*
X90654309Y-130602052D01*
X90675750Y-130600999D01*
X91188250Y-130600999D01*
X91209691Y-130602052D01*
G37*
G36*
X91209691Y-132177054D02*
G01*
X91230926Y-132180204D01*
X91251750Y-132185420D01*
X91271962Y-132192652D01*
X91291368Y-132201831D01*
X91309781Y-132212867D01*
X91327024Y-132225655D01*
X91342930Y-132240071D01*
X91357346Y-132255977D01*
X91370134Y-132273220D01*
X91381170Y-132291633D01*
X91390349Y-132311039D01*
X91397581Y-132331251D01*
X91402797Y-132352075D01*
X91405947Y-132373310D01*
X91407000Y-132394751D01*
X91407000Y-132832251D01*
X91405947Y-132853692D01*
X91402797Y-132874927D01*
X91397581Y-132895751D01*
X91390349Y-132915963D01*
X91381170Y-132935369D01*
X91370134Y-132953782D01*
X91357346Y-132971025D01*
X91342930Y-132986931D01*
X91327024Y-133001347D01*
X91309781Y-133014135D01*
X91291368Y-133025171D01*
X91271962Y-133034350D01*
X91251750Y-133041582D01*
X91230926Y-133046798D01*
X91209691Y-133049948D01*
X91188250Y-133051001D01*
X90675750Y-133051001D01*
X90654309Y-133049948D01*
X90633074Y-133046798D01*
X90612250Y-133041582D01*
X90592038Y-133034350D01*
X90572632Y-133025171D01*
X90554219Y-133014135D01*
X90536976Y-133001347D01*
X90521070Y-132986931D01*
X90506654Y-132971025D01*
X90493866Y-132953782D01*
X90482830Y-132935369D01*
X90473651Y-132915963D01*
X90466419Y-132895751D01*
X90461203Y-132874927D01*
X90458053Y-132853692D01*
X90457000Y-132832251D01*
X90457000Y-132394751D01*
X90458053Y-132373310D01*
X90461203Y-132352075D01*
X90466419Y-132331251D01*
X90473651Y-132311039D01*
X90482830Y-132291633D01*
X90493866Y-132273220D01*
X90506654Y-132255977D01*
X90521070Y-132240071D01*
X90536976Y-132225655D01*
X90554219Y-132212867D01*
X90572632Y-132201831D01*
X90592038Y-132192652D01*
X90612250Y-132185420D01*
X90633074Y-132180204D01*
X90654309Y-132177054D01*
X90675750Y-132176001D01*
X91188250Y-132176001D01*
X91209691Y-132177054D01*
G37*
G36*
X92733691Y-145131054D02*
G01*
X92754926Y-145134204D01*
X92775750Y-145139420D01*
X92795962Y-145146652D01*
X92815368Y-145155831D01*
X92833781Y-145166867D01*
X92851024Y-145179655D01*
X92866930Y-145194071D01*
X92881346Y-145209977D01*
X92894134Y-145227220D01*
X92905170Y-145245633D01*
X92914349Y-145265039D01*
X92921581Y-145285251D01*
X92926797Y-145306075D01*
X92929947Y-145327310D01*
X92931000Y-145348751D01*
X92931000Y-145786251D01*
X92929947Y-145807692D01*
X92926797Y-145828927D01*
X92921581Y-145849751D01*
X92914349Y-145869963D01*
X92905170Y-145889369D01*
X92894134Y-145907782D01*
X92881346Y-145925025D01*
X92866930Y-145940931D01*
X92851024Y-145955347D01*
X92833781Y-145968135D01*
X92815368Y-145979171D01*
X92795962Y-145988350D01*
X92775750Y-145995582D01*
X92754926Y-146000798D01*
X92733691Y-146003948D01*
X92712250Y-146005001D01*
X92199750Y-146005001D01*
X92178309Y-146003948D01*
X92157074Y-146000798D01*
X92136250Y-145995582D01*
X92116038Y-145988350D01*
X92096632Y-145979171D01*
X92078219Y-145968135D01*
X92060976Y-145955347D01*
X92045070Y-145940931D01*
X92030654Y-145925025D01*
X92017866Y-145907782D01*
X92006830Y-145889369D01*
X91997651Y-145869963D01*
X91990419Y-145849751D01*
X91985203Y-145828927D01*
X91982053Y-145807692D01*
X91981000Y-145786251D01*
X91981000Y-145348751D01*
X91982053Y-145327310D01*
X91985203Y-145306075D01*
X91990419Y-145285251D01*
X91997651Y-145265039D01*
X92006830Y-145245633D01*
X92017866Y-145227220D01*
X92030654Y-145209977D01*
X92045070Y-145194071D01*
X92060976Y-145179655D01*
X92078219Y-145166867D01*
X92096632Y-145155831D01*
X92116038Y-145146652D01*
X92136250Y-145139420D01*
X92157074Y-145134204D01*
X92178309Y-145131054D01*
X92199750Y-145130001D01*
X92712250Y-145130001D01*
X92733691Y-145131054D01*
G37*
G36*
X92733691Y-143556052D02*
G01*
X92754926Y-143559202D01*
X92775750Y-143564418D01*
X92795962Y-143571650D01*
X92815368Y-143580829D01*
X92833781Y-143591865D01*
X92851024Y-143604653D01*
X92866930Y-143619069D01*
X92881346Y-143634975D01*
X92894134Y-143652218D01*
X92905170Y-143670631D01*
X92914349Y-143690037D01*
X92921581Y-143710249D01*
X92926797Y-143731073D01*
X92929947Y-143752308D01*
X92931000Y-143773749D01*
X92931000Y-144211249D01*
X92929947Y-144232690D01*
X92926797Y-144253925D01*
X92921581Y-144274749D01*
X92914349Y-144294961D01*
X92905170Y-144314367D01*
X92894134Y-144332780D01*
X92881346Y-144350023D01*
X92866930Y-144365929D01*
X92851024Y-144380345D01*
X92833781Y-144393133D01*
X92815368Y-144404169D01*
X92795962Y-144413348D01*
X92775750Y-144420580D01*
X92754926Y-144425796D01*
X92733691Y-144428946D01*
X92712250Y-144429999D01*
X92199750Y-144429999D01*
X92178309Y-144428946D01*
X92157074Y-144425796D01*
X92136250Y-144420580D01*
X92116038Y-144413348D01*
X92096632Y-144404169D01*
X92078219Y-144393133D01*
X92060976Y-144380345D01*
X92045070Y-144365929D01*
X92030654Y-144350023D01*
X92017866Y-144332780D01*
X92006830Y-144314367D01*
X91997651Y-144294961D01*
X91990419Y-144274749D01*
X91985203Y-144253925D01*
X91982053Y-144232690D01*
X91981000Y-144211249D01*
X91981000Y-143773749D01*
X91982053Y-143752308D01*
X91985203Y-143731073D01*
X91990419Y-143710249D01*
X91997651Y-143690037D01*
X92006830Y-143670631D01*
X92017866Y-143652218D01*
X92030654Y-143634975D01*
X92045070Y-143619069D01*
X92060976Y-143604653D01*
X92078219Y-143591865D01*
X92096632Y-143580829D01*
X92116038Y-143571650D01*
X92136250Y-143564418D01*
X92157074Y-143559202D01*
X92178309Y-143556052D01*
X92199750Y-143554999D01*
X92712250Y-143554999D01*
X92733691Y-143556052D01*
G37*
G36*
X91336691Y-181148052D02*
G01*
X91357926Y-181151202D01*
X91378750Y-181156418D01*
X91398962Y-181163650D01*
X91418368Y-181172829D01*
X91436781Y-181183865D01*
X91454024Y-181196653D01*
X91469930Y-181211069D01*
X91484346Y-181226975D01*
X91497134Y-181244218D01*
X91508170Y-181262631D01*
X91517349Y-181282037D01*
X91524581Y-181302249D01*
X91529797Y-181323073D01*
X91532947Y-181344308D01*
X91534000Y-181365749D01*
X91534000Y-181803249D01*
X91532947Y-181824690D01*
X91529797Y-181845925D01*
X91524581Y-181866749D01*
X91517349Y-181886961D01*
X91508170Y-181906367D01*
X91497134Y-181924780D01*
X91484346Y-181942023D01*
X91469930Y-181957929D01*
X91454024Y-181972345D01*
X91436781Y-181985133D01*
X91418368Y-181996169D01*
X91398962Y-182005348D01*
X91378750Y-182012580D01*
X91357926Y-182017796D01*
X91336691Y-182020946D01*
X91315250Y-182021999D01*
X90802750Y-182021999D01*
X90781309Y-182020946D01*
X90760074Y-182017796D01*
X90739250Y-182012580D01*
X90719038Y-182005348D01*
X90699632Y-181996169D01*
X90681219Y-181985133D01*
X90663976Y-181972345D01*
X90648070Y-181957929D01*
X90633654Y-181942023D01*
X90620866Y-181924780D01*
X90609830Y-181906367D01*
X90600651Y-181886961D01*
X90593419Y-181866749D01*
X90588203Y-181845925D01*
X90585053Y-181824690D01*
X90584000Y-181803249D01*
X90584000Y-181365749D01*
X90585053Y-181344308D01*
X90588203Y-181323073D01*
X90593419Y-181302249D01*
X90600651Y-181282037D01*
X90609830Y-181262631D01*
X90620866Y-181244218D01*
X90633654Y-181226975D01*
X90648070Y-181211069D01*
X90663976Y-181196653D01*
X90681219Y-181183865D01*
X90699632Y-181172829D01*
X90719038Y-181163650D01*
X90739250Y-181156418D01*
X90760074Y-181151202D01*
X90781309Y-181148052D01*
X90802750Y-181146999D01*
X91315250Y-181146999D01*
X91336691Y-181148052D01*
G37*
G36*
X91336691Y-182723054D02*
G01*
X91357926Y-182726204D01*
X91378750Y-182731420D01*
X91398962Y-182738652D01*
X91418368Y-182747831D01*
X91436781Y-182758867D01*
X91454024Y-182771655D01*
X91469930Y-182786071D01*
X91484346Y-182801977D01*
X91497134Y-182819220D01*
X91508170Y-182837633D01*
X91517349Y-182857039D01*
X91524581Y-182877251D01*
X91529797Y-182898075D01*
X91532947Y-182919310D01*
X91534000Y-182940751D01*
X91534000Y-183378251D01*
X91532947Y-183399692D01*
X91529797Y-183420927D01*
X91524581Y-183441751D01*
X91517349Y-183461963D01*
X91508170Y-183481369D01*
X91497134Y-183499782D01*
X91484346Y-183517025D01*
X91469930Y-183532931D01*
X91454024Y-183547347D01*
X91436781Y-183560135D01*
X91418368Y-183571171D01*
X91398962Y-183580350D01*
X91378750Y-183587582D01*
X91357926Y-183592798D01*
X91336691Y-183595948D01*
X91315250Y-183597001D01*
X90802750Y-183597001D01*
X90781309Y-183595948D01*
X90760074Y-183592798D01*
X90739250Y-183587582D01*
X90719038Y-183580350D01*
X90699632Y-183571171D01*
X90681219Y-183560135D01*
X90663976Y-183547347D01*
X90648070Y-183532931D01*
X90633654Y-183517025D01*
X90620866Y-183499782D01*
X90609830Y-183481369D01*
X90600651Y-183461963D01*
X90593419Y-183441751D01*
X90588203Y-183420927D01*
X90585053Y-183399692D01*
X90584000Y-183378251D01*
X90584000Y-182940751D01*
X90585053Y-182919310D01*
X90588203Y-182898075D01*
X90593419Y-182877251D01*
X90600651Y-182857039D01*
X90609830Y-182837633D01*
X90620866Y-182819220D01*
X90633654Y-182801977D01*
X90648070Y-182786071D01*
X90663976Y-182771655D01*
X90681219Y-182758867D01*
X90699632Y-182747831D01*
X90719038Y-182738652D01*
X90739250Y-182731420D01*
X90760074Y-182726204D01*
X90781309Y-182723054D01*
X90802750Y-182722001D01*
X91315250Y-182722001D01*
X91336691Y-182723054D01*
G37*
G36*
X145989065Y-99457426D02*
G01*
X146010363Y-99460112D01*
X146515077Y-99549107D01*
X146536009Y-99553868D01*
X146556374Y-99560657D01*
X146575976Y-99569410D01*
X146594625Y-99580042D01*
X146612143Y-99592451D01*
X146628360Y-99606517D01*
X146643120Y-99622105D01*
X146656281Y-99639064D01*
X146667716Y-99657232D01*
X146677315Y-99676433D01*
X146684987Y-99696483D01*
X146690656Y-99717188D01*
X146694268Y-99738349D01*
X146695789Y-99759762D01*
X146695204Y-99781221D01*
X146692518Y-99802520D01*
X146616546Y-100233373D01*
X146611785Y-100254306D01*
X146604996Y-100274671D01*
X146596243Y-100294272D01*
X146585611Y-100312922D01*
X146573202Y-100330439D01*
X146559136Y-100346656D01*
X146543548Y-100361416D01*
X146526588Y-100374577D01*
X146508421Y-100386012D01*
X146489219Y-100395612D01*
X146469170Y-100403283D01*
X146448465Y-100408952D01*
X146427304Y-100412564D01*
X146405891Y-100414085D01*
X146384431Y-100413500D01*
X146363133Y-100410814D01*
X145858419Y-100321819D01*
X145837487Y-100317058D01*
X145817122Y-100310269D01*
X145797520Y-100301516D01*
X145778871Y-100290884D01*
X145761353Y-100278475D01*
X145745136Y-100264409D01*
X145730376Y-100248821D01*
X145717215Y-100231862D01*
X145705780Y-100213694D01*
X145696181Y-100194493D01*
X145688509Y-100174443D01*
X145682840Y-100153738D01*
X145679228Y-100132577D01*
X145677707Y-100111164D01*
X145678292Y-100089705D01*
X145680978Y-100068406D01*
X145756950Y-99637553D01*
X145761711Y-99616620D01*
X145768500Y-99596255D01*
X145777253Y-99576654D01*
X145787885Y-99558004D01*
X145800294Y-99540487D01*
X145814360Y-99524270D01*
X145829948Y-99509510D01*
X145846908Y-99496349D01*
X145865075Y-99484914D01*
X145884277Y-99475314D01*
X145904326Y-99467643D01*
X145925031Y-99461974D01*
X145946192Y-99458362D01*
X145967605Y-99456841D01*
X145989065Y-99457426D01*
G37*
G36*
X145715569Y-101008500D02*
G01*
X145736867Y-101011186D01*
X146241581Y-101100181D01*
X146262513Y-101104942D01*
X146282878Y-101111731D01*
X146302480Y-101120484D01*
X146321129Y-101131116D01*
X146338647Y-101143525D01*
X146354864Y-101157591D01*
X146369624Y-101173179D01*
X146382785Y-101190138D01*
X146394220Y-101208306D01*
X146403819Y-101227507D01*
X146411491Y-101247557D01*
X146417160Y-101268262D01*
X146420772Y-101289423D01*
X146422293Y-101310836D01*
X146421708Y-101332295D01*
X146419022Y-101353594D01*
X146343050Y-101784447D01*
X146338289Y-101805380D01*
X146331500Y-101825745D01*
X146322747Y-101845346D01*
X146312115Y-101863996D01*
X146299706Y-101881513D01*
X146285640Y-101897730D01*
X146270052Y-101912490D01*
X146253092Y-101925651D01*
X146234925Y-101937086D01*
X146215723Y-101946686D01*
X146195674Y-101954357D01*
X146174969Y-101960026D01*
X146153808Y-101963638D01*
X146132395Y-101965159D01*
X146110935Y-101964574D01*
X146089637Y-101961888D01*
X145584923Y-101872893D01*
X145563991Y-101868132D01*
X145543626Y-101861343D01*
X145524024Y-101852590D01*
X145505375Y-101841958D01*
X145487857Y-101829549D01*
X145471640Y-101815483D01*
X145456880Y-101799895D01*
X145443719Y-101782936D01*
X145432284Y-101764768D01*
X145422685Y-101745567D01*
X145415013Y-101725517D01*
X145409344Y-101704812D01*
X145405732Y-101683651D01*
X145404211Y-101662238D01*
X145404796Y-101640779D01*
X145407482Y-101619480D01*
X145483454Y-101188627D01*
X145488215Y-101167694D01*
X145495004Y-101147329D01*
X145503757Y-101127728D01*
X145514389Y-101109078D01*
X145526798Y-101091561D01*
X145540864Y-101075344D01*
X145556452Y-101060584D01*
X145573412Y-101047423D01*
X145591579Y-101035988D01*
X145610781Y-101026388D01*
X145630830Y-101018717D01*
X145651535Y-101013048D01*
X145672696Y-101009436D01*
X145694109Y-101007915D01*
X145715569Y-101008500D01*
G37*
G36*
X133319930Y-127688524D02*
G01*
X133341129Y-127691905D01*
X133361894Y-127697348D01*
X133382027Y-127704801D01*
X133401331Y-127714190D01*
X133419623Y-127725427D01*
X133436725Y-127738402D01*
X133829323Y-128067831D01*
X133845071Y-128082420D01*
X133859313Y-128098482D01*
X133871912Y-128115863D01*
X133882747Y-128134396D01*
X133891713Y-128153901D01*
X133898724Y-128174190D01*
X133903713Y-128195070D01*
X133906631Y-128216338D01*
X133907450Y-128237789D01*
X133906163Y-128259218D01*
X133902781Y-128280417D01*
X133897339Y-128301182D01*
X133889886Y-128321315D01*
X133880497Y-128340619D01*
X133869260Y-128358911D01*
X133856285Y-128376013D01*
X133575065Y-128711158D01*
X133560476Y-128726906D01*
X133544414Y-128741148D01*
X133527033Y-128753747D01*
X133508501Y-128764582D01*
X133488996Y-128773548D01*
X133468706Y-128780559D01*
X133447826Y-128785548D01*
X133426558Y-128788466D01*
X133405107Y-128789285D01*
X133383678Y-128787998D01*
X133362479Y-128784617D01*
X133341714Y-128779174D01*
X133321581Y-128771721D01*
X133302277Y-128762332D01*
X133283985Y-128751095D01*
X133266883Y-128738120D01*
X132874285Y-128408691D01*
X132858537Y-128394102D01*
X132844295Y-128378040D01*
X132831696Y-128360659D01*
X132820861Y-128342126D01*
X132811895Y-128322621D01*
X132804884Y-128302332D01*
X132799895Y-128281452D01*
X132796977Y-128260184D01*
X132796158Y-128238733D01*
X132797445Y-128217304D01*
X132800827Y-128196105D01*
X132806269Y-128175340D01*
X132813722Y-128155207D01*
X132823111Y-128135903D01*
X132834348Y-128117611D01*
X132847323Y-128100509D01*
X133128543Y-127765364D01*
X133143132Y-127749616D01*
X133159194Y-127735374D01*
X133176575Y-127722775D01*
X133195107Y-127711940D01*
X133214612Y-127702974D01*
X133234902Y-127695963D01*
X133255782Y-127690974D01*
X133277050Y-127688056D01*
X133298501Y-127687237D01*
X133319930Y-127688524D01*
G37*
G36*
X134332322Y-126482002D02*
G01*
X134353521Y-126485383D01*
X134374286Y-126490826D01*
X134394419Y-126498279D01*
X134413723Y-126507668D01*
X134432015Y-126518905D01*
X134449117Y-126531880D01*
X134841715Y-126861309D01*
X134857463Y-126875898D01*
X134871705Y-126891960D01*
X134884304Y-126909341D01*
X134895139Y-126927874D01*
X134904105Y-126947379D01*
X134911116Y-126967668D01*
X134916105Y-126988548D01*
X134919023Y-127009816D01*
X134919842Y-127031267D01*
X134918555Y-127052696D01*
X134915173Y-127073895D01*
X134909731Y-127094660D01*
X134902278Y-127114793D01*
X134892889Y-127134097D01*
X134881652Y-127152389D01*
X134868677Y-127169491D01*
X134587457Y-127504636D01*
X134572868Y-127520384D01*
X134556806Y-127534626D01*
X134539425Y-127547225D01*
X134520893Y-127558060D01*
X134501388Y-127567026D01*
X134481098Y-127574037D01*
X134460218Y-127579026D01*
X134438950Y-127581944D01*
X134417499Y-127582763D01*
X134396070Y-127581476D01*
X134374871Y-127578095D01*
X134354106Y-127572652D01*
X134333973Y-127565199D01*
X134314669Y-127555810D01*
X134296377Y-127544573D01*
X134279275Y-127531598D01*
X133886677Y-127202169D01*
X133870929Y-127187580D01*
X133856687Y-127171518D01*
X133844088Y-127154137D01*
X133833253Y-127135604D01*
X133824287Y-127116099D01*
X133817276Y-127095810D01*
X133812287Y-127074930D01*
X133809369Y-127053662D01*
X133808550Y-127032211D01*
X133809837Y-127010782D01*
X133813219Y-126989583D01*
X133818661Y-126968818D01*
X133826114Y-126948685D01*
X133835503Y-126929381D01*
X133846740Y-126911089D01*
X133859715Y-126893987D01*
X134140935Y-126558842D01*
X134155524Y-126543094D01*
X134171586Y-126528852D01*
X134188967Y-126516253D01*
X134207499Y-126505418D01*
X134227004Y-126496452D01*
X134247294Y-126489441D01*
X134268174Y-126484452D01*
X134289442Y-126481534D01*
X134310893Y-126480715D01*
X134332322Y-126482002D01*
G37*
G36*
X123487822Y-130547174D02*
G01*
X123508900Y-130551247D01*
X123529476Y-130557366D01*
X123549354Y-130565473D01*
X123568341Y-130575489D01*
X123586255Y-130587318D01*
X123602923Y-130600846D01*
X123618185Y-130615943D01*
X123631894Y-130632462D01*
X123643918Y-130650246D01*
X123654141Y-130669123D01*
X123662464Y-130688911D01*
X123837749Y-131170503D01*
X123844092Y-131191012D01*
X123848395Y-131212043D01*
X123850616Y-131233395D01*
X123850733Y-131254862D01*
X123848745Y-131276237D01*
X123844672Y-131297314D01*
X123838553Y-131317890D01*
X123830446Y-131337768D01*
X123820430Y-131356755D01*
X123808601Y-131374669D01*
X123795073Y-131391337D01*
X123779976Y-131406599D01*
X123763457Y-131420308D01*
X123745673Y-131432332D01*
X123726796Y-131442555D01*
X123707008Y-131450878D01*
X123295893Y-131600512D01*
X123275385Y-131606855D01*
X123254353Y-131611158D01*
X123233001Y-131613379D01*
X123211534Y-131613496D01*
X123190160Y-131611508D01*
X123169082Y-131607435D01*
X123148506Y-131601316D01*
X123128628Y-131593209D01*
X123109641Y-131583193D01*
X123091727Y-131571364D01*
X123075059Y-131557836D01*
X123059797Y-131542739D01*
X123046088Y-131526220D01*
X123034064Y-131508436D01*
X123023841Y-131489559D01*
X123015518Y-131469771D01*
X122840233Y-130988179D01*
X122833890Y-130967670D01*
X122829587Y-130946639D01*
X122827366Y-130925287D01*
X122827249Y-130903820D01*
X122829237Y-130882445D01*
X122833310Y-130861368D01*
X122839429Y-130840792D01*
X122847536Y-130820914D01*
X122857552Y-130801927D01*
X122869381Y-130784013D01*
X122882909Y-130767345D01*
X122898006Y-130752083D01*
X122914525Y-130738374D01*
X122932309Y-130726350D01*
X122951186Y-130716127D01*
X122970974Y-130707804D01*
X123382089Y-130558170D01*
X123402597Y-130551827D01*
X123423629Y-130547524D01*
X123444981Y-130545303D01*
X123466448Y-130545186D01*
X123487822Y-130547174D01*
G37*
G36*
X124967840Y-130008492D02*
G01*
X124988918Y-130012565D01*
X125009494Y-130018684D01*
X125029372Y-130026791D01*
X125048359Y-130036807D01*
X125066273Y-130048636D01*
X125082941Y-130062164D01*
X125098203Y-130077261D01*
X125111912Y-130093780D01*
X125123936Y-130111564D01*
X125134159Y-130130441D01*
X125142482Y-130150229D01*
X125317767Y-130631821D01*
X125324110Y-130652330D01*
X125328413Y-130673361D01*
X125330634Y-130694713D01*
X125330751Y-130716180D01*
X125328763Y-130737555D01*
X125324690Y-130758632D01*
X125318571Y-130779208D01*
X125310464Y-130799086D01*
X125300448Y-130818073D01*
X125288619Y-130835987D01*
X125275091Y-130852655D01*
X125259994Y-130867917D01*
X125243475Y-130881626D01*
X125225691Y-130893650D01*
X125206814Y-130903873D01*
X125187026Y-130912196D01*
X124775911Y-131061830D01*
X124755403Y-131068173D01*
X124734371Y-131072476D01*
X124713019Y-131074697D01*
X124691552Y-131074814D01*
X124670178Y-131072826D01*
X124649100Y-131068753D01*
X124628524Y-131062634D01*
X124608646Y-131054527D01*
X124589659Y-131044511D01*
X124571745Y-131032682D01*
X124555077Y-131019154D01*
X124539815Y-131004057D01*
X124526106Y-130987538D01*
X124514082Y-130969754D01*
X124503859Y-130950877D01*
X124495536Y-130931089D01*
X124320251Y-130449497D01*
X124313908Y-130428988D01*
X124309605Y-130407957D01*
X124307384Y-130386605D01*
X124307267Y-130365138D01*
X124309255Y-130343763D01*
X124313328Y-130322686D01*
X124319447Y-130302110D01*
X124327554Y-130282232D01*
X124337570Y-130263245D01*
X124349399Y-130245331D01*
X124362927Y-130228663D01*
X124378024Y-130213401D01*
X124394543Y-130199692D01*
X124412327Y-130187668D01*
X124431204Y-130177445D01*
X124450992Y-130169122D01*
X124862107Y-130019488D01*
X124882615Y-130013145D01*
X124903647Y-130008842D01*
X124924999Y-130006621D01*
X124946466Y-130006504D01*
X124967840Y-130008492D01*
G37*
G36*
X122471771Y-117253580D02*
G01*
X122493006Y-117256730D01*
X122513830Y-117261946D01*
X122534042Y-117269178D01*
X122553448Y-117278357D01*
X122571861Y-117289393D01*
X122589104Y-117302181D01*
X122605010Y-117316597D01*
X122967403Y-117678990D01*
X122981819Y-117694896D01*
X122994607Y-117712139D01*
X123005643Y-117730552D01*
X123014822Y-117749958D01*
X123022054Y-117770170D01*
X123027270Y-117790994D01*
X123030420Y-117812229D01*
X123031473Y-117833670D01*
X123030420Y-117855111D01*
X123027270Y-117876346D01*
X123022054Y-117897170D01*
X123014822Y-117917382D01*
X123005643Y-117936788D01*
X122994607Y-117955201D01*
X122981819Y-117972444D01*
X122967403Y-117988350D01*
X122658044Y-118297709D01*
X122642138Y-118312125D01*
X122624895Y-118324913D01*
X122606482Y-118335949D01*
X122587076Y-118345128D01*
X122566864Y-118352360D01*
X122546040Y-118357576D01*
X122524805Y-118360726D01*
X122503364Y-118361779D01*
X122481923Y-118360726D01*
X122460688Y-118357576D01*
X122439864Y-118352360D01*
X122419652Y-118345128D01*
X122400246Y-118335949D01*
X122381833Y-118324913D01*
X122364590Y-118312125D01*
X122348684Y-118297709D01*
X121986291Y-117935316D01*
X121971875Y-117919410D01*
X121959087Y-117902167D01*
X121948051Y-117883754D01*
X121938872Y-117864348D01*
X121931640Y-117844136D01*
X121926424Y-117823312D01*
X121923274Y-117802077D01*
X121922221Y-117780636D01*
X121923274Y-117759195D01*
X121926424Y-117737960D01*
X121931640Y-117717136D01*
X121938872Y-117696924D01*
X121948051Y-117677518D01*
X121959087Y-117659105D01*
X121971875Y-117641862D01*
X121986291Y-117625956D01*
X122295650Y-117316597D01*
X122311556Y-117302181D01*
X122328799Y-117289393D01*
X122347212Y-117278357D01*
X122366618Y-117269178D01*
X122386830Y-117261946D01*
X122407654Y-117256730D01*
X122428889Y-117253580D01*
X122450330Y-117252527D01*
X122471771Y-117253580D01*
G37*
G36*
X121358077Y-118367274D02*
G01*
X121379312Y-118370424D01*
X121400136Y-118375640D01*
X121420348Y-118382872D01*
X121439754Y-118392051D01*
X121458167Y-118403087D01*
X121475410Y-118415875D01*
X121491316Y-118430291D01*
X121853709Y-118792684D01*
X121868125Y-118808590D01*
X121880913Y-118825833D01*
X121891949Y-118844246D01*
X121901128Y-118863652D01*
X121908360Y-118883864D01*
X121913576Y-118904688D01*
X121916726Y-118925923D01*
X121917779Y-118947364D01*
X121916726Y-118968805D01*
X121913576Y-118990040D01*
X121908360Y-119010864D01*
X121901128Y-119031076D01*
X121891949Y-119050482D01*
X121880913Y-119068895D01*
X121868125Y-119086138D01*
X121853709Y-119102044D01*
X121544350Y-119411403D01*
X121528444Y-119425819D01*
X121511201Y-119438607D01*
X121492788Y-119449643D01*
X121473382Y-119458822D01*
X121453170Y-119466054D01*
X121432346Y-119471270D01*
X121411111Y-119474420D01*
X121389670Y-119475473D01*
X121368229Y-119474420D01*
X121346994Y-119471270D01*
X121326170Y-119466054D01*
X121305958Y-119458822D01*
X121286552Y-119449643D01*
X121268139Y-119438607D01*
X121250896Y-119425819D01*
X121234990Y-119411403D01*
X120872597Y-119049010D01*
X120858181Y-119033104D01*
X120845393Y-119015861D01*
X120834357Y-118997448D01*
X120825178Y-118978042D01*
X120817946Y-118957830D01*
X120812730Y-118937006D01*
X120809580Y-118915771D01*
X120808527Y-118894330D01*
X120809580Y-118872889D01*
X120812730Y-118851654D01*
X120817946Y-118830830D01*
X120825178Y-118810618D01*
X120834357Y-118791212D01*
X120845393Y-118772799D01*
X120858181Y-118755556D01*
X120872597Y-118739650D01*
X121181956Y-118430291D01*
X121197862Y-118415875D01*
X121215105Y-118403087D01*
X121233518Y-118392051D01*
X121252924Y-118382872D01*
X121273136Y-118375640D01*
X121293960Y-118370424D01*
X121315195Y-118367274D01*
X121336636Y-118366221D01*
X121358077Y-118367274D01*
G37*
G36*
X108989691Y-139111052D02*
G01*
X109010926Y-139114202D01*
X109031750Y-139119418D01*
X109051962Y-139126650D01*
X109071368Y-139135829D01*
X109089781Y-139146865D01*
X109107024Y-139159653D01*
X109122930Y-139174069D01*
X109137346Y-139189975D01*
X109150134Y-139207218D01*
X109161170Y-139225631D01*
X109170349Y-139245037D01*
X109177581Y-139265249D01*
X109182797Y-139286073D01*
X109185947Y-139307308D01*
X109187000Y-139328749D01*
X109187000Y-139766249D01*
X109185947Y-139787690D01*
X109182797Y-139808925D01*
X109177581Y-139829749D01*
X109170349Y-139849961D01*
X109161170Y-139869367D01*
X109150134Y-139887780D01*
X109137346Y-139905023D01*
X109122930Y-139920929D01*
X109107024Y-139935345D01*
X109089781Y-139948133D01*
X109071368Y-139959169D01*
X109051962Y-139968348D01*
X109031750Y-139975580D01*
X109010926Y-139980796D01*
X108989691Y-139983946D01*
X108968250Y-139984999D01*
X108455750Y-139984999D01*
X108434309Y-139983946D01*
X108413074Y-139980796D01*
X108392250Y-139975580D01*
X108372038Y-139968348D01*
X108352632Y-139959169D01*
X108334219Y-139948133D01*
X108316976Y-139935345D01*
X108301070Y-139920929D01*
X108286654Y-139905023D01*
X108273866Y-139887780D01*
X108262830Y-139869367D01*
X108253651Y-139849961D01*
X108246419Y-139829749D01*
X108241203Y-139808925D01*
X108238053Y-139787690D01*
X108237000Y-139766249D01*
X108237000Y-139328749D01*
X108238053Y-139307308D01*
X108241203Y-139286073D01*
X108246419Y-139265249D01*
X108253651Y-139245037D01*
X108262830Y-139225631D01*
X108273866Y-139207218D01*
X108286654Y-139189975D01*
X108301070Y-139174069D01*
X108316976Y-139159653D01*
X108334219Y-139146865D01*
X108352632Y-139135829D01*
X108372038Y-139126650D01*
X108392250Y-139119418D01*
X108413074Y-139114202D01*
X108434309Y-139111052D01*
X108455750Y-139109999D01*
X108968250Y-139109999D01*
X108989691Y-139111052D01*
G37*
G36*
X108989691Y-140686054D02*
G01*
X109010926Y-140689204D01*
X109031750Y-140694420D01*
X109051962Y-140701652D01*
X109071368Y-140710831D01*
X109089781Y-140721867D01*
X109107024Y-140734655D01*
X109122930Y-140749071D01*
X109137346Y-140764977D01*
X109150134Y-140782220D01*
X109161170Y-140800633D01*
X109170349Y-140820039D01*
X109177581Y-140840251D01*
X109182797Y-140861075D01*
X109185947Y-140882310D01*
X109187000Y-140903751D01*
X109187000Y-141341251D01*
X109185947Y-141362692D01*
X109182797Y-141383927D01*
X109177581Y-141404751D01*
X109170349Y-141424963D01*
X109161170Y-141444369D01*
X109150134Y-141462782D01*
X109137346Y-141480025D01*
X109122930Y-141495931D01*
X109107024Y-141510347D01*
X109089781Y-141523135D01*
X109071368Y-141534171D01*
X109051962Y-141543350D01*
X109031750Y-141550582D01*
X109010926Y-141555798D01*
X108989691Y-141558948D01*
X108968250Y-141560001D01*
X108455750Y-141560001D01*
X108434309Y-141558948D01*
X108413074Y-141555798D01*
X108392250Y-141550582D01*
X108372038Y-141543350D01*
X108352632Y-141534171D01*
X108334219Y-141523135D01*
X108316976Y-141510347D01*
X108301070Y-141495931D01*
X108286654Y-141480025D01*
X108273866Y-141462782D01*
X108262830Y-141444369D01*
X108253651Y-141424963D01*
X108246419Y-141404751D01*
X108241203Y-141383927D01*
X108238053Y-141362692D01*
X108237000Y-141341251D01*
X108237000Y-140903751D01*
X108238053Y-140882310D01*
X108241203Y-140861075D01*
X108246419Y-140840251D01*
X108253651Y-140820039D01*
X108262830Y-140800633D01*
X108273866Y-140782220D01*
X108286654Y-140764977D01*
X108301070Y-140749071D01*
X108316976Y-140734655D01*
X108334219Y-140721867D01*
X108352632Y-140710831D01*
X108372038Y-140701652D01*
X108392250Y-140694420D01*
X108413074Y-140689204D01*
X108434309Y-140686054D01*
X108455750Y-140685001D01*
X108968250Y-140685001D01*
X108989691Y-140686054D01*
G37*
G36*
X131560287Y-92474367D02*
G01*
X131581639Y-92476588D01*
X131602671Y-92480891D01*
X131623179Y-92487234D01*
X132104771Y-92662519D01*
X132124559Y-92670842D01*
X132143436Y-92681065D01*
X132161220Y-92693089D01*
X132177739Y-92706798D01*
X132192836Y-92722060D01*
X132206364Y-92738728D01*
X132218193Y-92756642D01*
X132228209Y-92775629D01*
X132236316Y-92795507D01*
X132242435Y-92816083D01*
X132246508Y-92837160D01*
X132248496Y-92858535D01*
X132248379Y-92880002D01*
X132246158Y-92901354D01*
X132241855Y-92922385D01*
X132235512Y-92942894D01*
X132085878Y-93354009D01*
X132077555Y-93373797D01*
X132067332Y-93392674D01*
X132055308Y-93410458D01*
X132041599Y-93426977D01*
X132026337Y-93442074D01*
X132009669Y-93455602D01*
X131991755Y-93467431D01*
X131972768Y-93477447D01*
X131952890Y-93485554D01*
X131932314Y-93491673D01*
X131911236Y-93495746D01*
X131889862Y-93497734D01*
X131868395Y-93497617D01*
X131847043Y-93495396D01*
X131826011Y-93491093D01*
X131805503Y-93484750D01*
X131323911Y-93309465D01*
X131304123Y-93301142D01*
X131285246Y-93290919D01*
X131267462Y-93278895D01*
X131250943Y-93265186D01*
X131235846Y-93249924D01*
X131222318Y-93233256D01*
X131210489Y-93215342D01*
X131200473Y-93196355D01*
X131192366Y-93176477D01*
X131186247Y-93155901D01*
X131182174Y-93134824D01*
X131180186Y-93113449D01*
X131180303Y-93091982D01*
X131182524Y-93070630D01*
X131186827Y-93049599D01*
X131193170Y-93029090D01*
X131342804Y-92617975D01*
X131351127Y-92598187D01*
X131361350Y-92579310D01*
X131373374Y-92561526D01*
X131387083Y-92545007D01*
X131402345Y-92529910D01*
X131419013Y-92516382D01*
X131436927Y-92504553D01*
X131455914Y-92494537D01*
X131475792Y-92486430D01*
X131496368Y-92480311D01*
X131517446Y-92476238D01*
X131538820Y-92474250D01*
X131560287Y-92474367D01*
G37*
G36*
X131021605Y-93954383D02*
G01*
X131042957Y-93956604D01*
X131063989Y-93960907D01*
X131084497Y-93967250D01*
X131566089Y-94142535D01*
X131585877Y-94150858D01*
X131604754Y-94161081D01*
X131622538Y-94173105D01*
X131639057Y-94186814D01*
X131654154Y-94202076D01*
X131667682Y-94218744D01*
X131679511Y-94236658D01*
X131689527Y-94255645D01*
X131697634Y-94275523D01*
X131703753Y-94296099D01*
X131707826Y-94317176D01*
X131709814Y-94338551D01*
X131709697Y-94360018D01*
X131707476Y-94381370D01*
X131703173Y-94402401D01*
X131696830Y-94422910D01*
X131547196Y-94834025D01*
X131538873Y-94853813D01*
X131528650Y-94872690D01*
X131516626Y-94890474D01*
X131502917Y-94906993D01*
X131487655Y-94922090D01*
X131470987Y-94935618D01*
X131453073Y-94947447D01*
X131434086Y-94957463D01*
X131414208Y-94965570D01*
X131393632Y-94971689D01*
X131372554Y-94975762D01*
X131351180Y-94977750D01*
X131329713Y-94977633D01*
X131308361Y-94975412D01*
X131287329Y-94971109D01*
X131266821Y-94964766D01*
X130785229Y-94789481D01*
X130765441Y-94781158D01*
X130746564Y-94770935D01*
X130728780Y-94758911D01*
X130712261Y-94745202D01*
X130697164Y-94729940D01*
X130683636Y-94713272D01*
X130671807Y-94695358D01*
X130661791Y-94676371D01*
X130653684Y-94656493D01*
X130647565Y-94635917D01*
X130643492Y-94614840D01*
X130641504Y-94593465D01*
X130641621Y-94571998D01*
X130643842Y-94550646D01*
X130648145Y-94529615D01*
X130654488Y-94509106D01*
X130804122Y-94097991D01*
X130812445Y-94078203D01*
X130822668Y-94059326D01*
X130834692Y-94041542D01*
X130848401Y-94025023D01*
X130863663Y-94009926D01*
X130880331Y-93996398D01*
X130898245Y-93984569D01*
X130917232Y-93974553D01*
X130937110Y-93966446D01*
X130957686Y-93960327D01*
X130978764Y-93956254D01*
X131000138Y-93954266D01*
X131021605Y-93954383D01*
G37*
G36*
X106354760Y-108765557D02*
G01*
X106375880Y-108769400D01*
X106396522Y-108775295D01*
X106416487Y-108783185D01*
X106435582Y-108792993D01*
X106879420Y-109049243D01*
X106897462Y-109060876D01*
X106914277Y-109074221D01*
X106929703Y-109089150D01*
X106943591Y-109105519D01*
X106955808Y-109123171D01*
X106966236Y-109141935D01*
X106974774Y-109161631D01*
X106981341Y-109182069D01*
X106985873Y-109203053D01*
X106988327Y-109224379D01*
X106988678Y-109245843D01*
X106986924Y-109267239D01*
X106983081Y-109288359D01*
X106977186Y-109309001D01*
X106969296Y-109328966D01*
X106959488Y-109348061D01*
X106740738Y-109726947D01*
X106729105Y-109744989D01*
X106715760Y-109761804D01*
X106700831Y-109777230D01*
X106684462Y-109791118D01*
X106666810Y-109803335D01*
X106648046Y-109813763D01*
X106628350Y-109822301D01*
X106607912Y-109828868D01*
X106586928Y-109833400D01*
X106565602Y-109835854D01*
X106544138Y-109836205D01*
X106522742Y-109834451D01*
X106501622Y-109830608D01*
X106480980Y-109824713D01*
X106461015Y-109816823D01*
X106441920Y-109807015D01*
X105998082Y-109550765D01*
X105980040Y-109539132D01*
X105963225Y-109525787D01*
X105947799Y-109510858D01*
X105933911Y-109494489D01*
X105921694Y-109476837D01*
X105911266Y-109458073D01*
X105902728Y-109438377D01*
X105896161Y-109417939D01*
X105891629Y-109396955D01*
X105889175Y-109375629D01*
X105888824Y-109354165D01*
X105890578Y-109332769D01*
X105894421Y-109311649D01*
X105900316Y-109291007D01*
X105908206Y-109271042D01*
X105918014Y-109251947D01*
X106136764Y-108873061D01*
X106148397Y-108855019D01*
X106161742Y-108838204D01*
X106176671Y-108822778D01*
X106193040Y-108808890D01*
X106210692Y-108796673D01*
X106229456Y-108786245D01*
X106249152Y-108777707D01*
X106269590Y-108771140D01*
X106290574Y-108766608D01*
X106311900Y-108764154D01*
X106333364Y-108763803D01*
X106354760Y-108765557D01*
G37*
G36*
X105567258Y-110129549D02*
G01*
X105588378Y-110133392D01*
X105609020Y-110139287D01*
X105628985Y-110147177D01*
X105648080Y-110156985D01*
X106091918Y-110413235D01*
X106109960Y-110424868D01*
X106126775Y-110438213D01*
X106142201Y-110453142D01*
X106156089Y-110469511D01*
X106168306Y-110487163D01*
X106178734Y-110505927D01*
X106187272Y-110525623D01*
X106193839Y-110546061D01*
X106198371Y-110567045D01*
X106200825Y-110588371D01*
X106201176Y-110609835D01*
X106199422Y-110631231D01*
X106195579Y-110652351D01*
X106189684Y-110672993D01*
X106181794Y-110692958D01*
X106171986Y-110712053D01*
X105953236Y-111090939D01*
X105941603Y-111108981D01*
X105928258Y-111125796D01*
X105913329Y-111141222D01*
X105896960Y-111155110D01*
X105879308Y-111167327D01*
X105860544Y-111177755D01*
X105840848Y-111186293D01*
X105820410Y-111192860D01*
X105799426Y-111197392D01*
X105778100Y-111199846D01*
X105756636Y-111200197D01*
X105735240Y-111198443D01*
X105714120Y-111194600D01*
X105693478Y-111188705D01*
X105673513Y-111180815D01*
X105654418Y-111171007D01*
X105210580Y-110914757D01*
X105192538Y-110903124D01*
X105175723Y-110889779D01*
X105160297Y-110874850D01*
X105146409Y-110858481D01*
X105134192Y-110840829D01*
X105123764Y-110822065D01*
X105115226Y-110802369D01*
X105108659Y-110781931D01*
X105104127Y-110760947D01*
X105101673Y-110739621D01*
X105101322Y-110718157D01*
X105103076Y-110696761D01*
X105106919Y-110675641D01*
X105112814Y-110654999D01*
X105120704Y-110635034D01*
X105130512Y-110615939D01*
X105349262Y-110237053D01*
X105360895Y-110219011D01*
X105374240Y-110202196D01*
X105389169Y-110186770D01*
X105405538Y-110172882D01*
X105423190Y-110160665D01*
X105441954Y-110150237D01*
X105461650Y-110141699D01*
X105482088Y-110135132D01*
X105503072Y-110130600D01*
X105524398Y-110128146D01*
X105545862Y-110127795D01*
X105567258Y-110129549D01*
G37*
G36*
X141466287Y-91966367D02*
G01*
X141487639Y-91968588D01*
X141508671Y-91972891D01*
X141529179Y-91979234D01*
X142010771Y-92154519D01*
X142030559Y-92162842D01*
X142049436Y-92173065D01*
X142067220Y-92185089D01*
X142083739Y-92198798D01*
X142098836Y-92214060D01*
X142112364Y-92230728D01*
X142124193Y-92248642D01*
X142134209Y-92267629D01*
X142142316Y-92287507D01*
X142148435Y-92308083D01*
X142152508Y-92329160D01*
X142154496Y-92350535D01*
X142154379Y-92372002D01*
X142152158Y-92393354D01*
X142147855Y-92414385D01*
X142141512Y-92434894D01*
X141991878Y-92846009D01*
X141983555Y-92865797D01*
X141973332Y-92884674D01*
X141961308Y-92902458D01*
X141947599Y-92918977D01*
X141932337Y-92934074D01*
X141915669Y-92947602D01*
X141897755Y-92959431D01*
X141878768Y-92969447D01*
X141858890Y-92977554D01*
X141838314Y-92983673D01*
X141817236Y-92987746D01*
X141795862Y-92989734D01*
X141774395Y-92989617D01*
X141753043Y-92987396D01*
X141732011Y-92983093D01*
X141711503Y-92976750D01*
X141229911Y-92801465D01*
X141210123Y-92793142D01*
X141191246Y-92782919D01*
X141173462Y-92770895D01*
X141156943Y-92757186D01*
X141141846Y-92741924D01*
X141128318Y-92725256D01*
X141116489Y-92707342D01*
X141106473Y-92688355D01*
X141098366Y-92668477D01*
X141092247Y-92647901D01*
X141088174Y-92626824D01*
X141086186Y-92605449D01*
X141086303Y-92583982D01*
X141088524Y-92562630D01*
X141092827Y-92541599D01*
X141099170Y-92521090D01*
X141248804Y-92109975D01*
X141257127Y-92090187D01*
X141267350Y-92071310D01*
X141279374Y-92053526D01*
X141293083Y-92037007D01*
X141308345Y-92021910D01*
X141325013Y-92008382D01*
X141342927Y-91996553D01*
X141361914Y-91986537D01*
X141381792Y-91978430D01*
X141402368Y-91972311D01*
X141423446Y-91968238D01*
X141444820Y-91966250D01*
X141466287Y-91966367D01*
G37*
G36*
X140927605Y-93446383D02*
G01*
X140948957Y-93448604D01*
X140969989Y-93452907D01*
X140990497Y-93459250D01*
X141472089Y-93634535D01*
X141491877Y-93642858D01*
X141510754Y-93653081D01*
X141528538Y-93665105D01*
X141545057Y-93678814D01*
X141560154Y-93694076D01*
X141573682Y-93710744D01*
X141585511Y-93728658D01*
X141595527Y-93747645D01*
X141603634Y-93767523D01*
X141609753Y-93788099D01*
X141613826Y-93809176D01*
X141615814Y-93830551D01*
X141615697Y-93852018D01*
X141613476Y-93873370D01*
X141609173Y-93894401D01*
X141602830Y-93914910D01*
X141453196Y-94326025D01*
X141444873Y-94345813D01*
X141434650Y-94364690D01*
X141422626Y-94382474D01*
X141408917Y-94398993D01*
X141393655Y-94414090D01*
X141376987Y-94427618D01*
X141359073Y-94439447D01*
X141340086Y-94449463D01*
X141320208Y-94457570D01*
X141299632Y-94463689D01*
X141278554Y-94467762D01*
X141257180Y-94469750D01*
X141235713Y-94469633D01*
X141214361Y-94467412D01*
X141193329Y-94463109D01*
X141172821Y-94456766D01*
X140691229Y-94281481D01*
X140671441Y-94273158D01*
X140652564Y-94262935D01*
X140634780Y-94250911D01*
X140618261Y-94237202D01*
X140603164Y-94221940D01*
X140589636Y-94205272D01*
X140577807Y-94187358D01*
X140567791Y-94168371D01*
X140559684Y-94148493D01*
X140553565Y-94127917D01*
X140549492Y-94106840D01*
X140547504Y-94085465D01*
X140547621Y-94063998D01*
X140549842Y-94042646D01*
X140554145Y-94021615D01*
X140560488Y-94001106D01*
X140710122Y-93589991D01*
X140718445Y-93570203D01*
X140728668Y-93551326D01*
X140740692Y-93533542D01*
X140754401Y-93517023D01*
X140769663Y-93501926D01*
X140786331Y-93488398D01*
X140804245Y-93476569D01*
X140823232Y-93466553D01*
X140843110Y-93458446D01*
X140863686Y-93452327D01*
X140884764Y-93448254D01*
X140906138Y-93446266D01*
X140927605Y-93446383D01*
G37*
G36*
X104712390Y-126011795D02*
G01*
X104733589Y-126015177D01*
X104754355Y-126020619D01*
X104774487Y-126028072D01*
X104793791Y-126037461D01*
X104812083Y-126048698D01*
X104829185Y-126061673D01*
X104844933Y-126076262D01*
X104859175Y-126092324D01*
X104871774Y-126109705D01*
X104882609Y-126128238D01*
X104891575Y-126147743D01*
X104898586Y-126168033D01*
X104903575Y-126188912D01*
X104906493Y-126210180D01*
X104944623Y-126646015D01*
X104945442Y-126667466D01*
X104944155Y-126688895D01*
X104940773Y-126710094D01*
X104935330Y-126730860D01*
X104927878Y-126750992D01*
X104918489Y-126770297D01*
X104907252Y-126788588D01*
X104894277Y-126805690D01*
X104879688Y-126821438D01*
X104863626Y-126835680D01*
X104846244Y-126848279D01*
X104827712Y-126859114D01*
X104808207Y-126868080D01*
X104787917Y-126875091D01*
X104767038Y-126880080D01*
X104745770Y-126882998D01*
X104235220Y-126927665D01*
X104213769Y-126928484D01*
X104192340Y-126927197D01*
X104171141Y-126923815D01*
X104150375Y-126918373D01*
X104130243Y-126910920D01*
X104110939Y-126901531D01*
X104092647Y-126890294D01*
X104075545Y-126877319D01*
X104059797Y-126862730D01*
X104045555Y-126846668D01*
X104032956Y-126829287D01*
X104022121Y-126810754D01*
X104013155Y-126791249D01*
X104006144Y-126770959D01*
X104001155Y-126750080D01*
X103998237Y-126728812D01*
X103960107Y-126292977D01*
X103959288Y-126271526D01*
X103960575Y-126250097D01*
X103963957Y-126228898D01*
X103969400Y-126208132D01*
X103976852Y-126188000D01*
X103986241Y-126168695D01*
X103997478Y-126150404D01*
X104010453Y-126133302D01*
X104025042Y-126117554D01*
X104041104Y-126103312D01*
X104058486Y-126090713D01*
X104077018Y-126079878D01*
X104096523Y-126070912D01*
X104116813Y-126063901D01*
X104137692Y-126058912D01*
X104158960Y-126055994D01*
X104669510Y-126011327D01*
X104690961Y-126010508D01*
X104712390Y-126011795D01*
G37*
G36*
X104849660Y-127580803D02*
G01*
X104870859Y-127584185D01*
X104891625Y-127589627D01*
X104911757Y-127597080D01*
X104931061Y-127606469D01*
X104949353Y-127617706D01*
X104966455Y-127630681D01*
X104982203Y-127645270D01*
X104996445Y-127661332D01*
X105009044Y-127678713D01*
X105019879Y-127697246D01*
X105028845Y-127716751D01*
X105035856Y-127737041D01*
X105040845Y-127757920D01*
X105043763Y-127779188D01*
X105081893Y-128215023D01*
X105082712Y-128236474D01*
X105081425Y-128257903D01*
X105078043Y-128279102D01*
X105072600Y-128299868D01*
X105065148Y-128320000D01*
X105055759Y-128339305D01*
X105044522Y-128357596D01*
X105031547Y-128374698D01*
X105016958Y-128390446D01*
X105000896Y-128404688D01*
X104983514Y-128417287D01*
X104964982Y-128428122D01*
X104945477Y-128437088D01*
X104925187Y-128444099D01*
X104904308Y-128449088D01*
X104883040Y-128452006D01*
X104372490Y-128496673D01*
X104351039Y-128497492D01*
X104329610Y-128496205D01*
X104308411Y-128492823D01*
X104287645Y-128487381D01*
X104267513Y-128479928D01*
X104248209Y-128470539D01*
X104229917Y-128459302D01*
X104212815Y-128446327D01*
X104197067Y-128431738D01*
X104182825Y-128415676D01*
X104170226Y-128398295D01*
X104159391Y-128379762D01*
X104150425Y-128360257D01*
X104143414Y-128339967D01*
X104138425Y-128319088D01*
X104135507Y-128297820D01*
X104097377Y-127861985D01*
X104096558Y-127840534D01*
X104097845Y-127819105D01*
X104101227Y-127797906D01*
X104106670Y-127777140D01*
X104114122Y-127757008D01*
X104123511Y-127737703D01*
X104134748Y-127719412D01*
X104147723Y-127702310D01*
X104162312Y-127686562D01*
X104178374Y-127672320D01*
X104195756Y-127659721D01*
X104214288Y-127648886D01*
X104233793Y-127639920D01*
X104254083Y-127632909D01*
X104274962Y-127627920D01*
X104296230Y-127625002D01*
X104806780Y-127580335D01*
X104828231Y-127579516D01*
X104849660Y-127580803D01*
G37*
G36*
X152122808Y-72407363D02*
G01*
X152143969Y-72410975D01*
X152164674Y-72416644D01*
X152184724Y-72424316D01*
X152203925Y-72433915D01*
X152222093Y-72445350D01*
X152239052Y-72458511D01*
X152254640Y-72473271D01*
X152268706Y-72489488D01*
X152281115Y-72507006D01*
X152291747Y-72525655D01*
X152300500Y-72545257D01*
X152307289Y-72565622D01*
X152312050Y-72586554D01*
X152388022Y-73017407D01*
X152390708Y-73038705D01*
X152391293Y-73060165D01*
X152389772Y-73081578D01*
X152386160Y-73102739D01*
X152380491Y-73123444D01*
X152372820Y-73143493D01*
X152363220Y-73162695D01*
X152351785Y-73180862D01*
X152338624Y-73197822D01*
X152323864Y-73213410D01*
X152307647Y-73227476D01*
X152290130Y-73239885D01*
X152271480Y-73250517D01*
X152251879Y-73259270D01*
X152231514Y-73266059D01*
X152210581Y-73270820D01*
X151705867Y-73359815D01*
X151684568Y-73362501D01*
X151663109Y-73363086D01*
X151641696Y-73361565D01*
X151620535Y-73357953D01*
X151599830Y-73352284D01*
X151579780Y-73344612D01*
X151560579Y-73335013D01*
X151542411Y-73323578D01*
X151525452Y-73310417D01*
X151509864Y-73295657D01*
X151495798Y-73279440D01*
X151483389Y-73261922D01*
X151472757Y-73243273D01*
X151464004Y-73223671D01*
X151457215Y-73203306D01*
X151452454Y-73182374D01*
X151376482Y-72751521D01*
X151373796Y-72730223D01*
X151373211Y-72708763D01*
X151374732Y-72687350D01*
X151378344Y-72666189D01*
X151384013Y-72645484D01*
X151391684Y-72625435D01*
X151401284Y-72606233D01*
X151412719Y-72588066D01*
X151425880Y-72571106D01*
X151440640Y-72555518D01*
X151456857Y-72541452D01*
X151474374Y-72529043D01*
X151493024Y-72518411D01*
X151512625Y-72509658D01*
X151532990Y-72502869D01*
X151553923Y-72498108D01*
X152058637Y-72409113D01*
X152079936Y-72406427D01*
X152101395Y-72405842D01*
X152122808Y-72407363D01*
G37*
G36*
X152396304Y-73958435D02*
G01*
X152417465Y-73962047D01*
X152438170Y-73967716D01*
X152458220Y-73975388D01*
X152477421Y-73984987D01*
X152495589Y-73996422D01*
X152512548Y-74009583D01*
X152528136Y-74024343D01*
X152542202Y-74040560D01*
X152554611Y-74058078D01*
X152565243Y-74076727D01*
X152573996Y-74096329D01*
X152580785Y-74116694D01*
X152585546Y-74137626D01*
X152661518Y-74568479D01*
X152664204Y-74589777D01*
X152664789Y-74611237D01*
X152663268Y-74632650D01*
X152659656Y-74653811D01*
X152653987Y-74674516D01*
X152646316Y-74694565D01*
X152636716Y-74713767D01*
X152625281Y-74731934D01*
X152612120Y-74748894D01*
X152597360Y-74764482D01*
X152581143Y-74778548D01*
X152563626Y-74790957D01*
X152544976Y-74801589D01*
X152525375Y-74810342D01*
X152505010Y-74817131D01*
X152484077Y-74821892D01*
X151979363Y-74910887D01*
X151958064Y-74913573D01*
X151936605Y-74914158D01*
X151915192Y-74912637D01*
X151894031Y-74909025D01*
X151873326Y-74903356D01*
X151853276Y-74895684D01*
X151834075Y-74886085D01*
X151815907Y-74874650D01*
X151798948Y-74861489D01*
X151783360Y-74846729D01*
X151769294Y-74830512D01*
X151756885Y-74812994D01*
X151746253Y-74794345D01*
X151737500Y-74774743D01*
X151730711Y-74754378D01*
X151725950Y-74733446D01*
X151649978Y-74302593D01*
X151647292Y-74281295D01*
X151646707Y-74259835D01*
X151648228Y-74238422D01*
X151651840Y-74217261D01*
X151657509Y-74196556D01*
X151665180Y-74176507D01*
X151674780Y-74157305D01*
X151686215Y-74139138D01*
X151699376Y-74122178D01*
X151714136Y-74106590D01*
X151730353Y-74092524D01*
X151747870Y-74080115D01*
X151766520Y-74069483D01*
X151786121Y-74060730D01*
X151806486Y-74053941D01*
X151827419Y-74049180D01*
X152332133Y-73960185D01*
X152353432Y-73957499D01*
X152374891Y-73956914D01*
X152396304Y-73958435D01*
G37*
G36*
X150482101Y-64187155D02*
G01*
X150503427Y-64189609D01*
X150524411Y-64194141D01*
X150544849Y-64200708D01*
X150564545Y-64209246D01*
X150583309Y-64219674D01*
X150600961Y-64231891D01*
X150617330Y-64245779D01*
X150632259Y-64261205D01*
X150645604Y-64278020D01*
X150657237Y-64296062D01*
X150875987Y-64674948D01*
X150885795Y-64694043D01*
X150893685Y-64714008D01*
X150899580Y-64734650D01*
X150903423Y-64755770D01*
X150905177Y-64777166D01*
X150904826Y-64798630D01*
X150902372Y-64819956D01*
X150897840Y-64840940D01*
X150891273Y-64861378D01*
X150882735Y-64881074D01*
X150872307Y-64899838D01*
X150860090Y-64917490D01*
X150846202Y-64933859D01*
X150830776Y-64948788D01*
X150813961Y-64962133D01*
X150795919Y-64973766D01*
X150352081Y-65230016D01*
X150332986Y-65239824D01*
X150313021Y-65247714D01*
X150292379Y-65253609D01*
X150271259Y-65257452D01*
X150249863Y-65259206D01*
X150228399Y-65258855D01*
X150207073Y-65256401D01*
X150186089Y-65251869D01*
X150165651Y-65245302D01*
X150145955Y-65236764D01*
X150127191Y-65226336D01*
X150109539Y-65214119D01*
X150093170Y-65200231D01*
X150078241Y-65184805D01*
X150064896Y-65167990D01*
X150053263Y-65149948D01*
X149834513Y-64771062D01*
X149824705Y-64751967D01*
X149816815Y-64732002D01*
X149810920Y-64711360D01*
X149807077Y-64690240D01*
X149805323Y-64668844D01*
X149805674Y-64647380D01*
X149808128Y-64626054D01*
X149812660Y-64605070D01*
X149819227Y-64584632D01*
X149827765Y-64564936D01*
X149838193Y-64546172D01*
X149850410Y-64528520D01*
X149864298Y-64512151D01*
X149879724Y-64497222D01*
X149896539Y-64483877D01*
X149914581Y-64472244D01*
X150358419Y-64215994D01*
X150377514Y-64206186D01*
X150397479Y-64198296D01*
X150418121Y-64192401D01*
X150439241Y-64188558D01*
X150460637Y-64186804D01*
X150482101Y-64187155D01*
G37*
G36*
X151269601Y-65551145D02*
G01*
X151290927Y-65553599D01*
X151311911Y-65558131D01*
X151332349Y-65564698D01*
X151352045Y-65573236D01*
X151370809Y-65583664D01*
X151388461Y-65595881D01*
X151404830Y-65609769D01*
X151419759Y-65625195D01*
X151433104Y-65642010D01*
X151444737Y-65660052D01*
X151663487Y-66038938D01*
X151673295Y-66058033D01*
X151681185Y-66077998D01*
X151687080Y-66098640D01*
X151690923Y-66119760D01*
X151692677Y-66141156D01*
X151692326Y-66162620D01*
X151689872Y-66183946D01*
X151685340Y-66204930D01*
X151678773Y-66225368D01*
X151670235Y-66245064D01*
X151659807Y-66263828D01*
X151647590Y-66281480D01*
X151633702Y-66297849D01*
X151618276Y-66312778D01*
X151601461Y-66326123D01*
X151583419Y-66337756D01*
X151139581Y-66594006D01*
X151120486Y-66603814D01*
X151100521Y-66611704D01*
X151079879Y-66617599D01*
X151058759Y-66621442D01*
X151037363Y-66623196D01*
X151015899Y-66622845D01*
X150994573Y-66620391D01*
X150973589Y-66615859D01*
X150953151Y-66609292D01*
X150933455Y-66600754D01*
X150914691Y-66590326D01*
X150897039Y-66578109D01*
X150880670Y-66564221D01*
X150865741Y-66548795D01*
X150852396Y-66531980D01*
X150840763Y-66513938D01*
X150622013Y-66135052D01*
X150612205Y-66115957D01*
X150604315Y-66095992D01*
X150598420Y-66075350D01*
X150594577Y-66054230D01*
X150592823Y-66032834D01*
X150593174Y-66011370D01*
X150595628Y-65990044D01*
X150600160Y-65969060D01*
X150606727Y-65948622D01*
X150615265Y-65928926D01*
X150625693Y-65910162D01*
X150637910Y-65892510D01*
X150651798Y-65876141D01*
X150667224Y-65861212D01*
X150684039Y-65847867D01*
X150702081Y-65836234D01*
X151145919Y-65579984D01*
X151165014Y-65570176D01*
X151184979Y-65562286D01*
X151205621Y-65556391D01*
X151226741Y-65552548D01*
X151248137Y-65550794D01*
X151269601Y-65551145D01*
G37*
G36*
X142697559Y-65775535D02*
G01*
X142718827Y-65778453D01*
X142739707Y-65783442D01*
X142759996Y-65790453D01*
X142779501Y-65799419D01*
X142798034Y-65810254D01*
X142815415Y-65822853D01*
X142831477Y-65837095D01*
X142846066Y-65852843D01*
X143127286Y-66187988D01*
X143140261Y-66205090D01*
X143151498Y-66223382D01*
X143160887Y-66242686D01*
X143168340Y-66262819D01*
X143173783Y-66283584D01*
X143177164Y-66304783D01*
X143178451Y-66326212D01*
X143177632Y-66347663D01*
X143174714Y-66368931D01*
X143169725Y-66389811D01*
X143162714Y-66410101D01*
X143153748Y-66429606D01*
X143142913Y-66448138D01*
X143130314Y-66465519D01*
X143116072Y-66481581D01*
X143100324Y-66496170D01*
X142707726Y-66825599D01*
X142690624Y-66838574D01*
X142672332Y-66849811D01*
X142653028Y-66859200D01*
X142632895Y-66866653D01*
X142612130Y-66872095D01*
X142590931Y-66875477D01*
X142569502Y-66876764D01*
X142548051Y-66875945D01*
X142526783Y-66873027D01*
X142505903Y-66868038D01*
X142485614Y-66861027D01*
X142466109Y-66852061D01*
X142447576Y-66841226D01*
X142430195Y-66828627D01*
X142414133Y-66814385D01*
X142399544Y-66798637D01*
X142118324Y-66463492D01*
X142105349Y-66446390D01*
X142094112Y-66428098D01*
X142084723Y-66408794D01*
X142077270Y-66388661D01*
X142071827Y-66367896D01*
X142068446Y-66346697D01*
X142067159Y-66325268D01*
X142067978Y-66303817D01*
X142070896Y-66282549D01*
X142075885Y-66261669D01*
X142082896Y-66241379D01*
X142091862Y-66221874D01*
X142102697Y-66203342D01*
X142115296Y-66185961D01*
X142129538Y-66169899D01*
X142145286Y-66155310D01*
X142537884Y-65825881D01*
X142554986Y-65812906D01*
X142573278Y-65801669D01*
X142592582Y-65792280D01*
X142612715Y-65784827D01*
X142633480Y-65779385D01*
X142654679Y-65776003D01*
X142676108Y-65774716D01*
X142697559Y-65775535D01*
G37*
G36*
X143709949Y-66982055D02*
G01*
X143731217Y-66984973D01*
X143752097Y-66989962D01*
X143772386Y-66996973D01*
X143791891Y-67005939D01*
X143810424Y-67016774D01*
X143827805Y-67029373D01*
X143843867Y-67043615D01*
X143858456Y-67059363D01*
X144139676Y-67394508D01*
X144152651Y-67411610D01*
X144163888Y-67429902D01*
X144173277Y-67449206D01*
X144180730Y-67469339D01*
X144186173Y-67490104D01*
X144189554Y-67511303D01*
X144190841Y-67532732D01*
X144190022Y-67554183D01*
X144187104Y-67575451D01*
X144182115Y-67596331D01*
X144175104Y-67616621D01*
X144166138Y-67636126D01*
X144155303Y-67654658D01*
X144142704Y-67672039D01*
X144128462Y-67688101D01*
X144112714Y-67702690D01*
X143720116Y-68032119D01*
X143703014Y-68045094D01*
X143684722Y-68056331D01*
X143665418Y-68065720D01*
X143645285Y-68073173D01*
X143624520Y-68078615D01*
X143603321Y-68081997D01*
X143581892Y-68083284D01*
X143560441Y-68082465D01*
X143539173Y-68079547D01*
X143518293Y-68074558D01*
X143498004Y-68067547D01*
X143478499Y-68058581D01*
X143459966Y-68047746D01*
X143442585Y-68035147D01*
X143426523Y-68020905D01*
X143411934Y-68005157D01*
X143130714Y-67670012D01*
X143117739Y-67652910D01*
X143106502Y-67634618D01*
X143097113Y-67615314D01*
X143089660Y-67595181D01*
X143084217Y-67574416D01*
X143080836Y-67553217D01*
X143079549Y-67531788D01*
X143080368Y-67510337D01*
X143083286Y-67489069D01*
X143088275Y-67468189D01*
X143095286Y-67447899D01*
X143104252Y-67428394D01*
X143115087Y-67409862D01*
X143127686Y-67392481D01*
X143141928Y-67376419D01*
X143157676Y-67361830D01*
X143550274Y-67032401D01*
X143567376Y-67019426D01*
X143585668Y-67008189D01*
X143604972Y-66998800D01*
X143625105Y-66991347D01*
X143645870Y-66985905D01*
X143667069Y-66982523D01*
X143688498Y-66981236D01*
X143709949Y-66982055D01*
G37*
G36*
X140157559Y-60187535D02*
G01*
X140178827Y-60190453D01*
X140199707Y-60195442D01*
X140219996Y-60202453D01*
X140239501Y-60211419D01*
X140258034Y-60222254D01*
X140275415Y-60234853D01*
X140291477Y-60249095D01*
X140306066Y-60264843D01*
X140587286Y-60599988D01*
X140600261Y-60617090D01*
X140611498Y-60635382D01*
X140620887Y-60654686D01*
X140628340Y-60674819D01*
X140633783Y-60695584D01*
X140637164Y-60716783D01*
X140638451Y-60738212D01*
X140637632Y-60759663D01*
X140634714Y-60780931D01*
X140629725Y-60801811D01*
X140622714Y-60822101D01*
X140613748Y-60841606D01*
X140602913Y-60860138D01*
X140590314Y-60877519D01*
X140576072Y-60893581D01*
X140560324Y-60908170D01*
X140167726Y-61237599D01*
X140150624Y-61250574D01*
X140132332Y-61261811D01*
X140113028Y-61271200D01*
X140092895Y-61278653D01*
X140072130Y-61284095D01*
X140050931Y-61287477D01*
X140029502Y-61288764D01*
X140008051Y-61287945D01*
X139986783Y-61285027D01*
X139965903Y-61280038D01*
X139945614Y-61273027D01*
X139926109Y-61264061D01*
X139907576Y-61253226D01*
X139890195Y-61240627D01*
X139874133Y-61226385D01*
X139859544Y-61210637D01*
X139578324Y-60875492D01*
X139565349Y-60858390D01*
X139554112Y-60840098D01*
X139544723Y-60820794D01*
X139537270Y-60800661D01*
X139531827Y-60779896D01*
X139528446Y-60758697D01*
X139527159Y-60737268D01*
X139527978Y-60715817D01*
X139530896Y-60694549D01*
X139535885Y-60673669D01*
X139542896Y-60653379D01*
X139551862Y-60633874D01*
X139562697Y-60615342D01*
X139575296Y-60597961D01*
X139589538Y-60581899D01*
X139605286Y-60567310D01*
X139997884Y-60237881D01*
X140014986Y-60224906D01*
X140033278Y-60213669D01*
X140052582Y-60204280D01*
X140072715Y-60196827D01*
X140093480Y-60191385D01*
X140114679Y-60188003D01*
X140136108Y-60186716D01*
X140157559Y-60187535D01*
G37*
G36*
X141169949Y-61394055D02*
G01*
X141191217Y-61396973D01*
X141212097Y-61401962D01*
X141232386Y-61408973D01*
X141251891Y-61417939D01*
X141270424Y-61428774D01*
X141287805Y-61441373D01*
X141303867Y-61455615D01*
X141318456Y-61471363D01*
X141599676Y-61806508D01*
X141612651Y-61823610D01*
X141623888Y-61841902D01*
X141633277Y-61861206D01*
X141640730Y-61881339D01*
X141646173Y-61902104D01*
X141649554Y-61923303D01*
X141650841Y-61944732D01*
X141650022Y-61966183D01*
X141647104Y-61987451D01*
X141642115Y-62008331D01*
X141635104Y-62028621D01*
X141626138Y-62048126D01*
X141615303Y-62066658D01*
X141602704Y-62084039D01*
X141588462Y-62100101D01*
X141572714Y-62114690D01*
X141180116Y-62444119D01*
X141163014Y-62457094D01*
X141144722Y-62468331D01*
X141125418Y-62477720D01*
X141105285Y-62485173D01*
X141084520Y-62490615D01*
X141063321Y-62493997D01*
X141041892Y-62495284D01*
X141020441Y-62494465D01*
X140999173Y-62491547D01*
X140978293Y-62486558D01*
X140958004Y-62479547D01*
X140938499Y-62470581D01*
X140919966Y-62459746D01*
X140902585Y-62447147D01*
X140886523Y-62432905D01*
X140871934Y-62417157D01*
X140590714Y-62082012D01*
X140577739Y-62064910D01*
X140566502Y-62046618D01*
X140557113Y-62027314D01*
X140549660Y-62007181D01*
X140544217Y-61986416D01*
X140540836Y-61965217D01*
X140539549Y-61943788D01*
X140540368Y-61922337D01*
X140543286Y-61901069D01*
X140548275Y-61880189D01*
X140555286Y-61859899D01*
X140564252Y-61840394D01*
X140575087Y-61821862D01*
X140587686Y-61804481D01*
X140601928Y-61788419D01*
X140617676Y-61773830D01*
X141010274Y-61444401D01*
X141027376Y-61431426D01*
X141045668Y-61420189D01*
X141064972Y-61410800D01*
X141085105Y-61403347D01*
X141105870Y-61397905D01*
X141127069Y-61394523D01*
X141148498Y-61393236D01*
X141169949Y-61394055D01*
G37*
G36*
X136196697Y-54946446D02*
G01*
X136217896Y-54949828D01*
X136238661Y-54955270D01*
X136258794Y-54962723D01*
X136278098Y-54972112D01*
X136296390Y-54983349D01*
X136313492Y-54996324D01*
X136648637Y-55277544D01*
X136664385Y-55292133D01*
X136678627Y-55308195D01*
X136691226Y-55325576D01*
X136702061Y-55344108D01*
X136711027Y-55363613D01*
X136718038Y-55383903D01*
X136723027Y-55404783D01*
X136725945Y-55426051D01*
X136726764Y-55447502D01*
X136725477Y-55468931D01*
X136722096Y-55490130D01*
X136716653Y-55510895D01*
X136709200Y-55531028D01*
X136699811Y-55550332D01*
X136688574Y-55568624D01*
X136675599Y-55585726D01*
X136346170Y-55978324D01*
X136331581Y-55994072D01*
X136315519Y-56008314D01*
X136298138Y-56020913D01*
X136279605Y-56031748D01*
X136260100Y-56040714D01*
X136239811Y-56047725D01*
X136218931Y-56052714D01*
X136197663Y-56055632D01*
X136176212Y-56056451D01*
X136154783Y-56055164D01*
X136133584Y-56051782D01*
X136112819Y-56046340D01*
X136092686Y-56038887D01*
X136073382Y-56029498D01*
X136055090Y-56018261D01*
X136037988Y-56005286D01*
X135702843Y-55724066D01*
X135687095Y-55709477D01*
X135672853Y-55693415D01*
X135660254Y-55676034D01*
X135649419Y-55657502D01*
X135640453Y-55637997D01*
X135633442Y-55617707D01*
X135628453Y-55596827D01*
X135625535Y-55575559D01*
X135624716Y-55554108D01*
X135626003Y-55532679D01*
X135629384Y-55511480D01*
X135634827Y-55490715D01*
X135642280Y-55470582D01*
X135651669Y-55451278D01*
X135662906Y-55432986D01*
X135675881Y-55415884D01*
X136005310Y-55023286D01*
X136019899Y-55007538D01*
X136035961Y-54993296D01*
X136053342Y-54980697D01*
X136071875Y-54969862D01*
X136091380Y-54960896D01*
X136111669Y-54953885D01*
X136132549Y-54948896D01*
X136153817Y-54945978D01*
X136175268Y-54945159D01*
X136196697Y-54946446D01*
G37*
G36*
X137403217Y-55958836D02*
G01*
X137424416Y-55962218D01*
X137445181Y-55967660D01*
X137465314Y-55975113D01*
X137484618Y-55984502D01*
X137502910Y-55995739D01*
X137520012Y-56008714D01*
X137855157Y-56289934D01*
X137870905Y-56304523D01*
X137885147Y-56320585D01*
X137897746Y-56337966D01*
X137908581Y-56356498D01*
X137917547Y-56376003D01*
X137924558Y-56396293D01*
X137929547Y-56417173D01*
X137932465Y-56438441D01*
X137933284Y-56459892D01*
X137931997Y-56481321D01*
X137928616Y-56502520D01*
X137923173Y-56523285D01*
X137915720Y-56543418D01*
X137906331Y-56562722D01*
X137895094Y-56581014D01*
X137882119Y-56598116D01*
X137552690Y-56990714D01*
X137538101Y-57006462D01*
X137522039Y-57020704D01*
X137504658Y-57033303D01*
X137486125Y-57044138D01*
X137466620Y-57053104D01*
X137446331Y-57060115D01*
X137425451Y-57065104D01*
X137404183Y-57068022D01*
X137382732Y-57068841D01*
X137361303Y-57067554D01*
X137340104Y-57064172D01*
X137319339Y-57058730D01*
X137299206Y-57051277D01*
X137279902Y-57041888D01*
X137261610Y-57030651D01*
X137244508Y-57017676D01*
X136909363Y-56736456D01*
X136893615Y-56721867D01*
X136879373Y-56705805D01*
X136866774Y-56688424D01*
X136855939Y-56669892D01*
X136846973Y-56650387D01*
X136839962Y-56630097D01*
X136834973Y-56609217D01*
X136832055Y-56587949D01*
X136831236Y-56566498D01*
X136832523Y-56545069D01*
X136835904Y-56523870D01*
X136841347Y-56503105D01*
X136848800Y-56482972D01*
X136858189Y-56463668D01*
X136869426Y-56445376D01*
X136882401Y-56428274D01*
X137211830Y-56035676D01*
X137226419Y-56019928D01*
X137242481Y-56005686D01*
X137259862Y-55993087D01*
X137278395Y-55982252D01*
X137297900Y-55973286D01*
X137318189Y-55966275D01*
X137339069Y-55961286D01*
X137360337Y-55958368D01*
X137381788Y-55957549D01*
X137403217Y-55958836D01*
G37*
G36*
X136040691Y-69007053D02*
G01*
X136061926Y-69010203D01*
X136082750Y-69015419D01*
X136102962Y-69022651D01*
X136122368Y-69031830D01*
X136140781Y-69042866D01*
X136158024Y-69055654D01*
X136173930Y-69070070D01*
X136188346Y-69085976D01*
X136201134Y-69103219D01*
X136212170Y-69121632D01*
X136221349Y-69141038D01*
X136228581Y-69161250D01*
X136233797Y-69182074D01*
X136236947Y-69203309D01*
X136238000Y-69224750D01*
X136238000Y-69662250D01*
X136236947Y-69683691D01*
X136233797Y-69704926D01*
X136228581Y-69725750D01*
X136221349Y-69745962D01*
X136212170Y-69765368D01*
X136201134Y-69783781D01*
X136188346Y-69801024D01*
X136173930Y-69816930D01*
X136158024Y-69831346D01*
X136140781Y-69844134D01*
X136122368Y-69855170D01*
X136102962Y-69864349D01*
X136082750Y-69871581D01*
X136061926Y-69876797D01*
X136040691Y-69879947D01*
X136019250Y-69881000D01*
X135506750Y-69881000D01*
X135485309Y-69879947D01*
X135464074Y-69876797D01*
X135443250Y-69871581D01*
X135423038Y-69864349D01*
X135403632Y-69855170D01*
X135385219Y-69844134D01*
X135367976Y-69831346D01*
X135352070Y-69816930D01*
X135337654Y-69801024D01*
X135324866Y-69783781D01*
X135313830Y-69765368D01*
X135304651Y-69745962D01*
X135297419Y-69725750D01*
X135292203Y-69704926D01*
X135289053Y-69683691D01*
X135288000Y-69662250D01*
X135288000Y-69224750D01*
X135289053Y-69203309D01*
X135292203Y-69182074D01*
X135297419Y-69161250D01*
X135304651Y-69141038D01*
X135313830Y-69121632D01*
X135324866Y-69103219D01*
X135337654Y-69085976D01*
X135352070Y-69070070D01*
X135367976Y-69055654D01*
X135385219Y-69042866D01*
X135403632Y-69031830D01*
X135423038Y-69022651D01*
X135443250Y-69015419D01*
X135464074Y-69010203D01*
X135485309Y-69007053D01*
X135506750Y-69006000D01*
X136019250Y-69006000D01*
X136040691Y-69007053D01*
G37*
G36*
X136040691Y-70582053D02*
G01*
X136061926Y-70585203D01*
X136082750Y-70590419D01*
X136102962Y-70597651D01*
X136122368Y-70606830D01*
X136140781Y-70617866D01*
X136158024Y-70630654D01*
X136173930Y-70645070D01*
X136188346Y-70660976D01*
X136201134Y-70678219D01*
X136212170Y-70696632D01*
X136221349Y-70716038D01*
X136228581Y-70736250D01*
X136233797Y-70757074D01*
X136236947Y-70778309D01*
X136238000Y-70799750D01*
X136238000Y-71237250D01*
X136236947Y-71258691D01*
X136233797Y-71279926D01*
X136228581Y-71300750D01*
X136221349Y-71320962D01*
X136212170Y-71340368D01*
X136201134Y-71358781D01*
X136188346Y-71376024D01*
X136173930Y-71391930D01*
X136158024Y-71406346D01*
X136140781Y-71419134D01*
X136122368Y-71430170D01*
X136102962Y-71439349D01*
X136082750Y-71446581D01*
X136061926Y-71451797D01*
X136040691Y-71454947D01*
X136019250Y-71456000D01*
X135506750Y-71456000D01*
X135485309Y-71454947D01*
X135464074Y-71451797D01*
X135443250Y-71446581D01*
X135423038Y-71439349D01*
X135403632Y-71430170D01*
X135385219Y-71419134D01*
X135367976Y-71406346D01*
X135352070Y-71391930D01*
X135337654Y-71376024D01*
X135324866Y-71358781D01*
X135313830Y-71340368D01*
X135304651Y-71320962D01*
X135297419Y-71300750D01*
X135292203Y-71279926D01*
X135289053Y-71258691D01*
X135288000Y-71237250D01*
X135288000Y-70799750D01*
X135289053Y-70778309D01*
X135292203Y-70757074D01*
X135297419Y-70736250D01*
X135304651Y-70716038D01*
X135313830Y-70696632D01*
X135324866Y-70678219D01*
X135337654Y-70660976D01*
X135352070Y-70645070D01*
X135367976Y-70630654D01*
X135385219Y-70617866D01*
X135403632Y-70606830D01*
X135423038Y-70597651D01*
X135443250Y-70590419D01*
X135464074Y-70585203D01*
X135485309Y-70582053D01*
X135506750Y-70581000D01*
X136019250Y-70581000D01*
X136040691Y-70582053D01*
G37*
G36*
X148008663Y-87454368D02*
G01*
X148029931Y-87457286D01*
X148050811Y-87462275D01*
X148071101Y-87469286D01*
X148090606Y-87478252D01*
X148109138Y-87489087D01*
X148126519Y-87501686D01*
X148142581Y-87515928D01*
X148157170Y-87531676D01*
X148486599Y-87924274D01*
X148499574Y-87941376D01*
X148510811Y-87959668D01*
X148520200Y-87978972D01*
X148527653Y-87999105D01*
X148533095Y-88019870D01*
X148536477Y-88041069D01*
X148537764Y-88062498D01*
X148536945Y-88083949D01*
X148534027Y-88105217D01*
X148529038Y-88126097D01*
X148522027Y-88146386D01*
X148513061Y-88165891D01*
X148502226Y-88184424D01*
X148489627Y-88201805D01*
X148475385Y-88217867D01*
X148459637Y-88232456D01*
X148124492Y-88513676D01*
X148107390Y-88526651D01*
X148089098Y-88537888D01*
X148069794Y-88547277D01*
X148049661Y-88554730D01*
X148028896Y-88560173D01*
X148007697Y-88563554D01*
X147986268Y-88564841D01*
X147964817Y-88564022D01*
X147943549Y-88561104D01*
X147922669Y-88556115D01*
X147902379Y-88549104D01*
X147882874Y-88540138D01*
X147864342Y-88529303D01*
X147846961Y-88516704D01*
X147830899Y-88502462D01*
X147816310Y-88486714D01*
X147486881Y-88094116D01*
X147473906Y-88077014D01*
X147462669Y-88058722D01*
X147453280Y-88039418D01*
X147445827Y-88019285D01*
X147440385Y-87998520D01*
X147437003Y-87977321D01*
X147435716Y-87955892D01*
X147436535Y-87934441D01*
X147439453Y-87913173D01*
X147444442Y-87892293D01*
X147451453Y-87872004D01*
X147460419Y-87852499D01*
X147471254Y-87833966D01*
X147483853Y-87816585D01*
X147498095Y-87800523D01*
X147513843Y-87785934D01*
X147848988Y-87504714D01*
X147866090Y-87491739D01*
X147884382Y-87480502D01*
X147903686Y-87471113D01*
X147923819Y-87463660D01*
X147944584Y-87458217D01*
X147965783Y-87454836D01*
X147987212Y-87453549D01*
X148008663Y-87454368D01*
G37*
G36*
X149215183Y-86441978D02*
G01*
X149236451Y-86444896D01*
X149257331Y-86449885D01*
X149277621Y-86456896D01*
X149297126Y-86465862D01*
X149315658Y-86476697D01*
X149333039Y-86489296D01*
X149349101Y-86503538D01*
X149363690Y-86519286D01*
X149693119Y-86911884D01*
X149706094Y-86928986D01*
X149717331Y-86947278D01*
X149726720Y-86966582D01*
X149734173Y-86986715D01*
X149739615Y-87007480D01*
X149742997Y-87028679D01*
X149744284Y-87050108D01*
X149743465Y-87071559D01*
X149740547Y-87092827D01*
X149735558Y-87113707D01*
X149728547Y-87133996D01*
X149719581Y-87153501D01*
X149708746Y-87172034D01*
X149696147Y-87189415D01*
X149681905Y-87205477D01*
X149666157Y-87220066D01*
X149331012Y-87501286D01*
X149313910Y-87514261D01*
X149295618Y-87525498D01*
X149276314Y-87534887D01*
X149256181Y-87542340D01*
X149235416Y-87547783D01*
X149214217Y-87551164D01*
X149192788Y-87552451D01*
X149171337Y-87551632D01*
X149150069Y-87548714D01*
X149129189Y-87543725D01*
X149108899Y-87536714D01*
X149089394Y-87527748D01*
X149070862Y-87516913D01*
X149053481Y-87504314D01*
X149037419Y-87490072D01*
X149022830Y-87474324D01*
X148693401Y-87081726D01*
X148680426Y-87064624D01*
X148669189Y-87046332D01*
X148659800Y-87027028D01*
X148652347Y-87006895D01*
X148646905Y-86986130D01*
X148643523Y-86964931D01*
X148642236Y-86943502D01*
X148643055Y-86922051D01*
X148645973Y-86900783D01*
X148650962Y-86879903D01*
X148657973Y-86859614D01*
X148666939Y-86840109D01*
X148677774Y-86821576D01*
X148690373Y-86804195D01*
X148704615Y-86788133D01*
X148720363Y-86773544D01*
X149055508Y-86492324D01*
X149072610Y-86479349D01*
X149090902Y-86468112D01*
X149110206Y-86458723D01*
X149130339Y-86451270D01*
X149151104Y-86445827D01*
X149172303Y-86442446D01*
X149193732Y-86441159D01*
X149215183Y-86441978D01*
G37*
G36*
X137536000Y-28891403D02*
G01*
X137557326Y-28893857D01*
X137578309Y-28898389D01*
X138000902Y-29011622D01*
X138021340Y-29018189D01*
X138041036Y-29026727D01*
X138059801Y-29037155D01*
X138077452Y-29049372D01*
X138093822Y-29063260D01*
X138108751Y-29078686D01*
X138122096Y-29095501D01*
X138133729Y-29113543D01*
X138143537Y-29132638D01*
X138151427Y-29152603D01*
X138157322Y-29173245D01*
X138161165Y-29194365D01*
X138162919Y-29215760D01*
X138162568Y-29237225D01*
X138160114Y-29258551D01*
X138155582Y-29279535D01*
X138022937Y-29774572D01*
X138016370Y-29795010D01*
X138007832Y-29814706D01*
X137997404Y-29833470D01*
X137985187Y-29851122D01*
X137971299Y-29867491D01*
X137955873Y-29882420D01*
X137939058Y-29895765D01*
X137921016Y-29907398D01*
X137901921Y-29917207D01*
X137881956Y-29925096D01*
X137861314Y-29930991D01*
X137840194Y-29934834D01*
X137818798Y-29936588D01*
X137797334Y-29936237D01*
X137776008Y-29933783D01*
X137755025Y-29929251D01*
X137332432Y-29816018D01*
X137311994Y-29809451D01*
X137292298Y-29800913D01*
X137273533Y-29790485D01*
X137255882Y-29778268D01*
X137239512Y-29764380D01*
X137224583Y-29748954D01*
X137211238Y-29732139D01*
X137199605Y-29714097D01*
X137189797Y-29695002D01*
X137181907Y-29675037D01*
X137176012Y-29654395D01*
X137172169Y-29633275D01*
X137170415Y-29611880D01*
X137170766Y-29590415D01*
X137173220Y-29569089D01*
X137177752Y-29548105D01*
X137310397Y-29053068D01*
X137316964Y-29032630D01*
X137325502Y-29012934D01*
X137335930Y-28994170D01*
X137348147Y-28976518D01*
X137362035Y-28960149D01*
X137377461Y-28945220D01*
X137394276Y-28931875D01*
X137412318Y-28920242D01*
X137431413Y-28910433D01*
X137451378Y-28902544D01*
X137472020Y-28896649D01*
X137493140Y-28892806D01*
X137514536Y-28891052D01*
X137536000Y-28891403D01*
G37*
G36*
X136014666Y-28483763D02*
G01*
X136035992Y-28486217D01*
X136056975Y-28490749D01*
X136479568Y-28603982D01*
X136500006Y-28610549D01*
X136519702Y-28619087D01*
X136538467Y-28629515D01*
X136556118Y-28641732D01*
X136572488Y-28655620D01*
X136587417Y-28671046D01*
X136600762Y-28687861D01*
X136612395Y-28705903D01*
X136622203Y-28724998D01*
X136630093Y-28744963D01*
X136635988Y-28765605D01*
X136639831Y-28786725D01*
X136641585Y-28808120D01*
X136641234Y-28829585D01*
X136638780Y-28850911D01*
X136634248Y-28871895D01*
X136501603Y-29366932D01*
X136495036Y-29387370D01*
X136486498Y-29407066D01*
X136476070Y-29425830D01*
X136463853Y-29443482D01*
X136449965Y-29459851D01*
X136434539Y-29474780D01*
X136417724Y-29488125D01*
X136399682Y-29499758D01*
X136380587Y-29509567D01*
X136360622Y-29517456D01*
X136339980Y-29523351D01*
X136318860Y-29527194D01*
X136297464Y-29528948D01*
X136276000Y-29528597D01*
X136254674Y-29526143D01*
X136233691Y-29521611D01*
X135811098Y-29408378D01*
X135790660Y-29401811D01*
X135770964Y-29393273D01*
X135752199Y-29382845D01*
X135734548Y-29370628D01*
X135718178Y-29356740D01*
X135703249Y-29341314D01*
X135689904Y-29324499D01*
X135678271Y-29306457D01*
X135668463Y-29287362D01*
X135660573Y-29267397D01*
X135654678Y-29246755D01*
X135650835Y-29225635D01*
X135649081Y-29204240D01*
X135649432Y-29182775D01*
X135651886Y-29161449D01*
X135656418Y-29140465D01*
X135789063Y-28645428D01*
X135795630Y-28624990D01*
X135804168Y-28605294D01*
X135814596Y-28586530D01*
X135826813Y-28568878D01*
X135840701Y-28552509D01*
X135856127Y-28537580D01*
X135872942Y-28524235D01*
X135890984Y-28512602D01*
X135910079Y-28502793D01*
X135930044Y-28494904D01*
X135950686Y-28489009D01*
X135971806Y-28485166D01*
X135993202Y-28483412D01*
X136014666Y-28483763D01*
G37*
G36*
X153820691Y-81199053D02*
G01*
X153841926Y-81202203D01*
X153862750Y-81207419D01*
X153882962Y-81214651D01*
X153902368Y-81223830D01*
X153920781Y-81234866D01*
X153938024Y-81247654D01*
X153953930Y-81262070D01*
X153968346Y-81277976D01*
X153981134Y-81295219D01*
X153992170Y-81313632D01*
X154001349Y-81333038D01*
X154008581Y-81353250D01*
X154013797Y-81374074D01*
X154016947Y-81395309D01*
X154018000Y-81416750D01*
X154018000Y-81854250D01*
X154016947Y-81875691D01*
X154013797Y-81896926D01*
X154008581Y-81917750D01*
X154001349Y-81937962D01*
X153992170Y-81957368D01*
X153981134Y-81975781D01*
X153968346Y-81993024D01*
X153953930Y-82008930D01*
X153938024Y-82023346D01*
X153920781Y-82036134D01*
X153902368Y-82047170D01*
X153882962Y-82056349D01*
X153862750Y-82063581D01*
X153841926Y-82068797D01*
X153820691Y-82071947D01*
X153799250Y-82073000D01*
X153286750Y-82073000D01*
X153265309Y-82071947D01*
X153244074Y-82068797D01*
X153223250Y-82063581D01*
X153203038Y-82056349D01*
X153183632Y-82047170D01*
X153165219Y-82036134D01*
X153147976Y-82023346D01*
X153132070Y-82008930D01*
X153117654Y-81993024D01*
X153104866Y-81975781D01*
X153093830Y-81957368D01*
X153084651Y-81937962D01*
X153077419Y-81917750D01*
X153072203Y-81896926D01*
X153069053Y-81875691D01*
X153068000Y-81854250D01*
X153068000Y-81416750D01*
X153069053Y-81395309D01*
X153072203Y-81374074D01*
X153077419Y-81353250D01*
X153084651Y-81333038D01*
X153093830Y-81313632D01*
X153104866Y-81295219D01*
X153117654Y-81277976D01*
X153132070Y-81262070D01*
X153147976Y-81247654D01*
X153165219Y-81234866D01*
X153183632Y-81223830D01*
X153203038Y-81214651D01*
X153223250Y-81207419D01*
X153244074Y-81202203D01*
X153265309Y-81199053D01*
X153286750Y-81198000D01*
X153799250Y-81198000D01*
X153820691Y-81199053D01*
G37*
G36*
X153820691Y-82774053D02*
G01*
X153841926Y-82777203D01*
X153862750Y-82782419D01*
X153882962Y-82789651D01*
X153902368Y-82798830D01*
X153920781Y-82809866D01*
X153938024Y-82822654D01*
X153953930Y-82837070D01*
X153968346Y-82852976D01*
X153981134Y-82870219D01*
X153992170Y-82888632D01*
X154001349Y-82908038D01*
X154008581Y-82928250D01*
X154013797Y-82949074D01*
X154016947Y-82970309D01*
X154018000Y-82991750D01*
X154018000Y-83429250D01*
X154016947Y-83450691D01*
X154013797Y-83471926D01*
X154008581Y-83492750D01*
X154001349Y-83512962D01*
X153992170Y-83532368D01*
X153981134Y-83550781D01*
X153968346Y-83568024D01*
X153953930Y-83583930D01*
X153938024Y-83598346D01*
X153920781Y-83611134D01*
X153902368Y-83622170D01*
X153882962Y-83631349D01*
X153862750Y-83638581D01*
X153841926Y-83643797D01*
X153820691Y-83646947D01*
X153799250Y-83648000D01*
X153286750Y-83648000D01*
X153265309Y-83646947D01*
X153244074Y-83643797D01*
X153223250Y-83638581D01*
X153203038Y-83631349D01*
X153183632Y-83622170D01*
X153165219Y-83611134D01*
X153147976Y-83598346D01*
X153132070Y-83583930D01*
X153117654Y-83568024D01*
X153104866Y-83550781D01*
X153093830Y-83532368D01*
X153084651Y-83512962D01*
X153077419Y-83492750D01*
X153072203Y-83471926D01*
X153069053Y-83450691D01*
X153068000Y-83429250D01*
X153068000Y-82991750D01*
X153069053Y-82970309D01*
X153072203Y-82949074D01*
X153077419Y-82928250D01*
X153084651Y-82908038D01*
X153093830Y-82888632D01*
X153104866Y-82870219D01*
X153117654Y-82852976D01*
X153132070Y-82837070D01*
X153147976Y-82822654D01*
X153165219Y-82809866D01*
X153183632Y-82798830D01*
X153203038Y-82789651D01*
X153223250Y-82782419D01*
X153244074Y-82777203D01*
X153265309Y-82774053D01*
X153286750Y-82773000D01*
X153799250Y-82773000D01*
X153820691Y-82774053D01*
G37*
G36*
X135114294Y-24647292D02*
G01*
X135135593Y-24649978D01*
X135566446Y-24725950D01*
X135587379Y-24730711D01*
X135607744Y-24737500D01*
X135627345Y-24746253D01*
X135645995Y-24756885D01*
X135663512Y-24769294D01*
X135679729Y-24783360D01*
X135694489Y-24798948D01*
X135707650Y-24815908D01*
X135719085Y-24834075D01*
X135728685Y-24853277D01*
X135736356Y-24873326D01*
X135742025Y-24894031D01*
X135745637Y-24915192D01*
X135747158Y-24936605D01*
X135746573Y-24958065D01*
X135743887Y-24979363D01*
X135654892Y-25484077D01*
X135650131Y-25505009D01*
X135643342Y-25525374D01*
X135634589Y-25544976D01*
X135623957Y-25563625D01*
X135611548Y-25581143D01*
X135597482Y-25597360D01*
X135581894Y-25612120D01*
X135564935Y-25625281D01*
X135546767Y-25636716D01*
X135527566Y-25646315D01*
X135507516Y-25653987D01*
X135486811Y-25659656D01*
X135465650Y-25663268D01*
X135444237Y-25664789D01*
X135422778Y-25664204D01*
X135401479Y-25661518D01*
X134970626Y-25585546D01*
X134949693Y-25580785D01*
X134929328Y-25573996D01*
X134909727Y-25565243D01*
X134891077Y-25554611D01*
X134873560Y-25542202D01*
X134857343Y-25528136D01*
X134842583Y-25512548D01*
X134829422Y-25495588D01*
X134817987Y-25477421D01*
X134808387Y-25458219D01*
X134800716Y-25438170D01*
X134795047Y-25417465D01*
X134791435Y-25396304D01*
X134789914Y-25374891D01*
X134790499Y-25353431D01*
X134793185Y-25332133D01*
X134882180Y-24827419D01*
X134886941Y-24806487D01*
X134893730Y-24786122D01*
X134902483Y-24766520D01*
X134913115Y-24747871D01*
X134925524Y-24730353D01*
X134939590Y-24714136D01*
X134955178Y-24699376D01*
X134972137Y-24686215D01*
X134990305Y-24674780D01*
X135009506Y-24665181D01*
X135029556Y-24657509D01*
X135050261Y-24651840D01*
X135071422Y-24648228D01*
X135092835Y-24646707D01*
X135114294Y-24647292D01*
G37*
G36*
X133563222Y-24373796D02*
G01*
X133584521Y-24376482D01*
X134015374Y-24452454D01*
X134036307Y-24457215D01*
X134056672Y-24464004D01*
X134076273Y-24472757D01*
X134094923Y-24483389D01*
X134112440Y-24495798D01*
X134128657Y-24509864D01*
X134143417Y-24525452D01*
X134156578Y-24542412D01*
X134168013Y-24560579D01*
X134177613Y-24579781D01*
X134185284Y-24599830D01*
X134190953Y-24620535D01*
X134194565Y-24641696D01*
X134196086Y-24663109D01*
X134195501Y-24684569D01*
X134192815Y-24705867D01*
X134103820Y-25210581D01*
X134099059Y-25231513D01*
X134092270Y-25251878D01*
X134083517Y-25271480D01*
X134072885Y-25290129D01*
X134060476Y-25307647D01*
X134046410Y-25323864D01*
X134030822Y-25338624D01*
X134013863Y-25351785D01*
X133995695Y-25363220D01*
X133976494Y-25372819D01*
X133956444Y-25380491D01*
X133935739Y-25386160D01*
X133914578Y-25389772D01*
X133893165Y-25391293D01*
X133871706Y-25390708D01*
X133850407Y-25388022D01*
X133419554Y-25312050D01*
X133398621Y-25307289D01*
X133378256Y-25300500D01*
X133358655Y-25291747D01*
X133340005Y-25281115D01*
X133322488Y-25268706D01*
X133306271Y-25254640D01*
X133291511Y-25239052D01*
X133278350Y-25222092D01*
X133266915Y-25203925D01*
X133257315Y-25184723D01*
X133249644Y-25164674D01*
X133243975Y-25143969D01*
X133240363Y-25122808D01*
X133238842Y-25101395D01*
X133239427Y-25079935D01*
X133242113Y-25058637D01*
X133331108Y-24553923D01*
X133335869Y-24532991D01*
X133342658Y-24512626D01*
X133351411Y-24493024D01*
X133362043Y-24474375D01*
X133374452Y-24456857D01*
X133388518Y-24440640D01*
X133404106Y-24425880D01*
X133421065Y-24412719D01*
X133439233Y-24401284D01*
X133458434Y-24391685D01*
X133478484Y-24384013D01*
X133499189Y-24378344D01*
X133520350Y-24374732D01*
X133541763Y-24373211D01*
X133563222Y-24373796D01*
G37*
G36*
X130059691Y-27339053D02*
G01*
X130080926Y-27342203D01*
X130101750Y-27347419D01*
X130121962Y-27354651D01*
X130141368Y-27363830D01*
X130159781Y-27374866D01*
X130177024Y-27387654D01*
X130192930Y-27402070D01*
X130207346Y-27417976D01*
X130220134Y-27435219D01*
X130231170Y-27453632D01*
X130240349Y-27473038D01*
X130247581Y-27493250D01*
X130252797Y-27514074D01*
X130255947Y-27535309D01*
X130257000Y-27556750D01*
X130257000Y-28069250D01*
X130255947Y-28090691D01*
X130252797Y-28111926D01*
X130247581Y-28132750D01*
X130240349Y-28152962D01*
X130231170Y-28172368D01*
X130220134Y-28190781D01*
X130207346Y-28208024D01*
X130192930Y-28223930D01*
X130177024Y-28238346D01*
X130159781Y-28251134D01*
X130141368Y-28262170D01*
X130121962Y-28271349D01*
X130101750Y-28278581D01*
X130080926Y-28283797D01*
X130059691Y-28286947D01*
X130038250Y-28288000D01*
X129600750Y-28288000D01*
X129579309Y-28286947D01*
X129558074Y-28283797D01*
X129537250Y-28278581D01*
X129517038Y-28271349D01*
X129497632Y-28262170D01*
X129479219Y-28251134D01*
X129461976Y-28238346D01*
X129446070Y-28223930D01*
X129431654Y-28208024D01*
X129418866Y-28190781D01*
X129407830Y-28172368D01*
X129398651Y-28152962D01*
X129391419Y-28132750D01*
X129386203Y-28111926D01*
X129383053Y-28090691D01*
X129382000Y-28069250D01*
X129382000Y-27556750D01*
X129383053Y-27535309D01*
X129386203Y-27514074D01*
X129391419Y-27493250D01*
X129398651Y-27473038D01*
X129407830Y-27453632D01*
X129418866Y-27435219D01*
X129431654Y-27417976D01*
X129446070Y-27402070D01*
X129461976Y-27387654D01*
X129479219Y-27374866D01*
X129497632Y-27363830D01*
X129517038Y-27354651D01*
X129537250Y-27347419D01*
X129558074Y-27342203D01*
X129579309Y-27339053D01*
X129600750Y-27338000D01*
X130038250Y-27338000D01*
X130059691Y-27339053D01*
G37*
G36*
X128484691Y-27339053D02*
G01*
X128505926Y-27342203D01*
X128526750Y-27347419D01*
X128546962Y-27354651D01*
X128566368Y-27363830D01*
X128584781Y-27374866D01*
X128602024Y-27387654D01*
X128617930Y-27402070D01*
X128632346Y-27417976D01*
X128645134Y-27435219D01*
X128656170Y-27453632D01*
X128665349Y-27473038D01*
X128672581Y-27493250D01*
X128677797Y-27514074D01*
X128680947Y-27535309D01*
X128682000Y-27556750D01*
X128682000Y-28069250D01*
X128680947Y-28090691D01*
X128677797Y-28111926D01*
X128672581Y-28132750D01*
X128665349Y-28152962D01*
X128656170Y-28172368D01*
X128645134Y-28190781D01*
X128632346Y-28208024D01*
X128617930Y-28223930D01*
X128602024Y-28238346D01*
X128584781Y-28251134D01*
X128566368Y-28262170D01*
X128546962Y-28271349D01*
X128526750Y-28278581D01*
X128505926Y-28283797D01*
X128484691Y-28286947D01*
X128463250Y-28288000D01*
X128025750Y-28288000D01*
X128004309Y-28286947D01*
X127983074Y-28283797D01*
X127962250Y-28278581D01*
X127942038Y-28271349D01*
X127922632Y-28262170D01*
X127904219Y-28251134D01*
X127886976Y-28238346D01*
X127871070Y-28223930D01*
X127856654Y-28208024D01*
X127843866Y-28190781D01*
X127832830Y-28172368D01*
X127823651Y-28152962D01*
X127816419Y-28132750D01*
X127811203Y-28111926D01*
X127808053Y-28090691D01*
X127807000Y-28069250D01*
X127807000Y-27556750D01*
X127808053Y-27535309D01*
X127811203Y-27514074D01*
X127816419Y-27493250D01*
X127823651Y-27473038D01*
X127832830Y-27453632D01*
X127843866Y-27435219D01*
X127856654Y-27417976D01*
X127871070Y-27402070D01*
X127886976Y-27387654D01*
X127904219Y-27374866D01*
X127922632Y-27363830D01*
X127942038Y-27354651D01*
X127962250Y-27347419D01*
X127983074Y-27342203D01*
X128004309Y-27339053D01*
X128025750Y-27338000D01*
X128463250Y-27338000D01*
X128484691Y-27339053D01*
G37*
G36*
X128801691Y-62022053D02*
G01*
X128822926Y-62025203D01*
X128843750Y-62030419D01*
X128863962Y-62037651D01*
X128883368Y-62046830D01*
X128901781Y-62057866D01*
X128919024Y-62070654D01*
X128934930Y-62085070D01*
X128949346Y-62100976D01*
X128962134Y-62118219D01*
X128973170Y-62136632D01*
X128982349Y-62156038D01*
X128989581Y-62176250D01*
X128994797Y-62197074D01*
X128997947Y-62218309D01*
X128999000Y-62239750D01*
X128999000Y-62677250D01*
X128997947Y-62698691D01*
X128994797Y-62719926D01*
X128989581Y-62740750D01*
X128982349Y-62760962D01*
X128973170Y-62780368D01*
X128962134Y-62798781D01*
X128949346Y-62816024D01*
X128934930Y-62831930D01*
X128919024Y-62846346D01*
X128901781Y-62859134D01*
X128883368Y-62870170D01*
X128863962Y-62879349D01*
X128843750Y-62886581D01*
X128822926Y-62891797D01*
X128801691Y-62894947D01*
X128780250Y-62896000D01*
X128267750Y-62896000D01*
X128246309Y-62894947D01*
X128225074Y-62891797D01*
X128204250Y-62886581D01*
X128184038Y-62879349D01*
X128164632Y-62870170D01*
X128146219Y-62859134D01*
X128128976Y-62846346D01*
X128113070Y-62831930D01*
X128098654Y-62816024D01*
X128085866Y-62798781D01*
X128074830Y-62780368D01*
X128065651Y-62760962D01*
X128058419Y-62740750D01*
X128053203Y-62719926D01*
X128050053Y-62698691D01*
X128049000Y-62677250D01*
X128049000Y-62239750D01*
X128050053Y-62218309D01*
X128053203Y-62197074D01*
X128058419Y-62176250D01*
X128065651Y-62156038D01*
X128074830Y-62136632D01*
X128085866Y-62118219D01*
X128098654Y-62100976D01*
X128113070Y-62085070D01*
X128128976Y-62070654D01*
X128146219Y-62057866D01*
X128164632Y-62046830D01*
X128184038Y-62037651D01*
X128204250Y-62030419D01*
X128225074Y-62025203D01*
X128246309Y-62022053D01*
X128267750Y-62021000D01*
X128780250Y-62021000D01*
X128801691Y-62022053D01*
G37*
G36*
X128801691Y-63597053D02*
G01*
X128822926Y-63600203D01*
X128843750Y-63605419D01*
X128863962Y-63612651D01*
X128883368Y-63621830D01*
X128901781Y-63632866D01*
X128919024Y-63645654D01*
X128934930Y-63660070D01*
X128949346Y-63675976D01*
X128962134Y-63693219D01*
X128973170Y-63711632D01*
X128982349Y-63731038D01*
X128989581Y-63751250D01*
X128994797Y-63772074D01*
X128997947Y-63793309D01*
X128999000Y-63814750D01*
X128999000Y-64252250D01*
X128997947Y-64273691D01*
X128994797Y-64294926D01*
X128989581Y-64315750D01*
X128982349Y-64335962D01*
X128973170Y-64355368D01*
X128962134Y-64373781D01*
X128949346Y-64391024D01*
X128934930Y-64406930D01*
X128919024Y-64421346D01*
X128901781Y-64434134D01*
X128883368Y-64445170D01*
X128863962Y-64454349D01*
X128843750Y-64461581D01*
X128822926Y-64466797D01*
X128801691Y-64469947D01*
X128780250Y-64471000D01*
X128267750Y-64471000D01*
X128246309Y-64469947D01*
X128225074Y-64466797D01*
X128204250Y-64461581D01*
X128184038Y-64454349D01*
X128164632Y-64445170D01*
X128146219Y-64434134D01*
X128128976Y-64421346D01*
X128113070Y-64406930D01*
X128098654Y-64391024D01*
X128085866Y-64373781D01*
X128074830Y-64355368D01*
X128065651Y-64335962D01*
X128058419Y-64315750D01*
X128053203Y-64294926D01*
X128050053Y-64273691D01*
X128049000Y-64252250D01*
X128049000Y-63814750D01*
X128050053Y-63793309D01*
X128053203Y-63772074D01*
X128058419Y-63751250D01*
X128065651Y-63731038D01*
X128074830Y-63711632D01*
X128085866Y-63693219D01*
X128098654Y-63675976D01*
X128113070Y-63660070D01*
X128128976Y-63645654D01*
X128146219Y-63632866D01*
X128164632Y-63621830D01*
X128184038Y-63612651D01*
X128204250Y-63605419D01*
X128225074Y-63600203D01*
X128246309Y-63597053D01*
X128267750Y-63596000D01*
X128780250Y-63596000D01*
X128801691Y-63597053D01*
G37*
G36*
X126060559Y-48249535D02*
G01*
X126081827Y-48252453D01*
X126102707Y-48257442D01*
X126122996Y-48264453D01*
X126142501Y-48273419D01*
X126161034Y-48284254D01*
X126178415Y-48296853D01*
X126194477Y-48311095D01*
X126209066Y-48326843D01*
X126490286Y-48661988D01*
X126503261Y-48679090D01*
X126514498Y-48697382D01*
X126523887Y-48716686D01*
X126531340Y-48736819D01*
X126536783Y-48757584D01*
X126540164Y-48778783D01*
X126541451Y-48800212D01*
X126540632Y-48821663D01*
X126537714Y-48842931D01*
X126532725Y-48863811D01*
X126525714Y-48884101D01*
X126516748Y-48903606D01*
X126505913Y-48922138D01*
X126493314Y-48939519D01*
X126479072Y-48955581D01*
X126463324Y-48970170D01*
X126070726Y-49299599D01*
X126053624Y-49312574D01*
X126035332Y-49323811D01*
X126016028Y-49333200D01*
X125995895Y-49340653D01*
X125975130Y-49346095D01*
X125953931Y-49349477D01*
X125932502Y-49350764D01*
X125911051Y-49349945D01*
X125889783Y-49347027D01*
X125868903Y-49342038D01*
X125848614Y-49335027D01*
X125829109Y-49326061D01*
X125810576Y-49315226D01*
X125793195Y-49302627D01*
X125777133Y-49288385D01*
X125762544Y-49272637D01*
X125481324Y-48937492D01*
X125468349Y-48920390D01*
X125457112Y-48902098D01*
X125447723Y-48882794D01*
X125440270Y-48862661D01*
X125434827Y-48841896D01*
X125431446Y-48820697D01*
X125430159Y-48799268D01*
X125430978Y-48777817D01*
X125433896Y-48756549D01*
X125438885Y-48735669D01*
X125445896Y-48715379D01*
X125454862Y-48695874D01*
X125465697Y-48677342D01*
X125478296Y-48659961D01*
X125492538Y-48643899D01*
X125508286Y-48629310D01*
X125900884Y-48299881D01*
X125917986Y-48286906D01*
X125936278Y-48275669D01*
X125955582Y-48266280D01*
X125975715Y-48258827D01*
X125996480Y-48253385D01*
X126017679Y-48250003D01*
X126039108Y-48248716D01*
X126060559Y-48249535D01*
G37*
G36*
X127072949Y-49456055D02*
G01*
X127094217Y-49458973D01*
X127115097Y-49463962D01*
X127135386Y-49470973D01*
X127154891Y-49479939D01*
X127173424Y-49490774D01*
X127190805Y-49503373D01*
X127206867Y-49517615D01*
X127221456Y-49533363D01*
X127502676Y-49868508D01*
X127515651Y-49885610D01*
X127526888Y-49903902D01*
X127536277Y-49923206D01*
X127543730Y-49943339D01*
X127549173Y-49964104D01*
X127552554Y-49985303D01*
X127553841Y-50006732D01*
X127553022Y-50028183D01*
X127550104Y-50049451D01*
X127545115Y-50070331D01*
X127538104Y-50090621D01*
X127529138Y-50110126D01*
X127518303Y-50128658D01*
X127505704Y-50146039D01*
X127491462Y-50162101D01*
X127475714Y-50176690D01*
X127083116Y-50506119D01*
X127066014Y-50519094D01*
X127047722Y-50530331D01*
X127028418Y-50539720D01*
X127008285Y-50547173D01*
X126987520Y-50552615D01*
X126966321Y-50555997D01*
X126944892Y-50557284D01*
X126923441Y-50556465D01*
X126902173Y-50553547D01*
X126881293Y-50548558D01*
X126861004Y-50541547D01*
X126841499Y-50532581D01*
X126822966Y-50521746D01*
X126805585Y-50509147D01*
X126789523Y-50494905D01*
X126774934Y-50479157D01*
X126493714Y-50144012D01*
X126480739Y-50126910D01*
X126469502Y-50108618D01*
X126460113Y-50089314D01*
X126452660Y-50069181D01*
X126447217Y-50048416D01*
X126443836Y-50027217D01*
X126442549Y-50005788D01*
X126443368Y-49984337D01*
X126446286Y-49963069D01*
X126451275Y-49942189D01*
X126458286Y-49921899D01*
X126467252Y-49902394D01*
X126478087Y-49883862D01*
X126490686Y-49866481D01*
X126504928Y-49850419D01*
X126520676Y-49835830D01*
X126913274Y-49506401D01*
X126930376Y-49493426D01*
X126948668Y-49482189D01*
X126967972Y-49472800D01*
X126988105Y-49465347D01*
X127008870Y-49459905D01*
X127030069Y-49456523D01*
X127051498Y-49455236D01*
X127072949Y-49456055D01*
G37*
G36*
X124090691Y-24164053D02*
G01*
X124111926Y-24167203D01*
X124132750Y-24172419D01*
X124152962Y-24179651D01*
X124172368Y-24188830D01*
X124190781Y-24199866D01*
X124208024Y-24212654D01*
X124223930Y-24227070D01*
X124238346Y-24242976D01*
X124251134Y-24260219D01*
X124262170Y-24278632D01*
X124271349Y-24298038D01*
X124278581Y-24318250D01*
X124283797Y-24339074D01*
X124286947Y-24360309D01*
X124288000Y-24381750D01*
X124288000Y-24894250D01*
X124286947Y-24915691D01*
X124283797Y-24936926D01*
X124278581Y-24957750D01*
X124271349Y-24977962D01*
X124262170Y-24997368D01*
X124251134Y-25015781D01*
X124238346Y-25033024D01*
X124223930Y-25048930D01*
X124208024Y-25063346D01*
X124190781Y-25076134D01*
X124172368Y-25087170D01*
X124152962Y-25096349D01*
X124132750Y-25103581D01*
X124111926Y-25108797D01*
X124090691Y-25111947D01*
X124069250Y-25113000D01*
X123631750Y-25113000D01*
X123610309Y-25111947D01*
X123589074Y-25108797D01*
X123568250Y-25103581D01*
X123548038Y-25096349D01*
X123528632Y-25087170D01*
X123510219Y-25076134D01*
X123492976Y-25063346D01*
X123477070Y-25048930D01*
X123462654Y-25033024D01*
X123449866Y-25015781D01*
X123438830Y-24997368D01*
X123429651Y-24977962D01*
X123422419Y-24957750D01*
X123417203Y-24936926D01*
X123414053Y-24915691D01*
X123413000Y-24894250D01*
X123413000Y-24381750D01*
X123414053Y-24360309D01*
X123417203Y-24339074D01*
X123422419Y-24318250D01*
X123429651Y-24298038D01*
X123438830Y-24278632D01*
X123449866Y-24260219D01*
X123462654Y-24242976D01*
X123477070Y-24227070D01*
X123492976Y-24212654D01*
X123510219Y-24199866D01*
X123528632Y-24188830D01*
X123548038Y-24179651D01*
X123568250Y-24172419D01*
X123589074Y-24167203D01*
X123610309Y-24164053D01*
X123631750Y-24163000D01*
X124069250Y-24163000D01*
X124090691Y-24164053D01*
G37*
G36*
X122515691Y-24164053D02*
G01*
X122536926Y-24167203D01*
X122557750Y-24172419D01*
X122577962Y-24179651D01*
X122597368Y-24188830D01*
X122615781Y-24199866D01*
X122633024Y-24212654D01*
X122648930Y-24227070D01*
X122663346Y-24242976D01*
X122676134Y-24260219D01*
X122687170Y-24278632D01*
X122696349Y-24298038D01*
X122703581Y-24318250D01*
X122708797Y-24339074D01*
X122711947Y-24360309D01*
X122713000Y-24381750D01*
X122713000Y-24894250D01*
X122711947Y-24915691D01*
X122708797Y-24936926D01*
X122703581Y-24957750D01*
X122696349Y-24977962D01*
X122687170Y-24997368D01*
X122676134Y-25015781D01*
X122663346Y-25033024D01*
X122648930Y-25048930D01*
X122633024Y-25063346D01*
X122615781Y-25076134D01*
X122597368Y-25087170D01*
X122577962Y-25096349D01*
X122557750Y-25103581D01*
X122536926Y-25108797D01*
X122515691Y-25111947D01*
X122494250Y-25113000D01*
X122056750Y-25113000D01*
X122035309Y-25111947D01*
X122014074Y-25108797D01*
X121993250Y-25103581D01*
X121973038Y-25096349D01*
X121953632Y-25087170D01*
X121935219Y-25076134D01*
X121917976Y-25063346D01*
X121902070Y-25048930D01*
X121887654Y-25033024D01*
X121874866Y-25015781D01*
X121863830Y-24997368D01*
X121854651Y-24977962D01*
X121847419Y-24957750D01*
X121842203Y-24936926D01*
X121839053Y-24915691D01*
X121838000Y-24894250D01*
X121838000Y-24381750D01*
X121839053Y-24360309D01*
X121842203Y-24339074D01*
X121847419Y-24318250D01*
X121854651Y-24298038D01*
X121863830Y-24278632D01*
X121874866Y-24260219D01*
X121887654Y-24242976D01*
X121902070Y-24227070D01*
X121917976Y-24212654D01*
X121935219Y-24199866D01*
X121953632Y-24188830D01*
X121973038Y-24179651D01*
X121993250Y-24172419D01*
X122014074Y-24167203D01*
X122035309Y-24164053D01*
X122056750Y-24163000D01*
X122494250Y-24163000D01*
X122515691Y-24164053D01*
G37*
G36*
X119241287Y-31387367D02*
G01*
X119262639Y-31389588D01*
X119283671Y-31393891D01*
X119304179Y-31400234D01*
X119785771Y-31575519D01*
X119805559Y-31583842D01*
X119824436Y-31594065D01*
X119842220Y-31606089D01*
X119858739Y-31619798D01*
X119873836Y-31635060D01*
X119887364Y-31651728D01*
X119899193Y-31669642D01*
X119909209Y-31688629D01*
X119917316Y-31708507D01*
X119923435Y-31729083D01*
X119927508Y-31750160D01*
X119929496Y-31771535D01*
X119929379Y-31793002D01*
X119927158Y-31814354D01*
X119922855Y-31835385D01*
X119916512Y-31855894D01*
X119766878Y-32267009D01*
X119758555Y-32286797D01*
X119748332Y-32305674D01*
X119736308Y-32323458D01*
X119722599Y-32339977D01*
X119707337Y-32355074D01*
X119690669Y-32368602D01*
X119672755Y-32380431D01*
X119653768Y-32390447D01*
X119633890Y-32398554D01*
X119613314Y-32404673D01*
X119592236Y-32408746D01*
X119570862Y-32410734D01*
X119549395Y-32410617D01*
X119528043Y-32408396D01*
X119507011Y-32404093D01*
X119486503Y-32397750D01*
X119004911Y-32222465D01*
X118985123Y-32214142D01*
X118966246Y-32203919D01*
X118948462Y-32191895D01*
X118931943Y-32178186D01*
X118916846Y-32162924D01*
X118903318Y-32146256D01*
X118891489Y-32128342D01*
X118881473Y-32109355D01*
X118873366Y-32089477D01*
X118867247Y-32068901D01*
X118863174Y-32047824D01*
X118861186Y-32026449D01*
X118861303Y-32004982D01*
X118863524Y-31983630D01*
X118867827Y-31962599D01*
X118874170Y-31942090D01*
X119023804Y-31530975D01*
X119032127Y-31511187D01*
X119042350Y-31492310D01*
X119054374Y-31474526D01*
X119068083Y-31458007D01*
X119083345Y-31442910D01*
X119100013Y-31429382D01*
X119117927Y-31417553D01*
X119136914Y-31407537D01*
X119156792Y-31399430D01*
X119177368Y-31393311D01*
X119198446Y-31389238D01*
X119219820Y-31387250D01*
X119241287Y-31387367D01*
G37*
G36*
X118702605Y-32867383D02*
G01*
X118723957Y-32869604D01*
X118744989Y-32873907D01*
X118765497Y-32880250D01*
X119247089Y-33055535D01*
X119266877Y-33063858D01*
X119285754Y-33074081D01*
X119303538Y-33086105D01*
X119320057Y-33099814D01*
X119335154Y-33115076D01*
X119348682Y-33131744D01*
X119360511Y-33149658D01*
X119370527Y-33168645D01*
X119378634Y-33188523D01*
X119384753Y-33209099D01*
X119388826Y-33230176D01*
X119390814Y-33251551D01*
X119390697Y-33273018D01*
X119388476Y-33294370D01*
X119384173Y-33315401D01*
X119377830Y-33335910D01*
X119228196Y-33747025D01*
X119219873Y-33766813D01*
X119209650Y-33785690D01*
X119197626Y-33803474D01*
X119183917Y-33819993D01*
X119168655Y-33835090D01*
X119151987Y-33848618D01*
X119134073Y-33860447D01*
X119115086Y-33870463D01*
X119095208Y-33878570D01*
X119074632Y-33884689D01*
X119053554Y-33888762D01*
X119032180Y-33890750D01*
X119010713Y-33890633D01*
X118989361Y-33888412D01*
X118968329Y-33884109D01*
X118947821Y-33877766D01*
X118466229Y-33702481D01*
X118446441Y-33694158D01*
X118427564Y-33683935D01*
X118409780Y-33671911D01*
X118393261Y-33658202D01*
X118378164Y-33642940D01*
X118364636Y-33626272D01*
X118352807Y-33608358D01*
X118342791Y-33589371D01*
X118334684Y-33569493D01*
X118328565Y-33548917D01*
X118324492Y-33527840D01*
X118322504Y-33506465D01*
X118322621Y-33484998D01*
X118324842Y-33463646D01*
X118329145Y-33442615D01*
X118335488Y-33422106D01*
X118485122Y-33010991D01*
X118493445Y-32991203D01*
X118503668Y-32972326D01*
X118515692Y-32954542D01*
X118529401Y-32938023D01*
X118544663Y-32922926D01*
X118561331Y-32909398D01*
X118579245Y-32897569D01*
X118598232Y-32887553D01*
X118618110Y-32879446D01*
X118638686Y-32873327D01*
X118659764Y-32869254D01*
X118681138Y-32867266D01*
X118702605Y-32867383D01*
G37*
G36*
X119452907Y-39782307D02*
G01*
X119474259Y-39784528D01*
X119495290Y-39788831D01*
X119515799Y-39795174D01*
X119535587Y-39803497D01*
X119554464Y-39813720D01*
X119572248Y-39825744D01*
X119588767Y-39839453D01*
X119603864Y-39854715D01*
X119617392Y-39871383D01*
X119629221Y-39889297D01*
X119639237Y-39908285D01*
X119824132Y-40304795D01*
X119832239Y-40324672D01*
X119838358Y-40345248D01*
X119842431Y-40366326D01*
X119844419Y-40387701D01*
X119844302Y-40409167D01*
X119842081Y-40430519D01*
X119837778Y-40451551D01*
X119831435Y-40472059D01*
X119823111Y-40491847D01*
X119812889Y-40510724D01*
X119800865Y-40528508D01*
X119787156Y-40545028D01*
X119771894Y-40560124D01*
X119755226Y-40573652D01*
X119737312Y-40585481D01*
X119718325Y-40595497D01*
X119253842Y-40812089D01*
X119233964Y-40820196D01*
X119213388Y-40826315D01*
X119192311Y-40830388D01*
X119170936Y-40832376D01*
X119149469Y-40832259D01*
X119128117Y-40830038D01*
X119107086Y-40825735D01*
X119086577Y-40819392D01*
X119066789Y-40811069D01*
X119047912Y-40800846D01*
X119030128Y-40788822D01*
X119013609Y-40775113D01*
X118998512Y-40759851D01*
X118984984Y-40743183D01*
X118973155Y-40725269D01*
X118963139Y-40706281D01*
X118778244Y-40309771D01*
X118770137Y-40289894D01*
X118764018Y-40269318D01*
X118759945Y-40248240D01*
X118757957Y-40226865D01*
X118758074Y-40205399D01*
X118760295Y-40184047D01*
X118764598Y-40163015D01*
X118770941Y-40142507D01*
X118779265Y-40122719D01*
X118789487Y-40103842D01*
X118801511Y-40086058D01*
X118815220Y-40069538D01*
X118830482Y-40054442D01*
X118847150Y-40040914D01*
X118865064Y-40029085D01*
X118884051Y-40019069D01*
X119348534Y-39802477D01*
X119368412Y-39794370D01*
X119388988Y-39788251D01*
X119410065Y-39784178D01*
X119431440Y-39782190D01*
X119452907Y-39782307D01*
G37*
G36*
X120118531Y-41209741D02*
G01*
X120139883Y-41211962D01*
X120160914Y-41216265D01*
X120181423Y-41222608D01*
X120201211Y-41230931D01*
X120220088Y-41241154D01*
X120237872Y-41253178D01*
X120254391Y-41266887D01*
X120269488Y-41282149D01*
X120283016Y-41298817D01*
X120294845Y-41316731D01*
X120304861Y-41335719D01*
X120489756Y-41732229D01*
X120497863Y-41752106D01*
X120503982Y-41772682D01*
X120508055Y-41793760D01*
X120510043Y-41815135D01*
X120509926Y-41836601D01*
X120507705Y-41857953D01*
X120503402Y-41878985D01*
X120497059Y-41899493D01*
X120488735Y-41919281D01*
X120478513Y-41938158D01*
X120466489Y-41955942D01*
X120452780Y-41972462D01*
X120437518Y-41987558D01*
X120420850Y-42001086D01*
X120402936Y-42012915D01*
X120383949Y-42022931D01*
X119919466Y-42239523D01*
X119899588Y-42247630D01*
X119879012Y-42253749D01*
X119857935Y-42257822D01*
X119836560Y-42259810D01*
X119815093Y-42259693D01*
X119793741Y-42257472D01*
X119772710Y-42253169D01*
X119752201Y-42246826D01*
X119732413Y-42238503D01*
X119713536Y-42228280D01*
X119695752Y-42216256D01*
X119679233Y-42202547D01*
X119664136Y-42187285D01*
X119650608Y-42170617D01*
X119638779Y-42152703D01*
X119628763Y-42133715D01*
X119443868Y-41737205D01*
X119435761Y-41717328D01*
X119429642Y-41696752D01*
X119425569Y-41675674D01*
X119423581Y-41654299D01*
X119423698Y-41632833D01*
X119425919Y-41611481D01*
X119430222Y-41590449D01*
X119436565Y-41569941D01*
X119444889Y-41550153D01*
X119455111Y-41531276D01*
X119467135Y-41513492D01*
X119480844Y-41496972D01*
X119496106Y-41481876D01*
X119512774Y-41468348D01*
X119530688Y-41456519D01*
X119549675Y-41446503D01*
X120014158Y-41229911D01*
X120034036Y-41221804D01*
X120054612Y-41215685D01*
X120075689Y-41211612D01*
X120097064Y-41209624D01*
X120118531Y-41209741D01*
G37*
G36*
X121230907Y-58578307D02*
G01*
X121252259Y-58580528D01*
X121273290Y-58584831D01*
X121293799Y-58591174D01*
X121313587Y-58599497D01*
X121332464Y-58609720D01*
X121350248Y-58621744D01*
X121366767Y-58635453D01*
X121381864Y-58650715D01*
X121395392Y-58667383D01*
X121407221Y-58685297D01*
X121417237Y-58704285D01*
X121602132Y-59100795D01*
X121610239Y-59120672D01*
X121616358Y-59141248D01*
X121620431Y-59162326D01*
X121622419Y-59183701D01*
X121622302Y-59205167D01*
X121620081Y-59226519D01*
X121615778Y-59247551D01*
X121609435Y-59268059D01*
X121601111Y-59287847D01*
X121590889Y-59306724D01*
X121578865Y-59324508D01*
X121565156Y-59341028D01*
X121549894Y-59356124D01*
X121533226Y-59369652D01*
X121515312Y-59381481D01*
X121496325Y-59391497D01*
X121031842Y-59608089D01*
X121011964Y-59616196D01*
X120991388Y-59622315D01*
X120970311Y-59626388D01*
X120948936Y-59628376D01*
X120927469Y-59628259D01*
X120906117Y-59626038D01*
X120885086Y-59621735D01*
X120864577Y-59615392D01*
X120844789Y-59607069D01*
X120825912Y-59596846D01*
X120808128Y-59584822D01*
X120791609Y-59571113D01*
X120776512Y-59555851D01*
X120762984Y-59539183D01*
X120751155Y-59521269D01*
X120741139Y-59502281D01*
X120556244Y-59105771D01*
X120548137Y-59085894D01*
X120542018Y-59065318D01*
X120537945Y-59044240D01*
X120535957Y-59022865D01*
X120536074Y-59001399D01*
X120538295Y-58980047D01*
X120542598Y-58959015D01*
X120548941Y-58938507D01*
X120557265Y-58918719D01*
X120567487Y-58899842D01*
X120579511Y-58882058D01*
X120593220Y-58865538D01*
X120608482Y-58850442D01*
X120625150Y-58836914D01*
X120643064Y-58825085D01*
X120662051Y-58815069D01*
X121126534Y-58598477D01*
X121146412Y-58590370D01*
X121166988Y-58584251D01*
X121188065Y-58580178D01*
X121209440Y-58578190D01*
X121230907Y-58578307D01*
G37*
G36*
X121896531Y-60005741D02*
G01*
X121917883Y-60007962D01*
X121938914Y-60012265D01*
X121959423Y-60018608D01*
X121979211Y-60026931D01*
X121998088Y-60037154D01*
X122015872Y-60049178D01*
X122032391Y-60062887D01*
X122047488Y-60078149D01*
X122061016Y-60094817D01*
X122072845Y-60112731D01*
X122082861Y-60131719D01*
X122267756Y-60528229D01*
X122275863Y-60548106D01*
X122281982Y-60568682D01*
X122286055Y-60589760D01*
X122288043Y-60611135D01*
X122287926Y-60632601D01*
X122285705Y-60653953D01*
X122281402Y-60674985D01*
X122275059Y-60695493D01*
X122266735Y-60715281D01*
X122256513Y-60734158D01*
X122244489Y-60751942D01*
X122230780Y-60768462D01*
X122215518Y-60783558D01*
X122198850Y-60797086D01*
X122180936Y-60808915D01*
X122161949Y-60818931D01*
X121697466Y-61035523D01*
X121677588Y-61043630D01*
X121657012Y-61049749D01*
X121635935Y-61053822D01*
X121614560Y-61055810D01*
X121593093Y-61055693D01*
X121571741Y-61053472D01*
X121550710Y-61049169D01*
X121530201Y-61042826D01*
X121510413Y-61034503D01*
X121491536Y-61024280D01*
X121473752Y-61012256D01*
X121457233Y-60998547D01*
X121442136Y-60983285D01*
X121428608Y-60966617D01*
X121416779Y-60948703D01*
X121406763Y-60929715D01*
X121221868Y-60533205D01*
X121213761Y-60513328D01*
X121207642Y-60492752D01*
X121203569Y-60471674D01*
X121201581Y-60450299D01*
X121201698Y-60428833D01*
X121203919Y-60407481D01*
X121208222Y-60386449D01*
X121214565Y-60365941D01*
X121222889Y-60346153D01*
X121233111Y-60327276D01*
X121245135Y-60309492D01*
X121258844Y-60292972D01*
X121274106Y-60277876D01*
X121290774Y-60264348D01*
X121308688Y-60252519D01*
X121327675Y-60242503D01*
X121792158Y-60025911D01*
X121812036Y-60017804D01*
X121832612Y-60011685D01*
X121853689Y-60007612D01*
X121875064Y-60005624D01*
X121896531Y-60005741D01*
G37*
G36*
X114290183Y-28910978D02*
G01*
X114311451Y-28913896D01*
X114332331Y-28918885D01*
X114352621Y-28925896D01*
X114372126Y-28934862D01*
X114390658Y-28945697D01*
X114408039Y-28958296D01*
X114424101Y-28972538D01*
X114438690Y-28988286D01*
X114768119Y-29380884D01*
X114781094Y-29397986D01*
X114792331Y-29416278D01*
X114801720Y-29435582D01*
X114809173Y-29455715D01*
X114814615Y-29476480D01*
X114817997Y-29497679D01*
X114819284Y-29519108D01*
X114818465Y-29540559D01*
X114815547Y-29561827D01*
X114810558Y-29582707D01*
X114803547Y-29602996D01*
X114794581Y-29622501D01*
X114783746Y-29641034D01*
X114771147Y-29658415D01*
X114756905Y-29674477D01*
X114741157Y-29689066D01*
X114406012Y-29970286D01*
X114388910Y-29983261D01*
X114370618Y-29994498D01*
X114351314Y-30003887D01*
X114331181Y-30011340D01*
X114310416Y-30016783D01*
X114289217Y-30020164D01*
X114267788Y-30021451D01*
X114246337Y-30020632D01*
X114225069Y-30017714D01*
X114204189Y-30012725D01*
X114183899Y-30005714D01*
X114164394Y-29996748D01*
X114145862Y-29985913D01*
X114128481Y-29973314D01*
X114112419Y-29959072D01*
X114097830Y-29943324D01*
X113768401Y-29550726D01*
X113755426Y-29533624D01*
X113744189Y-29515332D01*
X113734800Y-29496028D01*
X113727347Y-29475895D01*
X113721905Y-29455130D01*
X113718523Y-29433931D01*
X113717236Y-29412502D01*
X113718055Y-29391051D01*
X113720973Y-29369783D01*
X113725962Y-29348903D01*
X113732973Y-29328614D01*
X113741939Y-29309109D01*
X113752774Y-29290576D01*
X113765373Y-29273195D01*
X113779615Y-29257133D01*
X113795363Y-29242544D01*
X114130508Y-28961324D01*
X114147610Y-28948349D01*
X114165902Y-28937112D01*
X114185206Y-28927723D01*
X114205339Y-28920270D01*
X114226104Y-28914827D01*
X114247303Y-28911446D01*
X114268732Y-28910159D01*
X114290183Y-28910978D01*
G37*
G36*
X113083663Y-29923368D02*
G01*
X113104931Y-29926286D01*
X113125811Y-29931275D01*
X113146101Y-29938286D01*
X113165606Y-29947252D01*
X113184138Y-29958087D01*
X113201519Y-29970686D01*
X113217581Y-29984928D01*
X113232170Y-30000676D01*
X113561599Y-30393274D01*
X113574574Y-30410376D01*
X113585811Y-30428668D01*
X113595200Y-30447972D01*
X113602653Y-30468105D01*
X113608095Y-30488870D01*
X113611477Y-30510069D01*
X113612764Y-30531498D01*
X113611945Y-30552949D01*
X113609027Y-30574217D01*
X113604038Y-30595097D01*
X113597027Y-30615386D01*
X113588061Y-30634891D01*
X113577226Y-30653424D01*
X113564627Y-30670805D01*
X113550385Y-30686867D01*
X113534637Y-30701456D01*
X113199492Y-30982676D01*
X113182390Y-30995651D01*
X113164098Y-31006888D01*
X113144794Y-31016277D01*
X113124661Y-31023730D01*
X113103896Y-31029173D01*
X113082697Y-31032554D01*
X113061268Y-31033841D01*
X113039817Y-31033022D01*
X113018549Y-31030104D01*
X112997669Y-31025115D01*
X112977379Y-31018104D01*
X112957874Y-31009138D01*
X112939342Y-30998303D01*
X112921961Y-30985704D01*
X112905899Y-30971462D01*
X112891310Y-30955714D01*
X112561881Y-30563116D01*
X112548906Y-30546014D01*
X112537669Y-30527722D01*
X112528280Y-30508418D01*
X112520827Y-30488285D01*
X112515385Y-30467520D01*
X112512003Y-30446321D01*
X112510716Y-30424892D01*
X112511535Y-30403441D01*
X112514453Y-30382173D01*
X112519442Y-30361293D01*
X112526453Y-30341004D01*
X112535419Y-30321499D01*
X112546254Y-30302966D01*
X112558853Y-30285585D01*
X112573095Y-30269523D01*
X112588843Y-30254934D01*
X112923988Y-29973714D01*
X112941090Y-29960739D01*
X112959382Y-29949502D01*
X112978686Y-29940113D01*
X112998819Y-29932660D01*
X113019584Y-29927217D01*
X113040783Y-29923836D01*
X113062212Y-29922549D01*
X113083663Y-29923368D01*
G37*
G36*
X110810065Y-41037427D02*
G01*
X110831363Y-41040113D01*
X111336077Y-41129108D01*
X111357009Y-41133869D01*
X111377374Y-41140658D01*
X111396976Y-41149411D01*
X111415625Y-41160043D01*
X111433143Y-41172452D01*
X111449360Y-41186518D01*
X111464120Y-41202106D01*
X111477281Y-41219065D01*
X111488716Y-41237233D01*
X111498315Y-41256434D01*
X111505987Y-41276484D01*
X111511656Y-41297189D01*
X111515268Y-41318350D01*
X111516789Y-41339763D01*
X111516204Y-41361222D01*
X111513518Y-41382521D01*
X111437546Y-41813374D01*
X111432785Y-41834307D01*
X111425996Y-41854672D01*
X111417243Y-41874273D01*
X111406611Y-41892923D01*
X111394202Y-41910440D01*
X111380136Y-41926657D01*
X111364548Y-41941417D01*
X111347588Y-41954578D01*
X111329421Y-41966013D01*
X111310219Y-41975613D01*
X111290170Y-41983284D01*
X111269465Y-41988953D01*
X111248304Y-41992565D01*
X111226891Y-41994086D01*
X111205431Y-41993501D01*
X111184133Y-41990815D01*
X110679419Y-41901820D01*
X110658487Y-41897059D01*
X110638122Y-41890270D01*
X110618520Y-41881517D01*
X110599871Y-41870885D01*
X110582353Y-41858476D01*
X110566136Y-41844410D01*
X110551376Y-41828822D01*
X110538215Y-41811863D01*
X110526780Y-41793695D01*
X110517181Y-41774494D01*
X110509509Y-41754444D01*
X110503840Y-41733739D01*
X110500228Y-41712578D01*
X110498707Y-41691165D01*
X110499292Y-41669706D01*
X110501978Y-41648407D01*
X110577950Y-41217554D01*
X110582711Y-41196621D01*
X110589500Y-41176256D01*
X110598253Y-41156655D01*
X110608885Y-41138005D01*
X110621294Y-41120488D01*
X110635360Y-41104271D01*
X110650948Y-41089511D01*
X110667908Y-41076350D01*
X110686075Y-41064915D01*
X110705277Y-41055315D01*
X110725326Y-41047644D01*
X110746031Y-41041975D01*
X110767192Y-41038363D01*
X110788605Y-41036842D01*
X110810065Y-41037427D01*
G37*
G36*
X110536569Y-42588499D02*
G01*
X110557867Y-42591185D01*
X111062581Y-42680180D01*
X111083513Y-42684941D01*
X111103878Y-42691730D01*
X111123480Y-42700483D01*
X111142129Y-42711115D01*
X111159647Y-42723524D01*
X111175864Y-42737590D01*
X111190624Y-42753178D01*
X111203785Y-42770137D01*
X111215220Y-42788305D01*
X111224819Y-42807506D01*
X111232491Y-42827556D01*
X111238160Y-42848261D01*
X111241772Y-42869422D01*
X111243293Y-42890835D01*
X111242708Y-42912294D01*
X111240022Y-42933593D01*
X111164050Y-43364446D01*
X111159289Y-43385379D01*
X111152500Y-43405744D01*
X111143747Y-43425345D01*
X111133115Y-43443995D01*
X111120706Y-43461512D01*
X111106640Y-43477729D01*
X111091052Y-43492489D01*
X111074092Y-43505650D01*
X111055925Y-43517085D01*
X111036723Y-43526685D01*
X111016674Y-43534356D01*
X110995969Y-43540025D01*
X110974808Y-43543637D01*
X110953395Y-43545158D01*
X110931935Y-43544573D01*
X110910637Y-43541887D01*
X110405923Y-43452892D01*
X110384991Y-43448131D01*
X110364626Y-43441342D01*
X110345024Y-43432589D01*
X110326375Y-43421957D01*
X110308857Y-43409548D01*
X110292640Y-43395482D01*
X110277880Y-43379894D01*
X110264719Y-43362935D01*
X110253284Y-43344767D01*
X110243685Y-43325566D01*
X110236013Y-43305516D01*
X110230344Y-43284811D01*
X110226732Y-43263650D01*
X110225211Y-43242237D01*
X110225796Y-43220778D01*
X110228482Y-43199479D01*
X110304454Y-42768626D01*
X110309215Y-42747693D01*
X110316004Y-42727328D01*
X110324757Y-42707727D01*
X110335389Y-42689077D01*
X110347798Y-42671560D01*
X110361864Y-42655343D01*
X110377452Y-42640583D01*
X110394412Y-42627422D01*
X110412579Y-42615987D01*
X110431781Y-42606387D01*
X110451830Y-42598716D01*
X110472535Y-42593047D01*
X110493696Y-42589435D01*
X110515109Y-42587914D01*
X110536569Y-42588499D01*
G37*
G36*
X120546691Y-72563053D02*
G01*
X120567926Y-72566203D01*
X120588750Y-72571419D01*
X120608962Y-72578651D01*
X120628368Y-72587830D01*
X120646781Y-72598866D01*
X120664024Y-72611654D01*
X120679930Y-72626070D01*
X120694346Y-72641976D01*
X120707134Y-72659219D01*
X120718170Y-72677632D01*
X120727349Y-72697038D01*
X120734581Y-72717250D01*
X120739797Y-72738074D01*
X120742947Y-72759309D01*
X120744000Y-72780750D01*
X120744000Y-73218250D01*
X120742947Y-73239691D01*
X120739797Y-73260926D01*
X120734581Y-73281750D01*
X120727349Y-73301962D01*
X120718170Y-73321368D01*
X120707134Y-73339781D01*
X120694346Y-73357024D01*
X120679930Y-73372930D01*
X120664024Y-73387346D01*
X120646781Y-73400134D01*
X120628368Y-73411170D01*
X120608962Y-73420349D01*
X120588750Y-73427581D01*
X120567926Y-73432797D01*
X120546691Y-73435947D01*
X120525250Y-73437000D01*
X120012750Y-73437000D01*
X119991309Y-73435947D01*
X119970074Y-73432797D01*
X119949250Y-73427581D01*
X119929038Y-73420349D01*
X119909632Y-73411170D01*
X119891219Y-73400134D01*
X119873976Y-73387346D01*
X119858070Y-73372930D01*
X119843654Y-73357024D01*
X119830866Y-73339781D01*
X119819830Y-73321368D01*
X119810651Y-73301962D01*
X119803419Y-73281750D01*
X119798203Y-73260926D01*
X119795053Y-73239691D01*
X119794000Y-73218250D01*
X119794000Y-72780750D01*
X119795053Y-72759309D01*
X119798203Y-72738074D01*
X119803419Y-72717250D01*
X119810651Y-72697038D01*
X119819830Y-72677632D01*
X119830866Y-72659219D01*
X119843654Y-72641976D01*
X119858070Y-72626070D01*
X119873976Y-72611654D01*
X119891219Y-72598866D01*
X119909632Y-72587830D01*
X119929038Y-72578651D01*
X119949250Y-72571419D01*
X119970074Y-72566203D01*
X119991309Y-72563053D01*
X120012750Y-72562000D01*
X120525250Y-72562000D01*
X120546691Y-72563053D01*
G37*
G36*
X120546691Y-74138053D02*
G01*
X120567926Y-74141203D01*
X120588750Y-74146419D01*
X120608962Y-74153651D01*
X120628368Y-74162830D01*
X120646781Y-74173866D01*
X120664024Y-74186654D01*
X120679930Y-74201070D01*
X120694346Y-74216976D01*
X120707134Y-74234219D01*
X120718170Y-74252632D01*
X120727349Y-74272038D01*
X120734581Y-74292250D01*
X120739797Y-74313074D01*
X120742947Y-74334309D01*
X120744000Y-74355750D01*
X120744000Y-74793250D01*
X120742947Y-74814691D01*
X120739797Y-74835926D01*
X120734581Y-74856750D01*
X120727349Y-74876962D01*
X120718170Y-74896368D01*
X120707134Y-74914781D01*
X120694346Y-74932024D01*
X120679930Y-74947930D01*
X120664024Y-74962346D01*
X120646781Y-74975134D01*
X120628368Y-74986170D01*
X120608962Y-74995349D01*
X120588750Y-75002581D01*
X120567926Y-75007797D01*
X120546691Y-75010947D01*
X120525250Y-75012000D01*
X120012750Y-75012000D01*
X119991309Y-75010947D01*
X119970074Y-75007797D01*
X119949250Y-75002581D01*
X119929038Y-74995349D01*
X119909632Y-74986170D01*
X119891219Y-74975134D01*
X119873976Y-74962346D01*
X119858070Y-74947930D01*
X119843654Y-74932024D01*
X119830866Y-74914781D01*
X119819830Y-74896368D01*
X119810651Y-74876962D01*
X119803419Y-74856750D01*
X119798203Y-74835926D01*
X119795053Y-74814691D01*
X119794000Y-74793250D01*
X119794000Y-74355750D01*
X119795053Y-74334309D01*
X119798203Y-74313074D01*
X119803419Y-74292250D01*
X119810651Y-74272038D01*
X119819830Y-74252632D01*
X119830866Y-74234219D01*
X119843654Y-74216976D01*
X119858070Y-74201070D01*
X119873976Y-74186654D01*
X119891219Y-74173866D01*
X119909632Y-74162830D01*
X119929038Y-74153651D01*
X119949250Y-74146419D01*
X119970074Y-74141203D01*
X119991309Y-74138053D01*
X120012750Y-74137000D01*
X120525250Y-74137000D01*
X120546691Y-74138053D01*
G37*
G36*
X110640691Y-49068053D02*
G01*
X110661926Y-49071203D01*
X110682750Y-49076419D01*
X110702962Y-49083651D01*
X110722368Y-49092830D01*
X110740781Y-49103866D01*
X110758024Y-49116654D01*
X110773930Y-49131070D01*
X110788346Y-49146976D01*
X110801134Y-49164219D01*
X110812170Y-49182632D01*
X110821349Y-49202038D01*
X110828581Y-49222250D01*
X110833797Y-49243074D01*
X110836947Y-49264309D01*
X110838000Y-49285750D01*
X110838000Y-49723250D01*
X110836947Y-49744691D01*
X110833797Y-49765926D01*
X110828581Y-49786750D01*
X110821349Y-49806962D01*
X110812170Y-49826368D01*
X110801134Y-49844781D01*
X110788346Y-49862024D01*
X110773930Y-49877930D01*
X110758024Y-49892346D01*
X110740781Y-49905134D01*
X110722368Y-49916170D01*
X110702962Y-49925349D01*
X110682750Y-49932581D01*
X110661926Y-49937797D01*
X110640691Y-49940947D01*
X110619250Y-49942000D01*
X110106750Y-49942000D01*
X110085309Y-49940947D01*
X110064074Y-49937797D01*
X110043250Y-49932581D01*
X110023038Y-49925349D01*
X110003632Y-49916170D01*
X109985219Y-49905134D01*
X109967976Y-49892346D01*
X109952070Y-49877930D01*
X109937654Y-49862024D01*
X109924866Y-49844781D01*
X109913830Y-49826368D01*
X109904651Y-49806962D01*
X109897419Y-49786750D01*
X109892203Y-49765926D01*
X109889053Y-49744691D01*
X109888000Y-49723250D01*
X109888000Y-49285750D01*
X109889053Y-49264309D01*
X109892203Y-49243074D01*
X109897419Y-49222250D01*
X109904651Y-49202038D01*
X109913830Y-49182632D01*
X109924866Y-49164219D01*
X109937654Y-49146976D01*
X109952070Y-49131070D01*
X109967976Y-49116654D01*
X109985219Y-49103866D01*
X110003632Y-49092830D01*
X110023038Y-49083651D01*
X110043250Y-49076419D01*
X110064074Y-49071203D01*
X110085309Y-49068053D01*
X110106750Y-49067000D01*
X110619250Y-49067000D01*
X110640691Y-49068053D01*
G37*
G36*
X110640691Y-50643053D02*
G01*
X110661926Y-50646203D01*
X110682750Y-50651419D01*
X110702962Y-50658651D01*
X110722368Y-50667830D01*
X110740781Y-50678866D01*
X110758024Y-50691654D01*
X110773930Y-50706070D01*
X110788346Y-50721976D01*
X110801134Y-50739219D01*
X110812170Y-50757632D01*
X110821349Y-50777038D01*
X110828581Y-50797250D01*
X110833797Y-50818074D01*
X110836947Y-50839309D01*
X110838000Y-50860750D01*
X110838000Y-51298250D01*
X110836947Y-51319691D01*
X110833797Y-51340926D01*
X110828581Y-51361750D01*
X110821349Y-51381962D01*
X110812170Y-51401368D01*
X110801134Y-51419781D01*
X110788346Y-51437024D01*
X110773930Y-51452930D01*
X110758024Y-51467346D01*
X110740781Y-51480134D01*
X110722368Y-51491170D01*
X110702962Y-51500349D01*
X110682750Y-51507581D01*
X110661926Y-51512797D01*
X110640691Y-51515947D01*
X110619250Y-51517000D01*
X110106750Y-51517000D01*
X110085309Y-51515947D01*
X110064074Y-51512797D01*
X110043250Y-51507581D01*
X110023038Y-51500349D01*
X110003632Y-51491170D01*
X109985219Y-51480134D01*
X109967976Y-51467346D01*
X109952070Y-51452930D01*
X109937654Y-51437024D01*
X109924866Y-51419781D01*
X109913830Y-51401368D01*
X109904651Y-51381962D01*
X109897419Y-51361750D01*
X109892203Y-51340926D01*
X109889053Y-51319691D01*
X109888000Y-51298250D01*
X109888000Y-50860750D01*
X109889053Y-50839309D01*
X109892203Y-50818074D01*
X109897419Y-50797250D01*
X109904651Y-50777038D01*
X109913830Y-50757632D01*
X109924866Y-50739219D01*
X109937654Y-50721976D01*
X109952070Y-50706070D01*
X109967976Y-50691654D01*
X109985219Y-50678866D01*
X110003632Y-50667830D01*
X110023038Y-50658651D01*
X110043250Y-50651419D01*
X110064074Y-50646203D01*
X110085309Y-50643053D01*
X110106750Y-50642000D01*
X110619250Y-50642000D01*
X110640691Y-50643053D01*
G37*
G36*
X112086907Y-55276307D02*
G01*
X112108259Y-55278528D01*
X112129290Y-55282831D01*
X112149799Y-55289174D01*
X112169587Y-55297497D01*
X112188464Y-55307720D01*
X112206248Y-55319744D01*
X112222767Y-55333453D01*
X112237864Y-55348715D01*
X112251392Y-55365383D01*
X112263221Y-55383297D01*
X112273237Y-55402285D01*
X112458132Y-55798795D01*
X112466239Y-55818672D01*
X112472358Y-55839248D01*
X112476431Y-55860326D01*
X112478419Y-55881701D01*
X112478302Y-55903167D01*
X112476081Y-55924519D01*
X112471778Y-55945551D01*
X112465435Y-55966059D01*
X112457111Y-55985847D01*
X112446889Y-56004724D01*
X112434865Y-56022508D01*
X112421156Y-56039028D01*
X112405894Y-56054124D01*
X112389226Y-56067652D01*
X112371312Y-56079481D01*
X112352325Y-56089497D01*
X111887842Y-56306089D01*
X111867964Y-56314196D01*
X111847388Y-56320315D01*
X111826311Y-56324388D01*
X111804936Y-56326376D01*
X111783469Y-56326259D01*
X111762117Y-56324038D01*
X111741086Y-56319735D01*
X111720577Y-56313392D01*
X111700789Y-56305069D01*
X111681912Y-56294846D01*
X111664128Y-56282822D01*
X111647609Y-56269113D01*
X111632512Y-56253851D01*
X111618984Y-56237183D01*
X111607155Y-56219269D01*
X111597139Y-56200281D01*
X111412244Y-55803771D01*
X111404137Y-55783894D01*
X111398018Y-55763318D01*
X111393945Y-55742240D01*
X111391957Y-55720865D01*
X111392074Y-55699399D01*
X111394295Y-55678047D01*
X111398598Y-55657015D01*
X111404941Y-55636507D01*
X111413265Y-55616719D01*
X111423487Y-55597842D01*
X111435511Y-55580058D01*
X111449220Y-55563538D01*
X111464482Y-55548442D01*
X111481150Y-55534914D01*
X111499064Y-55523085D01*
X111518051Y-55513069D01*
X111982534Y-55296477D01*
X112002412Y-55288370D01*
X112022988Y-55282251D01*
X112044065Y-55278178D01*
X112065440Y-55276190D01*
X112086907Y-55276307D01*
G37*
G36*
X112752531Y-56703741D02*
G01*
X112773883Y-56705962D01*
X112794914Y-56710265D01*
X112815423Y-56716608D01*
X112835211Y-56724931D01*
X112854088Y-56735154D01*
X112871872Y-56747178D01*
X112888391Y-56760887D01*
X112903488Y-56776149D01*
X112917016Y-56792817D01*
X112928845Y-56810731D01*
X112938861Y-56829719D01*
X113123756Y-57226229D01*
X113131863Y-57246106D01*
X113137982Y-57266682D01*
X113142055Y-57287760D01*
X113144043Y-57309135D01*
X113143926Y-57330601D01*
X113141705Y-57351953D01*
X113137402Y-57372985D01*
X113131059Y-57393493D01*
X113122735Y-57413281D01*
X113112513Y-57432158D01*
X113100489Y-57449942D01*
X113086780Y-57466462D01*
X113071518Y-57481558D01*
X113054850Y-57495086D01*
X113036936Y-57506915D01*
X113017949Y-57516931D01*
X112553466Y-57733523D01*
X112533588Y-57741630D01*
X112513012Y-57747749D01*
X112491935Y-57751822D01*
X112470560Y-57753810D01*
X112449093Y-57753693D01*
X112427741Y-57751472D01*
X112406710Y-57747169D01*
X112386201Y-57740826D01*
X112366413Y-57732503D01*
X112347536Y-57722280D01*
X112329752Y-57710256D01*
X112313233Y-57696547D01*
X112298136Y-57681285D01*
X112284608Y-57664617D01*
X112272779Y-57646703D01*
X112262763Y-57627715D01*
X112077868Y-57231205D01*
X112069761Y-57211328D01*
X112063642Y-57190752D01*
X112059569Y-57169674D01*
X112057581Y-57148299D01*
X112057698Y-57126833D01*
X112059919Y-57105481D01*
X112064222Y-57084449D01*
X112070565Y-57063941D01*
X112078889Y-57044153D01*
X112089111Y-57025276D01*
X112101135Y-57007492D01*
X112114844Y-56990972D01*
X112130106Y-56975876D01*
X112146774Y-56962348D01*
X112164688Y-56950519D01*
X112183675Y-56940503D01*
X112648158Y-56723911D01*
X112668036Y-56715804D01*
X112688612Y-56709685D01*
X112709689Y-56705612D01*
X112731064Y-56703624D01*
X112752531Y-56703741D01*
G37*
G36*
X111623183Y-64089978D02*
G01*
X111644451Y-64092896D01*
X111665331Y-64097885D01*
X111685621Y-64104896D01*
X111705126Y-64113862D01*
X111723658Y-64124697D01*
X111741039Y-64137296D01*
X111757101Y-64151538D01*
X111771690Y-64167286D01*
X112101119Y-64559884D01*
X112114094Y-64576986D01*
X112125331Y-64595278D01*
X112134720Y-64614582D01*
X112142173Y-64634715D01*
X112147615Y-64655480D01*
X112150997Y-64676679D01*
X112152284Y-64698108D01*
X112151465Y-64719559D01*
X112148547Y-64740827D01*
X112143558Y-64761707D01*
X112136547Y-64781996D01*
X112127581Y-64801501D01*
X112116746Y-64820034D01*
X112104147Y-64837415D01*
X112089905Y-64853477D01*
X112074157Y-64868066D01*
X111739012Y-65149286D01*
X111721910Y-65162261D01*
X111703618Y-65173498D01*
X111684314Y-65182887D01*
X111664181Y-65190340D01*
X111643416Y-65195783D01*
X111622217Y-65199164D01*
X111600788Y-65200451D01*
X111579337Y-65199632D01*
X111558069Y-65196714D01*
X111537189Y-65191725D01*
X111516899Y-65184714D01*
X111497394Y-65175748D01*
X111478862Y-65164913D01*
X111461481Y-65152314D01*
X111445419Y-65138072D01*
X111430830Y-65122324D01*
X111101401Y-64729726D01*
X111088426Y-64712624D01*
X111077189Y-64694332D01*
X111067800Y-64675028D01*
X111060347Y-64654895D01*
X111054905Y-64634130D01*
X111051523Y-64612931D01*
X111050236Y-64591502D01*
X111051055Y-64570051D01*
X111053973Y-64548783D01*
X111058962Y-64527903D01*
X111065973Y-64507614D01*
X111074939Y-64488109D01*
X111085774Y-64469576D01*
X111098373Y-64452195D01*
X111112615Y-64436133D01*
X111128363Y-64421544D01*
X111463508Y-64140324D01*
X111480610Y-64127349D01*
X111498902Y-64116112D01*
X111518206Y-64106723D01*
X111538339Y-64099270D01*
X111559104Y-64093827D01*
X111580303Y-64090446D01*
X111601732Y-64089159D01*
X111623183Y-64089978D01*
G37*
G36*
X110416663Y-65102368D02*
G01*
X110437931Y-65105286D01*
X110458811Y-65110275D01*
X110479101Y-65117286D01*
X110498606Y-65126252D01*
X110517138Y-65137087D01*
X110534519Y-65149686D01*
X110550581Y-65163928D01*
X110565170Y-65179676D01*
X110894599Y-65572274D01*
X110907574Y-65589376D01*
X110918811Y-65607668D01*
X110928200Y-65626972D01*
X110935653Y-65647105D01*
X110941095Y-65667870D01*
X110944477Y-65689069D01*
X110945764Y-65710498D01*
X110944945Y-65731949D01*
X110942027Y-65753217D01*
X110937038Y-65774097D01*
X110930027Y-65794386D01*
X110921061Y-65813891D01*
X110910226Y-65832424D01*
X110897627Y-65849805D01*
X110883385Y-65865867D01*
X110867637Y-65880456D01*
X110532492Y-66161676D01*
X110515390Y-66174651D01*
X110497098Y-66185888D01*
X110477794Y-66195277D01*
X110457661Y-66202730D01*
X110436896Y-66208173D01*
X110415697Y-66211554D01*
X110394268Y-66212841D01*
X110372817Y-66212022D01*
X110351549Y-66209104D01*
X110330669Y-66204115D01*
X110310379Y-66197104D01*
X110290874Y-66188138D01*
X110272342Y-66177303D01*
X110254961Y-66164704D01*
X110238899Y-66150462D01*
X110224310Y-66134714D01*
X109894881Y-65742116D01*
X109881906Y-65725014D01*
X109870669Y-65706722D01*
X109861280Y-65687418D01*
X109853827Y-65667285D01*
X109848385Y-65646520D01*
X109845003Y-65625321D01*
X109843716Y-65603892D01*
X109844535Y-65582441D01*
X109847453Y-65561173D01*
X109852442Y-65540293D01*
X109859453Y-65520004D01*
X109868419Y-65500499D01*
X109879254Y-65481966D01*
X109891853Y-65464585D01*
X109906095Y-65448523D01*
X109921843Y-65433934D01*
X110256988Y-65152714D01*
X110274090Y-65139739D01*
X110292382Y-65128502D01*
X110311686Y-65119113D01*
X110331819Y-65111660D01*
X110352584Y-65106217D01*
X110373783Y-65102836D01*
X110395212Y-65101549D01*
X110416663Y-65102368D01*
G37*
G36*
X109843287Y-75837367D02*
G01*
X109864639Y-75839588D01*
X109885671Y-75843891D01*
X109906179Y-75850234D01*
X110387771Y-76025519D01*
X110407559Y-76033842D01*
X110426436Y-76044065D01*
X110444220Y-76056089D01*
X110460739Y-76069798D01*
X110475836Y-76085060D01*
X110489364Y-76101728D01*
X110501193Y-76119642D01*
X110511209Y-76138629D01*
X110519316Y-76158507D01*
X110525435Y-76179083D01*
X110529508Y-76200160D01*
X110531496Y-76221535D01*
X110531379Y-76243002D01*
X110529158Y-76264354D01*
X110524855Y-76285385D01*
X110518512Y-76305894D01*
X110368878Y-76717009D01*
X110360555Y-76736797D01*
X110350332Y-76755674D01*
X110338308Y-76773458D01*
X110324599Y-76789977D01*
X110309337Y-76805074D01*
X110292669Y-76818602D01*
X110274755Y-76830431D01*
X110255768Y-76840447D01*
X110235890Y-76848554D01*
X110215314Y-76854673D01*
X110194236Y-76858746D01*
X110172862Y-76860734D01*
X110151395Y-76860617D01*
X110130043Y-76858396D01*
X110109011Y-76854093D01*
X110088503Y-76847750D01*
X109606911Y-76672465D01*
X109587123Y-76664142D01*
X109568246Y-76653919D01*
X109550462Y-76641895D01*
X109533943Y-76628186D01*
X109518846Y-76612924D01*
X109505318Y-76596256D01*
X109493489Y-76578342D01*
X109483473Y-76559355D01*
X109475366Y-76539477D01*
X109469247Y-76518901D01*
X109465174Y-76497824D01*
X109463186Y-76476449D01*
X109463303Y-76454982D01*
X109465524Y-76433630D01*
X109469827Y-76412599D01*
X109476170Y-76392090D01*
X109625804Y-75980975D01*
X109634127Y-75961187D01*
X109644350Y-75942310D01*
X109656374Y-75924526D01*
X109670083Y-75908007D01*
X109685345Y-75892910D01*
X109702013Y-75879382D01*
X109719927Y-75867553D01*
X109738914Y-75857537D01*
X109758792Y-75849430D01*
X109779368Y-75843311D01*
X109800446Y-75839238D01*
X109821820Y-75837250D01*
X109843287Y-75837367D01*
G37*
G36*
X109304605Y-77317383D02*
G01*
X109325957Y-77319604D01*
X109346989Y-77323907D01*
X109367497Y-77330250D01*
X109849089Y-77505535D01*
X109868877Y-77513858D01*
X109887754Y-77524081D01*
X109905538Y-77536105D01*
X109922057Y-77549814D01*
X109937154Y-77565076D01*
X109950682Y-77581744D01*
X109962511Y-77599658D01*
X109972527Y-77618645D01*
X109980634Y-77638523D01*
X109986753Y-77659099D01*
X109990826Y-77680176D01*
X109992814Y-77701551D01*
X109992697Y-77723018D01*
X109990476Y-77744370D01*
X109986173Y-77765401D01*
X109979830Y-77785910D01*
X109830196Y-78197025D01*
X109821873Y-78216813D01*
X109811650Y-78235690D01*
X109799626Y-78253474D01*
X109785917Y-78269993D01*
X109770655Y-78285090D01*
X109753987Y-78298618D01*
X109736073Y-78310447D01*
X109717086Y-78320463D01*
X109697208Y-78328570D01*
X109676632Y-78334689D01*
X109655554Y-78338762D01*
X109634180Y-78340750D01*
X109612713Y-78340633D01*
X109591361Y-78338412D01*
X109570329Y-78334109D01*
X109549821Y-78327766D01*
X109068229Y-78152481D01*
X109048441Y-78144158D01*
X109029564Y-78133935D01*
X109011780Y-78121911D01*
X108995261Y-78108202D01*
X108980164Y-78092940D01*
X108966636Y-78076272D01*
X108954807Y-78058358D01*
X108944791Y-78039371D01*
X108936684Y-78019493D01*
X108930565Y-77998917D01*
X108926492Y-77977840D01*
X108924504Y-77956465D01*
X108924621Y-77934998D01*
X108926842Y-77913646D01*
X108931145Y-77892615D01*
X108937488Y-77872106D01*
X109087122Y-77460991D01*
X109095445Y-77441203D01*
X109105668Y-77422326D01*
X109117692Y-77404542D01*
X109131401Y-77388023D01*
X109146663Y-77372926D01*
X109163331Y-77359398D01*
X109181245Y-77347569D01*
X109200232Y-77337553D01*
X109220110Y-77329446D01*
X109240686Y-77323327D01*
X109261764Y-77319254D01*
X109283138Y-77317266D01*
X109304605Y-77317383D01*
G37*
G36*
X103687759Y-70538558D02*
G01*
X103708879Y-70542401D01*
X103729521Y-70548296D01*
X103749486Y-70556186D01*
X103768581Y-70565994D01*
X104212419Y-70822244D01*
X104230461Y-70833877D01*
X104247276Y-70847222D01*
X104262702Y-70862151D01*
X104276590Y-70878520D01*
X104288807Y-70896172D01*
X104299235Y-70914936D01*
X104307773Y-70934632D01*
X104314340Y-70955070D01*
X104318872Y-70976054D01*
X104321326Y-70997380D01*
X104321677Y-71018844D01*
X104319923Y-71040240D01*
X104316080Y-71061360D01*
X104310185Y-71082002D01*
X104302295Y-71101967D01*
X104292487Y-71121062D01*
X104073737Y-71499948D01*
X104062104Y-71517990D01*
X104048759Y-71534805D01*
X104033830Y-71550231D01*
X104017461Y-71564119D01*
X103999809Y-71576336D01*
X103981045Y-71586764D01*
X103961349Y-71595302D01*
X103940911Y-71601869D01*
X103919927Y-71606401D01*
X103898601Y-71608855D01*
X103877137Y-71609206D01*
X103855741Y-71607452D01*
X103834621Y-71603609D01*
X103813979Y-71597714D01*
X103794014Y-71589824D01*
X103774919Y-71580016D01*
X103331081Y-71323766D01*
X103313039Y-71312133D01*
X103296224Y-71298788D01*
X103280798Y-71283859D01*
X103266910Y-71267490D01*
X103254693Y-71249838D01*
X103244265Y-71231074D01*
X103235727Y-71211378D01*
X103229160Y-71190940D01*
X103224628Y-71169956D01*
X103222174Y-71148630D01*
X103221823Y-71127166D01*
X103223577Y-71105770D01*
X103227420Y-71084650D01*
X103233315Y-71064008D01*
X103241205Y-71044043D01*
X103251013Y-71024948D01*
X103469763Y-70646062D01*
X103481396Y-70628020D01*
X103494741Y-70611205D01*
X103509670Y-70595779D01*
X103526039Y-70581891D01*
X103543691Y-70569674D01*
X103562455Y-70559246D01*
X103582151Y-70550708D01*
X103602589Y-70544141D01*
X103623573Y-70539609D01*
X103644899Y-70537155D01*
X103666363Y-70536804D01*
X103687759Y-70538558D01*
G37*
G36*
X102900259Y-71902548D02*
G01*
X102921379Y-71906391D01*
X102942021Y-71912286D01*
X102961986Y-71920176D01*
X102981081Y-71929984D01*
X103424919Y-72186234D01*
X103442961Y-72197867D01*
X103459776Y-72211212D01*
X103475202Y-72226141D01*
X103489090Y-72242510D01*
X103501307Y-72260162D01*
X103511735Y-72278926D01*
X103520273Y-72298622D01*
X103526840Y-72319060D01*
X103531372Y-72340044D01*
X103533826Y-72361370D01*
X103534177Y-72382834D01*
X103532423Y-72404230D01*
X103528580Y-72425350D01*
X103522685Y-72445992D01*
X103514795Y-72465957D01*
X103504987Y-72485052D01*
X103286237Y-72863938D01*
X103274604Y-72881980D01*
X103261259Y-72898795D01*
X103246330Y-72914221D01*
X103229961Y-72928109D01*
X103212309Y-72940326D01*
X103193545Y-72950754D01*
X103173849Y-72959292D01*
X103153411Y-72965859D01*
X103132427Y-72970391D01*
X103111101Y-72972845D01*
X103089637Y-72973196D01*
X103068241Y-72971442D01*
X103047121Y-72967599D01*
X103026479Y-72961704D01*
X103006514Y-72953814D01*
X102987419Y-72944006D01*
X102543581Y-72687756D01*
X102525539Y-72676123D01*
X102508724Y-72662778D01*
X102493298Y-72647849D01*
X102479410Y-72631480D01*
X102467193Y-72613828D01*
X102456765Y-72595064D01*
X102448227Y-72575368D01*
X102441660Y-72554930D01*
X102437128Y-72533946D01*
X102434674Y-72512620D01*
X102434323Y-72491156D01*
X102436077Y-72469760D01*
X102439920Y-72448640D01*
X102445815Y-72427998D01*
X102453705Y-72408033D01*
X102463513Y-72388938D01*
X102682263Y-72010052D01*
X102693896Y-71992010D01*
X102707241Y-71975195D01*
X102722170Y-71959769D01*
X102738539Y-71945881D01*
X102756191Y-71933664D01*
X102774955Y-71923236D01*
X102794651Y-71914698D01*
X102815089Y-71908131D01*
X102836073Y-71903599D01*
X102857399Y-71901145D01*
X102878863Y-71900794D01*
X102900259Y-71902548D01*
G37*
G36*
X118352287Y-85235367D02*
G01*
X118373639Y-85237588D01*
X118394671Y-85241891D01*
X118415179Y-85248234D01*
X118896771Y-85423519D01*
X118916559Y-85431842D01*
X118935436Y-85442065D01*
X118953220Y-85454089D01*
X118969739Y-85467798D01*
X118984836Y-85483060D01*
X118998364Y-85499728D01*
X119010193Y-85517642D01*
X119020209Y-85536629D01*
X119028316Y-85556507D01*
X119034435Y-85577083D01*
X119038508Y-85598160D01*
X119040496Y-85619535D01*
X119040379Y-85641002D01*
X119038158Y-85662354D01*
X119033855Y-85683385D01*
X119027512Y-85703894D01*
X118877878Y-86115009D01*
X118869555Y-86134797D01*
X118859332Y-86153674D01*
X118847308Y-86171458D01*
X118833599Y-86187977D01*
X118818337Y-86203074D01*
X118801669Y-86216602D01*
X118783755Y-86228431D01*
X118764768Y-86238447D01*
X118744890Y-86246554D01*
X118724314Y-86252673D01*
X118703236Y-86256746D01*
X118681862Y-86258734D01*
X118660395Y-86258617D01*
X118639043Y-86256396D01*
X118618011Y-86252093D01*
X118597503Y-86245750D01*
X118115911Y-86070465D01*
X118096123Y-86062142D01*
X118077246Y-86051919D01*
X118059462Y-86039895D01*
X118042943Y-86026186D01*
X118027846Y-86010924D01*
X118014318Y-85994256D01*
X118002489Y-85976342D01*
X117992473Y-85957355D01*
X117984366Y-85937477D01*
X117978247Y-85916901D01*
X117974174Y-85895824D01*
X117972186Y-85874449D01*
X117972303Y-85852982D01*
X117974524Y-85831630D01*
X117978827Y-85810599D01*
X117985170Y-85790090D01*
X118134804Y-85378975D01*
X118143127Y-85359187D01*
X118153350Y-85340310D01*
X118165374Y-85322526D01*
X118179083Y-85306007D01*
X118194345Y-85290910D01*
X118211013Y-85277382D01*
X118228927Y-85265553D01*
X118247914Y-85255537D01*
X118267792Y-85247430D01*
X118288368Y-85241311D01*
X118309446Y-85237238D01*
X118330820Y-85235250D01*
X118352287Y-85235367D01*
G37*
G36*
X117813605Y-86715383D02*
G01*
X117834957Y-86717604D01*
X117855989Y-86721907D01*
X117876497Y-86728250D01*
X118358089Y-86903535D01*
X118377877Y-86911858D01*
X118396754Y-86922081D01*
X118414538Y-86934105D01*
X118431057Y-86947814D01*
X118446154Y-86963076D01*
X118459682Y-86979744D01*
X118471511Y-86997658D01*
X118481527Y-87016645D01*
X118489634Y-87036523D01*
X118495753Y-87057099D01*
X118499826Y-87078176D01*
X118501814Y-87099551D01*
X118501697Y-87121018D01*
X118499476Y-87142370D01*
X118495173Y-87163401D01*
X118488830Y-87183910D01*
X118339196Y-87595025D01*
X118330873Y-87614813D01*
X118320650Y-87633690D01*
X118308626Y-87651474D01*
X118294917Y-87667993D01*
X118279655Y-87683090D01*
X118262987Y-87696618D01*
X118245073Y-87708447D01*
X118226086Y-87718463D01*
X118206208Y-87726570D01*
X118185632Y-87732689D01*
X118164554Y-87736762D01*
X118143180Y-87738750D01*
X118121713Y-87738633D01*
X118100361Y-87736412D01*
X118079329Y-87732109D01*
X118058821Y-87725766D01*
X117577229Y-87550481D01*
X117557441Y-87542158D01*
X117538564Y-87531935D01*
X117520780Y-87519911D01*
X117504261Y-87506202D01*
X117489164Y-87490940D01*
X117475636Y-87474272D01*
X117463807Y-87456358D01*
X117453791Y-87437371D01*
X117445684Y-87417493D01*
X117439565Y-87396917D01*
X117435492Y-87375840D01*
X117433504Y-87354465D01*
X117433621Y-87332998D01*
X117435842Y-87311646D01*
X117440145Y-87290615D01*
X117446488Y-87270106D01*
X117596122Y-86858991D01*
X117604445Y-86839203D01*
X117614668Y-86820326D01*
X117626692Y-86802542D01*
X117640401Y-86786023D01*
X117655663Y-86770926D01*
X117672331Y-86757398D01*
X117690245Y-86745569D01*
X117709232Y-86735553D01*
X117729110Y-86727446D01*
X117749686Y-86721327D01*
X117770764Y-86717254D01*
X117792138Y-86715266D01*
X117813605Y-86715383D01*
G37*
G36*
X139374760Y-118671557D02*
G01*
X139395880Y-118675400D01*
X139416522Y-118681295D01*
X139436487Y-118689185D01*
X139455582Y-118698993D01*
X139899420Y-118955243D01*
X139917462Y-118966876D01*
X139934277Y-118980221D01*
X139949703Y-118995150D01*
X139963591Y-119011519D01*
X139975808Y-119029171D01*
X139986236Y-119047935D01*
X139994774Y-119067631D01*
X140001341Y-119088069D01*
X140005873Y-119109053D01*
X140008327Y-119130379D01*
X140008678Y-119151843D01*
X140006924Y-119173239D01*
X140003081Y-119194359D01*
X139997186Y-119215001D01*
X139989296Y-119234966D01*
X139979488Y-119254061D01*
X139760738Y-119632947D01*
X139749105Y-119650989D01*
X139735760Y-119667804D01*
X139720831Y-119683230D01*
X139704462Y-119697118D01*
X139686810Y-119709335D01*
X139668046Y-119719763D01*
X139648350Y-119728301D01*
X139627912Y-119734868D01*
X139606928Y-119739400D01*
X139585602Y-119741854D01*
X139564138Y-119742205D01*
X139542742Y-119740451D01*
X139521622Y-119736608D01*
X139500980Y-119730713D01*
X139481015Y-119722823D01*
X139461920Y-119713015D01*
X139018082Y-119456765D01*
X139000040Y-119445132D01*
X138983225Y-119431787D01*
X138967799Y-119416858D01*
X138953911Y-119400489D01*
X138941694Y-119382837D01*
X138931266Y-119364073D01*
X138922728Y-119344377D01*
X138916161Y-119323939D01*
X138911629Y-119302955D01*
X138909175Y-119281629D01*
X138908824Y-119260165D01*
X138910578Y-119238769D01*
X138914421Y-119217649D01*
X138920316Y-119197007D01*
X138928206Y-119177042D01*
X138938014Y-119157947D01*
X139156764Y-118779061D01*
X139168397Y-118761019D01*
X139181742Y-118744204D01*
X139196671Y-118728778D01*
X139213040Y-118714890D01*
X139230692Y-118702673D01*
X139249456Y-118692245D01*
X139269152Y-118683707D01*
X139289590Y-118677140D01*
X139310574Y-118672608D01*
X139331900Y-118670154D01*
X139353364Y-118669803D01*
X139374760Y-118671557D01*
G37*
G36*
X138587258Y-120035549D02*
G01*
X138608378Y-120039392D01*
X138629020Y-120045287D01*
X138648985Y-120053177D01*
X138668080Y-120062985D01*
X139111918Y-120319235D01*
X139129960Y-120330868D01*
X139146775Y-120344213D01*
X139162201Y-120359142D01*
X139176089Y-120375511D01*
X139188306Y-120393163D01*
X139198734Y-120411927D01*
X139207272Y-120431623D01*
X139213839Y-120452061D01*
X139218371Y-120473045D01*
X139220825Y-120494371D01*
X139221176Y-120515835D01*
X139219422Y-120537231D01*
X139215579Y-120558351D01*
X139209684Y-120578993D01*
X139201794Y-120598958D01*
X139191986Y-120618053D01*
X138973236Y-120996939D01*
X138961603Y-121014981D01*
X138948258Y-121031796D01*
X138933329Y-121047222D01*
X138916960Y-121061110D01*
X138899308Y-121073327D01*
X138880544Y-121083755D01*
X138860848Y-121092293D01*
X138840410Y-121098860D01*
X138819426Y-121103392D01*
X138798100Y-121105846D01*
X138776636Y-121106197D01*
X138755240Y-121104443D01*
X138734120Y-121100600D01*
X138713478Y-121094705D01*
X138693513Y-121086815D01*
X138674418Y-121077007D01*
X138230580Y-120820757D01*
X138212538Y-120809124D01*
X138195723Y-120795779D01*
X138180297Y-120780850D01*
X138166409Y-120764481D01*
X138154192Y-120746829D01*
X138143764Y-120728065D01*
X138135226Y-120708369D01*
X138128659Y-120687931D01*
X138124127Y-120666947D01*
X138121673Y-120645621D01*
X138121322Y-120624157D01*
X138123076Y-120602761D01*
X138126919Y-120581641D01*
X138132814Y-120560999D01*
X138140704Y-120541034D01*
X138150512Y-120521939D01*
X138369262Y-120143053D01*
X138380895Y-120125011D01*
X138394240Y-120108196D01*
X138409169Y-120092770D01*
X138425538Y-120078882D01*
X138443190Y-120066665D01*
X138461954Y-120056237D01*
X138481650Y-120047699D01*
X138502088Y-120041132D01*
X138523072Y-120036600D01*
X138544398Y-120034146D01*
X138565862Y-120033795D01*
X138587258Y-120035549D01*
G37*
G36*
X96762287Y-90188367D02*
G01*
X96783639Y-90190588D01*
X96804671Y-90194891D01*
X96825179Y-90201234D01*
X97306771Y-90376519D01*
X97326559Y-90384842D01*
X97345436Y-90395065D01*
X97363220Y-90407089D01*
X97379739Y-90420798D01*
X97394836Y-90436060D01*
X97408364Y-90452728D01*
X97420193Y-90470642D01*
X97430209Y-90489629D01*
X97438316Y-90509507D01*
X97444435Y-90530083D01*
X97448508Y-90551160D01*
X97450496Y-90572535D01*
X97450379Y-90594002D01*
X97448158Y-90615354D01*
X97443855Y-90636385D01*
X97437512Y-90656894D01*
X97287878Y-91068009D01*
X97279555Y-91087797D01*
X97269332Y-91106674D01*
X97257308Y-91124458D01*
X97243599Y-91140977D01*
X97228337Y-91156074D01*
X97211669Y-91169602D01*
X97193755Y-91181431D01*
X97174768Y-91191447D01*
X97154890Y-91199554D01*
X97134314Y-91205673D01*
X97113236Y-91209746D01*
X97091862Y-91211734D01*
X97070395Y-91211617D01*
X97049043Y-91209396D01*
X97028011Y-91205093D01*
X97007503Y-91198750D01*
X96525911Y-91023465D01*
X96506123Y-91015142D01*
X96487246Y-91004919D01*
X96469462Y-90992895D01*
X96452943Y-90979186D01*
X96437846Y-90963924D01*
X96424318Y-90947256D01*
X96412489Y-90929342D01*
X96402473Y-90910355D01*
X96394366Y-90890477D01*
X96388247Y-90869901D01*
X96384174Y-90848824D01*
X96382186Y-90827449D01*
X96382303Y-90805982D01*
X96384524Y-90784630D01*
X96388827Y-90763599D01*
X96395170Y-90743090D01*
X96544804Y-90331975D01*
X96553127Y-90312187D01*
X96563350Y-90293310D01*
X96575374Y-90275526D01*
X96589083Y-90259007D01*
X96604345Y-90243910D01*
X96621013Y-90230382D01*
X96638927Y-90218553D01*
X96657914Y-90208537D01*
X96677792Y-90200430D01*
X96698368Y-90194311D01*
X96719446Y-90190238D01*
X96740820Y-90188250D01*
X96762287Y-90188367D01*
G37*
G36*
X96223605Y-91668383D02*
G01*
X96244957Y-91670604D01*
X96265989Y-91674907D01*
X96286497Y-91681250D01*
X96768089Y-91856535D01*
X96787877Y-91864858D01*
X96806754Y-91875081D01*
X96824538Y-91887105D01*
X96841057Y-91900814D01*
X96856154Y-91916076D01*
X96869682Y-91932744D01*
X96881511Y-91950658D01*
X96891527Y-91969645D01*
X96899634Y-91989523D01*
X96905753Y-92010099D01*
X96909826Y-92031176D01*
X96911814Y-92052551D01*
X96911697Y-92074018D01*
X96909476Y-92095370D01*
X96905173Y-92116401D01*
X96898830Y-92136910D01*
X96749196Y-92548025D01*
X96740873Y-92567813D01*
X96730650Y-92586690D01*
X96718626Y-92604474D01*
X96704917Y-92620993D01*
X96689655Y-92636090D01*
X96672987Y-92649618D01*
X96655073Y-92661447D01*
X96636086Y-92671463D01*
X96616208Y-92679570D01*
X96595632Y-92685689D01*
X96574554Y-92689762D01*
X96553180Y-92691750D01*
X96531713Y-92691633D01*
X96510361Y-92689412D01*
X96489329Y-92685109D01*
X96468821Y-92678766D01*
X95987229Y-92503481D01*
X95967441Y-92495158D01*
X95948564Y-92484935D01*
X95930780Y-92472911D01*
X95914261Y-92459202D01*
X95899164Y-92443940D01*
X95885636Y-92427272D01*
X95873807Y-92409358D01*
X95863791Y-92390371D01*
X95855684Y-92370493D01*
X95849565Y-92349917D01*
X95845492Y-92328840D01*
X95843504Y-92307465D01*
X95843621Y-92285998D01*
X95845842Y-92264646D01*
X95850145Y-92243615D01*
X95856488Y-92223106D01*
X96006122Y-91811991D01*
X96014445Y-91792203D01*
X96024668Y-91773326D01*
X96036692Y-91755542D01*
X96050401Y-91739023D01*
X96065663Y-91723926D01*
X96082331Y-91710398D01*
X96100245Y-91698569D01*
X96119232Y-91688553D01*
X96139110Y-91680446D01*
X96159686Y-91674327D01*
X96180764Y-91670254D01*
X96202138Y-91668266D01*
X96223605Y-91668383D01*
G37*
G36*
X119368287Y-94887367D02*
G01*
X119389639Y-94889588D01*
X119410671Y-94893891D01*
X119431179Y-94900234D01*
X119912771Y-95075519D01*
X119932559Y-95083842D01*
X119951436Y-95094065D01*
X119969220Y-95106089D01*
X119985739Y-95119798D01*
X120000836Y-95135060D01*
X120014364Y-95151728D01*
X120026193Y-95169642D01*
X120036209Y-95188629D01*
X120044316Y-95208507D01*
X120050435Y-95229083D01*
X120054508Y-95250160D01*
X120056496Y-95271535D01*
X120056379Y-95293002D01*
X120054158Y-95314354D01*
X120049855Y-95335385D01*
X120043512Y-95355894D01*
X119893878Y-95767009D01*
X119885555Y-95786797D01*
X119875332Y-95805674D01*
X119863308Y-95823458D01*
X119849599Y-95839977D01*
X119834337Y-95855074D01*
X119817669Y-95868602D01*
X119799755Y-95880431D01*
X119780768Y-95890447D01*
X119760890Y-95898554D01*
X119740314Y-95904673D01*
X119719236Y-95908746D01*
X119697862Y-95910734D01*
X119676395Y-95910617D01*
X119655043Y-95908396D01*
X119634011Y-95904093D01*
X119613503Y-95897750D01*
X119131911Y-95722465D01*
X119112123Y-95714142D01*
X119093246Y-95703919D01*
X119075462Y-95691895D01*
X119058943Y-95678186D01*
X119043846Y-95662924D01*
X119030318Y-95646256D01*
X119018489Y-95628342D01*
X119008473Y-95609355D01*
X119000366Y-95589477D01*
X118994247Y-95568901D01*
X118990174Y-95547824D01*
X118988186Y-95526449D01*
X118988303Y-95504982D01*
X118990524Y-95483630D01*
X118994827Y-95462599D01*
X119001170Y-95442090D01*
X119150804Y-95030975D01*
X119159127Y-95011187D01*
X119169350Y-94992310D01*
X119181374Y-94974526D01*
X119195083Y-94958007D01*
X119210345Y-94942910D01*
X119227013Y-94929382D01*
X119244927Y-94917553D01*
X119263914Y-94907537D01*
X119283792Y-94899430D01*
X119304368Y-94893311D01*
X119325446Y-94889238D01*
X119346820Y-94887250D01*
X119368287Y-94887367D01*
G37*
G36*
X118829605Y-96367383D02*
G01*
X118850957Y-96369604D01*
X118871989Y-96373907D01*
X118892497Y-96380250D01*
X119374089Y-96555535D01*
X119393877Y-96563858D01*
X119412754Y-96574081D01*
X119430538Y-96586105D01*
X119447057Y-96599814D01*
X119462154Y-96615076D01*
X119475682Y-96631744D01*
X119487511Y-96649658D01*
X119497527Y-96668645D01*
X119505634Y-96688523D01*
X119511753Y-96709099D01*
X119515826Y-96730176D01*
X119517814Y-96751551D01*
X119517697Y-96773018D01*
X119515476Y-96794370D01*
X119511173Y-96815401D01*
X119504830Y-96835910D01*
X119355196Y-97247025D01*
X119346873Y-97266813D01*
X119336650Y-97285690D01*
X119324626Y-97303474D01*
X119310917Y-97319993D01*
X119295655Y-97335090D01*
X119278987Y-97348618D01*
X119261073Y-97360447D01*
X119242086Y-97370463D01*
X119222208Y-97378570D01*
X119201632Y-97384689D01*
X119180554Y-97388762D01*
X119159180Y-97390750D01*
X119137713Y-97390633D01*
X119116361Y-97388412D01*
X119095329Y-97384109D01*
X119074821Y-97377766D01*
X118593229Y-97202481D01*
X118573441Y-97194158D01*
X118554564Y-97183935D01*
X118536780Y-97171911D01*
X118520261Y-97158202D01*
X118505164Y-97142940D01*
X118491636Y-97126272D01*
X118479807Y-97108358D01*
X118469791Y-97089371D01*
X118461684Y-97069493D01*
X118455565Y-97048917D01*
X118451492Y-97027840D01*
X118449504Y-97006465D01*
X118449621Y-96984998D01*
X118451842Y-96963646D01*
X118456145Y-96942615D01*
X118462488Y-96922106D01*
X118612122Y-96510991D01*
X118620445Y-96491203D01*
X118630668Y-96472326D01*
X118642692Y-96454542D01*
X118656401Y-96438023D01*
X118671663Y-96422926D01*
X118688331Y-96409398D01*
X118706245Y-96397569D01*
X118725232Y-96387553D01*
X118745110Y-96379446D01*
X118765686Y-96373327D01*
X118786764Y-96369254D01*
X118808138Y-96367266D01*
X118829605Y-96367383D01*
G37*
G36*
X103259607Y-86551087D02*
G01*
X103280959Y-86553308D01*
X103301991Y-86557611D01*
X103322499Y-86563954D01*
X103804091Y-86739239D01*
X103823879Y-86747562D01*
X103842756Y-86757785D01*
X103860540Y-86769809D01*
X103877059Y-86783518D01*
X103892156Y-86798780D01*
X103905684Y-86815448D01*
X103917513Y-86833362D01*
X103927529Y-86852349D01*
X103935636Y-86872227D01*
X103941755Y-86892803D01*
X103945828Y-86913880D01*
X103947816Y-86935255D01*
X103947699Y-86956722D01*
X103945478Y-86978074D01*
X103941175Y-86999105D01*
X103934832Y-87019614D01*
X103785198Y-87430729D01*
X103776875Y-87450517D01*
X103766652Y-87469394D01*
X103754628Y-87487178D01*
X103740919Y-87503697D01*
X103725657Y-87518794D01*
X103708989Y-87532322D01*
X103691075Y-87544151D01*
X103672088Y-87554167D01*
X103652210Y-87562274D01*
X103631634Y-87568393D01*
X103610556Y-87572466D01*
X103589182Y-87574454D01*
X103567715Y-87574337D01*
X103546363Y-87572116D01*
X103525331Y-87567813D01*
X103504823Y-87561470D01*
X103023231Y-87386185D01*
X103003443Y-87377862D01*
X102984566Y-87367639D01*
X102966782Y-87355615D01*
X102950263Y-87341906D01*
X102935166Y-87326644D01*
X102921638Y-87309976D01*
X102909809Y-87292062D01*
X102899793Y-87273075D01*
X102891686Y-87253197D01*
X102885567Y-87232621D01*
X102881494Y-87211544D01*
X102879506Y-87190169D01*
X102879623Y-87168702D01*
X102881844Y-87147350D01*
X102886147Y-87126319D01*
X102892490Y-87105810D01*
X103042124Y-86694695D01*
X103050447Y-86674907D01*
X103060670Y-86656030D01*
X103072694Y-86638246D01*
X103086403Y-86621727D01*
X103101665Y-86606630D01*
X103118333Y-86593102D01*
X103136247Y-86581273D01*
X103155234Y-86571257D01*
X103175112Y-86563150D01*
X103195688Y-86557031D01*
X103216766Y-86552958D01*
X103238140Y-86550970D01*
X103259607Y-86551087D01*
G37*
G36*
X102720925Y-88031103D02*
G01*
X102742277Y-88033324D01*
X102763309Y-88037627D01*
X102783817Y-88043970D01*
X103265409Y-88219255D01*
X103285197Y-88227578D01*
X103304074Y-88237801D01*
X103321858Y-88249825D01*
X103338377Y-88263534D01*
X103353474Y-88278796D01*
X103367002Y-88295464D01*
X103378831Y-88313378D01*
X103388847Y-88332365D01*
X103396954Y-88352243D01*
X103403073Y-88372819D01*
X103407146Y-88393896D01*
X103409134Y-88415271D01*
X103409017Y-88436738D01*
X103406796Y-88458090D01*
X103402493Y-88479121D01*
X103396150Y-88499630D01*
X103246516Y-88910745D01*
X103238193Y-88930533D01*
X103227970Y-88949410D01*
X103215946Y-88967194D01*
X103202237Y-88983713D01*
X103186975Y-88998810D01*
X103170307Y-89012338D01*
X103152393Y-89024167D01*
X103133406Y-89034183D01*
X103113528Y-89042290D01*
X103092952Y-89048409D01*
X103071874Y-89052482D01*
X103050500Y-89054470D01*
X103029033Y-89054353D01*
X103007681Y-89052132D01*
X102986649Y-89047829D01*
X102966141Y-89041486D01*
X102484549Y-88866201D01*
X102464761Y-88857878D01*
X102445884Y-88847655D01*
X102428100Y-88835631D01*
X102411581Y-88821922D01*
X102396484Y-88806660D01*
X102382956Y-88789992D01*
X102371127Y-88772078D01*
X102361111Y-88753091D01*
X102353004Y-88733213D01*
X102346885Y-88712637D01*
X102342812Y-88691560D01*
X102340824Y-88670185D01*
X102340941Y-88648718D01*
X102343162Y-88627366D01*
X102347465Y-88606335D01*
X102353808Y-88585826D01*
X102503442Y-88174711D01*
X102511765Y-88154923D01*
X102521988Y-88136046D01*
X102534012Y-88118262D01*
X102547721Y-88101743D01*
X102562983Y-88086646D01*
X102579651Y-88073118D01*
X102597565Y-88061289D01*
X102616552Y-88051273D01*
X102636430Y-88043166D01*
X102657006Y-88037047D01*
X102678084Y-88032974D01*
X102699458Y-88030986D01*
X102720925Y-88031103D01*
G37*
G36*
X111221934Y-102395178D02*
G01*
X111243012Y-102399251D01*
X111263588Y-102405370D01*
X111283466Y-102413477D01*
X111747949Y-102630069D01*
X111766936Y-102640085D01*
X111784850Y-102651914D01*
X111801518Y-102665442D01*
X111816780Y-102680539D01*
X111830489Y-102697058D01*
X111842513Y-102714842D01*
X111852736Y-102733719D01*
X111861059Y-102753507D01*
X111867402Y-102774016D01*
X111871705Y-102795047D01*
X111873926Y-102816399D01*
X111874043Y-102837866D01*
X111872055Y-102859241D01*
X111867982Y-102880318D01*
X111861863Y-102900894D01*
X111853756Y-102920771D01*
X111668861Y-103317281D01*
X111658845Y-103336269D01*
X111647016Y-103354183D01*
X111633488Y-103370851D01*
X111618392Y-103386113D01*
X111601872Y-103399822D01*
X111584088Y-103411846D01*
X111565211Y-103422068D01*
X111545423Y-103430392D01*
X111524915Y-103436735D01*
X111503883Y-103441038D01*
X111482531Y-103443259D01*
X111461065Y-103443376D01*
X111439690Y-103441388D01*
X111418612Y-103437315D01*
X111398036Y-103431196D01*
X111378158Y-103423089D01*
X110913675Y-103206497D01*
X110894688Y-103196481D01*
X110876774Y-103184652D01*
X110860106Y-103171124D01*
X110844844Y-103156027D01*
X110831135Y-103139508D01*
X110819111Y-103121724D01*
X110808888Y-103102847D01*
X110800565Y-103083059D01*
X110794222Y-103062550D01*
X110789919Y-103041519D01*
X110787698Y-103020167D01*
X110787581Y-102998700D01*
X110789569Y-102977325D01*
X110793642Y-102956248D01*
X110799761Y-102935672D01*
X110807868Y-102915795D01*
X110992763Y-102519285D01*
X111002779Y-102500297D01*
X111014608Y-102482383D01*
X111028136Y-102465715D01*
X111043232Y-102450453D01*
X111059752Y-102436744D01*
X111077536Y-102424720D01*
X111096413Y-102414498D01*
X111116201Y-102406174D01*
X111136709Y-102399831D01*
X111157741Y-102395528D01*
X111179093Y-102393307D01*
X111200559Y-102393190D01*
X111221934Y-102395178D01*
G37*
G36*
X110556310Y-103822612D02*
G01*
X110577388Y-103826685D01*
X110597964Y-103832804D01*
X110617842Y-103840911D01*
X111082325Y-104057503D01*
X111101312Y-104067519D01*
X111119226Y-104079348D01*
X111135894Y-104092876D01*
X111151156Y-104107973D01*
X111164865Y-104124492D01*
X111176889Y-104142276D01*
X111187112Y-104161153D01*
X111195435Y-104180941D01*
X111201778Y-104201450D01*
X111206081Y-104222481D01*
X111208302Y-104243833D01*
X111208419Y-104265300D01*
X111206431Y-104286675D01*
X111202358Y-104307752D01*
X111196239Y-104328328D01*
X111188132Y-104348205D01*
X111003237Y-104744715D01*
X110993221Y-104763703D01*
X110981392Y-104781617D01*
X110967864Y-104798285D01*
X110952768Y-104813547D01*
X110936248Y-104827256D01*
X110918464Y-104839280D01*
X110899587Y-104849502D01*
X110879799Y-104857826D01*
X110859291Y-104864169D01*
X110838259Y-104868472D01*
X110816907Y-104870693D01*
X110795441Y-104870810D01*
X110774066Y-104868822D01*
X110752988Y-104864749D01*
X110732412Y-104858630D01*
X110712534Y-104850523D01*
X110248051Y-104633931D01*
X110229064Y-104623915D01*
X110211150Y-104612086D01*
X110194482Y-104598558D01*
X110179220Y-104583461D01*
X110165511Y-104566942D01*
X110153487Y-104549158D01*
X110143264Y-104530281D01*
X110134941Y-104510493D01*
X110128598Y-104489984D01*
X110124295Y-104468953D01*
X110122074Y-104447601D01*
X110121957Y-104426134D01*
X110123945Y-104404759D01*
X110128018Y-104383682D01*
X110134137Y-104363106D01*
X110142244Y-104343229D01*
X110327139Y-103946719D01*
X110337155Y-103927731D01*
X110348984Y-103909817D01*
X110362512Y-103893149D01*
X110377608Y-103877887D01*
X110394128Y-103864178D01*
X110411912Y-103852154D01*
X110430789Y-103841932D01*
X110450577Y-103833608D01*
X110471085Y-103827265D01*
X110492117Y-103822962D01*
X110513469Y-103820741D01*
X110534935Y-103820624D01*
X110556310Y-103822612D01*
G37*
G36*
X154199504Y-192801204D02*
G01*
X154223773Y-192804804D01*
X154247571Y-192810765D01*
X154270671Y-192819030D01*
X154292849Y-192829520D01*
X154313893Y-192842133D01*
X154333598Y-192856747D01*
X154351777Y-192873223D01*
X154368253Y-192891402D01*
X154382867Y-192911107D01*
X154395480Y-192932151D01*
X154405970Y-192954329D01*
X154414235Y-192977429D01*
X154420196Y-193001227D01*
X154423796Y-193025496D01*
X154425000Y-193050000D01*
X154425000Y-194300000D01*
X154423796Y-194324504D01*
X154420196Y-194348773D01*
X154414235Y-194372571D01*
X154405970Y-194395671D01*
X154395480Y-194417849D01*
X154382867Y-194438893D01*
X154368253Y-194458598D01*
X154351777Y-194476777D01*
X154333598Y-194493253D01*
X154313893Y-194507867D01*
X154292849Y-194520480D01*
X154270671Y-194530970D01*
X154247571Y-194539235D01*
X154223773Y-194545196D01*
X154199504Y-194548796D01*
X154175000Y-194550000D01*
X153425000Y-194550000D01*
X153400496Y-194548796D01*
X153376227Y-194545196D01*
X153352429Y-194539235D01*
X153329329Y-194530970D01*
X153307151Y-194520480D01*
X153286107Y-194507867D01*
X153266402Y-194493253D01*
X153248223Y-194476777D01*
X153231747Y-194458598D01*
X153217133Y-194438893D01*
X153204520Y-194417849D01*
X153194030Y-194395671D01*
X153185765Y-194372571D01*
X153179804Y-194348773D01*
X153176204Y-194324504D01*
X153175000Y-194300000D01*
X153175000Y-193050000D01*
X153176204Y-193025496D01*
X153179804Y-193001227D01*
X153185765Y-192977429D01*
X153194030Y-192954329D01*
X153204520Y-192932151D01*
X153217133Y-192911107D01*
X153231747Y-192891402D01*
X153248223Y-192873223D01*
X153266402Y-192856747D01*
X153286107Y-192842133D01*
X153307151Y-192829520D01*
X153329329Y-192819030D01*
X153352429Y-192810765D01*
X153376227Y-192804804D01*
X153400496Y-192801204D01*
X153425000Y-192800000D01*
X154175000Y-192800000D01*
X154199504Y-192801204D01*
G37*
G36*
X151399504Y-192801204D02*
G01*
X151423773Y-192804804D01*
X151447571Y-192810765D01*
X151470671Y-192819030D01*
X151492849Y-192829520D01*
X151513893Y-192842133D01*
X151533598Y-192856747D01*
X151551777Y-192873223D01*
X151568253Y-192891402D01*
X151582867Y-192911107D01*
X151595480Y-192932151D01*
X151605970Y-192954329D01*
X151614235Y-192977429D01*
X151620196Y-193001227D01*
X151623796Y-193025496D01*
X151625000Y-193050000D01*
X151625000Y-194300000D01*
X151623796Y-194324504D01*
X151620196Y-194348773D01*
X151614235Y-194372571D01*
X151605970Y-194395671D01*
X151595480Y-194417849D01*
X151582867Y-194438893D01*
X151568253Y-194458598D01*
X151551777Y-194476777D01*
X151533598Y-194493253D01*
X151513893Y-194507867D01*
X151492849Y-194520480D01*
X151470671Y-194530970D01*
X151447571Y-194539235D01*
X151423773Y-194545196D01*
X151399504Y-194548796D01*
X151375000Y-194550000D01*
X150625000Y-194550000D01*
X150600496Y-194548796D01*
X150576227Y-194545196D01*
X150552429Y-194539235D01*
X150529329Y-194530970D01*
X150507151Y-194520480D01*
X150486107Y-194507867D01*
X150466402Y-194493253D01*
X150448223Y-194476777D01*
X150431747Y-194458598D01*
X150417133Y-194438893D01*
X150404520Y-194417849D01*
X150394030Y-194395671D01*
X150385765Y-194372571D01*
X150379804Y-194348773D01*
X150376204Y-194324504D01*
X150375000Y-194300000D01*
X150375000Y-193050000D01*
X150376204Y-193025496D01*
X150379804Y-193001227D01*
X150385765Y-192977429D01*
X150394030Y-192954329D01*
X150404520Y-192932151D01*
X150417133Y-192911107D01*
X150431747Y-192891402D01*
X150448223Y-192873223D01*
X150466402Y-192856747D01*
X150486107Y-192842133D01*
X150507151Y-192829520D01*
X150529329Y-192819030D01*
X150552429Y-192810765D01*
X150576227Y-192804804D01*
X150600496Y-192801204D01*
X150625000Y-192800000D01*
X151375000Y-192800000D01*
X151399504Y-192801204D01*
G37*
M02*
