G04 #@! TF.GenerationSoftware,KiCad,Pcbnew,(5.1.5)-3*
G04 #@! TF.CreationDate,2020-02-09T18:17:14-06:00*
G04 #@! TF.ProjectId,tymkrs_Cyphercon_2020_parrot,74796d6b-7273-45f4-9379-70686572636f,V0*
G04 #@! TF.SameCoordinates,Original*
G04 #@! TF.FileFunction,Paste,Bot*
G04 #@! TF.FilePolarity,Positive*
%FSLAX46Y46*%
G04 Gerber Fmt 4.6, Leading zero omitted, Abs format (unit mm)*
G04 Created by KiCad (PCBNEW (5.1.5)-3) date 2020-02-09 18:17:14*
%MOMM*%
%LPD*%
G04 APERTURE LIST*
%ADD10C,0.100000*%
%ADD11R,1.300000X1.550000*%
%ADD12R,1.500000X0.300000*%
%ADD13R,0.300000X1.500000*%
%ADD14R,1.350000X1.350000*%
%ADD15R,2.600000X1.400000*%
%ADD16C,0.635000*%
%ADD17R,0.650000X1.060000*%
%ADD18O,1.700000X1.700000*%
%ADD19R,1.700000X1.700000*%
%ADD20R,0.800000X1.400000*%
%ADD21R,2.500000X1.800000*%
G04 APERTURE END LIST*
D10*
G36*
X117397703Y-136860722D02*
G01*
X117412264Y-136862882D01*
X117426543Y-136866459D01*
X117440403Y-136871418D01*
X117453710Y-136877712D01*
X117466336Y-136885280D01*
X117478159Y-136894048D01*
X117489066Y-136903934D01*
X117498952Y-136914841D01*
X117507720Y-136926664D01*
X117515288Y-136939290D01*
X117521582Y-136952597D01*
X117526541Y-136966457D01*
X117530118Y-136980736D01*
X117532278Y-136995297D01*
X117533000Y-137010000D01*
X117533000Y-137310000D01*
X117532278Y-137324703D01*
X117530118Y-137339264D01*
X117526541Y-137353543D01*
X117521582Y-137367403D01*
X117515288Y-137380710D01*
X117507720Y-137393336D01*
X117498952Y-137405159D01*
X117489066Y-137416066D01*
X117478159Y-137425952D01*
X117466336Y-137434720D01*
X117453710Y-137442288D01*
X117440403Y-137448582D01*
X117426543Y-137453541D01*
X117412264Y-137457118D01*
X117397703Y-137459278D01*
X117383000Y-137460000D01*
X115633000Y-137460000D01*
X115618297Y-137459278D01*
X115603736Y-137457118D01*
X115589457Y-137453541D01*
X115575597Y-137448582D01*
X115562290Y-137442288D01*
X115549664Y-137434720D01*
X115537841Y-137425952D01*
X115526934Y-137416066D01*
X115517048Y-137405159D01*
X115508280Y-137393336D01*
X115500712Y-137380710D01*
X115494418Y-137367403D01*
X115489459Y-137353543D01*
X115485882Y-137339264D01*
X115483722Y-137324703D01*
X115483000Y-137310000D01*
X115483000Y-137010000D01*
X115483722Y-136995297D01*
X115485882Y-136980736D01*
X115489459Y-136966457D01*
X115494418Y-136952597D01*
X115500712Y-136939290D01*
X115508280Y-136926664D01*
X115517048Y-136914841D01*
X115526934Y-136903934D01*
X115537841Y-136894048D01*
X115549664Y-136885280D01*
X115562290Y-136877712D01*
X115575597Y-136871418D01*
X115589457Y-136866459D01*
X115603736Y-136862882D01*
X115618297Y-136860722D01*
X115633000Y-136860000D01*
X117383000Y-136860000D01*
X117397703Y-136860722D01*
G37*
G36*
X117397703Y-138130722D02*
G01*
X117412264Y-138132882D01*
X117426543Y-138136459D01*
X117440403Y-138141418D01*
X117453710Y-138147712D01*
X117466336Y-138155280D01*
X117478159Y-138164048D01*
X117489066Y-138173934D01*
X117498952Y-138184841D01*
X117507720Y-138196664D01*
X117515288Y-138209290D01*
X117521582Y-138222597D01*
X117526541Y-138236457D01*
X117530118Y-138250736D01*
X117532278Y-138265297D01*
X117533000Y-138280000D01*
X117533000Y-138580000D01*
X117532278Y-138594703D01*
X117530118Y-138609264D01*
X117526541Y-138623543D01*
X117521582Y-138637403D01*
X117515288Y-138650710D01*
X117507720Y-138663336D01*
X117498952Y-138675159D01*
X117489066Y-138686066D01*
X117478159Y-138695952D01*
X117466336Y-138704720D01*
X117453710Y-138712288D01*
X117440403Y-138718582D01*
X117426543Y-138723541D01*
X117412264Y-138727118D01*
X117397703Y-138729278D01*
X117383000Y-138730000D01*
X115633000Y-138730000D01*
X115618297Y-138729278D01*
X115603736Y-138727118D01*
X115589457Y-138723541D01*
X115575597Y-138718582D01*
X115562290Y-138712288D01*
X115549664Y-138704720D01*
X115537841Y-138695952D01*
X115526934Y-138686066D01*
X115517048Y-138675159D01*
X115508280Y-138663336D01*
X115500712Y-138650710D01*
X115494418Y-138637403D01*
X115489459Y-138623543D01*
X115485882Y-138609264D01*
X115483722Y-138594703D01*
X115483000Y-138580000D01*
X115483000Y-138280000D01*
X115483722Y-138265297D01*
X115485882Y-138250736D01*
X115489459Y-138236457D01*
X115494418Y-138222597D01*
X115500712Y-138209290D01*
X115508280Y-138196664D01*
X115517048Y-138184841D01*
X115526934Y-138173934D01*
X115537841Y-138164048D01*
X115549664Y-138155280D01*
X115562290Y-138147712D01*
X115575597Y-138141418D01*
X115589457Y-138136459D01*
X115603736Y-138132882D01*
X115618297Y-138130722D01*
X115633000Y-138130000D01*
X117383000Y-138130000D01*
X117397703Y-138130722D01*
G37*
G36*
X117397703Y-139400722D02*
G01*
X117412264Y-139402882D01*
X117426543Y-139406459D01*
X117440403Y-139411418D01*
X117453710Y-139417712D01*
X117466336Y-139425280D01*
X117478159Y-139434048D01*
X117489066Y-139443934D01*
X117498952Y-139454841D01*
X117507720Y-139466664D01*
X117515288Y-139479290D01*
X117521582Y-139492597D01*
X117526541Y-139506457D01*
X117530118Y-139520736D01*
X117532278Y-139535297D01*
X117533000Y-139550000D01*
X117533000Y-139850000D01*
X117532278Y-139864703D01*
X117530118Y-139879264D01*
X117526541Y-139893543D01*
X117521582Y-139907403D01*
X117515288Y-139920710D01*
X117507720Y-139933336D01*
X117498952Y-139945159D01*
X117489066Y-139956066D01*
X117478159Y-139965952D01*
X117466336Y-139974720D01*
X117453710Y-139982288D01*
X117440403Y-139988582D01*
X117426543Y-139993541D01*
X117412264Y-139997118D01*
X117397703Y-139999278D01*
X117383000Y-140000000D01*
X115633000Y-140000000D01*
X115618297Y-139999278D01*
X115603736Y-139997118D01*
X115589457Y-139993541D01*
X115575597Y-139988582D01*
X115562290Y-139982288D01*
X115549664Y-139974720D01*
X115537841Y-139965952D01*
X115526934Y-139956066D01*
X115517048Y-139945159D01*
X115508280Y-139933336D01*
X115500712Y-139920710D01*
X115494418Y-139907403D01*
X115489459Y-139893543D01*
X115485882Y-139879264D01*
X115483722Y-139864703D01*
X115483000Y-139850000D01*
X115483000Y-139550000D01*
X115483722Y-139535297D01*
X115485882Y-139520736D01*
X115489459Y-139506457D01*
X115494418Y-139492597D01*
X115500712Y-139479290D01*
X115508280Y-139466664D01*
X115517048Y-139454841D01*
X115526934Y-139443934D01*
X115537841Y-139434048D01*
X115549664Y-139425280D01*
X115562290Y-139417712D01*
X115575597Y-139411418D01*
X115589457Y-139406459D01*
X115603736Y-139402882D01*
X115618297Y-139400722D01*
X115633000Y-139400000D01*
X117383000Y-139400000D01*
X117397703Y-139400722D01*
G37*
G36*
X117397703Y-140670722D02*
G01*
X117412264Y-140672882D01*
X117426543Y-140676459D01*
X117440403Y-140681418D01*
X117453710Y-140687712D01*
X117466336Y-140695280D01*
X117478159Y-140704048D01*
X117489066Y-140713934D01*
X117498952Y-140724841D01*
X117507720Y-140736664D01*
X117515288Y-140749290D01*
X117521582Y-140762597D01*
X117526541Y-140776457D01*
X117530118Y-140790736D01*
X117532278Y-140805297D01*
X117533000Y-140820000D01*
X117533000Y-141120000D01*
X117532278Y-141134703D01*
X117530118Y-141149264D01*
X117526541Y-141163543D01*
X117521582Y-141177403D01*
X117515288Y-141190710D01*
X117507720Y-141203336D01*
X117498952Y-141215159D01*
X117489066Y-141226066D01*
X117478159Y-141235952D01*
X117466336Y-141244720D01*
X117453710Y-141252288D01*
X117440403Y-141258582D01*
X117426543Y-141263541D01*
X117412264Y-141267118D01*
X117397703Y-141269278D01*
X117383000Y-141270000D01*
X115633000Y-141270000D01*
X115618297Y-141269278D01*
X115603736Y-141267118D01*
X115589457Y-141263541D01*
X115575597Y-141258582D01*
X115562290Y-141252288D01*
X115549664Y-141244720D01*
X115537841Y-141235952D01*
X115526934Y-141226066D01*
X115517048Y-141215159D01*
X115508280Y-141203336D01*
X115500712Y-141190710D01*
X115494418Y-141177403D01*
X115489459Y-141163543D01*
X115485882Y-141149264D01*
X115483722Y-141134703D01*
X115483000Y-141120000D01*
X115483000Y-140820000D01*
X115483722Y-140805297D01*
X115485882Y-140790736D01*
X115489459Y-140776457D01*
X115494418Y-140762597D01*
X115500712Y-140749290D01*
X115508280Y-140736664D01*
X115517048Y-140724841D01*
X115526934Y-140713934D01*
X115537841Y-140704048D01*
X115549664Y-140695280D01*
X115562290Y-140687712D01*
X115575597Y-140681418D01*
X115589457Y-140676459D01*
X115603736Y-140672882D01*
X115618297Y-140670722D01*
X115633000Y-140670000D01*
X117383000Y-140670000D01*
X117397703Y-140670722D01*
G37*
G36*
X117397703Y-141940722D02*
G01*
X117412264Y-141942882D01*
X117426543Y-141946459D01*
X117440403Y-141951418D01*
X117453710Y-141957712D01*
X117466336Y-141965280D01*
X117478159Y-141974048D01*
X117489066Y-141983934D01*
X117498952Y-141994841D01*
X117507720Y-142006664D01*
X117515288Y-142019290D01*
X117521582Y-142032597D01*
X117526541Y-142046457D01*
X117530118Y-142060736D01*
X117532278Y-142075297D01*
X117533000Y-142090000D01*
X117533000Y-142390000D01*
X117532278Y-142404703D01*
X117530118Y-142419264D01*
X117526541Y-142433543D01*
X117521582Y-142447403D01*
X117515288Y-142460710D01*
X117507720Y-142473336D01*
X117498952Y-142485159D01*
X117489066Y-142496066D01*
X117478159Y-142505952D01*
X117466336Y-142514720D01*
X117453710Y-142522288D01*
X117440403Y-142528582D01*
X117426543Y-142533541D01*
X117412264Y-142537118D01*
X117397703Y-142539278D01*
X117383000Y-142540000D01*
X115633000Y-142540000D01*
X115618297Y-142539278D01*
X115603736Y-142537118D01*
X115589457Y-142533541D01*
X115575597Y-142528582D01*
X115562290Y-142522288D01*
X115549664Y-142514720D01*
X115537841Y-142505952D01*
X115526934Y-142496066D01*
X115517048Y-142485159D01*
X115508280Y-142473336D01*
X115500712Y-142460710D01*
X115494418Y-142447403D01*
X115489459Y-142433543D01*
X115485882Y-142419264D01*
X115483722Y-142404703D01*
X115483000Y-142390000D01*
X115483000Y-142090000D01*
X115483722Y-142075297D01*
X115485882Y-142060736D01*
X115489459Y-142046457D01*
X115494418Y-142032597D01*
X115500712Y-142019290D01*
X115508280Y-142006664D01*
X115517048Y-141994841D01*
X115526934Y-141983934D01*
X115537841Y-141974048D01*
X115549664Y-141965280D01*
X115562290Y-141957712D01*
X115575597Y-141951418D01*
X115589457Y-141946459D01*
X115603736Y-141942882D01*
X115618297Y-141940722D01*
X115633000Y-141940000D01*
X117383000Y-141940000D01*
X117397703Y-141940722D01*
G37*
G36*
X117397703Y-143210722D02*
G01*
X117412264Y-143212882D01*
X117426543Y-143216459D01*
X117440403Y-143221418D01*
X117453710Y-143227712D01*
X117466336Y-143235280D01*
X117478159Y-143244048D01*
X117489066Y-143253934D01*
X117498952Y-143264841D01*
X117507720Y-143276664D01*
X117515288Y-143289290D01*
X117521582Y-143302597D01*
X117526541Y-143316457D01*
X117530118Y-143330736D01*
X117532278Y-143345297D01*
X117533000Y-143360000D01*
X117533000Y-143660000D01*
X117532278Y-143674703D01*
X117530118Y-143689264D01*
X117526541Y-143703543D01*
X117521582Y-143717403D01*
X117515288Y-143730710D01*
X117507720Y-143743336D01*
X117498952Y-143755159D01*
X117489066Y-143766066D01*
X117478159Y-143775952D01*
X117466336Y-143784720D01*
X117453710Y-143792288D01*
X117440403Y-143798582D01*
X117426543Y-143803541D01*
X117412264Y-143807118D01*
X117397703Y-143809278D01*
X117383000Y-143810000D01*
X115633000Y-143810000D01*
X115618297Y-143809278D01*
X115603736Y-143807118D01*
X115589457Y-143803541D01*
X115575597Y-143798582D01*
X115562290Y-143792288D01*
X115549664Y-143784720D01*
X115537841Y-143775952D01*
X115526934Y-143766066D01*
X115517048Y-143755159D01*
X115508280Y-143743336D01*
X115500712Y-143730710D01*
X115494418Y-143717403D01*
X115489459Y-143703543D01*
X115485882Y-143689264D01*
X115483722Y-143674703D01*
X115483000Y-143660000D01*
X115483000Y-143360000D01*
X115483722Y-143345297D01*
X115485882Y-143330736D01*
X115489459Y-143316457D01*
X115494418Y-143302597D01*
X115500712Y-143289290D01*
X115508280Y-143276664D01*
X115517048Y-143264841D01*
X115526934Y-143253934D01*
X115537841Y-143244048D01*
X115549664Y-143235280D01*
X115562290Y-143227712D01*
X115575597Y-143221418D01*
X115589457Y-143216459D01*
X115603736Y-143212882D01*
X115618297Y-143210722D01*
X115633000Y-143210000D01*
X117383000Y-143210000D01*
X117397703Y-143210722D01*
G37*
G36*
X117397703Y-144480722D02*
G01*
X117412264Y-144482882D01*
X117426543Y-144486459D01*
X117440403Y-144491418D01*
X117453710Y-144497712D01*
X117466336Y-144505280D01*
X117478159Y-144514048D01*
X117489066Y-144523934D01*
X117498952Y-144534841D01*
X117507720Y-144546664D01*
X117515288Y-144559290D01*
X117521582Y-144572597D01*
X117526541Y-144586457D01*
X117530118Y-144600736D01*
X117532278Y-144615297D01*
X117533000Y-144630000D01*
X117533000Y-144930000D01*
X117532278Y-144944703D01*
X117530118Y-144959264D01*
X117526541Y-144973543D01*
X117521582Y-144987403D01*
X117515288Y-145000710D01*
X117507720Y-145013336D01*
X117498952Y-145025159D01*
X117489066Y-145036066D01*
X117478159Y-145045952D01*
X117466336Y-145054720D01*
X117453710Y-145062288D01*
X117440403Y-145068582D01*
X117426543Y-145073541D01*
X117412264Y-145077118D01*
X117397703Y-145079278D01*
X117383000Y-145080000D01*
X115633000Y-145080000D01*
X115618297Y-145079278D01*
X115603736Y-145077118D01*
X115589457Y-145073541D01*
X115575597Y-145068582D01*
X115562290Y-145062288D01*
X115549664Y-145054720D01*
X115537841Y-145045952D01*
X115526934Y-145036066D01*
X115517048Y-145025159D01*
X115508280Y-145013336D01*
X115500712Y-145000710D01*
X115494418Y-144987403D01*
X115489459Y-144973543D01*
X115485882Y-144959264D01*
X115483722Y-144944703D01*
X115483000Y-144930000D01*
X115483000Y-144630000D01*
X115483722Y-144615297D01*
X115485882Y-144600736D01*
X115489459Y-144586457D01*
X115494418Y-144572597D01*
X115500712Y-144559290D01*
X115508280Y-144546664D01*
X115517048Y-144534841D01*
X115526934Y-144523934D01*
X115537841Y-144514048D01*
X115549664Y-144505280D01*
X115562290Y-144497712D01*
X115575597Y-144491418D01*
X115589457Y-144486459D01*
X115603736Y-144482882D01*
X115618297Y-144480722D01*
X115633000Y-144480000D01*
X117383000Y-144480000D01*
X117397703Y-144480722D01*
G37*
G36*
X117397703Y-145750722D02*
G01*
X117412264Y-145752882D01*
X117426543Y-145756459D01*
X117440403Y-145761418D01*
X117453710Y-145767712D01*
X117466336Y-145775280D01*
X117478159Y-145784048D01*
X117489066Y-145793934D01*
X117498952Y-145804841D01*
X117507720Y-145816664D01*
X117515288Y-145829290D01*
X117521582Y-145842597D01*
X117526541Y-145856457D01*
X117530118Y-145870736D01*
X117532278Y-145885297D01*
X117533000Y-145900000D01*
X117533000Y-146200000D01*
X117532278Y-146214703D01*
X117530118Y-146229264D01*
X117526541Y-146243543D01*
X117521582Y-146257403D01*
X117515288Y-146270710D01*
X117507720Y-146283336D01*
X117498952Y-146295159D01*
X117489066Y-146306066D01*
X117478159Y-146315952D01*
X117466336Y-146324720D01*
X117453710Y-146332288D01*
X117440403Y-146338582D01*
X117426543Y-146343541D01*
X117412264Y-146347118D01*
X117397703Y-146349278D01*
X117383000Y-146350000D01*
X115633000Y-146350000D01*
X115618297Y-146349278D01*
X115603736Y-146347118D01*
X115589457Y-146343541D01*
X115575597Y-146338582D01*
X115562290Y-146332288D01*
X115549664Y-146324720D01*
X115537841Y-146315952D01*
X115526934Y-146306066D01*
X115517048Y-146295159D01*
X115508280Y-146283336D01*
X115500712Y-146270710D01*
X115494418Y-146257403D01*
X115489459Y-146243543D01*
X115485882Y-146229264D01*
X115483722Y-146214703D01*
X115483000Y-146200000D01*
X115483000Y-145900000D01*
X115483722Y-145885297D01*
X115485882Y-145870736D01*
X115489459Y-145856457D01*
X115494418Y-145842597D01*
X115500712Y-145829290D01*
X115508280Y-145816664D01*
X115517048Y-145804841D01*
X115526934Y-145793934D01*
X115537841Y-145784048D01*
X115549664Y-145775280D01*
X115562290Y-145767712D01*
X115575597Y-145761418D01*
X115589457Y-145756459D01*
X115603736Y-145752882D01*
X115618297Y-145750722D01*
X115633000Y-145750000D01*
X117383000Y-145750000D01*
X117397703Y-145750722D01*
G37*
G36*
X117397703Y-147020722D02*
G01*
X117412264Y-147022882D01*
X117426543Y-147026459D01*
X117440403Y-147031418D01*
X117453710Y-147037712D01*
X117466336Y-147045280D01*
X117478159Y-147054048D01*
X117489066Y-147063934D01*
X117498952Y-147074841D01*
X117507720Y-147086664D01*
X117515288Y-147099290D01*
X117521582Y-147112597D01*
X117526541Y-147126457D01*
X117530118Y-147140736D01*
X117532278Y-147155297D01*
X117533000Y-147170000D01*
X117533000Y-147470000D01*
X117532278Y-147484703D01*
X117530118Y-147499264D01*
X117526541Y-147513543D01*
X117521582Y-147527403D01*
X117515288Y-147540710D01*
X117507720Y-147553336D01*
X117498952Y-147565159D01*
X117489066Y-147576066D01*
X117478159Y-147585952D01*
X117466336Y-147594720D01*
X117453710Y-147602288D01*
X117440403Y-147608582D01*
X117426543Y-147613541D01*
X117412264Y-147617118D01*
X117397703Y-147619278D01*
X117383000Y-147620000D01*
X115633000Y-147620000D01*
X115618297Y-147619278D01*
X115603736Y-147617118D01*
X115589457Y-147613541D01*
X115575597Y-147608582D01*
X115562290Y-147602288D01*
X115549664Y-147594720D01*
X115537841Y-147585952D01*
X115526934Y-147576066D01*
X115517048Y-147565159D01*
X115508280Y-147553336D01*
X115500712Y-147540710D01*
X115494418Y-147527403D01*
X115489459Y-147513543D01*
X115485882Y-147499264D01*
X115483722Y-147484703D01*
X115483000Y-147470000D01*
X115483000Y-147170000D01*
X115483722Y-147155297D01*
X115485882Y-147140736D01*
X115489459Y-147126457D01*
X115494418Y-147112597D01*
X115500712Y-147099290D01*
X115508280Y-147086664D01*
X115517048Y-147074841D01*
X115526934Y-147063934D01*
X115537841Y-147054048D01*
X115549664Y-147045280D01*
X115562290Y-147037712D01*
X115575597Y-147031418D01*
X115589457Y-147026459D01*
X115603736Y-147022882D01*
X115618297Y-147020722D01*
X115633000Y-147020000D01*
X117383000Y-147020000D01*
X117397703Y-147020722D01*
G37*
G36*
X117397703Y-148290722D02*
G01*
X117412264Y-148292882D01*
X117426543Y-148296459D01*
X117440403Y-148301418D01*
X117453710Y-148307712D01*
X117466336Y-148315280D01*
X117478159Y-148324048D01*
X117489066Y-148333934D01*
X117498952Y-148344841D01*
X117507720Y-148356664D01*
X117515288Y-148369290D01*
X117521582Y-148382597D01*
X117526541Y-148396457D01*
X117530118Y-148410736D01*
X117532278Y-148425297D01*
X117533000Y-148440000D01*
X117533000Y-148740000D01*
X117532278Y-148754703D01*
X117530118Y-148769264D01*
X117526541Y-148783543D01*
X117521582Y-148797403D01*
X117515288Y-148810710D01*
X117507720Y-148823336D01*
X117498952Y-148835159D01*
X117489066Y-148846066D01*
X117478159Y-148855952D01*
X117466336Y-148864720D01*
X117453710Y-148872288D01*
X117440403Y-148878582D01*
X117426543Y-148883541D01*
X117412264Y-148887118D01*
X117397703Y-148889278D01*
X117383000Y-148890000D01*
X115633000Y-148890000D01*
X115618297Y-148889278D01*
X115603736Y-148887118D01*
X115589457Y-148883541D01*
X115575597Y-148878582D01*
X115562290Y-148872288D01*
X115549664Y-148864720D01*
X115537841Y-148855952D01*
X115526934Y-148846066D01*
X115517048Y-148835159D01*
X115508280Y-148823336D01*
X115500712Y-148810710D01*
X115494418Y-148797403D01*
X115489459Y-148783543D01*
X115485882Y-148769264D01*
X115483722Y-148754703D01*
X115483000Y-148740000D01*
X115483000Y-148440000D01*
X115483722Y-148425297D01*
X115485882Y-148410736D01*
X115489459Y-148396457D01*
X115494418Y-148382597D01*
X115500712Y-148369290D01*
X115508280Y-148356664D01*
X115517048Y-148344841D01*
X115526934Y-148333934D01*
X115537841Y-148324048D01*
X115549664Y-148315280D01*
X115562290Y-148307712D01*
X115575597Y-148301418D01*
X115589457Y-148296459D01*
X115603736Y-148292882D01*
X115618297Y-148290722D01*
X115633000Y-148290000D01*
X117383000Y-148290000D01*
X117397703Y-148290722D01*
G37*
G36*
X126697703Y-148290722D02*
G01*
X126712264Y-148292882D01*
X126726543Y-148296459D01*
X126740403Y-148301418D01*
X126753710Y-148307712D01*
X126766336Y-148315280D01*
X126778159Y-148324048D01*
X126789066Y-148333934D01*
X126798952Y-148344841D01*
X126807720Y-148356664D01*
X126815288Y-148369290D01*
X126821582Y-148382597D01*
X126826541Y-148396457D01*
X126830118Y-148410736D01*
X126832278Y-148425297D01*
X126833000Y-148440000D01*
X126833000Y-148740000D01*
X126832278Y-148754703D01*
X126830118Y-148769264D01*
X126826541Y-148783543D01*
X126821582Y-148797403D01*
X126815288Y-148810710D01*
X126807720Y-148823336D01*
X126798952Y-148835159D01*
X126789066Y-148846066D01*
X126778159Y-148855952D01*
X126766336Y-148864720D01*
X126753710Y-148872288D01*
X126740403Y-148878582D01*
X126726543Y-148883541D01*
X126712264Y-148887118D01*
X126697703Y-148889278D01*
X126683000Y-148890000D01*
X124933000Y-148890000D01*
X124918297Y-148889278D01*
X124903736Y-148887118D01*
X124889457Y-148883541D01*
X124875597Y-148878582D01*
X124862290Y-148872288D01*
X124849664Y-148864720D01*
X124837841Y-148855952D01*
X124826934Y-148846066D01*
X124817048Y-148835159D01*
X124808280Y-148823336D01*
X124800712Y-148810710D01*
X124794418Y-148797403D01*
X124789459Y-148783543D01*
X124785882Y-148769264D01*
X124783722Y-148754703D01*
X124783000Y-148740000D01*
X124783000Y-148440000D01*
X124783722Y-148425297D01*
X124785882Y-148410736D01*
X124789459Y-148396457D01*
X124794418Y-148382597D01*
X124800712Y-148369290D01*
X124808280Y-148356664D01*
X124817048Y-148344841D01*
X124826934Y-148333934D01*
X124837841Y-148324048D01*
X124849664Y-148315280D01*
X124862290Y-148307712D01*
X124875597Y-148301418D01*
X124889457Y-148296459D01*
X124903736Y-148292882D01*
X124918297Y-148290722D01*
X124933000Y-148290000D01*
X126683000Y-148290000D01*
X126697703Y-148290722D01*
G37*
G36*
X126697703Y-147020722D02*
G01*
X126712264Y-147022882D01*
X126726543Y-147026459D01*
X126740403Y-147031418D01*
X126753710Y-147037712D01*
X126766336Y-147045280D01*
X126778159Y-147054048D01*
X126789066Y-147063934D01*
X126798952Y-147074841D01*
X126807720Y-147086664D01*
X126815288Y-147099290D01*
X126821582Y-147112597D01*
X126826541Y-147126457D01*
X126830118Y-147140736D01*
X126832278Y-147155297D01*
X126833000Y-147170000D01*
X126833000Y-147470000D01*
X126832278Y-147484703D01*
X126830118Y-147499264D01*
X126826541Y-147513543D01*
X126821582Y-147527403D01*
X126815288Y-147540710D01*
X126807720Y-147553336D01*
X126798952Y-147565159D01*
X126789066Y-147576066D01*
X126778159Y-147585952D01*
X126766336Y-147594720D01*
X126753710Y-147602288D01*
X126740403Y-147608582D01*
X126726543Y-147613541D01*
X126712264Y-147617118D01*
X126697703Y-147619278D01*
X126683000Y-147620000D01*
X124933000Y-147620000D01*
X124918297Y-147619278D01*
X124903736Y-147617118D01*
X124889457Y-147613541D01*
X124875597Y-147608582D01*
X124862290Y-147602288D01*
X124849664Y-147594720D01*
X124837841Y-147585952D01*
X124826934Y-147576066D01*
X124817048Y-147565159D01*
X124808280Y-147553336D01*
X124800712Y-147540710D01*
X124794418Y-147527403D01*
X124789459Y-147513543D01*
X124785882Y-147499264D01*
X124783722Y-147484703D01*
X124783000Y-147470000D01*
X124783000Y-147170000D01*
X124783722Y-147155297D01*
X124785882Y-147140736D01*
X124789459Y-147126457D01*
X124794418Y-147112597D01*
X124800712Y-147099290D01*
X124808280Y-147086664D01*
X124817048Y-147074841D01*
X124826934Y-147063934D01*
X124837841Y-147054048D01*
X124849664Y-147045280D01*
X124862290Y-147037712D01*
X124875597Y-147031418D01*
X124889457Y-147026459D01*
X124903736Y-147022882D01*
X124918297Y-147020722D01*
X124933000Y-147020000D01*
X126683000Y-147020000D01*
X126697703Y-147020722D01*
G37*
G36*
X126697703Y-145750722D02*
G01*
X126712264Y-145752882D01*
X126726543Y-145756459D01*
X126740403Y-145761418D01*
X126753710Y-145767712D01*
X126766336Y-145775280D01*
X126778159Y-145784048D01*
X126789066Y-145793934D01*
X126798952Y-145804841D01*
X126807720Y-145816664D01*
X126815288Y-145829290D01*
X126821582Y-145842597D01*
X126826541Y-145856457D01*
X126830118Y-145870736D01*
X126832278Y-145885297D01*
X126833000Y-145900000D01*
X126833000Y-146200000D01*
X126832278Y-146214703D01*
X126830118Y-146229264D01*
X126826541Y-146243543D01*
X126821582Y-146257403D01*
X126815288Y-146270710D01*
X126807720Y-146283336D01*
X126798952Y-146295159D01*
X126789066Y-146306066D01*
X126778159Y-146315952D01*
X126766336Y-146324720D01*
X126753710Y-146332288D01*
X126740403Y-146338582D01*
X126726543Y-146343541D01*
X126712264Y-146347118D01*
X126697703Y-146349278D01*
X126683000Y-146350000D01*
X124933000Y-146350000D01*
X124918297Y-146349278D01*
X124903736Y-146347118D01*
X124889457Y-146343541D01*
X124875597Y-146338582D01*
X124862290Y-146332288D01*
X124849664Y-146324720D01*
X124837841Y-146315952D01*
X124826934Y-146306066D01*
X124817048Y-146295159D01*
X124808280Y-146283336D01*
X124800712Y-146270710D01*
X124794418Y-146257403D01*
X124789459Y-146243543D01*
X124785882Y-146229264D01*
X124783722Y-146214703D01*
X124783000Y-146200000D01*
X124783000Y-145900000D01*
X124783722Y-145885297D01*
X124785882Y-145870736D01*
X124789459Y-145856457D01*
X124794418Y-145842597D01*
X124800712Y-145829290D01*
X124808280Y-145816664D01*
X124817048Y-145804841D01*
X124826934Y-145793934D01*
X124837841Y-145784048D01*
X124849664Y-145775280D01*
X124862290Y-145767712D01*
X124875597Y-145761418D01*
X124889457Y-145756459D01*
X124903736Y-145752882D01*
X124918297Y-145750722D01*
X124933000Y-145750000D01*
X126683000Y-145750000D01*
X126697703Y-145750722D01*
G37*
G36*
X126697703Y-144480722D02*
G01*
X126712264Y-144482882D01*
X126726543Y-144486459D01*
X126740403Y-144491418D01*
X126753710Y-144497712D01*
X126766336Y-144505280D01*
X126778159Y-144514048D01*
X126789066Y-144523934D01*
X126798952Y-144534841D01*
X126807720Y-144546664D01*
X126815288Y-144559290D01*
X126821582Y-144572597D01*
X126826541Y-144586457D01*
X126830118Y-144600736D01*
X126832278Y-144615297D01*
X126833000Y-144630000D01*
X126833000Y-144930000D01*
X126832278Y-144944703D01*
X126830118Y-144959264D01*
X126826541Y-144973543D01*
X126821582Y-144987403D01*
X126815288Y-145000710D01*
X126807720Y-145013336D01*
X126798952Y-145025159D01*
X126789066Y-145036066D01*
X126778159Y-145045952D01*
X126766336Y-145054720D01*
X126753710Y-145062288D01*
X126740403Y-145068582D01*
X126726543Y-145073541D01*
X126712264Y-145077118D01*
X126697703Y-145079278D01*
X126683000Y-145080000D01*
X124933000Y-145080000D01*
X124918297Y-145079278D01*
X124903736Y-145077118D01*
X124889457Y-145073541D01*
X124875597Y-145068582D01*
X124862290Y-145062288D01*
X124849664Y-145054720D01*
X124837841Y-145045952D01*
X124826934Y-145036066D01*
X124817048Y-145025159D01*
X124808280Y-145013336D01*
X124800712Y-145000710D01*
X124794418Y-144987403D01*
X124789459Y-144973543D01*
X124785882Y-144959264D01*
X124783722Y-144944703D01*
X124783000Y-144930000D01*
X124783000Y-144630000D01*
X124783722Y-144615297D01*
X124785882Y-144600736D01*
X124789459Y-144586457D01*
X124794418Y-144572597D01*
X124800712Y-144559290D01*
X124808280Y-144546664D01*
X124817048Y-144534841D01*
X124826934Y-144523934D01*
X124837841Y-144514048D01*
X124849664Y-144505280D01*
X124862290Y-144497712D01*
X124875597Y-144491418D01*
X124889457Y-144486459D01*
X124903736Y-144482882D01*
X124918297Y-144480722D01*
X124933000Y-144480000D01*
X126683000Y-144480000D01*
X126697703Y-144480722D01*
G37*
G36*
X126697703Y-143210722D02*
G01*
X126712264Y-143212882D01*
X126726543Y-143216459D01*
X126740403Y-143221418D01*
X126753710Y-143227712D01*
X126766336Y-143235280D01*
X126778159Y-143244048D01*
X126789066Y-143253934D01*
X126798952Y-143264841D01*
X126807720Y-143276664D01*
X126815288Y-143289290D01*
X126821582Y-143302597D01*
X126826541Y-143316457D01*
X126830118Y-143330736D01*
X126832278Y-143345297D01*
X126833000Y-143360000D01*
X126833000Y-143660000D01*
X126832278Y-143674703D01*
X126830118Y-143689264D01*
X126826541Y-143703543D01*
X126821582Y-143717403D01*
X126815288Y-143730710D01*
X126807720Y-143743336D01*
X126798952Y-143755159D01*
X126789066Y-143766066D01*
X126778159Y-143775952D01*
X126766336Y-143784720D01*
X126753710Y-143792288D01*
X126740403Y-143798582D01*
X126726543Y-143803541D01*
X126712264Y-143807118D01*
X126697703Y-143809278D01*
X126683000Y-143810000D01*
X124933000Y-143810000D01*
X124918297Y-143809278D01*
X124903736Y-143807118D01*
X124889457Y-143803541D01*
X124875597Y-143798582D01*
X124862290Y-143792288D01*
X124849664Y-143784720D01*
X124837841Y-143775952D01*
X124826934Y-143766066D01*
X124817048Y-143755159D01*
X124808280Y-143743336D01*
X124800712Y-143730710D01*
X124794418Y-143717403D01*
X124789459Y-143703543D01*
X124785882Y-143689264D01*
X124783722Y-143674703D01*
X124783000Y-143660000D01*
X124783000Y-143360000D01*
X124783722Y-143345297D01*
X124785882Y-143330736D01*
X124789459Y-143316457D01*
X124794418Y-143302597D01*
X124800712Y-143289290D01*
X124808280Y-143276664D01*
X124817048Y-143264841D01*
X124826934Y-143253934D01*
X124837841Y-143244048D01*
X124849664Y-143235280D01*
X124862290Y-143227712D01*
X124875597Y-143221418D01*
X124889457Y-143216459D01*
X124903736Y-143212882D01*
X124918297Y-143210722D01*
X124933000Y-143210000D01*
X126683000Y-143210000D01*
X126697703Y-143210722D01*
G37*
G36*
X126697703Y-141940722D02*
G01*
X126712264Y-141942882D01*
X126726543Y-141946459D01*
X126740403Y-141951418D01*
X126753710Y-141957712D01*
X126766336Y-141965280D01*
X126778159Y-141974048D01*
X126789066Y-141983934D01*
X126798952Y-141994841D01*
X126807720Y-142006664D01*
X126815288Y-142019290D01*
X126821582Y-142032597D01*
X126826541Y-142046457D01*
X126830118Y-142060736D01*
X126832278Y-142075297D01*
X126833000Y-142090000D01*
X126833000Y-142390000D01*
X126832278Y-142404703D01*
X126830118Y-142419264D01*
X126826541Y-142433543D01*
X126821582Y-142447403D01*
X126815288Y-142460710D01*
X126807720Y-142473336D01*
X126798952Y-142485159D01*
X126789066Y-142496066D01*
X126778159Y-142505952D01*
X126766336Y-142514720D01*
X126753710Y-142522288D01*
X126740403Y-142528582D01*
X126726543Y-142533541D01*
X126712264Y-142537118D01*
X126697703Y-142539278D01*
X126683000Y-142540000D01*
X124933000Y-142540000D01*
X124918297Y-142539278D01*
X124903736Y-142537118D01*
X124889457Y-142533541D01*
X124875597Y-142528582D01*
X124862290Y-142522288D01*
X124849664Y-142514720D01*
X124837841Y-142505952D01*
X124826934Y-142496066D01*
X124817048Y-142485159D01*
X124808280Y-142473336D01*
X124800712Y-142460710D01*
X124794418Y-142447403D01*
X124789459Y-142433543D01*
X124785882Y-142419264D01*
X124783722Y-142404703D01*
X124783000Y-142390000D01*
X124783000Y-142090000D01*
X124783722Y-142075297D01*
X124785882Y-142060736D01*
X124789459Y-142046457D01*
X124794418Y-142032597D01*
X124800712Y-142019290D01*
X124808280Y-142006664D01*
X124817048Y-141994841D01*
X124826934Y-141983934D01*
X124837841Y-141974048D01*
X124849664Y-141965280D01*
X124862290Y-141957712D01*
X124875597Y-141951418D01*
X124889457Y-141946459D01*
X124903736Y-141942882D01*
X124918297Y-141940722D01*
X124933000Y-141940000D01*
X126683000Y-141940000D01*
X126697703Y-141940722D01*
G37*
G36*
X126697703Y-140670722D02*
G01*
X126712264Y-140672882D01*
X126726543Y-140676459D01*
X126740403Y-140681418D01*
X126753710Y-140687712D01*
X126766336Y-140695280D01*
X126778159Y-140704048D01*
X126789066Y-140713934D01*
X126798952Y-140724841D01*
X126807720Y-140736664D01*
X126815288Y-140749290D01*
X126821582Y-140762597D01*
X126826541Y-140776457D01*
X126830118Y-140790736D01*
X126832278Y-140805297D01*
X126833000Y-140820000D01*
X126833000Y-141120000D01*
X126832278Y-141134703D01*
X126830118Y-141149264D01*
X126826541Y-141163543D01*
X126821582Y-141177403D01*
X126815288Y-141190710D01*
X126807720Y-141203336D01*
X126798952Y-141215159D01*
X126789066Y-141226066D01*
X126778159Y-141235952D01*
X126766336Y-141244720D01*
X126753710Y-141252288D01*
X126740403Y-141258582D01*
X126726543Y-141263541D01*
X126712264Y-141267118D01*
X126697703Y-141269278D01*
X126683000Y-141270000D01*
X124933000Y-141270000D01*
X124918297Y-141269278D01*
X124903736Y-141267118D01*
X124889457Y-141263541D01*
X124875597Y-141258582D01*
X124862290Y-141252288D01*
X124849664Y-141244720D01*
X124837841Y-141235952D01*
X124826934Y-141226066D01*
X124817048Y-141215159D01*
X124808280Y-141203336D01*
X124800712Y-141190710D01*
X124794418Y-141177403D01*
X124789459Y-141163543D01*
X124785882Y-141149264D01*
X124783722Y-141134703D01*
X124783000Y-141120000D01*
X124783000Y-140820000D01*
X124783722Y-140805297D01*
X124785882Y-140790736D01*
X124789459Y-140776457D01*
X124794418Y-140762597D01*
X124800712Y-140749290D01*
X124808280Y-140736664D01*
X124817048Y-140724841D01*
X124826934Y-140713934D01*
X124837841Y-140704048D01*
X124849664Y-140695280D01*
X124862290Y-140687712D01*
X124875597Y-140681418D01*
X124889457Y-140676459D01*
X124903736Y-140672882D01*
X124918297Y-140670722D01*
X124933000Y-140670000D01*
X126683000Y-140670000D01*
X126697703Y-140670722D01*
G37*
G36*
X126697703Y-139400722D02*
G01*
X126712264Y-139402882D01*
X126726543Y-139406459D01*
X126740403Y-139411418D01*
X126753710Y-139417712D01*
X126766336Y-139425280D01*
X126778159Y-139434048D01*
X126789066Y-139443934D01*
X126798952Y-139454841D01*
X126807720Y-139466664D01*
X126815288Y-139479290D01*
X126821582Y-139492597D01*
X126826541Y-139506457D01*
X126830118Y-139520736D01*
X126832278Y-139535297D01*
X126833000Y-139550000D01*
X126833000Y-139850000D01*
X126832278Y-139864703D01*
X126830118Y-139879264D01*
X126826541Y-139893543D01*
X126821582Y-139907403D01*
X126815288Y-139920710D01*
X126807720Y-139933336D01*
X126798952Y-139945159D01*
X126789066Y-139956066D01*
X126778159Y-139965952D01*
X126766336Y-139974720D01*
X126753710Y-139982288D01*
X126740403Y-139988582D01*
X126726543Y-139993541D01*
X126712264Y-139997118D01*
X126697703Y-139999278D01*
X126683000Y-140000000D01*
X124933000Y-140000000D01*
X124918297Y-139999278D01*
X124903736Y-139997118D01*
X124889457Y-139993541D01*
X124875597Y-139988582D01*
X124862290Y-139982288D01*
X124849664Y-139974720D01*
X124837841Y-139965952D01*
X124826934Y-139956066D01*
X124817048Y-139945159D01*
X124808280Y-139933336D01*
X124800712Y-139920710D01*
X124794418Y-139907403D01*
X124789459Y-139893543D01*
X124785882Y-139879264D01*
X124783722Y-139864703D01*
X124783000Y-139850000D01*
X124783000Y-139550000D01*
X124783722Y-139535297D01*
X124785882Y-139520736D01*
X124789459Y-139506457D01*
X124794418Y-139492597D01*
X124800712Y-139479290D01*
X124808280Y-139466664D01*
X124817048Y-139454841D01*
X124826934Y-139443934D01*
X124837841Y-139434048D01*
X124849664Y-139425280D01*
X124862290Y-139417712D01*
X124875597Y-139411418D01*
X124889457Y-139406459D01*
X124903736Y-139402882D01*
X124918297Y-139400722D01*
X124933000Y-139400000D01*
X126683000Y-139400000D01*
X126697703Y-139400722D01*
G37*
G36*
X126697703Y-138130722D02*
G01*
X126712264Y-138132882D01*
X126726543Y-138136459D01*
X126740403Y-138141418D01*
X126753710Y-138147712D01*
X126766336Y-138155280D01*
X126778159Y-138164048D01*
X126789066Y-138173934D01*
X126798952Y-138184841D01*
X126807720Y-138196664D01*
X126815288Y-138209290D01*
X126821582Y-138222597D01*
X126826541Y-138236457D01*
X126830118Y-138250736D01*
X126832278Y-138265297D01*
X126833000Y-138280000D01*
X126833000Y-138580000D01*
X126832278Y-138594703D01*
X126830118Y-138609264D01*
X126826541Y-138623543D01*
X126821582Y-138637403D01*
X126815288Y-138650710D01*
X126807720Y-138663336D01*
X126798952Y-138675159D01*
X126789066Y-138686066D01*
X126778159Y-138695952D01*
X126766336Y-138704720D01*
X126753710Y-138712288D01*
X126740403Y-138718582D01*
X126726543Y-138723541D01*
X126712264Y-138727118D01*
X126697703Y-138729278D01*
X126683000Y-138730000D01*
X124933000Y-138730000D01*
X124918297Y-138729278D01*
X124903736Y-138727118D01*
X124889457Y-138723541D01*
X124875597Y-138718582D01*
X124862290Y-138712288D01*
X124849664Y-138704720D01*
X124837841Y-138695952D01*
X124826934Y-138686066D01*
X124817048Y-138675159D01*
X124808280Y-138663336D01*
X124800712Y-138650710D01*
X124794418Y-138637403D01*
X124789459Y-138623543D01*
X124785882Y-138609264D01*
X124783722Y-138594703D01*
X124783000Y-138580000D01*
X124783000Y-138280000D01*
X124783722Y-138265297D01*
X124785882Y-138250736D01*
X124789459Y-138236457D01*
X124794418Y-138222597D01*
X124800712Y-138209290D01*
X124808280Y-138196664D01*
X124817048Y-138184841D01*
X124826934Y-138173934D01*
X124837841Y-138164048D01*
X124849664Y-138155280D01*
X124862290Y-138147712D01*
X124875597Y-138141418D01*
X124889457Y-138136459D01*
X124903736Y-138132882D01*
X124918297Y-138130722D01*
X124933000Y-138130000D01*
X126683000Y-138130000D01*
X126697703Y-138130722D01*
G37*
G36*
X126697703Y-136860722D02*
G01*
X126712264Y-136862882D01*
X126726543Y-136866459D01*
X126740403Y-136871418D01*
X126753710Y-136877712D01*
X126766336Y-136885280D01*
X126778159Y-136894048D01*
X126789066Y-136903934D01*
X126798952Y-136914841D01*
X126807720Y-136926664D01*
X126815288Y-136939290D01*
X126821582Y-136952597D01*
X126826541Y-136966457D01*
X126830118Y-136980736D01*
X126832278Y-136995297D01*
X126833000Y-137010000D01*
X126833000Y-137310000D01*
X126832278Y-137324703D01*
X126830118Y-137339264D01*
X126826541Y-137353543D01*
X126821582Y-137367403D01*
X126815288Y-137380710D01*
X126807720Y-137393336D01*
X126798952Y-137405159D01*
X126789066Y-137416066D01*
X126778159Y-137425952D01*
X126766336Y-137434720D01*
X126753710Y-137442288D01*
X126740403Y-137448582D01*
X126726543Y-137453541D01*
X126712264Y-137457118D01*
X126697703Y-137459278D01*
X126683000Y-137460000D01*
X124933000Y-137460000D01*
X124918297Y-137459278D01*
X124903736Y-137457118D01*
X124889457Y-137453541D01*
X124875597Y-137448582D01*
X124862290Y-137442288D01*
X124849664Y-137434720D01*
X124837841Y-137425952D01*
X124826934Y-137416066D01*
X124817048Y-137405159D01*
X124808280Y-137393336D01*
X124800712Y-137380710D01*
X124794418Y-137367403D01*
X124789459Y-137353543D01*
X124785882Y-137339264D01*
X124783722Y-137324703D01*
X124783000Y-137310000D01*
X124783000Y-137010000D01*
X124783722Y-136995297D01*
X124785882Y-136980736D01*
X124789459Y-136966457D01*
X124794418Y-136952597D01*
X124800712Y-136939290D01*
X124808280Y-136926664D01*
X124817048Y-136914841D01*
X124826934Y-136903934D01*
X124837841Y-136894048D01*
X124849664Y-136885280D01*
X124862290Y-136877712D01*
X124875597Y-136871418D01*
X124889457Y-136866459D01*
X124903736Y-136862882D01*
X124918297Y-136860722D01*
X124933000Y-136860000D01*
X126683000Y-136860000D01*
X126697703Y-136860722D01*
G37*
G36*
X119357206Y-52168622D02*
G01*
X118084414Y-53441414D01*
X117836926Y-53193926D01*
X119109718Y-51921134D01*
X119357206Y-52168622D01*
G37*
G36*
X118897587Y-51709002D02*
G01*
X117624795Y-52981794D01*
X117377307Y-52734306D01*
X118650099Y-51461514D01*
X118897587Y-51709002D01*
G37*
G36*
X118437967Y-51249383D02*
G01*
X117165175Y-52522175D01*
X116917687Y-52274687D01*
X118190479Y-51001895D01*
X118437967Y-51249383D01*
G37*
G36*
X117978348Y-50789764D02*
G01*
X116705556Y-52062556D01*
X116458068Y-51815068D01*
X117730860Y-50542276D01*
X117978348Y-50789764D01*
G37*
G36*
X117518728Y-50330144D02*
G01*
X116245936Y-51602936D01*
X115998448Y-51355448D01*
X117271240Y-50082656D01*
X117518728Y-50330144D01*
G37*
G36*
X117059109Y-49870525D02*
G01*
X115786317Y-51143317D01*
X115538829Y-50895829D01*
X116811621Y-49623037D01*
X117059109Y-49870525D01*
G37*
G36*
X116599490Y-49410905D02*
G01*
X115326698Y-50683697D01*
X115079210Y-50436209D01*
X116352002Y-49163417D01*
X116599490Y-49410905D01*
G37*
G36*
X116139870Y-48951286D02*
G01*
X114867078Y-50224078D01*
X114619590Y-49976590D01*
X115892382Y-48703798D01*
X116139870Y-48951286D01*
G37*
G36*
X115680251Y-48491667D02*
G01*
X114407459Y-49764459D01*
X114159971Y-49516971D01*
X115432763Y-48244179D01*
X115680251Y-48491667D01*
G37*
G36*
X115220631Y-48032047D02*
G01*
X113947839Y-49304839D01*
X113700351Y-49057351D01*
X114973143Y-47784559D01*
X115220631Y-48032047D01*
G37*
G36*
X114761012Y-47572428D02*
G01*
X113488220Y-48845220D01*
X113240732Y-48597732D01*
X114513524Y-47324940D01*
X114761012Y-47572428D01*
G37*
G36*
X114301393Y-47112808D02*
G01*
X113028601Y-48385600D01*
X112781113Y-48138112D01*
X114053905Y-46865320D01*
X114301393Y-47112808D01*
G37*
G36*
X113841773Y-46653189D02*
G01*
X112568981Y-47925981D01*
X112321493Y-47678493D01*
X113594285Y-46405701D01*
X113841773Y-46653189D01*
G37*
G36*
X113382154Y-46193570D02*
G01*
X112109362Y-47466362D01*
X111861874Y-47218874D01*
X113134666Y-45946082D01*
X113382154Y-46193570D01*
G37*
G36*
X112922534Y-45733950D02*
G01*
X111649742Y-47006742D01*
X111402254Y-46759254D01*
X112675046Y-45486462D01*
X112922534Y-45733950D01*
G37*
G36*
X112462915Y-45274331D02*
G01*
X111190123Y-46547123D01*
X110942635Y-46299635D01*
X112215427Y-45026843D01*
X112462915Y-45274331D01*
G37*
D11*
X93055000Y-177965000D03*
X93055000Y-170015000D03*
X88555000Y-170015000D03*
X88555000Y-177965000D03*
D10*
G36*
X112087703Y-91140722D02*
G01*
X112102264Y-91142882D01*
X112116543Y-91146459D01*
X112130403Y-91151418D01*
X112143710Y-91157712D01*
X112156336Y-91165280D01*
X112168159Y-91174048D01*
X112179066Y-91183934D01*
X112188952Y-91194841D01*
X112197720Y-91206664D01*
X112205288Y-91219290D01*
X112211582Y-91232597D01*
X112216541Y-91246457D01*
X112220118Y-91260736D01*
X112222278Y-91275297D01*
X112223000Y-91290000D01*
X112223000Y-91590000D01*
X112222278Y-91604703D01*
X112220118Y-91619264D01*
X112216541Y-91633543D01*
X112211582Y-91647403D01*
X112205288Y-91660710D01*
X112197720Y-91673336D01*
X112188952Y-91685159D01*
X112179066Y-91696066D01*
X112168159Y-91705952D01*
X112156336Y-91714720D01*
X112143710Y-91722288D01*
X112130403Y-91728582D01*
X112116543Y-91733541D01*
X112102264Y-91737118D01*
X112087703Y-91739278D01*
X112073000Y-91740000D01*
X110773000Y-91740000D01*
X110758297Y-91739278D01*
X110743736Y-91737118D01*
X110729457Y-91733541D01*
X110715597Y-91728582D01*
X110702290Y-91722288D01*
X110689664Y-91714720D01*
X110677841Y-91705952D01*
X110666934Y-91696066D01*
X110657048Y-91685159D01*
X110648280Y-91673336D01*
X110640712Y-91660710D01*
X110634418Y-91647403D01*
X110629459Y-91633543D01*
X110625882Y-91619264D01*
X110623722Y-91604703D01*
X110623000Y-91590000D01*
X110623000Y-91290000D01*
X110623722Y-91275297D01*
X110625882Y-91260736D01*
X110629459Y-91246457D01*
X110634418Y-91232597D01*
X110640712Y-91219290D01*
X110648280Y-91206664D01*
X110657048Y-91194841D01*
X110666934Y-91183934D01*
X110677841Y-91174048D01*
X110689664Y-91165280D01*
X110702290Y-91157712D01*
X110715597Y-91151418D01*
X110729457Y-91146459D01*
X110743736Y-91142882D01*
X110758297Y-91140722D01*
X110773000Y-91140000D01*
X112073000Y-91140000D01*
X112087703Y-91140722D01*
G37*
G36*
X112087703Y-89870722D02*
G01*
X112102264Y-89872882D01*
X112116543Y-89876459D01*
X112130403Y-89881418D01*
X112143710Y-89887712D01*
X112156336Y-89895280D01*
X112168159Y-89904048D01*
X112179066Y-89913934D01*
X112188952Y-89924841D01*
X112197720Y-89936664D01*
X112205288Y-89949290D01*
X112211582Y-89962597D01*
X112216541Y-89976457D01*
X112220118Y-89990736D01*
X112222278Y-90005297D01*
X112223000Y-90020000D01*
X112223000Y-90320000D01*
X112222278Y-90334703D01*
X112220118Y-90349264D01*
X112216541Y-90363543D01*
X112211582Y-90377403D01*
X112205288Y-90390710D01*
X112197720Y-90403336D01*
X112188952Y-90415159D01*
X112179066Y-90426066D01*
X112168159Y-90435952D01*
X112156336Y-90444720D01*
X112143710Y-90452288D01*
X112130403Y-90458582D01*
X112116543Y-90463541D01*
X112102264Y-90467118D01*
X112087703Y-90469278D01*
X112073000Y-90470000D01*
X110773000Y-90470000D01*
X110758297Y-90469278D01*
X110743736Y-90467118D01*
X110729457Y-90463541D01*
X110715597Y-90458582D01*
X110702290Y-90452288D01*
X110689664Y-90444720D01*
X110677841Y-90435952D01*
X110666934Y-90426066D01*
X110657048Y-90415159D01*
X110648280Y-90403336D01*
X110640712Y-90390710D01*
X110634418Y-90377403D01*
X110629459Y-90363543D01*
X110625882Y-90349264D01*
X110623722Y-90334703D01*
X110623000Y-90320000D01*
X110623000Y-90020000D01*
X110623722Y-90005297D01*
X110625882Y-89990736D01*
X110629459Y-89976457D01*
X110634418Y-89962597D01*
X110640712Y-89949290D01*
X110648280Y-89936664D01*
X110657048Y-89924841D01*
X110666934Y-89913934D01*
X110677841Y-89904048D01*
X110689664Y-89895280D01*
X110702290Y-89887712D01*
X110715597Y-89881418D01*
X110729457Y-89876459D01*
X110743736Y-89872882D01*
X110758297Y-89870722D01*
X110773000Y-89870000D01*
X112073000Y-89870000D01*
X112087703Y-89870722D01*
G37*
G36*
X112087703Y-88600722D02*
G01*
X112102264Y-88602882D01*
X112116543Y-88606459D01*
X112130403Y-88611418D01*
X112143710Y-88617712D01*
X112156336Y-88625280D01*
X112168159Y-88634048D01*
X112179066Y-88643934D01*
X112188952Y-88654841D01*
X112197720Y-88666664D01*
X112205288Y-88679290D01*
X112211582Y-88692597D01*
X112216541Y-88706457D01*
X112220118Y-88720736D01*
X112222278Y-88735297D01*
X112223000Y-88750000D01*
X112223000Y-89050000D01*
X112222278Y-89064703D01*
X112220118Y-89079264D01*
X112216541Y-89093543D01*
X112211582Y-89107403D01*
X112205288Y-89120710D01*
X112197720Y-89133336D01*
X112188952Y-89145159D01*
X112179066Y-89156066D01*
X112168159Y-89165952D01*
X112156336Y-89174720D01*
X112143710Y-89182288D01*
X112130403Y-89188582D01*
X112116543Y-89193541D01*
X112102264Y-89197118D01*
X112087703Y-89199278D01*
X112073000Y-89200000D01*
X110773000Y-89200000D01*
X110758297Y-89199278D01*
X110743736Y-89197118D01*
X110729457Y-89193541D01*
X110715597Y-89188582D01*
X110702290Y-89182288D01*
X110689664Y-89174720D01*
X110677841Y-89165952D01*
X110666934Y-89156066D01*
X110657048Y-89145159D01*
X110648280Y-89133336D01*
X110640712Y-89120710D01*
X110634418Y-89107403D01*
X110629459Y-89093543D01*
X110625882Y-89079264D01*
X110623722Y-89064703D01*
X110623000Y-89050000D01*
X110623000Y-88750000D01*
X110623722Y-88735297D01*
X110625882Y-88720736D01*
X110629459Y-88706457D01*
X110634418Y-88692597D01*
X110640712Y-88679290D01*
X110648280Y-88666664D01*
X110657048Y-88654841D01*
X110666934Y-88643934D01*
X110677841Y-88634048D01*
X110689664Y-88625280D01*
X110702290Y-88617712D01*
X110715597Y-88611418D01*
X110729457Y-88606459D01*
X110743736Y-88602882D01*
X110758297Y-88600722D01*
X110773000Y-88600000D01*
X112073000Y-88600000D01*
X112087703Y-88600722D01*
G37*
G36*
X112087703Y-87330722D02*
G01*
X112102264Y-87332882D01*
X112116543Y-87336459D01*
X112130403Y-87341418D01*
X112143710Y-87347712D01*
X112156336Y-87355280D01*
X112168159Y-87364048D01*
X112179066Y-87373934D01*
X112188952Y-87384841D01*
X112197720Y-87396664D01*
X112205288Y-87409290D01*
X112211582Y-87422597D01*
X112216541Y-87436457D01*
X112220118Y-87450736D01*
X112222278Y-87465297D01*
X112223000Y-87480000D01*
X112223000Y-87780000D01*
X112222278Y-87794703D01*
X112220118Y-87809264D01*
X112216541Y-87823543D01*
X112211582Y-87837403D01*
X112205288Y-87850710D01*
X112197720Y-87863336D01*
X112188952Y-87875159D01*
X112179066Y-87886066D01*
X112168159Y-87895952D01*
X112156336Y-87904720D01*
X112143710Y-87912288D01*
X112130403Y-87918582D01*
X112116543Y-87923541D01*
X112102264Y-87927118D01*
X112087703Y-87929278D01*
X112073000Y-87930000D01*
X110773000Y-87930000D01*
X110758297Y-87929278D01*
X110743736Y-87927118D01*
X110729457Y-87923541D01*
X110715597Y-87918582D01*
X110702290Y-87912288D01*
X110689664Y-87904720D01*
X110677841Y-87895952D01*
X110666934Y-87886066D01*
X110657048Y-87875159D01*
X110648280Y-87863336D01*
X110640712Y-87850710D01*
X110634418Y-87837403D01*
X110629459Y-87823543D01*
X110625882Y-87809264D01*
X110623722Y-87794703D01*
X110623000Y-87780000D01*
X110623000Y-87480000D01*
X110623722Y-87465297D01*
X110625882Y-87450736D01*
X110629459Y-87436457D01*
X110634418Y-87422597D01*
X110640712Y-87409290D01*
X110648280Y-87396664D01*
X110657048Y-87384841D01*
X110666934Y-87373934D01*
X110677841Y-87364048D01*
X110689664Y-87355280D01*
X110702290Y-87347712D01*
X110715597Y-87341418D01*
X110729457Y-87336459D01*
X110743736Y-87332882D01*
X110758297Y-87330722D01*
X110773000Y-87330000D01*
X112073000Y-87330000D01*
X112087703Y-87330722D01*
G37*
G36*
X104887703Y-87330722D02*
G01*
X104902264Y-87332882D01*
X104916543Y-87336459D01*
X104930403Y-87341418D01*
X104943710Y-87347712D01*
X104956336Y-87355280D01*
X104968159Y-87364048D01*
X104979066Y-87373934D01*
X104988952Y-87384841D01*
X104997720Y-87396664D01*
X105005288Y-87409290D01*
X105011582Y-87422597D01*
X105016541Y-87436457D01*
X105020118Y-87450736D01*
X105022278Y-87465297D01*
X105023000Y-87480000D01*
X105023000Y-87780000D01*
X105022278Y-87794703D01*
X105020118Y-87809264D01*
X105016541Y-87823543D01*
X105011582Y-87837403D01*
X105005288Y-87850710D01*
X104997720Y-87863336D01*
X104988952Y-87875159D01*
X104979066Y-87886066D01*
X104968159Y-87895952D01*
X104956336Y-87904720D01*
X104943710Y-87912288D01*
X104930403Y-87918582D01*
X104916543Y-87923541D01*
X104902264Y-87927118D01*
X104887703Y-87929278D01*
X104873000Y-87930000D01*
X103573000Y-87930000D01*
X103558297Y-87929278D01*
X103543736Y-87927118D01*
X103529457Y-87923541D01*
X103515597Y-87918582D01*
X103502290Y-87912288D01*
X103489664Y-87904720D01*
X103477841Y-87895952D01*
X103466934Y-87886066D01*
X103457048Y-87875159D01*
X103448280Y-87863336D01*
X103440712Y-87850710D01*
X103434418Y-87837403D01*
X103429459Y-87823543D01*
X103425882Y-87809264D01*
X103423722Y-87794703D01*
X103423000Y-87780000D01*
X103423000Y-87480000D01*
X103423722Y-87465297D01*
X103425882Y-87450736D01*
X103429459Y-87436457D01*
X103434418Y-87422597D01*
X103440712Y-87409290D01*
X103448280Y-87396664D01*
X103457048Y-87384841D01*
X103466934Y-87373934D01*
X103477841Y-87364048D01*
X103489664Y-87355280D01*
X103502290Y-87347712D01*
X103515597Y-87341418D01*
X103529457Y-87336459D01*
X103543736Y-87332882D01*
X103558297Y-87330722D01*
X103573000Y-87330000D01*
X104873000Y-87330000D01*
X104887703Y-87330722D01*
G37*
G36*
X104887703Y-88600722D02*
G01*
X104902264Y-88602882D01*
X104916543Y-88606459D01*
X104930403Y-88611418D01*
X104943710Y-88617712D01*
X104956336Y-88625280D01*
X104968159Y-88634048D01*
X104979066Y-88643934D01*
X104988952Y-88654841D01*
X104997720Y-88666664D01*
X105005288Y-88679290D01*
X105011582Y-88692597D01*
X105016541Y-88706457D01*
X105020118Y-88720736D01*
X105022278Y-88735297D01*
X105023000Y-88750000D01*
X105023000Y-89050000D01*
X105022278Y-89064703D01*
X105020118Y-89079264D01*
X105016541Y-89093543D01*
X105011582Y-89107403D01*
X105005288Y-89120710D01*
X104997720Y-89133336D01*
X104988952Y-89145159D01*
X104979066Y-89156066D01*
X104968159Y-89165952D01*
X104956336Y-89174720D01*
X104943710Y-89182288D01*
X104930403Y-89188582D01*
X104916543Y-89193541D01*
X104902264Y-89197118D01*
X104887703Y-89199278D01*
X104873000Y-89200000D01*
X103573000Y-89200000D01*
X103558297Y-89199278D01*
X103543736Y-89197118D01*
X103529457Y-89193541D01*
X103515597Y-89188582D01*
X103502290Y-89182288D01*
X103489664Y-89174720D01*
X103477841Y-89165952D01*
X103466934Y-89156066D01*
X103457048Y-89145159D01*
X103448280Y-89133336D01*
X103440712Y-89120710D01*
X103434418Y-89107403D01*
X103429459Y-89093543D01*
X103425882Y-89079264D01*
X103423722Y-89064703D01*
X103423000Y-89050000D01*
X103423000Y-88750000D01*
X103423722Y-88735297D01*
X103425882Y-88720736D01*
X103429459Y-88706457D01*
X103434418Y-88692597D01*
X103440712Y-88679290D01*
X103448280Y-88666664D01*
X103457048Y-88654841D01*
X103466934Y-88643934D01*
X103477841Y-88634048D01*
X103489664Y-88625280D01*
X103502290Y-88617712D01*
X103515597Y-88611418D01*
X103529457Y-88606459D01*
X103543736Y-88602882D01*
X103558297Y-88600722D01*
X103573000Y-88600000D01*
X104873000Y-88600000D01*
X104887703Y-88600722D01*
G37*
G36*
X104887703Y-89870722D02*
G01*
X104902264Y-89872882D01*
X104916543Y-89876459D01*
X104930403Y-89881418D01*
X104943710Y-89887712D01*
X104956336Y-89895280D01*
X104968159Y-89904048D01*
X104979066Y-89913934D01*
X104988952Y-89924841D01*
X104997720Y-89936664D01*
X105005288Y-89949290D01*
X105011582Y-89962597D01*
X105016541Y-89976457D01*
X105020118Y-89990736D01*
X105022278Y-90005297D01*
X105023000Y-90020000D01*
X105023000Y-90320000D01*
X105022278Y-90334703D01*
X105020118Y-90349264D01*
X105016541Y-90363543D01*
X105011582Y-90377403D01*
X105005288Y-90390710D01*
X104997720Y-90403336D01*
X104988952Y-90415159D01*
X104979066Y-90426066D01*
X104968159Y-90435952D01*
X104956336Y-90444720D01*
X104943710Y-90452288D01*
X104930403Y-90458582D01*
X104916543Y-90463541D01*
X104902264Y-90467118D01*
X104887703Y-90469278D01*
X104873000Y-90470000D01*
X103573000Y-90470000D01*
X103558297Y-90469278D01*
X103543736Y-90467118D01*
X103529457Y-90463541D01*
X103515597Y-90458582D01*
X103502290Y-90452288D01*
X103489664Y-90444720D01*
X103477841Y-90435952D01*
X103466934Y-90426066D01*
X103457048Y-90415159D01*
X103448280Y-90403336D01*
X103440712Y-90390710D01*
X103434418Y-90377403D01*
X103429459Y-90363543D01*
X103425882Y-90349264D01*
X103423722Y-90334703D01*
X103423000Y-90320000D01*
X103423000Y-90020000D01*
X103423722Y-90005297D01*
X103425882Y-89990736D01*
X103429459Y-89976457D01*
X103434418Y-89962597D01*
X103440712Y-89949290D01*
X103448280Y-89936664D01*
X103457048Y-89924841D01*
X103466934Y-89913934D01*
X103477841Y-89904048D01*
X103489664Y-89895280D01*
X103502290Y-89887712D01*
X103515597Y-89881418D01*
X103529457Y-89876459D01*
X103543736Y-89872882D01*
X103558297Y-89870722D01*
X103573000Y-89870000D01*
X104873000Y-89870000D01*
X104887703Y-89870722D01*
G37*
G36*
X104887703Y-91140722D02*
G01*
X104902264Y-91142882D01*
X104916543Y-91146459D01*
X104930403Y-91151418D01*
X104943710Y-91157712D01*
X104956336Y-91165280D01*
X104968159Y-91174048D01*
X104979066Y-91183934D01*
X104988952Y-91194841D01*
X104997720Y-91206664D01*
X105005288Y-91219290D01*
X105011582Y-91232597D01*
X105016541Y-91246457D01*
X105020118Y-91260736D01*
X105022278Y-91275297D01*
X105023000Y-91290000D01*
X105023000Y-91590000D01*
X105022278Y-91604703D01*
X105020118Y-91619264D01*
X105016541Y-91633543D01*
X105011582Y-91647403D01*
X105005288Y-91660710D01*
X104997720Y-91673336D01*
X104988952Y-91685159D01*
X104979066Y-91696066D01*
X104968159Y-91705952D01*
X104956336Y-91714720D01*
X104943710Y-91722288D01*
X104930403Y-91728582D01*
X104916543Y-91733541D01*
X104902264Y-91737118D01*
X104887703Y-91739278D01*
X104873000Y-91740000D01*
X103573000Y-91740000D01*
X103558297Y-91739278D01*
X103543736Y-91737118D01*
X103529457Y-91733541D01*
X103515597Y-91728582D01*
X103502290Y-91722288D01*
X103489664Y-91714720D01*
X103477841Y-91705952D01*
X103466934Y-91696066D01*
X103457048Y-91685159D01*
X103448280Y-91673336D01*
X103440712Y-91660710D01*
X103434418Y-91647403D01*
X103429459Y-91633543D01*
X103425882Y-91619264D01*
X103423722Y-91604703D01*
X103423000Y-91590000D01*
X103423000Y-91290000D01*
X103423722Y-91275297D01*
X103425882Y-91260736D01*
X103429459Y-91246457D01*
X103434418Y-91232597D01*
X103440712Y-91219290D01*
X103448280Y-91206664D01*
X103457048Y-91194841D01*
X103466934Y-91183934D01*
X103477841Y-91174048D01*
X103489664Y-91165280D01*
X103502290Y-91157712D01*
X103515597Y-91151418D01*
X103529457Y-91146459D01*
X103543736Y-91142882D01*
X103558297Y-91140722D01*
X103573000Y-91140000D01*
X104873000Y-91140000D01*
X104887703Y-91140722D01*
G37*
D12*
X125975000Y-84665000D03*
X125975000Y-84165000D03*
X125975000Y-83665000D03*
X125975000Y-83165000D03*
X125975000Y-82665000D03*
X125975000Y-82165000D03*
X125975000Y-81665000D03*
X125975000Y-81165000D03*
X125975000Y-80665000D03*
X125975000Y-80165000D03*
X125975000Y-79665000D03*
X125975000Y-79165000D03*
D13*
X127425000Y-77715000D03*
X127925000Y-77715000D03*
X128425000Y-77715000D03*
X128925000Y-77715000D03*
X129425000Y-77715000D03*
X129925000Y-77715000D03*
X130425000Y-77715000D03*
X130925000Y-77715000D03*
X131425000Y-77715000D03*
X131925000Y-77715000D03*
X132425000Y-77715000D03*
X132925000Y-77715000D03*
D12*
X134375000Y-79165000D03*
X134375000Y-79665000D03*
X134375000Y-80165000D03*
X134375000Y-80665000D03*
X134375000Y-81165000D03*
X134375000Y-81665000D03*
X134375000Y-82165000D03*
X134375000Y-82665000D03*
X134375000Y-83165000D03*
X134375000Y-83665000D03*
X134375000Y-84165000D03*
X134375000Y-84665000D03*
D13*
X132925000Y-86115000D03*
X132425000Y-86115000D03*
X131925000Y-86115000D03*
X131425000Y-86115000D03*
X130925000Y-86115000D03*
X130425000Y-86115000D03*
X129925000Y-86115000D03*
X129425000Y-86115000D03*
X128925000Y-86115000D03*
X128425000Y-86115000D03*
X127925000Y-86115000D03*
X127425000Y-86115000D03*
D14*
X131050000Y-81040000D03*
X131050000Y-82790000D03*
X129300000Y-81040000D03*
X129300000Y-82790000D03*
D15*
X101981000Y-173422000D03*
X101981000Y-178622000D03*
X112014000Y-173930000D03*
X112014000Y-179130000D03*
X122047000Y-174438000D03*
X122047000Y-179638000D03*
X132080000Y-174565000D03*
X132080000Y-179765000D03*
X141986000Y-173930000D03*
X141986000Y-179130000D03*
D10*
G36*
X151594736Y-173759258D02*
G01*
X149756258Y-175597736D01*
X148766308Y-174607786D01*
X150604786Y-172769308D01*
X151594736Y-173759258D01*
G37*
G36*
X155271692Y-177436214D02*
G01*
X153433214Y-179274692D01*
X152443264Y-178284742D01*
X154281742Y-176446264D01*
X155271692Y-177436214D01*
G37*
G36*
X110692065Y-48185362D02*
G01*
X110715726Y-48188872D01*
X110738930Y-48194684D01*
X110761452Y-48202742D01*
X110783076Y-48212970D01*
X110803593Y-48225267D01*
X110822806Y-48239517D01*
X110840530Y-48255581D01*
X111185245Y-48600296D01*
X111201309Y-48618020D01*
X111215559Y-48637233D01*
X111227856Y-48657750D01*
X111238084Y-48679374D01*
X111246142Y-48701896D01*
X111251954Y-48725100D01*
X111255464Y-48748761D01*
X111256638Y-48772653D01*
X111255464Y-48796545D01*
X111251954Y-48820206D01*
X111246142Y-48843410D01*
X111238084Y-48865932D01*
X111227856Y-48887556D01*
X111215559Y-48908073D01*
X111201309Y-48927286D01*
X111185245Y-48945010D01*
X110540010Y-49590245D01*
X110522286Y-49606309D01*
X110503073Y-49620559D01*
X110482556Y-49632856D01*
X110460932Y-49643084D01*
X110438410Y-49651142D01*
X110415206Y-49656954D01*
X110391545Y-49660464D01*
X110367653Y-49661638D01*
X110343761Y-49660464D01*
X110320100Y-49656954D01*
X110296896Y-49651142D01*
X110274374Y-49643084D01*
X110252750Y-49632856D01*
X110232233Y-49620559D01*
X110213020Y-49606309D01*
X110195296Y-49590245D01*
X109850581Y-49245530D01*
X109834517Y-49227806D01*
X109820267Y-49208593D01*
X109807970Y-49188076D01*
X109797742Y-49166452D01*
X109789684Y-49143930D01*
X109783872Y-49120726D01*
X109780362Y-49097065D01*
X109779188Y-49073173D01*
X109780362Y-49049281D01*
X109783872Y-49025620D01*
X109789684Y-49002416D01*
X109797742Y-48979894D01*
X109807970Y-48958270D01*
X109820267Y-48937753D01*
X109834517Y-48918540D01*
X109850581Y-48900816D01*
X110495816Y-48255581D01*
X110513540Y-48239517D01*
X110532753Y-48225267D01*
X110553270Y-48212970D01*
X110574894Y-48202742D01*
X110597416Y-48194684D01*
X110620620Y-48188872D01*
X110644281Y-48185362D01*
X110668173Y-48184188D01*
X110692065Y-48185362D01*
G37*
G36*
X109366239Y-46859536D02*
G01*
X109389900Y-46863046D01*
X109413104Y-46868858D01*
X109435626Y-46876916D01*
X109457250Y-46887144D01*
X109477767Y-46899441D01*
X109496980Y-46913691D01*
X109514704Y-46929755D01*
X109859419Y-47274470D01*
X109875483Y-47292194D01*
X109889733Y-47311407D01*
X109902030Y-47331924D01*
X109912258Y-47353548D01*
X109920316Y-47376070D01*
X109926128Y-47399274D01*
X109929638Y-47422935D01*
X109930812Y-47446827D01*
X109929638Y-47470719D01*
X109926128Y-47494380D01*
X109920316Y-47517584D01*
X109912258Y-47540106D01*
X109902030Y-47561730D01*
X109889733Y-47582247D01*
X109875483Y-47601460D01*
X109859419Y-47619184D01*
X109214184Y-48264419D01*
X109196460Y-48280483D01*
X109177247Y-48294733D01*
X109156730Y-48307030D01*
X109135106Y-48317258D01*
X109112584Y-48325316D01*
X109089380Y-48331128D01*
X109065719Y-48334638D01*
X109041827Y-48335812D01*
X109017935Y-48334638D01*
X108994274Y-48331128D01*
X108971070Y-48325316D01*
X108948548Y-48317258D01*
X108926924Y-48307030D01*
X108906407Y-48294733D01*
X108887194Y-48280483D01*
X108869470Y-48264419D01*
X108524755Y-47919704D01*
X108508691Y-47901980D01*
X108494441Y-47882767D01*
X108482144Y-47862250D01*
X108471916Y-47840626D01*
X108463858Y-47818104D01*
X108458046Y-47794900D01*
X108454536Y-47771239D01*
X108453362Y-47747347D01*
X108454536Y-47723455D01*
X108458046Y-47699794D01*
X108463858Y-47676590D01*
X108471916Y-47654068D01*
X108482144Y-47632444D01*
X108494441Y-47611927D01*
X108508691Y-47592714D01*
X108524755Y-47574990D01*
X109169990Y-46929755D01*
X109187714Y-46913691D01*
X109206927Y-46899441D01*
X109227444Y-46887144D01*
X109249068Y-46876916D01*
X109271590Y-46868858D01*
X109294794Y-46863046D01*
X109318455Y-46859536D01*
X109342347Y-46858362D01*
X109366239Y-46859536D01*
G37*
G36*
X112296545Y-40509536D02*
G01*
X112320206Y-40513046D01*
X112343410Y-40518858D01*
X112365932Y-40526916D01*
X112387556Y-40537144D01*
X112408073Y-40549441D01*
X112427286Y-40563691D01*
X112445010Y-40579755D01*
X113090245Y-41224990D01*
X113106309Y-41242714D01*
X113120559Y-41261927D01*
X113132856Y-41282444D01*
X113143084Y-41304068D01*
X113151142Y-41326590D01*
X113156954Y-41349794D01*
X113160464Y-41373455D01*
X113161638Y-41397347D01*
X113160464Y-41421239D01*
X113156954Y-41444900D01*
X113151142Y-41468104D01*
X113143084Y-41490626D01*
X113132856Y-41512250D01*
X113120559Y-41532767D01*
X113106309Y-41551980D01*
X113090245Y-41569704D01*
X112745530Y-41914419D01*
X112727806Y-41930483D01*
X112708593Y-41944733D01*
X112688076Y-41957030D01*
X112666452Y-41967258D01*
X112643930Y-41975316D01*
X112620726Y-41981128D01*
X112597065Y-41984638D01*
X112573173Y-41985812D01*
X112549281Y-41984638D01*
X112525620Y-41981128D01*
X112502416Y-41975316D01*
X112479894Y-41967258D01*
X112458270Y-41957030D01*
X112437753Y-41944733D01*
X112418540Y-41930483D01*
X112400816Y-41914419D01*
X111755581Y-41269184D01*
X111739517Y-41251460D01*
X111725267Y-41232247D01*
X111712970Y-41211730D01*
X111702742Y-41190106D01*
X111694684Y-41167584D01*
X111688872Y-41144380D01*
X111685362Y-41120719D01*
X111684188Y-41096827D01*
X111685362Y-41072935D01*
X111688872Y-41049274D01*
X111694684Y-41026070D01*
X111702742Y-41003548D01*
X111712970Y-40981924D01*
X111725267Y-40961407D01*
X111739517Y-40942194D01*
X111755581Y-40924470D01*
X112100296Y-40579755D01*
X112118020Y-40563691D01*
X112137233Y-40549441D01*
X112157750Y-40537144D01*
X112179374Y-40526916D01*
X112201896Y-40518858D01*
X112225100Y-40513046D01*
X112248761Y-40509536D01*
X112272653Y-40508362D01*
X112296545Y-40509536D01*
G37*
G36*
X110970719Y-41835362D02*
G01*
X110994380Y-41838872D01*
X111017584Y-41844684D01*
X111040106Y-41852742D01*
X111061730Y-41862970D01*
X111082247Y-41875267D01*
X111101460Y-41889517D01*
X111119184Y-41905581D01*
X111764419Y-42550816D01*
X111780483Y-42568540D01*
X111794733Y-42587753D01*
X111807030Y-42608270D01*
X111817258Y-42629894D01*
X111825316Y-42652416D01*
X111831128Y-42675620D01*
X111834638Y-42699281D01*
X111835812Y-42723173D01*
X111834638Y-42747065D01*
X111831128Y-42770726D01*
X111825316Y-42793930D01*
X111817258Y-42816452D01*
X111807030Y-42838076D01*
X111794733Y-42858593D01*
X111780483Y-42877806D01*
X111764419Y-42895530D01*
X111419704Y-43240245D01*
X111401980Y-43256309D01*
X111382767Y-43270559D01*
X111362250Y-43282856D01*
X111340626Y-43293084D01*
X111318104Y-43301142D01*
X111294900Y-43306954D01*
X111271239Y-43310464D01*
X111247347Y-43311638D01*
X111223455Y-43310464D01*
X111199794Y-43306954D01*
X111176590Y-43301142D01*
X111154068Y-43293084D01*
X111132444Y-43282856D01*
X111111927Y-43270559D01*
X111092714Y-43256309D01*
X111074990Y-43240245D01*
X110429755Y-42595010D01*
X110413691Y-42577286D01*
X110399441Y-42558073D01*
X110387144Y-42537556D01*
X110376916Y-42515932D01*
X110368858Y-42493410D01*
X110363046Y-42470206D01*
X110359536Y-42446545D01*
X110358362Y-42422653D01*
X110359536Y-42398761D01*
X110363046Y-42375100D01*
X110368858Y-42351896D01*
X110376916Y-42329374D01*
X110387144Y-42307750D01*
X110399441Y-42287233D01*
X110413691Y-42268020D01*
X110429755Y-42250296D01*
X110774470Y-41905581D01*
X110792194Y-41889517D01*
X110811407Y-41875267D01*
X110831924Y-41862970D01*
X110853548Y-41852742D01*
X110876070Y-41844684D01*
X110899274Y-41838872D01*
X110922935Y-41835362D01*
X110946827Y-41834188D01*
X110970719Y-41835362D01*
G37*
D16*
X91440000Y-148590000D03*
X90805000Y-149225000D03*
X92075000Y-149225000D03*
D10*
G36*
X128557031Y-165735000D02*
G01*
X127602437Y-166689594D01*
X126647843Y-165735000D01*
X127602437Y-164780406D01*
X128557031Y-165735000D01*
G37*
G36*
X127319594Y-166972437D02*
G01*
X126365000Y-167927031D01*
X125410406Y-166972437D01*
X126365000Y-166017843D01*
X127319594Y-166972437D01*
G37*
G36*
X127319594Y-164497563D02*
G01*
X126365000Y-165452157D01*
X125410406Y-164497563D01*
X126365000Y-163542969D01*
X127319594Y-164497563D01*
G37*
G36*
X126082157Y-165735000D02*
G01*
X125127563Y-166689594D01*
X124172969Y-165735000D01*
X125127563Y-164780406D01*
X126082157Y-165735000D01*
G37*
G36*
X130855128Y-165346091D02*
G01*
X130642996Y-165133959D01*
X131703656Y-164073299D01*
X131915788Y-164285431D01*
X130855128Y-165346091D01*
G37*
G36*
X130501575Y-164992538D02*
G01*
X130289443Y-164780406D01*
X131350103Y-163719746D01*
X131562235Y-163931878D01*
X130501575Y-164992538D01*
G37*
G36*
X130148021Y-164638984D02*
G01*
X129935889Y-164426852D01*
X130996549Y-163366192D01*
X131208681Y-163578324D01*
X130148021Y-164638984D01*
G37*
G36*
X129794468Y-164285431D02*
G01*
X129582336Y-164073299D01*
X130642996Y-163012639D01*
X130855128Y-163224771D01*
X129794468Y-164285431D01*
G37*
G36*
X129440915Y-163931878D02*
G01*
X129228783Y-163719746D01*
X130289443Y-162659086D01*
X130501575Y-162871218D01*
X129440915Y-163931878D01*
G37*
G36*
X129087361Y-163578324D02*
G01*
X128875229Y-163366192D01*
X129935889Y-162305532D01*
X130148021Y-162517664D01*
X129087361Y-163578324D01*
G37*
G36*
X128733808Y-163224771D02*
G01*
X128521676Y-163012639D01*
X129582336Y-161951979D01*
X129794468Y-162164111D01*
X128733808Y-163224771D01*
G37*
G36*
X128380254Y-162871217D02*
G01*
X128168122Y-162659085D01*
X129228782Y-161598425D01*
X129440914Y-161810557D01*
X128380254Y-162871217D01*
G37*
G36*
X128026701Y-162517664D02*
G01*
X127814569Y-162305532D01*
X128875229Y-161244872D01*
X129087361Y-161457004D01*
X128026701Y-162517664D01*
G37*
G36*
X127673148Y-162164111D02*
G01*
X127461016Y-161951979D01*
X128521676Y-160891319D01*
X128733808Y-161103451D01*
X127673148Y-162164111D01*
G37*
G36*
X127319594Y-161810557D02*
G01*
X127107462Y-161598425D01*
X128168122Y-160537765D01*
X128380254Y-160749897D01*
X127319594Y-161810557D01*
G37*
G36*
X126966041Y-161457004D02*
G01*
X126753909Y-161244872D01*
X127814569Y-160184212D01*
X128026701Y-160396344D01*
X126966041Y-161457004D01*
G37*
G36*
X125976091Y-161244872D02*
G01*
X125763959Y-161457004D01*
X124703299Y-160396344D01*
X124915431Y-160184212D01*
X125976091Y-161244872D01*
G37*
G36*
X125622538Y-161598425D02*
G01*
X125410406Y-161810557D01*
X124349746Y-160749897D01*
X124561878Y-160537765D01*
X125622538Y-161598425D01*
G37*
G36*
X125268984Y-161951979D02*
G01*
X125056852Y-162164111D01*
X123996192Y-161103451D01*
X124208324Y-160891319D01*
X125268984Y-161951979D01*
G37*
G36*
X124915431Y-162305532D02*
G01*
X124703299Y-162517664D01*
X123642639Y-161457004D01*
X123854771Y-161244872D01*
X124915431Y-162305532D01*
G37*
G36*
X124561878Y-162659085D02*
G01*
X124349746Y-162871217D01*
X123289086Y-161810557D01*
X123501218Y-161598425D01*
X124561878Y-162659085D01*
G37*
G36*
X124208324Y-163012639D02*
G01*
X123996192Y-163224771D01*
X122935532Y-162164111D01*
X123147664Y-161951979D01*
X124208324Y-163012639D01*
G37*
G36*
X123854771Y-163366192D02*
G01*
X123642639Y-163578324D01*
X122581979Y-162517664D01*
X122794111Y-162305532D01*
X123854771Y-163366192D01*
G37*
G36*
X123501217Y-163719746D02*
G01*
X123289085Y-163931878D01*
X122228425Y-162871218D01*
X122440557Y-162659086D01*
X123501217Y-163719746D01*
G37*
G36*
X123147664Y-164073299D02*
G01*
X122935532Y-164285431D01*
X121874872Y-163224771D01*
X122087004Y-163012639D01*
X123147664Y-164073299D01*
G37*
G36*
X122794111Y-164426852D02*
G01*
X122581979Y-164638984D01*
X121521319Y-163578324D01*
X121733451Y-163366192D01*
X122794111Y-164426852D01*
G37*
G36*
X122440557Y-164780406D02*
G01*
X122228425Y-164992538D01*
X121167765Y-163931878D01*
X121379897Y-163719746D01*
X122440557Y-164780406D01*
G37*
G36*
X122087004Y-165133959D02*
G01*
X121874872Y-165346091D01*
X120814212Y-164285431D01*
X121026344Y-164073299D01*
X122087004Y-165133959D01*
G37*
G36*
X121026344Y-167396701D02*
G01*
X120814212Y-167184569D01*
X121874872Y-166123909D01*
X122087004Y-166336041D01*
X121026344Y-167396701D01*
G37*
G36*
X121379897Y-167750254D02*
G01*
X121167765Y-167538122D01*
X122228425Y-166477462D01*
X122440557Y-166689594D01*
X121379897Y-167750254D01*
G37*
G36*
X121733451Y-168103808D02*
G01*
X121521319Y-167891676D01*
X122581979Y-166831016D01*
X122794111Y-167043148D01*
X121733451Y-168103808D01*
G37*
G36*
X122087004Y-168457361D02*
G01*
X121874872Y-168245229D01*
X122935532Y-167184569D01*
X123147664Y-167396701D01*
X122087004Y-168457361D01*
G37*
G36*
X122440557Y-168810914D02*
G01*
X122228425Y-168598782D01*
X123289085Y-167538122D01*
X123501217Y-167750254D01*
X122440557Y-168810914D01*
G37*
G36*
X122794111Y-169164468D02*
G01*
X122581979Y-168952336D01*
X123642639Y-167891676D01*
X123854771Y-168103808D01*
X122794111Y-169164468D01*
G37*
G36*
X123147664Y-169518021D02*
G01*
X122935532Y-169305889D01*
X123996192Y-168245229D01*
X124208324Y-168457361D01*
X123147664Y-169518021D01*
G37*
G36*
X123501218Y-169871575D02*
G01*
X123289086Y-169659443D01*
X124349746Y-168598783D01*
X124561878Y-168810915D01*
X123501218Y-169871575D01*
G37*
G36*
X123854771Y-170225128D02*
G01*
X123642639Y-170012996D01*
X124703299Y-168952336D01*
X124915431Y-169164468D01*
X123854771Y-170225128D01*
G37*
G36*
X124208324Y-170578681D02*
G01*
X123996192Y-170366549D01*
X125056852Y-169305889D01*
X125268984Y-169518021D01*
X124208324Y-170578681D01*
G37*
G36*
X124561878Y-170932235D02*
G01*
X124349746Y-170720103D01*
X125410406Y-169659443D01*
X125622538Y-169871575D01*
X124561878Y-170932235D01*
G37*
G36*
X124915431Y-171285788D02*
G01*
X124703299Y-171073656D01*
X125763959Y-170012996D01*
X125976091Y-170225128D01*
X124915431Y-171285788D01*
G37*
G36*
X128026701Y-171073656D02*
G01*
X127814569Y-171285788D01*
X126753909Y-170225128D01*
X126966041Y-170012996D01*
X128026701Y-171073656D01*
G37*
G36*
X128380254Y-170720103D02*
G01*
X128168122Y-170932235D01*
X127107462Y-169871575D01*
X127319594Y-169659443D01*
X128380254Y-170720103D01*
G37*
G36*
X128733808Y-170366549D02*
G01*
X128521676Y-170578681D01*
X127461016Y-169518021D01*
X127673148Y-169305889D01*
X128733808Y-170366549D01*
G37*
G36*
X129087361Y-170012996D02*
G01*
X128875229Y-170225128D01*
X127814569Y-169164468D01*
X128026701Y-168952336D01*
X129087361Y-170012996D01*
G37*
G36*
X129440914Y-169659443D02*
G01*
X129228782Y-169871575D01*
X128168122Y-168810915D01*
X128380254Y-168598783D01*
X129440914Y-169659443D01*
G37*
G36*
X129794468Y-169305889D02*
G01*
X129582336Y-169518021D01*
X128521676Y-168457361D01*
X128733808Y-168245229D01*
X129794468Y-169305889D01*
G37*
G36*
X130148021Y-168952336D02*
G01*
X129935889Y-169164468D01*
X128875229Y-168103808D01*
X129087361Y-167891676D01*
X130148021Y-168952336D01*
G37*
G36*
X130501575Y-168598782D02*
G01*
X130289443Y-168810914D01*
X129228783Y-167750254D01*
X129440915Y-167538122D01*
X130501575Y-168598782D01*
G37*
G36*
X130855128Y-168245229D02*
G01*
X130642996Y-168457361D01*
X129582336Y-167396701D01*
X129794468Y-167184569D01*
X130855128Y-168245229D01*
G37*
G36*
X131208681Y-167891676D02*
G01*
X130996549Y-168103808D01*
X129935889Y-167043148D01*
X130148021Y-166831016D01*
X131208681Y-167891676D01*
G37*
G36*
X131562235Y-167538122D02*
G01*
X131350103Y-167750254D01*
X130289443Y-166689594D01*
X130501575Y-166477462D01*
X131562235Y-167538122D01*
G37*
G36*
X131915788Y-167184569D02*
G01*
X131703656Y-167396701D01*
X130642996Y-166336041D01*
X130855128Y-166123909D01*
X131915788Y-167184569D01*
G37*
D17*
X148270000Y-161460000D03*
X146370000Y-161460000D03*
X146370000Y-163660000D03*
X147320000Y-163660000D03*
X148270000Y-163660000D03*
D10*
G36*
X128547691Y-89581052D02*
G01*
X128568926Y-89584202D01*
X128589750Y-89589418D01*
X128609962Y-89596650D01*
X128629368Y-89605829D01*
X128647781Y-89616865D01*
X128665024Y-89629653D01*
X128680930Y-89644069D01*
X128695346Y-89659975D01*
X128708134Y-89677218D01*
X128719170Y-89695631D01*
X128728349Y-89715037D01*
X128735581Y-89735249D01*
X128740797Y-89756073D01*
X128743947Y-89777308D01*
X128745000Y-89798749D01*
X128745000Y-90236249D01*
X128743947Y-90257690D01*
X128740797Y-90278925D01*
X128735581Y-90299749D01*
X128728349Y-90319961D01*
X128719170Y-90339367D01*
X128708134Y-90357780D01*
X128695346Y-90375023D01*
X128680930Y-90390929D01*
X128665024Y-90405345D01*
X128647781Y-90418133D01*
X128629368Y-90429169D01*
X128609962Y-90438348D01*
X128589750Y-90445580D01*
X128568926Y-90450796D01*
X128547691Y-90453946D01*
X128526250Y-90454999D01*
X128013750Y-90454999D01*
X127992309Y-90453946D01*
X127971074Y-90450796D01*
X127950250Y-90445580D01*
X127930038Y-90438348D01*
X127910632Y-90429169D01*
X127892219Y-90418133D01*
X127874976Y-90405345D01*
X127859070Y-90390929D01*
X127844654Y-90375023D01*
X127831866Y-90357780D01*
X127820830Y-90339367D01*
X127811651Y-90319961D01*
X127804419Y-90299749D01*
X127799203Y-90278925D01*
X127796053Y-90257690D01*
X127795000Y-90236249D01*
X127795000Y-89798749D01*
X127796053Y-89777308D01*
X127799203Y-89756073D01*
X127804419Y-89735249D01*
X127811651Y-89715037D01*
X127820830Y-89695631D01*
X127831866Y-89677218D01*
X127844654Y-89659975D01*
X127859070Y-89644069D01*
X127874976Y-89629653D01*
X127892219Y-89616865D01*
X127910632Y-89605829D01*
X127930038Y-89596650D01*
X127950250Y-89589418D01*
X127971074Y-89584202D01*
X127992309Y-89581052D01*
X128013750Y-89579999D01*
X128526250Y-89579999D01*
X128547691Y-89581052D01*
G37*
G36*
X128547691Y-91156054D02*
G01*
X128568926Y-91159204D01*
X128589750Y-91164420D01*
X128609962Y-91171652D01*
X128629368Y-91180831D01*
X128647781Y-91191867D01*
X128665024Y-91204655D01*
X128680930Y-91219071D01*
X128695346Y-91234977D01*
X128708134Y-91252220D01*
X128719170Y-91270633D01*
X128728349Y-91290039D01*
X128735581Y-91310251D01*
X128740797Y-91331075D01*
X128743947Y-91352310D01*
X128745000Y-91373751D01*
X128745000Y-91811251D01*
X128743947Y-91832692D01*
X128740797Y-91853927D01*
X128735581Y-91874751D01*
X128728349Y-91894963D01*
X128719170Y-91914369D01*
X128708134Y-91932782D01*
X128695346Y-91950025D01*
X128680930Y-91965931D01*
X128665024Y-91980347D01*
X128647781Y-91993135D01*
X128629368Y-92004171D01*
X128609962Y-92013350D01*
X128589750Y-92020582D01*
X128568926Y-92025798D01*
X128547691Y-92028948D01*
X128526250Y-92030001D01*
X128013750Y-92030001D01*
X127992309Y-92028948D01*
X127971074Y-92025798D01*
X127950250Y-92020582D01*
X127930038Y-92013350D01*
X127910632Y-92004171D01*
X127892219Y-91993135D01*
X127874976Y-91980347D01*
X127859070Y-91965931D01*
X127844654Y-91950025D01*
X127831866Y-91932782D01*
X127820830Y-91914369D01*
X127811651Y-91894963D01*
X127804419Y-91874751D01*
X127799203Y-91853927D01*
X127796053Y-91832692D01*
X127795000Y-91811251D01*
X127795000Y-91373751D01*
X127796053Y-91352310D01*
X127799203Y-91331075D01*
X127804419Y-91310251D01*
X127811651Y-91290039D01*
X127820830Y-91270633D01*
X127831866Y-91252220D01*
X127844654Y-91234977D01*
X127859070Y-91219071D01*
X127874976Y-91204655D01*
X127892219Y-91191867D01*
X127910632Y-91180831D01*
X127930038Y-91171652D01*
X127950250Y-91164420D01*
X127971074Y-91159204D01*
X127992309Y-91156054D01*
X128013750Y-91155001D01*
X128526250Y-91155001D01*
X128547691Y-91156054D01*
G37*
G36*
X131518077Y-160658274D02*
G01*
X131539312Y-160661424D01*
X131560136Y-160666640D01*
X131580348Y-160673872D01*
X131599754Y-160683051D01*
X131618167Y-160694087D01*
X131635410Y-160706875D01*
X131651316Y-160721291D01*
X132013709Y-161083684D01*
X132028125Y-161099590D01*
X132040913Y-161116833D01*
X132051949Y-161135246D01*
X132061128Y-161154652D01*
X132068360Y-161174864D01*
X132073576Y-161195688D01*
X132076726Y-161216923D01*
X132077779Y-161238364D01*
X132076726Y-161259805D01*
X132073576Y-161281040D01*
X132068360Y-161301864D01*
X132061128Y-161322076D01*
X132051949Y-161341482D01*
X132040913Y-161359895D01*
X132028125Y-161377138D01*
X132013709Y-161393044D01*
X131704350Y-161702403D01*
X131688444Y-161716819D01*
X131671201Y-161729607D01*
X131652788Y-161740643D01*
X131633382Y-161749822D01*
X131613170Y-161757054D01*
X131592346Y-161762270D01*
X131571111Y-161765420D01*
X131549670Y-161766473D01*
X131528229Y-161765420D01*
X131506994Y-161762270D01*
X131486170Y-161757054D01*
X131465958Y-161749822D01*
X131446552Y-161740643D01*
X131428139Y-161729607D01*
X131410896Y-161716819D01*
X131394990Y-161702403D01*
X131032597Y-161340010D01*
X131018181Y-161324104D01*
X131005393Y-161306861D01*
X130994357Y-161288448D01*
X130985178Y-161269042D01*
X130977946Y-161248830D01*
X130972730Y-161228006D01*
X130969580Y-161206771D01*
X130968527Y-161185330D01*
X130969580Y-161163889D01*
X130972730Y-161142654D01*
X130977946Y-161121830D01*
X130985178Y-161101618D01*
X130994357Y-161082212D01*
X131005393Y-161063799D01*
X131018181Y-161046556D01*
X131032597Y-161030650D01*
X131341956Y-160721291D01*
X131357862Y-160706875D01*
X131375105Y-160694087D01*
X131393518Y-160683051D01*
X131412924Y-160673872D01*
X131433136Y-160666640D01*
X131453960Y-160661424D01*
X131475195Y-160658274D01*
X131496636Y-160657221D01*
X131518077Y-160658274D01*
G37*
G36*
X132631771Y-159544580D02*
G01*
X132653006Y-159547730D01*
X132673830Y-159552946D01*
X132694042Y-159560178D01*
X132713448Y-159569357D01*
X132731861Y-159580393D01*
X132749104Y-159593181D01*
X132765010Y-159607597D01*
X133127403Y-159969990D01*
X133141819Y-159985896D01*
X133154607Y-160003139D01*
X133165643Y-160021552D01*
X133174822Y-160040958D01*
X133182054Y-160061170D01*
X133187270Y-160081994D01*
X133190420Y-160103229D01*
X133191473Y-160124670D01*
X133190420Y-160146111D01*
X133187270Y-160167346D01*
X133182054Y-160188170D01*
X133174822Y-160208382D01*
X133165643Y-160227788D01*
X133154607Y-160246201D01*
X133141819Y-160263444D01*
X133127403Y-160279350D01*
X132818044Y-160588709D01*
X132802138Y-160603125D01*
X132784895Y-160615913D01*
X132766482Y-160626949D01*
X132747076Y-160636128D01*
X132726864Y-160643360D01*
X132706040Y-160648576D01*
X132684805Y-160651726D01*
X132663364Y-160652779D01*
X132641923Y-160651726D01*
X132620688Y-160648576D01*
X132599864Y-160643360D01*
X132579652Y-160636128D01*
X132560246Y-160626949D01*
X132541833Y-160615913D01*
X132524590Y-160603125D01*
X132508684Y-160588709D01*
X132146291Y-160226316D01*
X132131875Y-160210410D01*
X132119087Y-160193167D01*
X132108051Y-160174754D01*
X132098872Y-160155348D01*
X132091640Y-160135136D01*
X132086424Y-160114312D01*
X132083274Y-160093077D01*
X132082221Y-160071636D01*
X132083274Y-160050195D01*
X132086424Y-160028960D01*
X132091640Y-160008136D01*
X132098872Y-159987924D01*
X132108051Y-159968518D01*
X132119087Y-159950105D01*
X132131875Y-159932862D01*
X132146291Y-159916956D01*
X132455650Y-159607597D01*
X132471556Y-159593181D01*
X132488799Y-159580393D01*
X132507212Y-159569357D01*
X132526618Y-159560178D01*
X132546830Y-159552946D01*
X132567654Y-159547730D01*
X132588889Y-159544580D01*
X132610330Y-159543527D01*
X132631771Y-159544580D01*
G37*
G36*
X111720691Y-144941053D02*
G01*
X111741926Y-144944203D01*
X111762750Y-144949419D01*
X111782962Y-144956651D01*
X111802368Y-144965830D01*
X111820781Y-144976866D01*
X111838024Y-144989654D01*
X111853930Y-145004070D01*
X111868346Y-145019976D01*
X111881134Y-145037219D01*
X111892170Y-145055632D01*
X111901349Y-145075038D01*
X111908581Y-145095250D01*
X111913797Y-145116074D01*
X111916947Y-145137309D01*
X111918000Y-145158750D01*
X111918000Y-145671250D01*
X111916947Y-145692691D01*
X111913797Y-145713926D01*
X111908581Y-145734750D01*
X111901349Y-145754962D01*
X111892170Y-145774368D01*
X111881134Y-145792781D01*
X111868346Y-145810024D01*
X111853930Y-145825930D01*
X111838024Y-145840346D01*
X111820781Y-145853134D01*
X111802368Y-145864170D01*
X111782962Y-145873349D01*
X111762750Y-145880581D01*
X111741926Y-145885797D01*
X111720691Y-145888947D01*
X111699250Y-145890000D01*
X111261750Y-145890000D01*
X111240309Y-145888947D01*
X111219074Y-145885797D01*
X111198250Y-145880581D01*
X111178038Y-145873349D01*
X111158632Y-145864170D01*
X111140219Y-145853134D01*
X111122976Y-145840346D01*
X111107070Y-145825930D01*
X111092654Y-145810024D01*
X111079866Y-145792781D01*
X111068830Y-145774368D01*
X111059651Y-145754962D01*
X111052419Y-145734750D01*
X111047203Y-145713926D01*
X111044053Y-145692691D01*
X111043000Y-145671250D01*
X111043000Y-145158750D01*
X111044053Y-145137309D01*
X111047203Y-145116074D01*
X111052419Y-145095250D01*
X111059651Y-145075038D01*
X111068830Y-145055632D01*
X111079866Y-145037219D01*
X111092654Y-145019976D01*
X111107070Y-145004070D01*
X111122976Y-144989654D01*
X111140219Y-144976866D01*
X111158632Y-144965830D01*
X111178038Y-144956651D01*
X111198250Y-144949419D01*
X111219074Y-144944203D01*
X111240309Y-144941053D01*
X111261750Y-144940000D01*
X111699250Y-144940000D01*
X111720691Y-144941053D01*
G37*
G36*
X113295691Y-144941053D02*
G01*
X113316926Y-144944203D01*
X113337750Y-144949419D01*
X113357962Y-144956651D01*
X113377368Y-144965830D01*
X113395781Y-144976866D01*
X113413024Y-144989654D01*
X113428930Y-145004070D01*
X113443346Y-145019976D01*
X113456134Y-145037219D01*
X113467170Y-145055632D01*
X113476349Y-145075038D01*
X113483581Y-145095250D01*
X113488797Y-145116074D01*
X113491947Y-145137309D01*
X113493000Y-145158750D01*
X113493000Y-145671250D01*
X113491947Y-145692691D01*
X113488797Y-145713926D01*
X113483581Y-145734750D01*
X113476349Y-145754962D01*
X113467170Y-145774368D01*
X113456134Y-145792781D01*
X113443346Y-145810024D01*
X113428930Y-145825930D01*
X113413024Y-145840346D01*
X113395781Y-145853134D01*
X113377368Y-145864170D01*
X113357962Y-145873349D01*
X113337750Y-145880581D01*
X113316926Y-145885797D01*
X113295691Y-145888947D01*
X113274250Y-145890000D01*
X112836750Y-145890000D01*
X112815309Y-145888947D01*
X112794074Y-145885797D01*
X112773250Y-145880581D01*
X112753038Y-145873349D01*
X112733632Y-145864170D01*
X112715219Y-145853134D01*
X112697976Y-145840346D01*
X112682070Y-145825930D01*
X112667654Y-145810024D01*
X112654866Y-145792781D01*
X112643830Y-145774368D01*
X112634651Y-145754962D01*
X112627419Y-145734750D01*
X112622203Y-145713926D01*
X112619053Y-145692691D01*
X112618000Y-145671250D01*
X112618000Y-145158750D01*
X112619053Y-145137309D01*
X112622203Y-145116074D01*
X112627419Y-145095250D01*
X112634651Y-145075038D01*
X112643830Y-145055632D01*
X112654866Y-145037219D01*
X112667654Y-145019976D01*
X112682070Y-145004070D01*
X112697976Y-144989654D01*
X112715219Y-144976866D01*
X112733632Y-144965830D01*
X112753038Y-144956651D01*
X112773250Y-144949419D01*
X112794074Y-144944203D01*
X112815309Y-144941053D01*
X112836750Y-144940000D01*
X113274250Y-144940000D01*
X113295691Y-144941053D01*
G37*
G36*
X111720691Y-146846053D02*
G01*
X111741926Y-146849203D01*
X111762750Y-146854419D01*
X111782962Y-146861651D01*
X111802368Y-146870830D01*
X111820781Y-146881866D01*
X111838024Y-146894654D01*
X111853930Y-146909070D01*
X111868346Y-146924976D01*
X111881134Y-146942219D01*
X111892170Y-146960632D01*
X111901349Y-146980038D01*
X111908581Y-147000250D01*
X111913797Y-147021074D01*
X111916947Y-147042309D01*
X111918000Y-147063750D01*
X111918000Y-147576250D01*
X111916947Y-147597691D01*
X111913797Y-147618926D01*
X111908581Y-147639750D01*
X111901349Y-147659962D01*
X111892170Y-147679368D01*
X111881134Y-147697781D01*
X111868346Y-147715024D01*
X111853930Y-147730930D01*
X111838024Y-147745346D01*
X111820781Y-147758134D01*
X111802368Y-147769170D01*
X111782962Y-147778349D01*
X111762750Y-147785581D01*
X111741926Y-147790797D01*
X111720691Y-147793947D01*
X111699250Y-147795000D01*
X111261750Y-147795000D01*
X111240309Y-147793947D01*
X111219074Y-147790797D01*
X111198250Y-147785581D01*
X111178038Y-147778349D01*
X111158632Y-147769170D01*
X111140219Y-147758134D01*
X111122976Y-147745346D01*
X111107070Y-147730930D01*
X111092654Y-147715024D01*
X111079866Y-147697781D01*
X111068830Y-147679368D01*
X111059651Y-147659962D01*
X111052419Y-147639750D01*
X111047203Y-147618926D01*
X111044053Y-147597691D01*
X111043000Y-147576250D01*
X111043000Y-147063750D01*
X111044053Y-147042309D01*
X111047203Y-147021074D01*
X111052419Y-147000250D01*
X111059651Y-146980038D01*
X111068830Y-146960632D01*
X111079866Y-146942219D01*
X111092654Y-146924976D01*
X111107070Y-146909070D01*
X111122976Y-146894654D01*
X111140219Y-146881866D01*
X111158632Y-146870830D01*
X111178038Y-146861651D01*
X111198250Y-146854419D01*
X111219074Y-146849203D01*
X111240309Y-146846053D01*
X111261750Y-146845000D01*
X111699250Y-146845000D01*
X111720691Y-146846053D01*
G37*
G36*
X113295691Y-146846053D02*
G01*
X113316926Y-146849203D01*
X113337750Y-146854419D01*
X113357962Y-146861651D01*
X113377368Y-146870830D01*
X113395781Y-146881866D01*
X113413024Y-146894654D01*
X113428930Y-146909070D01*
X113443346Y-146924976D01*
X113456134Y-146942219D01*
X113467170Y-146960632D01*
X113476349Y-146980038D01*
X113483581Y-147000250D01*
X113488797Y-147021074D01*
X113491947Y-147042309D01*
X113493000Y-147063750D01*
X113493000Y-147576250D01*
X113491947Y-147597691D01*
X113488797Y-147618926D01*
X113483581Y-147639750D01*
X113476349Y-147659962D01*
X113467170Y-147679368D01*
X113456134Y-147697781D01*
X113443346Y-147715024D01*
X113428930Y-147730930D01*
X113413024Y-147745346D01*
X113395781Y-147758134D01*
X113377368Y-147769170D01*
X113357962Y-147778349D01*
X113337750Y-147785581D01*
X113316926Y-147790797D01*
X113295691Y-147793947D01*
X113274250Y-147795000D01*
X112836750Y-147795000D01*
X112815309Y-147793947D01*
X112794074Y-147790797D01*
X112773250Y-147785581D01*
X112753038Y-147778349D01*
X112733632Y-147769170D01*
X112715219Y-147758134D01*
X112697976Y-147745346D01*
X112682070Y-147730930D01*
X112667654Y-147715024D01*
X112654866Y-147697781D01*
X112643830Y-147679368D01*
X112634651Y-147659962D01*
X112627419Y-147639750D01*
X112622203Y-147618926D01*
X112619053Y-147597691D01*
X112618000Y-147576250D01*
X112618000Y-147063750D01*
X112619053Y-147042309D01*
X112622203Y-147021074D01*
X112627419Y-147000250D01*
X112634651Y-146980038D01*
X112643830Y-146960632D01*
X112654866Y-146942219D01*
X112667654Y-146924976D01*
X112682070Y-146909070D01*
X112697976Y-146894654D01*
X112715219Y-146881866D01*
X112733632Y-146870830D01*
X112753038Y-146861651D01*
X112773250Y-146854419D01*
X112794074Y-146849203D01*
X112815309Y-146846053D01*
X112836750Y-146845000D01*
X113274250Y-146845000D01*
X113295691Y-146846053D01*
G37*
G36*
X151852691Y-193201053D02*
G01*
X151873926Y-193204203D01*
X151894750Y-193209419D01*
X151914962Y-193216651D01*
X151934368Y-193225830D01*
X151952781Y-193236866D01*
X151970024Y-193249654D01*
X151985930Y-193264070D01*
X152000346Y-193279976D01*
X152013134Y-193297219D01*
X152024170Y-193315632D01*
X152033349Y-193335038D01*
X152040581Y-193355250D01*
X152045797Y-193376074D01*
X152048947Y-193397309D01*
X152050000Y-193418750D01*
X152050000Y-193931250D01*
X152048947Y-193952691D01*
X152045797Y-193973926D01*
X152040581Y-193994750D01*
X152033349Y-194014962D01*
X152024170Y-194034368D01*
X152013134Y-194052781D01*
X152000346Y-194070024D01*
X151985930Y-194085930D01*
X151970024Y-194100346D01*
X151952781Y-194113134D01*
X151934368Y-194124170D01*
X151914962Y-194133349D01*
X151894750Y-194140581D01*
X151873926Y-194145797D01*
X151852691Y-194148947D01*
X151831250Y-194150000D01*
X151393750Y-194150000D01*
X151372309Y-194148947D01*
X151351074Y-194145797D01*
X151330250Y-194140581D01*
X151310038Y-194133349D01*
X151290632Y-194124170D01*
X151272219Y-194113134D01*
X151254976Y-194100346D01*
X151239070Y-194085930D01*
X151224654Y-194070024D01*
X151211866Y-194052781D01*
X151200830Y-194034368D01*
X151191651Y-194014962D01*
X151184419Y-193994750D01*
X151179203Y-193973926D01*
X151176053Y-193952691D01*
X151175000Y-193931250D01*
X151175000Y-193418750D01*
X151176053Y-193397309D01*
X151179203Y-193376074D01*
X151184419Y-193355250D01*
X151191651Y-193335038D01*
X151200830Y-193315632D01*
X151211866Y-193297219D01*
X151224654Y-193279976D01*
X151239070Y-193264070D01*
X151254976Y-193249654D01*
X151272219Y-193236866D01*
X151290632Y-193225830D01*
X151310038Y-193216651D01*
X151330250Y-193209419D01*
X151351074Y-193204203D01*
X151372309Y-193201053D01*
X151393750Y-193200000D01*
X151831250Y-193200000D01*
X151852691Y-193201053D01*
G37*
G36*
X153427691Y-193201053D02*
G01*
X153448926Y-193204203D01*
X153469750Y-193209419D01*
X153489962Y-193216651D01*
X153509368Y-193225830D01*
X153527781Y-193236866D01*
X153545024Y-193249654D01*
X153560930Y-193264070D01*
X153575346Y-193279976D01*
X153588134Y-193297219D01*
X153599170Y-193315632D01*
X153608349Y-193335038D01*
X153615581Y-193355250D01*
X153620797Y-193376074D01*
X153623947Y-193397309D01*
X153625000Y-193418750D01*
X153625000Y-193931250D01*
X153623947Y-193952691D01*
X153620797Y-193973926D01*
X153615581Y-193994750D01*
X153608349Y-194014962D01*
X153599170Y-194034368D01*
X153588134Y-194052781D01*
X153575346Y-194070024D01*
X153560930Y-194085930D01*
X153545024Y-194100346D01*
X153527781Y-194113134D01*
X153509368Y-194124170D01*
X153489962Y-194133349D01*
X153469750Y-194140581D01*
X153448926Y-194145797D01*
X153427691Y-194148947D01*
X153406250Y-194150000D01*
X152968750Y-194150000D01*
X152947309Y-194148947D01*
X152926074Y-194145797D01*
X152905250Y-194140581D01*
X152885038Y-194133349D01*
X152865632Y-194124170D01*
X152847219Y-194113134D01*
X152829976Y-194100346D01*
X152814070Y-194085930D01*
X152799654Y-194070024D01*
X152786866Y-194052781D01*
X152775830Y-194034368D01*
X152766651Y-194014962D01*
X152759419Y-193994750D01*
X152754203Y-193973926D01*
X152751053Y-193952691D01*
X152750000Y-193931250D01*
X152750000Y-193418750D01*
X152751053Y-193397309D01*
X152754203Y-193376074D01*
X152759419Y-193355250D01*
X152766651Y-193335038D01*
X152775830Y-193315632D01*
X152786866Y-193297219D01*
X152799654Y-193279976D01*
X152814070Y-193264070D01*
X152829976Y-193249654D01*
X152847219Y-193236866D01*
X152865632Y-193225830D01*
X152885038Y-193216651D01*
X152905250Y-193209419D01*
X152926074Y-193204203D01*
X152947309Y-193201053D01*
X152968750Y-193200000D01*
X153406250Y-193200000D01*
X153427691Y-193201053D01*
G37*
G36*
X120165691Y-132126052D02*
G01*
X120186926Y-132129202D01*
X120207750Y-132134418D01*
X120227962Y-132141650D01*
X120247368Y-132150829D01*
X120265781Y-132161865D01*
X120283024Y-132174653D01*
X120298930Y-132189069D01*
X120313346Y-132204975D01*
X120326134Y-132222218D01*
X120337170Y-132240631D01*
X120346349Y-132260037D01*
X120353581Y-132280249D01*
X120358797Y-132301073D01*
X120361947Y-132322308D01*
X120363000Y-132343749D01*
X120363000Y-132781249D01*
X120361947Y-132802690D01*
X120358797Y-132823925D01*
X120353581Y-132844749D01*
X120346349Y-132864961D01*
X120337170Y-132884367D01*
X120326134Y-132902780D01*
X120313346Y-132920023D01*
X120298930Y-132935929D01*
X120283024Y-132950345D01*
X120265781Y-132963133D01*
X120247368Y-132974169D01*
X120227962Y-132983348D01*
X120207750Y-132990580D01*
X120186926Y-132995796D01*
X120165691Y-132998946D01*
X120144250Y-132999999D01*
X119631750Y-132999999D01*
X119610309Y-132998946D01*
X119589074Y-132995796D01*
X119568250Y-132990580D01*
X119548038Y-132983348D01*
X119528632Y-132974169D01*
X119510219Y-132963133D01*
X119492976Y-132950345D01*
X119477070Y-132935929D01*
X119462654Y-132920023D01*
X119449866Y-132902780D01*
X119438830Y-132884367D01*
X119429651Y-132864961D01*
X119422419Y-132844749D01*
X119417203Y-132823925D01*
X119414053Y-132802690D01*
X119413000Y-132781249D01*
X119413000Y-132343749D01*
X119414053Y-132322308D01*
X119417203Y-132301073D01*
X119422419Y-132280249D01*
X119429651Y-132260037D01*
X119438830Y-132240631D01*
X119449866Y-132222218D01*
X119462654Y-132204975D01*
X119477070Y-132189069D01*
X119492976Y-132174653D01*
X119510219Y-132161865D01*
X119528632Y-132150829D01*
X119548038Y-132141650D01*
X119568250Y-132134418D01*
X119589074Y-132129202D01*
X119610309Y-132126052D01*
X119631750Y-132124999D01*
X120144250Y-132124999D01*
X120165691Y-132126052D01*
G37*
G36*
X120165691Y-133701054D02*
G01*
X120186926Y-133704204D01*
X120207750Y-133709420D01*
X120227962Y-133716652D01*
X120247368Y-133725831D01*
X120265781Y-133736867D01*
X120283024Y-133749655D01*
X120298930Y-133764071D01*
X120313346Y-133779977D01*
X120326134Y-133797220D01*
X120337170Y-133815633D01*
X120346349Y-133835039D01*
X120353581Y-133855251D01*
X120358797Y-133876075D01*
X120361947Y-133897310D01*
X120363000Y-133918751D01*
X120363000Y-134356251D01*
X120361947Y-134377692D01*
X120358797Y-134398927D01*
X120353581Y-134419751D01*
X120346349Y-134439963D01*
X120337170Y-134459369D01*
X120326134Y-134477782D01*
X120313346Y-134495025D01*
X120298930Y-134510931D01*
X120283024Y-134525347D01*
X120265781Y-134538135D01*
X120247368Y-134549171D01*
X120227962Y-134558350D01*
X120207750Y-134565582D01*
X120186926Y-134570798D01*
X120165691Y-134573948D01*
X120144250Y-134575001D01*
X119631750Y-134575001D01*
X119610309Y-134573948D01*
X119589074Y-134570798D01*
X119568250Y-134565582D01*
X119548038Y-134558350D01*
X119528632Y-134549171D01*
X119510219Y-134538135D01*
X119492976Y-134525347D01*
X119477070Y-134510931D01*
X119462654Y-134495025D01*
X119449866Y-134477782D01*
X119438830Y-134459369D01*
X119429651Y-134439963D01*
X119422419Y-134419751D01*
X119417203Y-134398927D01*
X119414053Y-134377692D01*
X119413000Y-134356251D01*
X119413000Y-133918751D01*
X119414053Y-133897310D01*
X119417203Y-133876075D01*
X119422419Y-133855251D01*
X119429651Y-133835039D01*
X119438830Y-133815633D01*
X119449866Y-133797220D01*
X119462654Y-133779977D01*
X119477070Y-133764071D01*
X119492976Y-133749655D01*
X119510219Y-133736867D01*
X119528632Y-133725831D01*
X119548038Y-133716652D01*
X119568250Y-133709420D01*
X119589074Y-133704204D01*
X119610309Y-133701054D01*
X119631750Y-133700001D01*
X120144250Y-133700001D01*
X120165691Y-133701054D01*
G37*
G36*
X116355691Y-132126053D02*
G01*
X116376926Y-132129203D01*
X116397750Y-132134419D01*
X116417962Y-132141651D01*
X116437368Y-132150830D01*
X116455781Y-132161866D01*
X116473024Y-132174654D01*
X116488930Y-132189070D01*
X116503346Y-132204976D01*
X116516134Y-132222219D01*
X116527170Y-132240632D01*
X116536349Y-132260038D01*
X116543581Y-132280250D01*
X116548797Y-132301074D01*
X116551947Y-132322309D01*
X116553000Y-132343750D01*
X116553000Y-132781250D01*
X116551947Y-132802691D01*
X116548797Y-132823926D01*
X116543581Y-132844750D01*
X116536349Y-132864962D01*
X116527170Y-132884368D01*
X116516134Y-132902781D01*
X116503346Y-132920024D01*
X116488930Y-132935930D01*
X116473024Y-132950346D01*
X116455781Y-132963134D01*
X116437368Y-132974170D01*
X116417962Y-132983349D01*
X116397750Y-132990581D01*
X116376926Y-132995797D01*
X116355691Y-132998947D01*
X116334250Y-133000000D01*
X115821750Y-133000000D01*
X115800309Y-132998947D01*
X115779074Y-132995797D01*
X115758250Y-132990581D01*
X115738038Y-132983349D01*
X115718632Y-132974170D01*
X115700219Y-132963134D01*
X115682976Y-132950346D01*
X115667070Y-132935930D01*
X115652654Y-132920024D01*
X115639866Y-132902781D01*
X115628830Y-132884368D01*
X115619651Y-132864962D01*
X115612419Y-132844750D01*
X115607203Y-132823926D01*
X115604053Y-132802691D01*
X115603000Y-132781250D01*
X115603000Y-132343750D01*
X115604053Y-132322309D01*
X115607203Y-132301074D01*
X115612419Y-132280250D01*
X115619651Y-132260038D01*
X115628830Y-132240632D01*
X115639866Y-132222219D01*
X115652654Y-132204976D01*
X115667070Y-132189070D01*
X115682976Y-132174654D01*
X115700219Y-132161866D01*
X115718632Y-132150830D01*
X115738038Y-132141651D01*
X115758250Y-132134419D01*
X115779074Y-132129203D01*
X115800309Y-132126053D01*
X115821750Y-132125000D01*
X116334250Y-132125000D01*
X116355691Y-132126053D01*
G37*
G36*
X116355691Y-133701053D02*
G01*
X116376926Y-133704203D01*
X116397750Y-133709419D01*
X116417962Y-133716651D01*
X116437368Y-133725830D01*
X116455781Y-133736866D01*
X116473024Y-133749654D01*
X116488930Y-133764070D01*
X116503346Y-133779976D01*
X116516134Y-133797219D01*
X116527170Y-133815632D01*
X116536349Y-133835038D01*
X116543581Y-133855250D01*
X116548797Y-133876074D01*
X116551947Y-133897309D01*
X116553000Y-133918750D01*
X116553000Y-134356250D01*
X116551947Y-134377691D01*
X116548797Y-134398926D01*
X116543581Y-134419750D01*
X116536349Y-134439962D01*
X116527170Y-134459368D01*
X116516134Y-134477781D01*
X116503346Y-134495024D01*
X116488930Y-134510930D01*
X116473024Y-134525346D01*
X116455781Y-134538134D01*
X116437368Y-134549170D01*
X116417962Y-134558349D01*
X116397750Y-134565581D01*
X116376926Y-134570797D01*
X116355691Y-134573947D01*
X116334250Y-134575000D01*
X115821750Y-134575000D01*
X115800309Y-134573947D01*
X115779074Y-134570797D01*
X115758250Y-134565581D01*
X115738038Y-134558349D01*
X115718632Y-134549170D01*
X115700219Y-134538134D01*
X115682976Y-134525346D01*
X115667070Y-134510930D01*
X115652654Y-134495024D01*
X115639866Y-134477781D01*
X115628830Y-134459368D01*
X115619651Y-134439962D01*
X115612419Y-134419750D01*
X115607203Y-134398926D01*
X115604053Y-134377691D01*
X115603000Y-134356250D01*
X115603000Y-133918750D01*
X115604053Y-133897309D01*
X115607203Y-133876074D01*
X115612419Y-133855250D01*
X115619651Y-133835038D01*
X115628830Y-133815632D01*
X115639866Y-133797219D01*
X115652654Y-133779976D01*
X115667070Y-133764070D01*
X115682976Y-133749654D01*
X115700219Y-133736866D01*
X115718632Y-133725830D01*
X115738038Y-133716651D01*
X115758250Y-133709419D01*
X115779074Y-133704203D01*
X115800309Y-133701053D01*
X115821750Y-133700000D01*
X116334250Y-133700000D01*
X116355691Y-133701053D01*
G37*
G36*
X90892692Y-151291053D02*
G01*
X90913927Y-151294203D01*
X90934751Y-151299419D01*
X90954963Y-151306651D01*
X90974369Y-151315830D01*
X90992782Y-151326866D01*
X91010025Y-151339654D01*
X91025931Y-151354070D01*
X91040347Y-151369976D01*
X91053135Y-151387219D01*
X91064171Y-151405632D01*
X91073350Y-151425038D01*
X91080582Y-151445250D01*
X91085798Y-151466074D01*
X91088948Y-151487309D01*
X91090001Y-151508750D01*
X91090001Y-152021250D01*
X91088948Y-152042691D01*
X91085798Y-152063926D01*
X91080582Y-152084750D01*
X91073350Y-152104962D01*
X91064171Y-152124368D01*
X91053135Y-152142781D01*
X91040347Y-152160024D01*
X91025931Y-152175930D01*
X91010025Y-152190346D01*
X90992782Y-152203134D01*
X90974369Y-152214170D01*
X90954963Y-152223349D01*
X90934751Y-152230581D01*
X90913927Y-152235797D01*
X90892692Y-152238947D01*
X90871251Y-152240000D01*
X90433751Y-152240000D01*
X90412310Y-152238947D01*
X90391075Y-152235797D01*
X90370251Y-152230581D01*
X90350039Y-152223349D01*
X90330633Y-152214170D01*
X90312220Y-152203134D01*
X90294977Y-152190346D01*
X90279071Y-152175930D01*
X90264655Y-152160024D01*
X90251867Y-152142781D01*
X90240831Y-152124368D01*
X90231652Y-152104962D01*
X90224420Y-152084750D01*
X90219204Y-152063926D01*
X90216054Y-152042691D01*
X90215001Y-152021250D01*
X90215001Y-151508750D01*
X90216054Y-151487309D01*
X90219204Y-151466074D01*
X90224420Y-151445250D01*
X90231652Y-151425038D01*
X90240831Y-151405632D01*
X90251867Y-151387219D01*
X90264655Y-151369976D01*
X90279071Y-151354070D01*
X90294977Y-151339654D01*
X90312220Y-151326866D01*
X90330633Y-151315830D01*
X90350039Y-151306651D01*
X90370251Y-151299419D01*
X90391075Y-151294203D01*
X90412310Y-151291053D01*
X90433751Y-151290000D01*
X90871251Y-151290000D01*
X90892692Y-151291053D01*
G37*
G36*
X92467692Y-151291053D02*
G01*
X92488927Y-151294203D01*
X92509751Y-151299419D01*
X92529963Y-151306651D01*
X92549369Y-151315830D01*
X92567782Y-151326866D01*
X92585025Y-151339654D01*
X92600931Y-151354070D01*
X92615347Y-151369976D01*
X92628135Y-151387219D01*
X92639171Y-151405632D01*
X92648350Y-151425038D01*
X92655582Y-151445250D01*
X92660798Y-151466074D01*
X92663948Y-151487309D01*
X92665001Y-151508750D01*
X92665001Y-152021250D01*
X92663948Y-152042691D01*
X92660798Y-152063926D01*
X92655582Y-152084750D01*
X92648350Y-152104962D01*
X92639171Y-152124368D01*
X92628135Y-152142781D01*
X92615347Y-152160024D01*
X92600931Y-152175930D01*
X92585025Y-152190346D01*
X92567782Y-152203134D01*
X92549369Y-152214170D01*
X92529963Y-152223349D01*
X92509751Y-152230581D01*
X92488927Y-152235797D01*
X92467692Y-152238947D01*
X92446251Y-152240000D01*
X92008751Y-152240000D01*
X91987310Y-152238947D01*
X91966075Y-152235797D01*
X91945251Y-152230581D01*
X91925039Y-152223349D01*
X91905633Y-152214170D01*
X91887220Y-152203134D01*
X91869977Y-152190346D01*
X91854071Y-152175930D01*
X91839655Y-152160024D01*
X91826867Y-152142781D01*
X91815831Y-152124368D01*
X91806652Y-152104962D01*
X91799420Y-152084750D01*
X91794204Y-152063926D01*
X91791054Y-152042691D01*
X91790001Y-152021250D01*
X91790001Y-151508750D01*
X91791054Y-151487309D01*
X91794204Y-151466074D01*
X91799420Y-151445250D01*
X91806652Y-151425038D01*
X91815831Y-151405632D01*
X91826867Y-151387219D01*
X91839655Y-151369976D01*
X91854071Y-151354070D01*
X91869977Y-151339654D01*
X91887220Y-151326866D01*
X91905633Y-151315830D01*
X91925039Y-151306651D01*
X91945251Y-151299419D01*
X91966075Y-151294203D01*
X91987310Y-151291053D01*
X92008751Y-151290000D01*
X92446251Y-151290000D01*
X92467692Y-151291053D01*
G37*
G36*
X118260691Y-133701053D02*
G01*
X118281926Y-133704203D01*
X118302750Y-133709419D01*
X118322962Y-133716651D01*
X118342368Y-133725830D01*
X118360781Y-133736866D01*
X118378024Y-133749654D01*
X118393930Y-133764070D01*
X118408346Y-133779976D01*
X118421134Y-133797219D01*
X118432170Y-133815632D01*
X118441349Y-133835038D01*
X118448581Y-133855250D01*
X118453797Y-133876074D01*
X118456947Y-133897309D01*
X118458000Y-133918750D01*
X118458000Y-134356250D01*
X118456947Y-134377691D01*
X118453797Y-134398926D01*
X118448581Y-134419750D01*
X118441349Y-134439962D01*
X118432170Y-134459368D01*
X118421134Y-134477781D01*
X118408346Y-134495024D01*
X118393930Y-134510930D01*
X118378024Y-134525346D01*
X118360781Y-134538134D01*
X118342368Y-134549170D01*
X118322962Y-134558349D01*
X118302750Y-134565581D01*
X118281926Y-134570797D01*
X118260691Y-134573947D01*
X118239250Y-134575000D01*
X117726750Y-134575000D01*
X117705309Y-134573947D01*
X117684074Y-134570797D01*
X117663250Y-134565581D01*
X117643038Y-134558349D01*
X117623632Y-134549170D01*
X117605219Y-134538134D01*
X117587976Y-134525346D01*
X117572070Y-134510930D01*
X117557654Y-134495024D01*
X117544866Y-134477781D01*
X117533830Y-134459368D01*
X117524651Y-134439962D01*
X117517419Y-134419750D01*
X117512203Y-134398926D01*
X117509053Y-134377691D01*
X117508000Y-134356250D01*
X117508000Y-133918750D01*
X117509053Y-133897309D01*
X117512203Y-133876074D01*
X117517419Y-133855250D01*
X117524651Y-133835038D01*
X117533830Y-133815632D01*
X117544866Y-133797219D01*
X117557654Y-133779976D01*
X117572070Y-133764070D01*
X117587976Y-133749654D01*
X117605219Y-133736866D01*
X117623632Y-133725830D01*
X117643038Y-133716651D01*
X117663250Y-133709419D01*
X117684074Y-133704203D01*
X117705309Y-133701053D01*
X117726750Y-133700000D01*
X118239250Y-133700000D01*
X118260691Y-133701053D01*
G37*
G36*
X118260691Y-132126053D02*
G01*
X118281926Y-132129203D01*
X118302750Y-132134419D01*
X118322962Y-132141651D01*
X118342368Y-132150830D01*
X118360781Y-132161866D01*
X118378024Y-132174654D01*
X118393930Y-132189070D01*
X118408346Y-132204976D01*
X118421134Y-132222219D01*
X118432170Y-132240632D01*
X118441349Y-132260038D01*
X118448581Y-132280250D01*
X118453797Y-132301074D01*
X118456947Y-132322309D01*
X118458000Y-132343750D01*
X118458000Y-132781250D01*
X118456947Y-132802691D01*
X118453797Y-132823926D01*
X118448581Y-132844750D01*
X118441349Y-132864962D01*
X118432170Y-132884368D01*
X118421134Y-132902781D01*
X118408346Y-132920024D01*
X118393930Y-132935930D01*
X118378024Y-132950346D01*
X118360781Y-132963134D01*
X118342368Y-132974170D01*
X118322962Y-132983349D01*
X118302750Y-132990581D01*
X118281926Y-132995797D01*
X118260691Y-132998947D01*
X118239250Y-133000000D01*
X117726750Y-133000000D01*
X117705309Y-132998947D01*
X117684074Y-132995797D01*
X117663250Y-132990581D01*
X117643038Y-132983349D01*
X117623632Y-132974170D01*
X117605219Y-132963134D01*
X117587976Y-132950346D01*
X117572070Y-132935930D01*
X117557654Y-132920024D01*
X117544866Y-132902781D01*
X117533830Y-132884368D01*
X117524651Y-132864962D01*
X117517419Y-132844750D01*
X117512203Y-132823926D01*
X117509053Y-132802691D01*
X117508000Y-132781250D01*
X117508000Y-132343750D01*
X117509053Y-132322309D01*
X117512203Y-132301074D01*
X117517419Y-132280250D01*
X117524651Y-132260038D01*
X117533830Y-132240632D01*
X117544866Y-132222219D01*
X117557654Y-132204976D01*
X117572070Y-132189070D01*
X117587976Y-132174654D01*
X117605219Y-132161866D01*
X117623632Y-132150830D01*
X117643038Y-132141651D01*
X117663250Y-132134419D01*
X117684074Y-132129203D01*
X117705309Y-132126053D01*
X117726750Y-132125000D01*
X118239250Y-132125000D01*
X118260691Y-132126053D01*
G37*
G36*
X124725691Y-130336053D02*
G01*
X124746926Y-130339203D01*
X124767750Y-130344419D01*
X124787962Y-130351651D01*
X124807368Y-130360830D01*
X124825781Y-130371866D01*
X124843024Y-130384654D01*
X124858930Y-130399070D01*
X124873346Y-130414976D01*
X124886134Y-130432219D01*
X124897170Y-130450632D01*
X124906349Y-130470038D01*
X124913581Y-130490250D01*
X124918797Y-130511074D01*
X124921947Y-130532309D01*
X124923000Y-130553750D01*
X124923000Y-131066250D01*
X124921947Y-131087691D01*
X124918797Y-131108926D01*
X124913581Y-131129750D01*
X124906349Y-131149962D01*
X124897170Y-131169368D01*
X124886134Y-131187781D01*
X124873346Y-131205024D01*
X124858930Y-131220930D01*
X124843024Y-131235346D01*
X124825781Y-131248134D01*
X124807368Y-131259170D01*
X124787962Y-131268349D01*
X124767750Y-131275581D01*
X124746926Y-131280797D01*
X124725691Y-131283947D01*
X124704250Y-131285000D01*
X124266750Y-131285000D01*
X124245309Y-131283947D01*
X124224074Y-131280797D01*
X124203250Y-131275581D01*
X124183038Y-131268349D01*
X124163632Y-131259170D01*
X124145219Y-131248134D01*
X124127976Y-131235346D01*
X124112070Y-131220930D01*
X124097654Y-131205024D01*
X124084866Y-131187781D01*
X124073830Y-131169368D01*
X124064651Y-131149962D01*
X124057419Y-131129750D01*
X124052203Y-131108926D01*
X124049053Y-131087691D01*
X124048000Y-131066250D01*
X124048000Y-130553750D01*
X124049053Y-130532309D01*
X124052203Y-130511074D01*
X124057419Y-130490250D01*
X124064651Y-130470038D01*
X124073830Y-130450632D01*
X124084866Y-130432219D01*
X124097654Y-130414976D01*
X124112070Y-130399070D01*
X124127976Y-130384654D01*
X124145219Y-130371866D01*
X124163632Y-130360830D01*
X124183038Y-130351651D01*
X124203250Y-130344419D01*
X124224074Y-130339203D01*
X124245309Y-130336053D01*
X124266750Y-130335000D01*
X124704250Y-130335000D01*
X124725691Y-130336053D01*
G37*
G36*
X123150691Y-130336053D02*
G01*
X123171926Y-130339203D01*
X123192750Y-130344419D01*
X123212962Y-130351651D01*
X123232368Y-130360830D01*
X123250781Y-130371866D01*
X123268024Y-130384654D01*
X123283930Y-130399070D01*
X123298346Y-130414976D01*
X123311134Y-130432219D01*
X123322170Y-130450632D01*
X123331349Y-130470038D01*
X123338581Y-130490250D01*
X123343797Y-130511074D01*
X123346947Y-130532309D01*
X123348000Y-130553750D01*
X123348000Y-131066250D01*
X123346947Y-131087691D01*
X123343797Y-131108926D01*
X123338581Y-131129750D01*
X123331349Y-131149962D01*
X123322170Y-131169368D01*
X123311134Y-131187781D01*
X123298346Y-131205024D01*
X123283930Y-131220930D01*
X123268024Y-131235346D01*
X123250781Y-131248134D01*
X123232368Y-131259170D01*
X123212962Y-131268349D01*
X123192750Y-131275581D01*
X123171926Y-131280797D01*
X123150691Y-131283947D01*
X123129250Y-131285000D01*
X122691750Y-131285000D01*
X122670309Y-131283947D01*
X122649074Y-131280797D01*
X122628250Y-131275581D01*
X122608038Y-131268349D01*
X122588632Y-131259170D01*
X122570219Y-131248134D01*
X122552976Y-131235346D01*
X122537070Y-131220930D01*
X122522654Y-131205024D01*
X122509866Y-131187781D01*
X122498830Y-131169368D01*
X122489651Y-131149962D01*
X122482419Y-131129750D01*
X122477203Y-131108926D01*
X122474053Y-131087691D01*
X122473000Y-131066250D01*
X122473000Y-130553750D01*
X122474053Y-130532309D01*
X122477203Y-130511074D01*
X122482419Y-130490250D01*
X122489651Y-130470038D01*
X122498830Y-130450632D01*
X122509866Y-130432219D01*
X122522654Y-130414976D01*
X122537070Y-130399070D01*
X122552976Y-130384654D01*
X122570219Y-130371866D01*
X122588632Y-130360830D01*
X122608038Y-130351651D01*
X122628250Y-130344419D01*
X122649074Y-130339203D01*
X122670309Y-130336053D01*
X122691750Y-130335000D01*
X123129250Y-130335000D01*
X123150691Y-130336053D01*
G37*
G36*
X150252691Y-169706053D02*
G01*
X150273926Y-169709203D01*
X150294750Y-169714419D01*
X150314962Y-169721651D01*
X150334368Y-169730830D01*
X150352781Y-169741866D01*
X150370024Y-169754654D01*
X150385930Y-169769070D01*
X150400346Y-169784976D01*
X150413134Y-169802219D01*
X150424170Y-169820632D01*
X150433349Y-169840038D01*
X150440581Y-169860250D01*
X150445797Y-169881074D01*
X150448947Y-169902309D01*
X150450000Y-169923750D01*
X150450000Y-170436250D01*
X150448947Y-170457691D01*
X150445797Y-170478926D01*
X150440581Y-170499750D01*
X150433349Y-170519962D01*
X150424170Y-170539368D01*
X150413134Y-170557781D01*
X150400346Y-170575024D01*
X150385930Y-170590930D01*
X150370024Y-170605346D01*
X150352781Y-170618134D01*
X150334368Y-170629170D01*
X150314962Y-170638349D01*
X150294750Y-170645581D01*
X150273926Y-170650797D01*
X150252691Y-170653947D01*
X150231250Y-170655000D01*
X149793750Y-170655000D01*
X149772309Y-170653947D01*
X149751074Y-170650797D01*
X149730250Y-170645581D01*
X149710038Y-170638349D01*
X149690632Y-170629170D01*
X149672219Y-170618134D01*
X149654976Y-170605346D01*
X149639070Y-170590930D01*
X149624654Y-170575024D01*
X149611866Y-170557781D01*
X149600830Y-170539368D01*
X149591651Y-170519962D01*
X149584419Y-170499750D01*
X149579203Y-170478926D01*
X149576053Y-170457691D01*
X149575000Y-170436250D01*
X149575000Y-169923750D01*
X149576053Y-169902309D01*
X149579203Y-169881074D01*
X149584419Y-169860250D01*
X149591651Y-169840038D01*
X149600830Y-169820632D01*
X149611866Y-169802219D01*
X149624654Y-169784976D01*
X149639070Y-169769070D01*
X149654976Y-169754654D01*
X149672219Y-169741866D01*
X149690632Y-169730830D01*
X149710038Y-169721651D01*
X149730250Y-169714419D01*
X149751074Y-169709203D01*
X149772309Y-169706053D01*
X149793750Y-169705000D01*
X150231250Y-169705000D01*
X150252691Y-169706053D01*
G37*
G36*
X148677691Y-169706053D02*
G01*
X148698926Y-169709203D01*
X148719750Y-169714419D01*
X148739962Y-169721651D01*
X148759368Y-169730830D01*
X148777781Y-169741866D01*
X148795024Y-169754654D01*
X148810930Y-169769070D01*
X148825346Y-169784976D01*
X148838134Y-169802219D01*
X148849170Y-169820632D01*
X148858349Y-169840038D01*
X148865581Y-169860250D01*
X148870797Y-169881074D01*
X148873947Y-169902309D01*
X148875000Y-169923750D01*
X148875000Y-170436250D01*
X148873947Y-170457691D01*
X148870797Y-170478926D01*
X148865581Y-170499750D01*
X148858349Y-170519962D01*
X148849170Y-170539368D01*
X148838134Y-170557781D01*
X148825346Y-170575024D01*
X148810930Y-170590930D01*
X148795024Y-170605346D01*
X148777781Y-170618134D01*
X148759368Y-170629170D01*
X148739962Y-170638349D01*
X148719750Y-170645581D01*
X148698926Y-170650797D01*
X148677691Y-170653947D01*
X148656250Y-170655000D01*
X148218750Y-170655000D01*
X148197309Y-170653947D01*
X148176074Y-170650797D01*
X148155250Y-170645581D01*
X148135038Y-170638349D01*
X148115632Y-170629170D01*
X148097219Y-170618134D01*
X148079976Y-170605346D01*
X148064070Y-170590930D01*
X148049654Y-170575024D01*
X148036866Y-170557781D01*
X148025830Y-170539368D01*
X148016651Y-170519962D01*
X148009419Y-170499750D01*
X148004203Y-170478926D01*
X148001053Y-170457691D01*
X148000000Y-170436250D01*
X148000000Y-169923750D01*
X148001053Y-169902309D01*
X148004203Y-169881074D01*
X148009419Y-169860250D01*
X148016651Y-169840038D01*
X148025830Y-169820632D01*
X148036866Y-169802219D01*
X148049654Y-169784976D01*
X148064070Y-169769070D01*
X148079976Y-169754654D01*
X148097219Y-169741866D01*
X148115632Y-169730830D01*
X148135038Y-169721651D01*
X148155250Y-169714419D01*
X148176074Y-169709203D01*
X148197309Y-169706053D01*
X148218750Y-169705000D01*
X148656250Y-169705000D01*
X148677691Y-169706053D01*
G37*
G36*
X151730142Y-163131174D02*
G01*
X151753803Y-163134684D01*
X151777007Y-163140496D01*
X151799529Y-163148554D01*
X151821153Y-163158782D01*
X151841670Y-163171079D01*
X151860883Y-163185329D01*
X151878607Y-163201393D01*
X151894671Y-163219117D01*
X151908921Y-163238330D01*
X151921218Y-163258847D01*
X151931446Y-163280471D01*
X151939504Y-163302993D01*
X151945316Y-163326197D01*
X151948826Y-163349858D01*
X151950000Y-163373750D01*
X151950000Y-164286250D01*
X151948826Y-164310142D01*
X151945316Y-164333803D01*
X151939504Y-164357007D01*
X151931446Y-164379529D01*
X151921218Y-164401153D01*
X151908921Y-164421670D01*
X151894671Y-164440883D01*
X151878607Y-164458607D01*
X151860883Y-164474671D01*
X151841670Y-164488921D01*
X151821153Y-164501218D01*
X151799529Y-164511446D01*
X151777007Y-164519504D01*
X151753803Y-164525316D01*
X151730142Y-164528826D01*
X151706250Y-164530000D01*
X151218750Y-164530000D01*
X151194858Y-164528826D01*
X151171197Y-164525316D01*
X151147993Y-164519504D01*
X151125471Y-164511446D01*
X151103847Y-164501218D01*
X151083330Y-164488921D01*
X151064117Y-164474671D01*
X151046393Y-164458607D01*
X151030329Y-164440883D01*
X151016079Y-164421670D01*
X151003782Y-164401153D01*
X150993554Y-164379529D01*
X150985496Y-164357007D01*
X150979684Y-164333803D01*
X150976174Y-164310142D01*
X150975000Y-164286250D01*
X150975000Y-163373750D01*
X150976174Y-163349858D01*
X150979684Y-163326197D01*
X150985496Y-163302993D01*
X150993554Y-163280471D01*
X151003782Y-163258847D01*
X151016079Y-163238330D01*
X151030329Y-163219117D01*
X151046393Y-163201393D01*
X151064117Y-163185329D01*
X151083330Y-163171079D01*
X151103847Y-163158782D01*
X151125471Y-163148554D01*
X151147993Y-163140496D01*
X151171197Y-163134684D01*
X151194858Y-163131174D01*
X151218750Y-163130000D01*
X151706250Y-163130000D01*
X151730142Y-163131174D01*
G37*
G36*
X153605142Y-163131174D02*
G01*
X153628803Y-163134684D01*
X153652007Y-163140496D01*
X153674529Y-163148554D01*
X153696153Y-163158782D01*
X153716670Y-163171079D01*
X153735883Y-163185329D01*
X153753607Y-163201393D01*
X153769671Y-163219117D01*
X153783921Y-163238330D01*
X153796218Y-163258847D01*
X153806446Y-163280471D01*
X153814504Y-163302993D01*
X153820316Y-163326197D01*
X153823826Y-163349858D01*
X153825000Y-163373750D01*
X153825000Y-164286250D01*
X153823826Y-164310142D01*
X153820316Y-164333803D01*
X153814504Y-164357007D01*
X153806446Y-164379529D01*
X153796218Y-164401153D01*
X153783921Y-164421670D01*
X153769671Y-164440883D01*
X153753607Y-164458607D01*
X153735883Y-164474671D01*
X153716670Y-164488921D01*
X153696153Y-164501218D01*
X153674529Y-164511446D01*
X153652007Y-164519504D01*
X153628803Y-164525316D01*
X153605142Y-164528826D01*
X153581250Y-164530000D01*
X153093750Y-164530000D01*
X153069858Y-164528826D01*
X153046197Y-164525316D01*
X153022993Y-164519504D01*
X153000471Y-164511446D01*
X152978847Y-164501218D01*
X152958330Y-164488921D01*
X152939117Y-164474671D01*
X152921393Y-164458607D01*
X152905329Y-164440883D01*
X152891079Y-164421670D01*
X152878782Y-164401153D01*
X152868554Y-164379529D01*
X152860496Y-164357007D01*
X152854684Y-164333803D01*
X152851174Y-164310142D01*
X152850000Y-164286250D01*
X152850000Y-163373750D01*
X152851174Y-163349858D01*
X152854684Y-163326197D01*
X152860496Y-163302993D01*
X152868554Y-163280471D01*
X152878782Y-163258847D01*
X152891079Y-163238330D01*
X152905329Y-163219117D01*
X152921393Y-163201393D01*
X152939117Y-163185329D01*
X152958330Y-163171079D01*
X152978847Y-163158782D01*
X153000471Y-163148554D01*
X153022993Y-163140496D01*
X153046197Y-163134684D01*
X153069858Y-163131174D01*
X153093750Y-163130000D01*
X153581250Y-163130000D01*
X153605142Y-163131174D01*
G37*
D18*
X100838000Y-83820000D03*
X100838000Y-86360000D03*
X100838000Y-88900000D03*
X100838000Y-91440000D03*
X100838000Y-93980000D03*
D19*
X100838000Y-96520000D03*
D18*
X111633000Y-139700000D03*
X111633000Y-137160000D03*
X111633000Y-134620000D03*
X111633000Y-132080000D03*
D19*
X111633000Y-129540000D03*
D20*
X106336000Y-184471000D03*
X106336000Y-189671000D03*
X107786000Y-189671000D03*
X107786000Y-184471000D03*
X116369000Y-183836000D03*
X116369000Y-189036000D03*
X117819000Y-189036000D03*
X117819000Y-183836000D03*
X126275000Y-183582000D03*
X126275000Y-188782000D03*
X127725000Y-188782000D03*
X127725000Y-183582000D03*
X136308000Y-183836000D03*
X136308000Y-189036000D03*
X137758000Y-189036000D03*
X137758000Y-183836000D03*
D15*
X118999000Y-110049000D03*
X118999000Y-115249000D03*
X138430000Y-101032000D03*
X138430000Y-106232000D03*
D20*
X146341000Y-184471000D03*
X146341000Y-189671000D03*
X147791000Y-189671000D03*
X147791000Y-184471000D03*
D15*
X144272000Y-72457000D03*
X144272000Y-77657000D03*
D10*
G36*
X105991077Y-134144580D02*
G01*
X106012312Y-134147730D01*
X106033136Y-134152946D01*
X106053348Y-134160178D01*
X106072754Y-134169357D01*
X106091167Y-134180393D01*
X106108410Y-134193181D01*
X106124316Y-134207597D01*
X106486709Y-134569990D01*
X106501125Y-134585896D01*
X106513913Y-134603139D01*
X106524949Y-134621552D01*
X106534128Y-134640958D01*
X106541360Y-134661170D01*
X106546576Y-134681994D01*
X106549726Y-134703229D01*
X106550779Y-134724670D01*
X106549726Y-134746111D01*
X106546576Y-134767346D01*
X106541360Y-134788170D01*
X106534128Y-134808382D01*
X106524949Y-134827788D01*
X106513913Y-134846201D01*
X106501125Y-134863444D01*
X106486709Y-134879350D01*
X106177350Y-135188709D01*
X106161444Y-135203125D01*
X106144201Y-135215913D01*
X106125788Y-135226949D01*
X106106382Y-135236128D01*
X106086170Y-135243360D01*
X106065346Y-135248576D01*
X106044111Y-135251726D01*
X106022670Y-135252779D01*
X106001229Y-135251726D01*
X105979994Y-135248576D01*
X105959170Y-135243360D01*
X105938958Y-135236128D01*
X105919552Y-135226949D01*
X105901139Y-135215913D01*
X105883896Y-135203125D01*
X105867990Y-135188709D01*
X105505597Y-134826316D01*
X105491181Y-134810410D01*
X105478393Y-134793167D01*
X105467357Y-134774754D01*
X105458178Y-134755348D01*
X105450946Y-134735136D01*
X105445730Y-134714312D01*
X105442580Y-134693077D01*
X105441527Y-134671636D01*
X105442580Y-134650195D01*
X105445730Y-134628960D01*
X105450946Y-134608136D01*
X105458178Y-134587924D01*
X105467357Y-134568518D01*
X105478393Y-134550105D01*
X105491181Y-134532862D01*
X105505597Y-134516956D01*
X105814956Y-134207597D01*
X105830862Y-134193181D01*
X105848105Y-134180393D01*
X105866518Y-134169357D01*
X105885924Y-134160178D01*
X105906136Y-134152946D01*
X105926960Y-134147730D01*
X105948195Y-134144580D01*
X105969636Y-134143527D01*
X105991077Y-134144580D01*
G37*
G36*
X107104771Y-135258274D02*
G01*
X107126006Y-135261424D01*
X107146830Y-135266640D01*
X107167042Y-135273872D01*
X107186448Y-135283051D01*
X107204861Y-135294087D01*
X107222104Y-135306875D01*
X107238010Y-135321291D01*
X107600403Y-135683684D01*
X107614819Y-135699590D01*
X107627607Y-135716833D01*
X107638643Y-135735246D01*
X107647822Y-135754652D01*
X107655054Y-135774864D01*
X107660270Y-135795688D01*
X107663420Y-135816923D01*
X107664473Y-135838364D01*
X107663420Y-135859805D01*
X107660270Y-135881040D01*
X107655054Y-135901864D01*
X107647822Y-135922076D01*
X107638643Y-135941482D01*
X107627607Y-135959895D01*
X107614819Y-135977138D01*
X107600403Y-135993044D01*
X107291044Y-136302403D01*
X107275138Y-136316819D01*
X107257895Y-136329607D01*
X107239482Y-136340643D01*
X107220076Y-136349822D01*
X107199864Y-136357054D01*
X107179040Y-136362270D01*
X107157805Y-136365420D01*
X107136364Y-136366473D01*
X107114923Y-136365420D01*
X107093688Y-136362270D01*
X107072864Y-136357054D01*
X107052652Y-136349822D01*
X107033246Y-136340643D01*
X107014833Y-136329607D01*
X106997590Y-136316819D01*
X106981684Y-136302403D01*
X106619291Y-135940010D01*
X106604875Y-135924104D01*
X106592087Y-135906861D01*
X106581051Y-135888448D01*
X106571872Y-135869042D01*
X106564640Y-135848830D01*
X106559424Y-135828006D01*
X106556274Y-135806771D01*
X106555221Y-135785330D01*
X106556274Y-135763889D01*
X106559424Y-135742654D01*
X106564640Y-135721830D01*
X106571872Y-135701618D01*
X106581051Y-135682212D01*
X106592087Y-135663799D01*
X106604875Y-135646556D01*
X106619291Y-135630650D01*
X106928650Y-135321291D01*
X106944556Y-135306875D01*
X106961799Y-135294087D01*
X106980212Y-135283051D01*
X106999618Y-135273872D01*
X107019830Y-135266640D01*
X107040654Y-135261424D01*
X107061889Y-135258274D01*
X107083330Y-135257221D01*
X107104771Y-135258274D01*
G37*
D21*
X149320000Y-167005000D03*
X145320000Y-167005000D03*
D10*
G36*
X130452691Y-91156054D02*
G01*
X130473926Y-91159204D01*
X130494750Y-91164420D01*
X130514962Y-91171652D01*
X130534368Y-91180831D01*
X130552781Y-91191867D01*
X130570024Y-91204655D01*
X130585930Y-91219071D01*
X130600346Y-91234977D01*
X130613134Y-91252220D01*
X130624170Y-91270633D01*
X130633349Y-91290039D01*
X130640581Y-91310251D01*
X130645797Y-91331075D01*
X130648947Y-91352310D01*
X130650000Y-91373751D01*
X130650000Y-91811251D01*
X130648947Y-91832692D01*
X130645797Y-91853927D01*
X130640581Y-91874751D01*
X130633349Y-91894963D01*
X130624170Y-91914369D01*
X130613134Y-91932782D01*
X130600346Y-91950025D01*
X130585930Y-91965931D01*
X130570024Y-91980347D01*
X130552781Y-91993135D01*
X130534368Y-92004171D01*
X130514962Y-92013350D01*
X130494750Y-92020582D01*
X130473926Y-92025798D01*
X130452691Y-92028948D01*
X130431250Y-92030001D01*
X129918750Y-92030001D01*
X129897309Y-92028948D01*
X129876074Y-92025798D01*
X129855250Y-92020582D01*
X129835038Y-92013350D01*
X129815632Y-92004171D01*
X129797219Y-91993135D01*
X129779976Y-91980347D01*
X129764070Y-91965931D01*
X129749654Y-91950025D01*
X129736866Y-91932782D01*
X129725830Y-91914369D01*
X129716651Y-91894963D01*
X129709419Y-91874751D01*
X129704203Y-91853927D01*
X129701053Y-91832692D01*
X129700000Y-91811251D01*
X129700000Y-91373751D01*
X129701053Y-91352310D01*
X129704203Y-91331075D01*
X129709419Y-91310251D01*
X129716651Y-91290039D01*
X129725830Y-91270633D01*
X129736866Y-91252220D01*
X129749654Y-91234977D01*
X129764070Y-91219071D01*
X129779976Y-91204655D01*
X129797219Y-91191867D01*
X129815632Y-91180831D01*
X129835038Y-91171652D01*
X129855250Y-91164420D01*
X129876074Y-91159204D01*
X129897309Y-91156054D01*
X129918750Y-91155001D01*
X130431250Y-91155001D01*
X130452691Y-91156054D01*
G37*
G36*
X130452691Y-89581052D02*
G01*
X130473926Y-89584202D01*
X130494750Y-89589418D01*
X130514962Y-89596650D01*
X130534368Y-89605829D01*
X130552781Y-89616865D01*
X130570024Y-89629653D01*
X130585930Y-89644069D01*
X130600346Y-89659975D01*
X130613134Y-89677218D01*
X130624170Y-89695631D01*
X130633349Y-89715037D01*
X130640581Y-89735249D01*
X130645797Y-89756073D01*
X130648947Y-89777308D01*
X130650000Y-89798749D01*
X130650000Y-90236249D01*
X130648947Y-90257690D01*
X130645797Y-90278925D01*
X130640581Y-90299749D01*
X130633349Y-90319961D01*
X130624170Y-90339367D01*
X130613134Y-90357780D01*
X130600346Y-90375023D01*
X130585930Y-90390929D01*
X130570024Y-90405345D01*
X130552781Y-90418133D01*
X130534368Y-90429169D01*
X130514962Y-90438348D01*
X130494750Y-90445580D01*
X130473926Y-90450796D01*
X130452691Y-90453946D01*
X130431250Y-90454999D01*
X129918750Y-90454999D01*
X129897309Y-90453946D01*
X129876074Y-90450796D01*
X129855250Y-90445580D01*
X129835038Y-90438348D01*
X129815632Y-90429169D01*
X129797219Y-90418133D01*
X129779976Y-90405345D01*
X129764070Y-90390929D01*
X129749654Y-90375023D01*
X129736866Y-90357780D01*
X129725830Y-90339367D01*
X129716651Y-90319961D01*
X129709419Y-90299749D01*
X129704203Y-90278925D01*
X129701053Y-90257690D01*
X129700000Y-90236249D01*
X129700000Y-89798749D01*
X129701053Y-89777308D01*
X129704203Y-89756073D01*
X129709419Y-89735249D01*
X129716651Y-89715037D01*
X129725830Y-89695631D01*
X129736866Y-89677218D01*
X129749654Y-89659975D01*
X129764070Y-89644069D01*
X129779976Y-89629653D01*
X129797219Y-89616865D01*
X129815632Y-89605829D01*
X129835038Y-89596650D01*
X129855250Y-89589418D01*
X129876074Y-89584202D01*
X129897309Y-89581052D01*
X129918750Y-89579999D01*
X130431250Y-89579999D01*
X130452691Y-89581052D01*
G37*
G36*
X135149504Y-89296204D02*
G01*
X135173773Y-89299804D01*
X135197571Y-89305765D01*
X135220671Y-89314030D01*
X135242849Y-89324520D01*
X135263893Y-89337133D01*
X135283598Y-89351747D01*
X135301777Y-89368223D01*
X135318253Y-89386402D01*
X135332867Y-89406107D01*
X135345480Y-89427151D01*
X135355970Y-89449329D01*
X135364235Y-89472429D01*
X135370196Y-89496227D01*
X135373796Y-89520496D01*
X135375000Y-89545000D01*
X135375000Y-90795000D01*
X135373796Y-90819504D01*
X135370196Y-90843773D01*
X135364235Y-90867571D01*
X135355970Y-90890671D01*
X135345480Y-90912849D01*
X135332867Y-90933893D01*
X135318253Y-90953598D01*
X135301777Y-90971777D01*
X135283598Y-90988253D01*
X135263893Y-91002867D01*
X135242849Y-91015480D01*
X135220671Y-91025970D01*
X135197571Y-91034235D01*
X135173773Y-91040196D01*
X135149504Y-91043796D01*
X135125000Y-91045000D01*
X134375000Y-91045000D01*
X134350496Y-91043796D01*
X134326227Y-91040196D01*
X134302429Y-91034235D01*
X134279329Y-91025970D01*
X134257151Y-91015480D01*
X134236107Y-91002867D01*
X134216402Y-90988253D01*
X134198223Y-90971777D01*
X134181747Y-90953598D01*
X134167133Y-90933893D01*
X134154520Y-90912849D01*
X134144030Y-90890671D01*
X134135765Y-90867571D01*
X134129804Y-90843773D01*
X134126204Y-90819504D01*
X134125000Y-90795000D01*
X134125000Y-89545000D01*
X134126204Y-89520496D01*
X134129804Y-89496227D01*
X134135765Y-89472429D01*
X134144030Y-89449329D01*
X134154520Y-89427151D01*
X134167133Y-89406107D01*
X134181747Y-89386402D01*
X134198223Y-89368223D01*
X134216402Y-89351747D01*
X134236107Y-89337133D01*
X134257151Y-89324520D01*
X134279329Y-89314030D01*
X134302429Y-89305765D01*
X134326227Y-89299804D01*
X134350496Y-89296204D01*
X134375000Y-89295000D01*
X135125000Y-89295000D01*
X135149504Y-89296204D01*
G37*
G36*
X132349504Y-89296204D02*
G01*
X132373773Y-89299804D01*
X132397571Y-89305765D01*
X132420671Y-89314030D01*
X132442849Y-89324520D01*
X132463893Y-89337133D01*
X132483598Y-89351747D01*
X132501777Y-89368223D01*
X132518253Y-89386402D01*
X132532867Y-89406107D01*
X132545480Y-89427151D01*
X132555970Y-89449329D01*
X132564235Y-89472429D01*
X132570196Y-89496227D01*
X132573796Y-89520496D01*
X132575000Y-89545000D01*
X132575000Y-90795000D01*
X132573796Y-90819504D01*
X132570196Y-90843773D01*
X132564235Y-90867571D01*
X132555970Y-90890671D01*
X132545480Y-90912849D01*
X132532867Y-90933893D01*
X132518253Y-90953598D01*
X132501777Y-90971777D01*
X132483598Y-90988253D01*
X132463893Y-91002867D01*
X132442849Y-91015480D01*
X132420671Y-91025970D01*
X132397571Y-91034235D01*
X132373773Y-91040196D01*
X132349504Y-91043796D01*
X132325000Y-91045000D01*
X131575000Y-91045000D01*
X131550496Y-91043796D01*
X131526227Y-91040196D01*
X131502429Y-91034235D01*
X131479329Y-91025970D01*
X131457151Y-91015480D01*
X131436107Y-91002867D01*
X131416402Y-90988253D01*
X131398223Y-90971777D01*
X131381747Y-90953598D01*
X131367133Y-90933893D01*
X131354520Y-90912849D01*
X131344030Y-90890671D01*
X131335765Y-90867571D01*
X131329804Y-90843773D01*
X131326204Y-90819504D01*
X131325000Y-90795000D01*
X131325000Y-89545000D01*
X131326204Y-89520496D01*
X131329804Y-89496227D01*
X131335765Y-89472429D01*
X131344030Y-89449329D01*
X131354520Y-89427151D01*
X131367133Y-89406107D01*
X131381747Y-89386402D01*
X131398223Y-89368223D01*
X131416402Y-89351747D01*
X131436107Y-89337133D01*
X131457151Y-89324520D01*
X131479329Y-89314030D01*
X131502429Y-89305765D01*
X131526227Y-89299804D01*
X131550496Y-89296204D01*
X131575000Y-89295000D01*
X132325000Y-89295000D01*
X132349504Y-89296204D01*
G37*
G36*
X131361771Y-157639580D02*
G01*
X131383006Y-157642730D01*
X131403830Y-157647946D01*
X131424042Y-157655178D01*
X131443448Y-157664357D01*
X131461861Y-157675393D01*
X131479104Y-157688181D01*
X131495010Y-157702597D01*
X131857403Y-158064990D01*
X131871819Y-158080896D01*
X131884607Y-158098139D01*
X131895643Y-158116552D01*
X131904822Y-158135958D01*
X131912054Y-158156170D01*
X131917270Y-158176994D01*
X131920420Y-158198229D01*
X131921473Y-158219670D01*
X131920420Y-158241111D01*
X131917270Y-158262346D01*
X131912054Y-158283170D01*
X131904822Y-158303382D01*
X131895643Y-158322788D01*
X131884607Y-158341201D01*
X131871819Y-158358444D01*
X131857403Y-158374350D01*
X131548044Y-158683709D01*
X131532138Y-158698125D01*
X131514895Y-158710913D01*
X131496482Y-158721949D01*
X131477076Y-158731128D01*
X131456864Y-158738360D01*
X131436040Y-158743576D01*
X131414805Y-158746726D01*
X131393364Y-158747779D01*
X131371923Y-158746726D01*
X131350688Y-158743576D01*
X131329864Y-158738360D01*
X131309652Y-158731128D01*
X131290246Y-158721949D01*
X131271833Y-158710913D01*
X131254590Y-158698125D01*
X131238684Y-158683709D01*
X130876291Y-158321316D01*
X130861875Y-158305410D01*
X130849087Y-158288167D01*
X130838051Y-158269754D01*
X130828872Y-158250348D01*
X130821640Y-158230136D01*
X130816424Y-158209312D01*
X130813274Y-158188077D01*
X130812221Y-158166636D01*
X130813274Y-158145195D01*
X130816424Y-158123960D01*
X130821640Y-158103136D01*
X130828872Y-158082924D01*
X130838051Y-158063518D01*
X130849087Y-158045105D01*
X130861875Y-158027862D01*
X130876291Y-158011956D01*
X131185650Y-157702597D01*
X131201556Y-157688181D01*
X131218799Y-157675393D01*
X131237212Y-157664357D01*
X131256618Y-157655178D01*
X131276830Y-157647946D01*
X131297654Y-157642730D01*
X131318889Y-157639580D01*
X131340330Y-157638527D01*
X131361771Y-157639580D01*
G37*
G36*
X130248077Y-158753274D02*
G01*
X130269312Y-158756424D01*
X130290136Y-158761640D01*
X130310348Y-158768872D01*
X130329754Y-158778051D01*
X130348167Y-158789087D01*
X130365410Y-158801875D01*
X130381316Y-158816291D01*
X130743709Y-159178684D01*
X130758125Y-159194590D01*
X130770913Y-159211833D01*
X130781949Y-159230246D01*
X130791128Y-159249652D01*
X130798360Y-159269864D01*
X130803576Y-159290688D01*
X130806726Y-159311923D01*
X130807779Y-159333364D01*
X130806726Y-159354805D01*
X130803576Y-159376040D01*
X130798360Y-159396864D01*
X130791128Y-159417076D01*
X130781949Y-159436482D01*
X130770913Y-159454895D01*
X130758125Y-159472138D01*
X130743709Y-159488044D01*
X130434350Y-159797403D01*
X130418444Y-159811819D01*
X130401201Y-159824607D01*
X130382788Y-159835643D01*
X130363382Y-159844822D01*
X130343170Y-159852054D01*
X130322346Y-159857270D01*
X130301111Y-159860420D01*
X130279670Y-159861473D01*
X130258229Y-159860420D01*
X130236994Y-159857270D01*
X130216170Y-159852054D01*
X130195958Y-159844822D01*
X130176552Y-159835643D01*
X130158139Y-159824607D01*
X130140896Y-159811819D01*
X130124990Y-159797403D01*
X129762597Y-159435010D01*
X129748181Y-159419104D01*
X129735393Y-159401861D01*
X129724357Y-159383448D01*
X129715178Y-159364042D01*
X129707946Y-159343830D01*
X129702730Y-159323006D01*
X129699580Y-159301771D01*
X129698527Y-159280330D01*
X129699580Y-159258889D01*
X129702730Y-159237654D01*
X129707946Y-159216830D01*
X129715178Y-159196618D01*
X129724357Y-159177212D01*
X129735393Y-159158799D01*
X129748181Y-159141556D01*
X129762597Y-159125650D01*
X130071956Y-158816291D01*
X130087862Y-158801875D01*
X130105105Y-158789087D01*
X130123518Y-158778051D01*
X130142924Y-158768872D01*
X130163136Y-158761640D01*
X130183960Y-158756424D01*
X130205195Y-158753274D01*
X130226636Y-158752221D01*
X130248077Y-158753274D01*
G37*
G36*
X126132504Y-132476204D02*
G01*
X126156773Y-132479804D01*
X126180571Y-132485765D01*
X126203671Y-132494030D01*
X126225849Y-132504520D01*
X126246893Y-132517133D01*
X126266598Y-132531747D01*
X126284777Y-132548223D01*
X126301253Y-132566402D01*
X126315867Y-132586107D01*
X126328480Y-132607151D01*
X126338970Y-132629329D01*
X126347235Y-132652429D01*
X126353196Y-132676227D01*
X126356796Y-132700496D01*
X126358000Y-132725000D01*
X126358000Y-133975000D01*
X126356796Y-133999504D01*
X126353196Y-134023773D01*
X126347235Y-134047571D01*
X126338970Y-134070671D01*
X126328480Y-134092849D01*
X126315867Y-134113893D01*
X126301253Y-134133598D01*
X126284777Y-134151777D01*
X126266598Y-134168253D01*
X126246893Y-134182867D01*
X126225849Y-134195480D01*
X126203671Y-134205970D01*
X126180571Y-134214235D01*
X126156773Y-134220196D01*
X126132504Y-134223796D01*
X126108000Y-134225000D01*
X125358000Y-134225000D01*
X125333496Y-134223796D01*
X125309227Y-134220196D01*
X125285429Y-134214235D01*
X125262329Y-134205970D01*
X125240151Y-134195480D01*
X125219107Y-134182867D01*
X125199402Y-134168253D01*
X125181223Y-134151777D01*
X125164747Y-134133598D01*
X125150133Y-134113893D01*
X125137520Y-134092849D01*
X125127030Y-134070671D01*
X125118765Y-134047571D01*
X125112804Y-134023773D01*
X125109204Y-133999504D01*
X125108000Y-133975000D01*
X125108000Y-132725000D01*
X125109204Y-132700496D01*
X125112804Y-132676227D01*
X125118765Y-132652429D01*
X125127030Y-132629329D01*
X125137520Y-132607151D01*
X125150133Y-132586107D01*
X125164747Y-132566402D01*
X125181223Y-132548223D01*
X125199402Y-132531747D01*
X125219107Y-132517133D01*
X125240151Y-132504520D01*
X125262329Y-132494030D01*
X125285429Y-132485765D01*
X125309227Y-132479804D01*
X125333496Y-132476204D01*
X125358000Y-132475000D01*
X126108000Y-132475000D01*
X126132504Y-132476204D01*
G37*
G36*
X123332504Y-132476204D02*
G01*
X123356773Y-132479804D01*
X123380571Y-132485765D01*
X123403671Y-132494030D01*
X123425849Y-132504520D01*
X123446893Y-132517133D01*
X123466598Y-132531747D01*
X123484777Y-132548223D01*
X123501253Y-132566402D01*
X123515867Y-132586107D01*
X123528480Y-132607151D01*
X123538970Y-132629329D01*
X123547235Y-132652429D01*
X123553196Y-132676227D01*
X123556796Y-132700496D01*
X123558000Y-132725000D01*
X123558000Y-133975000D01*
X123556796Y-133999504D01*
X123553196Y-134023773D01*
X123547235Y-134047571D01*
X123538970Y-134070671D01*
X123528480Y-134092849D01*
X123515867Y-134113893D01*
X123501253Y-134133598D01*
X123484777Y-134151777D01*
X123466598Y-134168253D01*
X123446893Y-134182867D01*
X123425849Y-134195480D01*
X123403671Y-134205970D01*
X123380571Y-134214235D01*
X123356773Y-134220196D01*
X123332504Y-134223796D01*
X123308000Y-134225000D01*
X122558000Y-134225000D01*
X122533496Y-134223796D01*
X122509227Y-134220196D01*
X122485429Y-134214235D01*
X122462329Y-134205970D01*
X122440151Y-134195480D01*
X122419107Y-134182867D01*
X122399402Y-134168253D01*
X122381223Y-134151777D01*
X122364747Y-134133598D01*
X122350133Y-134113893D01*
X122337520Y-134092849D01*
X122327030Y-134070671D01*
X122318765Y-134047571D01*
X122312804Y-134023773D01*
X122309204Y-133999504D01*
X122308000Y-133975000D01*
X122308000Y-132725000D01*
X122309204Y-132700496D01*
X122312804Y-132676227D01*
X122318765Y-132652429D01*
X122327030Y-132629329D01*
X122337520Y-132607151D01*
X122350133Y-132586107D01*
X122364747Y-132566402D01*
X122381223Y-132548223D01*
X122399402Y-132531747D01*
X122419107Y-132517133D01*
X122440151Y-132504520D01*
X122462329Y-132494030D01*
X122485429Y-132485765D01*
X122509227Y-132479804D01*
X122533496Y-132476204D01*
X122558000Y-132475000D01*
X123308000Y-132475000D01*
X123332504Y-132476204D01*
G37*
G36*
X125995691Y-134781053D02*
G01*
X126016926Y-134784203D01*
X126037750Y-134789419D01*
X126057962Y-134796651D01*
X126077368Y-134805830D01*
X126095781Y-134816866D01*
X126113024Y-134829654D01*
X126128930Y-134844070D01*
X126143346Y-134859976D01*
X126156134Y-134877219D01*
X126167170Y-134895632D01*
X126176349Y-134915038D01*
X126183581Y-134935250D01*
X126188797Y-134956074D01*
X126191947Y-134977309D01*
X126193000Y-134998750D01*
X126193000Y-135511250D01*
X126191947Y-135532691D01*
X126188797Y-135553926D01*
X126183581Y-135574750D01*
X126176349Y-135594962D01*
X126167170Y-135614368D01*
X126156134Y-135632781D01*
X126143346Y-135650024D01*
X126128930Y-135665930D01*
X126113024Y-135680346D01*
X126095781Y-135693134D01*
X126077368Y-135704170D01*
X126057962Y-135713349D01*
X126037750Y-135720581D01*
X126016926Y-135725797D01*
X125995691Y-135728947D01*
X125974250Y-135730000D01*
X125536750Y-135730000D01*
X125515309Y-135728947D01*
X125494074Y-135725797D01*
X125473250Y-135720581D01*
X125453038Y-135713349D01*
X125433632Y-135704170D01*
X125415219Y-135693134D01*
X125397976Y-135680346D01*
X125382070Y-135665930D01*
X125367654Y-135650024D01*
X125354866Y-135632781D01*
X125343830Y-135614368D01*
X125334651Y-135594962D01*
X125327419Y-135574750D01*
X125322203Y-135553926D01*
X125319053Y-135532691D01*
X125318000Y-135511250D01*
X125318000Y-134998750D01*
X125319053Y-134977309D01*
X125322203Y-134956074D01*
X125327419Y-134935250D01*
X125334651Y-134915038D01*
X125343830Y-134895632D01*
X125354866Y-134877219D01*
X125367654Y-134859976D01*
X125382070Y-134844070D01*
X125397976Y-134829654D01*
X125415219Y-134816866D01*
X125433632Y-134805830D01*
X125453038Y-134796651D01*
X125473250Y-134789419D01*
X125494074Y-134784203D01*
X125515309Y-134781053D01*
X125536750Y-134780000D01*
X125974250Y-134780000D01*
X125995691Y-134781053D01*
G37*
G36*
X124420691Y-134781053D02*
G01*
X124441926Y-134784203D01*
X124462750Y-134789419D01*
X124482962Y-134796651D01*
X124502368Y-134805830D01*
X124520781Y-134816866D01*
X124538024Y-134829654D01*
X124553930Y-134844070D01*
X124568346Y-134859976D01*
X124581134Y-134877219D01*
X124592170Y-134895632D01*
X124601349Y-134915038D01*
X124608581Y-134935250D01*
X124613797Y-134956074D01*
X124616947Y-134977309D01*
X124618000Y-134998750D01*
X124618000Y-135511250D01*
X124616947Y-135532691D01*
X124613797Y-135553926D01*
X124608581Y-135574750D01*
X124601349Y-135594962D01*
X124592170Y-135614368D01*
X124581134Y-135632781D01*
X124568346Y-135650024D01*
X124553930Y-135665930D01*
X124538024Y-135680346D01*
X124520781Y-135693134D01*
X124502368Y-135704170D01*
X124482962Y-135713349D01*
X124462750Y-135720581D01*
X124441926Y-135725797D01*
X124420691Y-135728947D01*
X124399250Y-135730000D01*
X123961750Y-135730000D01*
X123940309Y-135728947D01*
X123919074Y-135725797D01*
X123898250Y-135720581D01*
X123878038Y-135713349D01*
X123858632Y-135704170D01*
X123840219Y-135693134D01*
X123822976Y-135680346D01*
X123807070Y-135665930D01*
X123792654Y-135650024D01*
X123779866Y-135632781D01*
X123768830Y-135614368D01*
X123759651Y-135594962D01*
X123752419Y-135574750D01*
X123747203Y-135553926D01*
X123744053Y-135532691D01*
X123743000Y-135511250D01*
X123743000Y-134998750D01*
X123744053Y-134977309D01*
X123747203Y-134956074D01*
X123752419Y-134935250D01*
X123759651Y-134915038D01*
X123768830Y-134895632D01*
X123779866Y-134877219D01*
X123792654Y-134859976D01*
X123807070Y-134844070D01*
X123822976Y-134829654D01*
X123840219Y-134816866D01*
X123858632Y-134805830D01*
X123878038Y-134796651D01*
X123898250Y-134789419D01*
X123919074Y-134784203D01*
X123940309Y-134781053D01*
X123961750Y-134780000D01*
X124399250Y-134780000D01*
X124420691Y-134781053D01*
G37*
G36*
X98702691Y-194026053D02*
G01*
X98723926Y-194029203D01*
X98744750Y-194034419D01*
X98764962Y-194041651D01*
X98784368Y-194050830D01*
X98802781Y-194061866D01*
X98820024Y-194074654D01*
X98835930Y-194089070D01*
X98850346Y-194104976D01*
X98863134Y-194122219D01*
X98874170Y-194140632D01*
X98883349Y-194160038D01*
X98890581Y-194180250D01*
X98895797Y-194201074D01*
X98898947Y-194222309D01*
X98900000Y-194243750D01*
X98900000Y-194681250D01*
X98898947Y-194702691D01*
X98895797Y-194723926D01*
X98890581Y-194744750D01*
X98883349Y-194764962D01*
X98874170Y-194784368D01*
X98863134Y-194802781D01*
X98850346Y-194820024D01*
X98835930Y-194835930D01*
X98820024Y-194850346D01*
X98802781Y-194863134D01*
X98784368Y-194874170D01*
X98764962Y-194883349D01*
X98744750Y-194890581D01*
X98723926Y-194895797D01*
X98702691Y-194898947D01*
X98681250Y-194900000D01*
X98168750Y-194900000D01*
X98147309Y-194898947D01*
X98126074Y-194895797D01*
X98105250Y-194890581D01*
X98085038Y-194883349D01*
X98065632Y-194874170D01*
X98047219Y-194863134D01*
X98029976Y-194850346D01*
X98014070Y-194835930D01*
X97999654Y-194820024D01*
X97986866Y-194802781D01*
X97975830Y-194784368D01*
X97966651Y-194764962D01*
X97959419Y-194744750D01*
X97954203Y-194723926D01*
X97951053Y-194702691D01*
X97950000Y-194681250D01*
X97950000Y-194243750D01*
X97951053Y-194222309D01*
X97954203Y-194201074D01*
X97959419Y-194180250D01*
X97966651Y-194160038D01*
X97975830Y-194140632D01*
X97986866Y-194122219D01*
X97999654Y-194104976D01*
X98014070Y-194089070D01*
X98029976Y-194074654D01*
X98047219Y-194061866D01*
X98065632Y-194050830D01*
X98085038Y-194041651D01*
X98105250Y-194034419D01*
X98126074Y-194029203D01*
X98147309Y-194026053D01*
X98168750Y-194025000D01*
X98681250Y-194025000D01*
X98702691Y-194026053D01*
G37*
G36*
X98702691Y-192451053D02*
G01*
X98723926Y-192454203D01*
X98744750Y-192459419D01*
X98764962Y-192466651D01*
X98784368Y-192475830D01*
X98802781Y-192486866D01*
X98820024Y-192499654D01*
X98835930Y-192514070D01*
X98850346Y-192529976D01*
X98863134Y-192547219D01*
X98874170Y-192565632D01*
X98883349Y-192585038D01*
X98890581Y-192605250D01*
X98895797Y-192626074D01*
X98898947Y-192647309D01*
X98900000Y-192668750D01*
X98900000Y-193106250D01*
X98898947Y-193127691D01*
X98895797Y-193148926D01*
X98890581Y-193169750D01*
X98883349Y-193189962D01*
X98874170Y-193209368D01*
X98863134Y-193227781D01*
X98850346Y-193245024D01*
X98835930Y-193260930D01*
X98820024Y-193275346D01*
X98802781Y-193288134D01*
X98784368Y-193299170D01*
X98764962Y-193308349D01*
X98744750Y-193315581D01*
X98723926Y-193320797D01*
X98702691Y-193323947D01*
X98681250Y-193325000D01*
X98168750Y-193325000D01*
X98147309Y-193323947D01*
X98126074Y-193320797D01*
X98105250Y-193315581D01*
X98085038Y-193308349D01*
X98065632Y-193299170D01*
X98047219Y-193288134D01*
X98029976Y-193275346D01*
X98014070Y-193260930D01*
X97999654Y-193245024D01*
X97986866Y-193227781D01*
X97975830Y-193209368D01*
X97966651Y-193189962D01*
X97959419Y-193169750D01*
X97954203Y-193148926D01*
X97951053Y-193127691D01*
X97950000Y-193106250D01*
X97950000Y-192668750D01*
X97951053Y-192647309D01*
X97954203Y-192626074D01*
X97959419Y-192605250D01*
X97966651Y-192585038D01*
X97975830Y-192565632D01*
X97986866Y-192547219D01*
X97999654Y-192529976D01*
X98014070Y-192514070D01*
X98029976Y-192499654D01*
X98047219Y-192486866D01*
X98065632Y-192475830D01*
X98085038Y-192466651D01*
X98105250Y-192459419D01*
X98126074Y-192454203D01*
X98147309Y-192451053D01*
X98168750Y-192450000D01*
X98681250Y-192450000D01*
X98702691Y-192451053D01*
G37*
G36*
X106822504Y-94376204D02*
G01*
X106846773Y-94379804D01*
X106870571Y-94385765D01*
X106893671Y-94394030D01*
X106915849Y-94404520D01*
X106936893Y-94417133D01*
X106956598Y-94431747D01*
X106974777Y-94448223D01*
X106991253Y-94466402D01*
X107005867Y-94486107D01*
X107018480Y-94507151D01*
X107028970Y-94529329D01*
X107037235Y-94552429D01*
X107043196Y-94576227D01*
X107046796Y-94600496D01*
X107048000Y-94625000D01*
X107048000Y-95875000D01*
X107046796Y-95899504D01*
X107043196Y-95923773D01*
X107037235Y-95947571D01*
X107028970Y-95970671D01*
X107018480Y-95992849D01*
X107005867Y-96013893D01*
X106991253Y-96033598D01*
X106974777Y-96051777D01*
X106956598Y-96068253D01*
X106936893Y-96082867D01*
X106915849Y-96095480D01*
X106893671Y-96105970D01*
X106870571Y-96114235D01*
X106846773Y-96120196D01*
X106822504Y-96123796D01*
X106798000Y-96125000D01*
X106048000Y-96125000D01*
X106023496Y-96123796D01*
X105999227Y-96120196D01*
X105975429Y-96114235D01*
X105952329Y-96105970D01*
X105930151Y-96095480D01*
X105909107Y-96082867D01*
X105889402Y-96068253D01*
X105871223Y-96051777D01*
X105854747Y-96033598D01*
X105840133Y-96013893D01*
X105827520Y-95992849D01*
X105817030Y-95970671D01*
X105808765Y-95947571D01*
X105802804Y-95923773D01*
X105799204Y-95899504D01*
X105798000Y-95875000D01*
X105798000Y-94625000D01*
X105799204Y-94600496D01*
X105802804Y-94576227D01*
X105808765Y-94552429D01*
X105817030Y-94529329D01*
X105827520Y-94507151D01*
X105840133Y-94486107D01*
X105854747Y-94466402D01*
X105871223Y-94448223D01*
X105889402Y-94431747D01*
X105909107Y-94417133D01*
X105930151Y-94404520D01*
X105952329Y-94394030D01*
X105975429Y-94385765D01*
X105999227Y-94379804D01*
X106023496Y-94376204D01*
X106048000Y-94375000D01*
X106798000Y-94375000D01*
X106822504Y-94376204D01*
G37*
G36*
X109622504Y-94376204D02*
G01*
X109646773Y-94379804D01*
X109670571Y-94385765D01*
X109693671Y-94394030D01*
X109715849Y-94404520D01*
X109736893Y-94417133D01*
X109756598Y-94431747D01*
X109774777Y-94448223D01*
X109791253Y-94466402D01*
X109805867Y-94486107D01*
X109818480Y-94507151D01*
X109828970Y-94529329D01*
X109837235Y-94552429D01*
X109843196Y-94576227D01*
X109846796Y-94600496D01*
X109848000Y-94625000D01*
X109848000Y-95875000D01*
X109846796Y-95899504D01*
X109843196Y-95923773D01*
X109837235Y-95947571D01*
X109828970Y-95970671D01*
X109818480Y-95992849D01*
X109805867Y-96013893D01*
X109791253Y-96033598D01*
X109774777Y-96051777D01*
X109756598Y-96068253D01*
X109736893Y-96082867D01*
X109715849Y-96095480D01*
X109693671Y-96105970D01*
X109670571Y-96114235D01*
X109646773Y-96120196D01*
X109622504Y-96123796D01*
X109598000Y-96125000D01*
X108848000Y-96125000D01*
X108823496Y-96123796D01*
X108799227Y-96120196D01*
X108775429Y-96114235D01*
X108752329Y-96105970D01*
X108730151Y-96095480D01*
X108709107Y-96082867D01*
X108689402Y-96068253D01*
X108671223Y-96051777D01*
X108654747Y-96033598D01*
X108640133Y-96013893D01*
X108627520Y-95992849D01*
X108617030Y-95970671D01*
X108608765Y-95947571D01*
X108602804Y-95923773D01*
X108599204Y-95899504D01*
X108598000Y-95875000D01*
X108598000Y-94625000D01*
X108599204Y-94600496D01*
X108602804Y-94576227D01*
X108608765Y-94552429D01*
X108617030Y-94529329D01*
X108627520Y-94507151D01*
X108640133Y-94486107D01*
X108654747Y-94466402D01*
X108671223Y-94448223D01*
X108689402Y-94431747D01*
X108709107Y-94417133D01*
X108730151Y-94404520D01*
X108752329Y-94394030D01*
X108775429Y-94385765D01*
X108799227Y-94379804D01*
X108823496Y-94376204D01*
X108848000Y-94375000D01*
X109598000Y-94375000D01*
X109622504Y-94376204D01*
G37*
G36*
X118026771Y-56039580D02*
G01*
X118048006Y-56042730D01*
X118068830Y-56047946D01*
X118089042Y-56055178D01*
X118108448Y-56064357D01*
X118126861Y-56075393D01*
X118144104Y-56088181D01*
X118160010Y-56102597D01*
X118522403Y-56464990D01*
X118536819Y-56480896D01*
X118549607Y-56498139D01*
X118560643Y-56516552D01*
X118569822Y-56535958D01*
X118577054Y-56556170D01*
X118582270Y-56576994D01*
X118585420Y-56598229D01*
X118586473Y-56619670D01*
X118585420Y-56641111D01*
X118582270Y-56662346D01*
X118577054Y-56683170D01*
X118569822Y-56703382D01*
X118560643Y-56722788D01*
X118549607Y-56741201D01*
X118536819Y-56758444D01*
X118522403Y-56774350D01*
X118213044Y-57083709D01*
X118197138Y-57098125D01*
X118179895Y-57110913D01*
X118161482Y-57121949D01*
X118142076Y-57131128D01*
X118121864Y-57138360D01*
X118101040Y-57143576D01*
X118079805Y-57146726D01*
X118058364Y-57147779D01*
X118036923Y-57146726D01*
X118015688Y-57143576D01*
X117994864Y-57138360D01*
X117974652Y-57131128D01*
X117955246Y-57121949D01*
X117936833Y-57110913D01*
X117919590Y-57098125D01*
X117903684Y-57083709D01*
X117541291Y-56721316D01*
X117526875Y-56705410D01*
X117514087Y-56688167D01*
X117503051Y-56669754D01*
X117493872Y-56650348D01*
X117486640Y-56630136D01*
X117481424Y-56609312D01*
X117478274Y-56588077D01*
X117477221Y-56566636D01*
X117478274Y-56545195D01*
X117481424Y-56523960D01*
X117486640Y-56503136D01*
X117493872Y-56482924D01*
X117503051Y-56463518D01*
X117514087Y-56445105D01*
X117526875Y-56427862D01*
X117541291Y-56411956D01*
X117850650Y-56102597D01*
X117866556Y-56088181D01*
X117883799Y-56075393D01*
X117902212Y-56064357D01*
X117921618Y-56055178D01*
X117941830Y-56047946D01*
X117962654Y-56042730D01*
X117983889Y-56039580D01*
X118005330Y-56038527D01*
X118026771Y-56039580D01*
G37*
G36*
X116913077Y-57153274D02*
G01*
X116934312Y-57156424D01*
X116955136Y-57161640D01*
X116975348Y-57168872D01*
X116994754Y-57178051D01*
X117013167Y-57189087D01*
X117030410Y-57201875D01*
X117046316Y-57216291D01*
X117408709Y-57578684D01*
X117423125Y-57594590D01*
X117435913Y-57611833D01*
X117446949Y-57630246D01*
X117456128Y-57649652D01*
X117463360Y-57669864D01*
X117468576Y-57690688D01*
X117471726Y-57711923D01*
X117472779Y-57733364D01*
X117471726Y-57754805D01*
X117468576Y-57776040D01*
X117463360Y-57796864D01*
X117456128Y-57817076D01*
X117446949Y-57836482D01*
X117435913Y-57854895D01*
X117423125Y-57872138D01*
X117408709Y-57888044D01*
X117099350Y-58197403D01*
X117083444Y-58211819D01*
X117066201Y-58224607D01*
X117047788Y-58235643D01*
X117028382Y-58244822D01*
X117008170Y-58252054D01*
X116987346Y-58257270D01*
X116966111Y-58260420D01*
X116944670Y-58261473D01*
X116923229Y-58260420D01*
X116901994Y-58257270D01*
X116881170Y-58252054D01*
X116860958Y-58244822D01*
X116841552Y-58235643D01*
X116823139Y-58224607D01*
X116805896Y-58211819D01*
X116789990Y-58197403D01*
X116427597Y-57835010D01*
X116413181Y-57819104D01*
X116400393Y-57801861D01*
X116389357Y-57783448D01*
X116380178Y-57764042D01*
X116372946Y-57743830D01*
X116367730Y-57723006D01*
X116364580Y-57701771D01*
X116363527Y-57680330D01*
X116364580Y-57658889D01*
X116367730Y-57637654D01*
X116372946Y-57616830D01*
X116380178Y-57596618D01*
X116389357Y-57577212D01*
X116400393Y-57558799D01*
X116413181Y-57541556D01*
X116427597Y-57525650D01*
X116736956Y-57216291D01*
X116752862Y-57201875D01*
X116770105Y-57189087D01*
X116788518Y-57178051D01*
X116807924Y-57168872D01*
X116828136Y-57161640D01*
X116848960Y-57156424D01*
X116870195Y-57153274D01*
X116891636Y-57152221D01*
X116913077Y-57153274D01*
G37*
G36*
X110563077Y-50803274D02*
G01*
X110584312Y-50806424D01*
X110605136Y-50811640D01*
X110625348Y-50818872D01*
X110644754Y-50828051D01*
X110663167Y-50839087D01*
X110680410Y-50851875D01*
X110696316Y-50866291D01*
X111058709Y-51228684D01*
X111073125Y-51244590D01*
X111085913Y-51261833D01*
X111096949Y-51280246D01*
X111106128Y-51299652D01*
X111113360Y-51319864D01*
X111118576Y-51340688D01*
X111121726Y-51361923D01*
X111122779Y-51383364D01*
X111121726Y-51404805D01*
X111118576Y-51426040D01*
X111113360Y-51446864D01*
X111106128Y-51467076D01*
X111096949Y-51486482D01*
X111085913Y-51504895D01*
X111073125Y-51522138D01*
X111058709Y-51538044D01*
X110749350Y-51847403D01*
X110733444Y-51861819D01*
X110716201Y-51874607D01*
X110697788Y-51885643D01*
X110678382Y-51894822D01*
X110658170Y-51902054D01*
X110637346Y-51907270D01*
X110616111Y-51910420D01*
X110594670Y-51911473D01*
X110573229Y-51910420D01*
X110551994Y-51907270D01*
X110531170Y-51902054D01*
X110510958Y-51894822D01*
X110491552Y-51885643D01*
X110473139Y-51874607D01*
X110455896Y-51861819D01*
X110439990Y-51847403D01*
X110077597Y-51485010D01*
X110063181Y-51469104D01*
X110050393Y-51451861D01*
X110039357Y-51433448D01*
X110030178Y-51414042D01*
X110022946Y-51393830D01*
X110017730Y-51373006D01*
X110014580Y-51351771D01*
X110013527Y-51330330D01*
X110014580Y-51308889D01*
X110017730Y-51287654D01*
X110022946Y-51266830D01*
X110030178Y-51246618D01*
X110039357Y-51227212D01*
X110050393Y-51208799D01*
X110063181Y-51191556D01*
X110077597Y-51175650D01*
X110386956Y-50866291D01*
X110402862Y-50851875D01*
X110420105Y-50839087D01*
X110438518Y-50828051D01*
X110457924Y-50818872D01*
X110478136Y-50811640D01*
X110498960Y-50806424D01*
X110520195Y-50803274D01*
X110541636Y-50802221D01*
X110563077Y-50803274D01*
G37*
G36*
X111676771Y-49689580D02*
G01*
X111698006Y-49692730D01*
X111718830Y-49697946D01*
X111739042Y-49705178D01*
X111758448Y-49714357D01*
X111776861Y-49725393D01*
X111794104Y-49738181D01*
X111810010Y-49752597D01*
X112172403Y-50114990D01*
X112186819Y-50130896D01*
X112199607Y-50148139D01*
X112210643Y-50166552D01*
X112219822Y-50185958D01*
X112227054Y-50206170D01*
X112232270Y-50226994D01*
X112235420Y-50248229D01*
X112236473Y-50269670D01*
X112235420Y-50291111D01*
X112232270Y-50312346D01*
X112227054Y-50333170D01*
X112219822Y-50353382D01*
X112210643Y-50372788D01*
X112199607Y-50391201D01*
X112186819Y-50408444D01*
X112172403Y-50424350D01*
X111863044Y-50733709D01*
X111847138Y-50748125D01*
X111829895Y-50760913D01*
X111811482Y-50771949D01*
X111792076Y-50781128D01*
X111771864Y-50788360D01*
X111751040Y-50793576D01*
X111729805Y-50796726D01*
X111708364Y-50797779D01*
X111686923Y-50796726D01*
X111665688Y-50793576D01*
X111644864Y-50788360D01*
X111624652Y-50781128D01*
X111605246Y-50771949D01*
X111586833Y-50760913D01*
X111569590Y-50748125D01*
X111553684Y-50733709D01*
X111191291Y-50371316D01*
X111176875Y-50355410D01*
X111164087Y-50338167D01*
X111153051Y-50319754D01*
X111143872Y-50300348D01*
X111136640Y-50280136D01*
X111131424Y-50259312D01*
X111128274Y-50238077D01*
X111127221Y-50216636D01*
X111128274Y-50195195D01*
X111131424Y-50173960D01*
X111136640Y-50153136D01*
X111143872Y-50132924D01*
X111153051Y-50113518D01*
X111164087Y-50095105D01*
X111176875Y-50077862D01*
X111191291Y-50061956D01*
X111500650Y-49752597D01*
X111516556Y-49738181D01*
X111533799Y-49725393D01*
X111552212Y-49714357D01*
X111571618Y-49705178D01*
X111591830Y-49697946D01*
X111612654Y-49692730D01*
X111633889Y-49689580D01*
X111655330Y-49688527D01*
X111676771Y-49689580D01*
G37*
G36*
X116741545Y-54479536D02*
G01*
X116765206Y-54483046D01*
X116788410Y-54488858D01*
X116810932Y-54496916D01*
X116832556Y-54507144D01*
X116853073Y-54519441D01*
X116872286Y-54533691D01*
X116890010Y-54549755D01*
X117535245Y-55194990D01*
X117551309Y-55212714D01*
X117565559Y-55231927D01*
X117577856Y-55252444D01*
X117588084Y-55274068D01*
X117596142Y-55296590D01*
X117601954Y-55319794D01*
X117605464Y-55343455D01*
X117606638Y-55367347D01*
X117605464Y-55391239D01*
X117601954Y-55414900D01*
X117596142Y-55438104D01*
X117588084Y-55460626D01*
X117577856Y-55482250D01*
X117565559Y-55502767D01*
X117551309Y-55521980D01*
X117535245Y-55539704D01*
X117190530Y-55884419D01*
X117172806Y-55900483D01*
X117153593Y-55914733D01*
X117133076Y-55927030D01*
X117111452Y-55937258D01*
X117088930Y-55945316D01*
X117065726Y-55951128D01*
X117042065Y-55954638D01*
X117018173Y-55955812D01*
X116994281Y-55954638D01*
X116970620Y-55951128D01*
X116947416Y-55945316D01*
X116924894Y-55937258D01*
X116903270Y-55927030D01*
X116882753Y-55914733D01*
X116863540Y-55900483D01*
X116845816Y-55884419D01*
X116200581Y-55239184D01*
X116184517Y-55221460D01*
X116170267Y-55202247D01*
X116157970Y-55181730D01*
X116147742Y-55160106D01*
X116139684Y-55137584D01*
X116133872Y-55114380D01*
X116130362Y-55090719D01*
X116129188Y-55066827D01*
X116130362Y-55042935D01*
X116133872Y-55019274D01*
X116139684Y-54996070D01*
X116147742Y-54973548D01*
X116157970Y-54951924D01*
X116170267Y-54931407D01*
X116184517Y-54912194D01*
X116200581Y-54894470D01*
X116545296Y-54549755D01*
X116563020Y-54533691D01*
X116582233Y-54519441D01*
X116602750Y-54507144D01*
X116624374Y-54496916D01*
X116646896Y-54488858D01*
X116670100Y-54483046D01*
X116693761Y-54479536D01*
X116717653Y-54478362D01*
X116741545Y-54479536D01*
G37*
G36*
X115415719Y-55805362D02*
G01*
X115439380Y-55808872D01*
X115462584Y-55814684D01*
X115485106Y-55822742D01*
X115506730Y-55832970D01*
X115527247Y-55845267D01*
X115546460Y-55859517D01*
X115564184Y-55875581D01*
X116209419Y-56520816D01*
X116225483Y-56538540D01*
X116239733Y-56557753D01*
X116252030Y-56578270D01*
X116262258Y-56599894D01*
X116270316Y-56622416D01*
X116276128Y-56645620D01*
X116279638Y-56669281D01*
X116280812Y-56693173D01*
X116279638Y-56717065D01*
X116276128Y-56740726D01*
X116270316Y-56763930D01*
X116262258Y-56786452D01*
X116252030Y-56808076D01*
X116239733Y-56828593D01*
X116225483Y-56847806D01*
X116209419Y-56865530D01*
X115864704Y-57210245D01*
X115846980Y-57226309D01*
X115827767Y-57240559D01*
X115807250Y-57252856D01*
X115785626Y-57263084D01*
X115763104Y-57271142D01*
X115739900Y-57276954D01*
X115716239Y-57280464D01*
X115692347Y-57281638D01*
X115668455Y-57280464D01*
X115644794Y-57276954D01*
X115621590Y-57271142D01*
X115599068Y-57263084D01*
X115577444Y-57252856D01*
X115556927Y-57240559D01*
X115537714Y-57226309D01*
X115519990Y-57210245D01*
X114874755Y-56565010D01*
X114858691Y-56547286D01*
X114844441Y-56528073D01*
X114832144Y-56507556D01*
X114821916Y-56485932D01*
X114813858Y-56463410D01*
X114808046Y-56440206D01*
X114804536Y-56416545D01*
X114803362Y-56392653D01*
X114804536Y-56368761D01*
X114808046Y-56345100D01*
X114813858Y-56321896D01*
X114821916Y-56299374D01*
X114832144Y-56277750D01*
X114844441Y-56257233D01*
X114858691Y-56238020D01*
X114874755Y-56220296D01*
X115219470Y-55875581D01*
X115237194Y-55859517D01*
X115256407Y-55845267D01*
X115276924Y-55832970D01*
X115298548Y-55822742D01*
X115321070Y-55814684D01*
X115344274Y-55808872D01*
X115367935Y-55805362D01*
X115391827Y-55804188D01*
X115415719Y-55805362D01*
G37*
G36*
X111732719Y-51995362D02*
G01*
X111756380Y-51998872D01*
X111779584Y-52004684D01*
X111802106Y-52012742D01*
X111823730Y-52022970D01*
X111844247Y-52035267D01*
X111863460Y-52049517D01*
X111881184Y-52065581D01*
X112526419Y-52710816D01*
X112542483Y-52728540D01*
X112556733Y-52747753D01*
X112569030Y-52768270D01*
X112579258Y-52789894D01*
X112587316Y-52812416D01*
X112593128Y-52835620D01*
X112596638Y-52859281D01*
X112597812Y-52883173D01*
X112596638Y-52907065D01*
X112593128Y-52930726D01*
X112587316Y-52953930D01*
X112579258Y-52976452D01*
X112569030Y-52998076D01*
X112556733Y-53018593D01*
X112542483Y-53037806D01*
X112526419Y-53055530D01*
X112181704Y-53400245D01*
X112163980Y-53416309D01*
X112144767Y-53430559D01*
X112124250Y-53442856D01*
X112102626Y-53453084D01*
X112080104Y-53461142D01*
X112056900Y-53466954D01*
X112033239Y-53470464D01*
X112009347Y-53471638D01*
X111985455Y-53470464D01*
X111961794Y-53466954D01*
X111938590Y-53461142D01*
X111916068Y-53453084D01*
X111894444Y-53442856D01*
X111873927Y-53430559D01*
X111854714Y-53416309D01*
X111836990Y-53400245D01*
X111191755Y-52755010D01*
X111175691Y-52737286D01*
X111161441Y-52718073D01*
X111149144Y-52697556D01*
X111138916Y-52675932D01*
X111130858Y-52653410D01*
X111125046Y-52630206D01*
X111121536Y-52606545D01*
X111120362Y-52582653D01*
X111121536Y-52558761D01*
X111125046Y-52535100D01*
X111130858Y-52511896D01*
X111138916Y-52489374D01*
X111149144Y-52467750D01*
X111161441Y-52447233D01*
X111175691Y-52428020D01*
X111191755Y-52410296D01*
X111536470Y-52065581D01*
X111554194Y-52049517D01*
X111573407Y-52035267D01*
X111593924Y-52022970D01*
X111615548Y-52012742D01*
X111638070Y-52004684D01*
X111661274Y-51998872D01*
X111684935Y-51995362D01*
X111708827Y-51994188D01*
X111732719Y-51995362D01*
G37*
G36*
X113058545Y-50669536D02*
G01*
X113082206Y-50673046D01*
X113105410Y-50678858D01*
X113127932Y-50686916D01*
X113149556Y-50697144D01*
X113170073Y-50709441D01*
X113189286Y-50723691D01*
X113207010Y-50739755D01*
X113852245Y-51384990D01*
X113868309Y-51402714D01*
X113882559Y-51421927D01*
X113894856Y-51442444D01*
X113905084Y-51464068D01*
X113913142Y-51486590D01*
X113918954Y-51509794D01*
X113922464Y-51533455D01*
X113923638Y-51557347D01*
X113922464Y-51581239D01*
X113918954Y-51604900D01*
X113913142Y-51628104D01*
X113905084Y-51650626D01*
X113894856Y-51672250D01*
X113882559Y-51692767D01*
X113868309Y-51711980D01*
X113852245Y-51729704D01*
X113507530Y-52074419D01*
X113489806Y-52090483D01*
X113470593Y-52104733D01*
X113450076Y-52117030D01*
X113428452Y-52127258D01*
X113405930Y-52135316D01*
X113382726Y-52141128D01*
X113359065Y-52144638D01*
X113335173Y-52145812D01*
X113311281Y-52144638D01*
X113287620Y-52141128D01*
X113264416Y-52135316D01*
X113241894Y-52127258D01*
X113220270Y-52117030D01*
X113199753Y-52104733D01*
X113180540Y-52090483D01*
X113162816Y-52074419D01*
X112517581Y-51429184D01*
X112501517Y-51411460D01*
X112487267Y-51392247D01*
X112474970Y-51371730D01*
X112464742Y-51350106D01*
X112456684Y-51327584D01*
X112450872Y-51304380D01*
X112447362Y-51280719D01*
X112446188Y-51256827D01*
X112447362Y-51232935D01*
X112450872Y-51209274D01*
X112456684Y-51186070D01*
X112464742Y-51163548D01*
X112474970Y-51141924D01*
X112487267Y-51121407D01*
X112501517Y-51102194D01*
X112517581Y-51084470D01*
X112862296Y-50739755D01*
X112880020Y-50723691D01*
X112899233Y-50709441D01*
X112919750Y-50697144D01*
X112941374Y-50686916D01*
X112963896Y-50678858D01*
X112987100Y-50673046D01*
X113010761Y-50669536D01*
X113034653Y-50668362D01*
X113058545Y-50669536D01*
G37*
G36*
X114963545Y-52574536D02*
G01*
X114987206Y-52578046D01*
X115010410Y-52583858D01*
X115032932Y-52591916D01*
X115054556Y-52602144D01*
X115075073Y-52614441D01*
X115094286Y-52628691D01*
X115112010Y-52644755D01*
X115757245Y-53289990D01*
X115773309Y-53307714D01*
X115787559Y-53326927D01*
X115799856Y-53347444D01*
X115810084Y-53369068D01*
X115818142Y-53391590D01*
X115823954Y-53414794D01*
X115827464Y-53438455D01*
X115828638Y-53462347D01*
X115827464Y-53486239D01*
X115823954Y-53509900D01*
X115818142Y-53533104D01*
X115810084Y-53555626D01*
X115799856Y-53577250D01*
X115787559Y-53597767D01*
X115773309Y-53616980D01*
X115757245Y-53634704D01*
X115412530Y-53979419D01*
X115394806Y-53995483D01*
X115375593Y-54009733D01*
X115355076Y-54022030D01*
X115333452Y-54032258D01*
X115310930Y-54040316D01*
X115287726Y-54046128D01*
X115264065Y-54049638D01*
X115240173Y-54050812D01*
X115216281Y-54049638D01*
X115192620Y-54046128D01*
X115169416Y-54040316D01*
X115146894Y-54032258D01*
X115125270Y-54022030D01*
X115104753Y-54009733D01*
X115085540Y-53995483D01*
X115067816Y-53979419D01*
X114422581Y-53334184D01*
X114406517Y-53316460D01*
X114392267Y-53297247D01*
X114379970Y-53276730D01*
X114369742Y-53255106D01*
X114361684Y-53232584D01*
X114355872Y-53209380D01*
X114352362Y-53185719D01*
X114351188Y-53161827D01*
X114352362Y-53137935D01*
X114355872Y-53114274D01*
X114361684Y-53091070D01*
X114369742Y-53068548D01*
X114379970Y-53046924D01*
X114392267Y-53026407D01*
X114406517Y-53007194D01*
X114422581Y-52989470D01*
X114767296Y-52644755D01*
X114785020Y-52628691D01*
X114804233Y-52614441D01*
X114824750Y-52602144D01*
X114846374Y-52591916D01*
X114868896Y-52583858D01*
X114892100Y-52578046D01*
X114915761Y-52574536D01*
X114939653Y-52573362D01*
X114963545Y-52574536D01*
G37*
G36*
X113637719Y-53900362D02*
G01*
X113661380Y-53903872D01*
X113684584Y-53909684D01*
X113707106Y-53917742D01*
X113728730Y-53927970D01*
X113749247Y-53940267D01*
X113768460Y-53954517D01*
X113786184Y-53970581D01*
X114431419Y-54615816D01*
X114447483Y-54633540D01*
X114461733Y-54652753D01*
X114474030Y-54673270D01*
X114484258Y-54694894D01*
X114492316Y-54717416D01*
X114498128Y-54740620D01*
X114501638Y-54764281D01*
X114502812Y-54788173D01*
X114501638Y-54812065D01*
X114498128Y-54835726D01*
X114492316Y-54858930D01*
X114484258Y-54881452D01*
X114474030Y-54903076D01*
X114461733Y-54923593D01*
X114447483Y-54942806D01*
X114431419Y-54960530D01*
X114086704Y-55305245D01*
X114068980Y-55321309D01*
X114049767Y-55335559D01*
X114029250Y-55347856D01*
X114007626Y-55358084D01*
X113985104Y-55366142D01*
X113961900Y-55371954D01*
X113938239Y-55375464D01*
X113914347Y-55376638D01*
X113890455Y-55375464D01*
X113866794Y-55371954D01*
X113843590Y-55366142D01*
X113821068Y-55358084D01*
X113799444Y-55347856D01*
X113778927Y-55335559D01*
X113759714Y-55321309D01*
X113741990Y-55305245D01*
X113096755Y-54660010D01*
X113080691Y-54642286D01*
X113066441Y-54623073D01*
X113054144Y-54602556D01*
X113043916Y-54580932D01*
X113035858Y-54558410D01*
X113030046Y-54535206D01*
X113026536Y-54511545D01*
X113025362Y-54487653D01*
X113026536Y-54463761D01*
X113030046Y-54440100D01*
X113035858Y-54416896D01*
X113043916Y-54394374D01*
X113054144Y-54372750D01*
X113066441Y-54352233D01*
X113080691Y-54333020D01*
X113096755Y-54315296D01*
X113441470Y-53970581D01*
X113459194Y-53954517D01*
X113478407Y-53940267D01*
X113498924Y-53927970D01*
X113520548Y-53917742D01*
X113543070Y-53909684D01*
X113566274Y-53903872D01*
X113589935Y-53900362D01*
X113613827Y-53899188D01*
X113637719Y-53900362D01*
G37*
G36*
X151730142Y-160591174D02*
G01*
X151753803Y-160594684D01*
X151777007Y-160600496D01*
X151799529Y-160608554D01*
X151821153Y-160618782D01*
X151841670Y-160631079D01*
X151860883Y-160645329D01*
X151878607Y-160661393D01*
X151894671Y-160679117D01*
X151908921Y-160698330D01*
X151921218Y-160718847D01*
X151931446Y-160740471D01*
X151939504Y-160762993D01*
X151945316Y-160786197D01*
X151948826Y-160809858D01*
X151950000Y-160833750D01*
X151950000Y-161746250D01*
X151948826Y-161770142D01*
X151945316Y-161793803D01*
X151939504Y-161817007D01*
X151931446Y-161839529D01*
X151921218Y-161861153D01*
X151908921Y-161881670D01*
X151894671Y-161900883D01*
X151878607Y-161918607D01*
X151860883Y-161934671D01*
X151841670Y-161948921D01*
X151821153Y-161961218D01*
X151799529Y-161971446D01*
X151777007Y-161979504D01*
X151753803Y-161985316D01*
X151730142Y-161988826D01*
X151706250Y-161990000D01*
X151218750Y-161990000D01*
X151194858Y-161988826D01*
X151171197Y-161985316D01*
X151147993Y-161979504D01*
X151125471Y-161971446D01*
X151103847Y-161961218D01*
X151083330Y-161948921D01*
X151064117Y-161934671D01*
X151046393Y-161918607D01*
X151030329Y-161900883D01*
X151016079Y-161881670D01*
X151003782Y-161861153D01*
X150993554Y-161839529D01*
X150985496Y-161817007D01*
X150979684Y-161793803D01*
X150976174Y-161770142D01*
X150975000Y-161746250D01*
X150975000Y-160833750D01*
X150976174Y-160809858D01*
X150979684Y-160786197D01*
X150985496Y-160762993D01*
X150993554Y-160740471D01*
X151003782Y-160718847D01*
X151016079Y-160698330D01*
X151030329Y-160679117D01*
X151046393Y-160661393D01*
X151064117Y-160645329D01*
X151083330Y-160631079D01*
X151103847Y-160618782D01*
X151125471Y-160608554D01*
X151147993Y-160600496D01*
X151171197Y-160594684D01*
X151194858Y-160591174D01*
X151218750Y-160590000D01*
X151706250Y-160590000D01*
X151730142Y-160591174D01*
G37*
G36*
X153605142Y-160591174D02*
G01*
X153628803Y-160594684D01*
X153652007Y-160600496D01*
X153674529Y-160608554D01*
X153696153Y-160618782D01*
X153716670Y-160631079D01*
X153735883Y-160645329D01*
X153753607Y-160661393D01*
X153769671Y-160679117D01*
X153783921Y-160698330D01*
X153796218Y-160718847D01*
X153806446Y-160740471D01*
X153814504Y-160762993D01*
X153820316Y-160786197D01*
X153823826Y-160809858D01*
X153825000Y-160833750D01*
X153825000Y-161746250D01*
X153823826Y-161770142D01*
X153820316Y-161793803D01*
X153814504Y-161817007D01*
X153806446Y-161839529D01*
X153796218Y-161861153D01*
X153783921Y-161881670D01*
X153769671Y-161900883D01*
X153753607Y-161918607D01*
X153735883Y-161934671D01*
X153716670Y-161948921D01*
X153696153Y-161961218D01*
X153674529Y-161971446D01*
X153652007Y-161979504D01*
X153628803Y-161985316D01*
X153605142Y-161988826D01*
X153581250Y-161990000D01*
X153093750Y-161990000D01*
X153069858Y-161988826D01*
X153046197Y-161985316D01*
X153022993Y-161979504D01*
X153000471Y-161971446D01*
X152978847Y-161961218D01*
X152958330Y-161948921D01*
X152939117Y-161934671D01*
X152921393Y-161918607D01*
X152905329Y-161900883D01*
X152891079Y-161881670D01*
X152878782Y-161861153D01*
X152868554Y-161839529D01*
X152860496Y-161817007D01*
X152854684Y-161793803D01*
X152851174Y-161770142D01*
X152850000Y-161746250D01*
X152850000Y-160833750D01*
X152851174Y-160809858D01*
X152854684Y-160786197D01*
X152860496Y-160762993D01*
X152868554Y-160740471D01*
X152878782Y-160718847D01*
X152891079Y-160698330D01*
X152905329Y-160679117D01*
X152921393Y-160661393D01*
X152939117Y-160645329D01*
X152958330Y-160631079D01*
X152978847Y-160618782D01*
X153000471Y-160608554D01*
X153022993Y-160600496D01*
X153046197Y-160594684D01*
X153069858Y-160591174D01*
X153093750Y-160590000D01*
X153581250Y-160590000D01*
X153605142Y-160591174D01*
G37*
G36*
X141882691Y-161336053D02*
G01*
X141903926Y-161339203D01*
X141924750Y-161344419D01*
X141944962Y-161351651D01*
X141964368Y-161360830D01*
X141982781Y-161371866D01*
X142000024Y-161384654D01*
X142015930Y-161399070D01*
X142030346Y-161414976D01*
X142043134Y-161432219D01*
X142054170Y-161450632D01*
X142063349Y-161470038D01*
X142070581Y-161490250D01*
X142075797Y-161511074D01*
X142078947Y-161532309D01*
X142080000Y-161553750D01*
X142080000Y-161991250D01*
X142078947Y-162012691D01*
X142075797Y-162033926D01*
X142070581Y-162054750D01*
X142063349Y-162074962D01*
X142054170Y-162094368D01*
X142043134Y-162112781D01*
X142030346Y-162130024D01*
X142015930Y-162145930D01*
X142000024Y-162160346D01*
X141982781Y-162173134D01*
X141964368Y-162184170D01*
X141944962Y-162193349D01*
X141924750Y-162200581D01*
X141903926Y-162205797D01*
X141882691Y-162208947D01*
X141861250Y-162210000D01*
X141348750Y-162210000D01*
X141327309Y-162208947D01*
X141306074Y-162205797D01*
X141285250Y-162200581D01*
X141265038Y-162193349D01*
X141245632Y-162184170D01*
X141227219Y-162173134D01*
X141209976Y-162160346D01*
X141194070Y-162145930D01*
X141179654Y-162130024D01*
X141166866Y-162112781D01*
X141155830Y-162094368D01*
X141146651Y-162074962D01*
X141139419Y-162054750D01*
X141134203Y-162033926D01*
X141131053Y-162012691D01*
X141130000Y-161991250D01*
X141130000Y-161553750D01*
X141131053Y-161532309D01*
X141134203Y-161511074D01*
X141139419Y-161490250D01*
X141146651Y-161470038D01*
X141155830Y-161450632D01*
X141166866Y-161432219D01*
X141179654Y-161414976D01*
X141194070Y-161399070D01*
X141209976Y-161384654D01*
X141227219Y-161371866D01*
X141245632Y-161360830D01*
X141265038Y-161351651D01*
X141285250Y-161344419D01*
X141306074Y-161339203D01*
X141327309Y-161336053D01*
X141348750Y-161335000D01*
X141861250Y-161335000D01*
X141882691Y-161336053D01*
G37*
G36*
X141882691Y-162911053D02*
G01*
X141903926Y-162914203D01*
X141924750Y-162919419D01*
X141944962Y-162926651D01*
X141964368Y-162935830D01*
X141982781Y-162946866D01*
X142000024Y-162959654D01*
X142015930Y-162974070D01*
X142030346Y-162989976D01*
X142043134Y-163007219D01*
X142054170Y-163025632D01*
X142063349Y-163045038D01*
X142070581Y-163065250D01*
X142075797Y-163086074D01*
X142078947Y-163107309D01*
X142080000Y-163128750D01*
X142080000Y-163566250D01*
X142078947Y-163587691D01*
X142075797Y-163608926D01*
X142070581Y-163629750D01*
X142063349Y-163649962D01*
X142054170Y-163669368D01*
X142043134Y-163687781D01*
X142030346Y-163705024D01*
X142015930Y-163720930D01*
X142000024Y-163735346D01*
X141982781Y-163748134D01*
X141964368Y-163759170D01*
X141944962Y-163768349D01*
X141924750Y-163775581D01*
X141903926Y-163780797D01*
X141882691Y-163783947D01*
X141861250Y-163785000D01*
X141348750Y-163785000D01*
X141327309Y-163783947D01*
X141306074Y-163780797D01*
X141285250Y-163775581D01*
X141265038Y-163768349D01*
X141245632Y-163759170D01*
X141227219Y-163748134D01*
X141209976Y-163735346D01*
X141194070Y-163720930D01*
X141179654Y-163705024D01*
X141166866Y-163687781D01*
X141155830Y-163669368D01*
X141146651Y-163649962D01*
X141139419Y-163629750D01*
X141134203Y-163608926D01*
X141131053Y-163587691D01*
X141130000Y-163566250D01*
X141130000Y-163128750D01*
X141131053Y-163107309D01*
X141134203Y-163086074D01*
X141139419Y-163065250D01*
X141146651Y-163045038D01*
X141155830Y-163025632D01*
X141166866Y-163007219D01*
X141179654Y-162989976D01*
X141194070Y-162974070D01*
X141209976Y-162959654D01*
X141227219Y-162946866D01*
X141245632Y-162935830D01*
X141265038Y-162926651D01*
X141285250Y-162919419D01*
X141306074Y-162914203D01*
X141327309Y-162911053D01*
X141348750Y-162910000D01*
X141861250Y-162910000D01*
X141882691Y-162911053D01*
G37*
G36*
X143787691Y-161336053D02*
G01*
X143808926Y-161339203D01*
X143829750Y-161344419D01*
X143849962Y-161351651D01*
X143869368Y-161360830D01*
X143887781Y-161371866D01*
X143905024Y-161384654D01*
X143920930Y-161399070D01*
X143935346Y-161414976D01*
X143948134Y-161432219D01*
X143959170Y-161450632D01*
X143968349Y-161470038D01*
X143975581Y-161490250D01*
X143980797Y-161511074D01*
X143983947Y-161532309D01*
X143985000Y-161553750D01*
X143985000Y-161991250D01*
X143983947Y-162012691D01*
X143980797Y-162033926D01*
X143975581Y-162054750D01*
X143968349Y-162074962D01*
X143959170Y-162094368D01*
X143948134Y-162112781D01*
X143935346Y-162130024D01*
X143920930Y-162145930D01*
X143905024Y-162160346D01*
X143887781Y-162173134D01*
X143869368Y-162184170D01*
X143849962Y-162193349D01*
X143829750Y-162200581D01*
X143808926Y-162205797D01*
X143787691Y-162208947D01*
X143766250Y-162210000D01*
X143253750Y-162210000D01*
X143232309Y-162208947D01*
X143211074Y-162205797D01*
X143190250Y-162200581D01*
X143170038Y-162193349D01*
X143150632Y-162184170D01*
X143132219Y-162173134D01*
X143114976Y-162160346D01*
X143099070Y-162145930D01*
X143084654Y-162130024D01*
X143071866Y-162112781D01*
X143060830Y-162094368D01*
X143051651Y-162074962D01*
X143044419Y-162054750D01*
X143039203Y-162033926D01*
X143036053Y-162012691D01*
X143035000Y-161991250D01*
X143035000Y-161553750D01*
X143036053Y-161532309D01*
X143039203Y-161511074D01*
X143044419Y-161490250D01*
X143051651Y-161470038D01*
X143060830Y-161450632D01*
X143071866Y-161432219D01*
X143084654Y-161414976D01*
X143099070Y-161399070D01*
X143114976Y-161384654D01*
X143132219Y-161371866D01*
X143150632Y-161360830D01*
X143170038Y-161351651D01*
X143190250Y-161344419D01*
X143211074Y-161339203D01*
X143232309Y-161336053D01*
X143253750Y-161335000D01*
X143766250Y-161335000D01*
X143787691Y-161336053D01*
G37*
G36*
X143787691Y-162911053D02*
G01*
X143808926Y-162914203D01*
X143829750Y-162919419D01*
X143849962Y-162926651D01*
X143869368Y-162935830D01*
X143887781Y-162946866D01*
X143905024Y-162959654D01*
X143920930Y-162974070D01*
X143935346Y-162989976D01*
X143948134Y-163007219D01*
X143959170Y-163025632D01*
X143968349Y-163045038D01*
X143975581Y-163065250D01*
X143980797Y-163086074D01*
X143983947Y-163107309D01*
X143985000Y-163128750D01*
X143985000Y-163566250D01*
X143983947Y-163587691D01*
X143980797Y-163608926D01*
X143975581Y-163629750D01*
X143968349Y-163649962D01*
X143959170Y-163669368D01*
X143948134Y-163687781D01*
X143935346Y-163705024D01*
X143920930Y-163720930D01*
X143905024Y-163735346D01*
X143887781Y-163748134D01*
X143869368Y-163759170D01*
X143849962Y-163768349D01*
X143829750Y-163775581D01*
X143808926Y-163780797D01*
X143787691Y-163783947D01*
X143766250Y-163785000D01*
X143253750Y-163785000D01*
X143232309Y-163783947D01*
X143211074Y-163780797D01*
X143190250Y-163775581D01*
X143170038Y-163768349D01*
X143150632Y-163759170D01*
X143132219Y-163748134D01*
X143114976Y-163735346D01*
X143099070Y-163720930D01*
X143084654Y-163705024D01*
X143071866Y-163687781D01*
X143060830Y-163669368D01*
X143051651Y-163649962D01*
X143044419Y-163629750D01*
X143039203Y-163608926D01*
X143036053Y-163587691D01*
X143035000Y-163566250D01*
X143035000Y-163128750D01*
X143036053Y-163107309D01*
X143039203Y-163086074D01*
X143044419Y-163065250D01*
X143051651Y-163045038D01*
X143060830Y-163025632D01*
X143071866Y-163007219D01*
X143084654Y-162989976D01*
X143099070Y-162974070D01*
X143114976Y-162959654D01*
X143132219Y-162946866D01*
X143150632Y-162935830D01*
X143170038Y-162926651D01*
X143190250Y-162919419D01*
X143211074Y-162914203D01*
X143232309Y-162911053D01*
X143253750Y-162910000D01*
X143766250Y-162910000D01*
X143787691Y-162911053D01*
G37*
G36*
X147077691Y-169706053D02*
G01*
X147098926Y-169709203D01*
X147119750Y-169714419D01*
X147139962Y-169721651D01*
X147159368Y-169730830D01*
X147177781Y-169741866D01*
X147195024Y-169754654D01*
X147210930Y-169769070D01*
X147225346Y-169784976D01*
X147238134Y-169802219D01*
X147249170Y-169820632D01*
X147258349Y-169840038D01*
X147265581Y-169860250D01*
X147270797Y-169881074D01*
X147273947Y-169902309D01*
X147275000Y-169923750D01*
X147275000Y-170436250D01*
X147273947Y-170457691D01*
X147270797Y-170478926D01*
X147265581Y-170499750D01*
X147258349Y-170519962D01*
X147249170Y-170539368D01*
X147238134Y-170557781D01*
X147225346Y-170575024D01*
X147210930Y-170590930D01*
X147195024Y-170605346D01*
X147177781Y-170618134D01*
X147159368Y-170629170D01*
X147139962Y-170638349D01*
X147119750Y-170645581D01*
X147098926Y-170650797D01*
X147077691Y-170653947D01*
X147056250Y-170655000D01*
X146618750Y-170655000D01*
X146597309Y-170653947D01*
X146576074Y-170650797D01*
X146555250Y-170645581D01*
X146535038Y-170638349D01*
X146515632Y-170629170D01*
X146497219Y-170618134D01*
X146479976Y-170605346D01*
X146464070Y-170590930D01*
X146449654Y-170575024D01*
X146436866Y-170557781D01*
X146425830Y-170539368D01*
X146416651Y-170519962D01*
X146409419Y-170499750D01*
X146404203Y-170478926D01*
X146401053Y-170457691D01*
X146400000Y-170436250D01*
X146400000Y-169923750D01*
X146401053Y-169902309D01*
X146404203Y-169881074D01*
X146409419Y-169860250D01*
X146416651Y-169840038D01*
X146425830Y-169820632D01*
X146436866Y-169802219D01*
X146449654Y-169784976D01*
X146464070Y-169769070D01*
X146479976Y-169754654D01*
X146497219Y-169741866D01*
X146515632Y-169730830D01*
X146535038Y-169721651D01*
X146555250Y-169714419D01*
X146576074Y-169709203D01*
X146597309Y-169706053D01*
X146618750Y-169705000D01*
X147056250Y-169705000D01*
X147077691Y-169706053D01*
G37*
G36*
X145502691Y-169706053D02*
G01*
X145523926Y-169709203D01*
X145544750Y-169714419D01*
X145564962Y-169721651D01*
X145584368Y-169730830D01*
X145602781Y-169741866D01*
X145620024Y-169754654D01*
X145635930Y-169769070D01*
X145650346Y-169784976D01*
X145663134Y-169802219D01*
X145674170Y-169820632D01*
X145683349Y-169840038D01*
X145690581Y-169860250D01*
X145695797Y-169881074D01*
X145698947Y-169902309D01*
X145700000Y-169923750D01*
X145700000Y-170436250D01*
X145698947Y-170457691D01*
X145695797Y-170478926D01*
X145690581Y-170499750D01*
X145683349Y-170519962D01*
X145674170Y-170539368D01*
X145663134Y-170557781D01*
X145650346Y-170575024D01*
X145635930Y-170590930D01*
X145620024Y-170605346D01*
X145602781Y-170618134D01*
X145584368Y-170629170D01*
X145564962Y-170638349D01*
X145544750Y-170645581D01*
X145523926Y-170650797D01*
X145502691Y-170653947D01*
X145481250Y-170655000D01*
X145043750Y-170655000D01*
X145022309Y-170653947D01*
X145001074Y-170650797D01*
X144980250Y-170645581D01*
X144960038Y-170638349D01*
X144940632Y-170629170D01*
X144922219Y-170618134D01*
X144904976Y-170605346D01*
X144889070Y-170590930D01*
X144874654Y-170575024D01*
X144861866Y-170557781D01*
X144850830Y-170539368D01*
X144841651Y-170519962D01*
X144834419Y-170499750D01*
X144829203Y-170478926D01*
X144826053Y-170457691D01*
X144825000Y-170436250D01*
X144825000Y-169923750D01*
X144826053Y-169902309D01*
X144829203Y-169881074D01*
X144834419Y-169860250D01*
X144841651Y-169840038D01*
X144850830Y-169820632D01*
X144861866Y-169802219D01*
X144874654Y-169784976D01*
X144889070Y-169769070D01*
X144904976Y-169754654D01*
X144922219Y-169741866D01*
X144940632Y-169730830D01*
X144960038Y-169721651D01*
X144980250Y-169714419D01*
X145001074Y-169709203D01*
X145022309Y-169706053D01*
X145043750Y-169705000D01*
X145481250Y-169705000D01*
X145502691Y-169706053D01*
G37*
M02*
