M48
; DRILL file {KiCad (5.1.5)-3} date 2/9/2020 6:17:16 PM
; FORMAT={-:-/ absolute / inch / decimal}
; #@! TF.CreationDate,2020-02-09T18:17:16-06:00
; #@! TF.GenerationSoftware,Kicad,Pcbnew,(5.1.5)-3
; #@! TF.FileFunction,Plated,1,2,PTH
FMAT,2
INCH
T1C0.0130
T2C0.0400
%
G90
G05
T1
X3.575Y-6.45
X3.575Y-7.3
X3.6Y-5.025
X3.625Y-4.475
X3.65Y-5.525
X3.65Y-7.1
X3.675Y-6.55
X3.725Y-5.125
X3.75Y-5.375
X3.8Y-3.425
X3.8Y-6.15
X3.825Y-5.1
X3.825Y-7.375
X3.85Y-6.6
X3.875Y-3.6
X3.9Y-6.05
X3.95Y-6.6
X3.975Y-7.65
X4.025Y-4.45
X4.045Y-3.8
X4.075Y-3.65
X4.1Y-3.175
X4.1Y-5.175
X4.1Y-5.925
X4.125Y-5.25
X4.2Y-3.0
X4.2Y-5.925
X4.225Y-3.65
X4.25Y-2.7
X4.25Y-6.5
X4.325Y-2.075
X4.375Y-2.35
X4.375Y-3.375
X4.375Y-4.375
X4.4Y-2.7
X4.4Y-3.05
X4.425Y-3.825
X4.425Y-5.675
X4.45Y-1.95
X4.45Y-6.3
X4.47Y-5.2
X4.5Y-5.3
X4.5Y-5.675
X4.55Y-2.3
X4.55Y-6.025
X4.575Y-1.85
X4.575Y-5.175
X4.575Y-6.15
X4.575Y-6.35
X4.6Y-3.95
X4.6Y-6.2
X4.625Y-5.0
X4.625Y-6.25
X4.65Y-1.775
X4.65Y-5.7
X4.65Y-6.4
X4.675Y-1.45
X4.675Y-4.65
X4.675Y-5.85
X4.7Y-2.0
X4.7Y-4.25
X4.7Y-5.175
X4.7Y-6.45
X4.7Y-6.525
X4.725Y-3.125
X4.725Y-3.225
X4.725Y-3.275
X4.725Y-3.325
X4.725Y-5.0
X4.725Y-5.975
X4.75Y-1.15
X4.75Y-3.1
X4.75Y-3.2
X4.75Y-6.225
X4.775Y-2.775
X4.8Y-6.225
X4.825Y-1.05
X4.825Y-3.325
X4.85Y-3.15
X4.85Y-3.35
X4.85Y-6.25
X4.875Y-1.85
X4.875Y-2.325
X4.875Y-3.125
X4.875Y-5.05
X4.875Y-5.55
X4.9Y-3.1
X4.9Y-6.25
X4.925Y-3.475
X4.925Y-3.525
X4.925Y-6.525
X4.975Y-6.075
X4.975Y-6.475
X4.975Y-6.575
X5.0Y-3.0
X5.0Y-5.25
X5.0Y-6.225
X5.025Y-2.875
X5.025Y-2.975
X5.025Y-5.85
X5.025Y-6.0
X5.025Y-6.075
X5.025Y-6.525
X5.05Y-2.95
X5.075Y-1.0
X5.075Y-2.725
X5.075Y-5.825
X5.075Y-6.225
X5.1Y-3.2
X5.1Y-3.25
X5.125Y-2.925
X5.125Y-2.975
X5.125Y-5.7
X5.125Y-6.3332
X5.15Y-1.15
X5.15Y-3.2
X5.15Y-3.25
X5.15Y-5.875
X5.175Y-2.925
X5.2Y-0.95
X5.2Y-2.95
X5.2Y-4.875
X5.2Y-5.925
X5.2Y-6.2
X5.225Y-2.975
X5.225Y-3.475
X5.225Y-3.625
X5.25Y-1.075
X5.25Y-3.0
X5.25Y-3.45
X5.35Y-3.1
X5.35Y-3.35
X5.375Y-2.275
X5.375Y-3.125
X5.375Y-3.325
X5.375Y-6.275
X5.4Y-3.15
X5.4Y-3.3
X5.4Y-3.55
X5.425Y-1.1
X5.45Y-0.975
X5.45Y-3.15
X5.475Y-3.175
X5.475Y-6.25
X5.5Y-3.2
X5.5Y-6.425
X5.525Y-2.175
X5.55Y-3.4
X5.55Y-4.875
X5.575Y-1.575
X5.575Y-4.6
X5.575Y-6.325
X5.6Y-2.375
X5.65Y-6.325
X5.7Y-3.25
X5.75Y-3.825
X5.775Y-2.6
X5.8Y-6.475
X5.825Y-4.25
X5.85Y-3.05
X5.85Y-7.65
X5.9Y-6.35
X6.025Y-3.1
X6.05Y-6.525
X6.125Y-7.625
X6.175Y-6.375
X6.175Y-6.7
T2
X6.07Y-6.818
X6.07Y-7.408
X3.8Y-7.475
X3.8Y-7.575
X3.8Y-7.675
T0
M30
