%FSLAX45Y45*%
G04 Gerber Fmt 4.5, Leading zero omitted, Abs format (unit mm)*
G04 Created by KiCad (PCBNEW (5.1.5)-3) date 2020-02-09 18:17:16*
%MOMM*%
%LPD*%
G04 APERTURE LIST*
%ADD10C,0.200000*%
%ADD11C,0.300000*%
G04 APERTURE END LIST*
D10*
X9063990Y-16366490D02*
X9097010Y-16399510D01*
X9097010Y-16366490D02*
X9063990Y-16399510D01*
X9063990Y-18525490D02*
X9097010Y-18558510D01*
X9097010Y-18525490D02*
X9063990Y-18558510D01*
X9127490Y-12746990D02*
X9160510Y-12780010D01*
X9160510Y-12746990D02*
X9127490Y-12780010D01*
X9190990Y-11349990D02*
X9224010Y-11383010D01*
X9224010Y-11349990D02*
X9190990Y-11383010D01*
X9254490Y-14016990D02*
X9287510Y-14050010D01*
X9287510Y-14016990D02*
X9254490Y-14050010D01*
X9254490Y-18017490D02*
X9287510Y-18050510D01*
X9287510Y-18017490D02*
X9254490Y-18050510D01*
X9317990Y-16620490D02*
X9351010Y-16653510D01*
X9351010Y-16620490D02*
X9317990Y-16653510D01*
X9444990Y-13000990D02*
X9478010Y-13034010D01*
X9478010Y-13000990D02*
X9444990Y-13034010D01*
X9508490Y-13635990D02*
X9541510Y-13669010D01*
X9541510Y-13635990D02*
X9508490Y-13669010D01*
X9635490Y-8682990D02*
X9668510Y-8716010D01*
X9668510Y-8682990D02*
X9635490Y-8716010D01*
X9635490Y-15604490D02*
X9668510Y-15637510D01*
X9668510Y-15604490D02*
X9635490Y-15637510D01*
X9698990Y-12937490D02*
X9732010Y-12970510D01*
X9732010Y-12937490D02*
X9698990Y-12970510D01*
X9698990Y-18715990D02*
X9732010Y-18749010D01*
X9732010Y-18715990D02*
X9698990Y-18749010D01*
X9762490Y-16747490D02*
X9795510Y-16780510D01*
X9795510Y-16747490D02*
X9762490Y-16780510D01*
X9825990Y-9127490D02*
X9859010Y-9160510D01*
X9859010Y-9127490D02*
X9825990Y-9160510D01*
X9889490Y-15350490D02*
X9922510Y-15383510D01*
X9922510Y-15350490D02*
X9889490Y-15383510D01*
X10016490Y-16747490D02*
X10049510Y-16780510D01*
X10049510Y-16747490D02*
X10016490Y-16780510D01*
X10079990Y-19414490D02*
X10113010Y-19447510D01*
X10113010Y-19414490D02*
X10079990Y-19447510D01*
X10206990Y-11286490D02*
X10240010Y-11319510D01*
X10240010Y-11286490D02*
X10206990Y-11319510D01*
X10257790Y-9635490D02*
X10290810Y-9668510D01*
X10290810Y-9635490D02*
X10257790Y-9668510D01*
X10333990Y-9254490D02*
X10367010Y-9287510D01*
X10367010Y-9254490D02*
X10333990Y-9287510D01*
X10397490Y-8047990D02*
X10430510Y-8081010D01*
X10430510Y-8047990D02*
X10397490Y-8081010D01*
X10397490Y-13127990D02*
X10430510Y-13161010D01*
X10430510Y-13127990D02*
X10397490Y-13161010D01*
X10397490Y-15032990D02*
X10430510Y-15066010D01*
X10430510Y-15032990D02*
X10397490Y-15066010D01*
X10460990Y-13318490D02*
X10494010Y-13351510D01*
X10494010Y-13318490D02*
X10460990Y-13351510D01*
X10651490Y-7603490D02*
X10684510Y-7636510D01*
X10684510Y-7603490D02*
X10651490Y-7636510D01*
X10651490Y-15032990D02*
X10684510Y-15066010D01*
X10684510Y-15032990D02*
X10651490Y-15066010D01*
X10714990Y-9254490D02*
X10748010Y-9287510D01*
X10748010Y-9254490D02*
X10714990Y-9287510D01*
X10778490Y-6841490D02*
X10811510Y-6874510D01*
X10811510Y-6841490D02*
X10778490Y-6874510D01*
X10778490Y-16493490D02*
X10811510Y-16526510D01*
X10811510Y-16493490D02*
X10778490Y-16526510D01*
X10968990Y-5253990D02*
X11002010Y-5287010D01*
X11002010Y-5253990D02*
X10968990Y-5287010D01*
X11095990Y-5952490D02*
X11129010Y-5985510D01*
X11129010Y-5952490D02*
X11095990Y-5985510D01*
X11095990Y-8555990D02*
X11129010Y-8589010D01*
X11129010Y-8555990D02*
X11095990Y-8589010D01*
X11095990Y-11095990D02*
X11129010Y-11129010D01*
X11129010Y-11095990D02*
X11095990Y-11129010D01*
X11159490Y-6841490D02*
X11192510Y-6874510D01*
X11192510Y-6841490D02*
X11159490Y-6874510D01*
X11159490Y-7730490D02*
X11192510Y-7763510D01*
X11192510Y-7730490D02*
X11159490Y-7763510D01*
X11222990Y-9698990D02*
X11256010Y-9732010D01*
X11256010Y-9698990D02*
X11222990Y-9732010D01*
X11222990Y-14397990D02*
X11256010Y-14431010D01*
X11256010Y-14397990D02*
X11222990Y-14431010D01*
X11286490Y-4936490D02*
X11319510Y-4969510D01*
X11319510Y-4936490D02*
X11286490Y-4969510D01*
X11286490Y-15985490D02*
X11319510Y-16018510D01*
X11319510Y-15985490D02*
X11286490Y-16018510D01*
X11337290Y-13191490D02*
X11370310Y-13224510D01*
X11370310Y-13191490D02*
X11337290Y-13224510D01*
X11413490Y-13445490D02*
X11446510Y-13478510D01*
X11446510Y-13445490D02*
X11413490Y-13478510D01*
X11413490Y-14397990D02*
X11446510Y-14431010D01*
X11446510Y-14397990D02*
X11413490Y-14431010D01*
X11540490Y-5825490D02*
X11573510Y-5858510D01*
X11573510Y-5825490D02*
X11540490Y-5858510D01*
X11540490Y-15286990D02*
X11573510Y-15320010D01*
X11573510Y-15286990D02*
X11540490Y-15320010D01*
X11603990Y-4682490D02*
X11637010Y-4715510D01*
X11637010Y-4682490D02*
X11603990Y-4715510D01*
X11603990Y-13127990D02*
X11637010Y-13161010D01*
X11637010Y-13127990D02*
X11603990Y-13161010D01*
X11603990Y-15604490D02*
X11637010Y-15637510D01*
X11637010Y-15604490D02*
X11603990Y-15637510D01*
X11603990Y-16112490D02*
X11637010Y-16145510D01*
X11637010Y-16112490D02*
X11603990Y-16145510D01*
X11667490Y-10016490D02*
X11700510Y-10049510D01*
X11700510Y-10016490D02*
X11667490Y-10049510D01*
X11667490Y-15731490D02*
X11700510Y-15764510D01*
X11700510Y-15731490D02*
X11667490Y-15764510D01*
X11730990Y-12683490D02*
X11764010Y-12716510D01*
X11764010Y-12683490D02*
X11730990Y-12716510D01*
X11730990Y-15858490D02*
X11764010Y-15891510D01*
X11764010Y-15858490D02*
X11730990Y-15891510D01*
X11794490Y-4491990D02*
X11827510Y-4525010D01*
X11827510Y-4491990D02*
X11794490Y-4525010D01*
X11794490Y-14461490D02*
X11827510Y-14494510D01*
X11827510Y-14461490D02*
X11794490Y-14494510D01*
X11794490Y-16239490D02*
X11827510Y-16272510D01*
X11827510Y-16239490D02*
X11794490Y-16272510D01*
X11857990Y-3666490D02*
X11891010Y-3699510D01*
X11891010Y-3666490D02*
X11857990Y-3699510D01*
X11857990Y-11794490D02*
X11891010Y-11827510D01*
X11891010Y-11794490D02*
X11857990Y-11827510D01*
X11857990Y-14842490D02*
X11891010Y-14875510D01*
X11891010Y-14842490D02*
X11857990Y-14875510D01*
X11921490Y-5063490D02*
X11954510Y-5096510D01*
X11954510Y-5063490D02*
X11921490Y-5096510D01*
X11921490Y-10778490D02*
X11954510Y-10811510D01*
X11954510Y-10778490D02*
X11921490Y-10811510D01*
X11921490Y-13127990D02*
X11954510Y-13161010D01*
X11954510Y-13127990D02*
X11921490Y-13161010D01*
X11921490Y-16366490D02*
X11954510Y-16399510D01*
X11954510Y-16366490D02*
X11921490Y-16399510D01*
X11921490Y-16556990D02*
X11954510Y-16590010D01*
X11954510Y-16556990D02*
X11921490Y-16590010D01*
X11984990Y-7920990D02*
X12018010Y-7954010D01*
X12018010Y-7920990D02*
X11984990Y-7954010D01*
X11984990Y-8174990D02*
X12018010Y-8208010D01*
X12018010Y-8174990D02*
X11984990Y-8208010D01*
X11984990Y-8301990D02*
X12018010Y-8335010D01*
X12018010Y-8301990D02*
X11984990Y-8335010D01*
X11984990Y-8428990D02*
X12018010Y-8462010D01*
X12018010Y-8428990D02*
X11984990Y-8462010D01*
X11984990Y-12683490D02*
X12018010Y-12716510D01*
X12018010Y-12683490D02*
X11984990Y-12716510D01*
X11984990Y-15159990D02*
X12018010Y-15193010D01*
X12018010Y-15159990D02*
X11984990Y-15193010D01*
X12048490Y-2904490D02*
X12081510Y-2937510D01*
X12081510Y-2904490D02*
X12048490Y-2937510D01*
X12048490Y-7857490D02*
X12081510Y-7890510D01*
X12081510Y-7857490D02*
X12048490Y-7890510D01*
X12048490Y-8111490D02*
X12081510Y-8144510D01*
X12081510Y-8111490D02*
X12048490Y-8144510D01*
X12048490Y-15794990D02*
X12081510Y-15828010D01*
X12081510Y-15794990D02*
X12048490Y-15828010D01*
X12111990Y-7031990D02*
X12145010Y-7065010D01*
X12145010Y-7031990D02*
X12111990Y-7065010D01*
X12175490Y-15794990D02*
X12208510Y-15828010D01*
X12208510Y-15794990D02*
X12175490Y-15828010D01*
X12238990Y-2650490D02*
X12272010Y-2683510D01*
X12272010Y-2650490D02*
X12238990Y-2683510D01*
X12238990Y-8428990D02*
X12272010Y-8462010D01*
X12272010Y-8428990D02*
X12238990Y-8462010D01*
X12302490Y-7984490D02*
X12335510Y-8017510D01*
X12335510Y-7984490D02*
X12302490Y-8017510D01*
X12302490Y-8492490D02*
X12335510Y-8525510D01*
X12335510Y-8492490D02*
X12302490Y-8525510D01*
X12302490Y-15858490D02*
X12335510Y-15891510D01*
X12335510Y-15858490D02*
X12302490Y-15891510D01*
X12365990Y-4682490D02*
X12399010Y-4715510D01*
X12399010Y-4682490D02*
X12365990Y-4715510D01*
X12365990Y-5888990D02*
X12399010Y-5922010D01*
X12399010Y-5888990D02*
X12365990Y-5922010D01*
X12365990Y-7920990D02*
X12399010Y-7954010D01*
X12399010Y-7920990D02*
X12365990Y-7954010D01*
X12365990Y-12810490D02*
X12399010Y-12843510D01*
X12399010Y-12810490D02*
X12365990Y-12843510D01*
X12365990Y-14080490D02*
X12399010Y-14113510D01*
X12399010Y-14080490D02*
X12365990Y-14113510D01*
X12429490Y-7857490D02*
X12462510Y-7890510D01*
X12462510Y-7857490D02*
X12429490Y-7890510D01*
X12429490Y-15858490D02*
X12462510Y-15891510D01*
X12462510Y-15858490D02*
X12429490Y-15891510D01*
X12492990Y-8809990D02*
X12526010Y-8843010D01*
X12526010Y-8809990D02*
X12492990Y-8843010D01*
X12492990Y-8936990D02*
X12526010Y-8970010D01*
X12526010Y-8936990D02*
X12492990Y-8970010D01*
X12492990Y-16556990D02*
X12526010Y-16590010D01*
X12526010Y-16556990D02*
X12492990Y-16590010D01*
X12619990Y-15413990D02*
X12653010Y-15447010D01*
X12653010Y-15413990D02*
X12619990Y-15447010D01*
X12619990Y-16429990D02*
X12653010Y-16463010D01*
X12653010Y-16429990D02*
X12619990Y-16463010D01*
X12619990Y-16683990D02*
X12653010Y-16717010D01*
X12653010Y-16683990D02*
X12619990Y-16717010D01*
X12683490Y-7603490D02*
X12716510Y-7636510D01*
X12716510Y-7603490D02*
X12683490Y-7636510D01*
X12683490Y-13318490D02*
X12716510Y-13351510D01*
X12716510Y-13318490D02*
X12683490Y-13351510D01*
X12683490Y-15794990D02*
X12716510Y-15828010D01*
X12716510Y-15794990D02*
X12683490Y-15828010D01*
X12746990Y-7285990D02*
X12780010Y-7319010D01*
X12780010Y-7285990D02*
X12746990Y-7319010D01*
X12746990Y-7539990D02*
X12780010Y-7573010D01*
X12780010Y-7539990D02*
X12746990Y-7573010D01*
X12746990Y-14842490D02*
X12780010Y-14875510D01*
X12780010Y-14842490D02*
X12746990Y-14875510D01*
X12746990Y-15223490D02*
X12780010Y-15256510D01*
X12780010Y-15223490D02*
X12746990Y-15256510D01*
X12746990Y-15413990D02*
X12780010Y-15447010D01*
X12780010Y-15413990D02*
X12746990Y-15447010D01*
X12746990Y-16556990D02*
X12780010Y-16590010D01*
X12780010Y-16556990D02*
X12746990Y-16590010D01*
X12810490Y-7476490D02*
X12843510Y-7509510D01*
X12843510Y-7476490D02*
X12810490Y-7509510D01*
X12873990Y-2523490D02*
X12907010Y-2556510D01*
X12907010Y-2523490D02*
X12873990Y-2556510D01*
X12873990Y-6904990D02*
X12907010Y-6938010D01*
X12907010Y-6904990D02*
X12873990Y-6938010D01*
X12873990Y-14778990D02*
X12907010Y-14812010D01*
X12907010Y-14778990D02*
X12873990Y-14812010D01*
X12873990Y-15794990D02*
X12907010Y-15828010D01*
X12907010Y-15794990D02*
X12873990Y-15828010D01*
X12937490Y-8111490D02*
X12970510Y-8144510D01*
X12970510Y-8111490D02*
X12937490Y-8144510D01*
X12937490Y-8238490D02*
X12970510Y-8271510D01*
X12970510Y-8238490D02*
X12937490Y-8271510D01*
X13000990Y-7412990D02*
X13034010Y-7446010D01*
X13034010Y-7412990D02*
X13000990Y-7446010D01*
X13000990Y-7539990D02*
X13034010Y-7573010D01*
X13034010Y-7539990D02*
X13000990Y-7573010D01*
X13000990Y-14461490D02*
X13034010Y-14494510D01*
X13034010Y-14461490D02*
X13000990Y-14494510D01*
X13000990Y-16069924D02*
X13034010Y-16102944D01*
X13034010Y-16069924D02*
X13000990Y-16102944D01*
X13064490Y-2904490D02*
X13097510Y-2937510D01*
X13097510Y-2904490D02*
X13064490Y-2937510D01*
X13064490Y-8111490D02*
X13097510Y-8144510D01*
X13097510Y-8111490D02*
X13064490Y-8144510D01*
X13064490Y-8238490D02*
X13097510Y-8271510D01*
X13097510Y-8238490D02*
X13064490Y-8271510D01*
X13064490Y-14905990D02*
X13097510Y-14939010D01*
X13097510Y-14905990D02*
X13064490Y-14939010D01*
X13127990Y-7412990D02*
X13161010Y-7446010D01*
X13161010Y-7412990D02*
X13127990Y-7446010D01*
X13191490Y-2396490D02*
X13224510Y-2429510D01*
X13224510Y-2396490D02*
X13191490Y-2429510D01*
X13191490Y-7476490D02*
X13224510Y-7509510D01*
X13224510Y-7476490D02*
X13191490Y-7509510D01*
X13191490Y-12365990D02*
X13224510Y-12399010D01*
X13224510Y-12365990D02*
X13191490Y-12399010D01*
X13191490Y-15032990D02*
X13224510Y-15066010D01*
X13224510Y-15032990D02*
X13191490Y-15066010D01*
X13191490Y-15731490D02*
X13224510Y-15764510D01*
X13224510Y-15731490D02*
X13191490Y-15764510D01*
X13254990Y-7539990D02*
X13288010Y-7573010D01*
X13288010Y-7539990D02*
X13254990Y-7573010D01*
X13254990Y-8809990D02*
X13288010Y-8843010D01*
X13288010Y-8809990D02*
X13254990Y-8843010D01*
X13254990Y-9190990D02*
X13288010Y-9224010D01*
X13288010Y-9190990D02*
X13254990Y-9224010D01*
X13318490Y-2713990D02*
X13351510Y-2747010D01*
X13351510Y-2713990D02*
X13318490Y-2747010D01*
X13318490Y-7603490D02*
X13351510Y-7636510D01*
X13351510Y-7603490D02*
X13318490Y-7636510D01*
X13318490Y-8746490D02*
X13351510Y-8779510D01*
X13351510Y-8746490D02*
X13318490Y-8779510D01*
X13572490Y-7857490D02*
X13605510Y-7890510D01*
X13605510Y-7857490D02*
X13572490Y-7890510D01*
X13572490Y-8492490D02*
X13605510Y-8525510D01*
X13605510Y-8492490D02*
X13572490Y-8525510D01*
X13635990Y-5761990D02*
X13669010Y-5795010D01*
X13669010Y-5761990D02*
X13635990Y-5795010D01*
X13635990Y-7920990D02*
X13669010Y-7954010D01*
X13669010Y-7920990D02*
X13635990Y-7954010D01*
X13635990Y-8428990D02*
X13669010Y-8462010D01*
X13669010Y-8428990D02*
X13635990Y-8462010D01*
X13635990Y-15921990D02*
X13669010Y-15955010D01*
X13669010Y-15921990D02*
X13635990Y-15955010D01*
X13699490Y-7984490D02*
X13732510Y-8017510D01*
X13732510Y-7984490D02*
X13699490Y-8017510D01*
X13699490Y-8365490D02*
X13732510Y-8398510D01*
X13732510Y-8365490D02*
X13699490Y-8398510D01*
X13699490Y-9000490D02*
X13732510Y-9033510D01*
X13732510Y-9000490D02*
X13699490Y-9033510D01*
X13762990Y-2777490D02*
X13796010Y-2810510D01*
X13796010Y-2777490D02*
X13762990Y-2810510D01*
X13826490Y-2459990D02*
X13859510Y-2493010D01*
X13859510Y-2459990D02*
X13826490Y-2493010D01*
X13826490Y-7984490D02*
X13859510Y-8017510D01*
X13859510Y-7984490D02*
X13826490Y-8017510D01*
X13889990Y-8047990D02*
X13923010Y-8081010D01*
X13923010Y-8047990D02*
X13889990Y-8081010D01*
X13889990Y-15858490D02*
X13923010Y-15891510D01*
X13923010Y-15858490D02*
X13889990Y-15891510D01*
X13953490Y-8111490D02*
X13986510Y-8144510D01*
X13986510Y-8111490D02*
X13953490Y-8144510D01*
X13953490Y-16302990D02*
X13986510Y-16336010D01*
X13986510Y-16302990D02*
X13953490Y-16336010D01*
X14016990Y-5507990D02*
X14050010Y-5541010D01*
X14050010Y-5507990D02*
X14016990Y-5541010D01*
X14080490Y-8619490D02*
X14113510Y-8652510D01*
X14113510Y-8619490D02*
X14080490Y-8652510D01*
X14080490Y-12365990D02*
X14113510Y-12399010D01*
X14113510Y-12365990D02*
X14080490Y-12399010D01*
X14143990Y-3983990D02*
X14177010Y-4017010D01*
X14177010Y-3983990D02*
X14143990Y-4017010D01*
X14143990Y-11667490D02*
X14177010Y-11700510D01*
X14177010Y-11667490D02*
X14143990Y-11700510D01*
X14143990Y-16048990D02*
X14177010Y-16082010D01*
X14177010Y-16048990D02*
X14143990Y-16082010D01*
X14207490Y-6015990D02*
X14240510Y-6049010D01*
X14240510Y-6015990D02*
X14207490Y-6049010D01*
X14334490Y-16048990D02*
X14367510Y-16082010D01*
X14367510Y-16048990D02*
X14334490Y-16082010D01*
X14461490Y-8238490D02*
X14494510Y-8271510D01*
X14494510Y-8238490D02*
X14461490Y-8271510D01*
X14588490Y-9698990D02*
X14621510Y-9732010D01*
X14621510Y-9698990D02*
X14588490Y-9732010D01*
X14651990Y-6587490D02*
X14685010Y-6620510D01*
X14685010Y-6587490D02*
X14651990Y-6620510D01*
X14715490Y-16429990D02*
X14748510Y-16463010D01*
X14748510Y-16429990D02*
X14715490Y-16463010D01*
X14778990Y-10778490D02*
X14812010Y-10811510D01*
X14812010Y-10778490D02*
X14778990Y-10811510D01*
X14842490Y-7730490D02*
X14875510Y-7763510D01*
X14875510Y-7730490D02*
X14842490Y-7763510D01*
X14842490Y-19414490D02*
X14875510Y-19447510D01*
X14875510Y-19414490D02*
X14842490Y-19447510D01*
X14969490Y-16112490D02*
X15002510Y-16145510D01*
X15002510Y-16112490D02*
X14969490Y-16145510D01*
X15286990Y-7857490D02*
X15320010Y-7890510D01*
X15320010Y-7857490D02*
X15286990Y-7890510D01*
X15350490Y-16556990D02*
X15383510Y-16590010D01*
X15383510Y-16556990D02*
X15350490Y-16590010D01*
X15540990Y-19350990D02*
X15574010Y-19384010D01*
X15574010Y-19350990D02*
X15540990Y-19384010D01*
X15667990Y-16175990D02*
X15701010Y-16209010D01*
X15701010Y-16175990D02*
X15667990Y-16209010D01*
X15667990Y-17001490D02*
X15701010Y-17034510D01*
X15701010Y-17001490D02*
X15667990Y-17034510D01*
X15468600Y-17317720D02*
G75*
G03X15468600Y-17317720I-50800J0D01*
G01*
X15468600Y-18816320D02*
G75*
G03X15468600Y-18816320I-50800J0D01*
G01*
X9702800Y-18986500D02*
G75*
G03X9702800Y-18986500I-50800J0D01*
G01*
X9702800Y-19240500D02*
G75*
G03X9702800Y-19240500I-50800J0D01*
G01*
X9702800Y-19494500D02*
G75*
G03X9702800Y-19494500I-50800J0D01*
G01*
D11*
X8463594Y-20134063D02*
X8463594Y-19834063D01*
X8535023Y-19834063D01*
X8577880Y-19848348D01*
X8606452Y-19876920D01*
X8620737Y-19905491D01*
X8635023Y-19962634D01*
X8635023Y-20005491D01*
X8620737Y-20062634D01*
X8606452Y-20091205D01*
X8577880Y-20119777D01*
X8535023Y-20134063D01*
X8463594Y-20134063D01*
X8763594Y-20134063D02*
X8763594Y-19934063D01*
X8763594Y-19991205D02*
X8777880Y-19962634D01*
X8792166Y-19948348D01*
X8820737Y-19934063D01*
X8849309Y-19934063D01*
X8949309Y-20134063D02*
X8949309Y-19934063D01*
X8949309Y-19834063D02*
X8935023Y-19848348D01*
X8949309Y-19862634D01*
X8963594Y-19848348D01*
X8949309Y-19834063D01*
X8949309Y-19862634D01*
X9135023Y-20134063D02*
X9106452Y-20119777D01*
X9092166Y-20091205D01*
X9092166Y-19834063D01*
X9292166Y-20134063D02*
X9263594Y-20119777D01*
X9249309Y-20091205D01*
X9249309Y-19834063D01*
X9635023Y-20134063D02*
X9635023Y-19834063D01*
X9735023Y-20048348D01*
X9835023Y-19834063D01*
X9835023Y-20134063D01*
X10106452Y-20134063D02*
X10106452Y-19976920D01*
X10092166Y-19948348D01*
X10063594Y-19934063D01*
X10006452Y-19934063D01*
X9977880Y-19948348D01*
X10106452Y-20119777D02*
X10077880Y-20134063D01*
X10006452Y-20134063D01*
X9977880Y-20119777D01*
X9963594Y-20091205D01*
X9963594Y-20062634D01*
X9977880Y-20034063D01*
X10006452Y-20019777D01*
X10077880Y-20019777D01*
X10106452Y-20005491D01*
X10249309Y-19934063D02*
X10249309Y-20234063D01*
X10249309Y-19948348D02*
X10277880Y-19934063D01*
X10335023Y-19934063D01*
X10363594Y-19948348D01*
X10377880Y-19962634D01*
X10392166Y-19991205D01*
X10392166Y-20076920D01*
X10377880Y-20105491D01*
X10363594Y-20119777D01*
X10335023Y-20134063D01*
X10277880Y-20134063D01*
X10249309Y-20119777D01*
X10520737Y-20105491D02*
X10535023Y-20119777D01*
X10520737Y-20134063D01*
X10506452Y-20119777D01*
X10520737Y-20105491D01*
X10520737Y-20134063D01*
X10520737Y-19948348D02*
X10535023Y-19962634D01*
X10520737Y-19976920D01*
X10506452Y-19962634D01*
X10520737Y-19948348D01*
X10520737Y-19976920D01*
X8144146Y-20611838D02*
X8177166Y-20644858D01*
X8177166Y-20611838D02*
X8144146Y-20644858D01*
X8520737Y-20464063D02*
X8549309Y-20464063D01*
X8577880Y-20478348D01*
X8592166Y-20492634D01*
X8606452Y-20521205D01*
X8620737Y-20578348D01*
X8620737Y-20649777D01*
X8606452Y-20706920D01*
X8592166Y-20735491D01*
X8577880Y-20749777D01*
X8549309Y-20764063D01*
X8520737Y-20764063D01*
X8492166Y-20749777D01*
X8477880Y-20735491D01*
X8463594Y-20706920D01*
X8449309Y-20649777D01*
X8449309Y-20578348D01*
X8463594Y-20521205D01*
X8477880Y-20492634D01*
X8492166Y-20478348D01*
X8520737Y-20464063D01*
X8749309Y-20735491D02*
X8763594Y-20749777D01*
X8749309Y-20764063D01*
X8735023Y-20749777D01*
X8749309Y-20735491D01*
X8749309Y-20764063D01*
X8863594Y-20464063D02*
X9049309Y-20464063D01*
X8949309Y-20578348D01*
X8992166Y-20578348D01*
X9020737Y-20592634D01*
X9035023Y-20606920D01*
X9049309Y-20635491D01*
X9049309Y-20706920D01*
X9035023Y-20735491D01*
X9020737Y-20749777D01*
X8992166Y-20764063D01*
X8906452Y-20764063D01*
X8877880Y-20749777D01*
X8863594Y-20735491D01*
X9149309Y-20464063D02*
X9335023Y-20464063D01*
X9235023Y-20578348D01*
X9277880Y-20578348D01*
X9306452Y-20592634D01*
X9320737Y-20606920D01*
X9335023Y-20635491D01*
X9335023Y-20706920D01*
X9320737Y-20735491D01*
X9306452Y-20749777D01*
X9277880Y-20764063D01*
X9192166Y-20764063D01*
X9163594Y-20749777D01*
X9149309Y-20735491D01*
X9463594Y-20764063D02*
X9463594Y-20564063D01*
X9463594Y-20592634D02*
X9477880Y-20578348D01*
X9506452Y-20564063D01*
X9549309Y-20564063D01*
X9577880Y-20578348D01*
X9592166Y-20606920D01*
X9592166Y-20764063D01*
X9592166Y-20606920D02*
X9606452Y-20578348D01*
X9635023Y-20564063D01*
X9677880Y-20564063D01*
X9706452Y-20578348D01*
X9720737Y-20606920D01*
X9720737Y-20764063D01*
X9863594Y-20764063D02*
X9863594Y-20564063D01*
X9863594Y-20592634D02*
X9877880Y-20578348D01*
X9906452Y-20564063D01*
X9949309Y-20564063D01*
X9977880Y-20578348D01*
X9992166Y-20606920D01*
X9992166Y-20764063D01*
X9992166Y-20606920D02*
X10006452Y-20578348D01*
X10035023Y-20564063D01*
X10077880Y-20564063D01*
X10106452Y-20578348D01*
X10120737Y-20606920D01*
X10120737Y-20764063D01*
X10706452Y-20449777D02*
X10449309Y-20835491D01*
X11092166Y-20464063D02*
X11120737Y-20464063D01*
X11149309Y-20478348D01*
X11163594Y-20492634D01*
X11177880Y-20521205D01*
X11192166Y-20578348D01*
X11192166Y-20649777D01*
X11177880Y-20706920D01*
X11163594Y-20735491D01*
X11149309Y-20749777D01*
X11120737Y-20764063D01*
X11092166Y-20764063D01*
X11063594Y-20749777D01*
X11049309Y-20735491D01*
X11035023Y-20706920D01*
X11020737Y-20649777D01*
X11020737Y-20578348D01*
X11035023Y-20521205D01*
X11049309Y-20492634D01*
X11063594Y-20478348D01*
X11092166Y-20464063D01*
X11320737Y-20735491D02*
X11335023Y-20749777D01*
X11320737Y-20764063D01*
X11306451Y-20749777D01*
X11320737Y-20735491D01*
X11320737Y-20764063D01*
X11520737Y-20464063D02*
X11549309Y-20464063D01*
X11577880Y-20478348D01*
X11592166Y-20492634D01*
X11606451Y-20521205D01*
X11620737Y-20578348D01*
X11620737Y-20649777D01*
X11606451Y-20706920D01*
X11592166Y-20735491D01*
X11577880Y-20749777D01*
X11549309Y-20764063D01*
X11520737Y-20764063D01*
X11492166Y-20749777D01*
X11477880Y-20735491D01*
X11463594Y-20706920D01*
X11449309Y-20649777D01*
X11449309Y-20578348D01*
X11463594Y-20521205D01*
X11477880Y-20492634D01*
X11492166Y-20478348D01*
X11520737Y-20464063D01*
X11906451Y-20764063D02*
X11735023Y-20764063D01*
X11820737Y-20764063D02*
X11820737Y-20464063D01*
X11792166Y-20506920D01*
X11763594Y-20535491D01*
X11735023Y-20549777D01*
X12006451Y-20464063D02*
X12192166Y-20464063D01*
X12092166Y-20578348D01*
X12135023Y-20578348D01*
X12163594Y-20592634D01*
X12177880Y-20606920D01*
X12192166Y-20635491D01*
X12192166Y-20706920D01*
X12177880Y-20735491D01*
X12163594Y-20749777D01*
X12135023Y-20764063D01*
X12049309Y-20764063D01*
X12020737Y-20749777D01*
X12006451Y-20735491D01*
X12306451Y-20464063D02*
X12306451Y-20521205D01*
X12420737Y-20464063D02*
X12420737Y-20521205D01*
X12863594Y-20878348D02*
X12849309Y-20864063D01*
X12820737Y-20821205D01*
X12806451Y-20792634D01*
X12792166Y-20749777D01*
X12777880Y-20678348D01*
X12777880Y-20621205D01*
X12792166Y-20549777D01*
X12806451Y-20506920D01*
X12820737Y-20478348D01*
X12849309Y-20435491D01*
X12863594Y-20421205D01*
X13135023Y-20764063D02*
X12963594Y-20764063D01*
X13049309Y-20764063D02*
X13049309Y-20464063D01*
X13020737Y-20506920D01*
X12992166Y-20535491D01*
X12963594Y-20549777D01*
X13392166Y-20464063D02*
X13335023Y-20464063D01*
X13306451Y-20478348D01*
X13292166Y-20492634D01*
X13263594Y-20535491D01*
X13249309Y-20592634D01*
X13249309Y-20706920D01*
X13263594Y-20735491D01*
X13277880Y-20749777D01*
X13306451Y-20764063D01*
X13363594Y-20764063D01*
X13392166Y-20749777D01*
X13406451Y-20735491D01*
X13420737Y-20706920D01*
X13420737Y-20635491D01*
X13406451Y-20606920D01*
X13392166Y-20592634D01*
X13363594Y-20578348D01*
X13306451Y-20578348D01*
X13277880Y-20592634D01*
X13263594Y-20606920D01*
X13249309Y-20635491D01*
X13520737Y-20464063D02*
X13720737Y-20464063D01*
X13592166Y-20764063D01*
X14063594Y-20764063D02*
X14063594Y-20464063D01*
X14192166Y-20764063D02*
X14192166Y-20606920D01*
X14177880Y-20578348D01*
X14149309Y-20564063D01*
X14106451Y-20564063D01*
X14077880Y-20578348D01*
X14063594Y-20592634D01*
X14377880Y-20764063D02*
X14349309Y-20749777D01*
X14335023Y-20735491D01*
X14320737Y-20706920D01*
X14320737Y-20621205D01*
X14335023Y-20592634D01*
X14349309Y-20578348D01*
X14377880Y-20564063D01*
X14420737Y-20564063D01*
X14449309Y-20578348D01*
X14463594Y-20592634D01*
X14477880Y-20621205D01*
X14477880Y-20706920D01*
X14463594Y-20735491D01*
X14449309Y-20749777D01*
X14420737Y-20764063D01*
X14377880Y-20764063D01*
X14649309Y-20764063D02*
X14620737Y-20749777D01*
X14606451Y-20721205D01*
X14606451Y-20464063D01*
X14877880Y-20749777D02*
X14849309Y-20764063D01*
X14792166Y-20764063D01*
X14763594Y-20749777D01*
X14749309Y-20721205D01*
X14749309Y-20606920D01*
X14763594Y-20578348D01*
X14792166Y-20564063D01*
X14849309Y-20564063D01*
X14877880Y-20578348D01*
X14892166Y-20606920D01*
X14892166Y-20635491D01*
X14749309Y-20664063D01*
X15006451Y-20749777D02*
X15035023Y-20764063D01*
X15092166Y-20764063D01*
X15120737Y-20749777D01*
X15135023Y-20721205D01*
X15135023Y-20706920D01*
X15120737Y-20678348D01*
X15092166Y-20664063D01*
X15049309Y-20664063D01*
X15020737Y-20649777D01*
X15006451Y-20621205D01*
X15006451Y-20606920D01*
X15020737Y-20578348D01*
X15049309Y-20564063D01*
X15092166Y-20564063D01*
X15120737Y-20578348D01*
X15235023Y-20878348D02*
X15249309Y-20864063D01*
X15277880Y-20821205D01*
X15292166Y-20792634D01*
X15306451Y-20749777D01*
X15320737Y-20678348D01*
X15320737Y-20621205D01*
X15306451Y-20549777D01*
X15292166Y-20506920D01*
X15277880Y-20478348D01*
X15249309Y-20435491D01*
X15235023Y-20421205D01*
X8177166Y-21024348D02*
G75*
G03X8177166Y-21024348I-50800J0D01*
G01*
X8620737Y-21160063D02*
X8449309Y-21160063D01*
X8535023Y-21160063D02*
X8535023Y-20860063D01*
X8506452Y-20902920D01*
X8477880Y-20931491D01*
X8449309Y-20945777D01*
X8749309Y-21131491D02*
X8763594Y-21145777D01*
X8749309Y-21160063D01*
X8735023Y-21145777D01*
X8749309Y-21131491D01*
X8749309Y-21160063D01*
X8949309Y-20860063D02*
X8977880Y-20860063D01*
X9006452Y-20874348D01*
X9020737Y-20888634D01*
X9035023Y-20917205D01*
X9049309Y-20974348D01*
X9049309Y-21045777D01*
X9035023Y-21102920D01*
X9020737Y-21131491D01*
X9006452Y-21145777D01*
X8977880Y-21160063D01*
X8949309Y-21160063D01*
X8920737Y-21145777D01*
X8906452Y-21131491D01*
X8892166Y-21102920D01*
X8877880Y-21045777D01*
X8877880Y-20974348D01*
X8892166Y-20917205D01*
X8906452Y-20888634D01*
X8920737Y-20874348D01*
X8949309Y-20860063D01*
X9163594Y-20888634D02*
X9177880Y-20874348D01*
X9206452Y-20860063D01*
X9277880Y-20860063D01*
X9306452Y-20874348D01*
X9320737Y-20888634D01*
X9335023Y-20917205D01*
X9335023Y-20945777D01*
X9320737Y-20988634D01*
X9149309Y-21160063D01*
X9335023Y-21160063D01*
X9463594Y-21160063D02*
X9463594Y-20960063D01*
X9463594Y-20988634D02*
X9477880Y-20974348D01*
X9506452Y-20960063D01*
X9549309Y-20960063D01*
X9577880Y-20974348D01*
X9592166Y-21002920D01*
X9592166Y-21160063D01*
X9592166Y-21002920D02*
X9606452Y-20974348D01*
X9635023Y-20960063D01*
X9677880Y-20960063D01*
X9706452Y-20974348D01*
X9720737Y-21002920D01*
X9720737Y-21160063D01*
X9863594Y-21160063D02*
X9863594Y-20960063D01*
X9863594Y-20988634D02*
X9877880Y-20974348D01*
X9906452Y-20960063D01*
X9949309Y-20960063D01*
X9977880Y-20974348D01*
X9992166Y-21002920D01*
X9992166Y-21160063D01*
X9992166Y-21002920D02*
X10006452Y-20974348D01*
X10035023Y-20960063D01*
X10077880Y-20960063D01*
X10106452Y-20974348D01*
X10120737Y-21002920D01*
X10120737Y-21160063D01*
X10706452Y-20845777D02*
X10449309Y-21231491D01*
X11092166Y-20860063D02*
X11120737Y-20860063D01*
X11149309Y-20874348D01*
X11163594Y-20888634D01*
X11177880Y-20917205D01*
X11192166Y-20974348D01*
X11192166Y-21045777D01*
X11177880Y-21102920D01*
X11163594Y-21131491D01*
X11149309Y-21145777D01*
X11120737Y-21160063D01*
X11092166Y-21160063D01*
X11063594Y-21145777D01*
X11049309Y-21131491D01*
X11035023Y-21102920D01*
X11020737Y-21045777D01*
X11020737Y-20974348D01*
X11035023Y-20917205D01*
X11049309Y-20888634D01*
X11063594Y-20874348D01*
X11092166Y-20860063D01*
X11320737Y-21131491D02*
X11335023Y-21145777D01*
X11320737Y-21160063D01*
X11306451Y-21145777D01*
X11320737Y-21131491D01*
X11320737Y-21160063D01*
X11520737Y-20860063D02*
X11549309Y-20860063D01*
X11577880Y-20874348D01*
X11592166Y-20888634D01*
X11606451Y-20917205D01*
X11620737Y-20974348D01*
X11620737Y-21045777D01*
X11606451Y-21102920D01*
X11592166Y-21131491D01*
X11577880Y-21145777D01*
X11549309Y-21160063D01*
X11520737Y-21160063D01*
X11492166Y-21145777D01*
X11477880Y-21131491D01*
X11463594Y-21102920D01*
X11449309Y-21045777D01*
X11449309Y-20974348D01*
X11463594Y-20917205D01*
X11477880Y-20888634D01*
X11492166Y-20874348D01*
X11520737Y-20860063D01*
X11877880Y-20960063D02*
X11877880Y-21160063D01*
X11806451Y-20845777D02*
X11735023Y-21060063D01*
X11920737Y-21060063D01*
X12092166Y-20860063D02*
X12120737Y-20860063D01*
X12149309Y-20874348D01*
X12163594Y-20888634D01*
X12177880Y-20917205D01*
X12192166Y-20974348D01*
X12192166Y-21045777D01*
X12177880Y-21102920D01*
X12163594Y-21131491D01*
X12149309Y-21145777D01*
X12120737Y-21160063D01*
X12092166Y-21160063D01*
X12063594Y-21145777D01*
X12049309Y-21131491D01*
X12035023Y-21102920D01*
X12020737Y-21045777D01*
X12020737Y-20974348D01*
X12035023Y-20917205D01*
X12049309Y-20888634D01*
X12063594Y-20874348D01*
X12092166Y-20860063D01*
X12306451Y-20860063D02*
X12306451Y-20917205D01*
X12420737Y-20860063D02*
X12420737Y-20917205D01*
X12863594Y-21274348D02*
X12849309Y-21260063D01*
X12820737Y-21217205D01*
X12806451Y-21188634D01*
X12792166Y-21145777D01*
X12777880Y-21074348D01*
X12777880Y-21017205D01*
X12792166Y-20945777D01*
X12806451Y-20902920D01*
X12820737Y-20874348D01*
X12849309Y-20831491D01*
X12863594Y-20817205D01*
X13120737Y-20860063D02*
X12977880Y-20860063D01*
X12963594Y-21002920D01*
X12977880Y-20988634D01*
X13006451Y-20974348D01*
X13077880Y-20974348D01*
X13106451Y-20988634D01*
X13120737Y-21002920D01*
X13135023Y-21031491D01*
X13135023Y-21102920D01*
X13120737Y-21131491D01*
X13106451Y-21145777D01*
X13077880Y-21160063D01*
X13006451Y-21160063D01*
X12977880Y-21145777D01*
X12963594Y-21131491D01*
X13492166Y-21160063D02*
X13492166Y-20860063D01*
X13620737Y-21160063D02*
X13620737Y-21002920D01*
X13606451Y-20974348D01*
X13577880Y-20960063D01*
X13535023Y-20960063D01*
X13506451Y-20974348D01*
X13492166Y-20988634D01*
X13806451Y-21160063D02*
X13777880Y-21145777D01*
X13763594Y-21131491D01*
X13749309Y-21102920D01*
X13749309Y-21017205D01*
X13763594Y-20988634D01*
X13777880Y-20974348D01*
X13806451Y-20960063D01*
X13849309Y-20960063D01*
X13877880Y-20974348D01*
X13892166Y-20988634D01*
X13906451Y-21017205D01*
X13906451Y-21102920D01*
X13892166Y-21131491D01*
X13877880Y-21145777D01*
X13849309Y-21160063D01*
X13806451Y-21160063D01*
X14077880Y-21160063D02*
X14049309Y-21145777D01*
X14035023Y-21117205D01*
X14035023Y-20860063D01*
X14306451Y-21145777D02*
X14277880Y-21160063D01*
X14220737Y-21160063D01*
X14192166Y-21145777D01*
X14177880Y-21117205D01*
X14177880Y-21002920D01*
X14192166Y-20974348D01*
X14220737Y-20960063D01*
X14277880Y-20960063D01*
X14306451Y-20974348D01*
X14320737Y-21002920D01*
X14320737Y-21031491D01*
X14177880Y-21060063D01*
X14435023Y-21145777D02*
X14463594Y-21160063D01*
X14520737Y-21160063D01*
X14549309Y-21145777D01*
X14563594Y-21117205D01*
X14563594Y-21102920D01*
X14549309Y-21074348D01*
X14520737Y-21060063D01*
X14477880Y-21060063D01*
X14449309Y-21045777D01*
X14435023Y-21017205D01*
X14435023Y-21002920D01*
X14449309Y-20974348D01*
X14477880Y-20960063D01*
X14520737Y-20960063D01*
X14549309Y-20974348D01*
X14663594Y-21274348D02*
X14677880Y-21260063D01*
X14706451Y-21217205D01*
X14720737Y-21188634D01*
X14735023Y-21145777D01*
X14749309Y-21074348D01*
X14749309Y-21017205D01*
X14735023Y-20945777D01*
X14720737Y-20902920D01*
X14706451Y-20874348D01*
X14677880Y-20831491D01*
X14663594Y-20817205D01*
M02*
