G04 #@! TF.GenerationSoftware,KiCad,Pcbnew,(5.1.5)-3*
G04 #@! TF.CreationDate,2020-02-09T18:17:14-06:00*
G04 #@! TF.ProjectId,tymkrs_Cyphercon_2020_parrot,74796d6b-7273-45f4-9379-70686572636f,V0*
G04 #@! TF.SameCoordinates,Original*
G04 #@! TF.FileFunction,Soldermask,Bot*
G04 #@! TF.FilePolarity,Negative*
%FSLAX46Y46*%
G04 Gerber Fmt 4.6, Leading zero omitted, Abs format (unit mm)*
G04 Created by KiCad (PCBNEW (5.1.5)-3) date 2020-02-09 18:17:14*
%MOMM*%
%LPD*%
G04 APERTURE LIST*
%ADD10C,0.100000*%
G04 APERTURE END LIST*
D10*
G36*
X96749676Y-194187859D02*
G01*
X96892973Y-194247214D01*
X97021938Y-194333386D01*
X97131614Y-194443062D01*
X97217786Y-194572027D01*
X97277141Y-194715324D01*
X97307400Y-194867447D01*
X97307400Y-195022553D01*
X97277141Y-195174676D01*
X97217786Y-195317973D01*
X97131614Y-195446938D01*
X97021938Y-195556614D01*
X96892973Y-195642786D01*
X96749676Y-195702141D01*
X96597553Y-195732400D01*
X96442447Y-195732400D01*
X96290324Y-195702141D01*
X96147027Y-195642786D01*
X96018062Y-195556614D01*
X95908386Y-195446938D01*
X95822214Y-195317973D01*
X95762859Y-195174676D01*
X95732600Y-195022553D01*
X95732600Y-194867447D01*
X95762859Y-194715324D01*
X95822214Y-194572027D01*
X95908386Y-194443062D01*
X96018062Y-194333386D01*
X96147027Y-194247214D01*
X96290324Y-194187859D01*
X96442447Y-194157600D01*
X96597553Y-194157600D01*
X96749676Y-194187859D01*
G37*
G36*
X98789292Y-194003439D02*
G01*
X98820872Y-194013019D01*
X98849978Y-194028577D01*
X98875488Y-194049512D01*
X98896423Y-194075022D01*
X98911981Y-194104128D01*
X98921561Y-194135708D01*
X98925400Y-194174690D01*
X98925400Y-194750310D01*
X98921561Y-194789292D01*
X98911981Y-194820872D01*
X98896423Y-194849978D01*
X98875488Y-194875488D01*
X98849978Y-194896423D01*
X98820872Y-194911981D01*
X98789292Y-194921561D01*
X98750310Y-194925400D01*
X98099690Y-194925400D01*
X98060708Y-194921561D01*
X98029128Y-194911981D01*
X98000022Y-194896423D01*
X97974512Y-194875488D01*
X97953577Y-194849978D01*
X97938019Y-194820872D01*
X97928439Y-194789292D01*
X97924600Y-194750310D01*
X97924600Y-194174690D01*
X97928439Y-194135708D01*
X97938019Y-194104128D01*
X97953577Y-194075022D01*
X97974512Y-194049512D01*
X98000022Y-194028577D01*
X98029128Y-194013019D01*
X98060708Y-194003439D01*
X98099690Y-193999600D01*
X98750310Y-193999600D01*
X98789292Y-194003439D01*
G37*
G36*
X153514292Y-193178439D02*
G01*
X153545872Y-193188019D01*
X153574978Y-193203577D01*
X153600488Y-193224512D01*
X153621423Y-193250022D01*
X153636981Y-193279128D01*
X153646561Y-193310708D01*
X153650400Y-193349690D01*
X153650400Y-194000310D01*
X153646561Y-194039292D01*
X153636981Y-194070872D01*
X153621423Y-194099978D01*
X153600488Y-194125488D01*
X153574978Y-194146423D01*
X153545872Y-194161981D01*
X153514292Y-194171561D01*
X153475310Y-194175400D01*
X152899690Y-194175400D01*
X152860708Y-194171561D01*
X152829128Y-194161981D01*
X152800022Y-194146423D01*
X152774512Y-194125488D01*
X152753577Y-194099978D01*
X152738019Y-194070872D01*
X152728439Y-194039292D01*
X152724600Y-194000310D01*
X152724600Y-193349690D01*
X152728439Y-193310708D01*
X152738019Y-193279128D01*
X152753577Y-193250022D01*
X152774512Y-193224512D01*
X152800022Y-193203577D01*
X152829128Y-193188019D01*
X152860708Y-193178439D01*
X152899690Y-193174600D01*
X153475310Y-193174600D01*
X153514292Y-193178439D01*
G37*
G36*
X151939292Y-193178439D02*
G01*
X151970872Y-193188019D01*
X151999978Y-193203577D01*
X152025488Y-193224512D01*
X152046423Y-193250022D01*
X152061981Y-193279128D01*
X152071561Y-193310708D01*
X152075400Y-193349690D01*
X152075400Y-194000310D01*
X152071561Y-194039292D01*
X152061981Y-194070872D01*
X152046423Y-194099978D01*
X152025488Y-194125488D01*
X151999978Y-194146423D01*
X151970872Y-194161981D01*
X151939292Y-194171561D01*
X151900310Y-194175400D01*
X151324690Y-194175400D01*
X151285708Y-194171561D01*
X151254128Y-194161981D01*
X151225022Y-194146423D01*
X151199512Y-194125488D01*
X151178577Y-194099978D01*
X151163019Y-194070872D01*
X151153439Y-194039292D01*
X151149600Y-194000310D01*
X151149600Y-193349690D01*
X151153439Y-193310708D01*
X151163019Y-193279128D01*
X151178577Y-193250022D01*
X151199512Y-193224512D01*
X151225022Y-193203577D01*
X151254128Y-193188019D01*
X151285708Y-193178439D01*
X151324690Y-193174600D01*
X151900310Y-193174600D01*
X151939292Y-193178439D01*
G37*
G36*
X98789292Y-192428439D02*
G01*
X98820872Y-192438019D01*
X98849978Y-192453577D01*
X98875488Y-192474512D01*
X98896423Y-192500022D01*
X98911981Y-192529128D01*
X98921561Y-192560708D01*
X98925400Y-192599690D01*
X98925400Y-193175310D01*
X98921561Y-193214292D01*
X98911981Y-193245872D01*
X98896423Y-193274978D01*
X98875488Y-193300488D01*
X98849978Y-193321423D01*
X98820872Y-193336981D01*
X98789292Y-193346561D01*
X98750310Y-193350400D01*
X98099690Y-193350400D01*
X98060708Y-193346561D01*
X98029128Y-193336981D01*
X98000022Y-193321423D01*
X97974512Y-193300488D01*
X97953577Y-193274978D01*
X97938019Y-193245872D01*
X97928439Y-193214292D01*
X97924600Y-193175310D01*
X97924600Y-192599690D01*
X97928439Y-192560708D01*
X97938019Y-192529128D01*
X97953577Y-192500022D01*
X97974512Y-192474512D01*
X98000022Y-192453577D01*
X98029128Y-192438019D01*
X98060708Y-192428439D01*
X98099690Y-192424600D01*
X98750310Y-192424600D01*
X98789292Y-192428439D01*
G37*
G36*
X96749676Y-191647859D02*
G01*
X96892973Y-191707214D01*
X97021938Y-191793386D01*
X97131614Y-191903062D01*
X97217786Y-192032027D01*
X97277141Y-192175324D01*
X97307400Y-192327447D01*
X97307400Y-192482553D01*
X97277141Y-192634676D01*
X97217786Y-192777973D01*
X97131614Y-192906938D01*
X97021938Y-193016614D01*
X96892973Y-193102786D01*
X96749676Y-193162141D01*
X96597553Y-193192400D01*
X96442447Y-193192400D01*
X96290324Y-193162141D01*
X96147027Y-193102786D01*
X96018062Y-193016614D01*
X95908386Y-192906938D01*
X95822214Y-192777973D01*
X95762859Y-192634676D01*
X95732600Y-192482553D01*
X95732600Y-192327447D01*
X95762859Y-192175324D01*
X95822214Y-192032027D01*
X95908386Y-191903062D01*
X96018062Y-191793386D01*
X96147027Y-191707214D01*
X96290324Y-191647859D01*
X96442447Y-191617600D01*
X96597553Y-191617600D01*
X96749676Y-191647859D01*
G37*
G36*
X97307400Y-190652400D02*
G01*
X95732600Y-190652400D01*
X95732600Y-189077600D01*
X97307400Y-189077600D01*
X97307400Y-190652400D01*
G37*
G36*
X148216400Y-190396400D02*
G01*
X147365600Y-190396400D01*
X147365600Y-188945600D01*
X148216400Y-188945600D01*
X148216400Y-190396400D01*
G37*
G36*
X146766400Y-190396400D02*
G01*
X145915600Y-190396400D01*
X145915600Y-188945600D01*
X146766400Y-188945600D01*
X146766400Y-190396400D01*
G37*
G36*
X106761400Y-190396400D02*
G01*
X105910600Y-190396400D01*
X105910600Y-188945600D01*
X106761400Y-188945600D01*
X106761400Y-190396400D01*
G37*
G36*
X108211400Y-190396400D02*
G01*
X107360600Y-190396400D01*
X107360600Y-188945600D01*
X108211400Y-188945600D01*
X108211400Y-190396400D01*
G37*
G36*
X118244400Y-189761400D02*
G01*
X117393600Y-189761400D01*
X117393600Y-188310600D01*
X118244400Y-188310600D01*
X118244400Y-189761400D01*
G37*
G36*
X116794400Y-189761400D02*
G01*
X115943600Y-189761400D01*
X115943600Y-188310600D01*
X116794400Y-188310600D01*
X116794400Y-189761400D01*
G37*
G36*
X136733400Y-189761400D02*
G01*
X135882600Y-189761400D01*
X135882600Y-188310600D01*
X136733400Y-188310600D01*
X136733400Y-189761400D01*
G37*
G36*
X138183400Y-189761400D02*
G01*
X137332600Y-189761400D01*
X137332600Y-188310600D01*
X138183400Y-188310600D01*
X138183400Y-189761400D01*
G37*
G36*
X126700400Y-189507400D02*
G01*
X125849600Y-189507400D01*
X125849600Y-188056600D01*
X126700400Y-188056600D01*
X126700400Y-189507400D01*
G37*
G36*
X128150400Y-189507400D02*
G01*
X127299600Y-189507400D01*
X127299600Y-188056600D01*
X128150400Y-188056600D01*
X128150400Y-189507400D01*
G37*
G36*
X154444721Y-187283940D02*
G01*
X154542201Y-187324318D01*
X154611130Y-187352869D01*
X154611131Y-187352870D01*
X154760896Y-187452939D01*
X154888261Y-187580304D01*
X154926787Y-187637963D01*
X154988331Y-187730070D01*
X155016882Y-187798999D01*
X155057260Y-187896479D01*
X155092400Y-188073139D01*
X155092400Y-188253261D01*
X155057260Y-188429921D01*
X155016882Y-188527401D01*
X154988331Y-188596330D01*
X154988330Y-188596331D01*
X154888261Y-188746096D01*
X154760896Y-188873461D01*
X154660826Y-188940325D01*
X154611130Y-188973531D01*
X154542201Y-189002082D01*
X154444721Y-189042460D01*
X154268061Y-189077600D01*
X154087939Y-189077600D01*
X153911279Y-189042460D01*
X153813799Y-189002082D01*
X153744870Y-188973531D01*
X153695174Y-188940325D01*
X153595104Y-188873461D01*
X153467739Y-188746096D01*
X153367670Y-188596331D01*
X153367669Y-188596330D01*
X153339118Y-188527401D01*
X153298740Y-188429921D01*
X153263600Y-188253261D01*
X153263600Y-188073139D01*
X153298740Y-187896479D01*
X153339118Y-187798999D01*
X153367669Y-187730070D01*
X153429213Y-187637963D01*
X153467739Y-187580304D01*
X153595104Y-187452939D01*
X153744869Y-187352870D01*
X153744870Y-187352869D01*
X153813799Y-187324318D01*
X153911279Y-187283940D01*
X154087939Y-187248800D01*
X154268061Y-187248800D01*
X154444721Y-187283940D01*
G37*
G36*
X147430610Y-185869036D02*
G01*
X147658095Y-185963264D01*
X147658097Y-185963265D01*
X147862828Y-186100062D01*
X148036938Y-186274172D01*
X148062805Y-186312884D01*
X148173736Y-186478905D01*
X148267964Y-186706390D01*
X148316000Y-186947884D01*
X148316000Y-187194116D01*
X148267964Y-187435610D01*
X148173736Y-187663095D01*
X148173735Y-187663097D01*
X148036938Y-187867828D01*
X147862828Y-188041938D01*
X147658097Y-188178735D01*
X147658096Y-188178736D01*
X147658095Y-188178736D01*
X147430610Y-188272964D01*
X147189116Y-188321000D01*
X146942884Y-188321000D01*
X146701390Y-188272964D01*
X146473905Y-188178736D01*
X146473904Y-188178736D01*
X146473903Y-188178735D01*
X146269172Y-188041938D01*
X146095062Y-187867828D01*
X145958265Y-187663097D01*
X145958264Y-187663095D01*
X145864036Y-187435610D01*
X145816000Y-187194116D01*
X145816000Y-186947884D01*
X145864036Y-186706390D01*
X145958264Y-186478905D01*
X146069196Y-186312884D01*
X146095062Y-186274172D01*
X146269172Y-186100062D01*
X146473903Y-185963265D01*
X146473905Y-185963264D01*
X146701390Y-185869036D01*
X146942884Y-185821000D01*
X147189116Y-185821000D01*
X147430610Y-185869036D01*
G37*
G36*
X107425610Y-185869036D02*
G01*
X107653095Y-185963264D01*
X107653097Y-185963265D01*
X107857828Y-186100062D01*
X108031938Y-186274172D01*
X108057805Y-186312884D01*
X108168736Y-186478905D01*
X108262964Y-186706390D01*
X108311000Y-186947884D01*
X108311000Y-187194116D01*
X108262964Y-187435610D01*
X108168736Y-187663095D01*
X108168735Y-187663097D01*
X108031938Y-187867828D01*
X107857828Y-188041938D01*
X107653097Y-188178735D01*
X107653096Y-188178736D01*
X107653095Y-188178736D01*
X107425610Y-188272964D01*
X107184116Y-188321000D01*
X106937884Y-188321000D01*
X106696390Y-188272964D01*
X106468905Y-188178736D01*
X106468904Y-188178736D01*
X106468903Y-188178735D01*
X106264172Y-188041938D01*
X106090062Y-187867828D01*
X105953265Y-187663097D01*
X105953264Y-187663095D01*
X105859036Y-187435610D01*
X105811000Y-187194116D01*
X105811000Y-186947884D01*
X105859036Y-186706390D01*
X105953264Y-186478905D01*
X106064196Y-186312884D01*
X106090062Y-186274172D01*
X106264172Y-186100062D01*
X106468903Y-185963265D01*
X106468905Y-185963264D01*
X106696390Y-185869036D01*
X106937884Y-185821000D01*
X107184116Y-185821000D01*
X107425610Y-185869036D01*
G37*
G36*
X137397610Y-185234036D02*
G01*
X137625095Y-185328264D01*
X137625097Y-185328265D01*
X137829828Y-185465062D01*
X138003938Y-185639172D01*
X138125432Y-185821000D01*
X138140736Y-185843905D01*
X138234964Y-186071390D01*
X138283000Y-186312884D01*
X138283000Y-186559116D01*
X138234964Y-186800610D01*
X138173960Y-186947886D01*
X138140735Y-187028097D01*
X138003938Y-187232828D01*
X137829828Y-187406938D01*
X137625097Y-187543735D01*
X137625096Y-187543736D01*
X137625095Y-187543736D01*
X137397610Y-187637964D01*
X137156116Y-187686000D01*
X136909884Y-187686000D01*
X136668390Y-187637964D01*
X136440905Y-187543736D01*
X136440904Y-187543736D01*
X136440903Y-187543735D01*
X136236172Y-187406938D01*
X136062062Y-187232828D01*
X135925265Y-187028097D01*
X135892040Y-186947886D01*
X135831036Y-186800610D01*
X135783000Y-186559116D01*
X135783000Y-186312884D01*
X135831036Y-186071390D01*
X135925264Y-185843905D01*
X135940569Y-185821000D01*
X136062062Y-185639172D01*
X136236172Y-185465062D01*
X136440903Y-185328265D01*
X136440905Y-185328264D01*
X136668390Y-185234036D01*
X136909884Y-185186000D01*
X137156116Y-185186000D01*
X137397610Y-185234036D01*
G37*
G36*
X117458610Y-185234036D02*
G01*
X117686095Y-185328264D01*
X117686097Y-185328265D01*
X117890828Y-185465062D01*
X118064938Y-185639172D01*
X118186432Y-185821000D01*
X118201736Y-185843905D01*
X118295964Y-186071390D01*
X118344000Y-186312884D01*
X118344000Y-186559116D01*
X118295964Y-186800610D01*
X118234960Y-186947886D01*
X118201735Y-187028097D01*
X118064938Y-187232828D01*
X117890828Y-187406938D01*
X117686097Y-187543735D01*
X117686096Y-187543736D01*
X117686095Y-187543736D01*
X117458610Y-187637964D01*
X117217116Y-187686000D01*
X116970884Y-187686000D01*
X116729390Y-187637964D01*
X116501905Y-187543736D01*
X116501904Y-187543736D01*
X116501903Y-187543735D01*
X116297172Y-187406938D01*
X116123062Y-187232828D01*
X115986265Y-187028097D01*
X115953040Y-186947886D01*
X115892036Y-186800610D01*
X115844000Y-186559116D01*
X115844000Y-186312884D01*
X115892036Y-186071390D01*
X115986264Y-185843905D01*
X116001569Y-185821000D01*
X116123062Y-185639172D01*
X116297172Y-185465062D01*
X116501903Y-185328265D01*
X116501905Y-185328264D01*
X116729390Y-185234036D01*
X116970884Y-185186000D01*
X117217116Y-185186000D01*
X117458610Y-185234036D01*
G37*
G36*
X127364610Y-184980036D02*
G01*
X127592095Y-185074264D01*
X127592097Y-185074265D01*
X127759320Y-185186000D01*
X127796828Y-185211062D01*
X127970938Y-185385172D01*
X128107736Y-185589905D01*
X128201964Y-185817390D01*
X128250000Y-186058884D01*
X128250000Y-186305116D01*
X128201964Y-186546610D01*
X128107736Y-186774095D01*
X128107735Y-186774097D01*
X127970938Y-186978828D01*
X127796828Y-187152938D01*
X127592097Y-187289735D01*
X127592096Y-187289736D01*
X127592095Y-187289736D01*
X127364610Y-187383964D01*
X127123116Y-187432000D01*
X126876884Y-187432000D01*
X126635390Y-187383964D01*
X126407905Y-187289736D01*
X126407904Y-187289736D01*
X126407903Y-187289735D01*
X126203172Y-187152938D01*
X126029062Y-186978828D01*
X125892265Y-186774097D01*
X125892264Y-186774095D01*
X125798036Y-186546610D01*
X125750000Y-186305116D01*
X125750000Y-186058884D01*
X125798036Y-185817390D01*
X125892264Y-185589905D01*
X126029062Y-185385172D01*
X126203172Y-185211062D01*
X126240680Y-185186000D01*
X126407903Y-185074265D01*
X126407905Y-185074264D01*
X126635390Y-184980036D01*
X126876884Y-184932000D01*
X127123116Y-184932000D01*
X127364610Y-184980036D01*
G37*
G36*
X106761400Y-185196400D02*
G01*
X105910600Y-185196400D01*
X105910600Y-183745600D01*
X106761400Y-183745600D01*
X106761400Y-185196400D01*
G37*
G36*
X146766400Y-185196400D02*
G01*
X145915600Y-185196400D01*
X145915600Y-183745600D01*
X146766400Y-183745600D01*
X146766400Y-185196400D01*
G37*
G36*
X108211400Y-185196400D02*
G01*
X107360600Y-185196400D01*
X107360600Y-183745600D01*
X108211400Y-183745600D01*
X108211400Y-185196400D01*
G37*
G36*
X148216400Y-185196400D02*
G01*
X147365600Y-185196400D01*
X147365600Y-183745600D01*
X148216400Y-183745600D01*
X148216400Y-185196400D01*
G37*
G36*
X138183400Y-184561400D02*
G01*
X137332600Y-184561400D01*
X137332600Y-183110600D01*
X138183400Y-183110600D01*
X138183400Y-184561400D01*
G37*
G36*
X136733400Y-184561400D02*
G01*
X135882600Y-184561400D01*
X135882600Y-183110600D01*
X136733400Y-183110600D01*
X136733400Y-184561400D01*
G37*
G36*
X118244400Y-184561400D02*
G01*
X117393600Y-184561400D01*
X117393600Y-183110600D01*
X118244400Y-183110600D01*
X118244400Y-184561400D01*
G37*
G36*
X116794400Y-184561400D02*
G01*
X115943600Y-184561400D01*
X115943600Y-183110600D01*
X116794400Y-183110600D01*
X116794400Y-184561400D01*
G37*
G36*
X128150400Y-184307400D02*
G01*
X127299600Y-184307400D01*
X127299600Y-182856600D01*
X128150400Y-182856600D01*
X128150400Y-184307400D01*
G37*
G36*
X126700400Y-184307400D02*
G01*
X125849600Y-184307400D01*
X125849600Y-182856600D01*
X126700400Y-182856600D01*
X126700400Y-184307400D01*
G37*
G36*
X133405400Y-180490400D02*
G01*
X130754600Y-180490400D01*
X130754600Y-179039600D01*
X133405400Y-179039600D01*
X133405400Y-180490400D01*
G37*
G36*
X123372400Y-180363400D02*
G01*
X120721600Y-180363400D01*
X120721600Y-178912600D01*
X123372400Y-178912600D01*
X123372400Y-180363400D01*
G37*
G36*
X113339400Y-179855400D02*
G01*
X110688600Y-179855400D01*
X110688600Y-178404600D01*
X113339400Y-178404600D01*
X113339400Y-179855400D01*
G37*
G36*
X143311400Y-179855400D02*
G01*
X140660600Y-179855400D01*
X140660600Y-178404600D01*
X143311400Y-178404600D01*
X143311400Y-179855400D01*
G37*
G36*
X103306400Y-179347400D02*
G01*
X100655600Y-179347400D01*
X100655600Y-177896600D01*
X103306400Y-177896600D01*
X103306400Y-179347400D01*
G37*
G36*
X155307613Y-177436214D02*
G01*
X153433214Y-179310613D01*
X152407343Y-178284742D01*
X154281742Y-176410343D01*
X155307613Y-177436214D01*
G37*
G36*
X89230400Y-178765400D02*
G01*
X87879600Y-178765400D01*
X87879600Y-177164600D01*
X89230400Y-177164600D01*
X89230400Y-178765400D01*
G37*
G36*
X93730400Y-178765400D02*
G01*
X92379600Y-178765400D01*
X92379600Y-177164600D01*
X93730400Y-177164600D01*
X93730400Y-178765400D01*
G37*
G36*
X132444610Y-175963036D02*
G01*
X132672095Y-176057264D01*
X132672097Y-176057265D01*
X132876828Y-176194062D01*
X133050938Y-176368172D01*
X133102878Y-176445905D01*
X133187736Y-176572905D01*
X133281964Y-176800390D01*
X133330000Y-177041884D01*
X133330000Y-177288116D01*
X133281964Y-177529610D01*
X133187736Y-177757095D01*
X133187735Y-177757097D01*
X133050938Y-177961828D01*
X132876828Y-178135938D01*
X132672097Y-178272735D01*
X132672096Y-178272736D01*
X132672095Y-178272736D01*
X132444610Y-178366964D01*
X132203116Y-178415000D01*
X131956884Y-178415000D01*
X131715390Y-178366964D01*
X131487905Y-178272736D01*
X131487904Y-178272736D01*
X131487903Y-178272735D01*
X131283172Y-178135938D01*
X131109062Y-177961828D01*
X130972265Y-177757097D01*
X130972264Y-177757095D01*
X130878036Y-177529610D01*
X130830000Y-177288116D01*
X130830000Y-177041884D01*
X130878036Y-176800390D01*
X130972264Y-176572905D01*
X131057123Y-176445905D01*
X131109062Y-176368172D01*
X131283172Y-176194062D01*
X131487903Y-176057265D01*
X131487905Y-176057264D01*
X131715390Y-175963036D01*
X131956884Y-175915000D01*
X132203116Y-175915000D01*
X132444610Y-175963036D01*
G37*
G36*
X122411610Y-175836036D02*
G01*
X122639095Y-175930264D01*
X122639097Y-175930265D01*
X122843828Y-176067062D01*
X123017938Y-176241172D01*
X123130975Y-176410343D01*
X123154736Y-176445905D01*
X123248964Y-176673390D01*
X123297000Y-176914884D01*
X123297000Y-177161116D01*
X123248964Y-177402610D01*
X123196358Y-177529611D01*
X123154735Y-177630097D01*
X123017938Y-177834828D01*
X122843828Y-178008938D01*
X122639097Y-178145735D01*
X122639096Y-178145736D01*
X122639095Y-178145736D01*
X122411610Y-178239964D01*
X122170116Y-178288000D01*
X121923884Y-178288000D01*
X121682390Y-178239964D01*
X121454905Y-178145736D01*
X121454904Y-178145736D01*
X121454903Y-178145735D01*
X121250172Y-178008938D01*
X121076062Y-177834828D01*
X120939265Y-177630097D01*
X120897642Y-177529611D01*
X120845036Y-177402610D01*
X120797000Y-177161116D01*
X120797000Y-176914884D01*
X120845036Y-176673390D01*
X120939264Y-176445905D01*
X120963026Y-176410343D01*
X121076062Y-176241172D01*
X121250172Y-176067062D01*
X121454903Y-175930265D01*
X121454905Y-175930264D01*
X121682390Y-175836036D01*
X121923884Y-175788000D01*
X122170116Y-175788000D01*
X122411610Y-175836036D01*
G37*
G36*
X142350610Y-175328036D02*
G01*
X142578095Y-175422264D01*
X142578097Y-175422265D01*
X142782828Y-175559062D01*
X142956938Y-175733172D01*
X143088631Y-175930264D01*
X143093736Y-175937905D01*
X143187964Y-176165390D01*
X143236000Y-176406884D01*
X143236000Y-176653116D01*
X143187964Y-176894610D01*
X143126960Y-177041886D01*
X143093735Y-177122097D01*
X142956938Y-177326828D01*
X142782828Y-177500938D01*
X142578097Y-177637735D01*
X142578096Y-177637736D01*
X142578095Y-177637736D01*
X142350610Y-177731964D01*
X142109116Y-177780000D01*
X141862884Y-177780000D01*
X141621390Y-177731964D01*
X141393905Y-177637736D01*
X141393904Y-177637736D01*
X141393903Y-177637735D01*
X141189172Y-177500938D01*
X141015062Y-177326828D01*
X140878265Y-177122097D01*
X140845040Y-177041886D01*
X140784036Y-176894610D01*
X140736000Y-176653116D01*
X140736000Y-176406884D01*
X140784036Y-176165390D01*
X140878264Y-175937905D01*
X140883370Y-175930264D01*
X141015062Y-175733172D01*
X141189172Y-175559062D01*
X141393903Y-175422265D01*
X141393905Y-175422264D01*
X141621390Y-175328036D01*
X141862884Y-175280000D01*
X142109116Y-175280000D01*
X142350610Y-175328036D01*
G37*
G36*
X112378610Y-175328036D02*
G01*
X112606095Y-175422264D01*
X112606097Y-175422265D01*
X112810828Y-175559062D01*
X112984938Y-175733172D01*
X113116631Y-175930264D01*
X113121736Y-175937905D01*
X113215964Y-176165390D01*
X113264000Y-176406884D01*
X113264000Y-176653116D01*
X113215964Y-176894610D01*
X113154960Y-177041886D01*
X113121735Y-177122097D01*
X112984938Y-177326828D01*
X112810828Y-177500938D01*
X112606097Y-177637735D01*
X112606096Y-177637736D01*
X112606095Y-177637736D01*
X112378610Y-177731964D01*
X112137116Y-177780000D01*
X111890884Y-177780000D01*
X111649390Y-177731964D01*
X111421905Y-177637736D01*
X111421904Y-177637736D01*
X111421903Y-177637735D01*
X111217172Y-177500938D01*
X111043062Y-177326828D01*
X110906265Y-177122097D01*
X110873040Y-177041886D01*
X110812036Y-176894610D01*
X110764000Y-176653116D01*
X110764000Y-176406884D01*
X110812036Y-176165390D01*
X110906264Y-175937905D01*
X110911370Y-175930264D01*
X111043062Y-175733172D01*
X111217172Y-175559062D01*
X111421903Y-175422265D01*
X111421905Y-175422264D01*
X111649390Y-175328036D01*
X111890884Y-175280000D01*
X112137116Y-175280000D01*
X112378610Y-175328036D01*
G37*
G36*
X102345610Y-174820036D02*
G01*
X102573095Y-174914264D01*
X102573097Y-174914265D01*
X102777828Y-175051062D01*
X102951938Y-175225172D01*
X103083631Y-175422264D01*
X103088736Y-175429905D01*
X103182964Y-175657390D01*
X103231000Y-175898884D01*
X103231000Y-176145116D01*
X103182964Y-176386610D01*
X103088736Y-176614095D01*
X103088735Y-176614097D01*
X102951938Y-176818828D01*
X102777828Y-176992938D01*
X102573097Y-177129735D01*
X102573096Y-177129736D01*
X102573095Y-177129736D01*
X102345610Y-177223964D01*
X102104116Y-177272000D01*
X101857884Y-177272000D01*
X101616390Y-177223964D01*
X101388905Y-177129736D01*
X101388904Y-177129736D01*
X101388903Y-177129735D01*
X101184172Y-176992938D01*
X101010062Y-176818828D01*
X100873265Y-176614097D01*
X100873264Y-176614095D01*
X100779036Y-176386610D01*
X100731000Y-176145116D01*
X100731000Y-175898884D01*
X100779036Y-175657390D01*
X100873264Y-175429905D01*
X100878370Y-175422264D01*
X101010062Y-175225172D01*
X101184172Y-175051062D01*
X101388903Y-174914265D01*
X101388905Y-174914264D01*
X101616390Y-174820036D01*
X101857884Y-174772000D01*
X102104116Y-174772000D01*
X102345610Y-174820036D01*
G37*
G36*
X152383610Y-174820036D02*
G01*
X152611095Y-174914264D01*
X152611097Y-174914265D01*
X152815828Y-175051062D01*
X152989938Y-175225172D01*
X153121631Y-175422264D01*
X153126736Y-175429905D01*
X153220964Y-175657390D01*
X153269000Y-175898884D01*
X153269000Y-176145116D01*
X153220964Y-176386610D01*
X153126736Y-176614095D01*
X153126735Y-176614097D01*
X152989938Y-176818828D01*
X152815828Y-176992938D01*
X152611097Y-177129735D01*
X152611096Y-177129736D01*
X152611095Y-177129736D01*
X152383610Y-177223964D01*
X152142116Y-177272000D01*
X151895884Y-177272000D01*
X151654390Y-177223964D01*
X151426905Y-177129736D01*
X151426904Y-177129736D01*
X151426903Y-177129735D01*
X151222172Y-176992938D01*
X151048062Y-176818828D01*
X150911265Y-176614097D01*
X150911264Y-176614095D01*
X150817036Y-176386610D01*
X150769000Y-176145116D01*
X150769000Y-175898884D01*
X150817036Y-175657390D01*
X150911264Y-175429905D01*
X150916370Y-175422264D01*
X151048062Y-175225172D01*
X151222172Y-175051062D01*
X151426903Y-174914265D01*
X151426905Y-174914264D01*
X151654390Y-174820036D01*
X151895884Y-174772000D01*
X152142116Y-174772000D01*
X152383610Y-174820036D01*
G37*
G36*
X151630657Y-173759258D02*
G01*
X149756258Y-175633657D01*
X148730387Y-174607786D01*
X150604786Y-172733387D01*
X151630657Y-173759258D01*
G37*
G36*
X133405400Y-175290400D02*
G01*
X130754600Y-175290400D01*
X130754600Y-173839600D01*
X133405400Y-173839600D01*
X133405400Y-175290400D01*
G37*
G36*
X123372400Y-175163400D02*
G01*
X120721600Y-175163400D01*
X120721600Y-173712600D01*
X123372400Y-173712600D01*
X123372400Y-175163400D01*
G37*
G36*
X143311400Y-174655400D02*
G01*
X140660600Y-174655400D01*
X140660600Y-173204600D01*
X143311400Y-173204600D01*
X143311400Y-174655400D01*
G37*
G36*
X113339400Y-174655400D02*
G01*
X110688600Y-174655400D01*
X110688600Y-173204600D01*
X113339400Y-173204600D01*
X113339400Y-174655400D01*
G37*
G36*
X103306400Y-174147400D02*
G01*
X100655600Y-174147400D01*
X100655600Y-172696600D01*
X103306400Y-172696600D01*
X103306400Y-174147400D01*
G37*
G36*
X155092400Y-174091600D02*
G01*
X153263600Y-174091600D01*
X153263600Y-172262800D01*
X155092400Y-172262800D01*
X155092400Y-174091600D01*
G37*
G36*
X131951709Y-167184569D02*
G01*
X127814569Y-171321709D01*
X126717988Y-170225128D01*
X126966041Y-169977075D01*
X126966042Y-169977076D01*
X127071542Y-169871576D01*
X127071541Y-169871575D01*
X127319594Y-169623522D01*
X127319595Y-169623523D01*
X127425096Y-169518022D01*
X127425095Y-169518021D01*
X127673148Y-169269968D01*
X127673149Y-169269969D01*
X127778649Y-169164469D01*
X127778648Y-169164468D01*
X128026701Y-168916415D01*
X128026702Y-168916416D01*
X128132202Y-168810916D01*
X128132201Y-168810915D01*
X128380254Y-168562862D01*
X128380255Y-168562863D01*
X128485756Y-168457362D01*
X128485755Y-168457361D01*
X128733808Y-168209308D01*
X128733809Y-168209309D01*
X128839309Y-168103809D01*
X128839308Y-168103808D01*
X129087361Y-167855755D01*
X129087362Y-167855756D01*
X129192863Y-167750255D01*
X129192862Y-167750254D01*
X129440915Y-167502201D01*
X129440916Y-167502202D01*
X129546416Y-167396702D01*
X129546415Y-167396701D01*
X129794468Y-167148648D01*
X129794469Y-167148649D01*
X129899969Y-167043149D01*
X129899968Y-167043148D01*
X130148021Y-166795095D01*
X130148022Y-166795096D01*
X130253523Y-166689595D01*
X130253522Y-166689594D01*
X130501575Y-166441541D01*
X130501576Y-166441542D01*
X130607076Y-166336042D01*
X130607075Y-166336041D01*
X130855128Y-166087988D01*
X131951709Y-167184569D01*
G37*
G36*
X122122925Y-166336041D02*
G01*
X122122925Y-166336042D01*
X122228425Y-166441542D01*
X122228425Y-166441541D01*
X122476478Y-166689594D01*
X122476478Y-166689595D01*
X122581979Y-166795096D01*
X122581979Y-166795095D01*
X122830032Y-167043148D01*
X122830032Y-167043149D01*
X122935532Y-167148649D01*
X122935532Y-167148648D01*
X123183585Y-167396701D01*
X123183585Y-167396702D01*
X123289085Y-167502202D01*
X123289085Y-167502201D01*
X123537138Y-167750254D01*
X123537138Y-167750255D01*
X123642639Y-167855756D01*
X123642639Y-167855755D01*
X123890692Y-168103808D01*
X123890692Y-168103809D01*
X123996192Y-168209309D01*
X123996192Y-168209308D01*
X124244245Y-168457361D01*
X124244245Y-168457362D01*
X124349746Y-168562863D01*
X124349746Y-168562862D01*
X124597799Y-168810915D01*
X124597799Y-168810916D01*
X124703299Y-168916416D01*
X124703299Y-168916415D01*
X124951352Y-169164468D01*
X124951352Y-169164469D01*
X125056852Y-169269969D01*
X125056852Y-169269968D01*
X125304905Y-169518021D01*
X125304905Y-169518022D01*
X125410406Y-169623523D01*
X125410406Y-169623522D01*
X125658459Y-169871575D01*
X125658459Y-169871576D01*
X125763959Y-169977076D01*
X125763959Y-169977075D01*
X126012012Y-170225128D01*
X124915431Y-171321709D01*
X124667378Y-171073656D01*
X124667379Y-171073656D01*
X124561879Y-170968156D01*
X124561878Y-170968156D01*
X124313825Y-170720103D01*
X124313826Y-170720103D01*
X124208325Y-170614602D01*
X124208324Y-170614602D01*
X123960271Y-170366549D01*
X123960272Y-170366549D01*
X123854772Y-170261049D01*
X123854771Y-170261049D01*
X123606718Y-170012996D01*
X123606719Y-170012996D01*
X123501219Y-169907496D01*
X123501218Y-169907496D01*
X123253165Y-169659443D01*
X123253166Y-169659443D01*
X123147665Y-169553942D01*
X123147664Y-169553942D01*
X122899611Y-169305889D01*
X122899612Y-169305889D01*
X122794112Y-169200389D01*
X122794111Y-169200389D01*
X122546058Y-168952336D01*
X122546059Y-168952336D01*
X122440558Y-168846835D01*
X122440557Y-168846835D01*
X122192504Y-168598782D01*
X122192505Y-168598782D01*
X122087005Y-168493282D01*
X122087004Y-168493282D01*
X121838951Y-168245229D01*
X121838952Y-168245229D01*
X121733452Y-168139729D01*
X121733451Y-168139729D01*
X121485398Y-167891676D01*
X121485399Y-167891676D01*
X121379898Y-167786175D01*
X121379897Y-167786175D01*
X121131844Y-167538122D01*
X121131845Y-167538122D01*
X121026345Y-167432622D01*
X121026344Y-167432622D01*
X120778291Y-167184569D01*
X121874872Y-166087988D01*
X122122925Y-166336041D01*
G37*
G36*
X93730400Y-170815400D02*
G01*
X92379600Y-170815400D01*
X92379600Y-169214600D01*
X93730400Y-169214600D01*
X93730400Y-170815400D01*
G37*
G36*
X89230400Y-170815400D02*
G01*
X87879600Y-170815400D01*
X87879600Y-169214600D01*
X89230400Y-169214600D01*
X89230400Y-170815400D01*
G37*
G36*
X148764292Y-169683439D02*
G01*
X148795872Y-169693019D01*
X148824978Y-169708577D01*
X148850488Y-169729512D01*
X148871423Y-169755022D01*
X148886981Y-169784128D01*
X148896561Y-169815708D01*
X148900400Y-169854690D01*
X148900400Y-170505310D01*
X148896561Y-170544292D01*
X148886981Y-170575872D01*
X148871423Y-170604978D01*
X148850488Y-170630488D01*
X148824978Y-170651423D01*
X148795872Y-170666981D01*
X148764292Y-170676561D01*
X148725310Y-170680400D01*
X148149690Y-170680400D01*
X148110708Y-170676561D01*
X148079128Y-170666981D01*
X148050022Y-170651423D01*
X148024512Y-170630488D01*
X148003577Y-170604978D01*
X147988019Y-170575872D01*
X147978439Y-170544292D01*
X147974600Y-170505310D01*
X147974600Y-169854690D01*
X147978439Y-169815708D01*
X147988019Y-169784128D01*
X148003577Y-169755022D01*
X148024512Y-169729512D01*
X148050022Y-169708577D01*
X148079128Y-169693019D01*
X148110708Y-169683439D01*
X148149690Y-169679600D01*
X148725310Y-169679600D01*
X148764292Y-169683439D01*
G37*
G36*
X150339292Y-169683439D02*
G01*
X150370872Y-169693019D01*
X150399978Y-169708577D01*
X150425488Y-169729512D01*
X150446423Y-169755022D01*
X150461981Y-169784128D01*
X150471561Y-169815708D01*
X150475400Y-169854690D01*
X150475400Y-170505310D01*
X150471561Y-170544292D01*
X150461981Y-170575872D01*
X150446423Y-170604978D01*
X150425488Y-170630488D01*
X150399978Y-170651423D01*
X150370872Y-170666981D01*
X150339292Y-170676561D01*
X150300310Y-170680400D01*
X149724690Y-170680400D01*
X149685708Y-170676561D01*
X149654128Y-170666981D01*
X149625022Y-170651423D01*
X149599512Y-170630488D01*
X149578577Y-170604978D01*
X149563019Y-170575872D01*
X149553439Y-170544292D01*
X149549600Y-170505310D01*
X149549600Y-169854690D01*
X149553439Y-169815708D01*
X149563019Y-169784128D01*
X149578577Y-169755022D01*
X149599512Y-169729512D01*
X149625022Y-169708577D01*
X149654128Y-169693019D01*
X149685708Y-169683439D01*
X149724690Y-169679600D01*
X150300310Y-169679600D01*
X150339292Y-169683439D01*
G37*
G36*
X145589292Y-169683439D02*
G01*
X145620872Y-169693019D01*
X145649978Y-169708577D01*
X145675488Y-169729512D01*
X145696423Y-169755022D01*
X145711981Y-169784128D01*
X145721561Y-169815708D01*
X145725400Y-169854690D01*
X145725400Y-170505310D01*
X145721561Y-170544292D01*
X145711981Y-170575872D01*
X145696423Y-170604978D01*
X145675488Y-170630488D01*
X145649978Y-170651423D01*
X145620872Y-170666981D01*
X145589292Y-170676561D01*
X145550310Y-170680400D01*
X144974690Y-170680400D01*
X144935708Y-170676561D01*
X144904128Y-170666981D01*
X144875022Y-170651423D01*
X144849512Y-170630488D01*
X144828577Y-170604978D01*
X144813019Y-170575872D01*
X144803439Y-170544292D01*
X144799600Y-170505310D01*
X144799600Y-169854690D01*
X144803439Y-169815708D01*
X144813019Y-169784128D01*
X144828577Y-169755022D01*
X144849512Y-169729512D01*
X144875022Y-169708577D01*
X144904128Y-169693019D01*
X144935708Y-169683439D01*
X144974690Y-169679600D01*
X145550310Y-169679600D01*
X145589292Y-169683439D01*
G37*
G36*
X147164292Y-169683439D02*
G01*
X147195872Y-169693019D01*
X147224978Y-169708577D01*
X147250488Y-169729512D01*
X147271423Y-169755022D01*
X147286981Y-169784128D01*
X147296561Y-169815708D01*
X147300400Y-169854690D01*
X147300400Y-170505310D01*
X147296561Y-170544292D01*
X147286981Y-170575872D01*
X147271423Y-170604978D01*
X147250488Y-170630488D01*
X147224978Y-170651423D01*
X147195872Y-170666981D01*
X147164292Y-170676561D01*
X147125310Y-170680400D01*
X146549690Y-170680400D01*
X146510708Y-170676561D01*
X146479128Y-170666981D01*
X146450022Y-170651423D01*
X146424512Y-170630488D01*
X146403577Y-170604978D01*
X146388019Y-170575872D01*
X146378439Y-170544292D01*
X146374600Y-170505310D01*
X146374600Y-169854690D01*
X146378439Y-169815708D01*
X146388019Y-169784128D01*
X146403577Y-169755022D01*
X146424512Y-169729512D01*
X146450022Y-169708577D01*
X146479128Y-169693019D01*
X146510708Y-169683439D01*
X146549690Y-169679600D01*
X147125310Y-169679600D01*
X147164292Y-169683439D01*
G37*
G36*
X128875795Y-165735000D02*
G01*
X126365000Y-168245795D01*
X123854205Y-165735000D01*
X126365000Y-163224205D01*
X128875795Y-165735000D01*
G37*
G36*
X150595400Y-167930400D02*
G01*
X148044600Y-167930400D01*
X148044600Y-166079600D01*
X150595400Y-166079600D01*
X150595400Y-167930400D01*
G37*
G36*
X146595400Y-167930400D02*
G01*
X144044600Y-167930400D01*
X144044600Y-166079600D01*
X146595400Y-166079600D01*
X146595400Y-167930400D01*
G37*
G36*
X128062622Y-160396344D02*
G01*
X128062622Y-160396345D01*
X128168122Y-160501845D01*
X128168122Y-160501844D01*
X128416175Y-160749897D01*
X128416175Y-160749898D01*
X128521676Y-160855399D01*
X128521676Y-160855398D01*
X128769729Y-161103451D01*
X128769729Y-161103452D01*
X128875229Y-161208952D01*
X128875229Y-161208951D01*
X129123282Y-161457004D01*
X129123282Y-161457005D01*
X129228782Y-161562505D01*
X129228782Y-161562504D01*
X129476835Y-161810557D01*
X129476835Y-161810558D01*
X129582336Y-161916059D01*
X129582336Y-161916058D01*
X129830389Y-162164111D01*
X129830389Y-162164112D01*
X129935889Y-162269612D01*
X129935889Y-162269611D01*
X130183942Y-162517664D01*
X130183942Y-162517665D01*
X130289443Y-162623166D01*
X130289443Y-162623165D01*
X130537496Y-162871218D01*
X130537496Y-162871219D01*
X130642996Y-162976719D01*
X130642996Y-162976718D01*
X130891049Y-163224771D01*
X130891049Y-163224772D01*
X130996549Y-163330272D01*
X130996549Y-163330271D01*
X131244602Y-163578324D01*
X131244602Y-163578325D01*
X131350103Y-163683826D01*
X131350103Y-163683825D01*
X131598156Y-163931878D01*
X131598156Y-163931879D01*
X131703656Y-164037379D01*
X131703656Y-164037378D01*
X131951709Y-164285431D01*
X130855128Y-165382012D01*
X130607075Y-165133959D01*
X130607076Y-165133959D01*
X130501576Y-165028459D01*
X130501575Y-165028459D01*
X130253522Y-164780406D01*
X130253523Y-164780406D01*
X130148022Y-164674905D01*
X130148021Y-164674905D01*
X129899968Y-164426852D01*
X129899969Y-164426852D01*
X129794469Y-164321352D01*
X129794468Y-164321352D01*
X129546415Y-164073299D01*
X129546416Y-164073299D01*
X129440916Y-163967799D01*
X129440915Y-163967799D01*
X129192862Y-163719746D01*
X129192863Y-163719746D01*
X129087362Y-163614245D01*
X129087361Y-163614245D01*
X128839308Y-163366192D01*
X128839309Y-163366192D01*
X128733809Y-163260692D01*
X128733808Y-163260692D01*
X128485755Y-163012639D01*
X128485756Y-163012639D01*
X128380255Y-162907138D01*
X128380254Y-162907138D01*
X128132201Y-162659085D01*
X128132202Y-162659085D01*
X128026702Y-162553585D01*
X128026701Y-162553585D01*
X127778648Y-162305532D01*
X127778649Y-162305532D01*
X127673149Y-162200032D01*
X127673148Y-162200032D01*
X127425095Y-161951979D01*
X127425096Y-161951979D01*
X127319595Y-161846478D01*
X127319594Y-161846478D01*
X127071541Y-161598425D01*
X127071542Y-161598425D01*
X126966042Y-161492925D01*
X126966041Y-161492925D01*
X126717988Y-161244872D01*
X127814569Y-160148291D01*
X128062622Y-160396344D01*
G37*
G36*
X126012012Y-161244872D02*
G01*
X121874872Y-165382012D01*
X120778291Y-164285431D01*
X121026344Y-164037378D01*
X121026345Y-164037379D01*
X121131845Y-163931879D01*
X121131844Y-163931878D01*
X121379897Y-163683825D01*
X121379898Y-163683826D01*
X121485399Y-163578325D01*
X121485398Y-163578324D01*
X121733451Y-163330271D01*
X121733452Y-163330272D01*
X121838952Y-163224772D01*
X121838951Y-163224771D01*
X122087004Y-162976718D01*
X122087005Y-162976719D01*
X122192505Y-162871219D01*
X122192504Y-162871218D01*
X122440557Y-162623165D01*
X122440558Y-162623166D01*
X122546059Y-162517665D01*
X122546058Y-162517664D01*
X122794111Y-162269611D01*
X122794112Y-162269612D01*
X122899612Y-162164112D01*
X122899611Y-162164111D01*
X123147664Y-161916058D01*
X123147665Y-161916059D01*
X123253166Y-161810558D01*
X123253165Y-161810557D01*
X123501218Y-161562504D01*
X123501219Y-161562505D01*
X123606719Y-161457005D01*
X123606718Y-161457004D01*
X123854771Y-161208951D01*
X123854772Y-161208952D01*
X123960272Y-161103452D01*
X123960271Y-161103451D01*
X124208324Y-160855398D01*
X124208325Y-160855399D01*
X124313826Y-160749898D01*
X124313825Y-160749897D01*
X124561878Y-160501844D01*
X124561879Y-160501845D01*
X124667379Y-160396345D01*
X124667378Y-160396344D01*
X124915431Y-160148291D01*
X126012012Y-161244872D01*
G37*
G36*
X153694171Y-163108920D02*
G01*
X153730438Y-163119922D01*
X153763868Y-163137790D01*
X153793166Y-163161834D01*
X153817210Y-163191132D01*
X153835078Y-163224562D01*
X153846080Y-163260829D01*
X153850400Y-163304691D01*
X153850400Y-164355309D01*
X153846080Y-164399171D01*
X153835078Y-164435438D01*
X153817210Y-164468868D01*
X153793166Y-164498166D01*
X153763868Y-164522210D01*
X153730438Y-164540078D01*
X153694171Y-164551080D01*
X153650309Y-164555400D01*
X153024691Y-164555400D01*
X152980829Y-164551080D01*
X152944562Y-164540078D01*
X152911132Y-164522210D01*
X152881834Y-164498166D01*
X152857790Y-164468868D01*
X152839922Y-164435438D01*
X152828920Y-164399171D01*
X152824600Y-164355309D01*
X152824600Y-163304691D01*
X152828920Y-163260829D01*
X152839922Y-163224562D01*
X152857790Y-163191132D01*
X152881834Y-163161834D01*
X152911132Y-163137790D01*
X152944562Y-163119922D01*
X152980829Y-163108920D01*
X153024691Y-163104600D01*
X153650309Y-163104600D01*
X153694171Y-163108920D01*
G37*
G36*
X151819171Y-163108920D02*
G01*
X151855438Y-163119922D01*
X151888868Y-163137790D01*
X151918166Y-163161834D01*
X151942210Y-163191132D01*
X151960078Y-163224562D01*
X151971080Y-163260829D01*
X151975400Y-163304691D01*
X151975400Y-164355309D01*
X151971080Y-164399171D01*
X151960078Y-164435438D01*
X151942210Y-164468868D01*
X151918166Y-164498166D01*
X151888868Y-164522210D01*
X151855438Y-164540078D01*
X151819171Y-164551080D01*
X151775309Y-164555400D01*
X151149691Y-164555400D01*
X151105829Y-164551080D01*
X151069562Y-164540078D01*
X151036132Y-164522210D01*
X151006834Y-164498166D01*
X150982790Y-164468868D01*
X150964922Y-164435438D01*
X150953920Y-164399171D01*
X150949600Y-164355309D01*
X150949600Y-163304691D01*
X150953920Y-163260829D01*
X150964922Y-163224562D01*
X150982790Y-163191132D01*
X151006834Y-163161834D01*
X151036132Y-163137790D01*
X151069562Y-163119922D01*
X151105829Y-163108920D01*
X151149691Y-163104600D01*
X151775309Y-163104600D01*
X151819171Y-163108920D01*
G37*
G36*
X148620400Y-164215400D02*
G01*
X146019600Y-164215400D01*
X146019600Y-163104600D01*
X148620400Y-163104600D01*
X148620400Y-164215400D01*
G37*
G36*
X143874292Y-162888439D02*
G01*
X143905872Y-162898019D01*
X143934978Y-162913577D01*
X143960488Y-162934512D01*
X143981423Y-162960022D01*
X143996981Y-162989128D01*
X144006561Y-163020708D01*
X144010400Y-163059690D01*
X144010400Y-163635310D01*
X144006561Y-163674292D01*
X143996981Y-163705872D01*
X143981423Y-163734978D01*
X143960488Y-163760488D01*
X143934978Y-163781423D01*
X143905872Y-163796981D01*
X143874292Y-163806561D01*
X143835310Y-163810400D01*
X143184690Y-163810400D01*
X143145708Y-163806561D01*
X143114128Y-163796981D01*
X143085022Y-163781423D01*
X143059512Y-163760488D01*
X143038577Y-163734978D01*
X143023019Y-163705872D01*
X143013439Y-163674292D01*
X143009600Y-163635310D01*
X143009600Y-163059690D01*
X143013439Y-163020708D01*
X143023019Y-162989128D01*
X143038577Y-162960022D01*
X143059512Y-162934512D01*
X143085022Y-162913577D01*
X143114128Y-162898019D01*
X143145708Y-162888439D01*
X143184690Y-162884600D01*
X143835310Y-162884600D01*
X143874292Y-162888439D01*
G37*
G36*
X141969292Y-162888439D02*
G01*
X142000872Y-162898019D01*
X142029978Y-162913577D01*
X142055488Y-162934512D01*
X142076423Y-162960022D01*
X142091981Y-162989128D01*
X142101561Y-163020708D01*
X142105400Y-163059690D01*
X142105400Y-163635310D01*
X142101561Y-163674292D01*
X142091981Y-163705872D01*
X142076423Y-163734978D01*
X142055488Y-163760488D01*
X142029978Y-163781423D01*
X142000872Y-163796981D01*
X141969292Y-163806561D01*
X141930310Y-163810400D01*
X141279690Y-163810400D01*
X141240708Y-163806561D01*
X141209128Y-163796981D01*
X141180022Y-163781423D01*
X141154512Y-163760488D01*
X141133577Y-163734978D01*
X141118019Y-163705872D01*
X141108439Y-163674292D01*
X141104600Y-163635310D01*
X141104600Y-163059690D01*
X141108439Y-163020708D01*
X141118019Y-162989128D01*
X141133577Y-162960022D01*
X141154512Y-162934512D01*
X141180022Y-162913577D01*
X141209128Y-162898019D01*
X141240708Y-162888439D01*
X141279690Y-162884600D01*
X141930310Y-162884600D01*
X141969292Y-162888439D01*
G37*
G36*
X141969292Y-161313439D02*
G01*
X142000872Y-161323019D01*
X142029978Y-161338577D01*
X142055488Y-161359512D01*
X142076423Y-161385022D01*
X142091981Y-161414128D01*
X142101561Y-161445708D01*
X142105400Y-161484690D01*
X142105400Y-162060310D01*
X142101561Y-162099292D01*
X142091981Y-162130872D01*
X142076423Y-162159978D01*
X142055488Y-162185488D01*
X142029978Y-162206423D01*
X142000872Y-162221981D01*
X141969292Y-162231561D01*
X141930310Y-162235400D01*
X141279690Y-162235400D01*
X141240708Y-162231561D01*
X141209128Y-162221981D01*
X141180022Y-162206423D01*
X141154512Y-162185488D01*
X141133577Y-162159978D01*
X141118019Y-162130872D01*
X141108439Y-162099292D01*
X141104600Y-162060310D01*
X141104600Y-161484690D01*
X141108439Y-161445708D01*
X141118019Y-161414128D01*
X141133577Y-161385022D01*
X141154512Y-161359512D01*
X141180022Y-161338577D01*
X141209128Y-161323019D01*
X141240708Y-161313439D01*
X141279690Y-161309600D01*
X141930310Y-161309600D01*
X141969292Y-161313439D01*
G37*
G36*
X143874292Y-161313439D02*
G01*
X143905872Y-161323019D01*
X143934978Y-161338577D01*
X143960488Y-161359512D01*
X143981423Y-161385022D01*
X143996981Y-161414128D01*
X144006561Y-161445708D01*
X144010400Y-161484690D01*
X144010400Y-162060310D01*
X144006561Y-162099292D01*
X143996981Y-162130872D01*
X143981423Y-162159978D01*
X143960488Y-162185488D01*
X143934978Y-162206423D01*
X143905872Y-162221981D01*
X143874292Y-162231561D01*
X143835310Y-162235400D01*
X143184690Y-162235400D01*
X143145708Y-162231561D01*
X143114128Y-162221981D01*
X143085022Y-162206423D01*
X143059512Y-162185488D01*
X143038577Y-162159978D01*
X143023019Y-162130872D01*
X143013439Y-162099292D01*
X143009600Y-162060310D01*
X143009600Y-161484690D01*
X143013439Y-161445708D01*
X143023019Y-161414128D01*
X143038577Y-161385022D01*
X143059512Y-161359512D01*
X143085022Y-161338577D01*
X143114128Y-161323019D01*
X143145708Y-161313439D01*
X143184690Y-161309600D01*
X143835310Y-161309600D01*
X143874292Y-161313439D01*
G37*
G36*
X146720400Y-162015400D02*
G01*
X146019600Y-162015400D01*
X146019600Y-160904600D01*
X146720400Y-160904600D01*
X146720400Y-162015400D01*
G37*
G36*
X148620400Y-162015400D02*
G01*
X147919600Y-162015400D01*
X147919600Y-160904600D01*
X148620400Y-160904600D01*
X148620400Y-162015400D01*
G37*
G36*
X151819171Y-160568920D02*
G01*
X151855438Y-160579922D01*
X151888868Y-160597790D01*
X151918166Y-160621834D01*
X151942210Y-160651132D01*
X151960078Y-160684562D01*
X151971080Y-160720829D01*
X151975400Y-160764691D01*
X151975400Y-161815309D01*
X151971080Y-161859171D01*
X151960078Y-161895438D01*
X151942210Y-161928868D01*
X151918166Y-161958166D01*
X151888868Y-161982210D01*
X151855438Y-162000078D01*
X151819171Y-162011080D01*
X151775309Y-162015400D01*
X151149691Y-162015400D01*
X151105829Y-162011080D01*
X151069562Y-162000078D01*
X151036132Y-161982210D01*
X151006834Y-161958166D01*
X150982790Y-161928868D01*
X150964922Y-161895438D01*
X150953920Y-161859171D01*
X150949600Y-161815309D01*
X150949600Y-160764691D01*
X150953920Y-160720829D01*
X150964922Y-160684562D01*
X150982790Y-160651132D01*
X151006834Y-160621834D01*
X151036132Y-160597790D01*
X151069562Y-160579922D01*
X151105829Y-160568920D01*
X151149691Y-160564600D01*
X151775309Y-160564600D01*
X151819171Y-160568920D01*
G37*
G36*
X153694171Y-160568920D02*
G01*
X153730438Y-160579922D01*
X153763868Y-160597790D01*
X153793166Y-160621834D01*
X153817210Y-160651132D01*
X153835078Y-160684562D01*
X153846080Y-160720829D01*
X153850400Y-160764691D01*
X153850400Y-161815309D01*
X153846080Y-161859171D01*
X153835078Y-161895438D01*
X153817210Y-161928868D01*
X153793166Y-161958166D01*
X153763868Y-161982210D01*
X153730438Y-162000078D01*
X153694171Y-162011080D01*
X153650309Y-162015400D01*
X153024691Y-162015400D01*
X152980829Y-162011080D01*
X152944562Y-162000078D01*
X152911132Y-161982210D01*
X152881834Y-161958166D01*
X152857790Y-161928868D01*
X152839922Y-161895438D01*
X152828920Y-161859171D01*
X152824600Y-161815309D01*
X152824600Y-160764691D01*
X152828920Y-160720829D01*
X152839922Y-160684562D01*
X152857790Y-160651132D01*
X152881834Y-160621834D01*
X152911132Y-160597790D01*
X152944562Y-160579922D01*
X152980829Y-160568920D01*
X153024691Y-160564600D01*
X153650309Y-160564600D01*
X153694171Y-160568920D01*
G37*
G36*
X131529478Y-160604511D02*
G01*
X131561058Y-160614091D01*
X131590164Y-160629649D01*
X131620438Y-160654494D01*
X131660290Y-160694346D01*
X131660296Y-160694351D01*
X132040649Y-161074704D01*
X132040654Y-161074710D01*
X132080506Y-161114562D01*
X132105351Y-161144836D01*
X132120909Y-161173942D01*
X132130489Y-161205522D01*
X132133723Y-161238364D01*
X132130489Y-161271206D01*
X132120909Y-161302786D01*
X132105351Y-161331892D01*
X132080506Y-161362166D01*
X132040654Y-161402018D01*
X132040649Y-161402024D01*
X131713330Y-161729343D01*
X131713324Y-161729348D01*
X131673472Y-161769200D01*
X131643198Y-161794045D01*
X131614092Y-161809603D01*
X131582512Y-161819183D01*
X131549670Y-161822417D01*
X131516828Y-161819183D01*
X131485248Y-161809603D01*
X131456142Y-161794045D01*
X131425868Y-161769200D01*
X131386016Y-161729348D01*
X131386010Y-161729343D01*
X131005657Y-161348990D01*
X131005652Y-161348984D01*
X130965800Y-161309132D01*
X130940955Y-161278858D01*
X130925397Y-161249752D01*
X130915817Y-161218172D01*
X130912583Y-161185330D01*
X130915817Y-161152488D01*
X130925397Y-161120908D01*
X130940955Y-161091802D01*
X130965800Y-161061528D01*
X131005652Y-161021676D01*
X131005657Y-161021670D01*
X131332976Y-160694351D01*
X131332982Y-160694346D01*
X131372834Y-160654494D01*
X131403108Y-160629649D01*
X131432214Y-160614091D01*
X131463794Y-160604511D01*
X131496636Y-160601277D01*
X131529478Y-160604511D01*
G37*
G36*
X132643172Y-159490817D02*
G01*
X132674752Y-159500397D01*
X132703858Y-159515955D01*
X132734132Y-159540800D01*
X132773984Y-159580652D01*
X132773990Y-159580657D01*
X133154343Y-159961010D01*
X133154348Y-159961016D01*
X133194200Y-160000868D01*
X133219045Y-160031142D01*
X133234603Y-160060248D01*
X133244183Y-160091828D01*
X133247417Y-160124670D01*
X133244183Y-160157512D01*
X133234603Y-160189092D01*
X133219045Y-160218198D01*
X133194200Y-160248472D01*
X133154348Y-160288324D01*
X133154343Y-160288330D01*
X132827024Y-160615649D01*
X132827018Y-160615654D01*
X132787166Y-160655506D01*
X132756892Y-160680351D01*
X132727786Y-160695909D01*
X132696206Y-160705489D01*
X132663364Y-160708723D01*
X132630522Y-160705489D01*
X132598942Y-160695909D01*
X132569836Y-160680351D01*
X132539562Y-160655506D01*
X132499710Y-160615654D01*
X132499704Y-160615649D01*
X132119351Y-160235296D01*
X132119346Y-160235290D01*
X132079494Y-160195438D01*
X132054649Y-160165164D01*
X132039091Y-160136058D01*
X132029511Y-160104478D01*
X132026277Y-160071636D01*
X132029511Y-160038794D01*
X132039091Y-160007214D01*
X132054649Y-159978108D01*
X132079494Y-159947834D01*
X132119346Y-159907982D01*
X132119351Y-159907976D01*
X132446670Y-159580657D01*
X132446676Y-159580652D01*
X132486528Y-159540800D01*
X132516802Y-159515955D01*
X132545908Y-159500397D01*
X132577488Y-159490817D01*
X132610330Y-159487583D01*
X132643172Y-159490817D01*
G37*
G36*
X130259478Y-158699511D02*
G01*
X130291058Y-158709091D01*
X130320164Y-158724649D01*
X130350438Y-158749494D01*
X130390290Y-158789346D01*
X130390296Y-158789351D01*
X130770649Y-159169704D01*
X130770654Y-159169710D01*
X130810506Y-159209562D01*
X130835351Y-159239836D01*
X130850909Y-159268942D01*
X130860489Y-159300522D01*
X130863723Y-159333364D01*
X130860489Y-159366206D01*
X130850909Y-159397786D01*
X130835351Y-159426892D01*
X130810506Y-159457166D01*
X130770654Y-159497018D01*
X130770649Y-159497024D01*
X130443330Y-159824343D01*
X130443324Y-159824348D01*
X130403472Y-159864200D01*
X130373198Y-159889045D01*
X130344092Y-159904603D01*
X130312512Y-159914183D01*
X130279670Y-159917417D01*
X130246828Y-159914183D01*
X130215248Y-159904603D01*
X130186142Y-159889045D01*
X130155868Y-159864200D01*
X130116016Y-159824348D01*
X130116010Y-159824343D01*
X129735657Y-159443990D01*
X129735652Y-159443984D01*
X129695800Y-159404132D01*
X129670955Y-159373858D01*
X129655397Y-159344752D01*
X129645817Y-159313172D01*
X129642583Y-159280330D01*
X129645817Y-159247488D01*
X129655397Y-159215908D01*
X129670955Y-159186802D01*
X129695800Y-159156528D01*
X129735652Y-159116676D01*
X129735657Y-159116670D01*
X130062976Y-158789351D01*
X130062982Y-158789346D01*
X130102834Y-158749494D01*
X130133108Y-158724649D01*
X130162214Y-158709091D01*
X130193794Y-158699511D01*
X130226636Y-158696277D01*
X130259478Y-158699511D01*
G37*
G36*
X131373172Y-157585817D02*
G01*
X131404752Y-157595397D01*
X131433858Y-157610955D01*
X131464132Y-157635800D01*
X131503984Y-157675652D01*
X131503990Y-157675657D01*
X131884343Y-158056010D01*
X131884348Y-158056016D01*
X131924200Y-158095868D01*
X131949045Y-158126142D01*
X131964603Y-158155248D01*
X131974183Y-158186828D01*
X131977417Y-158219670D01*
X131974183Y-158252512D01*
X131964603Y-158284092D01*
X131949045Y-158313198D01*
X131924200Y-158343472D01*
X131884348Y-158383324D01*
X131884343Y-158383330D01*
X131557024Y-158710649D01*
X131557018Y-158710654D01*
X131517166Y-158750506D01*
X131486892Y-158775351D01*
X131457786Y-158790909D01*
X131426206Y-158800489D01*
X131393364Y-158803723D01*
X131360522Y-158800489D01*
X131328942Y-158790909D01*
X131299836Y-158775351D01*
X131269562Y-158750506D01*
X131229710Y-158710654D01*
X131229704Y-158710649D01*
X130849351Y-158330296D01*
X130849346Y-158330290D01*
X130809494Y-158290438D01*
X130784649Y-158260164D01*
X130769091Y-158231058D01*
X130759511Y-158199478D01*
X130756277Y-158166636D01*
X130759511Y-158133794D01*
X130769091Y-158102214D01*
X130784649Y-158073108D01*
X130809494Y-158042834D01*
X130849346Y-158002982D01*
X130849351Y-158002976D01*
X131176670Y-157675657D01*
X131176676Y-157675652D01*
X131216528Y-157635800D01*
X131246802Y-157610955D01*
X131275908Y-157595397D01*
X131307488Y-157585817D01*
X131340330Y-157582583D01*
X131373172Y-157585817D01*
G37*
G36*
X92554293Y-151268439D02*
G01*
X92585873Y-151278019D01*
X92614979Y-151293577D01*
X92640489Y-151314512D01*
X92661424Y-151340022D01*
X92676982Y-151369128D01*
X92686562Y-151400708D01*
X92690401Y-151439690D01*
X92690401Y-152090310D01*
X92686562Y-152129292D01*
X92676982Y-152160872D01*
X92661424Y-152189978D01*
X92640489Y-152215488D01*
X92614979Y-152236423D01*
X92585873Y-152251981D01*
X92554293Y-152261561D01*
X92515311Y-152265400D01*
X91939691Y-152265400D01*
X91900709Y-152261561D01*
X91869129Y-152251981D01*
X91840023Y-152236423D01*
X91814513Y-152215488D01*
X91793578Y-152189978D01*
X91778020Y-152160872D01*
X91768440Y-152129292D01*
X91764601Y-152090310D01*
X91764601Y-151439690D01*
X91768440Y-151400708D01*
X91778020Y-151369128D01*
X91793578Y-151340022D01*
X91814513Y-151314512D01*
X91840023Y-151293577D01*
X91869129Y-151278019D01*
X91900709Y-151268439D01*
X91939691Y-151264600D01*
X92515311Y-151264600D01*
X92554293Y-151268439D01*
G37*
G36*
X90979293Y-151268439D02*
G01*
X91010873Y-151278019D01*
X91039979Y-151293577D01*
X91065489Y-151314512D01*
X91086424Y-151340022D01*
X91101982Y-151369128D01*
X91111562Y-151400708D01*
X91115401Y-151439690D01*
X91115401Y-152090310D01*
X91111562Y-152129292D01*
X91101982Y-152160872D01*
X91086424Y-152189978D01*
X91065489Y-152215488D01*
X91039979Y-152236423D01*
X91010873Y-152251981D01*
X90979293Y-152261561D01*
X90940311Y-152265400D01*
X90364691Y-152265400D01*
X90325709Y-152261561D01*
X90294129Y-152251981D01*
X90265023Y-152236423D01*
X90239513Y-152215488D01*
X90218578Y-152189978D01*
X90203020Y-152160872D01*
X90193440Y-152129292D01*
X90189601Y-152090310D01*
X90189601Y-151439690D01*
X90193440Y-151400708D01*
X90203020Y-151369128D01*
X90218578Y-151340022D01*
X90239513Y-151314512D01*
X90265023Y-151293577D01*
X90294129Y-151278019D01*
X90325709Y-151268439D01*
X90364691Y-151264600D01*
X90940311Y-151264600D01*
X90979293Y-151268439D01*
G37*
G36*
X91540020Y-148260277D02*
G01*
X91592439Y-148281990D01*
X91602424Y-148286126D01*
X91658586Y-148323652D01*
X91706348Y-148371414D01*
X91743874Y-148427576D01*
X91743875Y-148427578D01*
X91769723Y-148489980D01*
X91782900Y-148556226D01*
X91782900Y-148623774D01*
X91769723Y-148690019D01*
X91740068Y-148761613D01*
X91732955Y-148785062D01*
X91730553Y-148809448D01*
X91732955Y-148833834D01*
X91740068Y-148857283D01*
X91751619Y-148878894D01*
X91767164Y-148897836D01*
X91786106Y-148913381D01*
X91807717Y-148924932D01*
X91831166Y-148932045D01*
X91855552Y-148934447D01*
X91879938Y-148932045D01*
X91903387Y-148924932D01*
X91974981Y-148895277D01*
X92041226Y-148882100D01*
X92108774Y-148882100D01*
X92175020Y-148895277D01*
X92234037Y-148919723D01*
X92237424Y-148921126D01*
X92293586Y-148958652D01*
X92341348Y-149006414D01*
X92357066Y-149029938D01*
X92378875Y-149062578D01*
X92404723Y-149124980D01*
X92417900Y-149191226D01*
X92417900Y-149258774D01*
X92404723Y-149325020D01*
X92378875Y-149387422D01*
X92378874Y-149387424D01*
X92341348Y-149443586D01*
X92293586Y-149491348D01*
X92237424Y-149528874D01*
X92237423Y-149528875D01*
X92237422Y-149528875D01*
X92175020Y-149554723D01*
X92108774Y-149567900D01*
X92041226Y-149567900D01*
X91974980Y-149554723D01*
X91912578Y-149528875D01*
X91912577Y-149528875D01*
X91912576Y-149528874D01*
X91856414Y-149491348D01*
X91808652Y-149443586D01*
X91771126Y-149387424D01*
X91771125Y-149387422D01*
X91745277Y-149325020D01*
X91732100Y-149258774D01*
X91732100Y-149191226D01*
X91745277Y-149124981D01*
X91774932Y-149053387D01*
X91782045Y-149029938D01*
X91784447Y-149005552D01*
X91782045Y-148981166D01*
X91774932Y-148957717D01*
X91763381Y-148936106D01*
X91747836Y-148917164D01*
X91728894Y-148901619D01*
X91707283Y-148890068D01*
X91683834Y-148882955D01*
X91659448Y-148880553D01*
X91635062Y-148882955D01*
X91611613Y-148890068D01*
X91540019Y-148919723D01*
X91473774Y-148932900D01*
X91406226Y-148932900D01*
X91339981Y-148919723D01*
X91268387Y-148890068D01*
X91244938Y-148882955D01*
X91220552Y-148880553D01*
X91196166Y-148882955D01*
X91172717Y-148890068D01*
X91151106Y-148901619D01*
X91132164Y-148917164D01*
X91116619Y-148936106D01*
X91105068Y-148957717D01*
X91097955Y-148981166D01*
X91095553Y-149005552D01*
X91097955Y-149029938D01*
X91105068Y-149053387D01*
X91134723Y-149124981D01*
X91147900Y-149191226D01*
X91147900Y-149258774D01*
X91134723Y-149325020D01*
X91108875Y-149387422D01*
X91108874Y-149387424D01*
X91071348Y-149443586D01*
X91023586Y-149491348D01*
X90967424Y-149528874D01*
X90967423Y-149528875D01*
X90967422Y-149528875D01*
X90905020Y-149554723D01*
X90838774Y-149567900D01*
X90771226Y-149567900D01*
X90704980Y-149554723D01*
X90642578Y-149528875D01*
X90642577Y-149528875D01*
X90642576Y-149528874D01*
X90586414Y-149491348D01*
X90538652Y-149443586D01*
X90501126Y-149387424D01*
X90501125Y-149387422D01*
X90475277Y-149325020D01*
X90462100Y-149258774D01*
X90462100Y-149191226D01*
X90475277Y-149124980D01*
X90501125Y-149062578D01*
X90522934Y-149029938D01*
X90538652Y-149006414D01*
X90586414Y-148958652D01*
X90642576Y-148921126D01*
X90645963Y-148919723D01*
X90704980Y-148895277D01*
X90771226Y-148882100D01*
X90838774Y-148882100D01*
X90905019Y-148895277D01*
X90976613Y-148924932D01*
X91000062Y-148932045D01*
X91024448Y-148934447D01*
X91048834Y-148932045D01*
X91072283Y-148924932D01*
X91093894Y-148913381D01*
X91112836Y-148897836D01*
X91128381Y-148878894D01*
X91139932Y-148857283D01*
X91147045Y-148833834D01*
X91149447Y-148809448D01*
X91147045Y-148785062D01*
X91139932Y-148761613D01*
X91110277Y-148690019D01*
X91097100Y-148623774D01*
X91097100Y-148556226D01*
X91110277Y-148489980D01*
X91136125Y-148427578D01*
X91136126Y-148427576D01*
X91173652Y-148371414D01*
X91221414Y-148323652D01*
X91277576Y-148286126D01*
X91287561Y-148281990D01*
X91339980Y-148260277D01*
X91406226Y-148247100D01*
X91473774Y-148247100D01*
X91540020Y-148260277D01*
G37*
G36*
X117477628Y-148267118D02*
G01*
X117496314Y-148272786D01*
X117513533Y-148281990D01*
X117528625Y-148294375D01*
X117541010Y-148309467D01*
X117550214Y-148326686D01*
X117555882Y-148345372D01*
X117558400Y-148370940D01*
X117558400Y-148809060D01*
X117555882Y-148834628D01*
X117550214Y-148853314D01*
X117541010Y-148870533D01*
X117528625Y-148885625D01*
X117513533Y-148898010D01*
X117496314Y-148907214D01*
X117477628Y-148912882D01*
X117452060Y-148915400D01*
X115563940Y-148915400D01*
X115538372Y-148912882D01*
X115519686Y-148907214D01*
X115502467Y-148898010D01*
X115487375Y-148885625D01*
X115474990Y-148870533D01*
X115465786Y-148853314D01*
X115460118Y-148834628D01*
X115457600Y-148809060D01*
X115457600Y-148370940D01*
X115460118Y-148345372D01*
X115465786Y-148326686D01*
X115474990Y-148309467D01*
X115487375Y-148294375D01*
X115502467Y-148281990D01*
X115519686Y-148272786D01*
X115538372Y-148267118D01*
X115563940Y-148264600D01*
X117452060Y-148264600D01*
X117477628Y-148267118D01*
G37*
G36*
X126777628Y-148267118D02*
G01*
X126796314Y-148272786D01*
X126813533Y-148281990D01*
X126828625Y-148294375D01*
X126841010Y-148309467D01*
X126850214Y-148326686D01*
X126855882Y-148345372D01*
X126858400Y-148370940D01*
X126858400Y-148809060D01*
X126855882Y-148834628D01*
X126850214Y-148853314D01*
X126841010Y-148870533D01*
X126828625Y-148885625D01*
X126813533Y-148898010D01*
X126796314Y-148907214D01*
X126777628Y-148912882D01*
X126752060Y-148915400D01*
X124863940Y-148915400D01*
X124838372Y-148912882D01*
X124819686Y-148907214D01*
X124802467Y-148898010D01*
X124787375Y-148885625D01*
X124774990Y-148870533D01*
X124765786Y-148853314D01*
X124760118Y-148834628D01*
X124757600Y-148809060D01*
X124757600Y-148370940D01*
X124760118Y-148345372D01*
X124765786Y-148326686D01*
X124774990Y-148309467D01*
X124787375Y-148294375D01*
X124802467Y-148281990D01*
X124819686Y-148272786D01*
X124838372Y-148267118D01*
X124863940Y-148264600D01*
X126752060Y-148264600D01*
X126777628Y-148267118D01*
G37*
G36*
X111807292Y-146823439D02*
G01*
X111838872Y-146833019D01*
X111867978Y-146848577D01*
X111893488Y-146869512D01*
X111914423Y-146895022D01*
X111929981Y-146924128D01*
X111939561Y-146955708D01*
X111943400Y-146994690D01*
X111943400Y-147645310D01*
X111939561Y-147684292D01*
X111929981Y-147715872D01*
X111914423Y-147744978D01*
X111893488Y-147770488D01*
X111867978Y-147791423D01*
X111838872Y-147806981D01*
X111807292Y-147816561D01*
X111768310Y-147820400D01*
X111192690Y-147820400D01*
X111153708Y-147816561D01*
X111122128Y-147806981D01*
X111093022Y-147791423D01*
X111067512Y-147770488D01*
X111046577Y-147744978D01*
X111031019Y-147715872D01*
X111021439Y-147684292D01*
X111017600Y-147645310D01*
X111017600Y-146994690D01*
X111021439Y-146955708D01*
X111031019Y-146924128D01*
X111046577Y-146895022D01*
X111067512Y-146869512D01*
X111093022Y-146848577D01*
X111122128Y-146833019D01*
X111153708Y-146823439D01*
X111192690Y-146819600D01*
X111768310Y-146819600D01*
X111807292Y-146823439D01*
G37*
G36*
X113382292Y-146823439D02*
G01*
X113413872Y-146833019D01*
X113442978Y-146848577D01*
X113468488Y-146869512D01*
X113489423Y-146895022D01*
X113504981Y-146924128D01*
X113514561Y-146955708D01*
X113518400Y-146994690D01*
X113518400Y-147645310D01*
X113514561Y-147684292D01*
X113504981Y-147715872D01*
X113489423Y-147744978D01*
X113468488Y-147770488D01*
X113442978Y-147791423D01*
X113413872Y-147806981D01*
X113382292Y-147816561D01*
X113343310Y-147820400D01*
X112767690Y-147820400D01*
X112728708Y-147816561D01*
X112697128Y-147806981D01*
X112668022Y-147791423D01*
X112642512Y-147770488D01*
X112621577Y-147744978D01*
X112606019Y-147715872D01*
X112596439Y-147684292D01*
X112592600Y-147645310D01*
X112592600Y-146994690D01*
X112596439Y-146955708D01*
X112606019Y-146924128D01*
X112621577Y-146895022D01*
X112642512Y-146869512D01*
X112668022Y-146848577D01*
X112697128Y-146833019D01*
X112728708Y-146823439D01*
X112767690Y-146819600D01*
X113343310Y-146819600D01*
X113382292Y-146823439D01*
G37*
G36*
X117477628Y-146997118D02*
G01*
X117496314Y-147002786D01*
X117513533Y-147011990D01*
X117528625Y-147024375D01*
X117541010Y-147039467D01*
X117550214Y-147056686D01*
X117555882Y-147075372D01*
X117558400Y-147100940D01*
X117558400Y-147539060D01*
X117555882Y-147564628D01*
X117550214Y-147583314D01*
X117541010Y-147600533D01*
X117528625Y-147615625D01*
X117513533Y-147628010D01*
X117496314Y-147637214D01*
X117477628Y-147642882D01*
X117452060Y-147645400D01*
X115563940Y-147645400D01*
X115538372Y-147642882D01*
X115519686Y-147637214D01*
X115502467Y-147628010D01*
X115487375Y-147615625D01*
X115474990Y-147600533D01*
X115465786Y-147583314D01*
X115460118Y-147564628D01*
X115457600Y-147539060D01*
X115457600Y-147100940D01*
X115460118Y-147075372D01*
X115465786Y-147056686D01*
X115474990Y-147039467D01*
X115487375Y-147024375D01*
X115502467Y-147011990D01*
X115519686Y-147002786D01*
X115538372Y-146997118D01*
X115563940Y-146994600D01*
X117452060Y-146994600D01*
X117477628Y-146997118D01*
G37*
G36*
X126777628Y-146997118D02*
G01*
X126796314Y-147002786D01*
X126813533Y-147011990D01*
X126828625Y-147024375D01*
X126841010Y-147039467D01*
X126850214Y-147056686D01*
X126855882Y-147075372D01*
X126858400Y-147100940D01*
X126858400Y-147539060D01*
X126855882Y-147564628D01*
X126850214Y-147583314D01*
X126841010Y-147600533D01*
X126828625Y-147615625D01*
X126813533Y-147628010D01*
X126796314Y-147637214D01*
X126777628Y-147642882D01*
X126752060Y-147645400D01*
X124863940Y-147645400D01*
X124838372Y-147642882D01*
X124819686Y-147637214D01*
X124802467Y-147628010D01*
X124787375Y-147615625D01*
X124774990Y-147600533D01*
X124765786Y-147583314D01*
X124760118Y-147564628D01*
X124757600Y-147539060D01*
X124757600Y-147100940D01*
X124760118Y-147075372D01*
X124765786Y-147056686D01*
X124774990Y-147039467D01*
X124787375Y-147024375D01*
X124802467Y-147011990D01*
X124819686Y-147002786D01*
X124838372Y-146997118D01*
X124863940Y-146994600D01*
X126752060Y-146994600D01*
X126777628Y-146997118D01*
G37*
G36*
X126777628Y-145727118D02*
G01*
X126796314Y-145732786D01*
X126813533Y-145741990D01*
X126828625Y-145754375D01*
X126841010Y-145769467D01*
X126850214Y-145786686D01*
X126855882Y-145805372D01*
X126858400Y-145830940D01*
X126858400Y-146269060D01*
X126855882Y-146294628D01*
X126850214Y-146313314D01*
X126841010Y-146330533D01*
X126828625Y-146345625D01*
X126813533Y-146358010D01*
X126796314Y-146367214D01*
X126777628Y-146372882D01*
X126752060Y-146375400D01*
X124863940Y-146375400D01*
X124838372Y-146372882D01*
X124819686Y-146367214D01*
X124802467Y-146358010D01*
X124787375Y-146345625D01*
X124774990Y-146330533D01*
X124765786Y-146313314D01*
X124760118Y-146294628D01*
X124757600Y-146269060D01*
X124757600Y-145830940D01*
X124760118Y-145805372D01*
X124765786Y-145786686D01*
X124774990Y-145769467D01*
X124787375Y-145754375D01*
X124802467Y-145741990D01*
X124819686Y-145732786D01*
X124838372Y-145727118D01*
X124863940Y-145724600D01*
X126752060Y-145724600D01*
X126777628Y-145727118D01*
G37*
G36*
X117477628Y-145727118D02*
G01*
X117496314Y-145732786D01*
X117513533Y-145741990D01*
X117528625Y-145754375D01*
X117541010Y-145769467D01*
X117550214Y-145786686D01*
X117555882Y-145805372D01*
X117558400Y-145830940D01*
X117558400Y-146269060D01*
X117555882Y-146294628D01*
X117550214Y-146313314D01*
X117541010Y-146330533D01*
X117528625Y-146345625D01*
X117513533Y-146358010D01*
X117496314Y-146367214D01*
X117477628Y-146372882D01*
X117452060Y-146375400D01*
X115563940Y-146375400D01*
X115538372Y-146372882D01*
X115519686Y-146367214D01*
X115502467Y-146358010D01*
X115487375Y-146345625D01*
X115474990Y-146330533D01*
X115465786Y-146313314D01*
X115460118Y-146294628D01*
X115457600Y-146269060D01*
X115457600Y-145830940D01*
X115460118Y-145805372D01*
X115465786Y-145786686D01*
X115474990Y-145769467D01*
X115487375Y-145754375D01*
X115502467Y-145741990D01*
X115519686Y-145732786D01*
X115538372Y-145727118D01*
X115563940Y-145724600D01*
X117452060Y-145724600D01*
X117477628Y-145727118D01*
G37*
G36*
X113382292Y-144918439D02*
G01*
X113413872Y-144928019D01*
X113442978Y-144943577D01*
X113468488Y-144964512D01*
X113489423Y-144990022D01*
X113504981Y-145019128D01*
X113514561Y-145050708D01*
X113518400Y-145089690D01*
X113518400Y-145740310D01*
X113514561Y-145779292D01*
X113504981Y-145810872D01*
X113489423Y-145839978D01*
X113468488Y-145865488D01*
X113442978Y-145886423D01*
X113413872Y-145901981D01*
X113382292Y-145911561D01*
X113343310Y-145915400D01*
X112767690Y-145915400D01*
X112728708Y-145911561D01*
X112697128Y-145901981D01*
X112668022Y-145886423D01*
X112642512Y-145865488D01*
X112621577Y-145839978D01*
X112606019Y-145810872D01*
X112596439Y-145779292D01*
X112592600Y-145740310D01*
X112592600Y-145089690D01*
X112596439Y-145050708D01*
X112606019Y-145019128D01*
X112621577Y-144990022D01*
X112642512Y-144964512D01*
X112668022Y-144943577D01*
X112697128Y-144928019D01*
X112728708Y-144918439D01*
X112767690Y-144914600D01*
X113343310Y-144914600D01*
X113382292Y-144918439D01*
G37*
G36*
X111807292Y-144918439D02*
G01*
X111838872Y-144928019D01*
X111867978Y-144943577D01*
X111893488Y-144964512D01*
X111914423Y-144990022D01*
X111929981Y-145019128D01*
X111939561Y-145050708D01*
X111943400Y-145089690D01*
X111943400Y-145740310D01*
X111939561Y-145779292D01*
X111929981Y-145810872D01*
X111914423Y-145839978D01*
X111893488Y-145865488D01*
X111867978Y-145886423D01*
X111838872Y-145901981D01*
X111807292Y-145911561D01*
X111768310Y-145915400D01*
X111192690Y-145915400D01*
X111153708Y-145911561D01*
X111122128Y-145901981D01*
X111093022Y-145886423D01*
X111067512Y-145865488D01*
X111046577Y-145839978D01*
X111031019Y-145810872D01*
X111021439Y-145779292D01*
X111017600Y-145740310D01*
X111017600Y-145089690D01*
X111021439Y-145050708D01*
X111031019Y-145019128D01*
X111046577Y-144990022D01*
X111067512Y-144964512D01*
X111093022Y-144943577D01*
X111122128Y-144928019D01*
X111153708Y-144918439D01*
X111192690Y-144914600D01*
X111768310Y-144914600D01*
X111807292Y-144918439D01*
G37*
G36*
X126777628Y-144457118D02*
G01*
X126796314Y-144462786D01*
X126813533Y-144471990D01*
X126828625Y-144484375D01*
X126841010Y-144499467D01*
X126850214Y-144516686D01*
X126855882Y-144535372D01*
X126858400Y-144560940D01*
X126858400Y-144999060D01*
X126855882Y-145024628D01*
X126850214Y-145043314D01*
X126841010Y-145060533D01*
X126828625Y-145075625D01*
X126813533Y-145088010D01*
X126796314Y-145097214D01*
X126777628Y-145102882D01*
X126752060Y-145105400D01*
X124863940Y-145105400D01*
X124838372Y-145102882D01*
X124819686Y-145097214D01*
X124802467Y-145088010D01*
X124787375Y-145075625D01*
X124774990Y-145060533D01*
X124765786Y-145043314D01*
X124760118Y-145024628D01*
X124757600Y-144999060D01*
X124757600Y-144560940D01*
X124760118Y-144535372D01*
X124765786Y-144516686D01*
X124774990Y-144499467D01*
X124787375Y-144484375D01*
X124802467Y-144471990D01*
X124819686Y-144462786D01*
X124838372Y-144457118D01*
X124863940Y-144454600D01*
X126752060Y-144454600D01*
X126777628Y-144457118D01*
G37*
G36*
X117477628Y-144457118D02*
G01*
X117496314Y-144462786D01*
X117513533Y-144471990D01*
X117528625Y-144484375D01*
X117541010Y-144499467D01*
X117550214Y-144516686D01*
X117555882Y-144535372D01*
X117558400Y-144560940D01*
X117558400Y-144999060D01*
X117555882Y-145024628D01*
X117550214Y-145043314D01*
X117541010Y-145060533D01*
X117528625Y-145075625D01*
X117513533Y-145088010D01*
X117496314Y-145097214D01*
X117477628Y-145102882D01*
X117452060Y-145105400D01*
X115563940Y-145105400D01*
X115538372Y-145102882D01*
X115519686Y-145097214D01*
X115502467Y-145088010D01*
X115487375Y-145075625D01*
X115474990Y-145060533D01*
X115465786Y-145043314D01*
X115460118Y-145024628D01*
X115457600Y-144999060D01*
X115457600Y-144560940D01*
X115460118Y-144535372D01*
X115465786Y-144516686D01*
X115474990Y-144499467D01*
X115487375Y-144484375D01*
X115502467Y-144471990D01*
X115519686Y-144462786D01*
X115538372Y-144457118D01*
X115563940Y-144454600D01*
X117452060Y-144454600D01*
X117477628Y-144457118D01*
G37*
G36*
X126777628Y-143187118D02*
G01*
X126796314Y-143192786D01*
X126813533Y-143201990D01*
X126828625Y-143214375D01*
X126841010Y-143229467D01*
X126850214Y-143246686D01*
X126855882Y-143265372D01*
X126858400Y-143290940D01*
X126858400Y-143729060D01*
X126855882Y-143754628D01*
X126850214Y-143773314D01*
X126841010Y-143790533D01*
X126828625Y-143805625D01*
X126813533Y-143818010D01*
X126796314Y-143827214D01*
X126777628Y-143832882D01*
X126752060Y-143835400D01*
X124863940Y-143835400D01*
X124838372Y-143832882D01*
X124819686Y-143827214D01*
X124802467Y-143818010D01*
X124787375Y-143805625D01*
X124774990Y-143790533D01*
X124765786Y-143773314D01*
X124760118Y-143754628D01*
X124757600Y-143729060D01*
X124757600Y-143290940D01*
X124760118Y-143265372D01*
X124765786Y-143246686D01*
X124774990Y-143229467D01*
X124787375Y-143214375D01*
X124802467Y-143201990D01*
X124819686Y-143192786D01*
X124838372Y-143187118D01*
X124863940Y-143184600D01*
X126752060Y-143184600D01*
X126777628Y-143187118D01*
G37*
G36*
X117477628Y-143187118D02*
G01*
X117496314Y-143192786D01*
X117513533Y-143201990D01*
X117528625Y-143214375D01*
X117541010Y-143229467D01*
X117550214Y-143246686D01*
X117555882Y-143265372D01*
X117558400Y-143290940D01*
X117558400Y-143729060D01*
X117555882Y-143754628D01*
X117550214Y-143773314D01*
X117541010Y-143790533D01*
X117528625Y-143805625D01*
X117513533Y-143818010D01*
X117496314Y-143827214D01*
X117477628Y-143832882D01*
X117452060Y-143835400D01*
X115563940Y-143835400D01*
X115538372Y-143832882D01*
X115519686Y-143827214D01*
X115502467Y-143818010D01*
X115487375Y-143805625D01*
X115474990Y-143790533D01*
X115465786Y-143773314D01*
X115460118Y-143754628D01*
X115457600Y-143729060D01*
X115457600Y-143290940D01*
X115460118Y-143265372D01*
X115465786Y-143246686D01*
X115474990Y-143229467D01*
X115487375Y-143214375D01*
X115502467Y-143201990D01*
X115519686Y-143192786D01*
X115538372Y-143187118D01*
X115563940Y-143184600D01*
X117452060Y-143184600D01*
X117477628Y-143187118D01*
G37*
G36*
X126777628Y-141917118D02*
G01*
X126796314Y-141922786D01*
X126813533Y-141931990D01*
X126828625Y-141944375D01*
X126841010Y-141959467D01*
X126850214Y-141976686D01*
X126855882Y-141995372D01*
X126858400Y-142020940D01*
X126858400Y-142459060D01*
X126855882Y-142484628D01*
X126850214Y-142503314D01*
X126841010Y-142520533D01*
X126828625Y-142535625D01*
X126813533Y-142548010D01*
X126796314Y-142557214D01*
X126777628Y-142562882D01*
X126752060Y-142565400D01*
X124863940Y-142565400D01*
X124838372Y-142562882D01*
X124819686Y-142557214D01*
X124802467Y-142548010D01*
X124787375Y-142535625D01*
X124774990Y-142520533D01*
X124765786Y-142503314D01*
X124760118Y-142484628D01*
X124757600Y-142459060D01*
X124757600Y-142020940D01*
X124760118Y-141995372D01*
X124765786Y-141976686D01*
X124774990Y-141959467D01*
X124787375Y-141944375D01*
X124802467Y-141931990D01*
X124819686Y-141922786D01*
X124838372Y-141917118D01*
X124863940Y-141914600D01*
X126752060Y-141914600D01*
X126777628Y-141917118D01*
G37*
G36*
X117477628Y-141917118D02*
G01*
X117496314Y-141922786D01*
X117513533Y-141931990D01*
X117528625Y-141944375D01*
X117541010Y-141959467D01*
X117550214Y-141976686D01*
X117555882Y-141995372D01*
X117558400Y-142020940D01*
X117558400Y-142459060D01*
X117555882Y-142484628D01*
X117550214Y-142503314D01*
X117541010Y-142520533D01*
X117528625Y-142535625D01*
X117513533Y-142548010D01*
X117496314Y-142557214D01*
X117477628Y-142562882D01*
X117452060Y-142565400D01*
X115563940Y-142565400D01*
X115538372Y-142562882D01*
X115519686Y-142557214D01*
X115502467Y-142548010D01*
X115487375Y-142535625D01*
X115474990Y-142520533D01*
X115465786Y-142503314D01*
X115460118Y-142484628D01*
X115457600Y-142459060D01*
X115457600Y-142020940D01*
X115460118Y-141995372D01*
X115465786Y-141976686D01*
X115474990Y-141959467D01*
X115487375Y-141944375D01*
X115502467Y-141931990D01*
X115519686Y-141922786D01*
X115538372Y-141917118D01*
X115563940Y-141914600D01*
X117452060Y-141914600D01*
X117477628Y-141917118D01*
G37*
G36*
X126777628Y-140647118D02*
G01*
X126796314Y-140652786D01*
X126813533Y-140661990D01*
X126828625Y-140674375D01*
X126841010Y-140689467D01*
X126850214Y-140706686D01*
X126855882Y-140725372D01*
X126858400Y-140750940D01*
X126858400Y-141189060D01*
X126855882Y-141214628D01*
X126850214Y-141233314D01*
X126841010Y-141250533D01*
X126828625Y-141265625D01*
X126813533Y-141278010D01*
X126796314Y-141287214D01*
X126777628Y-141292882D01*
X126752060Y-141295400D01*
X124863940Y-141295400D01*
X124838372Y-141292882D01*
X124819686Y-141287214D01*
X124802467Y-141278010D01*
X124787375Y-141265625D01*
X124774990Y-141250533D01*
X124765786Y-141233314D01*
X124760118Y-141214628D01*
X124757600Y-141189060D01*
X124757600Y-140750940D01*
X124760118Y-140725372D01*
X124765786Y-140706686D01*
X124774990Y-140689467D01*
X124787375Y-140674375D01*
X124802467Y-140661990D01*
X124819686Y-140652786D01*
X124838372Y-140647118D01*
X124863940Y-140644600D01*
X126752060Y-140644600D01*
X126777628Y-140647118D01*
G37*
G36*
X117477628Y-140647118D02*
G01*
X117496314Y-140652786D01*
X117513533Y-140661990D01*
X117528625Y-140674375D01*
X117541010Y-140689467D01*
X117550214Y-140706686D01*
X117555882Y-140725372D01*
X117558400Y-140750940D01*
X117558400Y-141189060D01*
X117555882Y-141214628D01*
X117550214Y-141233314D01*
X117541010Y-141250533D01*
X117528625Y-141265625D01*
X117513533Y-141278010D01*
X117496314Y-141287214D01*
X117477628Y-141292882D01*
X117452060Y-141295400D01*
X115563940Y-141295400D01*
X115538372Y-141292882D01*
X115519686Y-141287214D01*
X115502467Y-141278010D01*
X115487375Y-141265625D01*
X115474990Y-141250533D01*
X115465786Y-141233314D01*
X115460118Y-141214628D01*
X115457600Y-141189060D01*
X115457600Y-140750940D01*
X115460118Y-140725372D01*
X115465786Y-140706686D01*
X115474990Y-140689467D01*
X115487375Y-140674375D01*
X115502467Y-140661990D01*
X115519686Y-140652786D01*
X115538372Y-140647118D01*
X115563940Y-140644600D01*
X117452060Y-140644600D01*
X117477628Y-140647118D01*
G37*
G36*
X111888345Y-138858240D02*
G01*
X112047656Y-138924229D01*
X112047658Y-138924230D01*
X112191035Y-139020032D01*
X112312968Y-139141965D01*
X112408771Y-139285344D01*
X112474760Y-139444655D01*
X112508400Y-139613779D01*
X112508400Y-139786221D01*
X112474760Y-139955345D01*
X112446785Y-140022882D01*
X112408770Y-140114658D01*
X112312968Y-140258035D01*
X112191035Y-140379968D01*
X112047658Y-140475770D01*
X112047657Y-140475771D01*
X112047656Y-140475771D01*
X111888345Y-140541760D01*
X111719221Y-140575400D01*
X111546779Y-140575400D01*
X111377655Y-140541760D01*
X111218344Y-140475771D01*
X111218343Y-140475771D01*
X111218342Y-140475770D01*
X111074965Y-140379968D01*
X110953032Y-140258035D01*
X110857230Y-140114658D01*
X110819215Y-140022882D01*
X110791240Y-139955345D01*
X110757600Y-139786221D01*
X110757600Y-139613779D01*
X110791240Y-139444655D01*
X110857229Y-139285344D01*
X110953032Y-139141965D01*
X111074965Y-139020032D01*
X111218342Y-138924230D01*
X111218344Y-138924229D01*
X111377655Y-138858240D01*
X111546779Y-138824600D01*
X111719221Y-138824600D01*
X111888345Y-138858240D01*
G37*
G36*
X126777628Y-139377118D02*
G01*
X126796314Y-139382786D01*
X126813533Y-139391990D01*
X126828625Y-139404375D01*
X126841010Y-139419467D01*
X126850214Y-139436686D01*
X126855882Y-139455372D01*
X126858400Y-139480940D01*
X126858400Y-139919060D01*
X126855882Y-139944628D01*
X126850214Y-139963314D01*
X126841010Y-139980533D01*
X126828625Y-139995625D01*
X126813533Y-140008010D01*
X126796314Y-140017214D01*
X126777628Y-140022882D01*
X126752060Y-140025400D01*
X124863940Y-140025400D01*
X124838372Y-140022882D01*
X124819686Y-140017214D01*
X124802467Y-140008010D01*
X124787375Y-139995625D01*
X124774990Y-139980533D01*
X124765786Y-139963314D01*
X124760118Y-139944628D01*
X124757600Y-139919060D01*
X124757600Y-139480940D01*
X124760118Y-139455372D01*
X124765786Y-139436686D01*
X124774990Y-139419467D01*
X124787375Y-139404375D01*
X124802467Y-139391990D01*
X124819686Y-139382786D01*
X124838372Y-139377118D01*
X124863940Y-139374600D01*
X126752060Y-139374600D01*
X126777628Y-139377118D01*
G37*
G36*
X117477628Y-139377118D02*
G01*
X117496314Y-139382786D01*
X117513533Y-139391990D01*
X117528625Y-139404375D01*
X117541010Y-139419467D01*
X117550214Y-139436686D01*
X117555882Y-139455372D01*
X117558400Y-139480940D01*
X117558400Y-139919060D01*
X117555882Y-139944628D01*
X117550214Y-139963314D01*
X117541010Y-139980533D01*
X117528625Y-139995625D01*
X117513533Y-140008010D01*
X117496314Y-140017214D01*
X117477628Y-140022882D01*
X117452060Y-140025400D01*
X115563940Y-140025400D01*
X115538372Y-140022882D01*
X115519686Y-140017214D01*
X115502467Y-140008010D01*
X115487375Y-139995625D01*
X115474990Y-139980533D01*
X115465786Y-139963314D01*
X115460118Y-139944628D01*
X115457600Y-139919060D01*
X115457600Y-139480940D01*
X115460118Y-139455372D01*
X115465786Y-139436686D01*
X115474990Y-139419467D01*
X115487375Y-139404375D01*
X115502467Y-139391990D01*
X115519686Y-139382786D01*
X115538372Y-139377118D01*
X115563940Y-139374600D01*
X117452060Y-139374600D01*
X117477628Y-139377118D01*
G37*
G36*
X117477628Y-138107118D02*
G01*
X117496314Y-138112786D01*
X117513533Y-138121990D01*
X117528625Y-138134375D01*
X117541010Y-138149467D01*
X117550214Y-138166686D01*
X117555882Y-138185372D01*
X117558400Y-138210940D01*
X117558400Y-138649060D01*
X117555882Y-138674628D01*
X117550214Y-138693314D01*
X117541010Y-138710533D01*
X117528625Y-138725625D01*
X117513533Y-138738010D01*
X117496314Y-138747214D01*
X117477628Y-138752882D01*
X117452060Y-138755400D01*
X115563940Y-138755400D01*
X115538372Y-138752882D01*
X115519686Y-138747214D01*
X115502467Y-138738010D01*
X115487375Y-138725625D01*
X115474990Y-138710533D01*
X115465786Y-138693314D01*
X115460118Y-138674628D01*
X115457600Y-138649060D01*
X115457600Y-138210940D01*
X115460118Y-138185372D01*
X115465786Y-138166686D01*
X115474990Y-138149467D01*
X115487375Y-138134375D01*
X115502467Y-138121990D01*
X115519686Y-138112786D01*
X115538372Y-138107118D01*
X115563940Y-138104600D01*
X117452060Y-138104600D01*
X117477628Y-138107118D01*
G37*
G36*
X126777628Y-138107118D02*
G01*
X126796314Y-138112786D01*
X126813533Y-138121990D01*
X126828625Y-138134375D01*
X126841010Y-138149467D01*
X126850214Y-138166686D01*
X126855882Y-138185372D01*
X126858400Y-138210940D01*
X126858400Y-138649060D01*
X126855882Y-138674628D01*
X126850214Y-138693314D01*
X126841010Y-138710533D01*
X126828625Y-138725625D01*
X126813533Y-138738010D01*
X126796314Y-138747214D01*
X126777628Y-138752882D01*
X126752060Y-138755400D01*
X124863940Y-138755400D01*
X124838372Y-138752882D01*
X124819686Y-138747214D01*
X124802467Y-138738010D01*
X124787375Y-138725625D01*
X124774990Y-138710533D01*
X124765786Y-138693314D01*
X124760118Y-138674628D01*
X124757600Y-138649060D01*
X124757600Y-138210940D01*
X124760118Y-138185372D01*
X124765786Y-138166686D01*
X124774990Y-138149467D01*
X124787375Y-138134375D01*
X124802467Y-138121990D01*
X124819686Y-138112786D01*
X124838372Y-138107118D01*
X124863940Y-138104600D01*
X126752060Y-138104600D01*
X126777628Y-138107118D01*
G37*
G36*
X111888345Y-136318240D02*
G01*
X112036275Y-136379515D01*
X112047658Y-136384230D01*
X112191035Y-136480032D01*
X112312968Y-136601965D01*
X112408771Y-136745344D01*
X112474760Y-136904655D01*
X112508400Y-137073779D01*
X112508400Y-137246221D01*
X112474760Y-137415345D01*
X112446785Y-137482882D01*
X112408770Y-137574658D01*
X112312968Y-137718035D01*
X112191035Y-137839968D01*
X112047658Y-137935770D01*
X112047657Y-137935771D01*
X112047656Y-137935771D01*
X111888345Y-138001760D01*
X111719221Y-138035400D01*
X111546779Y-138035400D01*
X111377655Y-138001760D01*
X111218344Y-137935771D01*
X111218343Y-137935771D01*
X111218342Y-137935770D01*
X111074965Y-137839968D01*
X110953032Y-137718035D01*
X110857230Y-137574658D01*
X110819215Y-137482882D01*
X110791240Y-137415345D01*
X110757600Y-137246221D01*
X110757600Y-137073779D01*
X110791240Y-136904655D01*
X110857229Y-136745344D01*
X110953032Y-136601965D01*
X111074965Y-136480032D01*
X111218342Y-136384230D01*
X111229725Y-136379515D01*
X111377655Y-136318240D01*
X111546779Y-136284600D01*
X111719221Y-136284600D01*
X111888345Y-136318240D01*
G37*
G36*
X117477628Y-136837118D02*
G01*
X117496314Y-136842786D01*
X117513533Y-136851990D01*
X117528625Y-136864375D01*
X117541010Y-136879467D01*
X117550214Y-136896686D01*
X117555882Y-136915372D01*
X117558400Y-136940940D01*
X117558400Y-137379060D01*
X117555882Y-137404628D01*
X117550214Y-137423314D01*
X117541010Y-137440533D01*
X117528625Y-137455625D01*
X117513533Y-137468010D01*
X117496314Y-137477214D01*
X117477628Y-137482882D01*
X117452060Y-137485400D01*
X115563940Y-137485400D01*
X115538372Y-137482882D01*
X115519686Y-137477214D01*
X115502467Y-137468010D01*
X115487375Y-137455625D01*
X115474990Y-137440533D01*
X115465786Y-137423314D01*
X115460118Y-137404628D01*
X115457600Y-137379060D01*
X115457600Y-136940940D01*
X115460118Y-136915372D01*
X115465786Y-136896686D01*
X115474990Y-136879467D01*
X115487375Y-136864375D01*
X115502467Y-136851990D01*
X115519686Y-136842786D01*
X115538372Y-136837118D01*
X115563940Y-136834600D01*
X117452060Y-136834600D01*
X117477628Y-136837118D01*
G37*
G36*
X126777628Y-136837118D02*
G01*
X126796314Y-136842786D01*
X126813533Y-136851990D01*
X126828625Y-136864375D01*
X126841010Y-136879467D01*
X126850214Y-136896686D01*
X126855882Y-136915372D01*
X126858400Y-136940940D01*
X126858400Y-137379060D01*
X126855882Y-137404628D01*
X126850214Y-137423314D01*
X126841010Y-137440533D01*
X126828625Y-137455625D01*
X126813533Y-137468010D01*
X126796314Y-137477214D01*
X126777628Y-137482882D01*
X126752060Y-137485400D01*
X124863940Y-137485400D01*
X124838372Y-137482882D01*
X124819686Y-137477214D01*
X124802467Y-137468010D01*
X124787375Y-137455625D01*
X124774990Y-137440533D01*
X124765786Y-137423314D01*
X124760118Y-137404628D01*
X124757600Y-137379060D01*
X124757600Y-136940940D01*
X124760118Y-136915372D01*
X124765786Y-136896686D01*
X124774990Y-136879467D01*
X124787375Y-136864375D01*
X124802467Y-136851990D01*
X124819686Y-136842786D01*
X124838372Y-136837118D01*
X124863940Y-136834600D01*
X126752060Y-136834600D01*
X126777628Y-136837118D01*
G37*
G36*
X107116172Y-135204511D02*
G01*
X107147752Y-135214091D01*
X107176858Y-135229649D01*
X107207132Y-135254494D01*
X107246984Y-135294346D01*
X107246990Y-135294351D01*
X107627343Y-135674704D01*
X107627348Y-135674710D01*
X107667200Y-135714562D01*
X107692045Y-135744836D01*
X107707603Y-135773942D01*
X107717183Y-135805522D01*
X107720417Y-135838364D01*
X107717183Y-135871206D01*
X107707603Y-135902786D01*
X107692045Y-135931892D01*
X107667200Y-135962166D01*
X107627348Y-136002018D01*
X107627343Y-136002024D01*
X107300024Y-136329343D01*
X107300018Y-136329348D01*
X107260166Y-136369200D01*
X107229892Y-136394045D01*
X107200786Y-136409603D01*
X107169206Y-136419183D01*
X107136364Y-136422417D01*
X107103522Y-136419183D01*
X107071942Y-136409603D01*
X107042836Y-136394045D01*
X107012562Y-136369200D01*
X106972710Y-136329348D01*
X106972704Y-136329343D01*
X106592351Y-135948990D01*
X106592346Y-135948984D01*
X106552494Y-135909132D01*
X106527649Y-135878858D01*
X106512091Y-135849752D01*
X106502511Y-135818172D01*
X106499277Y-135785330D01*
X106502511Y-135752488D01*
X106512091Y-135720908D01*
X106527649Y-135691802D01*
X106552494Y-135661528D01*
X106592346Y-135621676D01*
X106592351Y-135621670D01*
X106919670Y-135294351D01*
X106919676Y-135294346D01*
X106959528Y-135254494D01*
X106989802Y-135229649D01*
X107018908Y-135214091D01*
X107050488Y-135204511D01*
X107083330Y-135201277D01*
X107116172Y-135204511D01*
G37*
G36*
X124507292Y-134758439D02*
G01*
X124538872Y-134768019D01*
X124567978Y-134783577D01*
X124593488Y-134804512D01*
X124614423Y-134830022D01*
X124629981Y-134859128D01*
X124639561Y-134890708D01*
X124643400Y-134929690D01*
X124643400Y-135580310D01*
X124639561Y-135619292D01*
X124629981Y-135650872D01*
X124614423Y-135679978D01*
X124593488Y-135705488D01*
X124567978Y-135726423D01*
X124538872Y-135741981D01*
X124507292Y-135751561D01*
X124468310Y-135755400D01*
X123892690Y-135755400D01*
X123853708Y-135751561D01*
X123822128Y-135741981D01*
X123793022Y-135726423D01*
X123767512Y-135705488D01*
X123746577Y-135679978D01*
X123731019Y-135650872D01*
X123721439Y-135619292D01*
X123717600Y-135580310D01*
X123717600Y-134929690D01*
X123721439Y-134890708D01*
X123731019Y-134859128D01*
X123746577Y-134830022D01*
X123767512Y-134804512D01*
X123793022Y-134783577D01*
X123822128Y-134768019D01*
X123853708Y-134758439D01*
X123892690Y-134754600D01*
X124468310Y-134754600D01*
X124507292Y-134758439D01*
G37*
G36*
X126082292Y-134758439D02*
G01*
X126113872Y-134768019D01*
X126142978Y-134783577D01*
X126168488Y-134804512D01*
X126189423Y-134830022D01*
X126204981Y-134859128D01*
X126214561Y-134890708D01*
X126218400Y-134929690D01*
X126218400Y-135580310D01*
X126214561Y-135619292D01*
X126204981Y-135650872D01*
X126189423Y-135679978D01*
X126168488Y-135705488D01*
X126142978Y-135726423D01*
X126113872Y-135741981D01*
X126082292Y-135751561D01*
X126043310Y-135755400D01*
X125467690Y-135755400D01*
X125428708Y-135751561D01*
X125397128Y-135741981D01*
X125368022Y-135726423D01*
X125342512Y-135705488D01*
X125321577Y-135679978D01*
X125306019Y-135650872D01*
X125296439Y-135619292D01*
X125292600Y-135580310D01*
X125292600Y-134929690D01*
X125296439Y-134890708D01*
X125306019Y-134859128D01*
X125321577Y-134830022D01*
X125342512Y-134804512D01*
X125368022Y-134783577D01*
X125397128Y-134768019D01*
X125428708Y-134758439D01*
X125467690Y-134754600D01*
X126043310Y-134754600D01*
X126082292Y-134758439D01*
G37*
G36*
X111888345Y-133778240D02*
G01*
X112047656Y-133844229D01*
X112047658Y-133844230D01*
X112191035Y-133940032D01*
X112312968Y-134061965D01*
X112402355Y-134195741D01*
X112408771Y-134205344D01*
X112474760Y-134364655D01*
X112508400Y-134533779D01*
X112508400Y-134706221D01*
X112474760Y-134875345D01*
X112428904Y-134986050D01*
X112408770Y-135034658D01*
X112312968Y-135178035D01*
X112191035Y-135299968D01*
X112047658Y-135395770D01*
X112047657Y-135395771D01*
X112047656Y-135395771D01*
X111888345Y-135461760D01*
X111719221Y-135495400D01*
X111546779Y-135495400D01*
X111377655Y-135461760D01*
X111218344Y-135395771D01*
X111218343Y-135395771D01*
X111218342Y-135395770D01*
X111074965Y-135299968D01*
X110953032Y-135178035D01*
X110857230Y-135034658D01*
X110837096Y-134986050D01*
X110791240Y-134875345D01*
X110757600Y-134706221D01*
X110757600Y-134533779D01*
X110791240Y-134364655D01*
X110857229Y-134205344D01*
X110863646Y-134195741D01*
X110953032Y-134061965D01*
X111074965Y-133940032D01*
X111218342Y-133844230D01*
X111218344Y-133844229D01*
X111377655Y-133778240D01*
X111546779Y-133744600D01*
X111719221Y-133744600D01*
X111888345Y-133778240D01*
G37*
G36*
X106002478Y-134090817D02*
G01*
X106034058Y-134100397D01*
X106063164Y-134115955D01*
X106093438Y-134140800D01*
X106133290Y-134180652D01*
X106133296Y-134180657D01*
X106513649Y-134561010D01*
X106513654Y-134561016D01*
X106553506Y-134600868D01*
X106578351Y-134631142D01*
X106593909Y-134660248D01*
X106603489Y-134691828D01*
X106606723Y-134724670D01*
X106603489Y-134757512D01*
X106593909Y-134789092D01*
X106578351Y-134818198D01*
X106553506Y-134848472D01*
X106513654Y-134888324D01*
X106513649Y-134888330D01*
X106186330Y-135215649D01*
X106186324Y-135215654D01*
X106146472Y-135255506D01*
X106116198Y-135280351D01*
X106087092Y-135295909D01*
X106055512Y-135305489D01*
X106022670Y-135308723D01*
X105989828Y-135305489D01*
X105958248Y-135295909D01*
X105929142Y-135280351D01*
X105898868Y-135255506D01*
X105859016Y-135215654D01*
X105859010Y-135215649D01*
X105478657Y-134835296D01*
X105478652Y-134835290D01*
X105438800Y-134795438D01*
X105413955Y-134765164D01*
X105398397Y-134736058D01*
X105388817Y-134704478D01*
X105385583Y-134671636D01*
X105388817Y-134638794D01*
X105398397Y-134607214D01*
X105413955Y-134578108D01*
X105438800Y-134547834D01*
X105478652Y-134507982D01*
X105478657Y-134507976D01*
X105805976Y-134180657D01*
X105805982Y-134180652D01*
X105845834Y-134140800D01*
X105876108Y-134115955D01*
X105905214Y-134100397D01*
X105936794Y-134090817D01*
X105969636Y-134087583D01*
X106002478Y-134090817D01*
G37*
G36*
X120252292Y-133678440D02*
G01*
X120283872Y-133688020D01*
X120312978Y-133703578D01*
X120338488Y-133724513D01*
X120359423Y-133750023D01*
X120374981Y-133779129D01*
X120384561Y-133810709D01*
X120388400Y-133849691D01*
X120388400Y-134425311D01*
X120384561Y-134464293D01*
X120374981Y-134495873D01*
X120359423Y-134524979D01*
X120338488Y-134550489D01*
X120312978Y-134571424D01*
X120283872Y-134586982D01*
X120252292Y-134596562D01*
X120213310Y-134600401D01*
X119562690Y-134600401D01*
X119523708Y-134596562D01*
X119492128Y-134586982D01*
X119463022Y-134571424D01*
X119437512Y-134550489D01*
X119416577Y-134524979D01*
X119401019Y-134495873D01*
X119391439Y-134464293D01*
X119387600Y-134425311D01*
X119387600Y-133849691D01*
X119391439Y-133810709D01*
X119401019Y-133779129D01*
X119416577Y-133750023D01*
X119437512Y-133724513D01*
X119463022Y-133703578D01*
X119492128Y-133688020D01*
X119523708Y-133678440D01*
X119562690Y-133674601D01*
X120213310Y-133674601D01*
X120252292Y-133678440D01*
G37*
G36*
X116442292Y-133678439D02*
G01*
X116473872Y-133688019D01*
X116502978Y-133703577D01*
X116528488Y-133724512D01*
X116549423Y-133750022D01*
X116564981Y-133779128D01*
X116574561Y-133810708D01*
X116578400Y-133849690D01*
X116578400Y-134425310D01*
X116574561Y-134464292D01*
X116564981Y-134495872D01*
X116549423Y-134524978D01*
X116528488Y-134550488D01*
X116502978Y-134571423D01*
X116473872Y-134586981D01*
X116442292Y-134596561D01*
X116403310Y-134600400D01*
X115752690Y-134600400D01*
X115713708Y-134596561D01*
X115682128Y-134586981D01*
X115653022Y-134571423D01*
X115627512Y-134550488D01*
X115606577Y-134524978D01*
X115591019Y-134495872D01*
X115581439Y-134464292D01*
X115577600Y-134425310D01*
X115577600Y-133849690D01*
X115581439Y-133810708D01*
X115591019Y-133779128D01*
X115606577Y-133750022D01*
X115627512Y-133724512D01*
X115653022Y-133703577D01*
X115682128Y-133688019D01*
X115713708Y-133678439D01*
X115752690Y-133674600D01*
X116403310Y-133674600D01*
X116442292Y-133678439D01*
G37*
G36*
X118347292Y-133678439D02*
G01*
X118378872Y-133688019D01*
X118407978Y-133703577D01*
X118433488Y-133724512D01*
X118454423Y-133750022D01*
X118469981Y-133779128D01*
X118479561Y-133810708D01*
X118483400Y-133849690D01*
X118483400Y-134425310D01*
X118479561Y-134464292D01*
X118469981Y-134495872D01*
X118454423Y-134524978D01*
X118433488Y-134550488D01*
X118407978Y-134571423D01*
X118378872Y-134586981D01*
X118347292Y-134596561D01*
X118308310Y-134600400D01*
X117657690Y-134600400D01*
X117618708Y-134596561D01*
X117587128Y-134586981D01*
X117558022Y-134571423D01*
X117532512Y-134550488D01*
X117511577Y-134524978D01*
X117496019Y-134495872D01*
X117486439Y-134464292D01*
X117482600Y-134425310D01*
X117482600Y-133849690D01*
X117486439Y-133810708D01*
X117496019Y-133779128D01*
X117511577Y-133750022D01*
X117532512Y-133724512D01*
X117558022Y-133703577D01*
X117587128Y-133688019D01*
X117618708Y-133678439D01*
X117657690Y-133674600D01*
X118308310Y-133674600D01*
X118347292Y-133678439D01*
G37*
G36*
X123434245Y-132453751D02*
G01*
X123468866Y-132464253D01*
X123500774Y-132481308D01*
X123528741Y-132504259D01*
X123551692Y-132532226D01*
X123568747Y-132564134D01*
X123579249Y-132598755D01*
X123583400Y-132640901D01*
X123583400Y-134059099D01*
X123579249Y-134101245D01*
X123568747Y-134135866D01*
X123551692Y-134167774D01*
X123528741Y-134195741D01*
X123500774Y-134218692D01*
X123468866Y-134235747D01*
X123434245Y-134246249D01*
X123392099Y-134250400D01*
X122473901Y-134250400D01*
X122431755Y-134246249D01*
X122397134Y-134235747D01*
X122365226Y-134218692D01*
X122337259Y-134195741D01*
X122314308Y-134167774D01*
X122297253Y-134135866D01*
X122286751Y-134101245D01*
X122282600Y-134059099D01*
X122282600Y-132640901D01*
X122286751Y-132598755D01*
X122297253Y-132564134D01*
X122314308Y-132532226D01*
X122337259Y-132504259D01*
X122365226Y-132481308D01*
X122397134Y-132464253D01*
X122431755Y-132453751D01*
X122473901Y-132449600D01*
X123392099Y-132449600D01*
X123434245Y-132453751D01*
G37*
G36*
X126234245Y-132453751D02*
G01*
X126268866Y-132464253D01*
X126300774Y-132481308D01*
X126328741Y-132504259D01*
X126351692Y-132532226D01*
X126368747Y-132564134D01*
X126379249Y-132598755D01*
X126383400Y-132640901D01*
X126383400Y-134059099D01*
X126379249Y-134101245D01*
X126368747Y-134135866D01*
X126351692Y-134167774D01*
X126328741Y-134195741D01*
X126300774Y-134218692D01*
X126268866Y-134235747D01*
X126234245Y-134246249D01*
X126192099Y-134250400D01*
X125273901Y-134250400D01*
X125231755Y-134246249D01*
X125197134Y-134235747D01*
X125165226Y-134218692D01*
X125137259Y-134195741D01*
X125114308Y-134167774D01*
X125097253Y-134135866D01*
X125086751Y-134101245D01*
X125082600Y-134059099D01*
X125082600Y-132640901D01*
X125086751Y-132598755D01*
X125097253Y-132564134D01*
X125114308Y-132532226D01*
X125137259Y-132504259D01*
X125165226Y-132481308D01*
X125197134Y-132464253D01*
X125231755Y-132453751D01*
X125273901Y-132449600D01*
X126192099Y-132449600D01*
X126234245Y-132453751D01*
G37*
G36*
X116442292Y-132103439D02*
G01*
X116473872Y-132113019D01*
X116502978Y-132128577D01*
X116528488Y-132149512D01*
X116549423Y-132175022D01*
X116564981Y-132204128D01*
X116574561Y-132235708D01*
X116578400Y-132274690D01*
X116578400Y-132850310D01*
X116574561Y-132889292D01*
X116564981Y-132920872D01*
X116549423Y-132949978D01*
X116528488Y-132975488D01*
X116502978Y-132996423D01*
X116473872Y-133011981D01*
X116442292Y-133021561D01*
X116403310Y-133025400D01*
X115752690Y-133025400D01*
X115713708Y-133021561D01*
X115682128Y-133011981D01*
X115653022Y-132996423D01*
X115627512Y-132975488D01*
X115606577Y-132949978D01*
X115591019Y-132920872D01*
X115581439Y-132889292D01*
X115577600Y-132850310D01*
X115577600Y-132274690D01*
X115581439Y-132235708D01*
X115591019Y-132204128D01*
X115606577Y-132175022D01*
X115627512Y-132149512D01*
X115653022Y-132128577D01*
X115682128Y-132113019D01*
X115713708Y-132103439D01*
X115752690Y-132099600D01*
X116403310Y-132099600D01*
X116442292Y-132103439D01*
G37*
G36*
X118347292Y-132103439D02*
G01*
X118378872Y-132113019D01*
X118407978Y-132128577D01*
X118433488Y-132149512D01*
X118454423Y-132175022D01*
X118469981Y-132204128D01*
X118479561Y-132235708D01*
X118483400Y-132274690D01*
X118483400Y-132850310D01*
X118479561Y-132889292D01*
X118469981Y-132920872D01*
X118454423Y-132949978D01*
X118433488Y-132975488D01*
X118407978Y-132996423D01*
X118378872Y-133011981D01*
X118347292Y-133021561D01*
X118308310Y-133025400D01*
X117657690Y-133025400D01*
X117618708Y-133021561D01*
X117587128Y-133011981D01*
X117558022Y-132996423D01*
X117532512Y-132975488D01*
X117511577Y-132949978D01*
X117496019Y-132920872D01*
X117486439Y-132889292D01*
X117482600Y-132850310D01*
X117482600Y-132274690D01*
X117486439Y-132235708D01*
X117496019Y-132204128D01*
X117511577Y-132175022D01*
X117532512Y-132149512D01*
X117558022Y-132128577D01*
X117587128Y-132113019D01*
X117618708Y-132103439D01*
X117657690Y-132099600D01*
X118308310Y-132099600D01*
X118347292Y-132103439D01*
G37*
G36*
X120252292Y-132103438D02*
G01*
X120283872Y-132113018D01*
X120312978Y-132128576D01*
X120338488Y-132149511D01*
X120359423Y-132175021D01*
X120374981Y-132204127D01*
X120384561Y-132235707D01*
X120388400Y-132274689D01*
X120388400Y-132850309D01*
X120384561Y-132889291D01*
X120374981Y-132920871D01*
X120359423Y-132949977D01*
X120338488Y-132975487D01*
X120312978Y-132996422D01*
X120283872Y-133011980D01*
X120252292Y-133021560D01*
X120213310Y-133025399D01*
X119562690Y-133025399D01*
X119523708Y-133021560D01*
X119492128Y-133011980D01*
X119463022Y-132996422D01*
X119437512Y-132975487D01*
X119416577Y-132949977D01*
X119401019Y-132920871D01*
X119391439Y-132889291D01*
X119387600Y-132850309D01*
X119387600Y-132274689D01*
X119391439Y-132235707D01*
X119401019Y-132204127D01*
X119416577Y-132175021D01*
X119437512Y-132149511D01*
X119463022Y-132128576D01*
X119492128Y-132113018D01*
X119523708Y-132103438D01*
X119562690Y-132099599D01*
X120213310Y-132099599D01*
X120252292Y-132103438D01*
G37*
G36*
X111888345Y-131238240D02*
G01*
X112047656Y-131304229D01*
X112047658Y-131304230D01*
X112056892Y-131310400D01*
X112191035Y-131400032D01*
X112312968Y-131521965D01*
X112408771Y-131665344D01*
X112474760Y-131824655D01*
X112508400Y-131993779D01*
X112508400Y-132166221D01*
X112474760Y-132335345D01*
X112408771Y-132494656D01*
X112408770Y-132494658D01*
X112312968Y-132638035D01*
X112191035Y-132759968D01*
X112047658Y-132855770D01*
X112047657Y-132855771D01*
X112047656Y-132855771D01*
X111888345Y-132921760D01*
X111719221Y-132955400D01*
X111546779Y-132955400D01*
X111377655Y-132921760D01*
X111218344Y-132855771D01*
X111218343Y-132855771D01*
X111218342Y-132855770D01*
X111074965Y-132759968D01*
X110953032Y-132638035D01*
X110857230Y-132494658D01*
X110857229Y-132494656D01*
X110791240Y-132335345D01*
X110757600Y-132166221D01*
X110757600Y-131993779D01*
X110791240Y-131824655D01*
X110857229Y-131665344D01*
X110953032Y-131521965D01*
X111074965Y-131400032D01*
X111209108Y-131310400D01*
X111218342Y-131304230D01*
X111218344Y-131304229D01*
X111377655Y-131238240D01*
X111546779Y-131204600D01*
X111719221Y-131204600D01*
X111888345Y-131238240D01*
G37*
G36*
X123237292Y-130313439D02*
G01*
X123268872Y-130323019D01*
X123297978Y-130338577D01*
X123323488Y-130359512D01*
X123344423Y-130385022D01*
X123359981Y-130414128D01*
X123369561Y-130445708D01*
X123373400Y-130484690D01*
X123373400Y-131135310D01*
X123369561Y-131174292D01*
X123359981Y-131205872D01*
X123344423Y-131234978D01*
X123323488Y-131260488D01*
X123297978Y-131281423D01*
X123268872Y-131296981D01*
X123237292Y-131306561D01*
X123198310Y-131310400D01*
X122622690Y-131310400D01*
X122583708Y-131306561D01*
X122552128Y-131296981D01*
X122523022Y-131281423D01*
X122497512Y-131260488D01*
X122476577Y-131234978D01*
X122461019Y-131205872D01*
X122451439Y-131174292D01*
X122447600Y-131135310D01*
X122447600Y-130484690D01*
X122451439Y-130445708D01*
X122461019Y-130414128D01*
X122476577Y-130385022D01*
X122497512Y-130359512D01*
X122523022Y-130338577D01*
X122552128Y-130323019D01*
X122583708Y-130313439D01*
X122622690Y-130309600D01*
X123198310Y-130309600D01*
X123237292Y-130313439D01*
G37*
G36*
X124812292Y-130313439D02*
G01*
X124843872Y-130323019D01*
X124872978Y-130338577D01*
X124898488Y-130359512D01*
X124919423Y-130385022D01*
X124934981Y-130414128D01*
X124944561Y-130445708D01*
X124948400Y-130484690D01*
X124948400Y-131135310D01*
X124944561Y-131174292D01*
X124934981Y-131205872D01*
X124919423Y-131234978D01*
X124898488Y-131260488D01*
X124872978Y-131281423D01*
X124843872Y-131296981D01*
X124812292Y-131306561D01*
X124773310Y-131310400D01*
X124197690Y-131310400D01*
X124158708Y-131306561D01*
X124127128Y-131296981D01*
X124098022Y-131281423D01*
X124072512Y-131260488D01*
X124051577Y-131234978D01*
X124036019Y-131205872D01*
X124026439Y-131174292D01*
X124022600Y-131135310D01*
X124022600Y-130484690D01*
X124026439Y-130445708D01*
X124036019Y-130414128D01*
X124051577Y-130385022D01*
X124072512Y-130359512D01*
X124098022Y-130338577D01*
X124127128Y-130323019D01*
X124158708Y-130313439D01*
X124197690Y-130309600D01*
X124773310Y-130309600D01*
X124812292Y-130313439D01*
G37*
G36*
X112508400Y-130415400D02*
G01*
X110757600Y-130415400D01*
X110757600Y-128664600D01*
X112508400Y-128664600D01*
X112508400Y-130415400D01*
G37*
G36*
X120324400Y-115974400D02*
G01*
X117673600Y-115974400D01*
X117673600Y-114523600D01*
X120324400Y-114523600D01*
X120324400Y-115974400D01*
G37*
G36*
X119363610Y-111447036D02*
G01*
X119591095Y-111541264D01*
X119591097Y-111541265D01*
X119795828Y-111678062D01*
X119969938Y-111852172D01*
X120106736Y-112056905D01*
X120200964Y-112284390D01*
X120249000Y-112525884D01*
X120249000Y-112772116D01*
X120200964Y-113013610D01*
X120106736Y-113241095D01*
X120106735Y-113241097D01*
X119969938Y-113445828D01*
X119795828Y-113619938D01*
X119591097Y-113756735D01*
X119591096Y-113756736D01*
X119591095Y-113756736D01*
X119363610Y-113850964D01*
X119122116Y-113899000D01*
X118875884Y-113899000D01*
X118634390Y-113850964D01*
X118406905Y-113756736D01*
X118406904Y-113756736D01*
X118406903Y-113756735D01*
X118202172Y-113619938D01*
X118028062Y-113445828D01*
X117891265Y-113241097D01*
X117891264Y-113241095D01*
X117797036Y-113013610D01*
X117749000Y-112772116D01*
X117749000Y-112525884D01*
X117797036Y-112284390D01*
X117891264Y-112056905D01*
X118028062Y-111852172D01*
X118202172Y-111678062D01*
X118406903Y-111541265D01*
X118406905Y-111541264D01*
X118634390Y-111447036D01*
X118875884Y-111399000D01*
X119122116Y-111399000D01*
X119363610Y-111447036D01*
G37*
G36*
X120324400Y-110774400D02*
G01*
X117673600Y-110774400D01*
X117673600Y-109323600D01*
X120324400Y-109323600D01*
X120324400Y-110774400D01*
G37*
G36*
X139755400Y-106957400D02*
G01*
X137104600Y-106957400D01*
X137104600Y-105506600D01*
X139755400Y-105506600D01*
X139755400Y-106957400D01*
G37*
G36*
X138794610Y-102430036D02*
G01*
X139022095Y-102524264D01*
X139022097Y-102524265D01*
X139226828Y-102661062D01*
X139400938Y-102835172D01*
X139537736Y-103039905D01*
X139631964Y-103267390D01*
X139680000Y-103508884D01*
X139680000Y-103755116D01*
X139631964Y-103996610D01*
X139537736Y-104224095D01*
X139537735Y-104224097D01*
X139400938Y-104428828D01*
X139226828Y-104602938D01*
X139022097Y-104739735D01*
X139022096Y-104739736D01*
X139022095Y-104739736D01*
X138794610Y-104833964D01*
X138553116Y-104882000D01*
X138306884Y-104882000D01*
X138065390Y-104833964D01*
X137837905Y-104739736D01*
X137837904Y-104739736D01*
X137837903Y-104739735D01*
X137633172Y-104602938D01*
X137459062Y-104428828D01*
X137322265Y-104224097D01*
X137322264Y-104224095D01*
X137228036Y-103996610D01*
X137180000Y-103755116D01*
X137180000Y-103508884D01*
X137228036Y-103267390D01*
X137322264Y-103039905D01*
X137459062Y-102835172D01*
X137633172Y-102661062D01*
X137837903Y-102524265D01*
X137837905Y-102524264D01*
X138065390Y-102430036D01*
X138306884Y-102382000D01*
X138553116Y-102382000D01*
X138794610Y-102430036D01*
G37*
G36*
X139755400Y-101757400D02*
G01*
X137104600Y-101757400D01*
X137104600Y-100306600D01*
X139755400Y-100306600D01*
X139755400Y-101757400D01*
G37*
G36*
X101713400Y-97395400D02*
G01*
X99962600Y-97395400D01*
X99962600Y-95644600D01*
X101713400Y-95644600D01*
X101713400Y-97395400D01*
G37*
G36*
X106924245Y-94353751D02*
G01*
X106958866Y-94364253D01*
X106990774Y-94381308D01*
X107018741Y-94404259D01*
X107041692Y-94432226D01*
X107058747Y-94464134D01*
X107069249Y-94498755D01*
X107073400Y-94540901D01*
X107073400Y-95959099D01*
X107069249Y-96001245D01*
X107058747Y-96035866D01*
X107041692Y-96067774D01*
X107018741Y-96095741D01*
X106990774Y-96118692D01*
X106958866Y-96135747D01*
X106924245Y-96146249D01*
X106882099Y-96150400D01*
X105963901Y-96150400D01*
X105921755Y-96146249D01*
X105887134Y-96135747D01*
X105855226Y-96118692D01*
X105827259Y-96095741D01*
X105804308Y-96067774D01*
X105787253Y-96035866D01*
X105776751Y-96001245D01*
X105772600Y-95959099D01*
X105772600Y-94540901D01*
X105776751Y-94498755D01*
X105787253Y-94464134D01*
X105804308Y-94432226D01*
X105827259Y-94404259D01*
X105855226Y-94381308D01*
X105887134Y-94364253D01*
X105921755Y-94353751D01*
X105963901Y-94349600D01*
X106882099Y-94349600D01*
X106924245Y-94353751D01*
G37*
G36*
X109724245Y-94353751D02*
G01*
X109758866Y-94364253D01*
X109790774Y-94381308D01*
X109818741Y-94404259D01*
X109841692Y-94432226D01*
X109858747Y-94464134D01*
X109869249Y-94498755D01*
X109873400Y-94540901D01*
X109873400Y-95959099D01*
X109869249Y-96001245D01*
X109858747Y-96035866D01*
X109841692Y-96067774D01*
X109818741Y-96095741D01*
X109790774Y-96118692D01*
X109758866Y-96135747D01*
X109724245Y-96146249D01*
X109682099Y-96150400D01*
X108763901Y-96150400D01*
X108721755Y-96146249D01*
X108687134Y-96135747D01*
X108655226Y-96118692D01*
X108627259Y-96095741D01*
X108604308Y-96067774D01*
X108587253Y-96035866D01*
X108576751Y-96001245D01*
X108572600Y-95959099D01*
X108572600Y-94540901D01*
X108576751Y-94498755D01*
X108587253Y-94464134D01*
X108604308Y-94432226D01*
X108627259Y-94404259D01*
X108655226Y-94381308D01*
X108687134Y-94364253D01*
X108721755Y-94353751D01*
X108763901Y-94349600D01*
X109682099Y-94349600D01*
X109724245Y-94353751D01*
G37*
G36*
X101093345Y-93138240D02*
G01*
X101252656Y-93204229D01*
X101252658Y-93204230D01*
X101396035Y-93300032D01*
X101517968Y-93421965D01*
X101613771Y-93565344D01*
X101679760Y-93724655D01*
X101713400Y-93893779D01*
X101713400Y-94066221D01*
X101679760Y-94235345D01*
X101613771Y-94394656D01*
X101613770Y-94394658D01*
X101517968Y-94538035D01*
X101396035Y-94659968D01*
X101252658Y-94755770D01*
X101252657Y-94755771D01*
X101252656Y-94755771D01*
X101093345Y-94821760D01*
X100924221Y-94855400D01*
X100751779Y-94855400D01*
X100582655Y-94821760D01*
X100423344Y-94755771D01*
X100423343Y-94755771D01*
X100423342Y-94755770D01*
X100279965Y-94659968D01*
X100158032Y-94538035D01*
X100062230Y-94394658D01*
X100062229Y-94394656D01*
X99996240Y-94235345D01*
X99962600Y-94066221D01*
X99962600Y-93893779D01*
X99996240Y-93724655D01*
X100062229Y-93565344D01*
X100158032Y-93421965D01*
X100279965Y-93300032D01*
X100423342Y-93204230D01*
X100423344Y-93204229D01*
X100582655Y-93138240D01*
X100751779Y-93104600D01*
X100924221Y-93104600D01*
X101093345Y-93138240D01*
G37*
G36*
X101093345Y-90598240D02*
G01*
X101252656Y-90664229D01*
X101252658Y-90664230D01*
X101396035Y-90760032D01*
X101517968Y-90881965D01*
X101607355Y-91015741D01*
X101613771Y-91025344D01*
X101679760Y-91184655D01*
X101713400Y-91353779D01*
X101713400Y-91526221D01*
X101679760Y-91695345D01*
X101651785Y-91762882D01*
X101613770Y-91854658D01*
X101517968Y-91998035D01*
X101396035Y-92119968D01*
X101252658Y-92215770D01*
X101252657Y-92215771D01*
X101252656Y-92215771D01*
X101093345Y-92281760D01*
X100924221Y-92315400D01*
X100751779Y-92315400D01*
X100582655Y-92281760D01*
X100423344Y-92215771D01*
X100423343Y-92215771D01*
X100423342Y-92215770D01*
X100279965Y-92119968D01*
X100158032Y-91998035D01*
X100062230Y-91854658D01*
X100024215Y-91762882D01*
X99996240Y-91695345D01*
X99962600Y-91526221D01*
X99962600Y-91353779D01*
X99996240Y-91184655D01*
X100062229Y-91025344D01*
X100068646Y-91015741D01*
X100158032Y-90881965D01*
X100279965Y-90760032D01*
X100423342Y-90664230D01*
X100423344Y-90664229D01*
X100582655Y-90598240D01*
X100751779Y-90564600D01*
X100924221Y-90564600D01*
X101093345Y-90598240D01*
G37*
G36*
X128634292Y-91133440D02*
G01*
X128665872Y-91143020D01*
X128694978Y-91158578D01*
X128720488Y-91179513D01*
X128741423Y-91205023D01*
X128756981Y-91234129D01*
X128766561Y-91265709D01*
X128770400Y-91304691D01*
X128770400Y-91880311D01*
X128766561Y-91919293D01*
X128756981Y-91950873D01*
X128741423Y-91979979D01*
X128720488Y-92005489D01*
X128694978Y-92026424D01*
X128665872Y-92041982D01*
X128634292Y-92051562D01*
X128595310Y-92055401D01*
X127944690Y-92055401D01*
X127905708Y-92051562D01*
X127874128Y-92041982D01*
X127845022Y-92026424D01*
X127819512Y-92005489D01*
X127798577Y-91979979D01*
X127783019Y-91950873D01*
X127773439Y-91919293D01*
X127769600Y-91880311D01*
X127769600Y-91304691D01*
X127773439Y-91265709D01*
X127783019Y-91234129D01*
X127798577Y-91205023D01*
X127819512Y-91179513D01*
X127845022Y-91158578D01*
X127874128Y-91143020D01*
X127905708Y-91133440D01*
X127944690Y-91129601D01*
X128595310Y-91129601D01*
X128634292Y-91133440D01*
G37*
G36*
X130539292Y-91133440D02*
G01*
X130570872Y-91143020D01*
X130599978Y-91158578D01*
X130625488Y-91179513D01*
X130646423Y-91205023D01*
X130661981Y-91234129D01*
X130671561Y-91265709D01*
X130675400Y-91304691D01*
X130675400Y-91880311D01*
X130671561Y-91919293D01*
X130661981Y-91950873D01*
X130646423Y-91979979D01*
X130625488Y-92005489D01*
X130599978Y-92026424D01*
X130570872Y-92041982D01*
X130539292Y-92051562D01*
X130500310Y-92055401D01*
X129849690Y-92055401D01*
X129810708Y-92051562D01*
X129779128Y-92041982D01*
X129750022Y-92026424D01*
X129724512Y-92005489D01*
X129703577Y-91979979D01*
X129688019Y-91950873D01*
X129678439Y-91919293D01*
X129674600Y-91880311D01*
X129674600Y-91304691D01*
X129678439Y-91265709D01*
X129688019Y-91234129D01*
X129703577Y-91205023D01*
X129724512Y-91179513D01*
X129750022Y-91158578D01*
X129779128Y-91143020D01*
X129810708Y-91133440D01*
X129849690Y-91129601D01*
X130500310Y-91129601D01*
X130539292Y-91133440D01*
G37*
G36*
X112167628Y-91117118D02*
G01*
X112186314Y-91122786D01*
X112203533Y-91131990D01*
X112218625Y-91144375D01*
X112231010Y-91159467D01*
X112240214Y-91176686D01*
X112245882Y-91195372D01*
X112248400Y-91220940D01*
X112248400Y-91659060D01*
X112245882Y-91684628D01*
X112240214Y-91703314D01*
X112231010Y-91720533D01*
X112218625Y-91735625D01*
X112203533Y-91748010D01*
X112186314Y-91757214D01*
X112167628Y-91762882D01*
X112142060Y-91765400D01*
X110703940Y-91765400D01*
X110678372Y-91762882D01*
X110659686Y-91757214D01*
X110642467Y-91748010D01*
X110627375Y-91735625D01*
X110614990Y-91720533D01*
X110605786Y-91703314D01*
X110600118Y-91684628D01*
X110597600Y-91659060D01*
X110597600Y-91220940D01*
X110600118Y-91195372D01*
X110605786Y-91176686D01*
X110614990Y-91159467D01*
X110627375Y-91144375D01*
X110642467Y-91131990D01*
X110659686Y-91122786D01*
X110678372Y-91117118D01*
X110703940Y-91114600D01*
X112142060Y-91114600D01*
X112167628Y-91117118D01*
G37*
G36*
X104967628Y-91117118D02*
G01*
X104986314Y-91122786D01*
X105003533Y-91131990D01*
X105018625Y-91144375D01*
X105031010Y-91159467D01*
X105040214Y-91176686D01*
X105045882Y-91195372D01*
X105048400Y-91220940D01*
X105048400Y-91659060D01*
X105045882Y-91684628D01*
X105040214Y-91703314D01*
X105031010Y-91720533D01*
X105018625Y-91735625D01*
X105003533Y-91748010D01*
X104986314Y-91757214D01*
X104967628Y-91762882D01*
X104942060Y-91765400D01*
X103503940Y-91765400D01*
X103478372Y-91762882D01*
X103459686Y-91757214D01*
X103442467Y-91748010D01*
X103427375Y-91735625D01*
X103414990Y-91720533D01*
X103405786Y-91703314D01*
X103400118Y-91684628D01*
X103397600Y-91659060D01*
X103397600Y-91220940D01*
X103400118Y-91195372D01*
X103405786Y-91176686D01*
X103414990Y-91159467D01*
X103427375Y-91144375D01*
X103442467Y-91131990D01*
X103459686Y-91122786D01*
X103478372Y-91117118D01*
X103503940Y-91114600D01*
X104942060Y-91114600D01*
X104967628Y-91117118D01*
G37*
G36*
X135251245Y-89273751D02*
G01*
X135285866Y-89284253D01*
X135317774Y-89301308D01*
X135345741Y-89324259D01*
X135368692Y-89352226D01*
X135385747Y-89384134D01*
X135396249Y-89418755D01*
X135400400Y-89460901D01*
X135400400Y-90879099D01*
X135396249Y-90921245D01*
X135385747Y-90955866D01*
X135368692Y-90987774D01*
X135345741Y-91015741D01*
X135317774Y-91038692D01*
X135285866Y-91055747D01*
X135251245Y-91066249D01*
X135209099Y-91070400D01*
X134290901Y-91070400D01*
X134248755Y-91066249D01*
X134214134Y-91055747D01*
X134182226Y-91038692D01*
X134154259Y-91015741D01*
X134131308Y-90987774D01*
X134114253Y-90955866D01*
X134103751Y-90921245D01*
X134099600Y-90879099D01*
X134099600Y-89460901D01*
X134103751Y-89418755D01*
X134114253Y-89384134D01*
X134131308Y-89352226D01*
X134154259Y-89324259D01*
X134182226Y-89301308D01*
X134214134Y-89284253D01*
X134248755Y-89273751D01*
X134290901Y-89269600D01*
X135209099Y-89269600D01*
X135251245Y-89273751D01*
G37*
G36*
X132451245Y-89273751D02*
G01*
X132485866Y-89284253D01*
X132517774Y-89301308D01*
X132545741Y-89324259D01*
X132568692Y-89352226D01*
X132585747Y-89384134D01*
X132596249Y-89418755D01*
X132600400Y-89460901D01*
X132600400Y-90879099D01*
X132596249Y-90921245D01*
X132585747Y-90955866D01*
X132568692Y-90987774D01*
X132545741Y-91015741D01*
X132517774Y-91038692D01*
X132485866Y-91055747D01*
X132451245Y-91066249D01*
X132409099Y-91070400D01*
X131490901Y-91070400D01*
X131448755Y-91066249D01*
X131414134Y-91055747D01*
X131382226Y-91038692D01*
X131354259Y-91015741D01*
X131331308Y-90987774D01*
X131314253Y-90955866D01*
X131303751Y-90921245D01*
X131299600Y-90879099D01*
X131299600Y-89460901D01*
X131303751Y-89418755D01*
X131314253Y-89384134D01*
X131331308Y-89352226D01*
X131354259Y-89324259D01*
X131382226Y-89301308D01*
X131414134Y-89284253D01*
X131448755Y-89273751D01*
X131490901Y-89269600D01*
X132409099Y-89269600D01*
X132451245Y-89273751D01*
G37*
G36*
X112167628Y-89847118D02*
G01*
X112186314Y-89852786D01*
X112203533Y-89861990D01*
X112218625Y-89874375D01*
X112231010Y-89889467D01*
X112240214Y-89906686D01*
X112245882Y-89925372D01*
X112248400Y-89950940D01*
X112248400Y-90389060D01*
X112245882Y-90414628D01*
X112240214Y-90433314D01*
X112231010Y-90450533D01*
X112218625Y-90465625D01*
X112203533Y-90478010D01*
X112186314Y-90487214D01*
X112167628Y-90492882D01*
X112142060Y-90495400D01*
X110703940Y-90495400D01*
X110678372Y-90492882D01*
X110659686Y-90487214D01*
X110642467Y-90478010D01*
X110627375Y-90465625D01*
X110614990Y-90450533D01*
X110605786Y-90433314D01*
X110600118Y-90414628D01*
X110597600Y-90389060D01*
X110597600Y-89950940D01*
X110600118Y-89925372D01*
X110605786Y-89906686D01*
X110614990Y-89889467D01*
X110627375Y-89874375D01*
X110642467Y-89861990D01*
X110659686Y-89852786D01*
X110678372Y-89847118D01*
X110703940Y-89844600D01*
X112142060Y-89844600D01*
X112167628Y-89847118D01*
G37*
G36*
X104967628Y-89847118D02*
G01*
X104986314Y-89852786D01*
X105003533Y-89861990D01*
X105018625Y-89874375D01*
X105031010Y-89889467D01*
X105040214Y-89906686D01*
X105045882Y-89925372D01*
X105048400Y-89950940D01*
X105048400Y-90389060D01*
X105045882Y-90414628D01*
X105040214Y-90433314D01*
X105031010Y-90450533D01*
X105018625Y-90465625D01*
X105003533Y-90478010D01*
X104986314Y-90487214D01*
X104967628Y-90492882D01*
X104942060Y-90495400D01*
X103503940Y-90495400D01*
X103478372Y-90492882D01*
X103459686Y-90487214D01*
X103442467Y-90478010D01*
X103427375Y-90465625D01*
X103414990Y-90450533D01*
X103405786Y-90433314D01*
X103400118Y-90414628D01*
X103397600Y-90389060D01*
X103397600Y-89950940D01*
X103400118Y-89925372D01*
X103405786Y-89906686D01*
X103414990Y-89889467D01*
X103427375Y-89874375D01*
X103442467Y-89861990D01*
X103459686Y-89852786D01*
X103478372Y-89847118D01*
X103503940Y-89844600D01*
X104942060Y-89844600D01*
X104967628Y-89847118D01*
G37*
G36*
X128634292Y-89558438D02*
G01*
X128665872Y-89568018D01*
X128694978Y-89583576D01*
X128720488Y-89604511D01*
X128741423Y-89630021D01*
X128756981Y-89659127D01*
X128766561Y-89690707D01*
X128770400Y-89729689D01*
X128770400Y-90305309D01*
X128766561Y-90344291D01*
X128756981Y-90375871D01*
X128741423Y-90404977D01*
X128720488Y-90430487D01*
X128694978Y-90451422D01*
X128665872Y-90466980D01*
X128634292Y-90476560D01*
X128595310Y-90480399D01*
X127944690Y-90480399D01*
X127905708Y-90476560D01*
X127874128Y-90466980D01*
X127845022Y-90451422D01*
X127819512Y-90430487D01*
X127798577Y-90404977D01*
X127783019Y-90375871D01*
X127773439Y-90344291D01*
X127769600Y-90305309D01*
X127769600Y-89729689D01*
X127773439Y-89690707D01*
X127783019Y-89659127D01*
X127798577Y-89630021D01*
X127819512Y-89604511D01*
X127845022Y-89583576D01*
X127874128Y-89568018D01*
X127905708Y-89558438D01*
X127944690Y-89554599D01*
X128595310Y-89554599D01*
X128634292Y-89558438D01*
G37*
G36*
X130539292Y-89558438D02*
G01*
X130570872Y-89568018D01*
X130599978Y-89583576D01*
X130625488Y-89604511D01*
X130646423Y-89630021D01*
X130661981Y-89659127D01*
X130671561Y-89690707D01*
X130675400Y-89729689D01*
X130675400Y-90305309D01*
X130671561Y-90344291D01*
X130661981Y-90375871D01*
X130646423Y-90404977D01*
X130625488Y-90430487D01*
X130599978Y-90451422D01*
X130570872Y-90466980D01*
X130539292Y-90476560D01*
X130500310Y-90480399D01*
X129849690Y-90480399D01*
X129810708Y-90476560D01*
X129779128Y-90466980D01*
X129750022Y-90451422D01*
X129724512Y-90430487D01*
X129703577Y-90404977D01*
X129688019Y-90375871D01*
X129678439Y-90344291D01*
X129674600Y-90305309D01*
X129674600Y-89729689D01*
X129678439Y-89690707D01*
X129688019Y-89659127D01*
X129703577Y-89630021D01*
X129724512Y-89604511D01*
X129750022Y-89583576D01*
X129779128Y-89568018D01*
X129810708Y-89558438D01*
X129849690Y-89554599D01*
X130500310Y-89554599D01*
X130539292Y-89558438D01*
G37*
G36*
X101093345Y-88058240D02*
G01*
X101252656Y-88124229D01*
X101252658Y-88124230D01*
X101396035Y-88220032D01*
X101517968Y-88341965D01*
X101613771Y-88485344D01*
X101679760Y-88644655D01*
X101713400Y-88813779D01*
X101713400Y-88986221D01*
X101679760Y-89155345D01*
X101613771Y-89314656D01*
X101613770Y-89314658D01*
X101517968Y-89458035D01*
X101396035Y-89579968D01*
X101252658Y-89675770D01*
X101252657Y-89675771D01*
X101252656Y-89675771D01*
X101093345Y-89741760D01*
X100924221Y-89775400D01*
X100751779Y-89775400D01*
X100582655Y-89741760D01*
X100423344Y-89675771D01*
X100423343Y-89675771D01*
X100423342Y-89675770D01*
X100279965Y-89579968D01*
X100158032Y-89458035D01*
X100062230Y-89314658D01*
X100062229Y-89314656D01*
X99996240Y-89155345D01*
X99962600Y-88986221D01*
X99962600Y-88813779D01*
X99996240Y-88644655D01*
X100062229Y-88485344D01*
X100158032Y-88341965D01*
X100279965Y-88220032D01*
X100423342Y-88124230D01*
X100423344Y-88124229D01*
X100582655Y-88058240D01*
X100751779Y-88024600D01*
X100924221Y-88024600D01*
X101093345Y-88058240D01*
G37*
G36*
X104967628Y-88577118D02*
G01*
X104986314Y-88582786D01*
X105003533Y-88591990D01*
X105018625Y-88604375D01*
X105031010Y-88619467D01*
X105040214Y-88636686D01*
X105045882Y-88655372D01*
X105048400Y-88680940D01*
X105048400Y-89119060D01*
X105045882Y-89144628D01*
X105040214Y-89163314D01*
X105031010Y-89180533D01*
X105018625Y-89195625D01*
X105003533Y-89208010D01*
X104986314Y-89217214D01*
X104967628Y-89222882D01*
X104942060Y-89225400D01*
X103503940Y-89225400D01*
X103478372Y-89222882D01*
X103459686Y-89217214D01*
X103442467Y-89208010D01*
X103427375Y-89195625D01*
X103414990Y-89180533D01*
X103405786Y-89163314D01*
X103400118Y-89144628D01*
X103397600Y-89119060D01*
X103397600Y-88680940D01*
X103400118Y-88655372D01*
X103405786Y-88636686D01*
X103414990Y-88619467D01*
X103427375Y-88604375D01*
X103442467Y-88591990D01*
X103459686Y-88582786D01*
X103478372Y-88577118D01*
X103503940Y-88574600D01*
X104942060Y-88574600D01*
X104967628Y-88577118D01*
G37*
G36*
X112167628Y-88577118D02*
G01*
X112186314Y-88582786D01*
X112203533Y-88591990D01*
X112218625Y-88604375D01*
X112231010Y-88619467D01*
X112240214Y-88636686D01*
X112245882Y-88655372D01*
X112248400Y-88680940D01*
X112248400Y-89119060D01*
X112245882Y-89144628D01*
X112240214Y-89163314D01*
X112231010Y-89180533D01*
X112218625Y-89195625D01*
X112203533Y-89208010D01*
X112186314Y-89217214D01*
X112167628Y-89222882D01*
X112142060Y-89225400D01*
X110703940Y-89225400D01*
X110678372Y-89222882D01*
X110659686Y-89217214D01*
X110642467Y-89208010D01*
X110627375Y-89195625D01*
X110614990Y-89180533D01*
X110605786Y-89163314D01*
X110600118Y-89144628D01*
X110597600Y-89119060D01*
X110597600Y-88680940D01*
X110600118Y-88655372D01*
X110605786Y-88636686D01*
X110614990Y-88619467D01*
X110627375Y-88604375D01*
X110642467Y-88591990D01*
X110659686Y-88582786D01*
X110678372Y-88577118D01*
X110703940Y-88574600D01*
X112142060Y-88574600D01*
X112167628Y-88577118D01*
G37*
G36*
X112167628Y-87307118D02*
G01*
X112186314Y-87312786D01*
X112203533Y-87321990D01*
X112218625Y-87334375D01*
X112231010Y-87349467D01*
X112240214Y-87366686D01*
X112245882Y-87385372D01*
X112248400Y-87410940D01*
X112248400Y-87849060D01*
X112245882Y-87874628D01*
X112240214Y-87893314D01*
X112231010Y-87910533D01*
X112218625Y-87925625D01*
X112203533Y-87938010D01*
X112186314Y-87947214D01*
X112167628Y-87952882D01*
X112142060Y-87955400D01*
X110703940Y-87955400D01*
X110678372Y-87952882D01*
X110659686Y-87947214D01*
X110642467Y-87938010D01*
X110627375Y-87925625D01*
X110614990Y-87910533D01*
X110605786Y-87893314D01*
X110600118Y-87874628D01*
X110597600Y-87849060D01*
X110597600Y-87410940D01*
X110600118Y-87385372D01*
X110605786Y-87366686D01*
X110614990Y-87349467D01*
X110627375Y-87334375D01*
X110642467Y-87321990D01*
X110659686Y-87312786D01*
X110678372Y-87307118D01*
X110703940Y-87304600D01*
X112142060Y-87304600D01*
X112167628Y-87307118D01*
G37*
G36*
X104967628Y-87307118D02*
G01*
X104986314Y-87312786D01*
X105003533Y-87321990D01*
X105018625Y-87334375D01*
X105031010Y-87349467D01*
X105040214Y-87366686D01*
X105045882Y-87385372D01*
X105048400Y-87410940D01*
X105048400Y-87849060D01*
X105045882Y-87874628D01*
X105040214Y-87893314D01*
X105031010Y-87910533D01*
X105018625Y-87925625D01*
X105003533Y-87938010D01*
X104986314Y-87947214D01*
X104967628Y-87952882D01*
X104942060Y-87955400D01*
X103503940Y-87955400D01*
X103478372Y-87952882D01*
X103459686Y-87947214D01*
X103442467Y-87938010D01*
X103427375Y-87925625D01*
X103414990Y-87910533D01*
X103405786Y-87893314D01*
X103400118Y-87874628D01*
X103397600Y-87849060D01*
X103397600Y-87410940D01*
X103400118Y-87385372D01*
X103405786Y-87366686D01*
X103414990Y-87349467D01*
X103427375Y-87334375D01*
X103442467Y-87321990D01*
X103459686Y-87312786D01*
X103478372Y-87307118D01*
X103503940Y-87304600D01*
X104942060Y-87304600D01*
X104967628Y-87307118D01*
G37*
G36*
X101093345Y-85518240D02*
G01*
X101252656Y-85584229D01*
X101252658Y-85584230D01*
X101396035Y-85680032D01*
X101517968Y-85801965D01*
X101613771Y-85945344D01*
X101679760Y-86104655D01*
X101713400Y-86273779D01*
X101713400Y-86446221D01*
X101679760Y-86615345D01*
X101613771Y-86774656D01*
X101613770Y-86774658D01*
X101517968Y-86918035D01*
X101396035Y-87039968D01*
X101252658Y-87135770D01*
X101252657Y-87135771D01*
X101252656Y-87135771D01*
X101093345Y-87201760D01*
X100924221Y-87235400D01*
X100751779Y-87235400D01*
X100582655Y-87201760D01*
X100423344Y-87135771D01*
X100423343Y-87135771D01*
X100423342Y-87135770D01*
X100279965Y-87039968D01*
X100158032Y-86918035D01*
X100062230Y-86774658D01*
X100062229Y-86774656D01*
X99996240Y-86615345D01*
X99962600Y-86446221D01*
X99962600Y-86273779D01*
X99996240Y-86104655D01*
X100062229Y-85945344D01*
X100158032Y-85801965D01*
X100279965Y-85680032D01*
X100423342Y-85584230D01*
X100423344Y-85584229D01*
X100582655Y-85518240D01*
X100751779Y-85484600D01*
X100924221Y-85484600D01*
X101093345Y-85518240D01*
G37*
G36*
X133100400Y-86890400D02*
G01*
X127249600Y-86890400D01*
X127249600Y-85339600D01*
X133100400Y-85339600D01*
X133100400Y-86890400D01*
G37*
G36*
X135150400Y-84840400D02*
G01*
X133599600Y-84840400D01*
X133599600Y-78989600D01*
X135150400Y-78989600D01*
X135150400Y-84840400D01*
G37*
G36*
X126750400Y-84840400D02*
G01*
X125199600Y-84840400D01*
X125199600Y-78989600D01*
X126750400Y-78989600D01*
X126750400Y-84840400D01*
G37*
G36*
X101093345Y-82978240D02*
G01*
X101252656Y-83044229D01*
X101252658Y-83044230D01*
X101396035Y-83140032D01*
X101517968Y-83261965D01*
X101613771Y-83405344D01*
X101679760Y-83564655D01*
X101713400Y-83733779D01*
X101713400Y-83906221D01*
X101679760Y-84075345D01*
X101613771Y-84234656D01*
X101613770Y-84234658D01*
X101517968Y-84378035D01*
X101396035Y-84499968D01*
X101252658Y-84595770D01*
X101252657Y-84595771D01*
X101252656Y-84595771D01*
X101093345Y-84661760D01*
X100924221Y-84695400D01*
X100751779Y-84695400D01*
X100582655Y-84661760D01*
X100423344Y-84595771D01*
X100423343Y-84595771D01*
X100423342Y-84595770D01*
X100279965Y-84499968D01*
X100158032Y-84378035D01*
X100062230Y-84234658D01*
X100062229Y-84234656D01*
X99996240Y-84075345D01*
X99962600Y-83906221D01*
X99962600Y-83733779D01*
X99996240Y-83564655D01*
X100062229Y-83405344D01*
X100158032Y-83261965D01*
X100279965Y-83140032D01*
X100423342Y-83044230D01*
X100423344Y-83044229D01*
X100582655Y-82978240D01*
X100751779Y-82944600D01*
X100924221Y-82944600D01*
X101093345Y-82978240D01*
G37*
G36*
X131950400Y-83690400D02*
G01*
X128399600Y-83690400D01*
X128399600Y-80139600D01*
X131950400Y-80139600D01*
X131950400Y-83690400D01*
G37*
G36*
X133100400Y-78490400D02*
G01*
X127249600Y-78490400D01*
X127249600Y-76939600D01*
X133100400Y-76939600D01*
X133100400Y-78490400D01*
G37*
G36*
X145597400Y-78382400D02*
G01*
X142946600Y-78382400D01*
X142946600Y-76931600D01*
X145597400Y-76931600D01*
X145597400Y-78382400D01*
G37*
G36*
X144636610Y-73855036D02*
G01*
X144864095Y-73949264D01*
X144864097Y-73949265D01*
X145068828Y-74086062D01*
X145242938Y-74260172D01*
X145379736Y-74464905D01*
X145473964Y-74692390D01*
X145522000Y-74933884D01*
X145522000Y-75180116D01*
X145473964Y-75421610D01*
X145379736Y-75649095D01*
X145379735Y-75649097D01*
X145242938Y-75853828D01*
X145068828Y-76027938D01*
X144864097Y-76164735D01*
X144864096Y-76164736D01*
X144864095Y-76164736D01*
X144636610Y-76258964D01*
X144395116Y-76307000D01*
X144148884Y-76307000D01*
X143907390Y-76258964D01*
X143679905Y-76164736D01*
X143679904Y-76164736D01*
X143679903Y-76164735D01*
X143475172Y-76027938D01*
X143301062Y-75853828D01*
X143164265Y-75649097D01*
X143164264Y-75649095D01*
X143070036Y-75421610D01*
X143022000Y-75180116D01*
X143022000Y-74933884D01*
X143070036Y-74692390D01*
X143164264Y-74464905D01*
X143301062Y-74260172D01*
X143475172Y-74086062D01*
X143679903Y-73949265D01*
X143679905Y-73949264D01*
X143907390Y-73855036D01*
X144148884Y-73807000D01*
X144395116Y-73807000D01*
X144636610Y-73855036D01*
G37*
G36*
X145597400Y-73182400D02*
G01*
X142946600Y-73182400D01*
X142946600Y-71731600D01*
X145597400Y-71731600D01*
X145597400Y-73182400D01*
G37*
G36*
X116924478Y-57099511D02*
G01*
X116956058Y-57109091D01*
X116985164Y-57124649D01*
X117015438Y-57149494D01*
X117055290Y-57189346D01*
X117055296Y-57189351D01*
X117435649Y-57569704D01*
X117435654Y-57569710D01*
X117475506Y-57609562D01*
X117500351Y-57639836D01*
X117515909Y-57668942D01*
X117525489Y-57700522D01*
X117528723Y-57733364D01*
X117525489Y-57766206D01*
X117515909Y-57797786D01*
X117500351Y-57826892D01*
X117475506Y-57857166D01*
X117435654Y-57897018D01*
X117435649Y-57897024D01*
X117108330Y-58224343D01*
X117108324Y-58224348D01*
X117068472Y-58264200D01*
X117038198Y-58289045D01*
X117009092Y-58304603D01*
X116977512Y-58314183D01*
X116944670Y-58317417D01*
X116911828Y-58314183D01*
X116880248Y-58304603D01*
X116851142Y-58289045D01*
X116820868Y-58264200D01*
X116781016Y-58224348D01*
X116781010Y-58224343D01*
X116400657Y-57843990D01*
X116400652Y-57843984D01*
X116360800Y-57804132D01*
X116335955Y-57773858D01*
X116320397Y-57744752D01*
X116310817Y-57713172D01*
X116307583Y-57680330D01*
X116310817Y-57647488D01*
X116320397Y-57615908D01*
X116335955Y-57586802D01*
X116360800Y-57556528D01*
X116400652Y-57516676D01*
X116400657Y-57516670D01*
X116727976Y-57189351D01*
X116727982Y-57189346D01*
X116767834Y-57149494D01*
X116798108Y-57124649D01*
X116827214Y-57109091D01*
X116858794Y-57099511D01*
X116891636Y-57096277D01*
X116924478Y-57099511D01*
G37*
G36*
X115429548Y-55751959D02*
G01*
X115465815Y-55762961D01*
X115499245Y-55780829D01*
X115533309Y-55808785D01*
X115573159Y-55848635D01*
X115573165Y-55848640D01*
X116236360Y-56511835D01*
X116236365Y-56511841D01*
X116276215Y-56551691D01*
X116304171Y-56585755D01*
X116322039Y-56619185D01*
X116333041Y-56655452D01*
X116336756Y-56693173D01*
X116333041Y-56730894D01*
X116322039Y-56767161D01*
X116304171Y-56800591D01*
X116276215Y-56834655D01*
X116236365Y-56874505D01*
X116236360Y-56874511D01*
X115873685Y-57237186D01*
X115873679Y-57237191D01*
X115833829Y-57277041D01*
X115799765Y-57304997D01*
X115766335Y-57322865D01*
X115730068Y-57333867D01*
X115692347Y-57337582D01*
X115654626Y-57333867D01*
X115618359Y-57322865D01*
X115584929Y-57304997D01*
X115550865Y-57277041D01*
X115511015Y-57237191D01*
X115511009Y-57237186D01*
X114847814Y-56573991D01*
X114847809Y-56573985D01*
X114807959Y-56534135D01*
X114780003Y-56500071D01*
X114762135Y-56466641D01*
X114751133Y-56430374D01*
X114747418Y-56392653D01*
X114751133Y-56354932D01*
X114762135Y-56318665D01*
X114780003Y-56285235D01*
X114807959Y-56251171D01*
X114847809Y-56211321D01*
X114847814Y-56211315D01*
X115210489Y-55848640D01*
X115210495Y-55848635D01*
X115250345Y-55808785D01*
X115284409Y-55780829D01*
X115317839Y-55762961D01*
X115354106Y-55751959D01*
X115391827Y-55748244D01*
X115429548Y-55751959D01*
G37*
G36*
X118038172Y-55985817D02*
G01*
X118069752Y-55995397D01*
X118098858Y-56010955D01*
X118129132Y-56035800D01*
X118168984Y-56075652D01*
X118168990Y-56075657D01*
X118549343Y-56456010D01*
X118549348Y-56456016D01*
X118589200Y-56495868D01*
X118614045Y-56526142D01*
X118629603Y-56555248D01*
X118639183Y-56586828D01*
X118642417Y-56619670D01*
X118639183Y-56652512D01*
X118629603Y-56684092D01*
X118614045Y-56713198D01*
X118589200Y-56743472D01*
X118549348Y-56783324D01*
X118549343Y-56783330D01*
X118222024Y-57110649D01*
X118222018Y-57110654D01*
X118182166Y-57150506D01*
X118151892Y-57175351D01*
X118122786Y-57190909D01*
X118091206Y-57200489D01*
X118058364Y-57203723D01*
X118025522Y-57200489D01*
X117993942Y-57190909D01*
X117964836Y-57175351D01*
X117934562Y-57150506D01*
X117894710Y-57110654D01*
X117894704Y-57110649D01*
X117514351Y-56730296D01*
X117514346Y-56730290D01*
X117474494Y-56690438D01*
X117449649Y-56660164D01*
X117434091Y-56631058D01*
X117424511Y-56599478D01*
X117421277Y-56566636D01*
X117424511Y-56533794D01*
X117434091Y-56502214D01*
X117449649Y-56473108D01*
X117474494Y-56442834D01*
X117514346Y-56402982D01*
X117514351Y-56402976D01*
X117841670Y-56075657D01*
X117841676Y-56075652D01*
X117881528Y-56035800D01*
X117911802Y-56010955D01*
X117940908Y-55995397D01*
X117972488Y-55985817D01*
X118005330Y-55982583D01*
X118038172Y-55985817D01*
G37*
G36*
X116755374Y-54426133D02*
G01*
X116791641Y-54437135D01*
X116825071Y-54455003D01*
X116859135Y-54482959D01*
X116898985Y-54522809D01*
X116898991Y-54522814D01*
X117562186Y-55186009D01*
X117562191Y-55186015D01*
X117602041Y-55225865D01*
X117629997Y-55259929D01*
X117647865Y-55293359D01*
X117658867Y-55329626D01*
X117662582Y-55367347D01*
X117658867Y-55405068D01*
X117647865Y-55441335D01*
X117629997Y-55474765D01*
X117602041Y-55508829D01*
X117562191Y-55548679D01*
X117562186Y-55548685D01*
X117199511Y-55911360D01*
X117199505Y-55911365D01*
X117159655Y-55951215D01*
X117125591Y-55979171D01*
X117092161Y-55997039D01*
X117055894Y-56008041D01*
X117018173Y-56011756D01*
X116980452Y-56008041D01*
X116944185Y-55997039D01*
X116910755Y-55979171D01*
X116876691Y-55951215D01*
X116836841Y-55911365D01*
X116836835Y-55911360D01*
X116173640Y-55248165D01*
X116173635Y-55248159D01*
X116133785Y-55208309D01*
X116105829Y-55174245D01*
X116087961Y-55140815D01*
X116076959Y-55104548D01*
X116073244Y-55066827D01*
X116076959Y-55029106D01*
X116087961Y-54992839D01*
X116105829Y-54959409D01*
X116133785Y-54925345D01*
X116173635Y-54885495D01*
X116173640Y-54885489D01*
X116536315Y-54522814D01*
X116536321Y-54522809D01*
X116576171Y-54482959D01*
X116610235Y-54455003D01*
X116643665Y-54437135D01*
X116679932Y-54426133D01*
X116717653Y-54422418D01*
X116755374Y-54426133D01*
G37*
G36*
X113651548Y-53846959D02*
G01*
X113687815Y-53857961D01*
X113721245Y-53875829D01*
X113755309Y-53903785D01*
X113795159Y-53943635D01*
X113795165Y-53943640D01*
X114458360Y-54606835D01*
X114458365Y-54606841D01*
X114498215Y-54646691D01*
X114526171Y-54680755D01*
X114544039Y-54714185D01*
X114555041Y-54750452D01*
X114558756Y-54788173D01*
X114555041Y-54825894D01*
X114544039Y-54862161D01*
X114526171Y-54895591D01*
X114498215Y-54929655D01*
X114458365Y-54969505D01*
X114458360Y-54969511D01*
X114095685Y-55332186D01*
X114095679Y-55332191D01*
X114055829Y-55372041D01*
X114021765Y-55399997D01*
X113988335Y-55417865D01*
X113952068Y-55428867D01*
X113914347Y-55432582D01*
X113876626Y-55428867D01*
X113840359Y-55417865D01*
X113806929Y-55399997D01*
X113772865Y-55372041D01*
X113733015Y-55332191D01*
X113733009Y-55332186D01*
X113069814Y-54668991D01*
X113069809Y-54668985D01*
X113029959Y-54629135D01*
X113002003Y-54595071D01*
X112984135Y-54561641D01*
X112973133Y-54525374D01*
X112969418Y-54487653D01*
X112973133Y-54449932D01*
X112984135Y-54413665D01*
X113002003Y-54380235D01*
X113029959Y-54346171D01*
X113069809Y-54306321D01*
X113069814Y-54306315D01*
X113432489Y-53943640D01*
X113432495Y-53943635D01*
X113472345Y-53903785D01*
X113506409Y-53875829D01*
X113539839Y-53857961D01*
X113576106Y-53846959D01*
X113613827Y-53843244D01*
X113651548Y-53846959D01*
G37*
G36*
X114977374Y-52521133D02*
G01*
X115013641Y-52532135D01*
X115047071Y-52550003D01*
X115081135Y-52577959D01*
X115120985Y-52617809D01*
X115120991Y-52617814D01*
X115784186Y-53281009D01*
X115784191Y-53281015D01*
X115824041Y-53320865D01*
X115851997Y-53354929D01*
X115869865Y-53388359D01*
X115880867Y-53424626D01*
X115884582Y-53462347D01*
X115880867Y-53500068D01*
X115869865Y-53536335D01*
X115851997Y-53569765D01*
X115824041Y-53603829D01*
X115784191Y-53643679D01*
X115784186Y-53643685D01*
X115421511Y-54006360D01*
X115421505Y-54006365D01*
X115381655Y-54046215D01*
X115347591Y-54074171D01*
X115314161Y-54092039D01*
X115277894Y-54103041D01*
X115240173Y-54106756D01*
X115202452Y-54103041D01*
X115166185Y-54092039D01*
X115132755Y-54074171D01*
X115098691Y-54046215D01*
X115058841Y-54006365D01*
X115058835Y-54006360D01*
X114395640Y-53343165D01*
X114395635Y-53343159D01*
X114355785Y-53303309D01*
X114327829Y-53269245D01*
X114309961Y-53235815D01*
X114298959Y-53199548D01*
X114295244Y-53161827D01*
X114298959Y-53124106D01*
X114309961Y-53087839D01*
X114327829Y-53054409D01*
X114355785Y-53020345D01*
X114395635Y-52980495D01*
X114395640Y-52980489D01*
X114758315Y-52617814D01*
X114758321Y-52617809D01*
X114798171Y-52577959D01*
X114832235Y-52550003D01*
X114865665Y-52532135D01*
X114901932Y-52521133D01*
X114939653Y-52517418D01*
X114977374Y-52521133D01*
G37*
G36*
X111746548Y-51941959D02*
G01*
X111782815Y-51952961D01*
X111816245Y-51970829D01*
X111850309Y-51998785D01*
X111890159Y-52038635D01*
X111890165Y-52038640D01*
X112553360Y-52701835D01*
X112553365Y-52701841D01*
X112593215Y-52741691D01*
X112621171Y-52775755D01*
X112639039Y-52809185D01*
X112650041Y-52845452D01*
X112653756Y-52883173D01*
X112650041Y-52920894D01*
X112639039Y-52957161D01*
X112621171Y-52990591D01*
X112593215Y-53024655D01*
X112553365Y-53064505D01*
X112553360Y-53064511D01*
X112190685Y-53427186D01*
X112190679Y-53427191D01*
X112150829Y-53467041D01*
X112116765Y-53494997D01*
X112083335Y-53512865D01*
X112047068Y-53523867D01*
X112009347Y-53527582D01*
X111971626Y-53523867D01*
X111935359Y-53512865D01*
X111901929Y-53494997D01*
X111867865Y-53467041D01*
X111828015Y-53427191D01*
X111828009Y-53427186D01*
X111164814Y-52763991D01*
X111164809Y-52763985D01*
X111124959Y-52724135D01*
X111097003Y-52690071D01*
X111079135Y-52656641D01*
X111068133Y-52620374D01*
X111064418Y-52582653D01*
X111068133Y-52544932D01*
X111079135Y-52508665D01*
X111097003Y-52475235D01*
X111124959Y-52441171D01*
X111164809Y-52401321D01*
X111164814Y-52401315D01*
X111527489Y-52038640D01*
X111527495Y-52038635D01*
X111567345Y-51998785D01*
X111601409Y-51970829D01*
X111634839Y-51952961D01*
X111671106Y-51941959D01*
X111708827Y-51938244D01*
X111746548Y-51941959D01*
G37*
G36*
X112498836Y-45274331D02*
G01*
X112498836Y-45274332D01*
X112675046Y-45450542D01*
X112675046Y-45450541D01*
X112958455Y-45733950D01*
X112958455Y-45733951D01*
X113134666Y-45910162D01*
X113134666Y-45910161D01*
X113418075Y-46193570D01*
X113418075Y-46193571D01*
X113594285Y-46369781D01*
X113594285Y-46369780D01*
X113877694Y-46653189D01*
X113877694Y-46653190D01*
X113965517Y-46741013D01*
X113965523Y-46741018D01*
X114053905Y-46829400D01*
X114053905Y-46829399D01*
X114337314Y-47112808D01*
X114337314Y-47112809D01*
X114425696Y-47201191D01*
X114425701Y-47201197D01*
X114513524Y-47289020D01*
X114513524Y-47289019D01*
X114796933Y-47572428D01*
X114796933Y-47572429D01*
X114973143Y-47748639D01*
X114973143Y-47748638D01*
X115256552Y-48032047D01*
X115256552Y-48032048D01*
X115432763Y-48208259D01*
X115432763Y-48208258D01*
X115716172Y-48491667D01*
X115716172Y-48491668D01*
X115892382Y-48667878D01*
X115892382Y-48667877D01*
X116175791Y-48951286D01*
X116175791Y-48951287D01*
X116263614Y-49039110D01*
X116263620Y-49039115D01*
X116352002Y-49127497D01*
X116352002Y-49127496D01*
X116635411Y-49410905D01*
X116635411Y-49410906D01*
X116723793Y-49499288D01*
X116723798Y-49499294D01*
X116811621Y-49587117D01*
X116811621Y-49587116D01*
X117095030Y-49870525D01*
X117095030Y-49870526D01*
X117271240Y-50046736D01*
X117271240Y-50046735D01*
X117554649Y-50330144D01*
X117554649Y-50330145D01*
X117730860Y-50506356D01*
X117730860Y-50506355D01*
X118014269Y-50789764D01*
X118014269Y-50789765D01*
X118190479Y-50965975D01*
X118190479Y-50965974D01*
X118473888Y-51249383D01*
X118473888Y-51249384D01*
X118561711Y-51337207D01*
X118561717Y-51337212D01*
X118650099Y-51425594D01*
X118650099Y-51425593D01*
X118933508Y-51709002D01*
X118933508Y-51709003D01*
X119021890Y-51797385D01*
X119021895Y-51797391D01*
X119109718Y-51885214D01*
X119109718Y-51885213D01*
X119393127Y-52168622D01*
X118084414Y-53477335D01*
X117801005Y-53193926D01*
X117801006Y-53193926D01*
X117712624Y-53105544D01*
X117712619Y-53105538D01*
X117624796Y-53017715D01*
X117624795Y-53017715D01*
X117341386Y-52734306D01*
X117341387Y-52734306D01*
X117253564Y-52646483D01*
X117253558Y-52646478D01*
X117165176Y-52558096D01*
X117165175Y-52558096D01*
X116881766Y-52274687D01*
X116881767Y-52274687D01*
X116705557Y-52098477D01*
X116705556Y-52098477D01*
X116422147Y-51815068D01*
X116422148Y-51815068D01*
X116245937Y-51638857D01*
X116245936Y-51638857D01*
X115962527Y-51355448D01*
X115962528Y-51355448D01*
X115786318Y-51179238D01*
X115786317Y-51179238D01*
X115502908Y-50895829D01*
X115502909Y-50895829D01*
X115414527Y-50807447D01*
X115414522Y-50807441D01*
X115326699Y-50719618D01*
X115326698Y-50719618D01*
X115043289Y-50436209D01*
X115043290Y-50436209D01*
X114955467Y-50348386D01*
X114955461Y-50348381D01*
X114867079Y-50259999D01*
X114867078Y-50259999D01*
X114583669Y-49976590D01*
X114583670Y-49976590D01*
X114407460Y-49800380D01*
X114407459Y-49800380D01*
X114124050Y-49516971D01*
X114124051Y-49516971D01*
X113947840Y-49340760D01*
X113947839Y-49340760D01*
X113664430Y-49057351D01*
X113664431Y-49057351D01*
X113488221Y-48881141D01*
X113488220Y-48881141D01*
X113204811Y-48597732D01*
X113204812Y-48597732D01*
X113116430Y-48509350D01*
X113116425Y-48509344D01*
X113028602Y-48421521D01*
X113028601Y-48421521D01*
X112745192Y-48138112D01*
X112745193Y-48138112D01*
X112657370Y-48050289D01*
X112657364Y-48050284D01*
X112568982Y-47961902D01*
X112568981Y-47961902D01*
X112285572Y-47678493D01*
X112285573Y-47678493D01*
X112109363Y-47502283D01*
X112109362Y-47502283D01*
X111825953Y-47218874D01*
X111825954Y-47218874D01*
X111649743Y-47042663D01*
X111649742Y-47042663D01*
X111366333Y-46759254D01*
X111366334Y-46759254D01*
X111190124Y-46583044D01*
X111190123Y-46583044D01*
X110906714Y-46299635D01*
X112215427Y-44990922D01*
X112498836Y-45274331D01*
G37*
G36*
X113072374Y-50616133D02*
G01*
X113108641Y-50627135D01*
X113142071Y-50645003D01*
X113176135Y-50672959D01*
X113215985Y-50712809D01*
X113215991Y-50712814D01*
X113879186Y-51376009D01*
X113879191Y-51376015D01*
X113919041Y-51415865D01*
X113946997Y-51449929D01*
X113964865Y-51483359D01*
X113975867Y-51519626D01*
X113979582Y-51557347D01*
X113975867Y-51595068D01*
X113964865Y-51631335D01*
X113946997Y-51664765D01*
X113919041Y-51698829D01*
X113879191Y-51738679D01*
X113879186Y-51738685D01*
X113516511Y-52101360D01*
X113516505Y-52101365D01*
X113476655Y-52141215D01*
X113442591Y-52169171D01*
X113409161Y-52187039D01*
X113372894Y-52198041D01*
X113335173Y-52201756D01*
X113297452Y-52198041D01*
X113261185Y-52187039D01*
X113227755Y-52169171D01*
X113193691Y-52141215D01*
X113153841Y-52101365D01*
X113153835Y-52101360D01*
X112490640Y-51438165D01*
X112490635Y-51438159D01*
X112450785Y-51398309D01*
X112422829Y-51364245D01*
X112404961Y-51330815D01*
X112393959Y-51294548D01*
X112390244Y-51256827D01*
X112393959Y-51219106D01*
X112404961Y-51182839D01*
X112422829Y-51149409D01*
X112450785Y-51115345D01*
X112490635Y-51075495D01*
X112490640Y-51075489D01*
X112853315Y-50712814D01*
X112853321Y-50712809D01*
X112893171Y-50672959D01*
X112927235Y-50645003D01*
X112960665Y-50627135D01*
X112996932Y-50616133D01*
X113034653Y-50612418D01*
X113072374Y-50616133D01*
G37*
G36*
X110574478Y-50749511D02*
G01*
X110606058Y-50759091D01*
X110635164Y-50774649D01*
X110665438Y-50799494D01*
X110705290Y-50839346D01*
X110705296Y-50839351D01*
X111085649Y-51219704D01*
X111085654Y-51219710D01*
X111125506Y-51259562D01*
X111150351Y-51289836D01*
X111165909Y-51318942D01*
X111175489Y-51350522D01*
X111178723Y-51383364D01*
X111175489Y-51416206D01*
X111165909Y-51447786D01*
X111150351Y-51476892D01*
X111125506Y-51507166D01*
X111085654Y-51547018D01*
X111085649Y-51547024D01*
X110758330Y-51874343D01*
X110758324Y-51874348D01*
X110718472Y-51914200D01*
X110688198Y-51939045D01*
X110659092Y-51954603D01*
X110627512Y-51964183D01*
X110594670Y-51967417D01*
X110561828Y-51964183D01*
X110530248Y-51954603D01*
X110501142Y-51939045D01*
X110470868Y-51914200D01*
X110431016Y-51874348D01*
X110431010Y-51874343D01*
X110050657Y-51493990D01*
X110050652Y-51493984D01*
X110010800Y-51454132D01*
X109985955Y-51423858D01*
X109970397Y-51394752D01*
X109960817Y-51363172D01*
X109957583Y-51330330D01*
X109960817Y-51297488D01*
X109970397Y-51265908D01*
X109985955Y-51236802D01*
X110010800Y-51206528D01*
X110050652Y-51166676D01*
X110050657Y-51166670D01*
X110377976Y-50839351D01*
X110377982Y-50839346D01*
X110417834Y-50799494D01*
X110448108Y-50774649D01*
X110477214Y-50759091D01*
X110508794Y-50749511D01*
X110541636Y-50746277D01*
X110574478Y-50749511D01*
G37*
G36*
X111688172Y-49635817D02*
G01*
X111719752Y-49645397D01*
X111748858Y-49660955D01*
X111779132Y-49685800D01*
X111818984Y-49725652D01*
X111818990Y-49725657D01*
X112199343Y-50106010D01*
X112199348Y-50106016D01*
X112239200Y-50145868D01*
X112264045Y-50176142D01*
X112279603Y-50205248D01*
X112289183Y-50236828D01*
X112292417Y-50269670D01*
X112289183Y-50302512D01*
X112279603Y-50334092D01*
X112264045Y-50363198D01*
X112239200Y-50393472D01*
X112199348Y-50433324D01*
X112199343Y-50433330D01*
X111872024Y-50760649D01*
X111872018Y-50760654D01*
X111832166Y-50800506D01*
X111801892Y-50825351D01*
X111772786Y-50840909D01*
X111741206Y-50850489D01*
X111708364Y-50853723D01*
X111675522Y-50850489D01*
X111643942Y-50840909D01*
X111614836Y-50825351D01*
X111584562Y-50800506D01*
X111544710Y-50760654D01*
X111544704Y-50760649D01*
X111164351Y-50380296D01*
X111164346Y-50380290D01*
X111124494Y-50340438D01*
X111099649Y-50310164D01*
X111084091Y-50281058D01*
X111074511Y-50249478D01*
X111071277Y-50216636D01*
X111074511Y-50183794D01*
X111084091Y-50152214D01*
X111099649Y-50123108D01*
X111124494Y-50092834D01*
X111164346Y-50052982D01*
X111164351Y-50052976D01*
X111491670Y-49725657D01*
X111491676Y-49725652D01*
X111531528Y-49685800D01*
X111561802Y-49660955D01*
X111590908Y-49645397D01*
X111622488Y-49635817D01*
X111655330Y-49632583D01*
X111688172Y-49635817D01*
G37*
G36*
X110705894Y-48131959D02*
G01*
X110742161Y-48142961D01*
X110775591Y-48160829D01*
X110809655Y-48188785D01*
X110849505Y-48228635D01*
X110849511Y-48228640D01*
X111212186Y-48591315D01*
X111212191Y-48591321D01*
X111252041Y-48631171D01*
X111279997Y-48665235D01*
X111297865Y-48698665D01*
X111308867Y-48734932D01*
X111312582Y-48772653D01*
X111308867Y-48810374D01*
X111297865Y-48846641D01*
X111279997Y-48880071D01*
X111252041Y-48914135D01*
X111212191Y-48953985D01*
X111212186Y-48953991D01*
X110548991Y-49617186D01*
X110548985Y-49617191D01*
X110509135Y-49657041D01*
X110475071Y-49684997D01*
X110441641Y-49702865D01*
X110405374Y-49713867D01*
X110367653Y-49717582D01*
X110329932Y-49713867D01*
X110293665Y-49702865D01*
X110260235Y-49684997D01*
X110226171Y-49657041D01*
X110186321Y-49617191D01*
X110186315Y-49617186D01*
X109823640Y-49254511D01*
X109823635Y-49254505D01*
X109783785Y-49214655D01*
X109755829Y-49180591D01*
X109737961Y-49147161D01*
X109726959Y-49110894D01*
X109723244Y-49073173D01*
X109726959Y-49035452D01*
X109737961Y-48999185D01*
X109755829Y-48965755D01*
X109783785Y-48931691D01*
X109823635Y-48891841D01*
X109823640Y-48891835D01*
X110486835Y-48228640D01*
X110486841Y-48228635D01*
X110526691Y-48188785D01*
X110560755Y-48160829D01*
X110594185Y-48142961D01*
X110630452Y-48131959D01*
X110668173Y-48128244D01*
X110705894Y-48131959D01*
G37*
G36*
X109380068Y-46806133D02*
G01*
X109416335Y-46817135D01*
X109449765Y-46835003D01*
X109483829Y-46862959D01*
X109523679Y-46902809D01*
X109523685Y-46902814D01*
X109886360Y-47265489D01*
X109886365Y-47265495D01*
X109926215Y-47305345D01*
X109954171Y-47339409D01*
X109972039Y-47372839D01*
X109983041Y-47409106D01*
X109986756Y-47446827D01*
X109983041Y-47484548D01*
X109972039Y-47520815D01*
X109954171Y-47554245D01*
X109926215Y-47588309D01*
X109886365Y-47628159D01*
X109886360Y-47628165D01*
X109223165Y-48291360D01*
X109223159Y-48291365D01*
X109183309Y-48331215D01*
X109149245Y-48359171D01*
X109115815Y-48377039D01*
X109079548Y-48388041D01*
X109041827Y-48391756D01*
X109004106Y-48388041D01*
X108967839Y-48377039D01*
X108934409Y-48359171D01*
X108900345Y-48331215D01*
X108860495Y-48291365D01*
X108860489Y-48291360D01*
X108497814Y-47928685D01*
X108497809Y-47928679D01*
X108457959Y-47888829D01*
X108430003Y-47854765D01*
X108412135Y-47821335D01*
X108401133Y-47785068D01*
X108397418Y-47747347D01*
X108401133Y-47709626D01*
X108412135Y-47673359D01*
X108430003Y-47639929D01*
X108457959Y-47605865D01*
X108497809Y-47566015D01*
X108497814Y-47566009D01*
X109161009Y-46902814D01*
X109161015Y-46902809D01*
X109200865Y-46862959D01*
X109234929Y-46835003D01*
X109268359Y-46817135D01*
X109304626Y-46806133D01*
X109342347Y-46802418D01*
X109380068Y-46806133D01*
G37*
G36*
X110984548Y-41781959D02*
G01*
X111020815Y-41792961D01*
X111054245Y-41810829D01*
X111088309Y-41838785D01*
X111128159Y-41878635D01*
X111128165Y-41878640D01*
X111791360Y-42541835D01*
X111791365Y-42541841D01*
X111831215Y-42581691D01*
X111859171Y-42615755D01*
X111877039Y-42649185D01*
X111888041Y-42685452D01*
X111891756Y-42723173D01*
X111888041Y-42760894D01*
X111877039Y-42797161D01*
X111859171Y-42830591D01*
X111831215Y-42864655D01*
X111791365Y-42904505D01*
X111791360Y-42904511D01*
X111428685Y-43267186D01*
X111428679Y-43267191D01*
X111388829Y-43307041D01*
X111354765Y-43334997D01*
X111321335Y-43352865D01*
X111285068Y-43363867D01*
X111247347Y-43367582D01*
X111209626Y-43363867D01*
X111173359Y-43352865D01*
X111139929Y-43334997D01*
X111105865Y-43307041D01*
X111066015Y-43267191D01*
X111066009Y-43267186D01*
X110402814Y-42603991D01*
X110402809Y-42603985D01*
X110362959Y-42564135D01*
X110335003Y-42530071D01*
X110317135Y-42496641D01*
X110306133Y-42460374D01*
X110302418Y-42422653D01*
X110306133Y-42384932D01*
X110317135Y-42348665D01*
X110335003Y-42315235D01*
X110362959Y-42281171D01*
X110402809Y-42241321D01*
X110402814Y-42241315D01*
X110765489Y-41878640D01*
X110765495Y-41878635D01*
X110805345Y-41838785D01*
X110839409Y-41810829D01*
X110872839Y-41792961D01*
X110909106Y-41781959D01*
X110946827Y-41778244D01*
X110984548Y-41781959D01*
G37*
G36*
X112310374Y-40456133D02*
G01*
X112346641Y-40467135D01*
X112380071Y-40485003D01*
X112414135Y-40512959D01*
X112453985Y-40552809D01*
X112453991Y-40552814D01*
X113117186Y-41216009D01*
X113117191Y-41216015D01*
X113157041Y-41255865D01*
X113184997Y-41289929D01*
X113202865Y-41323359D01*
X113213867Y-41359626D01*
X113217582Y-41397347D01*
X113213867Y-41435068D01*
X113202865Y-41471335D01*
X113184997Y-41504765D01*
X113157041Y-41538829D01*
X113117191Y-41578679D01*
X113117186Y-41578685D01*
X112754511Y-41941360D01*
X112754505Y-41941365D01*
X112714655Y-41981215D01*
X112680591Y-42009171D01*
X112647161Y-42027039D01*
X112610894Y-42038041D01*
X112573173Y-42041756D01*
X112535452Y-42038041D01*
X112499185Y-42027039D01*
X112465755Y-42009171D01*
X112431691Y-41981215D01*
X112391841Y-41941365D01*
X112391835Y-41941360D01*
X111728640Y-41278165D01*
X111728635Y-41278159D01*
X111688785Y-41238309D01*
X111660829Y-41204245D01*
X111642961Y-41170815D01*
X111631959Y-41134548D01*
X111628244Y-41096827D01*
X111631959Y-41059106D01*
X111642961Y-41022839D01*
X111660829Y-40989409D01*
X111688785Y-40955345D01*
X111728635Y-40915495D01*
X111728640Y-40915489D01*
X112091315Y-40552814D01*
X112091321Y-40552809D01*
X112131171Y-40512959D01*
X112165235Y-40485003D01*
X112198665Y-40467135D01*
X112234932Y-40456133D01*
X112272653Y-40452418D01*
X112310374Y-40456133D01*
G37*
M02*
