G04 #@! TF.GenerationSoftware,KiCad,Pcbnew,(5.1.5)-3*
G04 #@! TF.CreationDate,2020-02-08T22:35:02-06:00*
G04 #@! TF.ProjectId,tymkrs_Cyphercon_2020_coyote,74796d6b-7273-45f4-9379-70686572636f,V0*
G04 #@! TF.SameCoordinates,Original*
G04 #@! TF.FileFunction,Profile,NP*
%FSLAX46Y46*%
G04 Gerber Fmt 4.6, Leading zero omitted, Abs format (unit mm)*
G04 Created by KiCad (PCBNEW (5.1.5)-3) date 2020-02-08 22:35:02*
%MOMM*%
%LPD*%
G04 APERTURE LIST*
%ADD10C,0.180000*%
G04 APERTURE END LIST*
D10*
X127748584Y-8459555D02*
X127748584Y-8459555D01*
X126927986Y-8434121D02*
X127748584Y-8459555D01*
X126110945Y-8533034D02*
X126927986Y-8434121D01*
X126092893Y-8536519D02*
X126110945Y-8533034D01*
X125710020Y-8619858D02*
X126092893Y-8536519D01*
X125347476Y-8722610D02*
X125710020Y-8619858D01*
X124978490Y-8857709D02*
X125347476Y-8722610D01*
X124576293Y-9038091D02*
X124978490Y-8857709D01*
X124114115Y-9276691D02*
X124576293Y-9038091D01*
X123565187Y-9586444D02*
X124114115Y-9276691D01*
X122902738Y-9980285D02*
X123565187Y-9586444D01*
X122100000Y-10471151D02*
X122902738Y-9980285D01*
X122094071Y-10474807D02*
X122100000Y-10471151D01*
X121716232Y-10707533D02*
X122094071Y-10474807D01*
X121184033Y-11035004D02*
X121716232Y-10707533D01*
X120513243Y-11447528D02*
X121184033Y-11035004D01*
X119719632Y-11935416D02*
X120513243Y-11447528D01*
X118818970Y-12488977D02*
X119719632Y-11935416D01*
X117827025Y-13098521D02*
X118818970Y-12488977D01*
X116759567Y-13754358D02*
X117827025Y-13098521D01*
X115632366Y-14446797D02*
X116759567Y-13754358D01*
X115012019Y-14827822D02*
X115632366Y-14446797D01*
X124628017Y-14190979D02*
X124584275Y-14827822D01*
X124851020Y-13538961D02*
X124628017Y-14190979D01*
X125178023Y-13032008D02*
X124851020Y-13538961D01*
X125657966Y-12588891D02*
X125178023Y-13032008D01*
X126222723Y-12289812D02*
X125657966Y-12588891D01*
X126840219Y-12138198D02*
X126222723Y-12289812D01*
X127478378Y-12137474D02*
X126840219Y-12138198D01*
X128105124Y-12291066D02*
X127478378Y-12137474D01*
X128688381Y-12602400D02*
X128105124Y-12291066D01*
X129196073Y-13074900D02*
X128688381Y-12602400D01*
X129485283Y-13510445D02*
X129196073Y-13074900D01*
X129707790Y-14128736D02*
X129485283Y-13510445D01*
X129762227Y-14773033D02*
X129707790Y-14128736D01*
X129655407Y-15408870D02*
X129762227Y-14773033D01*
X129394145Y-16001786D02*
X129655407Y-15408870D01*
X128985256Y-16517315D02*
X129394145Y-16001786D01*
X128435555Y-16920996D02*
X128985256Y-16517315D01*
X128204817Y-17033602D02*
X128435555Y-16920996D01*
X127559349Y-17220959D02*
X128204817Y-17033602D01*
X126927613Y-17236963D02*
X127559349Y-17220959D01*
X126330300Y-17101136D02*
X126927613Y-17236963D01*
X125788101Y-16833001D02*
X126330300Y-17101136D01*
X125321708Y-16452080D02*
X125788101Y-16833001D01*
X124951812Y-15977894D02*
X125321708Y-16452080D01*
X124699104Y-15429968D02*
X124951812Y-15977894D01*
X124584275Y-14827822D02*
X124699104Y-15429968D01*
X114461192Y-15166148D02*
X115012019Y-14827822D01*
X113261813Y-15902720D02*
X114461192Y-15166148D01*
X112050000Y-16646824D02*
X113261813Y-15902720D01*
X111750670Y-16830617D02*
X112050000Y-16646824D01*
X110588319Y-17544433D02*
X111750670Y-16830617D01*
X109470023Y-18231369D02*
X110588319Y-17544433D01*
X108408422Y-18883651D02*
X109470023Y-18231369D01*
X107416157Y-19493506D02*
X108408422Y-18883651D01*
X106505866Y-20053160D02*
X107416157Y-19493506D01*
X105690190Y-20554839D02*
X106505866Y-20053160D01*
X104981770Y-20990768D02*
X105690190Y-20554839D01*
X104922321Y-21027376D02*
X104981770Y-20990768D01*
X148327145Y-20840605D02*
X148300000Y-21027376D01*
X148496351Y-20496386D02*
X148327145Y-20840605D01*
X148772155Y-20209923D02*
X148496351Y-20496386D01*
X149098015Y-20050435D02*
X148772155Y-20209923D01*
X149262886Y-20031448D02*
X149098015Y-20050435D01*
X149656672Y-20110803D02*
X149262886Y-20031448D01*
X149999482Y-20339163D02*
X149656672Y-20110803D01*
X150230723Y-20682704D02*
X149999482Y-20339163D01*
X150258968Y-20775020D02*
X150230723Y-20682704D01*
X150323945Y-21074346D02*
X150258968Y-20775020D01*
X150405189Y-21525852D02*
X150323945Y-21074346D01*
X150499404Y-22104543D02*
X150405189Y-21525852D01*
X150603295Y-22785423D02*
X150499404Y-22104543D01*
X150713565Y-23543498D02*
X150603295Y-22785423D01*
X150826921Y-24353770D02*
X150713565Y-23543498D01*
X150940065Y-25191246D02*
X150826921Y-24353770D01*
X151049703Y-26030928D02*
X150940065Y-25191246D01*
X151152539Y-26847823D02*
X151049703Y-26030928D01*
X151245277Y-27616934D02*
X151152539Y-26847823D01*
X151324622Y-28313266D02*
X151245277Y-27616934D01*
X151387278Y-28911823D02*
X151324622Y-28313266D01*
X151429949Y-29387610D02*
X151387278Y-28911823D01*
X151449341Y-29715631D02*
X151429949Y-29387610D01*
X151442156Y-29870891D02*
X151449341Y-29715631D01*
X151315855Y-30090714D02*
X151442156Y-29870891D01*
X151100000Y-30310272D02*
X151315855Y-30090714D01*
X150997643Y-30377663D02*
X151100000Y-30310272D01*
X150581605Y-30532161D02*
X150997643Y-30377663D01*
X150179585Y-30512878D02*
X150581605Y-30532161D01*
X149831659Y-30328325D02*
X150179585Y-30512878D01*
X149577907Y-29987015D02*
X149831659Y-30328325D01*
X149572240Y-29972456D02*
X149577907Y-29987015D01*
X149526856Y-29781931D02*
X149572240Y-29972456D01*
X149460107Y-29423135D02*
X149526856Y-29781931D01*
X149375624Y-28921520D02*
X149460107Y-29423135D01*
X149277036Y-28302540D02*
X149375624Y-28921520D01*
X149167975Y-27591649D02*
X149277036Y-28302540D01*
X149052070Y-26814299D02*
X149167975Y-27591649D01*
X148932953Y-25995945D02*
X149052070Y-26814299D01*
X148814253Y-25162041D02*
X148932953Y-25995945D01*
X148699601Y-24338038D02*
X148814253Y-25162041D01*
X148592627Y-23549392D02*
X148699601Y-24338038D01*
X148496962Y-22821556D02*
X148592627Y-23549392D01*
X148416237Y-22179982D02*
X148496962Y-22821556D01*
X148354081Y-21650126D02*
X148416237Y-22179982D01*
X148314125Y-21257439D02*
X148354081Y-21650126D01*
X148300000Y-21027376D02*
X148314125Y-21257439D01*
X104393245Y-21353176D02*
X104922321Y-21027376D01*
X103937256Y-21634286D02*
X104393245Y-21353176D01*
X103626441Y-21826327D02*
X103937256Y-21634286D01*
X103473443Y-21921523D02*
X103626441Y-21826327D01*
X102843132Y-22421218D02*
X103473443Y-21921523D01*
X102279677Y-23093593D02*
X102843132Y-22421218D01*
X101849728Y-23876106D02*
X102279677Y-23093593D01*
X101577752Y-24732477D02*
X101849728Y-23876106D01*
X101563806Y-24805140D02*
X101577752Y-24732477D01*
X101537316Y-25005560D02*
X101563806Y-24805140D01*
X101521621Y-25257292D02*
X101537316Y-25005560D01*
X101517240Y-25581503D02*
X101521621Y-25257292D01*
X101524693Y-25999359D02*
X101517240Y-25581503D01*
X101530301Y-26150178D02*
X101524693Y-25999359D01*
X105245026Y-25761660D02*
X105238993Y-26150178D01*
X105269850Y-25470135D02*
X105245026Y-25761660D01*
X105314417Y-25257829D02*
X105269850Y-25470135D01*
X105379676Y-25106965D02*
X105314417Y-25257829D01*
X105466579Y-24999770D02*
X105379676Y-25106965D01*
X105576077Y-24918468D02*
X105466579Y-24999770D01*
X105709119Y-24845284D02*
X105576077Y-24918468D01*
X105876739Y-24774487D02*
X105709119Y-24845284D01*
X106299342Y-24721966D02*
X105876739Y-24774487D01*
X106688260Y-24833238D02*
X106299342Y-24721966D01*
X106998242Y-25089122D02*
X106688260Y-24833238D01*
X107184033Y-25470439D02*
X106998242Y-25089122D01*
X107196507Y-25541148D02*
X107184033Y-25470439D01*
X107228524Y-25816057D02*
X107196507Y-25541148D01*
X107269857Y-26255641D02*
X107228524Y-25816057D01*
X107318690Y-26836981D02*
X107269857Y-26255641D01*
X107373207Y-27537159D02*
X107318690Y-26836981D01*
X107431590Y-28333254D02*
X107373207Y-27537159D01*
X107492022Y-29202348D02*
X107431590Y-28333254D01*
X107552689Y-30121521D02*
X107492022Y-29202348D01*
X107608662Y-30996048D02*
X107552689Y-30121521D01*
X107667264Y-31939038D02*
X107608662Y-30996048D01*
X107711295Y-32714642D02*
X107667264Y-31939038D01*
X107739868Y-33340849D02*
X107711295Y-32714642D01*
X107752093Y-33835648D02*
X107739868Y-33340849D01*
X107747083Y-34217029D02*
X107752093Y-33835648D01*
X107723948Y-34502982D02*
X107747083Y-34217029D01*
X107681802Y-34711495D02*
X107723948Y-34502982D01*
X107619756Y-34860558D02*
X107681802Y-34711495D01*
X107536921Y-34968160D02*
X107619756Y-34860558D01*
X107432409Y-35052292D02*
X107536921Y-34968160D01*
X107305332Y-35130942D02*
X107432409Y-35052292D01*
X107110554Y-35221770D02*
X107305332Y-35130942D01*
X106697503Y-35277121D02*
X107110554Y-35221770D01*
X106312380Y-35167650D02*
X106697503Y-35277121D01*
X106001915Y-34912186D02*
X106312380Y-35167650D01*
X105812839Y-34529560D02*
X106001915Y-34912186D01*
X105800267Y-34460725D02*
X105812839Y-34529560D01*
X105767574Y-34187579D02*
X105800267Y-34460725D01*
X105725509Y-33749578D02*
X105767574Y-34187579D01*
X105675921Y-33169681D02*
X105725509Y-33749578D01*
X105620657Y-32470845D02*
X105675921Y-33169681D01*
X105561567Y-31676027D02*
X105620657Y-32470845D01*
X105500498Y-30808183D02*
X105561567Y-31676027D01*
X105439299Y-29890271D02*
X105500498Y-30808183D01*
X105383765Y-29029685D02*
X105439299Y-29890271D01*
X105324138Y-28075442D02*
X105383765Y-29029685D01*
X105279500Y-27289294D02*
X105324138Y-28075442D01*
X105250801Y-26653464D02*
X105279500Y-27289294D01*
X105238993Y-26150178D02*
X105250801Y-26653464D01*
X101544499Y-26532028D02*
X101530301Y-26150178D01*
X101577177Y-27200675D02*
X101544499Y-26532028D01*
X101623247Y-28026468D02*
X101577177Y-27200675D01*
X101683228Y-29030573D02*
X101623247Y-28026468D01*
X101734895Y-29869583D02*
X101683228Y-29030573D01*
X101787207Y-30703041D02*
X101734895Y-29869583D01*
X101836410Y-31471371D02*
X101787207Y-30703041D01*
X101880739Y-32147671D02*
X101836410Y-31471371D01*
X101918429Y-32705036D02*
X101880739Y-32147671D01*
X101947717Y-33116564D02*
X101918429Y-32705036D01*
X101966838Y-33355352D02*
X101947717Y-33116564D01*
X102023593Y-33960705D02*
X101966838Y-33355352D01*
X101086796Y-34390705D02*
X102023593Y-33960705D01*
X100735427Y-34546604D02*
X101086796Y-34390705D01*
X100042344Y-34828451D02*
X100735427Y-34546604D01*
X99337340Y-35086526D02*
X100042344Y-34828451D01*
X98668256Y-35304694D02*
X99337340Y-35086526D01*
X98082935Y-35466819D02*
X98668256Y-35304694D01*
X97629219Y-35556768D02*
X98082935Y-35466819D01*
X97478674Y-35573345D02*
X97629219Y-35556768D01*
X97169006Y-35573669D02*
X97478674Y-35573345D01*
X96855180Y-35507817D02*
X97169006Y-35573669D01*
X96451193Y-35361533D02*
X96855180Y-35507817D01*
X96257969Y-35288136D02*
X96451193Y-35361533D01*
X95314947Y-35038652D02*
X96257969Y-35288136D01*
X94379710Y-34964239D02*
X95314947Y-35038652D01*
X93481611Y-35065055D02*
X94379710Y-34964239D01*
X92650000Y-35341255D02*
X93481611Y-35065055D01*
X92232617Y-35568927D02*
X92650000Y-35341255D01*
X91783684Y-35931261D02*
X92232617Y-35568927D01*
X133713534Y-35792641D02*
X133651011Y-35931261D01*
X133839244Y-35651664D02*
X133713534Y-35792641D01*
X133929936Y-35574916D02*
X133839244Y-35651664D01*
X134204666Y-35449353D02*
X133929936Y-35574916D01*
X134589074Y-35397019D02*
X134204666Y-35449353D01*
X135109381Y-35415934D02*
X134589074Y-35397019D01*
X135791808Y-35504114D02*
X135109381Y-35415934D01*
X136121647Y-35556234D02*
X135791808Y-35504114D01*
X136508406Y-35617224D02*
X136121647Y-35556234D01*
X136791058Y-35661658D02*
X136508406Y-35617224D01*
X136976124Y-35720048D02*
X136791058Y-35661658D01*
X137230476Y-35873101D02*
X136976124Y-35720048D01*
X137559574Y-36137904D02*
X137230476Y-35873101D01*
X137991058Y-36534565D02*
X137559574Y-36137904D01*
X138277928Y-36798701D02*
X137991058Y-36534565D01*
X138727417Y-37184648D02*
X138277928Y-36798701D01*
X139164356Y-37532043D02*
X138727417Y-37184648D01*
X139525000Y-37788767D02*
X139164356Y-37532043D01*
X139880734Y-38040741D02*
X139525000Y-37788767D01*
X140139030Y-38297128D02*
X139880734Y-38040741D01*
X140208348Y-38501414D02*
X140139030Y-38297128D01*
X140090262Y-38656018D02*
X140208348Y-38501414D01*
X140084649Y-38658941D02*
X140090262Y-38656018D01*
X139929819Y-38696931D02*
X140084649Y-38658941D01*
X139622115Y-38748047D02*
X139929819Y-38696931D01*
X139203331Y-38805957D02*
X139622115Y-38748047D01*
X138715262Y-38864330D02*
X139203331Y-38805957D01*
X138607756Y-38876249D02*
X138715262Y-38864330D01*
X137819856Y-38961550D02*
X138607756Y-38876249D01*
X137200378Y-39022593D02*
X137819856Y-38961550D01*
X136722488Y-39059614D02*
X137200378Y-39022593D01*
X136359349Y-39072853D02*
X136722488Y-39059614D01*
X136084124Y-39062548D02*
X136359349Y-39072853D01*
X135869978Y-39028938D02*
X136084124Y-39062548D01*
X135690074Y-38972261D02*
X135869978Y-39028938D01*
X135517576Y-38892756D02*
X135690074Y-38972261D01*
X135208479Y-38685782D02*
X135517576Y-38892756D01*
X134784609Y-38255745D02*
X135208479Y-38685782D01*
X134378220Y-37682731D02*
X134784609Y-38255745D01*
X134014556Y-36998551D02*
X134378220Y-37682731D01*
X133894906Y-36735100D02*
X134014556Y-36998551D01*
X133736463Y-36362278D02*
X133894906Y-36735100D01*
X133656909Y-36107735D02*
X133736463Y-36362278D01*
X133651011Y-35931261D02*
X133656909Y-36107735D01*
X91601337Y-36078434D02*
X91783684Y-35931261D01*
X91093773Y-36710528D02*
X91601337Y-36078434D01*
X90714441Y-37439872D02*
X91093773Y-36710528D01*
X90467860Y-38241129D02*
X90714441Y-37439872D01*
X90358548Y-39088965D02*
X90467860Y-38241129D01*
X90391022Y-39958042D02*
X90358548Y-39088965D01*
X90569800Y-40823026D02*
X90391022Y-39958042D01*
X90899399Y-41658579D02*
X90569800Y-40823026D01*
X91384337Y-42439365D02*
X90899399Y-41658579D01*
X91385609Y-42441045D02*
X91384337Y-42439365D01*
X92121429Y-43275525D02*
X91385609Y-42441045D01*
X93019543Y-44067693D02*
X92121429Y-43275525D01*
X94043204Y-44794089D02*
X93019543Y-44067693D01*
X95155665Y-45431250D02*
X94043204Y-44794089D01*
X96320179Y-45955715D02*
X95155665Y-45431250D01*
X97500000Y-46344021D02*
X96320179Y-45955715D01*
X97789431Y-46413882D02*
X97500000Y-46344021D01*
X98364098Y-46528972D02*
X97789431Y-46413882D01*
X99026608Y-46641137D02*
X98364098Y-46528972D01*
X99720331Y-46742349D02*
X99026608Y-46641137D01*
X100388636Y-46824581D02*
X99720331Y-46742349D01*
X100974892Y-46879807D02*
X100388636Y-46824581D01*
X101422470Y-46900000D02*
X100974892Y-46879807D01*
X101575557Y-46904990D02*
X101422470Y-46900000D01*
X101748876Y-46954305D02*
X101575557Y-46904990D01*
X101882512Y-47094792D02*
X101748876Y-46954305D01*
X102036307Y-47372519D02*
X101882512Y-47094792D01*
X102276448Y-47845038D02*
X102036307Y-47372519D01*
X101684566Y-48490974D02*
X102276448Y-47845038D01*
X101360887Y-48883773D02*
X101684566Y-48490974D01*
X101002460Y-49398831D02*
X101360887Y-48883773D01*
X100721341Y-49888268D02*
X101002460Y-49398831D01*
X100558764Y-50227860D02*
X100721341Y-49888268D01*
X100444023Y-50520691D02*
X100558764Y-50227860D01*
X100381385Y-50798320D02*
X100444023Y-50520691D01*
X100355245Y-51132457D02*
X100381385Y-50798320D01*
X100350000Y-51594813D02*
X100355245Y-51132457D01*
X100352292Y-51918592D02*
X100350000Y-51594813D01*
X100370900Y-52296548D02*
X100352292Y-51918592D01*
X100419653Y-52587640D02*
X100370900Y-52296548D01*
X100511985Y-52860405D02*
X100419653Y-52587640D01*
X100661326Y-53183385D02*
X100511985Y-52860405D01*
X100803285Y-53498076D02*
X100661326Y-53183385D01*
X100881954Y-53747975D02*
X100803285Y-53498076D01*
X100861326Y-53851504D02*
X100881954Y-53747975D01*
X100795204Y-53866748D02*
X100861326Y-53851504D01*
X100556907Y-53911861D02*
X100795204Y-53866748D01*
X100199415Y-53974465D02*
X100556907Y-53911861D01*
X99771335Y-54045893D02*
X100199415Y-53974465D01*
X99254838Y-54141578D02*
X99771335Y-54045893D01*
X98295240Y-54399926D02*
X99254838Y-54141578D01*
X97497648Y-54743563D02*
X98295240Y-54399926D01*
X96844846Y-55182929D02*
X97497648Y-54743563D01*
X96319614Y-55728467D02*
X96844846Y-55182929D01*
X95904735Y-56390618D02*
X96319614Y-55728467D01*
X95872987Y-56455870D02*
X95904735Y-56390618D01*
X95707556Y-56872852D02*
X95872987Y-56455870D01*
X95566934Y-57345689D02*
X95707556Y-56872852D01*
X95464631Y-57814468D02*
X95566934Y-57345689D01*
X95414158Y-58219273D02*
X95464631Y-57814468D01*
X95429025Y-58500192D02*
X95414158Y-58219273D01*
X95414302Y-58645822D02*
X95429025Y-58500192D01*
X95273761Y-58827821D02*
X95414302Y-58645822D01*
X94981169Y-59071984D02*
X95273761Y-58827821D01*
X94700694Y-59308362D02*
X94981169Y-59071984D01*
X94174170Y-59875892D02*
X94700694Y-59308362D01*
X93718339Y-60523841D02*
X94174170Y-59875892D01*
X93391032Y-61175697D02*
X93718339Y-60523841D01*
X93357106Y-61271821D02*
X93391032Y-61175697D01*
X93242536Y-61761628D02*
X93357106Y-61271821D01*
X93162335Y-62383352D02*
X93242536Y-61761628D01*
X93118655Y-63084596D02*
X93162335Y-62383352D01*
X93113645Y-63812963D02*
X93118655Y-63084596D01*
X93149458Y-64516058D02*
X93113645Y-63812963D01*
X93228243Y-65141482D02*
X93149458Y-64516058D01*
X93368688Y-65932965D02*
X93228243Y-65141482D01*
X92669826Y-67141482D02*
X93368688Y-65932965D01*
X92491557Y-67449790D02*
X92669826Y-67141482D01*
X92152981Y-68035449D02*
X92491557Y-67449790D01*
X91771318Y-68695741D02*
X92152981Y-68035449D01*
X91381279Y-69370610D02*
X91771318Y-68695741D01*
X91017578Y-70000000D02*
X91381279Y-69370610D01*
X90940537Y-70133537D02*
X91017578Y-70000000D01*
X90549482Y-70821504D02*
X90940537Y-70133537D01*
X90248860Y-71375818D02*
X90549482Y-70821504D01*
X90025523Y-71827255D02*
X90248860Y-71375818D01*
X89866324Y-72206592D02*
X90025523Y-71827255D01*
X89758114Y-72544604D02*
X89866324Y-72206592D01*
X89687747Y-72872068D02*
X89758114Y-72544604D01*
X89642073Y-73219760D02*
X89687747Y-72872068D01*
X89624340Y-73650442D02*
X89642073Y-73219760D01*
X89643930Y-73829066D02*
X89624340Y-73650442D01*
X93551274Y-73617743D02*
X93523533Y-73829066D01*
X93664911Y-73315779D02*
X93551274Y-73617743D01*
X93767181Y-73099259D02*
X93664911Y-73315779D01*
X93956590Y-72731583D02*
X93767181Y-73099259D01*
X94215285Y-72247481D02*
X93956590Y-72731583D01*
X94530528Y-71669394D02*
X94215285Y-72247481D01*
X94889582Y-71019759D02*
X94530528Y-71669394D01*
X95279709Y-70321017D02*
X94889582Y-71019759D01*
X95688170Y-69595607D02*
X95279709Y-70321017D01*
X96102229Y-68865968D02*
X95688170Y-69595607D01*
X96509147Y-68154540D02*
X96102229Y-68865968D01*
X96896187Y-67483762D02*
X96509147Y-68154540D01*
X97250610Y-66876073D02*
X96896187Y-67483762D01*
X97559679Y-66353913D02*
X97250610Y-66876073D01*
X97810656Y-65939721D02*
X97559679Y-66353913D01*
X97990804Y-65655937D02*
X97810656Y-65939721D01*
X98087384Y-65525000D02*
X97990804Y-65655937D01*
X98386323Y-65340127D02*
X98087384Y-65525000D01*
X98759871Y-65285436D02*
X98386323Y-65340127D01*
X99127171Y-65374394D02*
X98759871Y-65285436D01*
X99442699Y-65585837D02*
X99127171Y-65374394D01*
X99660932Y-65898606D02*
X99442699Y-65585837D01*
X99736347Y-66291536D02*
X99660932Y-65898606D01*
X99722641Y-66364569D02*
X99736347Y-66291536D01*
X99623973Y-66629336D02*
X99722641Y-66364569D01*
X99440824Y-67031824D02*
X99623973Y-66629336D01*
X99185776Y-67549567D02*
X99440824Y-67031824D01*
X98871411Y-68160100D02*
X99185776Y-67549567D01*
X98510312Y-68840957D02*
X98871411Y-68160100D01*
X98115060Y-69569673D02*
X98510312Y-68840957D01*
X97698238Y-70323783D02*
X98115060Y-69569673D01*
X97272429Y-71080822D02*
X97698238Y-70323783D01*
X96850213Y-71818324D02*
X97272429Y-71080822D01*
X96444175Y-72513823D02*
X96850213Y-71818324D01*
X96066895Y-73144855D02*
X96444175Y-72513823D01*
X95730956Y-73688954D02*
X96066895Y-73144855D01*
X95448940Y-74123655D02*
X95730956Y-73688954D01*
X95233430Y-74426492D02*
X95448940Y-74123655D01*
X95097007Y-74575000D02*
X95233430Y-74426492D01*
X95046170Y-74608415D02*
X95097007Y-74575000D01*
X94778058Y-74744599D02*
X95046170Y-74608415D01*
X94560211Y-74799626D02*
X94778058Y-74744599D01*
X94448603Y-74788030D02*
X94560211Y-74799626D01*
X94114193Y-74651429D02*
X94448603Y-74788030D01*
X93806441Y-74404609D02*
X94114193Y-74651429D01*
X93601079Y-74102606D02*
X93806441Y-74404609D01*
X93574674Y-74036216D02*
X93601079Y-74102606D01*
X93523533Y-73829066D02*
X93574674Y-74036216D01*
X89713693Y-74465183D02*
X89643930Y-73829066D01*
X89943736Y-75272943D02*
X89713693Y-74465183D01*
X90295592Y-76015557D02*
X89943736Y-75272943D01*
X90750385Y-76634859D02*
X90295592Y-76015557D01*
X91107867Y-77019718D02*
X90750385Y-76634859D01*
X91006010Y-77984859D02*
X91107867Y-77019718D01*
X90978361Y-78265191D02*
X91006010Y-77984859D01*
X90933106Y-78764136D02*
X90978361Y-78265191D01*
X90879047Y-79391526D02*
X90933106Y-78764136D01*
X90819506Y-80107924D02*
X90879047Y-79391526D01*
X90757806Y-80873894D02*
X90819506Y-80107924D01*
X90697267Y-81650000D02*
X90757806Y-80873894D01*
X90639276Y-82386620D02*
X90697267Y-81650000D01*
X90530140Y-83644147D02*
X90639276Y-82386620D01*
X90413158Y-84786994D02*
X90530140Y-83644147D01*
X90281995Y-85839850D02*
X90413158Y-84786994D01*
X90130315Y-86827400D02*
X90281995Y-85839850D01*
X89951784Y-87774333D02*
X90130315Y-86827400D01*
X89740065Y-88705335D02*
X89951784Y-87774333D01*
X89488825Y-89645093D02*
X89740065Y-88705335D01*
X89191728Y-90618295D02*
X89488825Y-89645093D01*
X88842438Y-91649626D02*
X89191728Y-90618295D01*
X88434621Y-92763776D02*
X88842438Y-91649626D01*
X87961941Y-93985430D02*
X88434621Y-92763776D01*
X87418063Y-95339275D02*
X87961941Y-93985430D01*
X86796652Y-96850000D02*
X87418063Y-95339275D01*
X86510939Y-97543742D02*
X86796652Y-96850000D01*
X86208882Y-98285303D02*
X86510939Y-97543742D01*
X85915846Y-99011959D02*
X86208882Y-98285303D01*
X85654617Y-99667204D02*
X85915846Y-99011959D01*
X85447980Y-100194531D02*
X85654617Y-99667204D01*
X84928521Y-101539062D02*
X85447980Y-100194531D01*
X84352668Y-101669845D02*
X84928521Y-101539062D01*
X83973893Y-101775043D02*
X84352668Y-101669845D01*
X83178496Y-102124743D02*
X83973893Y-101775043D01*
X82457344Y-102614967D02*
X83178496Y-102124743D01*
X81941953Y-103119374D02*
X82457344Y-102614967D01*
X135303748Y-103082448D02*
X135300000Y-103119374D01*
X135370234Y-102848365D02*
X135303748Y-103082448D01*
X135511469Y-102465476D02*
X135370234Y-102848365D01*
X135716594Y-101957310D02*
X135511469Y-102465476D01*
X135974747Y-101347397D02*
X135716594Y-101957310D01*
X136275069Y-100659265D02*
X135974747Y-101347397D01*
X136606698Y-99916443D02*
X136275069Y-100659265D01*
X136958775Y-99142460D02*
X136606698Y-99916443D01*
X137320438Y-98360845D02*
X136958775Y-99142460D01*
X137680828Y-97595127D02*
X137320438Y-98360845D01*
X138029084Y-96868834D02*
X137680828Y-97595127D01*
X138354345Y-96205497D02*
X138029084Y-96868834D01*
X138645752Y-95628643D02*
X138354345Y-96205497D01*
X138892442Y-95161801D02*
X138645752Y-95628643D01*
X139083557Y-94828502D02*
X138892442Y-95161801D01*
X139208236Y-94652272D02*
X139083557Y-94828502D01*
X139314354Y-94551359D02*
X139208236Y-94652272D01*
X139576381Y-94395751D02*
X139314354Y-94551359D01*
X139909883Y-94354545D02*
X139576381Y-94395751D01*
X140149632Y-94371348D02*
X139909883Y-94354545D01*
X140384677Y-94467894D02*
X140149632Y-94371348D01*
X140621624Y-94691598D02*
X140384677Y-94467894D01*
X140806089Y-94927124D02*
X140621624Y-94691598D01*
X140883923Y-95148431D02*
X140806089Y-94927124D01*
X140873566Y-95439325D02*
X140883923Y-95148431D01*
X140868635Y-95466755D02*
X140873566Y-95439325D01*
X140795956Y-95692387D02*
X140868635Y-95466755D01*
X140648750Y-96068461D02*
X140795956Y-95692387D01*
X140438077Y-96571163D02*
X140648750Y-96068461D01*
X140174993Y-97176682D02*
X140438077Y-96571163D01*
X139870560Y-97861203D02*
X140174993Y-97176682D01*
X139535834Y-98600915D02*
X139870560Y-97861203D01*
X139181876Y-99372005D02*
X139535834Y-98600915D01*
X138819743Y-100150659D02*
X139181876Y-99372005D01*
X138460496Y-100913065D02*
X138819743Y-100150659D01*
X138115191Y-101635411D02*
X138460496Y-100913065D01*
X137794889Y-102293883D02*
X138115191Y-101635411D01*
X137510648Y-102864669D02*
X137794889Y-102293883D01*
X137273526Y-103323956D02*
X137510648Y-102864669D01*
X137094584Y-103647932D02*
X137273526Y-103323956D01*
X136984879Y-103812782D02*
X137094584Y-103647932D01*
X136984361Y-103813343D02*
X136984879Y-103812782D01*
X136654174Y-104045532D02*
X136984361Y-103813343D01*
X136284738Y-104114286D02*
X136654174Y-104045532D01*
X135920328Y-104037826D02*
X136284738Y-104114286D01*
X135605218Y-103834373D02*
X135920328Y-104037826D01*
X135383683Y-103522149D02*
X135605218Y-103834373D01*
X135300000Y-103119374D02*
X135383683Y-103522149D01*
X81841348Y-103217836D02*
X81941953Y-103119374D01*
X81361417Y-103905473D02*
X81841348Y-103217836D01*
X81048461Y-104650000D02*
X81361417Y-103905473D01*
X81041481Y-104674948D02*
X81048461Y-104650000D01*
X80993307Y-104871614D02*
X81041481Y-104674948D01*
X80929929Y-105167078D02*
X80993307Y-104871614D01*
X80849357Y-105572276D02*
X80929929Y-105167078D01*
X80749597Y-106098147D02*
X80849357Y-105572276D01*
X80628657Y-106755628D02*
X80749597Y-106098147D01*
X80484543Y-107555656D02*
X80628657Y-106755628D01*
X80315264Y-108509170D02*
X80484543Y-107555656D01*
X80118826Y-109627107D02*
X80315264Y-108509170D01*
X79893237Y-110920404D02*
X80118826Y-109627107D01*
X79636503Y-112400000D02*
X79893237Y-110920404D01*
X79521625Y-113086591D02*
X79636503Y-112400000D01*
X79399918Y-113918372D02*
X79521625Y-113086591D01*
X79327769Y-114606650D02*
X79399918Y-113918372D01*
X79312541Y-115004902D02*
X79327769Y-114606650D01*
X83203077Y-114933977D02*
X83200000Y-115004902D01*
X83229741Y-114653308D02*
X83203077Y-114933977D01*
X83280770Y-114220053D02*
X83229741Y-114653308D01*
X83352509Y-113659269D02*
X83280770Y-114220053D01*
X83441303Y-112996011D02*
X83352509Y-113659269D01*
X83543498Y-112255335D02*
X83441303Y-112996011D01*
X83655440Y-111462297D02*
X83543498Y-112255335D01*
X83773472Y-110641953D02*
X83655440Y-111462297D01*
X83893941Y-109819358D02*
X83773472Y-110641953D01*
X84013193Y-109019569D02*
X83893941Y-109819358D01*
X84127571Y-108267641D02*
X84013193Y-109019569D01*
X84233423Y-107588631D02*
X84127571Y-108267641D01*
X84327092Y-107007593D02*
X84233423Y-107588631D01*
X84404924Y-106549583D02*
X84327092Y-107007593D01*
X84463266Y-106239659D02*
X84404924Y-106549583D01*
X84498461Y-106102874D02*
X84463266Y-106239659D01*
X84733695Y-105808619D02*
X84498461Y-106102874D01*
X85065507Y-105629596D02*
X84733695Y-105808619D01*
X85432387Y-105591427D02*
X85065507Y-105629596D01*
X85791824Y-105682611D02*
X85432387Y-105591427D01*
X86101306Y-105891652D02*
X85791824Y-105682611D01*
X86318323Y-106207050D02*
X86101306Y-105891652D01*
X86400363Y-106617307D02*
X86318323Y-106207050D01*
X86394536Y-106719651D02*
X86400363Y-106617307D01*
X86363464Y-107025266D02*
X86394536Y-106719651D01*
X86308919Y-107484633D02*
X86363464Y-107025266D01*
X86234672Y-108070875D02*
X86308919Y-107484633D01*
X86144491Y-108757116D02*
X86234672Y-108070875D01*
X86042146Y-109516478D02*
X86144491Y-108757116D01*
X85931407Y-110322085D02*
X86042146Y-109516478D01*
X85816044Y-111147060D02*
X85931407Y-110322085D01*
X85699827Y-111964525D02*
X85816044Y-111147060D01*
X85586524Y-112747604D02*
X85699827Y-111964525D01*
X85479906Y-113469420D02*
X85586524Y-112747604D01*
X85383742Y-114103095D02*
X85479906Y-113469420D01*
X85301802Y-114621754D02*
X85383742Y-114103095D01*
X85237856Y-114998519D02*
X85301802Y-114621754D01*
X85195673Y-115206513D02*
X85237856Y-114998519D01*
X85191781Y-115220844D02*
X85195673Y-115206513D01*
X85057573Y-115529552D02*
X85191781Y-115220844D01*
X84871316Y-115779974D02*
X85057573Y-115529552D01*
X84577955Y-115967987D02*
X84871316Y-115779974D01*
X84194861Y-116059243D02*
X84577955Y-115967987D01*
X83838811Y-116005777D02*
X84194861Y-116059243D01*
X83821871Y-115998372D02*
X83838811Y-116005777D01*
X83508238Y-115759622D02*
X83821871Y-115998372D01*
X83285022Y-115403514D02*
X83508238Y-115759622D01*
X83200000Y-115004902D02*
X83285022Y-115403514D01*
X79305805Y-115181097D02*
X79312541Y-115004902D01*
X79334654Y-115671384D02*
X79305805Y-115181097D01*
X79414943Y-116107184D02*
X79334654Y-115671384D01*
X79547300Y-116518168D02*
X79414943Y-116107184D01*
X79732351Y-116934007D02*
X79547300Y-116518168D01*
X79954671Y-117341338D02*
X79732351Y-116934007D01*
X80301199Y-117819461D02*
X79954671Y-117341338D01*
X80758769Y-118285924D02*
X80301199Y-117819461D01*
X81413575Y-118885934D02*
X80758769Y-118285924D01*
X81294854Y-120695141D02*
X81413575Y-118885934D01*
X81269844Y-121149746D02*
X81294854Y-120695141D01*
X81240825Y-121965443D02*
X81269844Y-121149746D01*
X81222111Y-122905197D02*
X81240825Y-121965443D01*
X81213259Y-123936610D02*
X81222111Y-122905197D01*
X81213825Y-125027284D02*
X81213259Y-123936610D01*
X81223365Y-126144824D02*
X81213825Y-125027284D01*
X81241436Y-127256832D02*
X81223365Y-126144824D01*
X81267593Y-128330912D02*
X81241436Y-127256832D01*
X81301394Y-129334665D02*
X81267593Y-128330912D01*
X81342393Y-130235695D02*
X81301394Y-129334665D01*
X81390149Y-131001606D02*
X81342393Y-130235695D01*
X81444216Y-131600000D02*
X81390149Y-131001606D01*
X81842509Y-134462887D02*
X81444216Y-131600000D01*
X82439229Y-137538266D02*
X81842509Y-134462887D01*
X83200093Y-140543565D02*
X82439229Y-137538266D01*
X84120570Y-143464530D02*
X83200093Y-140543565D01*
X85196129Y-146286905D02*
X84120570Y-143464530D01*
X86422240Y-148996438D02*
X85196129Y-146286905D01*
X87794373Y-151578872D02*
X86422240Y-148996438D01*
X87884947Y-151737458D02*
X87794373Y-151578872D01*
X88126903Y-152170169D02*
X87884947Y-151737458D01*
X88322122Y-152532633D02*
X88126903Y-152170169D01*
X88452516Y-152790723D02*
X88322122Y-152532633D01*
X88500000Y-152910315D02*
X88452516Y-152790723D01*
X88493465Y-152972636D02*
X88500000Y-152910315D01*
X88421284Y-153238697D02*
X88493465Y-152972636D01*
X88285958Y-153615635D02*
X88421284Y-153238697D01*
X88108339Y-154055188D02*
X88285958Y-153615635D01*
X87909283Y-154509097D02*
X88108339Y-154055188D01*
X87709643Y-154929101D02*
X87909283Y-154509097D01*
X87530274Y-155266940D02*
X87709643Y-154929101D01*
X87392030Y-155474355D02*
X87530274Y-155266940D01*
X86668543Y-156186992D02*
X87392030Y-155474355D01*
X85695590Y-156886473D02*
X86668543Y-156186992D01*
X84587562Y-157442541D02*
X85695590Y-156886473D01*
X83350000Y-157851937D02*
X84587562Y-157442541D01*
X83150869Y-157906389D02*
X83350000Y-157851937D01*
X82635298Y-158072591D02*
X83150869Y-157906389D01*
X82164358Y-158256543D02*
X82635298Y-158072591D01*
X81813791Y-158429756D02*
X82164358Y-158256543D01*
X81175186Y-158904555D02*
X81813791Y-158429756D01*
X80614795Y-159533620D02*
X81175186Y-158904555D01*
X80192504Y-160255854D02*
X80614795Y-159533620D01*
X79912732Y-161042678D02*
X80192504Y-160255854D01*
X79779898Y-161865509D02*
X79912732Y-161042678D01*
X79798422Y-162695767D02*
X79779898Y-161865509D01*
X79972723Y-163504870D02*
X79798422Y-162695767D01*
X80307220Y-164264237D02*
X79972723Y-163504870D01*
X80806333Y-164945287D02*
X80307220Y-164264237D01*
X81230584Y-165405546D02*
X80806333Y-164945287D01*
X81118673Y-165927773D02*
X81230584Y-165405546D01*
X81077979Y-166125252D02*
X81118673Y-165927773D01*
X80984214Y-166664492D02*
X81077979Y-166125252D01*
X80910826Y-167243736D02*
X80984214Y-166664492D01*
X80855454Y-167894947D02*
X80910826Y-167243736D01*
X80815741Y-168650086D02*
X80855454Y-167894947D01*
X80789327Y-169541116D02*
X80815741Y-168650086D01*
X80773853Y-170600000D02*
X80789327Y-169541116D01*
X80773754Y-170610562D02*
X80773853Y-170600000D01*
X80768152Y-171436962D02*
X80773754Y-170610562D01*
X80769482Y-172095447D02*
X80768152Y-171436962D01*
X80779224Y-172617664D02*
X80769482Y-172095447D01*
X80798860Y-173035261D02*
X80779224Y-172617664D01*
X80829873Y-173379887D02*
X80798860Y-173035261D01*
X80873744Y-173683190D02*
X80829873Y-173379887D01*
X80931955Y-173976818D02*
X80873744Y-173683190D01*
X81090248Y-174627568D02*
X80931955Y-173976818D01*
X81359206Y-175528057D02*
X81090248Y-174627568D01*
X81663855Y-176354985D02*
X81359206Y-175528057D01*
X81988228Y-177066330D02*
X81663855Y-176354985D01*
X82316358Y-177620071D02*
X81988228Y-177066330D01*
X82369161Y-177700550D02*
X82316358Y-177620071D01*
X82499800Y-177957744D02*
X82369161Y-177700550D01*
X82625878Y-178304028D02*
X82499800Y-177957744D01*
X82755371Y-178766659D02*
X82625878Y-178304028D01*
X82896252Y-179372897D02*
X82755371Y-178766659D01*
X83056496Y-180150000D02*
X82896252Y-179372897D01*
X83169664Y-180786345D02*
X83056496Y-180150000D01*
X83276240Y-181654874D02*
X83169664Y-180786345D01*
X83324402Y-182547476D02*
X83276240Y-181654874D01*
X83316658Y-183520599D02*
X83324402Y-182547476D01*
X83255513Y-184630691D02*
X83316658Y-183520599D01*
X83169718Y-185811383D02*
X83255513Y-184630691D01*
X82809174Y-185995319D02*
X83169718Y-185811383D01*
X82567945Y-186146320D02*
X82809174Y-185995319D01*
X82151736Y-186504523D02*
X82567945Y-186146320D01*
X81733381Y-186963365D02*
X82151736Y-186504523D01*
X81358213Y-187471164D02*
X81733381Y-186963365D01*
X81071566Y-187976239D02*
X81358213Y-187471164D01*
X81040085Y-188043984D02*
X81071566Y-187976239D01*
X80909670Y-188345449D02*
X81040085Y-188043984D01*
X80826697Y-188606757D02*
X80909670Y-188345449D01*
X80780471Y-188887934D02*
X80826697Y-188606757D01*
X80760294Y-189249007D02*
X80780471Y-188887934D01*
X80755469Y-189750000D02*
X80760294Y-189249007D01*
X80780552Y-190466128D02*
X80755469Y-189750000D01*
X80875372Y-191084585D02*
X80780552Y-190466128D01*
X81058465Y-191611188D02*
X80875372Y-191084585D01*
X81348229Y-192097923D02*
X81058465Y-191611188D01*
X81763067Y-192596780D02*
X81348229Y-192097923D01*
X82408536Y-193201562D02*
X81763067Y-192596780D01*
X83334763Y-193847752D02*
X82408536Y-193201562D01*
X84376586Y-194374348D02*
X83334763Y-193847752D01*
X85500631Y-194767655D02*
X84376586Y-194374348D01*
X86673527Y-195013977D02*
X85500631Y-194767655D01*
X87861900Y-195099619D02*
X86673527Y-195013977D01*
X88054764Y-195096659D02*
X87861900Y-195099619D01*
X89066252Y-194996734D02*
X88054764Y-195096659D01*
X90133376Y-194768938D02*
X89066252Y-194996734D01*
X91193915Y-194432359D02*
X90133376Y-194768938D01*
X92185647Y-194006084D02*
X91193915Y-194432359D01*
X93046351Y-193509201D02*
X92185647Y-194006084D01*
X93342703Y-193307989D02*
X93046351Y-193509201D01*
X93846351Y-193872043D02*
X93342703Y-193307989D01*
X93855515Y-193882344D02*
X93846351Y-193872043D01*
X94120673Y-194212659D02*
X93855515Y-193882344D01*
X94337554Y-194539323D02*
X94120673Y-194212659D01*
X94459994Y-194793048D02*
X94337554Y-194539323D01*
X94613446Y-195190908D02*
X94459994Y-194793048D01*
X94988586Y-195772382D02*
X94613446Y-195190908D01*
X95492613Y-196207781D02*
X94988586Y-195772382D01*
X96113946Y-196485257D02*
X95492613Y-196207781D01*
X96152138Y-196489940D02*
X96113946Y-196485257D01*
X96376081Y-196499605D02*
X96152138Y-196489940D01*
X96786199Y-196508810D02*
X96376081Y-196499605D01*
X97373073Y-196517552D02*
X96786199Y-196508810D01*
X98127287Y-196525832D02*
X97373073Y-196517552D01*
X99039423Y-196533648D02*
X98127287Y-196525832D01*
X100100063Y-196540999D02*
X99039423Y-196533648D01*
X101299790Y-196547885D02*
X100100063Y-196540999D01*
X102629187Y-196554306D02*
X101299790Y-196547885D01*
X104078837Y-196560260D02*
X102629187Y-196554306D01*
X105639321Y-196565746D02*
X104078837Y-196560260D01*
X107301223Y-196570764D02*
X105639321Y-196565746D01*
X109055124Y-196575314D02*
X107301223Y-196570764D01*
X110891609Y-196579394D02*
X109055124Y-196575314D01*
X112801258Y-196583004D02*
X110891609Y-196579394D01*
X114774656Y-196586142D02*
X112801258Y-196583004D01*
X116802383Y-196588809D02*
X114774656Y-196586142D01*
X118875024Y-196591003D02*
X116802383Y-196588809D01*
X120983160Y-196592724D02*
X118875024Y-196591003D01*
X123117374Y-196593971D02*
X120983160Y-196592724D01*
X125268248Y-196594743D02*
X123117374Y-196593971D01*
X127426366Y-196595040D02*
X125268248Y-196594743D01*
X129582310Y-196594860D02*
X127426366Y-196595040D01*
X131726662Y-196594204D02*
X129582310Y-196594860D01*
X133850005Y-196593069D02*
X131726662Y-196594204D01*
X135942921Y-196591456D02*
X133850005Y-196593069D01*
X137995994Y-196589364D02*
X135942921Y-196591456D01*
X139999805Y-196586792D02*
X137995994Y-196589364D01*
X141944938Y-196583740D02*
X139999805Y-196586792D01*
X143821974Y-196580205D02*
X141944938Y-196583740D01*
X145621497Y-196576189D02*
X143821974Y-196580205D01*
X147334088Y-196571690D02*
X145621497Y-196576189D01*
X148950332Y-196566707D02*
X147334088Y-196571690D01*
X150460809Y-196561239D02*
X148950332Y-196566707D01*
X151856103Y-196555287D02*
X150460809Y-196561239D01*
X153126796Y-196548848D02*
X151856103Y-196555287D01*
X154263472Y-196541923D02*
X153126796Y-196548848D01*
X155256711Y-196534511D02*
X154263472Y-196541923D01*
X156097098Y-196526610D02*
X155256711Y-196534511D01*
X156775214Y-196518221D02*
X156097098Y-196526610D01*
X157281643Y-196509342D02*
X156775214Y-196518221D01*
X157606966Y-196499972D02*
X157281643Y-196509342D01*
X157741766Y-196490112D02*
X157606966Y-196499972D01*
X157882996Y-196447798D02*
X157741766Y-196490112D01*
X158446648Y-196188733D02*
X157882996Y-196447798D01*
X158875256Y-195806484D02*
X158446648Y-196188733D01*
X159206820Y-195269390D02*
X158875256Y-195806484D01*
X159499842Y-194650000D02*
X159206820Y-195269390D01*
X159499842Y-160850000D02*
X159499842Y-194650000D01*
X159204235Y-160225144D02*
X159499842Y-160850000D01*
X158995433Y-159836497D02*
X159204235Y-160225144D01*
X158768083Y-159555790D02*
X158995433Y-159836497D01*
X158479314Y-159341015D02*
X158768083Y-159555790D01*
X158050000Y-159081741D02*
X158479314Y-159341015D01*
X158083809Y-157865870D02*
X158050000Y-159081741D01*
X158085291Y-157810055D02*
X158083809Y-157865870D01*
X158087968Y-157164557D02*
X158085291Y-157810055D01*
X158053604Y-156599637D02*
X158087968Y-157164557D01*
X157971915Y-156063305D02*
X158053604Y-156599637D01*
X157832616Y-155503570D02*
X157971915Y-156063305D01*
X157625424Y-154868443D02*
X157832616Y-155503570D01*
X157340053Y-154105934D02*
X157625424Y-154868443D01*
X157281774Y-153956690D02*
X157340053Y-154105934D01*
X157095050Y-153496208D02*
X157281774Y-153956690D01*
X156948411Y-153179642D02*
X157095050Y-153496208D01*
X156821142Y-152971510D02*
X156948411Y-153179642D01*
X156692534Y-152836333D02*
X156821142Y-152971510D01*
X156541873Y-152738630D02*
X156692534Y-152836333D01*
X156280490Y-152535174D02*
X156541873Y-152738630D01*
X156098796Y-152253489D02*
X156280490Y-152535174D01*
X155982449Y-151974506D02*
X156098796Y-152253489D01*
X155707324Y-151465021D02*
X155982449Y-151974506D01*
X155355229Y-150921285D02*
X155707324Y-151465021D01*
X154967958Y-150406097D02*
X155355229Y-150921285D01*
X154587303Y-149982255D02*
X154967958Y-150406097D01*
X154548176Y-149944389D02*
X154587303Y-149982255D01*
X153939129Y-149458948D02*
X154548176Y-149944389D01*
X153212035Y-149029507D02*
X153939129Y-149458948D01*
X152440967Y-148694309D02*
X153212035Y-149029507D01*
X151700000Y-148491595D02*
X152440967Y-148694309D01*
X151247122Y-148409661D02*
X151700000Y-148491595D01*
X150954974Y-148334890D02*
X151247122Y-148409661D01*
X150841500Y-148244194D02*
X150954974Y-148334890D01*
X150901082Y-148110327D02*
X150841500Y-148244194D01*
X151128097Y-147906040D02*
X150901082Y-148110327D01*
X151516925Y-147604086D02*
X151128097Y-147906040D01*
X151690385Y-147467669D02*
X151516925Y-147604086D01*
X152362917Y-146891887D02*
X151690385Y-147467669D01*
X153061076Y-146230873D02*
X152362917Y-146891887D01*
X153736819Y-145533620D02*
X153061076Y-146230873D01*
X154342105Y-144849123D02*
X153736819Y-145533620D01*
X154828894Y-144226378D02*
X154342105Y-144849123D01*
X155480395Y-143213855D02*
X154828894Y-144226378D01*
X156168911Y-141871752D02*
X155480395Y-143213855D01*
X156733131Y-140440866D02*
X156168911Y-141871752D01*
X157150598Y-138972020D02*
X156733131Y-140440866D01*
X157247288Y-138519809D02*
X157150598Y-138972020D01*
X157361578Y-137874342D02*
X157247288Y-138519809D01*
X157456918Y-137174579D02*
X157361578Y-137874342D01*
X157536133Y-136391394D02*
X157456918Y-137174579D01*
X157602047Y-135495655D02*
X157536133Y-136391394D01*
X157657482Y-134458233D02*
X157602047Y-135495655D01*
X157705264Y-133250000D02*
X157657482Y-134458233D01*
X157713332Y-133016219D02*
X157705264Y-133250000D01*
X157741862Y-132210244D02*
X157713332Y-133016219D01*
X157766722Y-131576472D02*
X157741862Y-132210244D01*
X157790190Y-131092799D02*
X157766722Y-131576472D01*
X157814544Y-130737125D02*
X157790190Y-131092799D01*
X157842060Y-130487349D02*
X157814544Y-130737125D01*
X157875017Y-130321369D02*
X157842060Y-130487349D01*
X157915691Y-130217083D02*
X157875017Y-130321369D01*
X157966360Y-130152389D02*
X157915691Y-130217083D01*
X158029301Y-130105188D02*
X157966360Y-130152389D01*
X158398019Y-129808228D02*
X158029301Y-130105188D01*
X158808935Y-129379257D02*
X158398019Y-129808228D01*
X159182579Y-128900322D02*
X158808935Y-129379257D01*
X159459646Y-128440448D02*
X159182579Y-128900322D01*
X159524130Y-128306169D02*
X159459646Y-128440448D01*
X159627382Y-128061277D02*
X159524130Y-128306169D01*
X159693063Y-127825479D02*
X159627382Y-128061277D01*
X159729628Y-127546509D02*
X159693063Y-127825479D01*
X159745528Y-127172104D02*
X159729628Y-127546509D01*
X159749216Y-126650000D02*
X159745528Y-127172104D01*
X159730459Y-126069875D02*
X159749216Y-126650000D01*
X159654318Y-125196062D02*
X159730459Y-126069875D01*
X159527859Y-124234960D02*
X159654318Y-125196062D01*
X159359953Y-123243778D02*
X159527859Y-124234960D01*
X159159467Y-122279722D02*
X159359953Y-123243778D01*
X158935272Y-121400000D02*
X159159467Y-122279722D01*
X158889723Y-121244468D02*
X158935272Y-121400000D01*
X158433058Y-120014856D02*
X158889723Y-121244468D01*
X157843768Y-118908365D02*
X158433058Y-120014856D01*
X157131785Y-117941134D02*
X157843768Y-118908365D01*
X156307042Y-117129306D02*
X157131785Y-117941134D01*
X155458855Y-116499342D02*
X156307042Y-117129306D01*
X154365771Y-115837741D02*
X155458855Y-116499342D01*
X153145607Y-115228800D02*
X154365771Y-115837741D01*
X151836101Y-114689490D02*
X153145607Y-115228800D01*
X150474986Y-114236785D02*
X151836101Y-114689490D01*
X149100000Y-113887658D02*
X150474986Y-114236785D01*
X148774931Y-113822238D02*
X149100000Y-113887658D01*
X148366963Y-113755729D02*
X148774931Y-113822238D01*
X147947612Y-113710200D02*
X148366963Y-113755729D01*
X147469753Y-113682073D02*
X147947612Y-113710200D01*
X146886257Y-113667770D02*
X147469753Y-113682073D01*
X146150000Y-113663714D02*
X146886257Y-113667770D01*
X145936167Y-113663877D02*
X146150000Y-113663714D01*
X145270136Y-113668948D02*
X145936167Y-113663877D01*
X144739219Y-113684308D02*
X145270136Y-113668948D01*
X144292582Y-113714261D02*
X144739219Y-113684308D01*
X143879389Y-113763112D02*
X144292582Y-113714261D01*
X143448806Y-113835168D02*
X143879389Y-113763112D01*
X142950000Y-113934734D02*
X143448806Y-113835168D01*
X142772623Y-113973424D02*
X142950000Y-113934734D01*
X142150132Y-114126264D02*
X142772623Y-113973424D01*
X141439656Y-114320170D02*
X142150132Y-114126264D01*
X140715721Y-114534233D02*
X141439656Y-114320170D01*
X140052856Y-114747544D02*
X140715721Y-114534233D01*
X139642564Y-114885783D02*
X140052856Y-114747544D01*
X139166953Y-115043567D02*
X139642564Y-114885783D01*
X138786627Y-115166860D02*
X139166953Y-115043567D01*
X138532889Y-115245549D02*
X138786627Y-115166860D01*
X138437046Y-115269523D02*
X138532889Y-115245549D01*
X138418463Y-115182497D02*
X138437046Y-115269523D01*
X138376874Y-114934505D02*
X138418463Y-115182497D01*
X138319217Y-114565660D02*
X138376874Y-114934505D01*
X138251919Y-114116019D02*
X138319217Y-114565660D01*
X138146601Y-113492546D02*
X138251919Y-114116019D01*
X137963102Y-112597828D02*
X138146601Y-113492546D01*
X137736065Y-111629608D02*
X137963102Y-112597828D01*
X137481173Y-110650614D02*
X137736065Y-111629608D01*
X137214108Y-109723570D02*
X137481173Y-110650614D01*
X136950556Y-108911206D02*
X137214108Y-109723570D01*
X136587505Y-107872412D02*
X136950556Y-108911206D01*
X136909429Y-107540271D02*
X136587505Y-107872412D01*
X137060763Y-107403549D02*
X136909429Y-107540271D01*
X137402532Y-107155861D02*
X137060763Y-107403549D01*
X137765652Y-106946722D02*
X137402532Y-107155861D01*
X138097986Y-106753551D02*
X137765652Y-106946722D01*
X138500864Y-106469857D02*
X138097986Y-106753551D01*
X138867225Y-106167657D02*
X138500864Y-106469857D01*
X138986539Y-106056137D02*
X138867225Y-106167657D01*
X139106980Y-105932416D02*
X138986539Y-106056137D01*
X139225820Y-105790970D02*
X139106980Y-105932416D01*
X139352025Y-105615615D02*
X139225820Y-105790970D01*
X139494563Y-105390168D02*
X139352025Y-105615615D01*
X139662403Y-105098444D02*
X139494563Y-105390168D01*
X139864510Y-104724260D02*
X139662403Y-105098444D01*
X140109854Y-104251432D02*
X139864510Y-104724260D01*
X140407401Y-103663775D02*
X140109854Y-104251432D01*
X140766119Y-102945107D02*
X140407401Y-103663775D01*
X141194975Y-102079243D02*
X140766119Y-102945107D01*
X141702938Y-101050000D02*
X141194975Y-102079243D01*
X141818323Y-100815848D02*
X141702938Y-101050000D01*
X142256921Y-99922651D02*
X141818323Y-100815848D01*
X142668669Y-99079282D02*
X142256921Y-99922651D01*
X143044701Y-98304214D02*
X142668669Y-99079282D01*
X143376149Y-97615923D02*
X143044701Y-98304214D01*
X143654147Y-97032881D02*
X143376149Y-97615923D01*
X143869828Y-96573564D02*
X143654147Y-97032881D01*
X144014324Y-96256446D02*
X143869828Y-96573564D01*
X144078769Y-96100000D02*
X144014324Y-96256446D01*
X144146588Y-95852418D02*
X144078769Y-96100000D01*
X144265165Y-94954609D02*
X144146588Y-95852418D01*
X144197348Y-94054201D02*
X144265165Y-94954609D01*
X143950566Y-93180594D02*
X144197348Y-94054201D01*
X143532245Y-92363188D02*
X143950566Y-93180594D01*
X142949815Y-91631385D02*
X143532245Y-92363188D01*
X142383146Y-91050000D02*
X142949815Y-91631385D01*
X142541485Y-89850000D02*
X142383146Y-91050000D01*
X142590471Y-89459629D02*
X142541485Y-89850000D01*
X142661877Y-88828776D02*
X142590471Y-89459629D01*
X142723577Y-88214792D02*
X142661877Y-88828776D01*
X142766078Y-87708207D02*
X142723577Y-88214792D01*
X142832332Y-86766414D02*
X142766078Y-87708207D01*
X143328063Y-86219011D02*
X142832332Y-86766414D01*
X143430399Y-86102239D02*
X143328063Y-86219011D01*
X143930495Y-85383039D02*
X143430399Y-86102239D01*
X144303777Y-84546567D02*
X143930495Y-85383039D01*
X144563113Y-83565170D02*
X144303777Y-84546567D01*
X144635494Y-83207522D02*
X144563113Y-83565170D01*
X144713469Y-82903829D02*
X144635494Y-83207522D01*
X144800157Y-82709024D02*
X144713469Y-82903829D01*
X144918779Y-82574218D02*
X144800157Y-82709024D01*
X145092558Y-82450518D02*
X144918779Y-82574218D01*
X145385246Y-82230663D02*
X145092558Y-82450518D01*
X145798682Y-81843450D02*
X145385246Y-82230663D01*
X146184972Y-81408996D02*
X145798682Y-81843450D01*
X146474836Y-81000000D02*
X146184972Y-81408996D01*
X146698295Y-80520744D02*
X146474836Y-81000000D01*
X146910071Y-79842905D02*
X146698295Y-80520744D01*
X147080671Y-79047855D02*
X146910071Y-79842905D01*
X147204234Y-78177763D02*
X147080671Y-79047855D01*
X147274897Y-77274800D02*
X147204234Y-78177763D01*
X147286795Y-76381135D02*
X147274897Y-77274800D01*
X147234068Y-75538940D02*
X147286795Y-76381135D01*
X147211906Y-75333213D02*
X147234068Y-75538940D01*
X147176157Y-74952423D02*
X147211906Y-75333213D01*
X147171010Y-74696761D02*
X147176157Y-74952423D01*
X147202853Y-74514045D02*
X147171010Y-74696761D01*
X147278078Y-74352092D02*
X147202853Y-74514045D01*
X147403073Y-74158719D02*
X147278078Y-74352092D01*
X147599119Y-73824590D02*
X147403073Y-74158719D01*
X147892456Y-73085450D02*
X147599119Y-73824590D01*
X148058011Y-72273590D02*
X147892456Y-73085450D01*
X148069753Y-71807914D02*
X148058011Y-72273590D01*
X147965481Y-71073616D02*
X148069753Y-71807914D01*
X147735529Y-70292976D02*
X147965481Y-71073616D01*
X147397640Y-69512209D02*
X147735529Y-70292976D01*
X146969559Y-68777529D02*
X147397640Y-69512209D01*
X146469030Y-68135152D02*
X146969559Y-68777529D01*
X145970334Y-67589499D02*
X146469030Y-68135152D01*
X145960167Y-66259360D02*
X145970334Y-67589499D01*
X145950000Y-64929222D02*
X145960167Y-66259360D01*
X146446038Y-64827625D02*
X145950000Y-64929222D01*
X146496712Y-64817814D02*
X146446038Y-64827625D01*
X146912656Y-64777613D02*
X146496712Y-64817814D01*
X147245378Y-64813014D02*
X146912656Y-64777613D01*
X147274564Y-64820976D02*
X147245378Y-64813014D01*
X147699841Y-64883559D02*
X147274564Y-64820976D01*
X148228069Y-64892920D02*
X147699841Y-64883559D01*
X148777149Y-64851191D02*
X148228069Y-64892920D01*
X149264981Y-64760507D02*
X148777149Y-64851191D01*
X149530132Y-64679411D02*
X149264981Y-64760507D01*
X150346384Y-64296576D02*
X149530132Y-64679411D01*
X151152723Y-63716445D02*
X150346384Y-64296576D01*
X151947329Y-62940955D02*
X151152723Y-63716445D01*
X152728383Y-61972044D02*
X151947329Y-62940955D01*
X153494063Y-60811650D02*
X152728383Y-61972044D01*
X154242550Y-59461710D02*
X153494063Y-60811650D01*
X154359946Y-59228861D02*
X154242550Y-59461710D01*
X154675053Y-58552135D02*
X154359946Y-59228861D01*
X154932980Y-57895855D02*
X154675053Y-58552135D01*
X155151789Y-57205052D02*
X154932980Y-57895855D01*
X155349542Y-56424757D02*
X155151789Y-57205052D01*
X155544301Y-55500000D02*
X155349542Y-56424757D01*
X155551674Y-55462555D02*
X155544301Y-55500000D01*
X155668520Y-54895235D02*
X155551674Y-55462555D01*
X155791753Y-54337448D02*
X155668520Y-54895235D01*
X155907146Y-53851575D02*
X155791753Y-54337448D01*
X156000469Y-53500000D02*
X155907146Y-53851575D01*
X156070210Y-53274220D02*
X156000469Y-53500000D01*
X156161230Y-53046003D02*
X156070210Y-53274220D01*
X156283367Y-52846555D02*
X156161230Y-53046003D01*
X156467114Y-52636511D02*
X156283367Y-52846555D01*
X156742968Y-52376507D02*
X156467114Y-52636511D01*
X157141423Y-52027176D02*
X156742968Y-52376507D01*
X157684781Y-51522953D02*
X157141423Y-52027176D01*
X158219113Y-50955638D02*
X157684781Y-51522953D01*
X158640153Y-50427176D02*
X158219113Y-50955638D01*
X158664068Y-50393142D02*
X158640153Y-50427176D01*
X159048106Y-49805610D02*
X158664068Y-50393142D01*
X159446311Y-49130683D02*
X159048106Y-49805610D01*
X159825140Y-48430207D02*
X159446311Y-49130683D01*
X160151048Y-47766030D02*
X159825140Y-48430207D01*
X160390491Y-47200000D02*
X160151048Y-47766030D01*
X160714368Y-46190504D02*
X160390491Y-47200000D01*
X160945274Y-45036053D02*
X160714368Y-46190504D01*
X161004618Y-43953765D02*
X160945274Y-45036053D01*
X160894075Y-42951274D02*
X161004618Y-43953765D01*
X160615320Y-42036211D02*
X160894075Y-42951274D01*
X160170029Y-41216209D02*
X160615320Y-42036211D01*
X159559877Y-40498901D02*
X160170029Y-41216209D01*
X158786539Y-39891918D02*
X159559877Y-40498901D01*
X158323078Y-39593960D02*
X158786539Y-39891918D01*
X158846942Y-39048745D02*
X158323078Y-39593960D01*
X158853639Y-39041755D02*
X158846942Y-39048745D01*
X159257730Y-38547430D02*
X158853639Y-39041755D01*
X159617432Y-37975713D02*
X159257730Y-38547430D01*
X159895421Y-37393971D02*
X159617432Y-37975713D01*
X160054372Y-36869566D02*
X159895421Y-37393971D01*
X160108453Y-36675236D02*
X160054372Y-36869566D01*
X160227424Y-36473378D02*
X160108453Y-36675236D01*
X160441751Y-36249793D02*
X160227424Y-36473378D01*
X160787148Y-35960157D02*
X160441751Y-36249793D01*
X161437248Y-35422095D02*
X160787148Y-35960157D01*
X162263791Y-34658867D02*
X161437248Y-35422095D01*
X162934858Y-33924138D02*
X162263791Y-34658867D01*
X163470380Y-33195364D02*
X162934858Y-33924138D01*
X163890287Y-32450000D02*
X163470380Y-33195364D01*
X164006906Y-32193023D02*
X163890287Y-32450000D01*
X164285466Y-31312467D02*
X164006906Y-32193023D01*
X164368943Y-30455420D02*
X164285466Y-31312467D01*
X164258166Y-29630207D02*
X164368943Y-30455420D01*
X163953967Y-28845155D02*
X164258166Y-29630207D01*
X163457176Y-28108589D02*
X163953967Y-28845155D01*
X163314591Y-27928274D02*
X163457176Y-28108589D01*
X163160007Y-27701324D02*
X163314591Y-27928274D01*
X163099921Y-27565538D02*
X163160007Y-27701324D01*
X163063630Y-27433162D02*
X163099921Y-27565538D01*
X162960654Y-27173846D02*
X163063630Y-27433162D01*
X162814385Y-26850000D02*
X162960654Y-27173846D01*
X162698641Y-26626331D02*
X162814385Y-26850000D01*
X162203130Y-25938039D02*
X162698641Y-26626331D01*
X161570379Y-25377588D02*
X162203130Y-25938039D01*
X160823512Y-24958895D02*
X161570379Y-25377588D01*
X159985652Y-24695874D02*
X160823512Y-24958895D01*
X159079922Y-24602444D02*
X159985652Y-24695874D01*
X158968824Y-24602948D02*
X159079922Y-24602444D01*
X158043195Y-24695959D02*
X158968824Y-24602948D01*
X157208490Y-24955802D02*
X158043195Y-24695959D01*
X156438740Y-25393392D02*
X157208490Y-24955802D01*
X155707977Y-26019643D02*
X156438740Y-25393392D01*
X155357785Y-26351071D02*
X155707977Y-26019643D01*
X154992388Y-26634758D02*
X155357785Y-26351071D01*
X154723280Y-26760343D02*
X154992388Y-26634758D01*
X154655463Y-26777956D02*
X154723280Y-26760343D01*
X154582925Y-26799663D02*
X154655463Y-26777956D01*
X154523199Y-26803607D02*
X154582925Y-26799663D01*
X154472254Y-26771753D02*
X154523199Y-26803607D01*
X154426059Y-26686068D02*
X154472254Y-26771753D01*
X154380584Y-26528518D02*
X154426059Y-26686068D01*
X154331798Y-26281069D02*
X154380584Y-26528518D01*
X154275670Y-25925687D02*
X154331798Y-26281069D01*
X154208169Y-25444340D02*
X154275670Y-25925687D01*
X154125264Y-24818993D02*
X154208169Y-25444340D01*
X154022924Y-24031612D02*
X154125264Y-24818993D01*
X153897119Y-23064165D02*
X154022924Y-24031612D01*
X153787472Y-22239212D02*
X153897119Y-23064165D01*
X153667137Y-21386306D02*
X153787472Y-22239212D01*
X153557636Y-20689721D02*
X153667137Y-21386306D01*
X153453447Y-20125967D02*
X153557636Y-20689721D01*
X153349048Y-19671553D02*
X153453447Y-20125967D01*
X153238918Y-19302989D02*
X153349048Y-19671553D01*
X153117533Y-18996785D02*
X153238918Y-19302989D01*
X152979374Y-18729450D02*
X153117533Y-18996785D01*
X152818917Y-18477494D02*
X152979374Y-18729450D01*
X152666899Y-18266923D02*
X152818917Y-18477494D01*
X152271895Y-17813152D02*
X152666899Y-18266923D01*
X151813132Y-17422734D02*
X152271895Y-17813152D01*
X151256987Y-17073218D02*
X151813132Y-17422734D01*
X150569840Y-16742158D02*
X151256987Y-17073218D01*
X149718070Y-16407104D02*
X150569840Y-16742158D01*
X149478901Y-16319448D02*
X149718070Y-16407104D01*
X149036869Y-16156545D02*
X149478901Y-16319448D01*
X148445375Y-15937966D02*
X149036869Y-16156545D01*
X147725139Y-15671388D02*
X148445375Y-15937966D01*
X146896884Y-15364489D02*
X147725139Y-15671388D01*
X145981328Y-15024949D02*
X146896884Y-15364489D01*
X144999194Y-14660445D02*
X145981328Y-15024949D01*
X143971201Y-14278656D02*
X144999194Y-14660445D01*
X142918070Y-13887260D02*
X143971201Y-14278656D01*
X142383338Y-13688487D02*
X142918070Y-13887260D01*
X141230075Y-13259981D02*
X142383338Y-13688487D01*
X140053964Y-12823217D02*
X141230075Y-13259981D01*
X138885045Y-12389338D02*
X140053964Y-12823217D01*
X137753360Y-11969490D02*
X138885045Y-12389338D01*
X136688952Y-11574816D02*
X137753360Y-11969490D01*
X135721862Y-11216459D02*
X136688952Y-11574816D01*
X134882132Y-10905564D02*
X135721862Y-11216459D01*
X134199804Y-10653273D02*
X134882132Y-10905564D01*
X133932666Y-10554483D02*
X134199804Y-10653273D01*
X133124035Y-10254167D02*
X133932666Y-10554483D01*
X132328771Y-9957068D02*
X133124035Y-10254167D01*
X131581752Y-9676322D02*
X132328771Y-9957068D01*
X130917857Y-9425065D02*
X131581752Y-9676322D01*
X130371963Y-9216434D02*
X130917857Y-9425065D01*
X129978949Y-9063564D02*
X130371963Y-9216434D01*
X129560413Y-8905402D02*
X129978949Y-9063564D01*
X128612730Y-8614821D02*
X129560413Y-8905402D01*
X127748584Y-8459555D02*
X128612730Y-8614821D01*
M02*
