M48
; DRILL file {KiCad (5.1.5)-3} date 2/8/2020 10:35:03 PM
; FORMAT={-:-/ absolute / inch / decimal}
; #@! TF.CreationDate,2020-02-08T22:35:03-06:00
; #@! TF.GenerationSoftware,Kicad,Pcbnew,(5.1.5)-3
; #@! TF.FileFunction,Plated,1,2,PTH
FMAT,2
INCH
T1C0.0130
T2C0.0400
%
G90
G05
T1
X3.325Y-7.45
X3.425Y-6.25
X3.475Y-4.675
X3.475Y-5.425
X3.475Y-5.475
X3.55Y-5.025
X3.55Y-5.975
X3.575Y-7.475
X3.6Y-4.075
X3.625Y-6.25
X3.675Y-7.375
X3.675Y-7.425
X3.725Y-3.925
X3.725Y-4.7
X3.75Y-6.0
X3.77Y-4.9
X3.775Y-4.575
X3.8Y-3.425
X3.8Y-3.525
X3.875Y-5.875
X3.9Y-5.975
X3.9Y-6.375
X3.95Y-4.1
X3.95Y-4.225
X3.975Y-4.4
X3.975Y-5.1
X3.975Y-5.4
X3.975Y-6.35
X4.0Y-3.925
X4.025Y-3.575
X4.025Y-4.1
X4.025Y-4.875
X4.025Y-7.7
X4.1Y-1.65
X4.15Y-4.45
X4.15Y-5.175
X4.175Y-2.275
X4.175Y-3.125
X4.175Y-5.25
X4.175Y-5.875
X4.225Y-3.575
X4.225Y-3.725
X4.25Y-2.875
X4.25Y-3.875
X4.275Y-4.15
X4.3Y-2.15
X4.3Y-4.95
X4.3Y-5.025
X4.35Y-3.4
X4.35Y-4.625
X4.35Y-5.55
X4.35Y-5.7
X4.375Y-3.6
X4.4Y-1.55
X4.4Y-3.425
X4.4Y-3.525
X4.4Y-4.8
X4.4Y-5.5
X4.4Y-5.75
X4.4Y-6.2
X4.425Y-3.375
X4.425Y-3.65
X4.425Y-3.7
X4.45Y-5.4
X4.45Y-6.15
X4.45Y-6.25
X4.475Y-3.4
X4.475Y-3.7
X4.475Y-4.125
X4.475Y-6.025
X4.5Y-2.475
X4.5Y-5.6
X4.525Y-3.375
X4.525Y-3.7
X4.525Y-6.3
X4.525Y-6.425
X4.575Y-1.45
X4.575Y-2.275
X4.575Y-3.8
X4.575Y-3.85
X4.575Y-5.675
X4.625Y-3.35
X4.625Y-5.175
X4.625Y-6.2
X4.65Y-3.3
X4.65Y-6.425
X4.675Y-5.325
X4.675Y-5.575
X4.675Y-6.2
X4.7Y-3.225
X4.7Y-4.0
X4.7Y-6.525
X4.725Y-2.175
X4.725Y-3.25
X4.725Y-3.55
X4.725Y-3.6
X4.725Y-6.2
X4.75Y-1.375
X4.75Y-3.275
X4.75Y-3.325
X4.75Y-3.9
X4.75Y-4.65
X4.775Y-2.0
X4.775Y-3.55
X4.775Y-3.6
X4.775Y-4.0
X4.775Y-4.75
X4.775Y-6.25
X4.85Y-3.225
X4.85Y-3.275
X4.875Y-3.3
X4.875Y-3.825
X4.875Y-3.875
X4.875Y-5.825
X4.9Y-3.325
X4.9Y-5.475
X4.9Y-6.05
X4.9Y-6.15
X4.9Y-6.2
X4.9Y-6.25
X4.925Y-1.85
X4.925Y-6.525
X4.95Y-2.4
X4.975Y-3.7
X4.975Y-6.475
X4.975Y-6.575
X5.0Y-3.325
X5.025Y-3.7
X5.025Y-3.75
X5.025Y-4.6
X5.025Y-6.525
X5.05Y-4.25
X5.05Y-6.225
X5.075Y-2.1
X5.075Y-3.325
X5.075Y-3.55
X5.075Y-3.675
X5.075Y-4.9
X5.1Y-1.85
X5.125Y-1.575
X5.125Y-3.325
X5.125Y-3.9
X5.125Y-6.3332
X5.15Y-3.275
X5.15Y-5.925
X5.175Y-3.325
X5.175Y-3.4
X5.2Y-2.675
X5.2Y-6.125
X5.2Y-6.2
X5.225Y-3.15
X5.25Y-6.25
X5.3Y-3.6
X5.3Y-5.675
X5.35Y-6.4
X5.375Y-2.95
X5.375Y-5.975
X5.375Y-6.15
X5.375Y-6.25
X5.4Y-3.375
X5.45Y-6.3
X5.475Y-2.625
X5.475Y-3.025
X5.5Y-6.425
X5.575Y-6.325
X5.6Y-1.3
X5.6Y-6.125
X5.6Y-6.225
X5.65Y-6.325
X5.655Y-2.125
X5.725Y-4.75
X5.8Y-6.475
X5.825Y-1.65
X5.85Y-7.65
X5.875Y-4.9
X5.9Y-6.35
X5.925Y-5.525
X5.975Y-1.775
X6.05Y-6.525
X6.125Y-7.625
X6.175Y-6.375
X6.175Y-6.7
T2
X6.07Y-6.818
X6.07Y-7.408
X3.8Y-7.475
X3.8Y-7.575
X3.8Y-7.675
T0
M30
