%FSLAX45Y45*%
G04 Gerber Fmt 4.5, Leading zero omitted, Abs format (unit mm)*
G04 Created by KiCad (PCBNEW (5.1.5)-3) date 2020-02-08 22:35:04*
%MOMM*%
%LPD*%
G04 APERTURE LIST*
%ADD10C,0.200000*%
%ADD11C,0.300000*%
G04 APERTURE END LIST*
D10*
D11*
X8208009Y-20134218D02*
X8208009Y-19834218D01*
X8279437Y-19834218D01*
X8322295Y-19848504D01*
X8350866Y-19877076D01*
X8365152Y-19905647D01*
X8379437Y-19962790D01*
X8379437Y-20005647D01*
X8365152Y-20062790D01*
X8350866Y-20091361D01*
X8322295Y-20119933D01*
X8279437Y-20134218D01*
X8208009Y-20134218D01*
X8508009Y-20134218D02*
X8508009Y-19934218D01*
X8508009Y-19991361D02*
X8522295Y-19962790D01*
X8536580Y-19948504D01*
X8565152Y-19934218D01*
X8593723Y-19934218D01*
X8693723Y-20134218D02*
X8693723Y-19934218D01*
X8693723Y-19834218D02*
X8679438Y-19848504D01*
X8693723Y-19862790D01*
X8708009Y-19848504D01*
X8693723Y-19834218D01*
X8693723Y-19862790D01*
X8879438Y-20134218D02*
X8850866Y-20119933D01*
X8836580Y-20091361D01*
X8836580Y-19834218D01*
X9036580Y-20134218D02*
X9008009Y-20119933D01*
X8993723Y-20091361D01*
X8993723Y-19834218D01*
X9379438Y-20134218D02*
X9379438Y-19834218D01*
X9479438Y-20048504D01*
X9579438Y-19834218D01*
X9579438Y-20134218D01*
X9850866Y-20134218D02*
X9850866Y-19977076D01*
X9836580Y-19948504D01*
X9808009Y-19934218D01*
X9750866Y-19934218D01*
X9722295Y-19948504D01*
X9850866Y-20119933D02*
X9822295Y-20134218D01*
X9750866Y-20134218D01*
X9722295Y-20119933D01*
X9708009Y-20091361D01*
X9708009Y-20062790D01*
X9722295Y-20034218D01*
X9750866Y-20019933D01*
X9822295Y-20019933D01*
X9850866Y-20005647D01*
X9993723Y-19934218D02*
X9993723Y-20234218D01*
X9993723Y-19948504D02*
X10022295Y-19934218D01*
X10079438Y-19934218D01*
X10108009Y-19948504D01*
X10122295Y-19962790D01*
X10136580Y-19991361D01*
X10136580Y-20077076D01*
X10122295Y-20105647D01*
X10108009Y-20119933D01*
X10079438Y-20134218D01*
X10022295Y-20134218D01*
X9993723Y-20119933D01*
X10265152Y-20105647D02*
X10279438Y-20119933D01*
X10265152Y-20134218D01*
X10250866Y-20119933D01*
X10265152Y-20105647D01*
X10265152Y-20134218D01*
X10265152Y-19948504D02*
X10279438Y-19962790D01*
X10265152Y-19977076D01*
X10250866Y-19962790D01*
X10265152Y-19948504D01*
X10265152Y-19977076D01*
M02*
