G04 #@! TF.GenerationSoftware,KiCad,Pcbnew,(5.1.5)-3*
G04 #@! TF.CreationDate,2020-02-08T22:35:01-06:00*
G04 #@! TF.ProjectId,tymkrs_Cyphercon_2020_coyote,74796d6b-7273-45f4-9379-70686572636f,V0*
G04 #@! TF.SameCoordinates,Original*
G04 #@! TF.FileFunction,Paste,Top*
G04 #@! TF.FilePolarity,Positive*
%FSLAX46Y46*%
G04 Gerber Fmt 4.6, Leading zero omitted, Abs format (unit mm)*
G04 Created by KiCad (PCBNEW (5.1.5)-3) date 2020-02-08 22:35:01*
%MOMM*%
%LPD*%
G04 APERTURE LIST*
%ADD10C,0.100000*%
G04 APERTURE END LIST*
D10*
G36*
X142608902Y-30681575D02*
G01*
X142630101Y-30684957D01*
X142650867Y-30690400D01*
X142670999Y-30697852D01*
X142690304Y-30707241D01*
X142708595Y-30718478D01*
X142725697Y-30731453D01*
X142741445Y-30746042D01*
X142755687Y-30762104D01*
X142768286Y-30779486D01*
X142779121Y-30798018D01*
X142788087Y-30817523D01*
X142795098Y-30837813D01*
X142800087Y-30858692D01*
X142803005Y-30879960D01*
X142847672Y-31390510D01*
X142848491Y-31411961D01*
X142847204Y-31433390D01*
X142843822Y-31454589D01*
X142838380Y-31475355D01*
X142830927Y-31495487D01*
X142821538Y-31514791D01*
X142810301Y-31533083D01*
X142797326Y-31550185D01*
X142782737Y-31565933D01*
X142766675Y-31580175D01*
X142749294Y-31592774D01*
X142730761Y-31603609D01*
X142711256Y-31612575D01*
X142690966Y-31619586D01*
X142670087Y-31624575D01*
X142648819Y-31627493D01*
X142212984Y-31665623D01*
X142191533Y-31666442D01*
X142170104Y-31665155D01*
X142148905Y-31661773D01*
X142128139Y-31656330D01*
X142108007Y-31648878D01*
X142088702Y-31639489D01*
X142070411Y-31628252D01*
X142053309Y-31615277D01*
X142037561Y-31600688D01*
X142023319Y-31584626D01*
X142010720Y-31567244D01*
X141999885Y-31548712D01*
X141990919Y-31529207D01*
X141983908Y-31508917D01*
X141978919Y-31488038D01*
X141976001Y-31466770D01*
X141931334Y-30956220D01*
X141930515Y-30934769D01*
X141931802Y-30913340D01*
X141935184Y-30892141D01*
X141940626Y-30871375D01*
X141948079Y-30851243D01*
X141957468Y-30831939D01*
X141968705Y-30813647D01*
X141981680Y-30796545D01*
X141996269Y-30780797D01*
X142012331Y-30766555D01*
X142029712Y-30753956D01*
X142048245Y-30743121D01*
X142067750Y-30734155D01*
X142088040Y-30727144D01*
X142108919Y-30722155D01*
X142130187Y-30719237D01*
X142566022Y-30681107D01*
X142587473Y-30680288D01*
X142608902Y-30681575D01*
G37*
G36*
X141039896Y-30818845D02*
G01*
X141061095Y-30822227D01*
X141081861Y-30827670D01*
X141101993Y-30835122D01*
X141121298Y-30844511D01*
X141139589Y-30855748D01*
X141156691Y-30868723D01*
X141172439Y-30883312D01*
X141186681Y-30899374D01*
X141199280Y-30916756D01*
X141210115Y-30935288D01*
X141219081Y-30954793D01*
X141226092Y-30975083D01*
X141231081Y-30995962D01*
X141233999Y-31017230D01*
X141278666Y-31527780D01*
X141279485Y-31549231D01*
X141278198Y-31570660D01*
X141274816Y-31591859D01*
X141269374Y-31612625D01*
X141261921Y-31632757D01*
X141252532Y-31652061D01*
X141241295Y-31670353D01*
X141228320Y-31687455D01*
X141213731Y-31703203D01*
X141197669Y-31717445D01*
X141180288Y-31730044D01*
X141161755Y-31740879D01*
X141142250Y-31749845D01*
X141121960Y-31756856D01*
X141101081Y-31761845D01*
X141079813Y-31764763D01*
X140643978Y-31802893D01*
X140622527Y-31803712D01*
X140601098Y-31802425D01*
X140579899Y-31799043D01*
X140559133Y-31793600D01*
X140539001Y-31786148D01*
X140519696Y-31776759D01*
X140501405Y-31765522D01*
X140484303Y-31752547D01*
X140468555Y-31737958D01*
X140454313Y-31721896D01*
X140441714Y-31704514D01*
X140430879Y-31685982D01*
X140421913Y-31666477D01*
X140414902Y-31646187D01*
X140409913Y-31625308D01*
X140406995Y-31604040D01*
X140362328Y-31093490D01*
X140361509Y-31072039D01*
X140362796Y-31050610D01*
X140366178Y-31029411D01*
X140371620Y-31008645D01*
X140379073Y-30988513D01*
X140388462Y-30969209D01*
X140399699Y-30950917D01*
X140412674Y-30933815D01*
X140427263Y-30918067D01*
X140443325Y-30903825D01*
X140460706Y-30891226D01*
X140479239Y-30880391D01*
X140498744Y-30871425D01*
X140519034Y-30864414D01*
X140539913Y-30859425D01*
X140561181Y-30856507D01*
X140997016Y-30818377D01*
X141018467Y-30817558D01*
X141039896Y-30818845D01*
G37*
G36*
X118546760Y-137848557D02*
G01*
X118567880Y-137852400D01*
X118588522Y-137858295D01*
X118608487Y-137866185D01*
X118627582Y-137875993D01*
X119071420Y-138132243D01*
X119089462Y-138143876D01*
X119106277Y-138157221D01*
X119121703Y-138172150D01*
X119135591Y-138188519D01*
X119147808Y-138206171D01*
X119158236Y-138224935D01*
X119166774Y-138244631D01*
X119173341Y-138265069D01*
X119177873Y-138286053D01*
X119180327Y-138307379D01*
X119180678Y-138328843D01*
X119178924Y-138350239D01*
X119175081Y-138371359D01*
X119169186Y-138392001D01*
X119161296Y-138411966D01*
X119151488Y-138431061D01*
X118932738Y-138809947D01*
X118921105Y-138827989D01*
X118907760Y-138844804D01*
X118892831Y-138860230D01*
X118876462Y-138874118D01*
X118858810Y-138886335D01*
X118840046Y-138896763D01*
X118820350Y-138905301D01*
X118799912Y-138911868D01*
X118778928Y-138916400D01*
X118757602Y-138918854D01*
X118736138Y-138919205D01*
X118714742Y-138917451D01*
X118693622Y-138913608D01*
X118672980Y-138907713D01*
X118653015Y-138899823D01*
X118633920Y-138890015D01*
X118190082Y-138633765D01*
X118172040Y-138622132D01*
X118155225Y-138608787D01*
X118139799Y-138593858D01*
X118125911Y-138577489D01*
X118113694Y-138559837D01*
X118103266Y-138541073D01*
X118094728Y-138521377D01*
X118088161Y-138500939D01*
X118083629Y-138479955D01*
X118081175Y-138458629D01*
X118080824Y-138437165D01*
X118082578Y-138415769D01*
X118086421Y-138394649D01*
X118092316Y-138374007D01*
X118100206Y-138354042D01*
X118110014Y-138334947D01*
X118328764Y-137956061D01*
X118340397Y-137938019D01*
X118353742Y-137921204D01*
X118368671Y-137905778D01*
X118385040Y-137891890D01*
X118402692Y-137879673D01*
X118421456Y-137869245D01*
X118441152Y-137860707D01*
X118461590Y-137854140D01*
X118482574Y-137849608D01*
X118503900Y-137847154D01*
X118525364Y-137846803D01*
X118546760Y-137848557D01*
G37*
G36*
X117759258Y-139212549D02*
G01*
X117780378Y-139216392D01*
X117801020Y-139222287D01*
X117820985Y-139230177D01*
X117840080Y-139239985D01*
X118283918Y-139496235D01*
X118301960Y-139507868D01*
X118318775Y-139521213D01*
X118334201Y-139536142D01*
X118348089Y-139552511D01*
X118360306Y-139570163D01*
X118370734Y-139588927D01*
X118379272Y-139608623D01*
X118385839Y-139629061D01*
X118390371Y-139650045D01*
X118392825Y-139671371D01*
X118393176Y-139692835D01*
X118391422Y-139714231D01*
X118387579Y-139735351D01*
X118381684Y-139755993D01*
X118373794Y-139775958D01*
X118363986Y-139795053D01*
X118145236Y-140173939D01*
X118133603Y-140191981D01*
X118120258Y-140208796D01*
X118105329Y-140224222D01*
X118088960Y-140238110D01*
X118071308Y-140250327D01*
X118052544Y-140260755D01*
X118032848Y-140269293D01*
X118012410Y-140275860D01*
X117991426Y-140280392D01*
X117970100Y-140282846D01*
X117948636Y-140283197D01*
X117927240Y-140281443D01*
X117906120Y-140277600D01*
X117885478Y-140271705D01*
X117865513Y-140263815D01*
X117846418Y-140254007D01*
X117402580Y-139997757D01*
X117384538Y-139986124D01*
X117367723Y-139972779D01*
X117352297Y-139957850D01*
X117338409Y-139941481D01*
X117326192Y-139923829D01*
X117315764Y-139905065D01*
X117307226Y-139885369D01*
X117300659Y-139864931D01*
X117296127Y-139843947D01*
X117293673Y-139822621D01*
X117293322Y-139801157D01*
X117295076Y-139779761D01*
X117298919Y-139758641D01*
X117304814Y-139737999D01*
X117312704Y-139718034D01*
X117322512Y-139698939D01*
X117541262Y-139320053D01*
X117552895Y-139302011D01*
X117566240Y-139285196D01*
X117581169Y-139269770D01*
X117597538Y-139255882D01*
X117615190Y-139243665D01*
X117633954Y-139233237D01*
X117653650Y-139224699D01*
X117674088Y-139218132D01*
X117695072Y-139213600D01*
X117716398Y-139211146D01*
X117737862Y-139210795D01*
X117759258Y-139212549D01*
G37*
G36*
X122991760Y-127561557D02*
G01*
X123012880Y-127565400D01*
X123033522Y-127571295D01*
X123053487Y-127579185D01*
X123072582Y-127588993D01*
X123516420Y-127845243D01*
X123534462Y-127856876D01*
X123551277Y-127870221D01*
X123566703Y-127885150D01*
X123580591Y-127901519D01*
X123592808Y-127919171D01*
X123603236Y-127937935D01*
X123611774Y-127957631D01*
X123618341Y-127978069D01*
X123622873Y-127999053D01*
X123625327Y-128020379D01*
X123625678Y-128041843D01*
X123623924Y-128063239D01*
X123620081Y-128084359D01*
X123614186Y-128105001D01*
X123606296Y-128124966D01*
X123596488Y-128144061D01*
X123377738Y-128522947D01*
X123366105Y-128540989D01*
X123352760Y-128557804D01*
X123337831Y-128573230D01*
X123321462Y-128587118D01*
X123303810Y-128599335D01*
X123285046Y-128609763D01*
X123265350Y-128618301D01*
X123244912Y-128624868D01*
X123223928Y-128629400D01*
X123202602Y-128631854D01*
X123181138Y-128632205D01*
X123159742Y-128630451D01*
X123138622Y-128626608D01*
X123117980Y-128620713D01*
X123098015Y-128612823D01*
X123078920Y-128603015D01*
X122635082Y-128346765D01*
X122617040Y-128335132D01*
X122600225Y-128321787D01*
X122584799Y-128306858D01*
X122570911Y-128290489D01*
X122558694Y-128272837D01*
X122548266Y-128254073D01*
X122539728Y-128234377D01*
X122533161Y-128213939D01*
X122528629Y-128192955D01*
X122526175Y-128171629D01*
X122525824Y-128150165D01*
X122527578Y-128128769D01*
X122531421Y-128107649D01*
X122537316Y-128087007D01*
X122545206Y-128067042D01*
X122555014Y-128047947D01*
X122773764Y-127669061D01*
X122785397Y-127651019D01*
X122798742Y-127634204D01*
X122813671Y-127618778D01*
X122830040Y-127604890D01*
X122847692Y-127592673D01*
X122866456Y-127582245D01*
X122886152Y-127573707D01*
X122906590Y-127567140D01*
X122927574Y-127562608D01*
X122948900Y-127560154D01*
X122970364Y-127559803D01*
X122991760Y-127561557D01*
G37*
G36*
X122204258Y-128925549D02*
G01*
X122225378Y-128929392D01*
X122246020Y-128935287D01*
X122265985Y-128943177D01*
X122285080Y-128952985D01*
X122728918Y-129209235D01*
X122746960Y-129220868D01*
X122763775Y-129234213D01*
X122779201Y-129249142D01*
X122793089Y-129265511D01*
X122805306Y-129283163D01*
X122815734Y-129301927D01*
X122824272Y-129321623D01*
X122830839Y-129342061D01*
X122835371Y-129363045D01*
X122837825Y-129384371D01*
X122838176Y-129405835D01*
X122836422Y-129427231D01*
X122832579Y-129448351D01*
X122826684Y-129468993D01*
X122818794Y-129488958D01*
X122808986Y-129508053D01*
X122590236Y-129886939D01*
X122578603Y-129904981D01*
X122565258Y-129921796D01*
X122550329Y-129937222D01*
X122533960Y-129951110D01*
X122516308Y-129963327D01*
X122497544Y-129973755D01*
X122477848Y-129982293D01*
X122457410Y-129988860D01*
X122436426Y-129993392D01*
X122415100Y-129995846D01*
X122393636Y-129996197D01*
X122372240Y-129994443D01*
X122351120Y-129990600D01*
X122330478Y-129984705D01*
X122310513Y-129976815D01*
X122291418Y-129967007D01*
X121847580Y-129710757D01*
X121829538Y-129699124D01*
X121812723Y-129685779D01*
X121797297Y-129670850D01*
X121783409Y-129654481D01*
X121771192Y-129636829D01*
X121760764Y-129618065D01*
X121752226Y-129598369D01*
X121745659Y-129577931D01*
X121741127Y-129556947D01*
X121738673Y-129535621D01*
X121738322Y-129514157D01*
X121740076Y-129492761D01*
X121743919Y-129471641D01*
X121749814Y-129450999D01*
X121757704Y-129431034D01*
X121767512Y-129411939D01*
X121986262Y-129033053D01*
X121997895Y-129015011D01*
X122011240Y-128998196D01*
X122026169Y-128982770D01*
X122042538Y-128968882D01*
X122060190Y-128956665D01*
X122078954Y-128946237D01*
X122098650Y-128937699D01*
X122119088Y-128931132D01*
X122140072Y-128926600D01*
X122161398Y-128924146D01*
X122182862Y-128923795D01*
X122204258Y-128925549D01*
G37*
G36*
X88075390Y-127408795D02*
G01*
X88096589Y-127412177D01*
X88117355Y-127417619D01*
X88137487Y-127425072D01*
X88156791Y-127434461D01*
X88175083Y-127445698D01*
X88192185Y-127458673D01*
X88207933Y-127473262D01*
X88222175Y-127489324D01*
X88234774Y-127506705D01*
X88245609Y-127525238D01*
X88254575Y-127544743D01*
X88261586Y-127565033D01*
X88266575Y-127585912D01*
X88269493Y-127607180D01*
X88307623Y-128043015D01*
X88308442Y-128064466D01*
X88307155Y-128085895D01*
X88303773Y-128107094D01*
X88298330Y-128127860D01*
X88290878Y-128147992D01*
X88281489Y-128167297D01*
X88270252Y-128185588D01*
X88257277Y-128202690D01*
X88242688Y-128218438D01*
X88226626Y-128232680D01*
X88209244Y-128245279D01*
X88190712Y-128256114D01*
X88171207Y-128265080D01*
X88150917Y-128272091D01*
X88130038Y-128277080D01*
X88108770Y-128279998D01*
X87598220Y-128324665D01*
X87576769Y-128325484D01*
X87555340Y-128324197D01*
X87534141Y-128320815D01*
X87513375Y-128315373D01*
X87493243Y-128307920D01*
X87473939Y-128298531D01*
X87455647Y-128287294D01*
X87438545Y-128274319D01*
X87422797Y-128259730D01*
X87408555Y-128243668D01*
X87395956Y-128226287D01*
X87385121Y-128207754D01*
X87376155Y-128188249D01*
X87369144Y-128167959D01*
X87364155Y-128147080D01*
X87361237Y-128125812D01*
X87323107Y-127689977D01*
X87322288Y-127668526D01*
X87323575Y-127647097D01*
X87326957Y-127625898D01*
X87332400Y-127605132D01*
X87339852Y-127585000D01*
X87349241Y-127565695D01*
X87360478Y-127547404D01*
X87373453Y-127530302D01*
X87388042Y-127514554D01*
X87404104Y-127500312D01*
X87421486Y-127487713D01*
X87440018Y-127476878D01*
X87459523Y-127467912D01*
X87479813Y-127460901D01*
X87500692Y-127455912D01*
X87521960Y-127452994D01*
X88032510Y-127408327D01*
X88053961Y-127407508D01*
X88075390Y-127408795D01*
G37*
G36*
X88212660Y-128977803D02*
G01*
X88233859Y-128981185D01*
X88254625Y-128986627D01*
X88274757Y-128994080D01*
X88294061Y-129003469D01*
X88312353Y-129014706D01*
X88329455Y-129027681D01*
X88345203Y-129042270D01*
X88359445Y-129058332D01*
X88372044Y-129075713D01*
X88382879Y-129094246D01*
X88391845Y-129113751D01*
X88398856Y-129134041D01*
X88403845Y-129154920D01*
X88406763Y-129176188D01*
X88444893Y-129612023D01*
X88445712Y-129633474D01*
X88444425Y-129654903D01*
X88441043Y-129676102D01*
X88435600Y-129696868D01*
X88428148Y-129717000D01*
X88418759Y-129736305D01*
X88407522Y-129754596D01*
X88394547Y-129771698D01*
X88379958Y-129787446D01*
X88363896Y-129801688D01*
X88346514Y-129814287D01*
X88327982Y-129825122D01*
X88308477Y-129834088D01*
X88288187Y-129841099D01*
X88267308Y-129846088D01*
X88246040Y-129849006D01*
X87735490Y-129893673D01*
X87714039Y-129894492D01*
X87692610Y-129893205D01*
X87671411Y-129889823D01*
X87650645Y-129884381D01*
X87630513Y-129876928D01*
X87611209Y-129867539D01*
X87592917Y-129856302D01*
X87575815Y-129843327D01*
X87560067Y-129828738D01*
X87545825Y-129812676D01*
X87533226Y-129795295D01*
X87522391Y-129776762D01*
X87513425Y-129757257D01*
X87506414Y-129736967D01*
X87501425Y-129716088D01*
X87498507Y-129694820D01*
X87460377Y-129258985D01*
X87459558Y-129237534D01*
X87460845Y-129216105D01*
X87464227Y-129194906D01*
X87469670Y-129174140D01*
X87477122Y-129154008D01*
X87486511Y-129134703D01*
X87497748Y-129116412D01*
X87510723Y-129099310D01*
X87525312Y-129083562D01*
X87541374Y-129069320D01*
X87558756Y-129056721D01*
X87577288Y-129045886D01*
X87596793Y-129036920D01*
X87617083Y-129029909D01*
X87637962Y-129024920D01*
X87659230Y-129022002D01*
X88169780Y-128977335D01*
X88191231Y-128976516D01*
X88212660Y-128977803D01*
G37*
G36*
X91494555Y-141117237D02*
G01*
X91515632Y-141121310D01*
X91536208Y-141127429D01*
X91556086Y-141135536D01*
X91575073Y-141145552D01*
X91592987Y-141157381D01*
X91609655Y-141170909D01*
X91624917Y-141186006D01*
X91638626Y-141202525D01*
X91650650Y-141220309D01*
X91660873Y-141239186D01*
X91669196Y-141258974D01*
X91818830Y-141670089D01*
X91825173Y-141690597D01*
X91829476Y-141711629D01*
X91831697Y-141732981D01*
X91831814Y-141754448D01*
X91829826Y-141775822D01*
X91825753Y-141796900D01*
X91819634Y-141817476D01*
X91811527Y-141837354D01*
X91801511Y-141856341D01*
X91789682Y-141874255D01*
X91776154Y-141890923D01*
X91761057Y-141906185D01*
X91744538Y-141919894D01*
X91726754Y-141931918D01*
X91707877Y-141942141D01*
X91688089Y-141950464D01*
X91206497Y-142125749D01*
X91185988Y-142132092D01*
X91164957Y-142136395D01*
X91143605Y-142138616D01*
X91122138Y-142138733D01*
X91100763Y-142136745D01*
X91079686Y-142132672D01*
X91059110Y-142126553D01*
X91039232Y-142118446D01*
X91020245Y-142108430D01*
X91002331Y-142096601D01*
X90985663Y-142083073D01*
X90970401Y-142067976D01*
X90956692Y-142051457D01*
X90944668Y-142033673D01*
X90934445Y-142014796D01*
X90926122Y-141995008D01*
X90776488Y-141583893D01*
X90770145Y-141563385D01*
X90765842Y-141542353D01*
X90763621Y-141521001D01*
X90763504Y-141499534D01*
X90765492Y-141478160D01*
X90769565Y-141457082D01*
X90775684Y-141436506D01*
X90783791Y-141416628D01*
X90793807Y-141397641D01*
X90805636Y-141379727D01*
X90819164Y-141363059D01*
X90834261Y-141347797D01*
X90850780Y-141334088D01*
X90868564Y-141322064D01*
X90887441Y-141311841D01*
X90907229Y-141303518D01*
X91388821Y-141128233D01*
X91409330Y-141121890D01*
X91430361Y-141117587D01*
X91451713Y-141115366D01*
X91473180Y-141115249D01*
X91494555Y-141117237D01*
G37*
G36*
X92033237Y-142597255D02*
G01*
X92054314Y-142601328D01*
X92074890Y-142607447D01*
X92094768Y-142615554D01*
X92113755Y-142625570D01*
X92131669Y-142637399D01*
X92148337Y-142650927D01*
X92163599Y-142666024D01*
X92177308Y-142682543D01*
X92189332Y-142700327D01*
X92199555Y-142719204D01*
X92207878Y-142738992D01*
X92357512Y-143150107D01*
X92363855Y-143170615D01*
X92368158Y-143191647D01*
X92370379Y-143212999D01*
X92370496Y-143234466D01*
X92368508Y-143255840D01*
X92364435Y-143276918D01*
X92358316Y-143297494D01*
X92350209Y-143317372D01*
X92340193Y-143336359D01*
X92328364Y-143354273D01*
X92314836Y-143370941D01*
X92299739Y-143386203D01*
X92283220Y-143399912D01*
X92265436Y-143411936D01*
X92246559Y-143422159D01*
X92226771Y-143430482D01*
X91745179Y-143605767D01*
X91724670Y-143612110D01*
X91703639Y-143616413D01*
X91682287Y-143618634D01*
X91660820Y-143618751D01*
X91639445Y-143616763D01*
X91618368Y-143612690D01*
X91597792Y-143606571D01*
X91577914Y-143598464D01*
X91558927Y-143588448D01*
X91541013Y-143576619D01*
X91524345Y-143563091D01*
X91509083Y-143547994D01*
X91495374Y-143531475D01*
X91483350Y-143513691D01*
X91473127Y-143494814D01*
X91464804Y-143475026D01*
X91315170Y-143063911D01*
X91308827Y-143043403D01*
X91304524Y-143022371D01*
X91302303Y-143001019D01*
X91302186Y-142979552D01*
X91304174Y-142958178D01*
X91308247Y-142937100D01*
X91314366Y-142916524D01*
X91322473Y-142896646D01*
X91332489Y-142877659D01*
X91344318Y-142859745D01*
X91357846Y-142843077D01*
X91372943Y-142827815D01*
X91389462Y-142814106D01*
X91407246Y-142802082D01*
X91426123Y-142791859D01*
X91445911Y-142783536D01*
X91927503Y-142608251D01*
X91948012Y-142601908D01*
X91969043Y-142597605D01*
X91990395Y-142595384D01*
X92011862Y-142595267D01*
X92033237Y-142597255D01*
G37*
G36*
X101081218Y-157304837D02*
G01*
X101102417Y-157308219D01*
X101123182Y-157313661D01*
X101143315Y-157321114D01*
X101162619Y-157330503D01*
X101180911Y-157341740D01*
X101198013Y-157354715D01*
X101533158Y-157635935D01*
X101548906Y-157650524D01*
X101563148Y-157666586D01*
X101575747Y-157683967D01*
X101586582Y-157702499D01*
X101595548Y-157722004D01*
X101602559Y-157742294D01*
X101607548Y-157763174D01*
X101610466Y-157784442D01*
X101611285Y-157805893D01*
X101609998Y-157827322D01*
X101606617Y-157848521D01*
X101601174Y-157869286D01*
X101593721Y-157889419D01*
X101584332Y-157908723D01*
X101573095Y-157927015D01*
X101560120Y-157944117D01*
X101230691Y-158336715D01*
X101216102Y-158352463D01*
X101200040Y-158366705D01*
X101182659Y-158379304D01*
X101164126Y-158390139D01*
X101144621Y-158399105D01*
X101124332Y-158406116D01*
X101103452Y-158411105D01*
X101082184Y-158414023D01*
X101060733Y-158414842D01*
X101039304Y-158413555D01*
X101018105Y-158410173D01*
X100997340Y-158404731D01*
X100977207Y-158397278D01*
X100957903Y-158387889D01*
X100939611Y-158376652D01*
X100922509Y-158363677D01*
X100587364Y-158082457D01*
X100571616Y-158067868D01*
X100557374Y-158051806D01*
X100544775Y-158034425D01*
X100533940Y-158015893D01*
X100524974Y-157996388D01*
X100517963Y-157976098D01*
X100512974Y-157955218D01*
X100510056Y-157933950D01*
X100509237Y-157912499D01*
X100510524Y-157891070D01*
X100513905Y-157869871D01*
X100519348Y-157849106D01*
X100526801Y-157828973D01*
X100536190Y-157809669D01*
X100547427Y-157791377D01*
X100560402Y-157774275D01*
X100889831Y-157381677D01*
X100904420Y-157365929D01*
X100920482Y-157351687D01*
X100937863Y-157339088D01*
X100956396Y-157328253D01*
X100975901Y-157319287D01*
X100996190Y-157312276D01*
X101017070Y-157307287D01*
X101038338Y-157304369D01*
X101059789Y-157303550D01*
X101081218Y-157304837D01*
G37*
G36*
X99874696Y-156292445D02*
G01*
X99895895Y-156295827D01*
X99916660Y-156301269D01*
X99936793Y-156308722D01*
X99956097Y-156318111D01*
X99974389Y-156329348D01*
X99991491Y-156342323D01*
X100326636Y-156623543D01*
X100342384Y-156638132D01*
X100356626Y-156654194D01*
X100369225Y-156671575D01*
X100380060Y-156690107D01*
X100389026Y-156709612D01*
X100396037Y-156729902D01*
X100401026Y-156750782D01*
X100403944Y-156772050D01*
X100404763Y-156793501D01*
X100403476Y-156814930D01*
X100400095Y-156836129D01*
X100394652Y-156856894D01*
X100387199Y-156877027D01*
X100377810Y-156896331D01*
X100366573Y-156914623D01*
X100353598Y-156931725D01*
X100024169Y-157324323D01*
X100009580Y-157340071D01*
X99993518Y-157354313D01*
X99976137Y-157366912D01*
X99957604Y-157377747D01*
X99938099Y-157386713D01*
X99917810Y-157393724D01*
X99896930Y-157398713D01*
X99875662Y-157401631D01*
X99854211Y-157402450D01*
X99832782Y-157401163D01*
X99811583Y-157397781D01*
X99790818Y-157392339D01*
X99770685Y-157384886D01*
X99751381Y-157375497D01*
X99733089Y-157364260D01*
X99715987Y-157351285D01*
X99380842Y-157070065D01*
X99365094Y-157055476D01*
X99350852Y-157039414D01*
X99338253Y-157022033D01*
X99327418Y-157003501D01*
X99318452Y-156983996D01*
X99311441Y-156963706D01*
X99306452Y-156942826D01*
X99303534Y-156921558D01*
X99302715Y-156900107D01*
X99304002Y-156878678D01*
X99307383Y-156857479D01*
X99312826Y-156836714D01*
X99320279Y-156816581D01*
X99329668Y-156797277D01*
X99340905Y-156778985D01*
X99353880Y-156761883D01*
X99683309Y-156369285D01*
X99697898Y-156353537D01*
X99713960Y-156339295D01*
X99731341Y-156326696D01*
X99749874Y-156315861D01*
X99769379Y-156306895D01*
X99789668Y-156299884D01*
X99810548Y-156294895D01*
X99831816Y-156291977D01*
X99853267Y-156291158D01*
X99874696Y-156292445D01*
G37*
G36*
X114958691Y-156383052D02*
G01*
X114979926Y-156386202D01*
X115000750Y-156391418D01*
X115020962Y-156398650D01*
X115040368Y-156407829D01*
X115058781Y-156418865D01*
X115076024Y-156431653D01*
X115091930Y-156446069D01*
X115106346Y-156461975D01*
X115119134Y-156479218D01*
X115130170Y-156497631D01*
X115139349Y-156517037D01*
X115146581Y-156537249D01*
X115151797Y-156558073D01*
X115154947Y-156579308D01*
X115156000Y-156600749D01*
X115156000Y-157038249D01*
X115154947Y-157059690D01*
X115151797Y-157080925D01*
X115146581Y-157101749D01*
X115139349Y-157121961D01*
X115130170Y-157141367D01*
X115119134Y-157159780D01*
X115106346Y-157177023D01*
X115091930Y-157192929D01*
X115076024Y-157207345D01*
X115058781Y-157220133D01*
X115040368Y-157231169D01*
X115020962Y-157240348D01*
X115000750Y-157247580D01*
X114979926Y-157252796D01*
X114958691Y-157255946D01*
X114937250Y-157256999D01*
X114424750Y-157256999D01*
X114403309Y-157255946D01*
X114382074Y-157252796D01*
X114361250Y-157247580D01*
X114341038Y-157240348D01*
X114321632Y-157231169D01*
X114303219Y-157220133D01*
X114285976Y-157207345D01*
X114270070Y-157192929D01*
X114255654Y-157177023D01*
X114242866Y-157159780D01*
X114231830Y-157141367D01*
X114222651Y-157121961D01*
X114215419Y-157101749D01*
X114210203Y-157080925D01*
X114207053Y-157059690D01*
X114206000Y-157038249D01*
X114206000Y-156600749D01*
X114207053Y-156579308D01*
X114210203Y-156558073D01*
X114215419Y-156537249D01*
X114222651Y-156517037D01*
X114231830Y-156497631D01*
X114242866Y-156479218D01*
X114255654Y-156461975D01*
X114270070Y-156446069D01*
X114285976Y-156431653D01*
X114303219Y-156418865D01*
X114321632Y-156407829D01*
X114341038Y-156398650D01*
X114361250Y-156391418D01*
X114382074Y-156386202D01*
X114403309Y-156383052D01*
X114424750Y-156381999D01*
X114937250Y-156381999D01*
X114958691Y-156383052D01*
G37*
G36*
X114958691Y-157958054D02*
G01*
X114979926Y-157961204D01*
X115000750Y-157966420D01*
X115020962Y-157973652D01*
X115040368Y-157982831D01*
X115058781Y-157993867D01*
X115076024Y-158006655D01*
X115091930Y-158021071D01*
X115106346Y-158036977D01*
X115119134Y-158054220D01*
X115130170Y-158072633D01*
X115139349Y-158092039D01*
X115146581Y-158112251D01*
X115151797Y-158133075D01*
X115154947Y-158154310D01*
X115156000Y-158175751D01*
X115156000Y-158613251D01*
X115154947Y-158634692D01*
X115151797Y-158655927D01*
X115146581Y-158676751D01*
X115139349Y-158696963D01*
X115130170Y-158716369D01*
X115119134Y-158734782D01*
X115106346Y-158752025D01*
X115091930Y-158767931D01*
X115076024Y-158782347D01*
X115058781Y-158795135D01*
X115040368Y-158806171D01*
X115020962Y-158815350D01*
X115000750Y-158822582D01*
X114979926Y-158827798D01*
X114958691Y-158830948D01*
X114937250Y-158832001D01*
X114424750Y-158832001D01*
X114403309Y-158830948D01*
X114382074Y-158827798D01*
X114361250Y-158822582D01*
X114341038Y-158815350D01*
X114321632Y-158806171D01*
X114303219Y-158795135D01*
X114285976Y-158782347D01*
X114270070Y-158767931D01*
X114255654Y-158752025D01*
X114242866Y-158734782D01*
X114231830Y-158716369D01*
X114222651Y-158696963D01*
X114215419Y-158676751D01*
X114210203Y-158655927D01*
X114207053Y-158634692D01*
X114206000Y-158613251D01*
X114206000Y-158175751D01*
X114207053Y-158154310D01*
X114210203Y-158133075D01*
X114215419Y-158112251D01*
X114222651Y-158092039D01*
X114231830Y-158072633D01*
X114242866Y-158054220D01*
X114255654Y-158036977D01*
X114270070Y-158021071D01*
X114285976Y-158006655D01*
X114303219Y-157993867D01*
X114321632Y-157982831D01*
X114341038Y-157973652D01*
X114361250Y-157966420D01*
X114382074Y-157961204D01*
X114403309Y-157958054D01*
X114424750Y-157957001D01*
X114937250Y-157957001D01*
X114958691Y-157958054D01*
G37*
G36*
X145405184Y-142956977D02*
G01*
X145426452Y-142959895D01*
X145447332Y-142964884D01*
X145467622Y-142971895D01*
X145487127Y-142980861D01*
X145505659Y-142991696D01*
X145523040Y-143004295D01*
X145539102Y-143018537D01*
X145553691Y-143034285D01*
X145883120Y-143426883D01*
X145896095Y-143443985D01*
X145907332Y-143462277D01*
X145916721Y-143481581D01*
X145924174Y-143501714D01*
X145929616Y-143522479D01*
X145932998Y-143543678D01*
X145934285Y-143565107D01*
X145933466Y-143586558D01*
X145930548Y-143607826D01*
X145925559Y-143628706D01*
X145918548Y-143648995D01*
X145909582Y-143668500D01*
X145898747Y-143687033D01*
X145886148Y-143704414D01*
X145871906Y-143720476D01*
X145856158Y-143735065D01*
X145521013Y-144016285D01*
X145503911Y-144029260D01*
X145485619Y-144040497D01*
X145466315Y-144049886D01*
X145446182Y-144057339D01*
X145425417Y-144062782D01*
X145404218Y-144066163D01*
X145382789Y-144067450D01*
X145361338Y-144066631D01*
X145340070Y-144063713D01*
X145319190Y-144058724D01*
X145298900Y-144051713D01*
X145279395Y-144042747D01*
X145260863Y-144031912D01*
X145243482Y-144019313D01*
X145227420Y-144005071D01*
X145212831Y-143989323D01*
X144883402Y-143596725D01*
X144870427Y-143579623D01*
X144859190Y-143561331D01*
X144849801Y-143542027D01*
X144842348Y-143521894D01*
X144836906Y-143501129D01*
X144833524Y-143479930D01*
X144832237Y-143458501D01*
X144833056Y-143437050D01*
X144835974Y-143415782D01*
X144840963Y-143394902D01*
X144847974Y-143374613D01*
X144856940Y-143355108D01*
X144867775Y-143336575D01*
X144880374Y-143319194D01*
X144894616Y-143303132D01*
X144910364Y-143288543D01*
X145245509Y-143007323D01*
X145262611Y-142994348D01*
X145280903Y-142983111D01*
X145300207Y-142973722D01*
X145320340Y-142966269D01*
X145341105Y-142960826D01*
X145362304Y-142957445D01*
X145383733Y-142956158D01*
X145405184Y-142956977D01*
G37*
G36*
X144198662Y-143969369D02*
G01*
X144219930Y-143972287D01*
X144240810Y-143977276D01*
X144261100Y-143984287D01*
X144280605Y-143993253D01*
X144299137Y-144004088D01*
X144316518Y-144016687D01*
X144332580Y-144030929D01*
X144347169Y-144046677D01*
X144676598Y-144439275D01*
X144689573Y-144456377D01*
X144700810Y-144474669D01*
X144710199Y-144493973D01*
X144717652Y-144514106D01*
X144723094Y-144534871D01*
X144726476Y-144556070D01*
X144727763Y-144577499D01*
X144726944Y-144598950D01*
X144724026Y-144620218D01*
X144719037Y-144641098D01*
X144712026Y-144661387D01*
X144703060Y-144680892D01*
X144692225Y-144699425D01*
X144679626Y-144716806D01*
X144665384Y-144732868D01*
X144649636Y-144747457D01*
X144314491Y-145028677D01*
X144297389Y-145041652D01*
X144279097Y-145052889D01*
X144259793Y-145062278D01*
X144239660Y-145069731D01*
X144218895Y-145075174D01*
X144197696Y-145078555D01*
X144176267Y-145079842D01*
X144154816Y-145079023D01*
X144133548Y-145076105D01*
X144112668Y-145071116D01*
X144092378Y-145064105D01*
X144072873Y-145055139D01*
X144054341Y-145044304D01*
X144036960Y-145031705D01*
X144020898Y-145017463D01*
X144006309Y-145001715D01*
X143676880Y-144609117D01*
X143663905Y-144592015D01*
X143652668Y-144573723D01*
X143643279Y-144554419D01*
X143635826Y-144534286D01*
X143630384Y-144513521D01*
X143627002Y-144492322D01*
X143625715Y-144470893D01*
X143626534Y-144449442D01*
X143629452Y-144428174D01*
X143634441Y-144407294D01*
X143641452Y-144387005D01*
X143650418Y-144367500D01*
X143661253Y-144348967D01*
X143673852Y-144331586D01*
X143688094Y-144315524D01*
X143703842Y-144300935D01*
X144038987Y-144019715D01*
X144056089Y-144006740D01*
X144074381Y-143995503D01*
X144093685Y-143986114D01*
X144113818Y-143978661D01*
X144134583Y-143973218D01*
X144155782Y-143969837D01*
X144177211Y-143968550D01*
X144198662Y-143969369D01*
G37*
G36*
X134707690Y-153958053D02*
G01*
X134728925Y-153961203D01*
X134749749Y-153966419D01*
X134769961Y-153973651D01*
X134789367Y-153982830D01*
X134807780Y-153993866D01*
X134825023Y-154006654D01*
X134840929Y-154021070D01*
X134855345Y-154036976D01*
X134868133Y-154054219D01*
X134879169Y-154072632D01*
X134888348Y-154092038D01*
X134895580Y-154112250D01*
X134900796Y-154133074D01*
X134903946Y-154154309D01*
X134904999Y-154175750D01*
X134904999Y-154688250D01*
X134903946Y-154709691D01*
X134900796Y-154730926D01*
X134895580Y-154751750D01*
X134888348Y-154771962D01*
X134879169Y-154791368D01*
X134868133Y-154809781D01*
X134855345Y-154827024D01*
X134840929Y-154842930D01*
X134825023Y-154857346D01*
X134807780Y-154870134D01*
X134789367Y-154881170D01*
X134769961Y-154890349D01*
X134749749Y-154897581D01*
X134728925Y-154902797D01*
X134707690Y-154905947D01*
X134686249Y-154907000D01*
X134248749Y-154907000D01*
X134227308Y-154905947D01*
X134206073Y-154902797D01*
X134185249Y-154897581D01*
X134165037Y-154890349D01*
X134145631Y-154881170D01*
X134127218Y-154870134D01*
X134109975Y-154857346D01*
X134094069Y-154842930D01*
X134079653Y-154827024D01*
X134066865Y-154809781D01*
X134055829Y-154791368D01*
X134046650Y-154771962D01*
X134039418Y-154751750D01*
X134034202Y-154730926D01*
X134031052Y-154709691D01*
X134029999Y-154688250D01*
X134029999Y-154175750D01*
X134031052Y-154154309D01*
X134034202Y-154133074D01*
X134039418Y-154112250D01*
X134046650Y-154092038D01*
X134055829Y-154072632D01*
X134066865Y-154054219D01*
X134079653Y-154036976D01*
X134094069Y-154021070D01*
X134109975Y-154006654D01*
X134127218Y-153993866D01*
X134145631Y-153982830D01*
X134165037Y-153973651D01*
X134185249Y-153966419D01*
X134206073Y-153961203D01*
X134227308Y-153958053D01*
X134248749Y-153957000D01*
X134686249Y-153957000D01*
X134707690Y-153958053D01*
G37*
G36*
X136282692Y-153958053D02*
G01*
X136303927Y-153961203D01*
X136324751Y-153966419D01*
X136344963Y-153973651D01*
X136364369Y-153982830D01*
X136382782Y-153993866D01*
X136400025Y-154006654D01*
X136415931Y-154021070D01*
X136430347Y-154036976D01*
X136443135Y-154054219D01*
X136454171Y-154072632D01*
X136463350Y-154092038D01*
X136470582Y-154112250D01*
X136475798Y-154133074D01*
X136478948Y-154154309D01*
X136480001Y-154175750D01*
X136480001Y-154688250D01*
X136478948Y-154709691D01*
X136475798Y-154730926D01*
X136470582Y-154751750D01*
X136463350Y-154771962D01*
X136454171Y-154791368D01*
X136443135Y-154809781D01*
X136430347Y-154827024D01*
X136415931Y-154842930D01*
X136400025Y-154857346D01*
X136382782Y-154870134D01*
X136364369Y-154881170D01*
X136344963Y-154890349D01*
X136324751Y-154897581D01*
X136303927Y-154902797D01*
X136282692Y-154905947D01*
X136261251Y-154907000D01*
X135823751Y-154907000D01*
X135802310Y-154905947D01*
X135781075Y-154902797D01*
X135760251Y-154897581D01*
X135740039Y-154890349D01*
X135720633Y-154881170D01*
X135702220Y-154870134D01*
X135684977Y-154857346D01*
X135669071Y-154842930D01*
X135654655Y-154827024D01*
X135641867Y-154809781D01*
X135630831Y-154791368D01*
X135621652Y-154771962D01*
X135614420Y-154751750D01*
X135609204Y-154730926D01*
X135606054Y-154709691D01*
X135605001Y-154688250D01*
X135605001Y-154175750D01*
X135606054Y-154154309D01*
X135609204Y-154133074D01*
X135614420Y-154112250D01*
X135621652Y-154092038D01*
X135630831Y-154072632D01*
X135641867Y-154054219D01*
X135654655Y-154036976D01*
X135669071Y-154021070D01*
X135684977Y-154006654D01*
X135702220Y-153993866D01*
X135720633Y-153982830D01*
X135740039Y-153973651D01*
X135760251Y-153966419D01*
X135781075Y-153961203D01*
X135802310Y-153958053D01*
X135823751Y-153957000D01*
X136261251Y-153957000D01*
X136282692Y-153958053D01*
G37*
G36*
X150519578Y-136299159D02*
G01*
X150540876Y-136301845D01*
X151045590Y-136390840D01*
X151066522Y-136395601D01*
X151086887Y-136402390D01*
X151106489Y-136411143D01*
X151125138Y-136421775D01*
X151142656Y-136434184D01*
X151158873Y-136448250D01*
X151173633Y-136463838D01*
X151186794Y-136480797D01*
X151198229Y-136498965D01*
X151207828Y-136518166D01*
X151215500Y-136538216D01*
X151221169Y-136558921D01*
X151224781Y-136580082D01*
X151226302Y-136601495D01*
X151225717Y-136622954D01*
X151223031Y-136644253D01*
X151147059Y-137075106D01*
X151142298Y-137096039D01*
X151135509Y-137116404D01*
X151126756Y-137136005D01*
X151116124Y-137154655D01*
X151103715Y-137172172D01*
X151089649Y-137188389D01*
X151074061Y-137203149D01*
X151057101Y-137216310D01*
X151038934Y-137227745D01*
X151019732Y-137237345D01*
X150999683Y-137245016D01*
X150978978Y-137250685D01*
X150957817Y-137254297D01*
X150936404Y-137255818D01*
X150914944Y-137255233D01*
X150893646Y-137252547D01*
X150388932Y-137163552D01*
X150368000Y-137158791D01*
X150347635Y-137152002D01*
X150328033Y-137143249D01*
X150309384Y-137132617D01*
X150291866Y-137120208D01*
X150275649Y-137106142D01*
X150260889Y-137090554D01*
X150247728Y-137073595D01*
X150236293Y-137055427D01*
X150226694Y-137036226D01*
X150219022Y-137016176D01*
X150213353Y-136995471D01*
X150209741Y-136974310D01*
X150208220Y-136952897D01*
X150208805Y-136931438D01*
X150211491Y-136910139D01*
X150287463Y-136479286D01*
X150292224Y-136458353D01*
X150299013Y-136437988D01*
X150307766Y-136418387D01*
X150318398Y-136399737D01*
X150330807Y-136382220D01*
X150344873Y-136366003D01*
X150360461Y-136351243D01*
X150377421Y-136338082D01*
X150395588Y-136326647D01*
X150414790Y-136317047D01*
X150434839Y-136309376D01*
X150455544Y-136303707D01*
X150476705Y-136300095D01*
X150498118Y-136298574D01*
X150519578Y-136299159D01*
G37*
G36*
X150793074Y-134748085D02*
G01*
X150814372Y-134750771D01*
X151319086Y-134839766D01*
X151340018Y-134844527D01*
X151360383Y-134851316D01*
X151379985Y-134860069D01*
X151398634Y-134870701D01*
X151416152Y-134883110D01*
X151432369Y-134897176D01*
X151447129Y-134912764D01*
X151460290Y-134929723D01*
X151471725Y-134947891D01*
X151481324Y-134967092D01*
X151488996Y-134987142D01*
X151494665Y-135007847D01*
X151498277Y-135029008D01*
X151499798Y-135050421D01*
X151499213Y-135071880D01*
X151496527Y-135093179D01*
X151420555Y-135524032D01*
X151415794Y-135544965D01*
X151409005Y-135565330D01*
X151400252Y-135584931D01*
X151389620Y-135603581D01*
X151377211Y-135621098D01*
X151363145Y-135637315D01*
X151347557Y-135652075D01*
X151330597Y-135665236D01*
X151312430Y-135676671D01*
X151293228Y-135686271D01*
X151273179Y-135693942D01*
X151252474Y-135699611D01*
X151231313Y-135703223D01*
X151209900Y-135704744D01*
X151188440Y-135704159D01*
X151167142Y-135701473D01*
X150662428Y-135612478D01*
X150641496Y-135607717D01*
X150621131Y-135600928D01*
X150601529Y-135592175D01*
X150582880Y-135581543D01*
X150565362Y-135569134D01*
X150549145Y-135555068D01*
X150534385Y-135539480D01*
X150521224Y-135522521D01*
X150509789Y-135504353D01*
X150500190Y-135485152D01*
X150492518Y-135465102D01*
X150486849Y-135444397D01*
X150483237Y-135423236D01*
X150481716Y-135401823D01*
X150482301Y-135380364D01*
X150484987Y-135359065D01*
X150560959Y-134928212D01*
X150565720Y-134907279D01*
X150572509Y-134886914D01*
X150581262Y-134867313D01*
X150591894Y-134848663D01*
X150604303Y-134831146D01*
X150618369Y-134814929D01*
X150633957Y-134800169D01*
X150650917Y-134787008D01*
X150669084Y-134775573D01*
X150688286Y-134765973D01*
X150708335Y-134758302D01*
X150729040Y-134752633D01*
X150750201Y-134749021D01*
X150771614Y-134747500D01*
X150793074Y-134748085D01*
G37*
G36*
X150113019Y-120766303D02*
G01*
X150134371Y-120768524D01*
X150155402Y-120772827D01*
X150175911Y-120779170D01*
X150587026Y-120928804D01*
X150606814Y-120937127D01*
X150625691Y-120947350D01*
X150643475Y-120959374D01*
X150659994Y-120973083D01*
X150675091Y-120988345D01*
X150688619Y-121005013D01*
X150700448Y-121022927D01*
X150710464Y-121041914D01*
X150718571Y-121061792D01*
X150724690Y-121082368D01*
X150728763Y-121103446D01*
X150730751Y-121124820D01*
X150730634Y-121146287D01*
X150728413Y-121167639D01*
X150724110Y-121188671D01*
X150717767Y-121209179D01*
X150542482Y-121690771D01*
X150534159Y-121710559D01*
X150523936Y-121729436D01*
X150511912Y-121747220D01*
X150498203Y-121763739D01*
X150482941Y-121778836D01*
X150466273Y-121792364D01*
X150448359Y-121804193D01*
X150429372Y-121814209D01*
X150409494Y-121822316D01*
X150388918Y-121828435D01*
X150367841Y-121832508D01*
X150346466Y-121834496D01*
X150324999Y-121834379D01*
X150303647Y-121832158D01*
X150282616Y-121827855D01*
X150262107Y-121821512D01*
X149850992Y-121671878D01*
X149831204Y-121663555D01*
X149812327Y-121653332D01*
X149794543Y-121641308D01*
X149778024Y-121627599D01*
X149762927Y-121612337D01*
X149749399Y-121595669D01*
X149737570Y-121577755D01*
X149727554Y-121558768D01*
X149719447Y-121538890D01*
X149713328Y-121518314D01*
X149709255Y-121497236D01*
X149707267Y-121475862D01*
X149707384Y-121454395D01*
X149709605Y-121433043D01*
X149713908Y-121412011D01*
X149720251Y-121391503D01*
X149895536Y-120909911D01*
X149903859Y-120890123D01*
X149914082Y-120871246D01*
X149926106Y-120853462D01*
X149939815Y-120836943D01*
X149955077Y-120821846D01*
X149971745Y-120808318D01*
X149989659Y-120796489D01*
X150008646Y-120786473D01*
X150028524Y-120778366D01*
X150049100Y-120772247D01*
X150070177Y-120768174D01*
X150091552Y-120766186D01*
X150113019Y-120766303D01*
G37*
G36*
X148633001Y-120227621D02*
G01*
X148654353Y-120229842D01*
X148675384Y-120234145D01*
X148695893Y-120240488D01*
X149107008Y-120390122D01*
X149126796Y-120398445D01*
X149145673Y-120408668D01*
X149163457Y-120420692D01*
X149179976Y-120434401D01*
X149195073Y-120449663D01*
X149208601Y-120466331D01*
X149220430Y-120484245D01*
X149230446Y-120503232D01*
X149238553Y-120523110D01*
X149244672Y-120543686D01*
X149248745Y-120564764D01*
X149250733Y-120586138D01*
X149250616Y-120607605D01*
X149248395Y-120628957D01*
X149244092Y-120649989D01*
X149237749Y-120670497D01*
X149062464Y-121152089D01*
X149054141Y-121171877D01*
X149043918Y-121190754D01*
X149031894Y-121208538D01*
X149018185Y-121225057D01*
X149002923Y-121240154D01*
X148986255Y-121253682D01*
X148968341Y-121265511D01*
X148949354Y-121275527D01*
X148929476Y-121283634D01*
X148908900Y-121289753D01*
X148887823Y-121293826D01*
X148866448Y-121295814D01*
X148844981Y-121295697D01*
X148823629Y-121293476D01*
X148802598Y-121289173D01*
X148782089Y-121282830D01*
X148370974Y-121133196D01*
X148351186Y-121124873D01*
X148332309Y-121114650D01*
X148314525Y-121102626D01*
X148298006Y-121088917D01*
X148282909Y-121073655D01*
X148269381Y-121056987D01*
X148257552Y-121039073D01*
X148247536Y-121020086D01*
X148239429Y-121000208D01*
X148233310Y-120979632D01*
X148229237Y-120958554D01*
X148227249Y-120937180D01*
X148227366Y-120915713D01*
X148229587Y-120894361D01*
X148233890Y-120873329D01*
X148240233Y-120852821D01*
X148415518Y-120371229D01*
X148423841Y-120351441D01*
X148434064Y-120332564D01*
X148446088Y-120314780D01*
X148459797Y-120298261D01*
X148475059Y-120283164D01*
X148491727Y-120269636D01*
X148509641Y-120257807D01*
X148528628Y-120247791D01*
X148548506Y-120239684D01*
X148569082Y-120233565D01*
X148590159Y-120229492D01*
X148611534Y-120227504D01*
X148633001Y-120227621D01*
G37*
G36*
X132853692Y-147481053D02*
G01*
X132874927Y-147484203D01*
X132895751Y-147489419D01*
X132915963Y-147496651D01*
X132935369Y-147505830D01*
X132953782Y-147516866D01*
X132971025Y-147529654D01*
X132986931Y-147544070D01*
X133001347Y-147559976D01*
X133014135Y-147577219D01*
X133025171Y-147595632D01*
X133034350Y-147615038D01*
X133041582Y-147635250D01*
X133046798Y-147656074D01*
X133049948Y-147677309D01*
X133051001Y-147698750D01*
X133051001Y-148211250D01*
X133049948Y-148232691D01*
X133046798Y-148253926D01*
X133041582Y-148274750D01*
X133034350Y-148294962D01*
X133025171Y-148314368D01*
X133014135Y-148332781D01*
X133001347Y-148350024D01*
X132986931Y-148365930D01*
X132971025Y-148380346D01*
X132953782Y-148393134D01*
X132935369Y-148404170D01*
X132915963Y-148413349D01*
X132895751Y-148420581D01*
X132874927Y-148425797D01*
X132853692Y-148428947D01*
X132832251Y-148430000D01*
X132394751Y-148430000D01*
X132373310Y-148428947D01*
X132352075Y-148425797D01*
X132331251Y-148420581D01*
X132311039Y-148413349D01*
X132291633Y-148404170D01*
X132273220Y-148393134D01*
X132255977Y-148380346D01*
X132240071Y-148365930D01*
X132225655Y-148350024D01*
X132212867Y-148332781D01*
X132201831Y-148314368D01*
X132192652Y-148294962D01*
X132185420Y-148274750D01*
X132180204Y-148253926D01*
X132177054Y-148232691D01*
X132176001Y-148211250D01*
X132176001Y-147698750D01*
X132177054Y-147677309D01*
X132180204Y-147656074D01*
X132185420Y-147635250D01*
X132192652Y-147615038D01*
X132201831Y-147595632D01*
X132212867Y-147577219D01*
X132225655Y-147559976D01*
X132240071Y-147544070D01*
X132255977Y-147529654D01*
X132273220Y-147516866D01*
X132291633Y-147505830D01*
X132311039Y-147496651D01*
X132331251Y-147489419D01*
X132352075Y-147484203D01*
X132373310Y-147481053D01*
X132394751Y-147480000D01*
X132832251Y-147480000D01*
X132853692Y-147481053D01*
G37*
G36*
X131278690Y-147481053D02*
G01*
X131299925Y-147484203D01*
X131320749Y-147489419D01*
X131340961Y-147496651D01*
X131360367Y-147505830D01*
X131378780Y-147516866D01*
X131396023Y-147529654D01*
X131411929Y-147544070D01*
X131426345Y-147559976D01*
X131439133Y-147577219D01*
X131450169Y-147595632D01*
X131459348Y-147615038D01*
X131466580Y-147635250D01*
X131471796Y-147656074D01*
X131474946Y-147677309D01*
X131475999Y-147698750D01*
X131475999Y-148211250D01*
X131474946Y-148232691D01*
X131471796Y-148253926D01*
X131466580Y-148274750D01*
X131459348Y-148294962D01*
X131450169Y-148314368D01*
X131439133Y-148332781D01*
X131426345Y-148350024D01*
X131411929Y-148365930D01*
X131396023Y-148380346D01*
X131378780Y-148393134D01*
X131360367Y-148404170D01*
X131340961Y-148413349D01*
X131320749Y-148420581D01*
X131299925Y-148425797D01*
X131278690Y-148428947D01*
X131257249Y-148430000D01*
X130819749Y-148430000D01*
X130798308Y-148428947D01*
X130777073Y-148425797D01*
X130756249Y-148420581D01*
X130736037Y-148413349D01*
X130716631Y-148404170D01*
X130698218Y-148393134D01*
X130680975Y-148380346D01*
X130665069Y-148365930D01*
X130650653Y-148350024D01*
X130637865Y-148332781D01*
X130626829Y-148314368D01*
X130617650Y-148294962D01*
X130610418Y-148274750D01*
X130605202Y-148253926D01*
X130602052Y-148232691D01*
X130600999Y-148211250D01*
X130600999Y-147698750D01*
X130602052Y-147677309D01*
X130605202Y-147656074D01*
X130610418Y-147635250D01*
X130617650Y-147615038D01*
X130626829Y-147595632D01*
X130637865Y-147577219D01*
X130650653Y-147559976D01*
X130665069Y-147544070D01*
X130680975Y-147529654D01*
X130698218Y-147516866D01*
X130716631Y-147505830D01*
X130736037Y-147496651D01*
X130756249Y-147489419D01*
X130777073Y-147484203D01*
X130798308Y-147481053D01*
X130819749Y-147480000D01*
X131257249Y-147480000D01*
X131278690Y-147481053D01*
G37*
G36*
X141153148Y-121362410D02*
G01*
X141174226Y-121366483D01*
X141194802Y-121372602D01*
X141214680Y-121380709D01*
X141233667Y-121390725D01*
X141251581Y-121402554D01*
X141268249Y-121416082D01*
X141283511Y-121431179D01*
X141297220Y-121447698D01*
X141309244Y-121465482D01*
X141319467Y-121484359D01*
X141327790Y-121504147D01*
X141503075Y-121985739D01*
X141509418Y-122006248D01*
X141513721Y-122027279D01*
X141515942Y-122048631D01*
X141516059Y-122070098D01*
X141514071Y-122091473D01*
X141509998Y-122112550D01*
X141503879Y-122133126D01*
X141495772Y-122153004D01*
X141485756Y-122171991D01*
X141473927Y-122189905D01*
X141460399Y-122206573D01*
X141445302Y-122221835D01*
X141428783Y-122235544D01*
X141410999Y-122247568D01*
X141392122Y-122257791D01*
X141372334Y-122266114D01*
X140961219Y-122415748D01*
X140940711Y-122422091D01*
X140919679Y-122426394D01*
X140898327Y-122428615D01*
X140876860Y-122428732D01*
X140855486Y-122426744D01*
X140834408Y-122422671D01*
X140813832Y-122416552D01*
X140793954Y-122408445D01*
X140774967Y-122398429D01*
X140757053Y-122386600D01*
X140740385Y-122373072D01*
X140725123Y-122357975D01*
X140711414Y-122341456D01*
X140699390Y-122323672D01*
X140689167Y-122304795D01*
X140680844Y-122285007D01*
X140505559Y-121803415D01*
X140499216Y-121782906D01*
X140494913Y-121761875D01*
X140492692Y-121740523D01*
X140492575Y-121719056D01*
X140494563Y-121697681D01*
X140498636Y-121676604D01*
X140504755Y-121656028D01*
X140512862Y-121636150D01*
X140522878Y-121617163D01*
X140534707Y-121599249D01*
X140548235Y-121582581D01*
X140563332Y-121567319D01*
X140579851Y-121553610D01*
X140597635Y-121541586D01*
X140616512Y-121531363D01*
X140636300Y-121523040D01*
X141047415Y-121373406D01*
X141067923Y-121367063D01*
X141088955Y-121362760D01*
X141110307Y-121360539D01*
X141131774Y-121360422D01*
X141153148Y-121362410D01*
G37*
G36*
X139673132Y-121901092D02*
G01*
X139694210Y-121905165D01*
X139714786Y-121911284D01*
X139734664Y-121919391D01*
X139753651Y-121929407D01*
X139771565Y-121941236D01*
X139788233Y-121954764D01*
X139803495Y-121969861D01*
X139817204Y-121986380D01*
X139829228Y-122004164D01*
X139839451Y-122023041D01*
X139847774Y-122042829D01*
X140023059Y-122524421D01*
X140029402Y-122544930D01*
X140033705Y-122565961D01*
X140035926Y-122587313D01*
X140036043Y-122608780D01*
X140034055Y-122630155D01*
X140029982Y-122651232D01*
X140023863Y-122671808D01*
X140015756Y-122691686D01*
X140005740Y-122710673D01*
X139993911Y-122728587D01*
X139980383Y-122745255D01*
X139965286Y-122760517D01*
X139948767Y-122774226D01*
X139930983Y-122786250D01*
X139912106Y-122796473D01*
X139892318Y-122804796D01*
X139481203Y-122954430D01*
X139460695Y-122960773D01*
X139439663Y-122965076D01*
X139418311Y-122967297D01*
X139396844Y-122967414D01*
X139375470Y-122965426D01*
X139354392Y-122961353D01*
X139333816Y-122955234D01*
X139313938Y-122947127D01*
X139294951Y-122937111D01*
X139277037Y-122925282D01*
X139260369Y-122911754D01*
X139245107Y-122896657D01*
X139231398Y-122880138D01*
X139219374Y-122862354D01*
X139209151Y-122843477D01*
X139200828Y-122823689D01*
X139025543Y-122342097D01*
X139019200Y-122321588D01*
X139014897Y-122300557D01*
X139012676Y-122279205D01*
X139012559Y-122257738D01*
X139014547Y-122236363D01*
X139018620Y-122215286D01*
X139024739Y-122194710D01*
X139032846Y-122174832D01*
X139042862Y-122155845D01*
X139054691Y-122137931D01*
X139068219Y-122121263D01*
X139083316Y-122106001D01*
X139099835Y-122092292D01*
X139117619Y-122080268D01*
X139136496Y-122070045D01*
X139156284Y-122061722D01*
X139567399Y-121912088D01*
X139587907Y-121905745D01*
X139608939Y-121901442D01*
X139630291Y-121899221D01*
X139651758Y-121899104D01*
X139673132Y-121901092D01*
G37*
G36*
X134432065Y-132985426D02*
G01*
X134453363Y-132988112D01*
X134958077Y-133077107D01*
X134979009Y-133081868D01*
X134999374Y-133088657D01*
X135018976Y-133097410D01*
X135037625Y-133108042D01*
X135055143Y-133120451D01*
X135071360Y-133134517D01*
X135086120Y-133150105D01*
X135099281Y-133167064D01*
X135110716Y-133185232D01*
X135120315Y-133204433D01*
X135127987Y-133224483D01*
X135133656Y-133245188D01*
X135137268Y-133266349D01*
X135138789Y-133287762D01*
X135138204Y-133309221D01*
X135135518Y-133330520D01*
X135059546Y-133761373D01*
X135054785Y-133782306D01*
X135047996Y-133802671D01*
X135039243Y-133822272D01*
X135028611Y-133840922D01*
X135016202Y-133858439D01*
X135002136Y-133874656D01*
X134986548Y-133889416D01*
X134969588Y-133902577D01*
X134951421Y-133914012D01*
X134932219Y-133923612D01*
X134912170Y-133931283D01*
X134891465Y-133936952D01*
X134870304Y-133940564D01*
X134848891Y-133942085D01*
X134827431Y-133941500D01*
X134806133Y-133938814D01*
X134301419Y-133849819D01*
X134280487Y-133845058D01*
X134260122Y-133838269D01*
X134240520Y-133829516D01*
X134221871Y-133818884D01*
X134204353Y-133806475D01*
X134188136Y-133792409D01*
X134173376Y-133776821D01*
X134160215Y-133759862D01*
X134148780Y-133741694D01*
X134139181Y-133722493D01*
X134131509Y-133702443D01*
X134125840Y-133681738D01*
X134122228Y-133660577D01*
X134120707Y-133639164D01*
X134121292Y-133617705D01*
X134123978Y-133596406D01*
X134199950Y-133165553D01*
X134204711Y-133144620D01*
X134211500Y-133124255D01*
X134220253Y-133104654D01*
X134230885Y-133086004D01*
X134243294Y-133068487D01*
X134257360Y-133052270D01*
X134272948Y-133037510D01*
X134289908Y-133024349D01*
X134308075Y-133012914D01*
X134327277Y-133003314D01*
X134347326Y-132995643D01*
X134368031Y-132989974D01*
X134389192Y-132986362D01*
X134410605Y-132984841D01*
X134432065Y-132985426D01*
G37*
G36*
X134158569Y-134536500D02*
G01*
X134179867Y-134539186D01*
X134684581Y-134628181D01*
X134705513Y-134632942D01*
X134725878Y-134639731D01*
X134745480Y-134648484D01*
X134764129Y-134659116D01*
X134781647Y-134671525D01*
X134797864Y-134685591D01*
X134812624Y-134701179D01*
X134825785Y-134718138D01*
X134837220Y-134736306D01*
X134846819Y-134755507D01*
X134854491Y-134775557D01*
X134860160Y-134796262D01*
X134863772Y-134817423D01*
X134865293Y-134838836D01*
X134864708Y-134860295D01*
X134862022Y-134881594D01*
X134786050Y-135312447D01*
X134781289Y-135333380D01*
X134774500Y-135353745D01*
X134765747Y-135373346D01*
X134755115Y-135391996D01*
X134742706Y-135409513D01*
X134728640Y-135425730D01*
X134713052Y-135440490D01*
X134696092Y-135453651D01*
X134677925Y-135465086D01*
X134658723Y-135474686D01*
X134638674Y-135482357D01*
X134617969Y-135488026D01*
X134596808Y-135491638D01*
X134575395Y-135493159D01*
X134553935Y-135492574D01*
X134532637Y-135489888D01*
X134027923Y-135400893D01*
X134006991Y-135396132D01*
X133986626Y-135389343D01*
X133967024Y-135380590D01*
X133948375Y-135369958D01*
X133930857Y-135357549D01*
X133914640Y-135343483D01*
X133899880Y-135327895D01*
X133886719Y-135310936D01*
X133875284Y-135292768D01*
X133865685Y-135273567D01*
X133858013Y-135253517D01*
X133852344Y-135232812D01*
X133848732Y-135211651D01*
X133847211Y-135190238D01*
X133847796Y-135168779D01*
X133850482Y-135147480D01*
X133926454Y-134716627D01*
X133931215Y-134695694D01*
X133938004Y-134675329D01*
X133946757Y-134655728D01*
X133957389Y-134637078D01*
X133969798Y-134619561D01*
X133983864Y-134603344D01*
X133999452Y-134588584D01*
X134016412Y-134575423D01*
X134034579Y-134563988D01*
X134053781Y-134554388D01*
X134073830Y-134546717D01*
X134094535Y-134541048D01*
X134115696Y-134537436D01*
X134137109Y-134535915D01*
X134158569Y-134536500D01*
G37*
G36*
X132476635Y-113298835D02*
G01*
X132497755Y-113302678D01*
X132518397Y-113308573D01*
X132538362Y-113316462D01*
X132557457Y-113326271D01*
X132575499Y-113337904D01*
X132592314Y-113351249D01*
X132607740Y-113366178D01*
X132621628Y-113382547D01*
X132633845Y-113400199D01*
X132644273Y-113418963D01*
X132652811Y-113438659D01*
X132659378Y-113459098D01*
X132772611Y-113881691D01*
X132777143Y-113902674D01*
X132779597Y-113924000D01*
X132779948Y-113945465D01*
X132778194Y-113966860D01*
X132774351Y-113987980D01*
X132768456Y-114008622D01*
X132760566Y-114028587D01*
X132750758Y-114047682D01*
X132739125Y-114065724D01*
X132725780Y-114082539D01*
X132710851Y-114097965D01*
X132694481Y-114111853D01*
X132676830Y-114124070D01*
X132658065Y-114134498D01*
X132638369Y-114143036D01*
X132617932Y-114149603D01*
X132122895Y-114282248D01*
X132101911Y-114286780D01*
X132080585Y-114289234D01*
X132059121Y-114289585D01*
X132037725Y-114287831D01*
X132016605Y-114283988D01*
X131995963Y-114278093D01*
X131975998Y-114270204D01*
X131956903Y-114260395D01*
X131938861Y-114248762D01*
X131922046Y-114235417D01*
X131906620Y-114220488D01*
X131892732Y-114204119D01*
X131880515Y-114186467D01*
X131870087Y-114167703D01*
X131861549Y-114148007D01*
X131854982Y-114127568D01*
X131741749Y-113704975D01*
X131737217Y-113683992D01*
X131734763Y-113662666D01*
X131734412Y-113641201D01*
X131736166Y-113619806D01*
X131740009Y-113598686D01*
X131745904Y-113578044D01*
X131753794Y-113558079D01*
X131763602Y-113538984D01*
X131775235Y-113520942D01*
X131788580Y-113504127D01*
X131803509Y-113488701D01*
X131819879Y-113474813D01*
X131837530Y-113462596D01*
X131856295Y-113452168D01*
X131875991Y-113443630D01*
X131896428Y-113437063D01*
X132391465Y-113304418D01*
X132412449Y-113299886D01*
X132433775Y-113297432D01*
X132455239Y-113297081D01*
X132476635Y-113298835D01*
G37*
G36*
X132884275Y-114820169D02*
G01*
X132905395Y-114824012D01*
X132926037Y-114829907D01*
X132946002Y-114837796D01*
X132965097Y-114847605D01*
X132983139Y-114859238D01*
X132999954Y-114872583D01*
X133015380Y-114887512D01*
X133029268Y-114903881D01*
X133041485Y-114921533D01*
X133051913Y-114940297D01*
X133060451Y-114959993D01*
X133067018Y-114980432D01*
X133180251Y-115403025D01*
X133184783Y-115424008D01*
X133187237Y-115445334D01*
X133187588Y-115466799D01*
X133185834Y-115488194D01*
X133181991Y-115509314D01*
X133176096Y-115529956D01*
X133168206Y-115549921D01*
X133158398Y-115569016D01*
X133146765Y-115587058D01*
X133133420Y-115603873D01*
X133118491Y-115619299D01*
X133102121Y-115633187D01*
X133084470Y-115645404D01*
X133065705Y-115655832D01*
X133046009Y-115664370D01*
X133025572Y-115670937D01*
X132530535Y-115803582D01*
X132509551Y-115808114D01*
X132488225Y-115810568D01*
X132466761Y-115810919D01*
X132445365Y-115809165D01*
X132424245Y-115805322D01*
X132403603Y-115799427D01*
X132383638Y-115791538D01*
X132364543Y-115781729D01*
X132346501Y-115770096D01*
X132329686Y-115756751D01*
X132314260Y-115741822D01*
X132300372Y-115725453D01*
X132288155Y-115707801D01*
X132277727Y-115689037D01*
X132269189Y-115669341D01*
X132262622Y-115648902D01*
X132149389Y-115226309D01*
X132144857Y-115205326D01*
X132142403Y-115184000D01*
X132142052Y-115162535D01*
X132143806Y-115141140D01*
X132147649Y-115120020D01*
X132153544Y-115099378D01*
X132161434Y-115079413D01*
X132171242Y-115060318D01*
X132182875Y-115042276D01*
X132196220Y-115025461D01*
X132211149Y-115010035D01*
X132227519Y-114996147D01*
X132245170Y-114983930D01*
X132263935Y-114973502D01*
X132283631Y-114964964D01*
X132304068Y-114958397D01*
X132799105Y-114825752D01*
X132820089Y-114821220D01*
X132841415Y-114818766D01*
X132862879Y-114818415D01*
X132884275Y-114820169D01*
G37*
G36*
X122959691Y-154351052D02*
G01*
X122980926Y-154354202D01*
X123001750Y-154359418D01*
X123021962Y-154366650D01*
X123041368Y-154375829D01*
X123059781Y-154386865D01*
X123077024Y-154399653D01*
X123092930Y-154414069D01*
X123107346Y-154429975D01*
X123120134Y-154447218D01*
X123131170Y-154465631D01*
X123140349Y-154485037D01*
X123147581Y-154505249D01*
X123152797Y-154526073D01*
X123155947Y-154547308D01*
X123157000Y-154568749D01*
X123157000Y-155006249D01*
X123155947Y-155027690D01*
X123152797Y-155048925D01*
X123147581Y-155069749D01*
X123140349Y-155089961D01*
X123131170Y-155109367D01*
X123120134Y-155127780D01*
X123107346Y-155145023D01*
X123092930Y-155160929D01*
X123077024Y-155175345D01*
X123059781Y-155188133D01*
X123041368Y-155199169D01*
X123021962Y-155208348D01*
X123001750Y-155215580D01*
X122980926Y-155220796D01*
X122959691Y-155223946D01*
X122938250Y-155224999D01*
X122425750Y-155224999D01*
X122404309Y-155223946D01*
X122383074Y-155220796D01*
X122362250Y-155215580D01*
X122342038Y-155208348D01*
X122322632Y-155199169D01*
X122304219Y-155188133D01*
X122286976Y-155175345D01*
X122271070Y-155160929D01*
X122256654Y-155145023D01*
X122243866Y-155127780D01*
X122232830Y-155109367D01*
X122223651Y-155089961D01*
X122216419Y-155069749D01*
X122211203Y-155048925D01*
X122208053Y-155027690D01*
X122207000Y-155006249D01*
X122207000Y-154568749D01*
X122208053Y-154547308D01*
X122211203Y-154526073D01*
X122216419Y-154505249D01*
X122223651Y-154485037D01*
X122232830Y-154465631D01*
X122243866Y-154447218D01*
X122256654Y-154429975D01*
X122271070Y-154414069D01*
X122286976Y-154399653D01*
X122304219Y-154386865D01*
X122322632Y-154375829D01*
X122342038Y-154366650D01*
X122362250Y-154359418D01*
X122383074Y-154354202D01*
X122404309Y-154351052D01*
X122425750Y-154349999D01*
X122938250Y-154349999D01*
X122959691Y-154351052D01*
G37*
G36*
X122959691Y-155926054D02*
G01*
X122980926Y-155929204D01*
X123001750Y-155934420D01*
X123021962Y-155941652D01*
X123041368Y-155950831D01*
X123059781Y-155961867D01*
X123077024Y-155974655D01*
X123092930Y-155989071D01*
X123107346Y-156004977D01*
X123120134Y-156022220D01*
X123131170Y-156040633D01*
X123140349Y-156060039D01*
X123147581Y-156080251D01*
X123152797Y-156101075D01*
X123155947Y-156122310D01*
X123157000Y-156143751D01*
X123157000Y-156581251D01*
X123155947Y-156602692D01*
X123152797Y-156623927D01*
X123147581Y-156644751D01*
X123140349Y-156664963D01*
X123131170Y-156684369D01*
X123120134Y-156702782D01*
X123107346Y-156720025D01*
X123092930Y-156735931D01*
X123077024Y-156750347D01*
X123059781Y-156763135D01*
X123041368Y-156774171D01*
X123021962Y-156783350D01*
X123001750Y-156790582D01*
X122980926Y-156795798D01*
X122959691Y-156798948D01*
X122938250Y-156800001D01*
X122425750Y-156800001D01*
X122404309Y-156798948D01*
X122383074Y-156795798D01*
X122362250Y-156790582D01*
X122342038Y-156783350D01*
X122322632Y-156774171D01*
X122304219Y-156763135D01*
X122286976Y-156750347D01*
X122271070Y-156735931D01*
X122256654Y-156720025D01*
X122243866Y-156702782D01*
X122232830Y-156684369D01*
X122223651Y-156664963D01*
X122216419Y-156644751D01*
X122211203Y-156623927D01*
X122208053Y-156602692D01*
X122207000Y-156581251D01*
X122207000Y-156143751D01*
X122208053Y-156122310D01*
X122211203Y-156101075D01*
X122216419Y-156080251D01*
X122223651Y-156060039D01*
X122232830Y-156040633D01*
X122243866Y-156022220D01*
X122256654Y-156004977D01*
X122271070Y-155989071D01*
X122286976Y-155974655D01*
X122304219Y-155961867D01*
X122322632Y-155950831D01*
X122342038Y-155941652D01*
X122362250Y-155934420D01*
X122383074Y-155929204D01*
X122404309Y-155926054D01*
X122425750Y-155925001D01*
X122938250Y-155925001D01*
X122959691Y-155926054D01*
G37*
G36*
X130102555Y-87015238D02*
G01*
X130123632Y-87019311D01*
X130144208Y-87025430D01*
X130164086Y-87033537D01*
X130183073Y-87043553D01*
X130200987Y-87055382D01*
X130217655Y-87068910D01*
X130232917Y-87084007D01*
X130246626Y-87100526D01*
X130258650Y-87118310D01*
X130268873Y-87137187D01*
X130277196Y-87156975D01*
X130426830Y-87568090D01*
X130433173Y-87588598D01*
X130437476Y-87609630D01*
X130439697Y-87630982D01*
X130439814Y-87652449D01*
X130437826Y-87673823D01*
X130433753Y-87694901D01*
X130427634Y-87715477D01*
X130419527Y-87735355D01*
X130409511Y-87754342D01*
X130397682Y-87772256D01*
X130384154Y-87788924D01*
X130369057Y-87804186D01*
X130352538Y-87817895D01*
X130334754Y-87829919D01*
X130315877Y-87840142D01*
X130296089Y-87848465D01*
X129814497Y-88023750D01*
X129793988Y-88030093D01*
X129772957Y-88034396D01*
X129751605Y-88036617D01*
X129730138Y-88036734D01*
X129708763Y-88034746D01*
X129687686Y-88030673D01*
X129667110Y-88024554D01*
X129647232Y-88016447D01*
X129628245Y-88006431D01*
X129610331Y-87994602D01*
X129593663Y-87981074D01*
X129578401Y-87965977D01*
X129564692Y-87949458D01*
X129552668Y-87931674D01*
X129542445Y-87912797D01*
X129534122Y-87893009D01*
X129384488Y-87481894D01*
X129378145Y-87461386D01*
X129373842Y-87440354D01*
X129371621Y-87419002D01*
X129371504Y-87397535D01*
X129373492Y-87376161D01*
X129377565Y-87355083D01*
X129383684Y-87334507D01*
X129391791Y-87314629D01*
X129401807Y-87295642D01*
X129413636Y-87277728D01*
X129427164Y-87261060D01*
X129442261Y-87245798D01*
X129458780Y-87232089D01*
X129476564Y-87220065D01*
X129495441Y-87209842D01*
X129515229Y-87201519D01*
X129996821Y-87026234D01*
X130017330Y-87019891D01*
X130038361Y-87015588D01*
X130059713Y-87013367D01*
X130081180Y-87013250D01*
X130102555Y-87015238D01*
G37*
G36*
X130641237Y-88495254D02*
G01*
X130662314Y-88499327D01*
X130682890Y-88505446D01*
X130702768Y-88513553D01*
X130721755Y-88523569D01*
X130739669Y-88535398D01*
X130756337Y-88548926D01*
X130771599Y-88564023D01*
X130785308Y-88580542D01*
X130797332Y-88598326D01*
X130807555Y-88617203D01*
X130815878Y-88636991D01*
X130965512Y-89048106D01*
X130971855Y-89068614D01*
X130976158Y-89089646D01*
X130978379Y-89110998D01*
X130978496Y-89132465D01*
X130976508Y-89153839D01*
X130972435Y-89174917D01*
X130966316Y-89195493D01*
X130958209Y-89215371D01*
X130948193Y-89234358D01*
X130936364Y-89252272D01*
X130922836Y-89268940D01*
X130907739Y-89284202D01*
X130891220Y-89297911D01*
X130873436Y-89309935D01*
X130854559Y-89320158D01*
X130834771Y-89328481D01*
X130353179Y-89503766D01*
X130332670Y-89510109D01*
X130311639Y-89514412D01*
X130290287Y-89516633D01*
X130268820Y-89516750D01*
X130247445Y-89514762D01*
X130226368Y-89510689D01*
X130205792Y-89504570D01*
X130185914Y-89496463D01*
X130166927Y-89486447D01*
X130149013Y-89474618D01*
X130132345Y-89461090D01*
X130117083Y-89445993D01*
X130103374Y-89429474D01*
X130091350Y-89411690D01*
X130081127Y-89392813D01*
X130072804Y-89373025D01*
X129923170Y-88961910D01*
X129916827Y-88941402D01*
X129912524Y-88920370D01*
X129910303Y-88899018D01*
X129910186Y-88877551D01*
X129912174Y-88856177D01*
X129916247Y-88835099D01*
X129922366Y-88814523D01*
X129930473Y-88794645D01*
X129940489Y-88775658D01*
X129952318Y-88757744D01*
X129965846Y-88741076D01*
X129980943Y-88725814D01*
X129997462Y-88712105D01*
X130015246Y-88700081D01*
X130034123Y-88689858D01*
X130053911Y-88681535D01*
X130535503Y-88506250D01*
X130556012Y-88499907D01*
X130577043Y-88495604D01*
X130598395Y-88493383D01*
X130619862Y-88493266D01*
X130641237Y-88495254D01*
G37*
G36*
X138707691Y-78024053D02*
G01*
X138728926Y-78027203D01*
X138749750Y-78032419D01*
X138769962Y-78039651D01*
X138789368Y-78048830D01*
X138807781Y-78059866D01*
X138825024Y-78072654D01*
X138840930Y-78087070D01*
X138855346Y-78102976D01*
X138868134Y-78120219D01*
X138879170Y-78138632D01*
X138888349Y-78158038D01*
X138895581Y-78178250D01*
X138900797Y-78199074D01*
X138903947Y-78220309D01*
X138905000Y-78241750D01*
X138905000Y-78679250D01*
X138903947Y-78700691D01*
X138900797Y-78721926D01*
X138895581Y-78742750D01*
X138888349Y-78762962D01*
X138879170Y-78782368D01*
X138868134Y-78800781D01*
X138855346Y-78818024D01*
X138840930Y-78833930D01*
X138825024Y-78848346D01*
X138807781Y-78861134D01*
X138789368Y-78872170D01*
X138769962Y-78881349D01*
X138749750Y-78888581D01*
X138728926Y-78893797D01*
X138707691Y-78896947D01*
X138686250Y-78898000D01*
X138173750Y-78898000D01*
X138152309Y-78896947D01*
X138131074Y-78893797D01*
X138110250Y-78888581D01*
X138090038Y-78881349D01*
X138070632Y-78872170D01*
X138052219Y-78861134D01*
X138034976Y-78848346D01*
X138019070Y-78833930D01*
X138004654Y-78818024D01*
X137991866Y-78800781D01*
X137980830Y-78782368D01*
X137971651Y-78762962D01*
X137964419Y-78742750D01*
X137959203Y-78721926D01*
X137956053Y-78700691D01*
X137955000Y-78679250D01*
X137955000Y-78241750D01*
X137956053Y-78220309D01*
X137959203Y-78199074D01*
X137964419Y-78178250D01*
X137971651Y-78158038D01*
X137980830Y-78138632D01*
X137991866Y-78120219D01*
X138004654Y-78102976D01*
X138019070Y-78087070D01*
X138034976Y-78072654D01*
X138052219Y-78059866D01*
X138070632Y-78048830D01*
X138090038Y-78039651D01*
X138110250Y-78032419D01*
X138131074Y-78027203D01*
X138152309Y-78024053D01*
X138173750Y-78023000D01*
X138686250Y-78023000D01*
X138707691Y-78024053D01*
G37*
G36*
X138707691Y-79599053D02*
G01*
X138728926Y-79602203D01*
X138749750Y-79607419D01*
X138769962Y-79614651D01*
X138789368Y-79623830D01*
X138807781Y-79634866D01*
X138825024Y-79647654D01*
X138840930Y-79662070D01*
X138855346Y-79677976D01*
X138868134Y-79695219D01*
X138879170Y-79713632D01*
X138888349Y-79733038D01*
X138895581Y-79753250D01*
X138900797Y-79774074D01*
X138903947Y-79795309D01*
X138905000Y-79816750D01*
X138905000Y-80254250D01*
X138903947Y-80275691D01*
X138900797Y-80296926D01*
X138895581Y-80317750D01*
X138888349Y-80337962D01*
X138879170Y-80357368D01*
X138868134Y-80375781D01*
X138855346Y-80393024D01*
X138840930Y-80408930D01*
X138825024Y-80423346D01*
X138807781Y-80436134D01*
X138789368Y-80447170D01*
X138769962Y-80456349D01*
X138749750Y-80463581D01*
X138728926Y-80468797D01*
X138707691Y-80471947D01*
X138686250Y-80473000D01*
X138173750Y-80473000D01*
X138152309Y-80471947D01*
X138131074Y-80468797D01*
X138110250Y-80463581D01*
X138090038Y-80456349D01*
X138070632Y-80447170D01*
X138052219Y-80436134D01*
X138034976Y-80423346D01*
X138019070Y-80408930D01*
X138004654Y-80393024D01*
X137991866Y-80375781D01*
X137980830Y-80357368D01*
X137971651Y-80337962D01*
X137964419Y-80317750D01*
X137959203Y-80296926D01*
X137956053Y-80275691D01*
X137955000Y-80254250D01*
X137955000Y-79816750D01*
X137956053Y-79795309D01*
X137959203Y-79774074D01*
X137964419Y-79753250D01*
X137971651Y-79733038D01*
X137980830Y-79713632D01*
X137991866Y-79695219D01*
X138004654Y-79677976D01*
X138019070Y-79662070D01*
X138034976Y-79647654D01*
X138052219Y-79634866D01*
X138070632Y-79623830D01*
X138090038Y-79614651D01*
X138110250Y-79607419D01*
X138131074Y-79602203D01*
X138152309Y-79599053D01*
X138173750Y-79598000D01*
X138686250Y-79598000D01*
X138707691Y-79599053D01*
G37*
G36*
X135889111Y-66326580D02*
G01*
X135910346Y-66329730D01*
X135931170Y-66334946D01*
X135951382Y-66342178D01*
X135970788Y-66351357D01*
X135989201Y-66362393D01*
X136006444Y-66375181D01*
X136022350Y-66389597D01*
X136331709Y-66698956D01*
X136346125Y-66714862D01*
X136358913Y-66732105D01*
X136369949Y-66750518D01*
X136379128Y-66769924D01*
X136386360Y-66790136D01*
X136391576Y-66810960D01*
X136394726Y-66832195D01*
X136395779Y-66853636D01*
X136394726Y-66875077D01*
X136391576Y-66896312D01*
X136386360Y-66917136D01*
X136379128Y-66937348D01*
X136369949Y-66956754D01*
X136358913Y-66975167D01*
X136346125Y-66992410D01*
X136331709Y-67008316D01*
X135969316Y-67370709D01*
X135953410Y-67385125D01*
X135936167Y-67397913D01*
X135917754Y-67408949D01*
X135898348Y-67418128D01*
X135878136Y-67425360D01*
X135857312Y-67430576D01*
X135836077Y-67433726D01*
X135814636Y-67434779D01*
X135793195Y-67433726D01*
X135771960Y-67430576D01*
X135751136Y-67425360D01*
X135730924Y-67418128D01*
X135711518Y-67408949D01*
X135693105Y-67397913D01*
X135675862Y-67385125D01*
X135659956Y-67370709D01*
X135350597Y-67061350D01*
X135336181Y-67045444D01*
X135323393Y-67028201D01*
X135312357Y-67009788D01*
X135303178Y-66990382D01*
X135295946Y-66970170D01*
X135290730Y-66949346D01*
X135287580Y-66928111D01*
X135286527Y-66906670D01*
X135287580Y-66885229D01*
X135290730Y-66863994D01*
X135295946Y-66843170D01*
X135303178Y-66822958D01*
X135312357Y-66803552D01*
X135323393Y-66785139D01*
X135336181Y-66767896D01*
X135350597Y-66751990D01*
X135712990Y-66389597D01*
X135728896Y-66375181D01*
X135746139Y-66362393D01*
X135764552Y-66351357D01*
X135783958Y-66342178D01*
X135804170Y-66334946D01*
X135824994Y-66329730D01*
X135846229Y-66326580D01*
X135867670Y-66325527D01*
X135889111Y-66326580D01*
G37*
G36*
X137002805Y-67440274D02*
G01*
X137024040Y-67443424D01*
X137044864Y-67448640D01*
X137065076Y-67455872D01*
X137084482Y-67465051D01*
X137102895Y-67476087D01*
X137120138Y-67488875D01*
X137136044Y-67503291D01*
X137445403Y-67812650D01*
X137459819Y-67828556D01*
X137472607Y-67845799D01*
X137483643Y-67864212D01*
X137492822Y-67883618D01*
X137500054Y-67903830D01*
X137505270Y-67924654D01*
X137508420Y-67945889D01*
X137509473Y-67967330D01*
X137508420Y-67988771D01*
X137505270Y-68010006D01*
X137500054Y-68030830D01*
X137492822Y-68051042D01*
X137483643Y-68070448D01*
X137472607Y-68088861D01*
X137459819Y-68106104D01*
X137445403Y-68122010D01*
X137083010Y-68484403D01*
X137067104Y-68498819D01*
X137049861Y-68511607D01*
X137031448Y-68522643D01*
X137012042Y-68531822D01*
X136991830Y-68539054D01*
X136971006Y-68544270D01*
X136949771Y-68547420D01*
X136928330Y-68548473D01*
X136906889Y-68547420D01*
X136885654Y-68544270D01*
X136864830Y-68539054D01*
X136844618Y-68531822D01*
X136825212Y-68522643D01*
X136806799Y-68511607D01*
X136789556Y-68498819D01*
X136773650Y-68484403D01*
X136464291Y-68175044D01*
X136449875Y-68159138D01*
X136437087Y-68141895D01*
X136426051Y-68123482D01*
X136416872Y-68104076D01*
X136409640Y-68083864D01*
X136404424Y-68063040D01*
X136401274Y-68041805D01*
X136400221Y-68020364D01*
X136401274Y-67998923D01*
X136404424Y-67977688D01*
X136409640Y-67956864D01*
X136416872Y-67936652D01*
X136426051Y-67917246D01*
X136437087Y-67898833D01*
X136449875Y-67881590D01*
X136464291Y-67865684D01*
X136826684Y-67503291D01*
X136842590Y-67488875D01*
X136859833Y-67476087D01*
X136878246Y-67465051D01*
X136897652Y-67455872D01*
X136917864Y-67448640D01*
X136938688Y-67443424D01*
X136959923Y-67440274D01*
X136981364Y-67439221D01*
X137002805Y-67440274D01*
G37*
G36*
X146442691Y-54898053D02*
G01*
X146463926Y-54901203D01*
X146484750Y-54906419D01*
X146504962Y-54913651D01*
X146524368Y-54922830D01*
X146542781Y-54933866D01*
X146560024Y-54946654D01*
X146575930Y-54961070D01*
X146590346Y-54976976D01*
X146603134Y-54994219D01*
X146614170Y-55012632D01*
X146623349Y-55032038D01*
X146630581Y-55052250D01*
X146635797Y-55073074D01*
X146638947Y-55094309D01*
X146640000Y-55115750D01*
X146640000Y-55628250D01*
X146638947Y-55649691D01*
X146635797Y-55670926D01*
X146630581Y-55691750D01*
X146623349Y-55711962D01*
X146614170Y-55731368D01*
X146603134Y-55749781D01*
X146590346Y-55767024D01*
X146575930Y-55782930D01*
X146560024Y-55797346D01*
X146542781Y-55810134D01*
X146524368Y-55821170D01*
X146504962Y-55830349D01*
X146484750Y-55837581D01*
X146463926Y-55842797D01*
X146442691Y-55845947D01*
X146421250Y-55847000D01*
X145983750Y-55847000D01*
X145962309Y-55845947D01*
X145941074Y-55842797D01*
X145920250Y-55837581D01*
X145900038Y-55830349D01*
X145880632Y-55821170D01*
X145862219Y-55810134D01*
X145844976Y-55797346D01*
X145829070Y-55782930D01*
X145814654Y-55767024D01*
X145801866Y-55749781D01*
X145790830Y-55731368D01*
X145781651Y-55711962D01*
X145774419Y-55691750D01*
X145769203Y-55670926D01*
X145766053Y-55649691D01*
X145765000Y-55628250D01*
X145765000Y-55115750D01*
X145766053Y-55094309D01*
X145769203Y-55073074D01*
X145774419Y-55052250D01*
X145781651Y-55032038D01*
X145790830Y-55012632D01*
X145801866Y-54994219D01*
X145814654Y-54976976D01*
X145829070Y-54961070D01*
X145844976Y-54946654D01*
X145862219Y-54933866D01*
X145880632Y-54922830D01*
X145900038Y-54913651D01*
X145920250Y-54906419D01*
X145941074Y-54901203D01*
X145962309Y-54898053D01*
X145983750Y-54897000D01*
X146421250Y-54897000D01*
X146442691Y-54898053D01*
G37*
G36*
X144867691Y-54898053D02*
G01*
X144888926Y-54901203D01*
X144909750Y-54906419D01*
X144929962Y-54913651D01*
X144949368Y-54922830D01*
X144967781Y-54933866D01*
X144985024Y-54946654D01*
X145000930Y-54961070D01*
X145015346Y-54976976D01*
X145028134Y-54994219D01*
X145039170Y-55012632D01*
X145048349Y-55032038D01*
X145055581Y-55052250D01*
X145060797Y-55073074D01*
X145063947Y-55094309D01*
X145065000Y-55115750D01*
X145065000Y-55628250D01*
X145063947Y-55649691D01*
X145060797Y-55670926D01*
X145055581Y-55691750D01*
X145048349Y-55711962D01*
X145039170Y-55731368D01*
X145028134Y-55749781D01*
X145015346Y-55767024D01*
X145000930Y-55782930D01*
X144985024Y-55797346D01*
X144967781Y-55810134D01*
X144949368Y-55821170D01*
X144929962Y-55830349D01*
X144909750Y-55837581D01*
X144888926Y-55842797D01*
X144867691Y-55845947D01*
X144846250Y-55847000D01*
X144408750Y-55847000D01*
X144387309Y-55845947D01*
X144366074Y-55842797D01*
X144345250Y-55837581D01*
X144325038Y-55830349D01*
X144305632Y-55821170D01*
X144287219Y-55810134D01*
X144269976Y-55797346D01*
X144254070Y-55782930D01*
X144239654Y-55767024D01*
X144226866Y-55749781D01*
X144215830Y-55731368D01*
X144206651Y-55711962D01*
X144199419Y-55691750D01*
X144194203Y-55670926D01*
X144191053Y-55649691D01*
X144190000Y-55628250D01*
X144190000Y-55115750D01*
X144191053Y-55094309D01*
X144194203Y-55073074D01*
X144199419Y-55052250D01*
X144206651Y-55032038D01*
X144215830Y-55012632D01*
X144226866Y-54994219D01*
X144239654Y-54976976D01*
X144254070Y-54961070D01*
X144269976Y-54946654D01*
X144287219Y-54933866D01*
X144305632Y-54922830D01*
X144325038Y-54913651D01*
X144345250Y-54906419D01*
X144366074Y-54901203D01*
X144387309Y-54898053D01*
X144408750Y-54897000D01*
X144846250Y-54897000D01*
X144867691Y-54898053D01*
G37*
G36*
X151624294Y-46872292D02*
G01*
X151645593Y-46874978D01*
X152076446Y-46950950D01*
X152097379Y-46955711D01*
X152117744Y-46962500D01*
X152137345Y-46971253D01*
X152155995Y-46981885D01*
X152173512Y-46994294D01*
X152189729Y-47008360D01*
X152204489Y-47023948D01*
X152217650Y-47040908D01*
X152229085Y-47059075D01*
X152238685Y-47078277D01*
X152246356Y-47098326D01*
X152252025Y-47119031D01*
X152255637Y-47140192D01*
X152257158Y-47161605D01*
X152256573Y-47183065D01*
X152253887Y-47204363D01*
X152164892Y-47709077D01*
X152160131Y-47730009D01*
X152153342Y-47750374D01*
X152144589Y-47769976D01*
X152133957Y-47788625D01*
X152121548Y-47806143D01*
X152107482Y-47822360D01*
X152091894Y-47837120D01*
X152074935Y-47850281D01*
X152056767Y-47861716D01*
X152037566Y-47871315D01*
X152017516Y-47878987D01*
X151996811Y-47884656D01*
X151975650Y-47888268D01*
X151954237Y-47889789D01*
X151932778Y-47889204D01*
X151911479Y-47886518D01*
X151480626Y-47810546D01*
X151459693Y-47805785D01*
X151439328Y-47798996D01*
X151419727Y-47790243D01*
X151401077Y-47779611D01*
X151383560Y-47767202D01*
X151367343Y-47753136D01*
X151352583Y-47737548D01*
X151339422Y-47720588D01*
X151327987Y-47702421D01*
X151318387Y-47683219D01*
X151310716Y-47663170D01*
X151305047Y-47642465D01*
X151301435Y-47621304D01*
X151299914Y-47599891D01*
X151300499Y-47578431D01*
X151303185Y-47557133D01*
X151392180Y-47052419D01*
X151396941Y-47031487D01*
X151403730Y-47011122D01*
X151412483Y-46991520D01*
X151423115Y-46972871D01*
X151435524Y-46955353D01*
X151449590Y-46939136D01*
X151465178Y-46924376D01*
X151482137Y-46911215D01*
X151500305Y-46899780D01*
X151519506Y-46890181D01*
X151539556Y-46882509D01*
X151560261Y-46876840D01*
X151581422Y-46873228D01*
X151602835Y-46871707D01*
X151624294Y-46872292D01*
G37*
G36*
X150073222Y-46598796D02*
G01*
X150094521Y-46601482D01*
X150525374Y-46677454D01*
X150546307Y-46682215D01*
X150566672Y-46689004D01*
X150586273Y-46697757D01*
X150604923Y-46708389D01*
X150622440Y-46720798D01*
X150638657Y-46734864D01*
X150653417Y-46750452D01*
X150666578Y-46767412D01*
X150678013Y-46785579D01*
X150687613Y-46804781D01*
X150695284Y-46824830D01*
X150700953Y-46845535D01*
X150704565Y-46866696D01*
X150706086Y-46888109D01*
X150705501Y-46909569D01*
X150702815Y-46930867D01*
X150613820Y-47435581D01*
X150609059Y-47456513D01*
X150602270Y-47476878D01*
X150593517Y-47496480D01*
X150582885Y-47515129D01*
X150570476Y-47532647D01*
X150556410Y-47548864D01*
X150540822Y-47563624D01*
X150523863Y-47576785D01*
X150505695Y-47588220D01*
X150486494Y-47597819D01*
X150466444Y-47605491D01*
X150445739Y-47611160D01*
X150424578Y-47614772D01*
X150403165Y-47616293D01*
X150381706Y-47615708D01*
X150360407Y-47613022D01*
X149929554Y-47537050D01*
X149908621Y-47532289D01*
X149888256Y-47525500D01*
X149868655Y-47516747D01*
X149850005Y-47506115D01*
X149832488Y-47493706D01*
X149816271Y-47479640D01*
X149801511Y-47464052D01*
X149788350Y-47447092D01*
X149776915Y-47428925D01*
X149767315Y-47409723D01*
X149759644Y-47389674D01*
X149753975Y-47368969D01*
X149750363Y-47347808D01*
X149748842Y-47326395D01*
X149749427Y-47304935D01*
X149752113Y-47283637D01*
X149841108Y-46778923D01*
X149845869Y-46757991D01*
X149852658Y-46737626D01*
X149861411Y-46718024D01*
X149872043Y-46699375D01*
X149884452Y-46681857D01*
X149898518Y-46665640D01*
X149914106Y-46650880D01*
X149931065Y-46637719D01*
X149949233Y-46626284D01*
X149968434Y-46616685D01*
X149988484Y-46609013D01*
X150009189Y-46603344D01*
X150030350Y-46599732D01*
X150051763Y-46598211D01*
X150073222Y-46598796D01*
G37*
G36*
X154189691Y-33054053D02*
G01*
X154210926Y-33057203D01*
X154231750Y-33062419D01*
X154251962Y-33069651D01*
X154271368Y-33078830D01*
X154289781Y-33089866D01*
X154307024Y-33102654D01*
X154322930Y-33117070D01*
X154337346Y-33132976D01*
X154350134Y-33150219D01*
X154361170Y-33168632D01*
X154370349Y-33188038D01*
X154377581Y-33208250D01*
X154382797Y-33229074D01*
X154385947Y-33250309D01*
X154387000Y-33271750D01*
X154387000Y-33784250D01*
X154385947Y-33805691D01*
X154382797Y-33826926D01*
X154377581Y-33847750D01*
X154370349Y-33867962D01*
X154361170Y-33887368D01*
X154350134Y-33905781D01*
X154337346Y-33923024D01*
X154322930Y-33938930D01*
X154307024Y-33953346D01*
X154289781Y-33966134D01*
X154271368Y-33977170D01*
X154251962Y-33986349D01*
X154231750Y-33993581D01*
X154210926Y-33998797D01*
X154189691Y-34001947D01*
X154168250Y-34003000D01*
X153730750Y-34003000D01*
X153709309Y-34001947D01*
X153688074Y-33998797D01*
X153667250Y-33993581D01*
X153647038Y-33986349D01*
X153627632Y-33977170D01*
X153609219Y-33966134D01*
X153591976Y-33953346D01*
X153576070Y-33938930D01*
X153561654Y-33923024D01*
X153548866Y-33905781D01*
X153537830Y-33887368D01*
X153528651Y-33867962D01*
X153521419Y-33847750D01*
X153516203Y-33826926D01*
X153513053Y-33805691D01*
X153512000Y-33784250D01*
X153512000Y-33271750D01*
X153513053Y-33250309D01*
X153516203Y-33229074D01*
X153521419Y-33208250D01*
X153528651Y-33188038D01*
X153537830Y-33168632D01*
X153548866Y-33150219D01*
X153561654Y-33132976D01*
X153576070Y-33117070D01*
X153591976Y-33102654D01*
X153609219Y-33089866D01*
X153627632Y-33078830D01*
X153647038Y-33069651D01*
X153667250Y-33062419D01*
X153688074Y-33057203D01*
X153709309Y-33054053D01*
X153730750Y-33053000D01*
X154168250Y-33053000D01*
X154189691Y-33054053D01*
G37*
G36*
X152614691Y-33054053D02*
G01*
X152635926Y-33057203D01*
X152656750Y-33062419D01*
X152676962Y-33069651D01*
X152696368Y-33078830D01*
X152714781Y-33089866D01*
X152732024Y-33102654D01*
X152747930Y-33117070D01*
X152762346Y-33132976D01*
X152775134Y-33150219D01*
X152786170Y-33168632D01*
X152795349Y-33188038D01*
X152802581Y-33208250D01*
X152807797Y-33229074D01*
X152810947Y-33250309D01*
X152812000Y-33271750D01*
X152812000Y-33784250D01*
X152810947Y-33805691D01*
X152807797Y-33826926D01*
X152802581Y-33847750D01*
X152795349Y-33867962D01*
X152786170Y-33887368D01*
X152775134Y-33905781D01*
X152762346Y-33923024D01*
X152747930Y-33938930D01*
X152732024Y-33953346D01*
X152714781Y-33966134D01*
X152696368Y-33977170D01*
X152676962Y-33986349D01*
X152656750Y-33993581D01*
X152635926Y-33998797D01*
X152614691Y-34001947D01*
X152593250Y-34003000D01*
X152155750Y-34003000D01*
X152134309Y-34001947D01*
X152113074Y-33998797D01*
X152092250Y-33993581D01*
X152072038Y-33986349D01*
X152052632Y-33977170D01*
X152034219Y-33966134D01*
X152016976Y-33953346D01*
X152001070Y-33938930D01*
X151986654Y-33923024D01*
X151973866Y-33905781D01*
X151962830Y-33887368D01*
X151953651Y-33867962D01*
X151946419Y-33847750D01*
X151941203Y-33826926D01*
X151938053Y-33805691D01*
X151937000Y-33784250D01*
X151937000Y-33271750D01*
X151938053Y-33250309D01*
X151941203Y-33229074D01*
X151946419Y-33208250D01*
X151953651Y-33188038D01*
X151962830Y-33168632D01*
X151973866Y-33150219D01*
X151986654Y-33132976D01*
X152001070Y-33117070D01*
X152016976Y-33102654D01*
X152034219Y-33089866D01*
X152052632Y-33078830D01*
X152072038Y-33069651D01*
X152092250Y-33062419D01*
X152113074Y-33057203D01*
X152134309Y-33054053D01*
X152155750Y-33053000D01*
X152593250Y-33053000D01*
X152614691Y-33054053D01*
G37*
G36*
X129001805Y-103254274D02*
G01*
X129023040Y-103257424D01*
X129043864Y-103262640D01*
X129064076Y-103269872D01*
X129083482Y-103279051D01*
X129101895Y-103290087D01*
X129119138Y-103302875D01*
X129135044Y-103317291D01*
X129444403Y-103626650D01*
X129458819Y-103642556D01*
X129471607Y-103659799D01*
X129482643Y-103678212D01*
X129491822Y-103697618D01*
X129499054Y-103717830D01*
X129504270Y-103738654D01*
X129507420Y-103759889D01*
X129508473Y-103781330D01*
X129507420Y-103802771D01*
X129504270Y-103824006D01*
X129499054Y-103844830D01*
X129491822Y-103865042D01*
X129482643Y-103884448D01*
X129471607Y-103902861D01*
X129458819Y-103920104D01*
X129444403Y-103936010D01*
X129082010Y-104298403D01*
X129066104Y-104312819D01*
X129048861Y-104325607D01*
X129030448Y-104336643D01*
X129011042Y-104345822D01*
X128990830Y-104353054D01*
X128970006Y-104358270D01*
X128948771Y-104361420D01*
X128927330Y-104362473D01*
X128905889Y-104361420D01*
X128884654Y-104358270D01*
X128863830Y-104353054D01*
X128843618Y-104345822D01*
X128824212Y-104336643D01*
X128805799Y-104325607D01*
X128788556Y-104312819D01*
X128772650Y-104298403D01*
X128463291Y-103989044D01*
X128448875Y-103973138D01*
X128436087Y-103955895D01*
X128425051Y-103937482D01*
X128415872Y-103918076D01*
X128408640Y-103897864D01*
X128403424Y-103877040D01*
X128400274Y-103855805D01*
X128399221Y-103834364D01*
X128400274Y-103812923D01*
X128403424Y-103791688D01*
X128408640Y-103770864D01*
X128415872Y-103750652D01*
X128425051Y-103731246D01*
X128436087Y-103712833D01*
X128448875Y-103695590D01*
X128463291Y-103679684D01*
X128825684Y-103317291D01*
X128841590Y-103302875D01*
X128858833Y-103290087D01*
X128877246Y-103279051D01*
X128896652Y-103269872D01*
X128916864Y-103262640D01*
X128937688Y-103257424D01*
X128958923Y-103254274D01*
X128980364Y-103253221D01*
X129001805Y-103254274D01*
G37*
G36*
X127888111Y-102140580D02*
G01*
X127909346Y-102143730D01*
X127930170Y-102148946D01*
X127950382Y-102156178D01*
X127969788Y-102165357D01*
X127988201Y-102176393D01*
X128005444Y-102189181D01*
X128021350Y-102203597D01*
X128330709Y-102512956D01*
X128345125Y-102528862D01*
X128357913Y-102546105D01*
X128368949Y-102564518D01*
X128378128Y-102583924D01*
X128385360Y-102604136D01*
X128390576Y-102624960D01*
X128393726Y-102646195D01*
X128394779Y-102667636D01*
X128393726Y-102689077D01*
X128390576Y-102710312D01*
X128385360Y-102731136D01*
X128378128Y-102751348D01*
X128368949Y-102770754D01*
X128357913Y-102789167D01*
X128345125Y-102806410D01*
X128330709Y-102822316D01*
X127968316Y-103184709D01*
X127952410Y-103199125D01*
X127935167Y-103211913D01*
X127916754Y-103222949D01*
X127897348Y-103232128D01*
X127877136Y-103239360D01*
X127856312Y-103244576D01*
X127835077Y-103247726D01*
X127813636Y-103248779D01*
X127792195Y-103247726D01*
X127770960Y-103244576D01*
X127750136Y-103239360D01*
X127729924Y-103232128D01*
X127710518Y-103222949D01*
X127692105Y-103211913D01*
X127674862Y-103199125D01*
X127658956Y-103184709D01*
X127349597Y-102875350D01*
X127335181Y-102859444D01*
X127322393Y-102842201D01*
X127311357Y-102823788D01*
X127302178Y-102804382D01*
X127294946Y-102784170D01*
X127289730Y-102763346D01*
X127286580Y-102742111D01*
X127285527Y-102720670D01*
X127286580Y-102699229D01*
X127289730Y-102677994D01*
X127294946Y-102657170D01*
X127302178Y-102636958D01*
X127311357Y-102617552D01*
X127322393Y-102599139D01*
X127335181Y-102581896D01*
X127349597Y-102565990D01*
X127711990Y-102203597D01*
X127727896Y-102189181D01*
X127745139Y-102176393D01*
X127763552Y-102165357D01*
X127782958Y-102156178D01*
X127803170Y-102148946D01*
X127823994Y-102143730D01*
X127845229Y-102140580D01*
X127866670Y-102139527D01*
X127888111Y-102140580D01*
G37*
G36*
X131976691Y-57958053D02*
G01*
X131997926Y-57961203D01*
X132018750Y-57966419D01*
X132038962Y-57973651D01*
X132058368Y-57982830D01*
X132076781Y-57993866D01*
X132094024Y-58006654D01*
X132109930Y-58021070D01*
X132124346Y-58036976D01*
X132137134Y-58054219D01*
X132148170Y-58072632D01*
X132157349Y-58092038D01*
X132164581Y-58112250D01*
X132169797Y-58133074D01*
X132172947Y-58154309D01*
X132174000Y-58175750D01*
X132174000Y-58613250D01*
X132172947Y-58634691D01*
X132169797Y-58655926D01*
X132164581Y-58676750D01*
X132157349Y-58696962D01*
X132148170Y-58716368D01*
X132137134Y-58734781D01*
X132124346Y-58752024D01*
X132109930Y-58767930D01*
X132094024Y-58782346D01*
X132076781Y-58795134D01*
X132058368Y-58806170D01*
X132038962Y-58815349D01*
X132018750Y-58822581D01*
X131997926Y-58827797D01*
X131976691Y-58830947D01*
X131955250Y-58832000D01*
X131442750Y-58832000D01*
X131421309Y-58830947D01*
X131400074Y-58827797D01*
X131379250Y-58822581D01*
X131359038Y-58815349D01*
X131339632Y-58806170D01*
X131321219Y-58795134D01*
X131303976Y-58782346D01*
X131288070Y-58767930D01*
X131273654Y-58752024D01*
X131260866Y-58734781D01*
X131249830Y-58716368D01*
X131240651Y-58696962D01*
X131233419Y-58676750D01*
X131228203Y-58655926D01*
X131225053Y-58634691D01*
X131224000Y-58613250D01*
X131224000Y-58175750D01*
X131225053Y-58154309D01*
X131228203Y-58133074D01*
X131233419Y-58112250D01*
X131240651Y-58092038D01*
X131249830Y-58072632D01*
X131260866Y-58054219D01*
X131273654Y-58036976D01*
X131288070Y-58021070D01*
X131303976Y-58006654D01*
X131321219Y-57993866D01*
X131339632Y-57982830D01*
X131359038Y-57973651D01*
X131379250Y-57966419D01*
X131400074Y-57961203D01*
X131421309Y-57958053D01*
X131442750Y-57957000D01*
X131955250Y-57957000D01*
X131976691Y-57958053D01*
G37*
G36*
X131976691Y-59533053D02*
G01*
X131997926Y-59536203D01*
X132018750Y-59541419D01*
X132038962Y-59548651D01*
X132058368Y-59557830D01*
X132076781Y-59568866D01*
X132094024Y-59581654D01*
X132109930Y-59596070D01*
X132124346Y-59611976D01*
X132137134Y-59629219D01*
X132148170Y-59647632D01*
X132157349Y-59667038D01*
X132164581Y-59687250D01*
X132169797Y-59708074D01*
X132172947Y-59729309D01*
X132174000Y-59750750D01*
X132174000Y-60188250D01*
X132172947Y-60209691D01*
X132169797Y-60230926D01*
X132164581Y-60251750D01*
X132157349Y-60271962D01*
X132148170Y-60291368D01*
X132137134Y-60309781D01*
X132124346Y-60327024D01*
X132109930Y-60342930D01*
X132094024Y-60357346D01*
X132076781Y-60370134D01*
X132058368Y-60381170D01*
X132038962Y-60390349D01*
X132018750Y-60397581D01*
X131997926Y-60402797D01*
X131976691Y-60405947D01*
X131955250Y-60407000D01*
X131442750Y-60407000D01*
X131421309Y-60405947D01*
X131400074Y-60402797D01*
X131379250Y-60397581D01*
X131359038Y-60390349D01*
X131339632Y-60381170D01*
X131321219Y-60370134D01*
X131303976Y-60357346D01*
X131288070Y-60342930D01*
X131273654Y-60327024D01*
X131260866Y-60309781D01*
X131249830Y-60291368D01*
X131240651Y-60271962D01*
X131233419Y-60251750D01*
X131228203Y-60230926D01*
X131225053Y-60209691D01*
X131224000Y-60188250D01*
X131224000Y-59750750D01*
X131225053Y-59729309D01*
X131228203Y-59708074D01*
X131233419Y-59687250D01*
X131240651Y-59667038D01*
X131249830Y-59647632D01*
X131260866Y-59629219D01*
X131273654Y-59611976D01*
X131288070Y-59596070D01*
X131303976Y-59581654D01*
X131321219Y-59568866D01*
X131339632Y-59557830D01*
X131359038Y-59548651D01*
X131379250Y-59541419D01*
X131400074Y-59536203D01*
X131421309Y-59533053D01*
X131442750Y-59532000D01*
X131955250Y-59532000D01*
X131976691Y-59533053D01*
G37*
G36*
X135243287Y-95141367D02*
G01*
X135264639Y-95143588D01*
X135285671Y-95147891D01*
X135306179Y-95154234D01*
X135787771Y-95329519D01*
X135807559Y-95337842D01*
X135826436Y-95348065D01*
X135844220Y-95360089D01*
X135860739Y-95373798D01*
X135875836Y-95389060D01*
X135889364Y-95405728D01*
X135901193Y-95423642D01*
X135911209Y-95442629D01*
X135919316Y-95462507D01*
X135925435Y-95483083D01*
X135929508Y-95504160D01*
X135931496Y-95525535D01*
X135931379Y-95547002D01*
X135929158Y-95568354D01*
X135924855Y-95589385D01*
X135918512Y-95609894D01*
X135768878Y-96021009D01*
X135760555Y-96040797D01*
X135750332Y-96059674D01*
X135738308Y-96077458D01*
X135724599Y-96093977D01*
X135709337Y-96109074D01*
X135692669Y-96122602D01*
X135674755Y-96134431D01*
X135655768Y-96144447D01*
X135635890Y-96152554D01*
X135615314Y-96158673D01*
X135594236Y-96162746D01*
X135572862Y-96164734D01*
X135551395Y-96164617D01*
X135530043Y-96162396D01*
X135509011Y-96158093D01*
X135488503Y-96151750D01*
X135006911Y-95976465D01*
X134987123Y-95968142D01*
X134968246Y-95957919D01*
X134950462Y-95945895D01*
X134933943Y-95932186D01*
X134918846Y-95916924D01*
X134905318Y-95900256D01*
X134893489Y-95882342D01*
X134883473Y-95863355D01*
X134875366Y-95843477D01*
X134869247Y-95822901D01*
X134865174Y-95801824D01*
X134863186Y-95780449D01*
X134863303Y-95758982D01*
X134865524Y-95737630D01*
X134869827Y-95716599D01*
X134876170Y-95696090D01*
X135025804Y-95284975D01*
X135034127Y-95265187D01*
X135044350Y-95246310D01*
X135056374Y-95228526D01*
X135070083Y-95212007D01*
X135085345Y-95196910D01*
X135102013Y-95183382D01*
X135119927Y-95171553D01*
X135138914Y-95161537D01*
X135158792Y-95153430D01*
X135179368Y-95147311D01*
X135200446Y-95143238D01*
X135221820Y-95141250D01*
X135243287Y-95141367D01*
G37*
G36*
X134704605Y-96621383D02*
G01*
X134725957Y-96623604D01*
X134746989Y-96627907D01*
X134767497Y-96634250D01*
X135249089Y-96809535D01*
X135268877Y-96817858D01*
X135287754Y-96828081D01*
X135305538Y-96840105D01*
X135322057Y-96853814D01*
X135337154Y-96869076D01*
X135350682Y-96885744D01*
X135362511Y-96903658D01*
X135372527Y-96922645D01*
X135380634Y-96942523D01*
X135386753Y-96963099D01*
X135390826Y-96984176D01*
X135392814Y-97005551D01*
X135392697Y-97027018D01*
X135390476Y-97048370D01*
X135386173Y-97069401D01*
X135379830Y-97089910D01*
X135230196Y-97501025D01*
X135221873Y-97520813D01*
X135211650Y-97539690D01*
X135199626Y-97557474D01*
X135185917Y-97573993D01*
X135170655Y-97589090D01*
X135153987Y-97602618D01*
X135136073Y-97614447D01*
X135117086Y-97624463D01*
X135097208Y-97632570D01*
X135076632Y-97638689D01*
X135055554Y-97642762D01*
X135034180Y-97644750D01*
X135012713Y-97644633D01*
X134991361Y-97642412D01*
X134970329Y-97638109D01*
X134949821Y-97631766D01*
X134468229Y-97456481D01*
X134448441Y-97448158D01*
X134429564Y-97437935D01*
X134411780Y-97425911D01*
X134395261Y-97412202D01*
X134380164Y-97396940D01*
X134366636Y-97380272D01*
X134354807Y-97362358D01*
X134344791Y-97343371D01*
X134336684Y-97323493D01*
X134330565Y-97302917D01*
X134326492Y-97281840D01*
X134324504Y-97260465D01*
X134324621Y-97238998D01*
X134326842Y-97217646D01*
X134331145Y-97196615D01*
X134337488Y-97176106D01*
X134487122Y-96764991D01*
X134495445Y-96745203D01*
X134505668Y-96726326D01*
X134517692Y-96708542D01*
X134531401Y-96692023D01*
X134546663Y-96676926D01*
X134563331Y-96663398D01*
X134581245Y-96651569D01*
X134600232Y-96641553D01*
X134620110Y-96633446D01*
X134640686Y-96627327D01*
X134661764Y-96623254D01*
X134683138Y-96621266D01*
X134704605Y-96621383D01*
G37*
G36*
X124574101Y-78665155D02*
G01*
X124595427Y-78667609D01*
X124616411Y-78672141D01*
X124636849Y-78678708D01*
X124656545Y-78687246D01*
X124675309Y-78697674D01*
X124692961Y-78709891D01*
X124709330Y-78723779D01*
X124724259Y-78739205D01*
X124737604Y-78756020D01*
X124749237Y-78774062D01*
X124967987Y-79152948D01*
X124977795Y-79172043D01*
X124985685Y-79192008D01*
X124991580Y-79212650D01*
X124995423Y-79233770D01*
X124997177Y-79255166D01*
X124996826Y-79276630D01*
X124994372Y-79297956D01*
X124989840Y-79318940D01*
X124983273Y-79339378D01*
X124974735Y-79359074D01*
X124964307Y-79377838D01*
X124952090Y-79395490D01*
X124938202Y-79411859D01*
X124922776Y-79426788D01*
X124905961Y-79440133D01*
X124887919Y-79451766D01*
X124444081Y-79708016D01*
X124424986Y-79717824D01*
X124405021Y-79725714D01*
X124384379Y-79731609D01*
X124363259Y-79735452D01*
X124341863Y-79737206D01*
X124320399Y-79736855D01*
X124299073Y-79734401D01*
X124278089Y-79729869D01*
X124257651Y-79723302D01*
X124237955Y-79714764D01*
X124219191Y-79704336D01*
X124201539Y-79692119D01*
X124185170Y-79678231D01*
X124170241Y-79662805D01*
X124156896Y-79645990D01*
X124145263Y-79627948D01*
X123926513Y-79249062D01*
X123916705Y-79229967D01*
X123908815Y-79210002D01*
X123902920Y-79189360D01*
X123899077Y-79168240D01*
X123897323Y-79146844D01*
X123897674Y-79125380D01*
X123900128Y-79104054D01*
X123904660Y-79083070D01*
X123911227Y-79062632D01*
X123919765Y-79042936D01*
X123930193Y-79024172D01*
X123942410Y-79006520D01*
X123956298Y-78990151D01*
X123971724Y-78975222D01*
X123988539Y-78961877D01*
X124006581Y-78950244D01*
X124450419Y-78693994D01*
X124469514Y-78684186D01*
X124489479Y-78676296D01*
X124510121Y-78670401D01*
X124531241Y-78666558D01*
X124552637Y-78664804D01*
X124574101Y-78665155D01*
G37*
G36*
X125361601Y-80029145D02*
G01*
X125382927Y-80031599D01*
X125403911Y-80036131D01*
X125424349Y-80042698D01*
X125444045Y-80051236D01*
X125462809Y-80061664D01*
X125480461Y-80073881D01*
X125496830Y-80087769D01*
X125511759Y-80103195D01*
X125525104Y-80120010D01*
X125536737Y-80138052D01*
X125755487Y-80516938D01*
X125765295Y-80536033D01*
X125773185Y-80555998D01*
X125779080Y-80576640D01*
X125782923Y-80597760D01*
X125784677Y-80619156D01*
X125784326Y-80640620D01*
X125781872Y-80661946D01*
X125777340Y-80682930D01*
X125770773Y-80703368D01*
X125762235Y-80723064D01*
X125751807Y-80741828D01*
X125739590Y-80759480D01*
X125725702Y-80775849D01*
X125710276Y-80790778D01*
X125693461Y-80804123D01*
X125675419Y-80815756D01*
X125231581Y-81072006D01*
X125212486Y-81081814D01*
X125192521Y-81089704D01*
X125171879Y-81095599D01*
X125150759Y-81099442D01*
X125129363Y-81101196D01*
X125107899Y-81100845D01*
X125086573Y-81098391D01*
X125065589Y-81093859D01*
X125045151Y-81087292D01*
X125025455Y-81078754D01*
X125006691Y-81068326D01*
X124989039Y-81056109D01*
X124972670Y-81042221D01*
X124957741Y-81026795D01*
X124944396Y-81009980D01*
X124932763Y-80991938D01*
X124714013Y-80613052D01*
X124704205Y-80593957D01*
X124696315Y-80573992D01*
X124690420Y-80553350D01*
X124686577Y-80532230D01*
X124684823Y-80510834D01*
X124685174Y-80489370D01*
X124687628Y-80468044D01*
X124692160Y-80447060D01*
X124698727Y-80426622D01*
X124707265Y-80406926D01*
X124717693Y-80388162D01*
X124729910Y-80370510D01*
X124743798Y-80354141D01*
X124759224Y-80339212D01*
X124776039Y-80325867D01*
X124794081Y-80314234D01*
X125237919Y-80057984D01*
X125257014Y-80048176D01*
X125276979Y-80040286D01*
X125297621Y-80034391D01*
X125318741Y-80030548D01*
X125340137Y-80028794D01*
X125361601Y-80029145D01*
G37*
G36*
X127297771Y-49181580D02*
G01*
X127319006Y-49184730D01*
X127339830Y-49189946D01*
X127360042Y-49197178D01*
X127379448Y-49206357D01*
X127397861Y-49217393D01*
X127415104Y-49230181D01*
X127431010Y-49244597D01*
X127793403Y-49606990D01*
X127807819Y-49622896D01*
X127820607Y-49640139D01*
X127831643Y-49658552D01*
X127840822Y-49677958D01*
X127848054Y-49698170D01*
X127853270Y-49718994D01*
X127856420Y-49740229D01*
X127857473Y-49761670D01*
X127856420Y-49783111D01*
X127853270Y-49804346D01*
X127848054Y-49825170D01*
X127840822Y-49845382D01*
X127831643Y-49864788D01*
X127820607Y-49883201D01*
X127807819Y-49900444D01*
X127793403Y-49916350D01*
X127484044Y-50225709D01*
X127468138Y-50240125D01*
X127450895Y-50252913D01*
X127432482Y-50263949D01*
X127413076Y-50273128D01*
X127392864Y-50280360D01*
X127372040Y-50285576D01*
X127350805Y-50288726D01*
X127329364Y-50289779D01*
X127307923Y-50288726D01*
X127286688Y-50285576D01*
X127265864Y-50280360D01*
X127245652Y-50273128D01*
X127226246Y-50263949D01*
X127207833Y-50252913D01*
X127190590Y-50240125D01*
X127174684Y-50225709D01*
X126812291Y-49863316D01*
X126797875Y-49847410D01*
X126785087Y-49830167D01*
X126774051Y-49811754D01*
X126764872Y-49792348D01*
X126757640Y-49772136D01*
X126752424Y-49751312D01*
X126749274Y-49730077D01*
X126748221Y-49708636D01*
X126749274Y-49687195D01*
X126752424Y-49665960D01*
X126757640Y-49645136D01*
X126764872Y-49624924D01*
X126774051Y-49605518D01*
X126785087Y-49587105D01*
X126797875Y-49569862D01*
X126812291Y-49553956D01*
X127121650Y-49244597D01*
X127137556Y-49230181D01*
X127154799Y-49217393D01*
X127173212Y-49206357D01*
X127192618Y-49197178D01*
X127212830Y-49189946D01*
X127233654Y-49184730D01*
X127254889Y-49181580D01*
X127276330Y-49180527D01*
X127297771Y-49181580D01*
G37*
G36*
X126184077Y-50295274D02*
G01*
X126205312Y-50298424D01*
X126226136Y-50303640D01*
X126246348Y-50310872D01*
X126265754Y-50320051D01*
X126284167Y-50331087D01*
X126301410Y-50343875D01*
X126317316Y-50358291D01*
X126679709Y-50720684D01*
X126694125Y-50736590D01*
X126706913Y-50753833D01*
X126717949Y-50772246D01*
X126727128Y-50791652D01*
X126734360Y-50811864D01*
X126739576Y-50832688D01*
X126742726Y-50853923D01*
X126743779Y-50875364D01*
X126742726Y-50896805D01*
X126739576Y-50918040D01*
X126734360Y-50938864D01*
X126727128Y-50959076D01*
X126717949Y-50978482D01*
X126706913Y-50996895D01*
X126694125Y-51014138D01*
X126679709Y-51030044D01*
X126370350Y-51339403D01*
X126354444Y-51353819D01*
X126337201Y-51366607D01*
X126318788Y-51377643D01*
X126299382Y-51386822D01*
X126279170Y-51394054D01*
X126258346Y-51399270D01*
X126237111Y-51402420D01*
X126215670Y-51403473D01*
X126194229Y-51402420D01*
X126172994Y-51399270D01*
X126152170Y-51394054D01*
X126131958Y-51386822D01*
X126112552Y-51377643D01*
X126094139Y-51366607D01*
X126076896Y-51353819D01*
X126060990Y-51339403D01*
X125698597Y-50977010D01*
X125684181Y-50961104D01*
X125671393Y-50943861D01*
X125660357Y-50925448D01*
X125651178Y-50906042D01*
X125643946Y-50885830D01*
X125638730Y-50865006D01*
X125635580Y-50843771D01*
X125634527Y-50822330D01*
X125635580Y-50800889D01*
X125638730Y-50779654D01*
X125643946Y-50758830D01*
X125651178Y-50738618D01*
X125660357Y-50719212D01*
X125671393Y-50700799D01*
X125684181Y-50683556D01*
X125698597Y-50667650D01*
X126007956Y-50358291D01*
X126023862Y-50343875D01*
X126041105Y-50331087D01*
X126059518Y-50320051D01*
X126078924Y-50310872D01*
X126099136Y-50303640D01*
X126119960Y-50298424D01*
X126141195Y-50295274D01*
X126162636Y-50294221D01*
X126184077Y-50295274D01*
G37*
G36*
X131087691Y-42464053D02*
G01*
X131108926Y-42467203D01*
X131129750Y-42472419D01*
X131149962Y-42479651D01*
X131169368Y-42488830D01*
X131187781Y-42499866D01*
X131205024Y-42512654D01*
X131220930Y-42527070D01*
X131235346Y-42542976D01*
X131248134Y-42560219D01*
X131259170Y-42578632D01*
X131268349Y-42598038D01*
X131275581Y-42618250D01*
X131280797Y-42639074D01*
X131283947Y-42660309D01*
X131285000Y-42681750D01*
X131285000Y-43119250D01*
X131283947Y-43140691D01*
X131280797Y-43161926D01*
X131275581Y-43182750D01*
X131268349Y-43202962D01*
X131259170Y-43222368D01*
X131248134Y-43240781D01*
X131235346Y-43258024D01*
X131220930Y-43273930D01*
X131205024Y-43288346D01*
X131187781Y-43301134D01*
X131169368Y-43312170D01*
X131149962Y-43321349D01*
X131129750Y-43328581D01*
X131108926Y-43333797D01*
X131087691Y-43336947D01*
X131066250Y-43338000D01*
X130553750Y-43338000D01*
X130532309Y-43336947D01*
X130511074Y-43333797D01*
X130490250Y-43328581D01*
X130470038Y-43321349D01*
X130450632Y-43312170D01*
X130432219Y-43301134D01*
X130414976Y-43288346D01*
X130399070Y-43273930D01*
X130384654Y-43258024D01*
X130371866Y-43240781D01*
X130360830Y-43222368D01*
X130351651Y-43202962D01*
X130344419Y-43182750D01*
X130339203Y-43161926D01*
X130336053Y-43140691D01*
X130335000Y-43119250D01*
X130335000Y-42681750D01*
X130336053Y-42660309D01*
X130339203Y-42639074D01*
X130344419Y-42618250D01*
X130351651Y-42598038D01*
X130360830Y-42578632D01*
X130371866Y-42560219D01*
X130384654Y-42542976D01*
X130399070Y-42527070D01*
X130414976Y-42512654D01*
X130432219Y-42499866D01*
X130450632Y-42488830D01*
X130470038Y-42479651D01*
X130490250Y-42472419D01*
X130511074Y-42467203D01*
X130532309Y-42464053D01*
X130553750Y-42463000D01*
X131066250Y-42463000D01*
X131087691Y-42464053D01*
G37*
G36*
X131087691Y-44039053D02*
G01*
X131108926Y-44042203D01*
X131129750Y-44047419D01*
X131149962Y-44054651D01*
X131169368Y-44063830D01*
X131187781Y-44074866D01*
X131205024Y-44087654D01*
X131220930Y-44102070D01*
X131235346Y-44117976D01*
X131248134Y-44135219D01*
X131259170Y-44153632D01*
X131268349Y-44173038D01*
X131275581Y-44193250D01*
X131280797Y-44214074D01*
X131283947Y-44235309D01*
X131285000Y-44256750D01*
X131285000Y-44694250D01*
X131283947Y-44715691D01*
X131280797Y-44736926D01*
X131275581Y-44757750D01*
X131268349Y-44777962D01*
X131259170Y-44797368D01*
X131248134Y-44815781D01*
X131235346Y-44833024D01*
X131220930Y-44848930D01*
X131205024Y-44863346D01*
X131187781Y-44876134D01*
X131169368Y-44887170D01*
X131149962Y-44896349D01*
X131129750Y-44903581D01*
X131108926Y-44908797D01*
X131087691Y-44911947D01*
X131066250Y-44913000D01*
X130553750Y-44913000D01*
X130532309Y-44911947D01*
X130511074Y-44908797D01*
X130490250Y-44903581D01*
X130470038Y-44896349D01*
X130450632Y-44887170D01*
X130432219Y-44876134D01*
X130414976Y-44863346D01*
X130399070Y-44848930D01*
X130384654Y-44833024D01*
X130371866Y-44815781D01*
X130360830Y-44797368D01*
X130351651Y-44777962D01*
X130344419Y-44757750D01*
X130339203Y-44736926D01*
X130336053Y-44715691D01*
X130335000Y-44694250D01*
X130335000Y-44256750D01*
X130336053Y-44235309D01*
X130339203Y-44214074D01*
X130344419Y-44193250D01*
X130351651Y-44173038D01*
X130360830Y-44153632D01*
X130371866Y-44135219D01*
X130384654Y-44117976D01*
X130399070Y-44102070D01*
X130414976Y-44087654D01*
X130432219Y-44074866D01*
X130450632Y-44063830D01*
X130470038Y-44054651D01*
X130490250Y-44047419D01*
X130511074Y-44042203D01*
X130532309Y-44039053D01*
X130553750Y-44038000D01*
X131066250Y-44038000D01*
X131087691Y-44039053D01*
G37*
G36*
X127495101Y-36882155D02*
G01*
X127516427Y-36884609D01*
X127537411Y-36889141D01*
X127557849Y-36895708D01*
X127577545Y-36904246D01*
X127596309Y-36914674D01*
X127613961Y-36926891D01*
X127630330Y-36940779D01*
X127645259Y-36956205D01*
X127658604Y-36973020D01*
X127670237Y-36991062D01*
X127888987Y-37369948D01*
X127898795Y-37389043D01*
X127906685Y-37409008D01*
X127912580Y-37429650D01*
X127916423Y-37450770D01*
X127918177Y-37472166D01*
X127917826Y-37493630D01*
X127915372Y-37514956D01*
X127910840Y-37535940D01*
X127904273Y-37556378D01*
X127895735Y-37576074D01*
X127885307Y-37594838D01*
X127873090Y-37612490D01*
X127859202Y-37628859D01*
X127843776Y-37643788D01*
X127826961Y-37657133D01*
X127808919Y-37668766D01*
X127365081Y-37925016D01*
X127345986Y-37934824D01*
X127326021Y-37942714D01*
X127305379Y-37948609D01*
X127284259Y-37952452D01*
X127262863Y-37954206D01*
X127241399Y-37953855D01*
X127220073Y-37951401D01*
X127199089Y-37946869D01*
X127178651Y-37940302D01*
X127158955Y-37931764D01*
X127140191Y-37921336D01*
X127122539Y-37909119D01*
X127106170Y-37895231D01*
X127091241Y-37879805D01*
X127077896Y-37862990D01*
X127066263Y-37844948D01*
X126847513Y-37466062D01*
X126837705Y-37446967D01*
X126829815Y-37427002D01*
X126823920Y-37406360D01*
X126820077Y-37385240D01*
X126818323Y-37363844D01*
X126818674Y-37342380D01*
X126821128Y-37321054D01*
X126825660Y-37300070D01*
X126832227Y-37279632D01*
X126840765Y-37259936D01*
X126851193Y-37241172D01*
X126863410Y-37223520D01*
X126877298Y-37207151D01*
X126892724Y-37192222D01*
X126909539Y-37178877D01*
X126927581Y-37167244D01*
X127371419Y-36910994D01*
X127390514Y-36901186D01*
X127410479Y-36893296D01*
X127431121Y-36887401D01*
X127452241Y-36883558D01*
X127473637Y-36881804D01*
X127495101Y-36882155D01*
G37*
G36*
X128282601Y-38246145D02*
G01*
X128303927Y-38248599D01*
X128324911Y-38253131D01*
X128345349Y-38259698D01*
X128365045Y-38268236D01*
X128383809Y-38278664D01*
X128401461Y-38290881D01*
X128417830Y-38304769D01*
X128432759Y-38320195D01*
X128446104Y-38337010D01*
X128457737Y-38355052D01*
X128676487Y-38733938D01*
X128686295Y-38753033D01*
X128694185Y-38772998D01*
X128700080Y-38793640D01*
X128703923Y-38814760D01*
X128705677Y-38836156D01*
X128705326Y-38857620D01*
X128702872Y-38878946D01*
X128698340Y-38899930D01*
X128691773Y-38920368D01*
X128683235Y-38940064D01*
X128672807Y-38958828D01*
X128660590Y-38976480D01*
X128646702Y-38992849D01*
X128631276Y-39007778D01*
X128614461Y-39021123D01*
X128596419Y-39032756D01*
X128152581Y-39289006D01*
X128133486Y-39298814D01*
X128113521Y-39306704D01*
X128092879Y-39312599D01*
X128071759Y-39316442D01*
X128050363Y-39318196D01*
X128028899Y-39317845D01*
X128007573Y-39315391D01*
X127986589Y-39310859D01*
X127966151Y-39304292D01*
X127946455Y-39295754D01*
X127927691Y-39285326D01*
X127910039Y-39273109D01*
X127893670Y-39259221D01*
X127878741Y-39243795D01*
X127865396Y-39226980D01*
X127853763Y-39208938D01*
X127635013Y-38830052D01*
X127625205Y-38810957D01*
X127617315Y-38790992D01*
X127611420Y-38770350D01*
X127607577Y-38749230D01*
X127605823Y-38727834D01*
X127606174Y-38706370D01*
X127608628Y-38685044D01*
X127613160Y-38664060D01*
X127619727Y-38643622D01*
X127628265Y-38623926D01*
X127638693Y-38605162D01*
X127650910Y-38587510D01*
X127664798Y-38571141D01*
X127680224Y-38556212D01*
X127697039Y-38542867D01*
X127715081Y-38531234D01*
X128158919Y-38274984D01*
X128178014Y-38265176D01*
X128197979Y-38257286D01*
X128218621Y-38251391D01*
X128239741Y-38247548D01*
X128261137Y-38245794D01*
X128282601Y-38246145D01*
G37*
G36*
X127646691Y-29244053D02*
G01*
X127667926Y-29247203D01*
X127688750Y-29252419D01*
X127708962Y-29259651D01*
X127728368Y-29268830D01*
X127746781Y-29279866D01*
X127764024Y-29292654D01*
X127779930Y-29307070D01*
X127794346Y-29322976D01*
X127807134Y-29340219D01*
X127818170Y-29358632D01*
X127827349Y-29378038D01*
X127834581Y-29398250D01*
X127839797Y-29419074D01*
X127842947Y-29440309D01*
X127844000Y-29461750D01*
X127844000Y-29974250D01*
X127842947Y-29995691D01*
X127839797Y-30016926D01*
X127834581Y-30037750D01*
X127827349Y-30057962D01*
X127818170Y-30077368D01*
X127807134Y-30095781D01*
X127794346Y-30113024D01*
X127779930Y-30128930D01*
X127764024Y-30143346D01*
X127746781Y-30156134D01*
X127728368Y-30167170D01*
X127708962Y-30176349D01*
X127688750Y-30183581D01*
X127667926Y-30188797D01*
X127646691Y-30191947D01*
X127625250Y-30193000D01*
X127187750Y-30193000D01*
X127166309Y-30191947D01*
X127145074Y-30188797D01*
X127124250Y-30183581D01*
X127104038Y-30176349D01*
X127084632Y-30167170D01*
X127066219Y-30156134D01*
X127048976Y-30143346D01*
X127033070Y-30128930D01*
X127018654Y-30113024D01*
X127005866Y-30095781D01*
X126994830Y-30077368D01*
X126985651Y-30057962D01*
X126978419Y-30037750D01*
X126973203Y-30016926D01*
X126970053Y-29995691D01*
X126969000Y-29974250D01*
X126969000Y-29461750D01*
X126970053Y-29440309D01*
X126973203Y-29419074D01*
X126978419Y-29398250D01*
X126985651Y-29378038D01*
X126994830Y-29358632D01*
X127005866Y-29340219D01*
X127018654Y-29322976D01*
X127033070Y-29307070D01*
X127048976Y-29292654D01*
X127066219Y-29279866D01*
X127084632Y-29268830D01*
X127104038Y-29259651D01*
X127124250Y-29252419D01*
X127145074Y-29247203D01*
X127166309Y-29244053D01*
X127187750Y-29243000D01*
X127625250Y-29243000D01*
X127646691Y-29244053D01*
G37*
G36*
X126071691Y-29244053D02*
G01*
X126092926Y-29247203D01*
X126113750Y-29252419D01*
X126133962Y-29259651D01*
X126153368Y-29268830D01*
X126171781Y-29279866D01*
X126189024Y-29292654D01*
X126204930Y-29307070D01*
X126219346Y-29322976D01*
X126232134Y-29340219D01*
X126243170Y-29358632D01*
X126252349Y-29378038D01*
X126259581Y-29398250D01*
X126264797Y-29419074D01*
X126267947Y-29440309D01*
X126269000Y-29461750D01*
X126269000Y-29974250D01*
X126267947Y-29995691D01*
X126264797Y-30016926D01*
X126259581Y-30037750D01*
X126252349Y-30057962D01*
X126243170Y-30077368D01*
X126232134Y-30095781D01*
X126219346Y-30113024D01*
X126204930Y-30128930D01*
X126189024Y-30143346D01*
X126171781Y-30156134D01*
X126153368Y-30167170D01*
X126133962Y-30176349D01*
X126113750Y-30183581D01*
X126092926Y-30188797D01*
X126071691Y-30191947D01*
X126050250Y-30193000D01*
X125612750Y-30193000D01*
X125591309Y-30191947D01*
X125570074Y-30188797D01*
X125549250Y-30183581D01*
X125529038Y-30176349D01*
X125509632Y-30167170D01*
X125491219Y-30156134D01*
X125473976Y-30143346D01*
X125458070Y-30128930D01*
X125443654Y-30113024D01*
X125430866Y-30095781D01*
X125419830Y-30077368D01*
X125410651Y-30057962D01*
X125403419Y-30037750D01*
X125398203Y-30016926D01*
X125395053Y-29995691D01*
X125394000Y-29974250D01*
X125394000Y-29461750D01*
X125395053Y-29440309D01*
X125398203Y-29419074D01*
X125403419Y-29398250D01*
X125410651Y-29378038D01*
X125419830Y-29358632D01*
X125430866Y-29340219D01*
X125443654Y-29322976D01*
X125458070Y-29307070D01*
X125473976Y-29292654D01*
X125491219Y-29279866D01*
X125509632Y-29268830D01*
X125529038Y-29259651D01*
X125549250Y-29252419D01*
X125570074Y-29247203D01*
X125591309Y-29244053D01*
X125612750Y-29243000D01*
X126050250Y-29243000D01*
X126071691Y-29244053D01*
G37*
G36*
X121284839Y-30186492D02*
G01*
X121305917Y-30190565D01*
X121326493Y-30196684D01*
X121346371Y-30204791D01*
X121365358Y-30214807D01*
X121383272Y-30226636D01*
X121399940Y-30240164D01*
X121415202Y-30255261D01*
X121428911Y-30271780D01*
X121440935Y-30289564D01*
X121451158Y-30308441D01*
X121459481Y-30328229D01*
X121634766Y-30809821D01*
X121641109Y-30830330D01*
X121645412Y-30851361D01*
X121647633Y-30872713D01*
X121647750Y-30894180D01*
X121645762Y-30915555D01*
X121641689Y-30936632D01*
X121635570Y-30957208D01*
X121627463Y-30977086D01*
X121617447Y-30996073D01*
X121605618Y-31013987D01*
X121592090Y-31030655D01*
X121576993Y-31045917D01*
X121560474Y-31059626D01*
X121542690Y-31071650D01*
X121523813Y-31081873D01*
X121504025Y-31090196D01*
X121092910Y-31239830D01*
X121072402Y-31246173D01*
X121051370Y-31250476D01*
X121030018Y-31252697D01*
X121008551Y-31252814D01*
X120987177Y-31250826D01*
X120966099Y-31246753D01*
X120945523Y-31240634D01*
X120925645Y-31232527D01*
X120906658Y-31222511D01*
X120888744Y-31210682D01*
X120872076Y-31197154D01*
X120856814Y-31182057D01*
X120843105Y-31165538D01*
X120831081Y-31147754D01*
X120820858Y-31128877D01*
X120812535Y-31109089D01*
X120637250Y-30627497D01*
X120630907Y-30606988D01*
X120626604Y-30585957D01*
X120624383Y-30564605D01*
X120624266Y-30543138D01*
X120626254Y-30521763D01*
X120630327Y-30500686D01*
X120636446Y-30480110D01*
X120644553Y-30460232D01*
X120654569Y-30441245D01*
X120666398Y-30423331D01*
X120679926Y-30406663D01*
X120695023Y-30391401D01*
X120711542Y-30377692D01*
X120729326Y-30365668D01*
X120748203Y-30355445D01*
X120767991Y-30347122D01*
X121179106Y-30197488D01*
X121199614Y-30191145D01*
X121220646Y-30186842D01*
X121241998Y-30184621D01*
X121263465Y-30184504D01*
X121284839Y-30186492D01*
G37*
G36*
X119804823Y-30725174D02*
G01*
X119825901Y-30729247D01*
X119846477Y-30735366D01*
X119866355Y-30743473D01*
X119885342Y-30753489D01*
X119903256Y-30765318D01*
X119919924Y-30778846D01*
X119935186Y-30793943D01*
X119948895Y-30810462D01*
X119960919Y-30828246D01*
X119971142Y-30847123D01*
X119979465Y-30866911D01*
X120154750Y-31348503D01*
X120161093Y-31369012D01*
X120165396Y-31390043D01*
X120167617Y-31411395D01*
X120167734Y-31432862D01*
X120165746Y-31454237D01*
X120161673Y-31475314D01*
X120155554Y-31495890D01*
X120147447Y-31515768D01*
X120137431Y-31534755D01*
X120125602Y-31552669D01*
X120112074Y-31569337D01*
X120096977Y-31584599D01*
X120080458Y-31598308D01*
X120062674Y-31610332D01*
X120043797Y-31620555D01*
X120024009Y-31628878D01*
X119612894Y-31778512D01*
X119592386Y-31784855D01*
X119571354Y-31789158D01*
X119550002Y-31791379D01*
X119528535Y-31791496D01*
X119507161Y-31789508D01*
X119486083Y-31785435D01*
X119465507Y-31779316D01*
X119445629Y-31771209D01*
X119426642Y-31761193D01*
X119408728Y-31749364D01*
X119392060Y-31735836D01*
X119376798Y-31720739D01*
X119363089Y-31704220D01*
X119351065Y-31686436D01*
X119340842Y-31667559D01*
X119332519Y-31647771D01*
X119157234Y-31166179D01*
X119150891Y-31145670D01*
X119146588Y-31124639D01*
X119144367Y-31103287D01*
X119144250Y-31081820D01*
X119146238Y-31060445D01*
X119150311Y-31039368D01*
X119156430Y-31018792D01*
X119164537Y-30998914D01*
X119174553Y-30979927D01*
X119186382Y-30962013D01*
X119199910Y-30945345D01*
X119215007Y-30930083D01*
X119231526Y-30916374D01*
X119249310Y-30904350D01*
X119268187Y-30894127D01*
X119287975Y-30885804D01*
X119699090Y-30736170D01*
X119719598Y-30729827D01*
X119740630Y-30725524D01*
X119761982Y-30723303D01*
X119783449Y-30723186D01*
X119804823Y-30725174D01*
G37*
G36*
X114381840Y-34095078D02*
G01*
X114403138Y-34097764D01*
X114424071Y-34102525D01*
X114444436Y-34109314D01*
X114464038Y-34118067D01*
X114482687Y-34128699D01*
X114500205Y-34141108D01*
X114516421Y-34155174D01*
X114531181Y-34170762D01*
X114544343Y-34187722D01*
X114838300Y-34607538D01*
X114849735Y-34625705D01*
X114859335Y-34644907D01*
X114867006Y-34664956D01*
X114872675Y-34685661D01*
X114876287Y-34706822D01*
X114877808Y-34728235D01*
X114877223Y-34749695D01*
X114874537Y-34770993D01*
X114869776Y-34791926D01*
X114862987Y-34812291D01*
X114854234Y-34831892D01*
X114843602Y-34850542D01*
X114831193Y-34868059D01*
X114817127Y-34884276D01*
X114801539Y-34899036D01*
X114784580Y-34912196D01*
X114426201Y-35163136D01*
X114408033Y-35174572D01*
X114388832Y-35184171D01*
X114368782Y-35191843D01*
X114348077Y-35197512D01*
X114326916Y-35201124D01*
X114305503Y-35202645D01*
X114284044Y-35202060D01*
X114262746Y-35199374D01*
X114241813Y-35194613D01*
X114221448Y-35187824D01*
X114201846Y-35179071D01*
X114183197Y-35168439D01*
X114165679Y-35156030D01*
X114149463Y-35141964D01*
X114134703Y-35126376D01*
X114121541Y-35109416D01*
X113827584Y-34689600D01*
X113816149Y-34671433D01*
X113806549Y-34652231D01*
X113798878Y-34632182D01*
X113793209Y-34611477D01*
X113789597Y-34590316D01*
X113788076Y-34568903D01*
X113788661Y-34547443D01*
X113791347Y-34526145D01*
X113796108Y-34505212D01*
X113802897Y-34484847D01*
X113811650Y-34465246D01*
X113822282Y-34446596D01*
X113834691Y-34429079D01*
X113848757Y-34412862D01*
X113864345Y-34398102D01*
X113881304Y-34384942D01*
X114239683Y-34134002D01*
X114257851Y-34122566D01*
X114277052Y-34112967D01*
X114297102Y-34105295D01*
X114317807Y-34099626D01*
X114338968Y-34096014D01*
X114360381Y-34094493D01*
X114381840Y-34095078D01*
G37*
G36*
X113091676Y-34998460D02*
G01*
X113112974Y-35001146D01*
X113133907Y-35005907D01*
X113154272Y-35012696D01*
X113173874Y-35021449D01*
X113192523Y-35032081D01*
X113210041Y-35044490D01*
X113226257Y-35058556D01*
X113241017Y-35074144D01*
X113254179Y-35091104D01*
X113548136Y-35510920D01*
X113559571Y-35529087D01*
X113569171Y-35548289D01*
X113576842Y-35568338D01*
X113582511Y-35589043D01*
X113586123Y-35610204D01*
X113587644Y-35631617D01*
X113587059Y-35653077D01*
X113584373Y-35674375D01*
X113579612Y-35695308D01*
X113572823Y-35715673D01*
X113564070Y-35735274D01*
X113553438Y-35753924D01*
X113541029Y-35771441D01*
X113526963Y-35787658D01*
X113511375Y-35802418D01*
X113494416Y-35815578D01*
X113136037Y-36066518D01*
X113117869Y-36077954D01*
X113098668Y-36087553D01*
X113078618Y-36095225D01*
X113057913Y-36100894D01*
X113036752Y-36104506D01*
X113015339Y-36106027D01*
X112993880Y-36105442D01*
X112972582Y-36102756D01*
X112951649Y-36097995D01*
X112931284Y-36091206D01*
X112911682Y-36082453D01*
X112893033Y-36071821D01*
X112875515Y-36059412D01*
X112859299Y-36045346D01*
X112844539Y-36029758D01*
X112831377Y-36012798D01*
X112537420Y-35592982D01*
X112525985Y-35574815D01*
X112516385Y-35555613D01*
X112508714Y-35535564D01*
X112503045Y-35514859D01*
X112499433Y-35493698D01*
X112497912Y-35472285D01*
X112498497Y-35450825D01*
X112501183Y-35429527D01*
X112505944Y-35408594D01*
X112512733Y-35388229D01*
X112521486Y-35368628D01*
X112532118Y-35349978D01*
X112544527Y-35332461D01*
X112558593Y-35316244D01*
X112574181Y-35301484D01*
X112591140Y-35288324D01*
X112949519Y-35037384D01*
X112967687Y-35025948D01*
X112986888Y-35016349D01*
X113006938Y-35008677D01*
X113027643Y-35003008D01*
X113048804Y-34999396D01*
X113070217Y-34997875D01*
X113091676Y-34998460D01*
G37*
G36*
X107241601Y-38113074D02*
G01*
X107262953Y-38115295D01*
X107283985Y-38119598D01*
X107304493Y-38125941D01*
X107324281Y-38134265D01*
X107343158Y-38144487D01*
X107360942Y-38156511D01*
X107377462Y-38170220D01*
X107392558Y-38185482D01*
X107406086Y-38202150D01*
X107417915Y-38220064D01*
X107427931Y-38239051D01*
X107644523Y-38703534D01*
X107652630Y-38723412D01*
X107658749Y-38743988D01*
X107662822Y-38765065D01*
X107664810Y-38786440D01*
X107664693Y-38807907D01*
X107662472Y-38829259D01*
X107658169Y-38850290D01*
X107651826Y-38870799D01*
X107643503Y-38890587D01*
X107633280Y-38909464D01*
X107621256Y-38927248D01*
X107607547Y-38943767D01*
X107592285Y-38958864D01*
X107575617Y-38972392D01*
X107557703Y-38984221D01*
X107538715Y-38994237D01*
X107142205Y-39179132D01*
X107122328Y-39187239D01*
X107101752Y-39193358D01*
X107080674Y-39197431D01*
X107059299Y-39199419D01*
X107037833Y-39199302D01*
X107016481Y-39197081D01*
X106995449Y-39192778D01*
X106974941Y-39186435D01*
X106955153Y-39178111D01*
X106936276Y-39167889D01*
X106918492Y-39155865D01*
X106901972Y-39142156D01*
X106886876Y-39126894D01*
X106873348Y-39110226D01*
X106861519Y-39092312D01*
X106851503Y-39073325D01*
X106634911Y-38608842D01*
X106626804Y-38588964D01*
X106620685Y-38568388D01*
X106616612Y-38547311D01*
X106614624Y-38525936D01*
X106614741Y-38504469D01*
X106616962Y-38483117D01*
X106621265Y-38462086D01*
X106627608Y-38441577D01*
X106635931Y-38421789D01*
X106646154Y-38402912D01*
X106658178Y-38385128D01*
X106671887Y-38368609D01*
X106687149Y-38353512D01*
X106703817Y-38339984D01*
X106721731Y-38328155D01*
X106740719Y-38318139D01*
X107137229Y-38133244D01*
X107157106Y-38125137D01*
X107177682Y-38119018D01*
X107198760Y-38114945D01*
X107220135Y-38112957D01*
X107241601Y-38113074D01*
G37*
G36*
X105814167Y-38778698D02*
G01*
X105835519Y-38780919D01*
X105856551Y-38785222D01*
X105877059Y-38791565D01*
X105896847Y-38799889D01*
X105915724Y-38810111D01*
X105933508Y-38822135D01*
X105950028Y-38835844D01*
X105965124Y-38851106D01*
X105978652Y-38867774D01*
X105990481Y-38885688D01*
X106000497Y-38904675D01*
X106217089Y-39369158D01*
X106225196Y-39389036D01*
X106231315Y-39409612D01*
X106235388Y-39430689D01*
X106237376Y-39452064D01*
X106237259Y-39473531D01*
X106235038Y-39494883D01*
X106230735Y-39515914D01*
X106224392Y-39536423D01*
X106216069Y-39556211D01*
X106205846Y-39575088D01*
X106193822Y-39592872D01*
X106180113Y-39609391D01*
X106164851Y-39624488D01*
X106148183Y-39638016D01*
X106130269Y-39649845D01*
X106111281Y-39659861D01*
X105714771Y-39844756D01*
X105694894Y-39852863D01*
X105674318Y-39858982D01*
X105653240Y-39863055D01*
X105631865Y-39865043D01*
X105610399Y-39864926D01*
X105589047Y-39862705D01*
X105568015Y-39858402D01*
X105547507Y-39852059D01*
X105527719Y-39843735D01*
X105508842Y-39833513D01*
X105491058Y-39821489D01*
X105474538Y-39807780D01*
X105459442Y-39792518D01*
X105445914Y-39775850D01*
X105434085Y-39757936D01*
X105424069Y-39738949D01*
X105207477Y-39274466D01*
X105199370Y-39254588D01*
X105193251Y-39234012D01*
X105189178Y-39212935D01*
X105187190Y-39191560D01*
X105187307Y-39170093D01*
X105189528Y-39148741D01*
X105193831Y-39127710D01*
X105200174Y-39107201D01*
X105208497Y-39087413D01*
X105218720Y-39068536D01*
X105230744Y-39050752D01*
X105244453Y-39034233D01*
X105259715Y-39019136D01*
X105276383Y-39005608D01*
X105294297Y-38993779D01*
X105313285Y-38983763D01*
X105709795Y-38798868D01*
X105729672Y-38790761D01*
X105750248Y-38784642D01*
X105771326Y-38780569D01*
X105792701Y-38778581D01*
X105814167Y-38778698D01*
G37*
G36*
X116144065Y-76216427D02*
G01*
X116165363Y-76219113D01*
X116670077Y-76308108D01*
X116691009Y-76312869D01*
X116711374Y-76319658D01*
X116730976Y-76328411D01*
X116749625Y-76339043D01*
X116767143Y-76351452D01*
X116783360Y-76365518D01*
X116798120Y-76381106D01*
X116811281Y-76398065D01*
X116822716Y-76416233D01*
X116832315Y-76435434D01*
X116839987Y-76455484D01*
X116845656Y-76476189D01*
X116849268Y-76497350D01*
X116850789Y-76518763D01*
X116850204Y-76540222D01*
X116847518Y-76561521D01*
X116771546Y-76992374D01*
X116766785Y-77013307D01*
X116759996Y-77033672D01*
X116751243Y-77053273D01*
X116740611Y-77071923D01*
X116728202Y-77089440D01*
X116714136Y-77105657D01*
X116698548Y-77120417D01*
X116681588Y-77133578D01*
X116663421Y-77145013D01*
X116644219Y-77154613D01*
X116624170Y-77162284D01*
X116603465Y-77167953D01*
X116582304Y-77171565D01*
X116560891Y-77173086D01*
X116539431Y-77172501D01*
X116518133Y-77169815D01*
X116013419Y-77080820D01*
X115992487Y-77076059D01*
X115972122Y-77069270D01*
X115952520Y-77060517D01*
X115933871Y-77049885D01*
X115916353Y-77037476D01*
X115900136Y-77023410D01*
X115885376Y-77007822D01*
X115872215Y-76990863D01*
X115860780Y-76972695D01*
X115851181Y-76953494D01*
X115843509Y-76933444D01*
X115837840Y-76912739D01*
X115834228Y-76891578D01*
X115832707Y-76870165D01*
X115833292Y-76848706D01*
X115835978Y-76827407D01*
X115911950Y-76396554D01*
X115916711Y-76375621D01*
X115923500Y-76355256D01*
X115932253Y-76335655D01*
X115942885Y-76317005D01*
X115955294Y-76299488D01*
X115969360Y-76283271D01*
X115984948Y-76268511D01*
X116001908Y-76255350D01*
X116020075Y-76243915D01*
X116039277Y-76234315D01*
X116059326Y-76226644D01*
X116080031Y-76220975D01*
X116101192Y-76217363D01*
X116122605Y-76215842D01*
X116144065Y-76216427D01*
G37*
G36*
X115870569Y-77767499D02*
G01*
X115891867Y-77770185D01*
X116396581Y-77859180D01*
X116417513Y-77863941D01*
X116437878Y-77870730D01*
X116457480Y-77879483D01*
X116476129Y-77890115D01*
X116493647Y-77902524D01*
X116509864Y-77916590D01*
X116524624Y-77932178D01*
X116537785Y-77949137D01*
X116549220Y-77967305D01*
X116558819Y-77986506D01*
X116566491Y-78006556D01*
X116572160Y-78027261D01*
X116575772Y-78048422D01*
X116577293Y-78069835D01*
X116576708Y-78091294D01*
X116574022Y-78112593D01*
X116498050Y-78543446D01*
X116493289Y-78564379D01*
X116486500Y-78584744D01*
X116477747Y-78604345D01*
X116467115Y-78622995D01*
X116454706Y-78640512D01*
X116440640Y-78656729D01*
X116425052Y-78671489D01*
X116408092Y-78684650D01*
X116389925Y-78696085D01*
X116370723Y-78705685D01*
X116350674Y-78713356D01*
X116329969Y-78719025D01*
X116308808Y-78722637D01*
X116287395Y-78724158D01*
X116265935Y-78723573D01*
X116244637Y-78720887D01*
X115739923Y-78631892D01*
X115718991Y-78627131D01*
X115698626Y-78620342D01*
X115679024Y-78611589D01*
X115660375Y-78600957D01*
X115642857Y-78588548D01*
X115626640Y-78574482D01*
X115611880Y-78558894D01*
X115598719Y-78541935D01*
X115587284Y-78523767D01*
X115577685Y-78504566D01*
X115570013Y-78484516D01*
X115564344Y-78463811D01*
X115560732Y-78442650D01*
X115559211Y-78421237D01*
X115559796Y-78399778D01*
X115562482Y-78378479D01*
X115638454Y-77947626D01*
X115643215Y-77926693D01*
X115650004Y-77906328D01*
X115658757Y-77886727D01*
X115669389Y-77868077D01*
X115681798Y-77850560D01*
X115695864Y-77834343D01*
X115711452Y-77819583D01*
X115728412Y-77806422D01*
X115746579Y-77794987D01*
X115765781Y-77785387D01*
X115785830Y-77777716D01*
X115806535Y-77772047D01*
X115827696Y-77768435D01*
X115849109Y-77766914D01*
X115870569Y-77767499D01*
G37*
G36*
X114565691Y-59851053D02*
G01*
X114586926Y-59854203D01*
X114607750Y-59859419D01*
X114627962Y-59866651D01*
X114647368Y-59875830D01*
X114665781Y-59886866D01*
X114683024Y-59899654D01*
X114698930Y-59914070D01*
X114713346Y-59929976D01*
X114726134Y-59947219D01*
X114737170Y-59965632D01*
X114746349Y-59985038D01*
X114753581Y-60005250D01*
X114758797Y-60026074D01*
X114761947Y-60047309D01*
X114763000Y-60068750D01*
X114763000Y-60581250D01*
X114761947Y-60602691D01*
X114758797Y-60623926D01*
X114753581Y-60644750D01*
X114746349Y-60664962D01*
X114737170Y-60684368D01*
X114726134Y-60702781D01*
X114713346Y-60720024D01*
X114698930Y-60735930D01*
X114683024Y-60750346D01*
X114665781Y-60763134D01*
X114647368Y-60774170D01*
X114627962Y-60783349D01*
X114607750Y-60790581D01*
X114586926Y-60795797D01*
X114565691Y-60798947D01*
X114544250Y-60800000D01*
X114106750Y-60800000D01*
X114085309Y-60798947D01*
X114064074Y-60795797D01*
X114043250Y-60790581D01*
X114023038Y-60783349D01*
X114003632Y-60774170D01*
X113985219Y-60763134D01*
X113967976Y-60750346D01*
X113952070Y-60735930D01*
X113937654Y-60720024D01*
X113924866Y-60702781D01*
X113913830Y-60684368D01*
X113904651Y-60664962D01*
X113897419Y-60644750D01*
X113892203Y-60623926D01*
X113889053Y-60602691D01*
X113888000Y-60581250D01*
X113888000Y-60068750D01*
X113889053Y-60047309D01*
X113892203Y-60026074D01*
X113897419Y-60005250D01*
X113904651Y-59985038D01*
X113913830Y-59965632D01*
X113924866Y-59947219D01*
X113937654Y-59929976D01*
X113952070Y-59914070D01*
X113967976Y-59899654D01*
X113985219Y-59886866D01*
X114003632Y-59875830D01*
X114023038Y-59866651D01*
X114043250Y-59859419D01*
X114064074Y-59854203D01*
X114085309Y-59851053D01*
X114106750Y-59850000D01*
X114544250Y-59850000D01*
X114565691Y-59851053D01*
G37*
G36*
X112990691Y-59851053D02*
G01*
X113011926Y-59854203D01*
X113032750Y-59859419D01*
X113052962Y-59866651D01*
X113072368Y-59875830D01*
X113090781Y-59886866D01*
X113108024Y-59899654D01*
X113123930Y-59914070D01*
X113138346Y-59929976D01*
X113151134Y-59947219D01*
X113162170Y-59965632D01*
X113171349Y-59985038D01*
X113178581Y-60005250D01*
X113183797Y-60026074D01*
X113186947Y-60047309D01*
X113188000Y-60068750D01*
X113188000Y-60581250D01*
X113186947Y-60602691D01*
X113183797Y-60623926D01*
X113178581Y-60644750D01*
X113171349Y-60664962D01*
X113162170Y-60684368D01*
X113151134Y-60702781D01*
X113138346Y-60720024D01*
X113123930Y-60735930D01*
X113108024Y-60750346D01*
X113090781Y-60763134D01*
X113072368Y-60774170D01*
X113052962Y-60783349D01*
X113032750Y-60790581D01*
X113011926Y-60795797D01*
X112990691Y-60798947D01*
X112969250Y-60800000D01*
X112531750Y-60800000D01*
X112510309Y-60798947D01*
X112489074Y-60795797D01*
X112468250Y-60790581D01*
X112448038Y-60783349D01*
X112428632Y-60774170D01*
X112410219Y-60763134D01*
X112392976Y-60750346D01*
X112377070Y-60735930D01*
X112362654Y-60720024D01*
X112349866Y-60702781D01*
X112338830Y-60684368D01*
X112329651Y-60664962D01*
X112322419Y-60644750D01*
X112317203Y-60623926D01*
X112314053Y-60602691D01*
X112313000Y-60581250D01*
X112313000Y-60068750D01*
X112314053Y-60047309D01*
X112317203Y-60026074D01*
X112322419Y-60005250D01*
X112329651Y-59985038D01*
X112338830Y-59965632D01*
X112349866Y-59947219D01*
X112362654Y-59929976D01*
X112377070Y-59914070D01*
X112392976Y-59899654D01*
X112410219Y-59886866D01*
X112428632Y-59875830D01*
X112448038Y-59866651D01*
X112468250Y-59859419D01*
X112489074Y-59854203D01*
X112510309Y-59851053D01*
X112531750Y-59850000D01*
X112969250Y-59850000D01*
X112990691Y-59851053D01*
G37*
G36*
X109532980Y-49032818D02*
G01*
X109554278Y-49035504D01*
X109575211Y-49040265D01*
X109595576Y-49047054D01*
X109615178Y-49055807D01*
X109633827Y-49066439D01*
X109651345Y-49078848D01*
X109667561Y-49092914D01*
X109682321Y-49108502D01*
X109695483Y-49125462D01*
X109989440Y-49545278D01*
X110000875Y-49563445D01*
X110010475Y-49582647D01*
X110018146Y-49602696D01*
X110023815Y-49623401D01*
X110027427Y-49644562D01*
X110028948Y-49665975D01*
X110028363Y-49687435D01*
X110025677Y-49708733D01*
X110020916Y-49729666D01*
X110014127Y-49750031D01*
X110005374Y-49769632D01*
X109994742Y-49788282D01*
X109982333Y-49805799D01*
X109968267Y-49822016D01*
X109952679Y-49836776D01*
X109935720Y-49849936D01*
X109577341Y-50100876D01*
X109559173Y-50112312D01*
X109539972Y-50121911D01*
X109519922Y-50129583D01*
X109499217Y-50135252D01*
X109478056Y-50138864D01*
X109456643Y-50140385D01*
X109435184Y-50139800D01*
X109413886Y-50137114D01*
X109392953Y-50132353D01*
X109372588Y-50125564D01*
X109352986Y-50116811D01*
X109334337Y-50106179D01*
X109316819Y-50093770D01*
X109300603Y-50079704D01*
X109285843Y-50064116D01*
X109272681Y-50047156D01*
X108978724Y-49627340D01*
X108967289Y-49609173D01*
X108957689Y-49589971D01*
X108950018Y-49569922D01*
X108944349Y-49549217D01*
X108940737Y-49528056D01*
X108939216Y-49506643D01*
X108939801Y-49485183D01*
X108942487Y-49463885D01*
X108947248Y-49442952D01*
X108954037Y-49422587D01*
X108962790Y-49402986D01*
X108973422Y-49384336D01*
X108985831Y-49366819D01*
X108999897Y-49350602D01*
X109015485Y-49335842D01*
X109032444Y-49322682D01*
X109390823Y-49071742D01*
X109408991Y-49060306D01*
X109428192Y-49050707D01*
X109448242Y-49043035D01*
X109468947Y-49037366D01*
X109490108Y-49033754D01*
X109511521Y-49032233D01*
X109532980Y-49032818D01*
G37*
G36*
X108242816Y-49936200D02*
G01*
X108264114Y-49938886D01*
X108285047Y-49943647D01*
X108305412Y-49950436D01*
X108325014Y-49959189D01*
X108343663Y-49969821D01*
X108361181Y-49982230D01*
X108377397Y-49996296D01*
X108392157Y-50011884D01*
X108405319Y-50028844D01*
X108699276Y-50448660D01*
X108710711Y-50466827D01*
X108720311Y-50486029D01*
X108727982Y-50506078D01*
X108733651Y-50526783D01*
X108737263Y-50547944D01*
X108738784Y-50569357D01*
X108738199Y-50590817D01*
X108735513Y-50612115D01*
X108730752Y-50633048D01*
X108723963Y-50653413D01*
X108715210Y-50673014D01*
X108704578Y-50691664D01*
X108692169Y-50709181D01*
X108678103Y-50725398D01*
X108662515Y-50740158D01*
X108645556Y-50753318D01*
X108287177Y-51004258D01*
X108269009Y-51015694D01*
X108249808Y-51025293D01*
X108229758Y-51032965D01*
X108209053Y-51038634D01*
X108187892Y-51042246D01*
X108166479Y-51043767D01*
X108145020Y-51043182D01*
X108123722Y-51040496D01*
X108102789Y-51035735D01*
X108082424Y-51028946D01*
X108062822Y-51020193D01*
X108044173Y-51009561D01*
X108026655Y-50997152D01*
X108010439Y-50983086D01*
X107995679Y-50967498D01*
X107982517Y-50950538D01*
X107688560Y-50530722D01*
X107677125Y-50512555D01*
X107667525Y-50493353D01*
X107659854Y-50473304D01*
X107654185Y-50452599D01*
X107650573Y-50431438D01*
X107649052Y-50410025D01*
X107649637Y-50388565D01*
X107652323Y-50367267D01*
X107657084Y-50346334D01*
X107663873Y-50325969D01*
X107672626Y-50306368D01*
X107683258Y-50287718D01*
X107695667Y-50270201D01*
X107709733Y-50253984D01*
X107725321Y-50239224D01*
X107742280Y-50226064D01*
X108100659Y-49975124D01*
X108118827Y-49963688D01*
X108138028Y-49954089D01*
X108158078Y-49946417D01*
X108178783Y-49940748D01*
X108199944Y-49937136D01*
X108221357Y-49935615D01*
X108242816Y-49936200D01*
G37*
G36*
X102798759Y-58346558D02*
G01*
X102819879Y-58350401D01*
X102840521Y-58356296D01*
X102860486Y-58364186D01*
X102879581Y-58373994D01*
X103323419Y-58630244D01*
X103341461Y-58641877D01*
X103358276Y-58655222D01*
X103373702Y-58670151D01*
X103387590Y-58686520D01*
X103399807Y-58704172D01*
X103410235Y-58722936D01*
X103418773Y-58742632D01*
X103425340Y-58763070D01*
X103429872Y-58784054D01*
X103432326Y-58805380D01*
X103432677Y-58826844D01*
X103430923Y-58848240D01*
X103427080Y-58869360D01*
X103421185Y-58890002D01*
X103413295Y-58909967D01*
X103403487Y-58929062D01*
X103184737Y-59307948D01*
X103173104Y-59325990D01*
X103159759Y-59342805D01*
X103144830Y-59358231D01*
X103128461Y-59372119D01*
X103110809Y-59384336D01*
X103092045Y-59394764D01*
X103072349Y-59403302D01*
X103051911Y-59409869D01*
X103030927Y-59414401D01*
X103009601Y-59416855D01*
X102988137Y-59417206D01*
X102966741Y-59415452D01*
X102945621Y-59411609D01*
X102924979Y-59405714D01*
X102905014Y-59397824D01*
X102885919Y-59388016D01*
X102442081Y-59131766D01*
X102424039Y-59120133D01*
X102407224Y-59106788D01*
X102391798Y-59091859D01*
X102377910Y-59075490D01*
X102365693Y-59057838D01*
X102355265Y-59039074D01*
X102346727Y-59019378D01*
X102340160Y-58998940D01*
X102335628Y-58977956D01*
X102333174Y-58956630D01*
X102332823Y-58935166D01*
X102334577Y-58913770D01*
X102338420Y-58892650D01*
X102344315Y-58872008D01*
X102352205Y-58852043D01*
X102362013Y-58832948D01*
X102580763Y-58454062D01*
X102592396Y-58436020D01*
X102605741Y-58419205D01*
X102620670Y-58403779D01*
X102637039Y-58389891D01*
X102654691Y-58377674D01*
X102673455Y-58367246D01*
X102693151Y-58358708D01*
X102713589Y-58352141D01*
X102734573Y-58347609D01*
X102755899Y-58345155D01*
X102777363Y-58344804D01*
X102798759Y-58346558D01*
G37*
G36*
X102011259Y-59710548D02*
G01*
X102032379Y-59714391D01*
X102053021Y-59720286D01*
X102072986Y-59728176D01*
X102092081Y-59737984D01*
X102535919Y-59994234D01*
X102553961Y-60005867D01*
X102570776Y-60019212D01*
X102586202Y-60034141D01*
X102600090Y-60050510D01*
X102612307Y-60068162D01*
X102622735Y-60086926D01*
X102631273Y-60106622D01*
X102637840Y-60127060D01*
X102642372Y-60148044D01*
X102644826Y-60169370D01*
X102645177Y-60190834D01*
X102643423Y-60212230D01*
X102639580Y-60233350D01*
X102633685Y-60253992D01*
X102625795Y-60273957D01*
X102615987Y-60293052D01*
X102397237Y-60671938D01*
X102385604Y-60689980D01*
X102372259Y-60706795D01*
X102357330Y-60722221D01*
X102340961Y-60736109D01*
X102323309Y-60748326D01*
X102304545Y-60758754D01*
X102284849Y-60767292D01*
X102264411Y-60773859D01*
X102243427Y-60778391D01*
X102222101Y-60780845D01*
X102200637Y-60781196D01*
X102179241Y-60779442D01*
X102158121Y-60775599D01*
X102137479Y-60769704D01*
X102117514Y-60761814D01*
X102098419Y-60752006D01*
X101654581Y-60495756D01*
X101636539Y-60484123D01*
X101619724Y-60470778D01*
X101604298Y-60455849D01*
X101590410Y-60439480D01*
X101578193Y-60421828D01*
X101567765Y-60403064D01*
X101559227Y-60383368D01*
X101552660Y-60362930D01*
X101548128Y-60341946D01*
X101545674Y-60320620D01*
X101545323Y-60299156D01*
X101547077Y-60277760D01*
X101550920Y-60256640D01*
X101556815Y-60235998D01*
X101564705Y-60216033D01*
X101574513Y-60196938D01*
X101793263Y-59818052D01*
X101804896Y-59800010D01*
X101818241Y-59783195D01*
X101833170Y-59767769D01*
X101849539Y-59753881D01*
X101867191Y-59741664D01*
X101885955Y-59731236D01*
X101905651Y-59722698D01*
X101926089Y-59716131D01*
X101947073Y-59711599D01*
X101968399Y-59709145D01*
X101989863Y-59708794D01*
X102011259Y-59710548D01*
G37*
G36*
X100639759Y-70411558D02*
G01*
X100660879Y-70415401D01*
X100681521Y-70421296D01*
X100701486Y-70429186D01*
X100720581Y-70438994D01*
X101164419Y-70695244D01*
X101182461Y-70706877D01*
X101199276Y-70720222D01*
X101214702Y-70735151D01*
X101228590Y-70751520D01*
X101240807Y-70769172D01*
X101251235Y-70787936D01*
X101259773Y-70807632D01*
X101266340Y-70828070D01*
X101270872Y-70849054D01*
X101273326Y-70870380D01*
X101273677Y-70891844D01*
X101271923Y-70913240D01*
X101268080Y-70934360D01*
X101262185Y-70955002D01*
X101254295Y-70974967D01*
X101244487Y-70994062D01*
X101025737Y-71372948D01*
X101014104Y-71390990D01*
X101000759Y-71407805D01*
X100985830Y-71423231D01*
X100969461Y-71437119D01*
X100951809Y-71449336D01*
X100933045Y-71459764D01*
X100913349Y-71468302D01*
X100892911Y-71474869D01*
X100871927Y-71479401D01*
X100850601Y-71481855D01*
X100829137Y-71482206D01*
X100807741Y-71480452D01*
X100786621Y-71476609D01*
X100765979Y-71470714D01*
X100746014Y-71462824D01*
X100726919Y-71453016D01*
X100283081Y-71196766D01*
X100265039Y-71185133D01*
X100248224Y-71171788D01*
X100232798Y-71156859D01*
X100218910Y-71140490D01*
X100206693Y-71122838D01*
X100196265Y-71104074D01*
X100187727Y-71084378D01*
X100181160Y-71063940D01*
X100176628Y-71042956D01*
X100174174Y-71021630D01*
X100173823Y-71000166D01*
X100175577Y-70978770D01*
X100179420Y-70957650D01*
X100185315Y-70937008D01*
X100193205Y-70917043D01*
X100203013Y-70897948D01*
X100421763Y-70519062D01*
X100433396Y-70501020D01*
X100446741Y-70484205D01*
X100461670Y-70468779D01*
X100478039Y-70454891D01*
X100495691Y-70442674D01*
X100514455Y-70432246D01*
X100534151Y-70423708D01*
X100554589Y-70417141D01*
X100575573Y-70412609D01*
X100596899Y-70410155D01*
X100618363Y-70409804D01*
X100639759Y-70411558D01*
G37*
G36*
X99852259Y-71775548D02*
G01*
X99873379Y-71779391D01*
X99894021Y-71785286D01*
X99913986Y-71793176D01*
X99933081Y-71802984D01*
X100376919Y-72059234D01*
X100394961Y-72070867D01*
X100411776Y-72084212D01*
X100427202Y-72099141D01*
X100441090Y-72115510D01*
X100453307Y-72133162D01*
X100463735Y-72151926D01*
X100472273Y-72171622D01*
X100478840Y-72192060D01*
X100483372Y-72213044D01*
X100485826Y-72234370D01*
X100486177Y-72255834D01*
X100484423Y-72277230D01*
X100480580Y-72298350D01*
X100474685Y-72318992D01*
X100466795Y-72338957D01*
X100456987Y-72358052D01*
X100238237Y-72736938D01*
X100226604Y-72754980D01*
X100213259Y-72771795D01*
X100198330Y-72787221D01*
X100181961Y-72801109D01*
X100164309Y-72813326D01*
X100145545Y-72823754D01*
X100125849Y-72832292D01*
X100105411Y-72838859D01*
X100084427Y-72843391D01*
X100063101Y-72845845D01*
X100041637Y-72846196D01*
X100020241Y-72844442D01*
X99999121Y-72840599D01*
X99978479Y-72834704D01*
X99958514Y-72826814D01*
X99939419Y-72817006D01*
X99495581Y-72560756D01*
X99477539Y-72549123D01*
X99460724Y-72535778D01*
X99445298Y-72520849D01*
X99431410Y-72504480D01*
X99419193Y-72486828D01*
X99408765Y-72468064D01*
X99400227Y-72448368D01*
X99393660Y-72427930D01*
X99389128Y-72406946D01*
X99386674Y-72385620D01*
X99386323Y-72364156D01*
X99388077Y-72342760D01*
X99391920Y-72321640D01*
X99397815Y-72300998D01*
X99405705Y-72281033D01*
X99415513Y-72261938D01*
X99634263Y-71883052D01*
X99645896Y-71865010D01*
X99659241Y-71848195D01*
X99674170Y-71832769D01*
X99690539Y-71818881D01*
X99708191Y-71806664D01*
X99726955Y-71796236D01*
X99746651Y-71787698D01*
X99767089Y-71781131D01*
X99788073Y-71776599D01*
X99809399Y-71774145D01*
X99830863Y-71773794D01*
X99852259Y-71775548D01*
G37*
G36*
X96899291Y-81834053D02*
G01*
X96920526Y-81837203D01*
X96941350Y-81842419D01*
X96961562Y-81849651D01*
X96980968Y-81858830D01*
X96999381Y-81869866D01*
X97016624Y-81882654D01*
X97032530Y-81897070D01*
X97046946Y-81912976D01*
X97059734Y-81930219D01*
X97070770Y-81948632D01*
X97079949Y-81968038D01*
X97087181Y-81988250D01*
X97092397Y-82009074D01*
X97095547Y-82030309D01*
X97096600Y-82051750D01*
X97096600Y-82489250D01*
X97095547Y-82510691D01*
X97092397Y-82531926D01*
X97087181Y-82552750D01*
X97079949Y-82572962D01*
X97070770Y-82592368D01*
X97059734Y-82610781D01*
X97046946Y-82628024D01*
X97032530Y-82643930D01*
X97016624Y-82658346D01*
X96999381Y-82671134D01*
X96980968Y-82682170D01*
X96961562Y-82691349D01*
X96941350Y-82698581D01*
X96920526Y-82703797D01*
X96899291Y-82706947D01*
X96877850Y-82708000D01*
X96365350Y-82708000D01*
X96343909Y-82706947D01*
X96322674Y-82703797D01*
X96301850Y-82698581D01*
X96281638Y-82691349D01*
X96262232Y-82682170D01*
X96243819Y-82671134D01*
X96226576Y-82658346D01*
X96210670Y-82643930D01*
X96196254Y-82628024D01*
X96183466Y-82610781D01*
X96172430Y-82592368D01*
X96163251Y-82572962D01*
X96156019Y-82552750D01*
X96150803Y-82531926D01*
X96147653Y-82510691D01*
X96146600Y-82489250D01*
X96146600Y-82051750D01*
X96147653Y-82030309D01*
X96150803Y-82009074D01*
X96156019Y-81988250D01*
X96163251Y-81968038D01*
X96172430Y-81948632D01*
X96183466Y-81930219D01*
X96196254Y-81912976D01*
X96210670Y-81897070D01*
X96226576Y-81882654D01*
X96243819Y-81869866D01*
X96262232Y-81858830D01*
X96281638Y-81849651D01*
X96301850Y-81842419D01*
X96322674Y-81837203D01*
X96343909Y-81834053D01*
X96365350Y-81833000D01*
X96877850Y-81833000D01*
X96899291Y-81834053D01*
G37*
G36*
X96899291Y-83409053D02*
G01*
X96920526Y-83412203D01*
X96941350Y-83417419D01*
X96961562Y-83424651D01*
X96980968Y-83433830D01*
X96999381Y-83444866D01*
X97016624Y-83457654D01*
X97032530Y-83472070D01*
X97046946Y-83487976D01*
X97059734Y-83505219D01*
X97070770Y-83523632D01*
X97079949Y-83543038D01*
X97087181Y-83563250D01*
X97092397Y-83584074D01*
X97095547Y-83605309D01*
X97096600Y-83626750D01*
X97096600Y-84064250D01*
X97095547Y-84085691D01*
X97092397Y-84106926D01*
X97087181Y-84127750D01*
X97079949Y-84147962D01*
X97070770Y-84167368D01*
X97059734Y-84185781D01*
X97046946Y-84203024D01*
X97032530Y-84218930D01*
X97016624Y-84233346D01*
X96999381Y-84246134D01*
X96980968Y-84257170D01*
X96961562Y-84266349D01*
X96941350Y-84273581D01*
X96920526Y-84278797D01*
X96899291Y-84281947D01*
X96877850Y-84283000D01*
X96365350Y-84283000D01*
X96343909Y-84281947D01*
X96322674Y-84278797D01*
X96301850Y-84273581D01*
X96281638Y-84266349D01*
X96262232Y-84257170D01*
X96243819Y-84246134D01*
X96226576Y-84233346D01*
X96210670Y-84218930D01*
X96196254Y-84203024D01*
X96183466Y-84185781D01*
X96172430Y-84167368D01*
X96163251Y-84147962D01*
X96156019Y-84127750D01*
X96150803Y-84106926D01*
X96147653Y-84085691D01*
X96146600Y-84064250D01*
X96146600Y-83626750D01*
X96147653Y-83605309D01*
X96150803Y-83584074D01*
X96156019Y-83563250D01*
X96163251Y-83543038D01*
X96172430Y-83523632D01*
X96183466Y-83505219D01*
X96196254Y-83487976D01*
X96210670Y-83472070D01*
X96226576Y-83457654D01*
X96243819Y-83444866D01*
X96262232Y-83433830D01*
X96281638Y-83424651D01*
X96301850Y-83417419D01*
X96322674Y-83412203D01*
X96343909Y-83409053D01*
X96365350Y-83408000D01*
X96877850Y-83408000D01*
X96899291Y-83409053D01*
G37*
G36*
X110097287Y-88664367D02*
G01*
X110118639Y-88666588D01*
X110139671Y-88670891D01*
X110160179Y-88677234D01*
X110641771Y-88852519D01*
X110661559Y-88860842D01*
X110680436Y-88871065D01*
X110698220Y-88883089D01*
X110714739Y-88896798D01*
X110729836Y-88912060D01*
X110743364Y-88928728D01*
X110755193Y-88946642D01*
X110765209Y-88965629D01*
X110773316Y-88985507D01*
X110779435Y-89006083D01*
X110783508Y-89027160D01*
X110785496Y-89048535D01*
X110785379Y-89070002D01*
X110783158Y-89091354D01*
X110778855Y-89112385D01*
X110772512Y-89132894D01*
X110622878Y-89544009D01*
X110614555Y-89563797D01*
X110604332Y-89582674D01*
X110592308Y-89600458D01*
X110578599Y-89616977D01*
X110563337Y-89632074D01*
X110546669Y-89645602D01*
X110528755Y-89657431D01*
X110509768Y-89667447D01*
X110489890Y-89675554D01*
X110469314Y-89681673D01*
X110448236Y-89685746D01*
X110426862Y-89687734D01*
X110405395Y-89687617D01*
X110384043Y-89685396D01*
X110363011Y-89681093D01*
X110342503Y-89674750D01*
X109860911Y-89499465D01*
X109841123Y-89491142D01*
X109822246Y-89480919D01*
X109804462Y-89468895D01*
X109787943Y-89455186D01*
X109772846Y-89439924D01*
X109759318Y-89423256D01*
X109747489Y-89405342D01*
X109737473Y-89386355D01*
X109729366Y-89366477D01*
X109723247Y-89345901D01*
X109719174Y-89324824D01*
X109717186Y-89303449D01*
X109717303Y-89281982D01*
X109719524Y-89260630D01*
X109723827Y-89239599D01*
X109730170Y-89219090D01*
X109879804Y-88807975D01*
X109888127Y-88788187D01*
X109898350Y-88769310D01*
X109910374Y-88751526D01*
X109924083Y-88735007D01*
X109939345Y-88719910D01*
X109956013Y-88706382D01*
X109973927Y-88694553D01*
X109992914Y-88684537D01*
X110012792Y-88676430D01*
X110033368Y-88670311D01*
X110054446Y-88666238D01*
X110075820Y-88664250D01*
X110097287Y-88664367D01*
G37*
G36*
X109558605Y-90144383D02*
G01*
X109579957Y-90146604D01*
X109600989Y-90150907D01*
X109621497Y-90157250D01*
X110103089Y-90332535D01*
X110122877Y-90340858D01*
X110141754Y-90351081D01*
X110159538Y-90363105D01*
X110176057Y-90376814D01*
X110191154Y-90392076D01*
X110204682Y-90408744D01*
X110216511Y-90426658D01*
X110226527Y-90445645D01*
X110234634Y-90465523D01*
X110240753Y-90486099D01*
X110244826Y-90507176D01*
X110246814Y-90528551D01*
X110246697Y-90550018D01*
X110244476Y-90571370D01*
X110240173Y-90592401D01*
X110233830Y-90612910D01*
X110084196Y-91024025D01*
X110075873Y-91043813D01*
X110065650Y-91062690D01*
X110053626Y-91080474D01*
X110039917Y-91096993D01*
X110024655Y-91112090D01*
X110007987Y-91125618D01*
X109990073Y-91137447D01*
X109971086Y-91147463D01*
X109951208Y-91155570D01*
X109930632Y-91161689D01*
X109909554Y-91165762D01*
X109888180Y-91167750D01*
X109866713Y-91167633D01*
X109845361Y-91165412D01*
X109824329Y-91161109D01*
X109803821Y-91154766D01*
X109322229Y-90979481D01*
X109302441Y-90971158D01*
X109283564Y-90960935D01*
X109265780Y-90948911D01*
X109249261Y-90935202D01*
X109234164Y-90919940D01*
X109220636Y-90903272D01*
X109208807Y-90885358D01*
X109198791Y-90866371D01*
X109190684Y-90846493D01*
X109184565Y-90825917D01*
X109180492Y-90804840D01*
X109178504Y-90783465D01*
X109178621Y-90761998D01*
X109180842Y-90740646D01*
X109185145Y-90719615D01*
X109191488Y-90699106D01*
X109341122Y-90287991D01*
X109349445Y-90268203D01*
X109359668Y-90249326D01*
X109371692Y-90231542D01*
X109385401Y-90215023D01*
X109400663Y-90199926D01*
X109417331Y-90186398D01*
X109435245Y-90174569D01*
X109454232Y-90164553D01*
X109474110Y-90156446D01*
X109494686Y-90150327D01*
X109515764Y-90146254D01*
X109537138Y-90144266D01*
X109558605Y-90144383D01*
G37*
G36*
X94244279Y-94521708D02*
G01*
X94265631Y-94523929D01*
X94286663Y-94528232D01*
X94307171Y-94534575D01*
X94788763Y-94709860D01*
X94808551Y-94718183D01*
X94827428Y-94728406D01*
X94845212Y-94740430D01*
X94861731Y-94754139D01*
X94876828Y-94769401D01*
X94890356Y-94786069D01*
X94902185Y-94803983D01*
X94912201Y-94822970D01*
X94920308Y-94842848D01*
X94926427Y-94863424D01*
X94930500Y-94884501D01*
X94932488Y-94905876D01*
X94932371Y-94927343D01*
X94930150Y-94948695D01*
X94925847Y-94969726D01*
X94919504Y-94990235D01*
X94769870Y-95401350D01*
X94761547Y-95421138D01*
X94751324Y-95440015D01*
X94739300Y-95457799D01*
X94725591Y-95474318D01*
X94710329Y-95489415D01*
X94693661Y-95502943D01*
X94675747Y-95514772D01*
X94656760Y-95524788D01*
X94636882Y-95532895D01*
X94616306Y-95539014D01*
X94595228Y-95543087D01*
X94573854Y-95545075D01*
X94552387Y-95544958D01*
X94531035Y-95542737D01*
X94510003Y-95538434D01*
X94489495Y-95532091D01*
X94007903Y-95356806D01*
X93988115Y-95348483D01*
X93969238Y-95338260D01*
X93951454Y-95326236D01*
X93934935Y-95312527D01*
X93919838Y-95297265D01*
X93906310Y-95280597D01*
X93894481Y-95262683D01*
X93884465Y-95243696D01*
X93876358Y-95223818D01*
X93870239Y-95203242D01*
X93866166Y-95182165D01*
X93864178Y-95160790D01*
X93864295Y-95139323D01*
X93866516Y-95117971D01*
X93870819Y-95096940D01*
X93877162Y-95076431D01*
X94026796Y-94665316D01*
X94035119Y-94645528D01*
X94045342Y-94626651D01*
X94057366Y-94608867D01*
X94071075Y-94592348D01*
X94086337Y-94577251D01*
X94103005Y-94563723D01*
X94120919Y-94551894D01*
X94139906Y-94541878D01*
X94159784Y-94533771D01*
X94180360Y-94527652D01*
X94201438Y-94523579D01*
X94222812Y-94521591D01*
X94244279Y-94521708D01*
G37*
G36*
X93705597Y-96001724D02*
G01*
X93726949Y-96003945D01*
X93747981Y-96008248D01*
X93768489Y-96014591D01*
X94250081Y-96189876D01*
X94269869Y-96198199D01*
X94288746Y-96208422D01*
X94306530Y-96220446D01*
X94323049Y-96234155D01*
X94338146Y-96249417D01*
X94351674Y-96266085D01*
X94363503Y-96283999D01*
X94373519Y-96302986D01*
X94381626Y-96322864D01*
X94387745Y-96343440D01*
X94391818Y-96364517D01*
X94393806Y-96385892D01*
X94393689Y-96407359D01*
X94391468Y-96428711D01*
X94387165Y-96449742D01*
X94380822Y-96470251D01*
X94231188Y-96881366D01*
X94222865Y-96901154D01*
X94212642Y-96920031D01*
X94200618Y-96937815D01*
X94186909Y-96954334D01*
X94171647Y-96969431D01*
X94154979Y-96982959D01*
X94137065Y-96994788D01*
X94118078Y-97004804D01*
X94098200Y-97012911D01*
X94077624Y-97019030D01*
X94056546Y-97023103D01*
X94035172Y-97025091D01*
X94013705Y-97024974D01*
X93992353Y-97022753D01*
X93971321Y-97018450D01*
X93950813Y-97012107D01*
X93469221Y-96836822D01*
X93449433Y-96828499D01*
X93430556Y-96818276D01*
X93412772Y-96806252D01*
X93396253Y-96792543D01*
X93381156Y-96777281D01*
X93367628Y-96760613D01*
X93355799Y-96742699D01*
X93345783Y-96723712D01*
X93337676Y-96703834D01*
X93331557Y-96683258D01*
X93327484Y-96662181D01*
X93325496Y-96640806D01*
X93325613Y-96619339D01*
X93327834Y-96597987D01*
X93332137Y-96576956D01*
X93338480Y-96556447D01*
X93488114Y-96145332D01*
X93496437Y-96125544D01*
X93506660Y-96106667D01*
X93518684Y-96088883D01*
X93532393Y-96072364D01*
X93547655Y-96057267D01*
X93564323Y-96043739D01*
X93582237Y-96031910D01*
X93601224Y-96021894D01*
X93621102Y-96013787D01*
X93641678Y-96007668D01*
X93662756Y-96003595D01*
X93684130Y-96001607D01*
X93705597Y-96001724D01*
G37*
G36*
X106437691Y-99094053D02*
G01*
X106458926Y-99097203D01*
X106479750Y-99102419D01*
X106499962Y-99109651D01*
X106519368Y-99118830D01*
X106537781Y-99129866D01*
X106555024Y-99142654D01*
X106570930Y-99157070D01*
X106585346Y-99172976D01*
X106598134Y-99190219D01*
X106609170Y-99208632D01*
X106618349Y-99228038D01*
X106625581Y-99248250D01*
X106630797Y-99269074D01*
X106633947Y-99290309D01*
X106635000Y-99311750D01*
X106635000Y-99824250D01*
X106633947Y-99845691D01*
X106630797Y-99866926D01*
X106625581Y-99887750D01*
X106618349Y-99907962D01*
X106609170Y-99927368D01*
X106598134Y-99945781D01*
X106585346Y-99963024D01*
X106570930Y-99978930D01*
X106555024Y-99993346D01*
X106537781Y-100006134D01*
X106519368Y-100017170D01*
X106499962Y-100026349D01*
X106479750Y-100033581D01*
X106458926Y-100038797D01*
X106437691Y-100041947D01*
X106416250Y-100043000D01*
X105978750Y-100043000D01*
X105957309Y-100041947D01*
X105936074Y-100038797D01*
X105915250Y-100033581D01*
X105895038Y-100026349D01*
X105875632Y-100017170D01*
X105857219Y-100006134D01*
X105839976Y-99993346D01*
X105824070Y-99978930D01*
X105809654Y-99963024D01*
X105796866Y-99945781D01*
X105785830Y-99927368D01*
X105776651Y-99907962D01*
X105769419Y-99887750D01*
X105764203Y-99866926D01*
X105761053Y-99845691D01*
X105760000Y-99824250D01*
X105760000Y-99311750D01*
X105761053Y-99290309D01*
X105764203Y-99269074D01*
X105769419Y-99248250D01*
X105776651Y-99228038D01*
X105785830Y-99208632D01*
X105796866Y-99190219D01*
X105809654Y-99172976D01*
X105824070Y-99157070D01*
X105839976Y-99142654D01*
X105857219Y-99129866D01*
X105875632Y-99118830D01*
X105895038Y-99109651D01*
X105915250Y-99102419D01*
X105936074Y-99097203D01*
X105957309Y-99094053D01*
X105978750Y-99093000D01*
X106416250Y-99093000D01*
X106437691Y-99094053D01*
G37*
G36*
X104862691Y-99094053D02*
G01*
X104883926Y-99097203D01*
X104904750Y-99102419D01*
X104924962Y-99109651D01*
X104944368Y-99118830D01*
X104962781Y-99129866D01*
X104980024Y-99142654D01*
X104995930Y-99157070D01*
X105010346Y-99172976D01*
X105023134Y-99190219D01*
X105034170Y-99208632D01*
X105043349Y-99228038D01*
X105050581Y-99248250D01*
X105055797Y-99269074D01*
X105058947Y-99290309D01*
X105060000Y-99311750D01*
X105060000Y-99824250D01*
X105058947Y-99845691D01*
X105055797Y-99866926D01*
X105050581Y-99887750D01*
X105043349Y-99907962D01*
X105034170Y-99927368D01*
X105023134Y-99945781D01*
X105010346Y-99963024D01*
X104995930Y-99978930D01*
X104980024Y-99993346D01*
X104962781Y-100006134D01*
X104944368Y-100017170D01*
X104924962Y-100026349D01*
X104904750Y-100033581D01*
X104883926Y-100038797D01*
X104862691Y-100041947D01*
X104841250Y-100043000D01*
X104403750Y-100043000D01*
X104382309Y-100041947D01*
X104361074Y-100038797D01*
X104340250Y-100033581D01*
X104320038Y-100026349D01*
X104300632Y-100017170D01*
X104282219Y-100006134D01*
X104264976Y-99993346D01*
X104249070Y-99978930D01*
X104234654Y-99963024D01*
X104221866Y-99945781D01*
X104210830Y-99927368D01*
X104201651Y-99907962D01*
X104194419Y-99887750D01*
X104189203Y-99866926D01*
X104186053Y-99845691D01*
X104185000Y-99824250D01*
X104185000Y-99311750D01*
X104186053Y-99290309D01*
X104189203Y-99269074D01*
X104194419Y-99248250D01*
X104201651Y-99228038D01*
X104210830Y-99208632D01*
X104221866Y-99190219D01*
X104234654Y-99172976D01*
X104249070Y-99157070D01*
X104264976Y-99142654D01*
X104282219Y-99129866D01*
X104300632Y-99118830D01*
X104320038Y-99109651D01*
X104340250Y-99102419D01*
X104361074Y-99097203D01*
X104382309Y-99094053D01*
X104403750Y-99093000D01*
X104841250Y-99093000D01*
X104862691Y-99094053D01*
G37*
G36*
X146188692Y-156625053D02*
G01*
X146209927Y-156628203D01*
X146230751Y-156633419D01*
X146250963Y-156640651D01*
X146270369Y-156649830D01*
X146288782Y-156660866D01*
X146306025Y-156673654D01*
X146321931Y-156688070D01*
X146336347Y-156703976D01*
X146349135Y-156721219D01*
X146360171Y-156739632D01*
X146369350Y-156759038D01*
X146376582Y-156779250D01*
X146381798Y-156800074D01*
X146384948Y-156821309D01*
X146386001Y-156842750D01*
X146386001Y-157355250D01*
X146384948Y-157376691D01*
X146381798Y-157397926D01*
X146376582Y-157418750D01*
X146369350Y-157438962D01*
X146360171Y-157458368D01*
X146349135Y-157476781D01*
X146336347Y-157494024D01*
X146321931Y-157509930D01*
X146306025Y-157524346D01*
X146288782Y-157537134D01*
X146270369Y-157548170D01*
X146250963Y-157557349D01*
X146230751Y-157564581D01*
X146209927Y-157569797D01*
X146188692Y-157572947D01*
X146167251Y-157574000D01*
X145729751Y-157574000D01*
X145708310Y-157572947D01*
X145687075Y-157569797D01*
X145666251Y-157564581D01*
X145646039Y-157557349D01*
X145626633Y-157548170D01*
X145608220Y-157537134D01*
X145590977Y-157524346D01*
X145575071Y-157509930D01*
X145560655Y-157494024D01*
X145547867Y-157476781D01*
X145536831Y-157458368D01*
X145527652Y-157438962D01*
X145520420Y-157418750D01*
X145515204Y-157397926D01*
X145512054Y-157376691D01*
X145511001Y-157355250D01*
X145511001Y-156842750D01*
X145512054Y-156821309D01*
X145515204Y-156800074D01*
X145520420Y-156779250D01*
X145527652Y-156759038D01*
X145536831Y-156739632D01*
X145547867Y-156721219D01*
X145560655Y-156703976D01*
X145575071Y-156688070D01*
X145590977Y-156673654D01*
X145608220Y-156660866D01*
X145626633Y-156649830D01*
X145646039Y-156640651D01*
X145666251Y-156633419D01*
X145687075Y-156628203D01*
X145708310Y-156625053D01*
X145729751Y-156624000D01*
X146167251Y-156624000D01*
X146188692Y-156625053D01*
G37*
G36*
X144613690Y-156625053D02*
G01*
X144634925Y-156628203D01*
X144655749Y-156633419D01*
X144675961Y-156640651D01*
X144695367Y-156649830D01*
X144713780Y-156660866D01*
X144731023Y-156673654D01*
X144746929Y-156688070D01*
X144761345Y-156703976D01*
X144774133Y-156721219D01*
X144785169Y-156739632D01*
X144794348Y-156759038D01*
X144801580Y-156779250D01*
X144806796Y-156800074D01*
X144809946Y-156821309D01*
X144810999Y-156842750D01*
X144810999Y-157355250D01*
X144809946Y-157376691D01*
X144806796Y-157397926D01*
X144801580Y-157418750D01*
X144794348Y-157438962D01*
X144785169Y-157458368D01*
X144774133Y-157476781D01*
X144761345Y-157494024D01*
X144746929Y-157509930D01*
X144731023Y-157524346D01*
X144713780Y-157537134D01*
X144695367Y-157548170D01*
X144675961Y-157557349D01*
X144655749Y-157564581D01*
X144634925Y-157569797D01*
X144613690Y-157572947D01*
X144592249Y-157574000D01*
X144154749Y-157574000D01*
X144133308Y-157572947D01*
X144112073Y-157569797D01*
X144091249Y-157564581D01*
X144071037Y-157557349D01*
X144051631Y-157548170D01*
X144033218Y-157537134D01*
X144015975Y-157524346D01*
X144000069Y-157509930D01*
X143985653Y-157494024D01*
X143972865Y-157476781D01*
X143961829Y-157458368D01*
X143952650Y-157438962D01*
X143945418Y-157418750D01*
X143940202Y-157397926D01*
X143937052Y-157376691D01*
X143935999Y-157355250D01*
X143935999Y-156842750D01*
X143937052Y-156821309D01*
X143940202Y-156800074D01*
X143945418Y-156779250D01*
X143952650Y-156759038D01*
X143961829Y-156739632D01*
X143972865Y-156721219D01*
X143985653Y-156703976D01*
X144000069Y-156688070D01*
X144015975Y-156673654D01*
X144033218Y-156660866D01*
X144051631Y-156649830D01*
X144071037Y-156640651D01*
X144091249Y-156633419D01*
X144112073Y-156628203D01*
X144133308Y-156625053D01*
X144154749Y-156624000D01*
X144592249Y-156624000D01*
X144613690Y-156625053D01*
G37*
G36*
X107543884Y-117439886D02*
G01*
X107565236Y-117442107D01*
X107586268Y-117446410D01*
X107606776Y-117452753D01*
X107626564Y-117461077D01*
X107645441Y-117471299D01*
X107663225Y-117483323D01*
X107679745Y-117497032D01*
X107694841Y-117512294D01*
X107708369Y-117528962D01*
X107720198Y-117546876D01*
X107730214Y-117565863D01*
X107946806Y-118030346D01*
X107954913Y-118050224D01*
X107961032Y-118070800D01*
X107965105Y-118091877D01*
X107967093Y-118113252D01*
X107966976Y-118134719D01*
X107964755Y-118156071D01*
X107960452Y-118177102D01*
X107954109Y-118197611D01*
X107945786Y-118217399D01*
X107935563Y-118236276D01*
X107923539Y-118254060D01*
X107909830Y-118270579D01*
X107894568Y-118285676D01*
X107877900Y-118299204D01*
X107859986Y-118311033D01*
X107840998Y-118321049D01*
X107444488Y-118505944D01*
X107424611Y-118514051D01*
X107404035Y-118520170D01*
X107382957Y-118524243D01*
X107361582Y-118526231D01*
X107340116Y-118526114D01*
X107318764Y-118523893D01*
X107297732Y-118519590D01*
X107277224Y-118513247D01*
X107257436Y-118504923D01*
X107238559Y-118494701D01*
X107220775Y-118482677D01*
X107204255Y-118468968D01*
X107189159Y-118453706D01*
X107175631Y-118437038D01*
X107163802Y-118419124D01*
X107153786Y-118400137D01*
X106937194Y-117935654D01*
X106929087Y-117915776D01*
X106922968Y-117895200D01*
X106918895Y-117874123D01*
X106916907Y-117852748D01*
X106917024Y-117831281D01*
X106919245Y-117809929D01*
X106923548Y-117788898D01*
X106929891Y-117768389D01*
X106938214Y-117748601D01*
X106948437Y-117729724D01*
X106960461Y-117711940D01*
X106974170Y-117695421D01*
X106989432Y-117680324D01*
X107006100Y-117666796D01*
X107024014Y-117654967D01*
X107043002Y-117644951D01*
X107439512Y-117460056D01*
X107459389Y-117451949D01*
X107479965Y-117445830D01*
X107501043Y-117441757D01*
X107522418Y-117439769D01*
X107543884Y-117439886D01*
G37*
G36*
X106116450Y-118105510D02*
G01*
X106137802Y-118107731D01*
X106158834Y-118112034D01*
X106179342Y-118118377D01*
X106199130Y-118126701D01*
X106218007Y-118136923D01*
X106235791Y-118148947D01*
X106252311Y-118162656D01*
X106267407Y-118177918D01*
X106280935Y-118194586D01*
X106292764Y-118212500D01*
X106302780Y-118231487D01*
X106519372Y-118695970D01*
X106527479Y-118715848D01*
X106533598Y-118736424D01*
X106537671Y-118757501D01*
X106539659Y-118778876D01*
X106539542Y-118800343D01*
X106537321Y-118821695D01*
X106533018Y-118842726D01*
X106526675Y-118863235D01*
X106518352Y-118883023D01*
X106508129Y-118901900D01*
X106496105Y-118919684D01*
X106482396Y-118936203D01*
X106467134Y-118951300D01*
X106450466Y-118964828D01*
X106432552Y-118976657D01*
X106413564Y-118986673D01*
X106017054Y-119171568D01*
X105997177Y-119179675D01*
X105976601Y-119185794D01*
X105955523Y-119189867D01*
X105934148Y-119191855D01*
X105912682Y-119191738D01*
X105891330Y-119189517D01*
X105870298Y-119185214D01*
X105849790Y-119178871D01*
X105830002Y-119170547D01*
X105811125Y-119160325D01*
X105793341Y-119148301D01*
X105776821Y-119134592D01*
X105761725Y-119119330D01*
X105748197Y-119102662D01*
X105736368Y-119084748D01*
X105726352Y-119065761D01*
X105509760Y-118601278D01*
X105501653Y-118581400D01*
X105495534Y-118560824D01*
X105491461Y-118539747D01*
X105489473Y-118518372D01*
X105489590Y-118496905D01*
X105491811Y-118475553D01*
X105496114Y-118454522D01*
X105502457Y-118434013D01*
X105510780Y-118414225D01*
X105521003Y-118395348D01*
X105533027Y-118377564D01*
X105546736Y-118361045D01*
X105561998Y-118345948D01*
X105578666Y-118332420D01*
X105596580Y-118320591D01*
X105615568Y-118310575D01*
X106012078Y-118125680D01*
X106031955Y-118117573D01*
X106052531Y-118111454D01*
X106073609Y-118107381D01*
X106094984Y-118105393D01*
X106116450Y-118105510D01*
G37*
G36*
X119125018Y-117083303D02*
G01*
X119146370Y-117085524D01*
X119167401Y-117089827D01*
X119187910Y-117096170D01*
X119599025Y-117245804D01*
X119618813Y-117254127D01*
X119637690Y-117264350D01*
X119655474Y-117276374D01*
X119671993Y-117290083D01*
X119687090Y-117305345D01*
X119700618Y-117322013D01*
X119712447Y-117339927D01*
X119722463Y-117358914D01*
X119730570Y-117378792D01*
X119736689Y-117399368D01*
X119740762Y-117420446D01*
X119742750Y-117441820D01*
X119742633Y-117463287D01*
X119740412Y-117484639D01*
X119736109Y-117505671D01*
X119729766Y-117526179D01*
X119554481Y-118007771D01*
X119546158Y-118027559D01*
X119535935Y-118046436D01*
X119523911Y-118064220D01*
X119510202Y-118080739D01*
X119494940Y-118095836D01*
X119478272Y-118109364D01*
X119460358Y-118121193D01*
X119441371Y-118131209D01*
X119421493Y-118139316D01*
X119400917Y-118145435D01*
X119379840Y-118149508D01*
X119358465Y-118151496D01*
X119336998Y-118151379D01*
X119315646Y-118149158D01*
X119294615Y-118144855D01*
X119274106Y-118138512D01*
X118862991Y-117988878D01*
X118843203Y-117980555D01*
X118824326Y-117970332D01*
X118806542Y-117958308D01*
X118790023Y-117944599D01*
X118774926Y-117929337D01*
X118761398Y-117912669D01*
X118749569Y-117894755D01*
X118739553Y-117875768D01*
X118731446Y-117855890D01*
X118725327Y-117835314D01*
X118721254Y-117814236D01*
X118719266Y-117792862D01*
X118719383Y-117771395D01*
X118721604Y-117750043D01*
X118725907Y-117729011D01*
X118732250Y-117708503D01*
X118907535Y-117226911D01*
X118915858Y-117207123D01*
X118926081Y-117188246D01*
X118938105Y-117170462D01*
X118951814Y-117153943D01*
X118967076Y-117138846D01*
X118983744Y-117125318D01*
X119001658Y-117113489D01*
X119020645Y-117103473D01*
X119040523Y-117095366D01*
X119061099Y-117089247D01*
X119082176Y-117085174D01*
X119103551Y-117083186D01*
X119125018Y-117083303D01*
G37*
G36*
X117645002Y-116544621D02*
G01*
X117666354Y-116546842D01*
X117687385Y-116551145D01*
X117707894Y-116557488D01*
X118119009Y-116707122D01*
X118138797Y-116715445D01*
X118157674Y-116725668D01*
X118175458Y-116737692D01*
X118191977Y-116751401D01*
X118207074Y-116766663D01*
X118220602Y-116783331D01*
X118232431Y-116801245D01*
X118242447Y-116820232D01*
X118250554Y-116840110D01*
X118256673Y-116860686D01*
X118260746Y-116881764D01*
X118262734Y-116903138D01*
X118262617Y-116924605D01*
X118260396Y-116945957D01*
X118256093Y-116966989D01*
X118249750Y-116987497D01*
X118074465Y-117469089D01*
X118066142Y-117488877D01*
X118055919Y-117507754D01*
X118043895Y-117525538D01*
X118030186Y-117542057D01*
X118014924Y-117557154D01*
X117998256Y-117570682D01*
X117980342Y-117582511D01*
X117961355Y-117592527D01*
X117941477Y-117600634D01*
X117920901Y-117606753D01*
X117899824Y-117610826D01*
X117878449Y-117612814D01*
X117856982Y-117612697D01*
X117835630Y-117610476D01*
X117814599Y-117606173D01*
X117794090Y-117599830D01*
X117382975Y-117450196D01*
X117363187Y-117441873D01*
X117344310Y-117431650D01*
X117326526Y-117419626D01*
X117310007Y-117405917D01*
X117294910Y-117390655D01*
X117281382Y-117373987D01*
X117269553Y-117356073D01*
X117259537Y-117337086D01*
X117251430Y-117317208D01*
X117245311Y-117296632D01*
X117241238Y-117275554D01*
X117239250Y-117254180D01*
X117239367Y-117232713D01*
X117241588Y-117211361D01*
X117245891Y-117190329D01*
X117252234Y-117169821D01*
X117427519Y-116688229D01*
X117435842Y-116668441D01*
X117446065Y-116649564D01*
X117458089Y-116631780D01*
X117471798Y-116615261D01*
X117487060Y-116600164D01*
X117503728Y-116586636D01*
X117521642Y-116574807D01*
X117540629Y-116564791D01*
X117560507Y-116556684D01*
X117581083Y-116550565D01*
X117602160Y-116546492D01*
X117623535Y-116544504D01*
X117645002Y-116544621D01*
G37*
G36*
X88480568Y-111464062D02*
G01*
X88501866Y-111466748D01*
X89006580Y-111555743D01*
X89027512Y-111560504D01*
X89047877Y-111567293D01*
X89067479Y-111576046D01*
X89086128Y-111586678D01*
X89103646Y-111599087D01*
X89119863Y-111613153D01*
X89134623Y-111628741D01*
X89147784Y-111645700D01*
X89159219Y-111663868D01*
X89168818Y-111683069D01*
X89176490Y-111703119D01*
X89182159Y-111723824D01*
X89185771Y-111744985D01*
X89187292Y-111766398D01*
X89186707Y-111787857D01*
X89184021Y-111809156D01*
X89108049Y-112240009D01*
X89103288Y-112260942D01*
X89096499Y-112281307D01*
X89087746Y-112300908D01*
X89077114Y-112319558D01*
X89064705Y-112337075D01*
X89050639Y-112353292D01*
X89035051Y-112368052D01*
X89018091Y-112381213D01*
X88999924Y-112392648D01*
X88980722Y-112402248D01*
X88960673Y-112409919D01*
X88939968Y-112415588D01*
X88918807Y-112419200D01*
X88897394Y-112420721D01*
X88875934Y-112420136D01*
X88854636Y-112417450D01*
X88349922Y-112328455D01*
X88328990Y-112323694D01*
X88308625Y-112316905D01*
X88289023Y-112308152D01*
X88270374Y-112297520D01*
X88252856Y-112285111D01*
X88236639Y-112271045D01*
X88221879Y-112255457D01*
X88208718Y-112238498D01*
X88197283Y-112220330D01*
X88187684Y-112201129D01*
X88180012Y-112181079D01*
X88174343Y-112160374D01*
X88170731Y-112139213D01*
X88169210Y-112117800D01*
X88169795Y-112096341D01*
X88172481Y-112075042D01*
X88248453Y-111644189D01*
X88253214Y-111623256D01*
X88260003Y-111602891D01*
X88268756Y-111583290D01*
X88279388Y-111564640D01*
X88291797Y-111547123D01*
X88305863Y-111530906D01*
X88321451Y-111516146D01*
X88338411Y-111502985D01*
X88356578Y-111491550D01*
X88375780Y-111481950D01*
X88395829Y-111474279D01*
X88416534Y-111468610D01*
X88437695Y-111464998D01*
X88459108Y-111463477D01*
X88480568Y-111464062D01*
G37*
G36*
X88207072Y-113015134D02*
G01*
X88228370Y-113017820D01*
X88733084Y-113106815D01*
X88754016Y-113111576D01*
X88774381Y-113118365D01*
X88793983Y-113127118D01*
X88812632Y-113137750D01*
X88830150Y-113150159D01*
X88846367Y-113164225D01*
X88861127Y-113179813D01*
X88874288Y-113196772D01*
X88885723Y-113214940D01*
X88895322Y-113234141D01*
X88902994Y-113254191D01*
X88908663Y-113274896D01*
X88912275Y-113296057D01*
X88913796Y-113317470D01*
X88913211Y-113338929D01*
X88910525Y-113360228D01*
X88834553Y-113791081D01*
X88829792Y-113812014D01*
X88823003Y-113832379D01*
X88814250Y-113851980D01*
X88803618Y-113870630D01*
X88791209Y-113888147D01*
X88777143Y-113904364D01*
X88761555Y-113919124D01*
X88744595Y-113932285D01*
X88726428Y-113943720D01*
X88707226Y-113953320D01*
X88687177Y-113960991D01*
X88666472Y-113966660D01*
X88645311Y-113970272D01*
X88623898Y-113971793D01*
X88602438Y-113971208D01*
X88581140Y-113968522D01*
X88076426Y-113879527D01*
X88055494Y-113874766D01*
X88035129Y-113867977D01*
X88015527Y-113859224D01*
X87996878Y-113848592D01*
X87979360Y-113836183D01*
X87963143Y-113822117D01*
X87948383Y-113806529D01*
X87935222Y-113789570D01*
X87923787Y-113771402D01*
X87914188Y-113752201D01*
X87906516Y-113732151D01*
X87900847Y-113711446D01*
X87897235Y-113690285D01*
X87895714Y-113668872D01*
X87896299Y-113647413D01*
X87898985Y-113626114D01*
X87974957Y-113195261D01*
X87979718Y-113174328D01*
X87986507Y-113153963D01*
X87995260Y-113134362D01*
X88005892Y-113115712D01*
X88018301Y-113098195D01*
X88032367Y-113081978D01*
X88047955Y-113067218D01*
X88064915Y-113054057D01*
X88083082Y-113042622D01*
X88102284Y-113033022D01*
X88122333Y-113025351D01*
X88143038Y-113019682D01*
X88164199Y-113016070D01*
X88185612Y-113014549D01*
X88207072Y-113015134D01*
G37*
G36*
X118756691Y-102269053D02*
G01*
X118777926Y-102272203D01*
X118798750Y-102277419D01*
X118818962Y-102284651D01*
X118838368Y-102293830D01*
X118856781Y-102304866D01*
X118874024Y-102317654D01*
X118889930Y-102332070D01*
X118904346Y-102347976D01*
X118917134Y-102365219D01*
X118928170Y-102383632D01*
X118937349Y-102403038D01*
X118944581Y-102423250D01*
X118949797Y-102444074D01*
X118952947Y-102465309D01*
X118954000Y-102486750D01*
X118954000Y-102999250D01*
X118952947Y-103020691D01*
X118949797Y-103041926D01*
X118944581Y-103062750D01*
X118937349Y-103082962D01*
X118928170Y-103102368D01*
X118917134Y-103120781D01*
X118904346Y-103138024D01*
X118889930Y-103153930D01*
X118874024Y-103168346D01*
X118856781Y-103181134D01*
X118838368Y-103192170D01*
X118818962Y-103201349D01*
X118798750Y-103208581D01*
X118777926Y-103213797D01*
X118756691Y-103216947D01*
X118735250Y-103218000D01*
X118297750Y-103218000D01*
X118276309Y-103216947D01*
X118255074Y-103213797D01*
X118234250Y-103208581D01*
X118214038Y-103201349D01*
X118194632Y-103192170D01*
X118176219Y-103181134D01*
X118158976Y-103168346D01*
X118143070Y-103153930D01*
X118128654Y-103138024D01*
X118115866Y-103120781D01*
X118104830Y-103102368D01*
X118095651Y-103082962D01*
X118088419Y-103062750D01*
X118083203Y-103041926D01*
X118080053Y-103020691D01*
X118079000Y-102999250D01*
X118079000Y-102486750D01*
X118080053Y-102465309D01*
X118083203Y-102444074D01*
X118088419Y-102423250D01*
X118095651Y-102403038D01*
X118104830Y-102383632D01*
X118115866Y-102365219D01*
X118128654Y-102347976D01*
X118143070Y-102332070D01*
X118158976Y-102317654D01*
X118176219Y-102304866D01*
X118194632Y-102293830D01*
X118214038Y-102284651D01*
X118234250Y-102277419D01*
X118255074Y-102272203D01*
X118276309Y-102269053D01*
X118297750Y-102268000D01*
X118735250Y-102268000D01*
X118756691Y-102269053D01*
G37*
G36*
X117181691Y-102269053D02*
G01*
X117202926Y-102272203D01*
X117223750Y-102277419D01*
X117243962Y-102284651D01*
X117263368Y-102293830D01*
X117281781Y-102304866D01*
X117299024Y-102317654D01*
X117314930Y-102332070D01*
X117329346Y-102347976D01*
X117342134Y-102365219D01*
X117353170Y-102383632D01*
X117362349Y-102403038D01*
X117369581Y-102423250D01*
X117374797Y-102444074D01*
X117377947Y-102465309D01*
X117379000Y-102486750D01*
X117379000Y-102999250D01*
X117377947Y-103020691D01*
X117374797Y-103041926D01*
X117369581Y-103062750D01*
X117362349Y-103082962D01*
X117353170Y-103102368D01*
X117342134Y-103120781D01*
X117329346Y-103138024D01*
X117314930Y-103153930D01*
X117299024Y-103168346D01*
X117281781Y-103181134D01*
X117263368Y-103192170D01*
X117243962Y-103201349D01*
X117223750Y-103208581D01*
X117202926Y-103213797D01*
X117181691Y-103216947D01*
X117160250Y-103218000D01*
X116722750Y-103218000D01*
X116701309Y-103216947D01*
X116680074Y-103213797D01*
X116659250Y-103208581D01*
X116639038Y-103201349D01*
X116619632Y-103192170D01*
X116601219Y-103181134D01*
X116583976Y-103168346D01*
X116568070Y-103153930D01*
X116553654Y-103138024D01*
X116540866Y-103120781D01*
X116529830Y-103102368D01*
X116520651Y-103082962D01*
X116513419Y-103062750D01*
X116508203Y-103041926D01*
X116505053Y-103020691D01*
X116504000Y-102999250D01*
X116504000Y-102486750D01*
X116505053Y-102465309D01*
X116508203Y-102444074D01*
X116513419Y-102423250D01*
X116520651Y-102403038D01*
X116529830Y-102383632D01*
X116540866Y-102365219D01*
X116553654Y-102347976D01*
X116568070Y-102332070D01*
X116583976Y-102317654D01*
X116601219Y-102304866D01*
X116619632Y-102293830D01*
X116639038Y-102284651D01*
X116659250Y-102277419D01*
X116680074Y-102272203D01*
X116701309Y-102269053D01*
X116722750Y-102268000D01*
X117160250Y-102268000D01*
X117181691Y-102269053D01*
G37*
G36*
X154199504Y-192801204D02*
G01*
X154223773Y-192804804D01*
X154247571Y-192810765D01*
X154270671Y-192819030D01*
X154292849Y-192829520D01*
X154313893Y-192842133D01*
X154333598Y-192856747D01*
X154351777Y-192873223D01*
X154368253Y-192891402D01*
X154382867Y-192911107D01*
X154395480Y-192932151D01*
X154405970Y-192954329D01*
X154414235Y-192977429D01*
X154420196Y-193001227D01*
X154423796Y-193025496D01*
X154425000Y-193050000D01*
X154425000Y-194300000D01*
X154423796Y-194324504D01*
X154420196Y-194348773D01*
X154414235Y-194372571D01*
X154405970Y-194395671D01*
X154395480Y-194417849D01*
X154382867Y-194438893D01*
X154368253Y-194458598D01*
X154351777Y-194476777D01*
X154333598Y-194493253D01*
X154313893Y-194507867D01*
X154292849Y-194520480D01*
X154270671Y-194530970D01*
X154247571Y-194539235D01*
X154223773Y-194545196D01*
X154199504Y-194548796D01*
X154175000Y-194550000D01*
X153425000Y-194550000D01*
X153400496Y-194548796D01*
X153376227Y-194545196D01*
X153352429Y-194539235D01*
X153329329Y-194530970D01*
X153307151Y-194520480D01*
X153286107Y-194507867D01*
X153266402Y-194493253D01*
X153248223Y-194476777D01*
X153231747Y-194458598D01*
X153217133Y-194438893D01*
X153204520Y-194417849D01*
X153194030Y-194395671D01*
X153185765Y-194372571D01*
X153179804Y-194348773D01*
X153176204Y-194324504D01*
X153175000Y-194300000D01*
X153175000Y-193050000D01*
X153176204Y-193025496D01*
X153179804Y-193001227D01*
X153185765Y-192977429D01*
X153194030Y-192954329D01*
X153204520Y-192932151D01*
X153217133Y-192911107D01*
X153231747Y-192891402D01*
X153248223Y-192873223D01*
X153266402Y-192856747D01*
X153286107Y-192842133D01*
X153307151Y-192829520D01*
X153329329Y-192819030D01*
X153352429Y-192810765D01*
X153376227Y-192804804D01*
X153400496Y-192801204D01*
X153425000Y-192800000D01*
X154175000Y-192800000D01*
X154199504Y-192801204D01*
G37*
G36*
X151399504Y-192801204D02*
G01*
X151423773Y-192804804D01*
X151447571Y-192810765D01*
X151470671Y-192819030D01*
X151492849Y-192829520D01*
X151513893Y-192842133D01*
X151533598Y-192856747D01*
X151551777Y-192873223D01*
X151568253Y-192891402D01*
X151582867Y-192911107D01*
X151595480Y-192932151D01*
X151605970Y-192954329D01*
X151614235Y-192977429D01*
X151620196Y-193001227D01*
X151623796Y-193025496D01*
X151625000Y-193050000D01*
X151625000Y-194300000D01*
X151623796Y-194324504D01*
X151620196Y-194348773D01*
X151614235Y-194372571D01*
X151605970Y-194395671D01*
X151595480Y-194417849D01*
X151582867Y-194438893D01*
X151568253Y-194458598D01*
X151551777Y-194476777D01*
X151533598Y-194493253D01*
X151513893Y-194507867D01*
X151492849Y-194520480D01*
X151470671Y-194530970D01*
X151447571Y-194539235D01*
X151423773Y-194545196D01*
X151399504Y-194548796D01*
X151375000Y-194550000D01*
X150625000Y-194550000D01*
X150600496Y-194548796D01*
X150576227Y-194545196D01*
X150552429Y-194539235D01*
X150529329Y-194530970D01*
X150507151Y-194520480D01*
X150486107Y-194507867D01*
X150466402Y-194493253D01*
X150448223Y-194476777D01*
X150431747Y-194458598D01*
X150417133Y-194438893D01*
X150404520Y-194417849D01*
X150394030Y-194395671D01*
X150385765Y-194372571D01*
X150379804Y-194348773D01*
X150376204Y-194324504D01*
X150375000Y-194300000D01*
X150375000Y-193050000D01*
X150376204Y-193025496D01*
X150379804Y-193001227D01*
X150385765Y-192977429D01*
X150394030Y-192954329D01*
X150404520Y-192932151D01*
X150417133Y-192911107D01*
X150431747Y-192891402D01*
X150448223Y-192873223D01*
X150466402Y-192856747D01*
X150486107Y-192842133D01*
X150507151Y-192829520D01*
X150529329Y-192819030D01*
X150552429Y-192810765D01*
X150576227Y-192804804D01*
X150600496Y-192801204D01*
X150625000Y-192800000D01*
X151375000Y-192800000D01*
X151399504Y-192801204D01*
G37*
M02*
