G04 #@! TF.GenerationSoftware,KiCad,Pcbnew,(5.1.5)-3*
G04 #@! TF.CreationDate,2020-02-08T22:35:01-06:00*
G04 #@! TF.ProjectId,tymkrs_Cyphercon_2020_coyote,74796d6b-7273-45f4-9379-70686572636f,V0*
G04 #@! TF.SameCoordinates,Original*
G04 #@! TF.FileFunction,Paste,Bot*
G04 #@! TF.FilePolarity,Positive*
%FSLAX46Y46*%
G04 Gerber Fmt 4.6, Leading zero omitted, Abs format (unit mm)*
G04 Created by KiCad (PCBNEW (5.1.5)-3) date 2020-02-08 22:35:01*
%MOMM*%
%LPD*%
G04 APERTURE LIST*
%ADD10C,0.100000*%
%ADD11R,1.550000X1.300000*%
%ADD12R,1.500000X0.300000*%
%ADD13R,0.300000X1.500000*%
%ADD14R,1.350000X1.350000*%
%ADD15R,2.600000X1.400000*%
%ADD16C,0.635000*%
%ADD17R,0.650000X1.060000*%
%ADD18O,1.700000X1.700000*%
%ADD19R,1.700000X1.700000*%
%ADD20R,0.800000X1.400000*%
%ADD21R,2.500000X1.800000*%
G04 APERTURE END LIST*
D10*
G36*
X105102703Y-110825722D02*
G01*
X105117264Y-110827882D01*
X105131543Y-110831459D01*
X105145403Y-110836418D01*
X105158710Y-110842712D01*
X105171336Y-110850280D01*
X105183159Y-110859048D01*
X105194066Y-110868934D01*
X105203952Y-110879841D01*
X105212720Y-110891664D01*
X105220288Y-110904290D01*
X105226582Y-110917597D01*
X105231541Y-110931457D01*
X105235118Y-110945736D01*
X105237278Y-110960297D01*
X105238000Y-110975000D01*
X105238000Y-111275000D01*
X105237278Y-111289703D01*
X105235118Y-111304264D01*
X105231541Y-111318543D01*
X105226582Y-111332403D01*
X105220288Y-111345710D01*
X105212720Y-111358336D01*
X105203952Y-111370159D01*
X105194066Y-111381066D01*
X105183159Y-111390952D01*
X105171336Y-111399720D01*
X105158710Y-111407288D01*
X105145403Y-111413582D01*
X105131543Y-111418541D01*
X105117264Y-111422118D01*
X105102703Y-111424278D01*
X105088000Y-111425000D01*
X103788000Y-111425000D01*
X103773297Y-111424278D01*
X103758736Y-111422118D01*
X103744457Y-111418541D01*
X103730597Y-111413582D01*
X103717290Y-111407288D01*
X103704664Y-111399720D01*
X103692841Y-111390952D01*
X103681934Y-111381066D01*
X103672048Y-111370159D01*
X103663280Y-111358336D01*
X103655712Y-111345710D01*
X103649418Y-111332403D01*
X103644459Y-111318543D01*
X103640882Y-111304264D01*
X103638722Y-111289703D01*
X103638000Y-111275000D01*
X103638000Y-110975000D01*
X103638722Y-110960297D01*
X103640882Y-110945736D01*
X103644459Y-110931457D01*
X103649418Y-110917597D01*
X103655712Y-110904290D01*
X103663280Y-110891664D01*
X103672048Y-110879841D01*
X103681934Y-110868934D01*
X103692841Y-110859048D01*
X103704664Y-110850280D01*
X103717290Y-110842712D01*
X103730597Y-110836418D01*
X103744457Y-110831459D01*
X103758736Y-110827882D01*
X103773297Y-110825722D01*
X103788000Y-110825000D01*
X105088000Y-110825000D01*
X105102703Y-110825722D01*
G37*
G36*
X105102703Y-109555722D02*
G01*
X105117264Y-109557882D01*
X105131543Y-109561459D01*
X105145403Y-109566418D01*
X105158710Y-109572712D01*
X105171336Y-109580280D01*
X105183159Y-109589048D01*
X105194066Y-109598934D01*
X105203952Y-109609841D01*
X105212720Y-109621664D01*
X105220288Y-109634290D01*
X105226582Y-109647597D01*
X105231541Y-109661457D01*
X105235118Y-109675736D01*
X105237278Y-109690297D01*
X105238000Y-109705000D01*
X105238000Y-110005000D01*
X105237278Y-110019703D01*
X105235118Y-110034264D01*
X105231541Y-110048543D01*
X105226582Y-110062403D01*
X105220288Y-110075710D01*
X105212720Y-110088336D01*
X105203952Y-110100159D01*
X105194066Y-110111066D01*
X105183159Y-110120952D01*
X105171336Y-110129720D01*
X105158710Y-110137288D01*
X105145403Y-110143582D01*
X105131543Y-110148541D01*
X105117264Y-110152118D01*
X105102703Y-110154278D01*
X105088000Y-110155000D01*
X103788000Y-110155000D01*
X103773297Y-110154278D01*
X103758736Y-110152118D01*
X103744457Y-110148541D01*
X103730597Y-110143582D01*
X103717290Y-110137288D01*
X103704664Y-110129720D01*
X103692841Y-110120952D01*
X103681934Y-110111066D01*
X103672048Y-110100159D01*
X103663280Y-110088336D01*
X103655712Y-110075710D01*
X103649418Y-110062403D01*
X103644459Y-110048543D01*
X103640882Y-110034264D01*
X103638722Y-110019703D01*
X103638000Y-110005000D01*
X103638000Y-109705000D01*
X103638722Y-109690297D01*
X103640882Y-109675736D01*
X103644459Y-109661457D01*
X103649418Y-109647597D01*
X103655712Y-109634290D01*
X103663280Y-109621664D01*
X103672048Y-109609841D01*
X103681934Y-109598934D01*
X103692841Y-109589048D01*
X103704664Y-109580280D01*
X103717290Y-109572712D01*
X103730597Y-109566418D01*
X103744457Y-109561459D01*
X103758736Y-109557882D01*
X103773297Y-109555722D01*
X103788000Y-109555000D01*
X105088000Y-109555000D01*
X105102703Y-109555722D01*
G37*
G36*
X105102703Y-108285722D02*
G01*
X105117264Y-108287882D01*
X105131543Y-108291459D01*
X105145403Y-108296418D01*
X105158710Y-108302712D01*
X105171336Y-108310280D01*
X105183159Y-108319048D01*
X105194066Y-108328934D01*
X105203952Y-108339841D01*
X105212720Y-108351664D01*
X105220288Y-108364290D01*
X105226582Y-108377597D01*
X105231541Y-108391457D01*
X105235118Y-108405736D01*
X105237278Y-108420297D01*
X105238000Y-108435000D01*
X105238000Y-108735000D01*
X105237278Y-108749703D01*
X105235118Y-108764264D01*
X105231541Y-108778543D01*
X105226582Y-108792403D01*
X105220288Y-108805710D01*
X105212720Y-108818336D01*
X105203952Y-108830159D01*
X105194066Y-108841066D01*
X105183159Y-108850952D01*
X105171336Y-108859720D01*
X105158710Y-108867288D01*
X105145403Y-108873582D01*
X105131543Y-108878541D01*
X105117264Y-108882118D01*
X105102703Y-108884278D01*
X105088000Y-108885000D01*
X103788000Y-108885000D01*
X103773297Y-108884278D01*
X103758736Y-108882118D01*
X103744457Y-108878541D01*
X103730597Y-108873582D01*
X103717290Y-108867288D01*
X103704664Y-108859720D01*
X103692841Y-108850952D01*
X103681934Y-108841066D01*
X103672048Y-108830159D01*
X103663280Y-108818336D01*
X103655712Y-108805710D01*
X103649418Y-108792403D01*
X103644459Y-108778543D01*
X103640882Y-108764264D01*
X103638722Y-108749703D01*
X103638000Y-108735000D01*
X103638000Y-108435000D01*
X103638722Y-108420297D01*
X103640882Y-108405736D01*
X103644459Y-108391457D01*
X103649418Y-108377597D01*
X103655712Y-108364290D01*
X103663280Y-108351664D01*
X103672048Y-108339841D01*
X103681934Y-108328934D01*
X103692841Y-108319048D01*
X103704664Y-108310280D01*
X103717290Y-108302712D01*
X103730597Y-108296418D01*
X103744457Y-108291459D01*
X103758736Y-108287882D01*
X103773297Y-108285722D01*
X103788000Y-108285000D01*
X105088000Y-108285000D01*
X105102703Y-108285722D01*
G37*
G36*
X105102703Y-107015722D02*
G01*
X105117264Y-107017882D01*
X105131543Y-107021459D01*
X105145403Y-107026418D01*
X105158710Y-107032712D01*
X105171336Y-107040280D01*
X105183159Y-107049048D01*
X105194066Y-107058934D01*
X105203952Y-107069841D01*
X105212720Y-107081664D01*
X105220288Y-107094290D01*
X105226582Y-107107597D01*
X105231541Y-107121457D01*
X105235118Y-107135736D01*
X105237278Y-107150297D01*
X105238000Y-107165000D01*
X105238000Y-107465000D01*
X105237278Y-107479703D01*
X105235118Y-107494264D01*
X105231541Y-107508543D01*
X105226582Y-107522403D01*
X105220288Y-107535710D01*
X105212720Y-107548336D01*
X105203952Y-107560159D01*
X105194066Y-107571066D01*
X105183159Y-107580952D01*
X105171336Y-107589720D01*
X105158710Y-107597288D01*
X105145403Y-107603582D01*
X105131543Y-107608541D01*
X105117264Y-107612118D01*
X105102703Y-107614278D01*
X105088000Y-107615000D01*
X103788000Y-107615000D01*
X103773297Y-107614278D01*
X103758736Y-107612118D01*
X103744457Y-107608541D01*
X103730597Y-107603582D01*
X103717290Y-107597288D01*
X103704664Y-107589720D01*
X103692841Y-107580952D01*
X103681934Y-107571066D01*
X103672048Y-107560159D01*
X103663280Y-107548336D01*
X103655712Y-107535710D01*
X103649418Y-107522403D01*
X103644459Y-107508543D01*
X103640882Y-107494264D01*
X103638722Y-107479703D01*
X103638000Y-107465000D01*
X103638000Y-107165000D01*
X103638722Y-107150297D01*
X103640882Y-107135736D01*
X103644459Y-107121457D01*
X103649418Y-107107597D01*
X103655712Y-107094290D01*
X103663280Y-107081664D01*
X103672048Y-107069841D01*
X103681934Y-107058934D01*
X103692841Y-107049048D01*
X103704664Y-107040280D01*
X103717290Y-107032712D01*
X103730597Y-107026418D01*
X103744457Y-107021459D01*
X103758736Y-107017882D01*
X103773297Y-107015722D01*
X103788000Y-107015000D01*
X105088000Y-107015000D01*
X105102703Y-107015722D01*
G37*
G36*
X97902703Y-107015722D02*
G01*
X97917264Y-107017882D01*
X97931543Y-107021459D01*
X97945403Y-107026418D01*
X97958710Y-107032712D01*
X97971336Y-107040280D01*
X97983159Y-107049048D01*
X97994066Y-107058934D01*
X98003952Y-107069841D01*
X98012720Y-107081664D01*
X98020288Y-107094290D01*
X98026582Y-107107597D01*
X98031541Y-107121457D01*
X98035118Y-107135736D01*
X98037278Y-107150297D01*
X98038000Y-107165000D01*
X98038000Y-107465000D01*
X98037278Y-107479703D01*
X98035118Y-107494264D01*
X98031541Y-107508543D01*
X98026582Y-107522403D01*
X98020288Y-107535710D01*
X98012720Y-107548336D01*
X98003952Y-107560159D01*
X97994066Y-107571066D01*
X97983159Y-107580952D01*
X97971336Y-107589720D01*
X97958710Y-107597288D01*
X97945403Y-107603582D01*
X97931543Y-107608541D01*
X97917264Y-107612118D01*
X97902703Y-107614278D01*
X97888000Y-107615000D01*
X96588000Y-107615000D01*
X96573297Y-107614278D01*
X96558736Y-107612118D01*
X96544457Y-107608541D01*
X96530597Y-107603582D01*
X96517290Y-107597288D01*
X96504664Y-107589720D01*
X96492841Y-107580952D01*
X96481934Y-107571066D01*
X96472048Y-107560159D01*
X96463280Y-107548336D01*
X96455712Y-107535710D01*
X96449418Y-107522403D01*
X96444459Y-107508543D01*
X96440882Y-107494264D01*
X96438722Y-107479703D01*
X96438000Y-107465000D01*
X96438000Y-107165000D01*
X96438722Y-107150297D01*
X96440882Y-107135736D01*
X96444459Y-107121457D01*
X96449418Y-107107597D01*
X96455712Y-107094290D01*
X96463280Y-107081664D01*
X96472048Y-107069841D01*
X96481934Y-107058934D01*
X96492841Y-107049048D01*
X96504664Y-107040280D01*
X96517290Y-107032712D01*
X96530597Y-107026418D01*
X96544457Y-107021459D01*
X96558736Y-107017882D01*
X96573297Y-107015722D01*
X96588000Y-107015000D01*
X97888000Y-107015000D01*
X97902703Y-107015722D01*
G37*
G36*
X97902703Y-108285722D02*
G01*
X97917264Y-108287882D01*
X97931543Y-108291459D01*
X97945403Y-108296418D01*
X97958710Y-108302712D01*
X97971336Y-108310280D01*
X97983159Y-108319048D01*
X97994066Y-108328934D01*
X98003952Y-108339841D01*
X98012720Y-108351664D01*
X98020288Y-108364290D01*
X98026582Y-108377597D01*
X98031541Y-108391457D01*
X98035118Y-108405736D01*
X98037278Y-108420297D01*
X98038000Y-108435000D01*
X98038000Y-108735000D01*
X98037278Y-108749703D01*
X98035118Y-108764264D01*
X98031541Y-108778543D01*
X98026582Y-108792403D01*
X98020288Y-108805710D01*
X98012720Y-108818336D01*
X98003952Y-108830159D01*
X97994066Y-108841066D01*
X97983159Y-108850952D01*
X97971336Y-108859720D01*
X97958710Y-108867288D01*
X97945403Y-108873582D01*
X97931543Y-108878541D01*
X97917264Y-108882118D01*
X97902703Y-108884278D01*
X97888000Y-108885000D01*
X96588000Y-108885000D01*
X96573297Y-108884278D01*
X96558736Y-108882118D01*
X96544457Y-108878541D01*
X96530597Y-108873582D01*
X96517290Y-108867288D01*
X96504664Y-108859720D01*
X96492841Y-108850952D01*
X96481934Y-108841066D01*
X96472048Y-108830159D01*
X96463280Y-108818336D01*
X96455712Y-108805710D01*
X96449418Y-108792403D01*
X96444459Y-108778543D01*
X96440882Y-108764264D01*
X96438722Y-108749703D01*
X96438000Y-108735000D01*
X96438000Y-108435000D01*
X96438722Y-108420297D01*
X96440882Y-108405736D01*
X96444459Y-108391457D01*
X96449418Y-108377597D01*
X96455712Y-108364290D01*
X96463280Y-108351664D01*
X96472048Y-108339841D01*
X96481934Y-108328934D01*
X96492841Y-108319048D01*
X96504664Y-108310280D01*
X96517290Y-108302712D01*
X96530597Y-108296418D01*
X96544457Y-108291459D01*
X96558736Y-108287882D01*
X96573297Y-108285722D01*
X96588000Y-108285000D01*
X97888000Y-108285000D01*
X97902703Y-108285722D01*
G37*
G36*
X97902703Y-109555722D02*
G01*
X97917264Y-109557882D01*
X97931543Y-109561459D01*
X97945403Y-109566418D01*
X97958710Y-109572712D01*
X97971336Y-109580280D01*
X97983159Y-109589048D01*
X97994066Y-109598934D01*
X98003952Y-109609841D01*
X98012720Y-109621664D01*
X98020288Y-109634290D01*
X98026582Y-109647597D01*
X98031541Y-109661457D01*
X98035118Y-109675736D01*
X98037278Y-109690297D01*
X98038000Y-109705000D01*
X98038000Y-110005000D01*
X98037278Y-110019703D01*
X98035118Y-110034264D01*
X98031541Y-110048543D01*
X98026582Y-110062403D01*
X98020288Y-110075710D01*
X98012720Y-110088336D01*
X98003952Y-110100159D01*
X97994066Y-110111066D01*
X97983159Y-110120952D01*
X97971336Y-110129720D01*
X97958710Y-110137288D01*
X97945403Y-110143582D01*
X97931543Y-110148541D01*
X97917264Y-110152118D01*
X97902703Y-110154278D01*
X97888000Y-110155000D01*
X96588000Y-110155000D01*
X96573297Y-110154278D01*
X96558736Y-110152118D01*
X96544457Y-110148541D01*
X96530597Y-110143582D01*
X96517290Y-110137288D01*
X96504664Y-110129720D01*
X96492841Y-110120952D01*
X96481934Y-110111066D01*
X96472048Y-110100159D01*
X96463280Y-110088336D01*
X96455712Y-110075710D01*
X96449418Y-110062403D01*
X96444459Y-110048543D01*
X96440882Y-110034264D01*
X96438722Y-110019703D01*
X96438000Y-110005000D01*
X96438000Y-109705000D01*
X96438722Y-109690297D01*
X96440882Y-109675736D01*
X96444459Y-109661457D01*
X96449418Y-109647597D01*
X96455712Y-109634290D01*
X96463280Y-109621664D01*
X96472048Y-109609841D01*
X96481934Y-109598934D01*
X96492841Y-109589048D01*
X96504664Y-109580280D01*
X96517290Y-109572712D01*
X96530597Y-109566418D01*
X96544457Y-109561459D01*
X96558736Y-109557882D01*
X96573297Y-109555722D01*
X96588000Y-109555000D01*
X97888000Y-109555000D01*
X97902703Y-109555722D01*
G37*
G36*
X97902703Y-110825722D02*
G01*
X97917264Y-110827882D01*
X97931543Y-110831459D01*
X97945403Y-110836418D01*
X97958710Y-110842712D01*
X97971336Y-110850280D01*
X97983159Y-110859048D01*
X97994066Y-110868934D01*
X98003952Y-110879841D01*
X98012720Y-110891664D01*
X98020288Y-110904290D01*
X98026582Y-110917597D01*
X98031541Y-110931457D01*
X98035118Y-110945736D01*
X98037278Y-110960297D01*
X98038000Y-110975000D01*
X98038000Y-111275000D01*
X98037278Y-111289703D01*
X98035118Y-111304264D01*
X98031541Y-111318543D01*
X98026582Y-111332403D01*
X98020288Y-111345710D01*
X98012720Y-111358336D01*
X98003952Y-111370159D01*
X97994066Y-111381066D01*
X97983159Y-111390952D01*
X97971336Y-111399720D01*
X97958710Y-111407288D01*
X97945403Y-111413582D01*
X97931543Y-111418541D01*
X97917264Y-111422118D01*
X97902703Y-111424278D01*
X97888000Y-111425000D01*
X96588000Y-111425000D01*
X96573297Y-111424278D01*
X96558736Y-111422118D01*
X96544457Y-111418541D01*
X96530597Y-111413582D01*
X96517290Y-111407288D01*
X96504664Y-111399720D01*
X96492841Y-111390952D01*
X96481934Y-111381066D01*
X96472048Y-111370159D01*
X96463280Y-111358336D01*
X96455712Y-111345710D01*
X96449418Y-111332403D01*
X96444459Y-111318543D01*
X96440882Y-111304264D01*
X96438722Y-111289703D01*
X96438000Y-111275000D01*
X96438000Y-110975000D01*
X96438722Y-110960297D01*
X96440882Y-110945736D01*
X96444459Y-110931457D01*
X96449418Y-110917597D01*
X96455712Y-110904290D01*
X96463280Y-110891664D01*
X96472048Y-110879841D01*
X96481934Y-110868934D01*
X96492841Y-110859048D01*
X96504664Y-110850280D01*
X96517290Y-110842712D01*
X96530597Y-110836418D01*
X96544457Y-110831459D01*
X96558736Y-110827882D01*
X96573297Y-110825722D01*
X96588000Y-110825000D01*
X97888000Y-110825000D01*
X97902703Y-110825722D01*
G37*
G36*
X128247206Y-53819622D02*
G01*
X126974414Y-55092414D01*
X126726926Y-54844926D01*
X127999718Y-53572134D01*
X128247206Y-53819622D01*
G37*
G36*
X127787587Y-53360002D02*
G01*
X126514795Y-54632794D01*
X126267307Y-54385306D01*
X127540099Y-53112514D01*
X127787587Y-53360002D01*
G37*
G36*
X127327967Y-52900383D02*
G01*
X126055175Y-54173175D01*
X125807687Y-53925687D01*
X127080479Y-52652895D01*
X127327967Y-52900383D01*
G37*
G36*
X126868348Y-52440764D02*
G01*
X125595556Y-53713556D01*
X125348068Y-53466068D01*
X126620860Y-52193276D01*
X126868348Y-52440764D01*
G37*
G36*
X126408728Y-51981144D02*
G01*
X125135936Y-53253936D01*
X124888448Y-53006448D01*
X126161240Y-51733656D01*
X126408728Y-51981144D01*
G37*
G36*
X125949109Y-51521525D02*
G01*
X124676317Y-52794317D01*
X124428829Y-52546829D01*
X125701621Y-51274037D01*
X125949109Y-51521525D01*
G37*
G36*
X125489490Y-51061905D02*
G01*
X124216698Y-52334697D01*
X123969210Y-52087209D01*
X125242002Y-50814417D01*
X125489490Y-51061905D01*
G37*
G36*
X125029870Y-50602286D02*
G01*
X123757078Y-51875078D01*
X123509590Y-51627590D01*
X124782382Y-50354798D01*
X125029870Y-50602286D01*
G37*
G36*
X124570251Y-50142667D02*
G01*
X123297459Y-51415459D01*
X123049971Y-51167971D01*
X124322763Y-49895179D01*
X124570251Y-50142667D01*
G37*
G36*
X124110631Y-49683047D02*
G01*
X122837839Y-50955839D01*
X122590351Y-50708351D01*
X123863143Y-49435559D01*
X124110631Y-49683047D01*
G37*
G36*
X123651012Y-49223428D02*
G01*
X122378220Y-50496220D01*
X122130732Y-50248732D01*
X123403524Y-48975940D01*
X123651012Y-49223428D01*
G37*
G36*
X123191393Y-48763808D02*
G01*
X121918601Y-50036600D01*
X121671113Y-49789112D01*
X122943905Y-48516320D01*
X123191393Y-48763808D01*
G37*
G36*
X122731773Y-48304189D02*
G01*
X121458981Y-49576981D01*
X121211493Y-49329493D01*
X122484285Y-48056701D01*
X122731773Y-48304189D01*
G37*
G36*
X122272154Y-47844570D02*
G01*
X120999362Y-49117362D01*
X120751874Y-48869874D01*
X122024666Y-47597082D01*
X122272154Y-47844570D01*
G37*
G36*
X121812534Y-47384950D02*
G01*
X120539742Y-48657742D01*
X120292254Y-48410254D01*
X121565046Y-47137462D01*
X121812534Y-47384950D01*
G37*
G36*
X121352915Y-46925331D02*
G01*
X120080123Y-48198123D01*
X119832635Y-47950635D01*
X121105427Y-46677843D01*
X121352915Y-46925331D01*
G37*
D11*
X86195000Y-166715000D03*
X94145000Y-166715000D03*
X94145000Y-162215000D03*
X86195000Y-162215000D03*
D12*
X116450000Y-93555000D03*
X116450000Y-93055000D03*
X116450000Y-92555000D03*
X116450000Y-92055000D03*
X116450000Y-91555000D03*
X116450000Y-91055000D03*
X116450000Y-90555000D03*
X116450000Y-90055000D03*
X116450000Y-89555000D03*
X116450000Y-89055000D03*
X116450000Y-88555000D03*
X116450000Y-88055000D03*
D13*
X117900000Y-86605000D03*
X118400000Y-86605000D03*
X118900000Y-86605000D03*
X119400000Y-86605000D03*
X119900000Y-86605000D03*
X120400000Y-86605000D03*
X120900000Y-86605000D03*
X121400000Y-86605000D03*
X121900000Y-86605000D03*
X122400000Y-86605000D03*
X122900000Y-86605000D03*
X123400000Y-86605000D03*
D12*
X124850000Y-88055000D03*
X124850000Y-88555000D03*
X124850000Y-89055000D03*
X124850000Y-89555000D03*
X124850000Y-90055000D03*
X124850000Y-90555000D03*
X124850000Y-91055000D03*
X124850000Y-91555000D03*
X124850000Y-92055000D03*
X124850000Y-92555000D03*
X124850000Y-93055000D03*
X124850000Y-93555000D03*
D13*
X123400000Y-95005000D03*
X122900000Y-95005000D03*
X122400000Y-95005000D03*
X121900000Y-95005000D03*
X121400000Y-95005000D03*
X120900000Y-95005000D03*
X120400000Y-95005000D03*
X119900000Y-95005000D03*
X119400000Y-95005000D03*
X118900000Y-95005000D03*
X118400000Y-95005000D03*
X117900000Y-95005000D03*
D14*
X121525000Y-89930000D03*
X121525000Y-91680000D03*
X119775000Y-89930000D03*
X119775000Y-91680000D03*
D15*
X101981000Y-173422000D03*
X101981000Y-178622000D03*
X112014000Y-173930000D03*
X112014000Y-179130000D03*
X122047000Y-174438000D03*
X122047000Y-179638000D03*
X132080000Y-174565000D03*
X132080000Y-179765000D03*
X141986000Y-173930000D03*
X141986000Y-179130000D03*
D10*
G36*
X151594736Y-173759258D02*
G01*
X149756258Y-175597736D01*
X148766308Y-174607786D01*
X150604786Y-172769308D01*
X151594736Y-173759258D01*
G37*
G36*
X155271692Y-177436214D02*
G01*
X153433214Y-179274692D01*
X152443264Y-178284742D01*
X154281742Y-176446264D01*
X155271692Y-177436214D01*
G37*
G36*
X118947065Y-50090362D02*
G01*
X118970726Y-50093872D01*
X118993930Y-50099684D01*
X119016452Y-50107742D01*
X119038076Y-50117970D01*
X119058593Y-50130267D01*
X119077806Y-50144517D01*
X119095530Y-50160581D01*
X119440245Y-50505296D01*
X119456309Y-50523020D01*
X119470559Y-50542233D01*
X119482856Y-50562750D01*
X119493084Y-50584374D01*
X119501142Y-50606896D01*
X119506954Y-50630100D01*
X119510464Y-50653761D01*
X119511638Y-50677653D01*
X119510464Y-50701545D01*
X119506954Y-50725206D01*
X119501142Y-50748410D01*
X119493084Y-50770932D01*
X119482856Y-50792556D01*
X119470559Y-50813073D01*
X119456309Y-50832286D01*
X119440245Y-50850010D01*
X118795010Y-51495245D01*
X118777286Y-51511309D01*
X118758073Y-51525559D01*
X118737556Y-51537856D01*
X118715932Y-51548084D01*
X118693410Y-51556142D01*
X118670206Y-51561954D01*
X118646545Y-51565464D01*
X118622653Y-51566638D01*
X118598761Y-51565464D01*
X118575100Y-51561954D01*
X118551896Y-51556142D01*
X118529374Y-51548084D01*
X118507750Y-51537856D01*
X118487233Y-51525559D01*
X118468020Y-51511309D01*
X118450296Y-51495245D01*
X118105581Y-51150530D01*
X118089517Y-51132806D01*
X118075267Y-51113593D01*
X118062970Y-51093076D01*
X118052742Y-51071452D01*
X118044684Y-51048930D01*
X118038872Y-51025726D01*
X118035362Y-51002065D01*
X118034188Y-50978173D01*
X118035362Y-50954281D01*
X118038872Y-50930620D01*
X118044684Y-50907416D01*
X118052742Y-50884894D01*
X118062970Y-50863270D01*
X118075267Y-50842753D01*
X118089517Y-50823540D01*
X118105581Y-50805816D01*
X118750816Y-50160581D01*
X118768540Y-50144517D01*
X118787753Y-50130267D01*
X118808270Y-50117970D01*
X118829894Y-50107742D01*
X118852416Y-50099684D01*
X118875620Y-50093872D01*
X118899281Y-50090362D01*
X118923173Y-50089188D01*
X118947065Y-50090362D01*
G37*
G36*
X117621239Y-48764536D02*
G01*
X117644900Y-48768046D01*
X117668104Y-48773858D01*
X117690626Y-48781916D01*
X117712250Y-48792144D01*
X117732767Y-48804441D01*
X117751980Y-48818691D01*
X117769704Y-48834755D01*
X118114419Y-49179470D01*
X118130483Y-49197194D01*
X118144733Y-49216407D01*
X118157030Y-49236924D01*
X118167258Y-49258548D01*
X118175316Y-49281070D01*
X118181128Y-49304274D01*
X118184638Y-49327935D01*
X118185812Y-49351827D01*
X118184638Y-49375719D01*
X118181128Y-49399380D01*
X118175316Y-49422584D01*
X118167258Y-49445106D01*
X118157030Y-49466730D01*
X118144733Y-49487247D01*
X118130483Y-49506460D01*
X118114419Y-49524184D01*
X117469184Y-50169419D01*
X117451460Y-50185483D01*
X117432247Y-50199733D01*
X117411730Y-50212030D01*
X117390106Y-50222258D01*
X117367584Y-50230316D01*
X117344380Y-50236128D01*
X117320719Y-50239638D01*
X117296827Y-50240812D01*
X117272935Y-50239638D01*
X117249274Y-50236128D01*
X117226070Y-50230316D01*
X117203548Y-50222258D01*
X117181924Y-50212030D01*
X117161407Y-50199733D01*
X117142194Y-50185483D01*
X117124470Y-50169419D01*
X116779755Y-49824704D01*
X116763691Y-49806980D01*
X116749441Y-49787767D01*
X116737144Y-49767250D01*
X116726916Y-49745626D01*
X116718858Y-49723104D01*
X116713046Y-49699900D01*
X116709536Y-49676239D01*
X116708362Y-49652347D01*
X116709536Y-49628455D01*
X116713046Y-49604794D01*
X116718858Y-49581590D01*
X116726916Y-49559068D01*
X116737144Y-49537444D01*
X116749441Y-49516927D01*
X116763691Y-49497714D01*
X116779755Y-49479990D01*
X117424990Y-48834755D01*
X117442714Y-48818691D01*
X117461927Y-48804441D01*
X117482444Y-48792144D01*
X117504068Y-48781916D01*
X117526590Y-48773858D01*
X117549794Y-48768046D01*
X117573455Y-48764536D01*
X117597347Y-48763362D01*
X117621239Y-48764536D01*
G37*
G36*
X121821545Y-42414536D02*
G01*
X121845206Y-42418046D01*
X121868410Y-42423858D01*
X121890932Y-42431916D01*
X121912556Y-42442144D01*
X121933073Y-42454441D01*
X121952286Y-42468691D01*
X121970010Y-42484755D01*
X122615245Y-43129990D01*
X122631309Y-43147714D01*
X122645559Y-43166927D01*
X122657856Y-43187444D01*
X122668084Y-43209068D01*
X122676142Y-43231590D01*
X122681954Y-43254794D01*
X122685464Y-43278455D01*
X122686638Y-43302347D01*
X122685464Y-43326239D01*
X122681954Y-43349900D01*
X122676142Y-43373104D01*
X122668084Y-43395626D01*
X122657856Y-43417250D01*
X122645559Y-43437767D01*
X122631309Y-43456980D01*
X122615245Y-43474704D01*
X122270530Y-43819419D01*
X122252806Y-43835483D01*
X122233593Y-43849733D01*
X122213076Y-43862030D01*
X122191452Y-43872258D01*
X122168930Y-43880316D01*
X122145726Y-43886128D01*
X122122065Y-43889638D01*
X122098173Y-43890812D01*
X122074281Y-43889638D01*
X122050620Y-43886128D01*
X122027416Y-43880316D01*
X122004894Y-43872258D01*
X121983270Y-43862030D01*
X121962753Y-43849733D01*
X121943540Y-43835483D01*
X121925816Y-43819419D01*
X121280581Y-43174184D01*
X121264517Y-43156460D01*
X121250267Y-43137247D01*
X121237970Y-43116730D01*
X121227742Y-43095106D01*
X121219684Y-43072584D01*
X121213872Y-43049380D01*
X121210362Y-43025719D01*
X121209188Y-43001827D01*
X121210362Y-42977935D01*
X121213872Y-42954274D01*
X121219684Y-42931070D01*
X121227742Y-42908548D01*
X121237970Y-42886924D01*
X121250267Y-42866407D01*
X121264517Y-42847194D01*
X121280581Y-42829470D01*
X121625296Y-42484755D01*
X121643020Y-42468691D01*
X121662233Y-42454441D01*
X121682750Y-42442144D01*
X121704374Y-42431916D01*
X121726896Y-42423858D01*
X121750100Y-42418046D01*
X121773761Y-42414536D01*
X121797653Y-42413362D01*
X121821545Y-42414536D01*
G37*
G36*
X120495719Y-43740362D02*
G01*
X120519380Y-43743872D01*
X120542584Y-43749684D01*
X120565106Y-43757742D01*
X120586730Y-43767970D01*
X120607247Y-43780267D01*
X120626460Y-43794517D01*
X120644184Y-43810581D01*
X121289419Y-44455816D01*
X121305483Y-44473540D01*
X121319733Y-44492753D01*
X121332030Y-44513270D01*
X121342258Y-44534894D01*
X121350316Y-44557416D01*
X121356128Y-44580620D01*
X121359638Y-44604281D01*
X121360812Y-44628173D01*
X121359638Y-44652065D01*
X121356128Y-44675726D01*
X121350316Y-44698930D01*
X121342258Y-44721452D01*
X121332030Y-44743076D01*
X121319733Y-44763593D01*
X121305483Y-44782806D01*
X121289419Y-44800530D01*
X120944704Y-45145245D01*
X120926980Y-45161309D01*
X120907767Y-45175559D01*
X120887250Y-45187856D01*
X120865626Y-45198084D01*
X120843104Y-45206142D01*
X120819900Y-45211954D01*
X120796239Y-45215464D01*
X120772347Y-45216638D01*
X120748455Y-45215464D01*
X120724794Y-45211954D01*
X120701590Y-45206142D01*
X120679068Y-45198084D01*
X120657444Y-45187856D01*
X120636927Y-45175559D01*
X120617714Y-45161309D01*
X120599990Y-45145245D01*
X119954755Y-44500010D01*
X119938691Y-44482286D01*
X119924441Y-44463073D01*
X119912144Y-44442556D01*
X119901916Y-44420932D01*
X119893858Y-44398410D01*
X119888046Y-44375206D01*
X119884536Y-44351545D01*
X119883362Y-44327653D01*
X119884536Y-44303761D01*
X119888046Y-44280100D01*
X119893858Y-44256896D01*
X119901916Y-44234374D01*
X119912144Y-44212750D01*
X119924441Y-44192233D01*
X119938691Y-44173020D01*
X119954755Y-44155296D01*
X120299470Y-43810581D01*
X120317194Y-43794517D01*
X120336407Y-43780267D01*
X120356924Y-43767970D01*
X120378548Y-43757742D01*
X120401070Y-43749684D01*
X120424274Y-43743872D01*
X120447935Y-43740362D01*
X120471827Y-43739188D01*
X120495719Y-43740362D01*
G37*
D16*
X86360000Y-186055000D03*
X85725000Y-186690000D03*
X86995000Y-186690000D03*
D10*
G36*
X128557031Y-165735000D02*
G01*
X127602437Y-166689594D01*
X126647843Y-165735000D01*
X127602437Y-164780406D01*
X128557031Y-165735000D01*
G37*
G36*
X127319594Y-166972437D02*
G01*
X126365000Y-167927031D01*
X125410406Y-166972437D01*
X126365000Y-166017843D01*
X127319594Y-166972437D01*
G37*
G36*
X127319594Y-164497563D02*
G01*
X126365000Y-165452157D01*
X125410406Y-164497563D01*
X126365000Y-163542969D01*
X127319594Y-164497563D01*
G37*
G36*
X126082157Y-165735000D02*
G01*
X125127563Y-166689594D01*
X124172969Y-165735000D01*
X125127563Y-164780406D01*
X126082157Y-165735000D01*
G37*
G36*
X130855128Y-165346091D02*
G01*
X130642996Y-165133959D01*
X131703656Y-164073299D01*
X131915788Y-164285431D01*
X130855128Y-165346091D01*
G37*
G36*
X130501575Y-164992538D02*
G01*
X130289443Y-164780406D01*
X131350103Y-163719746D01*
X131562235Y-163931878D01*
X130501575Y-164992538D01*
G37*
G36*
X130148021Y-164638984D02*
G01*
X129935889Y-164426852D01*
X130996549Y-163366192D01*
X131208681Y-163578324D01*
X130148021Y-164638984D01*
G37*
G36*
X129794468Y-164285431D02*
G01*
X129582336Y-164073299D01*
X130642996Y-163012639D01*
X130855128Y-163224771D01*
X129794468Y-164285431D01*
G37*
G36*
X129440915Y-163931878D02*
G01*
X129228783Y-163719746D01*
X130289443Y-162659086D01*
X130501575Y-162871218D01*
X129440915Y-163931878D01*
G37*
G36*
X129087361Y-163578324D02*
G01*
X128875229Y-163366192D01*
X129935889Y-162305532D01*
X130148021Y-162517664D01*
X129087361Y-163578324D01*
G37*
G36*
X128733808Y-163224771D02*
G01*
X128521676Y-163012639D01*
X129582336Y-161951979D01*
X129794468Y-162164111D01*
X128733808Y-163224771D01*
G37*
G36*
X128380254Y-162871217D02*
G01*
X128168122Y-162659085D01*
X129228782Y-161598425D01*
X129440914Y-161810557D01*
X128380254Y-162871217D01*
G37*
G36*
X128026701Y-162517664D02*
G01*
X127814569Y-162305532D01*
X128875229Y-161244872D01*
X129087361Y-161457004D01*
X128026701Y-162517664D01*
G37*
G36*
X127673148Y-162164111D02*
G01*
X127461016Y-161951979D01*
X128521676Y-160891319D01*
X128733808Y-161103451D01*
X127673148Y-162164111D01*
G37*
G36*
X127319594Y-161810557D02*
G01*
X127107462Y-161598425D01*
X128168122Y-160537765D01*
X128380254Y-160749897D01*
X127319594Y-161810557D01*
G37*
G36*
X126966041Y-161457004D02*
G01*
X126753909Y-161244872D01*
X127814569Y-160184212D01*
X128026701Y-160396344D01*
X126966041Y-161457004D01*
G37*
G36*
X125976091Y-161244872D02*
G01*
X125763959Y-161457004D01*
X124703299Y-160396344D01*
X124915431Y-160184212D01*
X125976091Y-161244872D01*
G37*
G36*
X125622538Y-161598425D02*
G01*
X125410406Y-161810557D01*
X124349746Y-160749897D01*
X124561878Y-160537765D01*
X125622538Y-161598425D01*
G37*
G36*
X125268984Y-161951979D02*
G01*
X125056852Y-162164111D01*
X123996192Y-161103451D01*
X124208324Y-160891319D01*
X125268984Y-161951979D01*
G37*
G36*
X124915431Y-162305532D02*
G01*
X124703299Y-162517664D01*
X123642639Y-161457004D01*
X123854771Y-161244872D01*
X124915431Y-162305532D01*
G37*
G36*
X124561878Y-162659085D02*
G01*
X124349746Y-162871217D01*
X123289086Y-161810557D01*
X123501218Y-161598425D01*
X124561878Y-162659085D01*
G37*
G36*
X124208324Y-163012639D02*
G01*
X123996192Y-163224771D01*
X122935532Y-162164111D01*
X123147664Y-161951979D01*
X124208324Y-163012639D01*
G37*
G36*
X123854771Y-163366192D02*
G01*
X123642639Y-163578324D01*
X122581979Y-162517664D01*
X122794111Y-162305532D01*
X123854771Y-163366192D01*
G37*
G36*
X123501217Y-163719746D02*
G01*
X123289085Y-163931878D01*
X122228425Y-162871218D01*
X122440557Y-162659086D01*
X123501217Y-163719746D01*
G37*
G36*
X123147664Y-164073299D02*
G01*
X122935532Y-164285431D01*
X121874872Y-163224771D01*
X122087004Y-163012639D01*
X123147664Y-164073299D01*
G37*
G36*
X122794111Y-164426852D02*
G01*
X122581979Y-164638984D01*
X121521319Y-163578324D01*
X121733451Y-163366192D01*
X122794111Y-164426852D01*
G37*
G36*
X122440557Y-164780406D02*
G01*
X122228425Y-164992538D01*
X121167765Y-163931878D01*
X121379897Y-163719746D01*
X122440557Y-164780406D01*
G37*
G36*
X122087004Y-165133959D02*
G01*
X121874872Y-165346091D01*
X120814212Y-164285431D01*
X121026344Y-164073299D01*
X122087004Y-165133959D01*
G37*
G36*
X121026344Y-167396701D02*
G01*
X120814212Y-167184569D01*
X121874872Y-166123909D01*
X122087004Y-166336041D01*
X121026344Y-167396701D01*
G37*
G36*
X121379897Y-167750254D02*
G01*
X121167765Y-167538122D01*
X122228425Y-166477462D01*
X122440557Y-166689594D01*
X121379897Y-167750254D01*
G37*
G36*
X121733451Y-168103808D02*
G01*
X121521319Y-167891676D01*
X122581979Y-166831016D01*
X122794111Y-167043148D01*
X121733451Y-168103808D01*
G37*
G36*
X122087004Y-168457361D02*
G01*
X121874872Y-168245229D01*
X122935532Y-167184569D01*
X123147664Y-167396701D01*
X122087004Y-168457361D01*
G37*
G36*
X122440557Y-168810914D02*
G01*
X122228425Y-168598782D01*
X123289085Y-167538122D01*
X123501217Y-167750254D01*
X122440557Y-168810914D01*
G37*
G36*
X122794111Y-169164468D02*
G01*
X122581979Y-168952336D01*
X123642639Y-167891676D01*
X123854771Y-168103808D01*
X122794111Y-169164468D01*
G37*
G36*
X123147664Y-169518021D02*
G01*
X122935532Y-169305889D01*
X123996192Y-168245229D01*
X124208324Y-168457361D01*
X123147664Y-169518021D01*
G37*
G36*
X123501218Y-169871575D02*
G01*
X123289086Y-169659443D01*
X124349746Y-168598783D01*
X124561878Y-168810915D01*
X123501218Y-169871575D01*
G37*
G36*
X123854771Y-170225128D02*
G01*
X123642639Y-170012996D01*
X124703299Y-168952336D01*
X124915431Y-169164468D01*
X123854771Y-170225128D01*
G37*
G36*
X124208324Y-170578681D02*
G01*
X123996192Y-170366549D01*
X125056852Y-169305889D01*
X125268984Y-169518021D01*
X124208324Y-170578681D01*
G37*
G36*
X124561878Y-170932235D02*
G01*
X124349746Y-170720103D01*
X125410406Y-169659443D01*
X125622538Y-169871575D01*
X124561878Y-170932235D01*
G37*
G36*
X124915431Y-171285788D02*
G01*
X124703299Y-171073656D01*
X125763959Y-170012996D01*
X125976091Y-170225128D01*
X124915431Y-171285788D01*
G37*
G36*
X128026701Y-171073656D02*
G01*
X127814569Y-171285788D01*
X126753909Y-170225128D01*
X126966041Y-170012996D01*
X128026701Y-171073656D01*
G37*
G36*
X128380254Y-170720103D02*
G01*
X128168122Y-170932235D01*
X127107462Y-169871575D01*
X127319594Y-169659443D01*
X128380254Y-170720103D01*
G37*
G36*
X128733808Y-170366549D02*
G01*
X128521676Y-170578681D01*
X127461016Y-169518021D01*
X127673148Y-169305889D01*
X128733808Y-170366549D01*
G37*
G36*
X129087361Y-170012996D02*
G01*
X128875229Y-170225128D01*
X127814569Y-169164468D01*
X128026701Y-168952336D01*
X129087361Y-170012996D01*
G37*
G36*
X129440914Y-169659443D02*
G01*
X129228782Y-169871575D01*
X128168122Y-168810915D01*
X128380254Y-168598783D01*
X129440914Y-169659443D01*
G37*
G36*
X129794468Y-169305889D02*
G01*
X129582336Y-169518021D01*
X128521676Y-168457361D01*
X128733808Y-168245229D01*
X129794468Y-169305889D01*
G37*
G36*
X130148021Y-168952336D02*
G01*
X129935889Y-169164468D01*
X128875229Y-168103808D01*
X129087361Y-167891676D01*
X130148021Y-168952336D01*
G37*
G36*
X130501575Y-168598782D02*
G01*
X130289443Y-168810914D01*
X129228783Y-167750254D01*
X129440915Y-167538122D01*
X130501575Y-168598782D01*
G37*
G36*
X130855128Y-168245229D02*
G01*
X130642996Y-168457361D01*
X129582336Y-167396701D01*
X129794468Y-167184569D01*
X130855128Y-168245229D01*
G37*
G36*
X131208681Y-167891676D02*
G01*
X130996549Y-168103808D01*
X129935889Y-167043148D01*
X130148021Y-166831016D01*
X131208681Y-167891676D01*
G37*
G36*
X131562235Y-167538122D02*
G01*
X131350103Y-167750254D01*
X130289443Y-166689594D01*
X130501575Y-166477462D01*
X131562235Y-167538122D01*
G37*
G36*
X131915788Y-167184569D02*
G01*
X131703656Y-167396701D01*
X130642996Y-166336041D01*
X130855128Y-166123909D01*
X131915788Y-167184569D01*
G37*
D17*
X148270000Y-161460000D03*
X146370000Y-161460000D03*
X146370000Y-163660000D03*
X147320000Y-163660000D03*
X148270000Y-163660000D03*
D10*
G36*
X99617703Y-129240722D02*
G01*
X99632264Y-129242882D01*
X99646543Y-129246459D01*
X99660403Y-129251418D01*
X99673710Y-129257712D01*
X99686336Y-129265280D01*
X99698159Y-129274048D01*
X99709066Y-129283934D01*
X99718952Y-129294841D01*
X99727720Y-129306664D01*
X99735288Y-129319290D01*
X99741582Y-129332597D01*
X99746541Y-129346457D01*
X99750118Y-129360736D01*
X99752278Y-129375297D01*
X99753000Y-129390000D01*
X99753000Y-129690000D01*
X99752278Y-129704703D01*
X99750118Y-129719264D01*
X99746541Y-129733543D01*
X99741582Y-129747403D01*
X99735288Y-129760710D01*
X99727720Y-129773336D01*
X99718952Y-129785159D01*
X99709066Y-129796066D01*
X99698159Y-129805952D01*
X99686336Y-129814720D01*
X99673710Y-129822288D01*
X99660403Y-129828582D01*
X99646543Y-129833541D01*
X99632264Y-129837118D01*
X99617703Y-129839278D01*
X99603000Y-129840000D01*
X97853000Y-129840000D01*
X97838297Y-129839278D01*
X97823736Y-129837118D01*
X97809457Y-129833541D01*
X97795597Y-129828582D01*
X97782290Y-129822288D01*
X97769664Y-129814720D01*
X97757841Y-129805952D01*
X97746934Y-129796066D01*
X97737048Y-129785159D01*
X97728280Y-129773336D01*
X97720712Y-129760710D01*
X97714418Y-129747403D01*
X97709459Y-129733543D01*
X97705882Y-129719264D01*
X97703722Y-129704703D01*
X97703000Y-129690000D01*
X97703000Y-129390000D01*
X97703722Y-129375297D01*
X97705882Y-129360736D01*
X97709459Y-129346457D01*
X97714418Y-129332597D01*
X97720712Y-129319290D01*
X97728280Y-129306664D01*
X97737048Y-129294841D01*
X97746934Y-129283934D01*
X97757841Y-129274048D01*
X97769664Y-129265280D01*
X97782290Y-129257712D01*
X97795597Y-129251418D01*
X97809457Y-129246459D01*
X97823736Y-129242882D01*
X97838297Y-129240722D01*
X97853000Y-129240000D01*
X99603000Y-129240000D01*
X99617703Y-129240722D01*
G37*
G36*
X99617703Y-130510722D02*
G01*
X99632264Y-130512882D01*
X99646543Y-130516459D01*
X99660403Y-130521418D01*
X99673710Y-130527712D01*
X99686336Y-130535280D01*
X99698159Y-130544048D01*
X99709066Y-130553934D01*
X99718952Y-130564841D01*
X99727720Y-130576664D01*
X99735288Y-130589290D01*
X99741582Y-130602597D01*
X99746541Y-130616457D01*
X99750118Y-130630736D01*
X99752278Y-130645297D01*
X99753000Y-130660000D01*
X99753000Y-130960000D01*
X99752278Y-130974703D01*
X99750118Y-130989264D01*
X99746541Y-131003543D01*
X99741582Y-131017403D01*
X99735288Y-131030710D01*
X99727720Y-131043336D01*
X99718952Y-131055159D01*
X99709066Y-131066066D01*
X99698159Y-131075952D01*
X99686336Y-131084720D01*
X99673710Y-131092288D01*
X99660403Y-131098582D01*
X99646543Y-131103541D01*
X99632264Y-131107118D01*
X99617703Y-131109278D01*
X99603000Y-131110000D01*
X97853000Y-131110000D01*
X97838297Y-131109278D01*
X97823736Y-131107118D01*
X97809457Y-131103541D01*
X97795597Y-131098582D01*
X97782290Y-131092288D01*
X97769664Y-131084720D01*
X97757841Y-131075952D01*
X97746934Y-131066066D01*
X97737048Y-131055159D01*
X97728280Y-131043336D01*
X97720712Y-131030710D01*
X97714418Y-131017403D01*
X97709459Y-131003543D01*
X97705882Y-130989264D01*
X97703722Y-130974703D01*
X97703000Y-130960000D01*
X97703000Y-130660000D01*
X97703722Y-130645297D01*
X97705882Y-130630736D01*
X97709459Y-130616457D01*
X97714418Y-130602597D01*
X97720712Y-130589290D01*
X97728280Y-130576664D01*
X97737048Y-130564841D01*
X97746934Y-130553934D01*
X97757841Y-130544048D01*
X97769664Y-130535280D01*
X97782290Y-130527712D01*
X97795597Y-130521418D01*
X97809457Y-130516459D01*
X97823736Y-130512882D01*
X97838297Y-130510722D01*
X97853000Y-130510000D01*
X99603000Y-130510000D01*
X99617703Y-130510722D01*
G37*
G36*
X99617703Y-131780722D02*
G01*
X99632264Y-131782882D01*
X99646543Y-131786459D01*
X99660403Y-131791418D01*
X99673710Y-131797712D01*
X99686336Y-131805280D01*
X99698159Y-131814048D01*
X99709066Y-131823934D01*
X99718952Y-131834841D01*
X99727720Y-131846664D01*
X99735288Y-131859290D01*
X99741582Y-131872597D01*
X99746541Y-131886457D01*
X99750118Y-131900736D01*
X99752278Y-131915297D01*
X99753000Y-131930000D01*
X99753000Y-132230000D01*
X99752278Y-132244703D01*
X99750118Y-132259264D01*
X99746541Y-132273543D01*
X99741582Y-132287403D01*
X99735288Y-132300710D01*
X99727720Y-132313336D01*
X99718952Y-132325159D01*
X99709066Y-132336066D01*
X99698159Y-132345952D01*
X99686336Y-132354720D01*
X99673710Y-132362288D01*
X99660403Y-132368582D01*
X99646543Y-132373541D01*
X99632264Y-132377118D01*
X99617703Y-132379278D01*
X99603000Y-132380000D01*
X97853000Y-132380000D01*
X97838297Y-132379278D01*
X97823736Y-132377118D01*
X97809457Y-132373541D01*
X97795597Y-132368582D01*
X97782290Y-132362288D01*
X97769664Y-132354720D01*
X97757841Y-132345952D01*
X97746934Y-132336066D01*
X97737048Y-132325159D01*
X97728280Y-132313336D01*
X97720712Y-132300710D01*
X97714418Y-132287403D01*
X97709459Y-132273543D01*
X97705882Y-132259264D01*
X97703722Y-132244703D01*
X97703000Y-132230000D01*
X97703000Y-131930000D01*
X97703722Y-131915297D01*
X97705882Y-131900736D01*
X97709459Y-131886457D01*
X97714418Y-131872597D01*
X97720712Y-131859290D01*
X97728280Y-131846664D01*
X97737048Y-131834841D01*
X97746934Y-131823934D01*
X97757841Y-131814048D01*
X97769664Y-131805280D01*
X97782290Y-131797712D01*
X97795597Y-131791418D01*
X97809457Y-131786459D01*
X97823736Y-131782882D01*
X97838297Y-131780722D01*
X97853000Y-131780000D01*
X99603000Y-131780000D01*
X99617703Y-131780722D01*
G37*
G36*
X99617703Y-133050722D02*
G01*
X99632264Y-133052882D01*
X99646543Y-133056459D01*
X99660403Y-133061418D01*
X99673710Y-133067712D01*
X99686336Y-133075280D01*
X99698159Y-133084048D01*
X99709066Y-133093934D01*
X99718952Y-133104841D01*
X99727720Y-133116664D01*
X99735288Y-133129290D01*
X99741582Y-133142597D01*
X99746541Y-133156457D01*
X99750118Y-133170736D01*
X99752278Y-133185297D01*
X99753000Y-133200000D01*
X99753000Y-133500000D01*
X99752278Y-133514703D01*
X99750118Y-133529264D01*
X99746541Y-133543543D01*
X99741582Y-133557403D01*
X99735288Y-133570710D01*
X99727720Y-133583336D01*
X99718952Y-133595159D01*
X99709066Y-133606066D01*
X99698159Y-133615952D01*
X99686336Y-133624720D01*
X99673710Y-133632288D01*
X99660403Y-133638582D01*
X99646543Y-133643541D01*
X99632264Y-133647118D01*
X99617703Y-133649278D01*
X99603000Y-133650000D01*
X97853000Y-133650000D01*
X97838297Y-133649278D01*
X97823736Y-133647118D01*
X97809457Y-133643541D01*
X97795597Y-133638582D01*
X97782290Y-133632288D01*
X97769664Y-133624720D01*
X97757841Y-133615952D01*
X97746934Y-133606066D01*
X97737048Y-133595159D01*
X97728280Y-133583336D01*
X97720712Y-133570710D01*
X97714418Y-133557403D01*
X97709459Y-133543543D01*
X97705882Y-133529264D01*
X97703722Y-133514703D01*
X97703000Y-133500000D01*
X97703000Y-133200000D01*
X97703722Y-133185297D01*
X97705882Y-133170736D01*
X97709459Y-133156457D01*
X97714418Y-133142597D01*
X97720712Y-133129290D01*
X97728280Y-133116664D01*
X97737048Y-133104841D01*
X97746934Y-133093934D01*
X97757841Y-133084048D01*
X97769664Y-133075280D01*
X97782290Y-133067712D01*
X97795597Y-133061418D01*
X97809457Y-133056459D01*
X97823736Y-133052882D01*
X97838297Y-133050722D01*
X97853000Y-133050000D01*
X99603000Y-133050000D01*
X99617703Y-133050722D01*
G37*
G36*
X99617703Y-134320722D02*
G01*
X99632264Y-134322882D01*
X99646543Y-134326459D01*
X99660403Y-134331418D01*
X99673710Y-134337712D01*
X99686336Y-134345280D01*
X99698159Y-134354048D01*
X99709066Y-134363934D01*
X99718952Y-134374841D01*
X99727720Y-134386664D01*
X99735288Y-134399290D01*
X99741582Y-134412597D01*
X99746541Y-134426457D01*
X99750118Y-134440736D01*
X99752278Y-134455297D01*
X99753000Y-134470000D01*
X99753000Y-134770000D01*
X99752278Y-134784703D01*
X99750118Y-134799264D01*
X99746541Y-134813543D01*
X99741582Y-134827403D01*
X99735288Y-134840710D01*
X99727720Y-134853336D01*
X99718952Y-134865159D01*
X99709066Y-134876066D01*
X99698159Y-134885952D01*
X99686336Y-134894720D01*
X99673710Y-134902288D01*
X99660403Y-134908582D01*
X99646543Y-134913541D01*
X99632264Y-134917118D01*
X99617703Y-134919278D01*
X99603000Y-134920000D01*
X97853000Y-134920000D01*
X97838297Y-134919278D01*
X97823736Y-134917118D01*
X97809457Y-134913541D01*
X97795597Y-134908582D01*
X97782290Y-134902288D01*
X97769664Y-134894720D01*
X97757841Y-134885952D01*
X97746934Y-134876066D01*
X97737048Y-134865159D01*
X97728280Y-134853336D01*
X97720712Y-134840710D01*
X97714418Y-134827403D01*
X97709459Y-134813543D01*
X97705882Y-134799264D01*
X97703722Y-134784703D01*
X97703000Y-134770000D01*
X97703000Y-134470000D01*
X97703722Y-134455297D01*
X97705882Y-134440736D01*
X97709459Y-134426457D01*
X97714418Y-134412597D01*
X97720712Y-134399290D01*
X97728280Y-134386664D01*
X97737048Y-134374841D01*
X97746934Y-134363934D01*
X97757841Y-134354048D01*
X97769664Y-134345280D01*
X97782290Y-134337712D01*
X97795597Y-134331418D01*
X97809457Y-134326459D01*
X97823736Y-134322882D01*
X97838297Y-134320722D01*
X97853000Y-134320000D01*
X99603000Y-134320000D01*
X99617703Y-134320722D01*
G37*
G36*
X99617703Y-135590722D02*
G01*
X99632264Y-135592882D01*
X99646543Y-135596459D01*
X99660403Y-135601418D01*
X99673710Y-135607712D01*
X99686336Y-135615280D01*
X99698159Y-135624048D01*
X99709066Y-135633934D01*
X99718952Y-135644841D01*
X99727720Y-135656664D01*
X99735288Y-135669290D01*
X99741582Y-135682597D01*
X99746541Y-135696457D01*
X99750118Y-135710736D01*
X99752278Y-135725297D01*
X99753000Y-135740000D01*
X99753000Y-136040000D01*
X99752278Y-136054703D01*
X99750118Y-136069264D01*
X99746541Y-136083543D01*
X99741582Y-136097403D01*
X99735288Y-136110710D01*
X99727720Y-136123336D01*
X99718952Y-136135159D01*
X99709066Y-136146066D01*
X99698159Y-136155952D01*
X99686336Y-136164720D01*
X99673710Y-136172288D01*
X99660403Y-136178582D01*
X99646543Y-136183541D01*
X99632264Y-136187118D01*
X99617703Y-136189278D01*
X99603000Y-136190000D01*
X97853000Y-136190000D01*
X97838297Y-136189278D01*
X97823736Y-136187118D01*
X97809457Y-136183541D01*
X97795597Y-136178582D01*
X97782290Y-136172288D01*
X97769664Y-136164720D01*
X97757841Y-136155952D01*
X97746934Y-136146066D01*
X97737048Y-136135159D01*
X97728280Y-136123336D01*
X97720712Y-136110710D01*
X97714418Y-136097403D01*
X97709459Y-136083543D01*
X97705882Y-136069264D01*
X97703722Y-136054703D01*
X97703000Y-136040000D01*
X97703000Y-135740000D01*
X97703722Y-135725297D01*
X97705882Y-135710736D01*
X97709459Y-135696457D01*
X97714418Y-135682597D01*
X97720712Y-135669290D01*
X97728280Y-135656664D01*
X97737048Y-135644841D01*
X97746934Y-135633934D01*
X97757841Y-135624048D01*
X97769664Y-135615280D01*
X97782290Y-135607712D01*
X97795597Y-135601418D01*
X97809457Y-135596459D01*
X97823736Y-135592882D01*
X97838297Y-135590722D01*
X97853000Y-135590000D01*
X99603000Y-135590000D01*
X99617703Y-135590722D01*
G37*
G36*
X99617703Y-136860722D02*
G01*
X99632264Y-136862882D01*
X99646543Y-136866459D01*
X99660403Y-136871418D01*
X99673710Y-136877712D01*
X99686336Y-136885280D01*
X99698159Y-136894048D01*
X99709066Y-136903934D01*
X99718952Y-136914841D01*
X99727720Y-136926664D01*
X99735288Y-136939290D01*
X99741582Y-136952597D01*
X99746541Y-136966457D01*
X99750118Y-136980736D01*
X99752278Y-136995297D01*
X99753000Y-137010000D01*
X99753000Y-137310000D01*
X99752278Y-137324703D01*
X99750118Y-137339264D01*
X99746541Y-137353543D01*
X99741582Y-137367403D01*
X99735288Y-137380710D01*
X99727720Y-137393336D01*
X99718952Y-137405159D01*
X99709066Y-137416066D01*
X99698159Y-137425952D01*
X99686336Y-137434720D01*
X99673710Y-137442288D01*
X99660403Y-137448582D01*
X99646543Y-137453541D01*
X99632264Y-137457118D01*
X99617703Y-137459278D01*
X99603000Y-137460000D01*
X97853000Y-137460000D01*
X97838297Y-137459278D01*
X97823736Y-137457118D01*
X97809457Y-137453541D01*
X97795597Y-137448582D01*
X97782290Y-137442288D01*
X97769664Y-137434720D01*
X97757841Y-137425952D01*
X97746934Y-137416066D01*
X97737048Y-137405159D01*
X97728280Y-137393336D01*
X97720712Y-137380710D01*
X97714418Y-137367403D01*
X97709459Y-137353543D01*
X97705882Y-137339264D01*
X97703722Y-137324703D01*
X97703000Y-137310000D01*
X97703000Y-137010000D01*
X97703722Y-136995297D01*
X97705882Y-136980736D01*
X97709459Y-136966457D01*
X97714418Y-136952597D01*
X97720712Y-136939290D01*
X97728280Y-136926664D01*
X97737048Y-136914841D01*
X97746934Y-136903934D01*
X97757841Y-136894048D01*
X97769664Y-136885280D01*
X97782290Y-136877712D01*
X97795597Y-136871418D01*
X97809457Y-136866459D01*
X97823736Y-136862882D01*
X97838297Y-136860722D01*
X97853000Y-136860000D01*
X99603000Y-136860000D01*
X99617703Y-136860722D01*
G37*
G36*
X99617703Y-138130722D02*
G01*
X99632264Y-138132882D01*
X99646543Y-138136459D01*
X99660403Y-138141418D01*
X99673710Y-138147712D01*
X99686336Y-138155280D01*
X99698159Y-138164048D01*
X99709066Y-138173934D01*
X99718952Y-138184841D01*
X99727720Y-138196664D01*
X99735288Y-138209290D01*
X99741582Y-138222597D01*
X99746541Y-138236457D01*
X99750118Y-138250736D01*
X99752278Y-138265297D01*
X99753000Y-138280000D01*
X99753000Y-138580000D01*
X99752278Y-138594703D01*
X99750118Y-138609264D01*
X99746541Y-138623543D01*
X99741582Y-138637403D01*
X99735288Y-138650710D01*
X99727720Y-138663336D01*
X99718952Y-138675159D01*
X99709066Y-138686066D01*
X99698159Y-138695952D01*
X99686336Y-138704720D01*
X99673710Y-138712288D01*
X99660403Y-138718582D01*
X99646543Y-138723541D01*
X99632264Y-138727118D01*
X99617703Y-138729278D01*
X99603000Y-138730000D01*
X97853000Y-138730000D01*
X97838297Y-138729278D01*
X97823736Y-138727118D01*
X97809457Y-138723541D01*
X97795597Y-138718582D01*
X97782290Y-138712288D01*
X97769664Y-138704720D01*
X97757841Y-138695952D01*
X97746934Y-138686066D01*
X97737048Y-138675159D01*
X97728280Y-138663336D01*
X97720712Y-138650710D01*
X97714418Y-138637403D01*
X97709459Y-138623543D01*
X97705882Y-138609264D01*
X97703722Y-138594703D01*
X97703000Y-138580000D01*
X97703000Y-138280000D01*
X97703722Y-138265297D01*
X97705882Y-138250736D01*
X97709459Y-138236457D01*
X97714418Y-138222597D01*
X97720712Y-138209290D01*
X97728280Y-138196664D01*
X97737048Y-138184841D01*
X97746934Y-138173934D01*
X97757841Y-138164048D01*
X97769664Y-138155280D01*
X97782290Y-138147712D01*
X97795597Y-138141418D01*
X97809457Y-138136459D01*
X97823736Y-138132882D01*
X97838297Y-138130722D01*
X97853000Y-138130000D01*
X99603000Y-138130000D01*
X99617703Y-138130722D01*
G37*
G36*
X99617703Y-139400722D02*
G01*
X99632264Y-139402882D01*
X99646543Y-139406459D01*
X99660403Y-139411418D01*
X99673710Y-139417712D01*
X99686336Y-139425280D01*
X99698159Y-139434048D01*
X99709066Y-139443934D01*
X99718952Y-139454841D01*
X99727720Y-139466664D01*
X99735288Y-139479290D01*
X99741582Y-139492597D01*
X99746541Y-139506457D01*
X99750118Y-139520736D01*
X99752278Y-139535297D01*
X99753000Y-139550000D01*
X99753000Y-139850000D01*
X99752278Y-139864703D01*
X99750118Y-139879264D01*
X99746541Y-139893543D01*
X99741582Y-139907403D01*
X99735288Y-139920710D01*
X99727720Y-139933336D01*
X99718952Y-139945159D01*
X99709066Y-139956066D01*
X99698159Y-139965952D01*
X99686336Y-139974720D01*
X99673710Y-139982288D01*
X99660403Y-139988582D01*
X99646543Y-139993541D01*
X99632264Y-139997118D01*
X99617703Y-139999278D01*
X99603000Y-140000000D01*
X97853000Y-140000000D01*
X97838297Y-139999278D01*
X97823736Y-139997118D01*
X97809457Y-139993541D01*
X97795597Y-139988582D01*
X97782290Y-139982288D01*
X97769664Y-139974720D01*
X97757841Y-139965952D01*
X97746934Y-139956066D01*
X97737048Y-139945159D01*
X97728280Y-139933336D01*
X97720712Y-139920710D01*
X97714418Y-139907403D01*
X97709459Y-139893543D01*
X97705882Y-139879264D01*
X97703722Y-139864703D01*
X97703000Y-139850000D01*
X97703000Y-139550000D01*
X97703722Y-139535297D01*
X97705882Y-139520736D01*
X97709459Y-139506457D01*
X97714418Y-139492597D01*
X97720712Y-139479290D01*
X97728280Y-139466664D01*
X97737048Y-139454841D01*
X97746934Y-139443934D01*
X97757841Y-139434048D01*
X97769664Y-139425280D01*
X97782290Y-139417712D01*
X97795597Y-139411418D01*
X97809457Y-139406459D01*
X97823736Y-139402882D01*
X97838297Y-139400722D01*
X97853000Y-139400000D01*
X99603000Y-139400000D01*
X99617703Y-139400722D01*
G37*
G36*
X99617703Y-140670722D02*
G01*
X99632264Y-140672882D01*
X99646543Y-140676459D01*
X99660403Y-140681418D01*
X99673710Y-140687712D01*
X99686336Y-140695280D01*
X99698159Y-140704048D01*
X99709066Y-140713934D01*
X99718952Y-140724841D01*
X99727720Y-140736664D01*
X99735288Y-140749290D01*
X99741582Y-140762597D01*
X99746541Y-140776457D01*
X99750118Y-140790736D01*
X99752278Y-140805297D01*
X99753000Y-140820000D01*
X99753000Y-141120000D01*
X99752278Y-141134703D01*
X99750118Y-141149264D01*
X99746541Y-141163543D01*
X99741582Y-141177403D01*
X99735288Y-141190710D01*
X99727720Y-141203336D01*
X99718952Y-141215159D01*
X99709066Y-141226066D01*
X99698159Y-141235952D01*
X99686336Y-141244720D01*
X99673710Y-141252288D01*
X99660403Y-141258582D01*
X99646543Y-141263541D01*
X99632264Y-141267118D01*
X99617703Y-141269278D01*
X99603000Y-141270000D01*
X97853000Y-141270000D01*
X97838297Y-141269278D01*
X97823736Y-141267118D01*
X97809457Y-141263541D01*
X97795597Y-141258582D01*
X97782290Y-141252288D01*
X97769664Y-141244720D01*
X97757841Y-141235952D01*
X97746934Y-141226066D01*
X97737048Y-141215159D01*
X97728280Y-141203336D01*
X97720712Y-141190710D01*
X97714418Y-141177403D01*
X97709459Y-141163543D01*
X97705882Y-141149264D01*
X97703722Y-141134703D01*
X97703000Y-141120000D01*
X97703000Y-140820000D01*
X97703722Y-140805297D01*
X97705882Y-140790736D01*
X97709459Y-140776457D01*
X97714418Y-140762597D01*
X97720712Y-140749290D01*
X97728280Y-140736664D01*
X97737048Y-140724841D01*
X97746934Y-140713934D01*
X97757841Y-140704048D01*
X97769664Y-140695280D01*
X97782290Y-140687712D01*
X97795597Y-140681418D01*
X97809457Y-140676459D01*
X97823736Y-140672882D01*
X97838297Y-140670722D01*
X97853000Y-140670000D01*
X99603000Y-140670000D01*
X99617703Y-140670722D01*
G37*
G36*
X108917703Y-140670722D02*
G01*
X108932264Y-140672882D01*
X108946543Y-140676459D01*
X108960403Y-140681418D01*
X108973710Y-140687712D01*
X108986336Y-140695280D01*
X108998159Y-140704048D01*
X109009066Y-140713934D01*
X109018952Y-140724841D01*
X109027720Y-140736664D01*
X109035288Y-140749290D01*
X109041582Y-140762597D01*
X109046541Y-140776457D01*
X109050118Y-140790736D01*
X109052278Y-140805297D01*
X109053000Y-140820000D01*
X109053000Y-141120000D01*
X109052278Y-141134703D01*
X109050118Y-141149264D01*
X109046541Y-141163543D01*
X109041582Y-141177403D01*
X109035288Y-141190710D01*
X109027720Y-141203336D01*
X109018952Y-141215159D01*
X109009066Y-141226066D01*
X108998159Y-141235952D01*
X108986336Y-141244720D01*
X108973710Y-141252288D01*
X108960403Y-141258582D01*
X108946543Y-141263541D01*
X108932264Y-141267118D01*
X108917703Y-141269278D01*
X108903000Y-141270000D01*
X107153000Y-141270000D01*
X107138297Y-141269278D01*
X107123736Y-141267118D01*
X107109457Y-141263541D01*
X107095597Y-141258582D01*
X107082290Y-141252288D01*
X107069664Y-141244720D01*
X107057841Y-141235952D01*
X107046934Y-141226066D01*
X107037048Y-141215159D01*
X107028280Y-141203336D01*
X107020712Y-141190710D01*
X107014418Y-141177403D01*
X107009459Y-141163543D01*
X107005882Y-141149264D01*
X107003722Y-141134703D01*
X107003000Y-141120000D01*
X107003000Y-140820000D01*
X107003722Y-140805297D01*
X107005882Y-140790736D01*
X107009459Y-140776457D01*
X107014418Y-140762597D01*
X107020712Y-140749290D01*
X107028280Y-140736664D01*
X107037048Y-140724841D01*
X107046934Y-140713934D01*
X107057841Y-140704048D01*
X107069664Y-140695280D01*
X107082290Y-140687712D01*
X107095597Y-140681418D01*
X107109457Y-140676459D01*
X107123736Y-140672882D01*
X107138297Y-140670722D01*
X107153000Y-140670000D01*
X108903000Y-140670000D01*
X108917703Y-140670722D01*
G37*
G36*
X108917703Y-139400722D02*
G01*
X108932264Y-139402882D01*
X108946543Y-139406459D01*
X108960403Y-139411418D01*
X108973710Y-139417712D01*
X108986336Y-139425280D01*
X108998159Y-139434048D01*
X109009066Y-139443934D01*
X109018952Y-139454841D01*
X109027720Y-139466664D01*
X109035288Y-139479290D01*
X109041582Y-139492597D01*
X109046541Y-139506457D01*
X109050118Y-139520736D01*
X109052278Y-139535297D01*
X109053000Y-139550000D01*
X109053000Y-139850000D01*
X109052278Y-139864703D01*
X109050118Y-139879264D01*
X109046541Y-139893543D01*
X109041582Y-139907403D01*
X109035288Y-139920710D01*
X109027720Y-139933336D01*
X109018952Y-139945159D01*
X109009066Y-139956066D01*
X108998159Y-139965952D01*
X108986336Y-139974720D01*
X108973710Y-139982288D01*
X108960403Y-139988582D01*
X108946543Y-139993541D01*
X108932264Y-139997118D01*
X108917703Y-139999278D01*
X108903000Y-140000000D01*
X107153000Y-140000000D01*
X107138297Y-139999278D01*
X107123736Y-139997118D01*
X107109457Y-139993541D01*
X107095597Y-139988582D01*
X107082290Y-139982288D01*
X107069664Y-139974720D01*
X107057841Y-139965952D01*
X107046934Y-139956066D01*
X107037048Y-139945159D01*
X107028280Y-139933336D01*
X107020712Y-139920710D01*
X107014418Y-139907403D01*
X107009459Y-139893543D01*
X107005882Y-139879264D01*
X107003722Y-139864703D01*
X107003000Y-139850000D01*
X107003000Y-139550000D01*
X107003722Y-139535297D01*
X107005882Y-139520736D01*
X107009459Y-139506457D01*
X107014418Y-139492597D01*
X107020712Y-139479290D01*
X107028280Y-139466664D01*
X107037048Y-139454841D01*
X107046934Y-139443934D01*
X107057841Y-139434048D01*
X107069664Y-139425280D01*
X107082290Y-139417712D01*
X107095597Y-139411418D01*
X107109457Y-139406459D01*
X107123736Y-139402882D01*
X107138297Y-139400722D01*
X107153000Y-139400000D01*
X108903000Y-139400000D01*
X108917703Y-139400722D01*
G37*
G36*
X108917703Y-138130722D02*
G01*
X108932264Y-138132882D01*
X108946543Y-138136459D01*
X108960403Y-138141418D01*
X108973710Y-138147712D01*
X108986336Y-138155280D01*
X108998159Y-138164048D01*
X109009066Y-138173934D01*
X109018952Y-138184841D01*
X109027720Y-138196664D01*
X109035288Y-138209290D01*
X109041582Y-138222597D01*
X109046541Y-138236457D01*
X109050118Y-138250736D01*
X109052278Y-138265297D01*
X109053000Y-138280000D01*
X109053000Y-138580000D01*
X109052278Y-138594703D01*
X109050118Y-138609264D01*
X109046541Y-138623543D01*
X109041582Y-138637403D01*
X109035288Y-138650710D01*
X109027720Y-138663336D01*
X109018952Y-138675159D01*
X109009066Y-138686066D01*
X108998159Y-138695952D01*
X108986336Y-138704720D01*
X108973710Y-138712288D01*
X108960403Y-138718582D01*
X108946543Y-138723541D01*
X108932264Y-138727118D01*
X108917703Y-138729278D01*
X108903000Y-138730000D01*
X107153000Y-138730000D01*
X107138297Y-138729278D01*
X107123736Y-138727118D01*
X107109457Y-138723541D01*
X107095597Y-138718582D01*
X107082290Y-138712288D01*
X107069664Y-138704720D01*
X107057841Y-138695952D01*
X107046934Y-138686066D01*
X107037048Y-138675159D01*
X107028280Y-138663336D01*
X107020712Y-138650710D01*
X107014418Y-138637403D01*
X107009459Y-138623543D01*
X107005882Y-138609264D01*
X107003722Y-138594703D01*
X107003000Y-138580000D01*
X107003000Y-138280000D01*
X107003722Y-138265297D01*
X107005882Y-138250736D01*
X107009459Y-138236457D01*
X107014418Y-138222597D01*
X107020712Y-138209290D01*
X107028280Y-138196664D01*
X107037048Y-138184841D01*
X107046934Y-138173934D01*
X107057841Y-138164048D01*
X107069664Y-138155280D01*
X107082290Y-138147712D01*
X107095597Y-138141418D01*
X107109457Y-138136459D01*
X107123736Y-138132882D01*
X107138297Y-138130722D01*
X107153000Y-138130000D01*
X108903000Y-138130000D01*
X108917703Y-138130722D01*
G37*
G36*
X108917703Y-136860722D02*
G01*
X108932264Y-136862882D01*
X108946543Y-136866459D01*
X108960403Y-136871418D01*
X108973710Y-136877712D01*
X108986336Y-136885280D01*
X108998159Y-136894048D01*
X109009066Y-136903934D01*
X109018952Y-136914841D01*
X109027720Y-136926664D01*
X109035288Y-136939290D01*
X109041582Y-136952597D01*
X109046541Y-136966457D01*
X109050118Y-136980736D01*
X109052278Y-136995297D01*
X109053000Y-137010000D01*
X109053000Y-137310000D01*
X109052278Y-137324703D01*
X109050118Y-137339264D01*
X109046541Y-137353543D01*
X109041582Y-137367403D01*
X109035288Y-137380710D01*
X109027720Y-137393336D01*
X109018952Y-137405159D01*
X109009066Y-137416066D01*
X108998159Y-137425952D01*
X108986336Y-137434720D01*
X108973710Y-137442288D01*
X108960403Y-137448582D01*
X108946543Y-137453541D01*
X108932264Y-137457118D01*
X108917703Y-137459278D01*
X108903000Y-137460000D01*
X107153000Y-137460000D01*
X107138297Y-137459278D01*
X107123736Y-137457118D01*
X107109457Y-137453541D01*
X107095597Y-137448582D01*
X107082290Y-137442288D01*
X107069664Y-137434720D01*
X107057841Y-137425952D01*
X107046934Y-137416066D01*
X107037048Y-137405159D01*
X107028280Y-137393336D01*
X107020712Y-137380710D01*
X107014418Y-137367403D01*
X107009459Y-137353543D01*
X107005882Y-137339264D01*
X107003722Y-137324703D01*
X107003000Y-137310000D01*
X107003000Y-137010000D01*
X107003722Y-136995297D01*
X107005882Y-136980736D01*
X107009459Y-136966457D01*
X107014418Y-136952597D01*
X107020712Y-136939290D01*
X107028280Y-136926664D01*
X107037048Y-136914841D01*
X107046934Y-136903934D01*
X107057841Y-136894048D01*
X107069664Y-136885280D01*
X107082290Y-136877712D01*
X107095597Y-136871418D01*
X107109457Y-136866459D01*
X107123736Y-136862882D01*
X107138297Y-136860722D01*
X107153000Y-136860000D01*
X108903000Y-136860000D01*
X108917703Y-136860722D01*
G37*
G36*
X108917703Y-135590722D02*
G01*
X108932264Y-135592882D01*
X108946543Y-135596459D01*
X108960403Y-135601418D01*
X108973710Y-135607712D01*
X108986336Y-135615280D01*
X108998159Y-135624048D01*
X109009066Y-135633934D01*
X109018952Y-135644841D01*
X109027720Y-135656664D01*
X109035288Y-135669290D01*
X109041582Y-135682597D01*
X109046541Y-135696457D01*
X109050118Y-135710736D01*
X109052278Y-135725297D01*
X109053000Y-135740000D01*
X109053000Y-136040000D01*
X109052278Y-136054703D01*
X109050118Y-136069264D01*
X109046541Y-136083543D01*
X109041582Y-136097403D01*
X109035288Y-136110710D01*
X109027720Y-136123336D01*
X109018952Y-136135159D01*
X109009066Y-136146066D01*
X108998159Y-136155952D01*
X108986336Y-136164720D01*
X108973710Y-136172288D01*
X108960403Y-136178582D01*
X108946543Y-136183541D01*
X108932264Y-136187118D01*
X108917703Y-136189278D01*
X108903000Y-136190000D01*
X107153000Y-136190000D01*
X107138297Y-136189278D01*
X107123736Y-136187118D01*
X107109457Y-136183541D01*
X107095597Y-136178582D01*
X107082290Y-136172288D01*
X107069664Y-136164720D01*
X107057841Y-136155952D01*
X107046934Y-136146066D01*
X107037048Y-136135159D01*
X107028280Y-136123336D01*
X107020712Y-136110710D01*
X107014418Y-136097403D01*
X107009459Y-136083543D01*
X107005882Y-136069264D01*
X107003722Y-136054703D01*
X107003000Y-136040000D01*
X107003000Y-135740000D01*
X107003722Y-135725297D01*
X107005882Y-135710736D01*
X107009459Y-135696457D01*
X107014418Y-135682597D01*
X107020712Y-135669290D01*
X107028280Y-135656664D01*
X107037048Y-135644841D01*
X107046934Y-135633934D01*
X107057841Y-135624048D01*
X107069664Y-135615280D01*
X107082290Y-135607712D01*
X107095597Y-135601418D01*
X107109457Y-135596459D01*
X107123736Y-135592882D01*
X107138297Y-135590722D01*
X107153000Y-135590000D01*
X108903000Y-135590000D01*
X108917703Y-135590722D01*
G37*
G36*
X108917703Y-134320722D02*
G01*
X108932264Y-134322882D01*
X108946543Y-134326459D01*
X108960403Y-134331418D01*
X108973710Y-134337712D01*
X108986336Y-134345280D01*
X108998159Y-134354048D01*
X109009066Y-134363934D01*
X109018952Y-134374841D01*
X109027720Y-134386664D01*
X109035288Y-134399290D01*
X109041582Y-134412597D01*
X109046541Y-134426457D01*
X109050118Y-134440736D01*
X109052278Y-134455297D01*
X109053000Y-134470000D01*
X109053000Y-134770000D01*
X109052278Y-134784703D01*
X109050118Y-134799264D01*
X109046541Y-134813543D01*
X109041582Y-134827403D01*
X109035288Y-134840710D01*
X109027720Y-134853336D01*
X109018952Y-134865159D01*
X109009066Y-134876066D01*
X108998159Y-134885952D01*
X108986336Y-134894720D01*
X108973710Y-134902288D01*
X108960403Y-134908582D01*
X108946543Y-134913541D01*
X108932264Y-134917118D01*
X108917703Y-134919278D01*
X108903000Y-134920000D01*
X107153000Y-134920000D01*
X107138297Y-134919278D01*
X107123736Y-134917118D01*
X107109457Y-134913541D01*
X107095597Y-134908582D01*
X107082290Y-134902288D01*
X107069664Y-134894720D01*
X107057841Y-134885952D01*
X107046934Y-134876066D01*
X107037048Y-134865159D01*
X107028280Y-134853336D01*
X107020712Y-134840710D01*
X107014418Y-134827403D01*
X107009459Y-134813543D01*
X107005882Y-134799264D01*
X107003722Y-134784703D01*
X107003000Y-134770000D01*
X107003000Y-134470000D01*
X107003722Y-134455297D01*
X107005882Y-134440736D01*
X107009459Y-134426457D01*
X107014418Y-134412597D01*
X107020712Y-134399290D01*
X107028280Y-134386664D01*
X107037048Y-134374841D01*
X107046934Y-134363934D01*
X107057841Y-134354048D01*
X107069664Y-134345280D01*
X107082290Y-134337712D01*
X107095597Y-134331418D01*
X107109457Y-134326459D01*
X107123736Y-134322882D01*
X107138297Y-134320722D01*
X107153000Y-134320000D01*
X108903000Y-134320000D01*
X108917703Y-134320722D01*
G37*
G36*
X108917703Y-133050722D02*
G01*
X108932264Y-133052882D01*
X108946543Y-133056459D01*
X108960403Y-133061418D01*
X108973710Y-133067712D01*
X108986336Y-133075280D01*
X108998159Y-133084048D01*
X109009066Y-133093934D01*
X109018952Y-133104841D01*
X109027720Y-133116664D01*
X109035288Y-133129290D01*
X109041582Y-133142597D01*
X109046541Y-133156457D01*
X109050118Y-133170736D01*
X109052278Y-133185297D01*
X109053000Y-133200000D01*
X109053000Y-133500000D01*
X109052278Y-133514703D01*
X109050118Y-133529264D01*
X109046541Y-133543543D01*
X109041582Y-133557403D01*
X109035288Y-133570710D01*
X109027720Y-133583336D01*
X109018952Y-133595159D01*
X109009066Y-133606066D01*
X108998159Y-133615952D01*
X108986336Y-133624720D01*
X108973710Y-133632288D01*
X108960403Y-133638582D01*
X108946543Y-133643541D01*
X108932264Y-133647118D01*
X108917703Y-133649278D01*
X108903000Y-133650000D01*
X107153000Y-133650000D01*
X107138297Y-133649278D01*
X107123736Y-133647118D01*
X107109457Y-133643541D01*
X107095597Y-133638582D01*
X107082290Y-133632288D01*
X107069664Y-133624720D01*
X107057841Y-133615952D01*
X107046934Y-133606066D01*
X107037048Y-133595159D01*
X107028280Y-133583336D01*
X107020712Y-133570710D01*
X107014418Y-133557403D01*
X107009459Y-133543543D01*
X107005882Y-133529264D01*
X107003722Y-133514703D01*
X107003000Y-133500000D01*
X107003000Y-133200000D01*
X107003722Y-133185297D01*
X107005882Y-133170736D01*
X107009459Y-133156457D01*
X107014418Y-133142597D01*
X107020712Y-133129290D01*
X107028280Y-133116664D01*
X107037048Y-133104841D01*
X107046934Y-133093934D01*
X107057841Y-133084048D01*
X107069664Y-133075280D01*
X107082290Y-133067712D01*
X107095597Y-133061418D01*
X107109457Y-133056459D01*
X107123736Y-133052882D01*
X107138297Y-133050722D01*
X107153000Y-133050000D01*
X108903000Y-133050000D01*
X108917703Y-133050722D01*
G37*
G36*
X108917703Y-131780722D02*
G01*
X108932264Y-131782882D01*
X108946543Y-131786459D01*
X108960403Y-131791418D01*
X108973710Y-131797712D01*
X108986336Y-131805280D01*
X108998159Y-131814048D01*
X109009066Y-131823934D01*
X109018952Y-131834841D01*
X109027720Y-131846664D01*
X109035288Y-131859290D01*
X109041582Y-131872597D01*
X109046541Y-131886457D01*
X109050118Y-131900736D01*
X109052278Y-131915297D01*
X109053000Y-131930000D01*
X109053000Y-132230000D01*
X109052278Y-132244703D01*
X109050118Y-132259264D01*
X109046541Y-132273543D01*
X109041582Y-132287403D01*
X109035288Y-132300710D01*
X109027720Y-132313336D01*
X109018952Y-132325159D01*
X109009066Y-132336066D01*
X108998159Y-132345952D01*
X108986336Y-132354720D01*
X108973710Y-132362288D01*
X108960403Y-132368582D01*
X108946543Y-132373541D01*
X108932264Y-132377118D01*
X108917703Y-132379278D01*
X108903000Y-132380000D01*
X107153000Y-132380000D01*
X107138297Y-132379278D01*
X107123736Y-132377118D01*
X107109457Y-132373541D01*
X107095597Y-132368582D01*
X107082290Y-132362288D01*
X107069664Y-132354720D01*
X107057841Y-132345952D01*
X107046934Y-132336066D01*
X107037048Y-132325159D01*
X107028280Y-132313336D01*
X107020712Y-132300710D01*
X107014418Y-132287403D01*
X107009459Y-132273543D01*
X107005882Y-132259264D01*
X107003722Y-132244703D01*
X107003000Y-132230000D01*
X107003000Y-131930000D01*
X107003722Y-131915297D01*
X107005882Y-131900736D01*
X107009459Y-131886457D01*
X107014418Y-131872597D01*
X107020712Y-131859290D01*
X107028280Y-131846664D01*
X107037048Y-131834841D01*
X107046934Y-131823934D01*
X107057841Y-131814048D01*
X107069664Y-131805280D01*
X107082290Y-131797712D01*
X107095597Y-131791418D01*
X107109457Y-131786459D01*
X107123736Y-131782882D01*
X107138297Y-131780722D01*
X107153000Y-131780000D01*
X108903000Y-131780000D01*
X108917703Y-131780722D01*
G37*
G36*
X108917703Y-130510722D02*
G01*
X108932264Y-130512882D01*
X108946543Y-130516459D01*
X108960403Y-130521418D01*
X108973710Y-130527712D01*
X108986336Y-130535280D01*
X108998159Y-130544048D01*
X109009066Y-130553934D01*
X109018952Y-130564841D01*
X109027720Y-130576664D01*
X109035288Y-130589290D01*
X109041582Y-130602597D01*
X109046541Y-130616457D01*
X109050118Y-130630736D01*
X109052278Y-130645297D01*
X109053000Y-130660000D01*
X109053000Y-130960000D01*
X109052278Y-130974703D01*
X109050118Y-130989264D01*
X109046541Y-131003543D01*
X109041582Y-131017403D01*
X109035288Y-131030710D01*
X109027720Y-131043336D01*
X109018952Y-131055159D01*
X109009066Y-131066066D01*
X108998159Y-131075952D01*
X108986336Y-131084720D01*
X108973710Y-131092288D01*
X108960403Y-131098582D01*
X108946543Y-131103541D01*
X108932264Y-131107118D01*
X108917703Y-131109278D01*
X108903000Y-131110000D01*
X107153000Y-131110000D01*
X107138297Y-131109278D01*
X107123736Y-131107118D01*
X107109457Y-131103541D01*
X107095597Y-131098582D01*
X107082290Y-131092288D01*
X107069664Y-131084720D01*
X107057841Y-131075952D01*
X107046934Y-131066066D01*
X107037048Y-131055159D01*
X107028280Y-131043336D01*
X107020712Y-131030710D01*
X107014418Y-131017403D01*
X107009459Y-131003543D01*
X107005882Y-130989264D01*
X107003722Y-130974703D01*
X107003000Y-130960000D01*
X107003000Y-130660000D01*
X107003722Y-130645297D01*
X107005882Y-130630736D01*
X107009459Y-130616457D01*
X107014418Y-130602597D01*
X107020712Y-130589290D01*
X107028280Y-130576664D01*
X107037048Y-130564841D01*
X107046934Y-130553934D01*
X107057841Y-130544048D01*
X107069664Y-130535280D01*
X107082290Y-130527712D01*
X107095597Y-130521418D01*
X107109457Y-130516459D01*
X107123736Y-130512882D01*
X107138297Y-130510722D01*
X107153000Y-130510000D01*
X108903000Y-130510000D01*
X108917703Y-130510722D01*
G37*
G36*
X108917703Y-129240722D02*
G01*
X108932264Y-129242882D01*
X108946543Y-129246459D01*
X108960403Y-129251418D01*
X108973710Y-129257712D01*
X108986336Y-129265280D01*
X108998159Y-129274048D01*
X109009066Y-129283934D01*
X109018952Y-129294841D01*
X109027720Y-129306664D01*
X109035288Y-129319290D01*
X109041582Y-129332597D01*
X109046541Y-129346457D01*
X109050118Y-129360736D01*
X109052278Y-129375297D01*
X109053000Y-129390000D01*
X109053000Y-129690000D01*
X109052278Y-129704703D01*
X109050118Y-129719264D01*
X109046541Y-129733543D01*
X109041582Y-129747403D01*
X109035288Y-129760710D01*
X109027720Y-129773336D01*
X109018952Y-129785159D01*
X109009066Y-129796066D01*
X108998159Y-129805952D01*
X108986336Y-129814720D01*
X108973710Y-129822288D01*
X108960403Y-129828582D01*
X108946543Y-129833541D01*
X108932264Y-129837118D01*
X108917703Y-129839278D01*
X108903000Y-129840000D01*
X107153000Y-129840000D01*
X107138297Y-129839278D01*
X107123736Y-129837118D01*
X107109457Y-129833541D01*
X107095597Y-129828582D01*
X107082290Y-129822288D01*
X107069664Y-129814720D01*
X107057841Y-129805952D01*
X107046934Y-129796066D01*
X107037048Y-129785159D01*
X107028280Y-129773336D01*
X107020712Y-129760710D01*
X107014418Y-129747403D01*
X107009459Y-129733543D01*
X107005882Y-129719264D01*
X107003722Y-129704703D01*
X107003000Y-129690000D01*
X107003000Y-129390000D01*
X107003722Y-129375297D01*
X107005882Y-129360736D01*
X107009459Y-129346457D01*
X107014418Y-129332597D01*
X107020712Y-129319290D01*
X107028280Y-129306664D01*
X107037048Y-129294841D01*
X107046934Y-129283934D01*
X107057841Y-129274048D01*
X107069664Y-129265280D01*
X107082290Y-129257712D01*
X107095597Y-129251418D01*
X107109457Y-129246459D01*
X107123736Y-129242882D01*
X107138297Y-129240722D01*
X107153000Y-129240000D01*
X108903000Y-129240000D01*
X108917703Y-129240722D01*
G37*
G36*
X119022691Y-98471052D02*
G01*
X119043926Y-98474202D01*
X119064750Y-98479418D01*
X119084962Y-98486650D01*
X119104368Y-98495829D01*
X119122781Y-98506865D01*
X119140024Y-98519653D01*
X119155930Y-98534069D01*
X119170346Y-98549975D01*
X119183134Y-98567218D01*
X119194170Y-98585631D01*
X119203349Y-98605037D01*
X119210581Y-98625249D01*
X119215797Y-98646073D01*
X119218947Y-98667308D01*
X119220000Y-98688749D01*
X119220000Y-99126249D01*
X119218947Y-99147690D01*
X119215797Y-99168925D01*
X119210581Y-99189749D01*
X119203349Y-99209961D01*
X119194170Y-99229367D01*
X119183134Y-99247780D01*
X119170346Y-99265023D01*
X119155930Y-99280929D01*
X119140024Y-99295345D01*
X119122781Y-99308133D01*
X119104368Y-99319169D01*
X119084962Y-99328348D01*
X119064750Y-99335580D01*
X119043926Y-99340796D01*
X119022691Y-99343946D01*
X119001250Y-99344999D01*
X118488750Y-99344999D01*
X118467309Y-99343946D01*
X118446074Y-99340796D01*
X118425250Y-99335580D01*
X118405038Y-99328348D01*
X118385632Y-99319169D01*
X118367219Y-99308133D01*
X118349976Y-99295345D01*
X118334070Y-99280929D01*
X118319654Y-99265023D01*
X118306866Y-99247780D01*
X118295830Y-99229367D01*
X118286651Y-99209961D01*
X118279419Y-99189749D01*
X118274203Y-99168925D01*
X118271053Y-99147690D01*
X118270000Y-99126249D01*
X118270000Y-98688749D01*
X118271053Y-98667308D01*
X118274203Y-98646073D01*
X118279419Y-98625249D01*
X118286651Y-98605037D01*
X118295830Y-98585631D01*
X118306866Y-98567218D01*
X118319654Y-98549975D01*
X118334070Y-98534069D01*
X118349976Y-98519653D01*
X118367219Y-98506865D01*
X118385632Y-98495829D01*
X118405038Y-98486650D01*
X118425250Y-98479418D01*
X118446074Y-98474202D01*
X118467309Y-98471052D01*
X118488750Y-98469999D01*
X119001250Y-98469999D01*
X119022691Y-98471052D01*
G37*
G36*
X119022691Y-100046054D02*
G01*
X119043926Y-100049204D01*
X119064750Y-100054420D01*
X119084962Y-100061652D01*
X119104368Y-100070831D01*
X119122781Y-100081867D01*
X119140024Y-100094655D01*
X119155930Y-100109071D01*
X119170346Y-100124977D01*
X119183134Y-100142220D01*
X119194170Y-100160633D01*
X119203349Y-100180039D01*
X119210581Y-100200251D01*
X119215797Y-100221075D01*
X119218947Y-100242310D01*
X119220000Y-100263751D01*
X119220000Y-100701251D01*
X119218947Y-100722692D01*
X119215797Y-100743927D01*
X119210581Y-100764751D01*
X119203349Y-100784963D01*
X119194170Y-100804369D01*
X119183134Y-100822782D01*
X119170346Y-100840025D01*
X119155930Y-100855931D01*
X119140024Y-100870347D01*
X119122781Y-100883135D01*
X119104368Y-100894171D01*
X119084962Y-100903350D01*
X119064750Y-100910582D01*
X119043926Y-100915798D01*
X119022691Y-100918948D01*
X119001250Y-100920001D01*
X118488750Y-100920001D01*
X118467309Y-100918948D01*
X118446074Y-100915798D01*
X118425250Y-100910582D01*
X118405038Y-100903350D01*
X118385632Y-100894171D01*
X118367219Y-100883135D01*
X118349976Y-100870347D01*
X118334070Y-100855931D01*
X118319654Y-100840025D01*
X118306866Y-100822782D01*
X118295830Y-100804369D01*
X118286651Y-100784963D01*
X118279419Y-100764751D01*
X118274203Y-100743927D01*
X118271053Y-100722692D01*
X118270000Y-100701251D01*
X118270000Y-100263751D01*
X118271053Y-100242310D01*
X118274203Y-100221075D01*
X118279419Y-100200251D01*
X118286651Y-100180039D01*
X118295830Y-100160633D01*
X118306866Y-100142220D01*
X118319654Y-100124977D01*
X118334070Y-100109071D01*
X118349976Y-100094655D01*
X118367219Y-100081867D01*
X118385632Y-100070831D01*
X118405038Y-100061652D01*
X118425250Y-100054420D01*
X118446074Y-100049204D01*
X118467309Y-100046054D01*
X118488750Y-100045001D01*
X119001250Y-100045001D01*
X119022691Y-100046054D01*
G37*
G36*
X131518077Y-160658274D02*
G01*
X131539312Y-160661424D01*
X131560136Y-160666640D01*
X131580348Y-160673872D01*
X131599754Y-160683051D01*
X131618167Y-160694087D01*
X131635410Y-160706875D01*
X131651316Y-160721291D01*
X132013709Y-161083684D01*
X132028125Y-161099590D01*
X132040913Y-161116833D01*
X132051949Y-161135246D01*
X132061128Y-161154652D01*
X132068360Y-161174864D01*
X132073576Y-161195688D01*
X132076726Y-161216923D01*
X132077779Y-161238364D01*
X132076726Y-161259805D01*
X132073576Y-161281040D01*
X132068360Y-161301864D01*
X132061128Y-161322076D01*
X132051949Y-161341482D01*
X132040913Y-161359895D01*
X132028125Y-161377138D01*
X132013709Y-161393044D01*
X131704350Y-161702403D01*
X131688444Y-161716819D01*
X131671201Y-161729607D01*
X131652788Y-161740643D01*
X131633382Y-161749822D01*
X131613170Y-161757054D01*
X131592346Y-161762270D01*
X131571111Y-161765420D01*
X131549670Y-161766473D01*
X131528229Y-161765420D01*
X131506994Y-161762270D01*
X131486170Y-161757054D01*
X131465958Y-161749822D01*
X131446552Y-161740643D01*
X131428139Y-161729607D01*
X131410896Y-161716819D01*
X131394990Y-161702403D01*
X131032597Y-161340010D01*
X131018181Y-161324104D01*
X131005393Y-161306861D01*
X130994357Y-161288448D01*
X130985178Y-161269042D01*
X130977946Y-161248830D01*
X130972730Y-161228006D01*
X130969580Y-161206771D01*
X130968527Y-161185330D01*
X130969580Y-161163889D01*
X130972730Y-161142654D01*
X130977946Y-161121830D01*
X130985178Y-161101618D01*
X130994357Y-161082212D01*
X131005393Y-161063799D01*
X131018181Y-161046556D01*
X131032597Y-161030650D01*
X131341956Y-160721291D01*
X131357862Y-160706875D01*
X131375105Y-160694087D01*
X131393518Y-160683051D01*
X131412924Y-160673872D01*
X131433136Y-160666640D01*
X131453960Y-160661424D01*
X131475195Y-160658274D01*
X131496636Y-160657221D01*
X131518077Y-160658274D01*
G37*
G36*
X132631771Y-159544580D02*
G01*
X132653006Y-159547730D01*
X132673830Y-159552946D01*
X132694042Y-159560178D01*
X132713448Y-159569357D01*
X132731861Y-159580393D01*
X132749104Y-159593181D01*
X132765010Y-159607597D01*
X133127403Y-159969990D01*
X133141819Y-159985896D01*
X133154607Y-160003139D01*
X133165643Y-160021552D01*
X133174822Y-160040958D01*
X133182054Y-160061170D01*
X133187270Y-160081994D01*
X133190420Y-160103229D01*
X133191473Y-160124670D01*
X133190420Y-160146111D01*
X133187270Y-160167346D01*
X133182054Y-160188170D01*
X133174822Y-160208382D01*
X133165643Y-160227788D01*
X133154607Y-160246201D01*
X133141819Y-160263444D01*
X133127403Y-160279350D01*
X132818044Y-160588709D01*
X132802138Y-160603125D01*
X132784895Y-160615913D01*
X132766482Y-160626949D01*
X132747076Y-160636128D01*
X132726864Y-160643360D01*
X132706040Y-160648576D01*
X132684805Y-160651726D01*
X132663364Y-160652779D01*
X132641923Y-160651726D01*
X132620688Y-160648576D01*
X132599864Y-160643360D01*
X132579652Y-160636128D01*
X132560246Y-160626949D01*
X132541833Y-160615913D01*
X132524590Y-160603125D01*
X132508684Y-160588709D01*
X132146291Y-160226316D01*
X132131875Y-160210410D01*
X132119087Y-160193167D01*
X132108051Y-160174754D01*
X132098872Y-160155348D01*
X132091640Y-160135136D01*
X132086424Y-160114312D01*
X132083274Y-160093077D01*
X132082221Y-160071636D01*
X132083274Y-160050195D01*
X132086424Y-160028960D01*
X132091640Y-160008136D01*
X132098872Y-159987924D01*
X132108051Y-159968518D01*
X132119087Y-159950105D01*
X132131875Y-159932862D01*
X132146291Y-159916956D01*
X132455650Y-159607597D01*
X132471556Y-159593181D01*
X132488799Y-159580393D01*
X132507212Y-159569357D01*
X132526618Y-159560178D01*
X132546830Y-159552946D01*
X132567654Y-159547730D01*
X132588889Y-159544580D01*
X132610330Y-159543527D01*
X132631771Y-159544580D01*
G37*
G36*
X93940691Y-137321053D02*
G01*
X93961926Y-137324203D01*
X93982750Y-137329419D01*
X94002962Y-137336651D01*
X94022368Y-137345830D01*
X94040781Y-137356866D01*
X94058024Y-137369654D01*
X94073930Y-137384070D01*
X94088346Y-137399976D01*
X94101134Y-137417219D01*
X94112170Y-137435632D01*
X94121349Y-137455038D01*
X94128581Y-137475250D01*
X94133797Y-137496074D01*
X94136947Y-137517309D01*
X94138000Y-137538750D01*
X94138000Y-138051250D01*
X94136947Y-138072691D01*
X94133797Y-138093926D01*
X94128581Y-138114750D01*
X94121349Y-138134962D01*
X94112170Y-138154368D01*
X94101134Y-138172781D01*
X94088346Y-138190024D01*
X94073930Y-138205930D01*
X94058024Y-138220346D01*
X94040781Y-138233134D01*
X94022368Y-138244170D01*
X94002962Y-138253349D01*
X93982750Y-138260581D01*
X93961926Y-138265797D01*
X93940691Y-138268947D01*
X93919250Y-138270000D01*
X93481750Y-138270000D01*
X93460309Y-138268947D01*
X93439074Y-138265797D01*
X93418250Y-138260581D01*
X93398038Y-138253349D01*
X93378632Y-138244170D01*
X93360219Y-138233134D01*
X93342976Y-138220346D01*
X93327070Y-138205930D01*
X93312654Y-138190024D01*
X93299866Y-138172781D01*
X93288830Y-138154368D01*
X93279651Y-138134962D01*
X93272419Y-138114750D01*
X93267203Y-138093926D01*
X93264053Y-138072691D01*
X93263000Y-138051250D01*
X93263000Y-137538750D01*
X93264053Y-137517309D01*
X93267203Y-137496074D01*
X93272419Y-137475250D01*
X93279651Y-137455038D01*
X93288830Y-137435632D01*
X93299866Y-137417219D01*
X93312654Y-137399976D01*
X93327070Y-137384070D01*
X93342976Y-137369654D01*
X93360219Y-137356866D01*
X93378632Y-137345830D01*
X93398038Y-137336651D01*
X93418250Y-137329419D01*
X93439074Y-137324203D01*
X93460309Y-137321053D01*
X93481750Y-137320000D01*
X93919250Y-137320000D01*
X93940691Y-137321053D01*
G37*
G36*
X95515691Y-137321053D02*
G01*
X95536926Y-137324203D01*
X95557750Y-137329419D01*
X95577962Y-137336651D01*
X95597368Y-137345830D01*
X95615781Y-137356866D01*
X95633024Y-137369654D01*
X95648930Y-137384070D01*
X95663346Y-137399976D01*
X95676134Y-137417219D01*
X95687170Y-137435632D01*
X95696349Y-137455038D01*
X95703581Y-137475250D01*
X95708797Y-137496074D01*
X95711947Y-137517309D01*
X95713000Y-137538750D01*
X95713000Y-138051250D01*
X95711947Y-138072691D01*
X95708797Y-138093926D01*
X95703581Y-138114750D01*
X95696349Y-138134962D01*
X95687170Y-138154368D01*
X95676134Y-138172781D01*
X95663346Y-138190024D01*
X95648930Y-138205930D01*
X95633024Y-138220346D01*
X95615781Y-138233134D01*
X95597368Y-138244170D01*
X95577962Y-138253349D01*
X95557750Y-138260581D01*
X95536926Y-138265797D01*
X95515691Y-138268947D01*
X95494250Y-138270000D01*
X95056750Y-138270000D01*
X95035309Y-138268947D01*
X95014074Y-138265797D01*
X94993250Y-138260581D01*
X94973038Y-138253349D01*
X94953632Y-138244170D01*
X94935219Y-138233134D01*
X94917976Y-138220346D01*
X94902070Y-138205930D01*
X94887654Y-138190024D01*
X94874866Y-138172781D01*
X94863830Y-138154368D01*
X94854651Y-138134962D01*
X94847419Y-138114750D01*
X94842203Y-138093926D01*
X94839053Y-138072691D01*
X94838000Y-138051250D01*
X94838000Y-137538750D01*
X94839053Y-137517309D01*
X94842203Y-137496074D01*
X94847419Y-137475250D01*
X94854651Y-137455038D01*
X94863830Y-137435632D01*
X94874866Y-137417219D01*
X94887654Y-137399976D01*
X94902070Y-137384070D01*
X94917976Y-137369654D01*
X94935219Y-137356866D01*
X94953632Y-137345830D01*
X94973038Y-137336651D01*
X94993250Y-137329419D01*
X95014074Y-137324203D01*
X95035309Y-137321053D01*
X95056750Y-137320000D01*
X95494250Y-137320000D01*
X95515691Y-137321053D01*
G37*
G36*
X93940691Y-139226053D02*
G01*
X93961926Y-139229203D01*
X93982750Y-139234419D01*
X94002962Y-139241651D01*
X94022368Y-139250830D01*
X94040781Y-139261866D01*
X94058024Y-139274654D01*
X94073930Y-139289070D01*
X94088346Y-139304976D01*
X94101134Y-139322219D01*
X94112170Y-139340632D01*
X94121349Y-139360038D01*
X94128581Y-139380250D01*
X94133797Y-139401074D01*
X94136947Y-139422309D01*
X94138000Y-139443750D01*
X94138000Y-139956250D01*
X94136947Y-139977691D01*
X94133797Y-139998926D01*
X94128581Y-140019750D01*
X94121349Y-140039962D01*
X94112170Y-140059368D01*
X94101134Y-140077781D01*
X94088346Y-140095024D01*
X94073930Y-140110930D01*
X94058024Y-140125346D01*
X94040781Y-140138134D01*
X94022368Y-140149170D01*
X94002962Y-140158349D01*
X93982750Y-140165581D01*
X93961926Y-140170797D01*
X93940691Y-140173947D01*
X93919250Y-140175000D01*
X93481750Y-140175000D01*
X93460309Y-140173947D01*
X93439074Y-140170797D01*
X93418250Y-140165581D01*
X93398038Y-140158349D01*
X93378632Y-140149170D01*
X93360219Y-140138134D01*
X93342976Y-140125346D01*
X93327070Y-140110930D01*
X93312654Y-140095024D01*
X93299866Y-140077781D01*
X93288830Y-140059368D01*
X93279651Y-140039962D01*
X93272419Y-140019750D01*
X93267203Y-139998926D01*
X93264053Y-139977691D01*
X93263000Y-139956250D01*
X93263000Y-139443750D01*
X93264053Y-139422309D01*
X93267203Y-139401074D01*
X93272419Y-139380250D01*
X93279651Y-139360038D01*
X93288830Y-139340632D01*
X93299866Y-139322219D01*
X93312654Y-139304976D01*
X93327070Y-139289070D01*
X93342976Y-139274654D01*
X93360219Y-139261866D01*
X93378632Y-139250830D01*
X93398038Y-139241651D01*
X93418250Y-139234419D01*
X93439074Y-139229203D01*
X93460309Y-139226053D01*
X93481750Y-139225000D01*
X93919250Y-139225000D01*
X93940691Y-139226053D01*
G37*
G36*
X95515691Y-139226053D02*
G01*
X95536926Y-139229203D01*
X95557750Y-139234419D01*
X95577962Y-139241651D01*
X95597368Y-139250830D01*
X95615781Y-139261866D01*
X95633024Y-139274654D01*
X95648930Y-139289070D01*
X95663346Y-139304976D01*
X95676134Y-139322219D01*
X95687170Y-139340632D01*
X95696349Y-139360038D01*
X95703581Y-139380250D01*
X95708797Y-139401074D01*
X95711947Y-139422309D01*
X95713000Y-139443750D01*
X95713000Y-139956250D01*
X95711947Y-139977691D01*
X95708797Y-139998926D01*
X95703581Y-140019750D01*
X95696349Y-140039962D01*
X95687170Y-140059368D01*
X95676134Y-140077781D01*
X95663346Y-140095024D01*
X95648930Y-140110930D01*
X95633024Y-140125346D01*
X95615781Y-140138134D01*
X95597368Y-140149170D01*
X95577962Y-140158349D01*
X95557750Y-140165581D01*
X95536926Y-140170797D01*
X95515691Y-140173947D01*
X95494250Y-140175000D01*
X95056750Y-140175000D01*
X95035309Y-140173947D01*
X95014074Y-140170797D01*
X94993250Y-140165581D01*
X94973038Y-140158349D01*
X94953632Y-140149170D01*
X94935219Y-140138134D01*
X94917976Y-140125346D01*
X94902070Y-140110930D01*
X94887654Y-140095024D01*
X94874866Y-140077781D01*
X94863830Y-140059368D01*
X94854651Y-140039962D01*
X94847419Y-140019750D01*
X94842203Y-139998926D01*
X94839053Y-139977691D01*
X94838000Y-139956250D01*
X94838000Y-139443750D01*
X94839053Y-139422309D01*
X94842203Y-139401074D01*
X94847419Y-139380250D01*
X94854651Y-139360038D01*
X94863830Y-139340632D01*
X94874866Y-139322219D01*
X94887654Y-139304976D01*
X94902070Y-139289070D01*
X94917976Y-139274654D01*
X94935219Y-139261866D01*
X94953632Y-139250830D01*
X94973038Y-139241651D01*
X94993250Y-139234419D01*
X95014074Y-139229203D01*
X95035309Y-139226053D01*
X95056750Y-139225000D01*
X95494250Y-139225000D01*
X95515691Y-139226053D01*
G37*
G36*
X151852691Y-193201053D02*
G01*
X151873926Y-193204203D01*
X151894750Y-193209419D01*
X151914962Y-193216651D01*
X151934368Y-193225830D01*
X151952781Y-193236866D01*
X151970024Y-193249654D01*
X151985930Y-193264070D01*
X152000346Y-193279976D01*
X152013134Y-193297219D01*
X152024170Y-193315632D01*
X152033349Y-193335038D01*
X152040581Y-193355250D01*
X152045797Y-193376074D01*
X152048947Y-193397309D01*
X152050000Y-193418750D01*
X152050000Y-193931250D01*
X152048947Y-193952691D01*
X152045797Y-193973926D01*
X152040581Y-193994750D01*
X152033349Y-194014962D01*
X152024170Y-194034368D01*
X152013134Y-194052781D01*
X152000346Y-194070024D01*
X151985930Y-194085930D01*
X151970024Y-194100346D01*
X151952781Y-194113134D01*
X151934368Y-194124170D01*
X151914962Y-194133349D01*
X151894750Y-194140581D01*
X151873926Y-194145797D01*
X151852691Y-194148947D01*
X151831250Y-194150000D01*
X151393750Y-194150000D01*
X151372309Y-194148947D01*
X151351074Y-194145797D01*
X151330250Y-194140581D01*
X151310038Y-194133349D01*
X151290632Y-194124170D01*
X151272219Y-194113134D01*
X151254976Y-194100346D01*
X151239070Y-194085930D01*
X151224654Y-194070024D01*
X151211866Y-194052781D01*
X151200830Y-194034368D01*
X151191651Y-194014962D01*
X151184419Y-193994750D01*
X151179203Y-193973926D01*
X151176053Y-193952691D01*
X151175000Y-193931250D01*
X151175000Y-193418750D01*
X151176053Y-193397309D01*
X151179203Y-193376074D01*
X151184419Y-193355250D01*
X151191651Y-193335038D01*
X151200830Y-193315632D01*
X151211866Y-193297219D01*
X151224654Y-193279976D01*
X151239070Y-193264070D01*
X151254976Y-193249654D01*
X151272219Y-193236866D01*
X151290632Y-193225830D01*
X151310038Y-193216651D01*
X151330250Y-193209419D01*
X151351074Y-193204203D01*
X151372309Y-193201053D01*
X151393750Y-193200000D01*
X151831250Y-193200000D01*
X151852691Y-193201053D01*
G37*
G36*
X153427691Y-193201053D02*
G01*
X153448926Y-193204203D01*
X153469750Y-193209419D01*
X153489962Y-193216651D01*
X153509368Y-193225830D01*
X153527781Y-193236866D01*
X153545024Y-193249654D01*
X153560930Y-193264070D01*
X153575346Y-193279976D01*
X153588134Y-193297219D01*
X153599170Y-193315632D01*
X153608349Y-193335038D01*
X153615581Y-193355250D01*
X153620797Y-193376074D01*
X153623947Y-193397309D01*
X153625000Y-193418750D01*
X153625000Y-193931250D01*
X153623947Y-193952691D01*
X153620797Y-193973926D01*
X153615581Y-193994750D01*
X153608349Y-194014962D01*
X153599170Y-194034368D01*
X153588134Y-194052781D01*
X153575346Y-194070024D01*
X153560930Y-194085930D01*
X153545024Y-194100346D01*
X153527781Y-194113134D01*
X153509368Y-194124170D01*
X153489962Y-194133349D01*
X153469750Y-194140581D01*
X153448926Y-194145797D01*
X153427691Y-194148947D01*
X153406250Y-194150000D01*
X152968750Y-194150000D01*
X152947309Y-194148947D01*
X152926074Y-194145797D01*
X152905250Y-194140581D01*
X152885038Y-194133349D01*
X152865632Y-194124170D01*
X152847219Y-194113134D01*
X152829976Y-194100346D01*
X152814070Y-194085930D01*
X152799654Y-194070024D01*
X152786866Y-194052781D01*
X152775830Y-194034368D01*
X152766651Y-194014962D01*
X152759419Y-193994750D01*
X152754203Y-193973926D01*
X152751053Y-193952691D01*
X152750000Y-193931250D01*
X152750000Y-193418750D01*
X152751053Y-193397309D01*
X152754203Y-193376074D01*
X152759419Y-193355250D01*
X152766651Y-193335038D01*
X152775830Y-193315632D01*
X152786866Y-193297219D01*
X152799654Y-193279976D01*
X152814070Y-193264070D01*
X152829976Y-193249654D01*
X152847219Y-193236866D01*
X152865632Y-193225830D01*
X152885038Y-193216651D01*
X152905250Y-193209419D01*
X152926074Y-193204203D01*
X152947309Y-193201053D01*
X152968750Y-193200000D01*
X153406250Y-193200000D01*
X153427691Y-193201053D01*
G37*
G36*
X102385691Y-124506052D02*
G01*
X102406926Y-124509202D01*
X102427750Y-124514418D01*
X102447962Y-124521650D01*
X102467368Y-124530829D01*
X102485781Y-124541865D01*
X102503024Y-124554653D01*
X102518930Y-124569069D01*
X102533346Y-124584975D01*
X102546134Y-124602218D01*
X102557170Y-124620631D01*
X102566349Y-124640037D01*
X102573581Y-124660249D01*
X102578797Y-124681073D01*
X102581947Y-124702308D01*
X102583000Y-124723749D01*
X102583000Y-125161249D01*
X102581947Y-125182690D01*
X102578797Y-125203925D01*
X102573581Y-125224749D01*
X102566349Y-125244961D01*
X102557170Y-125264367D01*
X102546134Y-125282780D01*
X102533346Y-125300023D01*
X102518930Y-125315929D01*
X102503024Y-125330345D01*
X102485781Y-125343133D01*
X102467368Y-125354169D01*
X102447962Y-125363348D01*
X102427750Y-125370580D01*
X102406926Y-125375796D01*
X102385691Y-125378946D01*
X102364250Y-125379999D01*
X101851750Y-125379999D01*
X101830309Y-125378946D01*
X101809074Y-125375796D01*
X101788250Y-125370580D01*
X101768038Y-125363348D01*
X101748632Y-125354169D01*
X101730219Y-125343133D01*
X101712976Y-125330345D01*
X101697070Y-125315929D01*
X101682654Y-125300023D01*
X101669866Y-125282780D01*
X101658830Y-125264367D01*
X101649651Y-125244961D01*
X101642419Y-125224749D01*
X101637203Y-125203925D01*
X101634053Y-125182690D01*
X101633000Y-125161249D01*
X101633000Y-124723749D01*
X101634053Y-124702308D01*
X101637203Y-124681073D01*
X101642419Y-124660249D01*
X101649651Y-124640037D01*
X101658830Y-124620631D01*
X101669866Y-124602218D01*
X101682654Y-124584975D01*
X101697070Y-124569069D01*
X101712976Y-124554653D01*
X101730219Y-124541865D01*
X101748632Y-124530829D01*
X101768038Y-124521650D01*
X101788250Y-124514418D01*
X101809074Y-124509202D01*
X101830309Y-124506052D01*
X101851750Y-124504999D01*
X102364250Y-124504999D01*
X102385691Y-124506052D01*
G37*
G36*
X102385691Y-126081054D02*
G01*
X102406926Y-126084204D01*
X102427750Y-126089420D01*
X102447962Y-126096652D01*
X102467368Y-126105831D01*
X102485781Y-126116867D01*
X102503024Y-126129655D01*
X102518930Y-126144071D01*
X102533346Y-126159977D01*
X102546134Y-126177220D01*
X102557170Y-126195633D01*
X102566349Y-126215039D01*
X102573581Y-126235251D01*
X102578797Y-126256075D01*
X102581947Y-126277310D01*
X102583000Y-126298751D01*
X102583000Y-126736251D01*
X102581947Y-126757692D01*
X102578797Y-126778927D01*
X102573581Y-126799751D01*
X102566349Y-126819963D01*
X102557170Y-126839369D01*
X102546134Y-126857782D01*
X102533346Y-126875025D01*
X102518930Y-126890931D01*
X102503024Y-126905347D01*
X102485781Y-126918135D01*
X102467368Y-126929171D01*
X102447962Y-126938350D01*
X102427750Y-126945582D01*
X102406926Y-126950798D01*
X102385691Y-126953948D01*
X102364250Y-126955001D01*
X101851750Y-126955001D01*
X101830309Y-126953948D01*
X101809074Y-126950798D01*
X101788250Y-126945582D01*
X101768038Y-126938350D01*
X101748632Y-126929171D01*
X101730219Y-126918135D01*
X101712976Y-126905347D01*
X101697070Y-126890931D01*
X101682654Y-126875025D01*
X101669866Y-126857782D01*
X101658830Y-126839369D01*
X101649651Y-126819963D01*
X101642419Y-126799751D01*
X101637203Y-126778927D01*
X101634053Y-126757692D01*
X101633000Y-126736251D01*
X101633000Y-126298751D01*
X101634053Y-126277310D01*
X101637203Y-126256075D01*
X101642419Y-126235251D01*
X101649651Y-126215039D01*
X101658830Y-126195633D01*
X101669866Y-126177220D01*
X101682654Y-126159977D01*
X101697070Y-126144071D01*
X101712976Y-126129655D01*
X101730219Y-126116867D01*
X101748632Y-126105831D01*
X101768038Y-126096652D01*
X101788250Y-126089420D01*
X101809074Y-126084204D01*
X101830309Y-126081054D01*
X101851750Y-126080001D01*
X102364250Y-126080001D01*
X102385691Y-126081054D01*
G37*
G36*
X98575691Y-124506053D02*
G01*
X98596926Y-124509203D01*
X98617750Y-124514419D01*
X98637962Y-124521651D01*
X98657368Y-124530830D01*
X98675781Y-124541866D01*
X98693024Y-124554654D01*
X98708930Y-124569070D01*
X98723346Y-124584976D01*
X98736134Y-124602219D01*
X98747170Y-124620632D01*
X98756349Y-124640038D01*
X98763581Y-124660250D01*
X98768797Y-124681074D01*
X98771947Y-124702309D01*
X98773000Y-124723750D01*
X98773000Y-125161250D01*
X98771947Y-125182691D01*
X98768797Y-125203926D01*
X98763581Y-125224750D01*
X98756349Y-125244962D01*
X98747170Y-125264368D01*
X98736134Y-125282781D01*
X98723346Y-125300024D01*
X98708930Y-125315930D01*
X98693024Y-125330346D01*
X98675781Y-125343134D01*
X98657368Y-125354170D01*
X98637962Y-125363349D01*
X98617750Y-125370581D01*
X98596926Y-125375797D01*
X98575691Y-125378947D01*
X98554250Y-125380000D01*
X98041750Y-125380000D01*
X98020309Y-125378947D01*
X97999074Y-125375797D01*
X97978250Y-125370581D01*
X97958038Y-125363349D01*
X97938632Y-125354170D01*
X97920219Y-125343134D01*
X97902976Y-125330346D01*
X97887070Y-125315930D01*
X97872654Y-125300024D01*
X97859866Y-125282781D01*
X97848830Y-125264368D01*
X97839651Y-125244962D01*
X97832419Y-125224750D01*
X97827203Y-125203926D01*
X97824053Y-125182691D01*
X97823000Y-125161250D01*
X97823000Y-124723750D01*
X97824053Y-124702309D01*
X97827203Y-124681074D01*
X97832419Y-124660250D01*
X97839651Y-124640038D01*
X97848830Y-124620632D01*
X97859866Y-124602219D01*
X97872654Y-124584976D01*
X97887070Y-124569070D01*
X97902976Y-124554654D01*
X97920219Y-124541866D01*
X97938632Y-124530830D01*
X97958038Y-124521651D01*
X97978250Y-124514419D01*
X97999074Y-124509203D01*
X98020309Y-124506053D01*
X98041750Y-124505000D01*
X98554250Y-124505000D01*
X98575691Y-124506053D01*
G37*
G36*
X98575691Y-126081053D02*
G01*
X98596926Y-126084203D01*
X98617750Y-126089419D01*
X98637962Y-126096651D01*
X98657368Y-126105830D01*
X98675781Y-126116866D01*
X98693024Y-126129654D01*
X98708930Y-126144070D01*
X98723346Y-126159976D01*
X98736134Y-126177219D01*
X98747170Y-126195632D01*
X98756349Y-126215038D01*
X98763581Y-126235250D01*
X98768797Y-126256074D01*
X98771947Y-126277309D01*
X98773000Y-126298750D01*
X98773000Y-126736250D01*
X98771947Y-126757691D01*
X98768797Y-126778926D01*
X98763581Y-126799750D01*
X98756349Y-126819962D01*
X98747170Y-126839368D01*
X98736134Y-126857781D01*
X98723346Y-126875024D01*
X98708930Y-126890930D01*
X98693024Y-126905346D01*
X98675781Y-126918134D01*
X98657368Y-126929170D01*
X98637962Y-126938349D01*
X98617750Y-126945581D01*
X98596926Y-126950797D01*
X98575691Y-126953947D01*
X98554250Y-126955000D01*
X98041750Y-126955000D01*
X98020309Y-126953947D01*
X97999074Y-126950797D01*
X97978250Y-126945581D01*
X97958038Y-126938349D01*
X97938632Y-126929170D01*
X97920219Y-126918134D01*
X97902976Y-126905346D01*
X97887070Y-126890930D01*
X97872654Y-126875024D01*
X97859866Y-126857781D01*
X97848830Y-126839368D01*
X97839651Y-126819962D01*
X97832419Y-126799750D01*
X97827203Y-126778926D01*
X97824053Y-126757691D01*
X97823000Y-126736250D01*
X97823000Y-126298750D01*
X97824053Y-126277309D01*
X97827203Y-126256074D01*
X97832419Y-126235250D01*
X97839651Y-126215038D01*
X97848830Y-126195632D01*
X97859866Y-126177219D01*
X97872654Y-126159976D01*
X97887070Y-126144070D01*
X97902976Y-126129654D01*
X97920219Y-126116866D01*
X97938632Y-126105830D01*
X97958038Y-126096651D01*
X97978250Y-126089419D01*
X97999074Y-126084203D01*
X98020309Y-126081053D01*
X98041750Y-126080000D01*
X98554250Y-126080000D01*
X98575691Y-126081053D01*
G37*
G36*
X85812691Y-188756053D02*
G01*
X85833926Y-188759203D01*
X85854750Y-188764419D01*
X85874962Y-188771651D01*
X85894368Y-188780830D01*
X85912781Y-188791866D01*
X85930024Y-188804654D01*
X85945930Y-188819070D01*
X85960346Y-188834976D01*
X85973134Y-188852219D01*
X85984170Y-188870632D01*
X85993349Y-188890038D01*
X86000581Y-188910250D01*
X86005797Y-188931074D01*
X86008947Y-188952309D01*
X86010000Y-188973750D01*
X86010000Y-189486250D01*
X86008947Y-189507691D01*
X86005797Y-189528926D01*
X86000581Y-189549750D01*
X85993349Y-189569962D01*
X85984170Y-189589368D01*
X85973134Y-189607781D01*
X85960346Y-189625024D01*
X85945930Y-189640930D01*
X85930024Y-189655346D01*
X85912781Y-189668134D01*
X85894368Y-189679170D01*
X85874962Y-189688349D01*
X85854750Y-189695581D01*
X85833926Y-189700797D01*
X85812691Y-189703947D01*
X85791250Y-189705000D01*
X85353750Y-189705000D01*
X85332309Y-189703947D01*
X85311074Y-189700797D01*
X85290250Y-189695581D01*
X85270038Y-189688349D01*
X85250632Y-189679170D01*
X85232219Y-189668134D01*
X85214976Y-189655346D01*
X85199070Y-189640930D01*
X85184654Y-189625024D01*
X85171866Y-189607781D01*
X85160830Y-189589368D01*
X85151651Y-189569962D01*
X85144419Y-189549750D01*
X85139203Y-189528926D01*
X85136053Y-189507691D01*
X85135000Y-189486250D01*
X85135000Y-188973750D01*
X85136053Y-188952309D01*
X85139203Y-188931074D01*
X85144419Y-188910250D01*
X85151651Y-188890038D01*
X85160830Y-188870632D01*
X85171866Y-188852219D01*
X85184654Y-188834976D01*
X85199070Y-188819070D01*
X85214976Y-188804654D01*
X85232219Y-188791866D01*
X85250632Y-188780830D01*
X85270038Y-188771651D01*
X85290250Y-188764419D01*
X85311074Y-188759203D01*
X85332309Y-188756053D01*
X85353750Y-188755000D01*
X85791250Y-188755000D01*
X85812691Y-188756053D01*
G37*
G36*
X87387691Y-188756053D02*
G01*
X87408926Y-188759203D01*
X87429750Y-188764419D01*
X87449962Y-188771651D01*
X87469368Y-188780830D01*
X87487781Y-188791866D01*
X87505024Y-188804654D01*
X87520930Y-188819070D01*
X87535346Y-188834976D01*
X87548134Y-188852219D01*
X87559170Y-188870632D01*
X87568349Y-188890038D01*
X87575581Y-188910250D01*
X87580797Y-188931074D01*
X87583947Y-188952309D01*
X87585000Y-188973750D01*
X87585000Y-189486250D01*
X87583947Y-189507691D01*
X87580797Y-189528926D01*
X87575581Y-189549750D01*
X87568349Y-189569962D01*
X87559170Y-189589368D01*
X87548134Y-189607781D01*
X87535346Y-189625024D01*
X87520930Y-189640930D01*
X87505024Y-189655346D01*
X87487781Y-189668134D01*
X87469368Y-189679170D01*
X87449962Y-189688349D01*
X87429750Y-189695581D01*
X87408926Y-189700797D01*
X87387691Y-189703947D01*
X87366250Y-189705000D01*
X86928750Y-189705000D01*
X86907309Y-189703947D01*
X86886074Y-189700797D01*
X86865250Y-189695581D01*
X86845038Y-189688349D01*
X86825632Y-189679170D01*
X86807219Y-189668134D01*
X86789976Y-189655346D01*
X86774070Y-189640930D01*
X86759654Y-189625024D01*
X86746866Y-189607781D01*
X86735830Y-189589368D01*
X86726651Y-189569962D01*
X86719419Y-189549750D01*
X86714203Y-189528926D01*
X86711053Y-189507691D01*
X86710000Y-189486250D01*
X86710000Y-188973750D01*
X86711053Y-188952309D01*
X86714203Y-188931074D01*
X86719419Y-188910250D01*
X86726651Y-188890038D01*
X86735830Y-188870632D01*
X86746866Y-188852219D01*
X86759654Y-188834976D01*
X86774070Y-188819070D01*
X86789976Y-188804654D01*
X86807219Y-188791866D01*
X86825632Y-188780830D01*
X86845038Y-188771651D01*
X86865250Y-188764419D01*
X86886074Y-188759203D01*
X86907309Y-188756053D01*
X86928750Y-188755000D01*
X87366250Y-188755000D01*
X87387691Y-188756053D01*
G37*
G36*
X100480691Y-126081053D02*
G01*
X100501926Y-126084203D01*
X100522750Y-126089419D01*
X100542962Y-126096651D01*
X100562368Y-126105830D01*
X100580781Y-126116866D01*
X100598024Y-126129654D01*
X100613930Y-126144070D01*
X100628346Y-126159976D01*
X100641134Y-126177219D01*
X100652170Y-126195632D01*
X100661349Y-126215038D01*
X100668581Y-126235250D01*
X100673797Y-126256074D01*
X100676947Y-126277309D01*
X100678000Y-126298750D01*
X100678000Y-126736250D01*
X100676947Y-126757691D01*
X100673797Y-126778926D01*
X100668581Y-126799750D01*
X100661349Y-126819962D01*
X100652170Y-126839368D01*
X100641134Y-126857781D01*
X100628346Y-126875024D01*
X100613930Y-126890930D01*
X100598024Y-126905346D01*
X100580781Y-126918134D01*
X100562368Y-126929170D01*
X100542962Y-126938349D01*
X100522750Y-126945581D01*
X100501926Y-126950797D01*
X100480691Y-126953947D01*
X100459250Y-126955000D01*
X99946750Y-126955000D01*
X99925309Y-126953947D01*
X99904074Y-126950797D01*
X99883250Y-126945581D01*
X99863038Y-126938349D01*
X99843632Y-126929170D01*
X99825219Y-126918134D01*
X99807976Y-126905346D01*
X99792070Y-126890930D01*
X99777654Y-126875024D01*
X99764866Y-126857781D01*
X99753830Y-126839368D01*
X99744651Y-126819962D01*
X99737419Y-126799750D01*
X99732203Y-126778926D01*
X99729053Y-126757691D01*
X99728000Y-126736250D01*
X99728000Y-126298750D01*
X99729053Y-126277309D01*
X99732203Y-126256074D01*
X99737419Y-126235250D01*
X99744651Y-126215038D01*
X99753830Y-126195632D01*
X99764866Y-126177219D01*
X99777654Y-126159976D01*
X99792070Y-126144070D01*
X99807976Y-126129654D01*
X99825219Y-126116866D01*
X99843632Y-126105830D01*
X99863038Y-126096651D01*
X99883250Y-126089419D01*
X99904074Y-126084203D01*
X99925309Y-126081053D01*
X99946750Y-126080000D01*
X100459250Y-126080000D01*
X100480691Y-126081053D01*
G37*
G36*
X100480691Y-124506053D02*
G01*
X100501926Y-124509203D01*
X100522750Y-124514419D01*
X100542962Y-124521651D01*
X100562368Y-124530830D01*
X100580781Y-124541866D01*
X100598024Y-124554654D01*
X100613930Y-124569070D01*
X100628346Y-124584976D01*
X100641134Y-124602219D01*
X100652170Y-124620632D01*
X100661349Y-124640038D01*
X100668581Y-124660250D01*
X100673797Y-124681074D01*
X100676947Y-124702309D01*
X100678000Y-124723750D01*
X100678000Y-125161250D01*
X100676947Y-125182691D01*
X100673797Y-125203926D01*
X100668581Y-125224750D01*
X100661349Y-125244962D01*
X100652170Y-125264368D01*
X100641134Y-125282781D01*
X100628346Y-125300024D01*
X100613930Y-125315930D01*
X100598024Y-125330346D01*
X100580781Y-125343134D01*
X100562368Y-125354170D01*
X100542962Y-125363349D01*
X100522750Y-125370581D01*
X100501926Y-125375797D01*
X100480691Y-125378947D01*
X100459250Y-125380000D01*
X99946750Y-125380000D01*
X99925309Y-125378947D01*
X99904074Y-125375797D01*
X99883250Y-125370581D01*
X99863038Y-125363349D01*
X99843632Y-125354170D01*
X99825219Y-125343134D01*
X99807976Y-125330346D01*
X99792070Y-125315930D01*
X99777654Y-125300024D01*
X99764866Y-125282781D01*
X99753830Y-125264368D01*
X99744651Y-125244962D01*
X99737419Y-125224750D01*
X99732203Y-125203926D01*
X99729053Y-125182691D01*
X99728000Y-125161250D01*
X99728000Y-124723750D01*
X99729053Y-124702309D01*
X99732203Y-124681074D01*
X99737419Y-124660250D01*
X99744651Y-124640038D01*
X99753830Y-124620632D01*
X99764866Y-124602219D01*
X99777654Y-124584976D01*
X99792070Y-124569070D01*
X99807976Y-124554654D01*
X99825219Y-124541866D01*
X99843632Y-124530830D01*
X99863038Y-124521651D01*
X99883250Y-124514419D01*
X99904074Y-124509203D01*
X99925309Y-124506053D01*
X99946750Y-124505000D01*
X100459250Y-124505000D01*
X100480691Y-124506053D01*
G37*
G36*
X106945691Y-122716053D02*
G01*
X106966926Y-122719203D01*
X106987750Y-122724419D01*
X107007962Y-122731651D01*
X107027368Y-122740830D01*
X107045781Y-122751866D01*
X107063024Y-122764654D01*
X107078930Y-122779070D01*
X107093346Y-122794976D01*
X107106134Y-122812219D01*
X107117170Y-122830632D01*
X107126349Y-122850038D01*
X107133581Y-122870250D01*
X107138797Y-122891074D01*
X107141947Y-122912309D01*
X107143000Y-122933750D01*
X107143000Y-123446250D01*
X107141947Y-123467691D01*
X107138797Y-123488926D01*
X107133581Y-123509750D01*
X107126349Y-123529962D01*
X107117170Y-123549368D01*
X107106134Y-123567781D01*
X107093346Y-123585024D01*
X107078930Y-123600930D01*
X107063024Y-123615346D01*
X107045781Y-123628134D01*
X107027368Y-123639170D01*
X107007962Y-123648349D01*
X106987750Y-123655581D01*
X106966926Y-123660797D01*
X106945691Y-123663947D01*
X106924250Y-123665000D01*
X106486750Y-123665000D01*
X106465309Y-123663947D01*
X106444074Y-123660797D01*
X106423250Y-123655581D01*
X106403038Y-123648349D01*
X106383632Y-123639170D01*
X106365219Y-123628134D01*
X106347976Y-123615346D01*
X106332070Y-123600930D01*
X106317654Y-123585024D01*
X106304866Y-123567781D01*
X106293830Y-123549368D01*
X106284651Y-123529962D01*
X106277419Y-123509750D01*
X106272203Y-123488926D01*
X106269053Y-123467691D01*
X106268000Y-123446250D01*
X106268000Y-122933750D01*
X106269053Y-122912309D01*
X106272203Y-122891074D01*
X106277419Y-122870250D01*
X106284651Y-122850038D01*
X106293830Y-122830632D01*
X106304866Y-122812219D01*
X106317654Y-122794976D01*
X106332070Y-122779070D01*
X106347976Y-122764654D01*
X106365219Y-122751866D01*
X106383632Y-122740830D01*
X106403038Y-122731651D01*
X106423250Y-122724419D01*
X106444074Y-122719203D01*
X106465309Y-122716053D01*
X106486750Y-122715000D01*
X106924250Y-122715000D01*
X106945691Y-122716053D01*
G37*
G36*
X105370691Y-122716053D02*
G01*
X105391926Y-122719203D01*
X105412750Y-122724419D01*
X105432962Y-122731651D01*
X105452368Y-122740830D01*
X105470781Y-122751866D01*
X105488024Y-122764654D01*
X105503930Y-122779070D01*
X105518346Y-122794976D01*
X105531134Y-122812219D01*
X105542170Y-122830632D01*
X105551349Y-122850038D01*
X105558581Y-122870250D01*
X105563797Y-122891074D01*
X105566947Y-122912309D01*
X105568000Y-122933750D01*
X105568000Y-123446250D01*
X105566947Y-123467691D01*
X105563797Y-123488926D01*
X105558581Y-123509750D01*
X105551349Y-123529962D01*
X105542170Y-123549368D01*
X105531134Y-123567781D01*
X105518346Y-123585024D01*
X105503930Y-123600930D01*
X105488024Y-123615346D01*
X105470781Y-123628134D01*
X105452368Y-123639170D01*
X105432962Y-123648349D01*
X105412750Y-123655581D01*
X105391926Y-123660797D01*
X105370691Y-123663947D01*
X105349250Y-123665000D01*
X104911750Y-123665000D01*
X104890309Y-123663947D01*
X104869074Y-123660797D01*
X104848250Y-123655581D01*
X104828038Y-123648349D01*
X104808632Y-123639170D01*
X104790219Y-123628134D01*
X104772976Y-123615346D01*
X104757070Y-123600930D01*
X104742654Y-123585024D01*
X104729866Y-123567781D01*
X104718830Y-123549368D01*
X104709651Y-123529962D01*
X104702419Y-123509750D01*
X104697203Y-123488926D01*
X104694053Y-123467691D01*
X104693000Y-123446250D01*
X104693000Y-122933750D01*
X104694053Y-122912309D01*
X104697203Y-122891074D01*
X104702419Y-122870250D01*
X104709651Y-122850038D01*
X104718830Y-122830632D01*
X104729866Y-122812219D01*
X104742654Y-122794976D01*
X104757070Y-122779070D01*
X104772976Y-122764654D01*
X104790219Y-122751866D01*
X104808632Y-122740830D01*
X104828038Y-122731651D01*
X104848250Y-122724419D01*
X104869074Y-122719203D01*
X104890309Y-122716053D01*
X104911750Y-122715000D01*
X105349250Y-122715000D01*
X105370691Y-122716053D01*
G37*
G36*
X150252691Y-169706053D02*
G01*
X150273926Y-169709203D01*
X150294750Y-169714419D01*
X150314962Y-169721651D01*
X150334368Y-169730830D01*
X150352781Y-169741866D01*
X150370024Y-169754654D01*
X150385930Y-169769070D01*
X150400346Y-169784976D01*
X150413134Y-169802219D01*
X150424170Y-169820632D01*
X150433349Y-169840038D01*
X150440581Y-169860250D01*
X150445797Y-169881074D01*
X150448947Y-169902309D01*
X150450000Y-169923750D01*
X150450000Y-170436250D01*
X150448947Y-170457691D01*
X150445797Y-170478926D01*
X150440581Y-170499750D01*
X150433349Y-170519962D01*
X150424170Y-170539368D01*
X150413134Y-170557781D01*
X150400346Y-170575024D01*
X150385930Y-170590930D01*
X150370024Y-170605346D01*
X150352781Y-170618134D01*
X150334368Y-170629170D01*
X150314962Y-170638349D01*
X150294750Y-170645581D01*
X150273926Y-170650797D01*
X150252691Y-170653947D01*
X150231250Y-170655000D01*
X149793750Y-170655000D01*
X149772309Y-170653947D01*
X149751074Y-170650797D01*
X149730250Y-170645581D01*
X149710038Y-170638349D01*
X149690632Y-170629170D01*
X149672219Y-170618134D01*
X149654976Y-170605346D01*
X149639070Y-170590930D01*
X149624654Y-170575024D01*
X149611866Y-170557781D01*
X149600830Y-170539368D01*
X149591651Y-170519962D01*
X149584419Y-170499750D01*
X149579203Y-170478926D01*
X149576053Y-170457691D01*
X149575000Y-170436250D01*
X149575000Y-169923750D01*
X149576053Y-169902309D01*
X149579203Y-169881074D01*
X149584419Y-169860250D01*
X149591651Y-169840038D01*
X149600830Y-169820632D01*
X149611866Y-169802219D01*
X149624654Y-169784976D01*
X149639070Y-169769070D01*
X149654976Y-169754654D01*
X149672219Y-169741866D01*
X149690632Y-169730830D01*
X149710038Y-169721651D01*
X149730250Y-169714419D01*
X149751074Y-169709203D01*
X149772309Y-169706053D01*
X149793750Y-169705000D01*
X150231250Y-169705000D01*
X150252691Y-169706053D01*
G37*
G36*
X148677691Y-169706053D02*
G01*
X148698926Y-169709203D01*
X148719750Y-169714419D01*
X148739962Y-169721651D01*
X148759368Y-169730830D01*
X148777781Y-169741866D01*
X148795024Y-169754654D01*
X148810930Y-169769070D01*
X148825346Y-169784976D01*
X148838134Y-169802219D01*
X148849170Y-169820632D01*
X148858349Y-169840038D01*
X148865581Y-169860250D01*
X148870797Y-169881074D01*
X148873947Y-169902309D01*
X148875000Y-169923750D01*
X148875000Y-170436250D01*
X148873947Y-170457691D01*
X148870797Y-170478926D01*
X148865581Y-170499750D01*
X148858349Y-170519962D01*
X148849170Y-170539368D01*
X148838134Y-170557781D01*
X148825346Y-170575024D01*
X148810930Y-170590930D01*
X148795024Y-170605346D01*
X148777781Y-170618134D01*
X148759368Y-170629170D01*
X148739962Y-170638349D01*
X148719750Y-170645581D01*
X148698926Y-170650797D01*
X148677691Y-170653947D01*
X148656250Y-170655000D01*
X148218750Y-170655000D01*
X148197309Y-170653947D01*
X148176074Y-170650797D01*
X148155250Y-170645581D01*
X148135038Y-170638349D01*
X148115632Y-170629170D01*
X148097219Y-170618134D01*
X148079976Y-170605346D01*
X148064070Y-170590930D01*
X148049654Y-170575024D01*
X148036866Y-170557781D01*
X148025830Y-170539368D01*
X148016651Y-170519962D01*
X148009419Y-170499750D01*
X148004203Y-170478926D01*
X148001053Y-170457691D01*
X148000000Y-170436250D01*
X148000000Y-169923750D01*
X148001053Y-169902309D01*
X148004203Y-169881074D01*
X148009419Y-169860250D01*
X148016651Y-169840038D01*
X148025830Y-169820632D01*
X148036866Y-169802219D01*
X148049654Y-169784976D01*
X148064070Y-169769070D01*
X148079976Y-169754654D01*
X148097219Y-169741866D01*
X148115632Y-169730830D01*
X148135038Y-169721651D01*
X148155250Y-169714419D01*
X148176074Y-169709203D01*
X148197309Y-169706053D01*
X148218750Y-169705000D01*
X148656250Y-169705000D01*
X148677691Y-169706053D01*
G37*
G36*
X151730142Y-163131174D02*
G01*
X151753803Y-163134684D01*
X151777007Y-163140496D01*
X151799529Y-163148554D01*
X151821153Y-163158782D01*
X151841670Y-163171079D01*
X151860883Y-163185329D01*
X151878607Y-163201393D01*
X151894671Y-163219117D01*
X151908921Y-163238330D01*
X151921218Y-163258847D01*
X151931446Y-163280471D01*
X151939504Y-163302993D01*
X151945316Y-163326197D01*
X151948826Y-163349858D01*
X151950000Y-163373750D01*
X151950000Y-164286250D01*
X151948826Y-164310142D01*
X151945316Y-164333803D01*
X151939504Y-164357007D01*
X151931446Y-164379529D01*
X151921218Y-164401153D01*
X151908921Y-164421670D01*
X151894671Y-164440883D01*
X151878607Y-164458607D01*
X151860883Y-164474671D01*
X151841670Y-164488921D01*
X151821153Y-164501218D01*
X151799529Y-164511446D01*
X151777007Y-164519504D01*
X151753803Y-164525316D01*
X151730142Y-164528826D01*
X151706250Y-164530000D01*
X151218750Y-164530000D01*
X151194858Y-164528826D01*
X151171197Y-164525316D01*
X151147993Y-164519504D01*
X151125471Y-164511446D01*
X151103847Y-164501218D01*
X151083330Y-164488921D01*
X151064117Y-164474671D01*
X151046393Y-164458607D01*
X151030329Y-164440883D01*
X151016079Y-164421670D01*
X151003782Y-164401153D01*
X150993554Y-164379529D01*
X150985496Y-164357007D01*
X150979684Y-164333803D01*
X150976174Y-164310142D01*
X150975000Y-164286250D01*
X150975000Y-163373750D01*
X150976174Y-163349858D01*
X150979684Y-163326197D01*
X150985496Y-163302993D01*
X150993554Y-163280471D01*
X151003782Y-163258847D01*
X151016079Y-163238330D01*
X151030329Y-163219117D01*
X151046393Y-163201393D01*
X151064117Y-163185329D01*
X151083330Y-163171079D01*
X151103847Y-163158782D01*
X151125471Y-163148554D01*
X151147993Y-163140496D01*
X151171197Y-163134684D01*
X151194858Y-163131174D01*
X151218750Y-163130000D01*
X151706250Y-163130000D01*
X151730142Y-163131174D01*
G37*
G36*
X153605142Y-163131174D02*
G01*
X153628803Y-163134684D01*
X153652007Y-163140496D01*
X153674529Y-163148554D01*
X153696153Y-163158782D01*
X153716670Y-163171079D01*
X153735883Y-163185329D01*
X153753607Y-163201393D01*
X153769671Y-163219117D01*
X153783921Y-163238330D01*
X153796218Y-163258847D01*
X153806446Y-163280471D01*
X153814504Y-163302993D01*
X153820316Y-163326197D01*
X153823826Y-163349858D01*
X153825000Y-163373750D01*
X153825000Y-164286250D01*
X153823826Y-164310142D01*
X153820316Y-164333803D01*
X153814504Y-164357007D01*
X153806446Y-164379529D01*
X153796218Y-164401153D01*
X153783921Y-164421670D01*
X153769671Y-164440883D01*
X153753607Y-164458607D01*
X153735883Y-164474671D01*
X153716670Y-164488921D01*
X153696153Y-164501218D01*
X153674529Y-164511446D01*
X153652007Y-164519504D01*
X153628803Y-164525316D01*
X153605142Y-164528826D01*
X153581250Y-164530000D01*
X153093750Y-164530000D01*
X153069858Y-164528826D01*
X153046197Y-164525316D01*
X153022993Y-164519504D01*
X153000471Y-164511446D01*
X152978847Y-164501218D01*
X152958330Y-164488921D01*
X152939117Y-164474671D01*
X152921393Y-164458607D01*
X152905329Y-164440883D01*
X152891079Y-164421670D01*
X152878782Y-164401153D01*
X152868554Y-164379529D01*
X152860496Y-164357007D01*
X152854684Y-164333803D01*
X152851174Y-164310142D01*
X152850000Y-164286250D01*
X152850000Y-163373750D01*
X152851174Y-163349858D01*
X152854684Y-163326197D01*
X152860496Y-163302993D01*
X152868554Y-163280471D01*
X152878782Y-163258847D01*
X152891079Y-163238330D01*
X152905329Y-163219117D01*
X152921393Y-163201393D01*
X152939117Y-163185329D01*
X152958330Y-163171079D01*
X152978847Y-163158782D01*
X153000471Y-163148554D01*
X153022993Y-163140496D01*
X153046197Y-163134684D01*
X153069858Y-163131174D01*
X153093750Y-163130000D01*
X153581250Y-163130000D01*
X153605142Y-163131174D01*
G37*
D18*
X93853000Y-103505000D03*
X93853000Y-106045000D03*
X93853000Y-108585000D03*
X93853000Y-111125000D03*
X93853000Y-113665000D03*
D19*
X93853000Y-116205000D03*
D18*
X93853000Y-132080000D03*
X93853000Y-129540000D03*
X93853000Y-127000000D03*
X93853000Y-124460000D03*
D19*
X93853000Y-121920000D03*
D20*
X106336000Y-184471000D03*
X106336000Y-189671000D03*
X107786000Y-189671000D03*
X107786000Y-184471000D03*
X116369000Y-183836000D03*
X116369000Y-189036000D03*
X117819000Y-189036000D03*
X117819000Y-183836000D03*
X126275000Y-183582000D03*
X126275000Y-188782000D03*
X127725000Y-188782000D03*
X127725000Y-183582000D03*
X136308000Y-183836000D03*
X136308000Y-189036000D03*
X137758000Y-189036000D03*
X137758000Y-183836000D03*
D15*
X124333000Y-141291000D03*
X124333000Y-146491000D03*
X119634000Y-108144000D03*
X119634000Y-113344000D03*
D20*
X146341000Y-184471000D03*
X146341000Y-189671000D03*
X147791000Y-189671000D03*
X147791000Y-184471000D03*
D15*
X132334000Y-70425000D03*
X132334000Y-75625000D03*
D10*
G36*
X92148077Y-151670580D02*
G01*
X92169312Y-151673730D01*
X92190136Y-151678946D01*
X92210348Y-151686178D01*
X92229754Y-151695357D01*
X92248167Y-151706393D01*
X92265410Y-151719181D01*
X92281316Y-151733597D01*
X92643709Y-152095990D01*
X92658125Y-152111896D01*
X92670913Y-152129139D01*
X92681949Y-152147552D01*
X92691128Y-152166958D01*
X92698360Y-152187170D01*
X92703576Y-152207994D01*
X92706726Y-152229229D01*
X92707779Y-152250670D01*
X92706726Y-152272111D01*
X92703576Y-152293346D01*
X92698360Y-152314170D01*
X92691128Y-152334382D01*
X92681949Y-152353788D01*
X92670913Y-152372201D01*
X92658125Y-152389444D01*
X92643709Y-152405350D01*
X92334350Y-152714709D01*
X92318444Y-152729125D01*
X92301201Y-152741913D01*
X92282788Y-152752949D01*
X92263382Y-152762128D01*
X92243170Y-152769360D01*
X92222346Y-152774576D01*
X92201111Y-152777726D01*
X92179670Y-152778779D01*
X92158229Y-152777726D01*
X92136994Y-152774576D01*
X92116170Y-152769360D01*
X92095958Y-152762128D01*
X92076552Y-152752949D01*
X92058139Y-152741913D01*
X92040896Y-152729125D01*
X92024990Y-152714709D01*
X91662597Y-152352316D01*
X91648181Y-152336410D01*
X91635393Y-152319167D01*
X91624357Y-152300754D01*
X91615178Y-152281348D01*
X91607946Y-152261136D01*
X91602730Y-152240312D01*
X91599580Y-152219077D01*
X91598527Y-152197636D01*
X91599580Y-152176195D01*
X91602730Y-152154960D01*
X91607946Y-152134136D01*
X91615178Y-152113924D01*
X91624357Y-152094518D01*
X91635393Y-152076105D01*
X91648181Y-152058862D01*
X91662597Y-152042956D01*
X91971956Y-151733597D01*
X91987862Y-151719181D01*
X92005105Y-151706393D01*
X92023518Y-151695357D01*
X92042924Y-151686178D01*
X92063136Y-151678946D01*
X92083960Y-151673730D01*
X92105195Y-151670580D01*
X92126636Y-151669527D01*
X92148077Y-151670580D01*
G37*
G36*
X93261771Y-152784274D02*
G01*
X93283006Y-152787424D01*
X93303830Y-152792640D01*
X93324042Y-152799872D01*
X93343448Y-152809051D01*
X93361861Y-152820087D01*
X93379104Y-152832875D01*
X93395010Y-152847291D01*
X93757403Y-153209684D01*
X93771819Y-153225590D01*
X93784607Y-153242833D01*
X93795643Y-153261246D01*
X93804822Y-153280652D01*
X93812054Y-153300864D01*
X93817270Y-153321688D01*
X93820420Y-153342923D01*
X93821473Y-153364364D01*
X93820420Y-153385805D01*
X93817270Y-153407040D01*
X93812054Y-153427864D01*
X93804822Y-153448076D01*
X93795643Y-153467482D01*
X93784607Y-153485895D01*
X93771819Y-153503138D01*
X93757403Y-153519044D01*
X93448044Y-153828403D01*
X93432138Y-153842819D01*
X93414895Y-153855607D01*
X93396482Y-153866643D01*
X93377076Y-153875822D01*
X93356864Y-153883054D01*
X93336040Y-153888270D01*
X93314805Y-153891420D01*
X93293364Y-153892473D01*
X93271923Y-153891420D01*
X93250688Y-153888270D01*
X93229864Y-153883054D01*
X93209652Y-153875822D01*
X93190246Y-153866643D01*
X93171833Y-153855607D01*
X93154590Y-153842819D01*
X93138684Y-153828403D01*
X92776291Y-153466010D01*
X92761875Y-153450104D01*
X92749087Y-153432861D01*
X92738051Y-153414448D01*
X92728872Y-153395042D01*
X92721640Y-153374830D01*
X92716424Y-153354006D01*
X92713274Y-153332771D01*
X92712221Y-153311330D01*
X92713274Y-153289889D01*
X92716424Y-153268654D01*
X92721640Y-153247830D01*
X92728872Y-153227618D01*
X92738051Y-153208212D01*
X92749087Y-153189799D01*
X92761875Y-153172556D01*
X92776291Y-153156650D01*
X93085650Y-152847291D01*
X93101556Y-152832875D01*
X93118799Y-152820087D01*
X93137212Y-152809051D01*
X93156618Y-152799872D01*
X93176830Y-152792640D01*
X93197654Y-152787424D01*
X93218889Y-152784274D01*
X93240330Y-152783221D01*
X93261771Y-152784274D01*
G37*
D21*
X149320000Y-167005000D03*
X145320000Y-167005000D03*
D10*
G36*
X120737690Y-97316053D02*
G01*
X120758925Y-97319203D01*
X120779749Y-97324419D01*
X120799961Y-97331651D01*
X120819367Y-97340830D01*
X120837780Y-97351866D01*
X120855023Y-97364654D01*
X120870929Y-97379070D01*
X120885345Y-97394976D01*
X120898133Y-97412219D01*
X120909169Y-97430632D01*
X120918348Y-97450038D01*
X120925580Y-97470250D01*
X120930796Y-97491074D01*
X120933946Y-97512309D01*
X120934999Y-97533750D01*
X120934999Y-98046250D01*
X120933946Y-98067691D01*
X120930796Y-98088926D01*
X120925580Y-98109750D01*
X120918348Y-98129962D01*
X120909169Y-98149368D01*
X120898133Y-98167781D01*
X120885345Y-98185024D01*
X120870929Y-98200930D01*
X120855023Y-98215346D01*
X120837780Y-98228134D01*
X120819367Y-98239170D01*
X120799961Y-98248349D01*
X120779749Y-98255581D01*
X120758925Y-98260797D01*
X120737690Y-98263947D01*
X120716249Y-98265000D01*
X120278749Y-98265000D01*
X120257308Y-98263947D01*
X120236073Y-98260797D01*
X120215249Y-98255581D01*
X120195037Y-98248349D01*
X120175631Y-98239170D01*
X120157218Y-98228134D01*
X120139975Y-98215346D01*
X120124069Y-98200930D01*
X120109653Y-98185024D01*
X120096865Y-98167781D01*
X120085829Y-98149368D01*
X120076650Y-98129962D01*
X120069418Y-98109750D01*
X120064202Y-98088926D01*
X120061052Y-98067691D01*
X120059999Y-98046250D01*
X120059999Y-97533750D01*
X120061052Y-97512309D01*
X120064202Y-97491074D01*
X120069418Y-97470250D01*
X120076650Y-97450038D01*
X120085829Y-97430632D01*
X120096865Y-97412219D01*
X120109653Y-97394976D01*
X120124069Y-97379070D01*
X120139975Y-97364654D01*
X120157218Y-97351866D01*
X120175631Y-97340830D01*
X120195037Y-97331651D01*
X120215249Y-97324419D01*
X120236073Y-97319203D01*
X120257308Y-97316053D01*
X120278749Y-97315000D01*
X120716249Y-97315000D01*
X120737690Y-97316053D01*
G37*
G36*
X122312692Y-97316053D02*
G01*
X122333927Y-97319203D01*
X122354751Y-97324419D01*
X122374963Y-97331651D01*
X122394369Y-97340830D01*
X122412782Y-97351866D01*
X122430025Y-97364654D01*
X122445931Y-97379070D01*
X122460347Y-97394976D01*
X122473135Y-97412219D01*
X122484171Y-97430632D01*
X122493350Y-97450038D01*
X122500582Y-97470250D01*
X122505798Y-97491074D01*
X122508948Y-97512309D01*
X122510001Y-97533750D01*
X122510001Y-98046250D01*
X122508948Y-98067691D01*
X122505798Y-98088926D01*
X122500582Y-98109750D01*
X122493350Y-98129962D01*
X122484171Y-98149368D01*
X122473135Y-98167781D01*
X122460347Y-98185024D01*
X122445931Y-98200930D01*
X122430025Y-98215346D01*
X122412782Y-98228134D01*
X122394369Y-98239170D01*
X122374963Y-98248349D01*
X122354751Y-98255581D01*
X122333927Y-98260797D01*
X122312692Y-98263947D01*
X122291251Y-98265000D01*
X121853751Y-98265000D01*
X121832310Y-98263947D01*
X121811075Y-98260797D01*
X121790251Y-98255581D01*
X121770039Y-98248349D01*
X121750633Y-98239170D01*
X121732220Y-98228134D01*
X121714977Y-98215346D01*
X121699071Y-98200930D01*
X121684655Y-98185024D01*
X121671867Y-98167781D01*
X121660831Y-98149368D01*
X121651652Y-98129962D01*
X121644420Y-98109750D01*
X121639204Y-98088926D01*
X121636054Y-98067691D01*
X121635001Y-98046250D01*
X121635001Y-97533750D01*
X121636054Y-97512309D01*
X121639204Y-97491074D01*
X121644420Y-97470250D01*
X121651652Y-97450038D01*
X121660831Y-97430632D01*
X121671867Y-97412219D01*
X121684655Y-97394976D01*
X121699071Y-97379070D01*
X121714977Y-97364654D01*
X121732220Y-97351866D01*
X121750633Y-97340830D01*
X121770039Y-97331651D01*
X121790251Y-97324419D01*
X121811075Y-97319203D01*
X121832310Y-97316053D01*
X121853751Y-97315000D01*
X122291251Y-97315000D01*
X122312692Y-97316053D01*
G37*
G36*
X125624504Y-98821204D02*
G01*
X125648773Y-98824804D01*
X125672571Y-98830765D01*
X125695671Y-98839030D01*
X125717849Y-98849520D01*
X125738893Y-98862133D01*
X125758598Y-98876747D01*
X125776777Y-98893223D01*
X125793253Y-98911402D01*
X125807867Y-98931107D01*
X125820480Y-98952151D01*
X125830970Y-98974329D01*
X125839235Y-98997429D01*
X125845196Y-99021227D01*
X125848796Y-99045496D01*
X125850000Y-99070000D01*
X125850000Y-100320000D01*
X125848796Y-100344504D01*
X125845196Y-100368773D01*
X125839235Y-100392571D01*
X125830970Y-100415671D01*
X125820480Y-100437849D01*
X125807867Y-100458893D01*
X125793253Y-100478598D01*
X125776777Y-100496777D01*
X125758598Y-100513253D01*
X125738893Y-100527867D01*
X125717849Y-100540480D01*
X125695671Y-100550970D01*
X125672571Y-100559235D01*
X125648773Y-100565196D01*
X125624504Y-100568796D01*
X125600000Y-100570000D01*
X124850000Y-100570000D01*
X124825496Y-100568796D01*
X124801227Y-100565196D01*
X124777429Y-100559235D01*
X124754329Y-100550970D01*
X124732151Y-100540480D01*
X124711107Y-100527867D01*
X124691402Y-100513253D01*
X124673223Y-100496777D01*
X124656747Y-100478598D01*
X124642133Y-100458893D01*
X124629520Y-100437849D01*
X124619030Y-100415671D01*
X124610765Y-100392571D01*
X124604804Y-100368773D01*
X124601204Y-100344504D01*
X124600000Y-100320000D01*
X124600000Y-99070000D01*
X124601204Y-99045496D01*
X124604804Y-99021227D01*
X124610765Y-98997429D01*
X124619030Y-98974329D01*
X124629520Y-98952151D01*
X124642133Y-98931107D01*
X124656747Y-98911402D01*
X124673223Y-98893223D01*
X124691402Y-98876747D01*
X124711107Y-98862133D01*
X124732151Y-98849520D01*
X124754329Y-98839030D01*
X124777429Y-98830765D01*
X124801227Y-98824804D01*
X124825496Y-98821204D01*
X124850000Y-98820000D01*
X125600000Y-98820000D01*
X125624504Y-98821204D01*
G37*
G36*
X122824504Y-98821204D02*
G01*
X122848773Y-98824804D01*
X122872571Y-98830765D01*
X122895671Y-98839030D01*
X122917849Y-98849520D01*
X122938893Y-98862133D01*
X122958598Y-98876747D01*
X122976777Y-98893223D01*
X122993253Y-98911402D01*
X123007867Y-98931107D01*
X123020480Y-98952151D01*
X123030970Y-98974329D01*
X123039235Y-98997429D01*
X123045196Y-99021227D01*
X123048796Y-99045496D01*
X123050000Y-99070000D01*
X123050000Y-100320000D01*
X123048796Y-100344504D01*
X123045196Y-100368773D01*
X123039235Y-100392571D01*
X123030970Y-100415671D01*
X123020480Y-100437849D01*
X123007867Y-100458893D01*
X122993253Y-100478598D01*
X122976777Y-100496777D01*
X122958598Y-100513253D01*
X122938893Y-100527867D01*
X122917849Y-100540480D01*
X122895671Y-100550970D01*
X122872571Y-100559235D01*
X122848773Y-100565196D01*
X122824504Y-100568796D01*
X122800000Y-100570000D01*
X122050000Y-100570000D01*
X122025496Y-100568796D01*
X122001227Y-100565196D01*
X121977429Y-100559235D01*
X121954329Y-100550970D01*
X121932151Y-100540480D01*
X121911107Y-100527867D01*
X121891402Y-100513253D01*
X121873223Y-100496777D01*
X121856747Y-100478598D01*
X121842133Y-100458893D01*
X121829520Y-100437849D01*
X121819030Y-100415671D01*
X121810765Y-100392571D01*
X121804804Y-100368773D01*
X121801204Y-100344504D01*
X121800000Y-100320000D01*
X121800000Y-99070000D01*
X121801204Y-99045496D01*
X121804804Y-99021227D01*
X121810765Y-98997429D01*
X121819030Y-98974329D01*
X121829520Y-98952151D01*
X121842133Y-98931107D01*
X121856747Y-98911402D01*
X121873223Y-98893223D01*
X121891402Y-98876747D01*
X121911107Y-98862133D01*
X121932151Y-98849520D01*
X121954329Y-98839030D01*
X121977429Y-98830765D01*
X122001227Y-98824804D01*
X122025496Y-98821204D01*
X122050000Y-98820000D01*
X122800000Y-98820000D01*
X122824504Y-98821204D01*
G37*
G36*
X131361771Y-157639580D02*
G01*
X131383006Y-157642730D01*
X131403830Y-157647946D01*
X131424042Y-157655178D01*
X131443448Y-157664357D01*
X131461861Y-157675393D01*
X131479104Y-157688181D01*
X131495010Y-157702597D01*
X131857403Y-158064990D01*
X131871819Y-158080896D01*
X131884607Y-158098139D01*
X131895643Y-158116552D01*
X131904822Y-158135958D01*
X131912054Y-158156170D01*
X131917270Y-158176994D01*
X131920420Y-158198229D01*
X131921473Y-158219670D01*
X131920420Y-158241111D01*
X131917270Y-158262346D01*
X131912054Y-158283170D01*
X131904822Y-158303382D01*
X131895643Y-158322788D01*
X131884607Y-158341201D01*
X131871819Y-158358444D01*
X131857403Y-158374350D01*
X131548044Y-158683709D01*
X131532138Y-158698125D01*
X131514895Y-158710913D01*
X131496482Y-158721949D01*
X131477076Y-158731128D01*
X131456864Y-158738360D01*
X131436040Y-158743576D01*
X131414805Y-158746726D01*
X131393364Y-158747779D01*
X131371923Y-158746726D01*
X131350688Y-158743576D01*
X131329864Y-158738360D01*
X131309652Y-158731128D01*
X131290246Y-158721949D01*
X131271833Y-158710913D01*
X131254590Y-158698125D01*
X131238684Y-158683709D01*
X130876291Y-158321316D01*
X130861875Y-158305410D01*
X130849087Y-158288167D01*
X130838051Y-158269754D01*
X130828872Y-158250348D01*
X130821640Y-158230136D01*
X130816424Y-158209312D01*
X130813274Y-158188077D01*
X130812221Y-158166636D01*
X130813274Y-158145195D01*
X130816424Y-158123960D01*
X130821640Y-158103136D01*
X130828872Y-158082924D01*
X130838051Y-158063518D01*
X130849087Y-158045105D01*
X130861875Y-158027862D01*
X130876291Y-158011956D01*
X131185650Y-157702597D01*
X131201556Y-157688181D01*
X131218799Y-157675393D01*
X131237212Y-157664357D01*
X131256618Y-157655178D01*
X131276830Y-157647946D01*
X131297654Y-157642730D01*
X131318889Y-157639580D01*
X131340330Y-157638527D01*
X131361771Y-157639580D01*
G37*
G36*
X130248077Y-158753274D02*
G01*
X130269312Y-158756424D01*
X130290136Y-158761640D01*
X130310348Y-158768872D01*
X130329754Y-158778051D01*
X130348167Y-158789087D01*
X130365410Y-158801875D01*
X130381316Y-158816291D01*
X130743709Y-159178684D01*
X130758125Y-159194590D01*
X130770913Y-159211833D01*
X130781949Y-159230246D01*
X130791128Y-159249652D01*
X130798360Y-159269864D01*
X130803576Y-159290688D01*
X130806726Y-159311923D01*
X130807779Y-159333364D01*
X130806726Y-159354805D01*
X130803576Y-159376040D01*
X130798360Y-159396864D01*
X130791128Y-159417076D01*
X130781949Y-159436482D01*
X130770913Y-159454895D01*
X130758125Y-159472138D01*
X130743709Y-159488044D01*
X130434350Y-159797403D01*
X130418444Y-159811819D01*
X130401201Y-159824607D01*
X130382788Y-159835643D01*
X130363382Y-159844822D01*
X130343170Y-159852054D01*
X130322346Y-159857270D01*
X130301111Y-159860420D01*
X130279670Y-159861473D01*
X130258229Y-159860420D01*
X130236994Y-159857270D01*
X130216170Y-159852054D01*
X130195958Y-159844822D01*
X130176552Y-159835643D01*
X130158139Y-159824607D01*
X130140896Y-159811819D01*
X130124990Y-159797403D01*
X129762597Y-159435010D01*
X129748181Y-159419104D01*
X129735393Y-159401861D01*
X129724357Y-159383448D01*
X129715178Y-159364042D01*
X129707946Y-159343830D01*
X129702730Y-159323006D01*
X129699580Y-159301771D01*
X129698527Y-159280330D01*
X129699580Y-159258889D01*
X129702730Y-159237654D01*
X129707946Y-159216830D01*
X129715178Y-159196618D01*
X129724357Y-159177212D01*
X129735393Y-159158799D01*
X129748181Y-159141556D01*
X129762597Y-159125650D01*
X130071956Y-158816291D01*
X130087862Y-158801875D01*
X130105105Y-158789087D01*
X130123518Y-158778051D01*
X130142924Y-158768872D01*
X130163136Y-158761640D01*
X130183960Y-158756424D01*
X130205195Y-158753274D01*
X130226636Y-158752221D01*
X130248077Y-158753274D01*
G37*
G36*
X108352504Y-124856204D02*
G01*
X108376773Y-124859804D01*
X108400571Y-124865765D01*
X108423671Y-124874030D01*
X108445849Y-124884520D01*
X108466893Y-124897133D01*
X108486598Y-124911747D01*
X108504777Y-124928223D01*
X108521253Y-124946402D01*
X108535867Y-124966107D01*
X108548480Y-124987151D01*
X108558970Y-125009329D01*
X108567235Y-125032429D01*
X108573196Y-125056227D01*
X108576796Y-125080496D01*
X108578000Y-125105000D01*
X108578000Y-126355000D01*
X108576796Y-126379504D01*
X108573196Y-126403773D01*
X108567235Y-126427571D01*
X108558970Y-126450671D01*
X108548480Y-126472849D01*
X108535867Y-126493893D01*
X108521253Y-126513598D01*
X108504777Y-126531777D01*
X108486598Y-126548253D01*
X108466893Y-126562867D01*
X108445849Y-126575480D01*
X108423671Y-126585970D01*
X108400571Y-126594235D01*
X108376773Y-126600196D01*
X108352504Y-126603796D01*
X108328000Y-126605000D01*
X107578000Y-126605000D01*
X107553496Y-126603796D01*
X107529227Y-126600196D01*
X107505429Y-126594235D01*
X107482329Y-126585970D01*
X107460151Y-126575480D01*
X107439107Y-126562867D01*
X107419402Y-126548253D01*
X107401223Y-126531777D01*
X107384747Y-126513598D01*
X107370133Y-126493893D01*
X107357520Y-126472849D01*
X107347030Y-126450671D01*
X107338765Y-126427571D01*
X107332804Y-126403773D01*
X107329204Y-126379504D01*
X107328000Y-126355000D01*
X107328000Y-125105000D01*
X107329204Y-125080496D01*
X107332804Y-125056227D01*
X107338765Y-125032429D01*
X107347030Y-125009329D01*
X107357520Y-124987151D01*
X107370133Y-124966107D01*
X107384747Y-124946402D01*
X107401223Y-124928223D01*
X107419402Y-124911747D01*
X107439107Y-124897133D01*
X107460151Y-124884520D01*
X107482329Y-124874030D01*
X107505429Y-124865765D01*
X107529227Y-124859804D01*
X107553496Y-124856204D01*
X107578000Y-124855000D01*
X108328000Y-124855000D01*
X108352504Y-124856204D01*
G37*
G36*
X105552504Y-124856204D02*
G01*
X105576773Y-124859804D01*
X105600571Y-124865765D01*
X105623671Y-124874030D01*
X105645849Y-124884520D01*
X105666893Y-124897133D01*
X105686598Y-124911747D01*
X105704777Y-124928223D01*
X105721253Y-124946402D01*
X105735867Y-124966107D01*
X105748480Y-124987151D01*
X105758970Y-125009329D01*
X105767235Y-125032429D01*
X105773196Y-125056227D01*
X105776796Y-125080496D01*
X105778000Y-125105000D01*
X105778000Y-126355000D01*
X105776796Y-126379504D01*
X105773196Y-126403773D01*
X105767235Y-126427571D01*
X105758970Y-126450671D01*
X105748480Y-126472849D01*
X105735867Y-126493893D01*
X105721253Y-126513598D01*
X105704777Y-126531777D01*
X105686598Y-126548253D01*
X105666893Y-126562867D01*
X105645849Y-126575480D01*
X105623671Y-126585970D01*
X105600571Y-126594235D01*
X105576773Y-126600196D01*
X105552504Y-126603796D01*
X105528000Y-126605000D01*
X104778000Y-126605000D01*
X104753496Y-126603796D01*
X104729227Y-126600196D01*
X104705429Y-126594235D01*
X104682329Y-126585970D01*
X104660151Y-126575480D01*
X104639107Y-126562867D01*
X104619402Y-126548253D01*
X104601223Y-126531777D01*
X104584747Y-126513598D01*
X104570133Y-126493893D01*
X104557520Y-126472849D01*
X104547030Y-126450671D01*
X104538765Y-126427571D01*
X104532804Y-126403773D01*
X104529204Y-126379504D01*
X104528000Y-126355000D01*
X104528000Y-125105000D01*
X104529204Y-125080496D01*
X104532804Y-125056227D01*
X104538765Y-125032429D01*
X104547030Y-125009329D01*
X104557520Y-124987151D01*
X104570133Y-124966107D01*
X104584747Y-124946402D01*
X104601223Y-124928223D01*
X104619402Y-124911747D01*
X104639107Y-124897133D01*
X104660151Y-124884520D01*
X104682329Y-124874030D01*
X104705429Y-124865765D01*
X104729227Y-124859804D01*
X104753496Y-124856204D01*
X104778000Y-124855000D01*
X105528000Y-124855000D01*
X105552504Y-124856204D01*
G37*
G36*
X108215691Y-127161053D02*
G01*
X108236926Y-127164203D01*
X108257750Y-127169419D01*
X108277962Y-127176651D01*
X108297368Y-127185830D01*
X108315781Y-127196866D01*
X108333024Y-127209654D01*
X108348930Y-127224070D01*
X108363346Y-127239976D01*
X108376134Y-127257219D01*
X108387170Y-127275632D01*
X108396349Y-127295038D01*
X108403581Y-127315250D01*
X108408797Y-127336074D01*
X108411947Y-127357309D01*
X108413000Y-127378750D01*
X108413000Y-127891250D01*
X108411947Y-127912691D01*
X108408797Y-127933926D01*
X108403581Y-127954750D01*
X108396349Y-127974962D01*
X108387170Y-127994368D01*
X108376134Y-128012781D01*
X108363346Y-128030024D01*
X108348930Y-128045930D01*
X108333024Y-128060346D01*
X108315781Y-128073134D01*
X108297368Y-128084170D01*
X108277962Y-128093349D01*
X108257750Y-128100581D01*
X108236926Y-128105797D01*
X108215691Y-128108947D01*
X108194250Y-128110000D01*
X107756750Y-128110000D01*
X107735309Y-128108947D01*
X107714074Y-128105797D01*
X107693250Y-128100581D01*
X107673038Y-128093349D01*
X107653632Y-128084170D01*
X107635219Y-128073134D01*
X107617976Y-128060346D01*
X107602070Y-128045930D01*
X107587654Y-128030024D01*
X107574866Y-128012781D01*
X107563830Y-127994368D01*
X107554651Y-127974962D01*
X107547419Y-127954750D01*
X107542203Y-127933926D01*
X107539053Y-127912691D01*
X107538000Y-127891250D01*
X107538000Y-127378750D01*
X107539053Y-127357309D01*
X107542203Y-127336074D01*
X107547419Y-127315250D01*
X107554651Y-127295038D01*
X107563830Y-127275632D01*
X107574866Y-127257219D01*
X107587654Y-127239976D01*
X107602070Y-127224070D01*
X107617976Y-127209654D01*
X107635219Y-127196866D01*
X107653632Y-127185830D01*
X107673038Y-127176651D01*
X107693250Y-127169419D01*
X107714074Y-127164203D01*
X107735309Y-127161053D01*
X107756750Y-127160000D01*
X108194250Y-127160000D01*
X108215691Y-127161053D01*
G37*
G36*
X106640691Y-127161053D02*
G01*
X106661926Y-127164203D01*
X106682750Y-127169419D01*
X106702962Y-127176651D01*
X106722368Y-127185830D01*
X106740781Y-127196866D01*
X106758024Y-127209654D01*
X106773930Y-127224070D01*
X106788346Y-127239976D01*
X106801134Y-127257219D01*
X106812170Y-127275632D01*
X106821349Y-127295038D01*
X106828581Y-127315250D01*
X106833797Y-127336074D01*
X106836947Y-127357309D01*
X106838000Y-127378750D01*
X106838000Y-127891250D01*
X106836947Y-127912691D01*
X106833797Y-127933926D01*
X106828581Y-127954750D01*
X106821349Y-127974962D01*
X106812170Y-127994368D01*
X106801134Y-128012781D01*
X106788346Y-128030024D01*
X106773930Y-128045930D01*
X106758024Y-128060346D01*
X106740781Y-128073134D01*
X106722368Y-128084170D01*
X106702962Y-128093349D01*
X106682750Y-128100581D01*
X106661926Y-128105797D01*
X106640691Y-128108947D01*
X106619250Y-128110000D01*
X106181750Y-128110000D01*
X106160309Y-128108947D01*
X106139074Y-128105797D01*
X106118250Y-128100581D01*
X106098038Y-128093349D01*
X106078632Y-128084170D01*
X106060219Y-128073134D01*
X106042976Y-128060346D01*
X106027070Y-128045930D01*
X106012654Y-128030024D01*
X105999866Y-128012781D01*
X105988830Y-127994368D01*
X105979651Y-127974962D01*
X105972419Y-127954750D01*
X105967203Y-127933926D01*
X105964053Y-127912691D01*
X105963000Y-127891250D01*
X105963000Y-127378750D01*
X105964053Y-127357309D01*
X105967203Y-127336074D01*
X105972419Y-127315250D01*
X105979651Y-127295038D01*
X105988830Y-127275632D01*
X105999866Y-127257219D01*
X106012654Y-127239976D01*
X106027070Y-127224070D01*
X106042976Y-127209654D01*
X106060219Y-127196866D01*
X106078632Y-127185830D01*
X106098038Y-127176651D01*
X106118250Y-127169419D01*
X106139074Y-127164203D01*
X106160309Y-127161053D01*
X106181750Y-127160000D01*
X106619250Y-127160000D01*
X106640691Y-127161053D01*
G37*
G36*
X98702691Y-194026053D02*
G01*
X98723926Y-194029203D01*
X98744750Y-194034419D01*
X98764962Y-194041651D01*
X98784368Y-194050830D01*
X98802781Y-194061866D01*
X98820024Y-194074654D01*
X98835930Y-194089070D01*
X98850346Y-194104976D01*
X98863134Y-194122219D01*
X98874170Y-194140632D01*
X98883349Y-194160038D01*
X98890581Y-194180250D01*
X98895797Y-194201074D01*
X98898947Y-194222309D01*
X98900000Y-194243750D01*
X98900000Y-194681250D01*
X98898947Y-194702691D01*
X98895797Y-194723926D01*
X98890581Y-194744750D01*
X98883349Y-194764962D01*
X98874170Y-194784368D01*
X98863134Y-194802781D01*
X98850346Y-194820024D01*
X98835930Y-194835930D01*
X98820024Y-194850346D01*
X98802781Y-194863134D01*
X98784368Y-194874170D01*
X98764962Y-194883349D01*
X98744750Y-194890581D01*
X98723926Y-194895797D01*
X98702691Y-194898947D01*
X98681250Y-194900000D01*
X98168750Y-194900000D01*
X98147309Y-194898947D01*
X98126074Y-194895797D01*
X98105250Y-194890581D01*
X98085038Y-194883349D01*
X98065632Y-194874170D01*
X98047219Y-194863134D01*
X98029976Y-194850346D01*
X98014070Y-194835930D01*
X97999654Y-194820024D01*
X97986866Y-194802781D01*
X97975830Y-194784368D01*
X97966651Y-194764962D01*
X97959419Y-194744750D01*
X97954203Y-194723926D01*
X97951053Y-194702691D01*
X97950000Y-194681250D01*
X97950000Y-194243750D01*
X97951053Y-194222309D01*
X97954203Y-194201074D01*
X97959419Y-194180250D01*
X97966651Y-194160038D01*
X97975830Y-194140632D01*
X97986866Y-194122219D01*
X97999654Y-194104976D01*
X98014070Y-194089070D01*
X98029976Y-194074654D01*
X98047219Y-194061866D01*
X98065632Y-194050830D01*
X98085038Y-194041651D01*
X98105250Y-194034419D01*
X98126074Y-194029203D01*
X98147309Y-194026053D01*
X98168750Y-194025000D01*
X98681250Y-194025000D01*
X98702691Y-194026053D01*
G37*
G36*
X98702691Y-192451053D02*
G01*
X98723926Y-192454203D01*
X98744750Y-192459419D01*
X98764962Y-192466651D01*
X98784368Y-192475830D01*
X98802781Y-192486866D01*
X98820024Y-192499654D01*
X98835930Y-192514070D01*
X98850346Y-192529976D01*
X98863134Y-192547219D01*
X98874170Y-192565632D01*
X98883349Y-192585038D01*
X98890581Y-192605250D01*
X98895797Y-192626074D01*
X98898947Y-192647309D01*
X98900000Y-192668750D01*
X98900000Y-193106250D01*
X98898947Y-193127691D01*
X98895797Y-193148926D01*
X98890581Y-193169750D01*
X98883349Y-193189962D01*
X98874170Y-193209368D01*
X98863134Y-193227781D01*
X98850346Y-193245024D01*
X98835930Y-193260930D01*
X98820024Y-193275346D01*
X98802781Y-193288134D01*
X98784368Y-193299170D01*
X98764962Y-193308349D01*
X98744750Y-193315581D01*
X98723926Y-193320797D01*
X98702691Y-193323947D01*
X98681250Y-193325000D01*
X98168750Y-193325000D01*
X98147309Y-193323947D01*
X98126074Y-193320797D01*
X98105250Y-193315581D01*
X98085038Y-193308349D01*
X98065632Y-193299170D01*
X98047219Y-193288134D01*
X98029976Y-193275346D01*
X98014070Y-193260930D01*
X97999654Y-193245024D01*
X97986866Y-193227781D01*
X97975830Y-193209368D01*
X97966651Y-193189962D01*
X97959419Y-193169750D01*
X97954203Y-193148926D01*
X97951053Y-193127691D01*
X97950000Y-193106250D01*
X97950000Y-192668750D01*
X97951053Y-192647309D01*
X97954203Y-192626074D01*
X97959419Y-192605250D01*
X97966651Y-192585038D01*
X97975830Y-192565632D01*
X97986866Y-192547219D01*
X97999654Y-192529976D01*
X98014070Y-192514070D01*
X98029976Y-192499654D01*
X98047219Y-192486866D01*
X98065632Y-192475830D01*
X98085038Y-192466651D01*
X98105250Y-192459419D01*
X98126074Y-192454203D01*
X98147309Y-192451053D01*
X98168750Y-192450000D01*
X98681250Y-192450000D01*
X98702691Y-192451053D01*
G37*
G36*
X99837504Y-114061204D02*
G01*
X99861773Y-114064804D01*
X99885571Y-114070765D01*
X99908671Y-114079030D01*
X99930849Y-114089520D01*
X99951893Y-114102133D01*
X99971598Y-114116747D01*
X99989777Y-114133223D01*
X100006253Y-114151402D01*
X100020867Y-114171107D01*
X100033480Y-114192151D01*
X100043970Y-114214329D01*
X100052235Y-114237429D01*
X100058196Y-114261227D01*
X100061796Y-114285496D01*
X100063000Y-114310000D01*
X100063000Y-115560000D01*
X100061796Y-115584504D01*
X100058196Y-115608773D01*
X100052235Y-115632571D01*
X100043970Y-115655671D01*
X100033480Y-115677849D01*
X100020867Y-115698893D01*
X100006253Y-115718598D01*
X99989777Y-115736777D01*
X99971598Y-115753253D01*
X99951893Y-115767867D01*
X99930849Y-115780480D01*
X99908671Y-115790970D01*
X99885571Y-115799235D01*
X99861773Y-115805196D01*
X99837504Y-115808796D01*
X99813000Y-115810000D01*
X99063000Y-115810000D01*
X99038496Y-115808796D01*
X99014227Y-115805196D01*
X98990429Y-115799235D01*
X98967329Y-115790970D01*
X98945151Y-115780480D01*
X98924107Y-115767867D01*
X98904402Y-115753253D01*
X98886223Y-115736777D01*
X98869747Y-115718598D01*
X98855133Y-115698893D01*
X98842520Y-115677849D01*
X98832030Y-115655671D01*
X98823765Y-115632571D01*
X98817804Y-115608773D01*
X98814204Y-115584504D01*
X98813000Y-115560000D01*
X98813000Y-114310000D01*
X98814204Y-114285496D01*
X98817804Y-114261227D01*
X98823765Y-114237429D01*
X98832030Y-114214329D01*
X98842520Y-114192151D01*
X98855133Y-114171107D01*
X98869747Y-114151402D01*
X98886223Y-114133223D01*
X98904402Y-114116747D01*
X98924107Y-114102133D01*
X98945151Y-114089520D01*
X98967329Y-114079030D01*
X98990429Y-114070765D01*
X99014227Y-114064804D01*
X99038496Y-114061204D01*
X99063000Y-114060000D01*
X99813000Y-114060000D01*
X99837504Y-114061204D01*
G37*
G36*
X102637504Y-114061204D02*
G01*
X102661773Y-114064804D01*
X102685571Y-114070765D01*
X102708671Y-114079030D01*
X102730849Y-114089520D01*
X102751893Y-114102133D01*
X102771598Y-114116747D01*
X102789777Y-114133223D01*
X102806253Y-114151402D01*
X102820867Y-114171107D01*
X102833480Y-114192151D01*
X102843970Y-114214329D01*
X102852235Y-114237429D01*
X102858196Y-114261227D01*
X102861796Y-114285496D01*
X102863000Y-114310000D01*
X102863000Y-115560000D01*
X102861796Y-115584504D01*
X102858196Y-115608773D01*
X102852235Y-115632571D01*
X102843970Y-115655671D01*
X102833480Y-115677849D01*
X102820867Y-115698893D01*
X102806253Y-115718598D01*
X102789777Y-115736777D01*
X102771598Y-115753253D01*
X102751893Y-115767867D01*
X102730849Y-115780480D01*
X102708671Y-115790970D01*
X102685571Y-115799235D01*
X102661773Y-115805196D01*
X102637504Y-115808796D01*
X102613000Y-115810000D01*
X101863000Y-115810000D01*
X101838496Y-115808796D01*
X101814227Y-115805196D01*
X101790429Y-115799235D01*
X101767329Y-115790970D01*
X101745151Y-115780480D01*
X101724107Y-115767867D01*
X101704402Y-115753253D01*
X101686223Y-115736777D01*
X101669747Y-115718598D01*
X101655133Y-115698893D01*
X101642520Y-115677849D01*
X101632030Y-115655671D01*
X101623765Y-115632571D01*
X101617804Y-115608773D01*
X101614204Y-115584504D01*
X101613000Y-115560000D01*
X101613000Y-114310000D01*
X101614204Y-114285496D01*
X101617804Y-114261227D01*
X101623765Y-114237429D01*
X101632030Y-114214329D01*
X101642520Y-114192151D01*
X101655133Y-114171107D01*
X101669747Y-114151402D01*
X101686223Y-114133223D01*
X101704402Y-114116747D01*
X101724107Y-114102133D01*
X101745151Y-114089520D01*
X101767329Y-114079030D01*
X101790429Y-114070765D01*
X101814227Y-114064804D01*
X101838496Y-114061204D01*
X101863000Y-114060000D01*
X102613000Y-114060000D01*
X102637504Y-114061204D01*
G37*
G36*
X126916771Y-57309580D02*
G01*
X126938006Y-57312730D01*
X126958830Y-57317946D01*
X126979042Y-57325178D01*
X126998448Y-57334357D01*
X127016861Y-57345393D01*
X127034104Y-57358181D01*
X127050010Y-57372597D01*
X127412403Y-57734990D01*
X127426819Y-57750896D01*
X127439607Y-57768139D01*
X127450643Y-57786552D01*
X127459822Y-57805958D01*
X127467054Y-57826170D01*
X127472270Y-57846994D01*
X127475420Y-57868229D01*
X127476473Y-57889670D01*
X127475420Y-57911111D01*
X127472270Y-57932346D01*
X127467054Y-57953170D01*
X127459822Y-57973382D01*
X127450643Y-57992788D01*
X127439607Y-58011201D01*
X127426819Y-58028444D01*
X127412403Y-58044350D01*
X127103044Y-58353709D01*
X127087138Y-58368125D01*
X127069895Y-58380913D01*
X127051482Y-58391949D01*
X127032076Y-58401128D01*
X127011864Y-58408360D01*
X126991040Y-58413576D01*
X126969805Y-58416726D01*
X126948364Y-58417779D01*
X126926923Y-58416726D01*
X126905688Y-58413576D01*
X126884864Y-58408360D01*
X126864652Y-58401128D01*
X126845246Y-58391949D01*
X126826833Y-58380913D01*
X126809590Y-58368125D01*
X126793684Y-58353709D01*
X126431291Y-57991316D01*
X126416875Y-57975410D01*
X126404087Y-57958167D01*
X126393051Y-57939754D01*
X126383872Y-57920348D01*
X126376640Y-57900136D01*
X126371424Y-57879312D01*
X126368274Y-57858077D01*
X126367221Y-57836636D01*
X126368274Y-57815195D01*
X126371424Y-57793960D01*
X126376640Y-57773136D01*
X126383872Y-57752924D01*
X126393051Y-57733518D01*
X126404087Y-57715105D01*
X126416875Y-57697862D01*
X126431291Y-57681956D01*
X126740650Y-57372597D01*
X126756556Y-57358181D01*
X126773799Y-57345393D01*
X126792212Y-57334357D01*
X126811618Y-57325178D01*
X126831830Y-57317946D01*
X126852654Y-57312730D01*
X126873889Y-57309580D01*
X126895330Y-57308527D01*
X126916771Y-57309580D01*
G37*
G36*
X125803077Y-58423274D02*
G01*
X125824312Y-58426424D01*
X125845136Y-58431640D01*
X125865348Y-58438872D01*
X125884754Y-58448051D01*
X125903167Y-58459087D01*
X125920410Y-58471875D01*
X125936316Y-58486291D01*
X126298709Y-58848684D01*
X126313125Y-58864590D01*
X126325913Y-58881833D01*
X126336949Y-58900246D01*
X126346128Y-58919652D01*
X126353360Y-58939864D01*
X126358576Y-58960688D01*
X126361726Y-58981923D01*
X126362779Y-59003364D01*
X126361726Y-59024805D01*
X126358576Y-59046040D01*
X126353360Y-59066864D01*
X126346128Y-59087076D01*
X126336949Y-59106482D01*
X126325913Y-59124895D01*
X126313125Y-59142138D01*
X126298709Y-59158044D01*
X125989350Y-59467403D01*
X125973444Y-59481819D01*
X125956201Y-59494607D01*
X125937788Y-59505643D01*
X125918382Y-59514822D01*
X125898170Y-59522054D01*
X125877346Y-59527270D01*
X125856111Y-59530420D01*
X125834670Y-59531473D01*
X125813229Y-59530420D01*
X125791994Y-59527270D01*
X125771170Y-59522054D01*
X125750958Y-59514822D01*
X125731552Y-59505643D01*
X125713139Y-59494607D01*
X125695896Y-59481819D01*
X125679990Y-59467403D01*
X125317597Y-59105010D01*
X125303181Y-59089104D01*
X125290393Y-59071861D01*
X125279357Y-59053448D01*
X125270178Y-59034042D01*
X125262946Y-59013830D01*
X125257730Y-58993006D01*
X125254580Y-58971771D01*
X125253527Y-58950330D01*
X125254580Y-58928889D01*
X125257730Y-58907654D01*
X125262946Y-58886830D01*
X125270178Y-58866618D01*
X125279357Y-58847212D01*
X125290393Y-58828799D01*
X125303181Y-58811556D01*
X125317597Y-58795650D01*
X125626956Y-58486291D01*
X125642862Y-58471875D01*
X125660105Y-58459087D01*
X125678518Y-58448051D01*
X125697924Y-58438872D01*
X125718136Y-58431640D01*
X125738960Y-58426424D01*
X125760195Y-58423274D01*
X125781636Y-58422221D01*
X125803077Y-58423274D01*
G37*
G36*
X119453077Y-52073274D02*
G01*
X119474312Y-52076424D01*
X119495136Y-52081640D01*
X119515348Y-52088872D01*
X119534754Y-52098051D01*
X119553167Y-52109087D01*
X119570410Y-52121875D01*
X119586316Y-52136291D01*
X119948709Y-52498684D01*
X119963125Y-52514590D01*
X119975913Y-52531833D01*
X119986949Y-52550246D01*
X119996128Y-52569652D01*
X120003360Y-52589864D01*
X120008576Y-52610688D01*
X120011726Y-52631923D01*
X120012779Y-52653364D01*
X120011726Y-52674805D01*
X120008576Y-52696040D01*
X120003360Y-52716864D01*
X119996128Y-52737076D01*
X119986949Y-52756482D01*
X119975913Y-52774895D01*
X119963125Y-52792138D01*
X119948709Y-52808044D01*
X119639350Y-53117403D01*
X119623444Y-53131819D01*
X119606201Y-53144607D01*
X119587788Y-53155643D01*
X119568382Y-53164822D01*
X119548170Y-53172054D01*
X119527346Y-53177270D01*
X119506111Y-53180420D01*
X119484670Y-53181473D01*
X119463229Y-53180420D01*
X119441994Y-53177270D01*
X119421170Y-53172054D01*
X119400958Y-53164822D01*
X119381552Y-53155643D01*
X119363139Y-53144607D01*
X119345896Y-53131819D01*
X119329990Y-53117403D01*
X118967597Y-52755010D01*
X118953181Y-52739104D01*
X118940393Y-52721861D01*
X118929357Y-52703448D01*
X118920178Y-52684042D01*
X118912946Y-52663830D01*
X118907730Y-52643006D01*
X118904580Y-52621771D01*
X118903527Y-52600330D01*
X118904580Y-52578889D01*
X118907730Y-52557654D01*
X118912946Y-52536830D01*
X118920178Y-52516618D01*
X118929357Y-52497212D01*
X118940393Y-52478799D01*
X118953181Y-52461556D01*
X118967597Y-52445650D01*
X119276956Y-52136291D01*
X119292862Y-52121875D01*
X119310105Y-52109087D01*
X119328518Y-52098051D01*
X119347924Y-52088872D01*
X119368136Y-52081640D01*
X119388960Y-52076424D01*
X119410195Y-52073274D01*
X119431636Y-52072221D01*
X119453077Y-52073274D01*
G37*
G36*
X120566771Y-50959580D02*
G01*
X120588006Y-50962730D01*
X120608830Y-50967946D01*
X120629042Y-50975178D01*
X120648448Y-50984357D01*
X120666861Y-50995393D01*
X120684104Y-51008181D01*
X120700010Y-51022597D01*
X121062403Y-51384990D01*
X121076819Y-51400896D01*
X121089607Y-51418139D01*
X121100643Y-51436552D01*
X121109822Y-51455958D01*
X121117054Y-51476170D01*
X121122270Y-51496994D01*
X121125420Y-51518229D01*
X121126473Y-51539670D01*
X121125420Y-51561111D01*
X121122270Y-51582346D01*
X121117054Y-51603170D01*
X121109822Y-51623382D01*
X121100643Y-51642788D01*
X121089607Y-51661201D01*
X121076819Y-51678444D01*
X121062403Y-51694350D01*
X120753044Y-52003709D01*
X120737138Y-52018125D01*
X120719895Y-52030913D01*
X120701482Y-52041949D01*
X120682076Y-52051128D01*
X120661864Y-52058360D01*
X120641040Y-52063576D01*
X120619805Y-52066726D01*
X120598364Y-52067779D01*
X120576923Y-52066726D01*
X120555688Y-52063576D01*
X120534864Y-52058360D01*
X120514652Y-52051128D01*
X120495246Y-52041949D01*
X120476833Y-52030913D01*
X120459590Y-52018125D01*
X120443684Y-52003709D01*
X120081291Y-51641316D01*
X120066875Y-51625410D01*
X120054087Y-51608167D01*
X120043051Y-51589754D01*
X120033872Y-51570348D01*
X120026640Y-51550136D01*
X120021424Y-51529312D01*
X120018274Y-51508077D01*
X120017221Y-51486636D01*
X120018274Y-51465195D01*
X120021424Y-51443960D01*
X120026640Y-51423136D01*
X120033872Y-51402924D01*
X120043051Y-51383518D01*
X120054087Y-51365105D01*
X120066875Y-51347862D01*
X120081291Y-51331956D01*
X120390650Y-51022597D01*
X120406556Y-51008181D01*
X120423799Y-50995393D01*
X120442212Y-50984357D01*
X120461618Y-50975178D01*
X120481830Y-50967946D01*
X120502654Y-50962730D01*
X120523889Y-50959580D01*
X120545330Y-50958527D01*
X120566771Y-50959580D01*
G37*
G36*
X125631545Y-55749536D02*
G01*
X125655206Y-55753046D01*
X125678410Y-55758858D01*
X125700932Y-55766916D01*
X125722556Y-55777144D01*
X125743073Y-55789441D01*
X125762286Y-55803691D01*
X125780010Y-55819755D01*
X126425245Y-56464990D01*
X126441309Y-56482714D01*
X126455559Y-56501927D01*
X126467856Y-56522444D01*
X126478084Y-56544068D01*
X126486142Y-56566590D01*
X126491954Y-56589794D01*
X126495464Y-56613455D01*
X126496638Y-56637347D01*
X126495464Y-56661239D01*
X126491954Y-56684900D01*
X126486142Y-56708104D01*
X126478084Y-56730626D01*
X126467856Y-56752250D01*
X126455559Y-56772767D01*
X126441309Y-56791980D01*
X126425245Y-56809704D01*
X126080530Y-57154419D01*
X126062806Y-57170483D01*
X126043593Y-57184733D01*
X126023076Y-57197030D01*
X126001452Y-57207258D01*
X125978930Y-57215316D01*
X125955726Y-57221128D01*
X125932065Y-57224638D01*
X125908173Y-57225812D01*
X125884281Y-57224638D01*
X125860620Y-57221128D01*
X125837416Y-57215316D01*
X125814894Y-57207258D01*
X125793270Y-57197030D01*
X125772753Y-57184733D01*
X125753540Y-57170483D01*
X125735816Y-57154419D01*
X125090581Y-56509184D01*
X125074517Y-56491460D01*
X125060267Y-56472247D01*
X125047970Y-56451730D01*
X125037742Y-56430106D01*
X125029684Y-56407584D01*
X125023872Y-56384380D01*
X125020362Y-56360719D01*
X125019188Y-56336827D01*
X125020362Y-56312935D01*
X125023872Y-56289274D01*
X125029684Y-56266070D01*
X125037742Y-56243548D01*
X125047970Y-56221924D01*
X125060267Y-56201407D01*
X125074517Y-56182194D01*
X125090581Y-56164470D01*
X125435296Y-55819755D01*
X125453020Y-55803691D01*
X125472233Y-55789441D01*
X125492750Y-55777144D01*
X125514374Y-55766916D01*
X125536896Y-55758858D01*
X125560100Y-55753046D01*
X125583761Y-55749536D01*
X125607653Y-55748362D01*
X125631545Y-55749536D01*
G37*
G36*
X124305719Y-57075362D02*
G01*
X124329380Y-57078872D01*
X124352584Y-57084684D01*
X124375106Y-57092742D01*
X124396730Y-57102970D01*
X124417247Y-57115267D01*
X124436460Y-57129517D01*
X124454184Y-57145581D01*
X125099419Y-57790816D01*
X125115483Y-57808540D01*
X125129733Y-57827753D01*
X125142030Y-57848270D01*
X125152258Y-57869894D01*
X125160316Y-57892416D01*
X125166128Y-57915620D01*
X125169638Y-57939281D01*
X125170812Y-57963173D01*
X125169638Y-57987065D01*
X125166128Y-58010726D01*
X125160316Y-58033930D01*
X125152258Y-58056452D01*
X125142030Y-58078076D01*
X125129733Y-58098593D01*
X125115483Y-58117806D01*
X125099419Y-58135530D01*
X124754704Y-58480245D01*
X124736980Y-58496309D01*
X124717767Y-58510559D01*
X124697250Y-58522856D01*
X124675626Y-58533084D01*
X124653104Y-58541142D01*
X124629900Y-58546954D01*
X124606239Y-58550464D01*
X124582347Y-58551638D01*
X124558455Y-58550464D01*
X124534794Y-58546954D01*
X124511590Y-58541142D01*
X124489068Y-58533084D01*
X124467444Y-58522856D01*
X124446927Y-58510559D01*
X124427714Y-58496309D01*
X124409990Y-58480245D01*
X123764755Y-57835010D01*
X123748691Y-57817286D01*
X123734441Y-57798073D01*
X123722144Y-57777556D01*
X123711916Y-57755932D01*
X123703858Y-57733410D01*
X123698046Y-57710206D01*
X123694536Y-57686545D01*
X123693362Y-57662653D01*
X123694536Y-57638761D01*
X123698046Y-57615100D01*
X123703858Y-57591896D01*
X123711916Y-57569374D01*
X123722144Y-57547750D01*
X123734441Y-57527233D01*
X123748691Y-57508020D01*
X123764755Y-57490296D01*
X124109470Y-57145581D01*
X124127194Y-57129517D01*
X124146407Y-57115267D01*
X124166924Y-57102970D01*
X124188548Y-57092742D01*
X124211070Y-57084684D01*
X124234274Y-57078872D01*
X124257935Y-57075362D01*
X124281827Y-57074188D01*
X124305719Y-57075362D01*
G37*
G36*
X120495719Y-53265362D02*
G01*
X120519380Y-53268872D01*
X120542584Y-53274684D01*
X120565106Y-53282742D01*
X120586730Y-53292970D01*
X120607247Y-53305267D01*
X120626460Y-53319517D01*
X120644184Y-53335581D01*
X121289419Y-53980816D01*
X121305483Y-53998540D01*
X121319733Y-54017753D01*
X121332030Y-54038270D01*
X121342258Y-54059894D01*
X121350316Y-54082416D01*
X121356128Y-54105620D01*
X121359638Y-54129281D01*
X121360812Y-54153173D01*
X121359638Y-54177065D01*
X121356128Y-54200726D01*
X121350316Y-54223930D01*
X121342258Y-54246452D01*
X121332030Y-54268076D01*
X121319733Y-54288593D01*
X121305483Y-54307806D01*
X121289419Y-54325530D01*
X120944704Y-54670245D01*
X120926980Y-54686309D01*
X120907767Y-54700559D01*
X120887250Y-54712856D01*
X120865626Y-54723084D01*
X120843104Y-54731142D01*
X120819900Y-54736954D01*
X120796239Y-54740464D01*
X120772347Y-54741638D01*
X120748455Y-54740464D01*
X120724794Y-54736954D01*
X120701590Y-54731142D01*
X120679068Y-54723084D01*
X120657444Y-54712856D01*
X120636927Y-54700559D01*
X120617714Y-54686309D01*
X120599990Y-54670245D01*
X119954755Y-54025010D01*
X119938691Y-54007286D01*
X119924441Y-53988073D01*
X119912144Y-53967556D01*
X119901916Y-53945932D01*
X119893858Y-53923410D01*
X119888046Y-53900206D01*
X119884536Y-53876545D01*
X119883362Y-53852653D01*
X119884536Y-53828761D01*
X119888046Y-53805100D01*
X119893858Y-53781896D01*
X119901916Y-53759374D01*
X119912144Y-53737750D01*
X119924441Y-53717233D01*
X119938691Y-53698020D01*
X119954755Y-53680296D01*
X120299470Y-53335581D01*
X120317194Y-53319517D01*
X120336407Y-53305267D01*
X120356924Y-53292970D01*
X120378548Y-53282742D01*
X120401070Y-53274684D01*
X120424274Y-53268872D01*
X120447935Y-53265362D01*
X120471827Y-53264188D01*
X120495719Y-53265362D01*
G37*
G36*
X121821545Y-51939536D02*
G01*
X121845206Y-51943046D01*
X121868410Y-51948858D01*
X121890932Y-51956916D01*
X121912556Y-51967144D01*
X121933073Y-51979441D01*
X121952286Y-51993691D01*
X121970010Y-52009755D01*
X122615245Y-52654990D01*
X122631309Y-52672714D01*
X122645559Y-52691927D01*
X122657856Y-52712444D01*
X122668084Y-52734068D01*
X122676142Y-52756590D01*
X122681954Y-52779794D01*
X122685464Y-52803455D01*
X122686638Y-52827347D01*
X122685464Y-52851239D01*
X122681954Y-52874900D01*
X122676142Y-52898104D01*
X122668084Y-52920626D01*
X122657856Y-52942250D01*
X122645559Y-52962767D01*
X122631309Y-52981980D01*
X122615245Y-52999704D01*
X122270530Y-53344419D01*
X122252806Y-53360483D01*
X122233593Y-53374733D01*
X122213076Y-53387030D01*
X122191452Y-53397258D01*
X122168930Y-53405316D01*
X122145726Y-53411128D01*
X122122065Y-53414638D01*
X122098173Y-53415812D01*
X122074281Y-53414638D01*
X122050620Y-53411128D01*
X122027416Y-53405316D01*
X122004894Y-53397258D01*
X121983270Y-53387030D01*
X121962753Y-53374733D01*
X121943540Y-53360483D01*
X121925816Y-53344419D01*
X121280581Y-52699184D01*
X121264517Y-52681460D01*
X121250267Y-52662247D01*
X121237970Y-52641730D01*
X121227742Y-52620106D01*
X121219684Y-52597584D01*
X121213872Y-52574380D01*
X121210362Y-52550719D01*
X121209188Y-52526827D01*
X121210362Y-52502935D01*
X121213872Y-52479274D01*
X121219684Y-52456070D01*
X121227742Y-52433548D01*
X121237970Y-52411924D01*
X121250267Y-52391407D01*
X121264517Y-52372194D01*
X121280581Y-52354470D01*
X121625296Y-52009755D01*
X121643020Y-51993691D01*
X121662233Y-51979441D01*
X121682750Y-51967144D01*
X121704374Y-51956916D01*
X121726896Y-51948858D01*
X121750100Y-51943046D01*
X121773761Y-51939536D01*
X121797653Y-51938362D01*
X121821545Y-51939536D01*
G37*
G36*
X123726545Y-53844536D02*
G01*
X123750206Y-53848046D01*
X123773410Y-53853858D01*
X123795932Y-53861916D01*
X123817556Y-53872144D01*
X123838073Y-53884441D01*
X123857286Y-53898691D01*
X123875010Y-53914755D01*
X124520245Y-54559990D01*
X124536309Y-54577714D01*
X124550559Y-54596927D01*
X124562856Y-54617444D01*
X124573084Y-54639068D01*
X124581142Y-54661590D01*
X124586954Y-54684794D01*
X124590464Y-54708455D01*
X124591638Y-54732347D01*
X124590464Y-54756239D01*
X124586954Y-54779900D01*
X124581142Y-54803104D01*
X124573084Y-54825626D01*
X124562856Y-54847250D01*
X124550559Y-54867767D01*
X124536309Y-54886980D01*
X124520245Y-54904704D01*
X124175530Y-55249419D01*
X124157806Y-55265483D01*
X124138593Y-55279733D01*
X124118076Y-55292030D01*
X124096452Y-55302258D01*
X124073930Y-55310316D01*
X124050726Y-55316128D01*
X124027065Y-55319638D01*
X124003173Y-55320812D01*
X123979281Y-55319638D01*
X123955620Y-55316128D01*
X123932416Y-55310316D01*
X123909894Y-55302258D01*
X123888270Y-55292030D01*
X123867753Y-55279733D01*
X123848540Y-55265483D01*
X123830816Y-55249419D01*
X123185581Y-54604184D01*
X123169517Y-54586460D01*
X123155267Y-54567247D01*
X123142970Y-54546730D01*
X123132742Y-54525106D01*
X123124684Y-54502584D01*
X123118872Y-54479380D01*
X123115362Y-54455719D01*
X123114188Y-54431827D01*
X123115362Y-54407935D01*
X123118872Y-54384274D01*
X123124684Y-54361070D01*
X123132742Y-54338548D01*
X123142970Y-54316924D01*
X123155267Y-54296407D01*
X123169517Y-54277194D01*
X123185581Y-54259470D01*
X123530296Y-53914755D01*
X123548020Y-53898691D01*
X123567233Y-53884441D01*
X123587750Y-53872144D01*
X123609374Y-53861916D01*
X123631896Y-53853858D01*
X123655100Y-53848046D01*
X123678761Y-53844536D01*
X123702653Y-53843362D01*
X123726545Y-53844536D01*
G37*
G36*
X122400719Y-55170362D02*
G01*
X122424380Y-55173872D01*
X122447584Y-55179684D01*
X122470106Y-55187742D01*
X122491730Y-55197970D01*
X122512247Y-55210267D01*
X122531460Y-55224517D01*
X122549184Y-55240581D01*
X123194419Y-55885816D01*
X123210483Y-55903540D01*
X123224733Y-55922753D01*
X123237030Y-55943270D01*
X123247258Y-55964894D01*
X123255316Y-55987416D01*
X123261128Y-56010620D01*
X123264638Y-56034281D01*
X123265812Y-56058173D01*
X123264638Y-56082065D01*
X123261128Y-56105726D01*
X123255316Y-56128930D01*
X123247258Y-56151452D01*
X123237030Y-56173076D01*
X123224733Y-56193593D01*
X123210483Y-56212806D01*
X123194419Y-56230530D01*
X122849704Y-56575245D01*
X122831980Y-56591309D01*
X122812767Y-56605559D01*
X122792250Y-56617856D01*
X122770626Y-56628084D01*
X122748104Y-56636142D01*
X122724900Y-56641954D01*
X122701239Y-56645464D01*
X122677347Y-56646638D01*
X122653455Y-56645464D01*
X122629794Y-56641954D01*
X122606590Y-56636142D01*
X122584068Y-56628084D01*
X122562444Y-56617856D01*
X122541927Y-56605559D01*
X122522714Y-56591309D01*
X122504990Y-56575245D01*
X121859755Y-55930010D01*
X121843691Y-55912286D01*
X121829441Y-55893073D01*
X121817144Y-55872556D01*
X121806916Y-55850932D01*
X121798858Y-55828410D01*
X121793046Y-55805206D01*
X121789536Y-55781545D01*
X121788362Y-55757653D01*
X121789536Y-55733761D01*
X121793046Y-55710100D01*
X121798858Y-55686896D01*
X121806916Y-55664374D01*
X121817144Y-55642750D01*
X121829441Y-55622233D01*
X121843691Y-55603020D01*
X121859755Y-55585296D01*
X122204470Y-55240581D01*
X122222194Y-55224517D01*
X122241407Y-55210267D01*
X122261924Y-55197970D01*
X122283548Y-55187742D01*
X122306070Y-55179684D01*
X122329274Y-55173872D01*
X122352935Y-55170362D01*
X122376827Y-55169188D01*
X122400719Y-55170362D01*
G37*
G36*
X151730142Y-160591174D02*
G01*
X151753803Y-160594684D01*
X151777007Y-160600496D01*
X151799529Y-160608554D01*
X151821153Y-160618782D01*
X151841670Y-160631079D01*
X151860883Y-160645329D01*
X151878607Y-160661393D01*
X151894671Y-160679117D01*
X151908921Y-160698330D01*
X151921218Y-160718847D01*
X151931446Y-160740471D01*
X151939504Y-160762993D01*
X151945316Y-160786197D01*
X151948826Y-160809858D01*
X151950000Y-160833750D01*
X151950000Y-161746250D01*
X151948826Y-161770142D01*
X151945316Y-161793803D01*
X151939504Y-161817007D01*
X151931446Y-161839529D01*
X151921218Y-161861153D01*
X151908921Y-161881670D01*
X151894671Y-161900883D01*
X151878607Y-161918607D01*
X151860883Y-161934671D01*
X151841670Y-161948921D01*
X151821153Y-161961218D01*
X151799529Y-161971446D01*
X151777007Y-161979504D01*
X151753803Y-161985316D01*
X151730142Y-161988826D01*
X151706250Y-161990000D01*
X151218750Y-161990000D01*
X151194858Y-161988826D01*
X151171197Y-161985316D01*
X151147993Y-161979504D01*
X151125471Y-161971446D01*
X151103847Y-161961218D01*
X151083330Y-161948921D01*
X151064117Y-161934671D01*
X151046393Y-161918607D01*
X151030329Y-161900883D01*
X151016079Y-161881670D01*
X151003782Y-161861153D01*
X150993554Y-161839529D01*
X150985496Y-161817007D01*
X150979684Y-161793803D01*
X150976174Y-161770142D01*
X150975000Y-161746250D01*
X150975000Y-160833750D01*
X150976174Y-160809858D01*
X150979684Y-160786197D01*
X150985496Y-160762993D01*
X150993554Y-160740471D01*
X151003782Y-160718847D01*
X151016079Y-160698330D01*
X151030329Y-160679117D01*
X151046393Y-160661393D01*
X151064117Y-160645329D01*
X151083330Y-160631079D01*
X151103847Y-160618782D01*
X151125471Y-160608554D01*
X151147993Y-160600496D01*
X151171197Y-160594684D01*
X151194858Y-160591174D01*
X151218750Y-160590000D01*
X151706250Y-160590000D01*
X151730142Y-160591174D01*
G37*
G36*
X153605142Y-160591174D02*
G01*
X153628803Y-160594684D01*
X153652007Y-160600496D01*
X153674529Y-160608554D01*
X153696153Y-160618782D01*
X153716670Y-160631079D01*
X153735883Y-160645329D01*
X153753607Y-160661393D01*
X153769671Y-160679117D01*
X153783921Y-160698330D01*
X153796218Y-160718847D01*
X153806446Y-160740471D01*
X153814504Y-160762993D01*
X153820316Y-160786197D01*
X153823826Y-160809858D01*
X153825000Y-160833750D01*
X153825000Y-161746250D01*
X153823826Y-161770142D01*
X153820316Y-161793803D01*
X153814504Y-161817007D01*
X153806446Y-161839529D01*
X153796218Y-161861153D01*
X153783921Y-161881670D01*
X153769671Y-161900883D01*
X153753607Y-161918607D01*
X153735883Y-161934671D01*
X153716670Y-161948921D01*
X153696153Y-161961218D01*
X153674529Y-161971446D01*
X153652007Y-161979504D01*
X153628803Y-161985316D01*
X153605142Y-161988826D01*
X153581250Y-161990000D01*
X153093750Y-161990000D01*
X153069858Y-161988826D01*
X153046197Y-161985316D01*
X153022993Y-161979504D01*
X153000471Y-161971446D01*
X152978847Y-161961218D01*
X152958330Y-161948921D01*
X152939117Y-161934671D01*
X152921393Y-161918607D01*
X152905329Y-161900883D01*
X152891079Y-161881670D01*
X152878782Y-161861153D01*
X152868554Y-161839529D01*
X152860496Y-161817007D01*
X152854684Y-161793803D01*
X152851174Y-161770142D01*
X152850000Y-161746250D01*
X152850000Y-160833750D01*
X152851174Y-160809858D01*
X152854684Y-160786197D01*
X152860496Y-160762993D01*
X152868554Y-160740471D01*
X152878782Y-160718847D01*
X152891079Y-160698330D01*
X152905329Y-160679117D01*
X152921393Y-160661393D01*
X152939117Y-160645329D01*
X152958330Y-160631079D01*
X152978847Y-160618782D01*
X153000471Y-160608554D01*
X153022993Y-160600496D01*
X153046197Y-160594684D01*
X153069858Y-160591174D01*
X153093750Y-160590000D01*
X153581250Y-160590000D01*
X153605142Y-160591174D01*
G37*
G36*
X141882691Y-161336053D02*
G01*
X141903926Y-161339203D01*
X141924750Y-161344419D01*
X141944962Y-161351651D01*
X141964368Y-161360830D01*
X141982781Y-161371866D01*
X142000024Y-161384654D01*
X142015930Y-161399070D01*
X142030346Y-161414976D01*
X142043134Y-161432219D01*
X142054170Y-161450632D01*
X142063349Y-161470038D01*
X142070581Y-161490250D01*
X142075797Y-161511074D01*
X142078947Y-161532309D01*
X142080000Y-161553750D01*
X142080000Y-161991250D01*
X142078947Y-162012691D01*
X142075797Y-162033926D01*
X142070581Y-162054750D01*
X142063349Y-162074962D01*
X142054170Y-162094368D01*
X142043134Y-162112781D01*
X142030346Y-162130024D01*
X142015930Y-162145930D01*
X142000024Y-162160346D01*
X141982781Y-162173134D01*
X141964368Y-162184170D01*
X141944962Y-162193349D01*
X141924750Y-162200581D01*
X141903926Y-162205797D01*
X141882691Y-162208947D01*
X141861250Y-162210000D01*
X141348750Y-162210000D01*
X141327309Y-162208947D01*
X141306074Y-162205797D01*
X141285250Y-162200581D01*
X141265038Y-162193349D01*
X141245632Y-162184170D01*
X141227219Y-162173134D01*
X141209976Y-162160346D01*
X141194070Y-162145930D01*
X141179654Y-162130024D01*
X141166866Y-162112781D01*
X141155830Y-162094368D01*
X141146651Y-162074962D01*
X141139419Y-162054750D01*
X141134203Y-162033926D01*
X141131053Y-162012691D01*
X141130000Y-161991250D01*
X141130000Y-161553750D01*
X141131053Y-161532309D01*
X141134203Y-161511074D01*
X141139419Y-161490250D01*
X141146651Y-161470038D01*
X141155830Y-161450632D01*
X141166866Y-161432219D01*
X141179654Y-161414976D01*
X141194070Y-161399070D01*
X141209976Y-161384654D01*
X141227219Y-161371866D01*
X141245632Y-161360830D01*
X141265038Y-161351651D01*
X141285250Y-161344419D01*
X141306074Y-161339203D01*
X141327309Y-161336053D01*
X141348750Y-161335000D01*
X141861250Y-161335000D01*
X141882691Y-161336053D01*
G37*
G36*
X141882691Y-162911053D02*
G01*
X141903926Y-162914203D01*
X141924750Y-162919419D01*
X141944962Y-162926651D01*
X141964368Y-162935830D01*
X141982781Y-162946866D01*
X142000024Y-162959654D01*
X142015930Y-162974070D01*
X142030346Y-162989976D01*
X142043134Y-163007219D01*
X142054170Y-163025632D01*
X142063349Y-163045038D01*
X142070581Y-163065250D01*
X142075797Y-163086074D01*
X142078947Y-163107309D01*
X142080000Y-163128750D01*
X142080000Y-163566250D01*
X142078947Y-163587691D01*
X142075797Y-163608926D01*
X142070581Y-163629750D01*
X142063349Y-163649962D01*
X142054170Y-163669368D01*
X142043134Y-163687781D01*
X142030346Y-163705024D01*
X142015930Y-163720930D01*
X142000024Y-163735346D01*
X141982781Y-163748134D01*
X141964368Y-163759170D01*
X141944962Y-163768349D01*
X141924750Y-163775581D01*
X141903926Y-163780797D01*
X141882691Y-163783947D01*
X141861250Y-163785000D01*
X141348750Y-163785000D01*
X141327309Y-163783947D01*
X141306074Y-163780797D01*
X141285250Y-163775581D01*
X141265038Y-163768349D01*
X141245632Y-163759170D01*
X141227219Y-163748134D01*
X141209976Y-163735346D01*
X141194070Y-163720930D01*
X141179654Y-163705024D01*
X141166866Y-163687781D01*
X141155830Y-163669368D01*
X141146651Y-163649962D01*
X141139419Y-163629750D01*
X141134203Y-163608926D01*
X141131053Y-163587691D01*
X141130000Y-163566250D01*
X141130000Y-163128750D01*
X141131053Y-163107309D01*
X141134203Y-163086074D01*
X141139419Y-163065250D01*
X141146651Y-163045038D01*
X141155830Y-163025632D01*
X141166866Y-163007219D01*
X141179654Y-162989976D01*
X141194070Y-162974070D01*
X141209976Y-162959654D01*
X141227219Y-162946866D01*
X141245632Y-162935830D01*
X141265038Y-162926651D01*
X141285250Y-162919419D01*
X141306074Y-162914203D01*
X141327309Y-162911053D01*
X141348750Y-162910000D01*
X141861250Y-162910000D01*
X141882691Y-162911053D01*
G37*
G36*
X143787691Y-161336053D02*
G01*
X143808926Y-161339203D01*
X143829750Y-161344419D01*
X143849962Y-161351651D01*
X143869368Y-161360830D01*
X143887781Y-161371866D01*
X143905024Y-161384654D01*
X143920930Y-161399070D01*
X143935346Y-161414976D01*
X143948134Y-161432219D01*
X143959170Y-161450632D01*
X143968349Y-161470038D01*
X143975581Y-161490250D01*
X143980797Y-161511074D01*
X143983947Y-161532309D01*
X143985000Y-161553750D01*
X143985000Y-161991250D01*
X143983947Y-162012691D01*
X143980797Y-162033926D01*
X143975581Y-162054750D01*
X143968349Y-162074962D01*
X143959170Y-162094368D01*
X143948134Y-162112781D01*
X143935346Y-162130024D01*
X143920930Y-162145930D01*
X143905024Y-162160346D01*
X143887781Y-162173134D01*
X143869368Y-162184170D01*
X143849962Y-162193349D01*
X143829750Y-162200581D01*
X143808926Y-162205797D01*
X143787691Y-162208947D01*
X143766250Y-162210000D01*
X143253750Y-162210000D01*
X143232309Y-162208947D01*
X143211074Y-162205797D01*
X143190250Y-162200581D01*
X143170038Y-162193349D01*
X143150632Y-162184170D01*
X143132219Y-162173134D01*
X143114976Y-162160346D01*
X143099070Y-162145930D01*
X143084654Y-162130024D01*
X143071866Y-162112781D01*
X143060830Y-162094368D01*
X143051651Y-162074962D01*
X143044419Y-162054750D01*
X143039203Y-162033926D01*
X143036053Y-162012691D01*
X143035000Y-161991250D01*
X143035000Y-161553750D01*
X143036053Y-161532309D01*
X143039203Y-161511074D01*
X143044419Y-161490250D01*
X143051651Y-161470038D01*
X143060830Y-161450632D01*
X143071866Y-161432219D01*
X143084654Y-161414976D01*
X143099070Y-161399070D01*
X143114976Y-161384654D01*
X143132219Y-161371866D01*
X143150632Y-161360830D01*
X143170038Y-161351651D01*
X143190250Y-161344419D01*
X143211074Y-161339203D01*
X143232309Y-161336053D01*
X143253750Y-161335000D01*
X143766250Y-161335000D01*
X143787691Y-161336053D01*
G37*
G36*
X143787691Y-162911053D02*
G01*
X143808926Y-162914203D01*
X143829750Y-162919419D01*
X143849962Y-162926651D01*
X143869368Y-162935830D01*
X143887781Y-162946866D01*
X143905024Y-162959654D01*
X143920930Y-162974070D01*
X143935346Y-162989976D01*
X143948134Y-163007219D01*
X143959170Y-163025632D01*
X143968349Y-163045038D01*
X143975581Y-163065250D01*
X143980797Y-163086074D01*
X143983947Y-163107309D01*
X143985000Y-163128750D01*
X143985000Y-163566250D01*
X143983947Y-163587691D01*
X143980797Y-163608926D01*
X143975581Y-163629750D01*
X143968349Y-163649962D01*
X143959170Y-163669368D01*
X143948134Y-163687781D01*
X143935346Y-163705024D01*
X143920930Y-163720930D01*
X143905024Y-163735346D01*
X143887781Y-163748134D01*
X143869368Y-163759170D01*
X143849962Y-163768349D01*
X143829750Y-163775581D01*
X143808926Y-163780797D01*
X143787691Y-163783947D01*
X143766250Y-163785000D01*
X143253750Y-163785000D01*
X143232309Y-163783947D01*
X143211074Y-163780797D01*
X143190250Y-163775581D01*
X143170038Y-163768349D01*
X143150632Y-163759170D01*
X143132219Y-163748134D01*
X143114976Y-163735346D01*
X143099070Y-163720930D01*
X143084654Y-163705024D01*
X143071866Y-163687781D01*
X143060830Y-163669368D01*
X143051651Y-163649962D01*
X143044419Y-163629750D01*
X143039203Y-163608926D01*
X143036053Y-163587691D01*
X143035000Y-163566250D01*
X143035000Y-163128750D01*
X143036053Y-163107309D01*
X143039203Y-163086074D01*
X143044419Y-163065250D01*
X143051651Y-163045038D01*
X143060830Y-163025632D01*
X143071866Y-163007219D01*
X143084654Y-162989976D01*
X143099070Y-162974070D01*
X143114976Y-162959654D01*
X143132219Y-162946866D01*
X143150632Y-162935830D01*
X143170038Y-162926651D01*
X143190250Y-162919419D01*
X143211074Y-162914203D01*
X143232309Y-162911053D01*
X143253750Y-162910000D01*
X143766250Y-162910000D01*
X143787691Y-162911053D01*
G37*
G36*
X147077691Y-169706053D02*
G01*
X147098926Y-169709203D01*
X147119750Y-169714419D01*
X147139962Y-169721651D01*
X147159368Y-169730830D01*
X147177781Y-169741866D01*
X147195024Y-169754654D01*
X147210930Y-169769070D01*
X147225346Y-169784976D01*
X147238134Y-169802219D01*
X147249170Y-169820632D01*
X147258349Y-169840038D01*
X147265581Y-169860250D01*
X147270797Y-169881074D01*
X147273947Y-169902309D01*
X147275000Y-169923750D01*
X147275000Y-170436250D01*
X147273947Y-170457691D01*
X147270797Y-170478926D01*
X147265581Y-170499750D01*
X147258349Y-170519962D01*
X147249170Y-170539368D01*
X147238134Y-170557781D01*
X147225346Y-170575024D01*
X147210930Y-170590930D01*
X147195024Y-170605346D01*
X147177781Y-170618134D01*
X147159368Y-170629170D01*
X147139962Y-170638349D01*
X147119750Y-170645581D01*
X147098926Y-170650797D01*
X147077691Y-170653947D01*
X147056250Y-170655000D01*
X146618750Y-170655000D01*
X146597309Y-170653947D01*
X146576074Y-170650797D01*
X146555250Y-170645581D01*
X146535038Y-170638349D01*
X146515632Y-170629170D01*
X146497219Y-170618134D01*
X146479976Y-170605346D01*
X146464070Y-170590930D01*
X146449654Y-170575024D01*
X146436866Y-170557781D01*
X146425830Y-170539368D01*
X146416651Y-170519962D01*
X146409419Y-170499750D01*
X146404203Y-170478926D01*
X146401053Y-170457691D01*
X146400000Y-170436250D01*
X146400000Y-169923750D01*
X146401053Y-169902309D01*
X146404203Y-169881074D01*
X146409419Y-169860250D01*
X146416651Y-169840038D01*
X146425830Y-169820632D01*
X146436866Y-169802219D01*
X146449654Y-169784976D01*
X146464070Y-169769070D01*
X146479976Y-169754654D01*
X146497219Y-169741866D01*
X146515632Y-169730830D01*
X146535038Y-169721651D01*
X146555250Y-169714419D01*
X146576074Y-169709203D01*
X146597309Y-169706053D01*
X146618750Y-169705000D01*
X147056250Y-169705000D01*
X147077691Y-169706053D01*
G37*
G36*
X145502691Y-169706053D02*
G01*
X145523926Y-169709203D01*
X145544750Y-169714419D01*
X145564962Y-169721651D01*
X145584368Y-169730830D01*
X145602781Y-169741866D01*
X145620024Y-169754654D01*
X145635930Y-169769070D01*
X145650346Y-169784976D01*
X145663134Y-169802219D01*
X145674170Y-169820632D01*
X145683349Y-169840038D01*
X145690581Y-169860250D01*
X145695797Y-169881074D01*
X145698947Y-169902309D01*
X145700000Y-169923750D01*
X145700000Y-170436250D01*
X145698947Y-170457691D01*
X145695797Y-170478926D01*
X145690581Y-170499750D01*
X145683349Y-170519962D01*
X145674170Y-170539368D01*
X145663134Y-170557781D01*
X145650346Y-170575024D01*
X145635930Y-170590930D01*
X145620024Y-170605346D01*
X145602781Y-170618134D01*
X145584368Y-170629170D01*
X145564962Y-170638349D01*
X145544750Y-170645581D01*
X145523926Y-170650797D01*
X145502691Y-170653947D01*
X145481250Y-170655000D01*
X145043750Y-170655000D01*
X145022309Y-170653947D01*
X145001074Y-170650797D01*
X144980250Y-170645581D01*
X144960038Y-170638349D01*
X144940632Y-170629170D01*
X144922219Y-170618134D01*
X144904976Y-170605346D01*
X144889070Y-170590930D01*
X144874654Y-170575024D01*
X144861866Y-170557781D01*
X144850830Y-170539368D01*
X144841651Y-170519962D01*
X144834419Y-170499750D01*
X144829203Y-170478926D01*
X144826053Y-170457691D01*
X144825000Y-170436250D01*
X144825000Y-169923750D01*
X144826053Y-169902309D01*
X144829203Y-169881074D01*
X144834419Y-169860250D01*
X144841651Y-169840038D01*
X144850830Y-169820632D01*
X144861866Y-169802219D01*
X144874654Y-169784976D01*
X144889070Y-169769070D01*
X144904976Y-169754654D01*
X144922219Y-169741866D01*
X144940632Y-169730830D01*
X144960038Y-169721651D01*
X144980250Y-169714419D01*
X145001074Y-169709203D01*
X145022309Y-169706053D01*
X145043750Y-169705000D01*
X145481250Y-169705000D01*
X145502691Y-169706053D01*
G37*
M02*
