%FSLAX45Y45*%
G04 Gerber Fmt 4.5, Leading zero omitted, Abs format (unit mm)*
G04 Created by KiCad (PCBNEW (5.1.5)-3) date 2020-02-08 22:35:04*
%MOMM*%
%LPD*%
G04 APERTURE LIST*
%ADD10C,0.200000*%
%ADD11C,0.300000*%
G04 APERTURE END LIST*
D10*
X8428990Y-18906490D02*
X8462010Y-18939510D01*
X8462010Y-18906490D02*
X8428990Y-18939510D01*
X8682990Y-15858490D02*
X8716010Y-15891510D01*
X8716010Y-15858490D02*
X8682990Y-15891510D01*
X8809990Y-11857990D02*
X8843010Y-11891010D01*
X8843010Y-11857990D02*
X8809990Y-11891010D01*
X8809990Y-13762990D02*
X8843010Y-13796010D01*
X8843010Y-13762990D02*
X8809990Y-13796010D01*
X8809990Y-13889990D02*
X8843010Y-13923010D01*
X8843010Y-13889990D02*
X8809990Y-13923010D01*
X9000490Y-12746990D02*
X9033510Y-12780010D01*
X9033510Y-12746990D02*
X9000490Y-12780010D01*
X9000490Y-15159990D02*
X9033510Y-15193010D01*
X9033510Y-15159990D02*
X9000490Y-15193010D01*
X9063990Y-18969990D02*
X9097010Y-19003010D01*
X9097010Y-18969990D02*
X9063990Y-19003010D01*
X9127490Y-10333990D02*
X9160510Y-10367010D01*
X9160510Y-10333990D02*
X9127490Y-10367010D01*
X9190990Y-15858490D02*
X9224010Y-15891510D01*
X9224010Y-15858490D02*
X9190990Y-15891510D01*
X9317990Y-18715990D02*
X9351010Y-18749010D01*
X9351010Y-18715990D02*
X9317990Y-18749010D01*
X9317990Y-18842990D02*
X9351010Y-18876010D01*
X9351010Y-18842990D02*
X9317990Y-18876010D01*
X9444990Y-9952990D02*
X9478010Y-9986010D01*
X9478010Y-9952990D02*
X9444990Y-9986010D01*
X9444990Y-11921490D02*
X9478010Y-11954510D01*
X9478010Y-11921490D02*
X9444990Y-11954510D01*
X9508490Y-15223490D02*
X9541510Y-15256510D01*
X9541510Y-15223490D02*
X9508490Y-15256510D01*
X9559290Y-12429490D02*
X9592310Y-12462510D01*
X9592310Y-12429490D02*
X9559290Y-12462510D01*
X9571990Y-11603990D02*
X9605010Y-11637010D01*
X9605010Y-11603990D02*
X9571990Y-11637010D01*
X9635490Y-8682990D02*
X9668510Y-8716010D01*
X9668510Y-8682990D02*
X9635490Y-8716010D01*
X9635490Y-8936990D02*
X9668510Y-8970010D01*
X9668510Y-8936990D02*
X9635490Y-8970010D01*
X9825990Y-14905990D02*
X9859010Y-14939010D01*
X9859010Y-14905990D02*
X9825990Y-14939010D01*
X9889490Y-15159990D02*
X9922510Y-15193010D01*
X9922510Y-15159990D02*
X9889490Y-15193010D01*
X9889490Y-16175990D02*
X9922510Y-16209010D01*
X9922510Y-16175990D02*
X9889490Y-16209010D01*
X10016490Y-10397490D02*
X10049510Y-10430510D01*
X10049510Y-10397490D02*
X10016490Y-10430510D01*
X10016490Y-10714990D02*
X10049510Y-10748010D01*
X10049510Y-10714990D02*
X10016490Y-10748010D01*
X10079990Y-11159490D02*
X10113010Y-11192510D01*
X10113010Y-11159490D02*
X10079990Y-11192510D01*
X10079990Y-12937490D02*
X10113010Y-12970510D01*
X10113010Y-12937490D02*
X10079990Y-12970510D01*
X10079990Y-13699490D02*
X10113010Y-13732510D01*
X10113010Y-13699490D02*
X10079990Y-13732510D01*
X10079990Y-16112490D02*
X10113010Y-16145510D01*
X10113010Y-16112490D02*
X10079990Y-16145510D01*
X10143490Y-9952990D02*
X10176510Y-9986010D01*
X10176510Y-9952990D02*
X10143490Y-9986010D01*
X10206990Y-9063990D02*
X10240010Y-9097010D01*
X10240010Y-9063990D02*
X10206990Y-9097010D01*
X10206990Y-10397490D02*
X10240010Y-10430510D01*
X10240010Y-10397490D02*
X10206990Y-10430510D01*
X10206990Y-12365990D02*
X10240010Y-12399010D01*
X10240010Y-12365990D02*
X10206990Y-12399010D01*
X10206990Y-19541490D02*
X10240010Y-19574510D01*
X10240010Y-19541490D02*
X10206990Y-19574510D01*
X10397490Y-4174490D02*
X10430510Y-4207510D01*
X10430510Y-4174490D02*
X10397490Y-4207510D01*
X10524490Y-11286490D02*
X10557510Y-11319510D01*
X10557510Y-11286490D02*
X10524490Y-11319510D01*
X10524490Y-13127990D02*
X10557510Y-13161010D01*
X10557510Y-13127990D02*
X10524490Y-13161010D01*
X10587990Y-5761990D02*
X10621010Y-5795010D01*
X10621010Y-5761990D02*
X10587990Y-5795010D01*
X10587990Y-7920990D02*
X10621010Y-7954010D01*
X10621010Y-7920990D02*
X10587990Y-7954010D01*
X10587990Y-13318490D02*
X10621010Y-13351510D01*
X10621010Y-13318490D02*
X10587990Y-13351510D01*
X10587990Y-14905990D02*
X10621010Y-14939010D01*
X10621010Y-14905990D02*
X10587990Y-14939010D01*
X10714990Y-9063990D02*
X10748010Y-9097010D01*
X10748010Y-9063990D02*
X10714990Y-9097010D01*
X10714990Y-9444990D02*
X10748010Y-9478010D01*
X10748010Y-9444990D02*
X10714990Y-9478010D01*
X10778490Y-7285990D02*
X10811510Y-7319010D01*
X10811510Y-7285990D02*
X10778490Y-7319010D01*
X10778490Y-9825990D02*
X10811510Y-9859010D01*
X10811510Y-9825990D02*
X10778490Y-9859010D01*
X10841990Y-10524490D02*
X10875010Y-10557510D01*
X10875010Y-10524490D02*
X10841990Y-10557510D01*
X10905490Y-5444490D02*
X10938510Y-5477510D01*
X10938510Y-5444490D02*
X10905490Y-5477510D01*
X10905490Y-12556490D02*
X10938510Y-12589510D01*
X10938510Y-12556490D02*
X10905490Y-12589510D01*
X10905490Y-12746990D02*
X10938510Y-12780010D01*
X10938510Y-12746990D02*
X10905490Y-12780010D01*
X11032490Y-8619490D02*
X11065510Y-8652510D01*
X11065510Y-8619490D02*
X11032490Y-8652510D01*
X11032490Y-11730990D02*
X11065510Y-11764010D01*
X11065510Y-11730990D02*
X11032490Y-11764010D01*
X11032490Y-14080490D02*
X11065510Y-14113510D01*
X11065510Y-14080490D02*
X11032490Y-14113510D01*
X11032490Y-14461490D02*
X11065510Y-14494510D01*
X11065510Y-14461490D02*
X11032490Y-14494510D01*
X11095990Y-9127490D02*
X11129010Y-9160510D01*
X11129010Y-9127490D02*
X11095990Y-9160510D01*
X11159490Y-3920490D02*
X11192510Y-3953510D01*
X11192510Y-3920490D02*
X11159490Y-3953510D01*
X11159490Y-8682990D02*
X11192510Y-8716010D01*
X11192510Y-8682990D02*
X11159490Y-8716010D01*
X11159490Y-8936990D02*
X11192510Y-8970010D01*
X11192510Y-8936990D02*
X11159490Y-8970010D01*
X11159490Y-12175490D02*
X11192510Y-12208510D01*
X11192510Y-12175490D02*
X11159490Y-12208510D01*
X11159490Y-13953490D02*
X11192510Y-13986510D01*
X11192510Y-13953490D02*
X11159490Y-13986510D01*
X11159490Y-14588490D02*
X11192510Y-14621510D01*
X11192510Y-14588490D02*
X11159490Y-14621510D01*
X11159490Y-15731490D02*
X11192510Y-15764510D01*
X11192510Y-15731490D02*
X11159490Y-15764510D01*
X11222990Y-8555990D02*
X11256010Y-8589010D01*
X11256010Y-8555990D02*
X11222990Y-8589010D01*
X11222990Y-9254490D02*
X11256010Y-9287510D01*
X11256010Y-9254490D02*
X11222990Y-9287510D01*
X11222990Y-9381490D02*
X11256010Y-9414510D01*
X11256010Y-9381490D02*
X11222990Y-9414510D01*
X11286490Y-13699490D02*
X11319510Y-13732510D01*
X11319510Y-13699490D02*
X11286490Y-13732510D01*
X11286490Y-15604490D02*
X11319510Y-15637510D01*
X11319510Y-15604490D02*
X11286490Y-15637510D01*
X11286490Y-15858490D02*
X11319510Y-15891510D01*
X11319510Y-15858490D02*
X11286490Y-15891510D01*
X11349990Y-8619490D02*
X11383010Y-8652510D01*
X11383010Y-8619490D02*
X11349990Y-8652510D01*
X11349990Y-9381490D02*
X11383010Y-9414510D01*
X11383010Y-9381490D02*
X11349990Y-9414510D01*
X11349990Y-10460990D02*
X11383010Y-10494010D01*
X11383010Y-10460990D02*
X11349990Y-10494010D01*
X11349990Y-15286990D02*
X11383010Y-15320010D01*
X11383010Y-15286990D02*
X11349990Y-15320010D01*
X11413490Y-6269990D02*
X11446510Y-6303010D01*
X11446510Y-6269990D02*
X11413490Y-6303010D01*
X11413490Y-14207490D02*
X11446510Y-14240510D01*
X11446510Y-14207490D02*
X11413490Y-14240510D01*
X11476990Y-8555990D02*
X11510010Y-8589010D01*
X11510010Y-8555990D02*
X11476990Y-8589010D01*
X11476990Y-9381490D02*
X11510010Y-9414510D01*
X11510010Y-9381490D02*
X11476990Y-9414510D01*
X11476990Y-15985490D02*
X11510010Y-16018510D01*
X11510010Y-15985490D02*
X11476990Y-16018510D01*
X11476990Y-16302990D02*
X11510010Y-16336010D01*
X11510010Y-16302990D02*
X11476990Y-16336010D01*
X11603990Y-3666490D02*
X11637010Y-3699510D01*
X11637010Y-3666490D02*
X11603990Y-3699510D01*
X11603990Y-5761990D02*
X11637010Y-5795010D01*
X11637010Y-5761990D02*
X11603990Y-5795010D01*
X11603990Y-9635490D02*
X11637010Y-9668510D01*
X11637010Y-9635490D02*
X11603990Y-9668510D01*
X11603990Y-9762490D02*
X11637010Y-9795510D01*
X11637010Y-9762490D02*
X11603990Y-9795510D01*
X11603990Y-14397990D02*
X11637010Y-14431010D01*
X11637010Y-14397990D02*
X11603990Y-14431010D01*
X11730990Y-8492490D02*
X11764010Y-8525510D01*
X11764010Y-8492490D02*
X11730990Y-8525510D01*
X11730990Y-13127990D02*
X11764010Y-13161010D01*
X11764010Y-13127990D02*
X11730990Y-13161010D01*
X11730990Y-15731490D02*
X11764010Y-15764510D01*
X11764010Y-15731490D02*
X11730990Y-15764510D01*
X11794490Y-8365490D02*
X11827510Y-8398510D01*
X11827510Y-8365490D02*
X11794490Y-8398510D01*
X11794490Y-16302990D02*
X11827510Y-16336010D01*
X11827510Y-16302990D02*
X11794490Y-16336010D01*
X11857990Y-13508990D02*
X11891010Y-13542010D01*
X11891010Y-13508990D02*
X11857990Y-13542010D01*
X11857990Y-14143990D02*
X11891010Y-14177010D01*
X11891010Y-14143990D02*
X11857990Y-14177010D01*
X11857990Y-15731490D02*
X11891010Y-15764510D01*
X11891010Y-15731490D02*
X11857990Y-15764510D01*
X11921490Y-8174990D02*
X11954510Y-8208010D01*
X11954510Y-8174990D02*
X11921490Y-8208010D01*
X11921490Y-10143490D02*
X11954510Y-10176510D01*
X11954510Y-10143490D02*
X11921490Y-10176510D01*
X11921490Y-16556990D02*
X11954510Y-16590010D01*
X11954510Y-16556990D02*
X11921490Y-16590010D01*
X11984990Y-5507990D02*
X12018010Y-5541010D01*
X12018010Y-5507990D02*
X11984990Y-5541010D01*
X11984990Y-8238490D02*
X12018010Y-8271510D01*
X12018010Y-8238490D02*
X11984990Y-8271510D01*
X11984990Y-9000490D02*
X12018010Y-9033510D01*
X12018010Y-9000490D02*
X11984990Y-9033510D01*
X11984990Y-9127490D02*
X12018010Y-9160510D01*
X12018010Y-9127490D02*
X11984990Y-9160510D01*
X11984990Y-15731490D02*
X12018010Y-15764510D01*
X12018010Y-15731490D02*
X11984990Y-15764510D01*
X12048490Y-3475990D02*
X12081510Y-3509010D01*
X12081510Y-3475990D02*
X12048490Y-3509010D01*
X12048490Y-8301990D02*
X12081510Y-8335010D01*
X12081510Y-8301990D02*
X12048490Y-8335010D01*
X12048490Y-8428990D02*
X12081510Y-8462010D01*
X12081510Y-8428990D02*
X12048490Y-8462010D01*
X12048490Y-9889490D02*
X12081510Y-9922510D01*
X12081510Y-9889490D02*
X12048490Y-9922510D01*
X12048490Y-11794490D02*
X12081510Y-11827510D01*
X12081510Y-11794490D02*
X12048490Y-11827510D01*
X12111990Y-5063490D02*
X12145010Y-5096510D01*
X12145010Y-5063490D02*
X12111990Y-5096510D01*
X12111990Y-9000490D02*
X12145010Y-9033510D01*
X12145010Y-9000490D02*
X12111990Y-9033510D01*
X12111990Y-9127490D02*
X12145010Y-9160510D01*
X12145010Y-9127490D02*
X12111990Y-9160510D01*
X12111990Y-10143490D02*
X12145010Y-10176510D01*
X12145010Y-10143490D02*
X12111990Y-10176510D01*
X12111990Y-12048490D02*
X12145010Y-12081510D01*
X12145010Y-12048490D02*
X12111990Y-12081510D01*
X12111990Y-15858490D02*
X12145010Y-15891510D01*
X12145010Y-15858490D02*
X12111990Y-15891510D01*
X12302490Y-8174990D02*
X12335510Y-8208010D01*
X12335510Y-8174990D02*
X12302490Y-8208010D01*
X12302490Y-8301990D02*
X12335510Y-8335010D01*
X12335510Y-8301990D02*
X12302490Y-8335010D01*
X12365990Y-8365490D02*
X12399010Y-8398510D01*
X12399010Y-8365490D02*
X12365990Y-8398510D01*
X12365990Y-9698990D02*
X12399010Y-9732010D01*
X12399010Y-9698990D02*
X12365990Y-9732010D01*
X12365990Y-9825990D02*
X12399010Y-9859010D01*
X12399010Y-9825990D02*
X12365990Y-9859010D01*
X12365990Y-14778990D02*
X12399010Y-14812010D01*
X12399010Y-14778990D02*
X12365990Y-14812010D01*
X12429490Y-8428990D02*
X12462510Y-8462010D01*
X12462510Y-8428990D02*
X12429490Y-8462010D01*
X12429490Y-13889990D02*
X12462510Y-13923010D01*
X12462510Y-13889990D02*
X12429490Y-13923010D01*
X12429490Y-15350490D02*
X12462510Y-15383510D01*
X12462510Y-15350490D02*
X12429490Y-15383510D01*
X12429490Y-15604490D02*
X12462510Y-15637510D01*
X12462510Y-15604490D02*
X12429490Y-15637510D01*
X12429490Y-15731490D02*
X12462510Y-15764510D01*
X12462510Y-15731490D02*
X12429490Y-15764510D01*
X12429490Y-15858490D02*
X12462510Y-15891510D01*
X12462510Y-15858490D02*
X12429490Y-15891510D01*
X12492990Y-4682490D02*
X12526010Y-4715510D01*
X12526010Y-4682490D02*
X12492990Y-4715510D01*
X12492990Y-16556990D02*
X12526010Y-16590010D01*
X12526010Y-16556990D02*
X12492990Y-16590010D01*
X12556490Y-6079490D02*
X12589510Y-6112510D01*
X12589510Y-6079490D02*
X12556490Y-6112510D01*
X12619990Y-9381490D02*
X12653010Y-9414510D01*
X12653010Y-9381490D02*
X12619990Y-9414510D01*
X12619990Y-16429990D02*
X12653010Y-16463010D01*
X12653010Y-16429990D02*
X12619990Y-16463010D01*
X12619990Y-16683990D02*
X12653010Y-16717010D01*
X12653010Y-16683990D02*
X12619990Y-16717010D01*
X12683490Y-8428990D02*
X12716510Y-8462010D01*
X12716510Y-8428990D02*
X12683490Y-8462010D01*
X12746990Y-9381490D02*
X12780010Y-9414510D01*
X12780010Y-9381490D02*
X12746990Y-9414510D01*
X12746990Y-9508490D02*
X12780010Y-9541510D01*
X12780010Y-9508490D02*
X12746990Y-9541510D01*
X12746990Y-11667490D02*
X12780010Y-11700510D01*
X12780010Y-11667490D02*
X12746990Y-11700510D01*
X12746990Y-16556990D02*
X12780010Y-16590010D01*
X12780010Y-16556990D02*
X12746990Y-16590010D01*
X12810490Y-10778490D02*
X12843510Y-10811510D01*
X12843510Y-10778490D02*
X12810490Y-10811510D01*
X12810490Y-15794990D02*
X12843510Y-15828010D01*
X12843510Y-15794990D02*
X12810490Y-15828010D01*
X12873990Y-5317490D02*
X12907010Y-5350510D01*
X12907010Y-5317490D02*
X12873990Y-5350510D01*
X12873990Y-8428990D02*
X12907010Y-8462010D01*
X12907010Y-8428990D02*
X12873990Y-8462010D01*
X12873990Y-9000490D02*
X12907010Y-9033510D01*
X12907010Y-9000490D02*
X12873990Y-9033510D01*
X12873990Y-9317990D02*
X12907010Y-9351010D01*
X12907010Y-9317990D02*
X12873990Y-9351010D01*
X12873990Y-12429490D02*
X12907010Y-12462510D01*
X12907010Y-12429490D02*
X12873990Y-12462510D01*
X12937490Y-4682490D02*
X12970510Y-4715510D01*
X12970510Y-4682490D02*
X12937490Y-4715510D01*
X13000990Y-3983990D02*
X13034010Y-4017010D01*
X13034010Y-3983990D02*
X13000990Y-4017010D01*
X13000990Y-8428990D02*
X13034010Y-8462010D01*
X13034010Y-8428990D02*
X13000990Y-8462010D01*
X13000990Y-9889490D02*
X13034010Y-9922510D01*
X13034010Y-9889490D02*
X13000990Y-9922510D01*
X13000990Y-16069924D02*
X13034010Y-16102944D01*
X13034010Y-16069924D02*
X13000990Y-16102944D01*
X13064490Y-8301990D02*
X13097510Y-8335010D01*
X13097510Y-8301990D02*
X13064490Y-8335010D01*
X13064490Y-15032990D02*
X13097510Y-15066010D01*
X13097510Y-15032990D02*
X13064490Y-15066010D01*
X13127990Y-8428990D02*
X13161010Y-8462010D01*
X13161010Y-8428990D02*
X13127990Y-8462010D01*
X13127990Y-8619490D02*
X13161010Y-8652510D01*
X13161010Y-8619490D02*
X13127990Y-8652510D01*
X13191490Y-6777990D02*
X13224510Y-6811010D01*
X13224510Y-6777990D02*
X13191490Y-6811010D01*
X13191490Y-15540990D02*
X13224510Y-15574010D01*
X13224510Y-15540990D02*
X13191490Y-15574010D01*
X13191490Y-15731490D02*
X13224510Y-15764510D01*
X13224510Y-15731490D02*
X13191490Y-15764510D01*
X13254990Y-7984490D02*
X13288010Y-8017510D01*
X13288010Y-7984490D02*
X13254990Y-8017510D01*
X13318490Y-15858490D02*
X13351510Y-15891510D01*
X13351510Y-15858490D02*
X13318490Y-15891510D01*
X13445490Y-9127490D02*
X13478510Y-9160510D01*
X13478510Y-9127490D02*
X13445490Y-9160510D01*
X13445490Y-14397990D02*
X13478510Y-14431010D01*
X13478510Y-14397990D02*
X13445490Y-14431010D01*
X13572490Y-16239490D02*
X13605510Y-16272510D01*
X13605510Y-16239490D02*
X13572490Y-16272510D01*
X13635990Y-7476490D02*
X13669010Y-7509510D01*
X13669010Y-7476490D02*
X13635990Y-7509510D01*
X13635990Y-15159990D02*
X13669010Y-15193010D01*
X13669010Y-15159990D02*
X13635990Y-15193010D01*
X13635990Y-15604490D02*
X13669010Y-15637510D01*
X13669010Y-15604490D02*
X13635990Y-15637510D01*
X13635990Y-15858490D02*
X13669010Y-15891510D01*
X13669010Y-15858490D02*
X13635990Y-15891510D01*
X13699490Y-8555990D02*
X13732510Y-8589010D01*
X13732510Y-8555990D02*
X13699490Y-8589010D01*
X13826490Y-15985490D02*
X13859510Y-16018510D01*
X13859510Y-15985490D02*
X13826490Y-16018510D01*
X13889990Y-6650990D02*
X13923010Y-6684010D01*
X13923010Y-6650990D02*
X13889990Y-6684010D01*
X13889990Y-7666990D02*
X13923010Y-7700010D01*
X13923010Y-7666990D02*
X13889990Y-7700010D01*
X13953490Y-16302990D02*
X13986510Y-16336010D01*
X13986510Y-16302990D02*
X13953490Y-16336010D01*
X14143990Y-16048990D02*
X14177010Y-16082010D01*
X14177010Y-16048990D02*
X14143990Y-16082010D01*
X14207490Y-3285490D02*
X14240510Y-3318510D01*
X14240510Y-3285490D02*
X14207490Y-3318510D01*
X14207490Y-15540990D02*
X14240510Y-15574010D01*
X14240510Y-15540990D02*
X14207490Y-15574010D01*
X14207490Y-15794990D02*
X14240510Y-15828010D01*
X14240510Y-15794990D02*
X14207490Y-15828010D01*
X14334490Y-16048990D02*
X14367510Y-16082010D01*
X14367510Y-16048990D02*
X14334490Y-16082010D01*
X14347190Y-5380990D02*
X14380210Y-5414010D01*
X14380210Y-5380990D02*
X14347190Y-5414010D01*
X14524990Y-12048490D02*
X14558010Y-12081510D01*
X14558010Y-12048490D02*
X14524990Y-12081510D01*
X14715490Y-16429990D02*
X14748510Y-16463010D01*
X14748510Y-16429990D02*
X14715490Y-16463010D01*
X14778990Y-4174490D02*
X14812010Y-4207510D01*
X14812010Y-4174490D02*
X14778990Y-4207510D01*
X14842490Y-19414490D02*
X14875510Y-19447510D01*
X14875510Y-19414490D02*
X14842490Y-19447510D01*
X14905990Y-12429490D02*
X14939010Y-12462510D01*
X14939010Y-12429490D02*
X14905990Y-12462510D01*
X14969490Y-16112490D02*
X15002510Y-16145510D01*
X15002510Y-16112490D02*
X14969490Y-16145510D01*
X15032990Y-14016990D02*
X15066010Y-14050010D01*
X15066010Y-14016990D02*
X15032990Y-14050010D01*
X15159990Y-4491990D02*
X15193010Y-4525010D01*
X15193010Y-4491990D02*
X15159990Y-4525010D01*
X15350490Y-16556990D02*
X15383510Y-16590010D01*
X15383510Y-16556990D02*
X15350490Y-16590010D01*
X15540990Y-19350990D02*
X15574010Y-19384010D01*
X15574010Y-19350990D02*
X15540990Y-19384010D01*
X15667990Y-16175990D02*
X15701010Y-16209010D01*
X15701010Y-16175990D02*
X15667990Y-16209010D01*
X15667990Y-17001490D02*
X15701010Y-17034510D01*
X15701010Y-17001490D02*
X15667990Y-17034510D01*
X15468600Y-17317720D02*
G75*
G03X15468600Y-17317720I-50800J0D01*
G01*
X15468600Y-18816320D02*
G75*
G03X15468600Y-18816320I-50800J0D01*
G01*
X9702800Y-18986500D02*
G75*
G03X9702800Y-18986500I-50800J0D01*
G01*
X9702800Y-19240500D02*
G75*
G03X9702800Y-19240500I-50800J0D01*
G01*
X9702800Y-19494500D02*
G75*
G03X9702800Y-19494500I-50800J0D01*
G01*
D11*
X8208009Y-20134218D02*
X8208009Y-19834218D01*
X8279437Y-19834218D01*
X8322295Y-19848504D01*
X8350866Y-19877076D01*
X8365152Y-19905647D01*
X8379437Y-19962790D01*
X8379437Y-20005647D01*
X8365152Y-20062790D01*
X8350866Y-20091361D01*
X8322295Y-20119933D01*
X8279437Y-20134218D01*
X8208009Y-20134218D01*
X8508009Y-20134218D02*
X8508009Y-19934218D01*
X8508009Y-19991361D02*
X8522295Y-19962790D01*
X8536580Y-19948504D01*
X8565152Y-19934218D01*
X8593723Y-19934218D01*
X8693723Y-20134218D02*
X8693723Y-19934218D01*
X8693723Y-19834218D02*
X8679438Y-19848504D01*
X8693723Y-19862790D01*
X8708009Y-19848504D01*
X8693723Y-19834218D01*
X8693723Y-19862790D01*
X8879438Y-20134218D02*
X8850866Y-20119933D01*
X8836580Y-20091361D01*
X8836580Y-19834218D01*
X9036580Y-20134218D02*
X9008009Y-20119933D01*
X8993723Y-20091361D01*
X8993723Y-19834218D01*
X9379438Y-20134218D02*
X9379438Y-19834218D01*
X9479438Y-20048504D01*
X9579438Y-19834218D01*
X9579438Y-20134218D01*
X9850866Y-20134218D02*
X9850866Y-19977076D01*
X9836580Y-19948504D01*
X9808009Y-19934218D01*
X9750866Y-19934218D01*
X9722295Y-19948504D01*
X9850866Y-20119933D02*
X9822295Y-20134218D01*
X9750866Y-20134218D01*
X9722295Y-20119933D01*
X9708009Y-20091361D01*
X9708009Y-20062790D01*
X9722295Y-20034218D01*
X9750866Y-20019933D01*
X9822295Y-20019933D01*
X9850866Y-20005647D01*
X9993723Y-19934218D02*
X9993723Y-20234218D01*
X9993723Y-19948504D02*
X10022295Y-19934218D01*
X10079438Y-19934218D01*
X10108009Y-19948504D01*
X10122295Y-19962790D01*
X10136580Y-19991361D01*
X10136580Y-20077076D01*
X10122295Y-20105647D01*
X10108009Y-20119933D01*
X10079438Y-20134218D01*
X10022295Y-20134218D01*
X9993723Y-20119933D01*
X10265152Y-20105647D02*
X10279438Y-20119933D01*
X10265152Y-20134218D01*
X10250866Y-20119933D01*
X10265152Y-20105647D01*
X10265152Y-20134218D01*
X10265152Y-19948504D02*
X10279438Y-19962790D01*
X10265152Y-19977076D01*
X10250866Y-19962790D01*
X10265152Y-19948504D01*
X10265152Y-19977076D01*
X7888560Y-20611994D02*
X7921580Y-20645014D01*
X7921580Y-20611994D02*
X7888560Y-20645014D01*
X8265152Y-20464218D02*
X8293723Y-20464218D01*
X8322295Y-20478504D01*
X8336580Y-20492790D01*
X8350866Y-20521361D01*
X8365152Y-20578504D01*
X8365152Y-20649933D01*
X8350866Y-20707076D01*
X8336580Y-20735647D01*
X8322295Y-20749933D01*
X8293723Y-20764218D01*
X8265152Y-20764218D01*
X8236580Y-20749933D01*
X8222295Y-20735647D01*
X8208009Y-20707076D01*
X8193723Y-20649933D01*
X8193723Y-20578504D01*
X8208009Y-20521361D01*
X8222295Y-20492790D01*
X8236580Y-20478504D01*
X8265152Y-20464218D01*
X8493723Y-20735647D02*
X8508009Y-20749933D01*
X8493723Y-20764218D01*
X8479438Y-20749933D01*
X8493723Y-20735647D01*
X8493723Y-20764218D01*
X8608009Y-20464218D02*
X8793723Y-20464218D01*
X8693723Y-20578504D01*
X8736580Y-20578504D01*
X8765152Y-20592790D01*
X8779438Y-20607076D01*
X8793723Y-20635647D01*
X8793723Y-20707076D01*
X8779438Y-20735647D01*
X8765152Y-20749933D01*
X8736580Y-20764218D01*
X8650866Y-20764218D01*
X8622295Y-20749933D01*
X8608009Y-20735647D01*
X8893723Y-20464218D02*
X9079438Y-20464218D01*
X8979438Y-20578504D01*
X9022295Y-20578504D01*
X9050866Y-20592790D01*
X9065152Y-20607076D01*
X9079438Y-20635647D01*
X9079438Y-20707076D01*
X9065152Y-20735647D01*
X9050866Y-20749933D01*
X9022295Y-20764218D01*
X8936580Y-20764218D01*
X8908009Y-20749933D01*
X8893723Y-20735647D01*
X9208009Y-20764218D02*
X9208009Y-20564218D01*
X9208009Y-20592790D02*
X9222295Y-20578504D01*
X9250866Y-20564218D01*
X9293723Y-20564218D01*
X9322295Y-20578504D01*
X9336580Y-20607076D01*
X9336580Y-20764218D01*
X9336580Y-20607076D02*
X9350866Y-20578504D01*
X9379438Y-20564218D01*
X9422295Y-20564218D01*
X9450866Y-20578504D01*
X9465152Y-20607076D01*
X9465152Y-20764218D01*
X9608009Y-20764218D02*
X9608009Y-20564218D01*
X9608009Y-20592790D02*
X9622295Y-20578504D01*
X9650866Y-20564218D01*
X9693723Y-20564218D01*
X9722295Y-20578504D01*
X9736580Y-20607076D01*
X9736580Y-20764218D01*
X9736580Y-20607076D02*
X9750866Y-20578504D01*
X9779438Y-20564218D01*
X9822295Y-20564218D01*
X9850866Y-20578504D01*
X9865152Y-20607076D01*
X9865152Y-20764218D01*
X10450866Y-20449933D02*
X10193723Y-20835647D01*
X10836580Y-20464218D02*
X10865152Y-20464218D01*
X10893723Y-20478504D01*
X10908009Y-20492790D01*
X10922295Y-20521361D01*
X10936580Y-20578504D01*
X10936580Y-20649933D01*
X10922295Y-20707076D01*
X10908009Y-20735647D01*
X10893723Y-20749933D01*
X10865152Y-20764218D01*
X10836580Y-20764218D01*
X10808009Y-20749933D01*
X10793723Y-20735647D01*
X10779438Y-20707076D01*
X10765152Y-20649933D01*
X10765152Y-20578504D01*
X10779438Y-20521361D01*
X10793723Y-20492790D01*
X10808009Y-20478504D01*
X10836580Y-20464218D01*
X11065152Y-20735647D02*
X11079438Y-20749933D01*
X11065152Y-20764218D01*
X11050866Y-20749933D01*
X11065152Y-20735647D01*
X11065152Y-20764218D01*
X11265152Y-20464218D02*
X11293723Y-20464218D01*
X11322295Y-20478504D01*
X11336580Y-20492790D01*
X11350866Y-20521361D01*
X11365152Y-20578504D01*
X11365152Y-20649933D01*
X11350866Y-20707076D01*
X11336580Y-20735647D01*
X11322295Y-20749933D01*
X11293723Y-20764218D01*
X11265152Y-20764218D01*
X11236580Y-20749933D01*
X11222295Y-20735647D01*
X11208009Y-20707076D01*
X11193723Y-20649933D01*
X11193723Y-20578504D01*
X11208009Y-20521361D01*
X11222295Y-20492790D01*
X11236580Y-20478504D01*
X11265152Y-20464218D01*
X11650866Y-20764218D02*
X11479437Y-20764218D01*
X11565152Y-20764218D02*
X11565152Y-20464218D01*
X11536580Y-20507076D01*
X11508009Y-20535647D01*
X11479437Y-20549933D01*
X11750866Y-20464218D02*
X11936580Y-20464218D01*
X11836580Y-20578504D01*
X11879437Y-20578504D01*
X11908009Y-20592790D01*
X11922295Y-20607076D01*
X11936580Y-20635647D01*
X11936580Y-20707076D01*
X11922295Y-20735647D01*
X11908009Y-20749933D01*
X11879437Y-20764218D01*
X11793723Y-20764218D01*
X11765152Y-20749933D01*
X11750866Y-20735647D01*
X12050866Y-20464218D02*
X12050866Y-20521361D01*
X12165152Y-20464218D02*
X12165152Y-20521361D01*
X12608009Y-20878504D02*
X12593723Y-20864218D01*
X12565152Y-20821361D01*
X12550866Y-20792790D01*
X12536580Y-20749933D01*
X12522295Y-20678504D01*
X12522295Y-20621361D01*
X12536580Y-20549933D01*
X12550866Y-20507076D01*
X12565152Y-20478504D01*
X12593723Y-20435647D01*
X12608009Y-20421361D01*
X12879437Y-20764218D02*
X12708009Y-20764218D01*
X12793723Y-20764218D02*
X12793723Y-20464218D01*
X12765152Y-20507076D01*
X12736580Y-20535647D01*
X12708009Y-20549933D01*
X13050866Y-20592790D02*
X13022295Y-20578504D01*
X13008009Y-20564218D01*
X12993723Y-20535647D01*
X12993723Y-20521361D01*
X13008009Y-20492790D01*
X13022295Y-20478504D01*
X13050866Y-20464218D01*
X13108009Y-20464218D01*
X13136580Y-20478504D01*
X13150866Y-20492790D01*
X13165152Y-20521361D01*
X13165152Y-20535647D01*
X13150866Y-20564218D01*
X13136580Y-20578504D01*
X13108009Y-20592790D01*
X13050866Y-20592790D01*
X13022295Y-20607076D01*
X13008009Y-20621361D01*
X12993723Y-20649933D01*
X12993723Y-20707076D01*
X13008009Y-20735647D01*
X13022295Y-20749933D01*
X13050866Y-20764218D01*
X13108009Y-20764218D01*
X13136580Y-20749933D01*
X13150866Y-20735647D01*
X13165152Y-20707076D01*
X13165152Y-20649933D01*
X13150866Y-20621361D01*
X13136580Y-20607076D01*
X13108009Y-20592790D01*
X13279437Y-20492790D02*
X13293723Y-20478504D01*
X13322295Y-20464218D01*
X13393723Y-20464218D01*
X13422295Y-20478504D01*
X13436580Y-20492790D01*
X13450866Y-20521361D01*
X13450866Y-20549933D01*
X13436580Y-20592790D01*
X13265152Y-20764218D01*
X13450866Y-20764218D01*
X13808009Y-20764218D02*
X13808009Y-20464218D01*
X13936580Y-20764218D02*
X13936580Y-20607076D01*
X13922295Y-20578504D01*
X13893723Y-20564218D01*
X13850866Y-20564218D01*
X13822295Y-20578504D01*
X13808009Y-20592790D01*
X14122295Y-20764218D02*
X14093723Y-20749933D01*
X14079437Y-20735647D01*
X14065152Y-20707076D01*
X14065152Y-20621361D01*
X14079437Y-20592790D01*
X14093723Y-20578504D01*
X14122295Y-20564218D01*
X14165152Y-20564218D01*
X14193723Y-20578504D01*
X14208009Y-20592790D01*
X14222295Y-20621361D01*
X14222295Y-20707076D01*
X14208009Y-20735647D01*
X14193723Y-20749933D01*
X14165152Y-20764218D01*
X14122295Y-20764218D01*
X14393723Y-20764218D02*
X14365152Y-20749933D01*
X14350866Y-20721361D01*
X14350866Y-20464218D01*
X14622295Y-20749933D02*
X14593723Y-20764218D01*
X14536580Y-20764218D01*
X14508009Y-20749933D01*
X14493723Y-20721361D01*
X14493723Y-20607076D01*
X14508009Y-20578504D01*
X14536580Y-20564218D01*
X14593723Y-20564218D01*
X14622295Y-20578504D01*
X14636580Y-20607076D01*
X14636580Y-20635647D01*
X14493723Y-20664218D01*
X14750866Y-20749933D02*
X14779437Y-20764218D01*
X14836580Y-20764218D01*
X14865152Y-20749933D01*
X14879437Y-20721361D01*
X14879437Y-20707076D01*
X14865152Y-20678504D01*
X14836580Y-20664218D01*
X14793723Y-20664218D01*
X14765152Y-20649933D01*
X14750866Y-20621361D01*
X14750866Y-20607076D01*
X14765152Y-20578504D01*
X14793723Y-20564218D01*
X14836580Y-20564218D01*
X14865152Y-20578504D01*
X14979437Y-20878504D02*
X14993723Y-20864218D01*
X15022295Y-20821361D01*
X15036580Y-20792790D01*
X15050866Y-20749933D01*
X15065152Y-20678504D01*
X15065152Y-20621361D01*
X15050866Y-20549933D01*
X15036580Y-20507076D01*
X15022295Y-20478504D01*
X14993723Y-20435647D01*
X14979437Y-20421361D01*
X7921580Y-21024504D02*
G75*
G03X7921580Y-21024504I-50800J0D01*
G01*
X8365152Y-21160218D02*
X8193723Y-21160218D01*
X8279437Y-21160218D02*
X8279437Y-20860218D01*
X8250866Y-20903076D01*
X8222295Y-20931647D01*
X8193723Y-20945933D01*
X8493723Y-21131647D02*
X8508009Y-21145933D01*
X8493723Y-21160218D01*
X8479438Y-21145933D01*
X8493723Y-21131647D01*
X8493723Y-21160218D01*
X8693723Y-20860218D02*
X8722295Y-20860218D01*
X8750866Y-20874504D01*
X8765152Y-20888790D01*
X8779438Y-20917361D01*
X8793723Y-20974504D01*
X8793723Y-21045933D01*
X8779438Y-21103076D01*
X8765152Y-21131647D01*
X8750866Y-21145933D01*
X8722295Y-21160218D01*
X8693723Y-21160218D01*
X8665152Y-21145933D01*
X8650866Y-21131647D01*
X8636580Y-21103076D01*
X8622295Y-21045933D01*
X8622295Y-20974504D01*
X8636580Y-20917361D01*
X8650866Y-20888790D01*
X8665152Y-20874504D01*
X8693723Y-20860218D01*
X8908009Y-20888790D02*
X8922295Y-20874504D01*
X8950866Y-20860218D01*
X9022295Y-20860218D01*
X9050866Y-20874504D01*
X9065152Y-20888790D01*
X9079438Y-20917361D01*
X9079438Y-20945933D01*
X9065152Y-20988790D01*
X8893723Y-21160218D01*
X9079438Y-21160218D01*
X9208009Y-21160218D02*
X9208009Y-20960218D01*
X9208009Y-20988790D02*
X9222295Y-20974504D01*
X9250866Y-20960218D01*
X9293723Y-20960218D01*
X9322295Y-20974504D01*
X9336580Y-21003076D01*
X9336580Y-21160218D01*
X9336580Y-21003076D02*
X9350866Y-20974504D01*
X9379438Y-20960218D01*
X9422295Y-20960218D01*
X9450866Y-20974504D01*
X9465152Y-21003076D01*
X9465152Y-21160218D01*
X9608009Y-21160218D02*
X9608009Y-20960218D01*
X9608009Y-20988790D02*
X9622295Y-20974504D01*
X9650866Y-20960218D01*
X9693723Y-20960218D01*
X9722295Y-20974504D01*
X9736580Y-21003076D01*
X9736580Y-21160218D01*
X9736580Y-21003076D02*
X9750866Y-20974504D01*
X9779438Y-20960218D01*
X9822295Y-20960218D01*
X9850866Y-20974504D01*
X9865152Y-21003076D01*
X9865152Y-21160218D01*
X10450866Y-20845933D02*
X10193723Y-21231647D01*
X10836580Y-20860218D02*
X10865152Y-20860218D01*
X10893723Y-20874504D01*
X10908009Y-20888790D01*
X10922295Y-20917361D01*
X10936580Y-20974504D01*
X10936580Y-21045933D01*
X10922295Y-21103076D01*
X10908009Y-21131647D01*
X10893723Y-21145933D01*
X10865152Y-21160218D01*
X10836580Y-21160218D01*
X10808009Y-21145933D01*
X10793723Y-21131647D01*
X10779438Y-21103076D01*
X10765152Y-21045933D01*
X10765152Y-20974504D01*
X10779438Y-20917361D01*
X10793723Y-20888790D01*
X10808009Y-20874504D01*
X10836580Y-20860218D01*
X11065152Y-21131647D02*
X11079438Y-21145933D01*
X11065152Y-21160218D01*
X11050866Y-21145933D01*
X11065152Y-21131647D01*
X11065152Y-21160218D01*
X11265152Y-20860218D02*
X11293723Y-20860218D01*
X11322295Y-20874504D01*
X11336580Y-20888790D01*
X11350866Y-20917361D01*
X11365152Y-20974504D01*
X11365152Y-21045933D01*
X11350866Y-21103076D01*
X11336580Y-21131647D01*
X11322295Y-21145933D01*
X11293723Y-21160218D01*
X11265152Y-21160218D01*
X11236580Y-21145933D01*
X11222295Y-21131647D01*
X11208009Y-21103076D01*
X11193723Y-21045933D01*
X11193723Y-20974504D01*
X11208009Y-20917361D01*
X11222295Y-20888790D01*
X11236580Y-20874504D01*
X11265152Y-20860218D01*
X11622295Y-20960218D02*
X11622295Y-21160218D01*
X11550866Y-20845933D02*
X11479437Y-21060218D01*
X11665152Y-21060218D01*
X11836580Y-20860218D02*
X11865152Y-20860218D01*
X11893723Y-20874504D01*
X11908009Y-20888790D01*
X11922295Y-20917361D01*
X11936580Y-20974504D01*
X11936580Y-21045933D01*
X11922295Y-21103076D01*
X11908009Y-21131647D01*
X11893723Y-21145933D01*
X11865152Y-21160218D01*
X11836580Y-21160218D01*
X11808009Y-21145933D01*
X11793723Y-21131647D01*
X11779437Y-21103076D01*
X11765152Y-21045933D01*
X11765152Y-20974504D01*
X11779437Y-20917361D01*
X11793723Y-20888790D01*
X11808009Y-20874504D01*
X11836580Y-20860218D01*
X12050866Y-20860218D02*
X12050866Y-20917361D01*
X12165152Y-20860218D02*
X12165152Y-20917361D01*
X12608009Y-21274504D02*
X12593723Y-21260218D01*
X12565152Y-21217361D01*
X12550866Y-21188790D01*
X12536580Y-21145933D01*
X12522295Y-21074504D01*
X12522295Y-21017361D01*
X12536580Y-20945933D01*
X12550866Y-20903076D01*
X12565152Y-20874504D01*
X12593723Y-20831647D01*
X12608009Y-20817361D01*
X12865152Y-20860218D02*
X12722295Y-20860218D01*
X12708009Y-21003076D01*
X12722295Y-20988790D01*
X12750866Y-20974504D01*
X12822295Y-20974504D01*
X12850866Y-20988790D01*
X12865152Y-21003076D01*
X12879437Y-21031647D01*
X12879437Y-21103076D01*
X12865152Y-21131647D01*
X12850866Y-21145933D01*
X12822295Y-21160218D01*
X12750866Y-21160218D01*
X12722295Y-21145933D01*
X12708009Y-21131647D01*
X13236580Y-21160218D02*
X13236580Y-20860218D01*
X13365152Y-21160218D02*
X13365152Y-21003076D01*
X13350866Y-20974504D01*
X13322295Y-20960218D01*
X13279437Y-20960218D01*
X13250866Y-20974504D01*
X13236580Y-20988790D01*
X13550866Y-21160218D02*
X13522295Y-21145933D01*
X13508009Y-21131647D01*
X13493723Y-21103076D01*
X13493723Y-21017361D01*
X13508009Y-20988790D01*
X13522295Y-20974504D01*
X13550866Y-20960218D01*
X13593723Y-20960218D01*
X13622295Y-20974504D01*
X13636580Y-20988790D01*
X13650866Y-21017361D01*
X13650866Y-21103076D01*
X13636580Y-21131647D01*
X13622295Y-21145933D01*
X13593723Y-21160218D01*
X13550866Y-21160218D01*
X13822295Y-21160218D02*
X13793723Y-21145933D01*
X13779437Y-21117361D01*
X13779437Y-20860218D01*
X14050866Y-21145933D02*
X14022295Y-21160218D01*
X13965152Y-21160218D01*
X13936580Y-21145933D01*
X13922295Y-21117361D01*
X13922295Y-21003076D01*
X13936580Y-20974504D01*
X13965152Y-20960218D01*
X14022295Y-20960218D01*
X14050866Y-20974504D01*
X14065152Y-21003076D01*
X14065152Y-21031647D01*
X13922295Y-21060218D01*
X14179437Y-21145933D02*
X14208009Y-21160218D01*
X14265152Y-21160218D01*
X14293723Y-21145933D01*
X14308009Y-21117361D01*
X14308009Y-21103076D01*
X14293723Y-21074504D01*
X14265152Y-21060218D01*
X14222295Y-21060218D01*
X14193723Y-21045933D01*
X14179437Y-21017361D01*
X14179437Y-21003076D01*
X14193723Y-20974504D01*
X14222295Y-20960218D01*
X14265152Y-20960218D01*
X14293723Y-20974504D01*
X14408009Y-21274504D02*
X14422295Y-21260218D01*
X14450866Y-21217361D01*
X14465152Y-21188790D01*
X14479437Y-21145933D01*
X14493723Y-21074504D01*
X14493723Y-21017361D01*
X14479437Y-20945933D01*
X14465152Y-20903076D01*
X14450866Y-20874504D01*
X14422295Y-20831647D01*
X14408009Y-20817361D01*
M02*
