<?xml version="1.0" standalone="no"?>
<!DOCTYPE svg PUBLIC "-//W3C//DTD SVG 20010904//EN"
 "http://www.w3.org/TR/2001/REC-SVG-20010904/DTD/svg10.dtd">
<svg version="1.0" xmlns="http://www.w3.org/2000/svg"
 width="1280.000000pt" height="1214.000000pt" viewBox="0 0 1280.000000 1214.000000"
 preserveAspectRatio="xMidYMid meet">
<metadata>
Created by potrace 1.15, written by Peter Selinger 2001-2017
</metadata>
<g transform="translate(0.000000,1214.000000) scale(0.100000,-0.100000)"
fill="#000000" stroke="none">
<path d="M3317 11086 c-27 -25 -28 -31 -11 -114 3 -13 -1 -31 -8 -40 -20 -24
-15 -146 10 -228 25 -80 184 -407 354 -724 63 -118 149 -280 191 -360 42 -80
103 -197 137 -260 109 -206 455 -901 535 -1075 172 -374 212 -495 201 -604
-16 -149 -104 -225 -381 -326 -769 -280 -1670 -744 -2310 -1188 -521 -363
-826 -683 -891 -937 -21 -83 -15 -188 15 -250 26 -55 67 -104 79 -96 5 3 16
-2 23 -12 13 -16 12 -16 -6 -2 -17 12 -18 12 -7 0 7 -8 17 -16 22 -16 6 -1 15
-2 21 -3 5 0 7 -7 3 -13 -4 -7 -4 -10 0 -7 4 4 37 -4 74 -16 115 -39 227 -48
499 -42 363 8 705 49 1281 153 105 19 197 32 204 28 7 -5 8 -3 3 6 -6 10 -1
12 19 8 14 -3 29 -1 32 4 4 5 17 7 31 3 17 -4 22 -2 18 5 -5 8 3 10 24 7 18
-3 31 -1 31 5 0 6 11 7 26 4 18 -5 24 -3 19 5 -6 8 2 9 25 4 23 -5 31 -4 25 4
-5 8 1 10 21 5 20 -5 25 -4 19 6 -5 9 -2 10 13 6 29 -10 98 4 80 15 -8 6 0 7
20 3 21 -4 32 -3 32 5 0 7 4 9 10 6 16 -10 81 6 73 18 -3 6 -1 7 6 3 16 -10
93 3 86 15 -4 5 1 6 9 3 30 -12 604 140 1156 306 162 49 300 63 362 36 44 -19
74 -56 89 -109 10 -38 13 -272 5 -327 -31 -193 -42 -1299 -18 -1845 35 -807
106 -1470 183 -1723 32 -104 86 -198 141 -245 26 -23 51 -42 55 -43 5 0 25
-17 46 -37 33 -32 45 -37 85 -37 268 0 788 802 1126 1738 169 469 275 904 333
1367 25 202 25 685 0 845 -16 100 -57 305 -73 365 -4 15 -3 16 4 6 8 -11 14
-11 33 3 56 39 163 15 419 -96 419 -181 678 -260 1105 -337 507 -92 1104 -111
1622 -49 61 7 100 16 96 21 -4 6 8 8 31 4 22 -3 34 -2 31 4 -4 5 7 9 23 9 43
0 216 35 371 76 357 93 565 222 596 372 17 82 -105 207 -335 342 -41 24 -77
46 -80 50 -8 10 -98 60 -108 60 -5 0 -77 36 -160 80 -82 45 -159 82 -171 85
-11 2 -42 15 -69 29 -26 14 -92 44 -147 67 -55 23 -139 61 -188 85 -48 24 -92
44 -99 44 -6 0 -103 38 -214 85 -112 47 -206 85 -210 85 -4 0 -15 6 -23 14 -9
8 -58 28 -110 46 -51 17 -110 40 -129 51 -20 10 -42 19 -48 19 -17 0 -178 62
-258 99 -36 18 -81 34 -99 38 -17 3 -45 14 -62 23 -16 10 -50 24 -75 30 -61
17 -262 91 -276 101 -13 10 -90 39 -121 45 -33 6 -185 64 -198 74 -6 5 -36 16
-67 24 -31 8 -89 27 -130 41 -119 44 -233 85 -236 85 -2 0 -1 4 2 9 3 4 -6 18
-19 31 -28 26 -43 67 -47 128 -2 41 5 52 222 350 1112 1518 1774 2567 1865
2956 17 72 19 130 5 157 -21 37 -129 77 -268 98 -98 15 -371 16 -452 1 -353
-63 -721 -231 -1173 -537 -93 -62 -174 -118 -180 -123 -7 -5 -66 -51 -132
-102 -331 -254 -768 -651 -1020 -928 -33 -36 -83 -90 -111 -120 -28 -30 -88
-100 -133 -155 -111 -133 -196 -220 -249 -257 -44 -30 -112 -55 -142 -52 -8 1
-22 2 -31 3 -10 1 -27 27 -44 69 -53 127 -201 427 -265 537 -208 360 -412 627
-695 910 -222 222 -259 254 -425 376 -63 46 -125 93 -138 104 -12 12 -46 35
-75 52 -29 17 -88 51 -132 77 -117 68 -375 197 -485 242 -52 21 -97 41 -100
45 -3 4 -25 12 -50 19 -25 6 -76 21 -115 32 -38 11 -79 22 -90 25 -11 2 -34
11 -50 18 -17 8 -65 16 -108 20 -42 3 -88 10 -102 15 -47 18 -100 12 -128 -14z"/>
</g>
</svg>
