<?xml version="1.0" encoding="UTF-8" standalone="no"?>
<svg
   xmlns:dc="http://purl.org/dc/elements/1.1/"
   xmlns:cc="http://creativecommons.org/ns#"
   xmlns:rdf="http://www.w3.org/1999/02/22-rdf-syntax-ns#"
   xmlns:svg="http://www.w3.org/2000/svg"
   xmlns="http://www.w3.org/2000/svg"
   xmlns:sodipodi="http://sodipodi.sourceforge.net/DTD/sodipodi-0.dtd"
   xmlns:inkscape="http://www.inkscape.org/namespaces/inkscape"
   width="210mm"
   height="297mm"
   viewBox="0 0 210 297"
   version="1.1"
   id="svg1506"
   inkscape:version="1.0.1 (3bc2e813f5, 2020-09-07)"
   sodipodi:docname="Parrot-F_Silk_inv_blue.svg">
  <defs
     id="defs1500" />
  <sodipodi:namedview
     id="base"
     pagecolor="#ffffff"
     bordercolor="#666666"
     borderopacity="1.0"
     inkscape:pageopacity="0.0"
     inkscape:pageshadow="2"
     inkscape:zoom="0.175"
     inkscape:cx="2243.5876"
     inkscape:cy="1610.4536"
     inkscape:document-units="mm"
     inkscape:current-layer="layer1"
     inkscape:document-rotation="0"
     showgrid="false"
     inkscape:window-width="2991"
     inkscape:window-height="1478"
     inkscape:window-x="362"
     inkscape:window-y="1276"
     inkscape:window-maximized="0" />
  <metadata
     id="metadata1503">
    <rdf:RDF>
      <cc:Work
         rdf:about="">
        <dc:format>image/svg+xml</dc:format>
        <dc:type
           rdf:resource="http://purl.org/dc/dcmitype/StillImage" />
        <dc:title />
      </cc:Work>
    </rdf:RDF>
  </metadata>
  <g
     inkscape:label="Layer 1"
     inkscape:groupmode="layer"
     id="layer1">
    <path
       id="path2099"
       style="fill:#000000;stroke-width:0.264583"
       d="m -284.83852,990.36993 c 0,-0.56782 0.1142,-2.34209 0.251,-3.94282 2.1123,-24.71476 3.7149,-90.62876 5.0367,-207.16875 0.9678,-85.31703 1.5078,-118.49888 2.1271,-130.70416 1.113,-21.93528 3.5584,-53.82016 6.3514,-82.81458 2.1841,-22.67223 3.37,-31.95394 6.4659,-50.60754 0.7905,-4.7625 1.613,-10.00165 1.8277,-11.64251 0.4721,-3.60625 0.5484,-3.74521 5.844,-10.64266 3.9438,-5.13672 5.8399,-7.84553 7.2774,-10.39693 0.4752,-0.84339 0.9058,-1.49159 0.9569,-1.4405 0.051,0.0511 0.8545,2.11034 1.7854,4.5761 5.2476,13.89994 8.8817,21.51785 13.4669,28.22924 1.4254,2.08648 4.144,4.96126 4.6916,4.96126 0.118,0 -0.129,1.33945 -0.5489,2.97656 -2.7607,10.76362 -5.0209,24.00782 -7.7776,45.57448 -3.088,24.15958 -5.5475,38.75765 -9.9184,58.86979 -4.3496,20.0147 -7.8273,39.33894 -10.4517,58.07604 -0.8153,5.82083 -3.1408,21.35849 -5.1677,34.52812 -5.6365,36.62191 -5.9719,39.45559 -7.1399,60.325 -0.8689,15.52631 -1.604,25.04144 -3.1785,41.14271 -2.1611,22.10083 -3.0891,40.52641 -2.8249,56.08746 0.15,8.83261 0.4326,12.81961 1.5195,21.43545 2.096,16.61692 4.2565,27.58215 6.2182,31.56019 1.2224,2.47899 2.3604,3.31015 4.5613,3.33147 2.9187,0.0283 5.6163,-1.71431 11.3665,-7.34242 1.9282,-1.88722 3.5057,-3.32105 3.5057,-3.1863 0,0.13475 -0.2426,1.07805 -0.5391,2.09624 -3.8965,13.37882 -7.4038,33.29271 -8.6209,48.94707 -0.5368,6.90494 -0.032,5.99318 -5.6566,10.22387 -6.6955,5.03645 -12.4257,7.4295 -18.7109,7.81405 l -2.7204,0.16645 v -1.03238 z m 720.5754,-54.71991 c -3.7313,-1.84888 -7.7145,-4.39833 -11.2298,-7.18754 -3.2141,-2.55032 -9.7452,-9.21305 -10.8173,-11.0354 -1.2146,-2.06465 -2.1823,-5.05269 -3.8997,-12.04095 -1.933,-7.86534 -9.3954,-29.98446 -13.4206,-39.77973 -0.9182,-2.23446 -2.3573,-5.7295 -3.198,-7.76679 -0.8406,-2.03729 -1.8171,-4.41854 -2.17,-5.29167 -0.6595,-1.63208 -19.1646,-38.19866 -25.3064,-50.00624 -10.8723,-20.9019 -15.7391,-28.4406 -23.6737,-36.67046 -5.0187,-5.20547 -10.8104,-10.03025 -26.258,-21.87411 -4.5839,-3.51454 -8.6575,-6.6626 -9.0524,-6.99569 l -0.718,-0.60558 1.6083,-3.16806 c 1.9924,-3.92489 2.8409,-5.16811 6.5954,-9.66423 4.9192,-5.89084 6.0294,-7.98012 6.7378,-12.67931 0.4408,-2.92409 0.5,-10.07483 0.1141,-13.77902 -0.6044,-5.80192 -1.8578,-11.4059 -3.1943,-14.28157 -2.045,-4.40018 -6.2387,-7.90633 -14.4538,-12.08408 -4.2709,-2.17196 -8.0718,-3.48827 -12.8129,-4.43727 -3.7259,-0.74581 -4.6486,-0.87524 -15.1732,-2.12868 -4.2201,-0.50258 -9.2802,-1.22566 -11.2448,-1.60684 -6.4441,-1.25032 -14.4846,-1.18777 -23.5479,0.18319 -4.4973,0.6803 -9.1062,0.55931 -16.2718,-0.42716 -6.7933,-0.9352 -10.0144,-1.62002 -11.9063,-2.53138 -0.8731,-0.42061 -2.7781,-1.79504 -4.2333,-3.0543 -8.173,-7.07249 -9.287,-7.86513 -17.4517,-12.41745 -11.2986,-6.29959 -15.8918,-9.60667 -17.0356,-12.26571 -0.3081,-0.71623 -0.7384,-2.35683 -0.9561,-3.6458 -0.4423,-2.61832 -1.3205,-12.22163 -1.7265,-18.88003 -0.3262,-5.34913 -0.3453,-15.87347 -0.03,-16.37165 0.1945,-0.307 0.6212,-0.2908 2.712,0.10298 2.3164,0.43629 2.5799,0.43865 3.967,0.0354 0.8245,-0.23971 2.2063,-0.96237 3.1048,-1.62378 0.8904,-0.65553 1.619,-1.09844 1.619,-0.98427 0,1.06151 2.5356,15.08148 3.0464,16.84393 1.3456,4.64335 3.0121,6.72801 6.9308,8.66981 l 2.286,1.13279 3.8564,-0.007 c 3.4056,-0.006 4.0365,-0.079 5.3969,-0.62148 3.0205,-1.20446 6.8151,-4.87777 7.6164,-7.37303 0.1912,-0.59545 0.3645,-3.30192 0.4322,-6.74881 0.062,-3.16508 0.1527,-5.75469 0.2013,-5.75469 0.049,0 0.9579,0.41672 2.0207,0.92604 2.9217,1.40015 4.9994,1.16981 7.3511,-0.81504 1.154,-0.97399 2.752,-3.4412 3.4743,-5.36409 2.8192,-7.50496 5.7297,-23.60628 7.6592,-42.37191 1.3593,-13.21977 1.9019,-16.87869 4.3554,-29.36875 0.7862,-4.00182 2.097,-11.02651 2.913,-15.61041 0.816,-4.58391 1.5688,-8.60467 1.673,-8.93501 0.1683,-0.53356 0.8419,0.1315 6.0303,5.95313 3.2125,3.60455 7.7894,8.81594 10.1709,11.58084 2.3816,2.76489 5.3976,6.2177 6.7023,7.67291 1.3047,1.45521 6.4847,7.5274 11.511,13.49375 5.0264,5.96636 11.2342,13.2887 13.7952,16.27188 2.5609,2.98317 6.6061,7.80521 8.9892,10.71562 2.383,2.91042 5.8345,7.07761 7.6698,9.26042 4.1588,4.94625 7.5885,9.22308 12.3062,15.34583 2.0183,2.61938 4.5731,5.83406 5.6774,7.14375 5.3021,6.28854 20.2375,26.17369 28.5169,37.96771 3.7859,5.393 12.0162,18.36584 18.0449,28.44271 1.5671,2.61937 4.0417,6.72703 5.499,9.12812 9.11,15.0091 19.9217,35.50647 19.9217,37.76864 0,0.70037 -1.3225,2.6535 -2.6791,3.95673 -2.2031,2.11646 -5.2239,2.89513 -10.2728,2.64803 -5.0517,-0.24722 -10.9342,-1.63174 -13.6198,-3.20564 -2.4248,-1.42102 -4.6622,-4.43015 -17.4146,-23.42176 -9.3919,-13.98688 -13.2504,-19.36141 -15.9321,-22.19203 -1.4099,-1.4882 -1.7433,-1.70596 -2.7929,-1.82425 -0.9363,-0.10554 -1.3329,-0.0198 -1.8501,0.39928 -0.6165,0.49972 -0.6584,0.69104 -0.6584,3.01001 v 2.47637 l 1.7638,3.56573 c 0.9701,1.96117 3.5422,6.42327 5.7157,9.91577 2.1735,3.4925 4.5856,7.42156 5.3603,8.73124 0.7746,1.30969 4.7986,7.62 8.9422,14.02292 4.1436,6.40292 10.0326,15.63026 13.0866,20.50521 3.054,4.87495 6.6799,10.50877 8.0576,12.51958 1.3777,2.01083 4.2587,6.59474 6.4022,10.18646 2.1435,3.59174 5.1836,8.60644 6.7558,11.14382 1.5722,2.53738 4.1929,7.00223 5.8237,9.92188 1.6309,2.91965 3.8875,6.77796 5.0146,8.57401 6.2175,9.90769 20.7105,38.01599 28.0563,54.41362 2.829,6.31497 9.4824,23.8506 11.8942,31.34834 5.6251,17.48705 9.2188,42.88186 8.3654,59.11416 -0.1614,3.06969 -0.4661,6.40426 -0.6772,7.41015 -0.9069,4.32158 -3.7112,8.09297 -6.0178,8.09297 -0.343,0 -2.1646,-0.76358 -4.048,-1.69688 z m -696.8399,-18.47509 c -0.9647,-4.39046 -2.1999,-14.46588 -2.8303,-23.0874 -0.5905,-8.0767 -0.8387,-24.66459 -0.5524,-36.92816 0.3997,-17.12198 0.7683,-23.29749 3.5995,-60.30622 2.464,-32.20926 2.7538,-34.94489 6.3357,-59.81239 1.2275,-8.5221 2.7782,-19.71397 3.446,-24.87083 1.9413,-14.99177 2.8558,-20.82776 6.8946,-43.99616 2.9506,-16.92632 5.2024,-29.05588 7.1384,-38.45288 4.3475,-21.10134 5.1691,-25.26733 6.3041,-31.96669 1.8305,-10.80479 2.9856,-19.93307 4.5365,-35.85104 1.6724,-17.16445 3.6281,-26.74006 8.8623,-43.39166 1.8337,-5.83372 11.3067,-37.99647 12.9751,-44.05313 0.6013,-2.18281 1.4289,-5.51656 1.8392,-7.40833 0.4102,-1.89177 1.5415,-5.99943 2.5138,-9.12813 3.8054,-12.24449 10.342,-32.75419 14.3774,-45.11145 2.3285,-7.13052 4.381,-13.47137 4.561,-14.09076 0.1801,-0.61941 0.3739,-1.07968 0.4307,-1.02282 0.057,0.0568 -0.1349,1.81377 -0.4262,3.90429 -2.6375,18.93091 -3.8419,40.48448 -3.2211,57.64366 0.4132,11.41926 1.2934,22.87619 2.297,29.89792 1.1181,7.82304 6.7398,26.57924 8.9819,29.96729 1.2552,1.89679 3.2473,2.14018 5.0636,0.61867 0.554,-0.4641 1.783,-1.39012 2.731,-2.05782 3.8205,-2.69071 8.3925,-8.22259 12.5989,-15.24392 1.1449,-1.91103 2.1503,-3.47911 2.2343,-3.48461 0.084,-0.006 0.2927,0.74977 0.4638,1.67841 0.4172,2.26428 1.507,5.5531 2.3776,7.1751 l 0.71,1.32292 -0.4642,1.39943 c -1.003,3.02358 -1.3562,6.29158 -1.3643,12.62348 -0.01,5.75088 0.033,6.25774 0.7311,9.22028 1.26,5.34644 2.8856,9.62083 5.1842,13.63179 0.394,0.68746 0.4783,1.2025 0.3682,2.24895 -0.079,0.74653 -1.9701,12.31107 -4.2034,25.69898 -6.4464,38.64443 -6.7532,41.22629 -5.3096,44.68143 0.6694,1.60208 2.4287,3.96994 4.0973,5.51479 2.1367,1.97826 3.8231,2.61607 7.3758,2.78958 7.5318,0.36791 12.6515,-2.8253 14.7405,-9.19369 0.5557,-1.6942 2.4612,-10.91144 3.5938,-17.38447 l 0.333,-1.90278 2.6724,2.50587 c 2.7663,2.594 4.2665,3.54574 5.6001,3.55269 0.427,0.003 0.9075,0.0915 1.0678,0.19844 0.1602,0.10692 0.3719,1.44455 0.4702,2.97252 0.172,2.67168 0.4393,4.90794 1.4072,11.77395 0.3222,2.28587 0.4472,4.99028 0.4462,9.6573 0,6.16428 -0.035,6.60847 -0.6956,9.05422 -1.687,6.2488 -4.9711,12.12612 -9.4866,16.9772 l -1.4497,1.55747 -4.2228,-0.4246 c -7.8091,-0.7852 -13.3616,-1.04259 -19.0395,-0.88252 -6.5937,0.18587 -8.5407,0.44667 -12.4249,1.66436 -1.6065,0.50366 -4.5878,1.32863 -6.6251,1.8333 -8.7469,2.16675 -9.9703,2.49828 -11.5003,3.11626 -2.5855,1.04431 -4.4425,2.28815 -6.595,4.41738 -6.1426,6.07605 -10.0082,16.4215 -11.8113,31.61088 -0.5191,4.37203 -0.5921,12.23756 -0.1363,14.6707 0.4638,2.47599 1.6205,4.82311 3.1017,6.29383 1.3224,1.31318 4.8211,3.71379 9.2051,6.31621 1.8503,1.09834 2.4991,1.61843 2.4056,1.92828 -0.07,0.23339 -1.2106,4.88916 -2.5338,10.34619 -4.1008,16.91336 -6.7428,26.68032 -10.449,38.62916 -1.7449,5.62573 -3.7161,11.68993 -10.5784,32.54375 -3.4506,10.48613 -5.2745,16.39718 -5.9596,19.31459 -0.7771,3.3094 -6.9814,19.18086 -10.7046,27.38437 -6.2692,13.81289 -14.6518,29.03196 -21.9326,39.81979 -4.8718,7.21847 -12.1348,16.49746 -16.7626,21.4154 l -2.3504,2.49769 z m -54.132,-11.43756 c -1.0733,-0.20119 -2.0622,-0.47649 -2.1975,-0.61175 -0.75,-0.75006 3.4547,-12.46827 8.9925,-25.06101 4.1154,-9.3585 16.5365,-37.11175 17.4662,-39.02604 0.2563,-0.52779 0.2939,0.99602 0.1861,7.54062 -0.074,4.51115 -0.2135,16.98623 -0.3094,27.72241 l -0.1745,19.52032 -3.2087,3.10155 c -3.6874,3.56431 -6.0174,5.4019 -8.0876,6.37834 -1.3738,0.64799 -1.7142,0.68961 -6.0854,0.74388 -3.0576,0.038 -5.293,-0.0668 -6.5817,-0.30832 z m 87.7221,-403.29931 c -4.1152,-8.13872 -8.7802,-19.15499 -10.7374,-25.35621 -2.7101,-8.587 -5.9074,-27.00367 -7.2767,-41.9141 -1.8416,-20.05441 -1.7967,-43.37936 0.1217,-63.23542 1.385,-14.33536 3.3795,-27.67594 5.3995,-36.11562 1.0847,-4.53218 1.5189,-7.3038 1.5621,-9.97156 0.042,-2.6157 -0.486,-3.47906 -2.206,-3.60522 -0.942,-0.0691 -1.2643,0.042 -1.9196,0.66146 -2.7071,2.55934 -5.1502,7.93613 -7.9724,17.54553 -3.7174,12.65811 -4.7966,18.66796 -5.5113,30.69166 -0.477,8.02381 -0.4793,62.45693 0,70.37917 0.433,7.20328 0.9762,12.49619 1.6969,16.53646 0.3586,2.01046 0.5634,4.24248 0.5583,6.08541 -0.01,2.67925 -0.087,3.13108 -0.9974,5.68854 -1.3057,3.66641 -3.9962,8.92051 -6.0399,11.79476 -2.0496,2.88271 -5.9408,6.99981 -8.7613,9.27018 -1.9705,1.58612 -6.1135,4.33506 -6.5335,4.33506 -0.098,0 -0.7751,-1.57758 -1.505,-3.50573 -4.2866,-11.32363 -5.9559,-18.95636 -6.698,-30.62552 -0.4078,-6.41278 -0.1524,-35.18852 0.4051,-45.64062 2.1409,-40.1361 3.4413,-54.18653 7.5794,-81.88854 2.5844,-17.30089 3.2032,-20.48584 6.742,-34.69994 2.2554,-9.0596 2.7604,-11.55512 2.7604,-13.64179 0,-1.59231 -0.062,-1.77448 -0.8516,-2.5123 -0.7461,-0.69701 -0.9949,-0.77935 -2.0089,-0.66505 -1.7583,0.1982 -2.9557,1.52728 -4.819,5.34929 -3.0874,6.33262 -6.851,18.88133 -10.7127,35.71875 -1.2285,5.35599 -1.4299,5.99869 -1.6802,5.36178 -1.0274,-2.61419 -5.8982,-19.43023 -7.7989,-26.92532 -3.0088,-11.86487 -2.9534,-11.1691 -2.9487,-37.04166 0,-26.29353 -0.019,-25.97367 3.7207,-50.40313 4.3891,-28.67332 7.2952,-44.13647 9.5968,-51.06458 l 1.2306,-3.70417 0.061,1.5875 c 0.1606,4.19759 0.6934,9.76366 1.4101,14.7301 1.2848,8.90317 2.0325,11.05262 4.4223,12.71198 1.2005,0.83357 1.3512,0.86821 3.7641,0.86495 3.2359,-0.004 3.964,-0.37978 7.6184,-3.92829 5.2211,-5.06984 9.5383,-10.95687 15.0645,-20.54228 1.8877,-3.27422 4.4244,-7.56047 5.6372,-9.525 1.2128,-1.96453 3.1768,-5.20697 4.3644,-7.20542 l 2.1594,-3.63355 0.3352,1.12001 c 1.2871,4.30104 4.0698,7.00497 7.3575,7.14917 l 1.2717,0.0558 -2.3574,5.15961 c -9.2158,20.16985 -18.9857,48.64923 -22.2376,64.82315 -2.2507,11.1946 -2.2867,17.8512 -0.1544,28.575 2.1463,10.79413 5.4768,19.70923 8.5318,22.83841 3.1985,3.27607 6.2089,3.75345 9.6388,1.52852 3.6855,-2.39075 12.5283,-11.6247 22.3815,-23.37146 6.4961,-7.74454 11.1952,-15.16224 16.6374,-26.26317 2.0011,-4.08173 1.977,-4.13666 0.901,2.04885 -1.412,8.11689 -1.5252,9.56336 -1.6653,21.2848 -0.1821,15.23408 0.2104,19.45764 2.0791,22.3697 2.9156,4.54358 6.7542,4.13281 13.7177,-1.46797 2.8049,-2.25599 10.2373,-9.7842 13.3713,-13.54372 5.4713,-6.56325 11.4319,-14.91766 14.601,-20.46486 2.4277,-4.24952 7.2407,-13.91467 9.8576,-19.79538 1.2034,-2.70431 1.771,-3.70814 2.0386,-3.60542 0.204,0.0783 0.3334,0.21695 0.2875,0.30816 -3.883,7.7248 -7.419,15.90217 -9.338,21.59518 -1.3753,4.0798 -1.7593,6.56675 -2.5127,16.27378 -0.6372,8.20986 -1.0341,10.99865 -2.2692,15.94587 -0.5002,2.00351 -1.3306,5.69445 -1.8453,8.20209 -1.3587,6.61929 -6.7165,27.00184 -7.2361,27.52793 -0.1165,0.11796 -0.7919,0.17749 -1.5009,0.1323 -1.2886,-0.0821 -1.2896,-0.0829 -2.2197,-1.78181 -3.6827,-6.72624 -11.6614,-9.18692 -18.5197,-5.71156 -3.0987,1.57022 -5.0114,3.81431 -6.0645,7.11525 -1.3264,4.1575 -4.9175,19.11601 -12.4255,51.75742 -6.2002,26.95559 -7.4449,33.14417 -7.4449,37.01724 0,2.0773 0.087,2.4692 0.9402,4.25011 1.2036,2.51143 3.9378,5.25574 6.6889,6.71349 l 1.9199,1.01727 3.626,-0.0997 c 3.1701,-0.0872 3.834,-0.18624 5.2797,-0.78809 0.9095,-0.37864 1.6537,-0.62799 1.6537,-0.55409 0,0.0739 -1.7762,5.62621 -3.9471,12.3385 -5.2176,16.1327 -6.7451,20.97066 -9.1157,28.87295 -3.5509,11.83624 -10.1353,34.71777 -12.6007,43.78854 -1.325,4.87494 -2.7716,10.05416 -3.2146,11.50937 -1.0454,3.43405 -2.8488,8.06979 -3.1393,8.06979 -0.125,0 -1.1152,-1.75617 -2.2006,-3.9026 z m 492.628,-150.39155 c -0.7788,-10.45231 -1.0926,-14.15147 -2.0047,-23.63813 -1.6083,-16.72548 -2.3726,-26.31565 -2.3777,-29.83349 0,-1.77605 0.023,-1.8387 3.9315,-9.6573 6.2794,-12.56085 9.4493,-19.32998 10.5711,-22.57416 0.5749,-1.66241 1.7621,-4.74896 2.6383,-6.85901 2.0244,-4.87542 4.1796,-10.68842 8.3383,-22.48958 1.8204,-5.16599 5.093,-14.27427 7.2723,-20.24062 2.1793,-5.96636 4.562,-12.69339 5.2948,-14.94896 2.4571,-7.56224 8.4573,-29.85746 10.5077,-39.04398 1.1012,-4.93334 2.5057,-12.96406 2.5073,-14.33571 0,-0.58954 0.037,-0.59531 3.781,-0.59531 h 3.7803 l 1.1049,1.68047 c 1.3528,2.05764 4.067,4.64238 5.6622,5.39224 1.6576,0.77917 5.1322,1.23695 7.8202,1.03031 5.2135,-0.40074 8.4161,-2.50349 10.5279,-6.9124 1.241,-2.59069 1.5214,-3.48702 6.2419,-19.95082 2.3116,-8.06254 4.2565,-14.71269 4.3219,-14.77807 0.1192,-0.11916 13.8235,4.84714 14.4586,5.23965 0.2622,0.16209 -0.055,1.79602 -1.4212,7.30838 -3.6458,14.71554 -13.7051,51.2764 -15.9619,58.0137 -1.9486,5.81758 -6.9601,19.3085 -10.3267,27.79945 -2.1891,5.52128 -9.994,23.31599 -13.5195,30.82396 -3.1015,6.60482 -10.2828,20.09233 -13.7686,25.85939 -4.0628,6.72156 -13.6879,23.76184 -15.7316,27.85102 -0.7999,1.60073 -2.4363,5.17261 -3.6362,7.9375 -3.3246,7.66019 -4.8927,10.73338 -7.2698,14.24747 -9.4931,14.03387 -16.1357,24.1644 -19.3426,29.499 l -3.2353,5.38192 z m -406.2527,-74.90115 c -1.5062,-9.54371 -2.0986,-24.59551 -1.2283,-31.20729 1.0991,-8.35062 3.6826,-15.57297 10.9126,-30.50677 7.2124,-14.89758 9.4009,-19.96697 9.7473,-22.57753 0.3465,-2.61244 -0.8231,-4.27768 -3.0046,-4.27768 -1.1404,0 -1.2853,0.0927 -3.2055,2.05052 -1.1061,1.12779 -2.9224,3.4304 -4.0361,5.11691 -1.1152,1.68868 -2.512,3.4521 -3.1089,3.92483 l -1.0838,0.85847 v -2.02216 c 0,-1.84608 0.1715,-2.50121 1.97,-7.52459 4.5622,-12.74239 6.7575,-21.36619 6.7602,-26.5557 0,-2.39456 -0.3863,-3.50507 -1.5708,-4.50178 -1.7571,-1.47849 -4.1502,-0.737 -5.5551,1.72119 -0.4401,0.77002 -2.2191,5.68627 -3.9535,10.92502 -4.3191,13.0465 -7.5104,21.20373 -15.1126,38.62917 -4.01,9.19159 -6.3611,14.11983 -8.3412,17.48446 -2.8053,4.76654 -9.4276,14.763 -11.3785,17.17595 -3.7715,4.66484 -13.6783,14.94896 -14.4004,14.94896 -0.3665,0 -0.368,-10.37714 0,-15.56083 0.5844,-8.28239 1.9052,-16.89989 3.5601,-23.22677 2.0142,-7.7007 6.9138,-21.55203 12.4383,-35.16344 1.7128,-4.2201 3.9509,-9.75651 4.9734,-12.30313 1.1256,-2.80318 4.6508,-10.16346 8.9338,-18.65312 3.8911,-7.7126 7.2764,-14.64119 7.5229,-15.39687 0.3696,-1.13263 0.3937,-1.53958 0.1371,-2.31712 -0.368,-1.1149 -0.9255,-1.4683 -2.3164,-1.4683 -1.3776,0 -2.9239,1.02399 -5.2298,3.46337 -5.5606,5.88243 -9.9234,12.74823 -16.7136,26.30225 -2.1141,4.22011 -3.9077,7.73245 -3.9856,7.80521 -0.078,0.0728 -0.076,-0.16536 0,-0.52917 0.08,-0.3638 0.5046,-2.44739 0.9445,-4.6302 0.4399,-2.18282 1.4623,-6.67592 2.2721,-9.98466 2.4232,-9.90135 2.6525,-12.03963 1.4694,-13.70121 -1.0811,-1.51821 -3.3938,-2.00861 -4.9624,-1.05225 -1.9491,1.18835 -2.8395,3.30827 -6.9239,16.4847 -8.2573,26.63796 -18.6751,56.25492 -22.5217,64.027 -2.81,5.67761 -7.2567,12.52813 -11.9536,18.41548 -3.1038,3.89048 -10.3802,12.0206 -15.0529,16.81908 l -3.8717,3.97589 -0.4424,-1.05764 c -0.6752,-1.61451 -2.9978,-9.80387 -3.573,-12.59837 -2.0092,-9.76056 -1.7509,-18.2599 0.9214,-30.32427 1.4905,-6.7287 4.2062,-17.08057 5.537,-21.10584 0.7698,-2.32833 3.0075,-8.40052 4.9727,-13.49375 1.9652,-5.09323 4.0777,-10.68916 4.6943,-12.43541 1.75,-4.9557 3.1202,-7.93631 9.0006,-19.57917 5.8836,-11.64915 7.1754,-14.04863 12.785,-23.74826 5.0414,-8.71712 6.6065,-11.98107 6.7379,-14.05165 0.092,-1.44917 0.031,-1.70093 -0.5721,-2.35061 -0.5396,-0.58155 -0.9091,-0.7276 -1.8411,-0.7276 -1.5993,0 -2.4281,0.77483 -9.01,8.42279 -8.1294,9.44621 -17.1647,18.93031 -18.9391,19.87998 l -0.6216,0.33266 0.1547,-5.25574 c 0.1822,-6.18945 0.5377,-9.24039 1.4141,-12.1349 0.6898,-2.27825 1.4114,-4.97967 3.5158,-13.16112 2.0338,-7.90744 1.8483,-10.122 -0.952,-11.3607 -2.4548,-1.08585 -4.9964,-0.161793 -6.0978,2.21702 -0.2899,0.62598 -0.7403,2.0311 -1.001,3.12251 -1.288,5.39165 -4.6029,13.59849 -9.4138,23.30606 -3.6345,7.33388 -4.47,8.83663 -9.1076,16.38144 -1.9232,3.12869 -4.4643,7.37822 -5.6471,9.44337 -2.5794,4.50395 -5.1352,8.58258 -8.175,13.04621 -2.6852,3.94279 -6.2183,8.72537 -6.4484,8.72881 -0.8003,0.0119 -1.3716,-19.38842 -0.768,-26.07825 0.1323,-1.4658 0.5515,-4.01569 0.9317,-5.66643 2.3532,-10.21818 8.9281,-29.49178 15.6156,-45.775794 1.4045,-3.419739 3.0222,-7.467864 3.595,-8.995833 0.5728,-1.527966 1.2954,-3.432966 1.6057,-4.233336 0.3104,-0.80036 2.5258,-5.50333 4.9232,-10.45104 5.4936,-11.33784 6.1622,-12.88909 6.3291,-14.68437 0.1135,-1.22171 0.043,-1.57197 -0.4413,-2.18281 -0.3171,-0.40019 -0.74,-0.72761 -0.9399,-0.72761 -0.5874,0 -0.6676,-6.96716 -0.094,-8.20208 1.4089,-3.03485 2.2823,-6.40985 6.0367,-23.32651 5.3953,-24.30996986 8.3318,-36.74576 10.8509,-45.95204 1.3898,-5.07934 8.5922,-28.76111 9.6943,-31.87536 0.9117,-2.5762 7.0812,-17.51036 7.3712,-17.843 0.032,-0.0367 0.5545,0.93501 1.1612,2.15937 1.9038,3.84215 4.4456,5.50979 7.7332,5.07368 l 1.2996,-0.1724 -0.9506,2.05928 c -4.0236,8.71632 -5.2511,11.7879 -7.6209,19.06944 -1.8515,5.68926 -3.9587,15.69458 -4.6367,22.01587 -0.8192,7.63757 -1.0818,20.31365014 -0.525,25.3442801 0.7366,6.6560499 2.2672,10.4650699 4.9625,12.3494799 0.9917,0.69334 1.4241,0.81378 3.2137,0.89503 4.1109,0.18669 7.0714,-1.32328 10.5552,-5.38358 1.2486,-1.45521 4.3597,-4.7889599 6.9136,-7.4083299 2.5539,-2.61938 5.7427,-6.19124996 7.0863,-7.9375 2.5762,-3.34822 5.3476,-6.5142497 5.3484,-6.1099997 8e-4,0.42119 -2.0815,8.21187974 -4.6741,17.4870797 -5.6749,20.3021899 -7.0612,27.8990999 -7.0737,38.7614599 -0.013,11.11242 1.1734,16.55601 4.4392,20.37291 1.8016,2.1055 4.8144,4.63828 6.6615,5.60004 l 1.6013,0.83381 1.9706,-1.03357 c 4.3513,-2.28232 10.5404,-7.43235 18.384,-15.29752 7.6487,-7.66971 9.0473,-9.46906 20.8921,-26.87984 3.3166,-4.87494 6.8708,-9.99463 7.8983,-11.37708 2.1851,-2.93992 4.3284,-6.28856 5.0419,-7.87733 l 0.5041,-1.1226 1.1974,1.788 c 1.5048,2.24702 3.8133,4.57538 5.347,5.39297 1.0147,0.54092 1.5467,0.62834 3.8245,0.62834 2.4358,0 2.7898,-0.0682 4.4601,-0.85927 0.9979,-0.47259 2.581102,-1.39533 3.518402,-2.05052 0.9373,-0.65518 1.7396,-1.19126 1.7829,-1.19126 0.043,0 -0.075,0.81135 -0.2621,1.80298 -1.7259,9.12738 -2.7615,27.07518 -2.2505,39.00056 0.5908,13.78445 1.7047,18.32639 5.5002,22.42584 1.8236,1.96975 3.4147,2.91645 4.9014,2.91645 1.5897,0 4.2724,-0.9915 6.327,-2.33836 5.825,-3.81854 16.3433,-15.24746 23.0504,-25.04601 2.4099,-3.5206 10.9967,-18.07006 12.9997,-22.02656 0.3868,-0.76399 0.7936,-1.38906 0.9039,-1.38906 0.1104,0 0.7158,1.18401 1.3453,2.63112 2.3989,5.51413 5.12,9.14765 7.8513,10.48393 1.2513,0.61222 1.6878,0.68799 3.4866,0.60534 1.7601,-0.0809 2.3867,-0.25323 4.3515,-1.19719 1.2624,-0.6065 3.0338,-1.59329 3.9366,-2.19289 0.9027,-0.5996 1.7119,-1.01944 1.7984,-0.933 0.086,0.0864 0.239,2.8349 0.339,6.10772 0.1,3.27282 0.3291,7.4481 0.509,9.27843 0.7886,8.01974 -0.3318,14.4276 -6.4913,37.126043 -1.7972,6.622838 -3.8838,14.42278 -4.6369,17.33319 -5.1333,19.8383 -8.0218,28.92367 -13.2908,41.80417 -4.3902,10.73235 -13.9057,29.2495 -21.9524,42.7192 -3.3506,5.60861 -6.9915,11.50715 -8.0909,13.10788 -6.432,9.36488 -17.4852,23.15594 -25.869002,32.27687 -12.1155,13.1809 -38.2061,39.82209 -38.999,39.82209 -0.1119,0 -0.3397,-0.86321 -0.5062,-1.91823 z m 455.3063,-139.03216 -1.1978,-0.0967 0.5925,-6.66864 c 1.9799,-22.28297 3.4517,-46.375083 3.9503,-64.661413 0.1,-3.66498 0.2742,-6.81323 0.3872,-6.99611 0.1433,-0.23183 0.9958,0.42389 2.8158,2.16569 4.8219,4.61478 5.7531,4.93353 9.2606,3.16979 4.5196,-2.27267 7.6504,-6.30949 10.2677,-13.2393 0.4122,-1.09141 0.8333,-2.08381 0.9358,-2.20533 0.1866,-0.22127 1.6822,0.42167 1.936,0.83227 0.074,0.12005 -0.3412,1.758 -0.9231,3.6399 -3.4706,11.22535 -18.7893,66.689293 -21.6802,78.497223 l -1.4089,5.75468 -1.8691,-0.0477 c -1.0279,-0.0262 -2.408,-0.0912 -3.0668,-0.14438 z m 50.4103,-29.79693 c -5.0978,-1.93934 -7.1256,-2.82696 -7.0806,-3.09925 0.035,-0.20984 2.0329,-7.763424 4.4404,-16.785715 2.4075,-9.022288 5.2744,-19.976038 6.371,-24.341668 1.8501,-7.36549 1.9869,-8.0999 1.8973,-10.19103 -0.079,-1.85171 -0.2462,-2.57321 -0.9356,-4.04641 -1.6719,-3.57264 -4.3259,-6.23715 -7.8846,-7.9158 -1.7066,-0.80494 -2.0201,-0.86402 -4.4808,-0.84429 -2.1531,0.0172 -3.04,0.156 -4.7625,0.74491 -1.1642,0.39801 -2.6005,1.00558 -3.1919,1.35012 l -1.0752,0.62645 -1.9675,-1.06217 c -1.0821,-0.5842 -2.0613,-1.15226 -2.1759,-1.26233 -0.2694,-0.2586 2.4478,-8.61761 3.9188,-12.05539 2.0067,-4.69006 3.9782,-7.77587 8.2013,-12.83676 6.0718,-7.2763099 11.8126,-19.1733199 14.6825,-30.42709 2.1097,-8.27293 4.9408,-27.84691 5.5766,-38.55569 0.3969,-6.68612 0.1725,-21.09361 -0.4048,-25.99163 -2.1819,-18.510625 -6.8475,-37.333617 -12.5945,-50.811017 -0.8998,-2.11005 -2.0376,-5.07333 -2.5284,-6.58505 -0.9863,-3.03755 -2.8483,-6.71872 -7.1952,-14.22469 -3.2501,-5.61202 -5.876,-10.45916 -5.876,-10.84643 0,-0.14211 0.6251,-0.41273 1.3891,-0.60137 2.3315,-0.57569 5.0397,-2.00991 6.2264,-3.29732 1.5572,-1.68926 2.0222,-3.42628 2.0274,-7.57222 0,-3.98605 -0.4058,-6.07269 -2.4134,-12.25825 l -1.4452,-4.45304 1.312,-1.38721 c 2.0762,-2.19533 3.2102,-4.82378 3.8919,-9.02129 0.7852,-4.83436 0.3717,-10.21805 -1.1379,-14.81666 -1.2748,-3.88356 -5.2932,-11.85892 -8.1986,-16.27188 -2.8719,-4.36216 -4.8422,-6.81011 -7.981,-9.9156 l -2.4004,-2.37498 2.4466,-1.1802 c 1.3457,-0.64913 2.5388,-1.18772 2.6514,-1.1969 0.4954,-0.0404 5.0846,6.61794 6.6447,9.6406 2.8765,5.57329 4.4719,9.96447 9.4119,25.90495 1.8757,6.05243 3.8394,12.19505 4.3638,13.65025 0.5244,1.45521 1.6623,5.1026 2.5287,8.1053 3.1998,11.08999 7.1778,20.92463 9.778,24.17387 1.9543,2.44208 2.6645,3.67443 5.9464,10.31875 7.868,15.92908 17.2166,38.09061 20.0902,47.625 3.8323,12.715877 10.4049,38.267807 10.1645,39.516187 -0.095,0.49371 -2.0622,-2.50947 -4.3072,-6.57556 -0.8436,-1.52797 -4.7437,-9.08843 -8.667,-16.80104 -10.0382,-19.733847 -10.7275,-20.978607 -12.8568,-23.217197 -0.8058,-0.84719 -1.1104,-0.99218 -2.0845,-0.99218 -1.0032,0 -1.2041,0.10377 -1.6652,0.85989 -0.2883,0.47295 -0.5247,1.08223 -0.5252,1.35398 0,0.27176 0.6477,2.71254 1.4407,5.42396 5.4413,18.606487 7.6243,28.121407 10.1756,44.352797 2.8511,18.13878 3.0448,20.07468 2.8575,28.5532 -0.1188,5.37768 -0.2894,7.42442 -1.0938,13.11867 -0.5242,3.71079 -1.4912,10.7950004 -2.1488,15.7427101 -2.5915,19.4962199 -3.4531,24.9176699 -7.5062,47.2281299 -5.3898,29.66867 -7.3114,39.39674 -10.2439,51.858326 -2.8762,12.222767 -3.9704,16.411277 -4.2827,16.394537 -0.099,-0.005 -3.3943,-1.23257 -7.3234,-2.72728 z M -86.609018,67.198497 c -1.3415,-4.59751 -1.7466,-10.00123 -1.5702,-20.94566 0.2699,-16.744 1.8401,-26.00164 8.3958,-49.4996499 3.1204,-11.1848901 3.4471,-13.2404101 2.2885,-14.3990201 -1.0014,-1.00137 -2.885,-0.96309 -4.3362,0.0881 -1.3332,0.96578 -1.8834,1.64661 -6.273,7.7627104 -4.6408,6.4658897 -7.0834,9.50142974 -10.3791,12.8981797 -2.892202,2.9809 -5.071602,4.51694 -6.465102,4.55657 -0.6794,0.0193 -1.0336,-0.17155 -1.6275,-0.87688 -0.9539,-1.1331 -2.2935,-3.95105 -3.2324,-6.79968996 l -0.723,-2.19395004 0.4228,-2.30396 c 0.7435,-4.0509597 0.4528,-6.3264801 -0.932,-7.2964701 -0.7661,-0.53657 -2.659,-0.55909 -3.6561,-0.0434 -2.4013,1.24174 -5.1954,6.3508401 -6.6609,12.17969014 -0.4933,1.96209996 -3.1144,6.17944996 -8.0586,12.96624986 -1.5909,2.18371 -3.5208,5.04121 -4.2888,6.35 -0.7679,1.30876 -2.4257,3.80833 -3.6839,5.55458 -1.2582,1.74625 -3.5803,5.0037 -5.1601,7.23874 -4.9838,7.05067 -8.5319,11.20574 -16.5501,19.38134 -5.3185,5.4229 -10.2248,9.89242 -10.8592,9.89242 -0.5511,0 -1.9971,-2.80561 -2.5909,-5.02708 -0.6641,-2.4846 -0.7881,-9.00488 -0.2633,-13.84467 0.9041,-8.33712 2.3397,-14.97803 9.1902,-42.51157986 6.0348,-24.25562014 7.3193,-28.79989014 10.2828,-36.38021014 2.1619,-5.52992 2.8954,-8.13797 3.0927,-10.99698 0.1236,-1.79136 0.06,-2.33116 -0.3982,-3.3664 -0.666,-1.50566 -1.8513,-2.30298 -3.4257,-2.30439 -0.9539,0 -1.2801,0.15471 -2.1509,1.02553 -0.641,0.64101 -1.2015,1.56009 -1.4924,2.4474 -1.7847,5.44329 -10.0746,18.15568 -20.9916,32.18997 -7.3756,9.4818504 -12.1616,15.0373601 -17.3659,20.1582301 -2.373,2.33498 -3.1366,2.94709 -3.3004,2.64584 -0.8331,-1.53189 -1.0705,-12.4797897 -0.4014,-18.5158601 0.9743,-8.78965 3.1565,-18.32869 7.1524,-31.26589 2.1753,-7.04279 3.6913,-10.99148 8.0643,-21.00546 5.2066,-11.92263 6.2826,-15.10194 5.8143,-17.17863 -0.2627,-1.1648 -0.5905,-1.57424 -1.5926,-1.98932 -1.5825,-0.65548 -2.4616,-0.19791 -5.5119,2.86901 -3.7273,3.74753 -9.5977,7.71612 -11.4138,7.71612 -0.9011,0 -1.9326,-3.73758 -2.387,-8.64896 l -0.3229,-3.48959 3.7125,-9.3427 c 2.0418,-5.138487 4.7244,-11.902557 5.9613,-15.031257 4.3255,-10.94134 10.2754,-23.67293 14.5905,-31.22083 5.9779,-10.4566 11.1986,-18.77946 14.5011,-23.11781 6.9876,-9.17937 17.3285,-20.30859 25.4568,-27.3975 3.9226,-3.421 10.1724,-8.19882 11.8325,-9.04578 l 1.12,-0.57137 0.5352,0.75954 c 1.2226,1.73498 2.1708,2.48751 3.1343,2.48751 1.3636,0 2.2986,-0.93822 3.3356,-3.34693 3.0263,-7.02948 8.025,-13.98545 15.201,-21.15293 6.332502,-6.32497 10.626202,-9.31196 15.518502,-10.79588 5.3723,-1.62949 16.3937,-3.82846 22.0834,-4.40605 3.2849,-0.33348 5.8927,-0.79917 14.6843,-2.62231 11.226,-2.32794 24.6084,-4.27474 33.0387,-4.80629 6.7935002,-0.42833 17.8401002,-0.15198 21.7301002,0.54367 3.6730998,0.65682 7.7537998,1.72823 8.9347998,2.34582 1.355,0.70866 5.0061,3.98981 6.4449,5.7921 1.4871,1.86266 2.5091,3.97814 3.4985,7.24162 1.5849,5.22787 2.2312,8.83599 3.8654,21.58047 1.2532,9.77355 1.5911,11.44775 5.2268,25.89858 l 2.7957,11.1125 -0.05,22.35729 c -0.088,39.27189 -0.3759,43.64659 -4.6473,70.511467 -1.7995,11.31789 -2.1601,14.10112 -2.6567,20.50528 -0.6928,8.93321 -2.2564,20.59954 -4.6454,34.66034 -2.1676,12.75731 -3.0563,16.3070704 -6.7015,26.7669401 -6.1982,17.7857399 -13.4930998,34.4059999 -19.5486998,44.5382699 -2.2049,3.68929 -7.1377,10.75319 -7.5065,10.74946 -0.7927,-0.008 -2.1119002,-11.06331 -3.2559002,-27.28592 -0.8942,-12.68188 -1.2039,-14.63484 -2.5162,-15.86764 -0.3827,-0.35955 -1.0959,-0.64961 -1.7895,-0.72779 -0.9753,-0.10994 -1.2846,-0.0193 -2.006,0.58769 -1.1387,0.95816 -1.9899,2.47277 -2.8149,5.0089 -0.808,2.48418 -1.8752,3.95598 -5.1742,7.13624 -2.5589,2.46676 -4.5267,3.8626 -5.4455,3.8626 -0.3355,0 -0.9311,-0.39727 -1.4054,-0.9375 -1.5578,-1.77429 -2.9148,-5.00824 -4.7949,-11.42772 l -1.0256,-3.50168 0.5163,-1.50069 c 0.6742,-1.95964 0.6893,-4.6753199 0.033,-5.8994199 -0.9517,-1.77451 -3.691,-2.4385 -5.4852,-1.32961 -1.2275,0.75859 -2.1818,2.33183 -6.2538,10.3091199 -8.0806,15.83029 -16.6396,29.2109 -25.6403,40.08437 -2.5052,3.02639 -9.893,10.45104 -10.3992,10.45104 -0.1857,0 -0.4679,-0.44648 -0.6271,-0.99218 z" />
  </g>
</svg>
