<?xml version="1.0" encoding="UTF-8" standalone="no"?>
<svg
   xmlns:dc="http://purl.org/dc/elements/1.1/"
   xmlns:cc="http://creativecommons.org/ns#"
   xmlns:rdf="http://www.w3.org/1999/02/22-rdf-syntax-ns#"
   xmlns:svg="http://www.w3.org/2000/svg"
   xmlns="http://www.w3.org/2000/svg"
   xmlns:sodipodi="http://sodipodi.sourceforge.net/DTD/sodipodi-0.dtd"
   xmlns:inkscape="http://www.inkscape.org/namespaces/inkscape"
   width="210mm"
   height="297mm"
   viewBox="0 0 210 297"
   version="1.1"
   id="svg1506"
   inkscape:version="1.0.1 (3bc2e813f5, 2020-09-07)"
   sodipodi:docname="Parrot-F_Silk_inv_green.svg">
  <defs
     id="defs1500" />
  <sodipodi:namedview
     id="base"
     pagecolor="#ffffff"
     bordercolor="#666666"
     borderopacity="1.0"
     inkscape:pageopacity="0.0"
     inkscape:pageshadow="2"
     inkscape:zoom="0.35000001"
     inkscape:cx="-245.56722"
     inkscape:cy="1378.2848"
     inkscape:document-units="mm"
     inkscape:current-layer="layer1"
     inkscape:document-rotation="0"
     showgrid="false"
     inkscape:window-width="2991"
     inkscape:window-height="1478"
     inkscape:window-x="372"
     inkscape:window-y="1408"
     inkscape:window-maximized="0" />
  <metadata
     id="metadata1503">
    <rdf:RDF>
      <cc:Work
         rdf:about="">
        <dc:format>image/svg+xml</dc:format>
        <dc:type
           rdf:resource="http://purl.org/dc/dcmitype/StillImage" />
        <dc:title></dc:title>
      </cc:Work>
    </rdf:RDF>
  </metadata>
  <g
     inkscape:label="Layer 1"
     inkscape:groupmode="layer"
     id="layer1">
    <path
       style="fill:#000000;stroke-width:0.264583"
       d="m 306.76758,-560.0236 c -0.5094,-0.18416 -2.9608,-1.62865 -5.4476,-3.20999 l -4.5216,-2.87517 -0.707,-1.90112 c -0.3888,-1.04561 -1.5288,-3.17051 -2.5332,-4.72199 -3.6285,-5.60458 -3.7712,-7.97345 -0.9222,-15.31025 0.664,-1.70987 1.2484,-3.10885 1.2987,-3.10885 0.3076,0 4.0704,5.50532 4.9282,7.21033 1.3854,2.75376 1.7428,4.44094 2.2219,10.48985 0.4678,5.90723 0.6828,7.05962 1.6478,8.8327 1.1029,2.02628 2.1352,2.51141 5.0069,2.35301 1.0306,-0.0569 2.4125,-1.17265 2.9014,-2.34278 0.199,-0.47629 0.5986,-2.50637 0.888,-4.51129 0.2894,-2.00491 0.677,-4.16617 0.8613,-4.80279 l 0.3351,-1.15749 2.3128,2.51953 c 1.6136,1.75784 2.3128,2.71873 2.3128,3.17839 0,0.36236 -0.471,1.59985 -1.0466,2.74998 -1.3664,2.72983 -3.8735,5.39083 -5.9403,6.30487 -1.6718,0.73935 -2.254,0.78841 -3.5964,0.30306 z"
       id="path2711" />
    <path
       style="fill:#000000;stroke-width:0.264583"
       d="m 243.13528,-545.39658 c -7.2141,-6.63628 -11.3893,-11.1666 -13.3201,-14.4529 -0.9116,-1.55168 -2.6872,-5.98954 -2.6872,-6.71632 0,-0.76299 5.7766,0.0829 9.4757,1.38762 4.1841,1.47572 5.0521,2.03535 14.2661,9.19673 l 3.2081,2.49349 -1.599,1.73985 c -1.3585,1.47821 -4.2116,4.95897 -6.3825,7.78679 l -0.5799,0.75527 z"
       id="path2709" />
    <path
       style="fill:#000000;stroke-width:0.264583"
       d="m 46.079082,-210.13662 c -3.9016,-5.54307 -6.1599,-9.99569 -8.2181,-16.20324 -1.3541,-4.08416 -2.3067,-6.501 -3.9434,-10.00487 -3.342,-7.15423 -8.3846,-13.05544 -13.2737,-15.53358 -1.5029,-0.76179 -11.1217998,-2.77479 -18.8085998,-3.93616 -8.5825,-1.29669 -18.6203002,-1.1426 -27.8107002,0.42691 -4.5838,0.78282 -13.9624,3.15915 -20.3435,5.15461 l -5.5562,1.73752 -17.0657,-0.10168 c -18.5082,-0.11025 -18.891,-0.13843 -22.1487,-1.62986 -1.2102,-0.55406 -4.2852,-2.52574 -5.2021,-3.33563 -0.3404,-0.30062 2.7384,-4.43082 5.3438,-7.16859 4.4327,-4.65804 14.067,-11.62077 18.2648,-13.19999 0.8213,-0.30898 4.2912,-1.14784 7.711,-1.86414 14.6776,-3.07444 24.7564,-5.59851 28.3818,-7.10774 2.3857,-0.9932 5.4681,-2.98749 7.0785,-4.57983 4.0284,-3.98317 3.7315,-9.24624 -0.5447,-9.65711 -1.8211,-0.175 -2.821,0.26437 -5.309,2.33288 -1.3077,1.08723 -2.8004,2.06505 -3.6271,2.37596 -0.7727,0.29057 -4.7613,1.36829 -8.8635,2.39493 -4.1023,1.02661 -10.6139,2.75175 -14.4702,3.8336 -3.8563,1.08186 -8.6553,2.31989 -10.6645,2.75119 -5.4256,1.16467 -12.7066,4.51731 -17.8199,8.20539 -1.1412,0.82315 -3.1465,2.27198 -4.4562,3.21964 -3.9325,2.84541 -7.671902,4.93421 -14.669802,8.19425 l -3.2927,1.53392 -0.9016,-2.03835 c -3.0857,-6.97643 -2.6606,-10.24427 3.3607,-25.82907 1.1291,-2.92241 2.2584,-5.87129 2.5096,-6.5531 0.4516,-1.22568 0.4723,-1.24118 1.8305,-1.37538 0.7555,-0.0747 4.0526,-0.25477 7.326802,-0.40021 6.6284,-0.29446 8.7932,-0.69871 12.0798,-2.25576 4.4464,-2.10648 12.1996,-8.3239 14.8216,-11.88572 0.9731,-1.32178 1.1445,-1.744 1.1445,-2.81911 0,-1.96498 -0.5957,-2.51803 -2.6892,-2.49655 -1.3027,0.0135 -2.1802,0.22913 -3.9358,0.96785 -2.6561,1.11752 -5.1687,2.54796 -6.9709,3.9684 -1.631,1.28559 -4.8222,2.80749 -8.2323,3.92605 -2.4032,0.78827 -3.0121,0.87836 -6.6405,0.98245 -3.309302,0.095 -4.497402,0.0185 -6.924302,-0.44585 -9.8347,-1.88159 -20.4891,-6.96185 -23.5544,-11.2313 -0.8546,-1.19023 -2.3162,-4.10033 -2.1324,-4.24548 0.051,-0.0405 0.9863,-0.6437 2.0777,-1.3404 1.0914,-0.69673 3.2067,-2.15607 4.7006,-3.24297 4.1249,-3.00117 6.1039,-3.93655 8.8123,-4.1651 7.8026,-0.65842 16.982802,-3.12949 21.325702,-5.74029 2.8449,-1.7103 7.8312,-7.87549 9.9147,-12.25889 1.0347,-2.17681 1.0635,-4.34578 0.071,-5.33839 -0.6212,-0.62119 -0.8256,-0.6713 -2.2218,-0.54467 -0.8896,0.0806 -2.1238,0.43378 -2.9282,0.8378 -1.9275,0.96811 -4.6109,3.15915 -5.9344,4.84537 -3.6157,4.60671 -12.566302,7.9984 -21.121402,8.00354 -6.2546,0.004 -11.2656,-1.55258 -14.256,-4.42767 l -0.9762,-0.93851 2.2213,-2.60511 c 4.6162,-5.41409 8.2407,-10.55685 12.5621,-17.82403 5.3736,-9.03666 8.4686,-13.07766 11.002,-14.36499 0.5935,-0.30155 2.9152,-0.98351 5.1594,-1.51551 10.273202,-2.43525 13.186402,-3.55658 15.856602,-6.10359 2.6857,-2.56165 3.8326,-5.73818 2.7958,-7.74317 -0.9322,-1.80258 -2.9986,-1.8047 -8.0908,-0.008 -8.2668,2.91634 -7.2742,2.72783 -14.418702,2.73852 -8.7864,0.0132 -8.67,0.0513 -13.2511,-4.3467 l -2.1795,-2.09247 2.0565,-2.48322 c 4.2036,-5.07559 8.228,-7.41123 21.072502,-12.22988 6.8014,-2.55158 7.8577,-3.08 8.6191,-4.31193 0.7073,-1.14453 0.536,-2.77229 -0.3892,-3.69751 -0.5502,-0.55012 -1.2411,-0.74355 -4.5839,-1.2833 -2.1648,-0.34955 -4.3386,-0.70306 -4.8306,-0.78558 l -0.8947,-0.15004 0.181,-3.61952 c 0.5484,-10.96665 2.8226,-27.76994 4.0065,-29.60334 0.2239,-0.34663 2.8768,-1.83508 6.53,-3.66367 14.4394,-7.22758 19.0128,-11.02685 17.2881,-14.36198 -1.0299,-1.9916 -2.9245,-1.82675 -10.3413,0.8998 -6.8826,2.53014 -13.1325,4.5158 -18.580302,5.90314 -5.7183,1.45622 -8.5238,1.89727 -12.235,1.92345 -2.946,0.0208 -3.2458,-0.0249 -4.3298,-0.66021 -1.4298,-0.83792 -3.881,-3.46904 -3.881,-4.16583 0,-1.00928 2.6925,-11.04038 4.0819,-15.2074 2.8481,-8.54218 5.851,-13.69382 12.8525,-22.04963 5.981302,-7.13814 10.575002,-11.33647 15.477102,-14.14489 1.1642,-0.66696 4.6089,-2.29082 7.6551,-3.60858 6.3577,-2.75039 6.8399,-3.01839 8.3201,-4.62418 0.9273,-1.00603 1.0904,-1.35424 1.0904,-2.3281 0,-1.94427 -1.0514,-3.01313 -6.6146,-6.72425 -6.9281,-4.62167 -11.0217,-8.29619 -13.6481,-12.25077 -0.9182,-1.38245 -1.9158,-2.83004 -2.2171,-3.21686 l -0.5477,-0.70332 0.8643,-0.52772 c 0.4753,-0.29025 2.8883,-1.31701 5.3622,-2.28171 2.4738,-0.96469 5.748,-2.24243 7.276,-2.83943 5.8737,-2.29492 10.8434,-4.94469 16.8236,-8.97014 1.0311,-0.69403 4.5434,-3.48872 7.8052,-6.21041 10.4532,-8.72223 14.2873,-11.33133 23.2608,-15.8288 6.2074,-3.11114 9.2178,-4.23372 10.8479,-4.04527 0.6549,0.0757 2.3179,0.26652 3.6957,0.42404 4.3231,0.49425 14.0977002,-0.47021 20.0385002,-1.97723 4.663,-1.18288 9.0711998,-3.8684 13.4778998,-8.21088 2.6063,-2.56831 2.9885,-3.33898 2.6228,-5.28843 -0.2847,-1.51749 -1.3562,-2.01604 -4.1161,-1.91506 -2.0683,0.0757 -2.4828,0.19136 -5.1593998,1.43999 -5.5083,2.5696 -10.844,3.95726 -16.2732,4.23216 -3.4326002,0.1738 -6.8779002,-0.0474 -6.8779002,-0.4416 0,-0.34404 5.056,-4.68823 7.4645002,-6.41369 1.1695,-0.83782 4.2845,-2.61221 6.92210001,-3.9431 2.63769999,-1.33088 5.69189999,-3.03339 6.78729999,-3.78334 3.7316,-2.55493 10.4285998,-4.94298 21.9531998,-7.82819 4.1474,-1.0383 10.3982,-2.81962 13.8907,-3.95849 10.9604,-3.57412 18.571401,-5.34516 28.839501,-6.71088 11.899,-1.58261 19.494,-2.02125 38.099997,-2.20039 l 15.3459,-0.14775 0.4887,1.42169 c 1.0986,3.19561 3.4474,5.74802 6.9814,7.58664 4.4555,2.31801 9.6226,3.54377 15.1517,3.59436 2.6576,0.0243 3.4689,-0.0582 4.13,-0.42028 1.6299,-0.89269 1.8529,-3.29052 0.444,-4.77455 -0.4056,-0.42729 -2.0472,-1.40763 -3.6479,-2.17855 -1.6007,-0.77092 -4.6407,-2.2349 -6.7555,-3.25328 -5.4582,-2.6284 -6.3414,-3.78072 -6.3414,-8.2738 v -1.57448 l 0.8599,10e-4 c 1.2856,0.002 9.1466,0.74193 12.7662,1.20228 15.4992,1.97125 28.859,5.87121 33.9804,9.91949 2.1619,1.7088 8.5902,8.06616 11.9439,11.81186 1.663,1.85735 3.4403,3.78251 3.9496,4.27811 1.454,1.41488 4.1285,2.49701 11.1143,4.49702 10.1561,2.90764 12.9471,3.99755 22.5838,8.81907 8.4482,4.22686 12.6245,6.50813 13.53,7.39057 l 0.7938,0.77352 0.1436,9.05715 c 0.163,10.28815 0.106,9.96671 2.681,15.10809 2.3882,4.76839 4.8376,7.99864 6.8573,9.04304 2.1177,1.09512 4.7159,0.60539 5.3937,-1.01662 0.4801,-1.1493 0.1116,-3.01537 -1.864,-9.43613 -1.9373,-6.2964 -2.4868,-9.04979 -2.4918,-12.48629 0,-3.04702 0.7136,-7.94871 1.5944,-10.88322 l 0.5388,-1.79494 1.194,0.85745 c 1.8906,1.35777 7.9935,7.76413 10.2175,10.72562 4.454,5.9311 7.4023,11.95226 10.9103,22.28168 l 1.4444,4.25326 h -1.0116 c -1.8643,0 -6.1196,1.28214 -9.2519,2.7876 -2.7487,1.32107 -6.9077,3.91602 -9.9993,6.23888 l -1.1061,0.83108 -7.6252,-5.41283 c -11.6295,-8.25541 -12.142,-8.56707 -16.1828,-9.84115 -5.0934,-1.60594 -11.9674,-1.94487 -15.0711,-0.74308 -3.2699,1.2662 -4.7836,3.39166 -5.011,7.03616 -0.1682,2.69707 0.2052,4.9384 1.4319,8.5945 2.2089,6.58372 3.3867,8.16348 14.8903,19.97177 l 5.8912,6.04731 -1.1524,0.76797 c -1.452,0.96763 -4.847,2.29208 -7.0991,2.76954 -5.1823,1.09868 -8.4689,0.0919 -15.8258,-4.84792 -2.6615,-1.78707 -6.017,-3.84037 -7.4568,-4.56287 -1.4398,-0.72251 -4.5267,-2.44351 -6.86,-3.82444 -15.4742,-9.15857 -30.004,-15.25243 -44.7984,-18.78856 -8.9998,-2.15115 -23.4018,-3.98076 -36.7197,-4.66481 -8.0464,-0.4133 -30.842297,-0.16708 -36.739197,0.39683 -11.0226,1.05406 -17.3784,2.86558 -27.1576,7.74038 -10.870201,5.41864 -17.118401,10.69089 -22.820801,19.25642 -4.7573,7.14585 -6.7384,13.09214 -7.4926,22.48926 -0.3682,4.58824 -0.1868,25.85252 0.2698,31.63086 1.2224,15.46736 3.323,24.30639 8.3755,35.2429 3.9389,8.52607 5.8173,11.83083 11.0231,19.39356 6.2455,9.07323 9.670101,12.83029 18.053301,19.80592 10.5209,8.75443 15.8324,12.28873 29.4683,19.60832 5.6871,3.05276 9.373797,4.77986 15.643197,7.3283 5.5583,2.2594 12.742,5.72087 16.4769,7.93937 6.3337,3.76225 14.755,11.19669 22.5149,19.87653 2.276,2.54585 2.6601,2.77144 11.9585,7.02226 15.997,7.31313 35.2693,21.55669 42.8124,31.64133 4.6491,6.21551 6.7107,12.35562 7.9573,23.69984 0.6099,5.54988 0.7952,9.86192 0.4514,10.50425 -0.5268,0.98446 -2.5277,1.26971 -8.9058,1.26971 -5.5212,0 -5.9527,-0.0369 -8.3825,-0.71654 -8.0226,-2.24401 -18.9129,-7.70165 -22.2572,-11.15415 -0.6107,-0.63042 -1.8094,-2.46938 -2.6639,-4.08659 -2.3013,-4.35576 -3.7815,-5.87084 -5.7358,-5.87084 -0.5949,0 -1.0907,0.25733 -1.7329,0.89958 -0.9894,0.98936 -1.0822,1.62541 -0.931,6.37646 0.196,6.16278 2.4202,9.16744 10.9677,14.81666 l 4.4036,2.91042 v 5.44761 c 0,7.93081 -0.8262,15.73689 -2.158,20.28312 -0.4815,1.64359 -0.6468,1.91823 -1.155,1.91823 -0.3262,0 -2.8389,-0.64508 -5.5838,-1.43351 -2.745,-0.78844 -6.2404,-1.7597 -7.7676,-2.1584 -4.6222,-1.20665 -6.6911,-2.19728 -12.0214,-5.75616 -3.3793,-2.25627 -4.3519,-3.3732 -6.325,-7.26319 -1.8867,-3.71967 -5.1374,-10.79188 -6.6545,-14.47728 -2.6494,-6.43634 -4.8639,-9.80599 -8.0721,-12.28297 -3.2692,-2.52402 -9.229,-6.36481 -11.8597,-7.64301 -2.1143,-1.0273 -2.7575,-1.21492 -4.5136,-1.31657 -2.341,-0.13552 -3.4973,0.29149 -4.9788,1.83864 -1.2586,1.31445 -1.9738,3.12584 -4.0572,10.27578 -1.038897,3.56526 -2.428997,7.91104 -3.089197,9.65729 -1.1134,2.94482 -3.2902,7.65437 -3.7687,8.15346 -0.4094,0.42706 -5.4938,-6.30566 -7.5849,-10.04398 -2.1404,-3.8263 -3.1097,-7.70631 -4.0555,-16.23343 -0.8927,-8.04765 -1.5413,-10.2316 -3.288,-11.07157 -0.4341,-0.20873 -1.0937,-0.28967 -1.5946,-0.19569 -1.4386,0.26988 -2.5507,1.69114 -7.367,9.41517 -8.3942,13.46195 -13.7243,24.11828 -17.005601,33.99896 -2.6951,8.11556 -3.6984,13.39424 -4.1315,21.73629 -0.2654,5.11307 -0.2497,6.21157 0.1231,8.60507 1.4333,9.20289 1.197,25.64656 -0.4257,29.62341 l -0.3326,0.81515 -1.5206,-2.16035 z"
       id="path2707" />
    <path
       style="fill:#000000;stroke-width:0.264583"
       d="m 216.74188,112.30013 c -1.2405,-2.95862 -2.4174,-6.08666 -2.6154,-6.95116 -0.2697,-1.17758 -0.36,-4.09373 -0.36,-11.625999 0,-11.470954 0.059,-11.952714 2.4996,-20.564874 3.0314,-10.69474 3.2721,-12.3627 1.9597,-13.57899 -0.5567,-0.51591 -0.9821,-0.64884 -2.077,-0.64884 -2.4169,0 -3.7094,1.28672 -6.5115,6.48229 -1.0715,1.98654 -1.9701,3.20378 -3.6065,4.88495 -1.5549,1.59752 -2.2609,2.15759 -2.4639,1.95455 -0.682,-0.68196 -1.0997,-4.91924 -0.9742,-9.88221 0.1032,-4.08114 0.2395,-5.37858 0.8196,-7.80521 1.3295,-5.56148 1.2088,-8.69227 -0.3867,-10.03485 -1.5512,-1.30529 -3.2697,-0.73826 -4.7986,1.58332 -0.9659,1.46669 -1.344,2.31815 -3.87,8.71612 -3.9194,9.92703 -9.4139,20.23969 -13.5263,25.38772 -1.6567,2.07388 -5.5333,5.82776 -7.5158,7.27779 -2.1999,1.609086 -5.5749,3.350917 -7.4274,3.833252 -1.8817,0.489956 -3.8833,0.533056 -4.3233,0.09311 -0.6592,-0.659236 -0.2485,-11.512022 0.632,-16.699892 1.0986,-6.47329 5.22,-17.56958 8.4693,-22.8024 3.5498,-5.71706 3.5458,-5.70894 3.5458,-7.15801 0,-1.16319 -0.1229,-1.51659 -0.7676,-2.2067 -0.6954,-0.74446 -0.9184,-0.82175 -2.3713,-0.82175 -3.0842,0 -5.8605,1.6509 -7.9494,4.72689 -2.4347,3.58529 -8.0828,15.89521 -13.1265,28.60918 -1.7027,4.29207 -3.4885,8.57832 -3.9684,9.525 -3.1976,6.307511 -13.2355,16.761783 -20.8719,21.737563 -0.8593,0.55991 -1.6518,1.01803 -1.7612,1.01803 -0.2794,0 -1.5754,-3.20235 -3.0018,-7.417218 -0.7061,-2.086424 -1.5117,-5.233299 -1.9304,-7.540624 -0.6407,-3.530944 -0.7152,-4.547371 -0.6871,-9.383821 0.035,-6.02959 0.3463,-8.71164 1.786,-15.38502 1.1012,-5.10495 2.5778,-10.10647 4.4406,-15.04206 2.4446,-6.47671 2.648,-7.66453 1.912,-11.16134 -0.224,-1.06455 -0.5789,-4.85593 -0.7886,-8.42526 -0.4799,-8.16965 -0.5622,-8.62851 -1.7898,-9.97654 -0.5903,-0.64831 -1.9568,-1.00891 -2.9134,-0.76883 -1.0184,0.25562 -2.4556,1.92503 -2.9411,3.41638 -0.2477,0.76081 -0.8664,4.00267 -1.3748,7.20413 -2.2898,14.41731 -3.8641,19.07776 -8.5354,25.26771 -2.235,2.96161 -10.014697,10.84792 -10.701297,10.84792 -0.9815,0 -3.6024,-4.17965 -5.8368,-9.30815 -2.5883,-5.94056 -4.5322,-12.76609 -5.6381,-19.79602 -0.7486,-4.75896 -0.6697,-19.75988 0.1392,-26.45833 0.7137,-5.9105299 1.567,-11.0537899 2.8311,-17.0656299 1.1816,-5.6196197 1.4548,-9.3938401 0.7823,-10.8109001 -0.614,-1.29392 -1.7081,-1.85065 -3.3304,-1.69479 -1.5342,0.14743 -1.2701,-0.0686 -9.3422,7.6407704 -3.4776,3.3212397 -6.4207,5.9781597 -6.5403,5.9042297 -0.6046,-0.37367 -2.4699,-7.8484401 -3.3296,-13.3424301 -0.6685,-4.27268 -0.6755,-14.49187 -0.012,-17.74905 1.1838,-5.81202 3.2464,-12.06116 7.5709,-22.93784 2.7188,-6.83802 3.4745,-9.24496 3.4745,-11.06595 0,-2.35914 -0.8837,-3.54508 -2.6416,-3.54508 -2.3127,0 -4.8133,2.91092 -9.2531,10.77156 -4.3407,7.68535 -11.7659,15.42219 -14.800801,15.42219 -0.9387,0 -2.2365,-1.55707 -3.1733,-3.80756 -1.5262,-3.66594 -3.0914,-11.29176 -4.2963,-20.93098 l -0.5953,-4.7625 0.9761,-7.54062 c 0.5369,-4.14735 1.4442,-11.1125 2.0163,-15.478135 2.4762,-18.896652 2.7973,-24.132722 2.7905,-45.508332 -0.01,-22.06371 0.056,-21.32872 -3.0769,-35.98333 -1.6775,-7.84694 -3.6643,-17.55066 -3.6643,-17.89621 0,-0.11361 0.751,0.36187 1.6688,1.05662 3.5987,2.72383 7.5343,2.71743 9.851201,-0.0161 4.3003,-5.07336 7.2618,-24.99625 5.5704,-37.47302 -0.6609,-4.87529 -0.4914,-13.87819 0.3438,-18.25659 2.0822,-10.91526 6.5925,-23.78948 12.3707,-35.31095 1.5997,-3.18958 1.7518,-3.23744 2.0641,-0.64947 0.5068,4.19989 2.446,9.17678 4.7668,12.23417 2.025,2.66766 6.4461,7.70546 8.2116,9.35694 5.1536,4.82097 9.8948,4.13017 13.832497,-2.01544 3.8674,-6.03591 7.0334,-14.32046 10.117,-26.47407 0.2074,-0.8173 0.3803,-1.07556 0.6055,-0.90427 0.1734,0.13187 2.3989,1.79059 4.9455,3.68604 2.5466,1.89545 5.1864,4.04347 5.8662,4.7734 1.5192,1.63108 2.5905,3.70809 3.519,6.82252 3.3279,11.16306 5.678,16.21502 10.0149,21.52902 4.4758,5.48415 9.28,7.85407 30.3236,14.95885 l 9.1102,3.07581 1.2086,-1.37105 c 2.1323,-2.41895 3.2521,-4.02158 4.1351,-5.91796 2.3965,-5.14683 2.9989,-8.92125 3.5402,-22.18079 0.1297,-3.17714 0.2755,-5.80985 0.3241,-5.85049 0.049,-0.0406 1.3385,0.1393 2.8664,0.39986 4.8092,0.82008 9.9434,1.11967 16.6215,0.96986 9.1028,-0.2042 12.4826,-0.94239 14.4906,-3.16492 1.5605,-1.72733 1.7833,-2.53074 1.9072,-6.87739 0.3992,-14.009 -3.331,-29.33716 -9.2897,-38.17321 -3.4945,-5.18194 -10.7813,-12.62766 -16.6395,-17.00226 -1.2804,-0.9562 -2.27,-1.79665 -2.199,-1.86764 0.071,-0.071 2.1249,0.83765 4.5643,2.0192 7.3847,3.5769 12.973,4.54488 26.2484,4.54668 7.4283,0 12.3134,-0.29467 17.7921,-1.07683 4.5706,-0.65249 6.7497,-1.31239 7.7371,-2.34297 l 0.755,-0.78806 0.4817,0.61241 c 0.7151,0.90916 2.7361,1.67293 7.0714,2.6725 8.0563,1.85751 13.4366,3.76957 20.8141,7.3969 12.3674,6.08074 18.9019,11.73597 26.0809,22.57145 1.3072,1.97292 2.3356,3.71618 2.2856,3.87389 -0.1328,0.41775 -2.4655,1.14197 -5.7934,1.79859 -2.6551,0.52385 -3.1737,0.54808 -5.8991,0.27569 -2.629,-0.26275 -3.6037,-0.52059 -8.1112,-2.14577 -2.8178,-1.01594 -5.803,-2.03747 -6.6338,-2.27007 -2.6353,-0.73774 -4.5383,-2.29182 -7.2804,-5.9455 -3.4732,-4.62783 -5.7796,-7.27761 -9.1233,-10.48168 -4.3398,-4.15862 -6.2789,-5.03722 -8.7958,-3.98561 -1.1378,0.47541 -1.468,1.1039 -1.468,2.79368 0,2.16094 0.3873,2.78916 5.7955,9.39957 2.846,3.47863 5.5816,7.32067 5.5816,7.83915 0,0.30612 -7.0811,0.28641 -9.2405,-0.0257 -2.5556,-0.36939 -4.4103,-1.44638 -10.0741,-5.84981 -2.8377,-2.2062 -5.435,-4.11612 -5.7719,-4.24423 -1.6355,-0.62196 -3.1914,0.009 -3.7693,1.52947 -0.5209,1.37004 -0.2925,3.83204 0.5136,5.53591 1.8385,3.8862 8.2841,9.0429 13.5357,10.82913 5.8573,1.99218 15.48,2.73965 20.1363,1.56413 2.7197,-0.68659 3.2318,-0.58031 10.5284,2.18483 5.3313,2.02038 9.2363,3.09073 14.2461,3.90475 4.8453,0.78729 4.7313,0.75554 6.5405,1.8211 0.7276,0.42854 4.7359,2.60381 8.9074,4.83393 4.1714,2.2301 8.3982,4.55494 9.3927,5.16626 0.9945,0.61132 3.1179,1.73027 4.7186,2.48652 3.9611,1.87146 5.5892,3.64284 8.2642,8.99123 2.2167,4.43222 4.7176,11.99489 4.1532,12.55927 -0.5201,0.52015 -3.1625,0.80217 -7.4926,0.79965 -8.3917,-0.005 -18.7327,-1.64245 -22.5826,-3.57613 -1.772,-0.89003 -3.0125,-2.02639 -6.491,-5.94633 -1.6142,-1.81901 -3.8062,-4.02151 -4.8712,-4.89445 -1.0649,-0.87294 -3.4245,-2.902 -5.2435,-4.50905 -5.7833,-5.10934 -7.0321,-5.94225 -8.9089,-5.94225 -2.9169,0 -4.1387,2.82818 -2.475,5.72892 0.43,0.7498 2.6436,3.30964 4.919,5.68854 3.9352,4.11416 4.2063,4.46727 5.5558,7.23566 1.4957,3.06846 2.6502,6.63562 2.9368,9.07405 l 0.1717,1.46068 -2.3564,-0.1579 c -7.5072,-0.50303 -17.371,-6.0134 -25.6725,-14.34187 -1.9097,-1.91593 -3.8923,-3.68282 -4.4056,-3.92642 -1.3589,-0.64482 -2.8859,-0.5793 -3.5523,0.1524 -1.5386,1.68921 -1.5283,3.07578 0.046,6.1908 3.8371,7.59193 13.4974,15.87849 22.4307,19.24098 5.6725,2.1351 14.4892,2.9124 18.2569,1.60951 2.2206,-0.76787 3.4866,-2.78963 3.83,-6.11632 0.08,-0.77658 0.1925,-1.41195 0.2498,-1.41195 0.057,0 0.6729,0.28824 1.3681,0.64056 2.7663,1.40179 7.291,2.43337 19.7446,4.50164 l 8.194,1.36084 1.2888,2.23858 c 1.4481,2.51521 3.7938,5.80991 7.3392,10.30838 1.319,1.67349 3.0665,4.11427 3.8834,5.42396 1.8091,2.9002 4.2837,7.98412 5.2803,10.84792 0.6991,2.00908 0.7368,2.3587 0.741,6.87916 0.01,6.56905 -0.067,6.89428 -2.0646,9.16125 -3.9103,4.43836 -4.0994,6.03232 -1.6299,13.74082 1.3315,4.15621 2.0428,7.63844 1.9277,9.4366 l -0.081,1.26341 -3.0428,0.30888 c -8.2283,0.83526 -17.3148,0.67212 -19.887,-0.35708 -2.7301,-1.09236 -7.6676,-8.53197 -11.2064,-16.88513 -0.6781,-1.60073 -1.9915,-4.27963 -2.9185,-5.95312 -0.9271,-1.67349 -2.1179,-4.29287 -2.6464,-5.82084 -1.6973,-4.90807 -4.0087,-8.6588 -5.9567,-9.66615 -0.465,-0.24043 -1.5101,-0.38801 -2.7478,-0.38801 h -1.9976 l 0.01,1.25677 c 0.01,2.0941 0.6988,6.50478 1.9716,12.59871 0.6646,3.18212 1.2844,6.85729 1.3774,8.16703 l 0.169,2.38136 -0.6371,-0.17333 c -0.3504,-0.0953 -2.0659,-0.8839 -3.8121,-1.75236 -5.6176,-2.79379 -10.8893,-6.96961 -17.0657,-13.5182 -5.176,-5.48796 -5.8734,-6.04957 -7.5124,-6.04957 -2.3615,0 -3.1522,1.84518 -2.1218,4.95171 0.5777,1.74156 2.4609,5.49568 3.6729,7.32157 3.3017,4.9742 12.4976,13.38707 16.9622,15.51781 2.904,1.386 6.2154,2.14056 10.0335,2.28643 2.9397,0.11229 3.6799,0.0551 5.0932,-0.39325 1.1888,-0.37711 1.6537,-0.43402 1.6537,-0.20243 0,0.17721 0.5322,1.41578 1.1828,2.75238 3.5809,7.35732 8.5313,12.28447 14.27,14.20299 2.2493,0.75194 4.9145,1.02304 13.149,1.33749 l 4.3924,0.16775 0.2936,1.27175 c 0.3723,1.61295 1.716,4.59665 6.8288,15.16305 5.5246,11.41757 7.1919,15.34375 9.6276,22.67067 5.8739,17.66998 8.5358,28.512587 10.2309,41.671877 0.6789,5.27066 0.6759,25.52573 0,31.61771 -1.557,13.93695 -3.839,25.09999 -7.1664,35.05729 -3.2278,9.6587701 -5.7271,14.2950901 -13.4537,24.95695 -6.004,8.28498 -8.8431,14.51555 -12.2383,26.85799 -2.1092,7.66728 -3.236,11.0844 -4.1091,12.46116 -0.4214,0.66455 -0.8613,1.20827 -0.9775,1.20827 -0.7307,0 -11.197,-9.41194 -13.371,-12.02401 -1.5437,-1.85481 -2.0615,-2.97696 -2.6924,-5.83536 -1.0257,-4.64722 -1.906,-5.95313 -4.0126,-5.95313 -0.9585,0 -1.3371,0.16531 -2.2338,0.97539 -2.1583,1.94995 -2.7869,3.89422 -3.2772,10.13711 -0.4138,5.26987 -0.8082,6.6702 -3.2045,11.37796 -2.5685,5.04618 -5.1402,8.44971 -9.8049,12.97628 -4.0028,3.88424 -9.2025,7.82587 -14.0311,10.63619 l -1.6303,0.94885 -3.2877,-3.35142 c -1.8082,-1.84327 -3.5931,-3.83665 -3.9663,-4.42976 -0.9908,-1.57433 -2.0914,-4.26712 -4.4787,-10.95843 -5.0656,-14.19815 -5.6485,-15.34758 -7.7836,-15.34758 -0.9232,0 -1.24,0.14144 -1.7958,0.80197 -0.9886,1.17489 -1.2091,2.2637 -1.4988,7.40011 -0.6638,11.77134 -3.0645,22.65577 -7.5313,34.14609 -2.4993,6.42906 -4.9012,11.123879 -7.4466,14.555472 -0.6942,0.935861 -4.3689,4.856711 -8.166,8.713021 -3.7971,3.8563 -7.328,7.52012 -7.8465,8.14178 l -0.9427,1.13035 -2.2555,-5.37935 z"
       id="path2701" />
    <path
       style="fill:#000000;stroke-width:0.264583"
       d="m 237.52878,296.87915 -4.7764,-8.88818 2.1488,-2.57432 c 1.1817,-1.41586 2.7098,-3.58565 3.3956,-4.82176 0.6858,-1.23611 1.9955,-3.42845 2.9104,-4.87188 0.9149,-1.44343 2.5488,-4.29067 3.6308,-6.32717 l 1.9673,-3.70271 1.2077,1.20277 c 1.7444,1.73728 2.8948,2.21396 5.6255,2.33103 2.0097,0.0862 2.4787,0.0164 3.7041,-0.55014 1.7916,-0.82847 3.936,-2.60938 5.9964,-4.97983 0.8934,-1.02783 1.6244,-1.75652 1.6244,-1.6193 0,0.13718 -1.0829,2.6757 -2.4065,5.64112 -1.3236,2.96543 -3.033,6.88118 -3.7987,8.70167 -1.798,4.27466 -1.8934,4.45654 -5.9959,11.42466 -1.9115,3.24657 -4.9059,8.40316 -6.6544,11.4591 -1.7484,3.05594 -3.3193,5.7603 -3.4908,6.00969 -0.2653,0.38553 -1.027,-0.87725 -5.0883,-8.43475 z"
       id="path2695" />
    <path
       style="fill:#000000;stroke-width:0.264583"
       d="m -167.35012,385.88117 c -0.02,-0.60672 1.941,-13.00293 2.7928,-17.653 0.7127,-3.89033 1.2555,-5.95937 1.7057,-6.50193 0.2954,-0.35584 3.0636,-1.08971 3.283,-0.87032 0.067,0.0666 -1.0609,3.62778 -2.5055,7.91382 -1.4446,4.28604 -3.2191,9.99546 -3.9434,12.68759 -0.7243,2.69214 -1.324,4.68286 -1.3326,4.42384 z"
       id="path2691" />
    <path
       style="fill:#000000;stroke-width:0.264583"
       d="m 77.281483,528.63181 c -0.092,-0.98227 -0.7729,-4.70297 -1.5119,-8.26823 -1.6601,-8.00931 -1.8984,-11.00077 -1.088,-13.65771 0.3054,-1.00124 1.0122,-2.95151 1.5708,-4.33396 l 1.0157,-2.51354 4.0877,-1.38292 c 7.5648,-2.55919 12.5309,-4.37396 16.6233,-6.07465 2.237797,-0.93001 4.127797,-1.63198 4.199797,-1.55993 0.072,0.072 -0.3578,0.68625 -0.9552,1.3649 -2.242097,2.54712 -5.461897,9.80753 -9.048697,20.40396 -2.7448,8.10876 -3.4816,9.64147 -5.5605,11.5661 -1.4547,1.34683 -8.4899,6.24192 -8.9709,6.24192 -0.1066,0 -0.2695,-0.80368 -0.3621,-1.78594 z"
       id="path2687" />
    <path
       style="fill:#000000;stroke-width:0.264583"
       d="m 115.62048,590.14743 c -0.078,-0.47294 -0.4455,-3.18161 -0.8165,-6.01927 -1.1208,-8.57186 -2.1321,-12.9155 -4.3119,-18.52083 -2.6573,-6.83311 -8.0701,-22.95343 -9.4675,-28.19593 -1.647097,-6.17964 -1.334597,-9.64134 1.9932,-22.07768 2.5422,-9.50029 4.513,-14.24549 8.1774,-19.68931 2.6799,-3.9813 3.0575,-4.78992 3.0575,-6.54805 0,-1.36974 -0.6107,-2.49425 -1.6375,-3.01516 -0.5201,-0.26384 -0.4726,-0.32494 0.6869,-0.88461 1.8969,-0.91548 8.5195,-4.62335 12.2259,-6.84503 8.3553,-5.00833 17.5896,-11.60696 22.5453,-16.11046 3.0911,-2.80902 6.8587,-6.85744 11.0373,-11.85981 16.3072,-19.52188 15.4512,-18.43815 18.808,-23.8125 1.3634,-2.18281 4.8562,-7.60016 7.762,-12.03854 7.8906,-12.05275 11.8649,-18.17801 14.8788,-22.93199 1.4919,-2.35339 4.1304,-6.16339 5.8632,-8.46667 6.7146,-8.92503 13.6569,-20.0501 19.0482,-30.5245 2.8379,-5.51355 3.6969,-6.94759 7.6022,-12.6918 1.6333,-2.40244 3.8748,-5.93106 4.981,-7.8414 1.1061,-1.91035 4.4837,-7.19752 7.5057,-11.74925 l 5.4944,-8.2759 0.9936,8.3121 c 2.0744,17.35288 2.8497,26.62753 3.4155,40.85587 0.4687,11.78663 0.093,25.8813 -0.8401,31.48541 -1.3982,8.40055 -6.1428,28.79982 -7.0937,30.499 -0.1255,0.22437 -0.6315,-0.26186 -1.5141,-1.45497 -4.3486,-5.87841 -6.3927,-11.55369 -7.1256,-19.78361 -1.0901,-12.24142 -1.6803,-14.48049 -4.079,-15.47408 -1.6374,-0.67823 -3.9095,0.43236 -4.4913,2.19533 -0.5359,1.62364 -0.7965,6.14868 -0.8033,13.94714 -0.01,8.32112 0.2198,11.29369 1.0668,13.96222 0.6678,2.10405 3.0073,7.06001 4.402,9.32519 l 1.0657,1.73082 -0.3338,2.10564 c -0.677,4.27 -0.865,7.85323 -1.7135,32.66503 -0.4681,13.68891 -1.2426,22.77314 -2.797,32.80833 -0.6212,4.01011 -1.366,7.77468 -4.7115,23.8125 -2.23,10.69031 -2.9371,15.67093 -4.5264,31.88229 -1.1943,12.18282 -1.568,15.30975 -2.5421,21.27211 -0.8356,5.1145 -2.5407,12.37292 -3.2038,13.63855 l -0.3906,0.74546 -1.2166,-1.95307 c -2.057,-3.30211 -4.3922,-8.90971 -5.4409,-13.06555 -0.6176,-2.44737 -1.7316,-10.16256 -5.0618,-35.05729 -2.6981,-20.16977 -3.2359,-23.7005 -4.0094,-26.32284 -0.778,-2.63763 -1.3381,-3.60487 -3.2784,-5.66176 -2.0698,-2.19403 -4.4167,-3.51081 -7.3226,-4.10848 -2.6284,-0.54057 -3.4032,-0.52837 -5.8277,0.0917 -4.3507,1.11273 -7.2894,3.37175 -9.0505,6.95733 -2.3864,4.85862 -2.25,6.76687 3.6765,51.40131 1.1014,8.29469 2.0637,15.37965 2.1385,15.74438 0.1081,0.5267 -0.3567,1.34315 -2.2591,3.96875 -1.3173,1.81808 -2.4971,3.34068 -2.6217,3.38352 -0.1247,0.0428 -0.9753,-0.85014 -1.8903,-1.98438 -5.7961,-7.18534 -8.7608,-14.55071 -10.202,-25.3456 -0.6255,-4.6853 -0.75,-15.19309 -0.2602,-21.96042 0.7921,-10.94435 1.033,-15.62211 0.8535,-16.57876 -0.2743,-1.46222 -1.3056,-2.33894 -2.7512,-2.33894 -2.3095,0 -3.8596,1.68642 -5.3809,5.85409 -1.9689,5.3939 -3.2102,11.65399 -3.9224,19.78226 -0.5155,5.8838 -0.5254,5.93516 -1.4217,7.40833 -0.4964,0.8159 -1.7131,3.03125 -2.7037,4.92302 -3.2018,6.11434 -9.602,17.02139 -12.6534,21.56354 -1.5658,2.33082 -8.1711,9.15154 -11.8,12.18489 -2.5665,2.14529 -7.1333,5.52704 -7.4771,5.53688 -0.1025,0.003 -0.2503,-0.38164 -0.3283,-0.85458 z"
       id="path2685" />
    <path
       style="fill:#000000;stroke-width:0.264583"
       d="m -64.251718,615.67972 c -1.8851,-3.12465 -2.4209,-4.71789 -4.036,-12.00102 -6.1203,-27.60017 -7.3567,-39.17154 -5.8061,-54.34325 0.223,-2.18281 0.4786,-4.99909 0.5678,-6.25837 0.1569,-2.21332 0.1394,-2.31251 -0.5246,-2.97656 -0.5164,-0.51642 -0.9566,-0.68694 -1.7731,-0.68694 -0.9431,0 -1.2738,0.1774 -2.5098,1.34633 -2.7239,2.57614 -4.9456,6.83194 -6.1158,11.71488 -1.3868,5.78704 -2.1354,7.57846 -6.041,14.45545 -5.5176,9.7155 -9.689402,15.03754 -17.726302,22.61365 l -3.6401,3.43135 -2.3568,-2.50531 c -3.5097,-3.73086 -3.7823,-4.27257 -3.9016,-7.75208 -0.1307,-3.8137 0.04,-5.06881 3.5323,-25.97406 5.281,-31.61303 5.4393,-32.91367 4.4156,-36.27567 -1.1813,-3.87933 -4.0488,-7.36495 -7.4441,-9.0487 -1.9518,-0.96795 -2.0034,-0.97756 -5.1594,-0.96311 -2.8241,0.013 -3.4142,0.0993 -5.1722,0.75692 -2.7624,1.03341 -4.7579,2.29944 -6.3223,4.01111 -1.484,1.62372 -2.1761,3.40622 -3.3312,8.57882 -0.3412,1.52797 -0.6314,2.59953 -0.6449,2.38125 -0.014,-0.21828 -0.1428,-1.4284 -0.2873,-2.68917 -0.1956,-1.70725 -0.1618,-3.53044 0.1328,-7.14375 0.2175,-2.6683 0.3962,-5.42877 0.3971,-6.13439 0,-1.61891 -0.6326,-2.97326 -1.7307,-3.69311 l -0.8545,-0.56012 -0.1773,-9.13815 c -0.2012,-10.36495 -0.432,-13.45391 -1.1883,-15.90228 -0.743,-2.40573 -1.8663,-3.46707 -3.8429,-3.63098 -3.3035,-0.27395 -4.1043,0.69 -10.5645,12.71685 -1.5458,2.87771 -3.6006,6.54801 -4.5663,8.15623 -2.171,3.61545 -5.4317,8.30741 -5.7733,8.30741 -0.5837,0 -3.0507,-11.75408 -4.7558,-22.65915 -1.4977,-9.57837 -1.7862,-12.76636 -2.6666,-29.46376 -0.1766,-3.34846 0.2234,-17.01861 0.6812,-23.28333 0.3301,-4.51734 1.2885,-12.73789 2.436,-20.89423 l 0.8572,-6.09327 0.1776,3.83646 c 0.2855,6.1673 0.9912,8.58736 3.2151,11.02579 3.4261,3.75663 7.6913,5.01473 9.4571,2.78958 0.4913,-0.61907 0.5486,-0.93821 0.4143,-2.306 -0.086,-0.87313 -0.5181,-2.77635 -0.9608,-4.22942 -1.1878,-3.89914 -1.4767,-6.81942 -1.0979,-11.09818 1.0041,-11.34219 6.6443,-32.95028 11.3801,-43.5987 0.8599,-1.93345 3.5236,-7.62302 5.9194,-12.64349 5.8858,-12.33416 6.6512,-14.21855 6.6702,-16.42253 0.018,-2.03578 -0.5016,-2.99532 -2.4133,-4.45942 -0.9118,-0.69834 -1.5034,-0.9325 -2.5819,-1.02192 -2.6701,-0.22143 -3.1188,0.18526 -9.2792,8.41012 -3.5691,4.76517 -6.8974,8.96983 -8.587,10.84792 l -0.8331,0.92604 0.166,-1.98438 c 0.5465,-6.53322 4.079,-19.27936 8.3802,-30.23774 3.6304,-9.24933 8.8493,-18.67088 12.5664,-22.6858 0.8344,-0.90125 2.5929,-2.54828 3.9078,-3.66014 3.7572,-3.17704 7.4088,-6.66776 12.2276,-11.68889 31.739302,-33.07239 35.234702,-36.84987 40.263902,-43.51388 1.5375,-2.03729 3.705,-4.80372 4.8166,-6.14765 3.5131,-4.24706 10.9304,-15.07577 16.1776,-23.61797 2.578,-4.1969 10.9154,-19.15515 14.3787,-25.79688 2.2214,-4.26008 11.8054,-25.30186 13.4972,-29.63333 0.6253,-1.60073 1.6755,-4.93448 2.3338,-7.40833 0.6583,-2.47386 2.2036,-7.8912 3.434,-12.03854 4.2895,-14.45948 6.5693,-22.82823 7.7057,-28.286261 0.376,-1.805755 1.4481,-6.211067 2.3825,-9.789583 0.9344,-3.578539 2.2107,-8.510169 2.8363,-10.959119 l 1.1374,-4.45267 1.8521,-0.0461 c 2.0621002,-0.0513 4.1320002,-0.85106 5.9695002,-2.3064 1.2347,-0.97788 8.2027,-9.41417 9.1677,-11.09946 0.375,-0.65484 1.938,-3.21469 3.4733,-5.68854 5.4688998,-8.81163 9.5019998,-17.46742 15.9205998,-34.16808 7.3767,-19.1934799 11.7149,-35.50563 14.2745,-53.67358 1.1676,-8.28771 0.9091,-7.639 2.2503,-5.6465 3.5471,5.26954 8.1341,7.12401 13.435201,5.43163 l 2.0495,-0.65432 -0.1974,1.49292 c -0.1086,0.82113 -0.1873,4.05278 -0.1749,7.18147 0.02,4.9252 0.1167,6.21565 0.7239,9.6165 1.9244,10.7772701 5.3448,20.8127801 7.6733,22.5139501 0.5788,0.42283 1.2428,0.56637 2.9513,0.63786 2.6566,0.11117 4.4634,-0.34743 7.2517,-1.84066 1.0747,-0.57552 1.9828,-1.01288 2.018,-0.97192 0.035,0.041 -0.1555,1.14604 -0.4238,2.45573 -1.6671,8.1379799 -2.1985,25.5579299 -1.0331,33.8666699 1.1622,8.28699 4.8957,19.86095 8.6627,26.8552 1.848,3.4312 3.1438,5.23383 5.3386,7.42651 2.6607,2.65817 4.2064,3.42435 6.8851,3.41278 3.4252,-0.0148 5.612297,-1.11424 10.106197,-5.08039 1.3107,-1.15673 2.4455,-2.04084 2.5217,-1.96464 0.076,0.0762 -0.074,1.60515 -0.3337,3.39765 -0.7397,5.10582 -0.6381,11.97528 0.2515,17.004821 1.992,11.261332 5.5959,21.866512 8.2112,24.162722 3.6336,3.1904 10.9923,0.83492 20.528,-6.5709 4.7332,-3.67598 10.7652,-9.92062 13.6291,-14.109455 l 1.0571,-1.546172 0.1933,1.132258 c 0.5255,3.078268 3.8536,5.375379 9.1777,6.334519 3.3516,0.60381 8.0208,-0.47027 12.6787,-2.916526 7.299,-3.83323 13.2277,-9.54831 19.0891,-18.401137 l 1.7658,-2.66695 0.9926,1.92834 c 1.7884,3.47401 3.6423,4.86074 6.4984,4.86074 h 1.6299 l -0.2075,1.25677 c -0.3182,1.92699 -0.2162,12.048359 0.1507,14.957453 0.1796,1.42351 0.6135,3.77356 0.9644,5.22237 1.1427,4.71958 5.4766,16.87973 6.7506,18.94096 2.3301,3.77026 7.836,4.94406 11.6991,2.49415 0.6845,-0.43413 2.2673,-2.09518 3.8318,-4.0214 1.4661,-1.80496 3.5002,-4.02347 4.5202,-4.93001 6.9085,-6.13992 12.8859,-13.02718 16.0059,-18.44217 2.6775,-4.64714 6.6632,-15.167163 9.0467,-23.878643 0.4081,-1.49159 0.8109,-2.70682 0.8952,-2.70052 0.084,0.006 0.6173,0.72522 1.1846,1.5976 2.5487,3.91938 9.6355,11.30155 11.9032,12.39936 2.195,1.062564 3.6692,0.58846 9.4716,-3.04607 12.5138,-7.83839 21.4668,-16.39559 26.5285,-25.35581 0.8658,-1.53273 1.6126,-2.74847 1.6595,-2.70158 0.095,0.0951 -1.0398,24.22202 -1.6505,35.086707 -1.9534,34.754896 -3.5426,48.209246 -8.3597,70.776036 -4.2096,19.72072 -4.6197,21.3246 -8.0786,31.5981 -3.811,11.31896 -13.316,37.42121 -13.5438,37.19343 -0.053,-0.0535 0.034,-1.89354 0.194,-4.08889 0.3636,-4.98372 0.3782,-16.80835 0.026,-21.3387 -0.6212,-7.99433 -1.9289,-14.79958 -3.4608,-18.00942 -0.9898,-2.07391 -2.0234,-2.86494 -3.7435,-2.86494 -1.0594,0 -1.3838,0.13211 -2.1116,0.85985 -0.787,0.78703 -0.8681,1.02452 -0.958,2.80461 -0.058,1.15689 0.178,4.02428 0.5835,7.07765 1.9709,14.83842 1.844,27.70175 -0.3881,39.34926 -1.8782,9.80077 -6.3309,19.56437 -10.7748,23.62576 -1.1304,1.03319 -1.5067,1.24899 -1.6697,0.95763 -0.1158,-0.20685 -0.5738,-1.73421 -1.0177,-3.39418 -0.9186,-3.43435 -2.1912,-6.16808 -3.2282,-6.93444 -0.8745,-0.64625 -3.0156,-0.87948 -4.2709,-0.46519 -1.4353,0.47368 -2.5968,1.9876 -3.8747,5.05023 -2.2007,5.27466 -3.5087,8.07768 -5.3641,11.4958 -3.6309,6.68909 -8.3099,13.86575 -10.8936,16.70886 l -1.4065,1.54771 -0.6848,-1.35141 c -1.051,-2.07394 -2.7246,-7.32595 -3.3194,-10.41652 -1.2959,-6.73343 -1.4049,-12.3218 -0.4113,-21.08382 0.7684,-6.77714 0.7327,-7.8713 -0.286,-8.74752 -0.9262,-0.79663 -2.9438,-0.82682 -3.9203,-0.0587 -1.6056,1.26296 -3.6045,5.57318 -4.7818,10.31084 -2.3058,9.27925 -1.8625,20.37672 1.1519,28.83958 1.253,3.51787 2.1336,5.25052 4.4657,8.78623 3.1145,4.72196 4.9638,6.14344 7.7886,5.9867 l 1.5962,-0.0886 5.1913,9.65729 5.1913,9.6573 -5.3177,8.06979 c -6.3786,9.67957 -8.34,12.79956 -10.2803,16.35252 -0.8074,1.47857 -3.0744,5.4832 -5.0377,8.89918 -1.9633,3.41598 -4.4305,7.85312 -5.4825,9.86033 -2.5655,4.89445 -3.5216,6.43686 -6.691,10.79317 -6.4915,8.92257 -20.2625,29.39434 -28.0319,41.67188 -2.164,3.41974 -4.89,7.58693 -6.0577,9.26041 -4.3076,6.17337 -18.0163,23.67415 -22.1637,28.29452 -7.9191,8.82232 -22.6166,19.18904 -39.8054,28.07621 -14.476397,7.48482 -25.836697,11.42243 -44.564697,15.44653 -2.3914,0.51385 -4.3831,0.89919 -4.426,0.85627 -0.2144,-0.21444 0.4748,-3.18217 0.9726,-4.18814 0.3621,-0.73168 2.5084,-3.07068 5.9099,-6.4406 5.8578,-5.80337 9.0245,-8.56665 12.5454,-10.94726 6.2366,-4.21683 15.7571,-13.76707 21.9249,-21.99336 2.368197,-3.15857 8.818897,-12.93799 11.867697,-17.99167 2.5863,-4.28709 9.2855,-17.67268 11.779,-23.53526 3.064,-7.20413 3.4991,-9.32487 2.224,-10.84027 -0.5589,-0.66421 -0.8838,-0.81405 -1.7652,-0.81405 -0.927,0 -1.2332,0.16037 -2.1593,1.13067 -1.909,2.00023 -5.9548,8.38023 -10.0147,15.7924 -5.8538,10.68753 -15.801697,25.47321 -22.768297,33.84082 -5.3478,6.42318 -13.601,14.60457 -16.9739,16.82617 -4.8566,3.19887 -17.8988,15.67342 -19.790101,18.92869 -1.6383,2.81982 -2.5727,6.69991 -2.5727,10.68329 v 1.6492 l -5.8326,1.39883 c -6.819,1.63544 -10.4721,2.7233 -24.5321,7.30549 -5.7137,1.86211 -10.4621998,3.31203 -10.5521998,3.22201 -0.1786,-0.17856 0.042,-0.78179 6.1231998,-16.7182 5.0606,-13.26253 4.8132,-12.69492 8.6903,-19.93622 7.8853,-14.72731 14.4715,-31.02229 17.7388,-43.88773 2.323,-9.14686 5.7749,-25.35698 6.495,-30.5 0.4929,-3.51983 1.0728,-11.16319 1.0743,-14.15973 0,-2.7812 -0.3604,-9.82843 -0.6543,-12.74316 l -0.1382,-1.37056 1.5824,0.64296 c 3.4911,1.41859 6.977301,0.36774 8.305001,-2.5033 0.542,-1.1719 0.5634,-1.57449 0.5502,-10.34746 -0.014,-9.41591 -0.3607,-15.11049 -1.4539,-23.90002 -1.185,-9.52752 -1.9322,-11.04054 -5.553101,-11.24514 -3.1483,-0.1779 -4.7534,1.10368 -4.7492,3.79204 0,1.41959 0.5647,6.99338 1.8158,17.99166 0.4304,3.78354 0.8502,8.06979 0.9329,9.525 l 0.1503,2.64584 -2.2317,-4.49792 c -1.2274,-2.47386 -2.775,-5.9862 -3.4391,-7.80521 -1.8507,-5.06934 -2.094,-5.50706 -3.3874,-6.09417 -2.0697,-0.93951 -3.8363,-0.51414 -4.8553,1.16908 -0.837,1.38251 -0.6722,9.76419 0.3726,18.94801 1.2463,10.95459 1.6684,17.15627 1.6749,24.60625 0.013,14.14745 -1.6811,24.8844 -6.6753,42.31983 -4.1465,14.47586 -7.1665,22.08414 -16.7042,42.08225 -4.8631998,10.19685 -7.5955998,16.31667 -9.8812998,22.13088 -1.9914,5.06569 -5.5823,15.55512 -6.9159,20.20245 -0.9329,3.25101 -0.9511,3.40635 -1.0674,9.12812 -0.1264,6.21406 0.2394,13.57257 0.868,17.4625 0.2117,1.30969 1.0466,4.70297 1.8554,7.54063 2.8073,9.8493 5.5344,21.59711 6.2649,26.9875 0.7386,5.44996 0.2633,30.47463 -0.5952,31.33569 -0.3164,0.31736 -6.7807,-6.05634 -10.3853,-10.2398 -3.7601,-4.36393 -5.7521002,-7.23294 -7.5747002,-10.90943 -2.4756,-4.99383 -3.8351,-9.91743 -5.6988,-20.6375 -1.9178,-11.03154 -2.4927,-13.05711 -4.1247,-14.53153 -2.5829,-2.33341 -5.566,-0.36335 -6.5832,4.34753 -0.1417,0.65622 -0.5037,4.10903 -0.8044,7.67291 -0.6066,7.18889 -1.333,13.31886 -2.1474,18.1215 -2.7018,15.93207 -5.7923,22.46897 -14.6981,31.08854 -5.1522,4.98658 -14.8334,13.49375 -15.3559,13.49375 -0.1352,0 -0.8024,-0.92273 -1.4828,-2.05052 z"
       id="path2683" />
  </g>
</svg>
