<?xml version="1.0" encoding="UTF-8" standalone="no"?>
<svg
   xmlns:dc="http://purl.org/dc/elements/1.1/"
   xmlns:cc="http://creativecommons.org/ns#"
   xmlns:rdf="http://www.w3.org/1999/02/22-rdf-syntax-ns#"
   xmlns:svg="http://www.w3.org/2000/svg"
   xmlns="http://www.w3.org/2000/svg"
   xmlns:sodipodi="http://sodipodi.sourceforge.net/DTD/sodipodi-0.dtd"
   xmlns:inkscape="http://www.inkscape.org/namespaces/inkscape"
   width="210mm"
   height="297mm"
   viewBox="0 0 210 297"
   version="1.1"
   id="svg1506"
   inkscape:version="1.0.1 (3bc2e813f5, 2020-09-07)"
   sodipodi:docname="Parrot-F_Silk_invsvg.svg">
  <defs
     id="defs1500" />
  <sodipodi:namedview
     id="base"
     pagecolor="#ffffff"
     bordercolor="#666666"
     borderopacity="1.0"
     inkscape:pageopacity="0.0"
     inkscape:pageshadow="2"
     inkscape:zoom="0.12374369"
     inkscape:cx="-1062.7776"
     inkscape:cy="334.50217"
     inkscape:document-units="mm"
     inkscape:current-layer="layer1"
     inkscape:document-rotation="0"
     showgrid="false"
     inkscape:window-width="2991"
     inkscape:window-height="1478"
     inkscape:window-x="362"
     inkscape:window-y="1276"
     inkscape:window-maximized="0" />
  <metadata
     id="metadata1503">
    <rdf:RDF>
      <cc:Work
         rdf:about="">
        <dc:format>image/svg+xml</dc:format>
        <dc:type
           rdf:resource="http://purl.org/dc/dcmitype/StillImage" />
        <dc:title></dc:title>
      </cc:Work>
    </rdf:RDF>
  </metadata>
  <g
     inkscape:label="Layer 1"
     inkscape:groupmode="layer"
     id="layer1">
    <path
       style="fill:#000000;stroke-width:0.264583"
       d="m -284.83852,990.36993 c 0,-0.56782 0.1142,-2.34209 0.251,-3.94282 2.1123,-24.71476 3.7149,-90.62876 5.0367,-207.16875 0.9678,-85.31703 1.5078,-118.49888 2.1271,-130.70416 1.113,-21.93528 3.5584,-53.82016 6.3514,-82.81458 2.1841,-22.67223 3.37,-31.95394 6.4659,-50.60754 0.7905,-4.7625 1.613,-10.00165 1.8277,-11.64251 0.4721,-3.60625 0.5484,-3.74521 5.844,-10.64266 3.9438,-5.13672 5.8399,-7.84553 7.2774,-10.39693 0.4752,-0.84339 0.9058,-1.49159 0.9569,-1.4405 0.051,0.0511 0.8545,2.11034 1.7854,4.5761 5.2476,13.89994 8.8817,21.51785 13.4669,28.22924 1.4254,2.08648 4.144,4.96126 4.6916,4.96126 0.118,0 -0.129,1.33945 -0.5489,2.97656 -2.7607,10.76362 -5.0209,24.00782 -7.7776,45.57448 -3.088,24.15958 -5.5475,38.75765 -9.9184,58.86979 -4.3496,20.0147 -7.8273,39.33894 -10.4517,58.07604 -0.8153,5.82083 -3.1408,21.35849 -5.1677,34.52812 -5.6365,36.62191 -5.9719,39.45559 -7.1399,60.325 -0.8689,15.52631 -1.604,25.04144 -3.1785,41.14271 -2.1611,22.10083 -3.0891,40.52641 -2.8249,56.08746 0.15,8.83261 0.4326,12.81961 1.5195,21.43545 2.096,16.61692 4.2565,27.58215 6.2182,31.56019 1.2224,2.47899 2.3604,3.31015 4.5613,3.33147 2.9187,0.0283 5.6163,-1.71431 11.3665,-7.34242 1.9282,-1.88722 3.5057,-3.32105 3.5057,-3.1863 0,0.13475 -0.2426,1.07805 -0.5391,2.09624 -3.8965,13.37882 -7.4038,33.29271 -8.6209,48.94707 -0.5368,6.90494 -0.032,5.99318 -5.6566,10.22387 -6.6955,5.03645 -12.4257,7.4295 -18.7109,7.81405 l -2.7204,0.16645 v -1.03238 z m 720.5754,-54.71991 c -3.7313,-1.84888 -7.7145,-4.39833 -11.2298,-7.18754 -3.2141,-2.55032 -9.7452,-9.21305 -10.8173,-11.0354 -1.2146,-2.06465 -2.1823,-5.05269 -3.8997,-12.04095 -1.933,-7.86534 -9.3954,-29.98446 -13.4206,-39.77973 -0.9182,-2.23446 -2.3573,-5.7295 -3.198,-7.76679 -0.8406,-2.03729 -1.8171,-4.41854 -2.17,-5.29167 -0.6595,-1.63208 -19.1646,-38.19866 -25.3064,-50.00624 -10.8723,-20.9019 -15.7391,-28.4406 -23.6737,-36.67046 -5.0187,-5.20547 -10.8104,-10.03025 -26.258,-21.87411 -4.5839,-3.51454 -8.6575,-6.6626 -9.0524,-6.99569 l -0.718,-0.60558 1.6083,-3.16806 c 1.9924,-3.92489 2.8409,-5.16811 6.5954,-9.66423 4.9192,-5.89084 6.0294,-7.98012 6.7378,-12.67931 0.4408,-2.92409 0.5,-10.07483 0.1141,-13.77902 -0.6044,-5.80192 -1.8578,-11.4059 -3.1943,-14.28157 -2.045,-4.40018 -6.2387,-7.90633 -14.4538,-12.08408 -4.2709,-2.17196 -8.0718,-3.48827 -12.8129,-4.43727 -3.7259,-0.74581 -4.6486,-0.87524 -15.1732,-2.12868 -4.2201,-0.50258 -9.2802,-1.22566 -11.2448,-1.60684 -6.4441,-1.25032 -14.4846,-1.18777 -23.5479,0.18319 -4.4973,0.6803 -9.1062,0.55931 -16.2718,-0.42716 -6.7933,-0.9352 -10.0144,-1.62002 -11.9063,-2.53138 -0.8731,-0.42061 -2.7781,-1.79504 -4.2333,-3.0543 -8.173,-7.07249 -9.287,-7.86513 -17.4517,-12.41745 -11.2986,-6.29959 -15.8918,-9.60667 -17.0356,-12.26571 -0.3081,-0.71623 -0.7384,-2.35683 -0.9561,-3.6458 -0.4423,-2.61832 -1.3205,-12.22163 -1.7265,-18.88003 -0.3262,-5.34913 -0.3453,-15.87347 -0.03,-16.37165 0.1945,-0.307 0.6212,-0.2908 2.712,0.10298 2.3164,0.43629 2.5799,0.43865 3.967,0.0354 0.8245,-0.23971 2.2063,-0.96237 3.1048,-1.62378 0.8904,-0.65553 1.619,-1.09844 1.619,-0.98427 0,1.06151 2.5356,15.08148 3.0464,16.84393 1.3456,4.64335 3.0121,6.72801 6.9308,8.66981 l 2.286,1.13279 3.8564,-0.007 c 3.4056,-0.006 4.0365,-0.079 5.3969,-0.62148 3.0205,-1.20446 6.8151,-4.87777 7.6164,-7.37303 0.1912,-0.59545 0.3645,-3.30192 0.4322,-6.74881 0.062,-3.16508 0.1527,-5.75469 0.2013,-5.75469 0.049,0 0.9579,0.41672 2.0207,0.92604 2.9217,1.40015 4.9994,1.16981 7.3511,-0.81504 1.154,-0.97399 2.752,-3.4412 3.4743,-5.36409 2.8192,-7.50496 5.7297,-23.60628 7.6592,-42.37191 1.3593,-13.21977 1.9019,-16.87869 4.3554,-29.36875 0.7862,-4.00182 2.097,-11.02651 2.913,-15.61041 0.816,-4.58391 1.5688,-8.60467 1.673,-8.93501 0.1683,-0.53356 0.8419,0.1315 6.0303,5.95313 3.2125,3.60455 7.7894,8.81594 10.1709,11.58084 2.3816,2.76489 5.3976,6.2177 6.7023,7.67291 1.3047,1.45521 6.4847,7.5274 11.511,13.49375 5.0264,5.96636 11.2342,13.2887 13.7952,16.27188 2.5609,2.98317 6.6061,7.80521 8.9892,10.71562 2.383,2.91042 5.8345,7.07761 7.6698,9.26042 4.1588,4.94625 7.5885,9.22308 12.3062,15.34583 2.0183,2.61938 4.5731,5.83406 5.6774,7.14375 5.3021,6.28854 20.2375,26.17369 28.5169,37.96771 3.7859,5.393 12.0162,18.36584 18.0449,28.44271 1.5671,2.61937 4.0417,6.72703 5.499,9.12812 9.11,15.0091 19.9217,35.50647 19.9217,37.76864 0,0.70037 -1.3225,2.6535 -2.6791,3.95673 -2.2031,2.11646 -5.2239,2.89513 -10.2728,2.64803 -5.0517,-0.24722 -10.9342,-1.63174 -13.6198,-3.20564 -2.4248,-1.42102 -4.6622,-4.43015 -17.4146,-23.42176 -9.3919,-13.98688 -13.2504,-19.36141 -15.9321,-22.19203 -1.4099,-1.4882 -1.7433,-1.70596 -2.7929,-1.82425 -0.9363,-0.10554 -1.3329,-0.0198 -1.8501,0.39928 -0.6165,0.49972 -0.6584,0.69104 -0.6584,3.01001 v 2.47637 l 1.7638,3.56573 c 0.9701,1.96117 3.5422,6.42327 5.7157,9.91577 2.1735,3.4925 4.5856,7.42156 5.3603,8.73124 0.7746,1.30969 4.7986,7.62 8.9422,14.02292 4.1436,6.40292 10.0326,15.63026 13.0866,20.50521 3.054,4.87495 6.6799,10.50877 8.0576,12.51958 1.3777,2.01083 4.2587,6.59474 6.4022,10.18646 2.1435,3.59174 5.1836,8.60644 6.7558,11.14382 1.5722,2.53738 4.1929,7.00223 5.8237,9.92188 1.6309,2.91965 3.8875,6.77796 5.0146,8.57401 6.2175,9.90769 20.7105,38.01599 28.0563,54.41362 2.829,6.31497 9.4824,23.8506 11.8942,31.34834 5.6251,17.48705 9.2188,42.88186 8.3654,59.11416 -0.1614,3.06969 -0.4661,6.40426 -0.6772,7.41015 -0.9069,4.32158 -3.7112,8.09297 -6.0178,8.09297 -0.343,0 -2.1646,-0.76358 -4.048,-1.69688 z m -696.8399,-18.47509 c -0.9647,-4.39046 -2.1999,-14.46588 -2.8303,-23.0874 -0.5905,-8.0767 -0.8387,-24.66459 -0.5524,-36.92816 0.3997,-17.12198 0.7683,-23.29749 3.5995,-60.30622 2.464,-32.20926 2.7538,-34.94489 6.3357,-59.81239 1.2275,-8.5221 2.7782,-19.71397 3.446,-24.87083 1.9413,-14.99177 2.8558,-20.82776 6.8946,-43.99616 2.9506,-16.92632 5.2024,-29.05588 7.1384,-38.45288 4.3475,-21.10134 5.1691,-25.26733 6.3041,-31.96669 1.8305,-10.80479 2.9856,-19.93307 4.5365,-35.85104 1.6724,-17.16445 3.6281,-26.74006 8.8623,-43.39166 1.8337,-5.83372 11.3067,-37.99647 12.9751,-44.05313 0.6013,-2.18281 1.4289,-5.51656 1.8392,-7.40833 0.4102,-1.89177 1.5415,-5.99943 2.5138,-9.12813 3.8054,-12.24449 10.342,-32.75419 14.3774,-45.11145 2.3285,-7.13052 4.381,-13.47137 4.561,-14.09076 0.1801,-0.61941 0.3739,-1.07968 0.4307,-1.02282 0.057,0.0568 -0.1349,1.81377 -0.4262,3.90429 -2.6375,18.93091 -3.8419,40.48448 -3.2211,57.64366 0.4132,11.41926 1.2934,22.87619 2.297,29.89792 1.1181,7.82304 6.7398,26.57924 8.9819,29.96729 1.2552,1.89679 3.2473,2.14018 5.0636,0.61867 0.554,-0.4641 1.783,-1.39012 2.731,-2.05782 3.8205,-2.69071 8.3925,-8.22259 12.5989,-15.24392 1.1449,-1.91103 2.1503,-3.47911 2.2343,-3.48461 0.084,-0.006 0.2927,0.74977 0.4638,1.67841 0.4172,2.26428 1.507,5.5531 2.3776,7.1751 l 0.71,1.32292 -0.4642,1.39943 c -1.003,3.02358 -1.3562,6.29158 -1.3643,12.62348 -0.01,5.75088 0.033,6.25774 0.7311,9.22028 1.26,5.34644 2.8856,9.62083 5.1842,13.63179 0.394,0.68746 0.4783,1.2025 0.3682,2.24895 -0.079,0.74653 -1.9701,12.31107 -4.2034,25.69898 -6.4464,38.64443 -6.7532,41.22629 -5.3096,44.68143 0.6694,1.60208 2.4287,3.96994 4.0973,5.51479 2.1367,1.97826 3.8231,2.61607 7.3758,2.78958 7.5318,0.36791 12.6515,-2.8253 14.7405,-9.19369 0.5557,-1.6942 2.4612,-10.91144 3.5938,-17.38447 l 0.333,-1.90278 2.6724,2.50587 c 2.7663,2.594 4.2665,3.54574 5.6001,3.55269 0.427,0.003 0.9075,0.0915 1.0678,0.19844 0.1602,0.10692 0.3719,1.44455 0.4702,2.97252 0.172,2.67168 0.4393,4.90794 1.4072,11.77395 0.3222,2.28587 0.4472,4.99028 0.4462,9.6573 0,6.16428 -0.035,6.60847 -0.6956,9.05422 -1.687,6.2488 -4.9711,12.12612 -9.4866,16.9772 l -1.4497,1.55747 -4.2228,-0.4246 c -7.8091,-0.7852 -13.3616,-1.04259 -19.0395,-0.88252 -6.5937,0.18587 -8.5407,0.44667 -12.4249,1.66436 -1.6065,0.50366 -4.5878,1.32863 -6.6251,1.8333 -8.7469,2.16675 -9.9703,2.49828 -11.5003,3.11626 -2.5855,1.04431 -4.4425,2.28815 -6.595,4.41738 -6.1426,6.07605 -10.0082,16.4215 -11.8113,31.61088 -0.5191,4.37203 -0.5921,12.23756 -0.1363,14.6707 0.4638,2.47599 1.6205,4.82311 3.1017,6.29383 1.3224,1.31318 4.8211,3.71379 9.2051,6.31621 1.8503,1.09834 2.4991,1.61843 2.4056,1.92828 -0.07,0.23339 -1.2106,4.88916 -2.5338,10.34619 -4.1008,16.91336 -6.7428,26.68032 -10.449,38.62916 -1.7449,5.62573 -3.7161,11.68993 -10.5784,32.54375 -3.4506,10.48613 -5.2745,16.39718 -5.9596,19.31459 -0.7771,3.3094 -6.9814,19.18086 -10.7046,27.38437 -6.2692,13.81289 -14.6518,29.03196 -21.9326,39.81979 -4.8718,7.21847 -12.1348,16.49746 -16.7626,21.4154 l -2.3504,2.49769 z m -54.132,-11.43756 c -1.0733,-0.20119 -2.0622,-0.47649 -2.1975,-0.61175 -0.75,-0.75006 3.4547,-12.46827 8.9925,-25.06101 4.1154,-9.3585 16.5365,-37.11175 17.4662,-39.02604 0.2563,-0.52779 0.2939,0.99602 0.1861,7.54062 -0.074,4.51115 -0.2135,16.98623 -0.3094,27.72241 l -0.1745,19.52032 -3.2087,3.10155 c -3.6874,3.56431 -6.0174,5.4019 -8.0876,6.37834 -1.3738,0.64799 -1.7142,0.68961 -6.0854,0.74388 -3.0576,0.038 -5.293,-0.0668 -6.5817,-0.30832 z M -64.251718,615.67972 c -1.8851,-3.12465 -2.4209,-4.71789 -4.036,-12.00102 -6.1203,-27.60017 -7.3567,-39.17154 -5.8061,-54.34325 0.223,-2.18281 0.4786,-4.99909 0.5678,-6.25837 0.1569,-2.21332 0.1394,-2.31251 -0.5246,-2.97656 -0.5164,-0.51642 -0.9566,-0.68694 -1.7731,-0.68694 -0.9431,0 -1.2738,0.1774 -2.5098,1.34633 -2.7239,2.57614 -4.9456,6.83194 -6.1158,11.71488 -1.3868,5.78704 -2.1354,7.57846 -6.041,14.45545 -5.5176,9.7155 -9.689402,15.03754 -17.726302,22.61365 l -3.6401,3.43135 -2.3568,-2.50531 c -3.5097,-3.73086 -3.7823,-4.27257 -3.9016,-7.75208 -0.1307,-3.8137 0.04,-5.06881 3.5323,-25.97406 5.281,-31.61303 5.4393,-32.91367 4.4156,-36.27567 -1.1813,-3.87933 -4.0488,-7.36495 -7.4441,-9.0487 -1.9518,-0.96795 -2.0034,-0.97756 -5.1594,-0.96311 -2.8241,0.013 -3.4142,0.0993 -5.1722,0.75692 -2.7624,1.03341 -4.7579,2.29944 -6.3223,4.01111 -1.484,1.62372 -2.1761,3.40622 -3.3312,8.57882 -0.3412,1.52797 -0.6314,2.59953 -0.6449,2.38125 -0.014,-0.21828 -0.1428,-1.4284 -0.2873,-2.68917 -0.1956,-1.70725 -0.1618,-3.53044 0.1328,-7.14375 0.2175,-2.6683 0.3962,-5.42877 0.3971,-6.13439 0,-1.61891 -0.6326,-2.97326 -1.7307,-3.69311 l -0.8545,-0.56012 -0.1773,-9.13815 c -0.2012,-10.36495 -0.432,-13.45391 -1.1883,-15.90228 -0.743,-2.40573 -1.8663,-3.46707 -3.8429,-3.63098 -3.3035,-0.27395 -4.1043,0.69 -10.5645,12.71685 -1.5458,2.87771 -3.6006,6.54801 -4.5663,8.15623 -2.171,3.61545 -5.4317,8.30741 -5.7733,8.30741 -0.5837,0 -3.0507,-11.75408 -4.7558,-22.65915 -1.4977,-9.57837 -1.7862,-12.76636 -2.6666,-29.46376 -0.1766,-3.34846 0.2234,-17.01861 0.6812,-23.28333 0.3301,-4.51734 1.2885,-12.73789 2.436,-20.89423 l 0.8572,-6.09327 0.1776,3.83646 c 0.2855,6.1673 0.9912,8.58736 3.2151,11.02579 3.4261,3.75663 7.6913,5.01473 9.4571,2.78958 0.4913,-0.61907 0.5486,-0.93821 0.4143,-2.306 -0.086,-0.87313 -0.5181,-2.77635 -0.9608,-4.22942 -1.1878,-3.89914 -1.4767,-6.81942 -1.0979,-11.09818 1.0041,-11.34219 6.6443,-32.95028 11.3801,-43.5987 0.8599,-1.93345 3.5236,-7.62302 5.9194,-12.64349 5.8858,-12.33416 6.6512,-14.21855 6.6702,-16.42253 0.018,-2.03578 -0.5016,-2.99532 -2.4133,-4.45942 -0.9118,-0.69834 -1.5034,-0.9325 -2.5819,-1.02192 -2.6701,-0.22143 -3.1188,0.18526 -9.2792,8.41012 -3.5691,4.76517 -6.8974,8.96983 -8.587,10.84792 l -0.8331,0.92604 0.166,-1.98438 c 0.5465,-6.53322 4.079,-19.27936 8.3802,-30.23774 3.6304,-9.24933 8.8493,-18.67088 12.5664,-22.6858 0.8344,-0.90125 2.5929,-2.54828 3.9078,-3.66014 3.7572,-3.17704 7.4088,-6.66776 12.2276,-11.68889 31.739302,-33.07239 35.234702,-36.84987 40.263902,-43.51388 1.5375,-2.03729 3.705,-4.80372 4.8166,-6.14765 3.5131,-4.24706 10.9304,-15.07577 16.1776,-23.61797 2.578,-4.1969 10.9154,-19.15515 14.3787,-25.79688 2.2214,-4.26008 11.8054,-25.30186 13.4972,-29.63333 0.6253,-1.60073 1.6755,-4.93448 2.3338,-7.40833 0.6583,-2.47386 2.2036,-7.8912 3.434,-12.03854 4.2895,-14.45948 6.5693,-22.82823 7.7057,-28.286261 0.376,-1.805755 1.4481,-6.211067 2.3825,-9.789583 0.9344,-3.578539 2.2107,-8.510169 2.8363,-10.959119 l 1.1374,-4.45267 1.8521,-0.0461 c 2.0621002,-0.0513 4.1320002,-0.85106 5.9695002,-2.3064 1.2347,-0.97788 8.2027,-9.41417 9.1677,-11.09946 0.375,-0.65484 1.938,-3.21469 3.4733,-5.68854 5.4688998,-8.81163 9.5019998,-17.46742 15.9205998,-34.16808 7.3767,-19.1934799 11.7149,-35.50563 14.2745,-53.67358 1.1676,-8.28771 0.9091,-7.639 2.2503,-5.6465 3.5471,5.26954 8.1341,7.12401 13.435201,5.43163 l 2.0495,-0.65432 -0.1974,1.49292 c -0.1086,0.82113 -0.1873,4.05278 -0.1749,7.18147 0.02,4.9252 0.1167,6.21565 0.7239,9.6165 1.9244,10.7772701 5.3448,20.8127801 7.6733,22.5139501 0.5788,0.42283 1.2428,0.56637 2.9513,0.63786 2.6566,0.11117 4.4634,-0.34743 7.2517,-1.84066 1.0747,-0.57552 1.9828,-1.01288 2.018,-0.97192 0.035,0.041 -0.1555,1.14604 -0.4238,2.45573 -1.6671,8.1379799 -2.1985,25.5579299 -1.0331,33.8666699 1.1622,8.28699 4.8957,19.86095 8.6627,26.8552 1.848,3.4312 3.1438,5.23383 5.3386,7.42651 2.6607,2.65817 4.2064,3.42435 6.8851,3.41278 3.4252,-0.0148 5.612297,-1.11424 10.106197,-5.08039 1.3107,-1.15673 2.4455,-2.04084 2.5217,-1.96464 0.076,0.0762 -0.074,1.60515 -0.3337,3.39765 -0.7397,5.10582 -0.6381,11.97528 0.2515,17.004821 1.992,11.261332 5.5959,21.866512 8.2112,24.162722 3.6336,3.1904 10.9923,0.83492 20.528,-6.5709 4.7332,-3.67598 10.7652,-9.92062 13.6291,-14.109455 l 1.0571,-1.546172 0.1933,1.132258 c 0.5255,3.078268 3.8536,5.375379 9.1777,6.334519 3.3516,0.60381 8.0208,-0.47027 12.6787,-2.916526 7.299,-3.83323 13.2277,-9.54831 19.0891,-18.401137 l 1.7658,-2.66695 0.9926,1.92834 c 1.7884,3.47401 3.6423,4.86074 6.4984,4.86074 h 1.6299 l -0.2075,1.25677 c -0.3182,1.92699 -0.2162,12.048359 0.1507,14.957453 0.1796,1.42351 0.6135,3.77356 0.9644,5.22237 1.1427,4.71958 5.4766,16.87973 6.7506,18.94096 2.3301,3.77026 7.836,4.94406 11.6991,2.49415 0.6845,-0.43413 2.2673,-2.09518 3.8318,-4.0214 1.4661,-1.80496 3.5002,-4.02347 4.5202,-4.93001 6.9085,-6.13992 12.8859,-13.02718 16.0059,-18.44217 2.6775,-4.64714 6.6632,-15.167163 9.0467,-23.878643 0.4081,-1.49159 0.8109,-2.70682 0.8952,-2.70052 0.084,0.006 0.6173,0.72522 1.1846,1.5976 2.5487,3.91938 9.6355,11.30155 11.9032,12.39936 2.195,1.062564 3.6692,0.58846 9.4716,-3.04607 12.5138,-7.83839 21.4668,-16.39559 26.5285,-25.35581 0.8658,-1.53273 1.6126,-2.74847 1.6595,-2.70158 0.095,0.0951 -1.0398,24.22202 -1.6505,35.086707 -1.9534,34.754896 -3.5426,48.209246 -8.3597,70.776036 -4.2096,19.72072 -4.6197,21.3246 -8.0786,31.5981 -3.811,11.31896 -13.316,37.42121 -13.5438,37.19343 -0.053,-0.0535 0.034,-1.89354 0.194,-4.08889 0.3636,-4.98372 0.3782,-16.80835 0.026,-21.3387 -0.6212,-7.99433 -1.9289,-14.79958 -3.4608,-18.00942 -0.9898,-2.07391 -2.0234,-2.86494 -3.7435,-2.86494 -1.0594,0 -1.3838,0.13211 -2.1116,0.85985 -0.787,0.78703 -0.8681,1.02452 -0.958,2.80461 -0.058,1.15689 0.178,4.02428 0.5835,7.07765 1.9709,14.83842 1.844,27.70175 -0.3881,39.34926 -1.8782,9.80077 -6.3309,19.56437 -10.7748,23.62576 -1.1304,1.03319 -1.5067,1.24899 -1.6697,0.95763 -0.1158,-0.20685 -0.5738,-1.73421 -1.0177,-3.39418 -0.9186,-3.43435 -2.1912,-6.16808 -3.2282,-6.93444 -0.8745,-0.64625 -3.0156,-0.87948 -4.2709,-0.46519 -1.4353,0.47368 -2.5968,1.9876 -3.8747,5.05023 -2.2007,5.27466 -3.5087,8.07768 -5.3641,11.4958 -3.6309,6.68909 -8.3099,13.86575 -10.8936,16.70886 l -1.4065,1.54771 -0.6848,-1.35141 c -1.051,-2.07394 -2.7246,-7.32595 -3.3194,-10.41652 -1.2959,-6.73343 -1.4049,-12.3218 -0.4113,-21.08382 0.7684,-6.77714 0.7327,-7.8713 -0.286,-8.74752 -0.9262,-0.79663 -2.9438,-0.82682 -3.9203,-0.0587 -1.6056,1.26296 -3.6045,5.57318 -4.7818,10.31084 -2.3058,9.27925 -1.8625,20.37672 1.1519,28.83958 1.253,3.51787 2.1336,5.25052 4.4657,8.78623 3.1145,4.72196 4.9638,6.14344 7.7886,5.9867 l 1.5962,-0.0886 5.1913,9.65729 5.1913,9.6573 -5.3177,8.06979 c -6.3786,9.67957 -8.34,12.79956 -10.2803,16.35252 -0.8074,1.47857 -3.0744,5.4832 -5.0377,8.89918 -1.9633,3.41598 -4.4305,7.85312 -5.4825,9.86033 -2.5655,4.89445 -3.5216,6.43686 -6.691,10.79317 -6.4915,8.92257 -20.2625,29.39434 -28.0319,41.67188 -2.164,3.41974 -4.89,7.58693 -6.0577,9.26041 -4.3076,6.17337 -18.0163,23.67415 -22.1637,28.29452 -7.9191,8.82232 -22.6166,19.18904 -39.8054,28.07621 -14.476397,7.48482 -25.836697,11.42243 -44.564697,15.44653 -2.3914,0.51385 -4.3831,0.89919 -4.426,0.85627 -0.2144,-0.21444 0.4748,-3.18217 0.9726,-4.18814 0.3621,-0.73168 2.5084,-3.07068 5.9099,-6.4406 5.8578,-5.80337 9.0245,-8.56665 12.5454,-10.94726 6.2366,-4.21683 15.7571,-13.76707 21.9249,-21.99336 2.368197,-3.15857 8.818897,-12.93799 11.867697,-17.99167 2.5863,-4.28709 9.2855,-17.67268 11.779,-23.53526 3.064,-7.20413 3.4991,-9.32487 2.224,-10.84027 -0.5589,-0.66421 -0.8838,-0.81405 -1.7652,-0.81405 -0.927,0 -1.2332,0.16037 -2.1593,1.13067 -1.909,2.00023 -5.9548,8.38023 -10.0147,15.7924 -5.8538,10.68753 -15.801697,25.47321 -22.768297,33.84082 -5.3478,6.42318 -13.601,14.60457 -16.9739,16.82617 -4.8566,3.19887 -17.8988,15.67342 -19.790101,18.92869 -1.6383,2.81982 -2.5727,6.69991 -2.5727,10.68329 v 1.6492 l -5.8326,1.39883 c -6.819,1.63544 -10.4721,2.7233 -24.5321,7.30549 -5.7137,1.86211 -10.4621998,3.31203 -10.5521998,3.22201 -0.1786,-0.17856 0.042,-0.78179 6.1231998,-16.7182 5.0606,-13.26253 4.8132,-12.69492 8.6903,-19.93622 7.8853,-14.72731 14.4715,-31.02229 17.7388,-43.88773 2.323,-9.14686 5.7749,-25.35698 6.495,-30.5 0.4929,-3.51983 1.0728,-11.16319 1.0743,-14.15973 0,-2.7812 -0.3604,-9.82843 -0.6543,-12.74316 l -0.1382,-1.37056 1.5824,0.64296 c 3.4911,1.41859 6.977301,0.36774 8.305001,-2.5033 0.542,-1.1719 0.5634,-1.57449 0.5502,-10.34746 -0.014,-9.41591 -0.3607,-15.11049 -1.4539,-23.90002 -1.185,-9.52752 -1.9322,-11.04054 -5.553101,-11.24514 -3.1483,-0.1779 -4.7534,1.10368 -4.7492,3.79204 0,1.41959 0.5647,6.99338 1.8158,17.99166 0.4304,3.78354 0.8502,8.06979 0.9329,9.525 l 0.1503,2.64584 -2.2317,-4.49792 c -1.2274,-2.47386 -2.775,-5.9862 -3.4391,-7.80521 -1.8507,-5.06934 -2.094,-5.50706 -3.3874,-6.09417 -2.0697,-0.93951 -3.8363,-0.51414 -4.8553,1.16908 -0.837,1.38251 -0.6722,9.76419 0.3726,18.94801 1.2463,10.95459 1.6684,17.15627 1.6749,24.60625 0.013,14.14745 -1.6811,24.8844 -6.6753,42.31983 -4.1465,14.47586 -7.1665,22.08414 -16.7042,42.08225 -4.8631998,10.19685 -7.5955998,16.31667 -9.8812998,22.13088 -1.9914,5.06569 -5.5823,15.55512 -6.9159,20.20245 -0.9329,3.25101 -0.9511,3.40635 -1.0674,9.12812 -0.1264,6.21406 0.2394,13.57257 0.868,17.4625 0.2117,1.30969 1.0466,4.70297 1.8554,7.54063 2.8073,9.8493 5.5344,21.59711 6.2649,26.9875 0.7386,5.44996 0.2633,30.47463 -0.5952,31.33569 -0.3164,0.31736 -6.7807,-6.05634 -10.3853,-10.2398 -3.7601,-4.36393 -5.7521002,-7.23294 -7.5747002,-10.90943 -2.4756,-4.99383 -3.8351,-9.91743 -5.6988,-20.6375 -1.9178,-11.03154 -2.4927,-13.05711 -4.1247,-14.53153 -2.5829,-2.33341 -5.566,-0.36335 -6.5832,4.34753 -0.1417,0.65622 -0.5037,4.10903 -0.8044,7.67291 -0.6066,7.18889 -1.333,13.31886 -2.1474,18.1215 -2.7018,15.93207 -5.7923,22.46897 -14.6981,31.08854 -5.1522,4.98658 -14.8334,13.49375 -15.3559,13.49375 -0.1352,0 -0.8024,-0.92273 -1.4828,-2.05052 z M 115.62048,590.14743 c -0.078,-0.47294 -0.4455,-3.18161 -0.8165,-6.01927 -1.1208,-8.57186 -2.1321,-12.9155 -4.3119,-18.52083 -2.6573,-6.83311 -8.0701,-22.95343 -9.4675,-28.19593 -1.647097,-6.17964 -1.334597,-9.64134 1.9932,-22.07768 2.5422,-9.50029 4.513,-14.24549 8.1774,-19.68931 2.6799,-3.9813 3.0575,-4.78992 3.0575,-6.54805 0,-1.36974 -0.6107,-2.49425 -1.6375,-3.01516 -0.5201,-0.26384 -0.4726,-0.32494 0.6869,-0.88461 1.8969,-0.91548 8.5195,-4.62335 12.2259,-6.84503 8.3553,-5.00833 17.5896,-11.60696 22.5453,-16.11046 3.0911,-2.80902 6.8587,-6.85744 11.0373,-11.85981 16.3072,-19.52188 15.4512,-18.43815 18.808,-23.8125 1.3634,-2.18281 4.8562,-7.60016 7.762,-12.03854 7.8906,-12.05275 11.8649,-18.17801 14.8788,-22.93199 1.4919,-2.35339 4.1304,-6.16339 5.8632,-8.46667 6.7146,-8.92503 13.6569,-20.0501 19.0482,-30.5245 2.8379,-5.51355 3.6969,-6.94759 7.6022,-12.6918 1.6333,-2.40244 3.8748,-5.93106 4.981,-7.8414 1.1061,-1.91035 4.4837,-7.19752 7.5057,-11.74925 l 5.4944,-8.2759 0.9936,8.3121 c 2.0744,17.35288 2.8497,26.62753 3.4155,40.85587 0.4687,11.78663 0.093,25.8813 -0.8401,31.48541 -1.3982,8.40055 -6.1428,28.79982 -7.0937,30.499 -0.1255,0.22437 -0.6315,-0.26186 -1.5141,-1.45497 -4.3486,-5.87841 -6.3927,-11.55369 -7.1256,-19.78361 -1.0901,-12.24142 -1.6803,-14.48049 -4.079,-15.47408 -1.6374,-0.67823 -3.9095,0.43236 -4.4913,2.19533 -0.5359,1.62364 -0.7965,6.14868 -0.8033,13.94714 -0.01,8.32112 0.2198,11.29369 1.0668,13.96222 0.6678,2.10405 3.0073,7.06001 4.402,9.32519 l 1.0657,1.73082 -0.3338,2.10564 c -0.677,4.27 -0.865,7.85323 -1.7135,32.66503 -0.4681,13.68891 -1.2426,22.77314 -2.797,32.80833 -0.6212,4.01011 -1.366,7.77468 -4.7115,23.8125 -2.23,10.69031 -2.9371,15.67093 -4.5264,31.88229 -1.1943,12.18282 -1.568,15.30975 -2.5421,21.27211 -0.8356,5.1145 -2.5407,12.37292 -3.2038,13.63855 l -0.3906,0.74546 -1.2166,-1.95307 c -2.057,-3.30211 -4.3922,-8.90971 -5.4409,-13.06555 -0.6176,-2.44737 -1.7316,-10.16256 -5.0618,-35.05729 -2.6981,-20.16977 -3.2359,-23.7005 -4.0094,-26.32284 -0.778,-2.63763 -1.3381,-3.60487 -3.2784,-5.66176 -2.0698,-2.19403 -4.4167,-3.51081 -7.3226,-4.10848 -2.6284,-0.54057 -3.4032,-0.52837 -5.8277,0.0917 -4.3507,1.11273 -7.2894,3.37175 -9.0505,6.95733 -2.3864,4.85862 -2.25,6.76687 3.6765,51.40131 1.1014,8.29469 2.0637,15.37965 2.1385,15.74438 0.1081,0.5267 -0.3567,1.34315 -2.2591,3.96875 -1.3173,1.81808 -2.4971,3.34068 -2.6217,3.38352 -0.1247,0.0428 -0.9753,-0.85014 -1.8903,-1.98438 -5.7961,-7.18534 -8.7608,-14.55071 -10.202,-25.3456 -0.6255,-4.6853 -0.75,-15.19309 -0.2602,-21.96042 0.7921,-10.94435 1.033,-15.62211 0.8535,-16.57876 -0.2743,-1.46222 -1.3056,-2.33894 -2.7512,-2.33894 -2.3095,0 -3.8596,1.68642 -5.3809,5.85409 -1.9689,5.3939 -3.2102,11.65399 -3.9224,19.78226 -0.5155,5.8838 -0.5254,5.93516 -1.4217,7.40833 -0.4964,0.8159 -1.7131,3.03125 -2.7037,4.92302 -3.2018,6.11434 -9.602,17.02139 -12.6534,21.56354 -1.5658,2.33082 -8.1711,9.15154 -11.8,12.18489 -2.5665,2.14529 -7.1333,5.52704 -7.4771,5.53688 -0.1025,0.003 -0.2503,-0.38164 -0.3283,-0.85458 z M 77.281483,528.63181 c -0.092,-0.98227 -0.7729,-4.70297 -1.5119,-8.26823 -1.6601,-8.00931 -1.8984,-11.00077 -1.088,-13.65771 0.3054,-1.00124 1.0122,-2.95151 1.5708,-4.33396 l 1.0157,-2.51354 4.0877,-1.38292 c 7.5648,-2.55919 12.5309,-4.37396 16.6233,-6.07465 2.237797,-0.93001 4.127797,-1.63198 4.199797,-1.55993 0.072,0.072 -0.3578,0.68625 -0.9552,1.3649 -2.242097,2.54712 -5.461897,9.80753 -9.048697,20.40396 -2.7448,8.10876 -3.4816,9.64147 -5.5605,11.5661 -1.4547,1.34683 -8.4899,6.24192 -8.9709,6.24192 -0.1066,0 -0.2695,-0.80368 -0.3621,-1.78594 z M -227.51292,502.43806 c -4.1152,-8.13872 -8.7802,-19.15499 -10.7374,-25.35621 -2.7101,-8.587 -5.9074,-27.00367 -7.2767,-41.9141 -1.8416,-20.05441 -1.7967,-43.37936 0.1217,-63.23542 1.385,-14.33536 3.3795,-27.67594 5.3995,-36.11562 1.0847,-4.53218 1.5189,-7.3038 1.5621,-9.97156 0.042,-2.6157 -0.486,-3.47906 -2.206,-3.60522 -0.942,-0.0691 -1.2643,0.042 -1.9196,0.66146 -2.7071,2.55934 -5.1502,7.93613 -7.9724,17.54553 -3.7174,12.65811 -4.7966,18.66796 -5.5113,30.69166 -0.477,8.02381 -0.4793,62.45693 0,70.37917 0.433,7.20328 0.9762,12.49619 1.6969,16.53646 0.3586,2.01046 0.5634,4.24248 0.5583,6.08541 -0.01,2.67925 -0.087,3.13108 -0.9974,5.68854 -1.3057,3.66641 -3.9962,8.92051 -6.0399,11.79476 -2.0496,2.88271 -5.9408,6.99981 -8.7613,9.27018 -1.9705,1.58612 -6.1135,4.33506 -6.5335,4.33506 -0.098,0 -0.7751,-1.57758 -1.505,-3.50573 -4.2866,-11.32363 -5.9559,-18.95636 -6.698,-30.62552 -0.4078,-6.41278 -0.1524,-35.18852 0.4051,-45.64062 2.1409,-40.1361 3.4413,-54.18653 7.5794,-81.88854 2.5844,-17.30089 3.2032,-20.48584 6.742,-34.69994 2.2554,-9.0596 2.7604,-11.55512 2.7604,-13.64179 0,-1.59231 -0.062,-1.77448 -0.8516,-2.5123 -0.7461,-0.69701 -0.9949,-0.77935 -2.0089,-0.66505 -1.7583,0.1982 -2.9557,1.52728 -4.819,5.34929 -3.0874,6.33262 -6.851,18.88133 -10.7127,35.71875 -1.2285,5.35599 -1.4299,5.99869 -1.6802,5.36178 -1.0274,-2.61419 -5.8982,-19.43023 -7.7989,-26.92532 -3.0088,-11.86487 -2.9534,-11.1691 -2.9487,-37.04166 0,-26.29353 -0.019,-25.97367 3.7207,-50.40313 4.3891,-28.67332 7.2952,-44.13647 9.5968,-51.06458 l 1.2306,-3.70417 0.061,1.5875 c 0.1606,4.19759 0.6934,9.76366 1.4101,14.7301 1.2848,8.90317 2.0325,11.05262 4.4223,12.71198 1.2005,0.83357 1.3512,0.86821 3.7641,0.86495 3.2359,-0.004 3.964,-0.37978 7.6184,-3.92829 5.2211,-5.06984 9.5383,-10.95687 15.0645,-20.54228 1.8877,-3.27422 4.4244,-7.56047 5.6372,-9.525 1.2128,-1.96453 3.1768,-5.20697 4.3644,-7.20542 l 2.1594,-3.63355 0.3352,1.12001 c 1.2871,4.30104 4.0698,7.00497 7.3575,7.14917 l 1.2717,0.0558 -2.3574,5.15961 c -9.2158,20.16985 -18.9857,48.64923 -22.2376,64.82315 -2.2507,11.1946 -2.2867,17.8512 -0.1544,28.575 2.1463,10.79413 5.4768,19.70923 8.5318,22.83841 3.1985,3.27607 6.2089,3.75345 9.6388,1.52852 3.6855,-2.39075 12.5283,-11.6247 22.3815,-23.37146 6.4961,-7.74454 11.1952,-15.16224 16.6374,-26.26317 2.0011,-4.08173 1.977,-4.13666 0.901,2.04885 -1.412,8.11689 -1.5252,9.56336 -1.6653,21.2848 -0.1821,15.23408 0.2104,19.45764 2.0791,22.3697 2.9156,4.54358 6.7542,4.13281 13.7177,-1.46797 2.8049,-2.25599 10.2373,-9.7842 13.3713,-13.54372 5.4713,-6.56325 11.4319,-14.91766 14.601,-20.46486 2.4277,-4.24952 7.2407,-13.91467 9.8576,-19.79538 1.2034,-2.70431 1.771,-3.70814 2.0386,-3.60542 0.204,0.0783 0.3334,0.21695 0.2875,0.30816 -3.883,7.7248 -7.419,15.90217 -9.338,21.59518 -1.3753,4.0798 -1.7593,6.56675 -2.5127,16.27378 -0.6372,8.20986 -1.0341,10.99865 -2.2692,15.94587 -0.5002,2.00351 -1.3306,5.69445 -1.8453,8.20209 -1.3587,6.61929 -6.7165,27.00184 -7.2361,27.52793 -0.1165,0.11796 -0.7919,0.17749 -1.5009,0.1323 -1.2886,-0.0821 -1.2896,-0.0829 -2.2197,-1.78181 -3.6827,-6.72624 -11.6614,-9.18692 -18.5197,-5.71156 -3.0987,1.57022 -5.0114,3.81431 -6.0645,7.11525 -1.3264,4.1575 -4.9175,19.11601 -12.4255,51.75742 -6.2002,26.95559 -7.4449,33.14417 -7.4449,37.01724 0,2.0773 0.087,2.4692 0.9402,4.25011 1.2036,2.51143 3.9378,5.25574 6.6889,6.71349 l 1.9199,1.01727 3.626,-0.0997 c 3.1701,-0.0872 3.834,-0.18624 5.2797,-0.78809 0.9095,-0.37864 1.6537,-0.62799 1.6537,-0.55409 0,0.0739 -1.7762,5.62621 -3.9471,12.3385 -5.2176,16.1327 -6.7451,20.97066 -9.1157,28.87295 -3.5509,11.83624 -10.1353,34.71777 -12.6007,43.78854 -1.325,4.87494 -2.7716,10.05416 -3.2146,11.50937 -1.0454,3.43405 -2.8488,8.06979 -3.1393,8.06979 -0.125,0 -1.1152,-1.75617 -2.2006,-3.9026 z m 60.1628,-116.55689 c -0.02,-0.60672 1.941,-13.00293 2.7928,-17.653 0.7127,-3.89033 1.2555,-5.95937 1.7057,-6.50193 0.2954,-0.35584 3.0636,-1.08971 3.283,-0.87032 0.067,0.0666 -1.0609,3.62778 -2.5055,7.91382 -1.4446,4.28604 -3.2191,9.99546 -3.9434,12.68759 -0.7243,2.69214 -1.324,4.68286 -1.3326,4.42384 z m 432.4652,-33.83466 c -0.7788,-10.45231 -1.0926,-14.15147 -2.0047,-23.63813 -1.6083,-16.72548 -2.3726,-26.31565 -2.3777,-29.83349 0,-1.77605 0.023,-1.8387 3.9315,-9.6573 6.2794,-12.56085 9.4493,-19.32998 10.5711,-22.57416 0.5749,-1.66241 1.7621,-4.74896 2.6383,-6.85901 2.0244,-4.87542 4.1796,-10.68842 8.3383,-22.48958 1.8204,-5.16599 5.093,-14.27427 7.2723,-20.24062 2.1793,-5.96636 4.562,-12.69339 5.2948,-14.94896 2.4571,-7.56224 8.4573,-29.85746 10.5077,-39.04398 1.1012,-4.93334 2.5057,-12.96406 2.5073,-14.33571 0,-0.58954 0.037,-0.59531 3.781,-0.59531 h 3.7803 l 1.1049,1.68047 c 1.3528,2.05764 4.067,4.64238 5.6622,5.39224 1.6576,0.77917 5.1322,1.23695 7.8202,1.03031 5.2135,-0.40074 8.4161,-2.50349 10.5279,-6.9124 1.241,-2.59069 1.5214,-3.48702 6.2419,-19.95082 2.3116,-8.06254 4.2565,-14.71269 4.3219,-14.77807 0.1192,-0.11916 13.8235,4.84714 14.4586,5.23965 0.2622,0.16209 -0.055,1.79602 -1.4212,7.30838 -3.6458,14.71554 -13.7051,51.2764 -15.9619,58.0137 -1.9486,5.81758 -6.9601,19.3085 -10.3267,27.79945 -2.1891,5.52128 -9.994,23.31599 -13.5195,30.82396 -3.1015,6.60482 -10.2828,20.09233 -13.7686,25.85939 -4.0628,6.72156 -13.6879,23.76184 -15.7316,27.85102 -0.7999,1.60073 -2.4363,5.17261 -3.6362,7.9375 -3.3246,7.66019 -4.8927,10.73338 -7.2698,14.24747 -9.4931,14.03387 -16.1357,24.1644 -19.3426,29.499 l -3.2353,5.38192 z m -27.5863,-55.16736 -4.7764,-8.88818 2.1488,-2.57432 c 1.1817,-1.41586 2.7098,-3.58565 3.3956,-4.82176 0.6858,-1.23611 1.9955,-3.42845 2.9104,-4.87188 0.9149,-1.44343 2.5488,-4.29067 3.6308,-6.32717 l 1.9673,-3.70271 1.2077,1.20277 c 1.7444,1.73728 2.8948,2.21396 5.6255,2.33103 2.0097,0.0862 2.4787,0.0164 3.7041,-0.55014 1.7916,-0.82847 3.936,-2.60938 5.9964,-4.97983 0.8934,-1.02783 1.6244,-1.75652 1.6244,-1.6193 0,0.13718 -1.0829,2.6757 -2.4065,5.64112 -1.3236,2.96543 -3.033,6.88118 -3.7987,8.70167 -1.798,4.27466 -1.8934,4.45654 -5.9959,11.42466 -1.9115,3.24657 -4.9059,8.40316 -6.6544,11.4591 -1.7484,3.05594 -3.3193,5.7603 -3.4908,6.00969 -0.2653,0.38553 -1.027,-0.87725 -5.0883,-8.43475 z m -378.6664,-19.73379 c -1.5062,-9.54371 -2.0986,-24.59551 -1.2283,-31.20729 1.0991,-8.35062 3.6826,-15.57297 10.9126,-30.50677 7.2124,-14.89758 9.4009,-19.96697 9.7473,-22.57753 0.3465,-2.61244 -0.8231,-4.27768 -3.0046,-4.27768 -1.1404,0 -1.2853,0.0927 -3.2055,2.05052 -1.1061,1.12779 -2.9224,3.4304 -4.0361,5.11691 -1.1152,1.68868 -2.512,3.4521 -3.1089,3.92483 l -1.0838,0.85847 v -2.02216 c 0,-1.84608 0.1715,-2.50121 1.97,-7.52459 4.5622,-12.74239 6.7575,-21.36619 6.7602,-26.5557 0,-2.39456 -0.3863,-3.50507 -1.5708,-4.50178 -1.7571,-1.47849 -4.1502,-0.737 -5.5551,1.72119 -0.4401,0.77002 -2.2191,5.68627 -3.9535,10.92502 -4.3191,13.0465 -7.5104,21.20373 -15.1126,38.62917 -4.01,9.19159 -6.3611,14.11983 -8.3412,17.48446 -2.8053,4.76654 -9.4276,14.763 -11.3785,17.17595 -3.7715,4.66484 -13.6783,14.94896 -14.4004,14.94896 -0.3665,0 -0.368,-10.37714 0,-15.56083 0.5844,-8.28239 1.9052,-16.89989 3.5601,-23.22677 2.0142,-7.7007 6.9138,-21.55203 12.4383,-35.16344 1.7128,-4.2201 3.9509,-9.75651 4.9734,-12.30313 1.1256,-2.80318 4.6508,-10.16346 8.9338,-18.65312 3.8911,-7.7126 7.2764,-14.64119 7.5229,-15.39687 0.3696,-1.13263 0.3937,-1.53958 0.1371,-2.31712 -0.368,-1.1149 -0.9255,-1.4683 -2.3164,-1.4683 -1.3776,0 -2.9239,1.02399 -5.2298,3.46337 -5.5606,5.88243 -9.9234,12.74823 -16.7136,26.30225 -2.1141,4.22011 -3.9077,7.73245 -3.9856,7.80521 -0.078,0.0728 -0.076,-0.16536 0,-0.52917 0.08,-0.3638 0.5046,-2.44739 0.9445,-4.6302 0.4399,-2.18282 1.4623,-6.67592 2.2721,-9.98466 2.4232,-9.90135 2.6525,-12.03963 1.4694,-13.70121 -1.0811,-1.51821 -3.3938,-2.00861 -4.9624,-1.05225 -1.9491,1.18835 -2.8395,3.30827 -6.9239,16.4847 -8.2573,26.63796 -18.6751,56.25492 -22.5217,64.027 -2.81,5.67761 -7.2567,12.52813 -11.9536,18.41548 -3.1038,3.89048 -10.3802,12.0206 -15.0529,16.81908 l -3.8717,3.97589 -0.4424,-1.05764 c -0.6752,-1.61451 -2.9978,-9.80387 -3.573,-12.59837 -2.0092,-9.76056 -1.7509,-18.2599 0.9214,-30.32427 1.4905,-6.7287 4.2062,-17.08057 5.537,-21.10584 0.7698,-2.32833 3.0075,-8.40052 4.9727,-13.49375 1.9652,-5.09323 4.0777,-10.68916 4.6943,-12.43541 1.75,-4.9557 3.1202,-7.93631 9.0006,-19.57917 5.8836,-11.64915 7.1754,-14.04863 12.785,-23.74826 5.0414,-8.71712 6.6065,-11.98107 6.7379,-14.05165 0.092,-1.44917 0.031,-1.70093 -0.5721,-2.35061 -0.5396,-0.58155 -0.9091,-0.7276 -1.8411,-0.7276 -1.5993,0 -2.4281,0.77483 -9.01,8.42279 -8.1294,9.44621 -17.1647,18.93031 -18.9391,19.87998 l -0.6216,0.33266 0.1547,-5.25574 c 0.1822,-6.18945 0.5377,-9.24039 1.4141,-12.1349 0.6898,-2.27825 1.4114,-4.97967 3.5158,-13.16112 2.0338,-7.90744 1.8483,-10.122 -0.952,-11.3607 -2.4548,-1.08585 -4.9964,-0.161793 -6.0978,2.21702 -0.2899,0.62598 -0.7403,2.0311 -1.001,3.12251 -1.288,5.39165 -4.6029,13.59849 -9.4138,23.30606 -3.6345,7.33388 -4.47,8.83663 -9.1076,16.38144 -1.9232,3.12869 -4.4643,7.37822 -5.6471,9.44337 -2.5794,4.50395 -5.1352,8.58258 -8.175,13.04621 -2.6852,3.94279 -6.2183,8.72537 -6.4484,8.72881 -0.8003,0.0119 -1.3716,-19.38842 -0.768,-26.07825 0.1323,-1.4658 0.5515,-4.01569 0.9317,-5.66643 2.3532,-10.21818 8.9281,-29.49178 15.6156,-45.775794 1.4045,-3.419739 3.0222,-7.467864 3.595,-8.995833 0.5728,-1.527966 1.2954,-3.432966 1.6057,-4.233336 0.3104,-0.80036 2.5258,-5.50333 4.9232,-10.45104 5.4936,-11.33784 6.1622,-12.88909 6.3291,-14.68437 0.1135,-1.22171 0.043,-1.57197 -0.4413,-2.18281 -0.3171,-0.40019 -0.74,-0.72761 -0.9399,-0.72761 -0.5874,0 -0.6676,-6.96716 -0.094,-8.20208 1.4089,-3.03485 2.2823,-6.40985 6.0367,-23.32651 5.3953,-24.30996986 8.3318,-36.74576 10.8509,-45.95204 1.3898,-5.07934 8.5922,-28.76111 9.6943,-31.87536 0.9117,-2.5762 7.0812,-17.51036 7.3712,-17.843 0.032,-0.0367 0.5545,0.93501 1.1612,2.15937 1.9038,3.84215 4.4456,5.50979 7.7332,5.07368 l 1.2996,-0.1724 -0.9506,2.05928 c -4.0236,8.71632 -5.2511,11.7879 -7.6209,19.06944 -1.8515,5.68926 -3.9587,15.69458 -4.6367,22.01587 -0.8192,7.63757 -1.0818,20.31365014 -0.525,25.3442801 0.7366,6.6560499 2.2672,10.4650699 4.9625,12.3494799 0.9917,0.69334 1.4241,0.81378 3.2137,0.89503 4.1109,0.18669 7.0714,-1.32328 10.5552,-5.38358 1.2486,-1.45521 4.3597,-4.7889599 6.9136,-7.4083299 2.5539,-2.61938 5.7427,-6.19124996 7.0863,-7.9375 2.5762,-3.34822 5.3476,-6.5142497 5.3484,-6.1099997 8e-4,0.42119 -2.0815,8.21187974 -4.6741,17.4870797 -5.6749,20.3021899 -7.0612,27.8990999 -7.0737,38.7614599 -0.013,11.11242 1.1734,16.55601 4.4392,20.37291 1.8016,2.1055 4.8144,4.63828 6.6615,5.60004 l 1.6013,0.83381 1.9706,-1.03357 c 4.3513,-2.28232 10.5404,-7.43235 18.384,-15.29752 7.6487,-7.66971 9.0473,-9.46906 20.8921,-26.87984 3.3166,-4.87494 6.8708,-9.99463 7.8983,-11.37708 2.1851,-2.93992 4.3284,-6.28856 5.0419,-7.87733 l 0.5041,-1.1226 1.1974,1.788 c 1.5048,2.24702 3.8133,4.57538 5.347,5.39297 1.0147,0.54092 1.5467,0.62834 3.8245,0.62834 2.4358,0 2.7898,-0.0682 4.4601,-0.85927 0.9979,-0.47259 2.581102,-1.39533 3.518402,-2.05052 0.9373,-0.65518 1.7396,-1.19126 1.7829,-1.19126 0.043,0 -0.075,0.81135 -0.2621,1.80298 -1.7259,9.12738 -2.7615,27.07518 -2.2505,39.00056 0.5908,13.78445 1.7047,18.32639 5.5002,22.42584 1.8236,1.96975 3.4147,2.91645 4.9014,2.91645 1.5897,0 4.2724,-0.9915 6.327,-2.33836 5.825,-3.81854 16.3433,-15.24746 23.0504,-25.04601 2.4099,-3.5206 10.9967,-18.07006 12.9997,-22.02656 0.3868,-0.76399 0.7936,-1.38906 0.9039,-1.38906 0.1104,0 0.7158,1.18401 1.3453,2.63112 2.3989,5.51413 5.12,9.14765 7.8513,10.48393 1.2513,0.61222 1.6878,0.68799 3.4866,0.60534 1.7601,-0.0809 2.3867,-0.25323 4.3515,-1.19719 1.2624,-0.6065 3.0338,-1.59329 3.9366,-2.19289 0.9027,-0.5996 1.7119,-1.01944 1.7984,-0.933 0.086,0.0864 0.239,2.8349 0.339,6.10772 0.1,3.27282 0.3291,7.4481 0.509,9.27843 0.7886,8.01974 -0.3318,14.4276 -6.4913,37.126043 -1.7972,6.622838 -3.8838,14.42278 -4.6369,17.33319 -5.1333,19.8383 -8.0218,28.92367 -13.2908,41.80417 -4.3902,10.73235 -13.9057,29.2495 -21.9524,42.7192 -3.3506,5.60861 -6.9915,11.50715 -8.0909,13.10788 -6.432,9.36488 -17.4852,23.15594 -25.869002,32.27687 -12.1155,13.1809 -38.2061,39.82209 -38.999,39.82209 -0.1119,0 -0.3397,-0.86321 -0.5062,-1.91823 z m 455.3063,-139.03216 -1.1978,-0.0967 0.5925,-6.66864 c 1.9799,-22.28297 3.4517,-46.375083 3.9503,-64.661413 0.1,-3.66498 0.2742,-6.81323 0.3872,-6.99611 0.1433,-0.23183 0.9958,0.42389 2.8158,2.16569 4.8219,4.61478 5.7531,4.93353 9.2606,3.16979 4.5196,-2.27267 7.6504,-6.30949 10.2677,-13.2393 0.4122,-1.09141 0.8333,-2.08381 0.9358,-2.20533 0.1866,-0.22127 1.6822,0.42167 1.936,0.83227 0.074,0.12005 -0.3412,1.758 -0.9231,3.6399 -3.4706,11.22535 -18.7893,66.689293 -21.6802,78.497223 l -1.4089,5.75468 -1.8691,-0.0477 c -1.0279,-0.0262 -2.408,-0.0912 -3.0668,-0.14438 z m -97.4268,-25.81307 c -1.2405,-2.95862 -2.4174,-6.08666 -2.6154,-6.95116 -0.2697,-1.17758 -0.36,-4.09373 -0.36,-11.625999 0,-11.470954 0.059,-11.952714 2.4996,-20.564874 3.0314,-10.69474 3.2721,-12.3627 1.9597,-13.57899 -0.5567,-0.51591 -0.9821,-0.64884 -2.077,-0.64884 -2.4169,0 -3.7094,1.28672 -6.5115,6.48229 -1.0715,1.98654 -1.9701,3.20378 -3.6065,4.88495 -1.5549,1.59752 -2.2609,2.15759 -2.4639,1.95455 -0.682,-0.68196 -1.0997,-4.91924 -0.9742,-9.88221 0.1032,-4.08114 0.2395,-5.37858 0.8196,-7.80521 1.3295,-5.56148 1.2088,-8.69227 -0.3867,-10.03485 -1.5512,-1.30529 -3.2697,-0.73826 -4.7986,1.58332 -0.9659,1.46669 -1.344,2.31815 -3.87,8.71612 -3.9194,9.92703 -9.4139,20.23969 -13.5263,25.38772 -1.6567,2.07388 -5.5333,5.82776 -7.5158,7.27779 -2.1999,1.609086 -5.5749,3.350917 -7.4274,3.833252 -1.8817,0.489956 -3.8833,0.533056 -4.3233,0.09311 -0.6592,-0.659236 -0.2485,-11.512022 0.632,-16.699892 1.0986,-6.47329 5.22,-17.56958 8.4693,-22.8024 3.5498,-5.71706 3.5458,-5.70894 3.5458,-7.15801 0,-1.16319 -0.1229,-1.51659 -0.7676,-2.2067 -0.6954,-0.74446 -0.9184,-0.82175 -2.3713,-0.82175 -3.0842,0 -5.8605,1.6509 -7.9494,4.72689 -2.4347,3.58529 -8.0828,15.89521 -13.1265,28.60918 -1.7027,4.29207 -3.4885,8.57832 -3.9684,9.525 -3.1976,6.307511 -13.2355,16.761783 -20.8719,21.737563 -0.8593,0.55991 -1.6518,1.01803 -1.7612,1.01803 -0.2794,0 -1.5754,-3.20235 -3.0018,-7.417218 -0.7061,-2.086424 -1.5117,-5.233299 -1.9304,-7.540624 -0.6407,-3.530944 -0.7152,-4.547371 -0.6871,-9.383821 0.035,-6.02959 0.3463,-8.71164 1.786,-15.38502 1.1012,-5.10495 2.5778,-10.10647 4.4406,-15.04206 2.4446,-6.47671 2.648,-7.66453 1.912,-11.16134 -0.224,-1.06455 -0.5789,-4.85593 -0.7886,-8.42526 -0.4799,-8.16965 -0.5622,-8.62851 -1.7898,-9.97654 -0.5903,-0.64831 -1.9568,-1.00891 -2.9134,-0.76883 -1.0184,0.25562 -2.4556,1.92503 -2.9411,3.41638 -0.2477,0.76081 -0.8664,4.00267 -1.3748,7.20413 -2.2898,14.41731 -3.8641,19.07776 -8.5354,25.26771 -2.235,2.96161 -10.014697,10.84792 -10.701297,10.84792 -0.9815,0 -3.6024,-4.17965 -5.8368,-9.30815 -2.5883,-5.94056 -4.5322,-12.76609 -5.6381,-19.79602 -0.7486,-4.75896 -0.6697,-19.75988 0.1392,-26.45833 0.7137,-5.9105299 1.567,-11.0537899 2.8311,-17.0656299 1.1816,-5.6196197 1.4548,-9.3938401 0.7823,-10.8109001 -0.614,-1.29392 -1.7081,-1.85065 -3.3304,-1.69479 -1.5342,0.14743 -1.2701,-0.0686 -9.3422,7.6407704 -3.4776,3.3212397 -6.4207,5.9781597 -6.5403,5.9042297 -0.6046,-0.37367 -2.4699,-7.8484401 -3.3296,-13.3424301 -0.6685,-4.27268 -0.6755,-14.49187 -0.012,-17.74905 1.1838,-5.81202 3.2464,-12.06116 7.5709,-22.93784 2.7188,-6.83802 3.4745,-9.24496 3.4745,-11.06595 0,-2.35914 -0.8837,-3.54508 -2.6416,-3.54508 -2.3127,0 -4.8133,2.91092 -9.2531,10.77156 -4.3407,7.68535 -11.7659,15.42219 -14.800801,15.42219 -0.9387,0 -2.2365,-1.55707 -3.1733,-3.80756 -1.5262,-3.66594 -3.0914,-11.29176 -4.2963,-20.93098 l -0.5953,-4.7625 0.9761,-7.54062 c 0.5369,-4.14735 1.4442,-11.1125 2.0163,-15.478135 2.4762,-18.896652 2.7973,-24.132722 2.7905,-45.508332 -0.01,-22.06371 0.056,-21.32872 -3.0769,-35.98333 -1.6775,-7.84694 -3.6643,-17.55066 -3.6643,-17.89621 0,-0.11361 0.751,0.36187 1.6688,1.05662 3.5987,2.72383 7.5343,2.71743 9.851201,-0.0161 4.3003,-5.07336 7.2618,-24.99625 5.5704,-37.47302 -0.6609,-4.87529 -0.4914,-13.87819 0.3438,-18.25659 2.0822,-10.91526 6.5925,-23.78948 12.3707,-35.31095 1.5997,-3.18958 1.7518,-3.23744 2.0641,-0.64947 0.5068,4.19989 2.446,9.17678 4.7668,12.23417 2.025,2.66766 6.4461,7.70546 8.2116,9.35694 5.1536,4.82097 9.8948,4.13017 13.832497,-2.01544 3.8674,-6.03591 7.0334,-14.32046 10.117,-26.47407 0.2074,-0.8173 0.3803,-1.07556 0.6055,-0.90427 0.1734,0.13187 2.3989,1.79059 4.9455,3.68604 2.5466,1.89545 5.1864,4.04347 5.8662,4.7734 1.5192,1.63108 2.5905,3.70809 3.519,6.82252 3.3279,11.16306 5.678,16.21502 10.0149,21.52902 4.4758,5.48415 9.28,7.85407 30.3236,14.95885 l 9.1102,3.07581 1.2086,-1.37105 c 2.1323,-2.41895 3.2521,-4.02158 4.1351,-5.91796 2.3965,-5.14683 2.9989,-8.92125 3.5402,-22.18079 0.1297,-3.17714 0.2755,-5.80985 0.3241,-5.85049 0.049,-0.0406 1.3385,0.1393 2.8664,0.39986 4.8092,0.82008 9.9434,1.11967 16.6215,0.96986 9.1028,-0.2042 12.4826,-0.94239 14.4906,-3.16492 1.5605,-1.72733 1.7833,-2.53074 1.9072,-6.87739 0.3992,-14.009 -3.331,-29.33716 -9.2897,-38.17321 -3.4945,-5.18194 -10.7813,-12.62766 -16.6395,-17.00226 -1.2804,-0.9562 -2.27,-1.79665 -2.199,-1.86764 0.071,-0.071 2.1249,0.83765 4.5643,2.0192 7.3847,3.5769 12.973,4.54488 26.2484,4.54668 7.4283,0 12.3134,-0.29467 17.7921,-1.07683 4.5706,-0.65249 6.7497,-1.31239 7.7371,-2.34297 l 0.755,-0.78806 0.4817,0.61241 c 0.7151,0.90916 2.7361,1.67293 7.0714,2.6725 8.0563,1.85751 13.4366,3.76957 20.8141,7.3969 12.3674,6.08074 18.9019,11.73597 26.0809,22.57145 1.3072,1.97292 2.3356,3.71618 2.2856,3.87389 -0.1328,0.41775 -2.4655,1.14197 -5.7934,1.79859 -2.6551,0.52385 -3.1737,0.54808 -5.8991,0.27569 -2.629,-0.26275 -3.6037,-0.52059 -8.1112,-2.14577 -2.8178,-1.01594 -5.803,-2.03747 -6.6338,-2.27007 -2.6353,-0.73774 -4.5383,-2.29182 -7.2804,-5.9455 -3.4732,-4.62783 -5.7796,-7.27761 -9.1233,-10.48168 -4.3398,-4.15862 -6.2789,-5.03722 -8.7958,-3.98561 -1.1378,0.47541 -1.468,1.1039 -1.468,2.79368 0,2.16094 0.3873,2.78916 5.7955,9.39957 2.846,3.47863 5.5816,7.32067 5.5816,7.83915 0,0.30612 -7.0811,0.28641 -9.2405,-0.0257 -2.5556,-0.36939 -4.4103,-1.44638 -10.0741,-5.84981 -2.8377,-2.2062 -5.435,-4.11612 -5.7719,-4.24423 -1.6355,-0.62196 -3.1914,0.009 -3.7693,1.52947 -0.5209,1.37004 -0.2925,3.83204 0.5136,5.53591 1.8385,3.8862 8.2841,9.0429 13.5357,10.82913 5.8573,1.99218 15.48,2.73965 20.1363,1.56413 2.7197,-0.68659 3.2318,-0.58031 10.5284,2.18483 5.3313,2.02038 9.2363,3.09073 14.2461,3.90475 4.8453,0.78729 4.7313,0.75554 6.5405,1.8211 0.7276,0.42854 4.7359,2.60381 8.9074,4.83393 4.1714,2.2301 8.3982,4.55494 9.3927,5.16626 0.9945,0.61132 3.1179,1.73027 4.7186,2.48652 3.9611,1.87146 5.5892,3.64284 8.2642,8.99123 2.2167,4.43222 4.7176,11.99489 4.1532,12.55927 -0.5201,0.52015 -3.1625,0.80217 -7.4926,0.79965 -8.3917,-0.005 -18.7327,-1.64245 -22.5826,-3.57613 -1.772,-0.89003 -3.0125,-2.02639 -6.491,-5.94633 -1.6142,-1.81901 -3.8062,-4.02151 -4.8712,-4.89445 -1.0649,-0.87294 -3.4245,-2.902 -5.2435,-4.50905 -5.7833,-5.10934 -7.0321,-5.94225 -8.9089,-5.94225 -2.9169,0 -4.1387,2.82818 -2.475,5.72892 0.43,0.7498 2.6436,3.30964 4.919,5.68854 3.9352,4.11416 4.2063,4.46727 5.5558,7.23566 1.4957,3.06846 2.6502,6.63562 2.9368,9.07405 l 0.1717,1.46068 -2.3564,-0.1579 c -7.5072,-0.50303 -17.371,-6.0134 -25.6725,-14.34187 -1.9097,-1.91593 -3.8923,-3.68282 -4.4056,-3.92642 -1.3589,-0.64482 -2.8859,-0.5793 -3.5523,0.1524 -1.5386,1.68921 -1.5283,3.07578 0.046,6.1908 3.8371,7.59193 13.4974,15.87849 22.4307,19.24098 5.6725,2.1351 14.4892,2.9124 18.2569,1.60951 2.2206,-0.76787 3.4866,-2.78963 3.83,-6.11632 0.08,-0.77658 0.1925,-1.41195 0.2498,-1.41195 0.057,0 0.6729,0.28824 1.3681,0.64056 2.7663,1.40179 7.291,2.43337 19.7446,4.50164 l 8.194,1.36084 1.2888,2.23858 c 1.4481,2.51521 3.7938,5.80991 7.3392,10.30838 1.319,1.67349 3.0665,4.11427 3.8834,5.42396 1.8091,2.9002 4.2837,7.98412 5.2803,10.84792 0.6991,2.00908 0.7368,2.3587 0.741,6.87916 0.01,6.56905 -0.067,6.89428 -2.0646,9.16125 -3.9103,4.43836 -4.0994,6.03232 -1.6299,13.74082 1.3315,4.15621 2.0428,7.63844 1.9277,9.4366 l -0.081,1.26341 -3.0428,0.30888 c -8.2283,0.83526 -17.3148,0.67212 -19.887,-0.35708 -2.7301,-1.09236 -7.6676,-8.53197 -11.2064,-16.88513 -0.6781,-1.60073 -1.9915,-4.27963 -2.9185,-5.95312 -0.9271,-1.67349 -2.1179,-4.29287 -2.6464,-5.82084 -1.6973,-4.90807 -4.0087,-8.6588 -5.9567,-9.66615 -0.465,-0.24043 -1.5101,-0.38801 -2.7478,-0.38801 h -1.9976 l 0.01,1.25677 c 0.01,2.0941 0.6988,6.50478 1.9716,12.59871 0.6646,3.18212 1.2844,6.85729 1.3774,8.16703 l 0.169,2.38136 -0.6371,-0.17333 c -0.3504,-0.0953 -2.0659,-0.8839 -3.8121,-1.75236 -5.6176,-2.79379 -10.8893,-6.96961 -17.0657,-13.5182 -5.176,-5.48796 -5.8734,-6.04957 -7.5124,-6.04957 -2.3615,0 -3.1522,1.84518 -2.1218,4.95171 0.5777,1.74156 2.4609,5.49568 3.6729,7.32157 3.3017,4.9742 12.4976,13.38707 16.9622,15.51781 2.904,1.386 6.2154,2.14056 10.0335,2.28643 2.9397,0.11229 3.6799,0.0551 5.0932,-0.39325 1.1888,-0.37711 1.6537,-0.43402 1.6537,-0.20243 0,0.17721 0.5322,1.41578 1.1828,2.75238 3.5809,7.35732 8.5313,12.28447 14.27,14.20299 2.2493,0.75194 4.9145,1.02304 13.149,1.33749 l 4.3924,0.16775 0.2936,1.27175 c 0.3723,1.61295 1.716,4.59665 6.8288,15.16305 5.5246,11.41757 7.1919,15.34375 9.6276,22.67067 5.8739,17.66998 8.5358,28.512587 10.2309,41.671877 0.6789,5.27066 0.6759,25.52573 0,31.61771 -1.557,13.93695 -3.839,25.09999 -7.1664,35.05729 -3.2278,9.6587701 -5.7271,14.2950901 -13.4537,24.95695 -6.004,8.28498 -8.8431,14.51555 -12.2383,26.85799 -2.1092,7.66728 -3.236,11.0844 -4.1091,12.46116 -0.4214,0.66455 -0.8613,1.20827 -0.9775,1.20827 -0.7307,0 -11.197,-9.41194 -13.371,-12.02401 -1.5437,-1.85481 -2.0615,-2.97696 -2.6924,-5.83536 -1.0257,-4.64722 -1.906,-5.95313 -4.0126,-5.95313 -0.9585,0 -1.3371,0.16531 -2.2338,0.97539 -2.1583,1.94995 -2.7869,3.89422 -3.2772,10.13711 -0.4138,5.26987 -0.8082,6.6702 -3.2045,11.37796 -2.5685,5.04618 -5.1402,8.44971 -9.8049,12.97628 -4.0028,3.88424 -9.2025,7.82587 -14.0311,10.63619 l -1.6303,0.94885 -3.2877,-3.35142 c -1.8082,-1.84327 -3.5931,-3.83665 -3.9663,-4.42976 -0.9908,-1.57433 -2.0914,-4.26712 -4.4787,-10.95843 -5.0656,-14.19815 -5.6485,-15.34758 -7.7836,-15.34758 -0.9232,0 -1.24,0.14144 -1.7958,0.80197 -0.9886,1.17489 -1.2091,2.2637 -1.4988,7.40011 -0.6638,11.77134 -3.0645,22.65577 -7.5313,34.14609 -2.4993,6.42906 -4.9012,11.123879 -7.4466,14.555472 -0.6942,0.935861 -4.3689,4.856711 -8.166,8.713021 -3.7971,3.8563 -7.328,7.52012 -7.8465,8.14178 l -0.9427,1.13035 -2.2555,-5.37935 z m 147.8371,-3.98386 c -5.0978,-1.93934 -7.1256,-2.82696 -7.0806,-3.09925 0.035,-0.20984 2.0329,-7.763424 4.4404,-16.785715 2.4075,-9.022288 5.2744,-19.976038 6.371,-24.341668 1.8501,-7.36549 1.9869,-8.0999 1.8973,-10.19103 -0.079,-1.85171 -0.2462,-2.57321 -0.9356,-4.04641 -1.6719,-3.57264 -4.3259,-6.23715 -7.8846,-7.9158 -1.7066,-0.80494 -2.0201,-0.86402 -4.4808,-0.84429 -2.1531,0.0172 -3.04,0.156 -4.7625,0.74491 -1.1642,0.39801 -2.6005,1.00558 -3.1919,1.35012 l -1.0752,0.62645 -1.9675,-1.06217 c -1.0821,-0.5842 -2.0613,-1.15226 -2.1759,-1.26233 -0.2694,-0.2586 2.4478,-8.61761 3.9188,-12.05539 2.0067,-4.69006 3.9782,-7.77587 8.2013,-12.83676 6.0718,-7.2763099 11.8126,-19.1733199 14.6825,-30.42709 2.1097,-8.27293 4.9408,-27.84691 5.5766,-38.55569 0.3969,-6.68612 0.1725,-21.09361 -0.4048,-25.99163 -2.1819,-18.510625 -6.8475,-37.333617 -12.5945,-50.811017 -0.8998,-2.11005 -2.0376,-5.07333 -2.5284,-6.58505 -0.9863,-3.03755 -2.8483,-6.71872 -7.1952,-14.22469 -3.2501,-5.61202 -5.876,-10.45916 -5.876,-10.84643 0,-0.14211 0.6251,-0.41273 1.3891,-0.60137 2.3315,-0.57569 5.0397,-2.00991 6.2264,-3.29732 1.5572,-1.68926 2.0222,-3.42628 2.0274,-7.57222 0,-3.98605 -0.4058,-6.07269 -2.4134,-12.25825 l -1.4452,-4.45304 1.312,-1.38721 c 2.0762,-2.19533 3.2102,-4.82378 3.8919,-9.02129 0.7852,-4.83436 0.3717,-10.21805 -1.1379,-14.81666 -1.2748,-3.88356 -5.2932,-11.85892 -8.1986,-16.27188 -2.8719,-4.36216 -4.8422,-6.81011 -7.981,-9.9156 l -2.4004,-2.37498 2.4466,-1.1802 c 1.3457,-0.64913 2.5388,-1.18772 2.6514,-1.1969 0.4954,-0.0404 5.0846,6.61794 6.6447,9.6406 2.8765,5.57329 4.4719,9.96447 9.4119,25.90495 1.8757,6.05243 3.8394,12.19505 4.3638,13.65025 0.5244,1.45521 1.6623,5.1026 2.5287,8.1053 3.1998,11.08999 7.1778,20.92463 9.778,24.17387 1.9543,2.44208 2.6645,3.67443 5.9464,10.31875 7.868,15.92908 17.2166,38.09061 20.0902,47.625 3.8323,12.715877 10.4049,38.267807 10.1645,39.516187 -0.095,0.49371 -2.0622,-2.50947 -4.3072,-6.57556 -0.8436,-1.52797 -4.7437,-9.08843 -8.667,-16.80104 -10.0382,-19.733847 -10.7275,-20.978607 -12.8568,-23.217197 -0.8058,-0.84719 -1.1104,-0.99218 -2.0845,-0.99218 -1.0032,0 -1.2041,0.10377 -1.6652,0.85989 -0.2883,0.47295 -0.5247,1.08223 -0.5252,1.35398 0,0.27176 0.6477,2.71254 1.4407,5.42396 5.4413,18.606487 7.6243,28.121407 10.1756,44.352797 2.8511,18.13878 3.0448,20.07468 2.8575,28.5532 -0.1188,5.37768 -0.2894,7.42442 -1.0938,13.11867 -0.5242,3.71079 -1.4912,10.7950004 -2.1488,15.7427101 -2.5915,19.4962199 -3.4531,24.9176699 -7.5062,47.2281299 -5.3898,29.66867 -7.3114,39.39674 -10.2439,51.858326 -2.8762,12.222767 -3.9704,16.411277 -4.2827,16.394537 -0.099,-0.005 -3.3943,-1.23257 -7.3234,-2.72728 z M -86.609018,67.198497 c -1.3415,-4.59751 -1.7466,-10.00123 -1.5702,-20.94566 0.2699,-16.744 1.8401,-26.00164 8.3958,-49.4996499 3.1204,-11.1848901 3.4471,-13.2404101 2.2885,-14.3990201 -1.0014,-1.00137 -2.885,-0.96309 -4.3362,0.0881 -1.3332,0.96578 -1.8834,1.64661 -6.273,7.7627104 -4.6408,6.4658897 -7.0834,9.50142974 -10.3791,12.8981797 -2.892202,2.9809 -5.071602,4.51694 -6.465102,4.55657 -0.6794,0.0193 -1.0336,-0.17155 -1.6275,-0.87688 -0.9539,-1.1331 -2.2935,-3.95105 -3.2324,-6.79968996 l -0.723,-2.19395004 0.4228,-2.30396 c 0.7435,-4.0509597 0.4528,-6.3264801 -0.932,-7.2964701 -0.7661,-0.53657 -2.659,-0.55909 -3.6561,-0.0434 -2.4013,1.24174 -5.1954,6.3508401 -6.6609,12.17969014 -0.4933,1.96209996 -3.1144,6.17944996 -8.0586,12.96624986 -1.5909,2.18371 -3.5208,5.04121 -4.2888,6.35 -0.7679,1.30876 -2.4257,3.80833 -3.6839,5.55458 -1.2582,1.74625 -3.5803,5.0037 -5.1601,7.23874 -4.9838,7.05067 -8.5319,11.20574 -16.5501,19.38134 -5.3185,5.4229 -10.2248,9.89242 -10.8592,9.89242 -0.5511,0 -1.9971,-2.80561 -2.5909,-5.02708 -0.6641,-2.4846 -0.7881,-9.00488 -0.2633,-13.84467 0.9041,-8.33712 2.3397,-14.97803 9.1902,-42.51157986 6.0348,-24.25562014 7.3193,-28.79989014 10.2828,-36.38021014 2.1619,-5.52992 2.8954,-8.13797 3.0927,-10.99698 0.1236,-1.79136 0.06,-2.33116 -0.3982,-3.3664 -0.666,-1.50566 -1.8513,-2.30298 -3.4257,-2.30439 -0.9539,0 -1.2801,0.15471 -2.1509,1.02553 -0.641,0.64101 -1.2015,1.56009 -1.4924,2.4474 -1.7847,5.44329 -10.0746,18.15568 -20.9916,32.18997 -7.3756,9.4818504 -12.1616,15.0373601 -17.3659,20.1582301 -2.373,2.33498 -3.1366,2.94709 -3.3004,2.64584 -0.8331,-1.53189 -1.0705,-12.4797897 -0.4014,-18.5158601 0.9743,-8.78965 3.1565,-18.32869 7.1524,-31.26589 2.1753,-7.04279 3.6913,-10.99148 8.0643,-21.00546 5.2066,-11.92263 6.2826,-15.10194 5.8143,-17.17863 -0.2627,-1.1648 -0.5905,-1.57424 -1.5926,-1.98932 -1.5825,-0.65548 -2.4616,-0.19791 -5.5119,2.86901 -3.7273,3.74753 -9.5977,7.71612 -11.4138,7.71612 -0.9011,0 -1.9326,-3.73758 -2.387,-8.64896 l -0.3229,-3.48959 3.7125,-9.3427 c 2.0418,-5.138487 4.7244,-11.902557 5.9613,-15.031257 4.3255,-10.94134 10.2754,-23.67293 14.5905,-31.22083 5.9779,-10.4566 11.1986,-18.77946 14.5011,-23.11781 6.9876,-9.17937 17.3285,-20.30859 25.4568,-27.3975 3.9226,-3.421 10.1724,-8.19882 11.8325,-9.04578 l 1.12,-0.57137 0.5352,0.75954 c 1.2226,1.73498 2.1708,2.48751 3.1343,2.48751 1.3636,0 2.2986,-0.93822 3.3356,-3.34693 3.0263,-7.02948 8.025,-13.98545 15.201,-21.15293 6.332502,-6.32497 10.626202,-9.31196 15.518502,-10.79588 5.3723,-1.62949 16.3937,-3.82846 22.0834,-4.40605 3.2849,-0.33348 5.8927,-0.79917 14.6843,-2.62231 11.226,-2.32794 24.6084,-4.27474 33.0387,-4.80629 6.7935002,-0.42833 17.8401002,-0.15198 21.7301002,0.54367 3.6730998,0.65682 7.7537998,1.72823 8.9347998,2.34582 1.355,0.70866 5.0061,3.98981 6.4449,5.7921 1.4871,1.86266 2.5091,3.97814 3.4985,7.24162 1.5849,5.22787 2.2312,8.83599 3.8654,21.58047 1.2532,9.77355 1.5911,11.44775 5.2268,25.89858 l 2.7957,11.1125 -0.05,22.35729 c -0.088,39.27189 -0.3759,43.64659 -4.6473,70.511467 -1.7995,11.31789 -2.1601,14.10112 -2.6567,20.50528 -0.6928,8.93321 -2.2564,20.59954 -4.6454,34.66034 -2.1676,12.75731 -3.0563,16.3070704 -6.7015,26.7669401 -6.1982,17.7857399 -13.4930998,34.4059999 -19.5486998,44.5382699 -2.2049,3.68929 -7.1377,10.75319 -7.5065,10.74946 -0.7927,-0.008 -2.1119002,-11.06331 -3.2559002,-27.28592 -0.8942,-12.68188 -1.2039,-14.63484 -2.5162,-15.86764 -0.3827,-0.35955 -1.0959,-0.64961 -1.7895,-0.72779 -0.9753,-0.10994 -1.2846,-0.0193 -2.006,0.58769 -1.1387,0.95816 -1.9899,2.47277 -2.8149,5.0089 -0.808,2.48418 -1.8752,3.95598 -5.1742,7.13624 -2.5589,2.46676 -4.5267,3.8626 -5.4455,3.8626 -0.3355,0 -0.9311,-0.39727 -1.4054,-0.9375 -1.5578,-1.77429 -2.9148,-5.00824 -4.7949,-11.42772 l -1.0256,-3.50168 0.5163,-1.50069 c 0.6742,-1.95964 0.6893,-4.6753199 0.033,-5.8994199 -0.9517,-1.77451 -3.691,-2.4385 -5.4852,-1.32961 -1.2275,0.75859 -2.1818,2.33183 -6.2538,10.3091199 -8.0806,15.83029 -16.6396,29.2109 -25.6403,40.08437 -2.5052,3.02639 -9.893,10.45104 -10.3992,10.45104 -0.1857,0 -0.4679,-0.44648 -0.6271,-0.99218 z m 132.6881,-277.335117 c -3.9016,-5.54307 -6.1599,-9.99569 -8.2181,-16.20324 -1.3541,-4.08416 -2.3067,-6.501 -3.9434,-10.00487 -3.342,-7.15423 -8.3846,-13.05544 -13.2737,-15.53358 -1.5029,-0.76179 -11.1217998,-2.77479 -18.8085998,-3.93616 -8.5825,-1.29669 -18.6203002,-1.1426 -27.8107002,0.42691 -4.5838,0.78282 -13.9624,3.15915 -20.3435,5.15461 l -5.5562,1.73752 -17.0657,-0.10168 c -18.5082,-0.11025 -18.891,-0.13843 -22.1487,-1.62986 -1.2102,-0.55406 -4.2852,-2.52574 -5.2021,-3.33563 -0.3404,-0.30062 2.7384,-4.43082 5.3438,-7.16859 4.4327,-4.65804 14.067,-11.62077 18.2648,-13.19999 0.8213,-0.30898 4.2912,-1.14784 7.711,-1.86414 14.6776,-3.07444 24.7564,-5.59851 28.3818,-7.10774 2.3857,-0.9932 5.4681,-2.98749 7.0785,-4.57983 4.0284,-3.98317 3.7315,-9.24624 -0.5447,-9.65711 -1.8211,-0.175 -2.821,0.26437 -5.309,2.33288 -1.3077,1.08723 -2.8004,2.06505 -3.6271,2.37596 -0.7727,0.29057 -4.7613,1.36829 -8.8635,2.39493 -4.1023,1.02661 -10.6139,2.75175 -14.4702,3.8336 -3.8563,1.08186 -8.6553,2.31989 -10.6645,2.75119 -5.4256,1.16467 -12.7066,4.51731 -17.8199,8.20539 -1.1412,0.82315 -3.1465,2.27198 -4.4562,3.21964 -3.9325,2.84541 -7.671902,4.93421 -14.669802,8.19425 l -3.2927,1.53392 -0.9016,-2.03835 c -3.0857,-6.97643 -2.6606,-10.24427 3.3607,-25.82907 1.1291,-2.92241 2.2584,-5.87129 2.5096,-6.5531 0.4516,-1.22568 0.4723,-1.24118 1.8305,-1.37538 0.7555,-0.0747 4.0526,-0.25477 7.326802,-0.40021 6.6284,-0.29446 8.7932,-0.69871 12.0798,-2.25576 4.4464,-2.10648 12.1996,-8.3239 14.8216,-11.88572 0.9731,-1.32178 1.1445,-1.744 1.1445,-2.81911 0,-1.96498 -0.5957,-2.51803 -2.6892,-2.49655 -1.3027,0.0135 -2.1802,0.22913 -3.9358,0.96785 -2.6561,1.11752 -5.1687,2.54796 -6.9709,3.9684 -1.631,1.28559 -4.8222,2.80749 -8.2323,3.92605 -2.4032,0.78827 -3.0121,0.87836 -6.6405,0.98245 -3.309302,0.095 -4.497402,0.0185 -6.924302,-0.44585 -9.8347,-1.88159 -20.4891,-6.96185 -23.5544,-11.2313 -0.8546,-1.19023 -2.3162,-4.10033 -2.1324,-4.24548 0.051,-0.0405 0.9863,-0.6437 2.0777,-1.3404 1.0914,-0.69673 3.2067,-2.15607 4.7006,-3.24297 4.1249,-3.00117 6.1039,-3.93655 8.8123,-4.1651 7.8026,-0.65842 16.982802,-3.12949 21.325702,-5.74029 2.8449,-1.7103 7.8312,-7.87549 9.9147,-12.25889 1.0347,-2.17681 1.0635,-4.34578 0.071,-5.33839 -0.6212,-0.62119 -0.8256,-0.6713 -2.2218,-0.54467 -0.8896,0.0806 -2.1238,0.43378 -2.9282,0.8378 -1.9275,0.96811 -4.6109,3.15915 -5.9344,4.84537 -3.6157,4.60671 -12.566302,7.9984 -21.121402,8.00354 -6.2546,0.004 -11.2656,-1.55258 -14.256,-4.42767 l -0.9762,-0.93851 2.2213,-2.60511 c 4.6162,-5.41409 8.2407,-10.55685 12.5621,-17.82403 5.3736,-9.03666 8.4686,-13.07766 11.002,-14.36499 0.5935,-0.30155 2.9152,-0.98351 5.1594,-1.51551 10.273202,-2.43525 13.186402,-3.55658 15.856602,-6.10359 2.6857,-2.56165 3.8326,-5.73818 2.7958,-7.74317 -0.9322,-1.80258 -2.9986,-1.8047 -8.0908,-0.008 -8.2668,2.91634 -7.2742,2.72783 -14.418702,2.73852 -8.7864,0.0132 -8.67,0.0513 -13.2511,-4.3467 l -2.1795,-2.09247 2.0565,-2.48322 c 4.2036,-5.07559 8.228,-7.41123 21.072502,-12.22988 6.8014,-2.55158 7.8577,-3.08 8.6191,-4.31193 0.7073,-1.14453 0.536,-2.77229 -0.3892,-3.69751 -0.5502,-0.55012 -1.2411,-0.74355 -4.5839,-1.2833 -2.1648,-0.34955 -4.3386,-0.70306 -4.8306,-0.78558 l -0.8947,-0.15004 0.181,-3.61952 c 0.5484,-10.96665 2.8226,-27.76994 4.0065,-29.60334 0.2239,-0.34663 2.8768,-1.83508 6.53,-3.66367 14.4394,-7.22758 19.0128,-11.02685 17.2881,-14.36198 -1.0299,-1.9916 -2.9245,-1.82675 -10.3413,0.8998 -6.8826,2.53014 -13.1325,4.5158 -18.580302,5.90314 -5.7183,1.45622 -8.5238,1.89727 -12.235,1.92345 -2.946,0.0208 -3.2458,-0.0249 -4.3298,-0.66021 -1.4298,-0.83792 -3.881,-3.46904 -3.881,-4.16583 0,-1.00928 2.6925,-11.04038 4.0819,-15.2074 2.8481,-8.54218 5.851,-13.69382 12.8525,-22.04963 5.981302,-7.13814 10.575002,-11.33647 15.477102,-14.14489 1.1642,-0.66696 4.6089,-2.29082 7.6551,-3.60858 6.3577,-2.75039 6.8399,-3.01839 8.3201,-4.62418 0.9273,-1.00603 1.0904,-1.35424 1.0904,-2.3281 0,-1.94427 -1.0514,-3.01313 -6.6146,-6.72425 -6.9281,-4.62167 -11.0217,-8.29619 -13.6481,-12.25077 -0.9182,-1.38245 -1.9158,-2.83004 -2.2171,-3.21686 l -0.5477,-0.70332 0.8643,-0.52772 c 0.4753,-0.29025 2.8883,-1.31701 5.3622,-2.28171 2.4738,-0.96469 5.748,-2.24243 7.276,-2.83943 5.8737,-2.29492 10.8434,-4.94469 16.8236,-8.97014 1.0311,-0.69403 4.5434,-3.48872 7.8052,-6.21041 10.4532,-8.72223 14.2873,-11.33133 23.2608,-15.8288 6.2074,-3.11114 9.2178,-4.23372 10.8479,-4.04527 0.6549,0.0757 2.3179,0.26652 3.6957,0.42404 4.3231,0.49425 14.0977002,-0.47021 20.0385002,-1.97723 4.663,-1.18288 9.0711998,-3.8684 13.4778998,-8.21088 2.6063,-2.56831 2.9885,-3.33898 2.6228,-5.28843 -0.2847,-1.51749 -1.3562,-2.01604 -4.1161,-1.91506 -2.0683,0.0757 -2.4828,0.19136 -5.1593998,1.43999 -5.5083,2.5696 -10.844,3.95726 -16.2732,4.23216 -3.4326002,0.1738 -6.8779002,-0.0474 -6.8779002,-0.4416 0,-0.34404 5.056,-4.68823 7.4645002,-6.41369 1.1695,-0.83782 4.2845,-2.61221 6.92210001,-3.9431 2.63769999,-1.33088 5.69189999,-3.03339 6.78729999,-3.78334 3.7316,-2.55493 10.4285998,-4.94298 21.9531998,-7.82819 4.1474,-1.0383 10.3982,-2.81962 13.8907,-3.95849 10.9604,-3.57412 18.571401,-5.34516 28.839501,-6.71088 11.899,-1.58261 19.494,-2.02125 38.099997,-2.20039 l 15.3459,-0.14775 0.4887,1.42169 c 1.0986,3.19561 3.4474,5.74802 6.9814,7.58664 4.4555,2.31801 9.6226,3.54377 15.1517,3.59436 2.6576,0.0243 3.4689,-0.0582 4.13,-0.42028 1.6299,-0.89269 1.8529,-3.29052 0.444,-4.77455 -0.4056,-0.42729 -2.0472,-1.40763 -3.6479,-2.17855 -1.6007,-0.77092 -4.6407,-2.2349 -6.7555,-3.25328 -5.4582,-2.6284 -6.3414,-3.78072 -6.3414,-8.2738 v -1.57448 l 0.8599,10e-4 c 1.2856,0.002 9.1466,0.74193 12.7662,1.20228 15.4992,1.97125 28.859,5.87121 33.9804,9.91949 2.1619,1.7088 8.5902,8.06616 11.9439,11.81186 1.663,1.85735 3.4403,3.78251 3.9496,4.27811 1.454,1.41488 4.1285,2.49701 11.1143,4.49702 10.1561,2.90764 12.9471,3.99755 22.5838,8.81907 8.4482,4.22686 12.6245,6.50813 13.53,7.39057 l 0.7938,0.77352 0.1436,9.05715 c 0.163,10.28815 0.106,9.96671 2.681,15.10809 2.3882,4.76839 4.8376,7.99864 6.8573,9.04304 2.1177,1.09512 4.7159,0.60539 5.3937,-1.01662 0.4801,-1.1493 0.1116,-3.01537 -1.864,-9.43613 -1.9373,-6.2964 -2.4868,-9.04979 -2.4918,-12.48629 0,-3.04702 0.7136,-7.94871 1.5944,-10.88322 l 0.5388,-1.79494 1.194,0.85745 c 1.8906,1.35777 7.9935,7.76413 10.2175,10.72562 4.454,5.9311 7.4023,11.95226 10.9103,22.28168 l 1.4444,4.25326 h -1.0116 c -1.8643,0 -6.1196,1.28214 -9.2519,2.7876 -2.7487,1.32107 -6.9077,3.91602 -9.9993,6.23888 l -1.1061,0.83108 -7.6252,-5.41283 c -11.6295,-8.25541 -12.142,-8.56707 -16.1828,-9.84115 -5.0934,-1.60594 -11.9674,-1.94487 -15.0711,-0.74308 -3.2699,1.2662 -4.7836,3.39166 -5.011,7.03616 -0.1682,2.69707 0.2052,4.9384 1.4319,8.5945 2.2089,6.58372 3.3867,8.16348 14.8903,19.97177 l 5.8912,6.04731 -1.1524,0.76797 c -1.452,0.96763 -4.847,2.29208 -7.0991,2.76954 -5.1823,1.09868 -8.4689,0.0919 -15.8258,-4.84792 -2.6615,-1.78707 -6.017,-3.84037 -7.4568,-4.56287 -1.4398,-0.72251 -4.5267,-2.44351 -6.86,-3.82444 -15.4742,-9.15857 -30.004,-15.25243 -44.7984,-18.78856 -8.9998,-2.15115 -23.4018,-3.98076 -36.7197,-4.66481 -8.0464,-0.4133 -30.842297,-0.16708 -36.739197,0.39683 -11.0226,1.05406 -17.3784,2.86558 -27.1576,7.74038 -10.870201,5.41864 -17.118401,10.69089 -22.820801,19.25642 -4.7573,7.14585 -6.7384,13.09214 -7.4926,22.48926 -0.3682,4.58824 -0.1868,25.85252 0.2698,31.63086 1.2224,15.46736 3.323,24.30639 8.3755,35.2429 3.9389,8.52607 5.8173,11.83083 11.0231,19.39356 6.2455,9.07323 9.670101,12.83029 18.053301,19.80592 10.5209,8.75443 15.8324,12.28873 29.4683,19.60832 5.6871,3.05276 9.373797,4.77986 15.643197,7.3283 5.5583,2.2594 12.742,5.72087 16.4769,7.93937 6.3337,3.76225 14.755,11.19669 22.5149,19.87653 2.276,2.54585 2.6601,2.77144 11.9585,7.02226 15.997,7.31313 35.2693,21.55669 42.8124,31.64133 4.6491,6.21551 6.7107,12.35562 7.9573,23.69984 0.6099,5.54988 0.7952,9.86192 0.4514,10.50425 -0.5268,0.98446 -2.5277,1.26971 -8.9058,1.26971 -5.5212,0 -5.9527,-0.0369 -8.3825,-0.71654 -8.0226,-2.24401 -18.9129,-7.70165 -22.2572,-11.15415 -0.6107,-0.63042 -1.8094,-2.46938 -2.6639,-4.08659 -2.3013,-4.35576 -3.7815,-5.87084 -5.7358,-5.87084 -0.5949,0 -1.0907,0.25733 -1.7329,0.89958 -0.9894,0.98936 -1.0822,1.62541 -0.931,6.37646 0.196,6.16278 2.4202,9.16744 10.9677,14.81666 l 4.4036,2.91042 v 5.44761 c 0,7.93081 -0.8262,15.73689 -2.158,20.28312 -0.4815,1.64359 -0.6468,1.91823 -1.155,1.91823 -0.3262,0 -2.8389,-0.64508 -5.5838,-1.43351 -2.745,-0.78844 -6.2404,-1.7597 -7.7676,-2.1584 -4.6222,-1.20665 -6.6911,-2.19728 -12.0214,-5.75616 -3.3793,-2.25627 -4.3519,-3.3732 -6.325,-7.26319 -1.8867,-3.71967 -5.1374,-10.79188 -6.6545,-14.47728 -2.6494,-6.43634 -4.8639,-9.80599 -8.0721,-12.28297 -3.2692,-2.52402 -9.229,-6.36481 -11.8597,-7.64301 -2.1143,-1.0273 -2.7575,-1.21492 -4.5136,-1.31657 -2.341,-0.13552 -3.4973,0.29149 -4.9788,1.83864 -1.2586,1.31445 -1.9738,3.12584 -4.0572,10.27578 -1.038897,3.56526 -2.428997,7.91104 -3.089197,9.65729 -1.1134,2.94482 -3.2902,7.65437 -3.7687,8.15346 -0.4094,0.42706 -5.4938,-6.30566 -7.5849,-10.04398 -2.1404,-3.8263 -3.1097,-7.70631 -4.0555,-16.23343 -0.8927,-8.04765 -1.5413,-10.2316 -3.288,-11.07157 -0.4341,-0.20873 -1.0937,-0.28967 -1.5946,-0.19569 -1.4386,0.26988 -2.5507,1.69114 -7.367,9.41517 -8.3942,13.46195 -13.7243,24.11828 -17.005601,33.99896 -2.6951,8.11556 -3.6984,13.39424 -4.1315,21.73629 -0.2654,5.11307 -0.2497,6.21157 0.1231,8.60507 1.4333,9.20289 1.197,25.64656 -0.4257,29.62341 l -0.3326,0.81515 -1.5206,-2.16035 z M 243.13528,-545.39658 c -7.2141,-6.63628 -11.3893,-11.1666 -13.3201,-14.4529 -0.9116,-1.55168 -2.6872,-5.98954 -2.6872,-6.71632 0,-0.76299 5.7766,0.0829 9.4757,1.38762 4.1841,1.47572 5.0521,2.03535 14.2661,9.19673 l 3.2081,2.49349 -1.599,1.73985 c -1.3585,1.47821 -4.2116,4.95897 -6.3825,7.78679 l -0.5799,0.75527 z m 63.6323,-14.62702 c -0.5094,-0.18416 -2.9608,-1.62865 -5.4476,-3.20999 l -4.5216,-2.87517 -0.707,-1.90112 c -0.3888,-1.04561 -1.5288,-3.17051 -2.5332,-4.72199 -3.6285,-5.60458 -3.7712,-7.97345 -0.9222,-15.31025 0.664,-1.70987 1.2484,-3.10885 1.2987,-3.10885 0.3076,0 4.0704,5.50532 4.9282,7.21033 1.3854,2.75376 1.7428,4.44094 2.2219,10.48985 0.4678,5.90723 0.6828,7.05962 1.6478,8.8327 1.1029,2.02628 2.1352,2.51141 5.0069,2.35301 1.0306,-0.0569 2.4125,-1.17265 2.9014,-2.34278 0.199,-0.47629 0.5986,-2.50637 0.888,-4.51129 0.2894,-2.00491 0.677,-4.16617 0.8613,-4.80279 l 0.3351,-1.15749 2.3128,2.51953 c 1.6136,1.75784 2.3128,2.71873 2.3128,3.17839 0,0.36236 -0.471,1.59985 -1.0466,2.74998 -1.3664,2.72983 -3.8735,5.39083 -5.9403,6.30487 -1.6718,0.73935 -2.254,0.78841 -3.5964,0.30306 z"
       id="path2099" />
  </g>
</svg>
