M48
; DRILL file {KiCad (5.1.5)-3} date 2/8/2020 10:33:44 PM
; FORMAT={-:-/ absolute / inch / decimal}
; #@! TF.CreationDate,2020-02-08T22:33:44-06:00
; #@! TF.GenerationSoftware,Kicad,Pcbnew,(5.1.5)-3
; #@! TF.FileFunction,Plated,1,2,PTH
FMAT,2
INCH
T1C0.0130
T2C0.0400
%
G90
G05
T1
X3.425Y-4.425
X3.5Y-4.225
X3.55Y-4.325
X3.625Y-3.725
X3.625Y-4.5
X3.65Y-3.975
X3.675Y-3.45
X3.775Y-3.775
X3.8Y-4.625
X3.8Y-5.0
X3.85Y-2.975
X3.85Y-4.275
X3.875Y-3.375
X3.975Y-6.3
X4.0Y-3.875
X4.0Y-4.15
X4.05Y-3.075
X4.05Y-4.475
X4.05Y-4.625
X4.125Y-4.15
X4.125Y-5.175
X4.2Y-5.175
X4.2Y-5.975
X4.225Y-3.1
X4.325Y-1.925
X4.325Y-4.475
X4.35Y-1.875
X4.35Y-3.15
X4.35Y-3.35
X4.4Y-1.975
X4.4Y-4.325
X4.4Y-4.45
X4.5Y-1.35
X4.5Y-6.2886
X4.525Y-3.125
X4.525Y-3.7
X4.575Y-1.9
X4.575Y-2.15
X4.6Y-4.85
X4.62Y-1.705
X4.625Y-3.9
X4.625Y-4.025
X4.625Y-4.075
X4.625Y-4.475
X4.625Y-4.625
X4.625Y-5.15
X4.625Y-5.35
X4.65Y-1.55
X4.675Y-2.9
X4.675Y-2.95
X4.675Y-5.5
X4.675Y-5.55
X4.675Y-5.6
X4.675Y-5.65
X4.675Y-5.7
X4.675Y-5.75
X4.675Y-5.8
X4.675Y-5.85
X4.675Y-5.9
X4.675Y-5.95
X4.675Y-6.0
X4.675Y-6.05
X4.675Y-6.1
X4.7Y-3.05
X4.7Y-6.525
X4.75Y-2.85
X4.75Y-3.475
X4.75Y-4.925
X4.775Y-4.475
X4.8Y-2.375
X4.8Y-2.85
X4.8Y-5.0
X4.825Y-2.825
X4.825Y-2.975
X4.825Y-3.025
X4.825Y-3.075
X4.825Y-4.175
X4.875Y-2.775
X4.875Y-2.825
X4.875Y-3.2
X4.925Y-2.775
X4.925Y-4.7
X4.925Y-4.775
X4.925Y-6.525
X4.95Y-3.075
X4.95Y-5.3
X4.95Y-5.45
X4.975Y-6.475
X4.975Y-6.575
X5.0Y-1.725
X5.0Y-3.125
X5.0Y-3.175
X5.0Y-3.95
X5.0Y-5.25
X5.0Y-5.5
X5.0Y-6.125
X5.025Y-2.275
X5.025Y-6.525
X5.05Y-1.075
X5.05Y-2.675
X5.05Y-3.975
X5.075Y-2.15
X5.075Y-3.325
X5.075Y-5.25
X5.1Y-1.725
X5.1Y-2.575
X5.125Y-2.6
X5.125Y-2.85
X5.125Y-2.95
X5.125Y-6.3332
X5.15Y-2.625
X5.15Y-4.125
X5.15Y-5.375
X5.175Y-3.175
X5.2Y-1.4
X5.2Y-3.95
X5.2Y-6.2
X5.225Y-2.55
X5.225Y-2.85
X5.225Y-2.95
X5.225Y-5.425
X5.25Y-2.3
X5.25Y-6.25
X5.275Y-2.55
X5.3Y-3.25
X5.325Y-0.95
X5.325Y-2.45
X5.325Y-2.575
X5.325Y-6.05
X5.35Y-1.975
X5.35Y-2.6
X5.35Y-4.125
X5.375Y-2.625
X5.375Y-2.75
X5.375Y-3.175
X5.375Y-5.95
X5.375Y-6.05
X5.4Y-2.65
X5.425Y-3.075
X5.45Y-1.975
X5.45Y-2.725
X5.45Y-2.975
X5.45Y-3.025
X5.475Y-3.55
X5.5Y-2.725
X5.5Y-2.775
X5.5Y-2.825
X5.5Y-2.9
X5.5Y-3.425
X5.5Y-6.425
X5.525Y-2.85
X5.55Y-2.3
X5.575Y-6.325
X5.65Y-6.325
X5.725Y-2.275
X5.725Y-3.1
X5.775Y-3.425
X5.8Y-6.475
X5.875Y-7.625
X5.9Y-6.35
X5.925Y-2.375
X6.05Y-3.35
X6.05Y-6.525
X6.1Y-2.55
X6.1Y-2.8
X6.1Y-2.925
X6.125Y-7.625
X6.175Y-6.375
X6.175Y-6.7
X6.3Y-2.8
T2
X6.07Y-6.818
X6.07Y-7.408
X4.05Y-7.475
X4.05Y-7.575
X4.05Y-7.675
T0
M30
