G04 #@! TF.GenerationSoftware,KiCad,Pcbnew,(5.1.5)-3*
G04 #@! TF.CreationDate,2020-02-08T22:33:43-06:00*
G04 #@! TF.ProjectId,tymkrs_Cyphercon_2020_flamingo,74796d6b-7273-45f4-9379-70686572636f,V0*
G04 #@! TF.SameCoordinates,Original*
G04 #@! TF.FileFunction,Paste,Top*
G04 #@! TF.FilePolarity,Positive*
%FSLAX46Y46*%
G04 Gerber Fmt 4.6, Leading zero omitted, Abs format (unit mm)*
G04 Created by KiCad (PCBNEW (5.1.5)-3) date 2020-02-08 22:33:43*
%MOMM*%
%LPD*%
G04 APERTURE LIST*
%ADD10C,0.100000*%
G04 APERTURE END LIST*
D10*
G36*
X104830760Y-102034557D02*
G01*
X104851880Y-102038400D01*
X104872522Y-102044295D01*
X104892487Y-102052185D01*
X104911582Y-102061993D01*
X105355420Y-102318243D01*
X105373462Y-102329876D01*
X105390277Y-102343221D01*
X105405703Y-102358150D01*
X105419591Y-102374519D01*
X105431808Y-102392171D01*
X105442236Y-102410935D01*
X105450774Y-102430631D01*
X105457341Y-102451069D01*
X105461873Y-102472053D01*
X105464327Y-102493379D01*
X105464678Y-102514843D01*
X105462924Y-102536239D01*
X105459081Y-102557359D01*
X105453186Y-102578001D01*
X105445296Y-102597966D01*
X105435488Y-102617061D01*
X105216738Y-102995947D01*
X105205105Y-103013989D01*
X105191760Y-103030804D01*
X105176831Y-103046230D01*
X105160462Y-103060118D01*
X105142810Y-103072335D01*
X105124046Y-103082763D01*
X105104350Y-103091301D01*
X105083912Y-103097868D01*
X105062928Y-103102400D01*
X105041602Y-103104854D01*
X105020138Y-103105205D01*
X104998742Y-103103451D01*
X104977622Y-103099608D01*
X104956980Y-103093713D01*
X104937015Y-103085823D01*
X104917920Y-103076015D01*
X104474082Y-102819765D01*
X104456040Y-102808132D01*
X104439225Y-102794787D01*
X104423799Y-102779858D01*
X104409911Y-102763489D01*
X104397694Y-102745837D01*
X104387266Y-102727073D01*
X104378728Y-102707377D01*
X104372161Y-102686939D01*
X104367629Y-102665955D01*
X104365175Y-102644629D01*
X104364824Y-102623165D01*
X104366578Y-102601769D01*
X104370421Y-102580649D01*
X104376316Y-102560007D01*
X104384206Y-102540042D01*
X104394014Y-102520947D01*
X104612764Y-102142061D01*
X104624397Y-102124019D01*
X104637742Y-102107204D01*
X104652671Y-102091778D01*
X104669040Y-102077890D01*
X104686692Y-102065673D01*
X104705456Y-102055245D01*
X104725152Y-102046707D01*
X104745590Y-102040140D01*
X104766574Y-102035608D01*
X104787900Y-102033154D01*
X104809364Y-102032803D01*
X104830760Y-102034557D01*
G37*
G36*
X104043258Y-103398549D02*
G01*
X104064378Y-103402392D01*
X104085020Y-103408287D01*
X104104985Y-103416177D01*
X104124080Y-103425985D01*
X104567918Y-103682235D01*
X104585960Y-103693868D01*
X104602775Y-103707213D01*
X104618201Y-103722142D01*
X104632089Y-103738511D01*
X104644306Y-103756163D01*
X104654734Y-103774927D01*
X104663272Y-103794623D01*
X104669839Y-103815061D01*
X104674371Y-103836045D01*
X104676825Y-103857371D01*
X104677176Y-103878835D01*
X104675422Y-103900231D01*
X104671579Y-103921351D01*
X104665684Y-103941993D01*
X104657794Y-103961958D01*
X104647986Y-103981053D01*
X104429236Y-104359939D01*
X104417603Y-104377981D01*
X104404258Y-104394796D01*
X104389329Y-104410222D01*
X104372960Y-104424110D01*
X104355308Y-104436327D01*
X104336544Y-104446755D01*
X104316848Y-104455293D01*
X104296410Y-104461860D01*
X104275426Y-104466392D01*
X104254100Y-104468846D01*
X104232636Y-104469197D01*
X104211240Y-104467443D01*
X104190120Y-104463600D01*
X104169478Y-104457705D01*
X104149513Y-104449815D01*
X104130418Y-104440007D01*
X103686580Y-104183757D01*
X103668538Y-104172124D01*
X103651723Y-104158779D01*
X103636297Y-104143850D01*
X103622409Y-104127481D01*
X103610192Y-104109829D01*
X103599764Y-104091065D01*
X103591226Y-104071369D01*
X103584659Y-104050931D01*
X103580127Y-104029947D01*
X103577673Y-104008621D01*
X103577322Y-103987157D01*
X103579076Y-103965761D01*
X103582919Y-103944641D01*
X103588814Y-103923999D01*
X103596704Y-103904034D01*
X103606512Y-103884939D01*
X103825262Y-103506053D01*
X103836895Y-103488011D01*
X103850240Y-103471196D01*
X103865169Y-103455770D01*
X103881538Y-103441882D01*
X103899190Y-103429665D01*
X103917954Y-103419237D01*
X103937650Y-103410699D01*
X103958088Y-103404132D01*
X103979072Y-103399600D01*
X104000398Y-103397146D01*
X104021862Y-103396795D01*
X104043258Y-103398549D01*
G37*
G36*
X100639760Y-108384557D02*
G01*
X100660880Y-108388400D01*
X100681522Y-108394295D01*
X100701487Y-108402185D01*
X100720582Y-108411993D01*
X101164420Y-108668243D01*
X101182462Y-108679876D01*
X101199277Y-108693221D01*
X101214703Y-108708150D01*
X101228591Y-108724519D01*
X101240808Y-108742171D01*
X101251236Y-108760935D01*
X101259774Y-108780631D01*
X101266341Y-108801069D01*
X101270873Y-108822053D01*
X101273327Y-108843379D01*
X101273678Y-108864843D01*
X101271924Y-108886239D01*
X101268081Y-108907359D01*
X101262186Y-108928001D01*
X101254296Y-108947966D01*
X101244488Y-108967061D01*
X101025738Y-109345947D01*
X101014105Y-109363989D01*
X101000760Y-109380804D01*
X100985831Y-109396230D01*
X100969462Y-109410118D01*
X100951810Y-109422335D01*
X100933046Y-109432763D01*
X100913350Y-109441301D01*
X100892912Y-109447868D01*
X100871928Y-109452400D01*
X100850602Y-109454854D01*
X100829138Y-109455205D01*
X100807742Y-109453451D01*
X100786622Y-109449608D01*
X100765980Y-109443713D01*
X100746015Y-109435823D01*
X100726920Y-109426015D01*
X100283082Y-109169765D01*
X100265040Y-109158132D01*
X100248225Y-109144787D01*
X100232799Y-109129858D01*
X100218911Y-109113489D01*
X100206694Y-109095837D01*
X100196266Y-109077073D01*
X100187728Y-109057377D01*
X100181161Y-109036939D01*
X100176629Y-109015955D01*
X100174175Y-108994629D01*
X100173824Y-108973165D01*
X100175578Y-108951769D01*
X100179421Y-108930649D01*
X100185316Y-108910007D01*
X100193206Y-108890042D01*
X100203014Y-108870947D01*
X100421764Y-108492061D01*
X100433397Y-108474019D01*
X100446742Y-108457204D01*
X100461671Y-108441778D01*
X100478040Y-108427890D01*
X100495692Y-108415673D01*
X100514456Y-108405245D01*
X100534152Y-108396707D01*
X100554590Y-108390140D01*
X100575574Y-108385608D01*
X100596900Y-108383154D01*
X100618364Y-108382803D01*
X100639760Y-108384557D01*
G37*
G36*
X99852258Y-109748549D02*
G01*
X99873378Y-109752392D01*
X99894020Y-109758287D01*
X99913985Y-109766177D01*
X99933080Y-109775985D01*
X100376918Y-110032235D01*
X100394960Y-110043868D01*
X100411775Y-110057213D01*
X100427201Y-110072142D01*
X100441089Y-110088511D01*
X100453306Y-110106163D01*
X100463734Y-110124927D01*
X100472272Y-110144623D01*
X100478839Y-110165061D01*
X100483371Y-110186045D01*
X100485825Y-110207371D01*
X100486176Y-110228835D01*
X100484422Y-110250231D01*
X100480579Y-110271351D01*
X100474684Y-110291993D01*
X100466794Y-110311958D01*
X100456986Y-110331053D01*
X100238236Y-110709939D01*
X100226603Y-110727981D01*
X100213258Y-110744796D01*
X100198329Y-110760222D01*
X100181960Y-110774110D01*
X100164308Y-110786327D01*
X100145544Y-110796755D01*
X100125848Y-110805293D01*
X100105410Y-110811860D01*
X100084426Y-110816392D01*
X100063100Y-110818846D01*
X100041636Y-110819197D01*
X100020240Y-110817443D01*
X99999120Y-110813600D01*
X99978478Y-110807705D01*
X99958513Y-110799815D01*
X99939418Y-110790007D01*
X99495580Y-110533757D01*
X99477538Y-110522124D01*
X99460723Y-110508779D01*
X99445297Y-110493850D01*
X99431409Y-110477481D01*
X99419192Y-110459829D01*
X99408764Y-110441065D01*
X99400226Y-110421369D01*
X99393659Y-110400931D01*
X99389127Y-110379947D01*
X99386673Y-110358621D01*
X99386322Y-110337157D01*
X99388076Y-110315761D01*
X99391919Y-110294641D01*
X99397814Y-110273999D01*
X99405704Y-110254034D01*
X99415512Y-110234939D01*
X99634262Y-109856053D01*
X99645895Y-109838011D01*
X99659240Y-109821196D01*
X99674169Y-109805770D01*
X99690538Y-109791882D01*
X99708190Y-109779665D01*
X99726954Y-109769237D01*
X99746650Y-109760699D01*
X99767088Y-109754132D01*
X99788072Y-109749600D01*
X99809398Y-109747146D01*
X99830862Y-109746795D01*
X99852258Y-109748549D01*
G37*
G36*
X94935065Y-99457426D02*
G01*
X94956363Y-99460112D01*
X95461077Y-99549107D01*
X95482009Y-99553868D01*
X95502374Y-99560657D01*
X95521976Y-99569410D01*
X95540625Y-99580042D01*
X95558143Y-99592451D01*
X95574360Y-99606517D01*
X95589120Y-99622105D01*
X95602281Y-99639064D01*
X95613716Y-99657232D01*
X95623315Y-99676433D01*
X95630987Y-99696483D01*
X95636656Y-99717188D01*
X95640268Y-99738349D01*
X95641789Y-99759762D01*
X95641204Y-99781221D01*
X95638518Y-99802520D01*
X95562546Y-100233373D01*
X95557785Y-100254306D01*
X95550996Y-100274671D01*
X95542243Y-100294272D01*
X95531611Y-100312922D01*
X95519202Y-100330439D01*
X95505136Y-100346656D01*
X95489548Y-100361416D01*
X95472588Y-100374577D01*
X95454421Y-100386012D01*
X95435219Y-100395612D01*
X95415170Y-100403283D01*
X95394465Y-100408952D01*
X95373304Y-100412564D01*
X95351891Y-100414085D01*
X95330431Y-100413500D01*
X95309133Y-100410814D01*
X94804419Y-100321819D01*
X94783487Y-100317058D01*
X94763122Y-100310269D01*
X94743520Y-100301516D01*
X94724871Y-100290884D01*
X94707353Y-100278475D01*
X94691136Y-100264409D01*
X94676376Y-100248821D01*
X94663215Y-100231862D01*
X94651780Y-100213694D01*
X94642181Y-100194493D01*
X94634509Y-100174443D01*
X94628840Y-100153738D01*
X94625228Y-100132577D01*
X94623707Y-100111164D01*
X94624292Y-100089705D01*
X94626978Y-100068406D01*
X94702950Y-99637553D01*
X94707711Y-99616620D01*
X94714500Y-99596255D01*
X94723253Y-99576654D01*
X94733885Y-99558004D01*
X94746294Y-99540487D01*
X94760360Y-99524270D01*
X94775948Y-99509510D01*
X94792908Y-99496349D01*
X94811075Y-99484914D01*
X94830277Y-99475314D01*
X94850326Y-99467643D01*
X94871031Y-99461974D01*
X94892192Y-99458362D01*
X94913605Y-99456841D01*
X94935065Y-99457426D01*
G37*
G36*
X94661569Y-101008500D02*
G01*
X94682867Y-101011186D01*
X95187581Y-101100181D01*
X95208513Y-101104942D01*
X95228878Y-101111731D01*
X95248480Y-101120484D01*
X95267129Y-101131116D01*
X95284647Y-101143525D01*
X95300864Y-101157591D01*
X95315624Y-101173179D01*
X95328785Y-101190138D01*
X95340220Y-101208306D01*
X95349819Y-101227507D01*
X95357491Y-101247557D01*
X95363160Y-101268262D01*
X95366772Y-101289423D01*
X95368293Y-101310836D01*
X95367708Y-101332295D01*
X95365022Y-101353594D01*
X95289050Y-101784447D01*
X95284289Y-101805380D01*
X95277500Y-101825745D01*
X95268747Y-101845346D01*
X95258115Y-101863996D01*
X95245706Y-101881513D01*
X95231640Y-101897730D01*
X95216052Y-101912490D01*
X95199092Y-101925651D01*
X95180925Y-101937086D01*
X95161723Y-101946686D01*
X95141674Y-101954357D01*
X95120969Y-101960026D01*
X95099808Y-101963638D01*
X95078395Y-101965159D01*
X95056935Y-101964574D01*
X95035637Y-101961888D01*
X94530923Y-101872893D01*
X94509991Y-101868132D01*
X94489626Y-101861343D01*
X94470024Y-101852590D01*
X94451375Y-101841958D01*
X94433857Y-101829549D01*
X94417640Y-101815483D01*
X94402880Y-101799895D01*
X94389719Y-101782936D01*
X94378284Y-101764768D01*
X94368685Y-101745567D01*
X94361013Y-101725517D01*
X94355344Y-101704812D01*
X94351732Y-101683651D01*
X94350211Y-101662238D01*
X94350796Y-101640779D01*
X94353482Y-101619480D01*
X94429454Y-101188627D01*
X94434215Y-101167694D01*
X94441004Y-101147329D01*
X94449757Y-101127728D01*
X94460389Y-101109078D01*
X94472798Y-101091561D01*
X94486864Y-101075344D01*
X94502452Y-101060584D01*
X94519412Y-101047423D01*
X94537579Y-101035988D01*
X94556781Y-101026388D01*
X94576830Y-101018717D01*
X94597535Y-101013048D01*
X94618696Y-101009436D01*
X94640109Y-101007915D01*
X94661569Y-101008500D01*
G37*
G36*
X91353665Y-96714226D02*
G01*
X91374963Y-96716912D01*
X91879677Y-96805907D01*
X91900609Y-96810668D01*
X91920974Y-96817457D01*
X91940576Y-96826210D01*
X91959225Y-96836842D01*
X91976743Y-96849251D01*
X91992960Y-96863317D01*
X92007720Y-96878905D01*
X92020881Y-96895864D01*
X92032316Y-96914032D01*
X92041915Y-96933233D01*
X92049587Y-96953283D01*
X92055256Y-96973988D01*
X92058868Y-96995149D01*
X92060389Y-97016562D01*
X92059804Y-97038021D01*
X92057118Y-97059320D01*
X91981146Y-97490173D01*
X91976385Y-97511106D01*
X91969596Y-97531471D01*
X91960843Y-97551072D01*
X91950211Y-97569722D01*
X91937802Y-97587239D01*
X91923736Y-97603456D01*
X91908148Y-97618216D01*
X91891188Y-97631377D01*
X91873021Y-97642812D01*
X91853819Y-97652412D01*
X91833770Y-97660083D01*
X91813065Y-97665752D01*
X91791904Y-97669364D01*
X91770491Y-97670885D01*
X91749031Y-97670300D01*
X91727733Y-97667614D01*
X91223019Y-97578619D01*
X91202087Y-97573858D01*
X91181722Y-97567069D01*
X91162120Y-97558316D01*
X91143471Y-97547684D01*
X91125953Y-97535275D01*
X91109736Y-97521209D01*
X91094976Y-97505621D01*
X91081815Y-97488662D01*
X91070380Y-97470494D01*
X91060781Y-97451293D01*
X91053109Y-97431243D01*
X91047440Y-97410538D01*
X91043828Y-97389377D01*
X91042307Y-97367964D01*
X91042892Y-97346505D01*
X91045578Y-97325206D01*
X91121550Y-96894353D01*
X91126311Y-96873420D01*
X91133100Y-96853055D01*
X91141853Y-96833454D01*
X91152485Y-96814804D01*
X91164894Y-96797287D01*
X91178960Y-96781070D01*
X91194548Y-96766310D01*
X91211508Y-96753149D01*
X91229675Y-96741714D01*
X91248877Y-96732114D01*
X91268926Y-96724443D01*
X91289631Y-96718774D01*
X91310792Y-96715162D01*
X91332205Y-96713641D01*
X91353665Y-96714226D01*
G37*
G36*
X91080169Y-98265300D02*
G01*
X91101467Y-98267986D01*
X91606181Y-98356981D01*
X91627113Y-98361742D01*
X91647478Y-98368531D01*
X91667080Y-98377284D01*
X91685729Y-98387916D01*
X91703247Y-98400325D01*
X91719464Y-98414391D01*
X91734224Y-98429979D01*
X91747385Y-98446938D01*
X91758820Y-98465106D01*
X91768419Y-98484307D01*
X91776091Y-98504357D01*
X91781760Y-98525062D01*
X91785372Y-98546223D01*
X91786893Y-98567636D01*
X91786308Y-98589095D01*
X91783622Y-98610394D01*
X91707650Y-99041247D01*
X91702889Y-99062180D01*
X91696100Y-99082545D01*
X91687347Y-99102146D01*
X91676715Y-99120796D01*
X91664306Y-99138313D01*
X91650240Y-99154530D01*
X91634652Y-99169290D01*
X91617692Y-99182451D01*
X91599525Y-99193886D01*
X91580323Y-99203486D01*
X91560274Y-99211157D01*
X91539569Y-99216826D01*
X91518408Y-99220438D01*
X91496995Y-99221959D01*
X91475535Y-99221374D01*
X91454237Y-99218688D01*
X90949523Y-99129693D01*
X90928591Y-99124932D01*
X90908226Y-99118143D01*
X90888624Y-99109390D01*
X90869975Y-99098758D01*
X90852457Y-99086349D01*
X90836240Y-99072283D01*
X90821480Y-99056695D01*
X90808319Y-99039736D01*
X90796884Y-99021568D01*
X90787285Y-99002367D01*
X90779613Y-98982317D01*
X90773944Y-98961612D01*
X90770332Y-98940451D01*
X90768811Y-98919038D01*
X90769396Y-98897579D01*
X90772082Y-98876280D01*
X90848054Y-98445427D01*
X90852815Y-98424494D01*
X90859604Y-98404129D01*
X90868357Y-98384528D01*
X90878989Y-98365878D01*
X90891398Y-98348361D01*
X90905464Y-98332144D01*
X90921052Y-98317384D01*
X90938012Y-98304223D01*
X90956179Y-98292788D01*
X90975381Y-98283188D01*
X90995430Y-98275517D01*
X91016135Y-98269848D01*
X91037296Y-98266236D01*
X91058709Y-98264715D01*
X91080169Y-98265300D01*
G37*
G36*
X98201258Y-116225549D02*
G01*
X98222378Y-116229392D01*
X98243020Y-116235287D01*
X98262985Y-116243177D01*
X98282080Y-116252985D01*
X98725918Y-116509235D01*
X98743960Y-116520868D01*
X98760775Y-116534213D01*
X98776201Y-116549142D01*
X98790089Y-116565511D01*
X98802306Y-116583163D01*
X98812734Y-116601927D01*
X98821272Y-116621623D01*
X98827839Y-116642061D01*
X98832371Y-116663045D01*
X98834825Y-116684371D01*
X98835176Y-116705835D01*
X98833422Y-116727231D01*
X98829579Y-116748351D01*
X98823684Y-116768993D01*
X98815794Y-116788958D01*
X98805986Y-116808053D01*
X98587236Y-117186939D01*
X98575603Y-117204981D01*
X98562258Y-117221796D01*
X98547329Y-117237222D01*
X98530960Y-117251110D01*
X98513308Y-117263327D01*
X98494544Y-117273755D01*
X98474848Y-117282293D01*
X98454410Y-117288860D01*
X98433426Y-117293392D01*
X98412100Y-117295846D01*
X98390636Y-117296197D01*
X98369240Y-117294443D01*
X98348120Y-117290600D01*
X98327478Y-117284705D01*
X98307513Y-117276815D01*
X98288418Y-117267007D01*
X97844580Y-117010757D01*
X97826538Y-116999124D01*
X97809723Y-116985779D01*
X97794297Y-116970850D01*
X97780409Y-116954481D01*
X97768192Y-116936829D01*
X97757764Y-116918065D01*
X97749226Y-116898369D01*
X97742659Y-116877931D01*
X97738127Y-116856947D01*
X97735673Y-116835621D01*
X97735322Y-116814157D01*
X97737076Y-116792761D01*
X97740919Y-116771641D01*
X97746814Y-116750999D01*
X97754704Y-116731034D01*
X97764512Y-116711939D01*
X97983262Y-116333053D01*
X97994895Y-116315011D01*
X98008240Y-116298196D01*
X98023169Y-116282770D01*
X98039538Y-116268882D01*
X98057190Y-116256665D01*
X98075954Y-116246237D01*
X98095650Y-116237699D01*
X98116088Y-116231132D01*
X98137072Y-116226600D01*
X98158398Y-116224146D01*
X98179862Y-116223795D01*
X98201258Y-116225549D01*
G37*
G36*
X98988760Y-114861557D02*
G01*
X99009880Y-114865400D01*
X99030522Y-114871295D01*
X99050487Y-114879185D01*
X99069582Y-114888993D01*
X99513420Y-115145243D01*
X99531462Y-115156876D01*
X99548277Y-115170221D01*
X99563703Y-115185150D01*
X99577591Y-115201519D01*
X99589808Y-115219171D01*
X99600236Y-115237935D01*
X99608774Y-115257631D01*
X99615341Y-115278069D01*
X99619873Y-115299053D01*
X99622327Y-115320379D01*
X99622678Y-115341843D01*
X99620924Y-115363239D01*
X99617081Y-115384359D01*
X99611186Y-115405001D01*
X99603296Y-115424966D01*
X99593488Y-115444061D01*
X99374738Y-115822947D01*
X99363105Y-115840989D01*
X99349760Y-115857804D01*
X99334831Y-115873230D01*
X99318462Y-115887118D01*
X99300810Y-115899335D01*
X99282046Y-115909763D01*
X99262350Y-115918301D01*
X99241912Y-115924868D01*
X99220928Y-115929400D01*
X99199602Y-115931854D01*
X99178138Y-115932205D01*
X99156742Y-115930451D01*
X99135622Y-115926608D01*
X99114980Y-115920713D01*
X99095015Y-115912823D01*
X99075920Y-115903015D01*
X98632082Y-115646765D01*
X98614040Y-115635132D01*
X98597225Y-115621787D01*
X98581799Y-115606858D01*
X98567911Y-115590489D01*
X98555694Y-115572837D01*
X98545266Y-115554073D01*
X98536728Y-115534377D01*
X98530161Y-115513939D01*
X98525629Y-115492955D01*
X98523175Y-115471629D01*
X98522824Y-115450165D01*
X98524578Y-115428769D01*
X98528421Y-115407649D01*
X98534316Y-115387007D01*
X98542206Y-115367042D01*
X98552014Y-115347947D01*
X98770764Y-114969061D01*
X98782397Y-114951019D01*
X98795742Y-114934204D01*
X98810671Y-114918778D01*
X98827040Y-114904890D01*
X98844692Y-114892673D01*
X98863456Y-114882245D01*
X98883152Y-114873707D01*
X98903590Y-114867140D01*
X98924574Y-114862608D01*
X98945900Y-114860154D01*
X98967364Y-114859803D01*
X98988760Y-114861557D01*
G37*
G36*
X95813760Y-113464557D02*
G01*
X95834880Y-113468400D01*
X95855522Y-113474295D01*
X95875487Y-113482185D01*
X95894582Y-113491993D01*
X96338420Y-113748243D01*
X96356462Y-113759876D01*
X96373277Y-113773221D01*
X96388703Y-113788150D01*
X96402591Y-113804519D01*
X96414808Y-113822171D01*
X96425236Y-113840935D01*
X96433774Y-113860631D01*
X96440341Y-113881069D01*
X96444873Y-113902053D01*
X96447327Y-113923379D01*
X96447678Y-113944843D01*
X96445924Y-113966239D01*
X96442081Y-113987359D01*
X96436186Y-114008001D01*
X96428296Y-114027966D01*
X96418488Y-114047061D01*
X96199738Y-114425947D01*
X96188105Y-114443989D01*
X96174760Y-114460804D01*
X96159831Y-114476230D01*
X96143462Y-114490118D01*
X96125810Y-114502335D01*
X96107046Y-114512763D01*
X96087350Y-114521301D01*
X96066912Y-114527868D01*
X96045928Y-114532400D01*
X96024602Y-114534854D01*
X96003138Y-114535205D01*
X95981742Y-114533451D01*
X95960622Y-114529608D01*
X95939980Y-114523713D01*
X95920015Y-114515823D01*
X95900920Y-114506015D01*
X95457082Y-114249765D01*
X95439040Y-114238132D01*
X95422225Y-114224787D01*
X95406799Y-114209858D01*
X95392911Y-114193489D01*
X95380694Y-114175837D01*
X95370266Y-114157073D01*
X95361728Y-114137377D01*
X95355161Y-114116939D01*
X95350629Y-114095955D01*
X95348175Y-114074629D01*
X95347824Y-114053165D01*
X95349578Y-114031769D01*
X95353421Y-114010649D01*
X95359316Y-113990007D01*
X95367206Y-113970042D01*
X95377014Y-113950947D01*
X95595764Y-113572061D01*
X95607397Y-113554019D01*
X95620742Y-113537204D01*
X95635671Y-113521778D01*
X95652040Y-113507890D01*
X95669692Y-113495673D01*
X95688456Y-113485245D01*
X95708152Y-113476707D01*
X95728590Y-113470140D01*
X95749574Y-113465608D01*
X95770900Y-113463154D01*
X95792364Y-113462803D01*
X95813760Y-113464557D01*
G37*
G36*
X95026258Y-114828549D02*
G01*
X95047378Y-114832392D01*
X95068020Y-114838287D01*
X95087985Y-114846177D01*
X95107080Y-114855985D01*
X95550918Y-115112235D01*
X95568960Y-115123868D01*
X95585775Y-115137213D01*
X95601201Y-115152142D01*
X95615089Y-115168511D01*
X95627306Y-115186163D01*
X95637734Y-115204927D01*
X95646272Y-115224623D01*
X95652839Y-115245061D01*
X95657371Y-115266045D01*
X95659825Y-115287371D01*
X95660176Y-115308835D01*
X95658422Y-115330231D01*
X95654579Y-115351351D01*
X95648684Y-115371993D01*
X95640794Y-115391958D01*
X95630986Y-115411053D01*
X95412236Y-115789939D01*
X95400603Y-115807981D01*
X95387258Y-115824796D01*
X95372329Y-115840222D01*
X95355960Y-115854110D01*
X95338308Y-115866327D01*
X95319544Y-115876755D01*
X95299848Y-115885293D01*
X95279410Y-115891860D01*
X95258426Y-115896392D01*
X95237100Y-115898846D01*
X95215636Y-115899197D01*
X95194240Y-115897443D01*
X95173120Y-115893600D01*
X95152478Y-115887705D01*
X95132513Y-115879815D01*
X95113418Y-115870007D01*
X94669580Y-115613757D01*
X94651538Y-115602124D01*
X94634723Y-115588779D01*
X94619297Y-115573850D01*
X94605409Y-115557481D01*
X94593192Y-115539829D01*
X94582764Y-115521065D01*
X94574226Y-115501369D01*
X94567659Y-115480931D01*
X94563127Y-115459947D01*
X94560673Y-115438621D01*
X94560322Y-115417157D01*
X94562076Y-115395761D01*
X94565919Y-115374641D01*
X94571814Y-115353999D01*
X94579704Y-115334034D01*
X94589512Y-115314939D01*
X94808262Y-114936053D01*
X94819895Y-114918011D01*
X94833240Y-114901196D01*
X94848169Y-114885770D01*
X94864538Y-114871882D01*
X94882190Y-114859665D01*
X94900954Y-114849237D01*
X94920650Y-114840699D01*
X94941088Y-114834132D01*
X94962072Y-114829600D01*
X94983398Y-114827146D01*
X95004862Y-114826795D01*
X95026258Y-114828549D01*
G37*
G36*
X124670651Y-100193732D02*
G01*
X124691812Y-100197344D01*
X124712517Y-100203013D01*
X124732566Y-100210684D01*
X124751768Y-100220284D01*
X124769935Y-100231719D01*
X124786895Y-100244880D01*
X124802483Y-100259640D01*
X124816549Y-100275857D01*
X124828958Y-100293374D01*
X124839590Y-100312024D01*
X124848343Y-100331625D01*
X124855132Y-100351990D01*
X124859893Y-100372923D01*
X124948888Y-100877637D01*
X124951574Y-100898936D01*
X124952159Y-100920395D01*
X124950638Y-100941808D01*
X124947026Y-100962969D01*
X124941357Y-100983674D01*
X124933685Y-101003724D01*
X124924086Y-101022925D01*
X124912651Y-101041093D01*
X124899490Y-101058052D01*
X124884730Y-101073640D01*
X124868513Y-101087706D01*
X124850995Y-101100115D01*
X124832346Y-101110747D01*
X124812744Y-101119500D01*
X124792379Y-101126289D01*
X124771447Y-101131050D01*
X124340594Y-101207022D01*
X124319296Y-101209708D01*
X124297836Y-101210293D01*
X124276423Y-101208772D01*
X124255262Y-101205160D01*
X124234557Y-101199491D01*
X124214508Y-101191820D01*
X124195306Y-101182220D01*
X124177139Y-101170785D01*
X124160179Y-101157624D01*
X124144591Y-101142864D01*
X124130525Y-101126647D01*
X124118116Y-101109130D01*
X124107484Y-101090480D01*
X124098731Y-101070879D01*
X124091942Y-101050514D01*
X124087181Y-101029581D01*
X123998186Y-100524867D01*
X123995500Y-100503568D01*
X123994915Y-100482109D01*
X123996436Y-100460696D01*
X124000048Y-100439535D01*
X124005717Y-100418830D01*
X124013389Y-100398780D01*
X124022988Y-100379579D01*
X124034423Y-100361411D01*
X124047584Y-100344452D01*
X124062344Y-100328864D01*
X124078561Y-100314798D01*
X124096079Y-100302389D01*
X124114728Y-100291757D01*
X124134330Y-100283004D01*
X124154695Y-100276215D01*
X124175627Y-100271454D01*
X124606480Y-100195482D01*
X124627778Y-100192796D01*
X124649238Y-100192211D01*
X124670651Y-100193732D01*
G37*
G36*
X123119577Y-100467228D02*
G01*
X123140738Y-100470840D01*
X123161443Y-100476509D01*
X123181492Y-100484180D01*
X123200694Y-100493780D01*
X123218861Y-100505215D01*
X123235821Y-100518376D01*
X123251409Y-100533136D01*
X123265475Y-100549353D01*
X123277884Y-100566870D01*
X123288516Y-100585520D01*
X123297269Y-100605121D01*
X123304058Y-100625486D01*
X123308819Y-100646419D01*
X123397814Y-101151133D01*
X123400500Y-101172432D01*
X123401085Y-101193891D01*
X123399564Y-101215304D01*
X123395952Y-101236465D01*
X123390283Y-101257170D01*
X123382611Y-101277220D01*
X123373012Y-101296421D01*
X123361577Y-101314589D01*
X123348416Y-101331548D01*
X123333656Y-101347136D01*
X123317439Y-101361202D01*
X123299921Y-101373611D01*
X123281272Y-101384243D01*
X123261670Y-101392996D01*
X123241305Y-101399785D01*
X123220373Y-101404546D01*
X122789520Y-101480518D01*
X122768222Y-101483204D01*
X122746762Y-101483789D01*
X122725349Y-101482268D01*
X122704188Y-101478656D01*
X122683483Y-101472987D01*
X122663434Y-101465316D01*
X122644232Y-101455716D01*
X122626065Y-101444281D01*
X122609105Y-101431120D01*
X122593517Y-101416360D01*
X122579451Y-101400143D01*
X122567042Y-101382626D01*
X122556410Y-101363976D01*
X122547657Y-101344375D01*
X122540868Y-101324010D01*
X122536107Y-101303077D01*
X122447112Y-100798363D01*
X122444426Y-100777064D01*
X122443841Y-100755605D01*
X122445362Y-100734192D01*
X122448974Y-100713031D01*
X122454643Y-100692326D01*
X122462315Y-100672276D01*
X122471914Y-100653075D01*
X122483349Y-100634907D01*
X122496510Y-100617948D01*
X122511270Y-100602360D01*
X122527487Y-100588294D01*
X122545005Y-100575885D01*
X122563654Y-100565253D01*
X122583256Y-100556500D01*
X122603621Y-100549711D01*
X122624553Y-100544950D01*
X123055406Y-100468978D01*
X123076704Y-100466292D01*
X123098164Y-100465707D01*
X123119577Y-100467228D01*
G37*
G36*
X117994490Y-85657453D02*
G01*
X118015725Y-85660603D01*
X118036549Y-85665819D01*
X118056761Y-85673051D01*
X118076167Y-85682230D01*
X118094580Y-85693266D01*
X118111823Y-85706054D01*
X118127729Y-85720470D01*
X118142145Y-85736376D01*
X118154933Y-85753619D01*
X118165969Y-85772032D01*
X118175148Y-85791438D01*
X118182380Y-85811650D01*
X118187596Y-85832474D01*
X118190746Y-85853709D01*
X118191799Y-85875150D01*
X118191799Y-86387650D01*
X118190746Y-86409091D01*
X118187596Y-86430326D01*
X118182380Y-86451150D01*
X118175148Y-86471362D01*
X118165969Y-86490768D01*
X118154933Y-86509181D01*
X118142145Y-86526424D01*
X118127729Y-86542330D01*
X118111823Y-86556746D01*
X118094580Y-86569534D01*
X118076167Y-86580570D01*
X118056761Y-86589749D01*
X118036549Y-86596981D01*
X118015725Y-86602197D01*
X117994490Y-86605347D01*
X117973049Y-86606400D01*
X117535549Y-86606400D01*
X117514108Y-86605347D01*
X117492873Y-86602197D01*
X117472049Y-86596981D01*
X117451837Y-86589749D01*
X117432431Y-86580570D01*
X117414018Y-86569534D01*
X117396775Y-86556746D01*
X117380869Y-86542330D01*
X117366453Y-86526424D01*
X117353665Y-86509181D01*
X117342629Y-86490768D01*
X117333450Y-86471362D01*
X117326218Y-86451150D01*
X117321002Y-86430326D01*
X117317852Y-86409091D01*
X117316799Y-86387650D01*
X117316799Y-85875150D01*
X117317852Y-85853709D01*
X117321002Y-85832474D01*
X117326218Y-85811650D01*
X117333450Y-85791438D01*
X117342629Y-85772032D01*
X117353665Y-85753619D01*
X117366453Y-85736376D01*
X117380869Y-85720470D01*
X117396775Y-85706054D01*
X117414018Y-85693266D01*
X117432431Y-85682230D01*
X117451837Y-85673051D01*
X117472049Y-85665819D01*
X117492873Y-85660603D01*
X117514108Y-85657453D01*
X117535549Y-85656400D01*
X117973049Y-85656400D01*
X117994490Y-85657453D01*
G37*
G36*
X119569492Y-85657453D02*
G01*
X119590727Y-85660603D01*
X119611551Y-85665819D01*
X119631763Y-85673051D01*
X119651169Y-85682230D01*
X119669582Y-85693266D01*
X119686825Y-85706054D01*
X119702731Y-85720470D01*
X119717147Y-85736376D01*
X119729935Y-85753619D01*
X119740971Y-85772032D01*
X119750150Y-85791438D01*
X119757382Y-85811650D01*
X119762598Y-85832474D01*
X119765748Y-85853709D01*
X119766801Y-85875150D01*
X119766801Y-86387650D01*
X119765748Y-86409091D01*
X119762598Y-86430326D01*
X119757382Y-86451150D01*
X119750150Y-86471362D01*
X119740971Y-86490768D01*
X119729935Y-86509181D01*
X119717147Y-86526424D01*
X119702731Y-86542330D01*
X119686825Y-86556746D01*
X119669582Y-86569534D01*
X119651169Y-86580570D01*
X119631763Y-86589749D01*
X119611551Y-86596981D01*
X119590727Y-86602197D01*
X119569492Y-86605347D01*
X119548051Y-86606400D01*
X119110551Y-86606400D01*
X119089110Y-86605347D01*
X119067875Y-86602197D01*
X119047051Y-86596981D01*
X119026839Y-86589749D01*
X119007433Y-86580570D01*
X118989020Y-86569534D01*
X118971777Y-86556746D01*
X118955871Y-86542330D01*
X118941455Y-86526424D01*
X118928667Y-86509181D01*
X118917631Y-86490768D01*
X118908452Y-86471362D01*
X118901220Y-86451150D01*
X118896004Y-86430326D01*
X118892854Y-86409091D01*
X118891801Y-86387650D01*
X118891801Y-85875150D01*
X118892854Y-85853709D01*
X118896004Y-85832474D01*
X118901220Y-85811650D01*
X118908452Y-85791438D01*
X118917631Y-85772032D01*
X118928667Y-85753619D01*
X118941455Y-85736376D01*
X118955871Y-85720470D01*
X118971777Y-85706054D01*
X118989020Y-85693266D01*
X119007433Y-85682230D01*
X119026839Y-85673051D01*
X119047051Y-85665819D01*
X119067875Y-85660603D01*
X119089110Y-85657453D01*
X119110551Y-85656400D01*
X119548051Y-85656400D01*
X119569492Y-85657453D01*
G37*
G36*
X109898822Y-88891174D02*
G01*
X109919900Y-88895247D01*
X109940476Y-88901366D01*
X109960354Y-88909473D01*
X109979341Y-88919489D01*
X109997255Y-88931318D01*
X110013923Y-88944846D01*
X110029185Y-88959943D01*
X110042894Y-88976462D01*
X110054918Y-88994246D01*
X110065141Y-89013123D01*
X110073464Y-89032911D01*
X110248749Y-89514503D01*
X110255092Y-89535012D01*
X110259395Y-89556043D01*
X110261616Y-89577395D01*
X110261733Y-89598862D01*
X110259745Y-89620237D01*
X110255672Y-89641314D01*
X110249553Y-89661890D01*
X110241446Y-89681768D01*
X110231430Y-89700755D01*
X110219601Y-89718669D01*
X110206073Y-89735337D01*
X110190976Y-89750599D01*
X110174457Y-89764308D01*
X110156673Y-89776332D01*
X110137796Y-89786555D01*
X110118008Y-89794878D01*
X109706893Y-89944512D01*
X109686385Y-89950855D01*
X109665353Y-89955158D01*
X109644001Y-89957379D01*
X109622534Y-89957496D01*
X109601160Y-89955508D01*
X109580082Y-89951435D01*
X109559506Y-89945316D01*
X109539628Y-89937209D01*
X109520641Y-89927193D01*
X109502727Y-89915364D01*
X109486059Y-89901836D01*
X109470797Y-89886739D01*
X109457088Y-89870220D01*
X109445064Y-89852436D01*
X109434841Y-89833559D01*
X109426518Y-89813771D01*
X109251233Y-89332179D01*
X109244890Y-89311670D01*
X109240587Y-89290639D01*
X109238366Y-89269287D01*
X109238249Y-89247820D01*
X109240237Y-89226445D01*
X109244310Y-89205368D01*
X109250429Y-89184792D01*
X109258536Y-89164914D01*
X109268552Y-89145927D01*
X109280381Y-89128013D01*
X109293909Y-89111345D01*
X109309006Y-89096083D01*
X109325525Y-89082374D01*
X109343309Y-89070350D01*
X109362186Y-89060127D01*
X109381974Y-89051804D01*
X109793089Y-88902170D01*
X109813597Y-88895827D01*
X109834629Y-88891524D01*
X109855981Y-88889303D01*
X109877448Y-88889186D01*
X109898822Y-88891174D01*
G37*
G36*
X111378840Y-88352492D02*
G01*
X111399918Y-88356565D01*
X111420494Y-88362684D01*
X111440372Y-88370791D01*
X111459359Y-88380807D01*
X111477273Y-88392636D01*
X111493941Y-88406164D01*
X111509203Y-88421261D01*
X111522912Y-88437780D01*
X111534936Y-88455564D01*
X111545159Y-88474441D01*
X111553482Y-88494229D01*
X111728767Y-88975821D01*
X111735110Y-88996330D01*
X111739413Y-89017361D01*
X111741634Y-89038713D01*
X111741751Y-89060180D01*
X111739763Y-89081555D01*
X111735690Y-89102632D01*
X111729571Y-89123208D01*
X111721464Y-89143086D01*
X111711448Y-89162073D01*
X111699619Y-89179987D01*
X111686091Y-89196655D01*
X111670994Y-89211917D01*
X111654475Y-89225626D01*
X111636691Y-89237650D01*
X111617814Y-89247873D01*
X111598026Y-89256196D01*
X111186911Y-89405830D01*
X111166403Y-89412173D01*
X111145371Y-89416476D01*
X111124019Y-89418697D01*
X111102552Y-89418814D01*
X111081178Y-89416826D01*
X111060100Y-89412753D01*
X111039524Y-89406634D01*
X111019646Y-89398527D01*
X111000659Y-89388511D01*
X110982745Y-89376682D01*
X110966077Y-89363154D01*
X110950815Y-89348057D01*
X110937106Y-89331538D01*
X110925082Y-89313754D01*
X110914859Y-89294877D01*
X110906536Y-89275089D01*
X110731251Y-88793497D01*
X110724908Y-88772988D01*
X110720605Y-88751957D01*
X110718384Y-88730605D01*
X110718267Y-88709138D01*
X110720255Y-88687763D01*
X110724328Y-88666686D01*
X110730447Y-88646110D01*
X110738554Y-88626232D01*
X110748570Y-88607245D01*
X110760399Y-88589331D01*
X110773927Y-88572663D01*
X110789024Y-88557401D01*
X110805543Y-88543692D01*
X110823327Y-88531668D01*
X110842204Y-88521445D01*
X110861992Y-88513122D01*
X111273107Y-88363488D01*
X111293615Y-88357145D01*
X111314647Y-88352842D01*
X111335999Y-88350621D01*
X111357466Y-88350504D01*
X111378840Y-88352492D01*
G37*
G36*
X111930771Y-98838580D02*
G01*
X111952006Y-98841730D01*
X111972830Y-98846946D01*
X111993042Y-98854178D01*
X112012448Y-98863357D01*
X112030861Y-98874393D01*
X112048104Y-98887181D01*
X112064010Y-98901597D01*
X112426403Y-99263990D01*
X112440819Y-99279896D01*
X112453607Y-99297139D01*
X112464643Y-99315552D01*
X112473822Y-99334958D01*
X112481054Y-99355170D01*
X112486270Y-99375994D01*
X112489420Y-99397229D01*
X112490473Y-99418670D01*
X112489420Y-99440111D01*
X112486270Y-99461346D01*
X112481054Y-99482170D01*
X112473822Y-99502382D01*
X112464643Y-99521788D01*
X112453607Y-99540201D01*
X112440819Y-99557444D01*
X112426403Y-99573350D01*
X112117044Y-99882709D01*
X112101138Y-99897125D01*
X112083895Y-99909913D01*
X112065482Y-99920949D01*
X112046076Y-99930128D01*
X112025864Y-99937360D01*
X112005040Y-99942576D01*
X111983805Y-99945726D01*
X111962364Y-99946779D01*
X111940923Y-99945726D01*
X111919688Y-99942576D01*
X111898864Y-99937360D01*
X111878652Y-99930128D01*
X111859246Y-99920949D01*
X111840833Y-99909913D01*
X111823590Y-99897125D01*
X111807684Y-99882709D01*
X111445291Y-99520316D01*
X111430875Y-99504410D01*
X111418087Y-99487167D01*
X111407051Y-99468754D01*
X111397872Y-99449348D01*
X111390640Y-99429136D01*
X111385424Y-99408312D01*
X111382274Y-99387077D01*
X111381221Y-99365636D01*
X111382274Y-99344195D01*
X111385424Y-99322960D01*
X111390640Y-99302136D01*
X111397872Y-99281924D01*
X111407051Y-99262518D01*
X111418087Y-99244105D01*
X111430875Y-99226862D01*
X111445291Y-99210956D01*
X111754650Y-98901597D01*
X111770556Y-98887181D01*
X111787799Y-98874393D01*
X111806212Y-98863357D01*
X111825618Y-98854178D01*
X111845830Y-98846946D01*
X111866654Y-98841730D01*
X111887889Y-98838580D01*
X111909330Y-98837527D01*
X111930771Y-98838580D01*
G37*
G36*
X110817077Y-99952274D02*
G01*
X110838312Y-99955424D01*
X110859136Y-99960640D01*
X110879348Y-99967872D01*
X110898754Y-99977051D01*
X110917167Y-99988087D01*
X110934410Y-100000875D01*
X110950316Y-100015291D01*
X111312709Y-100377684D01*
X111327125Y-100393590D01*
X111339913Y-100410833D01*
X111350949Y-100429246D01*
X111360128Y-100448652D01*
X111367360Y-100468864D01*
X111372576Y-100489688D01*
X111375726Y-100510923D01*
X111376779Y-100532364D01*
X111375726Y-100553805D01*
X111372576Y-100575040D01*
X111367360Y-100595864D01*
X111360128Y-100616076D01*
X111350949Y-100635482D01*
X111339913Y-100653895D01*
X111327125Y-100671138D01*
X111312709Y-100687044D01*
X111003350Y-100996403D01*
X110987444Y-101010819D01*
X110970201Y-101023607D01*
X110951788Y-101034643D01*
X110932382Y-101043822D01*
X110912170Y-101051054D01*
X110891346Y-101056270D01*
X110870111Y-101059420D01*
X110848670Y-101060473D01*
X110827229Y-101059420D01*
X110805994Y-101056270D01*
X110785170Y-101051054D01*
X110764958Y-101043822D01*
X110745552Y-101034643D01*
X110727139Y-101023607D01*
X110709896Y-101010819D01*
X110693990Y-100996403D01*
X110331597Y-100634010D01*
X110317181Y-100618104D01*
X110304393Y-100600861D01*
X110293357Y-100582448D01*
X110284178Y-100563042D01*
X110276946Y-100542830D01*
X110271730Y-100522006D01*
X110268580Y-100500771D01*
X110267527Y-100479330D01*
X110268580Y-100457889D01*
X110271730Y-100436654D01*
X110276946Y-100415830D01*
X110284178Y-100395618D01*
X110293357Y-100376212D01*
X110304393Y-100357799D01*
X110317181Y-100340556D01*
X110331597Y-100324650D01*
X110640956Y-100015291D01*
X110656862Y-100000875D01*
X110674105Y-99988087D01*
X110692518Y-99977051D01*
X110711924Y-99967872D01*
X110732136Y-99960640D01*
X110752960Y-99955424D01*
X110774195Y-99952274D01*
X110795636Y-99951221D01*
X110817077Y-99952274D01*
G37*
G36*
X102662421Y-91741274D02*
G01*
X102683747Y-91743728D01*
X102704731Y-91748260D01*
X102725169Y-91754827D01*
X102744865Y-91763365D01*
X102763629Y-91773793D01*
X102781281Y-91786010D01*
X102797650Y-91799898D01*
X102812579Y-91815324D01*
X102825924Y-91832139D01*
X102837557Y-91850181D01*
X103093807Y-92294019D01*
X103103615Y-92313114D01*
X103111505Y-92333079D01*
X103117400Y-92353721D01*
X103121243Y-92374841D01*
X103122997Y-92396237D01*
X103122646Y-92417701D01*
X103120192Y-92439027D01*
X103115660Y-92460011D01*
X103109093Y-92480449D01*
X103100555Y-92500145D01*
X103090127Y-92518909D01*
X103077910Y-92536561D01*
X103064022Y-92552930D01*
X103048596Y-92567859D01*
X103031781Y-92581204D01*
X103013739Y-92592837D01*
X102634853Y-92811587D01*
X102615758Y-92821395D01*
X102595793Y-92829285D01*
X102575151Y-92835180D01*
X102554031Y-92839023D01*
X102532635Y-92840777D01*
X102511171Y-92840426D01*
X102489845Y-92837972D01*
X102468861Y-92833440D01*
X102448423Y-92826873D01*
X102428727Y-92818335D01*
X102409963Y-92807907D01*
X102392311Y-92795690D01*
X102375942Y-92781802D01*
X102361013Y-92766376D01*
X102347668Y-92749561D01*
X102336035Y-92731519D01*
X102079785Y-92287681D01*
X102069977Y-92268586D01*
X102062087Y-92248621D01*
X102056192Y-92227979D01*
X102052349Y-92206859D01*
X102050595Y-92185463D01*
X102050946Y-92163999D01*
X102053400Y-92142673D01*
X102057932Y-92121689D01*
X102064499Y-92101251D01*
X102073037Y-92081555D01*
X102083465Y-92062791D01*
X102095682Y-92045139D01*
X102109570Y-92028770D01*
X102124996Y-92013841D01*
X102141811Y-92000496D01*
X102159853Y-91988863D01*
X102538739Y-91770113D01*
X102557834Y-91760305D01*
X102577799Y-91752415D01*
X102598441Y-91746520D01*
X102619561Y-91742677D01*
X102640957Y-91740923D01*
X102662421Y-91741274D01*
G37*
G36*
X101298429Y-92528774D02*
G01*
X101319755Y-92531228D01*
X101340739Y-92535760D01*
X101361177Y-92542327D01*
X101380873Y-92550865D01*
X101399637Y-92561293D01*
X101417289Y-92573510D01*
X101433658Y-92587398D01*
X101448587Y-92602824D01*
X101461932Y-92619639D01*
X101473565Y-92637681D01*
X101729815Y-93081519D01*
X101739623Y-93100614D01*
X101747513Y-93120579D01*
X101753408Y-93141221D01*
X101757251Y-93162341D01*
X101759005Y-93183737D01*
X101758654Y-93205201D01*
X101756200Y-93226527D01*
X101751668Y-93247511D01*
X101745101Y-93267949D01*
X101736563Y-93287645D01*
X101726135Y-93306409D01*
X101713918Y-93324061D01*
X101700030Y-93340430D01*
X101684604Y-93355359D01*
X101667789Y-93368704D01*
X101649747Y-93380337D01*
X101270861Y-93599087D01*
X101251766Y-93608895D01*
X101231801Y-93616785D01*
X101211159Y-93622680D01*
X101190039Y-93626523D01*
X101168643Y-93628277D01*
X101147179Y-93627926D01*
X101125853Y-93625472D01*
X101104869Y-93620940D01*
X101084431Y-93614373D01*
X101064735Y-93605835D01*
X101045971Y-93595407D01*
X101028319Y-93583190D01*
X101011950Y-93569302D01*
X100997021Y-93553876D01*
X100983676Y-93537061D01*
X100972043Y-93519019D01*
X100715793Y-93075181D01*
X100705985Y-93056086D01*
X100698095Y-93036121D01*
X100692200Y-93015479D01*
X100688357Y-92994359D01*
X100686603Y-92972963D01*
X100686954Y-92951499D01*
X100689408Y-92930173D01*
X100693940Y-92909189D01*
X100700507Y-92888751D01*
X100709045Y-92869055D01*
X100719473Y-92850291D01*
X100731690Y-92832639D01*
X100745578Y-92816270D01*
X100761004Y-92801341D01*
X100777819Y-92787996D01*
X100795861Y-92776363D01*
X101174747Y-92557613D01*
X101193842Y-92547805D01*
X101213807Y-92539915D01*
X101234449Y-92534020D01*
X101255569Y-92530177D01*
X101276965Y-92528423D01*
X101298429Y-92528774D01*
G37*
G36*
X132073980Y-83064818D02*
G01*
X132095278Y-83067504D01*
X132116211Y-83072265D01*
X132136576Y-83079054D01*
X132156178Y-83087807D01*
X132174827Y-83098439D01*
X132192345Y-83110848D01*
X132208561Y-83124914D01*
X132223321Y-83140502D01*
X132236483Y-83157462D01*
X132530440Y-83577278D01*
X132541875Y-83595445D01*
X132551475Y-83614647D01*
X132559146Y-83634696D01*
X132564815Y-83655401D01*
X132568427Y-83676562D01*
X132569948Y-83697975D01*
X132569363Y-83719435D01*
X132566677Y-83740733D01*
X132561916Y-83761666D01*
X132555127Y-83782031D01*
X132546374Y-83801632D01*
X132535742Y-83820282D01*
X132523333Y-83837799D01*
X132509267Y-83854016D01*
X132493679Y-83868776D01*
X132476720Y-83881936D01*
X132118341Y-84132876D01*
X132100173Y-84144312D01*
X132080972Y-84153911D01*
X132060922Y-84161583D01*
X132040217Y-84167252D01*
X132019056Y-84170864D01*
X131997643Y-84172385D01*
X131976184Y-84171800D01*
X131954886Y-84169114D01*
X131933953Y-84164353D01*
X131913588Y-84157564D01*
X131893986Y-84148811D01*
X131875337Y-84138179D01*
X131857819Y-84125770D01*
X131841603Y-84111704D01*
X131826843Y-84096116D01*
X131813681Y-84079156D01*
X131519724Y-83659340D01*
X131508289Y-83641173D01*
X131498689Y-83621971D01*
X131491018Y-83601922D01*
X131485349Y-83581217D01*
X131481737Y-83560056D01*
X131480216Y-83538643D01*
X131480801Y-83517183D01*
X131483487Y-83495885D01*
X131488248Y-83474952D01*
X131495037Y-83454587D01*
X131503790Y-83434986D01*
X131514422Y-83416336D01*
X131526831Y-83398819D01*
X131540897Y-83382602D01*
X131556485Y-83367842D01*
X131573444Y-83354682D01*
X131931823Y-83103742D01*
X131949991Y-83092306D01*
X131969192Y-83082707D01*
X131989242Y-83075035D01*
X132009947Y-83069366D01*
X132031108Y-83065754D01*
X132052521Y-83064233D01*
X132073980Y-83064818D01*
G37*
G36*
X130783816Y-83968200D02*
G01*
X130805114Y-83970886D01*
X130826047Y-83975647D01*
X130846412Y-83982436D01*
X130866014Y-83991189D01*
X130884663Y-84001821D01*
X130902181Y-84014230D01*
X130918397Y-84028296D01*
X130933157Y-84043884D01*
X130946319Y-84060844D01*
X131240276Y-84480660D01*
X131251711Y-84498827D01*
X131261311Y-84518029D01*
X131268982Y-84538078D01*
X131274651Y-84558783D01*
X131278263Y-84579944D01*
X131279784Y-84601357D01*
X131279199Y-84622817D01*
X131276513Y-84644115D01*
X131271752Y-84665048D01*
X131264963Y-84685413D01*
X131256210Y-84705014D01*
X131245578Y-84723664D01*
X131233169Y-84741181D01*
X131219103Y-84757398D01*
X131203515Y-84772158D01*
X131186556Y-84785318D01*
X130828177Y-85036258D01*
X130810009Y-85047694D01*
X130790808Y-85057293D01*
X130770758Y-85064965D01*
X130750053Y-85070634D01*
X130728892Y-85074246D01*
X130707479Y-85075767D01*
X130686020Y-85075182D01*
X130664722Y-85072496D01*
X130643789Y-85067735D01*
X130623424Y-85060946D01*
X130603822Y-85052193D01*
X130585173Y-85041561D01*
X130567655Y-85029152D01*
X130551439Y-85015086D01*
X130536679Y-84999498D01*
X130523517Y-84982538D01*
X130229560Y-84562722D01*
X130218125Y-84544555D01*
X130208525Y-84525353D01*
X130200854Y-84505304D01*
X130195185Y-84484599D01*
X130191573Y-84463438D01*
X130190052Y-84442025D01*
X130190637Y-84420565D01*
X130193323Y-84399267D01*
X130198084Y-84378334D01*
X130204873Y-84357969D01*
X130213626Y-84338368D01*
X130224258Y-84319718D01*
X130236667Y-84302201D01*
X130250733Y-84285984D01*
X130266321Y-84271224D01*
X130283280Y-84258064D01*
X130641659Y-84007124D01*
X130659827Y-83995688D01*
X130679028Y-83986089D01*
X130699078Y-83978417D01*
X130719783Y-83972748D01*
X130740944Y-83969136D01*
X130762357Y-83967615D01*
X130783816Y-83968200D01*
G37*
G36*
X92979265Y-89627626D02*
G01*
X93000563Y-89630312D01*
X93505277Y-89719307D01*
X93526209Y-89724068D01*
X93546574Y-89730857D01*
X93566176Y-89739610D01*
X93584825Y-89750242D01*
X93602343Y-89762651D01*
X93618560Y-89776717D01*
X93633320Y-89792305D01*
X93646481Y-89809264D01*
X93657916Y-89827432D01*
X93667515Y-89846633D01*
X93675187Y-89866683D01*
X93680856Y-89887388D01*
X93684468Y-89908549D01*
X93685989Y-89929962D01*
X93685404Y-89951421D01*
X93682718Y-89972720D01*
X93606746Y-90403573D01*
X93601985Y-90424506D01*
X93595196Y-90444871D01*
X93586443Y-90464472D01*
X93575811Y-90483122D01*
X93563402Y-90500639D01*
X93549336Y-90516856D01*
X93533748Y-90531616D01*
X93516788Y-90544777D01*
X93498621Y-90556212D01*
X93479419Y-90565812D01*
X93459370Y-90573483D01*
X93438665Y-90579152D01*
X93417504Y-90582764D01*
X93396091Y-90584285D01*
X93374631Y-90583700D01*
X93353333Y-90581014D01*
X92848619Y-90492019D01*
X92827687Y-90487258D01*
X92807322Y-90480469D01*
X92787720Y-90471716D01*
X92769071Y-90461084D01*
X92751553Y-90448675D01*
X92735336Y-90434609D01*
X92720576Y-90419021D01*
X92707415Y-90402062D01*
X92695980Y-90383894D01*
X92686381Y-90364693D01*
X92678709Y-90344643D01*
X92673040Y-90323938D01*
X92669428Y-90302777D01*
X92667907Y-90281364D01*
X92668492Y-90259905D01*
X92671178Y-90238606D01*
X92747150Y-89807753D01*
X92751911Y-89786820D01*
X92758700Y-89766455D01*
X92767453Y-89746854D01*
X92778085Y-89728204D01*
X92790494Y-89710687D01*
X92804560Y-89694470D01*
X92820148Y-89679710D01*
X92837108Y-89666549D01*
X92855275Y-89655114D01*
X92874477Y-89645514D01*
X92894526Y-89637843D01*
X92915231Y-89632174D01*
X92936392Y-89628562D01*
X92957805Y-89627041D01*
X92979265Y-89627626D01*
G37*
G36*
X92705769Y-91178700D02*
G01*
X92727067Y-91181386D01*
X93231781Y-91270381D01*
X93252713Y-91275142D01*
X93273078Y-91281931D01*
X93292680Y-91290684D01*
X93311329Y-91301316D01*
X93328847Y-91313725D01*
X93345064Y-91327791D01*
X93359824Y-91343379D01*
X93372985Y-91360338D01*
X93384420Y-91378506D01*
X93394019Y-91397707D01*
X93401691Y-91417757D01*
X93407360Y-91438462D01*
X93410972Y-91459623D01*
X93412493Y-91481036D01*
X93411908Y-91502495D01*
X93409222Y-91523794D01*
X93333250Y-91954647D01*
X93328489Y-91975580D01*
X93321700Y-91995945D01*
X93312947Y-92015546D01*
X93302315Y-92034196D01*
X93289906Y-92051713D01*
X93275840Y-92067930D01*
X93260252Y-92082690D01*
X93243292Y-92095851D01*
X93225125Y-92107286D01*
X93205923Y-92116886D01*
X93185874Y-92124557D01*
X93165169Y-92130226D01*
X93144008Y-92133838D01*
X93122595Y-92135359D01*
X93101135Y-92134774D01*
X93079837Y-92132088D01*
X92575123Y-92043093D01*
X92554191Y-92038332D01*
X92533826Y-92031543D01*
X92514224Y-92022790D01*
X92495575Y-92012158D01*
X92478057Y-91999749D01*
X92461840Y-91985683D01*
X92447080Y-91970095D01*
X92433919Y-91953136D01*
X92422484Y-91934968D01*
X92412885Y-91915767D01*
X92405213Y-91895717D01*
X92399544Y-91875012D01*
X92395932Y-91853851D01*
X92394411Y-91832438D01*
X92394996Y-91810979D01*
X92397682Y-91789680D01*
X92473654Y-91358827D01*
X92478415Y-91337894D01*
X92485204Y-91317529D01*
X92493957Y-91297928D01*
X92504589Y-91279278D01*
X92516998Y-91261761D01*
X92531064Y-91245544D01*
X92546652Y-91230784D01*
X92563612Y-91217623D01*
X92581779Y-91206188D01*
X92600981Y-91196588D01*
X92621030Y-91188917D01*
X92641735Y-91183248D01*
X92662896Y-91179636D01*
X92684309Y-91178115D01*
X92705769Y-91178700D01*
G37*
G36*
X136453759Y-77523558D02*
G01*
X136474879Y-77527401D01*
X136495521Y-77533296D01*
X136515486Y-77541186D01*
X136534581Y-77550994D01*
X136978419Y-77807244D01*
X136996461Y-77818877D01*
X137013276Y-77832222D01*
X137028702Y-77847151D01*
X137042590Y-77863520D01*
X137054807Y-77881172D01*
X137065235Y-77899936D01*
X137073773Y-77919632D01*
X137080340Y-77940070D01*
X137084872Y-77961054D01*
X137087326Y-77982380D01*
X137087677Y-78003844D01*
X137085923Y-78025240D01*
X137082080Y-78046360D01*
X137076185Y-78067002D01*
X137068295Y-78086967D01*
X137058487Y-78106062D01*
X136839737Y-78484948D01*
X136828104Y-78502990D01*
X136814759Y-78519805D01*
X136799830Y-78535231D01*
X136783461Y-78549119D01*
X136765809Y-78561336D01*
X136747045Y-78571764D01*
X136727349Y-78580302D01*
X136706911Y-78586869D01*
X136685927Y-78591401D01*
X136664601Y-78593855D01*
X136643137Y-78594206D01*
X136621741Y-78592452D01*
X136600621Y-78588609D01*
X136579979Y-78582714D01*
X136560014Y-78574824D01*
X136540919Y-78565016D01*
X136097081Y-78308766D01*
X136079039Y-78297133D01*
X136062224Y-78283788D01*
X136046798Y-78268859D01*
X136032910Y-78252490D01*
X136020693Y-78234838D01*
X136010265Y-78216074D01*
X136001727Y-78196378D01*
X135995160Y-78175940D01*
X135990628Y-78154956D01*
X135988174Y-78133630D01*
X135987823Y-78112166D01*
X135989577Y-78090770D01*
X135993420Y-78069650D01*
X135999315Y-78049008D01*
X136007205Y-78029043D01*
X136017013Y-78009948D01*
X136235763Y-77631062D01*
X136247396Y-77613020D01*
X136260741Y-77596205D01*
X136275670Y-77580779D01*
X136292039Y-77566891D01*
X136309691Y-77554674D01*
X136328455Y-77544246D01*
X136348151Y-77535708D01*
X136368589Y-77529141D01*
X136389573Y-77524609D01*
X136410899Y-77522155D01*
X136432363Y-77521804D01*
X136453759Y-77523558D01*
G37*
G36*
X135666259Y-78887548D02*
G01*
X135687379Y-78891391D01*
X135708021Y-78897286D01*
X135727986Y-78905176D01*
X135747081Y-78914984D01*
X136190919Y-79171234D01*
X136208961Y-79182867D01*
X136225776Y-79196212D01*
X136241202Y-79211141D01*
X136255090Y-79227510D01*
X136267307Y-79245162D01*
X136277735Y-79263926D01*
X136286273Y-79283622D01*
X136292840Y-79304060D01*
X136297372Y-79325044D01*
X136299826Y-79346370D01*
X136300177Y-79367834D01*
X136298423Y-79389230D01*
X136294580Y-79410350D01*
X136288685Y-79430992D01*
X136280795Y-79450957D01*
X136270987Y-79470052D01*
X136052237Y-79848938D01*
X136040604Y-79866980D01*
X136027259Y-79883795D01*
X136012330Y-79899221D01*
X135995961Y-79913109D01*
X135978309Y-79925326D01*
X135959545Y-79935754D01*
X135939849Y-79944292D01*
X135919411Y-79950859D01*
X135898427Y-79955391D01*
X135877101Y-79957845D01*
X135855637Y-79958196D01*
X135834241Y-79956442D01*
X135813121Y-79952599D01*
X135792479Y-79946704D01*
X135772514Y-79938814D01*
X135753419Y-79929006D01*
X135309581Y-79672756D01*
X135291539Y-79661123D01*
X135274724Y-79647778D01*
X135259298Y-79632849D01*
X135245410Y-79616480D01*
X135233193Y-79598828D01*
X135222765Y-79580064D01*
X135214227Y-79560368D01*
X135207660Y-79539930D01*
X135203128Y-79518946D01*
X135200674Y-79497620D01*
X135200323Y-79476156D01*
X135202077Y-79454760D01*
X135205920Y-79433640D01*
X135211815Y-79412998D01*
X135219705Y-79393033D01*
X135229513Y-79373938D01*
X135448263Y-78995052D01*
X135459896Y-78977010D01*
X135473241Y-78960195D01*
X135488170Y-78944769D01*
X135504539Y-78930881D01*
X135522191Y-78918664D01*
X135540955Y-78908236D01*
X135560651Y-78899698D01*
X135581089Y-78893131D01*
X135602073Y-78888599D01*
X135623399Y-78886145D01*
X135644863Y-78885794D01*
X135666259Y-78887548D01*
G37*
G36*
X108259760Y-105336557D02*
G01*
X108280880Y-105340400D01*
X108301522Y-105346295D01*
X108321487Y-105354185D01*
X108340582Y-105363993D01*
X108784420Y-105620243D01*
X108802462Y-105631876D01*
X108819277Y-105645221D01*
X108834703Y-105660150D01*
X108848591Y-105676519D01*
X108860808Y-105694171D01*
X108871236Y-105712935D01*
X108879774Y-105732631D01*
X108886341Y-105753069D01*
X108890873Y-105774053D01*
X108893327Y-105795379D01*
X108893678Y-105816843D01*
X108891924Y-105838239D01*
X108888081Y-105859359D01*
X108882186Y-105880001D01*
X108874296Y-105899966D01*
X108864488Y-105919061D01*
X108645738Y-106297947D01*
X108634105Y-106315989D01*
X108620760Y-106332804D01*
X108605831Y-106348230D01*
X108589462Y-106362118D01*
X108571810Y-106374335D01*
X108553046Y-106384763D01*
X108533350Y-106393301D01*
X108512912Y-106399868D01*
X108491928Y-106404400D01*
X108470602Y-106406854D01*
X108449138Y-106407205D01*
X108427742Y-106405451D01*
X108406622Y-106401608D01*
X108385980Y-106395713D01*
X108366015Y-106387823D01*
X108346920Y-106378015D01*
X107903082Y-106121765D01*
X107885040Y-106110132D01*
X107868225Y-106096787D01*
X107852799Y-106081858D01*
X107838911Y-106065489D01*
X107826694Y-106047837D01*
X107816266Y-106029073D01*
X107807728Y-106009377D01*
X107801161Y-105988939D01*
X107796629Y-105967955D01*
X107794175Y-105946629D01*
X107793824Y-105925165D01*
X107795578Y-105903769D01*
X107799421Y-105882649D01*
X107805316Y-105862007D01*
X107813206Y-105842042D01*
X107823014Y-105822947D01*
X108041764Y-105444061D01*
X108053397Y-105426019D01*
X108066742Y-105409204D01*
X108081671Y-105393778D01*
X108098040Y-105379890D01*
X108115692Y-105367673D01*
X108134456Y-105357245D01*
X108154152Y-105348707D01*
X108174590Y-105342140D01*
X108195574Y-105337608D01*
X108216900Y-105335154D01*
X108238364Y-105334803D01*
X108259760Y-105336557D01*
G37*
G36*
X107472258Y-106700549D02*
G01*
X107493378Y-106704392D01*
X107514020Y-106710287D01*
X107533985Y-106718177D01*
X107553080Y-106727985D01*
X107996918Y-106984235D01*
X108014960Y-106995868D01*
X108031775Y-107009213D01*
X108047201Y-107024142D01*
X108061089Y-107040511D01*
X108073306Y-107058163D01*
X108083734Y-107076927D01*
X108092272Y-107096623D01*
X108098839Y-107117061D01*
X108103371Y-107138045D01*
X108105825Y-107159371D01*
X108106176Y-107180835D01*
X108104422Y-107202231D01*
X108100579Y-107223351D01*
X108094684Y-107243993D01*
X108086794Y-107263958D01*
X108076986Y-107283053D01*
X107858236Y-107661939D01*
X107846603Y-107679981D01*
X107833258Y-107696796D01*
X107818329Y-107712222D01*
X107801960Y-107726110D01*
X107784308Y-107738327D01*
X107765544Y-107748755D01*
X107745848Y-107757293D01*
X107725410Y-107763860D01*
X107704426Y-107768392D01*
X107683100Y-107770846D01*
X107661636Y-107771197D01*
X107640240Y-107769443D01*
X107619120Y-107765600D01*
X107598478Y-107759705D01*
X107578513Y-107751815D01*
X107559418Y-107742007D01*
X107115580Y-107485757D01*
X107097538Y-107474124D01*
X107080723Y-107460779D01*
X107065297Y-107445850D01*
X107051409Y-107429481D01*
X107039192Y-107411829D01*
X107028764Y-107393065D01*
X107020226Y-107373369D01*
X107013659Y-107352931D01*
X107009127Y-107331947D01*
X107006673Y-107310621D01*
X107006322Y-107289157D01*
X107008076Y-107267761D01*
X107011919Y-107246641D01*
X107017814Y-107225999D01*
X107025704Y-107206034D01*
X107035512Y-107186939D01*
X107254262Y-106808053D01*
X107265895Y-106790011D01*
X107279240Y-106773196D01*
X107294169Y-106757770D01*
X107310538Y-106743882D01*
X107328190Y-106731665D01*
X107346954Y-106721237D01*
X107366650Y-106712699D01*
X107387088Y-106706132D01*
X107408072Y-106701600D01*
X107429398Y-106699146D01*
X107450862Y-106698795D01*
X107472258Y-106700549D01*
G37*
G36*
X138113808Y-71277363D02*
G01*
X138134969Y-71280975D01*
X138155674Y-71286644D01*
X138175724Y-71294316D01*
X138194925Y-71303915D01*
X138213093Y-71315350D01*
X138230052Y-71328511D01*
X138245640Y-71343271D01*
X138259706Y-71359488D01*
X138272115Y-71377006D01*
X138282747Y-71395655D01*
X138291500Y-71415257D01*
X138298289Y-71435622D01*
X138303050Y-71456554D01*
X138379022Y-71887407D01*
X138381708Y-71908705D01*
X138382293Y-71930165D01*
X138380772Y-71951578D01*
X138377160Y-71972739D01*
X138371491Y-71993444D01*
X138363820Y-72013493D01*
X138354220Y-72032695D01*
X138342785Y-72050862D01*
X138329624Y-72067822D01*
X138314864Y-72083410D01*
X138298647Y-72097476D01*
X138281130Y-72109885D01*
X138262480Y-72120517D01*
X138242879Y-72129270D01*
X138222514Y-72136059D01*
X138201581Y-72140820D01*
X137696867Y-72229815D01*
X137675568Y-72232501D01*
X137654109Y-72233086D01*
X137632696Y-72231565D01*
X137611535Y-72227953D01*
X137590830Y-72222284D01*
X137570780Y-72214612D01*
X137551579Y-72205013D01*
X137533411Y-72193578D01*
X137516452Y-72180417D01*
X137500864Y-72165657D01*
X137486798Y-72149440D01*
X137474389Y-72131922D01*
X137463757Y-72113273D01*
X137455004Y-72093671D01*
X137448215Y-72073306D01*
X137443454Y-72052374D01*
X137367482Y-71621521D01*
X137364796Y-71600223D01*
X137364211Y-71578763D01*
X137365732Y-71557350D01*
X137369344Y-71536189D01*
X137375013Y-71515484D01*
X137382684Y-71495435D01*
X137392284Y-71476233D01*
X137403719Y-71458066D01*
X137416880Y-71441106D01*
X137431640Y-71425518D01*
X137447857Y-71411452D01*
X137465374Y-71399043D01*
X137484024Y-71388411D01*
X137503625Y-71379658D01*
X137523990Y-71372869D01*
X137544923Y-71368108D01*
X138049637Y-71279113D01*
X138070936Y-71276427D01*
X138092395Y-71275842D01*
X138113808Y-71277363D01*
G37*
G36*
X138387304Y-72828435D02*
G01*
X138408465Y-72832047D01*
X138429170Y-72837716D01*
X138449220Y-72845388D01*
X138468421Y-72854987D01*
X138486589Y-72866422D01*
X138503548Y-72879583D01*
X138519136Y-72894343D01*
X138533202Y-72910560D01*
X138545611Y-72928078D01*
X138556243Y-72946727D01*
X138564996Y-72966329D01*
X138571785Y-72986694D01*
X138576546Y-73007626D01*
X138652518Y-73438479D01*
X138655204Y-73459777D01*
X138655789Y-73481237D01*
X138654268Y-73502650D01*
X138650656Y-73523811D01*
X138644987Y-73544516D01*
X138637316Y-73564565D01*
X138627716Y-73583767D01*
X138616281Y-73601934D01*
X138603120Y-73618894D01*
X138588360Y-73634482D01*
X138572143Y-73648548D01*
X138554626Y-73660957D01*
X138535976Y-73671589D01*
X138516375Y-73680342D01*
X138496010Y-73687131D01*
X138475077Y-73691892D01*
X137970363Y-73780887D01*
X137949064Y-73783573D01*
X137927605Y-73784158D01*
X137906192Y-73782637D01*
X137885031Y-73779025D01*
X137864326Y-73773356D01*
X137844276Y-73765684D01*
X137825075Y-73756085D01*
X137806907Y-73744650D01*
X137789948Y-73731489D01*
X137774360Y-73716729D01*
X137760294Y-73700512D01*
X137747885Y-73682994D01*
X137737253Y-73664345D01*
X137728500Y-73644743D01*
X137721711Y-73624378D01*
X137716950Y-73603446D01*
X137640978Y-73172593D01*
X137638292Y-73151295D01*
X137637707Y-73129835D01*
X137639228Y-73108422D01*
X137642840Y-73087261D01*
X137648509Y-73066556D01*
X137656180Y-73046507D01*
X137665780Y-73027305D01*
X137677215Y-73009138D01*
X137690376Y-72992178D01*
X137705136Y-72976590D01*
X137721353Y-72962524D01*
X137738870Y-72950115D01*
X137757520Y-72939483D01*
X137777121Y-72930730D01*
X137797486Y-72923941D01*
X137818419Y-72919180D01*
X138323133Y-72830185D01*
X138344432Y-72827499D01*
X138365891Y-72826914D01*
X138387304Y-72828435D01*
G37*
G36*
X150756326Y-80731550D02*
G01*
X150777561Y-80734700D01*
X150798385Y-80739916D01*
X150818597Y-80747148D01*
X150838003Y-80756327D01*
X150856416Y-80767363D01*
X150873659Y-80780151D01*
X150889565Y-80794567D01*
X150903981Y-80810473D01*
X150916769Y-80827716D01*
X150927805Y-80846129D01*
X150936984Y-80865535D01*
X150944216Y-80885747D01*
X150949432Y-80906571D01*
X150952582Y-80927806D01*
X150953635Y-80949247D01*
X150953635Y-81386747D01*
X150952582Y-81408188D01*
X150949432Y-81429423D01*
X150944216Y-81450247D01*
X150936984Y-81470459D01*
X150927805Y-81489865D01*
X150916769Y-81508278D01*
X150903981Y-81525521D01*
X150889565Y-81541427D01*
X150873659Y-81555843D01*
X150856416Y-81568631D01*
X150838003Y-81579667D01*
X150818597Y-81588846D01*
X150798385Y-81596078D01*
X150777561Y-81601294D01*
X150756326Y-81604444D01*
X150734885Y-81605497D01*
X150222385Y-81605497D01*
X150200944Y-81604444D01*
X150179709Y-81601294D01*
X150158885Y-81596078D01*
X150138673Y-81588846D01*
X150119267Y-81579667D01*
X150100854Y-81568631D01*
X150083611Y-81555843D01*
X150067705Y-81541427D01*
X150053289Y-81525521D01*
X150040501Y-81508278D01*
X150029465Y-81489865D01*
X150020286Y-81470459D01*
X150013054Y-81450247D01*
X150007838Y-81429423D01*
X150004688Y-81408188D01*
X150003635Y-81386747D01*
X150003635Y-80949247D01*
X150004688Y-80927806D01*
X150007838Y-80906571D01*
X150013054Y-80885747D01*
X150020286Y-80865535D01*
X150029465Y-80846129D01*
X150040501Y-80827716D01*
X150053289Y-80810473D01*
X150067705Y-80794567D01*
X150083611Y-80780151D01*
X150100854Y-80767363D01*
X150119267Y-80756327D01*
X150138673Y-80747148D01*
X150158885Y-80739916D01*
X150179709Y-80734700D01*
X150200944Y-80731550D01*
X150222385Y-80730497D01*
X150734885Y-80730497D01*
X150756326Y-80731550D01*
G37*
G36*
X150756326Y-82306550D02*
G01*
X150777561Y-82309700D01*
X150798385Y-82314916D01*
X150818597Y-82322148D01*
X150838003Y-82331327D01*
X150856416Y-82342363D01*
X150873659Y-82355151D01*
X150889565Y-82369567D01*
X150903981Y-82385473D01*
X150916769Y-82402716D01*
X150927805Y-82421129D01*
X150936984Y-82440535D01*
X150944216Y-82460747D01*
X150949432Y-82481571D01*
X150952582Y-82502806D01*
X150953635Y-82524247D01*
X150953635Y-82961747D01*
X150952582Y-82983188D01*
X150949432Y-83004423D01*
X150944216Y-83025247D01*
X150936984Y-83045459D01*
X150927805Y-83064865D01*
X150916769Y-83083278D01*
X150903981Y-83100521D01*
X150889565Y-83116427D01*
X150873659Y-83130843D01*
X150856416Y-83143631D01*
X150838003Y-83154667D01*
X150818597Y-83163846D01*
X150798385Y-83171078D01*
X150777561Y-83176294D01*
X150756326Y-83179444D01*
X150734885Y-83180497D01*
X150222385Y-83180497D01*
X150200944Y-83179444D01*
X150179709Y-83176294D01*
X150158885Y-83171078D01*
X150138673Y-83163846D01*
X150119267Y-83154667D01*
X150100854Y-83143631D01*
X150083611Y-83130843D01*
X150067705Y-83116427D01*
X150053289Y-83100521D01*
X150040501Y-83083278D01*
X150029465Y-83064865D01*
X150020286Y-83045459D01*
X150013054Y-83025247D01*
X150007838Y-83004423D01*
X150004688Y-82983188D01*
X150003635Y-82961747D01*
X150003635Y-82524247D01*
X150004688Y-82502806D01*
X150007838Y-82481571D01*
X150013054Y-82460747D01*
X150020286Y-82440535D01*
X150029465Y-82421129D01*
X150040501Y-82402716D01*
X150053289Y-82385473D01*
X150067705Y-82369567D01*
X150083611Y-82355151D01*
X150100854Y-82342363D01*
X150119267Y-82331327D01*
X150138673Y-82322148D01*
X150158885Y-82314916D01*
X150179709Y-82309700D01*
X150200944Y-82306550D01*
X150222385Y-82305497D01*
X150734885Y-82305497D01*
X150756326Y-82306550D01*
G37*
G36*
X153902490Y-76608328D02*
G01*
X154413040Y-76652995D01*
X154434308Y-76655913D01*
X154455187Y-76660902D01*
X154475477Y-76667913D01*
X154494982Y-76676879D01*
X154513515Y-76687714D01*
X154530896Y-76700313D01*
X154546958Y-76714555D01*
X154561547Y-76730303D01*
X154574522Y-76747405D01*
X154585759Y-76765697D01*
X154595148Y-76785001D01*
X154602601Y-76805133D01*
X154608043Y-76825899D01*
X154611425Y-76847098D01*
X154612712Y-76868527D01*
X154611893Y-76889978D01*
X154573763Y-77325813D01*
X154570845Y-77347081D01*
X154565856Y-77367960D01*
X154558845Y-77388250D01*
X154549879Y-77407755D01*
X154539044Y-77426287D01*
X154526445Y-77443669D01*
X154512203Y-77459731D01*
X154496455Y-77474320D01*
X154479353Y-77487295D01*
X154461062Y-77498532D01*
X154441757Y-77507921D01*
X154421625Y-77515373D01*
X154400859Y-77520816D01*
X154379660Y-77524198D01*
X154358231Y-77525485D01*
X154336780Y-77524666D01*
X153826230Y-77479999D01*
X153804962Y-77477081D01*
X153784083Y-77472092D01*
X153763793Y-77465081D01*
X153744288Y-77456115D01*
X153725755Y-77445280D01*
X153708374Y-77432681D01*
X153692312Y-77418439D01*
X153677723Y-77402691D01*
X153664748Y-77385589D01*
X153653511Y-77367297D01*
X153644122Y-77347993D01*
X153636669Y-77327861D01*
X153631227Y-77307095D01*
X153627845Y-77285896D01*
X153626558Y-77264467D01*
X153627377Y-77243016D01*
X153665507Y-76807181D01*
X153668425Y-76785913D01*
X153673414Y-76765034D01*
X153680425Y-76744744D01*
X153689391Y-76725239D01*
X153700226Y-76706707D01*
X153712825Y-76689325D01*
X153727067Y-76673263D01*
X153742815Y-76658674D01*
X153759917Y-76645699D01*
X153778208Y-76634462D01*
X153797513Y-76625073D01*
X153817645Y-76617621D01*
X153838411Y-76612178D01*
X153859610Y-76608796D01*
X153881039Y-76607509D01*
X153902490Y-76608328D01*
G37*
G36*
X153765220Y-78177334D02*
G01*
X154275770Y-78222001D01*
X154297038Y-78224919D01*
X154317917Y-78229908D01*
X154338207Y-78236919D01*
X154357712Y-78245885D01*
X154376245Y-78256720D01*
X154393626Y-78269319D01*
X154409688Y-78283561D01*
X154424277Y-78299309D01*
X154437252Y-78316411D01*
X154448489Y-78334703D01*
X154457878Y-78354007D01*
X154465331Y-78374139D01*
X154470773Y-78394905D01*
X154474155Y-78416104D01*
X154475442Y-78437533D01*
X154474623Y-78458984D01*
X154436493Y-78894819D01*
X154433575Y-78916087D01*
X154428586Y-78936966D01*
X154421575Y-78957256D01*
X154412609Y-78976761D01*
X154401774Y-78995293D01*
X154389175Y-79012675D01*
X154374933Y-79028737D01*
X154359185Y-79043326D01*
X154342083Y-79056301D01*
X154323792Y-79067538D01*
X154304487Y-79076927D01*
X154284355Y-79084379D01*
X154263589Y-79089822D01*
X154242390Y-79093204D01*
X154220961Y-79094491D01*
X154199510Y-79093672D01*
X153688960Y-79049005D01*
X153667692Y-79046087D01*
X153646813Y-79041098D01*
X153626523Y-79034087D01*
X153607018Y-79025121D01*
X153588485Y-79014286D01*
X153571104Y-79001687D01*
X153555042Y-78987445D01*
X153540453Y-78971697D01*
X153527478Y-78954595D01*
X153516241Y-78936303D01*
X153506852Y-78916999D01*
X153499399Y-78896867D01*
X153493957Y-78876101D01*
X153490575Y-78854902D01*
X153489288Y-78833473D01*
X153490107Y-78812022D01*
X153528237Y-78376187D01*
X153531155Y-78354919D01*
X153536144Y-78334040D01*
X153543155Y-78313750D01*
X153552121Y-78294245D01*
X153562956Y-78275713D01*
X153575555Y-78258331D01*
X153589797Y-78242269D01*
X153605545Y-78227680D01*
X153622647Y-78214705D01*
X153640938Y-78203468D01*
X153660243Y-78194079D01*
X153680375Y-78186627D01*
X153701141Y-78181184D01*
X153722340Y-78177802D01*
X153743769Y-78176515D01*
X153765220Y-78177334D01*
G37*
G36*
X155928214Y-67020230D02*
G01*
X155949291Y-67024303D01*
X155969867Y-67030422D01*
X155989745Y-67038529D01*
X156008732Y-67048545D01*
X156026646Y-67060374D01*
X156043314Y-67073902D01*
X156058576Y-67088999D01*
X156072285Y-67105518D01*
X156084309Y-67123302D01*
X156094532Y-67142179D01*
X156102855Y-67161967D01*
X156252489Y-67573082D01*
X156258832Y-67593590D01*
X156263135Y-67614622D01*
X156265356Y-67635974D01*
X156265473Y-67657441D01*
X156263485Y-67678815D01*
X156259412Y-67699893D01*
X156253293Y-67720469D01*
X156245186Y-67740347D01*
X156235170Y-67759334D01*
X156223341Y-67777248D01*
X156209813Y-67793916D01*
X156194716Y-67809178D01*
X156178197Y-67822887D01*
X156160413Y-67834911D01*
X156141536Y-67845134D01*
X156121748Y-67853457D01*
X155640156Y-68028742D01*
X155619647Y-68035085D01*
X155598616Y-68039388D01*
X155577264Y-68041609D01*
X155555797Y-68041726D01*
X155534422Y-68039738D01*
X155513345Y-68035665D01*
X155492769Y-68029546D01*
X155472891Y-68021439D01*
X155453904Y-68011423D01*
X155435990Y-67999594D01*
X155419322Y-67986066D01*
X155404060Y-67970969D01*
X155390351Y-67954450D01*
X155378327Y-67936666D01*
X155368104Y-67917789D01*
X155359781Y-67898001D01*
X155210147Y-67486886D01*
X155203804Y-67466378D01*
X155199501Y-67445346D01*
X155197280Y-67423994D01*
X155197163Y-67402527D01*
X155199151Y-67381153D01*
X155203224Y-67360075D01*
X155209343Y-67339499D01*
X155217450Y-67319621D01*
X155227466Y-67300634D01*
X155239295Y-67282720D01*
X155252823Y-67266052D01*
X155267920Y-67250790D01*
X155284439Y-67237081D01*
X155302223Y-67225057D01*
X155321100Y-67214834D01*
X155340888Y-67206511D01*
X155822480Y-67031226D01*
X155842989Y-67024883D01*
X155864020Y-67020580D01*
X155885372Y-67018359D01*
X155906839Y-67018242D01*
X155928214Y-67020230D01*
G37*
G36*
X156466896Y-68500246D02*
G01*
X156487973Y-68504319D01*
X156508549Y-68510438D01*
X156528427Y-68518545D01*
X156547414Y-68528561D01*
X156565328Y-68540390D01*
X156581996Y-68553918D01*
X156597258Y-68569015D01*
X156610967Y-68585534D01*
X156622991Y-68603318D01*
X156633214Y-68622195D01*
X156641537Y-68641983D01*
X156791171Y-69053098D01*
X156797514Y-69073606D01*
X156801817Y-69094638D01*
X156804038Y-69115990D01*
X156804155Y-69137457D01*
X156802167Y-69158831D01*
X156798094Y-69179909D01*
X156791975Y-69200485D01*
X156783868Y-69220363D01*
X156773852Y-69239350D01*
X156762023Y-69257264D01*
X156748495Y-69273932D01*
X156733398Y-69289194D01*
X156716879Y-69302903D01*
X156699095Y-69314927D01*
X156680218Y-69325150D01*
X156660430Y-69333473D01*
X156178838Y-69508758D01*
X156158329Y-69515101D01*
X156137298Y-69519404D01*
X156115946Y-69521625D01*
X156094479Y-69521742D01*
X156073104Y-69519754D01*
X156052027Y-69515681D01*
X156031451Y-69509562D01*
X156011573Y-69501455D01*
X155992586Y-69491439D01*
X155974672Y-69479610D01*
X155958004Y-69466082D01*
X155942742Y-69450985D01*
X155929033Y-69434466D01*
X155917009Y-69416682D01*
X155906786Y-69397805D01*
X155898463Y-69378017D01*
X155748829Y-68966902D01*
X155742486Y-68946394D01*
X155738183Y-68925362D01*
X155735962Y-68904010D01*
X155735845Y-68882543D01*
X155737833Y-68861169D01*
X155741906Y-68840091D01*
X155748025Y-68819515D01*
X155756132Y-68799637D01*
X155766148Y-68780650D01*
X155777977Y-68762736D01*
X155791505Y-68746068D01*
X155806602Y-68730806D01*
X155823121Y-68717097D01*
X155840905Y-68705073D01*
X155859782Y-68694850D01*
X155879570Y-68686527D01*
X156361162Y-68511242D01*
X156381671Y-68504899D01*
X156402702Y-68500596D01*
X156424054Y-68498375D01*
X156445521Y-68498258D01*
X156466896Y-68500246D01*
G37*
G36*
X152303435Y-62437637D02*
G01*
X152324733Y-62440323D01*
X152345666Y-62445084D01*
X152366031Y-62451873D01*
X152385632Y-62460626D01*
X152404282Y-62471258D01*
X152421799Y-62483667D01*
X152438016Y-62497733D01*
X152452776Y-62513321D01*
X152465936Y-62530280D01*
X152716876Y-62888659D01*
X152728312Y-62906827D01*
X152737911Y-62926028D01*
X152745583Y-62946078D01*
X152751252Y-62966783D01*
X152754864Y-62987944D01*
X152756385Y-63009357D01*
X152755800Y-63030816D01*
X152753114Y-63052114D01*
X152748353Y-63073047D01*
X152741564Y-63093412D01*
X152732811Y-63113014D01*
X152722179Y-63131663D01*
X152709770Y-63149181D01*
X152695704Y-63165397D01*
X152680116Y-63180157D01*
X152663156Y-63193319D01*
X152243340Y-63487276D01*
X152225173Y-63498711D01*
X152205971Y-63508311D01*
X152185922Y-63515982D01*
X152165217Y-63521651D01*
X152144056Y-63525263D01*
X152122643Y-63526784D01*
X152101183Y-63526199D01*
X152079885Y-63523513D01*
X152058952Y-63518752D01*
X152038587Y-63511963D01*
X152018986Y-63503210D01*
X152000336Y-63492578D01*
X151982819Y-63480169D01*
X151966602Y-63466103D01*
X151951842Y-63450515D01*
X151938682Y-63433556D01*
X151687742Y-63075177D01*
X151676306Y-63057009D01*
X151666707Y-63037808D01*
X151659035Y-63017758D01*
X151653366Y-62997053D01*
X151649754Y-62975892D01*
X151648233Y-62954479D01*
X151648818Y-62933020D01*
X151651504Y-62911722D01*
X151656265Y-62890789D01*
X151663054Y-62870424D01*
X151671807Y-62850822D01*
X151682439Y-62832173D01*
X151694848Y-62814655D01*
X151708914Y-62798439D01*
X151724502Y-62783679D01*
X151741462Y-62770517D01*
X152161278Y-62476560D01*
X152179445Y-62465125D01*
X152198647Y-62455525D01*
X152218696Y-62447854D01*
X152239401Y-62442185D01*
X152260562Y-62438573D01*
X152281975Y-62437052D01*
X152303435Y-62437637D01*
G37*
G36*
X153206817Y-63727801D02*
G01*
X153228115Y-63730487D01*
X153249048Y-63735248D01*
X153269413Y-63742037D01*
X153289014Y-63750790D01*
X153307664Y-63761422D01*
X153325181Y-63773831D01*
X153341398Y-63787897D01*
X153356158Y-63803485D01*
X153369318Y-63820444D01*
X153620258Y-64178823D01*
X153631694Y-64196991D01*
X153641293Y-64216192D01*
X153648965Y-64236242D01*
X153654634Y-64256947D01*
X153658246Y-64278108D01*
X153659767Y-64299521D01*
X153659182Y-64320980D01*
X153656496Y-64342278D01*
X153651735Y-64363211D01*
X153644946Y-64383576D01*
X153636193Y-64403178D01*
X153625561Y-64421827D01*
X153613152Y-64439345D01*
X153599086Y-64455561D01*
X153583498Y-64470321D01*
X153566538Y-64483483D01*
X153146722Y-64777440D01*
X153128555Y-64788875D01*
X153109353Y-64798475D01*
X153089304Y-64806146D01*
X153068599Y-64811815D01*
X153047438Y-64815427D01*
X153026025Y-64816948D01*
X153004565Y-64816363D01*
X152983267Y-64813677D01*
X152962334Y-64808916D01*
X152941969Y-64802127D01*
X152922368Y-64793374D01*
X152903718Y-64782742D01*
X152886201Y-64770333D01*
X152869984Y-64756267D01*
X152855224Y-64740679D01*
X152842064Y-64723720D01*
X152591124Y-64365341D01*
X152579688Y-64347173D01*
X152570089Y-64327972D01*
X152562417Y-64307922D01*
X152556748Y-64287217D01*
X152553136Y-64266056D01*
X152551615Y-64244643D01*
X152552200Y-64223184D01*
X152554886Y-64201886D01*
X152559647Y-64180953D01*
X152566436Y-64160588D01*
X152575189Y-64140986D01*
X152585821Y-64122337D01*
X152598230Y-64104819D01*
X152612296Y-64088603D01*
X152627884Y-64073843D01*
X152644844Y-64060681D01*
X153064660Y-63766724D01*
X153082827Y-63755289D01*
X153102029Y-63745689D01*
X153122078Y-63738018D01*
X153142783Y-63732349D01*
X153163944Y-63728737D01*
X153185357Y-63727216D01*
X153206817Y-63727801D01*
G37*
G36*
X147700111Y-57563580D02*
G01*
X147721346Y-57566730D01*
X147742170Y-57571946D01*
X147762382Y-57579178D01*
X147781788Y-57588357D01*
X147800201Y-57599393D01*
X147817444Y-57612181D01*
X147833350Y-57626597D01*
X148142709Y-57935956D01*
X148157125Y-57951862D01*
X148169913Y-57969105D01*
X148180949Y-57987518D01*
X148190128Y-58006924D01*
X148197360Y-58027136D01*
X148202576Y-58047960D01*
X148205726Y-58069195D01*
X148206779Y-58090636D01*
X148205726Y-58112077D01*
X148202576Y-58133312D01*
X148197360Y-58154136D01*
X148190128Y-58174348D01*
X148180949Y-58193754D01*
X148169913Y-58212167D01*
X148157125Y-58229410D01*
X148142709Y-58245316D01*
X147780316Y-58607709D01*
X147764410Y-58622125D01*
X147747167Y-58634913D01*
X147728754Y-58645949D01*
X147709348Y-58655128D01*
X147689136Y-58662360D01*
X147668312Y-58667576D01*
X147647077Y-58670726D01*
X147625636Y-58671779D01*
X147604195Y-58670726D01*
X147582960Y-58667576D01*
X147562136Y-58662360D01*
X147541924Y-58655128D01*
X147522518Y-58645949D01*
X147504105Y-58634913D01*
X147486862Y-58622125D01*
X147470956Y-58607709D01*
X147161597Y-58298350D01*
X147147181Y-58282444D01*
X147134393Y-58265201D01*
X147123357Y-58246788D01*
X147114178Y-58227382D01*
X147106946Y-58207170D01*
X147101730Y-58186346D01*
X147098580Y-58165111D01*
X147097527Y-58143670D01*
X147098580Y-58122229D01*
X147101730Y-58100994D01*
X147106946Y-58080170D01*
X147114178Y-58059958D01*
X147123357Y-58040552D01*
X147134393Y-58022139D01*
X147147181Y-58004896D01*
X147161597Y-57988990D01*
X147523990Y-57626597D01*
X147539896Y-57612181D01*
X147557139Y-57599393D01*
X147575552Y-57588357D01*
X147594958Y-57579178D01*
X147615170Y-57571946D01*
X147635994Y-57566730D01*
X147657229Y-57563580D01*
X147678670Y-57562527D01*
X147700111Y-57563580D01*
G37*
G36*
X148813805Y-58677274D02*
G01*
X148835040Y-58680424D01*
X148855864Y-58685640D01*
X148876076Y-58692872D01*
X148895482Y-58702051D01*
X148913895Y-58713087D01*
X148931138Y-58725875D01*
X148947044Y-58740291D01*
X149256403Y-59049650D01*
X149270819Y-59065556D01*
X149283607Y-59082799D01*
X149294643Y-59101212D01*
X149303822Y-59120618D01*
X149311054Y-59140830D01*
X149316270Y-59161654D01*
X149319420Y-59182889D01*
X149320473Y-59204330D01*
X149319420Y-59225771D01*
X149316270Y-59247006D01*
X149311054Y-59267830D01*
X149303822Y-59288042D01*
X149294643Y-59307448D01*
X149283607Y-59325861D01*
X149270819Y-59343104D01*
X149256403Y-59359010D01*
X148894010Y-59721403D01*
X148878104Y-59735819D01*
X148860861Y-59748607D01*
X148842448Y-59759643D01*
X148823042Y-59768822D01*
X148802830Y-59776054D01*
X148782006Y-59781270D01*
X148760771Y-59784420D01*
X148739330Y-59785473D01*
X148717889Y-59784420D01*
X148696654Y-59781270D01*
X148675830Y-59776054D01*
X148655618Y-59768822D01*
X148636212Y-59759643D01*
X148617799Y-59748607D01*
X148600556Y-59735819D01*
X148584650Y-59721403D01*
X148275291Y-59412044D01*
X148260875Y-59396138D01*
X148248087Y-59378895D01*
X148237051Y-59360482D01*
X148227872Y-59341076D01*
X148220640Y-59320864D01*
X148215424Y-59300040D01*
X148212274Y-59278805D01*
X148211221Y-59257364D01*
X148212274Y-59235923D01*
X148215424Y-59214688D01*
X148220640Y-59193864D01*
X148227872Y-59173652D01*
X148237051Y-59154246D01*
X148248087Y-59135833D01*
X148260875Y-59118590D01*
X148275291Y-59102684D01*
X148637684Y-58740291D01*
X148653590Y-58725875D01*
X148670833Y-58713087D01*
X148689246Y-58702051D01*
X148708652Y-58692872D01*
X148728864Y-58685640D01*
X148749688Y-58680424D01*
X148770923Y-58677274D01*
X148792364Y-58676221D01*
X148813805Y-58677274D01*
G37*
G36*
X138198277Y-93221274D02*
G01*
X138219512Y-93224424D01*
X138240336Y-93229640D01*
X138260548Y-93236872D01*
X138279954Y-93246051D01*
X138298367Y-93257087D01*
X138315610Y-93269875D01*
X138331516Y-93284291D01*
X138693909Y-93646684D01*
X138708325Y-93662590D01*
X138721113Y-93679833D01*
X138732149Y-93698246D01*
X138741328Y-93717652D01*
X138748560Y-93737864D01*
X138753776Y-93758688D01*
X138756926Y-93779923D01*
X138757979Y-93801364D01*
X138756926Y-93822805D01*
X138753776Y-93844040D01*
X138748560Y-93864864D01*
X138741328Y-93885076D01*
X138732149Y-93904482D01*
X138721113Y-93922895D01*
X138708325Y-93940138D01*
X138693909Y-93956044D01*
X138384550Y-94265403D01*
X138368644Y-94279819D01*
X138351401Y-94292607D01*
X138332988Y-94303643D01*
X138313582Y-94312822D01*
X138293370Y-94320054D01*
X138272546Y-94325270D01*
X138251311Y-94328420D01*
X138229870Y-94329473D01*
X138208429Y-94328420D01*
X138187194Y-94325270D01*
X138166370Y-94320054D01*
X138146158Y-94312822D01*
X138126752Y-94303643D01*
X138108339Y-94292607D01*
X138091096Y-94279819D01*
X138075190Y-94265403D01*
X137712797Y-93903010D01*
X137698381Y-93887104D01*
X137685593Y-93869861D01*
X137674557Y-93851448D01*
X137665378Y-93832042D01*
X137658146Y-93811830D01*
X137652930Y-93791006D01*
X137649780Y-93769771D01*
X137648727Y-93748330D01*
X137649780Y-93726889D01*
X137652930Y-93705654D01*
X137658146Y-93684830D01*
X137665378Y-93664618D01*
X137674557Y-93645212D01*
X137685593Y-93626799D01*
X137698381Y-93609556D01*
X137712797Y-93593650D01*
X138022156Y-93284291D01*
X138038062Y-93269875D01*
X138055305Y-93257087D01*
X138073718Y-93246051D01*
X138093124Y-93236872D01*
X138113336Y-93229640D01*
X138134160Y-93224424D01*
X138155395Y-93221274D01*
X138176836Y-93220221D01*
X138198277Y-93221274D01*
G37*
G36*
X139311971Y-92107580D02*
G01*
X139333206Y-92110730D01*
X139354030Y-92115946D01*
X139374242Y-92123178D01*
X139393648Y-92132357D01*
X139412061Y-92143393D01*
X139429304Y-92156181D01*
X139445210Y-92170597D01*
X139807603Y-92532990D01*
X139822019Y-92548896D01*
X139834807Y-92566139D01*
X139845843Y-92584552D01*
X139855022Y-92603958D01*
X139862254Y-92624170D01*
X139867470Y-92644994D01*
X139870620Y-92666229D01*
X139871673Y-92687670D01*
X139870620Y-92709111D01*
X139867470Y-92730346D01*
X139862254Y-92751170D01*
X139855022Y-92771382D01*
X139845843Y-92790788D01*
X139834807Y-92809201D01*
X139822019Y-92826444D01*
X139807603Y-92842350D01*
X139498244Y-93151709D01*
X139482338Y-93166125D01*
X139465095Y-93178913D01*
X139446682Y-93189949D01*
X139427276Y-93199128D01*
X139407064Y-93206360D01*
X139386240Y-93211576D01*
X139365005Y-93214726D01*
X139343564Y-93215779D01*
X139322123Y-93214726D01*
X139300888Y-93211576D01*
X139280064Y-93206360D01*
X139259852Y-93199128D01*
X139240446Y-93189949D01*
X139222033Y-93178913D01*
X139204790Y-93166125D01*
X139188884Y-93151709D01*
X138826491Y-92789316D01*
X138812075Y-92773410D01*
X138799287Y-92756167D01*
X138788251Y-92737754D01*
X138779072Y-92718348D01*
X138771840Y-92698136D01*
X138766624Y-92677312D01*
X138763474Y-92656077D01*
X138762421Y-92634636D01*
X138763474Y-92613195D01*
X138766624Y-92591960D01*
X138771840Y-92571136D01*
X138779072Y-92550924D01*
X138788251Y-92531518D01*
X138799287Y-92513105D01*
X138812075Y-92495862D01*
X138826491Y-92479956D01*
X139135850Y-92170597D01*
X139151756Y-92156181D01*
X139168999Y-92143393D01*
X139187412Y-92132357D01*
X139206818Y-92123178D01*
X139227030Y-92115946D01*
X139247854Y-92110730D01*
X139269089Y-92107580D01*
X139290530Y-92106527D01*
X139311971Y-92107580D01*
G37*
G36*
X141729666Y-54518763D02*
G01*
X141750992Y-54521217D01*
X141771975Y-54525749D01*
X142194568Y-54638982D01*
X142215006Y-54645549D01*
X142234702Y-54654087D01*
X142253467Y-54664515D01*
X142271118Y-54676732D01*
X142287488Y-54690620D01*
X142302417Y-54706046D01*
X142315762Y-54722861D01*
X142327395Y-54740903D01*
X142337203Y-54759998D01*
X142345093Y-54779963D01*
X142350988Y-54800605D01*
X142354831Y-54821725D01*
X142356585Y-54843120D01*
X142356234Y-54864585D01*
X142353780Y-54885911D01*
X142349248Y-54906895D01*
X142216603Y-55401932D01*
X142210036Y-55422370D01*
X142201498Y-55442066D01*
X142191070Y-55460830D01*
X142178853Y-55478482D01*
X142164965Y-55494851D01*
X142149539Y-55509780D01*
X142132724Y-55523125D01*
X142114682Y-55534758D01*
X142095587Y-55544567D01*
X142075622Y-55552456D01*
X142054980Y-55558351D01*
X142033860Y-55562194D01*
X142012464Y-55563948D01*
X141991000Y-55563597D01*
X141969674Y-55561143D01*
X141948691Y-55556611D01*
X141526098Y-55443378D01*
X141505660Y-55436811D01*
X141485964Y-55428273D01*
X141467199Y-55417845D01*
X141449548Y-55405628D01*
X141433178Y-55391740D01*
X141418249Y-55376314D01*
X141404904Y-55359499D01*
X141393271Y-55341457D01*
X141383463Y-55322362D01*
X141375573Y-55302397D01*
X141369678Y-55281755D01*
X141365835Y-55260635D01*
X141364081Y-55239240D01*
X141364432Y-55217775D01*
X141366886Y-55196449D01*
X141371418Y-55175465D01*
X141504063Y-54680428D01*
X141510630Y-54659990D01*
X141519168Y-54640294D01*
X141529596Y-54621530D01*
X141541813Y-54603878D01*
X141555701Y-54587509D01*
X141571127Y-54572580D01*
X141587942Y-54559235D01*
X141605984Y-54547602D01*
X141625079Y-54537793D01*
X141645044Y-54529904D01*
X141665686Y-54524009D01*
X141686806Y-54520166D01*
X141708202Y-54518412D01*
X141729666Y-54518763D01*
G37*
G36*
X143251000Y-54926403D02*
G01*
X143272326Y-54928857D01*
X143293309Y-54933389D01*
X143715902Y-55046622D01*
X143736340Y-55053189D01*
X143756036Y-55061727D01*
X143774801Y-55072155D01*
X143792452Y-55084372D01*
X143808822Y-55098260D01*
X143823751Y-55113686D01*
X143837096Y-55130501D01*
X143848729Y-55148543D01*
X143858537Y-55167638D01*
X143866427Y-55187603D01*
X143872322Y-55208245D01*
X143876165Y-55229365D01*
X143877919Y-55250760D01*
X143877568Y-55272225D01*
X143875114Y-55293551D01*
X143870582Y-55314535D01*
X143737937Y-55809572D01*
X143731370Y-55830010D01*
X143722832Y-55849706D01*
X143712404Y-55868470D01*
X143700187Y-55886122D01*
X143686299Y-55902491D01*
X143670873Y-55917420D01*
X143654058Y-55930765D01*
X143636016Y-55942398D01*
X143616921Y-55952207D01*
X143596956Y-55960096D01*
X143576314Y-55965991D01*
X143555194Y-55969834D01*
X143533798Y-55971588D01*
X143512334Y-55971237D01*
X143491008Y-55968783D01*
X143470025Y-55964251D01*
X143047432Y-55851018D01*
X143026994Y-55844451D01*
X143007298Y-55835913D01*
X142988533Y-55825485D01*
X142970882Y-55813268D01*
X142954512Y-55799380D01*
X142939583Y-55783954D01*
X142926238Y-55767139D01*
X142914605Y-55749097D01*
X142904797Y-55730002D01*
X142896907Y-55710037D01*
X142891012Y-55689395D01*
X142887169Y-55668275D01*
X142885415Y-55646880D01*
X142885766Y-55625415D01*
X142888220Y-55604089D01*
X142892752Y-55583105D01*
X143025397Y-55088068D01*
X143031964Y-55067630D01*
X143040502Y-55047934D01*
X143050930Y-55029170D01*
X143063147Y-55011518D01*
X143077035Y-54995149D01*
X143092461Y-54980220D01*
X143109276Y-54966875D01*
X143127318Y-54955242D01*
X143146413Y-54945433D01*
X143166378Y-54937544D01*
X143187020Y-54931649D01*
X143208140Y-54927806D01*
X143229536Y-54926052D01*
X143251000Y-54926403D01*
G37*
G36*
X138883907Y-59721307D02*
G01*
X138905259Y-59723528D01*
X138926290Y-59727831D01*
X138946799Y-59734174D01*
X138966587Y-59742497D01*
X138985464Y-59752720D01*
X139003248Y-59764744D01*
X139019767Y-59778453D01*
X139034864Y-59793715D01*
X139048392Y-59810383D01*
X139060221Y-59828297D01*
X139070237Y-59847285D01*
X139255132Y-60243795D01*
X139263239Y-60263672D01*
X139269358Y-60284248D01*
X139273431Y-60305326D01*
X139275419Y-60326701D01*
X139275302Y-60348167D01*
X139273081Y-60369519D01*
X139268778Y-60390551D01*
X139262435Y-60411059D01*
X139254111Y-60430847D01*
X139243889Y-60449724D01*
X139231865Y-60467508D01*
X139218156Y-60484028D01*
X139202894Y-60499124D01*
X139186226Y-60512652D01*
X139168312Y-60524481D01*
X139149325Y-60534497D01*
X138684842Y-60751089D01*
X138664964Y-60759196D01*
X138644388Y-60765315D01*
X138623311Y-60769388D01*
X138601936Y-60771376D01*
X138580469Y-60771259D01*
X138559117Y-60769038D01*
X138538086Y-60764735D01*
X138517577Y-60758392D01*
X138497789Y-60750069D01*
X138478912Y-60739846D01*
X138461128Y-60727822D01*
X138444609Y-60714113D01*
X138429512Y-60698851D01*
X138415984Y-60682183D01*
X138404155Y-60664269D01*
X138394139Y-60645281D01*
X138209244Y-60248771D01*
X138201137Y-60228894D01*
X138195018Y-60208318D01*
X138190945Y-60187240D01*
X138188957Y-60165865D01*
X138189074Y-60144399D01*
X138191295Y-60123047D01*
X138195598Y-60102015D01*
X138201941Y-60081507D01*
X138210265Y-60061719D01*
X138220487Y-60042842D01*
X138232511Y-60025058D01*
X138246220Y-60008538D01*
X138261482Y-59993442D01*
X138278150Y-59979914D01*
X138296064Y-59968085D01*
X138315051Y-59958069D01*
X138779534Y-59741477D01*
X138799412Y-59733370D01*
X138819988Y-59727251D01*
X138841065Y-59723178D01*
X138862440Y-59721190D01*
X138883907Y-59721307D01*
G37*
G36*
X139549531Y-61148741D02*
G01*
X139570883Y-61150962D01*
X139591914Y-61155265D01*
X139612423Y-61161608D01*
X139632211Y-61169931D01*
X139651088Y-61180154D01*
X139668872Y-61192178D01*
X139685391Y-61205887D01*
X139700488Y-61221149D01*
X139714016Y-61237817D01*
X139725845Y-61255731D01*
X139735861Y-61274719D01*
X139920756Y-61671229D01*
X139928863Y-61691106D01*
X139934982Y-61711682D01*
X139939055Y-61732760D01*
X139941043Y-61754135D01*
X139940926Y-61775601D01*
X139938705Y-61796953D01*
X139934402Y-61817985D01*
X139928059Y-61838493D01*
X139919735Y-61858281D01*
X139909513Y-61877158D01*
X139897489Y-61894942D01*
X139883780Y-61911462D01*
X139868518Y-61926558D01*
X139851850Y-61940086D01*
X139833936Y-61951915D01*
X139814949Y-61961931D01*
X139350466Y-62178523D01*
X139330588Y-62186630D01*
X139310012Y-62192749D01*
X139288935Y-62196822D01*
X139267560Y-62198810D01*
X139246093Y-62198693D01*
X139224741Y-62196472D01*
X139203710Y-62192169D01*
X139183201Y-62185826D01*
X139163413Y-62177503D01*
X139144536Y-62167280D01*
X139126752Y-62155256D01*
X139110233Y-62141547D01*
X139095136Y-62126285D01*
X139081608Y-62109617D01*
X139069779Y-62091703D01*
X139059763Y-62072715D01*
X138874868Y-61676205D01*
X138866761Y-61656328D01*
X138860642Y-61635752D01*
X138856569Y-61614674D01*
X138854581Y-61593299D01*
X138854698Y-61571833D01*
X138856919Y-61550481D01*
X138861222Y-61529449D01*
X138867565Y-61508941D01*
X138875889Y-61489153D01*
X138886111Y-61470276D01*
X138898135Y-61452492D01*
X138911844Y-61435972D01*
X138927106Y-61420876D01*
X138943774Y-61407348D01*
X138961688Y-61395519D01*
X138980675Y-61385503D01*
X139445158Y-61168911D01*
X139465036Y-61160804D01*
X139485612Y-61154685D01*
X139506689Y-61150612D01*
X139528064Y-61148624D01*
X139549531Y-61148741D01*
G37*
G36*
X145291771Y-87079580D02*
G01*
X145313006Y-87082730D01*
X145333830Y-87087946D01*
X145354042Y-87095178D01*
X145373448Y-87104357D01*
X145391861Y-87115393D01*
X145409104Y-87128181D01*
X145425010Y-87142597D01*
X145787403Y-87504990D01*
X145801819Y-87520896D01*
X145814607Y-87538139D01*
X145825643Y-87556552D01*
X145834822Y-87575958D01*
X145842054Y-87596170D01*
X145847270Y-87616994D01*
X145850420Y-87638229D01*
X145851473Y-87659670D01*
X145850420Y-87681111D01*
X145847270Y-87702346D01*
X145842054Y-87723170D01*
X145834822Y-87743382D01*
X145825643Y-87762788D01*
X145814607Y-87781201D01*
X145801819Y-87798444D01*
X145787403Y-87814350D01*
X145478044Y-88123709D01*
X145462138Y-88138125D01*
X145444895Y-88150913D01*
X145426482Y-88161949D01*
X145407076Y-88171128D01*
X145386864Y-88178360D01*
X145366040Y-88183576D01*
X145344805Y-88186726D01*
X145323364Y-88187779D01*
X145301923Y-88186726D01*
X145280688Y-88183576D01*
X145259864Y-88178360D01*
X145239652Y-88171128D01*
X145220246Y-88161949D01*
X145201833Y-88150913D01*
X145184590Y-88138125D01*
X145168684Y-88123709D01*
X144806291Y-87761316D01*
X144791875Y-87745410D01*
X144779087Y-87728167D01*
X144768051Y-87709754D01*
X144758872Y-87690348D01*
X144751640Y-87670136D01*
X144746424Y-87649312D01*
X144743274Y-87628077D01*
X144742221Y-87606636D01*
X144743274Y-87585195D01*
X144746424Y-87563960D01*
X144751640Y-87543136D01*
X144758872Y-87522924D01*
X144768051Y-87503518D01*
X144779087Y-87485105D01*
X144791875Y-87467862D01*
X144806291Y-87451956D01*
X145115650Y-87142597D01*
X145131556Y-87128181D01*
X145148799Y-87115393D01*
X145167212Y-87104357D01*
X145186618Y-87095178D01*
X145206830Y-87087946D01*
X145227654Y-87082730D01*
X145248889Y-87079580D01*
X145270330Y-87078527D01*
X145291771Y-87079580D01*
G37*
G36*
X144178077Y-88193274D02*
G01*
X144199312Y-88196424D01*
X144220136Y-88201640D01*
X144240348Y-88208872D01*
X144259754Y-88218051D01*
X144278167Y-88229087D01*
X144295410Y-88241875D01*
X144311316Y-88256291D01*
X144673709Y-88618684D01*
X144688125Y-88634590D01*
X144700913Y-88651833D01*
X144711949Y-88670246D01*
X144721128Y-88689652D01*
X144728360Y-88709864D01*
X144733576Y-88730688D01*
X144736726Y-88751923D01*
X144737779Y-88773364D01*
X144736726Y-88794805D01*
X144733576Y-88816040D01*
X144728360Y-88836864D01*
X144721128Y-88857076D01*
X144711949Y-88876482D01*
X144700913Y-88894895D01*
X144688125Y-88912138D01*
X144673709Y-88928044D01*
X144364350Y-89237403D01*
X144348444Y-89251819D01*
X144331201Y-89264607D01*
X144312788Y-89275643D01*
X144293382Y-89284822D01*
X144273170Y-89292054D01*
X144252346Y-89297270D01*
X144231111Y-89300420D01*
X144209670Y-89301473D01*
X144188229Y-89300420D01*
X144166994Y-89297270D01*
X144146170Y-89292054D01*
X144125958Y-89284822D01*
X144106552Y-89275643D01*
X144088139Y-89264607D01*
X144070896Y-89251819D01*
X144054990Y-89237403D01*
X143692597Y-88875010D01*
X143678181Y-88859104D01*
X143665393Y-88841861D01*
X143654357Y-88823448D01*
X143645178Y-88804042D01*
X143637946Y-88783830D01*
X143632730Y-88763006D01*
X143629580Y-88741771D01*
X143628527Y-88720330D01*
X143629580Y-88698889D01*
X143632730Y-88677654D01*
X143637946Y-88656830D01*
X143645178Y-88636618D01*
X143654357Y-88617212D01*
X143665393Y-88598799D01*
X143678181Y-88581556D01*
X143692597Y-88565650D01*
X144001956Y-88256291D01*
X144017862Y-88241875D01*
X144035105Y-88229087D01*
X144053518Y-88218051D01*
X144072924Y-88208872D01*
X144093136Y-88201640D01*
X144113960Y-88196424D01*
X144135195Y-88193274D01*
X144156636Y-88192221D01*
X144178077Y-88193274D01*
G37*
G36*
X136459435Y-25910637D02*
G01*
X136480733Y-25913323D01*
X136501666Y-25918084D01*
X136522031Y-25924873D01*
X136541632Y-25933626D01*
X136560282Y-25944258D01*
X136577799Y-25956667D01*
X136594016Y-25970733D01*
X136608776Y-25986321D01*
X136621936Y-26003280D01*
X136872876Y-26361659D01*
X136884312Y-26379827D01*
X136893911Y-26399028D01*
X136901583Y-26419078D01*
X136907252Y-26439783D01*
X136910864Y-26460944D01*
X136912385Y-26482357D01*
X136911800Y-26503816D01*
X136909114Y-26525114D01*
X136904353Y-26546047D01*
X136897564Y-26566412D01*
X136888811Y-26586014D01*
X136878179Y-26604663D01*
X136865770Y-26622181D01*
X136851704Y-26638397D01*
X136836116Y-26653157D01*
X136819156Y-26666319D01*
X136399340Y-26960276D01*
X136381173Y-26971711D01*
X136361971Y-26981311D01*
X136341922Y-26988982D01*
X136321217Y-26994651D01*
X136300056Y-26998263D01*
X136278643Y-26999784D01*
X136257183Y-26999199D01*
X136235885Y-26996513D01*
X136214952Y-26991752D01*
X136194587Y-26984963D01*
X136174986Y-26976210D01*
X136156336Y-26965578D01*
X136138819Y-26953169D01*
X136122602Y-26939103D01*
X136107842Y-26923515D01*
X136094682Y-26906556D01*
X135843742Y-26548177D01*
X135832306Y-26530009D01*
X135822707Y-26510808D01*
X135815035Y-26490758D01*
X135809366Y-26470053D01*
X135805754Y-26448892D01*
X135804233Y-26427479D01*
X135804818Y-26406020D01*
X135807504Y-26384722D01*
X135812265Y-26363789D01*
X135819054Y-26343424D01*
X135827807Y-26323822D01*
X135838439Y-26305173D01*
X135850848Y-26287655D01*
X135864914Y-26271439D01*
X135880502Y-26256679D01*
X135897462Y-26243517D01*
X136317278Y-25949560D01*
X136335445Y-25938125D01*
X136354647Y-25928525D01*
X136374696Y-25920854D01*
X136395401Y-25915185D01*
X136416562Y-25911573D01*
X136437975Y-25910052D01*
X136459435Y-25910637D01*
G37*
G36*
X137362817Y-27200801D02*
G01*
X137384115Y-27203487D01*
X137405048Y-27208248D01*
X137425413Y-27215037D01*
X137445014Y-27223790D01*
X137463664Y-27234422D01*
X137481181Y-27246831D01*
X137497398Y-27260897D01*
X137512158Y-27276485D01*
X137525318Y-27293444D01*
X137776258Y-27651823D01*
X137787694Y-27669991D01*
X137797293Y-27689192D01*
X137804965Y-27709242D01*
X137810634Y-27729947D01*
X137814246Y-27751108D01*
X137815767Y-27772521D01*
X137815182Y-27793980D01*
X137812496Y-27815278D01*
X137807735Y-27836211D01*
X137800946Y-27856576D01*
X137792193Y-27876178D01*
X137781561Y-27894827D01*
X137769152Y-27912345D01*
X137755086Y-27928561D01*
X137739498Y-27943321D01*
X137722538Y-27956483D01*
X137302722Y-28250440D01*
X137284555Y-28261875D01*
X137265353Y-28271475D01*
X137245304Y-28279146D01*
X137224599Y-28284815D01*
X137203438Y-28288427D01*
X137182025Y-28289948D01*
X137160565Y-28289363D01*
X137139267Y-28286677D01*
X137118334Y-28281916D01*
X137097969Y-28275127D01*
X137078368Y-28266374D01*
X137059718Y-28255742D01*
X137042201Y-28243333D01*
X137025984Y-28229267D01*
X137011224Y-28213679D01*
X136998064Y-28196720D01*
X136747124Y-27838341D01*
X136735688Y-27820173D01*
X136726089Y-27800972D01*
X136718417Y-27780922D01*
X136712748Y-27760217D01*
X136709136Y-27739056D01*
X136707615Y-27717643D01*
X136708200Y-27696184D01*
X136710886Y-27674886D01*
X136715647Y-27653953D01*
X136722436Y-27633588D01*
X136731189Y-27613986D01*
X136741821Y-27595337D01*
X136754230Y-27577819D01*
X136768296Y-27561603D01*
X136783884Y-27546843D01*
X136800844Y-27533681D01*
X137220660Y-27239724D01*
X137238827Y-27228289D01*
X137258029Y-27218689D01*
X137278078Y-27211018D01*
X137298783Y-27205349D01*
X137319944Y-27201737D01*
X137341357Y-27200216D01*
X137362817Y-27200801D01*
G37*
G36*
X133869691Y-67471053D02*
G01*
X133890926Y-67474203D01*
X133911750Y-67479419D01*
X133931962Y-67486651D01*
X133951368Y-67495830D01*
X133969781Y-67506866D01*
X133987024Y-67519654D01*
X134002930Y-67534070D01*
X134017346Y-67549976D01*
X134030134Y-67567219D01*
X134041170Y-67585632D01*
X134050349Y-67605038D01*
X134057581Y-67625250D01*
X134062797Y-67646074D01*
X134065947Y-67667309D01*
X134067000Y-67688750D01*
X134067000Y-68201250D01*
X134065947Y-68222691D01*
X134062797Y-68243926D01*
X134057581Y-68264750D01*
X134050349Y-68284962D01*
X134041170Y-68304368D01*
X134030134Y-68322781D01*
X134017346Y-68340024D01*
X134002930Y-68355930D01*
X133987024Y-68370346D01*
X133969781Y-68383134D01*
X133951368Y-68394170D01*
X133931962Y-68403349D01*
X133911750Y-68410581D01*
X133890926Y-68415797D01*
X133869691Y-68418947D01*
X133848250Y-68420000D01*
X133410750Y-68420000D01*
X133389309Y-68418947D01*
X133368074Y-68415797D01*
X133347250Y-68410581D01*
X133327038Y-68403349D01*
X133307632Y-68394170D01*
X133289219Y-68383134D01*
X133271976Y-68370346D01*
X133256070Y-68355930D01*
X133241654Y-68340024D01*
X133228866Y-68322781D01*
X133217830Y-68304368D01*
X133208651Y-68284962D01*
X133201419Y-68264750D01*
X133196203Y-68243926D01*
X133193053Y-68222691D01*
X133192000Y-68201250D01*
X133192000Y-67688750D01*
X133193053Y-67667309D01*
X133196203Y-67646074D01*
X133201419Y-67625250D01*
X133208651Y-67605038D01*
X133217830Y-67585632D01*
X133228866Y-67567219D01*
X133241654Y-67549976D01*
X133256070Y-67534070D01*
X133271976Y-67519654D01*
X133289219Y-67506866D01*
X133307632Y-67495830D01*
X133327038Y-67486651D01*
X133347250Y-67479419D01*
X133368074Y-67474203D01*
X133389309Y-67471053D01*
X133410750Y-67470000D01*
X133848250Y-67470000D01*
X133869691Y-67471053D01*
G37*
G36*
X132294691Y-67471053D02*
G01*
X132315926Y-67474203D01*
X132336750Y-67479419D01*
X132356962Y-67486651D01*
X132376368Y-67495830D01*
X132394781Y-67506866D01*
X132412024Y-67519654D01*
X132427930Y-67534070D01*
X132442346Y-67549976D01*
X132455134Y-67567219D01*
X132466170Y-67585632D01*
X132475349Y-67605038D01*
X132482581Y-67625250D01*
X132487797Y-67646074D01*
X132490947Y-67667309D01*
X132492000Y-67688750D01*
X132492000Y-68201250D01*
X132490947Y-68222691D01*
X132487797Y-68243926D01*
X132482581Y-68264750D01*
X132475349Y-68284962D01*
X132466170Y-68304368D01*
X132455134Y-68322781D01*
X132442346Y-68340024D01*
X132427930Y-68355930D01*
X132412024Y-68370346D01*
X132394781Y-68383134D01*
X132376368Y-68394170D01*
X132356962Y-68403349D01*
X132336750Y-68410581D01*
X132315926Y-68415797D01*
X132294691Y-68418947D01*
X132273250Y-68420000D01*
X131835750Y-68420000D01*
X131814309Y-68418947D01*
X131793074Y-68415797D01*
X131772250Y-68410581D01*
X131752038Y-68403349D01*
X131732632Y-68394170D01*
X131714219Y-68383134D01*
X131696976Y-68370346D01*
X131681070Y-68355930D01*
X131666654Y-68340024D01*
X131653866Y-68322781D01*
X131642830Y-68304368D01*
X131633651Y-68284962D01*
X131626419Y-68264750D01*
X131621203Y-68243926D01*
X131618053Y-68222691D01*
X131617000Y-68201250D01*
X131617000Y-67688750D01*
X131618053Y-67667309D01*
X131621203Y-67646074D01*
X131626419Y-67625250D01*
X131633651Y-67605038D01*
X131642830Y-67585632D01*
X131653866Y-67567219D01*
X131666654Y-67549976D01*
X131681070Y-67534070D01*
X131696976Y-67519654D01*
X131714219Y-67506866D01*
X131732632Y-67495830D01*
X131752038Y-67486651D01*
X131772250Y-67479419D01*
X131793074Y-67474203D01*
X131814309Y-67471053D01*
X131835750Y-67470000D01*
X132273250Y-67470000D01*
X132294691Y-67471053D01*
G37*
G36*
X133818691Y-55406053D02*
G01*
X133839926Y-55409203D01*
X133860750Y-55414419D01*
X133880962Y-55421651D01*
X133900368Y-55430830D01*
X133918781Y-55441866D01*
X133936024Y-55454654D01*
X133951930Y-55469070D01*
X133966346Y-55484976D01*
X133979134Y-55502219D01*
X133990170Y-55520632D01*
X133999349Y-55540038D01*
X134006581Y-55560250D01*
X134011797Y-55581074D01*
X134014947Y-55602309D01*
X134016000Y-55623750D01*
X134016000Y-56136250D01*
X134014947Y-56157691D01*
X134011797Y-56178926D01*
X134006581Y-56199750D01*
X133999349Y-56219962D01*
X133990170Y-56239368D01*
X133979134Y-56257781D01*
X133966346Y-56275024D01*
X133951930Y-56290930D01*
X133936024Y-56305346D01*
X133918781Y-56318134D01*
X133900368Y-56329170D01*
X133880962Y-56338349D01*
X133860750Y-56345581D01*
X133839926Y-56350797D01*
X133818691Y-56353947D01*
X133797250Y-56355000D01*
X133359750Y-56355000D01*
X133338309Y-56353947D01*
X133317074Y-56350797D01*
X133296250Y-56345581D01*
X133276038Y-56338349D01*
X133256632Y-56329170D01*
X133238219Y-56318134D01*
X133220976Y-56305346D01*
X133205070Y-56290930D01*
X133190654Y-56275024D01*
X133177866Y-56257781D01*
X133166830Y-56239368D01*
X133157651Y-56219962D01*
X133150419Y-56199750D01*
X133145203Y-56178926D01*
X133142053Y-56157691D01*
X133141000Y-56136250D01*
X133141000Y-55623750D01*
X133142053Y-55602309D01*
X133145203Y-55581074D01*
X133150419Y-55560250D01*
X133157651Y-55540038D01*
X133166830Y-55520632D01*
X133177866Y-55502219D01*
X133190654Y-55484976D01*
X133205070Y-55469070D01*
X133220976Y-55454654D01*
X133238219Y-55441866D01*
X133256632Y-55430830D01*
X133276038Y-55421651D01*
X133296250Y-55414419D01*
X133317074Y-55409203D01*
X133338309Y-55406053D01*
X133359750Y-55405000D01*
X133797250Y-55405000D01*
X133818691Y-55406053D01*
G37*
G36*
X135393691Y-55406053D02*
G01*
X135414926Y-55409203D01*
X135435750Y-55414419D01*
X135455962Y-55421651D01*
X135475368Y-55430830D01*
X135493781Y-55441866D01*
X135511024Y-55454654D01*
X135526930Y-55469070D01*
X135541346Y-55484976D01*
X135554134Y-55502219D01*
X135565170Y-55520632D01*
X135574349Y-55540038D01*
X135581581Y-55560250D01*
X135586797Y-55581074D01*
X135589947Y-55602309D01*
X135591000Y-55623750D01*
X135591000Y-56136250D01*
X135589947Y-56157691D01*
X135586797Y-56178926D01*
X135581581Y-56199750D01*
X135574349Y-56219962D01*
X135565170Y-56239368D01*
X135554134Y-56257781D01*
X135541346Y-56275024D01*
X135526930Y-56290930D01*
X135511024Y-56305346D01*
X135493781Y-56318134D01*
X135475368Y-56329170D01*
X135455962Y-56338349D01*
X135435750Y-56345581D01*
X135414926Y-56350797D01*
X135393691Y-56353947D01*
X135372250Y-56355000D01*
X134934750Y-56355000D01*
X134913309Y-56353947D01*
X134892074Y-56350797D01*
X134871250Y-56345581D01*
X134851038Y-56338349D01*
X134831632Y-56329170D01*
X134813219Y-56318134D01*
X134795976Y-56305346D01*
X134780070Y-56290930D01*
X134765654Y-56275024D01*
X134752866Y-56257781D01*
X134741830Y-56239368D01*
X134732651Y-56219962D01*
X134725419Y-56199750D01*
X134720203Y-56178926D01*
X134717053Y-56157691D01*
X134716000Y-56136250D01*
X134716000Y-55623750D01*
X134717053Y-55602309D01*
X134720203Y-55581074D01*
X134725419Y-55560250D01*
X134732651Y-55540038D01*
X134741830Y-55520632D01*
X134752866Y-55502219D01*
X134765654Y-55484976D01*
X134780070Y-55469070D01*
X134795976Y-55454654D01*
X134813219Y-55441866D01*
X134831632Y-55430830D01*
X134851038Y-55421651D01*
X134871250Y-55414419D01*
X134892074Y-55409203D01*
X134913309Y-55406053D01*
X134934750Y-55405000D01*
X135372250Y-55405000D01*
X135393691Y-55406053D01*
G37*
G36*
X132000240Y-23061077D02*
G01*
X132021360Y-23064920D01*
X132042002Y-23070815D01*
X132061967Y-23078705D01*
X132081062Y-23088513D01*
X132459948Y-23307263D01*
X132477990Y-23318896D01*
X132494805Y-23332241D01*
X132510231Y-23347170D01*
X132524119Y-23363539D01*
X132536336Y-23381191D01*
X132546764Y-23399955D01*
X132555302Y-23419651D01*
X132561869Y-23440089D01*
X132566401Y-23461073D01*
X132568855Y-23482399D01*
X132569206Y-23503863D01*
X132567452Y-23525259D01*
X132563609Y-23546379D01*
X132557714Y-23567021D01*
X132549824Y-23586986D01*
X132540016Y-23606081D01*
X132283766Y-24049919D01*
X132272133Y-24067961D01*
X132258788Y-24084776D01*
X132243859Y-24100202D01*
X132227490Y-24114090D01*
X132209838Y-24126307D01*
X132191074Y-24136735D01*
X132171378Y-24145273D01*
X132150940Y-24151840D01*
X132129956Y-24156372D01*
X132108630Y-24158826D01*
X132087166Y-24159177D01*
X132065770Y-24157423D01*
X132044650Y-24153580D01*
X132024008Y-24147685D01*
X132004043Y-24139795D01*
X131984948Y-24129987D01*
X131606062Y-23911237D01*
X131588020Y-23899604D01*
X131571205Y-23886259D01*
X131555779Y-23871330D01*
X131541891Y-23854961D01*
X131529674Y-23837309D01*
X131519246Y-23818545D01*
X131510708Y-23798849D01*
X131504141Y-23778411D01*
X131499609Y-23757427D01*
X131497155Y-23736101D01*
X131496804Y-23714637D01*
X131498558Y-23693241D01*
X131502401Y-23672121D01*
X131508296Y-23651479D01*
X131516186Y-23631514D01*
X131525994Y-23612419D01*
X131782244Y-23168581D01*
X131793877Y-23150539D01*
X131807222Y-23133724D01*
X131822151Y-23118298D01*
X131838520Y-23104410D01*
X131856172Y-23092193D01*
X131874936Y-23081765D01*
X131894632Y-23073227D01*
X131915070Y-23066660D01*
X131936054Y-23062128D01*
X131957380Y-23059674D01*
X131978844Y-23059323D01*
X132000240Y-23061077D01*
G37*
G36*
X133364230Y-23848577D02*
G01*
X133385350Y-23852420D01*
X133405992Y-23858315D01*
X133425957Y-23866205D01*
X133445052Y-23876013D01*
X133823938Y-24094763D01*
X133841980Y-24106396D01*
X133858795Y-24119741D01*
X133874221Y-24134670D01*
X133888109Y-24151039D01*
X133900326Y-24168691D01*
X133910754Y-24187455D01*
X133919292Y-24207151D01*
X133925859Y-24227589D01*
X133930391Y-24248573D01*
X133932845Y-24269899D01*
X133933196Y-24291363D01*
X133931442Y-24312759D01*
X133927599Y-24333879D01*
X133921704Y-24354521D01*
X133913814Y-24374486D01*
X133904006Y-24393581D01*
X133647756Y-24837419D01*
X133636123Y-24855461D01*
X133622778Y-24872276D01*
X133607849Y-24887702D01*
X133591480Y-24901590D01*
X133573828Y-24913807D01*
X133555064Y-24924235D01*
X133535368Y-24932773D01*
X133514930Y-24939340D01*
X133493946Y-24943872D01*
X133472620Y-24946326D01*
X133451156Y-24946677D01*
X133429760Y-24944923D01*
X133408640Y-24941080D01*
X133387998Y-24935185D01*
X133368033Y-24927295D01*
X133348938Y-24917487D01*
X132970052Y-24698737D01*
X132952010Y-24687104D01*
X132935195Y-24673759D01*
X132919769Y-24658830D01*
X132905881Y-24642461D01*
X132893664Y-24624809D01*
X132883236Y-24606045D01*
X132874698Y-24586349D01*
X132868131Y-24565911D01*
X132863599Y-24544927D01*
X132861145Y-24523601D01*
X132860794Y-24502137D01*
X132862548Y-24480741D01*
X132866391Y-24459621D01*
X132872286Y-24438979D01*
X132880176Y-24419014D01*
X132889984Y-24399919D01*
X133146234Y-23956081D01*
X133157867Y-23938039D01*
X133171212Y-23921224D01*
X133186141Y-23905798D01*
X133202510Y-23891910D01*
X133220162Y-23879693D01*
X133238926Y-23869265D01*
X133258622Y-23860727D01*
X133279060Y-23854160D01*
X133300044Y-23849628D01*
X133321370Y-23847174D01*
X133342834Y-23846823D01*
X133364230Y-23848577D01*
G37*
G36*
X130262691Y-38769053D02*
G01*
X130283926Y-38772203D01*
X130304750Y-38777419D01*
X130324962Y-38784651D01*
X130344368Y-38793830D01*
X130362781Y-38804866D01*
X130380024Y-38817654D01*
X130395930Y-38832070D01*
X130410346Y-38847976D01*
X130423134Y-38865219D01*
X130434170Y-38883632D01*
X130443349Y-38903038D01*
X130450581Y-38923250D01*
X130455797Y-38944074D01*
X130458947Y-38965309D01*
X130460000Y-38986750D01*
X130460000Y-39499250D01*
X130458947Y-39520691D01*
X130455797Y-39541926D01*
X130450581Y-39562750D01*
X130443349Y-39582962D01*
X130434170Y-39602368D01*
X130423134Y-39620781D01*
X130410346Y-39638024D01*
X130395930Y-39653930D01*
X130380024Y-39668346D01*
X130362781Y-39681134D01*
X130344368Y-39692170D01*
X130324962Y-39701349D01*
X130304750Y-39708581D01*
X130283926Y-39713797D01*
X130262691Y-39716947D01*
X130241250Y-39718000D01*
X129803750Y-39718000D01*
X129782309Y-39716947D01*
X129761074Y-39713797D01*
X129740250Y-39708581D01*
X129720038Y-39701349D01*
X129700632Y-39692170D01*
X129682219Y-39681134D01*
X129664976Y-39668346D01*
X129649070Y-39653930D01*
X129634654Y-39638024D01*
X129621866Y-39620781D01*
X129610830Y-39602368D01*
X129601651Y-39582962D01*
X129594419Y-39562750D01*
X129589203Y-39541926D01*
X129586053Y-39520691D01*
X129585000Y-39499250D01*
X129585000Y-38986750D01*
X129586053Y-38965309D01*
X129589203Y-38944074D01*
X129594419Y-38923250D01*
X129601651Y-38903038D01*
X129610830Y-38883632D01*
X129621866Y-38865219D01*
X129634654Y-38847976D01*
X129649070Y-38832070D01*
X129664976Y-38817654D01*
X129682219Y-38804866D01*
X129700632Y-38793830D01*
X129720038Y-38784651D01*
X129740250Y-38777419D01*
X129761074Y-38772203D01*
X129782309Y-38769053D01*
X129803750Y-38768000D01*
X130241250Y-38768000D01*
X130262691Y-38769053D01*
G37*
G36*
X131837691Y-38769053D02*
G01*
X131858926Y-38772203D01*
X131879750Y-38777419D01*
X131899962Y-38784651D01*
X131919368Y-38793830D01*
X131937781Y-38804866D01*
X131955024Y-38817654D01*
X131970930Y-38832070D01*
X131985346Y-38847976D01*
X131998134Y-38865219D01*
X132009170Y-38883632D01*
X132018349Y-38903038D01*
X132025581Y-38923250D01*
X132030797Y-38944074D01*
X132033947Y-38965309D01*
X132035000Y-38986750D01*
X132035000Y-39499250D01*
X132033947Y-39520691D01*
X132030797Y-39541926D01*
X132025581Y-39562750D01*
X132018349Y-39582962D01*
X132009170Y-39602368D01*
X131998134Y-39620781D01*
X131985346Y-39638024D01*
X131970930Y-39653930D01*
X131955024Y-39668346D01*
X131937781Y-39681134D01*
X131919368Y-39692170D01*
X131899962Y-39701349D01*
X131879750Y-39708581D01*
X131858926Y-39713797D01*
X131837691Y-39716947D01*
X131816250Y-39718000D01*
X131378750Y-39718000D01*
X131357309Y-39716947D01*
X131336074Y-39713797D01*
X131315250Y-39708581D01*
X131295038Y-39701349D01*
X131275632Y-39692170D01*
X131257219Y-39681134D01*
X131239976Y-39668346D01*
X131224070Y-39653930D01*
X131209654Y-39638024D01*
X131196866Y-39620781D01*
X131185830Y-39602368D01*
X131176651Y-39582962D01*
X131169419Y-39562750D01*
X131164203Y-39541926D01*
X131161053Y-39520691D01*
X131160000Y-39499250D01*
X131160000Y-38986750D01*
X131161053Y-38965309D01*
X131164203Y-38944074D01*
X131169419Y-38923250D01*
X131176651Y-38903038D01*
X131185830Y-38883632D01*
X131196866Y-38865219D01*
X131209654Y-38847976D01*
X131224070Y-38832070D01*
X131239976Y-38817654D01*
X131257219Y-38804866D01*
X131275632Y-38793830D01*
X131295038Y-38784651D01*
X131315250Y-38777419D01*
X131336074Y-38772203D01*
X131357309Y-38769053D01*
X131378750Y-38768000D01*
X131816250Y-38768000D01*
X131837691Y-38769053D01*
G37*
G36*
X128281691Y-22005053D02*
G01*
X128302926Y-22008203D01*
X128323750Y-22013419D01*
X128343962Y-22020651D01*
X128363368Y-22029830D01*
X128381781Y-22040866D01*
X128399024Y-22053654D01*
X128414930Y-22068070D01*
X128429346Y-22083976D01*
X128442134Y-22101219D01*
X128453170Y-22119632D01*
X128462349Y-22139038D01*
X128469581Y-22159250D01*
X128474797Y-22180074D01*
X128477947Y-22201309D01*
X128479000Y-22222750D01*
X128479000Y-22735250D01*
X128477947Y-22756691D01*
X128474797Y-22777926D01*
X128469581Y-22798750D01*
X128462349Y-22818962D01*
X128453170Y-22838368D01*
X128442134Y-22856781D01*
X128429346Y-22874024D01*
X128414930Y-22889930D01*
X128399024Y-22904346D01*
X128381781Y-22917134D01*
X128363368Y-22928170D01*
X128343962Y-22937349D01*
X128323750Y-22944581D01*
X128302926Y-22949797D01*
X128281691Y-22952947D01*
X128260250Y-22954000D01*
X127822750Y-22954000D01*
X127801309Y-22952947D01*
X127780074Y-22949797D01*
X127759250Y-22944581D01*
X127739038Y-22937349D01*
X127719632Y-22928170D01*
X127701219Y-22917134D01*
X127683976Y-22904346D01*
X127668070Y-22889930D01*
X127653654Y-22874024D01*
X127640866Y-22856781D01*
X127629830Y-22838368D01*
X127620651Y-22818962D01*
X127613419Y-22798750D01*
X127608203Y-22777926D01*
X127605053Y-22756691D01*
X127604000Y-22735250D01*
X127604000Y-22222750D01*
X127605053Y-22201309D01*
X127608203Y-22180074D01*
X127613419Y-22159250D01*
X127620651Y-22139038D01*
X127629830Y-22119632D01*
X127640866Y-22101219D01*
X127653654Y-22083976D01*
X127668070Y-22068070D01*
X127683976Y-22053654D01*
X127701219Y-22040866D01*
X127719632Y-22029830D01*
X127739038Y-22020651D01*
X127759250Y-22013419D01*
X127780074Y-22008203D01*
X127801309Y-22005053D01*
X127822750Y-22004000D01*
X128260250Y-22004000D01*
X128281691Y-22005053D01*
G37*
G36*
X126706691Y-22005053D02*
G01*
X126727926Y-22008203D01*
X126748750Y-22013419D01*
X126768962Y-22020651D01*
X126788368Y-22029830D01*
X126806781Y-22040866D01*
X126824024Y-22053654D01*
X126839930Y-22068070D01*
X126854346Y-22083976D01*
X126867134Y-22101219D01*
X126878170Y-22119632D01*
X126887349Y-22139038D01*
X126894581Y-22159250D01*
X126899797Y-22180074D01*
X126902947Y-22201309D01*
X126904000Y-22222750D01*
X126904000Y-22735250D01*
X126902947Y-22756691D01*
X126899797Y-22777926D01*
X126894581Y-22798750D01*
X126887349Y-22818962D01*
X126878170Y-22838368D01*
X126867134Y-22856781D01*
X126854346Y-22874024D01*
X126839930Y-22889930D01*
X126824024Y-22904346D01*
X126806781Y-22917134D01*
X126788368Y-22928170D01*
X126768962Y-22937349D01*
X126748750Y-22944581D01*
X126727926Y-22949797D01*
X126706691Y-22952947D01*
X126685250Y-22954000D01*
X126247750Y-22954000D01*
X126226309Y-22952947D01*
X126205074Y-22949797D01*
X126184250Y-22944581D01*
X126164038Y-22937349D01*
X126144632Y-22928170D01*
X126126219Y-22917134D01*
X126108976Y-22904346D01*
X126093070Y-22889930D01*
X126078654Y-22874024D01*
X126065866Y-22856781D01*
X126054830Y-22838368D01*
X126045651Y-22818962D01*
X126038419Y-22798750D01*
X126033203Y-22777926D01*
X126030053Y-22756691D01*
X126029000Y-22735250D01*
X126029000Y-22222750D01*
X126030053Y-22201309D01*
X126033203Y-22180074D01*
X126038419Y-22159250D01*
X126045651Y-22139038D01*
X126054830Y-22119632D01*
X126065866Y-22101219D01*
X126078654Y-22083976D01*
X126093070Y-22068070D01*
X126108976Y-22053654D01*
X126126219Y-22040866D01*
X126144632Y-22029830D01*
X126164038Y-22020651D01*
X126184250Y-22013419D01*
X126205074Y-22008203D01*
X126226309Y-22005053D01*
X126247750Y-22004000D01*
X126685250Y-22004000D01*
X126706691Y-22005053D01*
G37*
G36*
X124503002Y-37423621D02*
G01*
X124524354Y-37425842D01*
X124545385Y-37430145D01*
X124565894Y-37436488D01*
X124977009Y-37586122D01*
X124996797Y-37594445D01*
X125015674Y-37604668D01*
X125033458Y-37616692D01*
X125049977Y-37630401D01*
X125065074Y-37645663D01*
X125078602Y-37662331D01*
X125090431Y-37680245D01*
X125100447Y-37699232D01*
X125108554Y-37719110D01*
X125114673Y-37739686D01*
X125118746Y-37760764D01*
X125120734Y-37782138D01*
X125120617Y-37803605D01*
X125118396Y-37824957D01*
X125114093Y-37845989D01*
X125107750Y-37866497D01*
X124932465Y-38348089D01*
X124924142Y-38367877D01*
X124913919Y-38386754D01*
X124901895Y-38404538D01*
X124888186Y-38421057D01*
X124872924Y-38436154D01*
X124856256Y-38449682D01*
X124838342Y-38461511D01*
X124819355Y-38471527D01*
X124799477Y-38479634D01*
X124778901Y-38485753D01*
X124757824Y-38489826D01*
X124736449Y-38491814D01*
X124714982Y-38491697D01*
X124693630Y-38489476D01*
X124672599Y-38485173D01*
X124652090Y-38478830D01*
X124240975Y-38329196D01*
X124221187Y-38320873D01*
X124202310Y-38310650D01*
X124184526Y-38298626D01*
X124168007Y-38284917D01*
X124152910Y-38269655D01*
X124139382Y-38252987D01*
X124127553Y-38235073D01*
X124117537Y-38216086D01*
X124109430Y-38196208D01*
X124103311Y-38175632D01*
X124099238Y-38154554D01*
X124097250Y-38133180D01*
X124097367Y-38111713D01*
X124099588Y-38090361D01*
X124103891Y-38069329D01*
X124110234Y-38048821D01*
X124285519Y-37567229D01*
X124293842Y-37547441D01*
X124304065Y-37528564D01*
X124316089Y-37510780D01*
X124329798Y-37494261D01*
X124345060Y-37479164D01*
X124361728Y-37465636D01*
X124379642Y-37453807D01*
X124398629Y-37443791D01*
X124418507Y-37435684D01*
X124439083Y-37429565D01*
X124460160Y-37425492D01*
X124481535Y-37423504D01*
X124503002Y-37423621D01*
G37*
G36*
X125983018Y-37962303D02*
G01*
X126004370Y-37964524D01*
X126025401Y-37968827D01*
X126045910Y-37975170D01*
X126457025Y-38124804D01*
X126476813Y-38133127D01*
X126495690Y-38143350D01*
X126513474Y-38155374D01*
X126529993Y-38169083D01*
X126545090Y-38184345D01*
X126558618Y-38201013D01*
X126570447Y-38218927D01*
X126580463Y-38237914D01*
X126588570Y-38257792D01*
X126594689Y-38278368D01*
X126598762Y-38299446D01*
X126600750Y-38320820D01*
X126600633Y-38342287D01*
X126598412Y-38363639D01*
X126594109Y-38384671D01*
X126587766Y-38405179D01*
X126412481Y-38886771D01*
X126404158Y-38906559D01*
X126393935Y-38925436D01*
X126381911Y-38943220D01*
X126368202Y-38959739D01*
X126352940Y-38974836D01*
X126336272Y-38988364D01*
X126318358Y-39000193D01*
X126299371Y-39010209D01*
X126279493Y-39018316D01*
X126258917Y-39024435D01*
X126237840Y-39028508D01*
X126216465Y-39030496D01*
X126194998Y-39030379D01*
X126173646Y-39028158D01*
X126152615Y-39023855D01*
X126132106Y-39017512D01*
X125720991Y-38867878D01*
X125701203Y-38859555D01*
X125682326Y-38849332D01*
X125664542Y-38837308D01*
X125648023Y-38823599D01*
X125632926Y-38808337D01*
X125619398Y-38791669D01*
X125607569Y-38773755D01*
X125597553Y-38754768D01*
X125589446Y-38734890D01*
X125583327Y-38714314D01*
X125579254Y-38693236D01*
X125577266Y-38671862D01*
X125577383Y-38650395D01*
X125579604Y-38629043D01*
X125583907Y-38608011D01*
X125590250Y-38587503D01*
X125765535Y-38105911D01*
X125773858Y-38086123D01*
X125784081Y-38067246D01*
X125796105Y-38049462D01*
X125809814Y-38032943D01*
X125825076Y-38017846D01*
X125841744Y-38004318D01*
X125859658Y-37992489D01*
X125878645Y-37982473D01*
X125898523Y-37974366D01*
X125919099Y-37968247D01*
X125940176Y-37964174D01*
X125961551Y-37962186D01*
X125983018Y-37962303D01*
G37*
G36*
X125273994Y-53657280D02*
G01*
X125295346Y-53659501D01*
X125316377Y-53663804D01*
X125336886Y-53670147D01*
X125748001Y-53819781D01*
X125767789Y-53828104D01*
X125786666Y-53838327D01*
X125804450Y-53850351D01*
X125820969Y-53864060D01*
X125836066Y-53879322D01*
X125849594Y-53895990D01*
X125861423Y-53913904D01*
X125871439Y-53932891D01*
X125879546Y-53952769D01*
X125885665Y-53973345D01*
X125889738Y-53994423D01*
X125891726Y-54015797D01*
X125891609Y-54037264D01*
X125889388Y-54058616D01*
X125885085Y-54079648D01*
X125878742Y-54100156D01*
X125703457Y-54581748D01*
X125695134Y-54601536D01*
X125684911Y-54620413D01*
X125672887Y-54638197D01*
X125659178Y-54654716D01*
X125643916Y-54669813D01*
X125627248Y-54683341D01*
X125609334Y-54695170D01*
X125590347Y-54705186D01*
X125570469Y-54713293D01*
X125549893Y-54719412D01*
X125528816Y-54723485D01*
X125507441Y-54725473D01*
X125485974Y-54725356D01*
X125464622Y-54723135D01*
X125443591Y-54718832D01*
X125423082Y-54712489D01*
X125011967Y-54562855D01*
X124992179Y-54554532D01*
X124973302Y-54544309D01*
X124955518Y-54532285D01*
X124938999Y-54518576D01*
X124923902Y-54503314D01*
X124910374Y-54486646D01*
X124898545Y-54468732D01*
X124888529Y-54449745D01*
X124880422Y-54429867D01*
X124874303Y-54409291D01*
X124870230Y-54388213D01*
X124868242Y-54366839D01*
X124868359Y-54345372D01*
X124870580Y-54324020D01*
X124874883Y-54302988D01*
X124881226Y-54282480D01*
X125056511Y-53800888D01*
X125064834Y-53781100D01*
X125075057Y-53762223D01*
X125087081Y-53744439D01*
X125100790Y-53727920D01*
X125116052Y-53712823D01*
X125132720Y-53699295D01*
X125150634Y-53687466D01*
X125169621Y-53677450D01*
X125189499Y-53669343D01*
X125210075Y-53663224D01*
X125231152Y-53659151D01*
X125252527Y-53657163D01*
X125273994Y-53657280D01*
G37*
G36*
X126754010Y-54195962D02*
G01*
X126775362Y-54198183D01*
X126796393Y-54202486D01*
X126816902Y-54208829D01*
X127228017Y-54358463D01*
X127247805Y-54366786D01*
X127266682Y-54377009D01*
X127284466Y-54389033D01*
X127300985Y-54402742D01*
X127316082Y-54418004D01*
X127329610Y-54434672D01*
X127341439Y-54452586D01*
X127351455Y-54471573D01*
X127359562Y-54491451D01*
X127365681Y-54512027D01*
X127369754Y-54533105D01*
X127371742Y-54554479D01*
X127371625Y-54575946D01*
X127369404Y-54597298D01*
X127365101Y-54618330D01*
X127358758Y-54638838D01*
X127183473Y-55120430D01*
X127175150Y-55140218D01*
X127164927Y-55159095D01*
X127152903Y-55176879D01*
X127139194Y-55193398D01*
X127123932Y-55208495D01*
X127107264Y-55222023D01*
X127089350Y-55233852D01*
X127070363Y-55243868D01*
X127050485Y-55251975D01*
X127029909Y-55258094D01*
X127008832Y-55262167D01*
X126987457Y-55264155D01*
X126965990Y-55264038D01*
X126944638Y-55261817D01*
X126923607Y-55257514D01*
X126903098Y-55251171D01*
X126491983Y-55101537D01*
X126472195Y-55093214D01*
X126453318Y-55082991D01*
X126435534Y-55070967D01*
X126419015Y-55057258D01*
X126403918Y-55041996D01*
X126390390Y-55025328D01*
X126378561Y-55007414D01*
X126368545Y-54988427D01*
X126360438Y-54968549D01*
X126354319Y-54947973D01*
X126350246Y-54926895D01*
X126348258Y-54905521D01*
X126348375Y-54884054D01*
X126350596Y-54862702D01*
X126354899Y-54841670D01*
X126361242Y-54821162D01*
X126536527Y-54339570D01*
X126544850Y-54319782D01*
X126555073Y-54300905D01*
X126567097Y-54283121D01*
X126580806Y-54266602D01*
X126596068Y-54251505D01*
X126612736Y-54237977D01*
X126630650Y-54226148D01*
X126649637Y-54216132D01*
X126669515Y-54208025D01*
X126690091Y-54201906D01*
X126711168Y-54197833D01*
X126732543Y-54195845D01*
X126754010Y-54195962D01*
G37*
G36*
X126630691Y-67725053D02*
G01*
X126651926Y-67728203D01*
X126672750Y-67733419D01*
X126692962Y-67740651D01*
X126712368Y-67749830D01*
X126730781Y-67760866D01*
X126748024Y-67773654D01*
X126763930Y-67788070D01*
X126778346Y-67803976D01*
X126791134Y-67821219D01*
X126802170Y-67839632D01*
X126811349Y-67859038D01*
X126818581Y-67879250D01*
X126823797Y-67900074D01*
X126826947Y-67921309D01*
X126828000Y-67942750D01*
X126828000Y-68455250D01*
X126826947Y-68476691D01*
X126823797Y-68497926D01*
X126818581Y-68518750D01*
X126811349Y-68538962D01*
X126802170Y-68558368D01*
X126791134Y-68576781D01*
X126778346Y-68594024D01*
X126763930Y-68609930D01*
X126748024Y-68624346D01*
X126730781Y-68637134D01*
X126712368Y-68648170D01*
X126692962Y-68657349D01*
X126672750Y-68664581D01*
X126651926Y-68669797D01*
X126630691Y-68672947D01*
X126609250Y-68674000D01*
X126171750Y-68674000D01*
X126150309Y-68672947D01*
X126129074Y-68669797D01*
X126108250Y-68664581D01*
X126088038Y-68657349D01*
X126068632Y-68648170D01*
X126050219Y-68637134D01*
X126032976Y-68624346D01*
X126017070Y-68609930D01*
X126002654Y-68594024D01*
X125989866Y-68576781D01*
X125978830Y-68558368D01*
X125969651Y-68538962D01*
X125962419Y-68518750D01*
X125957203Y-68497926D01*
X125954053Y-68476691D01*
X125953000Y-68455250D01*
X125953000Y-67942750D01*
X125954053Y-67921309D01*
X125957203Y-67900074D01*
X125962419Y-67879250D01*
X125969651Y-67859038D01*
X125978830Y-67839632D01*
X125989866Y-67821219D01*
X126002654Y-67803976D01*
X126017070Y-67788070D01*
X126032976Y-67773654D01*
X126050219Y-67760866D01*
X126068632Y-67749830D01*
X126088038Y-67740651D01*
X126108250Y-67733419D01*
X126129074Y-67728203D01*
X126150309Y-67725053D01*
X126171750Y-67724000D01*
X126609250Y-67724000D01*
X126630691Y-67725053D01*
G37*
G36*
X125055691Y-67725053D02*
G01*
X125076926Y-67728203D01*
X125097750Y-67733419D01*
X125117962Y-67740651D01*
X125137368Y-67749830D01*
X125155781Y-67760866D01*
X125173024Y-67773654D01*
X125188930Y-67788070D01*
X125203346Y-67803976D01*
X125216134Y-67821219D01*
X125227170Y-67839632D01*
X125236349Y-67859038D01*
X125243581Y-67879250D01*
X125248797Y-67900074D01*
X125251947Y-67921309D01*
X125253000Y-67942750D01*
X125253000Y-68455250D01*
X125251947Y-68476691D01*
X125248797Y-68497926D01*
X125243581Y-68518750D01*
X125236349Y-68538962D01*
X125227170Y-68558368D01*
X125216134Y-68576781D01*
X125203346Y-68594024D01*
X125188930Y-68609930D01*
X125173024Y-68624346D01*
X125155781Y-68637134D01*
X125137368Y-68648170D01*
X125117962Y-68657349D01*
X125097750Y-68664581D01*
X125076926Y-68669797D01*
X125055691Y-68672947D01*
X125034250Y-68674000D01*
X124596750Y-68674000D01*
X124575309Y-68672947D01*
X124554074Y-68669797D01*
X124533250Y-68664581D01*
X124513038Y-68657349D01*
X124493632Y-68648170D01*
X124475219Y-68637134D01*
X124457976Y-68624346D01*
X124442070Y-68609930D01*
X124427654Y-68594024D01*
X124414866Y-68576781D01*
X124403830Y-68558368D01*
X124394651Y-68538962D01*
X124387419Y-68518750D01*
X124382203Y-68497926D01*
X124379053Y-68476691D01*
X124378000Y-68455250D01*
X124378000Y-67942750D01*
X124379053Y-67921309D01*
X124382203Y-67900074D01*
X124387419Y-67879250D01*
X124394651Y-67859038D01*
X124403830Y-67839632D01*
X124414866Y-67821219D01*
X124427654Y-67803976D01*
X124442070Y-67788070D01*
X124457976Y-67773654D01*
X124475219Y-67760866D01*
X124493632Y-67749830D01*
X124513038Y-67740651D01*
X124533250Y-67733419D01*
X124554074Y-67728203D01*
X124575309Y-67725053D01*
X124596750Y-67724000D01*
X125034250Y-67724000D01*
X125055691Y-67725053D01*
G37*
G36*
X119834916Y-49856320D02*
G01*
X119856151Y-49859470D01*
X119876975Y-49864686D01*
X119897187Y-49871918D01*
X119916593Y-49881097D01*
X119935006Y-49892133D01*
X119952249Y-49904921D01*
X119968155Y-49919337D01*
X120277514Y-50228696D01*
X120291930Y-50244602D01*
X120304718Y-50261845D01*
X120315754Y-50280258D01*
X120324933Y-50299664D01*
X120332165Y-50319876D01*
X120337381Y-50340700D01*
X120340531Y-50361935D01*
X120341584Y-50383376D01*
X120340531Y-50404817D01*
X120337381Y-50426052D01*
X120332165Y-50446876D01*
X120324933Y-50467088D01*
X120315754Y-50486494D01*
X120304718Y-50504907D01*
X120291930Y-50522150D01*
X120277514Y-50538056D01*
X119915121Y-50900449D01*
X119899215Y-50914865D01*
X119881972Y-50927653D01*
X119863559Y-50938689D01*
X119844153Y-50947868D01*
X119823941Y-50955100D01*
X119803117Y-50960316D01*
X119781882Y-50963466D01*
X119760441Y-50964519D01*
X119739000Y-50963466D01*
X119717765Y-50960316D01*
X119696941Y-50955100D01*
X119676729Y-50947868D01*
X119657323Y-50938689D01*
X119638910Y-50927653D01*
X119621667Y-50914865D01*
X119605761Y-50900449D01*
X119296402Y-50591090D01*
X119281986Y-50575184D01*
X119269198Y-50557941D01*
X119258162Y-50539528D01*
X119248983Y-50520122D01*
X119241751Y-50499910D01*
X119236535Y-50479086D01*
X119233385Y-50457851D01*
X119232332Y-50436410D01*
X119233385Y-50414969D01*
X119236535Y-50393734D01*
X119241751Y-50372910D01*
X119248983Y-50352698D01*
X119258162Y-50333292D01*
X119269198Y-50314879D01*
X119281986Y-50297636D01*
X119296402Y-50281730D01*
X119658795Y-49919337D01*
X119674701Y-49904921D01*
X119691944Y-49892133D01*
X119710357Y-49881097D01*
X119729763Y-49871918D01*
X119749975Y-49864686D01*
X119770799Y-49859470D01*
X119792034Y-49856320D01*
X119813475Y-49855267D01*
X119834916Y-49856320D01*
G37*
G36*
X120948610Y-50970014D02*
G01*
X120969845Y-50973164D01*
X120990669Y-50978380D01*
X121010881Y-50985612D01*
X121030287Y-50994791D01*
X121048700Y-51005827D01*
X121065943Y-51018615D01*
X121081849Y-51033031D01*
X121391208Y-51342390D01*
X121405624Y-51358296D01*
X121418412Y-51375539D01*
X121429448Y-51393952D01*
X121438627Y-51413358D01*
X121445859Y-51433570D01*
X121451075Y-51454394D01*
X121454225Y-51475629D01*
X121455278Y-51497070D01*
X121454225Y-51518511D01*
X121451075Y-51539746D01*
X121445859Y-51560570D01*
X121438627Y-51580782D01*
X121429448Y-51600188D01*
X121418412Y-51618601D01*
X121405624Y-51635844D01*
X121391208Y-51651750D01*
X121028815Y-52014143D01*
X121012909Y-52028559D01*
X120995666Y-52041347D01*
X120977253Y-52052383D01*
X120957847Y-52061562D01*
X120937635Y-52068794D01*
X120916811Y-52074010D01*
X120895576Y-52077160D01*
X120874135Y-52078213D01*
X120852694Y-52077160D01*
X120831459Y-52074010D01*
X120810635Y-52068794D01*
X120790423Y-52061562D01*
X120771017Y-52052383D01*
X120752604Y-52041347D01*
X120735361Y-52028559D01*
X120719455Y-52014143D01*
X120410096Y-51704784D01*
X120395680Y-51688878D01*
X120382892Y-51671635D01*
X120371856Y-51653222D01*
X120362677Y-51633816D01*
X120355445Y-51613604D01*
X120350229Y-51592780D01*
X120347079Y-51571545D01*
X120346026Y-51550104D01*
X120347079Y-51528663D01*
X120350229Y-51507428D01*
X120355445Y-51486604D01*
X120362677Y-51466392D01*
X120371856Y-51446986D01*
X120382892Y-51428573D01*
X120395680Y-51411330D01*
X120410096Y-51395424D01*
X120772489Y-51033031D01*
X120788395Y-51018615D01*
X120805638Y-51005827D01*
X120824051Y-50994791D01*
X120843457Y-50985612D01*
X120863669Y-50978380D01*
X120884493Y-50973164D01*
X120905728Y-50970014D01*
X120927169Y-50968961D01*
X120948610Y-50970014D01*
G37*
G36*
X116678907Y-44611307D02*
G01*
X116700259Y-44613528D01*
X116721290Y-44617831D01*
X116741799Y-44624174D01*
X116761587Y-44632497D01*
X116780464Y-44642720D01*
X116798248Y-44654744D01*
X116814767Y-44668453D01*
X116829864Y-44683715D01*
X116843392Y-44700383D01*
X116855221Y-44718297D01*
X116865237Y-44737285D01*
X117050132Y-45133795D01*
X117058239Y-45153672D01*
X117064358Y-45174248D01*
X117068431Y-45195326D01*
X117070419Y-45216701D01*
X117070302Y-45238167D01*
X117068081Y-45259519D01*
X117063778Y-45280551D01*
X117057435Y-45301059D01*
X117049111Y-45320847D01*
X117038889Y-45339724D01*
X117026865Y-45357508D01*
X117013156Y-45374028D01*
X116997894Y-45389124D01*
X116981226Y-45402652D01*
X116963312Y-45414481D01*
X116944325Y-45424497D01*
X116479842Y-45641089D01*
X116459964Y-45649196D01*
X116439388Y-45655315D01*
X116418311Y-45659388D01*
X116396936Y-45661376D01*
X116375469Y-45661259D01*
X116354117Y-45659038D01*
X116333086Y-45654735D01*
X116312577Y-45648392D01*
X116292789Y-45640069D01*
X116273912Y-45629846D01*
X116256128Y-45617822D01*
X116239609Y-45604113D01*
X116224512Y-45588851D01*
X116210984Y-45572183D01*
X116199155Y-45554269D01*
X116189139Y-45535281D01*
X116004244Y-45138771D01*
X115996137Y-45118894D01*
X115990018Y-45098318D01*
X115985945Y-45077240D01*
X115983957Y-45055865D01*
X115984074Y-45034399D01*
X115986295Y-45013047D01*
X115990598Y-44992015D01*
X115996941Y-44971507D01*
X116005265Y-44951719D01*
X116015487Y-44932842D01*
X116027511Y-44915058D01*
X116041220Y-44898538D01*
X116056482Y-44883442D01*
X116073150Y-44869914D01*
X116091064Y-44858085D01*
X116110051Y-44848069D01*
X116574534Y-44631477D01*
X116594412Y-44623370D01*
X116614988Y-44617251D01*
X116636065Y-44613178D01*
X116657440Y-44611190D01*
X116678907Y-44611307D01*
G37*
G36*
X117344531Y-46038741D02*
G01*
X117365883Y-46040962D01*
X117386914Y-46045265D01*
X117407423Y-46051608D01*
X117427211Y-46059931D01*
X117446088Y-46070154D01*
X117463872Y-46082178D01*
X117480391Y-46095887D01*
X117495488Y-46111149D01*
X117509016Y-46127817D01*
X117520845Y-46145731D01*
X117530861Y-46164719D01*
X117715756Y-46561229D01*
X117723863Y-46581106D01*
X117729982Y-46601682D01*
X117734055Y-46622760D01*
X117736043Y-46644135D01*
X117735926Y-46665601D01*
X117733705Y-46686953D01*
X117729402Y-46707985D01*
X117723059Y-46728493D01*
X117714735Y-46748281D01*
X117704513Y-46767158D01*
X117692489Y-46784942D01*
X117678780Y-46801462D01*
X117663518Y-46816558D01*
X117646850Y-46830086D01*
X117628936Y-46841915D01*
X117609949Y-46851931D01*
X117145466Y-47068523D01*
X117125588Y-47076630D01*
X117105012Y-47082749D01*
X117083935Y-47086822D01*
X117062560Y-47088810D01*
X117041093Y-47088693D01*
X117019741Y-47086472D01*
X116998710Y-47082169D01*
X116978201Y-47075826D01*
X116958413Y-47067503D01*
X116939536Y-47057280D01*
X116921752Y-47045256D01*
X116905233Y-47031547D01*
X116890136Y-47016285D01*
X116876608Y-46999617D01*
X116864779Y-46981703D01*
X116854763Y-46962715D01*
X116669868Y-46566205D01*
X116661761Y-46546328D01*
X116655642Y-46525752D01*
X116651569Y-46504674D01*
X116649581Y-46483299D01*
X116649698Y-46461833D01*
X116651919Y-46440481D01*
X116656222Y-46419449D01*
X116662565Y-46398941D01*
X116670889Y-46379153D01*
X116681111Y-46360276D01*
X116693135Y-46342492D01*
X116706844Y-46325972D01*
X116722106Y-46310876D01*
X116738774Y-46297348D01*
X116756688Y-46285519D01*
X116775675Y-46275503D01*
X117240158Y-46058911D01*
X117260036Y-46050804D01*
X117280612Y-46044685D01*
X117301689Y-46040612D01*
X117323064Y-46038624D01*
X117344531Y-46038741D01*
G37*
G36*
X121529183Y-23703978D02*
G01*
X121550451Y-23706896D01*
X121571331Y-23711885D01*
X121591621Y-23718896D01*
X121611126Y-23727862D01*
X121629658Y-23738697D01*
X121647039Y-23751296D01*
X121663101Y-23765538D01*
X121677690Y-23781286D01*
X122007119Y-24173884D01*
X122020094Y-24190986D01*
X122031331Y-24209278D01*
X122040720Y-24228582D01*
X122048173Y-24248715D01*
X122053615Y-24269480D01*
X122056997Y-24290679D01*
X122058284Y-24312108D01*
X122057465Y-24333559D01*
X122054547Y-24354827D01*
X122049558Y-24375707D01*
X122042547Y-24395996D01*
X122033581Y-24415501D01*
X122022746Y-24434034D01*
X122010147Y-24451415D01*
X121995905Y-24467477D01*
X121980157Y-24482066D01*
X121645012Y-24763286D01*
X121627910Y-24776261D01*
X121609618Y-24787498D01*
X121590314Y-24796887D01*
X121570181Y-24804340D01*
X121549416Y-24809783D01*
X121528217Y-24813164D01*
X121506788Y-24814451D01*
X121485337Y-24813632D01*
X121464069Y-24810714D01*
X121443189Y-24805725D01*
X121422899Y-24798714D01*
X121403394Y-24789748D01*
X121384862Y-24778913D01*
X121367481Y-24766314D01*
X121351419Y-24752072D01*
X121336830Y-24736324D01*
X121007401Y-24343726D01*
X120994426Y-24326624D01*
X120983189Y-24308332D01*
X120973800Y-24289028D01*
X120966347Y-24268895D01*
X120960905Y-24248130D01*
X120957523Y-24226931D01*
X120956236Y-24205502D01*
X120957055Y-24184051D01*
X120959973Y-24162783D01*
X120964962Y-24141903D01*
X120971973Y-24121614D01*
X120980939Y-24102109D01*
X120991774Y-24083576D01*
X121004373Y-24066195D01*
X121018615Y-24050133D01*
X121034363Y-24035544D01*
X121369508Y-23754324D01*
X121386610Y-23741349D01*
X121404902Y-23730112D01*
X121424206Y-23720723D01*
X121444339Y-23713270D01*
X121465104Y-23707827D01*
X121486303Y-23704446D01*
X121507732Y-23703159D01*
X121529183Y-23703978D01*
G37*
G36*
X120322663Y-24716368D02*
G01*
X120343931Y-24719286D01*
X120364811Y-24724275D01*
X120385101Y-24731286D01*
X120404606Y-24740252D01*
X120423138Y-24751087D01*
X120440519Y-24763686D01*
X120456581Y-24777928D01*
X120471170Y-24793676D01*
X120800599Y-25186274D01*
X120813574Y-25203376D01*
X120824811Y-25221668D01*
X120834200Y-25240972D01*
X120841653Y-25261105D01*
X120847095Y-25281870D01*
X120850477Y-25303069D01*
X120851764Y-25324498D01*
X120850945Y-25345949D01*
X120848027Y-25367217D01*
X120843038Y-25388097D01*
X120836027Y-25408386D01*
X120827061Y-25427891D01*
X120816226Y-25446424D01*
X120803627Y-25463805D01*
X120789385Y-25479867D01*
X120773637Y-25494456D01*
X120438492Y-25775676D01*
X120421390Y-25788651D01*
X120403098Y-25799888D01*
X120383794Y-25809277D01*
X120363661Y-25816730D01*
X120342896Y-25822173D01*
X120321697Y-25825554D01*
X120300268Y-25826841D01*
X120278817Y-25826022D01*
X120257549Y-25823104D01*
X120236669Y-25818115D01*
X120216379Y-25811104D01*
X120196874Y-25802138D01*
X120178342Y-25791303D01*
X120160961Y-25778704D01*
X120144899Y-25764462D01*
X120130310Y-25748714D01*
X119800881Y-25356116D01*
X119787906Y-25339014D01*
X119776669Y-25320722D01*
X119767280Y-25301418D01*
X119759827Y-25281285D01*
X119754385Y-25260520D01*
X119751003Y-25239321D01*
X119749716Y-25217892D01*
X119750535Y-25196441D01*
X119753453Y-25175173D01*
X119758442Y-25154293D01*
X119765453Y-25134004D01*
X119774419Y-25114499D01*
X119785254Y-25095966D01*
X119797853Y-25078585D01*
X119812095Y-25062523D01*
X119827843Y-25047934D01*
X120162988Y-24766714D01*
X120180090Y-24753739D01*
X120198382Y-24742502D01*
X120217686Y-24733113D01*
X120237819Y-24725660D01*
X120258584Y-24720217D01*
X120279783Y-24716836D01*
X120301212Y-24715549D01*
X120322663Y-24716368D01*
G37*
G36*
X116193287Y-30320567D02*
G01*
X116214639Y-30322788D01*
X116235671Y-30327091D01*
X116256179Y-30333434D01*
X116737771Y-30508719D01*
X116757559Y-30517042D01*
X116776436Y-30527265D01*
X116794220Y-30539289D01*
X116810739Y-30552998D01*
X116825836Y-30568260D01*
X116839364Y-30584928D01*
X116851193Y-30602842D01*
X116861209Y-30621829D01*
X116869316Y-30641707D01*
X116875435Y-30662283D01*
X116879508Y-30683360D01*
X116881496Y-30704735D01*
X116881379Y-30726202D01*
X116879158Y-30747554D01*
X116874855Y-30768585D01*
X116868512Y-30789094D01*
X116718878Y-31200209D01*
X116710555Y-31219997D01*
X116700332Y-31238874D01*
X116688308Y-31256658D01*
X116674599Y-31273177D01*
X116659337Y-31288274D01*
X116642669Y-31301802D01*
X116624755Y-31313631D01*
X116605768Y-31323647D01*
X116585890Y-31331754D01*
X116565314Y-31337873D01*
X116544236Y-31341946D01*
X116522862Y-31343934D01*
X116501395Y-31343817D01*
X116480043Y-31341596D01*
X116459011Y-31337293D01*
X116438503Y-31330950D01*
X115956911Y-31155665D01*
X115937123Y-31147342D01*
X115918246Y-31137119D01*
X115900462Y-31125095D01*
X115883943Y-31111386D01*
X115868846Y-31096124D01*
X115855318Y-31079456D01*
X115843489Y-31061542D01*
X115833473Y-31042555D01*
X115825366Y-31022677D01*
X115819247Y-31002101D01*
X115815174Y-30981024D01*
X115813186Y-30959649D01*
X115813303Y-30938182D01*
X115815524Y-30916830D01*
X115819827Y-30895799D01*
X115826170Y-30875290D01*
X115975804Y-30464175D01*
X115984127Y-30444387D01*
X115994350Y-30425510D01*
X116006374Y-30407726D01*
X116020083Y-30391207D01*
X116035345Y-30376110D01*
X116052013Y-30362582D01*
X116069927Y-30350753D01*
X116088914Y-30340737D01*
X116108792Y-30332630D01*
X116129368Y-30326511D01*
X116150446Y-30322438D01*
X116171820Y-30320450D01*
X116193287Y-30320567D01*
G37*
G36*
X115654605Y-31800583D02*
G01*
X115675957Y-31802804D01*
X115696989Y-31807107D01*
X115717497Y-31813450D01*
X116199089Y-31988735D01*
X116218877Y-31997058D01*
X116237754Y-32007281D01*
X116255538Y-32019305D01*
X116272057Y-32033014D01*
X116287154Y-32048276D01*
X116300682Y-32064944D01*
X116312511Y-32082858D01*
X116322527Y-32101845D01*
X116330634Y-32121723D01*
X116336753Y-32142299D01*
X116340826Y-32163376D01*
X116342814Y-32184751D01*
X116342697Y-32206218D01*
X116340476Y-32227570D01*
X116336173Y-32248601D01*
X116329830Y-32269110D01*
X116180196Y-32680225D01*
X116171873Y-32700013D01*
X116161650Y-32718890D01*
X116149626Y-32736674D01*
X116135917Y-32753193D01*
X116120655Y-32768290D01*
X116103987Y-32781818D01*
X116086073Y-32793647D01*
X116067086Y-32803663D01*
X116047208Y-32811770D01*
X116026632Y-32817889D01*
X116005554Y-32821962D01*
X115984180Y-32823950D01*
X115962713Y-32823833D01*
X115941361Y-32821612D01*
X115920329Y-32817309D01*
X115899821Y-32810966D01*
X115418229Y-32635681D01*
X115398441Y-32627358D01*
X115379564Y-32617135D01*
X115361780Y-32605111D01*
X115345261Y-32591402D01*
X115330164Y-32576140D01*
X115316636Y-32559472D01*
X115304807Y-32541558D01*
X115294791Y-32522571D01*
X115286684Y-32502693D01*
X115280565Y-32482117D01*
X115276492Y-32461040D01*
X115274504Y-32439665D01*
X115274621Y-32418198D01*
X115276842Y-32396846D01*
X115281145Y-32375815D01*
X115287488Y-32355306D01*
X115437122Y-31944191D01*
X115445445Y-31924403D01*
X115455668Y-31905526D01*
X115467692Y-31887742D01*
X115481401Y-31871223D01*
X115496663Y-31856126D01*
X115513331Y-31842598D01*
X115531245Y-31830769D01*
X115550232Y-31820753D01*
X115570110Y-31812646D01*
X115590686Y-31806527D01*
X115611764Y-31802454D01*
X115633138Y-31800466D01*
X115654605Y-31800583D01*
G37*
G36*
X115466691Y-38146053D02*
G01*
X115487926Y-38149203D01*
X115508750Y-38154419D01*
X115528962Y-38161651D01*
X115548368Y-38170830D01*
X115566781Y-38181866D01*
X115584024Y-38194654D01*
X115599930Y-38209070D01*
X115614346Y-38224976D01*
X115627134Y-38242219D01*
X115638170Y-38260632D01*
X115647349Y-38280038D01*
X115654581Y-38300250D01*
X115659797Y-38321074D01*
X115662947Y-38342309D01*
X115664000Y-38363750D01*
X115664000Y-38801250D01*
X115662947Y-38822691D01*
X115659797Y-38843926D01*
X115654581Y-38864750D01*
X115647349Y-38884962D01*
X115638170Y-38904368D01*
X115627134Y-38922781D01*
X115614346Y-38940024D01*
X115599930Y-38955930D01*
X115584024Y-38970346D01*
X115566781Y-38983134D01*
X115548368Y-38994170D01*
X115528962Y-39003349D01*
X115508750Y-39010581D01*
X115487926Y-39015797D01*
X115466691Y-39018947D01*
X115445250Y-39020000D01*
X114932750Y-39020000D01*
X114911309Y-39018947D01*
X114890074Y-39015797D01*
X114869250Y-39010581D01*
X114849038Y-39003349D01*
X114829632Y-38994170D01*
X114811219Y-38983134D01*
X114793976Y-38970346D01*
X114778070Y-38955930D01*
X114763654Y-38940024D01*
X114750866Y-38922781D01*
X114739830Y-38904368D01*
X114730651Y-38884962D01*
X114723419Y-38864750D01*
X114718203Y-38843926D01*
X114715053Y-38822691D01*
X114714000Y-38801250D01*
X114714000Y-38363750D01*
X114715053Y-38342309D01*
X114718203Y-38321074D01*
X114723419Y-38300250D01*
X114730651Y-38280038D01*
X114739830Y-38260632D01*
X114750866Y-38242219D01*
X114763654Y-38224976D01*
X114778070Y-38209070D01*
X114793976Y-38194654D01*
X114811219Y-38181866D01*
X114829632Y-38170830D01*
X114849038Y-38161651D01*
X114869250Y-38154419D01*
X114890074Y-38149203D01*
X114911309Y-38146053D01*
X114932750Y-38145000D01*
X115445250Y-38145000D01*
X115466691Y-38146053D01*
G37*
G36*
X115466691Y-39721053D02*
G01*
X115487926Y-39724203D01*
X115508750Y-39729419D01*
X115528962Y-39736651D01*
X115548368Y-39745830D01*
X115566781Y-39756866D01*
X115584024Y-39769654D01*
X115599930Y-39784070D01*
X115614346Y-39799976D01*
X115627134Y-39817219D01*
X115638170Y-39835632D01*
X115647349Y-39855038D01*
X115654581Y-39875250D01*
X115659797Y-39896074D01*
X115662947Y-39917309D01*
X115664000Y-39938750D01*
X115664000Y-40376250D01*
X115662947Y-40397691D01*
X115659797Y-40418926D01*
X115654581Y-40439750D01*
X115647349Y-40459962D01*
X115638170Y-40479368D01*
X115627134Y-40497781D01*
X115614346Y-40515024D01*
X115599930Y-40530930D01*
X115584024Y-40545346D01*
X115566781Y-40558134D01*
X115548368Y-40569170D01*
X115528962Y-40578349D01*
X115508750Y-40585581D01*
X115487926Y-40590797D01*
X115466691Y-40593947D01*
X115445250Y-40595000D01*
X114932750Y-40595000D01*
X114911309Y-40593947D01*
X114890074Y-40590797D01*
X114869250Y-40585581D01*
X114849038Y-40578349D01*
X114829632Y-40569170D01*
X114811219Y-40558134D01*
X114793976Y-40545346D01*
X114778070Y-40530930D01*
X114763654Y-40515024D01*
X114750866Y-40497781D01*
X114739830Y-40479368D01*
X114730651Y-40459962D01*
X114723419Y-40439750D01*
X114718203Y-40418926D01*
X114715053Y-40397691D01*
X114714000Y-40376250D01*
X114714000Y-39938750D01*
X114715053Y-39917309D01*
X114718203Y-39896074D01*
X114723419Y-39875250D01*
X114730651Y-39855038D01*
X114739830Y-39835632D01*
X114750866Y-39817219D01*
X114763654Y-39799976D01*
X114778070Y-39784070D01*
X114793976Y-39769654D01*
X114811219Y-39756866D01*
X114829632Y-39745830D01*
X114849038Y-39736651D01*
X114869250Y-39729419D01*
X114890074Y-39724203D01*
X114911309Y-39721053D01*
X114932750Y-39720000D01*
X115445250Y-39720000D01*
X115466691Y-39721053D01*
G37*
G36*
X119264691Y-69376053D02*
G01*
X119285926Y-69379203D01*
X119306750Y-69384419D01*
X119326962Y-69391651D01*
X119346368Y-69400830D01*
X119364781Y-69411866D01*
X119382024Y-69424654D01*
X119397930Y-69439070D01*
X119412346Y-69454976D01*
X119425134Y-69472219D01*
X119436170Y-69490632D01*
X119445349Y-69510038D01*
X119452581Y-69530250D01*
X119457797Y-69551074D01*
X119460947Y-69572309D01*
X119462000Y-69593750D01*
X119462000Y-70106250D01*
X119460947Y-70127691D01*
X119457797Y-70148926D01*
X119452581Y-70169750D01*
X119445349Y-70189962D01*
X119436170Y-70209368D01*
X119425134Y-70227781D01*
X119412346Y-70245024D01*
X119397930Y-70260930D01*
X119382024Y-70275346D01*
X119364781Y-70288134D01*
X119346368Y-70299170D01*
X119326962Y-70308349D01*
X119306750Y-70315581D01*
X119285926Y-70320797D01*
X119264691Y-70323947D01*
X119243250Y-70325000D01*
X118805750Y-70325000D01*
X118784309Y-70323947D01*
X118763074Y-70320797D01*
X118742250Y-70315581D01*
X118722038Y-70308349D01*
X118702632Y-70299170D01*
X118684219Y-70288134D01*
X118666976Y-70275346D01*
X118651070Y-70260930D01*
X118636654Y-70245024D01*
X118623866Y-70227781D01*
X118612830Y-70209368D01*
X118603651Y-70189962D01*
X118596419Y-70169750D01*
X118591203Y-70148926D01*
X118588053Y-70127691D01*
X118587000Y-70106250D01*
X118587000Y-69593750D01*
X118588053Y-69572309D01*
X118591203Y-69551074D01*
X118596419Y-69530250D01*
X118603651Y-69510038D01*
X118612830Y-69490632D01*
X118623866Y-69472219D01*
X118636654Y-69454976D01*
X118651070Y-69439070D01*
X118666976Y-69424654D01*
X118684219Y-69411866D01*
X118702632Y-69400830D01*
X118722038Y-69391651D01*
X118742250Y-69384419D01*
X118763074Y-69379203D01*
X118784309Y-69376053D01*
X118805750Y-69375000D01*
X119243250Y-69375000D01*
X119264691Y-69376053D01*
G37*
G36*
X117689691Y-69376053D02*
G01*
X117710926Y-69379203D01*
X117731750Y-69384419D01*
X117751962Y-69391651D01*
X117771368Y-69400830D01*
X117789781Y-69411866D01*
X117807024Y-69424654D01*
X117822930Y-69439070D01*
X117837346Y-69454976D01*
X117850134Y-69472219D01*
X117861170Y-69490632D01*
X117870349Y-69510038D01*
X117877581Y-69530250D01*
X117882797Y-69551074D01*
X117885947Y-69572309D01*
X117887000Y-69593750D01*
X117887000Y-70106250D01*
X117885947Y-70127691D01*
X117882797Y-70148926D01*
X117877581Y-70169750D01*
X117870349Y-70189962D01*
X117861170Y-70209368D01*
X117850134Y-70227781D01*
X117837346Y-70245024D01*
X117822930Y-70260930D01*
X117807024Y-70275346D01*
X117789781Y-70288134D01*
X117771368Y-70299170D01*
X117751962Y-70308349D01*
X117731750Y-70315581D01*
X117710926Y-70320797D01*
X117689691Y-70323947D01*
X117668250Y-70325000D01*
X117230750Y-70325000D01*
X117209309Y-70323947D01*
X117188074Y-70320797D01*
X117167250Y-70315581D01*
X117147038Y-70308349D01*
X117127632Y-70299170D01*
X117109219Y-70288134D01*
X117091976Y-70275346D01*
X117076070Y-70260930D01*
X117061654Y-70245024D01*
X117048866Y-70227781D01*
X117037830Y-70209368D01*
X117028651Y-70189962D01*
X117021419Y-70169750D01*
X117016203Y-70148926D01*
X117013053Y-70127691D01*
X117012000Y-70106250D01*
X117012000Y-69593750D01*
X117013053Y-69572309D01*
X117016203Y-69551074D01*
X117021419Y-69530250D01*
X117028651Y-69510038D01*
X117037830Y-69490632D01*
X117048866Y-69472219D01*
X117061654Y-69454976D01*
X117076070Y-69439070D01*
X117091976Y-69424654D01*
X117109219Y-69411866D01*
X117127632Y-69400830D01*
X117147038Y-69391651D01*
X117167250Y-69384419D01*
X117188074Y-69379203D01*
X117209309Y-69376053D01*
X117230750Y-69375000D01*
X117668250Y-69375000D01*
X117689691Y-69376053D01*
G37*
G36*
X100328839Y-77208492D02*
G01*
X100349917Y-77212565D01*
X100370493Y-77218684D01*
X100390371Y-77226791D01*
X100409358Y-77236807D01*
X100427272Y-77248636D01*
X100443940Y-77262164D01*
X100459202Y-77277261D01*
X100472911Y-77293780D01*
X100484935Y-77311564D01*
X100495158Y-77330441D01*
X100503481Y-77350229D01*
X100678766Y-77831821D01*
X100685109Y-77852330D01*
X100689412Y-77873361D01*
X100691633Y-77894713D01*
X100691750Y-77916180D01*
X100689762Y-77937555D01*
X100685689Y-77958632D01*
X100679570Y-77979208D01*
X100671463Y-77999086D01*
X100661447Y-78018073D01*
X100649618Y-78035987D01*
X100636090Y-78052655D01*
X100620993Y-78067917D01*
X100604474Y-78081626D01*
X100586690Y-78093650D01*
X100567813Y-78103873D01*
X100548025Y-78112196D01*
X100136910Y-78261830D01*
X100116402Y-78268173D01*
X100095370Y-78272476D01*
X100074018Y-78274697D01*
X100052551Y-78274814D01*
X100031177Y-78272826D01*
X100010099Y-78268753D01*
X99989523Y-78262634D01*
X99969645Y-78254527D01*
X99950658Y-78244511D01*
X99932744Y-78232682D01*
X99916076Y-78219154D01*
X99900814Y-78204057D01*
X99887105Y-78187538D01*
X99875081Y-78169754D01*
X99864858Y-78150877D01*
X99856535Y-78131089D01*
X99681250Y-77649497D01*
X99674907Y-77628988D01*
X99670604Y-77607957D01*
X99668383Y-77586605D01*
X99668266Y-77565138D01*
X99670254Y-77543763D01*
X99674327Y-77522686D01*
X99680446Y-77502110D01*
X99688553Y-77482232D01*
X99698569Y-77463245D01*
X99710398Y-77445331D01*
X99723926Y-77428663D01*
X99739023Y-77413401D01*
X99755542Y-77399692D01*
X99773326Y-77387668D01*
X99792203Y-77377445D01*
X99811991Y-77369122D01*
X100223106Y-77219488D01*
X100243614Y-77213145D01*
X100264646Y-77208842D01*
X100285998Y-77206621D01*
X100307465Y-77206504D01*
X100328839Y-77208492D01*
G37*
G36*
X98848823Y-77747174D02*
G01*
X98869901Y-77751247D01*
X98890477Y-77757366D01*
X98910355Y-77765473D01*
X98929342Y-77775489D01*
X98947256Y-77787318D01*
X98963924Y-77800846D01*
X98979186Y-77815943D01*
X98992895Y-77832462D01*
X99004919Y-77850246D01*
X99015142Y-77869123D01*
X99023465Y-77888911D01*
X99198750Y-78370503D01*
X99205093Y-78391012D01*
X99209396Y-78412043D01*
X99211617Y-78433395D01*
X99211734Y-78454862D01*
X99209746Y-78476237D01*
X99205673Y-78497314D01*
X99199554Y-78517890D01*
X99191447Y-78537768D01*
X99181431Y-78556755D01*
X99169602Y-78574669D01*
X99156074Y-78591337D01*
X99140977Y-78606599D01*
X99124458Y-78620308D01*
X99106674Y-78632332D01*
X99087797Y-78642555D01*
X99068009Y-78650878D01*
X98656894Y-78800512D01*
X98636386Y-78806855D01*
X98615354Y-78811158D01*
X98594002Y-78813379D01*
X98572535Y-78813496D01*
X98551161Y-78811508D01*
X98530083Y-78807435D01*
X98509507Y-78801316D01*
X98489629Y-78793209D01*
X98470642Y-78783193D01*
X98452728Y-78771364D01*
X98436060Y-78757836D01*
X98420798Y-78742739D01*
X98407089Y-78726220D01*
X98395065Y-78708436D01*
X98384842Y-78689559D01*
X98376519Y-78669771D01*
X98201234Y-78188179D01*
X98194891Y-78167670D01*
X98190588Y-78146639D01*
X98188367Y-78125287D01*
X98188250Y-78103820D01*
X98190238Y-78082445D01*
X98194311Y-78061368D01*
X98200430Y-78040792D01*
X98208537Y-78020914D01*
X98218553Y-78001927D01*
X98230382Y-77984013D01*
X98243910Y-77967345D01*
X98259007Y-77952083D01*
X98275526Y-77938374D01*
X98293310Y-77926350D01*
X98312187Y-77916127D01*
X98331975Y-77907804D01*
X98743090Y-77758170D01*
X98763598Y-77751827D01*
X98784630Y-77747524D01*
X98805982Y-77745303D01*
X98827449Y-77745186D01*
X98848823Y-77747174D01*
G37*
G36*
X114299839Y-77303492D02*
G01*
X114320917Y-77307565D01*
X114341493Y-77313684D01*
X114361371Y-77321791D01*
X114380358Y-77331807D01*
X114398272Y-77343636D01*
X114414940Y-77357164D01*
X114430202Y-77372261D01*
X114443911Y-77388780D01*
X114455935Y-77406564D01*
X114466158Y-77425441D01*
X114474481Y-77445229D01*
X114649766Y-77926821D01*
X114656109Y-77947330D01*
X114660412Y-77968361D01*
X114662633Y-77989713D01*
X114662750Y-78011180D01*
X114660762Y-78032555D01*
X114656689Y-78053632D01*
X114650570Y-78074208D01*
X114642463Y-78094086D01*
X114632447Y-78113073D01*
X114620618Y-78130987D01*
X114607090Y-78147655D01*
X114591993Y-78162917D01*
X114575474Y-78176626D01*
X114557690Y-78188650D01*
X114538813Y-78198873D01*
X114519025Y-78207196D01*
X114107910Y-78356830D01*
X114087402Y-78363173D01*
X114066370Y-78367476D01*
X114045018Y-78369697D01*
X114023551Y-78369814D01*
X114002177Y-78367826D01*
X113981099Y-78363753D01*
X113960523Y-78357634D01*
X113940645Y-78349527D01*
X113921658Y-78339511D01*
X113903744Y-78327682D01*
X113887076Y-78314154D01*
X113871814Y-78299057D01*
X113858105Y-78282538D01*
X113846081Y-78264754D01*
X113835858Y-78245877D01*
X113827535Y-78226089D01*
X113652250Y-77744497D01*
X113645907Y-77723988D01*
X113641604Y-77702957D01*
X113639383Y-77681605D01*
X113639266Y-77660138D01*
X113641254Y-77638763D01*
X113645327Y-77617686D01*
X113651446Y-77597110D01*
X113659553Y-77577232D01*
X113669569Y-77558245D01*
X113681398Y-77540331D01*
X113694926Y-77523663D01*
X113710023Y-77508401D01*
X113726542Y-77494692D01*
X113744326Y-77482668D01*
X113763203Y-77472445D01*
X113782991Y-77464122D01*
X114194106Y-77314488D01*
X114214614Y-77308145D01*
X114235646Y-77303842D01*
X114256998Y-77301621D01*
X114278465Y-77301504D01*
X114299839Y-77303492D01*
G37*
G36*
X112819823Y-77842174D02*
G01*
X112840901Y-77846247D01*
X112861477Y-77852366D01*
X112881355Y-77860473D01*
X112900342Y-77870489D01*
X112918256Y-77882318D01*
X112934924Y-77895846D01*
X112950186Y-77910943D01*
X112963895Y-77927462D01*
X112975919Y-77945246D01*
X112986142Y-77964123D01*
X112994465Y-77983911D01*
X113169750Y-78465503D01*
X113176093Y-78486012D01*
X113180396Y-78507043D01*
X113182617Y-78528395D01*
X113182734Y-78549862D01*
X113180746Y-78571237D01*
X113176673Y-78592314D01*
X113170554Y-78612890D01*
X113162447Y-78632768D01*
X113152431Y-78651755D01*
X113140602Y-78669669D01*
X113127074Y-78686337D01*
X113111977Y-78701599D01*
X113095458Y-78715308D01*
X113077674Y-78727332D01*
X113058797Y-78737555D01*
X113039009Y-78745878D01*
X112627894Y-78895512D01*
X112607386Y-78901855D01*
X112586354Y-78906158D01*
X112565002Y-78908379D01*
X112543535Y-78908496D01*
X112522161Y-78906508D01*
X112501083Y-78902435D01*
X112480507Y-78896316D01*
X112460629Y-78888209D01*
X112441642Y-78878193D01*
X112423728Y-78866364D01*
X112407060Y-78852836D01*
X112391798Y-78837739D01*
X112378089Y-78821220D01*
X112366065Y-78803436D01*
X112355842Y-78784559D01*
X112347519Y-78764771D01*
X112172234Y-78283179D01*
X112165891Y-78262670D01*
X112161588Y-78241639D01*
X112159367Y-78220287D01*
X112159250Y-78198820D01*
X112161238Y-78177445D01*
X112165311Y-78156368D01*
X112171430Y-78135792D01*
X112179537Y-78115914D01*
X112189553Y-78096927D01*
X112201382Y-78079013D01*
X112214910Y-78062345D01*
X112230007Y-78047083D01*
X112246526Y-78033374D01*
X112264310Y-78021350D01*
X112283187Y-78011127D01*
X112302975Y-78002804D01*
X112714090Y-77853170D01*
X112734598Y-77846827D01*
X112755630Y-77842524D01*
X112776982Y-77840303D01*
X112798449Y-77840186D01*
X112819823Y-77842174D01*
G37*
G36*
X132482021Y-97507074D02*
G01*
X132503347Y-97509528D01*
X132524331Y-97514060D01*
X132544769Y-97520627D01*
X132564465Y-97529165D01*
X132583229Y-97539593D01*
X132600881Y-97551810D01*
X132617250Y-97565698D01*
X132632179Y-97581124D01*
X132645524Y-97597939D01*
X132657157Y-97615981D01*
X132913407Y-98059819D01*
X132923215Y-98078914D01*
X132931105Y-98098879D01*
X132937000Y-98119521D01*
X132940843Y-98140641D01*
X132942597Y-98162037D01*
X132942246Y-98183501D01*
X132939792Y-98204827D01*
X132935260Y-98225811D01*
X132928693Y-98246249D01*
X132920155Y-98265945D01*
X132909727Y-98284709D01*
X132897510Y-98302361D01*
X132883622Y-98318730D01*
X132868196Y-98333659D01*
X132851381Y-98347004D01*
X132833339Y-98358637D01*
X132454453Y-98577387D01*
X132435358Y-98587195D01*
X132415393Y-98595085D01*
X132394751Y-98600980D01*
X132373631Y-98604823D01*
X132352235Y-98606577D01*
X132330771Y-98606226D01*
X132309445Y-98603772D01*
X132288461Y-98599240D01*
X132268023Y-98592673D01*
X132248327Y-98584135D01*
X132229563Y-98573707D01*
X132211911Y-98561490D01*
X132195542Y-98547602D01*
X132180613Y-98532176D01*
X132167268Y-98515361D01*
X132155635Y-98497319D01*
X131899385Y-98053481D01*
X131889577Y-98034386D01*
X131881687Y-98014421D01*
X131875792Y-97993779D01*
X131871949Y-97972659D01*
X131870195Y-97951263D01*
X131870546Y-97929799D01*
X131873000Y-97908473D01*
X131877532Y-97887489D01*
X131884099Y-97867051D01*
X131892637Y-97847355D01*
X131903065Y-97828591D01*
X131915282Y-97810939D01*
X131929170Y-97794570D01*
X131944596Y-97779641D01*
X131961411Y-97766296D01*
X131979453Y-97754663D01*
X132358339Y-97535913D01*
X132377434Y-97526105D01*
X132397399Y-97518215D01*
X132418041Y-97512320D01*
X132439161Y-97508477D01*
X132460557Y-97506723D01*
X132482021Y-97507074D01*
G37*
G36*
X131118029Y-98294574D02*
G01*
X131139355Y-98297028D01*
X131160339Y-98301560D01*
X131180777Y-98308127D01*
X131200473Y-98316665D01*
X131219237Y-98327093D01*
X131236889Y-98339310D01*
X131253258Y-98353198D01*
X131268187Y-98368624D01*
X131281532Y-98385439D01*
X131293165Y-98403481D01*
X131549415Y-98847319D01*
X131559223Y-98866414D01*
X131567113Y-98886379D01*
X131573008Y-98907021D01*
X131576851Y-98928141D01*
X131578605Y-98949537D01*
X131578254Y-98971001D01*
X131575800Y-98992327D01*
X131571268Y-99013311D01*
X131564701Y-99033749D01*
X131556163Y-99053445D01*
X131545735Y-99072209D01*
X131533518Y-99089861D01*
X131519630Y-99106230D01*
X131504204Y-99121159D01*
X131487389Y-99134504D01*
X131469347Y-99146137D01*
X131090461Y-99364887D01*
X131071366Y-99374695D01*
X131051401Y-99382585D01*
X131030759Y-99388480D01*
X131009639Y-99392323D01*
X130988243Y-99394077D01*
X130966779Y-99393726D01*
X130945453Y-99391272D01*
X130924469Y-99386740D01*
X130904031Y-99380173D01*
X130884335Y-99371635D01*
X130865571Y-99361207D01*
X130847919Y-99348990D01*
X130831550Y-99335102D01*
X130816621Y-99319676D01*
X130803276Y-99302861D01*
X130791643Y-99284819D01*
X130535393Y-98840981D01*
X130525585Y-98821886D01*
X130517695Y-98801921D01*
X130511800Y-98781279D01*
X130507957Y-98760159D01*
X130506203Y-98738763D01*
X130506554Y-98717299D01*
X130509008Y-98695973D01*
X130513540Y-98674989D01*
X130520107Y-98654551D01*
X130528645Y-98634855D01*
X130539073Y-98616091D01*
X130551290Y-98598439D01*
X130565178Y-98582070D01*
X130580604Y-98567141D01*
X130597419Y-98553796D01*
X130615461Y-98542163D01*
X130994347Y-98323413D01*
X131013442Y-98313605D01*
X131033407Y-98305715D01*
X131054049Y-98299820D01*
X131075169Y-98295977D01*
X131096565Y-98294223D01*
X131118029Y-98294574D01*
G37*
G36*
X95085887Y-82619167D02*
G01*
X95107239Y-82621388D01*
X95128271Y-82625691D01*
X95148779Y-82632034D01*
X95630371Y-82807319D01*
X95650159Y-82815642D01*
X95669036Y-82825865D01*
X95686820Y-82837889D01*
X95703339Y-82851598D01*
X95718436Y-82866860D01*
X95731964Y-82883528D01*
X95743793Y-82901442D01*
X95753809Y-82920429D01*
X95761916Y-82940307D01*
X95768035Y-82960883D01*
X95772108Y-82981960D01*
X95774096Y-83003335D01*
X95773979Y-83024802D01*
X95771758Y-83046154D01*
X95767455Y-83067185D01*
X95761112Y-83087694D01*
X95611478Y-83498809D01*
X95603155Y-83518597D01*
X95592932Y-83537474D01*
X95580908Y-83555258D01*
X95567199Y-83571777D01*
X95551937Y-83586874D01*
X95535269Y-83600402D01*
X95517355Y-83612231D01*
X95498368Y-83622247D01*
X95478490Y-83630354D01*
X95457914Y-83636473D01*
X95436836Y-83640546D01*
X95415462Y-83642534D01*
X95393995Y-83642417D01*
X95372643Y-83640196D01*
X95351611Y-83635893D01*
X95331103Y-83629550D01*
X94849511Y-83454265D01*
X94829723Y-83445942D01*
X94810846Y-83435719D01*
X94793062Y-83423695D01*
X94776543Y-83409986D01*
X94761446Y-83394724D01*
X94747918Y-83378056D01*
X94736089Y-83360142D01*
X94726073Y-83341155D01*
X94717966Y-83321277D01*
X94711847Y-83300701D01*
X94707774Y-83279624D01*
X94705786Y-83258249D01*
X94705903Y-83236782D01*
X94708124Y-83215430D01*
X94712427Y-83194399D01*
X94718770Y-83173890D01*
X94868404Y-82762775D01*
X94876727Y-82742987D01*
X94886950Y-82724110D01*
X94898974Y-82706326D01*
X94912683Y-82689807D01*
X94927945Y-82674710D01*
X94944613Y-82661182D01*
X94962527Y-82649353D01*
X94981514Y-82639337D01*
X95001392Y-82631230D01*
X95021968Y-82625111D01*
X95043046Y-82621038D01*
X95064420Y-82619050D01*
X95085887Y-82619167D01*
G37*
G36*
X94547205Y-84099183D02*
G01*
X94568557Y-84101404D01*
X94589589Y-84105707D01*
X94610097Y-84112050D01*
X95091689Y-84287335D01*
X95111477Y-84295658D01*
X95130354Y-84305881D01*
X95148138Y-84317905D01*
X95164657Y-84331614D01*
X95179754Y-84346876D01*
X95193282Y-84363544D01*
X95205111Y-84381458D01*
X95215127Y-84400445D01*
X95223234Y-84420323D01*
X95229353Y-84440899D01*
X95233426Y-84461976D01*
X95235414Y-84483351D01*
X95235297Y-84504818D01*
X95233076Y-84526170D01*
X95228773Y-84547201D01*
X95222430Y-84567710D01*
X95072796Y-84978825D01*
X95064473Y-84998613D01*
X95054250Y-85017490D01*
X95042226Y-85035274D01*
X95028517Y-85051793D01*
X95013255Y-85066890D01*
X94996587Y-85080418D01*
X94978673Y-85092247D01*
X94959686Y-85102263D01*
X94939808Y-85110370D01*
X94919232Y-85116489D01*
X94898154Y-85120562D01*
X94876780Y-85122550D01*
X94855313Y-85122433D01*
X94833961Y-85120212D01*
X94812929Y-85115909D01*
X94792421Y-85109566D01*
X94310829Y-84934281D01*
X94291041Y-84925958D01*
X94272164Y-84915735D01*
X94254380Y-84903711D01*
X94237861Y-84890002D01*
X94222764Y-84874740D01*
X94209236Y-84858072D01*
X94197407Y-84840158D01*
X94187391Y-84821171D01*
X94179284Y-84801293D01*
X94173165Y-84780717D01*
X94169092Y-84759640D01*
X94167104Y-84738265D01*
X94167221Y-84716798D01*
X94169442Y-84695446D01*
X94173745Y-84674415D01*
X94180088Y-84653906D01*
X94329722Y-84242791D01*
X94338045Y-84223003D01*
X94348268Y-84204126D01*
X94360292Y-84186342D01*
X94374001Y-84169823D01*
X94389263Y-84154726D01*
X94405931Y-84141198D01*
X94423845Y-84129369D01*
X94442832Y-84119353D01*
X94462710Y-84111246D01*
X94483286Y-84105127D01*
X94504364Y-84101054D01*
X94525738Y-84099066D01*
X94547205Y-84099183D01*
G37*
G36*
X126757691Y-75472053D02*
G01*
X126778926Y-75475203D01*
X126799750Y-75480419D01*
X126819962Y-75487651D01*
X126839368Y-75496830D01*
X126857781Y-75507866D01*
X126875024Y-75520654D01*
X126890930Y-75535070D01*
X126905346Y-75550976D01*
X126918134Y-75568219D01*
X126929170Y-75586632D01*
X126938349Y-75606038D01*
X126945581Y-75626250D01*
X126950797Y-75647074D01*
X126953947Y-75668309D01*
X126955000Y-75689750D01*
X126955000Y-76202250D01*
X126953947Y-76223691D01*
X126950797Y-76244926D01*
X126945581Y-76265750D01*
X126938349Y-76285962D01*
X126929170Y-76305368D01*
X126918134Y-76323781D01*
X126905346Y-76341024D01*
X126890930Y-76356930D01*
X126875024Y-76371346D01*
X126857781Y-76384134D01*
X126839368Y-76395170D01*
X126819962Y-76404349D01*
X126799750Y-76411581D01*
X126778926Y-76416797D01*
X126757691Y-76419947D01*
X126736250Y-76421000D01*
X126298750Y-76421000D01*
X126277309Y-76419947D01*
X126256074Y-76416797D01*
X126235250Y-76411581D01*
X126215038Y-76404349D01*
X126195632Y-76395170D01*
X126177219Y-76384134D01*
X126159976Y-76371346D01*
X126144070Y-76356930D01*
X126129654Y-76341024D01*
X126116866Y-76323781D01*
X126105830Y-76305368D01*
X126096651Y-76285962D01*
X126089419Y-76265750D01*
X126084203Y-76244926D01*
X126081053Y-76223691D01*
X126080000Y-76202250D01*
X126080000Y-75689750D01*
X126081053Y-75668309D01*
X126084203Y-75647074D01*
X126089419Y-75626250D01*
X126096651Y-75606038D01*
X126105830Y-75586632D01*
X126116866Y-75568219D01*
X126129654Y-75550976D01*
X126144070Y-75535070D01*
X126159976Y-75520654D01*
X126177219Y-75507866D01*
X126195632Y-75496830D01*
X126215038Y-75487651D01*
X126235250Y-75480419D01*
X126256074Y-75475203D01*
X126277309Y-75472053D01*
X126298750Y-75471000D01*
X126736250Y-75471000D01*
X126757691Y-75472053D01*
G37*
G36*
X125182691Y-75472053D02*
G01*
X125203926Y-75475203D01*
X125224750Y-75480419D01*
X125244962Y-75487651D01*
X125264368Y-75496830D01*
X125282781Y-75507866D01*
X125300024Y-75520654D01*
X125315930Y-75535070D01*
X125330346Y-75550976D01*
X125343134Y-75568219D01*
X125354170Y-75586632D01*
X125363349Y-75606038D01*
X125370581Y-75626250D01*
X125375797Y-75647074D01*
X125378947Y-75668309D01*
X125380000Y-75689750D01*
X125380000Y-76202250D01*
X125378947Y-76223691D01*
X125375797Y-76244926D01*
X125370581Y-76265750D01*
X125363349Y-76285962D01*
X125354170Y-76305368D01*
X125343134Y-76323781D01*
X125330346Y-76341024D01*
X125315930Y-76356930D01*
X125300024Y-76371346D01*
X125282781Y-76384134D01*
X125264368Y-76395170D01*
X125244962Y-76404349D01*
X125224750Y-76411581D01*
X125203926Y-76416797D01*
X125182691Y-76419947D01*
X125161250Y-76421000D01*
X124723750Y-76421000D01*
X124702309Y-76419947D01*
X124681074Y-76416797D01*
X124660250Y-76411581D01*
X124640038Y-76404349D01*
X124620632Y-76395170D01*
X124602219Y-76384134D01*
X124584976Y-76371346D01*
X124569070Y-76356930D01*
X124554654Y-76341024D01*
X124541866Y-76323781D01*
X124530830Y-76305368D01*
X124521651Y-76285962D01*
X124514419Y-76265750D01*
X124509203Y-76244926D01*
X124506053Y-76223691D01*
X124505000Y-76202250D01*
X124505000Y-75689750D01*
X124506053Y-75668309D01*
X124509203Y-75647074D01*
X124514419Y-75626250D01*
X124521651Y-75606038D01*
X124530830Y-75586632D01*
X124541866Y-75568219D01*
X124554654Y-75550976D01*
X124569070Y-75535070D01*
X124584976Y-75520654D01*
X124602219Y-75507866D01*
X124620632Y-75496830D01*
X124640038Y-75487651D01*
X124660250Y-75480419D01*
X124681074Y-75475203D01*
X124702309Y-75472053D01*
X124723750Y-75471000D01*
X125161250Y-75471000D01*
X125182691Y-75472053D01*
G37*
G36*
X103622183Y-82885978D02*
G01*
X103643451Y-82888896D01*
X103664331Y-82893885D01*
X103684621Y-82900896D01*
X103704126Y-82909862D01*
X103722658Y-82920697D01*
X103740039Y-82933296D01*
X103756101Y-82947538D01*
X103770690Y-82963286D01*
X104100119Y-83355884D01*
X104113094Y-83372986D01*
X104124331Y-83391278D01*
X104133720Y-83410582D01*
X104141173Y-83430715D01*
X104146615Y-83451480D01*
X104149997Y-83472679D01*
X104151284Y-83494108D01*
X104150465Y-83515559D01*
X104147547Y-83536827D01*
X104142558Y-83557707D01*
X104135547Y-83577996D01*
X104126581Y-83597501D01*
X104115746Y-83616034D01*
X104103147Y-83633415D01*
X104088905Y-83649477D01*
X104073157Y-83664066D01*
X103738012Y-83945286D01*
X103720910Y-83958261D01*
X103702618Y-83969498D01*
X103683314Y-83978887D01*
X103663181Y-83986340D01*
X103642416Y-83991783D01*
X103621217Y-83995164D01*
X103599788Y-83996451D01*
X103578337Y-83995632D01*
X103557069Y-83992714D01*
X103536189Y-83987725D01*
X103515899Y-83980714D01*
X103496394Y-83971748D01*
X103477862Y-83960913D01*
X103460481Y-83948314D01*
X103444419Y-83934072D01*
X103429830Y-83918324D01*
X103100401Y-83525726D01*
X103087426Y-83508624D01*
X103076189Y-83490332D01*
X103066800Y-83471028D01*
X103059347Y-83450895D01*
X103053905Y-83430130D01*
X103050523Y-83408931D01*
X103049236Y-83387502D01*
X103050055Y-83366051D01*
X103052973Y-83344783D01*
X103057962Y-83323903D01*
X103064973Y-83303614D01*
X103073939Y-83284109D01*
X103084774Y-83265576D01*
X103097373Y-83248195D01*
X103111615Y-83232133D01*
X103127363Y-83217544D01*
X103462508Y-82936324D01*
X103479610Y-82923349D01*
X103497902Y-82912112D01*
X103517206Y-82902723D01*
X103537339Y-82895270D01*
X103558104Y-82889827D01*
X103579303Y-82886446D01*
X103600732Y-82885159D01*
X103622183Y-82885978D01*
G37*
G36*
X102415663Y-83898368D02*
G01*
X102436931Y-83901286D01*
X102457811Y-83906275D01*
X102478101Y-83913286D01*
X102497606Y-83922252D01*
X102516138Y-83933087D01*
X102533519Y-83945686D01*
X102549581Y-83959928D01*
X102564170Y-83975676D01*
X102893599Y-84368274D01*
X102906574Y-84385376D01*
X102917811Y-84403668D01*
X102927200Y-84422972D01*
X102934653Y-84443105D01*
X102940095Y-84463870D01*
X102943477Y-84485069D01*
X102944764Y-84506498D01*
X102943945Y-84527949D01*
X102941027Y-84549217D01*
X102936038Y-84570097D01*
X102929027Y-84590386D01*
X102920061Y-84609891D01*
X102909226Y-84628424D01*
X102896627Y-84645805D01*
X102882385Y-84661867D01*
X102866637Y-84676456D01*
X102531492Y-84957676D01*
X102514390Y-84970651D01*
X102496098Y-84981888D01*
X102476794Y-84991277D01*
X102456661Y-84998730D01*
X102435896Y-85004173D01*
X102414697Y-85007554D01*
X102393268Y-85008841D01*
X102371817Y-85008022D01*
X102350549Y-85005104D01*
X102329669Y-85000115D01*
X102309379Y-84993104D01*
X102289874Y-84984138D01*
X102271342Y-84973303D01*
X102253961Y-84960704D01*
X102237899Y-84946462D01*
X102223310Y-84930714D01*
X101893881Y-84538116D01*
X101880906Y-84521014D01*
X101869669Y-84502722D01*
X101860280Y-84483418D01*
X101852827Y-84463285D01*
X101847385Y-84442520D01*
X101844003Y-84421321D01*
X101842716Y-84399892D01*
X101843535Y-84378441D01*
X101846453Y-84357173D01*
X101851442Y-84336293D01*
X101858453Y-84316004D01*
X101867419Y-84296499D01*
X101878254Y-84277966D01*
X101890853Y-84260585D01*
X101905095Y-84244523D01*
X101920843Y-84229934D01*
X102255988Y-83948714D01*
X102273090Y-83935739D01*
X102291382Y-83924502D01*
X102310686Y-83915113D01*
X102330819Y-83907660D01*
X102351584Y-83902217D01*
X102372783Y-83898836D01*
X102394212Y-83897549D01*
X102415663Y-83898368D01*
G37*
G36*
X126122691Y-85378053D02*
G01*
X126143926Y-85381203D01*
X126164750Y-85386419D01*
X126184962Y-85393651D01*
X126204368Y-85402830D01*
X126222781Y-85413866D01*
X126240024Y-85426654D01*
X126255930Y-85441070D01*
X126270346Y-85456976D01*
X126283134Y-85474219D01*
X126294170Y-85492632D01*
X126303349Y-85512038D01*
X126310581Y-85532250D01*
X126315797Y-85553074D01*
X126318947Y-85574309D01*
X126320000Y-85595750D01*
X126320000Y-86108250D01*
X126318947Y-86129691D01*
X126315797Y-86150926D01*
X126310581Y-86171750D01*
X126303349Y-86191962D01*
X126294170Y-86211368D01*
X126283134Y-86229781D01*
X126270346Y-86247024D01*
X126255930Y-86262930D01*
X126240024Y-86277346D01*
X126222781Y-86290134D01*
X126204368Y-86301170D01*
X126184962Y-86310349D01*
X126164750Y-86317581D01*
X126143926Y-86322797D01*
X126122691Y-86325947D01*
X126101250Y-86327000D01*
X125663750Y-86327000D01*
X125642309Y-86325947D01*
X125621074Y-86322797D01*
X125600250Y-86317581D01*
X125580038Y-86310349D01*
X125560632Y-86301170D01*
X125542219Y-86290134D01*
X125524976Y-86277346D01*
X125509070Y-86262930D01*
X125494654Y-86247024D01*
X125481866Y-86229781D01*
X125470830Y-86211368D01*
X125461651Y-86191962D01*
X125454419Y-86171750D01*
X125449203Y-86150926D01*
X125446053Y-86129691D01*
X125445000Y-86108250D01*
X125445000Y-85595750D01*
X125446053Y-85574309D01*
X125449203Y-85553074D01*
X125454419Y-85532250D01*
X125461651Y-85512038D01*
X125470830Y-85492632D01*
X125481866Y-85474219D01*
X125494654Y-85456976D01*
X125509070Y-85441070D01*
X125524976Y-85426654D01*
X125542219Y-85413866D01*
X125560632Y-85402830D01*
X125580038Y-85393651D01*
X125600250Y-85386419D01*
X125621074Y-85381203D01*
X125642309Y-85378053D01*
X125663750Y-85377000D01*
X126101250Y-85377000D01*
X126122691Y-85378053D01*
G37*
G36*
X124547691Y-85378053D02*
G01*
X124568926Y-85381203D01*
X124589750Y-85386419D01*
X124609962Y-85393651D01*
X124629368Y-85402830D01*
X124647781Y-85413866D01*
X124665024Y-85426654D01*
X124680930Y-85441070D01*
X124695346Y-85456976D01*
X124708134Y-85474219D01*
X124719170Y-85492632D01*
X124728349Y-85512038D01*
X124735581Y-85532250D01*
X124740797Y-85553074D01*
X124743947Y-85574309D01*
X124745000Y-85595750D01*
X124745000Y-86108250D01*
X124743947Y-86129691D01*
X124740797Y-86150926D01*
X124735581Y-86171750D01*
X124728349Y-86191962D01*
X124719170Y-86211368D01*
X124708134Y-86229781D01*
X124695346Y-86247024D01*
X124680930Y-86262930D01*
X124665024Y-86277346D01*
X124647781Y-86290134D01*
X124629368Y-86301170D01*
X124609962Y-86310349D01*
X124589750Y-86317581D01*
X124568926Y-86322797D01*
X124547691Y-86325947D01*
X124526250Y-86327000D01*
X124088750Y-86327000D01*
X124067309Y-86325947D01*
X124046074Y-86322797D01*
X124025250Y-86317581D01*
X124005038Y-86310349D01*
X123985632Y-86301170D01*
X123967219Y-86290134D01*
X123949976Y-86277346D01*
X123934070Y-86262930D01*
X123919654Y-86247024D01*
X123906866Y-86229781D01*
X123895830Y-86211368D01*
X123886651Y-86191962D01*
X123879419Y-86171750D01*
X123874203Y-86150926D01*
X123871053Y-86129691D01*
X123870000Y-86108250D01*
X123870000Y-85595750D01*
X123871053Y-85574309D01*
X123874203Y-85553074D01*
X123879419Y-85532250D01*
X123886651Y-85512038D01*
X123895830Y-85492632D01*
X123906866Y-85474219D01*
X123919654Y-85456976D01*
X123934070Y-85441070D01*
X123949976Y-85426654D01*
X123967219Y-85413866D01*
X123985632Y-85402830D01*
X124005038Y-85393651D01*
X124025250Y-85386419D01*
X124046074Y-85381203D01*
X124067309Y-85378053D01*
X124088750Y-85377000D01*
X124526250Y-85377000D01*
X124547691Y-85378053D01*
G37*
G36*
X154199504Y-192801204D02*
G01*
X154223773Y-192804804D01*
X154247571Y-192810765D01*
X154270671Y-192819030D01*
X154292849Y-192829520D01*
X154313893Y-192842133D01*
X154333598Y-192856747D01*
X154351777Y-192873223D01*
X154368253Y-192891402D01*
X154382867Y-192911107D01*
X154395480Y-192932151D01*
X154405970Y-192954329D01*
X154414235Y-192977429D01*
X154420196Y-193001227D01*
X154423796Y-193025496D01*
X154425000Y-193050000D01*
X154425000Y-194300000D01*
X154423796Y-194324504D01*
X154420196Y-194348773D01*
X154414235Y-194372571D01*
X154405970Y-194395671D01*
X154395480Y-194417849D01*
X154382867Y-194438893D01*
X154368253Y-194458598D01*
X154351777Y-194476777D01*
X154333598Y-194493253D01*
X154313893Y-194507867D01*
X154292849Y-194520480D01*
X154270671Y-194530970D01*
X154247571Y-194539235D01*
X154223773Y-194545196D01*
X154199504Y-194548796D01*
X154175000Y-194550000D01*
X153425000Y-194550000D01*
X153400496Y-194548796D01*
X153376227Y-194545196D01*
X153352429Y-194539235D01*
X153329329Y-194530970D01*
X153307151Y-194520480D01*
X153286107Y-194507867D01*
X153266402Y-194493253D01*
X153248223Y-194476777D01*
X153231747Y-194458598D01*
X153217133Y-194438893D01*
X153204520Y-194417849D01*
X153194030Y-194395671D01*
X153185765Y-194372571D01*
X153179804Y-194348773D01*
X153176204Y-194324504D01*
X153175000Y-194300000D01*
X153175000Y-193050000D01*
X153176204Y-193025496D01*
X153179804Y-193001227D01*
X153185765Y-192977429D01*
X153194030Y-192954329D01*
X153204520Y-192932151D01*
X153217133Y-192911107D01*
X153231747Y-192891402D01*
X153248223Y-192873223D01*
X153266402Y-192856747D01*
X153286107Y-192842133D01*
X153307151Y-192829520D01*
X153329329Y-192819030D01*
X153352429Y-192810765D01*
X153376227Y-192804804D01*
X153400496Y-192801204D01*
X153425000Y-192800000D01*
X154175000Y-192800000D01*
X154199504Y-192801204D01*
G37*
G36*
X151399504Y-192801204D02*
G01*
X151423773Y-192804804D01*
X151447571Y-192810765D01*
X151470671Y-192819030D01*
X151492849Y-192829520D01*
X151513893Y-192842133D01*
X151533598Y-192856747D01*
X151551777Y-192873223D01*
X151568253Y-192891402D01*
X151582867Y-192911107D01*
X151595480Y-192932151D01*
X151605970Y-192954329D01*
X151614235Y-192977429D01*
X151620196Y-193001227D01*
X151623796Y-193025496D01*
X151625000Y-193050000D01*
X151625000Y-194300000D01*
X151623796Y-194324504D01*
X151620196Y-194348773D01*
X151614235Y-194372571D01*
X151605970Y-194395671D01*
X151595480Y-194417849D01*
X151582867Y-194438893D01*
X151568253Y-194458598D01*
X151551777Y-194476777D01*
X151533598Y-194493253D01*
X151513893Y-194507867D01*
X151492849Y-194520480D01*
X151470671Y-194530970D01*
X151447571Y-194539235D01*
X151423773Y-194545196D01*
X151399504Y-194548796D01*
X151375000Y-194550000D01*
X150625000Y-194550000D01*
X150600496Y-194548796D01*
X150576227Y-194545196D01*
X150552429Y-194539235D01*
X150529329Y-194530970D01*
X150507151Y-194520480D01*
X150486107Y-194507867D01*
X150466402Y-194493253D01*
X150448223Y-194476777D01*
X150431747Y-194458598D01*
X150417133Y-194438893D01*
X150404520Y-194417849D01*
X150394030Y-194395671D01*
X150385765Y-194372571D01*
X150379804Y-194348773D01*
X150376204Y-194324504D01*
X150375000Y-194300000D01*
X150375000Y-193050000D01*
X150376204Y-193025496D01*
X150379804Y-193001227D01*
X150385765Y-192977429D01*
X150394030Y-192954329D01*
X150404520Y-192932151D01*
X150417133Y-192911107D01*
X150431747Y-192891402D01*
X150448223Y-192873223D01*
X150466402Y-192856747D01*
X150486107Y-192842133D01*
X150507151Y-192829520D01*
X150529329Y-192819030D01*
X150552429Y-192810765D01*
X150576227Y-192804804D01*
X150600496Y-192801204D01*
X150625000Y-192800000D01*
X151375000Y-192800000D01*
X151399504Y-192801204D01*
G37*
M02*
