G04 #@! TF.GenerationSoftware,KiCad,Pcbnew,(5.1.5)-3*
G04 #@! TF.CreationDate,2020-02-08T22:33:43-06:00*
G04 #@! TF.ProjectId,tymkrs_Cyphercon_2020_flamingo,74796d6b-7273-45f4-9379-70686572636f,V0*
G04 #@! TF.SameCoordinates,Original*
G04 #@! TF.FileFunction,Soldermask,Bot*
G04 #@! TF.FilePolarity,Negative*
%FSLAX46Y46*%
G04 Gerber Fmt 4.6, Leading zero omitted, Abs format (unit mm)*
G04 Created by KiCad (PCBNEW (5.1.5)-3) date 2020-02-08 22:33:43*
%MOMM*%
%LPD*%
G04 APERTURE LIST*
%ADD10C,0.100000*%
G04 APERTURE END LIST*
D10*
G36*
X103657400Y-195732400D02*
G01*
X102082600Y-195732400D01*
X102082600Y-194157600D01*
X103657400Y-194157600D01*
X103657400Y-195732400D01*
G37*
G36*
X153514292Y-193178439D02*
G01*
X153545872Y-193188019D01*
X153574978Y-193203577D01*
X153600488Y-193224512D01*
X153621423Y-193250022D01*
X153636981Y-193279128D01*
X153646561Y-193310708D01*
X153650400Y-193349690D01*
X153650400Y-194000310D01*
X153646561Y-194039292D01*
X153636981Y-194070872D01*
X153621423Y-194099978D01*
X153600488Y-194125488D01*
X153574978Y-194146423D01*
X153545872Y-194161981D01*
X153514292Y-194171561D01*
X153475310Y-194175400D01*
X152899690Y-194175400D01*
X152860708Y-194171561D01*
X152829128Y-194161981D01*
X152800022Y-194146423D01*
X152774512Y-194125488D01*
X152753577Y-194099978D01*
X152738019Y-194070872D01*
X152728439Y-194039292D01*
X152724600Y-194000310D01*
X152724600Y-193349690D01*
X152728439Y-193310708D01*
X152738019Y-193279128D01*
X152753577Y-193250022D01*
X152774512Y-193224512D01*
X152800022Y-193203577D01*
X152829128Y-193188019D01*
X152860708Y-193178439D01*
X152899690Y-193174600D01*
X153475310Y-193174600D01*
X153514292Y-193178439D01*
G37*
G36*
X151939292Y-193178439D02*
G01*
X151970872Y-193188019D01*
X151999978Y-193203577D01*
X152025488Y-193224512D01*
X152046423Y-193250022D01*
X152061981Y-193279128D01*
X152071561Y-193310708D01*
X152075400Y-193349690D01*
X152075400Y-194000310D01*
X152071561Y-194039292D01*
X152061981Y-194070872D01*
X152046423Y-194099978D01*
X152025488Y-194125488D01*
X151999978Y-194146423D01*
X151970872Y-194161981D01*
X151939292Y-194171561D01*
X151900310Y-194175400D01*
X151324690Y-194175400D01*
X151285708Y-194171561D01*
X151254128Y-194161981D01*
X151225022Y-194146423D01*
X151199512Y-194125488D01*
X151178577Y-194099978D01*
X151163019Y-194070872D01*
X151153439Y-194039292D01*
X151149600Y-194000310D01*
X151149600Y-193349690D01*
X151153439Y-193310708D01*
X151163019Y-193279128D01*
X151178577Y-193250022D01*
X151199512Y-193224512D01*
X151225022Y-193203577D01*
X151254128Y-193188019D01*
X151285708Y-193178439D01*
X151324690Y-193174600D01*
X151900310Y-193174600D01*
X151939292Y-193178439D01*
G37*
G36*
X103099676Y-191647859D02*
G01*
X103242973Y-191707214D01*
X103371938Y-191793386D01*
X103481614Y-191903062D01*
X103567786Y-192032027D01*
X103627141Y-192175324D01*
X103657400Y-192327447D01*
X103657400Y-192482553D01*
X103627141Y-192634676D01*
X103567786Y-192777973D01*
X103481614Y-192906938D01*
X103371938Y-193016614D01*
X103242973Y-193102786D01*
X103099676Y-193162141D01*
X102947553Y-193192400D01*
X102792447Y-193192400D01*
X102640324Y-193162141D01*
X102497027Y-193102786D01*
X102368062Y-193016614D01*
X102258386Y-192906938D01*
X102172214Y-192777973D01*
X102112859Y-192634676D01*
X102082600Y-192482553D01*
X102082600Y-192327447D01*
X102112859Y-192175324D01*
X102172214Y-192032027D01*
X102258386Y-191903062D01*
X102368062Y-191793386D01*
X102497027Y-191707214D01*
X102640324Y-191647859D01*
X102792447Y-191617600D01*
X102947553Y-191617600D01*
X103099676Y-191647859D01*
G37*
G36*
X101329292Y-191463439D02*
G01*
X101360872Y-191473019D01*
X101389978Y-191488577D01*
X101415488Y-191509512D01*
X101436423Y-191535022D01*
X101451981Y-191564128D01*
X101461561Y-191595708D01*
X101465400Y-191634690D01*
X101465400Y-192210310D01*
X101461561Y-192249292D01*
X101451981Y-192280872D01*
X101436423Y-192309978D01*
X101415488Y-192335488D01*
X101389978Y-192356423D01*
X101360872Y-192371981D01*
X101329292Y-192381561D01*
X101290310Y-192385400D01*
X100639690Y-192385400D01*
X100600708Y-192381561D01*
X100569128Y-192371981D01*
X100540022Y-192356423D01*
X100514512Y-192335488D01*
X100493577Y-192309978D01*
X100478019Y-192280872D01*
X100468439Y-192249292D01*
X100464600Y-192210310D01*
X100464600Y-191634690D01*
X100468439Y-191595708D01*
X100478019Y-191564128D01*
X100493577Y-191535022D01*
X100514512Y-191509512D01*
X100540022Y-191488577D01*
X100569128Y-191473019D01*
X100600708Y-191463439D01*
X100639690Y-191459600D01*
X101290310Y-191459600D01*
X101329292Y-191463439D01*
G37*
G36*
X101329292Y-189888439D02*
G01*
X101360872Y-189898019D01*
X101389978Y-189913577D01*
X101415488Y-189934512D01*
X101436423Y-189960022D01*
X101451981Y-189989128D01*
X101461561Y-190020708D01*
X101465400Y-190059690D01*
X101465400Y-190635310D01*
X101461561Y-190674292D01*
X101451981Y-190705872D01*
X101436423Y-190734978D01*
X101415488Y-190760488D01*
X101389978Y-190781423D01*
X101360872Y-190796981D01*
X101329292Y-190806561D01*
X101290310Y-190810400D01*
X100639690Y-190810400D01*
X100600708Y-190806561D01*
X100569128Y-190796981D01*
X100540022Y-190781423D01*
X100514512Y-190760488D01*
X100493577Y-190734978D01*
X100478019Y-190705872D01*
X100468439Y-190674292D01*
X100464600Y-190635310D01*
X100464600Y-190059690D01*
X100468439Y-190020708D01*
X100478019Y-189989128D01*
X100493577Y-189960022D01*
X100514512Y-189934512D01*
X100540022Y-189913577D01*
X100569128Y-189898019D01*
X100600708Y-189888439D01*
X100639690Y-189884600D01*
X101290310Y-189884600D01*
X101329292Y-189888439D01*
G37*
G36*
X103099676Y-189107859D02*
G01*
X103242973Y-189167214D01*
X103371938Y-189253386D01*
X103481614Y-189363062D01*
X103567786Y-189492027D01*
X103627141Y-189635324D01*
X103657400Y-189787447D01*
X103657400Y-189942553D01*
X103627141Y-190094676D01*
X103567786Y-190237973D01*
X103481614Y-190366938D01*
X103371938Y-190476614D01*
X103242973Y-190562786D01*
X103099676Y-190622141D01*
X102947553Y-190652400D01*
X102792447Y-190652400D01*
X102640324Y-190622141D01*
X102497027Y-190562786D01*
X102368062Y-190476614D01*
X102258386Y-190366938D01*
X102172214Y-190237973D01*
X102112859Y-190094676D01*
X102082600Y-189942553D01*
X102082600Y-189787447D01*
X102112859Y-189635324D01*
X102172214Y-189492027D01*
X102258386Y-189363062D01*
X102368062Y-189253386D01*
X102497027Y-189167214D01*
X102640324Y-189107859D01*
X102792447Y-189077600D01*
X102947553Y-189077600D01*
X103099676Y-189107859D01*
G37*
G36*
X146766400Y-190396400D02*
G01*
X145915600Y-190396400D01*
X145915600Y-188945600D01*
X146766400Y-188945600D01*
X146766400Y-190396400D01*
G37*
G36*
X148216400Y-190396400D02*
G01*
X147365600Y-190396400D01*
X147365600Y-188945600D01*
X148216400Y-188945600D01*
X148216400Y-190396400D01*
G37*
G36*
X108211400Y-190396400D02*
G01*
X107360600Y-190396400D01*
X107360600Y-188945600D01*
X108211400Y-188945600D01*
X108211400Y-190396400D01*
G37*
G36*
X106761400Y-190396400D02*
G01*
X105910600Y-190396400D01*
X105910600Y-188945600D01*
X106761400Y-188945600D01*
X106761400Y-190396400D01*
G37*
G36*
X136733400Y-189761400D02*
G01*
X135882600Y-189761400D01*
X135882600Y-188310600D01*
X136733400Y-188310600D01*
X136733400Y-189761400D01*
G37*
G36*
X118244400Y-189761400D02*
G01*
X117393600Y-189761400D01*
X117393600Y-188310600D01*
X118244400Y-188310600D01*
X118244400Y-189761400D01*
G37*
G36*
X116794400Y-189761400D02*
G01*
X115943600Y-189761400D01*
X115943600Y-188310600D01*
X116794400Y-188310600D01*
X116794400Y-189761400D01*
G37*
G36*
X138183400Y-189761400D02*
G01*
X137332600Y-189761400D01*
X137332600Y-188310600D01*
X138183400Y-188310600D01*
X138183400Y-189761400D01*
G37*
G36*
X128150400Y-189507400D02*
G01*
X127299600Y-189507400D01*
X127299600Y-188056600D01*
X128150400Y-188056600D01*
X128150400Y-189507400D01*
G37*
G36*
X126700400Y-189507400D02*
G01*
X125849600Y-189507400D01*
X125849600Y-188056600D01*
X126700400Y-188056600D01*
X126700400Y-189507400D01*
G37*
G36*
X154444721Y-187283940D02*
G01*
X154542201Y-187324318D01*
X154611130Y-187352869D01*
X154611131Y-187352870D01*
X154760896Y-187452939D01*
X154888261Y-187580304D01*
X154926787Y-187637963D01*
X154988331Y-187730070D01*
X155016882Y-187798999D01*
X155057260Y-187896479D01*
X155092400Y-188073139D01*
X155092400Y-188253261D01*
X155057260Y-188429921D01*
X155016882Y-188527401D01*
X154988331Y-188596330D01*
X154988330Y-188596331D01*
X154888261Y-188746096D01*
X154760896Y-188873461D01*
X154660826Y-188940325D01*
X154611130Y-188973531D01*
X154542201Y-189002082D01*
X154444721Y-189042460D01*
X154268061Y-189077600D01*
X154087939Y-189077600D01*
X153911279Y-189042460D01*
X153813799Y-189002082D01*
X153744870Y-188973531D01*
X153695174Y-188940325D01*
X153595104Y-188873461D01*
X153467739Y-188746096D01*
X153367670Y-188596331D01*
X153367669Y-188596330D01*
X153339118Y-188527401D01*
X153298740Y-188429921D01*
X153263600Y-188253261D01*
X153263600Y-188073139D01*
X153298740Y-187896479D01*
X153339118Y-187798999D01*
X153367669Y-187730070D01*
X153429213Y-187637963D01*
X153467739Y-187580304D01*
X153595104Y-187452939D01*
X153744869Y-187352870D01*
X153744870Y-187352869D01*
X153813799Y-187324318D01*
X153911279Y-187283940D01*
X154087939Y-187248800D01*
X154268061Y-187248800D01*
X154444721Y-187283940D01*
G37*
G36*
X147430610Y-185869036D02*
G01*
X147658095Y-185963264D01*
X147658097Y-185963265D01*
X147862828Y-186100062D01*
X148036938Y-186274172D01*
X148062805Y-186312884D01*
X148173736Y-186478905D01*
X148267964Y-186706390D01*
X148316000Y-186947884D01*
X148316000Y-187194116D01*
X148267964Y-187435610D01*
X148173736Y-187663095D01*
X148173735Y-187663097D01*
X148036938Y-187867828D01*
X147862828Y-188041938D01*
X147658097Y-188178735D01*
X147658096Y-188178736D01*
X147658095Y-188178736D01*
X147430610Y-188272964D01*
X147189116Y-188321000D01*
X146942884Y-188321000D01*
X146701390Y-188272964D01*
X146473905Y-188178736D01*
X146473904Y-188178736D01*
X146473903Y-188178735D01*
X146269172Y-188041938D01*
X146095062Y-187867828D01*
X145958265Y-187663097D01*
X145958264Y-187663095D01*
X145864036Y-187435610D01*
X145816000Y-187194116D01*
X145816000Y-186947884D01*
X145864036Y-186706390D01*
X145958264Y-186478905D01*
X146069196Y-186312884D01*
X146095062Y-186274172D01*
X146269172Y-186100062D01*
X146473903Y-185963265D01*
X146473905Y-185963264D01*
X146701390Y-185869036D01*
X146942884Y-185821000D01*
X147189116Y-185821000D01*
X147430610Y-185869036D01*
G37*
G36*
X107425610Y-185869036D02*
G01*
X107653095Y-185963264D01*
X107653097Y-185963265D01*
X107857828Y-186100062D01*
X108031938Y-186274172D01*
X108057805Y-186312884D01*
X108168736Y-186478905D01*
X108262964Y-186706390D01*
X108311000Y-186947884D01*
X108311000Y-187194116D01*
X108262964Y-187435610D01*
X108168736Y-187663095D01*
X108168735Y-187663097D01*
X108031938Y-187867828D01*
X107857828Y-188041938D01*
X107653097Y-188178735D01*
X107653096Y-188178736D01*
X107653095Y-188178736D01*
X107425610Y-188272964D01*
X107184116Y-188321000D01*
X106937884Y-188321000D01*
X106696390Y-188272964D01*
X106468905Y-188178736D01*
X106468904Y-188178736D01*
X106468903Y-188178735D01*
X106264172Y-188041938D01*
X106090062Y-187867828D01*
X105953265Y-187663097D01*
X105953264Y-187663095D01*
X105859036Y-187435610D01*
X105811000Y-187194116D01*
X105811000Y-186947884D01*
X105859036Y-186706390D01*
X105953264Y-186478905D01*
X106064196Y-186312884D01*
X106090062Y-186274172D01*
X106264172Y-186100062D01*
X106468903Y-185963265D01*
X106468905Y-185963264D01*
X106696390Y-185869036D01*
X106937884Y-185821000D01*
X107184116Y-185821000D01*
X107425610Y-185869036D01*
G37*
G36*
X137397610Y-185234036D02*
G01*
X137625095Y-185328264D01*
X137625097Y-185328265D01*
X137829828Y-185465062D01*
X138003938Y-185639172D01*
X138125432Y-185821000D01*
X138140736Y-185843905D01*
X138234964Y-186071390D01*
X138283000Y-186312884D01*
X138283000Y-186559116D01*
X138234964Y-186800610D01*
X138173960Y-186947886D01*
X138140735Y-187028097D01*
X138003938Y-187232828D01*
X137829828Y-187406938D01*
X137625097Y-187543735D01*
X137625096Y-187543736D01*
X137625095Y-187543736D01*
X137397610Y-187637964D01*
X137156116Y-187686000D01*
X136909884Y-187686000D01*
X136668390Y-187637964D01*
X136440905Y-187543736D01*
X136440904Y-187543736D01*
X136440903Y-187543735D01*
X136236172Y-187406938D01*
X136062062Y-187232828D01*
X135925265Y-187028097D01*
X135892040Y-186947886D01*
X135831036Y-186800610D01*
X135783000Y-186559116D01*
X135783000Y-186312884D01*
X135831036Y-186071390D01*
X135925264Y-185843905D01*
X135940569Y-185821000D01*
X136062062Y-185639172D01*
X136236172Y-185465062D01*
X136440903Y-185328265D01*
X136440905Y-185328264D01*
X136668390Y-185234036D01*
X136909884Y-185186000D01*
X137156116Y-185186000D01*
X137397610Y-185234036D01*
G37*
G36*
X117458610Y-185234036D02*
G01*
X117686095Y-185328264D01*
X117686097Y-185328265D01*
X117890828Y-185465062D01*
X118064938Y-185639172D01*
X118186432Y-185821000D01*
X118201736Y-185843905D01*
X118295964Y-186071390D01*
X118344000Y-186312884D01*
X118344000Y-186559116D01*
X118295964Y-186800610D01*
X118234960Y-186947886D01*
X118201735Y-187028097D01*
X118064938Y-187232828D01*
X117890828Y-187406938D01*
X117686097Y-187543735D01*
X117686096Y-187543736D01*
X117686095Y-187543736D01*
X117458610Y-187637964D01*
X117217116Y-187686000D01*
X116970884Y-187686000D01*
X116729390Y-187637964D01*
X116501905Y-187543736D01*
X116501904Y-187543736D01*
X116501903Y-187543735D01*
X116297172Y-187406938D01*
X116123062Y-187232828D01*
X115986265Y-187028097D01*
X115953040Y-186947886D01*
X115892036Y-186800610D01*
X115844000Y-186559116D01*
X115844000Y-186312884D01*
X115892036Y-186071390D01*
X115986264Y-185843905D01*
X116001569Y-185821000D01*
X116123062Y-185639172D01*
X116297172Y-185465062D01*
X116501903Y-185328265D01*
X116501905Y-185328264D01*
X116729390Y-185234036D01*
X116970884Y-185186000D01*
X117217116Y-185186000D01*
X117458610Y-185234036D01*
G37*
G36*
X127364610Y-184980036D02*
G01*
X127592095Y-185074264D01*
X127592097Y-185074265D01*
X127759320Y-185186000D01*
X127796828Y-185211062D01*
X127970938Y-185385172D01*
X128107736Y-185589905D01*
X128201964Y-185817390D01*
X128250000Y-186058884D01*
X128250000Y-186305116D01*
X128201964Y-186546610D01*
X128107736Y-186774095D01*
X128107735Y-186774097D01*
X127970938Y-186978828D01*
X127796828Y-187152938D01*
X127592097Y-187289735D01*
X127592096Y-187289736D01*
X127592095Y-187289736D01*
X127364610Y-187383964D01*
X127123116Y-187432000D01*
X126876884Y-187432000D01*
X126635390Y-187383964D01*
X126407905Y-187289736D01*
X126407904Y-187289736D01*
X126407903Y-187289735D01*
X126203172Y-187152938D01*
X126029062Y-186978828D01*
X125892265Y-186774097D01*
X125892264Y-186774095D01*
X125798036Y-186546610D01*
X125750000Y-186305116D01*
X125750000Y-186058884D01*
X125798036Y-185817390D01*
X125892264Y-185589905D01*
X126029062Y-185385172D01*
X126203172Y-185211062D01*
X126240680Y-185186000D01*
X126407903Y-185074265D01*
X126407905Y-185074264D01*
X126635390Y-184980036D01*
X126876884Y-184932000D01*
X127123116Y-184932000D01*
X127364610Y-184980036D01*
G37*
G36*
X148216400Y-185196400D02*
G01*
X147365600Y-185196400D01*
X147365600Y-183745600D01*
X148216400Y-183745600D01*
X148216400Y-185196400D01*
G37*
G36*
X108211400Y-185196400D02*
G01*
X107360600Y-185196400D01*
X107360600Y-183745600D01*
X108211400Y-183745600D01*
X108211400Y-185196400D01*
G37*
G36*
X146766400Y-185196400D02*
G01*
X145915600Y-185196400D01*
X145915600Y-183745600D01*
X146766400Y-183745600D01*
X146766400Y-185196400D01*
G37*
G36*
X106761400Y-185196400D02*
G01*
X105910600Y-185196400D01*
X105910600Y-183745600D01*
X106761400Y-183745600D01*
X106761400Y-185196400D01*
G37*
G36*
X116794400Y-184561400D02*
G01*
X115943600Y-184561400D01*
X115943600Y-183110600D01*
X116794400Y-183110600D01*
X116794400Y-184561400D01*
G37*
G36*
X136733400Y-184561400D02*
G01*
X135882600Y-184561400D01*
X135882600Y-183110600D01*
X136733400Y-183110600D01*
X136733400Y-184561400D01*
G37*
G36*
X118244400Y-184561400D02*
G01*
X117393600Y-184561400D01*
X117393600Y-183110600D01*
X118244400Y-183110600D01*
X118244400Y-184561400D01*
G37*
G36*
X138183400Y-184561400D02*
G01*
X137332600Y-184561400D01*
X137332600Y-183110600D01*
X138183400Y-183110600D01*
X138183400Y-184561400D01*
G37*
G36*
X126700400Y-184307400D02*
G01*
X125849600Y-184307400D01*
X125849600Y-182856600D01*
X126700400Y-182856600D01*
X126700400Y-184307400D01*
G37*
G36*
X128150400Y-184307400D02*
G01*
X127299600Y-184307400D01*
X127299600Y-182856600D01*
X128150400Y-182856600D01*
X128150400Y-184307400D01*
G37*
G36*
X133405400Y-180490400D02*
G01*
X130754600Y-180490400D01*
X130754600Y-179039600D01*
X133405400Y-179039600D01*
X133405400Y-180490400D01*
G37*
G36*
X123372400Y-180363400D02*
G01*
X120721600Y-180363400D01*
X120721600Y-178912600D01*
X123372400Y-178912600D01*
X123372400Y-180363400D01*
G37*
G36*
X113339400Y-179855400D02*
G01*
X110688600Y-179855400D01*
X110688600Y-178404600D01*
X113339400Y-178404600D01*
X113339400Y-179855400D01*
G37*
G36*
X143311400Y-179855400D02*
G01*
X140660600Y-179855400D01*
X140660600Y-178404600D01*
X143311400Y-178404600D01*
X143311400Y-179855400D01*
G37*
G36*
X103306400Y-179347400D02*
G01*
X100655600Y-179347400D01*
X100655600Y-177896600D01*
X103306400Y-177896600D01*
X103306400Y-179347400D01*
G37*
G36*
X155307613Y-177436214D02*
G01*
X153433214Y-179310613D01*
X152407343Y-178284742D01*
X154281742Y-176410343D01*
X155307613Y-177436214D01*
G37*
G36*
X132444610Y-175963036D02*
G01*
X132672095Y-176057264D01*
X132672097Y-176057265D01*
X132876828Y-176194062D01*
X133050938Y-176368172D01*
X133102878Y-176445905D01*
X133187736Y-176572905D01*
X133281964Y-176800390D01*
X133330000Y-177041884D01*
X133330000Y-177288116D01*
X133281964Y-177529610D01*
X133187736Y-177757095D01*
X133187735Y-177757097D01*
X133050938Y-177961828D01*
X132876828Y-178135938D01*
X132672097Y-178272735D01*
X132672096Y-178272736D01*
X132672095Y-178272736D01*
X132444610Y-178366964D01*
X132203116Y-178415000D01*
X131956884Y-178415000D01*
X131715390Y-178366964D01*
X131487905Y-178272736D01*
X131487904Y-178272736D01*
X131487903Y-178272735D01*
X131283172Y-178135938D01*
X131109062Y-177961828D01*
X130972265Y-177757097D01*
X130972264Y-177757095D01*
X130878036Y-177529610D01*
X130830000Y-177288116D01*
X130830000Y-177041884D01*
X130878036Y-176800390D01*
X130972264Y-176572905D01*
X131057123Y-176445905D01*
X131109062Y-176368172D01*
X131283172Y-176194062D01*
X131487903Y-176057265D01*
X131487905Y-176057264D01*
X131715390Y-175963036D01*
X131956884Y-175915000D01*
X132203116Y-175915000D01*
X132444610Y-175963036D01*
G37*
G36*
X122411610Y-175836036D02*
G01*
X122639095Y-175930264D01*
X122639097Y-175930265D01*
X122843828Y-176067062D01*
X123017938Y-176241172D01*
X123130975Y-176410343D01*
X123154736Y-176445905D01*
X123248964Y-176673390D01*
X123297000Y-176914884D01*
X123297000Y-177161116D01*
X123248964Y-177402610D01*
X123196358Y-177529611D01*
X123154735Y-177630097D01*
X123017938Y-177834828D01*
X122843828Y-178008938D01*
X122639097Y-178145735D01*
X122639096Y-178145736D01*
X122639095Y-178145736D01*
X122411610Y-178239964D01*
X122170116Y-178288000D01*
X121923884Y-178288000D01*
X121682390Y-178239964D01*
X121454905Y-178145736D01*
X121454904Y-178145736D01*
X121454903Y-178145735D01*
X121250172Y-178008938D01*
X121076062Y-177834828D01*
X120939265Y-177630097D01*
X120897642Y-177529611D01*
X120845036Y-177402610D01*
X120797000Y-177161116D01*
X120797000Y-176914884D01*
X120845036Y-176673390D01*
X120939264Y-176445905D01*
X120963026Y-176410343D01*
X121076062Y-176241172D01*
X121250172Y-176067062D01*
X121454903Y-175930265D01*
X121454905Y-175930264D01*
X121682390Y-175836036D01*
X121923884Y-175788000D01*
X122170116Y-175788000D01*
X122411610Y-175836036D01*
G37*
G36*
X112378610Y-175328036D02*
G01*
X112606095Y-175422264D01*
X112606097Y-175422265D01*
X112810828Y-175559062D01*
X112984938Y-175733172D01*
X113116631Y-175930264D01*
X113121736Y-175937905D01*
X113215964Y-176165390D01*
X113264000Y-176406884D01*
X113264000Y-176653116D01*
X113215964Y-176894610D01*
X113154960Y-177041886D01*
X113121735Y-177122097D01*
X112984938Y-177326828D01*
X112810828Y-177500938D01*
X112606097Y-177637735D01*
X112606096Y-177637736D01*
X112606095Y-177637736D01*
X112378610Y-177731964D01*
X112137116Y-177780000D01*
X111890884Y-177780000D01*
X111649390Y-177731964D01*
X111421905Y-177637736D01*
X111421904Y-177637736D01*
X111421903Y-177637735D01*
X111217172Y-177500938D01*
X111043062Y-177326828D01*
X110906265Y-177122097D01*
X110873040Y-177041886D01*
X110812036Y-176894610D01*
X110764000Y-176653116D01*
X110764000Y-176406884D01*
X110812036Y-176165390D01*
X110906264Y-175937905D01*
X110911370Y-175930264D01*
X111043062Y-175733172D01*
X111217172Y-175559062D01*
X111421903Y-175422265D01*
X111421905Y-175422264D01*
X111649390Y-175328036D01*
X111890884Y-175280000D01*
X112137116Y-175280000D01*
X112378610Y-175328036D01*
G37*
G36*
X142350610Y-175328036D02*
G01*
X142578095Y-175422264D01*
X142578097Y-175422265D01*
X142782828Y-175559062D01*
X142956938Y-175733172D01*
X143088631Y-175930264D01*
X143093736Y-175937905D01*
X143187964Y-176165390D01*
X143236000Y-176406884D01*
X143236000Y-176653116D01*
X143187964Y-176894610D01*
X143126960Y-177041886D01*
X143093735Y-177122097D01*
X142956938Y-177326828D01*
X142782828Y-177500938D01*
X142578097Y-177637735D01*
X142578096Y-177637736D01*
X142578095Y-177637736D01*
X142350610Y-177731964D01*
X142109116Y-177780000D01*
X141862884Y-177780000D01*
X141621390Y-177731964D01*
X141393905Y-177637736D01*
X141393904Y-177637736D01*
X141393903Y-177637735D01*
X141189172Y-177500938D01*
X141015062Y-177326828D01*
X140878265Y-177122097D01*
X140845040Y-177041886D01*
X140784036Y-176894610D01*
X140736000Y-176653116D01*
X140736000Y-176406884D01*
X140784036Y-176165390D01*
X140878264Y-175937905D01*
X140883370Y-175930264D01*
X141015062Y-175733172D01*
X141189172Y-175559062D01*
X141393903Y-175422265D01*
X141393905Y-175422264D01*
X141621390Y-175328036D01*
X141862884Y-175280000D01*
X142109116Y-175280000D01*
X142350610Y-175328036D01*
G37*
G36*
X102345610Y-174820036D02*
G01*
X102573095Y-174914264D01*
X102573097Y-174914265D01*
X102777828Y-175051062D01*
X102951938Y-175225172D01*
X103083631Y-175422264D01*
X103088736Y-175429905D01*
X103182964Y-175657390D01*
X103231000Y-175898884D01*
X103231000Y-176145116D01*
X103182964Y-176386610D01*
X103088736Y-176614095D01*
X103088735Y-176614097D01*
X102951938Y-176818828D01*
X102777828Y-176992938D01*
X102573097Y-177129735D01*
X102573096Y-177129736D01*
X102573095Y-177129736D01*
X102345610Y-177223964D01*
X102104116Y-177272000D01*
X101857884Y-177272000D01*
X101616390Y-177223964D01*
X101388905Y-177129736D01*
X101388904Y-177129736D01*
X101388903Y-177129735D01*
X101184172Y-176992938D01*
X101010062Y-176818828D01*
X100873265Y-176614097D01*
X100873264Y-176614095D01*
X100779036Y-176386610D01*
X100731000Y-176145116D01*
X100731000Y-175898884D01*
X100779036Y-175657390D01*
X100873264Y-175429905D01*
X100878370Y-175422264D01*
X101010062Y-175225172D01*
X101184172Y-175051062D01*
X101388903Y-174914265D01*
X101388905Y-174914264D01*
X101616390Y-174820036D01*
X101857884Y-174772000D01*
X102104116Y-174772000D01*
X102345610Y-174820036D01*
G37*
G36*
X152383610Y-174820036D02*
G01*
X152611095Y-174914264D01*
X152611097Y-174914265D01*
X152815828Y-175051062D01*
X152989938Y-175225172D01*
X153121631Y-175422264D01*
X153126736Y-175429905D01*
X153220964Y-175657390D01*
X153269000Y-175898884D01*
X153269000Y-176145116D01*
X153220964Y-176386610D01*
X153126736Y-176614095D01*
X153126735Y-176614097D01*
X152989938Y-176818828D01*
X152815828Y-176992938D01*
X152611097Y-177129735D01*
X152611096Y-177129736D01*
X152611095Y-177129736D01*
X152383610Y-177223964D01*
X152142116Y-177272000D01*
X151895884Y-177272000D01*
X151654390Y-177223964D01*
X151426905Y-177129736D01*
X151426904Y-177129736D01*
X151426903Y-177129735D01*
X151222172Y-176992938D01*
X151048062Y-176818828D01*
X150911265Y-176614097D01*
X150911264Y-176614095D01*
X150817036Y-176386610D01*
X150769000Y-176145116D01*
X150769000Y-175898884D01*
X150817036Y-175657390D01*
X150911264Y-175429905D01*
X150916370Y-175422264D01*
X151048062Y-175225172D01*
X151222172Y-175051062D01*
X151426903Y-174914265D01*
X151426905Y-174914264D01*
X151654390Y-174820036D01*
X151895884Y-174772000D01*
X152142116Y-174772000D01*
X152383610Y-174820036D01*
G37*
G36*
X151630657Y-173759258D02*
G01*
X149756258Y-175633657D01*
X148730387Y-174607786D01*
X150604786Y-172733387D01*
X151630657Y-173759258D01*
G37*
G36*
X133405400Y-175290400D02*
G01*
X130754600Y-175290400D01*
X130754600Y-173839600D01*
X133405400Y-173839600D01*
X133405400Y-175290400D01*
G37*
G36*
X123372400Y-175163400D02*
G01*
X120721600Y-175163400D01*
X120721600Y-173712600D01*
X123372400Y-173712600D01*
X123372400Y-175163400D01*
G37*
G36*
X143311400Y-174655400D02*
G01*
X140660600Y-174655400D01*
X140660600Y-173204600D01*
X143311400Y-173204600D01*
X143311400Y-174655400D01*
G37*
G36*
X113339400Y-174655400D02*
G01*
X110688600Y-174655400D01*
X110688600Y-173204600D01*
X113339400Y-173204600D01*
X113339400Y-174655400D01*
G37*
G36*
X103306400Y-174147400D02*
G01*
X100655600Y-174147400D01*
X100655600Y-172696600D01*
X103306400Y-172696600D01*
X103306400Y-174147400D01*
G37*
G36*
X155092400Y-174091600D02*
G01*
X153263600Y-174091600D01*
X153263600Y-172262800D01*
X155092400Y-172262800D01*
X155092400Y-174091600D01*
G37*
G36*
X122122925Y-166336041D02*
G01*
X122122925Y-166336042D01*
X122228425Y-166441542D01*
X122228425Y-166441541D01*
X122476478Y-166689594D01*
X122476478Y-166689595D01*
X122581979Y-166795096D01*
X122581979Y-166795095D01*
X122830032Y-167043148D01*
X122830032Y-167043149D01*
X122935532Y-167148649D01*
X122935532Y-167148648D01*
X123183585Y-167396701D01*
X123183585Y-167396702D01*
X123289085Y-167502202D01*
X123289085Y-167502201D01*
X123537138Y-167750254D01*
X123537138Y-167750255D01*
X123642639Y-167855756D01*
X123642639Y-167855755D01*
X123890692Y-168103808D01*
X123890692Y-168103809D01*
X123996192Y-168209309D01*
X123996192Y-168209308D01*
X124244245Y-168457361D01*
X124244245Y-168457362D01*
X124349746Y-168562863D01*
X124349746Y-168562862D01*
X124597799Y-168810915D01*
X124597799Y-168810916D01*
X124703299Y-168916416D01*
X124703299Y-168916415D01*
X124951352Y-169164468D01*
X124951352Y-169164469D01*
X125056852Y-169269969D01*
X125056852Y-169269968D01*
X125304905Y-169518021D01*
X125304905Y-169518022D01*
X125410406Y-169623523D01*
X125410406Y-169623522D01*
X125658459Y-169871575D01*
X125658459Y-169871576D01*
X125763959Y-169977076D01*
X125763959Y-169977075D01*
X126012012Y-170225128D01*
X124915431Y-171321709D01*
X124667378Y-171073656D01*
X124667379Y-171073656D01*
X124561879Y-170968156D01*
X124561878Y-170968156D01*
X124313825Y-170720103D01*
X124313826Y-170720103D01*
X124208325Y-170614602D01*
X124208324Y-170614602D01*
X123960271Y-170366549D01*
X123960272Y-170366549D01*
X123854772Y-170261049D01*
X123854771Y-170261049D01*
X123606718Y-170012996D01*
X123606719Y-170012996D01*
X123501219Y-169907496D01*
X123501218Y-169907496D01*
X123253165Y-169659443D01*
X123253166Y-169659443D01*
X123147665Y-169553942D01*
X123147664Y-169553942D01*
X122899611Y-169305889D01*
X122899612Y-169305889D01*
X122794112Y-169200389D01*
X122794111Y-169200389D01*
X122546058Y-168952336D01*
X122546059Y-168952336D01*
X122440558Y-168846835D01*
X122440557Y-168846835D01*
X122192504Y-168598782D01*
X122192505Y-168598782D01*
X122087005Y-168493282D01*
X122087004Y-168493282D01*
X121838951Y-168245229D01*
X121838952Y-168245229D01*
X121733452Y-168139729D01*
X121733451Y-168139729D01*
X121485398Y-167891676D01*
X121485399Y-167891676D01*
X121379898Y-167786175D01*
X121379897Y-167786175D01*
X121131844Y-167538122D01*
X121131845Y-167538122D01*
X121026345Y-167432622D01*
X121026344Y-167432622D01*
X120778291Y-167184569D01*
X121874872Y-166087988D01*
X122122925Y-166336041D01*
G37*
G36*
X131951709Y-167184569D02*
G01*
X127814569Y-171321709D01*
X126717988Y-170225128D01*
X126966041Y-169977075D01*
X126966042Y-169977076D01*
X127071542Y-169871576D01*
X127071541Y-169871575D01*
X127319594Y-169623522D01*
X127319595Y-169623523D01*
X127425096Y-169518022D01*
X127425095Y-169518021D01*
X127673148Y-169269968D01*
X127673149Y-169269969D01*
X127778649Y-169164469D01*
X127778648Y-169164468D01*
X128026701Y-168916415D01*
X128026702Y-168916416D01*
X128132202Y-168810916D01*
X128132201Y-168810915D01*
X128380254Y-168562862D01*
X128380255Y-168562863D01*
X128485756Y-168457362D01*
X128485755Y-168457361D01*
X128733808Y-168209308D01*
X128733809Y-168209309D01*
X128839309Y-168103809D01*
X128839308Y-168103808D01*
X129087361Y-167855755D01*
X129087362Y-167855756D01*
X129192863Y-167750255D01*
X129192862Y-167750254D01*
X129440915Y-167502201D01*
X129440916Y-167502202D01*
X129546416Y-167396702D01*
X129546415Y-167396701D01*
X129794468Y-167148648D01*
X129794469Y-167148649D01*
X129899969Y-167043149D01*
X129899968Y-167043148D01*
X130148021Y-166795095D01*
X130148022Y-166795096D01*
X130253523Y-166689595D01*
X130253522Y-166689594D01*
X130501575Y-166441541D01*
X130501576Y-166441542D01*
X130607076Y-166336042D01*
X130607075Y-166336041D01*
X130855128Y-166087988D01*
X131951709Y-167184569D01*
G37*
G36*
X147164292Y-169683439D02*
G01*
X147195872Y-169693019D01*
X147224978Y-169708577D01*
X147250488Y-169729512D01*
X147271423Y-169755022D01*
X147286981Y-169784128D01*
X147296561Y-169815708D01*
X147300400Y-169854690D01*
X147300400Y-170505310D01*
X147296561Y-170544292D01*
X147286981Y-170575872D01*
X147271423Y-170604978D01*
X147250488Y-170630488D01*
X147224978Y-170651423D01*
X147195872Y-170666981D01*
X147164292Y-170676561D01*
X147125310Y-170680400D01*
X146549690Y-170680400D01*
X146510708Y-170676561D01*
X146479128Y-170666981D01*
X146450022Y-170651423D01*
X146424512Y-170630488D01*
X146403577Y-170604978D01*
X146388019Y-170575872D01*
X146378439Y-170544292D01*
X146374600Y-170505310D01*
X146374600Y-169854690D01*
X146378439Y-169815708D01*
X146388019Y-169784128D01*
X146403577Y-169755022D01*
X146424512Y-169729512D01*
X146450022Y-169708577D01*
X146479128Y-169693019D01*
X146510708Y-169683439D01*
X146549690Y-169679600D01*
X147125310Y-169679600D01*
X147164292Y-169683439D01*
G37*
G36*
X145589292Y-169683439D02*
G01*
X145620872Y-169693019D01*
X145649978Y-169708577D01*
X145675488Y-169729512D01*
X145696423Y-169755022D01*
X145711981Y-169784128D01*
X145721561Y-169815708D01*
X145725400Y-169854690D01*
X145725400Y-170505310D01*
X145721561Y-170544292D01*
X145711981Y-170575872D01*
X145696423Y-170604978D01*
X145675488Y-170630488D01*
X145649978Y-170651423D01*
X145620872Y-170666981D01*
X145589292Y-170676561D01*
X145550310Y-170680400D01*
X144974690Y-170680400D01*
X144935708Y-170676561D01*
X144904128Y-170666981D01*
X144875022Y-170651423D01*
X144849512Y-170630488D01*
X144828577Y-170604978D01*
X144813019Y-170575872D01*
X144803439Y-170544292D01*
X144799600Y-170505310D01*
X144799600Y-169854690D01*
X144803439Y-169815708D01*
X144813019Y-169784128D01*
X144828577Y-169755022D01*
X144849512Y-169729512D01*
X144875022Y-169708577D01*
X144904128Y-169693019D01*
X144935708Y-169683439D01*
X144974690Y-169679600D01*
X145550310Y-169679600D01*
X145589292Y-169683439D01*
G37*
G36*
X150339292Y-169683439D02*
G01*
X150370872Y-169693019D01*
X150399978Y-169708577D01*
X150425488Y-169729512D01*
X150446423Y-169755022D01*
X150461981Y-169784128D01*
X150471561Y-169815708D01*
X150475400Y-169854690D01*
X150475400Y-170505310D01*
X150471561Y-170544292D01*
X150461981Y-170575872D01*
X150446423Y-170604978D01*
X150425488Y-170630488D01*
X150399978Y-170651423D01*
X150370872Y-170666981D01*
X150339292Y-170676561D01*
X150300310Y-170680400D01*
X149724690Y-170680400D01*
X149685708Y-170676561D01*
X149654128Y-170666981D01*
X149625022Y-170651423D01*
X149599512Y-170630488D01*
X149578577Y-170604978D01*
X149563019Y-170575872D01*
X149553439Y-170544292D01*
X149549600Y-170505310D01*
X149549600Y-169854690D01*
X149553439Y-169815708D01*
X149563019Y-169784128D01*
X149578577Y-169755022D01*
X149599512Y-169729512D01*
X149625022Y-169708577D01*
X149654128Y-169693019D01*
X149685708Y-169683439D01*
X149724690Y-169679600D01*
X150300310Y-169679600D01*
X150339292Y-169683439D01*
G37*
G36*
X148764292Y-169683439D02*
G01*
X148795872Y-169693019D01*
X148824978Y-169708577D01*
X148850488Y-169729512D01*
X148871423Y-169755022D01*
X148886981Y-169784128D01*
X148896561Y-169815708D01*
X148900400Y-169854690D01*
X148900400Y-170505310D01*
X148896561Y-170544292D01*
X148886981Y-170575872D01*
X148871423Y-170604978D01*
X148850488Y-170630488D01*
X148824978Y-170651423D01*
X148795872Y-170666981D01*
X148764292Y-170676561D01*
X148725310Y-170680400D01*
X148149690Y-170680400D01*
X148110708Y-170676561D01*
X148079128Y-170666981D01*
X148050022Y-170651423D01*
X148024512Y-170630488D01*
X148003577Y-170604978D01*
X147988019Y-170575872D01*
X147978439Y-170544292D01*
X147974600Y-170505310D01*
X147974600Y-169854690D01*
X147978439Y-169815708D01*
X147988019Y-169784128D01*
X148003577Y-169755022D01*
X148024512Y-169729512D01*
X148050022Y-169708577D01*
X148079128Y-169693019D01*
X148110708Y-169683439D01*
X148149690Y-169679600D01*
X148725310Y-169679600D01*
X148764292Y-169683439D01*
G37*
G36*
X128875795Y-165735000D02*
G01*
X126365000Y-168245795D01*
X123854205Y-165735000D01*
X126365000Y-163224205D01*
X128875795Y-165735000D01*
G37*
G36*
X146595400Y-167930400D02*
G01*
X144044600Y-167930400D01*
X144044600Y-166079600D01*
X146595400Y-166079600D01*
X146595400Y-167930400D01*
G37*
G36*
X150595400Y-167930400D02*
G01*
X148044600Y-167930400D01*
X148044600Y-166079600D01*
X150595400Y-166079600D01*
X150595400Y-167930400D01*
G37*
G36*
X126012012Y-161244872D02*
G01*
X121874872Y-165382012D01*
X120778291Y-164285431D01*
X121026344Y-164037378D01*
X121026345Y-164037379D01*
X121131845Y-163931879D01*
X121131844Y-163931878D01*
X121379897Y-163683825D01*
X121379898Y-163683826D01*
X121485399Y-163578325D01*
X121485398Y-163578324D01*
X121733451Y-163330271D01*
X121733452Y-163330272D01*
X121838952Y-163224772D01*
X121838951Y-163224771D01*
X122087004Y-162976718D01*
X122087005Y-162976719D01*
X122192505Y-162871219D01*
X122192504Y-162871218D01*
X122440557Y-162623165D01*
X122440558Y-162623166D01*
X122546059Y-162517665D01*
X122546058Y-162517664D01*
X122794111Y-162269611D01*
X122794112Y-162269612D01*
X122899612Y-162164112D01*
X122899611Y-162164111D01*
X123147664Y-161916058D01*
X123147665Y-161916059D01*
X123253166Y-161810558D01*
X123253165Y-161810557D01*
X123501218Y-161562504D01*
X123501219Y-161562505D01*
X123606719Y-161457005D01*
X123606718Y-161457004D01*
X123854771Y-161208951D01*
X123854772Y-161208952D01*
X123960272Y-161103452D01*
X123960271Y-161103451D01*
X124208324Y-160855398D01*
X124208325Y-160855399D01*
X124313826Y-160749898D01*
X124313825Y-160749897D01*
X124561878Y-160501844D01*
X124561879Y-160501845D01*
X124667379Y-160396345D01*
X124667378Y-160396344D01*
X124915431Y-160148291D01*
X126012012Y-161244872D01*
G37*
G36*
X128062622Y-160396344D02*
G01*
X128062622Y-160396345D01*
X128168122Y-160501845D01*
X128168122Y-160501844D01*
X128416175Y-160749897D01*
X128416175Y-160749898D01*
X128521676Y-160855399D01*
X128521676Y-160855398D01*
X128769729Y-161103451D01*
X128769729Y-161103452D01*
X128875229Y-161208952D01*
X128875229Y-161208951D01*
X129123282Y-161457004D01*
X129123282Y-161457005D01*
X129228782Y-161562505D01*
X129228782Y-161562504D01*
X129476835Y-161810557D01*
X129476835Y-161810558D01*
X129582336Y-161916059D01*
X129582336Y-161916058D01*
X129830389Y-162164111D01*
X129830389Y-162164112D01*
X129935889Y-162269612D01*
X129935889Y-162269611D01*
X130183942Y-162517664D01*
X130183942Y-162517665D01*
X130289443Y-162623166D01*
X130289443Y-162623165D01*
X130537496Y-162871218D01*
X130537496Y-162871219D01*
X130642996Y-162976719D01*
X130642996Y-162976718D01*
X130891049Y-163224771D01*
X130891049Y-163224772D01*
X130996549Y-163330272D01*
X130996549Y-163330271D01*
X131244602Y-163578324D01*
X131244602Y-163578325D01*
X131350103Y-163683826D01*
X131350103Y-163683825D01*
X131598156Y-163931878D01*
X131598156Y-163931879D01*
X131703656Y-164037379D01*
X131703656Y-164037378D01*
X131951709Y-164285431D01*
X130855128Y-165382012D01*
X130607075Y-165133959D01*
X130607076Y-165133959D01*
X130501576Y-165028459D01*
X130501575Y-165028459D01*
X130253522Y-164780406D01*
X130253523Y-164780406D01*
X130148022Y-164674905D01*
X130148021Y-164674905D01*
X129899968Y-164426852D01*
X129899969Y-164426852D01*
X129794469Y-164321352D01*
X129794468Y-164321352D01*
X129546415Y-164073299D01*
X129546416Y-164073299D01*
X129440916Y-163967799D01*
X129440915Y-163967799D01*
X129192862Y-163719746D01*
X129192863Y-163719746D01*
X129087362Y-163614245D01*
X129087361Y-163614245D01*
X128839308Y-163366192D01*
X128839309Y-163366192D01*
X128733809Y-163260692D01*
X128733808Y-163260692D01*
X128485755Y-163012639D01*
X128485756Y-163012639D01*
X128380255Y-162907138D01*
X128380254Y-162907138D01*
X128132201Y-162659085D01*
X128132202Y-162659085D01*
X128026702Y-162553585D01*
X128026701Y-162553585D01*
X127778648Y-162305532D01*
X127778649Y-162305532D01*
X127673149Y-162200032D01*
X127673148Y-162200032D01*
X127425095Y-161951979D01*
X127425096Y-161951979D01*
X127319595Y-161846478D01*
X127319594Y-161846478D01*
X127071541Y-161598425D01*
X127071542Y-161598425D01*
X126966042Y-161492925D01*
X126966041Y-161492925D01*
X126717988Y-161244872D01*
X127814569Y-160148291D01*
X128062622Y-160396344D01*
G37*
G36*
X153694171Y-163108920D02*
G01*
X153730438Y-163119922D01*
X153763868Y-163137790D01*
X153793166Y-163161834D01*
X153817210Y-163191132D01*
X153835078Y-163224562D01*
X153846080Y-163260829D01*
X153850400Y-163304691D01*
X153850400Y-164355309D01*
X153846080Y-164399171D01*
X153835078Y-164435438D01*
X153817210Y-164468868D01*
X153793166Y-164498166D01*
X153763868Y-164522210D01*
X153730438Y-164540078D01*
X153694171Y-164551080D01*
X153650309Y-164555400D01*
X153024691Y-164555400D01*
X152980829Y-164551080D01*
X152944562Y-164540078D01*
X152911132Y-164522210D01*
X152881834Y-164498166D01*
X152857790Y-164468868D01*
X152839922Y-164435438D01*
X152828920Y-164399171D01*
X152824600Y-164355309D01*
X152824600Y-163304691D01*
X152828920Y-163260829D01*
X152839922Y-163224562D01*
X152857790Y-163191132D01*
X152881834Y-163161834D01*
X152911132Y-163137790D01*
X152944562Y-163119922D01*
X152980829Y-163108920D01*
X153024691Y-163104600D01*
X153650309Y-163104600D01*
X153694171Y-163108920D01*
G37*
G36*
X151819171Y-163108920D02*
G01*
X151855438Y-163119922D01*
X151888868Y-163137790D01*
X151918166Y-163161834D01*
X151942210Y-163191132D01*
X151960078Y-163224562D01*
X151971080Y-163260829D01*
X151975400Y-163304691D01*
X151975400Y-164355309D01*
X151971080Y-164399171D01*
X151960078Y-164435438D01*
X151942210Y-164468868D01*
X151918166Y-164498166D01*
X151888868Y-164522210D01*
X151855438Y-164540078D01*
X151819171Y-164551080D01*
X151775309Y-164555400D01*
X151149691Y-164555400D01*
X151105829Y-164551080D01*
X151069562Y-164540078D01*
X151036132Y-164522210D01*
X151006834Y-164498166D01*
X150982790Y-164468868D01*
X150964922Y-164435438D01*
X150953920Y-164399171D01*
X150949600Y-164355309D01*
X150949600Y-163304691D01*
X150953920Y-163260829D01*
X150964922Y-163224562D01*
X150982790Y-163191132D01*
X151006834Y-163161834D01*
X151036132Y-163137790D01*
X151069562Y-163119922D01*
X151105829Y-163108920D01*
X151149691Y-163104600D01*
X151775309Y-163104600D01*
X151819171Y-163108920D01*
G37*
G36*
X148620400Y-164215400D02*
G01*
X146019600Y-164215400D01*
X146019600Y-163104600D01*
X148620400Y-163104600D01*
X148620400Y-164215400D01*
G37*
G36*
X143874292Y-162888439D02*
G01*
X143905872Y-162898019D01*
X143934978Y-162913577D01*
X143960488Y-162934512D01*
X143981423Y-162960022D01*
X143996981Y-162989128D01*
X144006561Y-163020708D01*
X144010400Y-163059690D01*
X144010400Y-163635310D01*
X144006561Y-163674292D01*
X143996981Y-163705872D01*
X143981423Y-163734978D01*
X143960488Y-163760488D01*
X143934978Y-163781423D01*
X143905872Y-163796981D01*
X143874292Y-163806561D01*
X143835310Y-163810400D01*
X143184690Y-163810400D01*
X143145708Y-163806561D01*
X143114128Y-163796981D01*
X143085022Y-163781423D01*
X143059512Y-163760488D01*
X143038577Y-163734978D01*
X143023019Y-163705872D01*
X143013439Y-163674292D01*
X143009600Y-163635310D01*
X143009600Y-163059690D01*
X143013439Y-163020708D01*
X143023019Y-162989128D01*
X143038577Y-162960022D01*
X143059512Y-162934512D01*
X143085022Y-162913577D01*
X143114128Y-162898019D01*
X143145708Y-162888439D01*
X143184690Y-162884600D01*
X143835310Y-162884600D01*
X143874292Y-162888439D01*
G37*
G36*
X141969292Y-162888439D02*
G01*
X142000872Y-162898019D01*
X142029978Y-162913577D01*
X142055488Y-162934512D01*
X142076423Y-162960022D01*
X142091981Y-162989128D01*
X142101561Y-163020708D01*
X142105400Y-163059690D01*
X142105400Y-163635310D01*
X142101561Y-163674292D01*
X142091981Y-163705872D01*
X142076423Y-163734978D01*
X142055488Y-163760488D01*
X142029978Y-163781423D01*
X142000872Y-163796981D01*
X141969292Y-163806561D01*
X141930310Y-163810400D01*
X141279690Y-163810400D01*
X141240708Y-163806561D01*
X141209128Y-163796981D01*
X141180022Y-163781423D01*
X141154512Y-163760488D01*
X141133577Y-163734978D01*
X141118019Y-163705872D01*
X141108439Y-163674292D01*
X141104600Y-163635310D01*
X141104600Y-163059690D01*
X141108439Y-163020708D01*
X141118019Y-162989128D01*
X141133577Y-162960022D01*
X141154512Y-162934512D01*
X141180022Y-162913577D01*
X141209128Y-162898019D01*
X141240708Y-162888439D01*
X141279690Y-162884600D01*
X141930310Y-162884600D01*
X141969292Y-162888439D01*
G37*
G36*
X143874292Y-161313439D02*
G01*
X143905872Y-161323019D01*
X143934978Y-161338577D01*
X143960488Y-161359512D01*
X143981423Y-161385022D01*
X143996981Y-161414128D01*
X144006561Y-161445708D01*
X144010400Y-161484690D01*
X144010400Y-162060310D01*
X144006561Y-162099292D01*
X143996981Y-162130872D01*
X143981423Y-162159978D01*
X143960488Y-162185488D01*
X143934978Y-162206423D01*
X143905872Y-162221981D01*
X143874292Y-162231561D01*
X143835310Y-162235400D01*
X143184690Y-162235400D01*
X143145708Y-162231561D01*
X143114128Y-162221981D01*
X143085022Y-162206423D01*
X143059512Y-162185488D01*
X143038577Y-162159978D01*
X143023019Y-162130872D01*
X143013439Y-162099292D01*
X143009600Y-162060310D01*
X143009600Y-161484690D01*
X143013439Y-161445708D01*
X143023019Y-161414128D01*
X143038577Y-161385022D01*
X143059512Y-161359512D01*
X143085022Y-161338577D01*
X143114128Y-161323019D01*
X143145708Y-161313439D01*
X143184690Y-161309600D01*
X143835310Y-161309600D01*
X143874292Y-161313439D01*
G37*
G36*
X141969292Y-161313439D02*
G01*
X142000872Y-161323019D01*
X142029978Y-161338577D01*
X142055488Y-161359512D01*
X142076423Y-161385022D01*
X142091981Y-161414128D01*
X142101561Y-161445708D01*
X142105400Y-161484690D01*
X142105400Y-162060310D01*
X142101561Y-162099292D01*
X142091981Y-162130872D01*
X142076423Y-162159978D01*
X142055488Y-162185488D01*
X142029978Y-162206423D01*
X142000872Y-162221981D01*
X141969292Y-162231561D01*
X141930310Y-162235400D01*
X141279690Y-162235400D01*
X141240708Y-162231561D01*
X141209128Y-162221981D01*
X141180022Y-162206423D01*
X141154512Y-162185488D01*
X141133577Y-162159978D01*
X141118019Y-162130872D01*
X141108439Y-162099292D01*
X141104600Y-162060310D01*
X141104600Y-161484690D01*
X141108439Y-161445708D01*
X141118019Y-161414128D01*
X141133577Y-161385022D01*
X141154512Y-161359512D01*
X141180022Y-161338577D01*
X141209128Y-161323019D01*
X141240708Y-161313439D01*
X141279690Y-161309600D01*
X141930310Y-161309600D01*
X141969292Y-161313439D01*
G37*
G36*
X148620400Y-162015400D02*
G01*
X147919600Y-162015400D01*
X147919600Y-160904600D01*
X148620400Y-160904600D01*
X148620400Y-162015400D01*
G37*
G36*
X146720400Y-162015400D02*
G01*
X146019600Y-162015400D01*
X146019600Y-160904600D01*
X146720400Y-160904600D01*
X146720400Y-162015400D01*
G37*
G36*
X151819171Y-160568920D02*
G01*
X151855438Y-160579922D01*
X151888868Y-160597790D01*
X151918166Y-160621834D01*
X151942210Y-160651132D01*
X151960078Y-160684562D01*
X151971080Y-160720829D01*
X151975400Y-160764691D01*
X151975400Y-161815309D01*
X151971080Y-161859171D01*
X151960078Y-161895438D01*
X151942210Y-161928868D01*
X151918166Y-161958166D01*
X151888868Y-161982210D01*
X151855438Y-162000078D01*
X151819171Y-162011080D01*
X151775309Y-162015400D01*
X151149691Y-162015400D01*
X151105829Y-162011080D01*
X151069562Y-162000078D01*
X151036132Y-161982210D01*
X151006834Y-161958166D01*
X150982790Y-161928868D01*
X150964922Y-161895438D01*
X150953920Y-161859171D01*
X150949600Y-161815309D01*
X150949600Y-160764691D01*
X150953920Y-160720829D01*
X150964922Y-160684562D01*
X150982790Y-160651132D01*
X151006834Y-160621834D01*
X151036132Y-160597790D01*
X151069562Y-160579922D01*
X151105829Y-160568920D01*
X151149691Y-160564600D01*
X151775309Y-160564600D01*
X151819171Y-160568920D01*
G37*
G36*
X153694171Y-160568920D02*
G01*
X153730438Y-160579922D01*
X153763868Y-160597790D01*
X153793166Y-160621834D01*
X153817210Y-160651132D01*
X153835078Y-160684562D01*
X153846080Y-160720829D01*
X153850400Y-160764691D01*
X153850400Y-161815309D01*
X153846080Y-161859171D01*
X153835078Y-161895438D01*
X153817210Y-161928868D01*
X153793166Y-161958166D01*
X153763868Y-161982210D01*
X153730438Y-162000078D01*
X153694171Y-162011080D01*
X153650309Y-162015400D01*
X153024691Y-162015400D01*
X152980829Y-162011080D01*
X152944562Y-162000078D01*
X152911132Y-161982210D01*
X152881834Y-161958166D01*
X152857790Y-161928868D01*
X152839922Y-161895438D01*
X152828920Y-161859171D01*
X152824600Y-161815309D01*
X152824600Y-160764691D01*
X152828920Y-160720829D01*
X152839922Y-160684562D01*
X152857790Y-160651132D01*
X152881834Y-160621834D01*
X152911132Y-160597790D01*
X152944562Y-160579922D01*
X152980829Y-160568920D01*
X153024691Y-160564600D01*
X153650309Y-160564600D01*
X153694171Y-160568920D01*
G37*
G36*
X131529478Y-160604511D02*
G01*
X131561058Y-160614091D01*
X131590164Y-160629649D01*
X131620438Y-160654494D01*
X131660290Y-160694346D01*
X131660296Y-160694351D01*
X132040649Y-161074704D01*
X132040654Y-161074710D01*
X132080506Y-161114562D01*
X132105351Y-161144836D01*
X132120909Y-161173942D01*
X132130489Y-161205522D01*
X132133723Y-161238364D01*
X132130489Y-161271206D01*
X132120909Y-161302786D01*
X132105351Y-161331892D01*
X132080506Y-161362166D01*
X132040654Y-161402018D01*
X132040649Y-161402024D01*
X131713330Y-161729343D01*
X131713324Y-161729348D01*
X131673472Y-161769200D01*
X131643198Y-161794045D01*
X131614092Y-161809603D01*
X131582512Y-161819183D01*
X131549670Y-161822417D01*
X131516828Y-161819183D01*
X131485248Y-161809603D01*
X131456142Y-161794045D01*
X131425868Y-161769200D01*
X131386016Y-161729348D01*
X131386010Y-161729343D01*
X131005657Y-161348990D01*
X131005652Y-161348984D01*
X130965800Y-161309132D01*
X130940955Y-161278858D01*
X130925397Y-161249752D01*
X130915817Y-161218172D01*
X130912583Y-161185330D01*
X130915817Y-161152488D01*
X130925397Y-161120908D01*
X130940955Y-161091802D01*
X130965800Y-161061528D01*
X131005652Y-161021676D01*
X131005657Y-161021670D01*
X131332976Y-160694351D01*
X131332982Y-160694346D01*
X131372834Y-160654494D01*
X131403108Y-160629649D01*
X131432214Y-160614091D01*
X131463794Y-160604511D01*
X131496636Y-160601277D01*
X131529478Y-160604511D01*
G37*
G36*
X132643172Y-159490817D02*
G01*
X132674752Y-159500397D01*
X132703858Y-159515955D01*
X132734132Y-159540800D01*
X132773984Y-159580652D01*
X132773990Y-159580657D01*
X133154343Y-159961010D01*
X133154348Y-159961016D01*
X133194200Y-160000868D01*
X133219045Y-160031142D01*
X133234603Y-160060248D01*
X133244183Y-160091828D01*
X133247417Y-160124670D01*
X133244183Y-160157512D01*
X133234603Y-160189092D01*
X133219045Y-160218198D01*
X133194200Y-160248472D01*
X133154348Y-160288324D01*
X133154343Y-160288330D01*
X132827024Y-160615649D01*
X132827018Y-160615654D01*
X132787166Y-160655506D01*
X132756892Y-160680351D01*
X132727786Y-160695909D01*
X132696206Y-160705489D01*
X132663364Y-160708723D01*
X132630522Y-160705489D01*
X132598942Y-160695909D01*
X132569836Y-160680351D01*
X132539562Y-160655506D01*
X132499710Y-160615654D01*
X132499704Y-160615649D01*
X132119351Y-160235296D01*
X132119346Y-160235290D01*
X132079494Y-160195438D01*
X132054649Y-160165164D01*
X132039091Y-160136058D01*
X132029511Y-160104478D01*
X132026277Y-160071636D01*
X132029511Y-160038794D01*
X132039091Y-160007214D01*
X132054649Y-159978108D01*
X132079494Y-159947834D01*
X132119346Y-159907982D01*
X132119351Y-159907976D01*
X132446670Y-159580657D01*
X132446676Y-159580652D01*
X132486528Y-159540800D01*
X132516802Y-159515955D01*
X132545908Y-159500397D01*
X132577488Y-159490817D01*
X132610330Y-159487583D01*
X132643172Y-159490817D01*
G37*
G36*
X103505400Y-160405400D02*
G01*
X101904600Y-160405400D01*
X101904600Y-159054600D01*
X103505400Y-159054600D01*
X103505400Y-160405400D01*
G37*
G36*
X111455400Y-160405400D02*
G01*
X109854600Y-160405400D01*
X109854600Y-159054600D01*
X111455400Y-159054600D01*
X111455400Y-160405400D01*
G37*
G36*
X130259478Y-158699511D02*
G01*
X130291058Y-158709091D01*
X130320164Y-158724649D01*
X130350438Y-158749494D01*
X130390290Y-158789346D01*
X130390296Y-158789351D01*
X130770649Y-159169704D01*
X130770654Y-159169710D01*
X130810506Y-159209562D01*
X130835351Y-159239836D01*
X130850909Y-159268942D01*
X130860489Y-159300522D01*
X130863723Y-159333364D01*
X130860489Y-159366206D01*
X130850909Y-159397786D01*
X130835351Y-159426892D01*
X130810506Y-159457166D01*
X130770654Y-159497018D01*
X130770649Y-159497024D01*
X130443330Y-159824343D01*
X130443324Y-159824348D01*
X130403472Y-159864200D01*
X130373198Y-159889045D01*
X130344092Y-159904603D01*
X130312512Y-159914183D01*
X130279670Y-159917417D01*
X130246828Y-159914183D01*
X130215248Y-159904603D01*
X130186142Y-159889045D01*
X130155868Y-159864200D01*
X130116016Y-159824348D01*
X130116010Y-159824343D01*
X129735657Y-159443990D01*
X129735652Y-159443984D01*
X129695800Y-159404132D01*
X129670955Y-159373858D01*
X129655397Y-159344752D01*
X129645817Y-159313172D01*
X129642583Y-159280330D01*
X129645817Y-159247488D01*
X129655397Y-159215908D01*
X129670955Y-159186802D01*
X129695800Y-159156528D01*
X129735652Y-159116676D01*
X129735657Y-159116670D01*
X130062976Y-158789351D01*
X130062982Y-158789346D01*
X130102834Y-158749494D01*
X130133108Y-158724649D01*
X130162214Y-158709091D01*
X130193794Y-158699511D01*
X130226636Y-158696277D01*
X130259478Y-158699511D01*
G37*
G36*
X131373172Y-157585817D02*
G01*
X131404752Y-157595397D01*
X131433858Y-157610955D01*
X131464132Y-157635800D01*
X131503984Y-157675652D01*
X131503990Y-157675657D01*
X131884343Y-158056010D01*
X131884348Y-158056016D01*
X131924200Y-158095868D01*
X131949045Y-158126142D01*
X131964603Y-158155248D01*
X131974183Y-158186828D01*
X131977417Y-158219670D01*
X131974183Y-158252512D01*
X131964603Y-158284092D01*
X131949045Y-158313198D01*
X131924200Y-158343472D01*
X131884348Y-158383324D01*
X131884343Y-158383330D01*
X131557024Y-158710649D01*
X131557018Y-158710654D01*
X131517166Y-158750506D01*
X131486892Y-158775351D01*
X131457786Y-158790909D01*
X131426206Y-158800489D01*
X131393364Y-158803723D01*
X131360522Y-158800489D01*
X131328942Y-158790909D01*
X131299836Y-158775351D01*
X131269562Y-158750506D01*
X131229710Y-158710654D01*
X131229704Y-158710649D01*
X130849351Y-158330296D01*
X130849346Y-158330290D01*
X130809494Y-158290438D01*
X130784649Y-158260164D01*
X130769091Y-158231058D01*
X130759511Y-158199478D01*
X130756277Y-158166636D01*
X130759511Y-158133794D01*
X130769091Y-158102214D01*
X130784649Y-158073108D01*
X130809494Y-158042834D01*
X130849346Y-158002982D01*
X130849351Y-158002976D01*
X131176670Y-157675657D01*
X131176676Y-157675652D01*
X131216528Y-157635800D01*
X131246802Y-157610955D01*
X131275908Y-157595397D01*
X131307488Y-157585817D01*
X131340330Y-157582583D01*
X131373172Y-157585817D01*
G37*
G36*
X103505400Y-155905400D02*
G01*
X101904600Y-155905400D01*
X101904600Y-154554600D01*
X103505400Y-154554600D01*
X103505400Y-155905400D01*
G37*
G36*
X111455400Y-155905400D02*
G01*
X109854600Y-155905400D01*
X109854600Y-154554600D01*
X111455400Y-154554600D01*
X111455400Y-155905400D01*
G37*
G36*
X112935007Y-146160264D02*
G01*
X112997409Y-146186112D01*
X112997411Y-146186113D01*
X113053573Y-146223639D01*
X113101335Y-146271401D01*
X113138861Y-146327563D01*
X113138862Y-146327565D01*
X113164710Y-146389967D01*
X113177887Y-146456213D01*
X113177887Y-146523761D01*
X113164710Y-146590007D01*
X113138862Y-146652409D01*
X113138861Y-146652411D01*
X113101335Y-146708573D01*
X113053573Y-146756335D01*
X112997411Y-146793861D01*
X112997410Y-146793862D01*
X112997409Y-146793862D01*
X112925818Y-146823516D01*
X112904207Y-146835067D01*
X112885265Y-146850612D01*
X112869720Y-146869554D01*
X112858169Y-146891165D01*
X112851056Y-146914614D01*
X112848654Y-146939000D01*
X112851056Y-146963386D01*
X112858169Y-146986835D01*
X112869720Y-147008446D01*
X112885265Y-147027388D01*
X112904207Y-147042933D01*
X112925818Y-147054484D01*
X112997409Y-147084138D01*
X112997411Y-147084139D01*
X113053573Y-147121665D01*
X113101335Y-147169427D01*
X113138861Y-147225589D01*
X113138862Y-147225591D01*
X113168516Y-147297182D01*
X113180067Y-147318793D01*
X113195612Y-147337735D01*
X113214554Y-147353280D01*
X113236165Y-147364831D01*
X113259614Y-147371944D01*
X113284000Y-147374346D01*
X113308386Y-147371944D01*
X113331835Y-147364831D01*
X113353446Y-147353280D01*
X113372388Y-147337735D01*
X113387933Y-147318793D01*
X113399484Y-147297182D01*
X113429138Y-147225591D01*
X113429139Y-147225589D01*
X113466665Y-147169427D01*
X113514427Y-147121665D01*
X113570589Y-147084139D01*
X113570591Y-147084138D01*
X113632993Y-147058290D01*
X113699239Y-147045113D01*
X113766787Y-147045113D01*
X113833033Y-147058290D01*
X113895435Y-147084138D01*
X113895437Y-147084139D01*
X113951599Y-147121665D01*
X113999361Y-147169427D01*
X114036887Y-147225589D01*
X114036888Y-147225591D01*
X114062736Y-147287993D01*
X114075913Y-147354239D01*
X114075913Y-147421787D01*
X114062736Y-147488033D01*
X114036888Y-147550435D01*
X114036887Y-147550437D01*
X113999361Y-147606599D01*
X113951599Y-147654361D01*
X113895437Y-147691887D01*
X113895436Y-147691888D01*
X113895435Y-147691888D01*
X113833033Y-147717736D01*
X113766787Y-147730913D01*
X113699239Y-147730913D01*
X113632993Y-147717736D01*
X113570591Y-147691888D01*
X113570590Y-147691888D01*
X113570589Y-147691887D01*
X113514427Y-147654361D01*
X113466665Y-147606599D01*
X113429139Y-147550437D01*
X113429138Y-147550435D01*
X113399484Y-147478844D01*
X113387933Y-147457233D01*
X113372388Y-147438291D01*
X113353446Y-147422746D01*
X113331835Y-147411195D01*
X113308386Y-147404082D01*
X113284000Y-147401680D01*
X113259614Y-147404082D01*
X113236165Y-147411195D01*
X113214554Y-147422746D01*
X113195612Y-147438291D01*
X113180067Y-147457233D01*
X113168516Y-147478844D01*
X113138862Y-147550435D01*
X113138861Y-147550437D01*
X113101335Y-147606599D01*
X113053573Y-147654361D01*
X112997411Y-147691887D01*
X112997410Y-147691888D01*
X112997409Y-147691888D01*
X112935007Y-147717736D01*
X112868761Y-147730913D01*
X112801213Y-147730913D01*
X112734967Y-147717736D01*
X112672565Y-147691888D01*
X112672564Y-147691888D01*
X112672563Y-147691887D01*
X112616401Y-147654361D01*
X112568639Y-147606599D01*
X112531113Y-147550437D01*
X112531112Y-147550435D01*
X112505264Y-147488033D01*
X112492087Y-147421787D01*
X112492087Y-147354239D01*
X112505264Y-147287993D01*
X112531112Y-147225591D01*
X112531113Y-147225589D01*
X112568639Y-147169427D01*
X112616401Y-147121665D01*
X112672563Y-147084139D01*
X112672565Y-147084138D01*
X112744156Y-147054484D01*
X112765767Y-147042933D01*
X112784709Y-147027388D01*
X112800254Y-147008446D01*
X112811805Y-146986835D01*
X112818918Y-146963386D01*
X112821320Y-146939000D01*
X112818918Y-146914614D01*
X112811805Y-146891165D01*
X112800254Y-146869554D01*
X112784709Y-146850612D01*
X112765767Y-146835067D01*
X112744156Y-146823516D01*
X112672565Y-146793862D01*
X112672564Y-146793862D01*
X112672563Y-146793861D01*
X112616401Y-146756335D01*
X112568639Y-146708573D01*
X112531113Y-146652411D01*
X112531112Y-146652409D01*
X112505264Y-146590007D01*
X112492087Y-146523761D01*
X112492087Y-146456213D01*
X112505264Y-146389967D01*
X112531112Y-146327565D01*
X112531113Y-146327563D01*
X112568639Y-146271401D01*
X112616401Y-146223639D01*
X112672563Y-146186113D01*
X112672565Y-146186112D01*
X112734967Y-146160264D01*
X112801213Y-146147087D01*
X112868761Y-146147087D01*
X112935007Y-146160264D01*
G37*
G36*
X115299292Y-145108439D02*
G01*
X115330872Y-145118019D01*
X115359978Y-145133577D01*
X115385488Y-145154512D01*
X115406423Y-145180022D01*
X115421981Y-145209128D01*
X115431561Y-145240708D01*
X115435400Y-145279690D01*
X115435400Y-145855310D01*
X115431561Y-145894292D01*
X115421981Y-145925872D01*
X115406423Y-145954978D01*
X115385488Y-145980488D01*
X115359978Y-146001423D01*
X115330872Y-146016981D01*
X115299292Y-146026561D01*
X115260310Y-146030400D01*
X114609690Y-146030400D01*
X114570708Y-146026561D01*
X114539128Y-146016981D01*
X114510022Y-146001423D01*
X114484512Y-145980488D01*
X114463577Y-145954978D01*
X114448019Y-145925872D01*
X114438439Y-145894292D01*
X114434600Y-145855310D01*
X114434600Y-145279690D01*
X114438439Y-145240708D01*
X114448019Y-145209128D01*
X114463577Y-145180022D01*
X114484512Y-145154512D01*
X114510022Y-145133577D01*
X114539128Y-145118019D01*
X114570708Y-145108439D01*
X114609690Y-145104600D01*
X115260310Y-145104600D01*
X115299292Y-145108439D01*
G37*
G36*
X115299292Y-143533439D02*
G01*
X115330872Y-143543019D01*
X115359978Y-143558577D01*
X115385488Y-143579512D01*
X115406423Y-143605022D01*
X115421981Y-143634128D01*
X115431561Y-143665708D01*
X115435400Y-143704690D01*
X115435400Y-144280310D01*
X115431561Y-144319292D01*
X115421981Y-144350872D01*
X115406423Y-144379978D01*
X115385488Y-144405488D01*
X115359978Y-144426423D01*
X115330872Y-144441981D01*
X115299292Y-144451561D01*
X115260310Y-144455400D01*
X114609690Y-144455400D01*
X114570708Y-144451561D01*
X114539128Y-144441981D01*
X114510022Y-144426423D01*
X114484512Y-144405488D01*
X114463577Y-144379978D01*
X114448019Y-144350872D01*
X114438439Y-144319292D01*
X114434600Y-144280310D01*
X114434600Y-143704690D01*
X114438439Y-143665708D01*
X114448019Y-143634128D01*
X114463577Y-143605022D01*
X114484512Y-143579512D01*
X114510022Y-143558577D01*
X114539128Y-143543019D01*
X114570708Y-143533439D01*
X114609690Y-143529600D01*
X115260310Y-143529600D01*
X115299292Y-143533439D01*
G37*
G36*
X124999628Y-134297118D02*
G01*
X125018314Y-134302786D01*
X125035533Y-134311990D01*
X125050625Y-134324375D01*
X125063010Y-134339467D01*
X125072214Y-134356686D01*
X125077882Y-134375372D01*
X125080400Y-134400940D01*
X125080400Y-134839060D01*
X125077882Y-134864628D01*
X125072214Y-134883314D01*
X125063010Y-134900533D01*
X125050625Y-134915625D01*
X125035533Y-134928010D01*
X125018314Y-134937214D01*
X124999628Y-134942882D01*
X124974060Y-134945400D01*
X123085940Y-134945400D01*
X123060372Y-134942882D01*
X123041686Y-134937214D01*
X123024467Y-134928010D01*
X123009375Y-134915625D01*
X122996990Y-134900533D01*
X122987786Y-134883314D01*
X122982118Y-134864628D01*
X122979600Y-134839060D01*
X122979600Y-134400940D01*
X122982118Y-134375372D01*
X122987786Y-134356686D01*
X122996990Y-134339467D01*
X123009375Y-134324375D01*
X123024467Y-134311990D01*
X123041686Y-134302786D01*
X123060372Y-134297118D01*
X123085940Y-134294600D01*
X124974060Y-134294600D01*
X124999628Y-134297118D01*
G37*
G36*
X115699628Y-134297118D02*
G01*
X115718314Y-134302786D01*
X115735533Y-134311990D01*
X115750625Y-134324375D01*
X115763010Y-134339467D01*
X115772214Y-134356686D01*
X115777882Y-134375372D01*
X115780400Y-134400940D01*
X115780400Y-134839060D01*
X115777882Y-134864628D01*
X115772214Y-134883314D01*
X115763010Y-134900533D01*
X115750625Y-134915625D01*
X115735533Y-134928010D01*
X115718314Y-134937214D01*
X115699628Y-134942882D01*
X115674060Y-134945400D01*
X113785940Y-134945400D01*
X113760372Y-134942882D01*
X113741686Y-134937214D01*
X113724467Y-134928010D01*
X113709375Y-134915625D01*
X113696990Y-134900533D01*
X113687786Y-134883314D01*
X113682118Y-134864628D01*
X113679600Y-134839060D01*
X113679600Y-134400940D01*
X113682118Y-134375372D01*
X113687786Y-134356686D01*
X113696990Y-134339467D01*
X113709375Y-134324375D01*
X113724467Y-134311990D01*
X113741686Y-134302786D01*
X113760372Y-134297118D01*
X113785940Y-134294600D01*
X115674060Y-134294600D01*
X115699628Y-134297118D01*
G37*
G36*
X110029292Y-132853439D02*
G01*
X110060872Y-132863019D01*
X110089978Y-132878577D01*
X110115488Y-132899512D01*
X110136423Y-132925022D01*
X110151981Y-132954128D01*
X110161561Y-132985708D01*
X110165400Y-133024690D01*
X110165400Y-133675310D01*
X110161561Y-133714292D01*
X110151981Y-133745872D01*
X110136423Y-133774978D01*
X110115488Y-133800488D01*
X110089978Y-133821423D01*
X110060872Y-133836981D01*
X110029292Y-133846561D01*
X109990310Y-133850400D01*
X109414690Y-133850400D01*
X109375708Y-133846561D01*
X109344128Y-133836981D01*
X109315022Y-133821423D01*
X109289512Y-133800488D01*
X109268577Y-133774978D01*
X109253019Y-133745872D01*
X109243439Y-133714292D01*
X109239600Y-133675310D01*
X109239600Y-133024690D01*
X109243439Y-132985708D01*
X109253019Y-132954128D01*
X109268577Y-132925022D01*
X109289512Y-132899512D01*
X109315022Y-132878577D01*
X109344128Y-132863019D01*
X109375708Y-132853439D01*
X109414690Y-132849600D01*
X109990310Y-132849600D01*
X110029292Y-132853439D01*
G37*
G36*
X111604292Y-132853439D02*
G01*
X111635872Y-132863019D01*
X111664978Y-132878577D01*
X111690488Y-132899512D01*
X111711423Y-132925022D01*
X111726981Y-132954128D01*
X111736561Y-132985708D01*
X111740400Y-133024690D01*
X111740400Y-133675310D01*
X111736561Y-133714292D01*
X111726981Y-133745872D01*
X111711423Y-133774978D01*
X111690488Y-133800488D01*
X111664978Y-133821423D01*
X111635872Y-133836981D01*
X111604292Y-133846561D01*
X111565310Y-133850400D01*
X110989690Y-133850400D01*
X110950708Y-133846561D01*
X110919128Y-133836981D01*
X110890022Y-133821423D01*
X110864512Y-133800488D01*
X110843577Y-133774978D01*
X110828019Y-133745872D01*
X110818439Y-133714292D01*
X110814600Y-133675310D01*
X110814600Y-133024690D01*
X110818439Y-132985708D01*
X110828019Y-132954128D01*
X110843577Y-132925022D01*
X110864512Y-132899512D01*
X110890022Y-132878577D01*
X110919128Y-132863019D01*
X110950708Y-132853439D01*
X110989690Y-132849600D01*
X111565310Y-132849600D01*
X111604292Y-132853439D01*
G37*
G36*
X124999628Y-133027118D02*
G01*
X125018314Y-133032786D01*
X125035533Y-133041990D01*
X125050625Y-133054375D01*
X125063010Y-133069467D01*
X125072214Y-133086686D01*
X125077882Y-133105372D01*
X125080400Y-133130940D01*
X125080400Y-133569060D01*
X125077882Y-133594628D01*
X125072214Y-133613314D01*
X125063010Y-133630533D01*
X125050625Y-133645625D01*
X125035533Y-133658010D01*
X125018314Y-133667214D01*
X124999628Y-133672882D01*
X124974060Y-133675400D01*
X123085940Y-133675400D01*
X123060372Y-133672882D01*
X123041686Y-133667214D01*
X123024467Y-133658010D01*
X123009375Y-133645625D01*
X122996990Y-133630533D01*
X122987786Y-133613314D01*
X122982118Y-133594628D01*
X122979600Y-133569060D01*
X122979600Y-133130940D01*
X122982118Y-133105372D01*
X122987786Y-133086686D01*
X122996990Y-133069467D01*
X123009375Y-133054375D01*
X123024467Y-133041990D01*
X123041686Y-133032786D01*
X123060372Y-133027118D01*
X123085940Y-133024600D01*
X124974060Y-133024600D01*
X124999628Y-133027118D01*
G37*
G36*
X115699628Y-133027118D02*
G01*
X115718314Y-133032786D01*
X115735533Y-133041990D01*
X115750625Y-133054375D01*
X115763010Y-133069467D01*
X115772214Y-133086686D01*
X115777882Y-133105372D01*
X115780400Y-133130940D01*
X115780400Y-133569060D01*
X115777882Y-133594628D01*
X115772214Y-133613314D01*
X115763010Y-133630533D01*
X115750625Y-133645625D01*
X115735533Y-133658010D01*
X115718314Y-133667214D01*
X115699628Y-133672882D01*
X115674060Y-133675400D01*
X113785940Y-133675400D01*
X113760372Y-133672882D01*
X113741686Y-133667214D01*
X113724467Y-133658010D01*
X113709375Y-133645625D01*
X113696990Y-133630533D01*
X113687786Y-133613314D01*
X113682118Y-133594628D01*
X113679600Y-133569060D01*
X113679600Y-133130940D01*
X113682118Y-133105372D01*
X113687786Y-133086686D01*
X113696990Y-133069467D01*
X113709375Y-133054375D01*
X113724467Y-133041990D01*
X113741686Y-133032786D01*
X113760372Y-133027118D01*
X113785940Y-133024600D01*
X115674060Y-133024600D01*
X115699628Y-133027118D01*
G37*
G36*
X124999628Y-131757118D02*
G01*
X125018314Y-131762786D01*
X125035533Y-131771990D01*
X125050625Y-131784375D01*
X125063010Y-131799467D01*
X125072214Y-131816686D01*
X125077882Y-131835372D01*
X125080400Y-131860940D01*
X125080400Y-132299060D01*
X125077882Y-132324628D01*
X125072214Y-132343314D01*
X125063010Y-132360533D01*
X125050625Y-132375625D01*
X125035533Y-132388010D01*
X125018314Y-132397214D01*
X124999628Y-132402882D01*
X124974060Y-132405400D01*
X123085940Y-132405400D01*
X123060372Y-132402882D01*
X123041686Y-132397214D01*
X123024467Y-132388010D01*
X123009375Y-132375625D01*
X122996990Y-132360533D01*
X122987786Y-132343314D01*
X122982118Y-132324628D01*
X122979600Y-132299060D01*
X122979600Y-131860940D01*
X122982118Y-131835372D01*
X122987786Y-131816686D01*
X122996990Y-131799467D01*
X123009375Y-131784375D01*
X123024467Y-131771990D01*
X123041686Y-131762786D01*
X123060372Y-131757118D01*
X123085940Y-131754600D01*
X124974060Y-131754600D01*
X124999628Y-131757118D01*
G37*
G36*
X115699628Y-131757118D02*
G01*
X115718314Y-131762786D01*
X115735533Y-131771990D01*
X115750625Y-131784375D01*
X115763010Y-131799467D01*
X115772214Y-131816686D01*
X115777882Y-131835372D01*
X115780400Y-131860940D01*
X115780400Y-132299060D01*
X115777882Y-132324628D01*
X115772214Y-132343314D01*
X115763010Y-132360533D01*
X115750625Y-132375625D01*
X115735533Y-132388010D01*
X115718314Y-132397214D01*
X115699628Y-132402882D01*
X115674060Y-132405400D01*
X113785940Y-132405400D01*
X113760372Y-132402882D01*
X113741686Y-132397214D01*
X113724467Y-132388010D01*
X113709375Y-132375625D01*
X113696990Y-132360533D01*
X113687786Y-132343314D01*
X113682118Y-132324628D01*
X113679600Y-132299060D01*
X113679600Y-131860940D01*
X113682118Y-131835372D01*
X113687786Y-131816686D01*
X113696990Y-131799467D01*
X113709375Y-131784375D01*
X113724467Y-131771990D01*
X113741686Y-131762786D01*
X113760372Y-131757118D01*
X113785940Y-131754600D01*
X115674060Y-131754600D01*
X115699628Y-131757118D01*
G37*
G36*
X110029292Y-130948439D02*
G01*
X110060872Y-130958019D01*
X110089978Y-130973577D01*
X110115488Y-130994512D01*
X110136423Y-131020022D01*
X110151981Y-131049128D01*
X110161561Y-131080708D01*
X110165400Y-131119690D01*
X110165400Y-131770310D01*
X110161561Y-131809292D01*
X110151981Y-131840872D01*
X110136423Y-131869978D01*
X110115488Y-131895488D01*
X110089978Y-131916423D01*
X110060872Y-131931981D01*
X110029292Y-131941561D01*
X109990310Y-131945400D01*
X109414690Y-131945400D01*
X109375708Y-131941561D01*
X109344128Y-131931981D01*
X109315022Y-131916423D01*
X109289512Y-131895488D01*
X109268577Y-131869978D01*
X109253019Y-131840872D01*
X109243439Y-131809292D01*
X109239600Y-131770310D01*
X109239600Y-131119690D01*
X109243439Y-131080708D01*
X109253019Y-131049128D01*
X109268577Y-131020022D01*
X109289512Y-130994512D01*
X109315022Y-130973577D01*
X109344128Y-130958019D01*
X109375708Y-130948439D01*
X109414690Y-130944600D01*
X109990310Y-130944600D01*
X110029292Y-130948439D01*
G37*
G36*
X111604292Y-130948439D02*
G01*
X111635872Y-130958019D01*
X111664978Y-130973577D01*
X111690488Y-130994512D01*
X111711423Y-131020022D01*
X111726981Y-131049128D01*
X111736561Y-131080708D01*
X111740400Y-131119690D01*
X111740400Y-131770310D01*
X111736561Y-131809292D01*
X111726981Y-131840872D01*
X111711423Y-131869978D01*
X111690488Y-131895488D01*
X111664978Y-131916423D01*
X111635872Y-131931981D01*
X111604292Y-131941561D01*
X111565310Y-131945400D01*
X110989690Y-131945400D01*
X110950708Y-131941561D01*
X110919128Y-131931981D01*
X110890022Y-131916423D01*
X110864512Y-131895488D01*
X110843577Y-131869978D01*
X110828019Y-131840872D01*
X110818439Y-131809292D01*
X110814600Y-131770310D01*
X110814600Y-131119690D01*
X110818439Y-131080708D01*
X110828019Y-131049128D01*
X110843577Y-131020022D01*
X110864512Y-130994512D01*
X110890022Y-130973577D01*
X110919128Y-130958019D01*
X110950708Y-130948439D01*
X110989690Y-130944600D01*
X111565310Y-130944600D01*
X111604292Y-130948439D01*
G37*
G36*
X115699628Y-130487118D02*
G01*
X115718314Y-130492786D01*
X115735533Y-130501990D01*
X115750625Y-130514375D01*
X115763010Y-130529467D01*
X115772214Y-130546686D01*
X115777882Y-130565372D01*
X115780400Y-130590940D01*
X115780400Y-131029060D01*
X115777882Y-131054628D01*
X115772214Y-131073314D01*
X115763010Y-131090533D01*
X115750625Y-131105625D01*
X115735533Y-131118010D01*
X115718314Y-131127214D01*
X115699628Y-131132882D01*
X115674060Y-131135400D01*
X113785940Y-131135400D01*
X113760372Y-131132882D01*
X113741686Y-131127214D01*
X113724467Y-131118010D01*
X113709375Y-131105625D01*
X113696990Y-131090533D01*
X113687786Y-131073314D01*
X113682118Y-131054628D01*
X113679600Y-131029060D01*
X113679600Y-130590940D01*
X113682118Y-130565372D01*
X113687786Y-130546686D01*
X113696990Y-130529467D01*
X113709375Y-130514375D01*
X113724467Y-130501990D01*
X113741686Y-130492786D01*
X113760372Y-130487118D01*
X113785940Y-130484600D01*
X115674060Y-130484600D01*
X115699628Y-130487118D01*
G37*
G36*
X124999628Y-130487118D02*
G01*
X125018314Y-130492786D01*
X125035533Y-130501990D01*
X125050625Y-130514375D01*
X125063010Y-130529467D01*
X125072214Y-130546686D01*
X125077882Y-130565372D01*
X125080400Y-130590940D01*
X125080400Y-131029060D01*
X125077882Y-131054628D01*
X125072214Y-131073314D01*
X125063010Y-131090533D01*
X125050625Y-131105625D01*
X125035533Y-131118010D01*
X125018314Y-131127214D01*
X124999628Y-131132882D01*
X124974060Y-131135400D01*
X123085940Y-131135400D01*
X123060372Y-131132882D01*
X123041686Y-131127214D01*
X123024467Y-131118010D01*
X123009375Y-131105625D01*
X122996990Y-131090533D01*
X122987786Y-131073314D01*
X122982118Y-131054628D01*
X122979600Y-131029060D01*
X122979600Y-130590940D01*
X122982118Y-130565372D01*
X122987786Y-130546686D01*
X122996990Y-130529467D01*
X123009375Y-130514375D01*
X123024467Y-130501990D01*
X123041686Y-130492786D01*
X123060372Y-130487118D01*
X123085940Y-130484600D01*
X124974060Y-130484600D01*
X124999628Y-130487118D01*
G37*
G36*
X124999628Y-129217118D02*
G01*
X125018314Y-129222786D01*
X125035533Y-129231990D01*
X125050625Y-129244375D01*
X125063010Y-129259467D01*
X125072214Y-129276686D01*
X125077882Y-129295372D01*
X125080400Y-129320940D01*
X125080400Y-129759060D01*
X125077882Y-129784628D01*
X125072214Y-129803314D01*
X125063010Y-129820533D01*
X125050625Y-129835625D01*
X125035533Y-129848010D01*
X125018314Y-129857214D01*
X124999628Y-129862882D01*
X124974060Y-129865400D01*
X123085940Y-129865400D01*
X123060372Y-129862882D01*
X123041686Y-129857214D01*
X123024467Y-129848010D01*
X123009375Y-129835625D01*
X122996990Y-129820533D01*
X122987786Y-129803314D01*
X122982118Y-129784628D01*
X122979600Y-129759060D01*
X122979600Y-129320940D01*
X122982118Y-129295372D01*
X122987786Y-129276686D01*
X122996990Y-129259467D01*
X123009375Y-129244375D01*
X123024467Y-129231990D01*
X123041686Y-129222786D01*
X123060372Y-129217118D01*
X123085940Y-129214600D01*
X124974060Y-129214600D01*
X124999628Y-129217118D01*
G37*
G36*
X115699628Y-129217118D02*
G01*
X115718314Y-129222786D01*
X115735533Y-129231990D01*
X115750625Y-129244375D01*
X115763010Y-129259467D01*
X115772214Y-129276686D01*
X115777882Y-129295372D01*
X115780400Y-129320940D01*
X115780400Y-129759060D01*
X115777882Y-129784628D01*
X115772214Y-129803314D01*
X115763010Y-129820533D01*
X115750625Y-129835625D01*
X115735533Y-129848010D01*
X115718314Y-129857214D01*
X115699628Y-129862882D01*
X115674060Y-129865400D01*
X113785940Y-129865400D01*
X113760372Y-129862882D01*
X113741686Y-129857214D01*
X113724467Y-129848010D01*
X113709375Y-129835625D01*
X113696990Y-129820533D01*
X113687786Y-129803314D01*
X113682118Y-129784628D01*
X113679600Y-129759060D01*
X113679600Y-129320940D01*
X113682118Y-129295372D01*
X113687786Y-129276686D01*
X113696990Y-129259467D01*
X113709375Y-129244375D01*
X113724467Y-129231990D01*
X113741686Y-129222786D01*
X113760372Y-129217118D01*
X113785940Y-129214600D01*
X115674060Y-129214600D01*
X115699628Y-129217118D01*
G37*
G36*
X115699628Y-127947118D02*
G01*
X115718314Y-127952786D01*
X115735533Y-127961990D01*
X115750625Y-127974375D01*
X115763010Y-127989467D01*
X115772214Y-128006686D01*
X115777882Y-128025372D01*
X115780400Y-128050940D01*
X115780400Y-128489060D01*
X115777882Y-128514628D01*
X115772214Y-128533314D01*
X115763010Y-128550533D01*
X115750625Y-128565625D01*
X115735533Y-128578010D01*
X115718314Y-128587214D01*
X115699628Y-128592882D01*
X115674060Y-128595400D01*
X113785940Y-128595400D01*
X113760372Y-128592882D01*
X113741686Y-128587214D01*
X113724467Y-128578010D01*
X113709375Y-128565625D01*
X113696990Y-128550533D01*
X113687786Y-128533314D01*
X113682118Y-128514628D01*
X113679600Y-128489060D01*
X113679600Y-128050940D01*
X113682118Y-128025372D01*
X113687786Y-128006686D01*
X113696990Y-127989467D01*
X113709375Y-127974375D01*
X113724467Y-127961990D01*
X113741686Y-127952786D01*
X113760372Y-127947118D01*
X113785940Y-127944600D01*
X115674060Y-127944600D01*
X115699628Y-127947118D01*
G37*
G36*
X124999628Y-127947118D02*
G01*
X125018314Y-127952786D01*
X125035533Y-127961990D01*
X125050625Y-127974375D01*
X125063010Y-127989467D01*
X125072214Y-128006686D01*
X125077882Y-128025372D01*
X125080400Y-128050940D01*
X125080400Y-128489060D01*
X125077882Y-128514628D01*
X125072214Y-128533314D01*
X125063010Y-128550533D01*
X125050625Y-128565625D01*
X125035533Y-128578010D01*
X125018314Y-128587214D01*
X124999628Y-128592882D01*
X124974060Y-128595400D01*
X123085940Y-128595400D01*
X123060372Y-128592882D01*
X123041686Y-128587214D01*
X123024467Y-128578010D01*
X123009375Y-128565625D01*
X122996990Y-128550533D01*
X122987786Y-128533314D01*
X122982118Y-128514628D01*
X122979600Y-128489060D01*
X122979600Y-128050940D01*
X122982118Y-128025372D01*
X122987786Y-128006686D01*
X122996990Y-127989467D01*
X123009375Y-127974375D01*
X123024467Y-127961990D01*
X123041686Y-127952786D01*
X123060372Y-127947118D01*
X123085940Y-127944600D01*
X124974060Y-127944600D01*
X124999628Y-127947118D01*
G37*
G36*
X124999628Y-126677118D02*
G01*
X125018314Y-126682786D01*
X125035533Y-126691990D01*
X125050625Y-126704375D01*
X125063010Y-126719467D01*
X125072214Y-126736686D01*
X125077882Y-126755372D01*
X125080400Y-126780940D01*
X125080400Y-127219060D01*
X125077882Y-127244628D01*
X125072214Y-127263314D01*
X125063010Y-127280533D01*
X125050625Y-127295625D01*
X125035533Y-127308010D01*
X125018314Y-127317214D01*
X124999628Y-127322882D01*
X124974060Y-127325400D01*
X123085940Y-127325400D01*
X123060372Y-127322882D01*
X123041686Y-127317214D01*
X123024467Y-127308010D01*
X123009375Y-127295625D01*
X122996990Y-127280533D01*
X122987786Y-127263314D01*
X122982118Y-127244628D01*
X122979600Y-127219060D01*
X122979600Y-126780940D01*
X122982118Y-126755372D01*
X122987786Y-126736686D01*
X122996990Y-126719467D01*
X123009375Y-126704375D01*
X123024467Y-126691990D01*
X123041686Y-126682786D01*
X123060372Y-126677118D01*
X123085940Y-126674600D01*
X124974060Y-126674600D01*
X124999628Y-126677118D01*
G37*
G36*
X115699628Y-126677118D02*
G01*
X115718314Y-126682786D01*
X115735533Y-126691990D01*
X115750625Y-126704375D01*
X115763010Y-126719467D01*
X115772214Y-126736686D01*
X115777882Y-126755372D01*
X115780400Y-126780940D01*
X115780400Y-127219060D01*
X115777882Y-127244628D01*
X115772214Y-127263314D01*
X115763010Y-127280533D01*
X115750625Y-127295625D01*
X115735533Y-127308010D01*
X115718314Y-127317214D01*
X115699628Y-127322882D01*
X115674060Y-127325400D01*
X113785940Y-127325400D01*
X113760372Y-127322882D01*
X113741686Y-127317214D01*
X113724467Y-127308010D01*
X113709375Y-127295625D01*
X113696990Y-127280533D01*
X113687786Y-127263314D01*
X113682118Y-127244628D01*
X113679600Y-127219060D01*
X113679600Y-126780940D01*
X113682118Y-126755372D01*
X113687786Y-126736686D01*
X113696990Y-126719467D01*
X113709375Y-126704375D01*
X113724467Y-126691990D01*
X113741686Y-126682786D01*
X113760372Y-126677118D01*
X113785940Y-126674600D01*
X115674060Y-126674600D01*
X115699628Y-126677118D01*
G37*
G36*
X110110345Y-124888240D02*
G01*
X110269656Y-124954229D01*
X110269658Y-124954230D01*
X110413035Y-125050032D01*
X110534968Y-125171965D01*
X110630771Y-125315344D01*
X110696760Y-125474655D01*
X110730400Y-125643779D01*
X110730400Y-125816221D01*
X110696760Y-125985345D01*
X110668785Y-126052882D01*
X110630770Y-126144658D01*
X110534968Y-126288035D01*
X110413035Y-126409968D01*
X110269658Y-126505770D01*
X110269657Y-126505771D01*
X110269656Y-126505771D01*
X110110345Y-126571760D01*
X109941221Y-126605400D01*
X109768779Y-126605400D01*
X109599655Y-126571760D01*
X109440344Y-126505771D01*
X109440343Y-126505771D01*
X109440342Y-126505770D01*
X109296965Y-126409968D01*
X109175032Y-126288035D01*
X109079230Y-126144658D01*
X109041215Y-126052882D01*
X109013240Y-125985345D01*
X108979600Y-125816221D01*
X108979600Y-125643779D01*
X109013240Y-125474655D01*
X109079229Y-125315344D01*
X109175032Y-125171965D01*
X109296965Y-125050032D01*
X109440342Y-124954230D01*
X109440344Y-124954229D01*
X109599655Y-124888240D01*
X109768779Y-124854600D01*
X109941221Y-124854600D01*
X110110345Y-124888240D01*
G37*
G36*
X124999628Y-125407118D02*
G01*
X125018314Y-125412786D01*
X125035533Y-125421990D01*
X125050625Y-125434375D01*
X125063010Y-125449467D01*
X125072214Y-125466686D01*
X125077882Y-125485372D01*
X125080400Y-125510940D01*
X125080400Y-125949060D01*
X125077882Y-125974628D01*
X125072214Y-125993314D01*
X125063010Y-126010533D01*
X125050625Y-126025625D01*
X125035533Y-126038010D01*
X125018314Y-126047214D01*
X124999628Y-126052882D01*
X124974060Y-126055400D01*
X123085940Y-126055400D01*
X123060372Y-126052882D01*
X123041686Y-126047214D01*
X123024467Y-126038010D01*
X123009375Y-126025625D01*
X122996990Y-126010533D01*
X122987786Y-125993314D01*
X122982118Y-125974628D01*
X122979600Y-125949060D01*
X122979600Y-125510940D01*
X122982118Y-125485372D01*
X122987786Y-125466686D01*
X122996990Y-125449467D01*
X123009375Y-125434375D01*
X123024467Y-125421990D01*
X123041686Y-125412786D01*
X123060372Y-125407118D01*
X123085940Y-125404600D01*
X124974060Y-125404600D01*
X124999628Y-125407118D01*
G37*
G36*
X115699628Y-125407118D02*
G01*
X115718314Y-125412786D01*
X115735533Y-125421990D01*
X115750625Y-125434375D01*
X115763010Y-125449467D01*
X115772214Y-125466686D01*
X115777882Y-125485372D01*
X115780400Y-125510940D01*
X115780400Y-125949060D01*
X115777882Y-125974628D01*
X115772214Y-125993314D01*
X115763010Y-126010533D01*
X115750625Y-126025625D01*
X115735533Y-126038010D01*
X115718314Y-126047214D01*
X115699628Y-126052882D01*
X115674060Y-126055400D01*
X113785940Y-126055400D01*
X113760372Y-126052882D01*
X113741686Y-126047214D01*
X113724467Y-126038010D01*
X113709375Y-126025625D01*
X113696990Y-126010533D01*
X113687786Y-125993314D01*
X113682118Y-125974628D01*
X113679600Y-125949060D01*
X113679600Y-125510940D01*
X113682118Y-125485372D01*
X113687786Y-125466686D01*
X113696990Y-125449467D01*
X113709375Y-125434375D01*
X113724467Y-125421990D01*
X113741686Y-125412786D01*
X113760372Y-125407118D01*
X113785940Y-125404600D01*
X115674060Y-125404600D01*
X115699628Y-125407118D01*
G37*
G36*
X115699628Y-124137118D02*
G01*
X115718314Y-124142786D01*
X115735533Y-124151990D01*
X115750625Y-124164375D01*
X115763010Y-124179467D01*
X115772214Y-124196686D01*
X115777882Y-124215372D01*
X115780400Y-124240940D01*
X115780400Y-124679060D01*
X115777882Y-124704628D01*
X115772214Y-124723314D01*
X115763010Y-124740533D01*
X115750625Y-124755625D01*
X115735533Y-124768010D01*
X115718314Y-124777214D01*
X115699628Y-124782882D01*
X115674060Y-124785400D01*
X113785940Y-124785400D01*
X113760372Y-124782882D01*
X113741686Y-124777214D01*
X113724467Y-124768010D01*
X113709375Y-124755625D01*
X113696990Y-124740533D01*
X113687786Y-124723314D01*
X113682118Y-124704628D01*
X113679600Y-124679060D01*
X113679600Y-124240940D01*
X113682118Y-124215372D01*
X113687786Y-124196686D01*
X113696990Y-124179467D01*
X113709375Y-124164375D01*
X113724467Y-124151990D01*
X113741686Y-124142786D01*
X113760372Y-124137118D01*
X113785940Y-124134600D01*
X115674060Y-124134600D01*
X115699628Y-124137118D01*
G37*
G36*
X124999628Y-124137118D02*
G01*
X125018314Y-124142786D01*
X125035533Y-124151990D01*
X125050625Y-124164375D01*
X125063010Y-124179467D01*
X125072214Y-124196686D01*
X125077882Y-124215372D01*
X125080400Y-124240940D01*
X125080400Y-124679060D01*
X125077882Y-124704628D01*
X125072214Y-124723314D01*
X125063010Y-124740533D01*
X125050625Y-124755625D01*
X125035533Y-124768010D01*
X125018314Y-124777214D01*
X124999628Y-124782882D01*
X124974060Y-124785400D01*
X123085940Y-124785400D01*
X123060372Y-124782882D01*
X123041686Y-124777214D01*
X123024467Y-124768010D01*
X123009375Y-124755625D01*
X122996990Y-124740533D01*
X122987786Y-124723314D01*
X122982118Y-124704628D01*
X122979600Y-124679060D01*
X122979600Y-124240940D01*
X122982118Y-124215372D01*
X122987786Y-124196686D01*
X122996990Y-124179467D01*
X123009375Y-124164375D01*
X123024467Y-124151990D01*
X123041686Y-124142786D01*
X123060372Y-124137118D01*
X123085940Y-124134600D01*
X124974060Y-124134600D01*
X124999628Y-124137118D01*
G37*
G36*
X110110345Y-122348240D02*
G01*
X110269656Y-122414229D01*
X110269658Y-122414230D01*
X110413035Y-122510032D01*
X110534968Y-122631965D01*
X110630771Y-122775344D01*
X110696760Y-122934655D01*
X110730400Y-123103779D01*
X110730400Y-123276221D01*
X110696760Y-123445345D01*
X110668785Y-123512882D01*
X110630770Y-123604658D01*
X110534968Y-123748035D01*
X110413035Y-123869968D01*
X110269658Y-123965770D01*
X110269657Y-123965771D01*
X110269656Y-123965771D01*
X110110345Y-124031760D01*
X109941221Y-124065400D01*
X109768779Y-124065400D01*
X109599655Y-124031760D01*
X109440344Y-123965771D01*
X109440343Y-123965771D01*
X109440342Y-123965770D01*
X109296965Y-123869968D01*
X109175032Y-123748035D01*
X109079230Y-123604658D01*
X109041215Y-123512882D01*
X109013240Y-123445345D01*
X108979600Y-123276221D01*
X108979600Y-123103779D01*
X109013240Y-122934655D01*
X109079229Y-122775344D01*
X109175032Y-122631965D01*
X109296965Y-122510032D01*
X109440342Y-122414230D01*
X109440344Y-122414229D01*
X109599655Y-122348240D01*
X109768779Y-122314600D01*
X109941221Y-122314600D01*
X110110345Y-122348240D01*
G37*
G36*
X115699628Y-122867118D02*
G01*
X115718314Y-122872786D01*
X115735533Y-122881990D01*
X115750625Y-122894375D01*
X115763010Y-122909467D01*
X115772214Y-122926686D01*
X115777882Y-122945372D01*
X115780400Y-122970940D01*
X115780400Y-123409060D01*
X115777882Y-123434628D01*
X115772214Y-123453314D01*
X115763010Y-123470533D01*
X115750625Y-123485625D01*
X115735533Y-123498010D01*
X115718314Y-123507214D01*
X115699628Y-123512882D01*
X115674060Y-123515400D01*
X113785940Y-123515400D01*
X113760372Y-123512882D01*
X113741686Y-123507214D01*
X113724467Y-123498010D01*
X113709375Y-123485625D01*
X113696990Y-123470533D01*
X113687786Y-123453314D01*
X113682118Y-123434628D01*
X113679600Y-123409060D01*
X113679600Y-122970940D01*
X113682118Y-122945372D01*
X113687786Y-122926686D01*
X113696990Y-122909467D01*
X113709375Y-122894375D01*
X113724467Y-122881990D01*
X113741686Y-122872786D01*
X113760372Y-122867118D01*
X113785940Y-122864600D01*
X115674060Y-122864600D01*
X115699628Y-122867118D01*
G37*
G36*
X124999628Y-122867118D02*
G01*
X125018314Y-122872786D01*
X125035533Y-122881990D01*
X125050625Y-122894375D01*
X125063010Y-122909467D01*
X125072214Y-122926686D01*
X125077882Y-122945372D01*
X125080400Y-122970940D01*
X125080400Y-123409060D01*
X125077882Y-123434628D01*
X125072214Y-123453314D01*
X125063010Y-123470533D01*
X125050625Y-123485625D01*
X125035533Y-123498010D01*
X125018314Y-123507214D01*
X124999628Y-123512882D01*
X124974060Y-123515400D01*
X123085940Y-123515400D01*
X123060372Y-123512882D01*
X123041686Y-123507214D01*
X123024467Y-123498010D01*
X123009375Y-123485625D01*
X122996990Y-123470533D01*
X122987786Y-123453314D01*
X122982118Y-123434628D01*
X122979600Y-123409060D01*
X122979600Y-122970940D01*
X122982118Y-122945372D01*
X122987786Y-122926686D01*
X122996990Y-122909467D01*
X123009375Y-122894375D01*
X123024467Y-122881990D01*
X123041686Y-122872786D01*
X123060372Y-122867118D01*
X123085940Y-122864600D01*
X124974060Y-122864600D01*
X124999628Y-122867118D01*
G37*
G36*
X124304292Y-120788439D02*
G01*
X124335872Y-120798019D01*
X124364978Y-120813577D01*
X124390488Y-120834512D01*
X124411423Y-120860022D01*
X124426981Y-120889128D01*
X124436561Y-120920708D01*
X124440400Y-120959690D01*
X124440400Y-121610310D01*
X124436561Y-121649292D01*
X124426981Y-121680872D01*
X124411423Y-121709978D01*
X124390488Y-121735488D01*
X124364978Y-121756423D01*
X124335872Y-121771981D01*
X124304292Y-121781561D01*
X124265310Y-121785400D01*
X123689690Y-121785400D01*
X123650708Y-121781561D01*
X123619128Y-121771981D01*
X123590022Y-121756423D01*
X123564512Y-121735488D01*
X123543577Y-121709978D01*
X123528019Y-121680872D01*
X123518439Y-121649292D01*
X123514600Y-121610310D01*
X123514600Y-120959690D01*
X123518439Y-120920708D01*
X123528019Y-120889128D01*
X123543577Y-120860022D01*
X123564512Y-120834512D01*
X123590022Y-120813577D01*
X123619128Y-120798019D01*
X123650708Y-120788439D01*
X123689690Y-120784600D01*
X124265310Y-120784600D01*
X124304292Y-120788439D01*
G37*
G36*
X122729292Y-120788439D02*
G01*
X122760872Y-120798019D01*
X122789978Y-120813577D01*
X122815488Y-120834512D01*
X122836423Y-120860022D01*
X122851981Y-120889128D01*
X122861561Y-120920708D01*
X122865400Y-120959690D01*
X122865400Y-121610310D01*
X122861561Y-121649292D01*
X122851981Y-121680872D01*
X122836423Y-121709978D01*
X122815488Y-121735488D01*
X122789978Y-121756423D01*
X122760872Y-121771981D01*
X122729292Y-121781561D01*
X122690310Y-121785400D01*
X122114690Y-121785400D01*
X122075708Y-121781561D01*
X122044128Y-121771981D01*
X122015022Y-121756423D01*
X121989512Y-121735488D01*
X121968577Y-121709978D01*
X121953019Y-121680872D01*
X121943439Y-121649292D01*
X121939600Y-121610310D01*
X121939600Y-120959690D01*
X121943439Y-120920708D01*
X121953019Y-120889128D01*
X121968577Y-120860022D01*
X121989512Y-120834512D01*
X122015022Y-120813577D01*
X122044128Y-120798019D01*
X122075708Y-120788439D01*
X122114690Y-120784600D01*
X122690310Y-120784600D01*
X122729292Y-120788439D01*
G37*
G36*
X110110345Y-119808240D02*
G01*
X110269656Y-119874229D01*
X110269658Y-119874230D01*
X110413035Y-119970032D01*
X110534968Y-120091965D01*
X110624355Y-120225741D01*
X110630771Y-120235344D01*
X110696760Y-120394655D01*
X110730400Y-120563779D01*
X110730400Y-120736221D01*
X110696760Y-120905345D01*
X110650904Y-121016050D01*
X110630770Y-121064658D01*
X110534968Y-121208035D01*
X110413035Y-121329968D01*
X110269658Y-121425770D01*
X110269657Y-121425771D01*
X110269656Y-121425771D01*
X110110345Y-121491760D01*
X109941221Y-121525400D01*
X109768779Y-121525400D01*
X109599655Y-121491760D01*
X109440344Y-121425771D01*
X109440343Y-121425771D01*
X109440342Y-121425770D01*
X109296965Y-121329968D01*
X109175032Y-121208035D01*
X109079230Y-121064658D01*
X109059096Y-121016050D01*
X109013240Y-120905345D01*
X108979600Y-120736221D01*
X108979600Y-120563779D01*
X109013240Y-120394655D01*
X109079229Y-120235344D01*
X109085646Y-120225741D01*
X109175032Y-120091965D01*
X109296965Y-119970032D01*
X109440342Y-119874230D01*
X109440344Y-119874229D01*
X109599655Y-119808240D01*
X109768779Y-119774600D01*
X109941221Y-119774600D01*
X110110345Y-119808240D01*
G37*
G36*
X118474292Y-119708440D02*
G01*
X118505872Y-119718020D01*
X118534978Y-119733578D01*
X118560488Y-119754513D01*
X118581423Y-119780023D01*
X118596981Y-119809129D01*
X118606561Y-119840709D01*
X118610400Y-119879691D01*
X118610400Y-120455311D01*
X118606561Y-120494293D01*
X118596981Y-120525873D01*
X118581423Y-120554979D01*
X118560488Y-120580489D01*
X118534978Y-120601424D01*
X118505872Y-120616982D01*
X118474292Y-120626562D01*
X118435310Y-120630401D01*
X117784690Y-120630401D01*
X117745708Y-120626562D01*
X117714128Y-120616982D01*
X117685022Y-120601424D01*
X117659512Y-120580489D01*
X117638577Y-120554979D01*
X117623019Y-120525873D01*
X117613439Y-120494293D01*
X117609600Y-120455311D01*
X117609600Y-119879691D01*
X117613439Y-119840709D01*
X117623019Y-119809129D01*
X117638577Y-119780023D01*
X117659512Y-119754513D01*
X117685022Y-119733578D01*
X117714128Y-119718020D01*
X117745708Y-119708440D01*
X117784690Y-119704601D01*
X118435310Y-119704601D01*
X118474292Y-119708440D01*
G37*
G36*
X114664292Y-119708439D02*
G01*
X114695872Y-119718019D01*
X114724978Y-119733577D01*
X114750488Y-119754512D01*
X114771423Y-119780022D01*
X114786981Y-119809128D01*
X114796561Y-119840708D01*
X114800400Y-119879690D01*
X114800400Y-120455310D01*
X114796561Y-120494292D01*
X114786981Y-120525872D01*
X114771423Y-120554978D01*
X114750488Y-120580488D01*
X114724978Y-120601423D01*
X114695872Y-120616981D01*
X114664292Y-120626561D01*
X114625310Y-120630400D01*
X113974690Y-120630400D01*
X113935708Y-120626561D01*
X113904128Y-120616981D01*
X113875022Y-120601423D01*
X113849512Y-120580488D01*
X113828577Y-120554978D01*
X113813019Y-120525872D01*
X113803439Y-120494292D01*
X113799600Y-120455310D01*
X113799600Y-119879690D01*
X113803439Y-119840708D01*
X113813019Y-119809128D01*
X113828577Y-119780022D01*
X113849512Y-119754512D01*
X113875022Y-119733577D01*
X113904128Y-119718019D01*
X113935708Y-119708439D01*
X113974690Y-119704600D01*
X114625310Y-119704600D01*
X114664292Y-119708439D01*
G37*
G36*
X116569292Y-119708439D02*
G01*
X116600872Y-119718019D01*
X116629978Y-119733577D01*
X116655488Y-119754512D01*
X116676423Y-119780022D01*
X116691981Y-119809128D01*
X116701561Y-119840708D01*
X116705400Y-119879690D01*
X116705400Y-120455310D01*
X116701561Y-120494292D01*
X116691981Y-120525872D01*
X116676423Y-120554978D01*
X116655488Y-120580488D01*
X116629978Y-120601423D01*
X116600872Y-120616981D01*
X116569292Y-120626561D01*
X116530310Y-120630400D01*
X115879690Y-120630400D01*
X115840708Y-120626561D01*
X115809128Y-120616981D01*
X115780022Y-120601423D01*
X115754512Y-120580488D01*
X115733577Y-120554978D01*
X115718019Y-120525872D01*
X115708439Y-120494292D01*
X115704600Y-120455310D01*
X115704600Y-119879690D01*
X115708439Y-119840708D01*
X115718019Y-119809128D01*
X115733577Y-119780022D01*
X115754512Y-119754512D01*
X115780022Y-119733577D01*
X115809128Y-119718019D01*
X115840708Y-119708439D01*
X115879690Y-119704600D01*
X116530310Y-119704600D01*
X116569292Y-119708439D01*
G37*
G36*
X121656245Y-118483751D02*
G01*
X121690866Y-118494253D01*
X121722774Y-118511308D01*
X121750741Y-118534259D01*
X121773692Y-118562226D01*
X121790747Y-118594134D01*
X121801249Y-118628755D01*
X121805400Y-118670901D01*
X121805400Y-120089099D01*
X121801249Y-120131245D01*
X121790747Y-120165866D01*
X121773692Y-120197774D01*
X121750741Y-120225741D01*
X121722774Y-120248692D01*
X121690866Y-120265747D01*
X121656245Y-120276249D01*
X121614099Y-120280400D01*
X120695901Y-120280400D01*
X120653755Y-120276249D01*
X120619134Y-120265747D01*
X120587226Y-120248692D01*
X120559259Y-120225741D01*
X120536308Y-120197774D01*
X120519253Y-120165866D01*
X120508751Y-120131245D01*
X120504600Y-120089099D01*
X120504600Y-118670901D01*
X120508751Y-118628755D01*
X120519253Y-118594134D01*
X120536308Y-118562226D01*
X120559259Y-118534259D01*
X120587226Y-118511308D01*
X120619134Y-118494253D01*
X120653755Y-118483751D01*
X120695901Y-118479600D01*
X121614099Y-118479600D01*
X121656245Y-118483751D01*
G37*
G36*
X124456245Y-118483751D02*
G01*
X124490866Y-118494253D01*
X124522774Y-118511308D01*
X124550741Y-118534259D01*
X124573692Y-118562226D01*
X124590747Y-118594134D01*
X124601249Y-118628755D01*
X124605400Y-118670901D01*
X124605400Y-120089099D01*
X124601249Y-120131245D01*
X124590747Y-120165866D01*
X124573692Y-120197774D01*
X124550741Y-120225741D01*
X124522774Y-120248692D01*
X124490866Y-120265747D01*
X124456245Y-120276249D01*
X124414099Y-120280400D01*
X123495901Y-120280400D01*
X123453755Y-120276249D01*
X123419134Y-120265747D01*
X123387226Y-120248692D01*
X123359259Y-120225741D01*
X123336308Y-120197774D01*
X123319253Y-120165866D01*
X123308751Y-120131245D01*
X123304600Y-120089099D01*
X123304600Y-118670901D01*
X123308751Y-118628755D01*
X123319253Y-118594134D01*
X123336308Y-118562226D01*
X123359259Y-118534259D01*
X123387226Y-118511308D01*
X123419134Y-118494253D01*
X123453755Y-118483751D01*
X123495901Y-118479600D01*
X124414099Y-118479600D01*
X124456245Y-118483751D01*
G37*
G36*
X116569292Y-118133439D02*
G01*
X116600872Y-118143019D01*
X116629978Y-118158577D01*
X116655488Y-118179512D01*
X116676423Y-118205022D01*
X116691981Y-118234128D01*
X116701561Y-118265708D01*
X116705400Y-118304690D01*
X116705400Y-118880310D01*
X116701561Y-118919292D01*
X116691981Y-118950872D01*
X116676423Y-118979978D01*
X116655488Y-119005488D01*
X116629978Y-119026423D01*
X116600872Y-119041981D01*
X116569292Y-119051561D01*
X116530310Y-119055400D01*
X115879690Y-119055400D01*
X115840708Y-119051561D01*
X115809128Y-119041981D01*
X115780022Y-119026423D01*
X115754512Y-119005488D01*
X115733577Y-118979978D01*
X115718019Y-118950872D01*
X115708439Y-118919292D01*
X115704600Y-118880310D01*
X115704600Y-118304690D01*
X115708439Y-118265708D01*
X115718019Y-118234128D01*
X115733577Y-118205022D01*
X115754512Y-118179512D01*
X115780022Y-118158577D01*
X115809128Y-118143019D01*
X115840708Y-118133439D01*
X115879690Y-118129600D01*
X116530310Y-118129600D01*
X116569292Y-118133439D01*
G37*
G36*
X114664292Y-118133439D02*
G01*
X114695872Y-118143019D01*
X114724978Y-118158577D01*
X114750488Y-118179512D01*
X114771423Y-118205022D01*
X114786981Y-118234128D01*
X114796561Y-118265708D01*
X114800400Y-118304690D01*
X114800400Y-118880310D01*
X114796561Y-118919292D01*
X114786981Y-118950872D01*
X114771423Y-118979978D01*
X114750488Y-119005488D01*
X114724978Y-119026423D01*
X114695872Y-119041981D01*
X114664292Y-119051561D01*
X114625310Y-119055400D01*
X113974690Y-119055400D01*
X113935708Y-119051561D01*
X113904128Y-119041981D01*
X113875022Y-119026423D01*
X113849512Y-119005488D01*
X113828577Y-118979978D01*
X113813019Y-118950872D01*
X113803439Y-118919292D01*
X113799600Y-118880310D01*
X113799600Y-118304690D01*
X113803439Y-118265708D01*
X113813019Y-118234128D01*
X113828577Y-118205022D01*
X113849512Y-118179512D01*
X113875022Y-118158577D01*
X113904128Y-118143019D01*
X113935708Y-118133439D01*
X113974690Y-118129600D01*
X114625310Y-118129600D01*
X114664292Y-118133439D01*
G37*
G36*
X118474292Y-118133438D02*
G01*
X118505872Y-118143018D01*
X118534978Y-118158576D01*
X118560488Y-118179511D01*
X118581423Y-118205021D01*
X118596981Y-118234127D01*
X118606561Y-118265707D01*
X118610400Y-118304689D01*
X118610400Y-118880309D01*
X118606561Y-118919291D01*
X118596981Y-118950871D01*
X118581423Y-118979977D01*
X118560488Y-119005487D01*
X118534978Y-119026422D01*
X118505872Y-119041980D01*
X118474292Y-119051560D01*
X118435310Y-119055399D01*
X117784690Y-119055399D01*
X117745708Y-119051560D01*
X117714128Y-119041980D01*
X117685022Y-119026422D01*
X117659512Y-119005487D01*
X117638577Y-118979977D01*
X117623019Y-118950871D01*
X117613439Y-118919291D01*
X117609600Y-118880309D01*
X117609600Y-118304689D01*
X117613439Y-118265707D01*
X117623019Y-118234127D01*
X117638577Y-118205021D01*
X117659512Y-118179511D01*
X117685022Y-118158576D01*
X117714128Y-118143018D01*
X117745708Y-118133438D01*
X117784690Y-118129599D01*
X118435310Y-118129599D01*
X118474292Y-118133438D01*
G37*
G36*
X110110345Y-117268240D02*
G01*
X110269656Y-117334229D01*
X110269658Y-117334230D01*
X110278892Y-117340400D01*
X110413035Y-117430032D01*
X110534968Y-117551965D01*
X110630771Y-117695344D01*
X110696760Y-117854655D01*
X110730400Y-118023779D01*
X110730400Y-118196221D01*
X110696760Y-118365345D01*
X110630771Y-118524656D01*
X110630770Y-118524658D01*
X110534968Y-118668035D01*
X110413035Y-118789968D01*
X110269658Y-118885770D01*
X110269657Y-118885771D01*
X110269656Y-118885771D01*
X110110345Y-118951760D01*
X109941221Y-118985400D01*
X109768779Y-118985400D01*
X109599655Y-118951760D01*
X109440344Y-118885771D01*
X109440343Y-118885771D01*
X109440342Y-118885770D01*
X109296965Y-118789968D01*
X109175032Y-118668035D01*
X109079230Y-118524658D01*
X109079229Y-118524656D01*
X109013240Y-118365345D01*
X108979600Y-118196221D01*
X108979600Y-118023779D01*
X109013240Y-117854655D01*
X109079229Y-117695344D01*
X109175032Y-117551965D01*
X109296965Y-117430032D01*
X109431108Y-117340400D01*
X109440342Y-117334230D01*
X109440344Y-117334229D01*
X109599655Y-117268240D01*
X109768779Y-117234600D01*
X109941221Y-117234600D01*
X110110345Y-117268240D01*
G37*
G36*
X121459292Y-116343439D02*
G01*
X121490872Y-116353019D01*
X121519978Y-116368577D01*
X121545488Y-116389512D01*
X121566423Y-116415022D01*
X121581981Y-116444128D01*
X121591561Y-116475708D01*
X121595400Y-116514690D01*
X121595400Y-117165310D01*
X121591561Y-117204292D01*
X121581981Y-117235872D01*
X121566423Y-117264978D01*
X121545488Y-117290488D01*
X121519978Y-117311423D01*
X121490872Y-117326981D01*
X121459292Y-117336561D01*
X121420310Y-117340400D01*
X120844690Y-117340400D01*
X120805708Y-117336561D01*
X120774128Y-117326981D01*
X120745022Y-117311423D01*
X120719512Y-117290488D01*
X120698577Y-117264978D01*
X120683019Y-117235872D01*
X120673439Y-117204292D01*
X120669600Y-117165310D01*
X120669600Y-116514690D01*
X120673439Y-116475708D01*
X120683019Y-116444128D01*
X120698577Y-116415022D01*
X120719512Y-116389512D01*
X120745022Y-116368577D01*
X120774128Y-116353019D01*
X120805708Y-116343439D01*
X120844690Y-116339600D01*
X121420310Y-116339600D01*
X121459292Y-116343439D01*
G37*
G36*
X123034292Y-116343439D02*
G01*
X123065872Y-116353019D01*
X123094978Y-116368577D01*
X123120488Y-116389512D01*
X123141423Y-116415022D01*
X123156981Y-116444128D01*
X123166561Y-116475708D01*
X123170400Y-116514690D01*
X123170400Y-117165310D01*
X123166561Y-117204292D01*
X123156981Y-117235872D01*
X123141423Y-117264978D01*
X123120488Y-117290488D01*
X123094978Y-117311423D01*
X123065872Y-117326981D01*
X123034292Y-117336561D01*
X122995310Y-117340400D01*
X122419690Y-117340400D01*
X122380708Y-117336561D01*
X122349128Y-117326981D01*
X122320022Y-117311423D01*
X122294512Y-117290488D01*
X122273577Y-117264978D01*
X122258019Y-117235872D01*
X122248439Y-117204292D01*
X122244600Y-117165310D01*
X122244600Y-116514690D01*
X122248439Y-116475708D01*
X122258019Y-116444128D01*
X122273577Y-116415022D01*
X122294512Y-116389512D01*
X122320022Y-116368577D01*
X122349128Y-116353019D01*
X122380708Y-116343439D01*
X122419690Y-116339600D01*
X122995310Y-116339600D01*
X123034292Y-116343439D01*
G37*
G36*
X110730400Y-116445400D02*
G01*
X108979600Y-116445400D01*
X108979600Y-114694600D01*
X110730400Y-114694600D01*
X110730400Y-116445400D01*
G37*
G36*
X110730400Y-110730400D02*
G01*
X108979600Y-110730400D01*
X108979600Y-108979600D01*
X110730400Y-108979600D01*
X110730400Y-110730400D01*
G37*
G36*
X93654172Y-109296511D02*
G01*
X93685752Y-109306091D01*
X93714858Y-109321649D01*
X93745132Y-109346494D01*
X93784984Y-109386346D01*
X93784990Y-109386351D01*
X94165343Y-109766704D01*
X94165348Y-109766710D01*
X94205200Y-109806562D01*
X94230045Y-109836836D01*
X94245603Y-109865942D01*
X94255183Y-109897522D01*
X94258417Y-109930364D01*
X94255183Y-109963206D01*
X94245603Y-109994786D01*
X94230045Y-110023892D01*
X94205200Y-110054166D01*
X94165348Y-110094018D01*
X94165343Y-110094024D01*
X93838024Y-110421343D01*
X93838018Y-110421348D01*
X93798166Y-110461200D01*
X93767892Y-110486045D01*
X93738786Y-110501603D01*
X93707206Y-110511183D01*
X93674364Y-110514417D01*
X93641522Y-110511183D01*
X93609942Y-110501603D01*
X93580836Y-110486045D01*
X93550562Y-110461200D01*
X93510710Y-110421348D01*
X93510704Y-110421343D01*
X93130351Y-110040990D01*
X93130346Y-110040984D01*
X93090494Y-110001132D01*
X93065649Y-109970858D01*
X93050091Y-109941752D01*
X93040511Y-109910172D01*
X93037277Y-109877330D01*
X93040511Y-109844488D01*
X93050091Y-109812908D01*
X93065649Y-109783802D01*
X93090494Y-109753528D01*
X93130346Y-109713676D01*
X93130351Y-109713670D01*
X93457670Y-109386351D01*
X93457676Y-109386346D01*
X93497528Y-109346494D01*
X93527802Y-109321649D01*
X93556908Y-109306091D01*
X93588488Y-109296511D01*
X93621330Y-109293277D01*
X93654172Y-109296511D01*
G37*
G36*
X118741245Y-107688751D02*
G01*
X118775866Y-107699253D01*
X118807774Y-107716308D01*
X118835741Y-107739259D01*
X118858692Y-107767226D01*
X118875747Y-107799134D01*
X118886249Y-107833755D01*
X118890400Y-107875901D01*
X118890400Y-109294099D01*
X118886249Y-109336245D01*
X118875747Y-109370866D01*
X118858692Y-109402774D01*
X118835741Y-109430741D01*
X118807774Y-109453692D01*
X118775866Y-109470747D01*
X118741245Y-109481249D01*
X118699099Y-109485400D01*
X117780901Y-109485400D01*
X117738755Y-109481249D01*
X117704134Y-109470747D01*
X117672226Y-109453692D01*
X117644259Y-109430741D01*
X117621308Y-109402774D01*
X117604253Y-109370866D01*
X117593751Y-109336245D01*
X117589600Y-109294099D01*
X117589600Y-107875901D01*
X117593751Y-107833755D01*
X117604253Y-107799134D01*
X117621308Y-107767226D01*
X117644259Y-107739259D01*
X117672226Y-107716308D01*
X117704134Y-107699253D01*
X117738755Y-107688751D01*
X117780901Y-107684600D01*
X118699099Y-107684600D01*
X118741245Y-107688751D01*
G37*
G36*
X115941245Y-107688751D02*
G01*
X115975866Y-107699253D01*
X116007774Y-107716308D01*
X116035741Y-107739259D01*
X116058692Y-107767226D01*
X116075747Y-107799134D01*
X116086249Y-107833755D01*
X116090400Y-107875901D01*
X116090400Y-109294099D01*
X116086249Y-109336245D01*
X116075747Y-109370866D01*
X116058692Y-109402774D01*
X116035741Y-109430741D01*
X116007774Y-109453692D01*
X115975866Y-109470747D01*
X115941245Y-109481249D01*
X115899099Y-109485400D01*
X114980901Y-109485400D01*
X114938755Y-109481249D01*
X114904134Y-109470747D01*
X114872226Y-109453692D01*
X114844259Y-109430741D01*
X114821308Y-109402774D01*
X114804253Y-109370866D01*
X114793751Y-109336245D01*
X114789600Y-109294099D01*
X114789600Y-107875901D01*
X114793751Y-107833755D01*
X114804253Y-107799134D01*
X114821308Y-107767226D01*
X114844259Y-107739259D01*
X114872226Y-107716308D01*
X114904134Y-107699253D01*
X114938755Y-107688751D01*
X114980901Y-107684600D01*
X115899099Y-107684600D01*
X115941245Y-107688751D01*
G37*
G36*
X92540478Y-108182817D02*
G01*
X92572058Y-108192397D01*
X92601164Y-108207955D01*
X92631438Y-108232800D01*
X92671290Y-108272652D01*
X92671296Y-108272657D01*
X93051649Y-108653010D01*
X93051654Y-108653016D01*
X93091506Y-108692868D01*
X93116351Y-108723142D01*
X93131909Y-108752248D01*
X93141489Y-108783828D01*
X93144723Y-108816670D01*
X93141489Y-108849512D01*
X93131909Y-108881092D01*
X93116351Y-108910198D01*
X93091506Y-108940472D01*
X93051654Y-108980324D01*
X93051649Y-108980330D01*
X92724330Y-109307649D01*
X92724324Y-109307654D01*
X92684472Y-109347506D01*
X92654198Y-109372351D01*
X92625092Y-109387909D01*
X92593512Y-109397489D01*
X92560670Y-109400723D01*
X92527828Y-109397489D01*
X92496248Y-109387909D01*
X92467142Y-109372351D01*
X92436868Y-109347506D01*
X92397016Y-109307654D01*
X92397010Y-109307649D01*
X92016657Y-108927296D01*
X92016652Y-108927290D01*
X91976800Y-108887438D01*
X91951955Y-108857164D01*
X91936397Y-108828058D01*
X91926817Y-108796478D01*
X91923583Y-108763636D01*
X91926817Y-108730794D01*
X91936397Y-108699214D01*
X91951955Y-108670108D01*
X91976800Y-108639834D01*
X92016652Y-108599982D01*
X92016657Y-108599976D01*
X92343976Y-108272657D01*
X92343982Y-108272652D01*
X92383834Y-108232800D01*
X92414108Y-108207955D01*
X92443214Y-108192397D01*
X92474794Y-108182817D01*
X92507636Y-108179583D01*
X92540478Y-108182817D01*
G37*
G36*
X110110345Y-106473240D02*
G01*
X110269656Y-106539229D01*
X110269658Y-106539230D01*
X110413035Y-106635032D01*
X110534968Y-106756965D01*
X110630771Y-106900344D01*
X110696760Y-107059655D01*
X110730400Y-107228779D01*
X110730400Y-107401221D01*
X110696760Y-107570345D01*
X110630771Y-107729656D01*
X110630770Y-107729658D01*
X110534968Y-107873035D01*
X110413035Y-107994968D01*
X110269658Y-108090770D01*
X110269657Y-108090771D01*
X110269656Y-108090771D01*
X110110345Y-108156760D01*
X109941221Y-108190400D01*
X109768779Y-108190400D01*
X109599655Y-108156760D01*
X109440344Y-108090771D01*
X109440343Y-108090771D01*
X109440342Y-108090770D01*
X109296965Y-107994968D01*
X109175032Y-107873035D01*
X109079230Y-107729658D01*
X109079229Y-107729656D01*
X109013240Y-107570345D01*
X108979600Y-107401221D01*
X108979600Y-107228779D01*
X109013240Y-107059655D01*
X109079229Y-106900344D01*
X109175032Y-106756965D01*
X109296965Y-106635032D01*
X109440342Y-106539230D01*
X109440344Y-106539229D01*
X109599655Y-106473240D01*
X109768779Y-106439600D01*
X109941221Y-106439600D01*
X110110345Y-106473240D01*
G37*
G36*
X110110345Y-103933240D02*
G01*
X110269656Y-103999229D01*
X110269658Y-103999230D01*
X110413035Y-104095032D01*
X110534968Y-104216965D01*
X110630771Y-104360344D01*
X110696760Y-104519655D01*
X110730400Y-104688779D01*
X110730400Y-104861221D01*
X110696760Y-105030345D01*
X110668785Y-105097882D01*
X110630770Y-105189658D01*
X110534968Y-105333035D01*
X110413035Y-105454968D01*
X110269658Y-105550770D01*
X110269657Y-105550771D01*
X110269656Y-105550771D01*
X110110345Y-105616760D01*
X109941221Y-105650400D01*
X109768779Y-105650400D01*
X109599655Y-105616760D01*
X109440344Y-105550771D01*
X109440343Y-105550771D01*
X109440342Y-105550770D01*
X109296965Y-105454968D01*
X109175032Y-105333035D01*
X109079230Y-105189658D01*
X109041215Y-105097882D01*
X109013240Y-105030345D01*
X108979600Y-104861221D01*
X108979600Y-104688779D01*
X109013240Y-104519655D01*
X109079229Y-104360344D01*
X109175032Y-104216965D01*
X109296965Y-104095032D01*
X109440342Y-103999230D01*
X109440344Y-103999229D01*
X109599655Y-103933240D01*
X109768779Y-103899600D01*
X109941221Y-103899600D01*
X110110345Y-103933240D01*
G37*
G36*
X113984628Y-104452118D02*
G01*
X114003314Y-104457786D01*
X114020533Y-104466990D01*
X114035625Y-104479375D01*
X114048010Y-104494467D01*
X114057214Y-104511686D01*
X114062882Y-104530372D01*
X114065400Y-104555940D01*
X114065400Y-104994060D01*
X114062882Y-105019628D01*
X114057214Y-105038314D01*
X114048010Y-105055533D01*
X114035625Y-105070625D01*
X114020533Y-105083010D01*
X114003314Y-105092214D01*
X113984628Y-105097882D01*
X113959060Y-105100400D01*
X112520940Y-105100400D01*
X112495372Y-105097882D01*
X112476686Y-105092214D01*
X112459467Y-105083010D01*
X112444375Y-105070625D01*
X112431990Y-105055533D01*
X112422786Y-105038314D01*
X112417118Y-105019628D01*
X112414600Y-104994060D01*
X112414600Y-104555940D01*
X112417118Y-104530372D01*
X112422786Y-104511686D01*
X112431990Y-104494467D01*
X112444375Y-104479375D01*
X112459467Y-104466990D01*
X112476686Y-104457786D01*
X112495372Y-104452118D01*
X112520940Y-104449600D01*
X113959060Y-104449600D01*
X113984628Y-104452118D01*
G37*
G36*
X121184628Y-104452118D02*
G01*
X121203314Y-104457786D01*
X121220533Y-104466990D01*
X121235625Y-104479375D01*
X121248010Y-104494467D01*
X121257214Y-104511686D01*
X121262882Y-104530372D01*
X121265400Y-104555940D01*
X121265400Y-104994060D01*
X121262882Y-105019628D01*
X121257214Y-105038314D01*
X121248010Y-105055533D01*
X121235625Y-105070625D01*
X121220533Y-105083010D01*
X121203314Y-105092214D01*
X121184628Y-105097882D01*
X121159060Y-105100400D01*
X119720940Y-105100400D01*
X119695372Y-105097882D01*
X119676686Y-105092214D01*
X119659467Y-105083010D01*
X119644375Y-105070625D01*
X119631990Y-105055533D01*
X119622786Y-105038314D01*
X119617118Y-105019628D01*
X119614600Y-104994060D01*
X119614600Y-104555940D01*
X119617118Y-104530372D01*
X119622786Y-104511686D01*
X119631990Y-104494467D01*
X119644375Y-104479375D01*
X119659467Y-104466990D01*
X119676686Y-104457786D01*
X119695372Y-104452118D01*
X119720940Y-104449600D01*
X121159060Y-104449600D01*
X121184628Y-104452118D01*
G37*
G36*
X113984628Y-103182118D02*
G01*
X114003314Y-103187786D01*
X114020533Y-103196990D01*
X114035625Y-103209375D01*
X114048010Y-103224467D01*
X114057214Y-103241686D01*
X114062882Y-103260372D01*
X114065400Y-103285940D01*
X114065400Y-103724060D01*
X114062882Y-103749628D01*
X114057214Y-103768314D01*
X114048010Y-103785533D01*
X114035625Y-103800625D01*
X114020533Y-103813010D01*
X114003314Y-103822214D01*
X113984628Y-103827882D01*
X113959060Y-103830400D01*
X112520940Y-103830400D01*
X112495372Y-103827882D01*
X112476686Y-103822214D01*
X112459467Y-103813010D01*
X112444375Y-103800625D01*
X112431990Y-103785533D01*
X112422786Y-103768314D01*
X112417118Y-103749628D01*
X112414600Y-103724060D01*
X112414600Y-103285940D01*
X112417118Y-103260372D01*
X112422786Y-103241686D01*
X112431990Y-103224467D01*
X112444375Y-103209375D01*
X112459467Y-103196990D01*
X112476686Y-103187786D01*
X112495372Y-103182118D01*
X112520940Y-103179600D01*
X113959060Y-103179600D01*
X113984628Y-103182118D01*
G37*
G36*
X121184628Y-103182118D02*
G01*
X121203314Y-103187786D01*
X121220533Y-103196990D01*
X121235625Y-103209375D01*
X121248010Y-103224467D01*
X121257214Y-103241686D01*
X121262882Y-103260372D01*
X121265400Y-103285940D01*
X121265400Y-103724060D01*
X121262882Y-103749628D01*
X121257214Y-103768314D01*
X121248010Y-103785533D01*
X121235625Y-103800625D01*
X121220533Y-103813010D01*
X121203314Y-103822214D01*
X121184628Y-103827882D01*
X121159060Y-103830400D01*
X119720940Y-103830400D01*
X119695372Y-103827882D01*
X119676686Y-103822214D01*
X119659467Y-103813010D01*
X119644375Y-103800625D01*
X119631990Y-103785533D01*
X119622786Y-103768314D01*
X119617118Y-103749628D01*
X119614600Y-103724060D01*
X119614600Y-103285940D01*
X119617118Y-103260372D01*
X119622786Y-103241686D01*
X119631990Y-103224467D01*
X119644375Y-103209375D01*
X119659467Y-103196990D01*
X119676686Y-103187786D01*
X119695372Y-103182118D01*
X119720940Y-103179600D01*
X121159060Y-103179600D01*
X121184628Y-103182118D01*
G37*
G36*
X110110345Y-101393240D02*
G01*
X110269656Y-101459229D01*
X110269658Y-101459230D01*
X110413035Y-101555032D01*
X110534968Y-101676965D01*
X110630771Y-101820344D01*
X110696760Y-101979655D01*
X110730400Y-102148779D01*
X110730400Y-102321221D01*
X110696760Y-102490345D01*
X110668785Y-102557882D01*
X110630770Y-102649658D01*
X110534968Y-102793035D01*
X110413035Y-102914968D01*
X110269658Y-103010770D01*
X110269657Y-103010771D01*
X110269656Y-103010771D01*
X110110345Y-103076760D01*
X109941221Y-103110400D01*
X109768779Y-103110400D01*
X109599655Y-103076760D01*
X109440344Y-103010771D01*
X109440343Y-103010771D01*
X109440342Y-103010770D01*
X109296965Y-102914968D01*
X109175032Y-102793035D01*
X109079230Y-102649658D01*
X109041215Y-102557882D01*
X109013240Y-102490345D01*
X108979600Y-102321221D01*
X108979600Y-102148779D01*
X109013240Y-101979655D01*
X109079229Y-101820344D01*
X109175032Y-101676965D01*
X109296965Y-101555032D01*
X109440342Y-101459230D01*
X109440344Y-101459229D01*
X109599655Y-101393240D01*
X109768779Y-101359600D01*
X109941221Y-101359600D01*
X110110345Y-101393240D01*
G37*
G36*
X121184628Y-101912118D02*
G01*
X121203314Y-101917786D01*
X121220533Y-101926990D01*
X121235625Y-101939375D01*
X121248010Y-101954467D01*
X121257214Y-101971686D01*
X121262882Y-101990372D01*
X121265400Y-102015940D01*
X121265400Y-102454060D01*
X121262882Y-102479628D01*
X121257214Y-102498314D01*
X121248010Y-102515533D01*
X121235625Y-102530625D01*
X121220533Y-102543010D01*
X121203314Y-102552214D01*
X121184628Y-102557882D01*
X121159060Y-102560400D01*
X119720940Y-102560400D01*
X119695372Y-102557882D01*
X119676686Y-102552214D01*
X119659467Y-102543010D01*
X119644375Y-102530625D01*
X119631990Y-102515533D01*
X119622786Y-102498314D01*
X119617118Y-102479628D01*
X119614600Y-102454060D01*
X119614600Y-102015940D01*
X119617118Y-101990372D01*
X119622786Y-101971686D01*
X119631990Y-101954467D01*
X119644375Y-101939375D01*
X119659467Y-101926990D01*
X119676686Y-101917786D01*
X119695372Y-101912118D01*
X119720940Y-101909600D01*
X121159060Y-101909600D01*
X121184628Y-101912118D01*
G37*
G36*
X113984628Y-101912118D02*
G01*
X114003314Y-101917786D01*
X114020533Y-101926990D01*
X114035625Y-101939375D01*
X114048010Y-101954467D01*
X114057214Y-101971686D01*
X114062882Y-101990372D01*
X114065400Y-102015940D01*
X114065400Y-102454060D01*
X114062882Y-102479628D01*
X114057214Y-102498314D01*
X114048010Y-102515533D01*
X114035625Y-102530625D01*
X114020533Y-102543010D01*
X114003314Y-102552214D01*
X113984628Y-102557882D01*
X113959060Y-102560400D01*
X112520940Y-102560400D01*
X112495372Y-102557882D01*
X112476686Y-102552214D01*
X112459467Y-102543010D01*
X112444375Y-102530625D01*
X112431990Y-102515533D01*
X112422786Y-102498314D01*
X112417118Y-102479628D01*
X112414600Y-102454060D01*
X112414600Y-102015940D01*
X112417118Y-101990372D01*
X112422786Y-101971686D01*
X112431990Y-101954467D01*
X112444375Y-101939375D01*
X112459467Y-101926990D01*
X112476686Y-101917786D01*
X112495372Y-101912118D01*
X112520940Y-101909600D01*
X113959060Y-101909600D01*
X113984628Y-101912118D01*
G37*
G36*
X113984628Y-100642118D02*
G01*
X114003314Y-100647786D01*
X114020533Y-100656990D01*
X114035625Y-100669375D01*
X114048010Y-100684467D01*
X114057214Y-100701686D01*
X114062882Y-100720372D01*
X114065400Y-100745940D01*
X114065400Y-101184060D01*
X114062882Y-101209628D01*
X114057214Y-101228314D01*
X114048010Y-101245533D01*
X114035625Y-101260625D01*
X114020533Y-101273010D01*
X114003314Y-101282214D01*
X113984628Y-101287882D01*
X113959060Y-101290400D01*
X112520940Y-101290400D01*
X112495372Y-101287882D01*
X112476686Y-101282214D01*
X112459467Y-101273010D01*
X112444375Y-101260625D01*
X112431990Y-101245533D01*
X112422786Y-101228314D01*
X112417118Y-101209628D01*
X112414600Y-101184060D01*
X112414600Y-100745940D01*
X112417118Y-100720372D01*
X112422786Y-100701686D01*
X112431990Y-100684467D01*
X112444375Y-100669375D01*
X112459467Y-100656990D01*
X112476686Y-100647786D01*
X112495372Y-100642118D01*
X112520940Y-100639600D01*
X113959060Y-100639600D01*
X113984628Y-100642118D01*
G37*
G36*
X121184628Y-100642118D02*
G01*
X121203314Y-100647786D01*
X121220533Y-100656990D01*
X121235625Y-100669375D01*
X121248010Y-100684467D01*
X121257214Y-100701686D01*
X121262882Y-100720372D01*
X121265400Y-100745940D01*
X121265400Y-101184060D01*
X121262882Y-101209628D01*
X121257214Y-101228314D01*
X121248010Y-101245533D01*
X121235625Y-101260625D01*
X121220533Y-101273010D01*
X121203314Y-101282214D01*
X121184628Y-101287882D01*
X121159060Y-101290400D01*
X119720940Y-101290400D01*
X119695372Y-101287882D01*
X119676686Y-101282214D01*
X119659467Y-101273010D01*
X119644375Y-101260625D01*
X119631990Y-101245533D01*
X119622786Y-101228314D01*
X119617118Y-101209628D01*
X119614600Y-101184060D01*
X119614600Y-100745940D01*
X119617118Y-100720372D01*
X119622786Y-100701686D01*
X119631990Y-100684467D01*
X119644375Y-100669375D01*
X119659467Y-100656990D01*
X119676686Y-100647786D01*
X119695372Y-100642118D01*
X119720940Y-100639600D01*
X121159060Y-100639600D01*
X121184628Y-100642118D01*
G37*
G36*
X110110345Y-98853240D02*
G01*
X110269656Y-98919229D01*
X110269658Y-98919230D01*
X110413035Y-99015032D01*
X110534968Y-99136965D01*
X110630771Y-99280344D01*
X110696760Y-99439655D01*
X110730400Y-99608779D01*
X110730400Y-99781221D01*
X110696760Y-99950345D01*
X110630771Y-100109656D01*
X110630770Y-100109658D01*
X110534968Y-100253035D01*
X110413035Y-100374968D01*
X110269658Y-100470770D01*
X110269657Y-100470771D01*
X110269656Y-100470771D01*
X110110345Y-100536760D01*
X109941221Y-100570400D01*
X109768779Y-100570400D01*
X109599655Y-100536760D01*
X109440344Y-100470771D01*
X109440343Y-100470771D01*
X109440342Y-100470770D01*
X109296965Y-100374968D01*
X109175032Y-100253035D01*
X109079230Y-100109658D01*
X109079229Y-100109656D01*
X109013240Y-99950345D01*
X108979600Y-99781221D01*
X108979600Y-99608779D01*
X109013240Y-99439655D01*
X109079229Y-99280344D01*
X109175032Y-99136965D01*
X109296965Y-99015032D01*
X109440342Y-98919230D01*
X109440344Y-98919229D01*
X109599655Y-98853240D01*
X109768779Y-98819600D01*
X109941221Y-98819600D01*
X110110345Y-98853240D01*
G37*
G36*
X128325400Y-99083400D02*
G01*
X125674600Y-99083400D01*
X125674600Y-97632600D01*
X128325400Y-97632600D01*
X128325400Y-99083400D01*
G37*
G36*
X110110345Y-96313240D02*
G01*
X110269656Y-96379229D01*
X110269658Y-96379230D01*
X110413035Y-96475032D01*
X110534968Y-96596965D01*
X110630771Y-96740344D01*
X110696760Y-96899655D01*
X110730400Y-97068779D01*
X110730400Y-97241221D01*
X110696760Y-97410345D01*
X110630771Y-97569656D01*
X110630770Y-97569658D01*
X110534968Y-97713035D01*
X110413035Y-97834968D01*
X110269658Y-97930770D01*
X110269657Y-97930771D01*
X110269656Y-97930771D01*
X110110345Y-97996760D01*
X109941221Y-98030400D01*
X109768779Y-98030400D01*
X109599655Y-97996760D01*
X109440344Y-97930771D01*
X109440343Y-97930771D01*
X109440342Y-97930770D01*
X109296965Y-97834968D01*
X109175032Y-97713035D01*
X109079230Y-97569658D01*
X109079229Y-97569656D01*
X109013240Y-97410345D01*
X108979600Y-97241221D01*
X108979600Y-97068779D01*
X109013240Y-96899655D01*
X109079229Y-96740344D01*
X109175032Y-96596965D01*
X109296965Y-96475032D01*
X109440342Y-96379230D01*
X109440344Y-96379229D01*
X109599655Y-96313240D01*
X109768779Y-96279600D01*
X109941221Y-96279600D01*
X110110345Y-96313240D01*
G37*
G36*
X127364610Y-94556036D02*
G01*
X127592095Y-94650264D01*
X127592097Y-94650265D01*
X127796828Y-94787062D01*
X127970938Y-94961172D01*
X128107736Y-95165905D01*
X128201964Y-95393390D01*
X128250000Y-95634884D01*
X128250000Y-95881116D01*
X128201964Y-96122610D01*
X128107736Y-96350095D01*
X128107735Y-96350097D01*
X127970938Y-96554828D01*
X127796828Y-96728938D01*
X127592097Y-96865735D01*
X127592096Y-96865736D01*
X127592095Y-96865736D01*
X127364610Y-96959964D01*
X127123116Y-97008000D01*
X126876884Y-97008000D01*
X126635390Y-96959964D01*
X126407905Y-96865736D01*
X126407904Y-96865736D01*
X126407903Y-96865735D01*
X126203172Y-96728938D01*
X126029062Y-96554828D01*
X125892265Y-96350097D01*
X125892264Y-96350095D01*
X125798036Y-96122610D01*
X125750000Y-95881116D01*
X125750000Y-95634884D01*
X125798036Y-95393390D01*
X125892264Y-95165905D01*
X126029062Y-94961172D01*
X126203172Y-94787062D01*
X126407903Y-94650265D01*
X126407905Y-94650264D01*
X126635390Y-94556036D01*
X126876884Y-94508000D01*
X127123116Y-94508000D01*
X127364610Y-94556036D01*
G37*
G36*
X128325400Y-93883400D02*
G01*
X125674600Y-93883400D01*
X125674600Y-92432600D01*
X128325400Y-92432600D01*
X128325400Y-93883400D01*
G37*
G36*
X143565400Y-87272400D02*
G01*
X140914600Y-87272400D01*
X140914600Y-85821600D01*
X143565400Y-85821600D01*
X143565400Y-87272400D01*
G37*
G36*
X142604610Y-82745036D02*
G01*
X142781556Y-82818330D01*
X142832097Y-82839265D01*
X143036828Y-82976062D01*
X143210938Y-83150172D01*
X143347736Y-83354905D01*
X143441964Y-83582390D01*
X143490000Y-83823884D01*
X143490000Y-84070116D01*
X143441964Y-84311610D01*
X143425061Y-84352417D01*
X143347735Y-84539097D01*
X143210938Y-84743828D01*
X143036828Y-84917938D01*
X142832097Y-85054735D01*
X142832096Y-85054736D01*
X142832095Y-85054736D01*
X142604610Y-85148964D01*
X142363116Y-85197000D01*
X142116884Y-85197000D01*
X141875390Y-85148964D01*
X141647905Y-85054736D01*
X141647904Y-85054736D01*
X141647903Y-85054735D01*
X141443172Y-84917938D01*
X141269062Y-84743828D01*
X141132265Y-84539097D01*
X141054939Y-84352417D01*
X141038036Y-84311610D01*
X140990000Y-84070116D01*
X140990000Y-83823884D01*
X141038036Y-83582390D01*
X141132264Y-83354905D01*
X141269062Y-83150172D01*
X141443172Y-82976062D01*
X141647903Y-82839265D01*
X141698444Y-82818330D01*
X141875390Y-82745036D01*
X142116884Y-82697000D01*
X142363116Y-82697000D01*
X142604610Y-82745036D01*
G37*
G36*
X129624478Y-83134511D02*
G01*
X129656058Y-83144091D01*
X129685164Y-83159649D01*
X129715438Y-83184494D01*
X129755290Y-83224346D01*
X129755296Y-83224351D01*
X130135649Y-83604704D01*
X130135654Y-83604710D01*
X130175506Y-83644562D01*
X130200351Y-83674836D01*
X130215909Y-83703942D01*
X130225489Y-83735522D01*
X130228723Y-83768364D01*
X130225489Y-83801206D01*
X130215909Y-83832786D01*
X130200351Y-83861892D01*
X130175506Y-83892166D01*
X130135654Y-83932018D01*
X130135649Y-83932024D01*
X129808330Y-84259343D01*
X129808324Y-84259348D01*
X129768472Y-84299200D01*
X129738198Y-84324045D01*
X129709092Y-84339603D01*
X129677512Y-84349183D01*
X129644670Y-84352417D01*
X129611828Y-84349183D01*
X129580248Y-84339603D01*
X129551142Y-84324045D01*
X129520868Y-84299200D01*
X129481016Y-84259348D01*
X129481010Y-84259343D01*
X129100657Y-83878990D01*
X129100652Y-83878984D01*
X129060800Y-83839132D01*
X129035955Y-83808858D01*
X129020397Y-83779752D01*
X129010817Y-83748172D01*
X129007583Y-83715330D01*
X129010817Y-83682488D01*
X129020397Y-83650908D01*
X129035955Y-83621802D01*
X129060800Y-83591528D01*
X129100652Y-83551676D01*
X129100657Y-83551670D01*
X129427976Y-83224351D01*
X129427982Y-83224346D01*
X129467834Y-83184494D01*
X129498108Y-83159649D01*
X129527214Y-83144091D01*
X129558794Y-83134511D01*
X129591636Y-83131277D01*
X129624478Y-83134511D01*
G37*
G36*
X130738172Y-82020817D02*
G01*
X130769752Y-82030397D01*
X130798858Y-82045955D01*
X130829132Y-82070800D01*
X130868984Y-82110652D01*
X130868990Y-82110657D01*
X131249343Y-82491010D01*
X131249348Y-82491016D01*
X131289200Y-82530868D01*
X131314045Y-82561142D01*
X131329603Y-82590248D01*
X131339183Y-82621828D01*
X131342417Y-82654670D01*
X131339183Y-82687512D01*
X131329603Y-82719092D01*
X131314045Y-82748198D01*
X131289200Y-82778472D01*
X131249348Y-82818324D01*
X131249343Y-82818330D01*
X130922024Y-83145649D01*
X130922018Y-83145654D01*
X130882166Y-83185506D01*
X130851892Y-83210351D01*
X130822786Y-83225909D01*
X130791206Y-83235489D01*
X130758364Y-83238723D01*
X130725522Y-83235489D01*
X130693942Y-83225909D01*
X130664836Y-83210351D01*
X130634562Y-83185506D01*
X130594710Y-83145654D01*
X130594704Y-83145649D01*
X130214351Y-82765296D01*
X130214346Y-82765290D01*
X130174494Y-82725438D01*
X130149649Y-82695164D01*
X130134091Y-82666058D01*
X130124511Y-82634478D01*
X130121277Y-82601636D01*
X130124511Y-82568794D01*
X130134091Y-82537214D01*
X130149649Y-82508108D01*
X130174494Y-82477834D01*
X130214346Y-82437982D01*
X130214351Y-82437976D01*
X130541670Y-82110657D01*
X130541676Y-82110652D01*
X130581528Y-82070800D01*
X130611802Y-82045955D01*
X130640908Y-82030397D01*
X130672488Y-82020817D01*
X130705330Y-82017583D01*
X130738172Y-82020817D01*
G37*
G36*
X128989478Y-81229511D02*
G01*
X129021058Y-81239091D01*
X129050164Y-81254649D01*
X129080438Y-81279494D01*
X129120290Y-81319346D01*
X129120296Y-81319351D01*
X129500649Y-81699704D01*
X129500654Y-81699710D01*
X129540506Y-81739562D01*
X129565351Y-81769836D01*
X129580909Y-81798942D01*
X129590489Y-81830522D01*
X129593723Y-81863364D01*
X129590489Y-81896206D01*
X129580909Y-81927786D01*
X129565351Y-81956892D01*
X129540506Y-81987166D01*
X129500654Y-82027018D01*
X129500649Y-82027024D01*
X129173330Y-82354343D01*
X129173324Y-82354348D01*
X129133472Y-82394200D01*
X129103198Y-82419045D01*
X129074092Y-82434603D01*
X129042512Y-82444183D01*
X129009670Y-82447417D01*
X128976828Y-82444183D01*
X128945248Y-82434603D01*
X128916142Y-82419045D01*
X128885868Y-82394200D01*
X128846016Y-82354348D01*
X128846010Y-82354343D01*
X128465657Y-81973990D01*
X128465652Y-81973984D01*
X128425800Y-81934132D01*
X128400955Y-81903858D01*
X128385397Y-81874752D01*
X128375817Y-81843172D01*
X128372583Y-81810330D01*
X128375817Y-81777488D01*
X128385397Y-81745908D01*
X128400955Y-81716802D01*
X128425800Y-81686528D01*
X128465652Y-81646676D01*
X128465657Y-81646670D01*
X128792976Y-81319351D01*
X128792982Y-81319346D01*
X128832834Y-81279494D01*
X128863108Y-81254649D01*
X128892214Y-81239091D01*
X128923794Y-81229511D01*
X128956636Y-81226277D01*
X128989478Y-81229511D01*
G37*
G36*
X143565400Y-82072400D02*
G01*
X140914600Y-82072400D01*
X140914600Y-80621600D01*
X143565400Y-80621600D01*
X143565400Y-82072400D01*
G37*
G36*
X135886245Y-79748751D02*
G01*
X135920866Y-79759253D01*
X135952774Y-79776308D01*
X135980741Y-79799259D01*
X136003692Y-79827226D01*
X136020747Y-79859134D01*
X136031249Y-79893755D01*
X136035400Y-79935901D01*
X136035400Y-81354099D01*
X136031249Y-81396245D01*
X136020747Y-81430866D01*
X136003692Y-81462774D01*
X135980741Y-81490741D01*
X135952774Y-81513692D01*
X135920866Y-81530747D01*
X135886245Y-81541249D01*
X135844099Y-81545400D01*
X134925901Y-81545400D01*
X134883755Y-81541249D01*
X134849134Y-81530747D01*
X134817226Y-81513692D01*
X134789259Y-81490741D01*
X134766308Y-81462774D01*
X134749253Y-81430866D01*
X134738751Y-81396245D01*
X134734600Y-81354099D01*
X134734600Y-79935901D01*
X134738751Y-79893755D01*
X134749253Y-79859134D01*
X134766308Y-79827226D01*
X134789259Y-79799259D01*
X134817226Y-79776308D01*
X134849134Y-79759253D01*
X134883755Y-79748751D01*
X134925901Y-79744600D01*
X135844099Y-79744600D01*
X135886245Y-79748751D01*
G37*
G36*
X133086245Y-79748751D02*
G01*
X133120866Y-79759253D01*
X133152774Y-79776308D01*
X133180741Y-79799259D01*
X133203692Y-79827226D01*
X133220747Y-79859134D01*
X133231249Y-79893755D01*
X133235400Y-79935901D01*
X133235400Y-81354099D01*
X133231249Y-81396245D01*
X133220747Y-81430866D01*
X133203692Y-81462774D01*
X133180741Y-81490741D01*
X133152774Y-81513692D01*
X133120866Y-81530747D01*
X133086245Y-81541249D01*
X133044099Y-81545400D01*
X132125901Y-81545400D01*
X132083755Y-81541249D01*
X132049134Y-81530747D01*
X132017226Y-81513692D01*
X131989259Y-81490741D01*
X131966308Y-81462774D01*
X131949253Y-81430866D01*
X131938751Y-81396245D01*
X131934600Y-81354099D01*
X131934600Y-79935901D01*
X131938751Y-79893755D01*
X131949253Y-79859134D01*
X131966308Y-79827226D01*
X131989259Y-79799259D01*
X132017226Y-79776308D01*
X132049134Y-79759253D01*
X132083755Y-79748751D01*
X132125901Y-79744600D01*
X133044099Y-79744600D01*
X133086245Y-79748751D01*
G37*
G36*
X130103172Y-80115817D02*
G01*
X130134752Y-80125397D01*
X130163858Y-80140955D01*
X130194132Y-80165800D01*
X130233984Y-80205652D01*
X130233990Y-80205657D01*
X130614343Y-80586010D01*
X130614348Y-80586016D01*
X130654200Y-80625868D01*
X130679045Y-80656142D01*
X130694603Y-80685248D01*
X130704183Y-80716828D01*
X130707417Y-80749670D01*
X130704183Y-80782512D01*
X130694603Y-80814092D01*
X130679045Y-80843198D01*
X130654200Y-80873472D01*
X130614348Y-80913324D01*
X130614343Y-80913330D01*
X130287024Y-81240649D01*
X130287018Y-81240654D01*
X130247166Y-81280506D01*
X130216892Y-81305351D01*
X130187786Y-81320909D01*
X130156206Y-81330489D01*
X130123364Y-81333723D01*
X130090522Y-81330489D01*
X130058942Y-81320909D01*
X130029836Y-81305351D01*
X129999562Y-81280506D01*
X129959710Y-81240654D01*
X129959704Y-81240649D01*
X129579351Y-80860296D01*
X129579346Y-80860290D01*
X129539494Y-80820438D01*
X129514649Y-80790164D01*
X129499091Y-80761058D01*
X129489511Y-80729478D01*
X129486277Y-80696636D01*
X129489511Y-80663794D01*
X129499091Y-80632214D01*
X129514649Y-80603108D01*
X129539494Y-80572834D01*
X129579346Y-80532982D01*
X129579351Y-80532976D01*
X129906670Y-80205657D01*
X129906676Y-80205652D01*
X129946528Y-80165800D01*
X129976802Y-80140955D01*
X130005908Y-80125397D01*
X130037488Y-80115817D01*
X130070330Y-80112583D01*
X130103172Y-80115817D01*
G37*
G36*
X134370400Y-78635400D02*
G01*
X128519600Y-78635400D01*
X128519600Y-77084600D01*
X134370400Y-77084600D01*
X134370400Y-78635400D01*
G37*
G36*
X128020400Y-76585400D02*
G01*
X126469600Y-76585400D01*
X126469600Y-70734600D01*
X128020400Y-70734600D01*
X128020400Y-76585400D01*
G37*
G36*
X136420400Y-76585400D02*
G01*
X134869600Y-76585400D01*
X134869600Y-70734600D01*
X136420400Y-70734600D01*
X136420400Y-76585400D01*
G37*
G36*
X133220400Y-75435400D02*
G01*
X129669600Y-75435400D01*
X129669600Y-71884600D01*
X133220400Y-71884600D01*
X133220400Y-75435400D01*
G37*
G36*
X149026400Y-71524400D02*
G01*
X146375600Y-71524400D01*
X146375600Y-70073600D01*
X149026400Y-70073600D01*
X149026400Y-71524400D01*
G37*
G36*
X134370400Y-70235400D02*
G01*
X128519600Y-70235400D01*
X128519600Y-68684600D01*
X134370400Y-68684600D01*
X134370400Y-70235400D01*
G37*
G36*
X148065610Y-66997036D02*
G01*
X148293095Y-67091264D01*
X148293097Y-67091265D01*
X148497828Y-67228062D01*
X148671938Y-67402172D01*
X148808736Y-67606905D01*
X148902964Y-67834390D01*
X148951000Y-68075884D01*
X148951000Y-68322116D01*
X148902964Y-68563610D01*
X148852848Y-68684600D01*
X148808735Y-68791097D01*
X148671938Y-68995828D01*
X148497828Y-69169938D01*
X148293097Y-69306735D01*
X148293096Y-69306736D01*
X148293095Y-69306736D01*
X148065610Y-69400964D01*
X147824116Y-69449000D01*
X147577884Y-69449000D01*
X147336390Y-69400964D01*
X147108905Y-69306736D01*
X147108904Y-69306736D01*
X147108903Y-69306735D01*
X146904172Y-69169938D01*
X146730062Y-68995828D01*
X146593265Y-68791097D01*
X146549152Y-68684600D01*
X146499036Y-68563610D01*
X146451000Y-68322116D01*
X146451000Y-68075884D01*
X146499036Y-67834390D01*
X146593264Y-67606905D01*
X146730062Y-67402172D01*
X146904172Y-67228062D01*
X147108903Y-67091265D01*
X147108905Y-67091264D01*
X147336390Y-66997036D01*
X147577884Y-66949000D01*
X147824116Y-66949000D01*
X148065610Y-66997036D01*
G37*
G36*
X149026400Y-66324400D02*
G01*
X146375600Y-66324400D01*
X146375600Y-64873600D01*
X149026400Y-64873600D01*
X149026400Y-66324400D01*
G37*
G36*
X117559478Y-53289511D02*
G01*
X117591058Y-53299091D01*
X117620164Y-53314649D01*
X117650438Y-53339494D01*
X117690290Y-53379346D01*
X117690296Y-53379351D01*
X118070649Y-53759704D01*
X118070654Y-53759710D01*
X118110506Y-53799562D01*
X118135351Y-53829836D01*
X118150909Y-53858942D01*
X118160489Y-53890522D01*
X118163723Y-53923364D01*
X118160489Y-53956206D01*
X118150909Y-53987786D01*
X118135351Y-54016892D01*
X118110506Y-54047166D01*
X118070654Y-54087018D01*
X118070649Y-54087024D01*
X117743330Y-54414343D01*
X117743324Y-54414348D01*
X117703472Y-54454200D01*
X117673198Y-54479045D01*
X117644092Y-54494603D01*
X117612512Y-54504183D01*
X117579670Y-54507417D01*
X117546828Y-54504183D01*
X117515248Y-54494603D01*
X117486142Y-54479045D01*
X117455868Y-54454200D01*
X117416016Y-54414348D01*
X117416010Y-54414343D01*
X117035657Y-54033990D01*
X117035652Y-54033984D01*
X116995800Y-53994132D01*
X116970955Y-53963858D01*
X116955397Y-53934752D01*
X116945817Y-53903172D01*
X116942583Y-53870330D01*
X116945817Y-53837488D01*
X116955397Y-53805908D01*
X116970955Y-53776802D01*
X116995800Y-53746528D01*
X117035652Y-53706676D01*
X117035657Y-53706670D01*
X117362976Y-53379351D01*
X117362982Y-53379346D01*
X117402834Y-53339494D01*
X117433108Y-53314649D01*
X117462214Y-53299091D01*
X117493794Y-53289511D01*
X117526636Y-53286277D01*
X117559478Y-53289511D01*
G37*
G36*
X116064548Y-51941959D02*
G01*
X116100815Y-51952961D01*
X116134245Y-51970829D01*
X116168309Y-51998785D01*
X116208159Y-52038635D01*
X116208165Y-52038640D01*
X116871360Y-52701835D01*
X116871365Y-52701841D01*
X116911215Y-52741691D01*
X116939171Y-52775755D01*
X116957039Y-52809185D01*
X116968041Y-52845452D01*
X116971756Y-52883173D01*
X116968041Y-52920894D01*
X116957039Y-52957161D01*
X116939171Y-52990591D01*
X116911215Y-53024655D01*
X116871365Y-53064505D01*
X116871360Y-53064511D01*
X116508685Y-53427186D01*
X116508679Y-53427191D01*
X116468829Y-53467041D01*
X116434765Y-53494997D01*
X116401335Y-53512865D01*
X116365068Y-53523867D01*
X116327347Y-53527582D01*
X116289626Y-53523867D01*
X116253359Y-53512865D01*
X116219929Y-53494997D01*
X116185865Y-53467041D01*
X116146015Y-53427191D01*
X116146009Y-53427186D01*
X115482814Y-52763991D01*
X115482809Y-52763985D01*
X115442959Y-52724135D01*
X115415003Y-52690071D01*
X115397135Y-52656641D01*
X115386133Y-52620374D01*
X115382418Y-52582653D01*
X115386133Y-52544932D01*
X115397135Y-52508665D01*
X115415003Y-52475235D01*
X115442959Y-52441171D01*
X115482809Y-52401321D01*
X115482814Y-52401315D01*
X115845489Y-52038640D01*
X115845495Y-52038635D01*
X115885345Y-51998785D01*
X115919409Y-51970829D01*
X115952839Y-51952961D01*
X115989106Y-51941959D01*
X116026827Y-51938244D01*
X116064548Y-51941959D01*
G37*
G36*
X118673172Y-52175817D02*
G01*
X118704752Y-52185397D01*
X118733858Y-52200955D01*
X118764132Y-52225800D01*
X118803984Y-52265652D01*
X118803990Y-52265657D01*
X119184343Y-52646010D01*
X119184348Y-52646016D01*
X119224200Y-52685868D01*
X119249045Y-52716142D01*
X119264603Y-52745248D01*
X119274183Y-52776828D01*
X119277417Y-52809670D01*
X119274183Y-52842512D01*
X119264603Y-52874092D01*
X119249045Y-52903198D01*
X119224200Y-52933472D01*
X119184348Y-52973324D01*
X119184343Y-52973330D01*
X118857024Y-53300649D01*
X118857018Y-53300654D01*
X118817166Y-53340506D01*
X118786892Y-53365351D01*
X118757786Y-53380909D01*
X118726206Y-53390489D01*
X118693364Y-53393723D01*
X118660522Y-53390489D01*
X118628942Y-53380909D01*
X118599836Y-53365351D01*
X118569562Y-53340506D01*
X118529710Y-53300654D01*
X118529704Y-53300649D01*
X118149351Y-52920296D01*
X118149346Y-52920290D01*
X118109494Y-52880438D01*
X118084649Y-52850164D01*
X118069091Y-52821058D01*
X118059511Y-52789478D01*
X118056277Y-52756636D01*
X118059511Y-52723794D01*
X118069091Y-52692214D01*
X118084649Y-52663108D01*
X118109494Y-52632834D01*
X118149346Y-52592982D01*
X118149351Y-52592976D01*
X118476670Y-52265657D01*
X118476676Y-52265652D01*
X118516528Y-52225800D01*
X118546802Y-52200955D01*
X118575908Y-52185397D01*
X118607488Y-52175817D01*
X118640330Y-52172583D01*
X118673172Y-52175817D01*
G37*
G36*
X117390374Y-50616133D02*
G01*
X117426641Y-50627135D01*
X117460071Y-50645003D01*
X117494135Y-50672959D01*
X117533985Y-50712809D01*
X117533991Y-50712814D01*
X118197186Y-51376009D01*
X118197191Y-51376015D01*
X118237041Y-51415865D01*
X118264997Y-51449929D01*
X118282865Y-51483359D01*
X118293867Y-51519626D01*
X118297582Y-51557347D01*
X118293867Y-51595068D01*
X118282865Y-51631335D01*
X118264997Y-51664765D01*
X118237041Y-51698829D01*
X118197191Y-51738679D01*
X118197186Y-51738685D01*
X117834511Y-52101360D01*
X117834505Y-52101365D01*
X117794655Y-52141215D01*
X117760591Y-52169171D01*
X117727161Y-52187039D01*
X117690894Y-52198041D01*
X117653173Y-52201756D01*
X117615452Y-52198041D01*
X117579185Y-52187039D01*
X117545755Y-52169171D01*
X117511691Y-52141215D01*
X117471841Y-52101365D01*
X117471835Y-52101360D01*
X116808640Y-51438165D01*
X116808635Y-51438159D01*
X116768785Y-51398309D01*
X116740829Y-51364245D01*
X116722961Y-51330815D01*
X116711959Y-51294548D01*
X116708244Y-51256827D01*
X116711959Y-51219106D01*
X116722961Y-51182839D01*
X116740829Y-51149409D01*
X116768785Y-51115345D01*
X116808635Y-51075495D01*
X116808640Y-51075489D01*
X117171315Y-50712814D01*
X117171321Y-50712809D01*
X117211171Y-50672959D01*
X117245235Y-50645003D01*
X117278665Y-50627135D01*
X117314932Y-50616133D01*
X117352653Y-50612418D01*
X117390374Y-50616133D01*
G37*
G36*
X114540548Y-50544959D02*
G01*
X114576815Y-50555961D01*
X114610245Y-50573829D01*
X114644309Y-50601785D01*
X114684159Y-50641635D01*
X114684165Y-50641640D01*
X115347360Y-51304835D01*
X115347365Y-51304841D01*
X115387215Y-51344691D01*
X115415171Y-51378755D01*
X115433039Y-51412185D01*
X115444041Y-51448452D01*
X115447756Y-51486173D01*
X115444041Y-51523894D01*
X115433039Y-51560161D01*
X115415171Y-51593591D01*
X115387215Y-51627655D01*
X115347365Y-51667505D01*
X115347360Y-51667511D01*
X114984685Y-52030186D01*
X114984679Y-52030191D01*
X114944829Y-52070041D01*
X114910765Y-52097997D01*
X114877335Y-52115865D01*
X114841068Y-52126867D01*
X114803347Y-52130582D01*
X114765626Y-52126867D01*
X114729359Y-52115865D01*
X114695929Y-52097997D01*
X114661865Y-52070041D01*
X114622015Y-52030191D01*
X114622009Y-52030186D01*
X113958814Y-51366991D01*
X113958809Y-51366985D01*
X113918959Y-51327135D01*
X113891003Y-51293071D01*
X113873135Y-51259641D01*
X113862133Y-51223374D01*
X113858418Y-51185653D01*
X113862133Y-51147932D01*
X113873135Y-51111665D01*
X113891003Y-51078235D01*
X113918959Y-51044171D01*
X113958809Y-51004321D01*
X113958814Y-51004315D01*
X114321489Y-50641640D01*
X114321495Y-50641635D01*
X114361345Y-50601785D01*
X114395409Y-50573829D01*
X114428839Y-50555961D01*
X114465106Y-50544959D01*
X114502827Y-50541244D01*
X114540548Y-50544959D01*
G37*
G36*
X115866374Y-49219133D02*
G01*
X115902641Y-49230135D01*
X115936071Y-49248003D01*
X115970135Y-49275959D01*
X116009985Y-49315809D01*
X116009991Y-49315814D01*
X116673186Y-49979009D01*
X116673191Y-49979015D01*
X116713041Y-50018865D01*
X116740997Y-50052929D01*
X116758865Y-50086359D01*
X116769867Y-50122626D01*
X116773582Y-50160347D01*
X116769867Y-50198068D01*
X116758865Y-50234335D01*
X116740997Y-50267765D01*
X116713041Y-50301829D01*
X116673191Y-50341679D01*
X116673186Y-50341685D01*
X116310511Y-50704360D01*
X116310505Y-50704365D01*
X116270655Y-50744215D01*
X116236591Y-50772171D01*
X116203161Y-50790039D01*
X116166894Y-50801041D01*
X116129173Y-50804756D01*
X116091452Y-50801041D01*
X116055185Y-50790039D01*
X116021755Y-50772171D01*
X115987691Y-50744215D01*
X115947841Y-50704365D01*
X115947835Y-50704360D01*
X115284640Y-50041165D01*
X115284635Y-50041159D01*
X115244785Y-50001309D01*
X115216829Y-49967245D01*
X115198961Y-49933815D01*
X115187959Y-49897548D01*
X115184244Y-49859827D01*
X115187959Y-49822106D01*
X115198961Y-49785839D01*
X115216829Y-49752409D01*
X115244785Y-49718345D01*
X115284635Y-49678495D01*
X115284640Y-49678489D01*
X115647315Y-49315814D01*
X115647321Y-49315809D01*
X115687171Y-49275959D01*
X115721235Y-49248003D01*
X115754665Y-49230135D01*
X115790932Y-49219133D01*
X115828653Y-49215418D01*
X115866374Y-49219133D01*
G37*
G36*
X112635548Y-48639959D02*
G01*
X112671815Y-48650961D01*
X112705245Y-48668829D01*
X112739309Y-48696785D01*
X112779159Y-48736635D01*
X112779165Y-48736640D01*
X113442360Y-49399835D01*
X113442365Y-49399841D01*
X113482215Y-49439691D01*
X113510171Y-49473755D01*
X113528039Y-49507185D01*
X113539041Y-49543452D01*
X113542756Y-49581173D01*
X113539041Y-49618894D01*
X113528039Y-49655161D01*
X113510171Y-49688591D01*
X113482215Y-49722655D01*
X113442365Y-49762505D01*
X113442360Y-49762511D01*
X113079685Y-50125186D01*
X113079679Y-50125191D01*
X113039829Y-50165041D01*
X113005765Y-50192997D01*
X112972335Y-50210865D01*
X112936068Y-50221867D01*
X112898347Y-50225582D01*
X112860626Y-50221867D01*
X112824359Y-50210865D01*
X112790929Y-50192997D01*
X112756865Y-50165041D01*
X112717015Y-50125191D01*
X112717009Y-50125186D01*
X112053814Y-49461991D01*
X112053809Y-49461985D01*
X112013959Y-49422135D01*
X111986003Y-49388071D01*
X111968135Y-49354641D01*
X111957133Y-49318374D01*
X111953418Y-49280653D01*
X111957133Y-49242932D01*
X111968135Y-49206665D01*
X111986003Y-49173235D01*
X112013959Y-49139171D01*
X112053809Y-49099321D01*
X112053814Y-49099315D01*
X112416489Y-48736640D01*
X112416495Y-48736635D01*
X112456345Y-48696785D01*
X112490409Y-48668829D01*
X112523839Y-48650961D01*
X112560106Y-48639959D01*
X112597827Y-48636244D01*
X112635548Y-48639959D01*
G37*
G36*
X113133836Y-40829331D02*
G01*
X113133836Y-40829332D01*
X113310046Y-41005542D01*
X113310046Y-41005541D01*
X113593455Y-41288950D01*
X113593455Y-41288951D01*
X113769666Y-41465162D01*
X113769666Y-41465161D01*
X114053075Y-41748570D01*
X114053075Y-41748571D01*
X114229285Y-41924781D01*
X114229285Y-41924780D01*
X114512694Y-42208189D01*
X114512694Y-42208190D01*
X114600517Y-42296013D01*
X114600523Y-42296018D01*
X114688905Y-42384400D01*
X114688905Y-42384399D01*
X114972314Y-42667808D01*
X114972314Y-42667809D01*
X115060696Y-42756191D01*
X115060701Y-42756197D01*
X115148524Y-42844020D01*
X115148524Y-42844019D01*
X115431933Y-43127428D01*
X115431933Y-43127429D01*
X115608143Y-43303639D01*
X115608143Y-43303638D01*
X115891552Y-43587047D01*
X115891552Y-43587048D01*
X116067763Y-43763259D01*
X116067763Y-43763258D01*
X116351172Y-44046667D01*
X116351172Y-44046668D01*
X116527382Y-44222878D01*
X116527382Y-44222877D01*
X116810791Y-44506286D01*
X116810791Y-44506287D01*
X116898614Y-44594110D01*
X116898620Y-44594115D01*
X116987002Y-44682497D01*
X116987002Y-44682496D01*
X117270411Y-44965905D01*
X117270411Y-44965906D01*
X117358793Y-45054288D01*
X117358798Y-45054294D01*
X117446621Y-45142117D01*
X117446621Y-45142116D01*
X117730030Y-45425525D01*
X117730030Y-45425526D01*
X117906240Y-45601736D01*
X117906240Y-45601735D01*
X118189649Y-45885144D01*
X118189649Y-45885145D01*
X118365860Y-46061356D01*
X118365860Y-46061355D01*
X118649269Y-46344764D01*
X118649269Y-46344765D01*
X118825479Y-46520975D01*
X118825479Y-46520974D01*
X119108888Y-46804383D01*
X119108888Y-46804384D01*
X119196711Y-46892207D01*
X119196717Y-46892212D01*
X119285099Y-46980594D01*
X119285099Y-46980593D01*
X119568508Y-47264002D01*
X119568508Y-47264003D01*
X119656890Y-47352385D01*
X119656895Y-47352391D01*
X119744718Y-47440214D01*
X119744718Y-47440213D01*
X120028127Y-47723622D01*
X118719414Y-49032335D01*
X118436005Y-48748926D01*
X118436006Y-48748926D01*
X118347624Y-48660544D01*
X118347619Y-48660538D01*
X118259796Y-48572715D01*
X118259795Y-48572715D01*
X117976386Y-48289306D01*
X117976387Y-48289306D01*
X117888564Y-48201483D01*
X117888558Y-48201478D01*
X117800176Y-48113096D01*
X117800175Y-48113096D01*
X117516766Y-47829687D01*
X117516767Y-47829687D01*
X117340557Y-47653477D01*
X117340556Y-47653477D01*
X117057147Y-47370068D01*
X117057148Y-47370068D01*
X116880937Y-47193857D01*
X116880936Y-47193857D01*
X116597527Y-46910448D01*
X116597528Y-46910448D01*
X116421318Y-46734238D01*
X116421317Y-46734238D01*
X116137908Y-46450829D01*
X116137909Y-46450829D01*
X116049527Y-46362447D01*
X116049522Y-46362441D01*
X115961699Y-46274618D01*
X115961698Y-46274618D01*
X115678289Y-45991209D01*
X115678290Y-45991209D01*
X115590467Y-45903386D01*
X115590461Y-45903381D01*
X115502079Y-45814999D01*
X115502078Y-45814999D01*
X115218669Y-45531590D01*
X115218670Y-45531590D01*
X115042460Y-45355380D01*
X115042459Y-45355380D01*
X114759050Y-45071971D01*
X114759051Y-45071971D01*
X114582840Y-44895760D01*
X114582839Y-44895760D01*
X114299430Y-44612351D01*
X114299431Y-44612351D01*
X114123221Y-44436141D01*
X114123220Y-44436141D01*
X113839811Y-44152732D01*
X113839812Y-44152732D01*
X113751430Y-44064350D01*
X113751425Y-44064344D01*
X113663602Y-43976521D01*
X113663601Y-43976521D01*
X113380192Y-43693112D01*
X113380193Y-43693112D01*
X113292370Y-43605289D01*
X113292364Y-43605284D01*
X113203982Y-43516902D01*
X113203981Y-43516902D01*
X112920572Y-43233493D01*
X112920573Y-43233493D01*
X112744363Y-43057283D01*
X112744362Y-43057283D01*
X112460953Y-42773874D01*
X112460954Y-42773874D01*
X112284743Y-42597663D01*
X112284742Y-42597663D01*
X112001333Y-42314254D01*
X112001334Y-42314254D01*
X111825124Y-42138044D01*
X111825123Y-42138044D01*
X111541714Y-41854635D01*
X112850427Y-40545922D01*
X113133836Y-40829331D01*
G37*
G36*
X113961374Y-47314133D02*
G01*
X113997641Y-47325135D01*
X114031071Y-47343003D01*
X114065135Y-47370959D01*
X114104985Y-47410809D01*
X114104991Y-47410814D01*
X114768186Y-48074009D01*
X114768191Y-48074015D01*
X114808041Y-48113865D01*
X114835997Y-48147929D01*
X114853865Y-48181359D01*
X114864867Y-48217626D01*
X114868582Y-48255347D01*
X114864867Y-48293068D01*
X114853865Y-48329335D01*
X114835997Y-48362765D01*
X114808041Y-48396829D01*
X114768191Y-48436679D01*
X114768186Y-48436685D01*
X114405511Y-48799360D01*
X114405505Y-48799365D01*
X114365655Y-48839215D01*
X114331591Y-48867171D01*
X114298161Y-48885039D01*
X114261894Y-48896041D01*
X114224173Y-48899756D01*
X114186452Y-48896041D01*
X114150185Y-48885039D01*
X114116755Y-48867171D01*
X114082691Y-48839215D01*
X114042841Y-48799365D01*
X114042835Y-48799360D01*
X113379640Y-48136165D01*
X113379635Y-48136159D01*
X113339785Y-48096309D01*
X113311829Y-48062245D01*
X113293961Y-48028815D01*
X113282959Y-47992548D01*
X113279244Y-47954827D01*
X113282959Y-47917106D01*
X113293961Y-47880839D01*
X113311829Y-47847409D01*
X113339785Y-47813345D01*
X113379635Y-47773495D01*
X113379640Y-47773489D01*
X113742315Y-47410814D01*
X113742321Y-47410809D01*
X113782171Y-47370959D01*
X113816235Y-47343003D01*
X113849665Y-47325135D01*
X113885932Y-47314133D01*
X113923653Y-47310418D01*
X113961374Y-47314133D01*
G37*
G36*
X111590478Y-46304511D02*
G01*
X111622058Y-46314091D01*
X111651164Y-46329649D01*
X111681438Y-46354494D01*
X111721290Y-46394346D01*
X111721296Y-46394351D01*
X112101649Y-46774704D01*
X112101654Y-46774710D01*
X112141506Y-46814562D01*
X112166351Y-46844836D01*
X112181909Y-46873942D01*
X112191489Y-46905522D01*
X112194723Y-46938364D01*
X112191489Y-46971206D01*
X112181909Y-47002786D01*
X112166351Y-47031892D01*
X112141506Y-47062166D01*
X112101654Y-47102018D01*
X112101649Y-47102024D01*
X111774330Y-47429343D01*
X111774324Y-47429348D01*
X111734472Y-47469200D01*
X111704198Y-47494045D01*
X111675092Y-47509603D01*
X111643512Y-47519183D01*
X111610670Y-47522417D01*
X111577828Y-47519183D01*
X111546248Y-47509603D01*
X111517142Y-47494045D01*
X111486868Y-47469200D01*
X111447016Y-47429348D01*
X111447010Y-47429343D01*
X111066657Y-47048990D01*
X111066652Y-47048984D01*
X111026800Y-47009132D01*
X111001955Y-46978858D01*
X110986397Y-46949752D01*
X110976817Y-46918172D01*
X110973583Y-46885330D01*
X110976817Y-46852488D01*
X110986397Y-46820908D01*
X111001955Y-46791802D01*
X111026800Y-46761528D01*
X111066652Y-46721676D01*
X111066657Y-46721670D01*
X111393976Y-46394351D01*
X111393982Y-46394346D01*
X111433834Y-46354494D01*
X111464108Y-46329649D01*
X111493214Y-46314091D01*
X111524794Y-46304511D01*
X111557636Y-46301277D01*
X111590478Y-46304511D01*
G37*
G36*
X112704172Y-45190817D02*
G01*
X112735752Y-45200397D01*
X112764858Y-45215955D01*
X112795132Y-45240800D01*
X112834984Y-45280652D01*
X112834990Y-45280657D01*
X113215343Y-45661010D01*
X113215348Y-45661016D01*
X113255200Y-45700868D01*
X113280045Y-45731142D01*
X113295603Y-45760248D01*
X113305183Y-45791828D01*
X113308417Y-45824670D01*
X113305183Y-45857512D01*
X113295603Y-45889092D01*
X113280045Y-45918198D01*
X113255200Y-45948472D01*
X113215348Y-45988324D01*
X113215343Y-45988330D01*
X112888024Y-46315649D01*
X112888018Y-46315654D01*
X112848166Y-46355506D01*
X112817892Y-46380351D01*
X112788786Y-46395909D01*
X112757206Y-46405489D01*
X112724364Y-46408723D01*
X112691522Y-46405489D01*
X112659942Y-46395909D01*
X112630836Y-46380351D01*
X112600562Y-46355506D01*
X112560710Y-46315654D01*
X112560704Y-46315649D01*
X112180351Y-45935296D01*
X112180346Y-45935290D01*
X112140494Y-45895438D01*
X112115649Y-45865164D01*
X112100091Y-45836058D01*
X112090511Y-45804478D01*
X112087277Y-45771636D01*
X112090511Y-45738794D01*
X112100091Y-45707214D01*
X112115649Y-45678108D01*
X112140494Y-45647834D01*
X112180346Y-45607982D01*
X112180351Y-45607976D01*
X112507670Y-45280657D01*
X112507676Y-45280652D01*
X112547528Y-45240800D01*
X112577802Y-45215955D01*
X112606908Y-45200397D01*
X112638488Y-45190817D01*
X112671330Y-45187583D01*
X112704172Y-45190817D01*
G37*
G36*
X111340894Y-44321959D02*
G01*
X111377161Y-44332961D01*
X111410591Y-44350829D01*
X111444655Y-44378785D01*
X111484505Y-44418635D01*
X111484511Y-44418640D01*
X111847186Y-44781315D01*
X111847191Y-44781321D01*
X111887041Y-44821171D01*
X111914997Y-44855235D01*
X111932865Y-44888665D01*
X111943867Y-44924932D01*
X111947582Y-44962653D01*
X111943867Y-45000374D01*
X111932865Y-45036641D01*
X111914997Y-45070071D01*
X111887041Y-45104135D01*
X111847191Y-45143985D01*
X111847186Y-45143991D01*
X111183991Y-45807186D01*
X111183985Y-45807191D01*
X111144135Y-45847041D01*
X111110071Y-45874997D01*
X111076641Y-45892865D01*
X111040374Y-45903867D01*
X111002653Y-45907582D01*
X110964932Y-45903867D01*
X110928665Y-45892865D01*
X110895235Y-45874997D01*
X110861171Y-45847041D01*
X110821321Y-45807191D01*
X110821315Y-45807186D01*
X110458640Y-45444511D01*
X110458635Y-45444505D01*
X110418785Y-45404655D01*
X110390829Y-45370591D01*
X110372961Y-45337161D01*
X110361959Y-45300894D01*
X110358244Y-45263173D01*
X110361959Y-45225452D01*
X110372961Y-45189185D01*
X110390829Y-45155755D01*
X110418785Y-45121691D01*
X110458635Y-45081841D01*
X110458640Y-45081835D01*
X111121835Y-44418640D01*
X111121841Y-44418635D01*
X111161691Y-44378785D01*
X111195755Y-44350829D01*
X111229185Y-44332961D01*
X111265452Y-44321959D01*
X111303173Y-44318244D01*
X111340894Y-44321959D01*
G37*
G36*
X110015068Y-42996133D02*
G01*
X110051335Y-43007135D01*
X110084765Y-43025003D01*
X110118829Y-43052959D01*
X110158679Y-43092809D01*
X110158685Y-43092814D01*
X110521360Y-43455489D01*
X110521365Y-43455495D01*
X110561215Y-43495345D01*
X110589171Y-43529409D01*
X110607039Y-43562839D01*
X110618041Y-43599106D01*
X110621756Y-43636827D01*
X110618041Y-43674548D01*
X110607039Y-43710815D01*
X110589171Y-43744245D01*
X110561215Y-43778309D01*
X110521365Y-43818159D01*
X110521360Y-43818165D01*
X109858165Y-44481360D01*
X109858159Y-44481365D01*
X109818309Y-44521215D01*
X109784245Y-44549171D01*
X109750815Y-44567039D01*
X109714548Y-44578041D01*
X109676827Y-44581756D01*
X109639106Y-44578041D01*
X109602839Y-44567039D01*
X109569409Y-44549171D01*
X109535345Y-44521215D01*
X109495495Y-44481365D01*
X109495489Y-44481360D01*
X109132814Y-44118685D01*
X109132809Y-44118679D01*
X109092959Y-44078829D01*
X109065003Y-44044765D01*
X109047135Y-44011335D01*
X109036133Y-43975068D01*
X109032418Y-43937347D01*
X109036133Y-43899626D01*
X109047135Y-43863359D01*
X109065003Y-43829929D01*
X109092959Y-43795865D01*
X109132809Y-43756015D01*
X109132814Y-43756009D01*
X109796009Y-43092814D01*
X109796015Y-43092809D01*
X109835865Y-43052959D01*
X109869929Y-43025003D01*
X109903359Y-43007135D01*
X109939626Y-42996133D01*
X109977347Y-42992418D01*
X110015068Y-42996133D01*
G37*
G36*
X112000548Y-37844959D02*
G01*
X112036815Y-37855961D01*
X112070245Y-37873829D01*
X112104309Y-37901785D01*
X112144159Y-37941635D01*
X112144165Y-37941640D01*
X112807360Y-38604835D01*
X112807365Y-38604841D01*
X112847215Y-38644691D01*
X112875171Y-38678755D01*
X112893039Y-38712185D01*
X112904041Y-38748452D01*
X112907756Y-38786173D01*
X112904041Y-38823894D01*
X112893039Y-38860161D01*
X112875171Y-38893591D01*
X112847215Y-38927655D01*
X112807365Y-38967505D01*
X112807360Y-38967511D01*
X112444685Y-39330186D01*
X112444679Y-39330191D01*
X112404829Y-39370041D01*
X112370765Y-39397997D01*
X112337335Y-39415865D01*
X112301068Y-39426867D01*
X112263347Y-39430582D01*
X112225626Y-39426867D01*
X112189359Y-39415865D01*
X112155929Y-39397997D01*
X112121865Y-39370041D01*
X112082015Y-39330191D01*
X112082009Y-39330186D01*
X111418814Y-38666991D01*
X111418809Y-38666985D01*
X111378959Y-38627135D01*
X111351003Y-38593071D01*
X111333135Y-38559641D01*
X111322133Y-38523374D01*
X111318418Y-38485653D01*
X111322133Y-38447932D01*
X111333135Y-38411665D01*
X111351003Y-38378235D01*
X111378959Y-38344171D01*
X111418809Y-38304321D01*
X111418814Y-38304315D01*
X111781489Y-37941640D01*
X111781495Y-37941635D01*
X111821345Y-37901785D01*
X111855409Y-37873829D01*
X111888839Y-37855961D01*
X111925106Y-37844959D01*
X111962827Y-37841244D01*
X112000548Y-37844959D01*
G37*
G36*
X113326374Y-36519133D02*
G01*
X113362641Y-36530135D01*
X113396071Y-36548003D01*
X113430135Y-36575959D01*
X113469985Y-36615809D01*
X113469991Y-36615814D01*
X114133186Y-37279009D01*
X114133191Y-37279015D01*
X114173041Y-37318865D01*
X114200997Y-37352929D01*
X114218865Y-37386359D01*
X114229867Y-37422626D01*
X114233582Y-37460347D01*
X114229867Y-37498068D01*
X114218865Y-37534335D01*
X114200997Y-37567765D01*
X114173041Y-37601829D01*
X114133191Y-37641679D01*
X114133186Y-37641685D01*
X113770511Y-38004360D01*
X113770505Y-38004365D01*
X113730655Y-38044215D01*
X113696591Y-38072171D01*
X113663161Y-38090039D01*
X113626894Y-38101041D01*
X113589173Y-38104756D01*
X113551452Y-38101041D01*
X113515185Y-38090039D01*
X113481755Y-38072171D01*
X113447691Y-38044215D01*
X113407841Y-38004365D01*
X113407835Y-38004360D01*
X112744640Y-37341165D01*
X112744635Y-37341159D01*
X112704785Y-37301309D01*
X112676829Y-37267245D01*
X112658961Y-37233815D01*
X112647959Y-37197548D01*
X112644244Y-37159827D01*
X112647959Y-37122106D01*
X112658961Y-37085839D01*
X112676829Y-37052409D01*
X112704785Y-37018345D01*
X112744635Y-36978495D01*
X112744640Y-36978489D01*
X113107315Y-36615814D01*
X113107321Y-36615809D01*
X113147171Y-36575959D01*
X113181235Y-36548003D01*
X113214665Y-36530135D01*
X113250932Y-36519133D01*
X113288653Y-36515418D01*
X113326374Y-36519133D01*
G37*
M02*
