G04 #@! TF.GenerationSoftware,KiCad,Pcbnew,(5.1.5)-3*
G04 #@! TF.CreationDate,2020-02-08T22:33:43-06:00*
G04 #@! TF.ProjectId,tymkrs_Cyphercon_2020_flamingo,74796d6b-7273-45f4-9379-70686572636f,V0*
G04 #@! TF.SameCoordinates,Original*
G04 #@! TF.FileFunction,Paste,Bot*
G04 #@! TF.FilePolarity,Positive*
%FSLAX46Y46*%
G04 Gerber Fmt 4.6, Leading zero omitted, Abs format (unit mm)*
G04 Created by KiCad (PCBNEW (5.1.5)-3) date 2020-02-08 22:33:43*
%MOMM*%
%LPD*%
G04 APERTURE LIST*
%ADD10C,0.100000*%
%ADD11R,1.550000X1.300000*%
%ADD12R,1.500000X0.300000*%
%ADD13R,0.300000X1.500000*%
%ADD14R,1.350000X1.350000*%
%ADD15R,2.600000X1.400000*%
%ADD16C,0.635000*%
%ADD17R,0.650000X1.060000*%
%ADD18O,1.700000X1.700000*%
%ADD19R,1.700000X1.700000*%
%ADD20R,0.800000X1.400000*%
%ADD21R,2.500000X1.800000*%
G04 APERTURE END LIST*
D10*
G36*
X119992206Y-47723622D02*
G01*
X118719414Y-48996414D01*
X118471926Y-48748926D01*
X119744718Y-47476134D01*
X119992206Y-47723622D01*
G37*
G36*
X119532587Y-47264002D02*
G01*
X118259795Y-48536794D01*
X118012307Y-48289306D01*
X119285099Y-47016514D01*
X119532587Y-47264002D01*
G37*
G36*
X119072967Y-46804383D02*
G01*
X117800175Y-48077175D01*
X117552687Y-47829687D01*
X118825479Y-46556895D01*
X119072967Y-46804383D01*
G37*
G36*
X118613348Y-46344764D02*
G01*
X117340556Y-47617556D01*
X117093068Y-47370068D01*
X118365860Y-46097276D01*
X118613348Y-46344764D01*
G37*
G36*
X118153728Y-45885144D02*
G01*
X116880936Y-47157936D01*
X116633448Y-46910448D01*
X117906240Y-45637656D01*
X118153728Y-45885144D01*
G37*
G36*
X117694109Y-45425525D02*
G01*
X116421317Y-46698317D01*
X116173829Y-46450829D01*
X117446621Y-45178037D01*
X117694109Y-45425525D01*
G37*
G36*
X117234490Y-44965905D02*
G01*
X115961698Y-46238697D01*
X115714210Y-45991209D01*
X116987002Y-44718417D01*
X117234490Y-44965905D01*
G37*
G36*
X116774870Y-44506286D02*
G01*
X115502078Y-45779078D01*
X115254590Y-45531590D01*
X116527382Y-44258798D01*
X116774870Y-44506286D01*
G37*
G36*
X116315251Y-44046667D02*
G01*
X115042459Y-45319459D01*
X114794971Y-45071971D01*
X116067763Y-43799179D01*
X116315251Y-44046667D01*
G37*
G36*
X115855631Y-43587047D02*
G01*
X114582839Y-44859839D01*
X114335351Y-44612351D01*
X115608143Y-43339559D01*
X115855631Y-43587047D01*
G37*
G36*
X115396012Y-43127428D02*
G01*
X114123220Y-44400220D01*
X113875732Y-44152732D01*
X115148524Y-42879940D01*
X115396012Y-43127428D01*
G37*
G36*
X114936393Y-42667808D02*
G01*
X113663601Y-43940600D01*
X113416113Y-43693112D01*
X114688905Y-42420320D01*
X114936393Y-42667808D01*
G37*
G36*
X114476773Y-42208189D02*
G01*
X113203981Y-43480981D01*
X112956493Y-43233493D01*
X114229285Y-41960701D01*
X114476773Y-42208189D01*
G37*
G36*
X114017154Y-41748570D02*
G01*
X112744362Y-43021362D01*
X112496874Y-42773874D01*
X113769666Y-41501082D01*
X114017154Y-41748570D01*
G37*
G36*
X113557534Y-41288950D02*
G01*
X112284742Y-42561742D01*
X112037254Y-42314254D01*
X113310046Y-41041462D01*
X113557534Y-41288950D01*
G37*
G36*
X113097915Y-40829331D02*
G01*
X111825123Y-42102123D01*
X111577635Y-41854635D01*
X112850427Y-40581843D01*
X113097915Y-40829331D01*
G37*
D11*
X110655000Y-155230000D03*
X102705000Y-155230000D03*
X102705000Y-159730000D03*
X110655000Y-159730000D03*
D10*
G36*
X121104703Y-104475722D02*
G01*
X121119264Y-104477882D01*
X121133543Y-104481459D01*
X121147403Y-104486418D01*
X121160710Y-104492712D01*
X121173336Y-104500280D01*
X121185159Y-104509048D01*
X121196066Y-104518934D01*
X121205952Y-104529841D01*
X121214720Y-104541664D01*
X121222288Y-104554290D01*
X121228582Y-104567597D01*
X121233541Y-104581457D01*
X121237118Y-104595736D01*
X121239278Y-104610297D01*
X121240000Y-104625000D01*
X121240000Y-104925000D01*
X121239278Y-104939703D01*
X121237118Y-104954264D01*
X121233541Y-104968543D01*
X121228582Y-104982403D01*
X121222288Y-104995710D01*
X121214720Y-105008336D01*
X121205952Y-105020159D01*
X121196066Y-105031066D01*
X121185159Y-105040952D01*
X121173336Y-105049720D01*
X121160710Y-105057288D01*
X121147403Y-105063582D01*
X121133543Y-105068541D01*
X121119264Y-105072118D01*
X121104703Y-105074278D01*
X121090000Y-105075000D01*
X119790000Y-105075000D01*
X119775297Y-105074278D01*
X119760736Y-105072118D01*
X119746457Y-105068541D01*
X119732597Y-105063582D01*
X119719290Y-105057288D01*
X119706664Y-105049720D01*
X119694841Y-105040952D01*
X119683934Y-105031066D01*
X119674048Y-105020159D01*
X119665280Y-105008336D01*
X119657712Y-104995710D01*
X119651418Y-104982403D01*
X119646459Y-104968543D01*
X119642882Y-104954264D01*
X119640722Y-104939703D01*
X119640000Y-104925000D01*
X119640000Y-104625000D01*
X119640722Y-104610297D01*
X119642882Y-104595736D01*
X119646459Y-104581457D01*
X119651418Y-104567597D01*
X119657712Y-104554290D01*
X119665280Y-104541664D01*
X119674048Y-104529841D01*
X119683934Y-104518934D01*
X119694841Y-104509048D01*
X119706664Y-104500280D01*
X119719290Y-104492712D01*
X119732597Y-104486418D01*
X119746457Y-104481459D01*
X119760736Y-104477882D01*
X119775297Y-104475722D01*
X119790000Y-104475000D01*
X121090000Y-104475000D01*
X121104703Y-104475722D01*
G37*
G36*
X121104703Y-103205722D02*
G01*
X121119264Y-103207882D01*
X121133543Y-103211459D01*
X121147403Y-103216418D01*
X121160710Y-103222712D01*
X121173336Y-103230280D01*
X121185159Y-103239048D01*
X121196066Y-103248934D01*
X121205952Y-103259841D01*
X121214720Y-103271664D01*
X121222288Y-103284290D01*
X121228582Y-103297597D01*
X121233541Y-103311457D01*
X121237118Y-103325736D01*
X121239278Y-103340297D01*
X121240000Y-103355000D01*
X121240000Y-103655000D01*
X121239278Y-103669703D01*
X121237118Y-103684264D01*
X121233541Y-103698543D01*
X121228582Y-103712403D01*
X121222288Y-103725710D01*
X121214720Y-103738336D01*
X121205952Y-103750159D01*
X121196066Y-103761066D01*
X121185159Y-103770952D01*
X121173336Y-103779720D01*
X121160710Y-103787288D01*
X121147403Y-103793582D01*
X121133543Y-103798541D01*
X121119264Y-103802118D01*
X121104703Y-103804278D01*
X121090000Y-103805000D01*
X119790000Y-103805000D01*
X119775297Y-103804278D01*
X119760736Y-103802118D01*
X119746457Y-103798541D01*
X119732597Y-103793582D01*
X119719290Y-103787288D01*
X119706664Y-103779720D01*
X119694841Y-103770952D01*
X119683934Y-103761066D01*
X119674048Y-103750159D01*
X119665280Y-103738336D01*
X119657712Y-103725710D01*
X119651418Y-103712403D01*
X119646459Y-103698543D01*
X119642882Y-103684264D01*
X119640722Y-103669703D01*
X119640000Y-103655000D01*
X119640000Y-103355000D01*
X119640722Y-103340297D01*
X119642882Y-103325736D01*
X119646459Y-103311457D01*
X119651418Y-103297597D01*
X119657712Y-103284290D01*
X119665280Y-103271664D01*
X119674048Y-103259841D01*
X119683934Y-103248934D01*
X119694841Y-103239048D01*
X119706664Y-103230280D01*
X119719290Y-103222712D01*
X119732597Y-103216418D01*
X119746457Y-103211459D01*
X119760736Y-103207882D01*
X119775297Y-103205722D01*
X119790000Y-103205000D01*
X121090000Y-103205000D01*
X121104703Y-103205722D01*
G37*
G36*
X121104703Y-101935722D02*
G01*
X121119264Y-101937882D01*
X121133543Y-101941459D01*
X121147403Y-101946418D01*
X121160710Y-101952712D01*
X121173336Y-101960280D01*
X121185159Y-101969048D01*
X121196066Y-101978934D01*
X121205952Y-101989841D01*
X121214720Y-102001664D01*
X121222288Y-102014290D01*
X121228582Y-102027597D01*
X121233541Y-102041457D01*
X121237118Y-102055736D01*
X121239278Y-102070297D01*
X121240000Y-102085000D01*
X121240000Y-102385000D01*
X121239278Y-102399703D01*
X121237118Y-102414264D01*
X121233541Y-102428543D01*
X121228582Y-102442403D01*
X121222288Y-102455710D01*
X121214720Y-102468336D01*
X121205952Y-102480159D01*
X121196066Y-102491066D01*
X121185159Y-102500952D01*
X121173336Y-102509720D01*
X121160710Y-102517288D01*
X121147403Y-102523582D01*
X121133543Y-102528541D01*
X121119264Y-102532118D01*
X121104703Y-102534278D01*
X121090000Y-102535000D01*
X119790000Y-102535000D01*
X119775297Y-102534278D01*
X119760736Y-102532118D01*
X119746457Y-102528541D01*
X119732597Y-102523582D01*
X119719290Y-102517288D01*
X119706664Y-102509720D01*
X119694841Y-102500952D01*
X119683934Y-102491066D01*
X119674048Y-102480159D01*
X119665280Y-102468336D01*
X119657712Y-102455710D01*
X119651418Y-102442403D01*
X119646459Y-102428543D01*
X119642882Y-102414264D01*
X119640722Y-102399703D01*
X119640000Y-102385000D01*
X119640000Y-102085000D01*
X119640722Y-102070297D01*
X119642882Y-102055736D01*
X119646459Y-102041457D01*
X119651418Y-102027597D01*
X119657712Y-102014290D01*
X119665280Y-102001664D01*
X119674048Y-101989841D01*
X119683934Y-101978934D01*
X119694841Y-101969048D01*
X119706664Y-101960280D01*
X119719290Y-101952712D01*
X119732597Y-101946418D01*
X119746457Y-101941459D01*
X119760736Y-101937882D01*
X119775297Y-101935722D01*
X119790000Y-101935000D01*
X121090000Y-101935000D01*
X121104703Y-101935722D01*
G37*
G36*
X121104703Y-100665722D02*
G01*
X121119264Y-100667882D01*
X121133543Y-100671459D01*
X121147403Y-100676418D01*
X121160710Y-100682712D01*
X121173336Y-100690280D01*
X121185159Y-100699048D01*
X121196066Y-100708934D01*
X121205952Y-100719841D01*
X121214720Y-100731664D01*
X121222288Y-100744290D01*
X121228582Y-100757597D01*
X121233541Y-100771457D01*
X121237118Y-100785736D01*
X121239278Y-100800297D01*
X121240000Y-100815000D01*
X121240000Y-101115000D01*
X121239278Y-101129703D01*
X121237118Y-101144264D01*
X121233541Y-101158543D01*
X121228582Y-101172403D01*
X121222288Y-101185710D01*
X121214720Y-101198336D01*
X121205952Y-101210159D01*
X121196066Y-101221066D01*
X121185159Y-101230952D01*
X121173336Y-101239720D01*
X121160710Y-101247288D01*
X121147403Y-101253582D01*
X121133543Y-101258541D01*
X121119264Y-101262118D01*
X121104703Y-101264278D01*
X121090000Y-101265000D01*
X119790000Y-101265000D01*
X119775297Y-101264278D01*
X119760736Y-101262118D01*
X119746457Y-101258541D01*
X119732597Y-101253582D01*
X119719290Y-101247288D01*
X119706664Y-101239720D01*
X119694841Y-101230952D01*
X119683934Y-101221066D01*
X119674048Y-101210159D01*
X119665280Y-101198336D01*
X119657712Y-101185710D01*
X119651418Y-101172403D01*
X119646459Y-101158543D01*
X119642882Y-101144264D01*
X119640722Y-101129703D01*
X119640000Y-101115000D01*
X119640000Y-100815000D01*
X119640722Y-100800297D01*
X119642882Y-100785736D01*
X119646459Y-100771457D01*
X119651418Y-100757597D01*
X119657712Y-100744290D01*
X119665280Y-100731664D01*
X119674048Y-100719841D01*
X119683934Y-100708934D01*
X119694841Y-100699048D01*
X119706664Y-100690280D01*
X119719290Y-100682712D01*
X119732597Y-100676418D01*
X119746457Y-100671459D01*
X119760736Y-100667882D01*
X119775297Y-100665722D01*
X119790000Y-100665000D01*
X121090000Y-100665000D01*
X121104703Y-100665722D01*
G37*
G36*
X113904703Y-100665722D02*
G01*
X113919264Y-100667882D01*
X113933543Y-100671459D01*
X113947403Y-100676418D01*
X113960710Y-100682712D01*
X113973336Y-100690280D01*
X113985159Y-100699048D01*
X113996066Y-100708934D01*
X114005952Y-100719841D01*
X114014720Y-100731664D01*
X114022288Y-100744290D01*
X114028582Y-100757597D01*
X114033541Y-100771457D01*
X114037118Y-100785736D01*
X114039278Y-100800297D01*
X114040000Y-100815000D01*
X114040000Y-101115000D01*
X114039278Y-101129703D01*
X114037118Y-101144264D01*
X114033541Y-101158543D01*
X114028582Y-101172403D01*
X114022288Y-101185710D01*
X114014720Y-101198336D01*
X114005952Y-101210159D01*
X113996066Y-101221066D01*
X113985159Y-101230952D01*
X113973336Y-101239720D01*
X113960710Y-101247288D01*
X113947403Y-101253582D01*
X113933543Y-101258541D01*
X113919264Y-101262118D01*
X113904703Y-101264278D01*
X113890000Y-101265000D01*
X112590000Y-101265000D01*
X112575297Y-101264278D01*
X112560736Y-101262118D01*
X112546457Y-101258541D01*
X112532597Y-101253582D01*
X112519290Y-101247288D01*
X112506664Y-101239720D01*
X112494841Y-101230952D01*
X112483934Y-101221066D01*
X112474048Y-101210159D01*
X112465280Y-101198336D01*
X112457712Y-101185710D01*
X112451418Y-101172403D01*
X112446459Y-101158543D01*
X112442882Y-101144264D01*
X112440722Y-101129703D01*
X112440000Y-101115000D01*
X112440000Y-100815000D01*
X112440722Y-100800297D01*
X112442882Y-100785736D01*
X112446459Y-100771457D01*
X112451418Y-100757597D01*
X112457712Y-100744290D01*
X112465280Y-100731664D01*
X112474048Y-100719841D01*
X112483934Y-100708934D01*
X112494841Y-100699048D01*
X112506664Y-100690280D01*
X112519290Y-100682712D01*
X112532597Y-100676418D01*
X112546457Y-100671459D01*
X112560736Y-100667882D01*
X112575297Y-100665722D01*
X112590000Y-100665000D01*
X113890000Y-100665000D01*
X113904703Y-100665722D01*
G37*
G36*
X113904703Y-101935722D02*
G01*
X113919264Y-101937882D01*
X113933543Y-101941459D01*
X113947403Y-101946418D01*
X113960710Y-101952712D01*
X113973336Y-101960280D01*
X113985159Y-101969048D01*
X113996066Y-101978934D01*
X114005952Y-101989841D01*
X114014720Y-102001664D01*
X114022288Y-102014290D01*
X114028582Y-102027597D01*
X114033541Y-102041457D01*
X114037118Y-102055736D01*
X114039278Y-102070297D01*
X114040000Y-102085000D01*
X114040000Y-102385000D01*
X114039278Y-102399703D01*
X114037118Y-102414264D01*
X114033541Y-102428543D01*
X114028582Y-102442403D01*
X114022288Y-102455710D01*
X114014720Y-102468336D01*
X114005952Y-102480159D01*
X113996066Y-102491066D01*
X113985159Y-102500952D01*
X113973336Y-102509720D01*
X113960710Y-102517288D01*
X113947403Y-102523582D01*
X113933543Y-102528541D01*
X113919264Y-102532118D01*
X113904703Y-102534278D01*
X113890000Y-102535000D01*
X112590000Y-102535000D01*
X112575297Y-102534278D01*
X112560736Y-102532118D01*
X112546457Y-102528541D01*
X112532597Y-102523582D01*
X112519290Y-102517288D01*
X112506664Y-102509720D01*
X112494841Y-102500952D01*
X112483934Y-102491066D01*
X112474048Y-102480159D01*
X112465280Y-102468336D01*
X112457712Y-102455710D01*
X112451418Y-102442403D01*
X112446459Y-102428543D01*
X112442882Y-102414264D01*
X112440722Y-102399703D01*
X112440000Y-102385000D01*
X112440000Y-102085000D01*
X112440722Y-102070297D01*
X112442882Y-102055736D01*
X112446459Y-102041457D01*
X112451418Y-102027597D01*
X112457712Y-102014290D01*
X112465280Y-102001664D01*
X112474048Y-101989841D01*
X112483934Y-101978934D01*
X112494841Y-101969048D01*
X112506664Y-101960280D01*
X112519290Y-101952712D01*
X112532597Y-101946418D01*
X112546457Y-101941459D01*
X112560736Y-101937882D01*
X112575297Y-101935722D01*
X112590000Y-101935000D01*
X113890000Y-101935000D01*
X113904703Y-101935722D01*
G37*
G36*
X113904703Y-103205722D02*
G01*
X113919264Y-103207882D01*
X113933543Y-103211459D01*
X113947403Y-103216418D01*
X113960710Y-103222712D01*
X113973336Y-103230280D01*
X113985159Y-103239048D01*
X113996066Y-103248934D01*
X114005952Y-103259841D01*
X114014720Y-103271664D01*
X114022288Y-103284290D01*
X114028582Y-103297597D01*
X114033541Y-103311457D01*
X114037118Y-103325736D01*
X114039278Y-103340297D01*
X114040000Y-103355000D01*
X114040000Y-103655000D01*
X114039278Y-103669703D01*
X114037118Y-103684264D01*
X114033541Y-103698543D01*
X114028582Y-103712403D01*
X114022288Y-103725710D01*
X114014720Y-103738336D01*
X114005952Y-103750159D01*
X113996066Y-103761066D01*
X113985159Y-103770952D01*
X113973336Y-103779720D01*
X113960710Y-103787288D01*
X113947403Y-103793582D01*
X113933543Y-103798541D01*
X113919264Y-103802118D01*
X113904703Y-103804278D01*
X113890000Y-103805000D01*
X112590000Y-103805000D01*
X112575297Y-103804278D01*
X112560736Y-103802118D01*
X112546457Y-103798541D01*
X112532597Y-103793582D01*
X112519290Y-103787288D01*
X112506664Y-103779720D01*
X112494841Y-103770952D01*
X112483934Y-103761066D01*
X112474048Y-103750159D01*
X112465280Y-103738336D01*
X112457712Y-103725710D01*
X112451418Y-103712403D01*
X112446459Y-103698543D01*
X112442882Y-103684264D01*
X112440722Y-103669703D01*
X112440000Y-103655000D01*
X112440000Y-103355000D01*
X112440722Y-103340297D01*
X112442882Y-103325736D01*
X112446459Y-103311457D01*
X112451418Y-103297597D01*
X112457712Y-103284290D01*
X112465280Y-103271664D01*
X112474048Y-103259841D01*
X112483934Y-103248934D01*
X112494841Y-103239048D01*
X112506664Y-103230280D01*
X112519290Y-103222712D01*
X112532597Y-103216418D01*
X112546457Y-103211459D01*
X112560736Y-103207882D01*
X112575297Y-103205722D01*
X112590000Y-103205000D01*
X113890000Y-103205000D01*
X113904703Y-103205722D01*
G37*
G36*
X113904703Y-104475722D02*
G01*
X113919264Y-104477882D01*
X113933543Y-104481459D01*
X113947403Y-104486418D01*
X113960710Y-104492712D01*
X113973336Y-104500280D01*
X113985159Y-104509048D01*
X113996066Y-104518934D01*
X114005952Y-104529841D01*
X114014720Y-104541664D01*
X114022288Y-104554290D01*
X114028582Y-104567597D01*
X114033541Y-104581457D01*
X114037118Y-104595736D01*
X114039278Y-104610297D01*
X114040000Y-104625000D01*
X114040000Y-104925000D01*
X114039278Y-104939703D01*
X114037118Y-104954264D01*
X114033541Y-104968543D01*
X114028582Y-104982403D01*
X114022288Y-104995710D01*
X114014720Y-105008336D01*
X114005952Y-105020159D01*
X113996066Y-105031066D01*
X113985159Y-105040952D01*
X113973336Y-105049720D01*
X113960710Y-105057288D01*
X113947403Y-105063582D01*
X113933543Y-105068541D01*
X113919264Y-105072118D01*
X113904703Y-105074278D01*
X113890000Y-105075000D01*
X112590000Y-105075000D01*
X112575297Y-105074278D01*
X112560736Y-105072118D01*
X112546457Y-105068541D01*
X112532597Y-105063582D01*
X112519290Y-105057288D01*
X112506664Y-105049720D01*
X112494841Y-105040952D01*
X112483934Y-105031066D01*
X112474048Y-105020159D01*
X112465280Y-105008336D01*
X112457712Y-104995710D01*
X112451418Y-104982403D01*
X112446459Y-104968543D01*
X112442882Y-104954264D01*
X112440722Y-104939703D01*
X112440000Y-104925000D01*
X112440000Y-104625000D01*
X112440722Y-104610297D01*
X112442882Y-104595736D01*
X112446459Y-104581457D01*
X112451418Y-104567597D01*
X112457712Y-104554290D01*
X112465280Y-104541664D01*
X112474048Y-104529841D01*
X112483934Y-104518934D01*
X112494841Y-104509048D01*
X112506664Y-104500280D01*
X112519290Y-104492712D01*
X112532597Y-104486418D01*
X112546457Y-104481459D01*
X112560736Y-104477882D01*
X112575297Y-104475722D01*
X112590000Y-104475000D01*
X113890000Y-104475000D01*
X113904703Y-104475722D01*
G37*
D12*
X127245000Y-76410000D03*
X127245000Y-75910000D03*
X127245000Y-75410000D03*
X127245000Y-74910000D03*
X127245000Y-74410000D03*
X127245000Y-73910000D03*
X127245000Y-73410000D03*
X127245000Y-72910000D03*
X127245000Y-72410000D03*
X127245000Y-71910000D03*
X127245000Y-71410000D03*
X127245000Y-70910000D03*
D13*
X128695000Y-69460000D03*
X129195000Y-69460000D03*
X129695000Y-69460000D03*
X130195000Y-69460000D03*
X130695000Y-69460000D03*
X131195000Y-69460000D03*
X131695000Y-69460000D03*
X132195000Y-69460000D03*
X132695000Y-69460000D03*
X133195000Y-69460000D03*
X133695000Y-69460000D03*
X134195000Y-69460000D03*
D12*
X135645000Y-70910000D03*
X135645000Y-71410000D03*
X135645000Y-71910000D03*
X135645000Y-72410000D03*
X135645000Y-72910000D03*
X135645000Y-73410000D03*
X135645000Y-73910000D03*
X135645000Y-74410000D03*
X135645000Y-74910000D03*
X135645000Y-75410000D03*
X135645000Y-75910000D03*
X135645000Y-76410000D03*
D13*
X134195000Y-77860000D03*
X133695000Y-77860000D03*
X133195000Y-77860000D03*
X132695000Y-77860000D03*
X132195000Y-77860000D03*
X131695000Y-77860000D03*
X131195000Y-77860000D03*
X130695000Y-77860000D03*
X130195000Y-77860000D03*
X129695000Y-77860000D03*
X129195000Y-77860000D03*
X128695000Y-77860000D03*
D14*
X132320000Y-72785000D03*
X132320000Y-74535000D03*
X130570000Y-72785000D03*
X130570000Y-74535000D03*
D15*
X101981000Y-173422000D03*
X101981000Y-178622000D03*
X112014000Y-173930000D03*
X112014000Y-179130000D03*
X122047000Y-174438000D03*
X122047000Y-179638000D03*
X132080000Y-174565000D03*
X132080000Y-179765000D03*
X141986000Y-173930000D03*
X141986000Y-179130000D03*
D10*
G36*
X151594736Y-173759258D02*
G01*
X149756258Y-175597736D01*
X148766308Y-174607786D01*
X150604786Y-172769308D01*
X151594736Y-173759258D01*
G37*
G36*
X155271692Y-177436214D02*
G01*
X153433214Y-179274692D01*
X152443264Y-178284742D01*
X154281742Y-176446264D01*
X155271692Y-177436214D01*
G37*
G36*
X111327065Y-44375362D02*
G01*
X111350726Y-44378872D01*
X111373930Y-44384684D01*
X111396452Y-44392742D01*
X111418076Y-44402970D01*
X111438593Y-44415267D01*
X111457806Y-44429517D01*
X111475530Y-44445581D01*
X111820245Y-44790296D01*
X111836309Y-44808020D01*
X111850559Y-44827233D01*
X111862856Y-44847750D01*
X111873084Y-44869374D01*
X111881142Y-44891896D01*
X111886954Y-44915100D01*
X111890464Y-44938761D01*
X111891638Y-44962653D01*
X111890464Y-44986545D01*
X111886954Y-45010206D01*
X111881142Y-45033410D01*
X111873084Y-45055932D01*
X111862856Y-45077556D01*
X111850559Y-45098073D01*
X111836309Y-45117286D01*
X111820245Y-45135010D01*
X111175010Y-45780245D01*
X111157286Y-45796309D01*
X111138073Y-45810559D01*
X111117556Y-45822856D01*
X111095932Y-45833084D01*
X111073410Y-45841142D01*
X111050206Y-45846954D01*
X111026545Y-45850464D01*
X111002653Y-45851638D01*
X110978761Y-45850464D01*
X110955100Y-45846954D01*
X110931896Y-45841142D01*
X110909374Y-45833084D01*
X110887750Y-45822856D01*
X110867233Y-45810559D01*
X110848020Y-45796309D01*
X110830296Y-45780245D01*
X110485581Y-45435530D01*
X110469517Y-45417806D01*
X110455267Y-45398593D01*
X110442970Y-45378076D01*
X110432742Y-45356452D01*
X110424684Y-45333930D01*
X110418872Y-45310726D01*
X110415362Y-45287065D01*
X110414188Y-45263173D01*
X110415362Y-45239281D01*
X110418872Y-45215620D01*
X110424684Y-45192416D01*
X110432742Y-45169894D01*
X110442970Y-45148270D01*
X110455267Y-45127753D01*
X110469517Y-45108540D01*
X110485581Y-45090816D01*
X111130816Y-44445581D01*
X111148540Y-44429517D01*
X111167753Y-44415267D01*
X111188270Y-44402970D01*
X111209894Y-44392742D01*
X111232416Y-44384684D01*
X111255620Y-44378872D01*
X111279281Y-44375362D01*
X111303173Y-44374188D01*
X111327065Y-44375362D01*
G37*
G36*
X110001239Y-43049536D02*
G01*
X110024900Y-43053046D01*
X110048104Y-43058858D01*
X110070626Y-43066916D01*
X110092250Y-43077144D01*
X110112767Y-43089441D01*
X110131980Y-43103691D01*
X110149704Y-43119755D01*
X110494419Y-43464470D01*
X110510483Y-43482194D01*
X110524733Y-43501407D01*
X110537030Y-43521924D01*
X110547258Y-43543548D01*
X110555316Y-43566070D01*
X110561128Y-43589274D01*
X110564638Y-43612935D01*
X110565812Y-43636827D01*
X110564638Y-43660719D01*
X110561128Y-43684380D01*
X110555316Y-43707584D01*
X110547258Y-43730106D01*
X110537030Y-43751730D01*
X110524733Y-43772247D01*
X110510483Y-43791460D01*
X110494419Y-43809184D01*
X109849184Y-44454419D01*
X109831460Y-44470483D01*
X109812247Y-44484733D01*
X109791730Y-44497030D01*
X109770106Y-44507258D01*
X109747584Y-44515316D01*
X109724380Y-44521128D01*
X109700719Y-44524638D01*
X109676827Y-44525812D01*
X109652935Y-44524638D01*
X109629274Y-44521128D01*
X109606070Y-44515316D01*
X109583548Y-44507258D01*
X109561924Y-44497030D01*
X109541407Y-44484733D01*
X109522194Y-44470483D01*
X109504470Y-44454419D01*
X109159755Y-44109704D01*
X109143691Y-44091980D01*
X109129441Y-44072767D01*
X109117144Y-44052250D01*
X109106916Y-44030626D01*
X109098858Y-44008104D01*
X109093046Y-43984900D01*
X109089536Y-43961239D01*
X109088362Y-43937347D01*
X109089536Y-43913455D01*
X109093046Y-43889794D01*
X109098858Y-43866590D01*
X109106916Y-43844068D01*
X109117144Y-43822444D01*
X109129441Y-43801927D01*
X109143691Y-43782714D01*
X109159755Y-43764990D01*
X109804990Y-43119755D01*
X109822714Y-43103691D01*
X109841927Y-43089441D01*
X109862444Y-43077144D01*
X109884068Y-43066916D01*
X109906590Y-43058858D01*
X109929794Y-43053046D01*
X109953455Y-43049536D01*
X109977347Y-43048362D01*
X110001239Y-43049536D01*
G37*
G36*
X113312545Y-36572536D02*
G01*
X113336206Y-36576046D01*
X113359410Y-36581858D01*
X113381932Y-36589916D01*
X113403556Y-36600144D01*
X113424073Y-36612441D01*
X113443286Y-36626691D01*
X113461010Y-36642755D01*
X114106245Y-37287990D01*
X114122309Y-37305714D01*
X114136559Y-37324927D01*
X114148856Y-37345444D01*
X114159084Y-37367068D01*
X114167142Y-37389590D01*
X114172954Y-37412794D01*
X114176464Y-37436455D01*
X114177638Y-37460347D01*
X114176464Y-37484239D01*
X114172954Y-37507900D01*
X114167142Y-37531104D01*
X114159084Y-37553626D01*
X114148856Y-37575250D01*
X114136559Y-37595767D01*
X114122309Y-37614980D01*
X114106245Y-37632704D01*
X113761530Y-37977419D01*
X113743806Y-37993483D01*
X113724593Y-38007733D01*
X113704076Y-38020030D01*
X113682452Y-38030258D01*
X113659930Y-38038316D01*
X113636726Y-38044128D01*
X113613065Y-38047638D01*
X113589173Y-38048812D01*
X113565281Y-38047638D01*
X113541620Y-38044128D01*
X113518416Y-38038316D01*
X113495894Y-38030258D01*
X113474270Y-38020030D01*
X113453753Y-38007733D01*
X113434540Y-37993483D01*
X113416816Y-37977419D01*
X112771581Y-37332184D01*
X112755517Y-37314460D01*
X112741267Y-37295247D01*
X112728970Y-37274730D01*
X112718742Y-37253106D01*
X112710684Y-37230584D01*
X112704872Y-37207380D01*
X112701362Y-37183719D01*
X112700188Y-37159827D01*
X112701362Y-37135935D01*
X112704872Y-37112274D01*
X112710684Y-37089070D01*
X112718742Y-37066548D01*
X112728970Y-37044924D01*
X112741267Y-37024407D01*
X112755517Y-37005194D01*
X112771581Y-36987470D01*
X113116296Y-36642755D01*
X113134020Y-36626691D01*
X113153233Y-36612441D01*
X113173750Y-36600144D01*
X113195374Y-36589916D01*
X113217896Y-36581858D01*
X113241100Y-36576046D01*
X113264761Y-36572536D01*
X113288653Y-36571362D01*
X113312545Y-36572536D01*
G37*
G36*
X111986719Y-37898362D02*
G01*
X112010380Y-37901872D01*
X112033584Y-37907684D01*
X112056106Y-37915742D01*
X112077730Y-37925970D01*
X112098247Y-37938267D01*
X112117460Y-37952517D01*
X112135184Y-37968581D01*
X112780419Y-38613816D01*
X112796483Y-38631540D01*
X112810733Y-38650753D01*
X112823030Y-38671270D01*
X112833258Y-38692894D01*
X112841316Y-38715416D01*
X112847128Y-38738620D01*
X112850638Y-38762281D01*
X112851812Y-38786173D01*
X112850638Y-38810065D01*
X112847128Y-38833726D01*
X112841316Y-38856930D01*
X112833258Y-38879452D01*
X112823030Y-38901076D01*
X112810733Y-38921593D01*
X112796483Y-38940806D01*
X112780419Y-38958530D01*
X112435704Y-39303245D01*
X112417980Y-39319309D01*
X112398767Y-39333559D01*
X112378250Y-39345856D01*
X112356626Y-39356084D01*
X112334104Y-39364142D01*
X112310900Y-39369954D01*
X112287239Y-39373464D01*
X112263347Y-39374638D01*
X112239455Y-39373464D01*
X112215794Y-39369954D01*
X112192590Y-39364142D01*
X112170068Y-39356084D01*
X112148444Y-39345856D01*
X112127927Y-39333559D01*
X112108714Y-39319309D01*
X112090990Y-39303245D01*
X111445755Y-38658010D01*
X111429691Y-38640286D01*
X111415441Y-38621073D01*
X111403144Y-38600556D01*
X111392916Y-38578932D01*
X111384858Y-38556410D01*
X111379046Y-38533206D01*
X111375536Y-38509545D01*
X111374362Y-38485653D01*
X111375536Y-38461761D01*
X111379046Y-38438100D01*
X111384858Y-38414896D01*
X111392916Y-38392374D01*
X111403144Y-38370750D01*
X111415441Y-38350233D01*
X111429691Y-38331020D01*
X111445755Y-38313296D01*
X111790470Y-37968581D01*
X111808194Y-37952517D01*
X111827407Y-37938267D01*
X111847924Y-37925970D01*
X111869548Y-37915742D01*
X111892070Y-37907684D01*
X111915274Y-37901872D01*
X111938935Y-37898362D01*
X111962827Y-37897188D01*
X111986719Y-37898362D01*
G37*
D16*
X112834987Y-147388013D03*
X113733013Y-147388013D03*
X112834987Y-146489987D03*
D10*
G36*
X128557031Y-165735000D02*
G01*
X127602437Y-166689594D01*
X126647843Y-165735000D01*
X127602437Y-164780406D01*
X128557031Y-165735000D01*
G37*
G36*
X127319594Y-166972437D02*
G01*
X126365000Y-167927031D01*
X125410406Y-166972437D01*
X126365000Y-166017843D01*
X127319594Y-166972437D01*
G37*
G36*
X127319594Y-164497563D02*
G01*
X126365000Y-165452157D01*
X125410406Y-164497563D01*
X126365000Y-163542969D01*
X127319594Y-164497563D01*
G37*
G36*
X126082157Y-165735000D02*
G01*
X125127563Y-166689594D01*
X124172969Y-165735000D01*
X125127563Y-164780406D01*
X126082157Y-165735000D01*
G37*
G36*
X130855128Y-165346091D02*
G01*
X130642996Y-165133959D01*
X131703656Y-164073299D01*
X131915788Y-164285431D01*
X130855128Y-165346091D01*
G37*
G36*
X130501575Y-164992538D02*
G01*
X130289443Y-164780406D01*
X131350103Y-163719746D01*
X131562235Y-163931878D01*
X130501575Y-164992538D01*
G37*
G36*
X130148021Y-164638984D02*
G01*
X129935889Y-164426852D01*
X130996549Y-163366192D01*
X131208681Y-163578324D01*
X130148021Y-164638984D01*
G37*
G36*
X129794468Y-164285431D02*
G01*
X129582336Y-164073299D01*
X130642996Y-163012639D01*
X130855128Y-163224771D01*
X129794468Y-164285431D01*
G37*
G36*
X129440915Y-163931878D02*
G01*
X129228783Y-163719746D01*
X130289443Y-162659086D01*
X130501575Y-162871218D01*
X129440915Y-163931878D01*
G37*
G36*
X129087361Y-163578324D02*
G01*
X128875229Y-163366192D01*
X129935889Y-162305532D01*
X130148021Y-162517664D01*
X129087361Y-163578324D01*
G37*
G36*
X128733808Y-163224771D02*
G01*
X128521676Y-163012639D01*
X129582336Y-161951979D01*
X129794468Y-162164111D01*
X128733808Y-163224771D01*
G37*
G36*
X128380254Y-162871217D02*
G01*
X128168122Y-162659085D01*
X129228782Y-161598425D01*
X129440914Y-161810557D01*
X128380254Y-162871217D01*
G37*
G36*
X128026701Y-162517664D02*
G01*
X127814569Y-162305532D01*
X128875229Y-161244872D01*
X129087361Y-161457004D01*
X128026701Y-162517664D01*
G37*
G36*
X127673148Y-162164111D02*
G01*
X127461016Y-161951979D01*
X128521676Y-160891319D01*
X128733808Y-161103451D01*
X127673148Y-162164111D01*
G37*
G36*
X127319594Y-161810557D02*
G01*
X127107462Y-161598425D01*
X128168122Y-160537765D01*
X128380254Y-160749897D01*
X127319594Y-161810557D01*
G37*
G36*
X126966041Y-161457004D02*
G01*
X126753909Y-161244872D01*
X127814569Y-160184212D01*
X128026701Y-160396344D01*
X126966041Y-161457004D01*
G37*
G36*
X125976091Y-161244872D02*
G01*
X125763959Y-161457004D01*
X124703299Y-160396344D01*
X124915431Y-160184212D01*
X125976091Y-161244872D01*
G37*
G36*
X125622538Y-161598425D02*
G01*
X125410406Y-161810557D01*
X124349746Y-160749897D01*
X124561878Y-160537765D01*
X125622538Y-161598425D01*
G37*
G36*
X125268984Y-161951979D02*
G01*
X125056852Y-162164111D01*
X123996192Y-161103451D01*
X124208324Y-160891319D01*
X125268984Y-161951979D01*
G37*
G36*
X124915431Y-162305532D02*
G01*
X124703299Y-162517664D01*
X123642639Y-161457004D01*
X123854771Y-161244872D01*
X124915431Y-162305532D01*
G37*
G36*
X124561878Y-162659085D02*
G01*
X124349746Y-162871217D01*
X123289086Y-161810557D01*
X123501218Y-161598425D01*
X124561878Y-162659085D01*
G37*
G36*
X124208324Y-163012639D02*
G01*
X123996192Y-163224771D01*
X122935532Y-162164111D01*
X123147664Y-161951979D01*
X124208324Y-163012639D01*
G37*
G36*
X123854771Y-163366192D02*
G01*
X123642639Y-163578324D01*
X122581979Y-162517664D01*
X122794111Y-162305532D01*
X123854771Y-163366192D01*
G37*
G36*
X123501217Y-163719746D02*
G01*
X123289085Y-163931878D01*
X122228425Y-162871218D01*
X122440557Y-162659086D01*
X123501217Y-163719746D01*
G37*
G36*
X123147664Y-164073299D02*
G01*
X122935532Y-164285431D01*
X121874872Y-163224771D01*
X122087004Y-163012639D01*
X123147664Y-164073299D01*
G37*
G36*
X122794111Y-164426852D02*
G01*
X122581979Y-164638984D01*
X121521319Y-163578324D01*
X121733451Y-163366192D01*
X122794111Y-164426852D01*
G37*
G36*
X122440557Y-164780406D02*
G01*
X122228425Y-164992538D01*
X121167765Y-163931878D01*
X121379897Y-163719746D01*
X122440557Y-164780406D01*
G37*
G36*
X122087004Y-165133959D02*
G01*
X121874872Y-165346091D01*
X120814212Y-164285431D01*
X121026344Y-164073299D01*
X122087004Y-165133959D01*
G37*
G36*
X121026344Y-167396701D02*
G01*
X120814212Y-167184569D01*
X121874872Y-166123909D01*
X122087004Y-166336041D01*
X121026344Y-167396701D01*
G37*
G36*
X121379897Y-167750254D02*
G01*
X121167765Y-167538122D01*
X122228425Y-166477462D01*
X122440557Y-166689594D01*
X121379897Y-167750254D01*
G37*
G36*
X121733451Y-168103808D02*
G01*
X121521319Y-167891676D01*
X122581979Y-166831016D01*
X122794111Y-167043148D01*
X121733451Y-168103808D01*
G37*
G36*
X122087004Y-168457361D02*
G01*
X121874872Y-168245229D01*
X122935532Y-167184569D01*
X123147664Y-167396701D01*
X122087004Y-168457361D01*
G37*
G36*
X122440557Y-168810914D02*
G01*
X122228425Y-168598782D01*
X123289085Y-167538122D01*
X123501217Y-167750254D01*
X122440557Y-168810914D01*
G37*
G36*
X122794111Y-169164468D02*
G01*
X122581979Y-168952336D01*
X123642639Y-167891676D01*
X123854771Y-168103808D01*
X122794111Y-169164468D01*
G37*
G36*
X123147664Y-169518021D02*
G01*
X122935532Y-169305889D01*
X123996192Y-168245229D01*
X124208324Y-168457361D01*
X123147664Y-169518021D01*
G37*
G36*
X123501218Y-169871575D02*
G01*
X123289086Y-169659443D01*
X124349746Y-168598783D01*
X124561878Y-168810915D01*
X123501218Y-169871575D01*
G37*
G36*
X123854771Y-170225128D02*
G01*
X123642639Y-170012996D01*
X124703299Y-168952336D01*
X124915431Y-169164468D01*
X123854771Y-170225128D01*
G37*
G36*
X124208324Y-170578681D02*
G01*
X123996192Y-170366549D01*
X125056852Y-169305889D01*
X125268984Y-169518021D01*
X124208324Y-170578681D01*
G37*
G36*
X124561878Y-170932235D02*
G01*
X124349746Y-170720103D01*
X125410406Y-169659443D01*
X125622538Y-169871575D01*
X124561878Y-170932235D01*
G37*
G36*
X124915431Y-171285788D02*
G01*
X124703299Y-171073656D01*
X125763959Y-170012996D01*
X125976091Y-170225128D01*
X124915431Y-171285788D01*
G37*
G36*
X128026701Y-171073656D02*
G01*
X127814569Y-171285788D01*
X126753909Y-170225128D01*
X126966041Y-170012996D01*
X128026701Y-171073656D01*
G37*
G36*
X128380254Y-170720103D02*
G01*
X128168122Y-170932235D01*
X127107462Y-169871575D01*
X127319594Y-169659443D01*
X128380254Y-170720103D01*
G37*
G36*
X128733808Y-170366549D02*
G01*
X128521676Y-170578681D01*
X127461016Y-169518021D01*
X127673148Y-169305889D01*
X128733808Y-170366549D01*
G37*
G36*
X129087361Y-170012996D02*
G01*
X128875229Y-170225128D01*
X127814569Y-169164468D01*
X128026701Y-168952336D01*
X129087361Y-170012996D01*
G37*
G36*
X129440914Y-169659443D02*
G01*
X129228782Y-169871575D01*
X128168122Y-168810915D01*
X128380254Y-168598783D01*
X129440914Y-169659443D01*
G37*
G36*
X129794468Y-169305889D02*
G01*
X129582336Y-169518021D01*
X128521676Y-168457361D01*
X128733808Y-168245229D01*
X129794468Y-169305889D01*
G37*
G36*
X130148021Y-168952336D02*
G01*
X129935889Y-169164468D01*
X128875229Y-168103808D01*
X129087361Y-167891676D01*
X130148021Y-168952336D01*
G37*
G36*
X130501575Y-168598782D02*
G01*
X130289443Y-168810914D01*
X129228783Y-167750254D01*
X129440915Y-167538122D01*
X130501575Y-168598782D01*
G37*
G36*
X130855128Y-168245229D02*
G01*
X130642996Y-168457361D01*
X129582336Y-167396701D01*
X129794468Y-167184569D01*
X130855128Y-168245229D01*
G37*
G36*
X131208681Y-167891676D02*
G01*
X130996549Y-168103808D01*
X129935889Y-167043148D01*
X130148021Y-166831016D01*
X131208681Y-167891676D01*
G37*
G36*
X131562235Y-167538122D02*
G01*
X131350103Y-167750254D01*
X130289443Y-166689594D01*
X130501575Y-166477462D01*
X131562235Y-167538122D01*
G37*
G36*
X131915788Y-167184569D02*
G01*
X131703656Y-167396701D01*
X130642996Y-166336041D01*
X130855128Y-166123909D01*
X131915788Y-167184569D01*
G37*
D17*
X148270000Y-161460000D03*
X146370000Y-161460000D03*
X146370000Y-163660000D03*
X147320000Y-163660000D03*
X148270000Y-163660000D03*
D10*
G36*
X115619703Y-122890722D02*
G01*
X115634264Y-122892882D01*
X115648543Y-122896459D01*
X115662403Y-122901418D01*
X115675710Y-122907712D01*
X115688336Y-122915280D01*
X115700159Y-122924048D01*
X115711066Y-122933934D01*
X115720952Y-122944841D01*
X115729720Y-122956664D01*
X115737288Y-122969290D01*
X115743582Y-122982597D01*
X115748541Y-122996457D01*
X115752118Y-123010736D01*
X115754278Y-123025297D01*
X115755000Y-123040000D01*
X115755000Y-123340000D01*
X115754278Y-123354703D01*
X115752118Y-123369264D01*
X115748541Y-123383543D01*
X115743582Y-123397403D01*
X115737288Y-123410710D01*
X115729720Y-123423336D01*
X115720952Y-123435159D01*
X115711066Y-123446066D01*
X115700159Y-123455952D01*
X115688336Y-123464720D01*
X115675710Y-123472288D01*
X115662403Y-123478582D01*
X115648543Y-123483541D01*
X115634264Y-123487118D01*
X115619703Y-123489278D01*
X115605000Y-123490000D01*
X113855000Y-123490000D01*
X113840297Y-123489278D01*
X113825736Y-123487118D01*
X113811457Y-123483541D01*
X113797597Y-123478582D01*
X113784290Y-123472288D01*
X113771664Y-123464720D01*
X113759841Y-123455952D01*
X113748934Y-123446066D01*
X113739048Y-123435159D01*
X113730280Y-123423336D01*
X113722712Y-123410710D01*
X113716418Y-123397403D01*
X113711459Y-123383543D01*
X113707882Y-123369264D01*
X113705722Y-123354703D01*
X113705000Y-123340000D01*
X113705000Y-123040000D01*
X113705722Y-123025297D01*
X113707882Y-123010736D01*
X113711459Y-122996457D01*
X113716418Y-122982597D01*
X113722712Y-122969290D01*
X113730280Y-122956664D01*
X113739048Y-122944841D01*
X113748934Y-122933934D01*
X113759841Y-122924048D01*
X113771664Y-122915280D01*
X113784290Y-122907712D01*
X113797597Y-122901418D01*
X113811457Y-122896459D01*
X113825736Y-122892882D01*
X113840297Y-122890722D01*
X113855000Y-122890000D01*
X115605000Y-122890000D01*
X115619703Y-122890722D01*
G37*
G36*
X115619703Y-124160722D02*
G01*
X115634264Y-124162882D01*
X115648543Y-124166459D01*
X115662403Y-124171418D01*
X115675710Y-124177712D01*
X115688336Y-124185280D01*
X115700159Y-124194048D01*
X115711066Y-124203934D01*
X115720952Y-124214841D01*
X115729720Y-124226664D01*
X115737288Y-124239290D01*
X115743582Y-124252597D01*
X115748541Y-124266457D01*
X115752118Y-124280736D01*
X115754278Y-124295297D01*
X115755000Y-124310000D01*
X115755000Y-124610000D01*
X115754278Y-124624703D01*
X115752118Y-124639264D01*
X115748541Y-124653543D01*
X115743582Y-124667403D01*
X115737288Y-124680710D01*
X115729720Y-124693336D01*
X115720952Y-124705159D01*
X115711066Y-124716066D01*
X115700159Y-124725952D01*
X115688336Y-124734720D01*
X115675710Y-124742288D01*
X115662403Y-124748582D01*
X115648543Y-124753541D01*
X115634264Y-124757118D01*
X115619703Y-124759278D01*
X115605000Y-124760000D01*
X113855000Y-124760000D01*
X113840297Y-124759278D01*
X113825736Y-124757118D01*
X113811457Y-124753541D01*
X113797597Y-124748582D01*
X113784290Y-124742288D01*
X113771664Y-124734720D01*
X113759841Y-124725952D01*
X113748934Y-124716066D01*
X113739048Y-124705159D01*
X113730280Y-124693336D01*
X113722712Y-124680710D01*
X113716418Y-124667403D01*
X113711459Y-124653543D01*
X113707882Y-124639264D01*
X113705722Y-124624703D01*
X113705000Y-124610000D01*
X113705000Y-124310000D01*
X113705722Y-124295297D01*
X113707882Y-124280736D01*
X113711459Y-124266457D01*
X113716418Y-124252597D01*
X113722712Y-124239290D01*
X113730280Y-124226664D01*
X113739048Y-124214841D01*
X113748934Y-124203934D01*
X113759841Y-124194048D01*
X113771664Y-124185280D01*
X113784290Y-124177712D01*
X113797597Y-124171418D01*
X113811457Y-124166459D01*
X113825736Y-124162882D01*
X113840297Y-124160722D01*
X113855000Y-124160000D01*
X115605000Y-124160000D01*
X115619703Y-124160722D01*
G37*
G36*
X115619703Y-125430722D02*
G01*
X115634264Y-125432882D01*
X115648543Y-125436459D01*
X115662403Y-125441418D01*
X115675710Y-125447712D01*
X115688336Y-125455280D01*
X115700159Y-125464048D01*
X115711066Y-125473934D01*
X115720952Y-125484841D01*
X115729720Y-125496664D01*
X115737288Y-125509290D01*
X115743582Y-125522597D01*
X115748541Y-125536457D01*
X115752118Y-125550736D01*
X115754278Y-125565297D01*
X115755000Y-125580000D01*
X115755000Y-125880000D01*
X115754278Y-125894703D01*
X115752118Y-125909264D01*
X115748541Y-125923543D01*
X115743582Y-125937403D01*
X115737288Y-125950710D01*
X115729720Y-125963336D01*
X115720952Y-125975159D01*
X115711066Y-125986066D01*
X115700159Y-125995952D01*
X115688336Y-126004720D01*
X115675710Y-126012288D01*
X115662403Y-126018582D01*
X115648543Y-126023541D01*
X115634264Y-126027118D01*
X115619703Y-126029278D01*
X115605000Y-126030000D01*
X113855000Y-126030000D01*
X113840297Y-126029278D01*
X113825736Y-126027118D01*
X113811457Y-126023541D01*
X113797597Y-126018582D01*
X113784290Y-126012288D01*
X113771664Y-126004720D01*
X113759841Y-125995952D01*
X113748934Y-125986066D01*
X113739048Y-125975159D01*
X113730280Y-125963336D01*
X113722712Y-125950710D01*
X113716418Y-125937403D01*
X113711459Y-125923543D01*
X113707882Y-125909264D01*
X113705722Y-125894703D01*
X113705000Y-125880000D01*
X113705000Y-125580000D01*
X113705722Y-125565297D01*
X113707882Y-125550736D01*
X113711459Y-125536457D01*
X113716418Y-125522597D01*
X113722712Y-125509290D01*
X113730280Y-125496664D01*
X113739048Y-125484841D01*
X113748934Y-125473934D01*
X113759841Y-125464048D01*
X113771664Y-125455280D01*
X113784290Y-125447712D01*
X113797597Y-125441418D01*
X113811457Y-125436459D01*
X113825736Y-125432882D01*
X113840297Y-125430722D01*
X113855000Y-125430000D01*
X115605000Y-125430000D01*
X115619703Y-125430722D01*
G37*
G36*
X115619703Y-126700722D02*
G01*
X115634264Y-126702882D01*
X115648543Y-126706459D01*
X115662403Y-126711418D01*
X115675710Y-126717712D01*
X115688336Y-126725280D01*
X115700159Y-126734048D01*
X115711066Y-126743934D01*
X115720952Y-126754841D01*
X115729720Y-126766664D01*
X115737288Y-126779290D01*
X115743582Y-126792597D01*
X115748541Y-126806457D01*
X115752118Y-126820736D01*
X115754278Y-126835297D01*
X115755000Y-126850000D01*
X115755000Y-127150000D01*
X115754278Y-127164703D01*
X115752118Y-127179264D01*
X115748541Y-127193543D01*
X115743582Y-127207403D01*
X115737288Y-127220710D01*
X115729720Y-127233336D01*
X115720952Y-127245159D01*
X115711066Y-127256066D01*
X115700159Y-127265952D01*
X115688336Y-127274720D01*
X115675710Y-127282288D01*
X115662403Y-127288582D01*
X115648543Y-127293541D01*
X115634264Y-127297118D01*
X115619703Y-127299278D01*
X115605000Y-127300000D01*
X113855000Y-127300000D01*
X113840297Y-127299278D01*
X113825736Y-127297118D01*
X113811457Y-127293541D01*
X113797597Y-127288582D01*
X113784290Y-127282288D01*
X113771664Y-127274720D01*
X113759841Y-127265952D01*
X113748934Y-127256066D01*
X113739048Y-127245159D01*
X113730280Y-127233336D01*
X113722712Y-127220710D01*
X113716418Y-127207403D01*
X113711459Y-127193543D01*
X113707882Y-127179264D01*
X113705722Y-127164703D01*
X113705000Y-127150000D01*
X113705000Y-126850000D01*
X113705722Y-126835297D01*
X113707882Y-126820736D01*
X113711459Y-126806457D01*
X113716418Y-126792597D01*
X113722712Y-126779290D01*
X113730280Y-126766664D01*
X113739048Y-126754841D01*
X113748934Y-126743934D01*
X113759841Y-126734048D01*
X113771664Y-126725280D01*
X113784290Y-126717712D01*
X113797597Y-126711418D01*
X113811457Y-126706459D01*
X113825736Y-126702882D01*
X113840297Y-126700722D01*
X113855000Y-126700000D01*
X115605000Y-126700000D01*
X115619703Y-126700722D01*
G37*
G36*
X115619703Y-127970722D02*
G01*
X115634264Y-127972882D01*
X115648543Y-127976459D01*
X115662403Y-127981418D01*
X115675710Y-127987712D01*
X115688336Y-127995280D01*
X115700159Y-128004048D01*
X115711066Y-128013934D01*
X115720952Y-128024841D01*
X115729720Y-128036664D01*
X115737288Y-128049290D01*
X115743582Y-128062597D01*
X115748541Y-128076457D01*
X115752118Y-128090736D01*
X115754278Y-128105297D01*
X115755000Y-128120000D01*
X115755000Y-128420000D01*
X115754278Y-128434703D01*
X115752118Y-128449264D01*
X115748541Y-128463543D01*
X115743582Y-128477403D01*
X115737288Y-128490710D01*
X115729720Y-128503336D01*
X115720952Y-128515159D01*
X115711066Y-128526066D01*
X115700159Y-128535952D01*
X115688336Y-128544720D01*
X115675710Y-128552288D01*
X115662403Y-128558582D01*
X115648543Y-128563541D01*
X115634264Y-128567118D01*
X115619703Y-128569278D01*
X115605000Y-128570000D01*
X113855000Y-128570000D01*
X113840297Y-128569278D01*
X113825736Y-128567118D01*
X113811457Y-128563541D01*
X113797597Y-128558582D01*
X113784290Y-128552288D01*
X113771664Y-128544720D01*
X113759841Y-128535952D01*
X113748934Y-128526066D01*
X113739048Y-128515159D01*
X113730280Y-128503336D01*
X113722712Y-128490710D01*
X113716418Y-128477403D01*
X113711459Y-128463543D01*
X113707882Y-128449264D01*
X113705722Y-128434703D01*
X113705000Y-128420000D01*
X113705000Y-128120000D01*
X113705722Y-128105297D01*
X113707882Y-128090736D01*
X113711459Y-128076457D01*
X113716418Y-128062597D01*
X113722712Y-128049290D01*
X113730280Y-128036664D01*
X113739048Y-128024841D01*
X113748934Y-128013934D01*
X113759841Y-128004048D01*
X113771664Y-127995280D01*
X113784290Y-127987712D01*
X113797597Y-127981418D01*
X113811457Y-127976459D01*
X113825736Y-127972882D01*
X113840297Y-127970722D01*
X113855000Y-127970000D01*
X115605000Y-127970000D01*
X115619703Y-127970722D01*
G37*
G36*
X115619703Y-129240722D02*
G01*
X115634264Y-129242882D01*
X115648543Y-129246459D01*
X115662403Y-129251418D01*
X115675710Y-129257712D01*
X115688336Y-129265280D01*
X115700159Y-129274048D01*
X115711066Y-129283934D01*
X115720952Y-129294841D01*
X115729720Y-129306664D01*
X115737288Y-129319290D01*
X115743582Y-129332597D01*
X115748541Y-129346457D01*
X115752118Y-129360736D01*
X115754278Y-129375297D01*
X115755000Y-129390000D01*
X115755000Y-129690000D01*
X115754278Y-129704703D01*
X115752118Y-129719264D01*
X115748541Y-129733543D01*
X115743582Y-129747403D01*
X115737288Y-129760710D01*
X115729720Y-129773336D01*
X115720952Y-129785159D01*
X115711066Y-129796066D01*
X115700159Y-129805952D01*
X115688336Y-129814720D01*
X115675710Y-129822288D01*
X115662403Y-129828582D01*
X115648543Y-129833541D01*
X115634264Y-129837118D01*
X115619703Y-129839278D01*
X115605000Y-129840000D01*
X113855000Y-129840000D01*
X113840297Y-129839278D01*
X113825736Y-129837118D01*
X113811457Y-129833541D01*
X113797597Y-129828582D01*
X113784290Y-129822288D01*
X113771664Y-129814720D01*
X113759841Y-129805952D01*
X113748934Y-129796066D01*
X113739048Y-129785159D01*
X113730280Y-129773336D01*
X113722712Y-129760710D01*
X113716418Y-129747403D01*
X113711459Y-129733543D01*
X113707882Y-129719264D01*
X113705722Y-129704703D01*
X113705000Y-129690000D01*
X113705000Y-129390000D01*
X113705722Y-129375297D01*
X113707882Y-129360736D01*
X113711459Y-129346457D01*
X113716418Y-129332597D01*
X113722712Y-129319290D01*
X113730280Y-129306664D01*
X113739048Y-129294841D01*
X113748934Y-129283934D01*
X113759841Y-129274048D01*
X113771664Y-129265280D01*
X113784290Y-129257712D01*
X113797597Y-129251418D01*
X113811457Y-129246459D01*
X113825736Y-129242882D01*
X113840297Y-129240722D01*
X113855000Y-129240000D01*
X115605000Y-129240000D01*
X115619703Y-129240722D01*
G37*
G36*
X115619703Y-130510722D02*
G01*
X115634264Y-130512882D01*
X115648543Y-130516459D01*
X115662403Y-130521418D01*
X115675710Y-130527712D01*
X115688336Y-130535280D01*
X115700159Y-130544048D01*
X115711066Y-130553934D01*
X115720952Y-130564841D01*
X115729720Y-130576664D01*
X115737288Y-130589290D01*
X115743582Y-130602597D01*
X115748541Y-130616457D01*
X115752118Y-130630736D01*
X115754278Y-130645297D01*
X115755000Y-130660000D01*
X115755000Y-130960000D01*
X115754278Y-130974703D01*
X115752118Y-130989264D01*
X115748541Y-131003543D01*
X115743582Y-131017403D01*
X115737288Y-131030710D01*
X115729720Y-131043336D01*
X115720952Y-131055159D01*
X115711066Y-131066066D01*
X115700159Y-131075952D01*
X115688336Y-131084720D01*
X115675710Y-131092288D01*
X115662403Y-131098582D01*
X115648543Y-131103541D01*
X115634264Y-131107118D01*
X115619703Y-131109278D01*
X115605000Y-131110000D01*
X113855000Y-131110000D01*
X113840297Y-131109278D01*
X113825736Y-131107118D01*
X113811457Y-131103541D01*
X113797597Y-131098582D01*
X113784290Y-131092288D01*
X113771664Y-131084720D01*
X113759841Y-131075952D01*
X113748934Y-131066066D01*
X113739048Y-131055159D01*
X113730280Y-131043336D01*
X113722712Y-131030710D01*
X113716418Y-131017403D01*
X113711459Y-131003543D01*
X113707882Y-130989264D01*
X113705722Y-130974703D01*
X113705000Y-130960000D01*
X113705000Y-130660000D01*
X113705722Y-130645297D01*
X113707882Y-130630736D01*
X113711459Y-130616457D01*
X113716418Y-130602597D01*
X113722712Y-130589290D01*
X113730280Y-130576664D01*
X113739048Y-130564841D01*
X113748934Y-130553934D01*
X113759841Y-130544048D01*
X113771664Y-130535280D01*
X113784290Y-130527712D01*
X113797597Y-130521418D01*
X113811457Y-130516459D01*
X113825736Y-130512882D01*
X113840297Y-130510722D01*
X113855000Y-130510000D01*
X115605000Y-130510000D01*
X115619703Y-130510722D01*
G37*
G36*
X115619703Y-131780722D02*
G01*
X115634264Y-131782882D01*
X115648543Y-131786459D01*
X115662403Y-131791418D01*
X115675710Y-131797712D01*
X115688336Y-131805280D01*
X115700159Y-131814048D01*
X115711066Y-131823934D01*
X115720952Y-131834841D01*
X115729720Y-131846664D01*
X115737288Y-131859290D01*
X115743582Y-131872597D01*
X115748541Y-131886457D01*
X115752118Y-131900736D01*
X115754278Y-131915297D01*
X115755000Y-131930000D01*
X115755000Y-132230000D01*
X115754278Y-132244703D01*
X115752118Y-132259264D01*
X115748541Y-132273543D01*
X115743582Y-132287403D01*
X115737288Y-132300710D01*
X115729720Y-132313336D01*
X115720952Y-132325159D01*
X115711066Y-132336066D01*
X115700159Y-132345952D01*
X115688336Y-132354720D01*
X115675710Y-132362288D01*
X115662403Y-132368582D01*
X115648543Y-132373541D01*
X115634264Y-132377118D01*
X115619703Y-132379278D01*
X115605000Y-132380000D01*
X113855000Y-132380000D01*
X113840297Y-132379278D01*
X113825736Y-132377118D01*
X113811457Y-132373541D01*
X113797597Y-132368582D01*
X113784290Y-132362288D01*
X113771664Y-132354720D01*
X113759841Y-132345952D01*
X113748934Y-132336066D01*
X113739048Y-132325159D01*
X113730280Y-132313336D01*
X113722712Y-132300710D01*
X113716418Y-132287403D01*
X113711459Y-132273543D01*
X113707882Y-132259264D01*
X113705722Y-132244703D01*
X113705000Y-132230000D01*
X113705000Y-131930000D01*
X113705722Y-131915297D01*
X113707882Y-131900736D01*
X113711459Y-131886457D01*
X113716418Y-131872597D01*
X113722712Y-131859290D01*
X113730280Y-131846664D01*
X113739048Y-131834841D01*
X113748934Y-131823934D01*
X113759841Y-131814048D01*
X113771664Y-131805280D01*
X113784290Y-131797712D01*
X113797597Y-131791418D01*
X113811457Y-131786459D01*
X113825736Y-131782882D01*
X113840297Y-131780722D01*
X113855000Y-131780000D01*
X115605000Y-131780000D01*
X115619703Y-131780722D01*
G37*
G36*
X115619703Y-133050722D02*
G01*
X115634264Y-133052882D01*
X115648543Y-133056459D01*
X115662403Y-133061418D01*
X115675710Y-133067712D01*
X115688336Y-133075280D01*
X115700159Y-133084048D01*
X115711066Y-133093934D01*
X115720952Y-133104841D01*
X115729720Y-133116664D01*
X115737288Y-133129290D01*
X115743582Y-133142597D01*
X115748541Y-133156457D01*
X115752118Y-133170736D01*
X115754278Y-133185297D01*
X115755000Y-133200000D01*
X115755000Y-133500000D01*
X115754278Y-133514703D01*
X115752118Y-133529264D01*
X115748541Y-133543543D01*
X115743582Y-133557403D01*
X115737288Y-133570710D01*
X115729720Y-133583336D01*
X115720952Y-133595159D01*
X115711066Y-133606066D01*
X115700159Y-133615952D01*
X115688336Y-133624720D01*
X115675710Y-133632288D01*
X115662403Y-133638582D01*
X115648543Y-133643541D01*
X115634264Y-133647118D01*
X115619703Y-133649278D01*
X115605000Y-133650000D01*
X113855000Y-133650000D01*
X113840297Y-133649278D01*
X113825736Y-133647118D01*
X113811457Y-133643541D01*
X113797597Y-133638582D01*
X113784290Y-133632288D01*
X113771664Y-133624720D01*
X113759841Y-133615952D01*
X113748934Y-133606066D01*
X113739048Y-133595159D01*
X113730280Y-133583336D01*
X113722712Y-133570710D01*
X113716418Y-133557403D01*
X113711459Y-133543543D01*
X113707882Y-133529264D01*
X113705722Y-133514703D01*
X113705000Y-133500000D01*
X113705000Y-133200000D01*
X113705722Y-133185297D01*
X113707882Y-133170736D01*
X113711459Y-133156457D01*
X113716418Y-133142597D01*
X113722712Y-133129290D01*
X113730280Y-133116664D01*
X113739048Y-133104841D01*
X113748934Y-133093934D01*
X113759841Y-133084048D01*
X113771664Y-133075280D01*
X113784290Y-133067712D01*
X113797597Y-133061418D01*
X113811457Y-133056459D01*
X113825736Y-133052882D01*
X113840297Y-133050722D01*
X113855000Y-133050000D01*
X115605000Y-133050000D01*
X115619703Y-133050722D01*
G37*
G36*
X115619703Y-134320722D02*
G01*
X115634264Y-134322882D01*
X115648543Y-134326459D01*
X115662403Y-134331418D01*
X115675710Y-134337712D01*
X115688336Y-134345280D01*
X115700159Y-134354048D01*
X115711066Y-134363934D01*
X115720952Y-134374841D01*
X115729720Y-134386664D01*
X115737288Y-134399290D01*
X115743582Y-134412597D01*
X115748541Y-134426457D01*
X115752118Y-134440736D01*
X115754278Y-134455297D01*
X115755000Y-134470000D01*
X115755000Y-134770000D01*
X115754278Y-134784703D01*
X115752118Y-134799264D01*
X115748541Y-134813543D01*
X115743582Y-134827403D01*
X115737288Y-134840710D01*
X115729720Y-134853336D01*
X115720952Y-134865159D01*
X115711066Y-134876066D01*
X115700159Y-134885952D01*
X115688336Y-134894720D01*
X115675710Y-134902288D01*
X115662403Y-134908582D01*
X115648543Y-134913541D01*
X115634264Y-134917118D01*
X115619703Y-134919278D01*
X115605000Y-134920000D01*
X113855000Y-134920000D01*
X113840297Y-134919278D01*
X113825736Y-134917118D01*
X113811457Y-134913541D01*
X113797597Y-134908582D01*
X113784290Y-134902288D01*
X113771664Y-134894720D01*
X113759841Y-134885952D01*
X113748934Y-134876066D01*
X113739048Y-134865159D01*
X113730280Y-134853336D01*
X113722712Y-134840710D01*
X113716418Y-134827403D01*
X113711459Y-134813543D01*
X113707882Y-134799264D01*
X113705722Y-134784703D01*
X113705000Y-134770000D01*
X113705000Y-134470000D01*
X113705722Y-134455297D01*
X113707882Y-134440736D01*
X113711459Y-134426457D01*
X113716418Y-134412597D01*
X113722712Y-134399290D01*
X113730280Y-134386664D01*
X113739048Y-134374841D01*
X113748934Y-134363934D01*
X113759841Y-134354048D01*
X113771664Y-134345280D01*
X113784290Y-134337712D01*
X113797597Y-134331418D01*
X113811457Y-134326459D01*
X113825736Y-134322882D01*
X113840297Y-134320722D01*
X113855000Y-134320000D01*
X115605000Y-134320000D01*
X115619703Y-134320722D01*
G37*
G36*
X124919703Y-134320722D02*
G01*
X124934264Y-134322882D01*
X124948543Y-134326459D01*
X124962403Y-134331418D01*
X124975710Y-134337712D01*
X124988336Y-134345280D01*
X125000159Y-134354048D01*
X125011066Y-134363934D01*
X125020952Y-134374841D01*
X125029720Y-134386664D01*
X125037288Y-134399290D01*
X125043582Y-134412597D01*
X125048541Y-134426457D01*
X125052118Y-134440736D01*
X125054278Y-134455297D01*
X125055000Y-134470000D01*
X125055000Y-134770000D01*
X125054278Y-134784703D01*
X125052118Y-134799264D01*
X125048541Y-134813543D01*
X125043582Y-134827403D01*
X125037288Y-134840710D01*
X125029720Y-134853336D01*
X125020952Y-134865159D01*
X125011066Y-134876066D01*
X125000159Y-134885952D01*
X124988336Y-134894720D01*
X124975710Y-134902288D01*
X124962403Y-134908582D01*
X124948543Y-134913541D01*
X124934264Y-134917118D01*
X124919703Y-134919278D01*
X124905000Y-134920000D01*
X123155000Y-134920000D01*
X123140297Y-134919278D01*
X123125736Y-134917118D01*
X123111457Y-134913541D01*
X123097597Y-134908582D01*
X123084290Y-134902288D01*
X123071664Y-134894720D01*
X123059841Y-134885952D01*
X123048934Y-134876066D01*
X123039048Y-134865159D01*
X123030280Y-134853336D01*
X123022712Y-134840710D01*
X123016418Y-134827403D01*
X123011459Y-134813543D01*
X123007882Y-134799264D01*
X123005722Y-134784703D01*
X123005000Y-134770000D01*
X123005000Y-134470000D01*
X123005722Y-134455297D01*
X123007882Y-134440736D01*
X123011459Y-134426457D01*
X123016418Y-134412597D01*
X123022712Y-134399290D01*
X123030280Y-134386664D01*
X123039048Y-134374841D01*
X123048934Y-134363934D01*
X123059841Y-134354048D01*
X123071664Y-134345280D01*
X123084290Y-134337712D01*
X123097597Y-134331418D01*
X123111457Y-134326459D01*
X123125736Y-134322882D01*
X123140297Y-134320722D01*
X123155000Y-134320000D01*
X124905000Y-134320000D01*
X124919703Y-134320722D01*
G37*
G36*
X124919703Y-133050722D02*
G01*
X124934264Y-133052882D01*
X124948543Y-133056459D01*
X124962403Y-133061418D01*
X124975710Y-133067712D01*
X124988336Y-133075280D01*
X125000159Y-133084048D01*
X125011066Y-133093934D01*
X125020952Y-133104841D01*
X125029720Y-133116664D01*
X125037288Y-133129290D01*
X125043582Y-133142597D01*
X125048541Y-133156457D01*
X125052118Y-133170736D01*
X125054278Y-133185297D01*
X125055000Y-133200000D01*
X125055000Y-133500000D01*
X125054278Y-133514703D01*
X125052118Y-133529264D01*
X125048541Y-133543543D01*
X125043582Y-133557403D01*
X125037288Y-133570710D01*
X125029720Y-133583336D01*
X125020952Y-133595159D01*
X125011066Y-133606066D01*
X125000159Y-133615952D01*
X124988336Y-133624720D01*
X124975710Y-133632288D01*
X124962403Y-133638582D01*
X124948543Y-133643541D01*
X124934264Y-133647118D01*
X124919703Y-133649278D01*
X124905000Y-133650000D01*
X123155000Y-133650000D01*
X123140297Y-133649278D01*
X123125736Y-133647118D01*
X123111457Y-133643541D01*
X123097597Y-133638582D01*
X123084290Y-133632288D01*
X123071664Y-133624720D01*
X123059841Y-133615952D01*
X123048934Y-133606066D01*
X123039048Y-133595159D01*
X123030280Y-133583336D01*
X123022712Y-133570710D01*
X123016418Y-133557403D01*
X123011459Y-133543543D01*
X123007882Y-133529264D01*
X123005722Y-133514703D01*
X123005000Y-133500000D01*
X123005000Y-133200000D01*
X123005722Y-133185297D01*
X123007882Y-133170736D01*
X123011459Y-133156457D01*
X123016418Y-133142597D01*
X123022712Y-133129290D01*
X123030280Y-133116664D01*
X123039048Y-133104841D01*
X123048934Y-133093934D01*
X123059841Y-133084048D01*
X123071664Y-133075280D01*
X123084290Y-133067712D01*
X123097597Y-133061418D01*
X123111457Y-133056459D01*
X123125736Y-133052882D01*
X123140297Y-133050722D01*
X123155000Y-133050000D01*
X124905000Y-133050000D01*
X124919703Y-133050722D01*
G37*
G36*
X124919703Y-131780722D02*
G01*
X124934264Y-131782882D01*
X124948543Y-131786459D01*
X124962403Y-131791418D01*
X124975710Y-131797712D01*
X124988336Y-131805280D01*
X125000159Y-131814048D01*
X125011066Y-131823934D01*
X125020952Y-131834841D01*
X125029720Y-131846664D01*
X125037288Y-131859290D01*
X125043582Y-131872597D01*
X125048541Y-131886457D01*
X125052118Y-131900736D01*
X125054278Y-131915297D01*
X125055000Y-131930000D01*
X125055000Y-132230000D01*
X125054278Y-132244703D01*
X125052118Y-132259264D01*
X125048541Y-132273543D01*
X125043582Y-132287403D01*
X125037288Y-132300710D01*
X125029720Y-132313336D01*
X125020952Y-132325159D01*
X125011066Y-132336066D01*
X125000159Y-132345952D01*
X124988336Y-132354720D01*
X124975710Y-132362288D01*
X124962403Y-132368582D01*
X124948543Y-132373541D01*
X124934264Y-132377118D01*
X124919703Y-132379278D01*
X124905000Y-132380000D01*
X123155000Y-132380000D01*
X123140297Y-132379278D01*
X123125736Y-132377118D01*
X123111457Y-132373541D01*
X123097597Y-132368582D01*
X123084290Y-132362288D01*
X123071664Y-132354720D01*
X123059841Y-132345952D01*
X123048934Y-132336066D01*
X123039048Y-132325159D01*
X123030280Y-132313336D01*
X123022712Y-132300710D01*
X123016418Y-132287403D01*
X123011459Y-132273543D01*
X123007882Y-132259264D01*
X123005722Y-132244703D01*
X123005000Y-132230000D01*
X123005000Y-131930000D01*
X123005722Y-131915297D01*
X123007882Y-131900736D01*
X123011459Y-131886457D01*
X123016418Y-131872597D01*
X123022712Y-131859290D01*
X123030280Y-131846664D01*
X123039048Y-131834841D01*
X123048934Y-131823934D01*
X123059841Y-131814048D01*
X123071664Y-131805280D01*
X123084290Y-131797712D01*
X123097597Y-131791418D01*
X123111457Y-131786459D01*
X123125736Y-131782882D01*
X123140297Y-131780722D01*
X123155000Y-131780000D01*
X124905000Y-131780000D01*
X124919703Y-131780722D01*
G37*
G36*
X124919703Y-130510722D02*
G01*
X124934264Y-130512882D01*
X124948543Y-130516459D01*
X124962403Y-130521418D01*
X124975710Y-130527712D01*
X124988336Y-130535280D01*
X125000159Y-130544048D01*
X125011066Y-130553934D01*
X125020952Y-130564841D01*
X125029720Y-130576664D01*
X125037288Y-130589290D01*
X125043582Y-130602597D01*
X125048541Y-130616457D01*
X125052118Y-130630736D01*
X125054278Y-130645297D01*
X125055000Y-130660000D01*
X125055000Y-130960000D01*
X125054278Y-130974703D01*
X125052118Y-130989264D01*
X125048541Y-131003543D01*
X125043582Y-131017403D01*
X125037288Y-131030710D01*
X125029720Y-131043336D01*
X125020952Y-131055159D01*
X125011066Y-131066066D01*
X125000159Y-131075952D01*
X124988336Y-131084720D01*
X124975710Y-131092288D01*
X124962403Y-131098582D01*
X124948543Y-131103541D01*
X124934264Y-131107118D01*
X124919703Y-131109278D01*
X124905000Y-131110000D01*
X123155000Y-131110000D01*
X123140297Y-131109278D01*
X123125736Y-131107118D01*
X123111457Y-131103541D01*
X123097597Y-131098582D01*
X123084290Y-131092288D01*
X123071664Y-131084720D01*
X123059841Y-131075952D01*
X123048934Y-131066066D01*
X123039048Y-131055159D01*
X123030280Y-131043336D01*
X123022712Y-131030710D01*
X123016418Y-131017403D01*
X123011459Y-131003543D01*
X123007882Y-130989264D01*
X123005722Y-130974703D01*
X123005000Y-130960000D01*
X123005000Y-130660000D01*
X123005722Y-130645297D01*
X123007882Y-130630736D01*
X123011459Y-130616457D01*
X123016418Y-130602597D01*
X123022712Y-130589290D01*
X123030280Y-130576664D01*
X123039048Y-130564841D01*
X123048934Y-130553934D01*
X123059841Y-130544048D01*
X123071664Y-130535280D01*
X123084290Y-130527712D01*
X123097597Y-130521418D01*
X123111457Y-130516459D01*
X123125736Y-130512882D01*
X123140297Y-130510722D01*
X123155000Y-130510000D01*
X124905000Y-130510000D01*
X124919703Y-130510722D01*
G37*
G36*
X124919703Y-129240722D02*
G01*
X124934264Y-129242882D01*
X124948543Y-129246459D01*
X124962403Y-129251418D01*
X124975710Y-129257712D01*
X124988336Y-129265280D01*
X125000159Y-129274048D01*
X125011066Y-129283934D01*
X125020952Y-129294841D01*
X125029720Y-129306664D01*
X125037288Y-129319290D01*
X125043582Y-129332597D01*
X125048541Y-129346457D01*
X125052118Y-129360736D01*
X125054278Y-129375297D01*
X125055000Y-129390000D01*
X125055000Y-129690000D01*
X125054278Y-129704703D01*
X125052118Y-129719264D01*
X125048541Y-129733543D01*
X125043582Y-129747403D01*
X125037288Y-129760710D01*
X125029720Y-129773336D01*
X125020952Y-129785159D01*
X125011066Y-129796066D01*
X125000159Y-129805952D01*
X124988336Y-129814720D01*
X124975710Y-129822288D01*
X124962403Y-129828582D01*
X124948543Y-129833541D01*
X124934264Y-129837118D01*
X124919703Y-129839278D01*
X124905000Y-129840000D01*
X123155000Y-129840000D01*
X123140297Y-129839278D01*
X123125736Y-129837118D01*
X123111457Y-129833541D01*
X123097597Y-129828582D01*
X123084290Y-129822288D01*
X123071664Y-129814720D01*
X123059841Y-129805952D01*
X123048934Y-129796066D01*
X123039048Y-129785159D01*
X123030280Y-129773336D01*
X123022712Y-129760710D01*
X123016418Y-129747403D01*
X123011459Y-129733543D01*
X123007882Y-129719264D01*
X123005722Y-129704703D01*
X123005000Y-129690000D01*
X123005000Y-129390000D01*
X123005722Y-129375297D01*
X123007882Y-129360736D01*
X123011459Y-129346457D01*
X123016418Y-129332597D01*
X123022712Y-129319290D01*
X123030280Y-129306664D01*
X123039048Y-129294841D01*
X123048934Y-129283934D01*
X123059841Y-129274048D01*
X123071664Y-129265280D01*
X123084290Y-129257712D01*
X123097597Y-129251418D01*
X123111457Y-129246459D01*
X123125736Y-129242882D01*
X123140297Y-129240722D01*
X123155000Y-129240000D01*
X124905000Y-129240000D01*
X124919703Y-129240722D01*
G37*
G36*
X124919703Y-127970722D02*
G01*
X124934264Y-127972882D01*
X124948543Y-127976459D01*
X124962403Y-127981418D01*
X124975710Y-127987712D01*
X124988336Y-127995280D01*
X125000159Y-128004048D01*
X125011066Y-128013934D01*
X125020952Y-128024841D01*
X125029720Y-128036664D01*
X125037288Y-128049290D01*
X125043582Y-128062597D01*
X125048541Y-128076457D01*
X125052118Y-128090736D01*
X125054278Y-128105297D01*
X125055000Y-128120000D01*
X125055000Y-128420000D01*
X125054278Y-128434703D01*
X125052118Y-128449264D01*
X125048541Y-128463543D01*
X125043582Y-128477403D01*
X125037288Y-128490710D01*
X125029720Y-128503336D01*
X125020952Y-128515159D01*
X125011066Y-128526066D01*
X125000159Y-128535952D01*
X124988336Y-128544720D01*
X124975710Y-128552288D01*
X124962403Y-128558582D01*
X124948543Y-128563541D01*
X124934264Y-128567118D01*
X124919703Y-128569278D01*
X124905000Y-128570000D01*
X123155000Y-128570000D01*
X123140297Y-128569278D01*
X123125736Y-128567118D01*
X123111457Y-128563541D01*
X123097597Y-128558582D01*
X123084290Y-128552288D01*
X123071664Y-128544720D01*
X123059841Y-128535952D01*
X123048934Y-128526066D01*
X123039048Y-128515159D01*
X123030280Y-128503336D01*
X123022712Y-128490710D01*
X123016418Y-128477403D01*
X123011459Y-128463543D01*
X123007882Y-128449264D01*
X123005722Y-128434703D01*
X123005000Y-128420000D01*
X123005000Y-128120000D01*
X123005722Y-128105297D01*
X123007882Y-128090736D01*
X123011459Y-128076457D01*
X123016418Y-128062597D01*
X123022712Y-128049290D01*
X123030280Y-128036664D01*
X123039048Y-128024841D01*
X123048934Y-128013934D01*
X123059841Y-128004048D01*
X123071664Y-127995280D01*
X123084290Y-127987712D01*
X123097597Y-127981418D01*
X123111457Y-127976459D01*
X123125736Y-127972882D01*
X123140297Y-127970722D01*
X123155000Y-127970000D01*
X124905000Y-127970000D01*
X124919703Y-127970722D01*
G37*
G36*
X124919703Y-126700722D02*
G01*
X124934264Y-126702882D01*
X124948543Y-126706459D01*
X124962403Y-126711418D01*
X124975710Y-126717712D01*
X124988336Y-126725280D01*
X125000159Y-126734048D01*
X125011066Y-126743934D01*
X125020952Y-126754841D01*
X125029720Y-126766664D01*
X125037288Y-126779290D01*
X125043582Y-126792597D01*
X125048541Y-126806457D01*
X125052118Y-126820736D01*
X125054278Y-126835297D01*
X125055000Y-126850000D01*
X125055000Y-127150000D01*
X125054278Y-127164703D01*
X125052118Y-127179264D01*
X125048541Y-127193543D01*
X125043582Y-127207403D01*
X125037288Y-127220710D01*
X125029720Y-127233336D01*
X125020952Y-127245159D01*
X125011066Y-127256066D01*
X125000159Y-127265952D01*
X124988336Y-127274720D01*
X124975710Y-127282288D01*
X124962403Y-127288582D01*
X124948543Y-127293541D01*
X124934264Y-127297118D01*
X124919703Y-127299278D01*
X124905000Y-127300000D01*
X123155000Y-127300000D01*
X123140297Y-127299278D01*
X123125736Y-127297118D01*
X123111457Y-127293541D01*
X123097597Y-127288582D01*
X123084290Y-127282288D01*
X123071664Y-127274720D01*
X123059841Y-127265952D01*
X123048934Y-127256066D01*
X123039048Y-127245159D01*
X123030280Y-127233336D01*
X123022712Y-127220710D01*
X123016418Y-127207403D01*
X123011459Y-127193543D01*
X123007882Y-127179264D01*
X123005722Y-127164703D01*
X123005000Y-127150000D01*
X123005000Y-126850000D01*
X123005722Y-126835297D01*
X123007882Y-126820736D01*
X123011459Y-126806457D01*
X123016418Y-126792597D01*
X123022712Y-126779290D01*
X123030280Y-126766664D01*
X123039048Y-126754841D01*
X123048934Y-126743934D01*
X123059841Y-126734048D01*
X123071664Y-126725280D01*
X123084290Y-126717712D01*
X123097597Y-126711418D01*
X123111457Y-126706459D01*
X123125736Y-126702882D01*
X123140297Y-126700722D01*
X123155000Y-126700000D01*
X124905000Y-126700000D01*
X124919703Y-126700722D01*
G37*
G36*
X124919703Y-125430722D02*
G01*
X124934264Y-125432882D01*
X124948543Y-125436459D01*
X124962403Y-125441418D01*
X124975710Y-125447712D01*
X124988336Y-125455280D01*
X125000159Y-125464048D01*
X125011066Y-125473934D01*
X125020952Y-125484841D01*
X125029720Y-125496664D01*
X125037288Y-125509290D01*
X125043582Y-125522597D01*
X125048541Y-125536457D01*
X125052118Y-125550736D01*
X125054278Y-125565297D01*
X125055000Y-125580000D01*
X125055000Y-125880000D01*
X125054278Y-125894703D01*
X125052118Y-125909264D01*
X125048541Y-125923543D01*
X125043582Y-125937403D01*
X125037288Y-125950710D01*
X125029720Y-125963336D01*
X125020952Y-125975159D01*
X125011066Y-125986066D01*
X125000159Y-125995952D01*
X124988336Y-126004720D01*
X124975710Y-126012288D01*
X124962403Y-126018582D01*
X124948543Y-126023541D01*
X124934264Y-126027118D01*
X124919703Y-126029278D01*
X124905000Y-126030000D01*
X123155000Y-126030000D01*
X123140297Y-126029278D01*
X123125736Y-126027118D01*
X123111457Y-126023541D01*
X123097597Y-126018582D01*
X123084290Y-126012288D01*
X123071664Y-126004720D01*
X123059841Y-125995952D01*
X123048934Y-125986066D01*
X123039048Y-125975159D01*
X123030280Y-125963336D01*
X123022712Y-125950710D01*
X123016418Y-125937403D01*
X123011459Y-125923543D01*
X123007882Y-125909264D01*
X123005722Y-125894703D01*
X123005000Y-125880000D01*
X123005000Y-125580000D01*
X123005722Y-125565297D01*
X123007882Y-125550736D01*
X123011459Y-125536457D01*
X123016418Y-125522597D01*
X123022712Y-125509290D01*
X123030280Y-125496664D01*
X123039048Y-125484841D01*
X123048934Y-125473934D01*
X123059841Y-125464048D01*
X123071664Y-125455280D01*
X123084290Y-125447712D01*
X123097597Y-125441418D01*
X123111457Y-125436459D01*
X123125736Y-125432882D01*
X123140297Y-125430722D01*
X123155000Y-125430000D01*
X124905000Y-125430000D01*
X124919703Y-125430722D01*
G37*
G36*
X124919703Y-124160722D02*
G01*
X124934264Y-124162882D01*
X124948543Y-124166459D01*
X124962403Y-124171418D01*
X124975710Y-124177712D01*
X124988336Y-124185280D01*
X125000159Y-124194048D01*
X125011066Y-124203934D01*
X125020952Y-124214841D01*
X125029720Y-124226664D01*
X125037288Y-124239290D01*
X125043582Y-124252597D01*
X125048541Y-124266457D01*
X125052118Y-124280736D01*
X125054278Y-124295297D01*
X125055000Y-124310000D01*
X125055000Y-124610000D01*
X125054278Y-124624703D01*
X125052118Y-124639264D01*
X125048541Y-124653543D01*
X125043582Y-124667403D01*
X125037288Y-124680710D01*
X125029720Y-124693336D01*
X125020952Y-124705159D01*
X125011066Y-124716066D01*
X125000159Y-124725952D01*
X124988336Y-124734720D01*
X124975710Y-124742288D01*
X124962403Y-124748582D01*
X124948543Y-124753541D01*
X124934264Y-124757118D01*
X124919703Y-124759278D01*
X124905000Y-124760000D01*
X123155000Y-124760000D01*
X123140297Y-124759278D01*
X123125736Y-124757118D01*
X123111457Y-124753541D01*
X123097597Y-124748582D01*
X123084290Y-124742288D01*
X123071664Y-124734720D01*
X123059841Y-124725952D01*
X123048934Y-124716066D01*
X123039048Y-124705159D01*
X123030280Y-124693336D01*
X123022712Y-124680710D01*
X123016418Y-124667403D01*
X123011459Y-124653543D01*
X123007882Y-124639264D01*
X123005722Y-124624703D01*
X123005000Y-124610000D01*
X123005000Y-124310000D01*
X123005722Y-124295297D01*
X123007882Y-124280736D01*
X123011459Y-124266457D01*
X123016418Y-124252597D01*
X123022712Y-124239290D01*
X123030280Y-124226664D01*
X123039048Y-124214841D01*
X123048934Y-124203934D01*
X123059841Y-124194048D01*
X123071664Y-124185280D01*
X123084290Y-124177712D01*
X123097597Y-124171418D01*
X123111457Y-124166459D01*
X123125736Y-124162882D01*
X123140297Y-124160722D01*
X123155000Y-124160000D01*
X124905000Y-124160000D01*
X124919703Y-124160722D01*
G37*
G36*
X124919703Y-122890722D02*
G01*
X124934264Y-122892882D01*
X124948543Y-122896459D01*
X124962403Y-122901418D01*
X124975710Y-122907712D01*
X124988336Y-122915280D01*
X125000159Y-122924048D01*
X125011066Y-122933934D01*
X125020952Y-122944841D01*
X125029720Y-122956664D01*
X125037288Y-122969290D01*
X125043582Y-122982597D01*
X125048541Y-122996457D01*
X125052118Y-123010736D01*
X125054278Y-123025297D01*
X125055000Y-123040000D01*
X125055000Y-123340000D01*
X125054278Y-123354703D01*
X125052118Y-123369264D01*
X125048541Y-123383543D01*
X125043582Y-123397403D01*
X125037288Y-123410710D01*
X125029720Y-123423336D01*
X125020952Y-123435159D01*
X125011066Y-123446066D01*
X125000159Y-123455952D01*
X124988336Y-123464720D01*
X124975710Y-123472288D01*
X124962403Y-123478582D01*
X124948543Y-123483541D01*
X124934264Y-123487118D01*
X124919703Y-123489278D01*
X124905000Y-123490000D01*
X123155000Y-123490000D01*
X123140297Y-123489278D01*
X123125736Y-123487118D01*
X123111457Y-123483541D01*
X123097597Y-123478582D01*
X123084290Y-123472288D01*
X123071664Y-123464720D01*
X123059841Y-123455952D01*
X123048934Y-123446066D01*
X123039048Y-123435159D01*
X123030280Y-123423336D01*
X123022712Y-123410710D01*
X123016418Y-123397403D01*
X123011459Y-123383543D01*
X123007882Y-123369264D01*
X123005722Y-123354703D01*
X123005000Y-123340000D01*
X123005000Y-123040000D01*
X123005722Y-123025297D01*
X123007882Y-123010736D01*
X123011459Y-122996457D01*
X123016418Y-122982597D01*
X123022712Y-122969290D01*
X123030280Y-122956664D01*
X123039048Y-122944841D01*
X123048934Y-122933934D01*
X123059841Y-122924048D01*
X123071664Y-122915280D01*
X123084290Y-122907712D01*
X123097597Y-122901418D01*
X123111457Y-122896459D01*
X123125736Y-122892882D01*
X123140297Y-122890722D01*
X123155000Y-122890000D01*
X124905000Y-122890000D01*
X124919703Y-122890722D01*
G37*
G36*
X130091771Y-80169580D02*
G01*
X130113006Y-80172730D01*
X130133830Y-80177946D01*
X130154042Y-80185178D01*
X130173448Y-80194357D01*
X130191861Y-80205393D01*
X130209104Y-80218181D01*
X130225010Y-80232597D01*
X130587403Y-80594990D01*
X130601819Y-80610896D01*
X130614607Y-80628139D01*
X130625643Y-80646552D01*
X130634822Y-80665958D01*
X130642054Y-80686170D01*
X130647270Y-80706994D01*
X130650420Y-80728229D01*
X130651473Y-80749670D01*
X130650420Y-80771111D01*
X130647270Y-80792346D01*
X130642054Y-80813170D01*
X130634822Y-80833382D01*
X130625643Y-80852788D01*
X130614607Y-80871201D01*
X130601819Y-80888444D01*
X130587403Y-80904350D01*
X130278044Y-81213709D01*
X130262138Y-81228125D01*
X130244895Y-81240913D01*
X130226482Y-81251949D01*
X130207076Y-81261128D01*
X130186864Y-81268360D01*
X130166040Y-81273576D01*
X130144805Y-81276726D01*
X130123364Y-81277779D01*
X130101923Y-81276726D01*
X130080688Y-81273576D01*
X130059864Y-81268360D01*
X130039652Y-81261128D01*
X130020246Y-81251949D01*
X130001833Y-81240913D01*
X129984590Y-81228125D01*
X129968684Y-81213709D01*
X129606291Y-80851316D01*
X129591875Y-80835410D01*
X129579087Y-80818167D01*
X129568051Y-80799754D01*
X129558872Y-80780348D01*
X129551640Y-80760136D01*
X129546424Y-80739312D01*
X129543274Y-80718077D01*
X129542221Y-80696636D01*
X129543274Y-80675195D01*
X129546424Y-80653960D01*
X129551640Y-80633136D01*
X129558872Y-80612924D01*
X129568051Y-80593518D01*
X129579087Y-80575105D01*
X129591875Y-80557862D01*
X129606291Y-80541956D01*
X129915650Y-80232597D01*
X129931556Y-80218181D01*
X129948799Y-80205393D01*
X129967212Y-80194357D01*
X129986618Y-80185178D01*
X130006830Y-80177946D01*
X130027654Y-80172730D01*
X130048889Y-80169580D01*
X130070330Y-80168527D01*
X130091771Y-80169580D01*
G37*
G36*
X128978077Y-81283274D02*
G01*
X128999312Y-81286424D01*
X129020136Y-81291640D01*
X129040348Y-81298872D01*
X129059754Y-81308051D01*
X129078167Y-81319087D01*
X129095410Y-81331875D01*
X129111316Y-81346291D01*
X129473709Y-81708684D01*
X129488125Y-81724590D01*
X129500913Y-81741833D01*
X129511949Y-81760246D01*
X129521128Y-81779652D01*
X129528360Y-81799864D01*
X129533576Y-81820688D01*
X129536726Y-81841923D01*
X129537779Y-81863364D01*
X129536726Y-81884805D01*
X129533576Y-81906040D01*
X129528360Y-81926864D01*
X129521128Y-81947076D01*
X129511949Y-81966482D01*
X129500913Y-81984895D01*
X129488125Y-82002138D01*
X129473709Y-82018044D01*
X129164350Y-82327403D01*
X129148444Y-82341819D01*
X129131201Y-82354607D01*
X129112788Y-82365643D01*
X129093382Y-82374822D01*
X129073170Y-82382054D01*
X129052346Y-82387270D01*
X129031111Y-82390420D01*
X129009670Y-82391473D01*
X128988229Y-82390420D01*
X128966994Y-82387270D01*
X128946170Y-82382054D01*
X128925958Y-82374822D01*
X128906552Y-82365643D01*
X128888139Y-82354607D01*
X128870896Y-82341819D01*
X128854990Y-82327403D01*
X128492597Y-81965010D01*
X128478181Y-81949104D01*
X128465393Y-81931861D01*
X128454357Y-81913448D01*
X128445178Y-81894042D01*
X128437946Y-81873830D01*
X128432730Y-81853006D01*
X128429580Y-81831771D01*
X128428527Y-81810330D01*
X128429580Y-81788889D01*
X128432730Y-81767654D01*
X128437946Y-81746830D01*
X128445178Y-81726618D01*
X128454357Y-81707212D01*
X128465393Y-81688799D01*
X128478181Y-81671556D01*
X128492597Y-81655650D01*
X128801956Y-81346291D01*
X128817862Y-81331875D01*
X128835105Y-81319087D01*
X128853518Y-81308051D01*
X128872924Y-81298872D01*
X128893136Y-81291640D01*
X128913960Y-81286424D01*
X128935195Y-81283274D01*
X128956636Y-81282221D01*
X128978077Y-81283274D01*
G37*
G36*
X131518077Y-160658274D02*
G01*
X131539312Y-160661424D01*
X131560136Y-160666640D01*
X131580348Y-160673872D01*
X131599754Y-160683051D01*
X131618167Y-160694087D01*
X131635410Y-160706875D01*
X131651316Y-160721291D01*
X132013709Y-161083684D01*
X132028125Y-161099590D01*
X132040913Y-161116833D01*
X132051949Y-161135246D01*
X132061128Y-161154652D01*
X132068360Y-161174864D01*
X132073576Y-161195688D01*
X132076726Y-161216923D01*
X132077779Y-161238364D01*
X132076726Y-161259805D01*
X132073576Y-161281040D01*
X132068360Y-161301864D01*
X132061128Y-161322076D01*
X132051949Y-161341482D01*
X132040913Y-161359895D01*
X132028125Y-161377138D01*
X132013709Y-161393044D01*
X131704350Y-161702403D01*
X131688444Y-161716819D01*
X131671201Y-161729607D01*
X131652788Y-161740643D01*
X131633382Y-161749822D01*
X131613170Y-161757054D01*
X131592346Y-161762270D01*
X131571111Y-161765420D01*
X131549670Y-161766473D01*
X131528229Y-161765420D01*
X131506994Y-161762270D01*
X131486170Y-161757054D01*
X131465958Y-161749822D01*
X131446552Y-161740643D01*
X131428139Y-161729607D01*
X131410896Y-161716819D01*
X131394990Y-161702403D01*
X131032597Y-161340010D01*
X131018181Y-161324104D01*
X131005393Y-161306861D01*
X130994357Y-161288448D01*
X130985178Y-161269042D01*
X130977946Y-161248830D01*
X130972730Y-161228006D01*
X130969580Y-161206771D01*
X130968527Y-161185330D01*
X130969580Y-161163889D01*
X130972730Y-161142654D01*
X130977946Y-161121830D01*
X130985178Y-161101618D01*
X130994357Y-161082212D01*
X131005393Y-161063799D01*
X131018181Y-161046556D01*
X131032597Y-161030650D01*
X131341956Y-160721291D01*
X131357862Y-160706875D01*
X131375105Y-160694087D01*
X131393518Y-160683051D01*
X131412924Y-160673872D01*
X131433136Y-160666640D01*
X131453960Y-160661424D01*
X131475195Y-160658274D01*
X131496636Y-160657221D01*
X131518077Y-160658274D01*
G37*
G36*
X132631771Y-159544580D02*
G01*
X132653006Y-159547730D01*
X132673830Y-159552946D01*
X132694042Y-159560178D01*
X132713448Y-159569357D01*
X132731861Y-159580393D01*
X132749104Y-159593181D01*
X132765010Y-159607597D01*
X133127403Y-159969990D01*
X133141819Y-159985896D01*
X133154607Y-160003139D01*
X133165643Y-160021552D01*
X133174822Y-160040958D01*
X133182054Y-160061170D01*
X133187270Y-160081994D01*
X133190420Y-160103229D01*
X133191473Y-160124670D01*
X133190420Y-160146111D01*
X133187270Y-160167346D01*
X133182054Y-160188170D01*
X133174822Y-160208382D01*
X133165643Y-160227788D01*
X133154607Y-160246201D01*
X133141819Y-160263444D01*
X133127403Y-160279350D01*
X132818044Y-160588709D01*
X132802138Y-160603125D01*
X132784895Y-160615913D01*
X132766482Y-160626949D01*
X132747076Y-160636128D01*
X132726864Y-160643360D01*
X132706040Y-160648576D01*
X132684805Y-160651726D01*
X132663364Y-160652779D01*
X132641923Y-160651726D01*
X132620688Y-160648576D01*
X132599864Y-160643360D01*
X132579652Y-160636128D01*
X132560246Y-160626949D01*
X132541833Y-160615913D01*
X132524590Y-160603125D01*
X132508684Y-160588709D01*
X132146291Y-160226316D01*
X132131875Y-160210410D01*
X132119087Y-160193167D01*
X132108051Y-160174754D01*
X132098872Y-160155348D01*
X132091640Y-160135136D01*
X132086424Y-160114312D01*
X132083274Y-160093077D01*
X132082221Y-160071636D01*
X132083274Y-160050195D01*
X132086424Y-160028960D01*
X132091640Y-160008136D01*
X132098872Y-159987924D01*
X132108051Y-159968518D01*
X132119087Y-159950105D01*
X132131875Y-159932862D01*
X132146291Y-159916956D01*
X132455650Y-159607597D01*
X132471556Y-159593181D01*
X132488799Y-159580393D01*
X132507212Y-159569357D01*
X132526618Y-159560178D01*
X132546830Y-159552946D01*
X132567654Y-159547730D01*
X132588889Y-159544580D01*
X132610330Y-159543527D01*
X132631771Y-159544580D01*
G37*
G36*
X109942691Y-130971053D02*
G01*
X109963926Y-130974203D01*
X109984750Y-130979419D01*
X110004962Y-130986651D01*
X110024368Y-130995830D01*
X110042781Y-131006866D01*
X110060024Y-131019654D01*
X110075930Y-131034070D01*
X110090346Y-131049976D01*
X110103134Y-131067219D01*
X110114170Y-131085632D01*
X110123349Y-131105038D01*
X110130581Y-131125250D01*
X110135797Y-131146074D01*
X110138947Y-131167309D01*
X110140000Y-131188750D01*
X110140000Y-131701250D01*
X110138947Y-131722691D01*
X110135797Y-131743926D01*
X110130581Y-131764750D01*
X110123349Y-131784962D01*
X110114170Y-131804368D01*
X110103134Y-131822781D01*
X110090346Y-131840024D01*
X110075930Y-131855930D01*
X110060024Y-131870346D01*
X110042781Y-131883134D01*
X110024368Y-131894170D01*
X110004962Y-131903349D01*
X109984750Y-131910581D01*
X109963926Y-131915797D01*
X109942691Y-131918947D01*
X109921250Y-131920000D01*
X109483750Y-131920000D01*
X109462309Y-131918947D01*
X109441074Y-131915797D01*
X109420250Y-131910581D01*
X109400038Y-131903349D01*
X109380632Y-131894170D01*
X109362219Y-131883134D01*
X109344976Y-131870346D01*
X109329070Y-131855930D01*
X109314654Y-131840024D01*
X109301866Y-131822781D01*
X109290830Y-131804368D01*
X109281651Y-131784962D01*
X109274419Y-131764750D01*
X109269203Y-131743926D01*
X109266053Y-131722691D01*
X109265000Y-131701250D01*
X109265000Y-131188750D01*
X109266053Y-131167309D01*
X109269203Y-131146074D01*
X109274419Y-131125250D01*
X109281651Y-131105038D01*
X109290830Y-131085632D01*
X109301866Y-131067219D01*
X109314654Y-131049976D01*
X109329070Y-131034070D01*
X109344976Y-131019654D01*
X109362219Y-131006866D01*
X109380632Y-130995830D01*
X109400038Y-130986651D01*
X109420250Y-130979419D01*
X109441074Y-130974203D01*
X109462309Y-130971053D01*
X109483750Y-130970000D01*
X109921250Y-130970000D01*
X109942691Y-130971053D01*
G37*
G36*
X111517691Y-130971053D02*
G01*
X111538926Y-130974203D01*
X111559750Y-130979419D01*
X111579962Y-130986651D01*
X111599368Y-130995830D01*
X111617781Y-131006866D01*
X111635024Y-131019654D01*
X111650930Y-131034070D01*
X111665346Y-131049976D01*
X111678134Y-131067219D01*
X111689170Y-131085632D01*
X111698349Y-131105038D01*
X111705581Y-131125250D01*
X111710797Y-131146074D01*
X111713947Y-131167309D01*
X111715000Y-131188750D01*
X111715000Y-131701250D01*
X111713947Y-131722691D01*
X111710797Y-131743926D01*
X111705581Y-131764750D01*
X111698349Y-131784962D01*
X111689170Y-131804368D01*
X111678134Y-131822781D01*
X111665346Y-131840024D01*
X111650930Y-131855930D01*
X111635024Y-131870346D01*
X111617781Y-131883134D01*
X111599368Y-131894170D01*
X111579962Y-131903349D01*
X111559750Y-131910581D01*
X111538926Y-131915797D01*
X111517691Y-131918947D01*
X111496250Y-131920000D01*
X111058750Y-131920000D01*
X111037309Y-131918947D01*
X111016074Y-131915797D01*
X110995250Y-131910581D01*
X110975038Y-131903349D01*
X110955632Y-131894170D01*
X110937219Y-131883134D01*
X110919976Y-131870346D01*
X110904070Y-131855930D01*
X110889654Y-131840024D01*
X110876866Y-131822781D01*
X110865830Y-131804368D01*
X110856651Y-131784962D01*
X110849419Y-131764750D01*
X110844203Y-131743926D01*
X110841053Y-131722691D01*
X110840000Y-131701250D01*
X110840000Y-131188750D01*
X110841053Y-131167309D01*
X110844203Y-131146074D01*
X110849419Y-131125250D01*
X110856651Y-131105038D01*
X110865830Y-131085632D01*
X110876866Y-131067219D01*
X110889654Y-131049976D01*
X110904070Y-131034070D01*
X110919976Y-131019654D01*
X110937219Y-131006866D01*
X110955632Y-130995830D01*
X110975038Y-130986651D01*
X110995250Y-130979419D01*
X111016074Y-130974203D01*
X111037309Y-130971053D01*
X111058750Y-130970000D01*
X111496250Y-130970000D01*
X111517691Y-130971053D01*
G37*
G36*
X109942691Y-132876053D02*
G01*
X109963926Y-132879203D01*
X109984750Y-132884419D01*
X110004962Y-132891651D01*
X110024368Y-132900830D01*
X110042781Y-132911866D01*
X110060024Y-132924654D01*
X110075930Y-132939070D01*
X110090346Y-132954976D01*
X110103134Y-132972219D01*
X110114170Y-132990632D01*
X110123349Y-133010038D01*
X110130581Y-133030250D01*
X110135797Y-133051074D01*
X110138947Y-133072309D01*
X110140000Y-133093750D01*
X110140000Y-133606250D01*
X110138947Y-133627691D01*
X110135797Y-133648926D01*
X110130581Y-133669750D01*
X110123349Y-133689962D01*
X110114170Y-133709368D01*
X110103134Y-133727781D01*
X110090346Y-133745024D01*
X110075930Y-133760930D01*
X110060024Y-133775346D01*
X110042781Y-133788134D01*
X110024368Y-133799170D01*
X110004962Y-133808349D01*
X109984750Y-133815581D01*
X109963926Y-133820797D01*
X109942691Y-133823947D01*
X109921250Y-133825000D01*
X109483750Y-133825000D01*
X109462309Y-133823947D01*
X109441074Y-133820797D01*
X109420250Y-133815581D01*
X109400038Y-133808349D01*
X109380632Y-133799170D01*
X109362219Y-133788134D01*
X109344976Y-133775346D01*
X109329070Y-133760930D01*
X109314654Y-133745024D01*
X109301866Y-133727781D01*
X109290830Y-133709368D01*
X109281651Y-133689962D01*
X109274419Y-133669750D01*
X109269203Y-133648926D01*
X109266053Y-133627691D01*
X109265000Y-133606250D01*
X109265000Y-133093750D01*
X109266053Y-133072309D01*
X109269203Y-133051074D01*
X109274419Y-133030250D01*
X109281651Y-133010038D01*
X109290830Y-132990632D01*
X109301866Y-132972219D01*
X109314654Y-132954976D01*
X109329070Y-132939070D01*
X109344976Y-132924654D01*
X109362219Y-132911866D01*
X109380632Y-132900830D01*
X109400038Y-132891651D01*
X109420250Y-132884419D01*
X109441074Y-132879203D01*
X109462309Y-132876053D01*
X109483750Y-132875000D01*
X109921250Y-132875000D01*
X109942691Y-132876053D01*
G37*
G36*
X111517691Y-132876053D02*
G01*
X111538926Y-132879203D01*
X111559750Y-132884419D01*
X111579962Y-132891651D01*
X111599368Y-132900830D01*
X111617781Y-132911866D01*
X111635024Y-132924654D01*
X111650930Y-132939070D01*
X111665346Y-132954976D01*
X111678134Y-132972219D01*
X111689170Y-132990632D01*
X111698349Y-133010038D01*
X111705581Y-133030250D01*
X111710797Y-133051074D01*
X111713947Y-133072309D01*
X111715000Y-133093750D01*
X111715000Y-133606250D01*
X111713947Y-133627691D01*
X111710797Y-133648926D01*
X111705581Y-133669750D01*
X111698349Y-133689962D01*
X111689170Y-133709368D01*
X111678134Y-133727781D01*
X111665346Y-133745024D01*
X111650930Y-133760930D01*
X111635024Y-133775346D01*
X111617781Y-133788134D01*
X111599368Y-133799170D01*
X111579962Y-133808349D01*
X111559750Y-133815581D01*
X111538926Y-133820797D01*
X111517691Y-133823947D01*
X111496250Y-133825000D01*
X111058750Y-133825000D01*
X111037309Y-133823947D01*
X111016074Y-133820797D01*
X110995250Y-133815581D01*
X110975038Y-133808349D01*
X110955632Y-133799170D01*
X110937219Y-133788134D01*
X110919976Y-133775346D01*
X110904070Y-133760930D01*
X110889654Y-133745024D01*
X110876866Y-133727781D01*
X110865830Y-133709368D01*
X110856651Y-133689962D01*
X110849419Y-133669750D01*
X110844203Y-133648926D01*
X110841053Y-133627691D01*
X110840000Y-133606250D01*
X110840000Y-133093750D01*
X110841053Y-133072309D01*
X110844203Y-133051074D01*
X110849419Y-133030250D01*
X110856651Y-133010038D01*
X110865830Y-132990632D01*
X110876866Y-132972219D01*
X110889654Y-132954976D01*
X110904070Y-132939070D01*
X110919976Y-132924654D01*
X110937219Y-132911866D01*
X110955632Y-132900830D01*
X110975038Y-132891651D01*
X110995250Y-132884419D01*
X111016074Y-132879203D01*
X111037309Y-132876053D01*
X111058750Y-132875000D01*
X111496250Y-132875000D01*
X111517691Y-132876053D01*
G37*
G36*
X151852691Y-193201053D02*
G01*
X151873926Y-193204203D01*
X151894750Y-193209419D01*
X151914962Y-193216651D01*
X151934368Y-193225830D01*
X151952781Y-193236866D01*
X151970024Y-193249654D01*
X151985930Y-193264070D01*
X152000346Y-193279976D01*
X152013134Y-193297219D01*
X152024170Y-193315632D01*
X152033349Y-193335038D01*
X152040581Y-193355250D01*
X152045797Y-193376074D01*
X152048947Y-193397309D01*
X152050000Y-193418750D01*
X152050000Y-193931250D01*
X152048947Y-193952691D01*
X152045797Y-193973926D01*
X152040581Y-193994750D01*
X152033349Y-194014962D01*
X152024170Y-194034368D01*
X152013134Y-194052781D01*
X152000346Y-194070024D01*
X151985930Y-194085930D01*
X151970024Y-194100346D01*
X151952781Y-194113134D01*
X151934368Y-194124170D01*
X151914962Y-194133349D01*
X151894750Y-194140581D01*
X151873926Y-194145797D01*
X151852691Y-194148947D01*
X151831250Y-194150000D01*
X151393750Y-194150000D01*
X151372309Y-194148947D01*
X151351074Y-194145797D01*
X151330250Y-194140581D01*
X151310038Y-194133349D01*
X151290632Y-194124170D01*
X151272219Y-194113134D01*
X151254976Y-194100346D01*
X151239070Y-194085930D01*
X151224654Y-194070024D01*
X151211866Y-194052781D01*
X151200830Y-194034368D01*
X151191651Y-194014962D01*
X151184419Y-193994750D01*
X151179203Y-193973926D01*
X151176053Y-193952691D01*
X151175000Y-193931250D01*
X151175000Y-193418750D01*
X151176053Y-193397309D01*
X151179203Y-193376074D01*
X151184419Y-193355250D01*
X151191651Y-193335038D01*
X151200830Y-193315632D01*
X151211866Y-193297219D01*
X151224654Y-193279976D01*
X151239070Y-193264070D01*
X151254976Y-193249654D01*
X151272219Y-193236866D01*
X151290632Y-193225830D01*
X151310038Y-193216651D01*
X151330250Y-193209419D01*
X151351074Y-193204203D01*
X151372309Y-193201053D01*
X151393750Y-193200000D01*
X151831250Y-193200000D01*
X151852691Y-193201053D01*
G37*
G36*
X153427691Y-193201053D02*
G01*
X153448926Y-193204203D01*
X153469750Y-193209419D01*
X153489962Y-193216651D01*
X153509368Y-193225830D01*
X153527781Y-193236866D01*
X153545024Y-193249654D01*
X153560930Y-193264070D01*
X153575346Y-193279976D01*
X153588134Y-193297219D01*
X153599170Y-193315632D01*
X153608349Y-193335038D01*
X153615581Y-193355250D01*
X153620797Y-193376074D01*
X153623947Y-193397309D01*
X153625000Y-193418750D01*
X153625000Y-193931250D01*
X153623947Y-193952691D01*
X153620797Y-193973926D01*
X153615581Y-193994750D01*
X153608349Y-194014962D01*
X153599170Y-194034368D01*
X153588134Y-194052781D01*
X153575346Y-194070024D01*
X153560930Y-194085930D01*
X153545024Y-194100346D01*
X153527781Y-194113134D01*
X153509368Y-194124170D01*
X153489962Y-194133349D01*
X153469750Y-194140581D01*
X153448926Y-194145797D01*
X153427691Y-194148947D01*
X153406250Y-194150000D01*
X152968750Y-194150000D01*
X152947309Y-194148947D01*
X152926074Y-194145797D01*
X152905250Y-194140581D01*
X152885038Y-194133349D01*
X152865632Y-194124170D01*
X152847219Y-194113134D01*
X152829976Y-194100346D01*
X152814070Y-194085930D01*
X152799654Y-194070024D01*
X152786866Y-194052781D01*
X152775830Y-194034368D01*
X152766651Y-194014962D01*
X152759419Y-193994750D01*
X152754203Y-193973926D01*
X152751053Y-193952691D01*
X152750000Y-193931250D01*
X152750000Y-193418750D01*
X152751053Y-193397309D01*
X152754203Y-193376074D01*
X152759419Y-193355250D01*
X152766651Y-193335038D01*
X152775830Y-193315632D01*
X152786866Y-193297219D01*
X152799654Y-193279976D01*
X152814070Y-193264070D01*
X152829976Y-193249654D01*
X152847219Y-193236866D01*
X152865632Y-193225830D01*
X152885038Y-193216651D01*
X152905250Y-193209419D01*
X152926074Y-193204203D01*
X152947309Y-193201053D01*
X152968750Y-193200000D01*
X153406250Y-193200000D01*
X153427691Y-193201053D01*
G37*
G36*
X118387691Y-118156052D02*
G01*
X118408926Y-118159202D01*
X118429750Y-118164418D01*
X118449962Y-118171650D01*
X118469368Y-118180829D01*
X118487781Y-118191865D01*
X118505024Y-118204653D01*
X118520930Y-118219069D01*
X118535346Y-118234975D01*
X118548134Y-118252218D01*
X118559170Y-118270631D01*
X118568349Y-118290037D01*
X118575581Y-118310249D01*
X118580797Y-118331073D01*
X118583947Y-118352308D01*
X118585000Y-118373749D01*
X118585000Y-118811249D01*
X118583947Y-118832690D01*
X118580797Y-118853925D01*
X118575581Y-118874749D01*
X118568349Y-118894961D01*
X118559170Y-118914367D01*
X118548134Y-118932780D01*
X118535346Y-118950023D01*
X118520930Y-118965929D01*
X118505024Y-118980345D01*
X118487781Y-118993133D01*
X118469368Y-119004169D01*
X118449962Y-119013348D01*
X118429750Y-119020580D01*
X118408926Y-119025796D01*
X118387691Y-119028946D01*
X118366250Y-119029999D01*
X117853750Y-119029999D01*
X117832309Y-119028946D01*
X117811074Y-119025796D01*
X117790250Y-119020580D01*
X117770038Y-119013348D01*
X117750632Y-119004169D01*
X117732219Y-118993133D01*
X117714976Y-118980345D01*
X117699070Y-118965929D01*
X117684654Y-118950023D01*
X117671866Y-118932780D01*
X117660830Y-118914367D01*
X117651651Y-118894961D01*
X117644419Y-118874749D01*
X117639203Y-118853925D01*
X117636053Y-118832690D01*
X117635000Y-118811249D01*
X117635000Y-118373749D01*
X117636053Y-118352308D01*
X117639203Y-118331073D01*
X117644419Y-118310249D01*
X117651651Y-118290037D01*
X117660830Y-118270631D01*
X117671866Y-118252218D01*
X117684654Y-118234975D01*
X117699070Y-118219069D01*
X117714976Y-118204653D01*
X117732219Y-118191865D01*
X117750632Y-118180829D01*
X117770038Y-118171650D01*
X117790250Y-118164418D01*
X117811074Y-118159202D01*
X117832309Y-118156052D01*
X117853750Y-118154999D01*
X118366250Y-118154999D01*
X118387691Y-118156052D01*
G37*
G36*
X118387691Y-119731054D02*
G01*
X118408926Y-119734204D01*
X118429750Y-119739420D01*
X118449962Y-119746652D01*
X118469368Y-119755831D01*
X118487781Y-119766867D01*
X118505024Y-119779655D01*
X118520930Y-119794071D01*
X118535346Y-119809977D01*
X118548134Y-119827220D01*
X118559170Y-119845633D01*
X118568349Y-119865039D01*
X118575581Y-119885251D01*
X118580797Y-119906075D01*
X118583947Y-119927310D01*
X118585000Y-119948751D01*
X118585000Y-120386251D01*
X118583947Y-120407692D01*
X118580797Y-120428927D01*
X118575581Y-120449751D01*
X118568349Y-120469963D01*
X118559170Y-120489369D01*
X118548134Y-120507782D01*
X118535346Y-120525025D01*
X118520930Y-120540931D01*
X118505024Y-120555347D01*
X118487781Y-120568135D01*
X118469368Y-120579171D01*
X118449962Y-120588350D01*
X118429750Y-120595582D01*
X118408926Y-120600798D01*
X118387691Y-120603948D01*
X118366250Y-120605001D01*
X117853750Y-120605001D01*
X117832309Y-120603948D01*
X117811074Y-120600798D01*
X117790250Y-120595582D01*
X117770038Y-120588350D01*
X117750632Y-120579171D01*
X117732219Y-120568135D01*
X117714976Y-120555347D01*
X117699070Y-120540931D01*
X117684654Y-120525025D01*
X117671866Y-120507782D01*
X117660830Y-120489369D01*
X117651651Y-120469963D01*
X117644419Y-120449751D01*
X117639203Y-120428927D01*
X117636053Y-120407692D01*
X117635000Y-120386251D01*
X117635000Y-119948751D01*
X117636053Y-119927310D01*
X117639203Y-119906075D01*
X117644419Y-119885251D01*
X117651651Y-119865039D01*
X117660830Y-119845633D01*
X117671866Y-119827220D01*
X117684654Y-119809977D01*
X117699070Y-119794071D01*
X117714976Y-119779655D01*
X117732219Y-119766867D01*
X117750632Y-119755831D01*
X117770038Y-119746652D01*
X117790250Y-119739420D01*
X117811074Y-119734204D01*
X117832309Y-119731054D01*
X117853750Y-119730001D01*
X118366250Y-119730001D01*
X118387691Y-119731054D01*
G37*
G36*
X114577691Y-118156053D02*
G01*
X114598926Y-118159203D01*
X114619750Y-118164419D01*
X114639962Y-118171651D01*
X114659368Y-118180830D01*
X114677781Y-118191866D01*
X114695024Y-118204654D01*
X114710930Y-118219070D01*
X114725346Y-118234976D01*
X114738134Y-118252219D01*
X114749170Y-118270632D01*
X114758349Y-118290038D01*
X114765581Y-118310250D01*
X114770797Y-118331074D01*
X114773947Y-118352309D01*
X114775000Y-118373750D01*
X114775000Y-118811250D01*
X114773947Y-118832691D01*
X114770797Y-118853926D01*
X114765581Y-118874750D01*
X114758349Y-118894962D01*
X114749170Y-118914368D01*
X114738134Y-118932781D01*
X114725346Y-118950024D01*
X114710930Y-118965930D01*
X114695024Y-118980346D01*
X114677781Y-118993134D01*
X114659368Y-119004170D01*
X114639962Y-119013349D01*
X114619750Y-119020581D01*
X114598926Y-119025797D01*
X114577691Y-119028947D01*
X114556250Y-119030000D01*
X114043750Y-119030000D01*
X114022309Y-119028947D01*
X114001074Y-119025797D01*
X113980250Y-119020581D01*
X113960038Y-119013349D01*
X113940632Y-119004170D01*
X113922219Y-118993134D01*
X113904976Y-118980346D01*
X113889070Y-118965930D01*
X113874654Y-118950024D01*
X113861866Y-118932781D01*
X113850830Y-118914368D01*
X113841651Y-118894962D01*
X113834419Y-118874750D01*
X113829203Y-118853926D01*
X113826053Y-118832691D01*
X113825000Y-118811250D01*
X113825000Y-118373750D01*
X113826053Y-118352309D01*
X113829203Y-118331074D01*
X113834419Y-118310250D01*
X113841651Y-118290038D01*
X113850830Y-118270632D01*
X113861866Y-118252219D01*
X113874654Y-118234976D01*
X113889070Y-118219070D01*
X113904976Y-118204654D01*
X113922219Y-118191866D01*
X113940632Y-118180830D01*
X113960038Y-118171651D01*
X113980250Y-118164419D01*
X114001074Y-118159203D01*
X114022309Y-118156053D01*
X114043750Y-118155000D01*
X114556250Y-118155000D01*
X114577691Y-118156053D01*
G37*
G36*
X114577691Y-119731053D02*
G01*
X114598926Y-119734203D01*
X114619750Y-119739419D01*
X114639962Y-119746651D01*
X114659368Y-119755830D01*
X114677781Y-119766866D01*
X114695024Y-119779654D01*
X114710930Y-119794070D01*
X114725346Y-119809976D01*
X114738134Y-119827219D01*
X114749170Y-119845632D01*
X114758349Y-119865038D01*
X114765581Y-119885250D01*
X114770797Y-119906074D01*
X114773947Y-119927309D01*
X114775000Y-119948750D01*
X114775000Y-120386250D01*
X114773947Y-120407691D01*
X114770797Y-120428926D01*
X114765581Y-120449750D01*
X114758349Y-120469962D01*
X114749170Y-120489368D01*
X114738134Y-120507781D01*
X114725346Y-120525024D01*
X114710930Y-120540930D01*
X114695024Y-120555346D01*
X114677781Y-120568134D01*
X114659368Y-120579170D01*
X114639962Y-120588349D01*
X114619750Y-120595581D01*
X114598926Y-120600797D01*
X114577691Y-120603947D01*
X114556250Y-120605000D01*
X114043750Y-120605000D01*
X114022309Y-120603947D01*
X114001074Y-120600797D01*
X113980250Y-120595581D01*
X113960038Y-120588349D01*
X113940632Y-120579170D01*
X113922219Y-120568134D01*
X113904976Y-120555346D01*
X113889070Y-120540930D01*
X113874654Y-120525024D01*
X113861866Y-120507781D01*
X113850830Y-120489368D01*
X113841651Y-120469962D01*
X113834419Y-120449750D01*
X113829203Y-120428926D01*
X113826053Y-120407691D01*
X113825000Y-120386250D01*
X113825000Y-119948750D01*
X113826053Y-119927309D01*
X113829203Y-119906074D01*
X113834419Y-119885250D01*
X113841651Y-119865038D01*
X113850830Y-119845632D01*
X113861866Y-119827219D01*
X113874654Y-119809976D01*
X113889070Y-119794070D01*
X113904976Y-119779654D01*
X113922219Y-119766866D01*
X113940632Y-119755830D01*
X113960038Y-119746651D01*
X113980250Y-119739419D01*
X114001074Y-119734203D01*
X114022309Y-119731053D01*
X114043750Y-119730000D01*
X114556250Y-119730000D01*
X114577691Y-119731053D01*
G37*
G36*
X115212691Y-145131053D02*
G01*
X115233926Y-145134203D01*
X115254750Y-145139419D01*
X115274962Y-145146651D01*
X115294368Y-145155830D01*
X115312781Y-145166866D01*
X115330024Y-145179654D01*
X115345930Y-145194070D01*
X115360346Y-145209976D01*
X115373134Y-145227219D01*
X115384170Y-145245632D01*
X115393349Y-145265038D01*
X115400581Y-145285250D01*
X115405797Y-145306074D01*
X115408947Y-145327309D01*
X115410000Y-145348750D01*
X115410000Y-145786250D01*
X115408947Y-145807691D01*
X115405797Y-145828926D01*
X115400581Y-145849750D01*
X115393349Y-145869962D01*
X115384170Y-145889368D01*
X115373134Y-145907781D01*
X115360346Y-145925024D01*
X115345930Y-145940930D01*
X115330024Y-145955346D01*
X115312781Y-145968134D01*
X115294368Y-145979170D01*
X115274962Y-145988349D01*
X115254750Y-145995581D01*
X115233926Y-146000797D01*
X115212691Y-146003947D01*
X115191250Y-146005000D01*
X114678750Y-146005000D01*
X114657309Y-146003947D01*
X114636074Y-146000797D01*
X114615250Y-145995581D01*
X114595038Y-145988349D01*
X114575632Y-145979170D01*
X114557219Y-145968134D01*
X114539976Y-145955346D01*
X114524070Y-145940930D01*
X114509654Y-145925024D01*
X114496866Y-145907781D01*
X114485830Y-145889368D01*
X114476651Y-145869962D01*
X114469419Y-145849750D01*
X114464203Y-145828926D01*
X114461053Y-145807691D01*
X114460000Y-145786250D01*
X114460000Y-145348750D01*
X114461053Y-145327309D01*
X114464203Y-145306074D01*
X114469419Y-145285250D01*
X114476651Y-145265038D01*
X114485830Y-145245632D01*
X114496866Y-145227219D01*
X114509654Y-145209976D01*
X114524070Y-145194070D01*
X114539976Y-145179654D01*
X114557219Y-145166866D01*
X114575632Y-145155830D01*
X114595038Y-145146651D01*
X114615250Y-145139419D01*
X114636074Y-145134203D01*
X114657309Y-145131053D01*
X114678750Y-145130000D01*
X115191250Y-145130000D01*
X115212691Y-145131053D01*
G37*
G36*
X115212691Y-143556053D02*
G01*
X115233926Y-143559203D01*
X115254750Y-143564419D01*
X115274962Y-143571651D01*
X115294368Y-143580830D01*
X115312781Y-143591866D01*
X115330024Y-143604654D01*
X115345930Y-143619070D01*
X115360346Y-143634976D01*
X115373134Y-143652219D01*
X115384170Y-143670632D01*
X115393349Y-143690038D01*
X115400581Y-143710250D01*
X115405797Y-143731074D01*
X115408947Y-143752309D01*
X115410000Y-143773750D01*
X115410000Y-144211250D01*
X115408947Y-144232691D01*
X115405797Y-144253926D01*
X115400581Y-144274750D01*
X115393349Y-144294962D01*
X115384170Y-144314368D01*
X115373134Y-144332781D01*
X115360346Y-144350024D01*
X115345930Y-144365930D01*
X115330024Y-144380346D01*
X115312781Y-144393134D01*
X115294368Y-144404170D01*
X115274962Y-144413349D01*
X115254750Y-144420581D01*
X115233926Y-144425797D01*
X115212691Y-144428947D01*
X115191250Y-144430000D01*
X114678750Y-144430000D01*
X114657309Y-144428947D01*
X114636074Y-144425797D01*
X114615250Y-144420581D01*
X114595038Y-144413349D01*
X114575632Y-144404170D01*
X114557219Y-144393134D01*
X114539976Y-144380346D01*
X114524070Y-144365930D01*
X114509654Y-144350024D01*
X114496866Y-144332781D01*
X114485830Y-144314368D01*
X114476651Y-144294962D01*
X114469419Y-144274750D01*
X114464203Y-144253926D01*
X114461053Y-144232691D01*
X114460000Y-144211250D01*
X114460000Y-143773750D01*
X114461053Y-143752309D01*
X114464203Y-143731074D01*
X114469419Y-143710250D01*
X114476651Y-143690038D01*
X114485830Y-143670632D01*
X114496866Y-143652219D01*
X114509654Y-143634976D01*
X114524070Y-143619070D01*
X114539976Y-143604654D01*
X114557219Y-143591866D01*
X114575632Y-143580830D01*
X114595038Y-143571651D01*
X114615250Y-143564419D01*
X114636074Y-143559203D01*
X114657309Y-143556053D01*
X114678750Y-143555000D01*
X115191250Y-143555000D01*
X115212691Y-143556053D01*
G37*
G36*
X116482691Y-119731053D02*
G01*
X116503926Y-119734203D01*
X116524750Y-119739419D01*
X116544962Y-119746651D01*
X116564368Y-119755830D01*
X116582781Y-119766866D01*
X116600024Y-119779654D01*
X116615930Y-119794070D01*
X116630346Y-119809976D01*
X116643134Y-119827219D01*
X116654170Y-119845632D01*
X116663349Y-119865038D01*
X116670581Y-119885250D01*
X116675797Y-119906074D01*
X116678947Y-119927309D01*
X116680000Y-119948750D01*
X116680000Y-120386250D01*
X116678947Y-120407691D01*
X116675797Y-120428926D01*
X116670581Y-120449750D01*
X116663349Y-120469962D01*
X116654170Y-120489368D01*
X116643134Y-120507781D01*
X116630346Y-120525024D01*
X116615930Y-120540930D01*
X116600024Y-120555346D01*
X116582781Y-120568134D01*
X116564368Y-120579170D01*
X116544962Y-120588349D01*
X116524750Y-120595581D01*
X116503926Y-120600797D01*
X116482691Y-120603947D01*
X116461250Y-120605000D01*
X115948750Y-120605000D01*
X115927309Y-120603947D01*
X115906074Y-120600797D01*
X115885250Y-120595581D01*
X115865038Y-120588349D01*
X115845632Y-120579170D01*
X115827219Y-120568134D01*
X115809976Y-120555346D01*
X115794070Y-120540930D01*
X115779654Y-120525024D01*
X115766866Y-120507781D01*
X115755830Y-120489368D01*
X115746651Y-120469962D01*
X115739419Y-120449750D01*
X115734203Y-120428926D01*
X115731053Y-120407691D01*
X115730000Y-120386250D01*
X115730000Y-119948750D01*
X115731053Y-119927309D01*
X115734203Y-119906074D01*
X115739419Y-119885250D01*
X115746651Y-119865038D01*
X115755830Y-119845632D01*
X115766866Y-119827219D01*
X115779654Y-119809976D01*
X115794070Y-119794070D01*
X115809976Y-119779654D01*
X115827219Y-119766866D01*
X115845632Y-119755830D01*
X115865038Y-119746651D01*
X115885250Y-119739419D01*
X115906074Y-119734203D01*
X115927309Y-119731053D01*
X115948750Y-119730000D01*
X116461250Y-119730000D01*
X116482691Y-119731053D01*
G37*
G36*
X116482691Y-118156053D02*
G01*
X116503926Y-118159203D01*
X116524750Y-118164419D01*
X116544962Y-118171651D01*
X116564368Y-118180830D01*
X116582781Y-118191866D01*
X116600024Y-118204654D01*
X116615930Y-118219070D01*
X116630346Y-118234976D01*
X116643134Y-118252219D01*
X116654170Y-118270632D01*
X116663349Y-118290038D01*
X116670581Y-118310250D01*
X116675797Y-118331074D01*
X116678947Y-118352309D01*
X116680000Y-118373750D01*
X116680000Y-118811250D01*
X116678947Y-118832691D01*
X116675797Y-118853926D01*
X116670581Y-118874750D01*
X116663349Y-118894962D01*
X116654170Y-118914368D01*
X116643134Y-118932781D01*
X116630346Y-118950024D01*
X116615930Y-118965930D01*
X116600024Y-118980346D01*
X116582781Y-118993134D01*
X116564368Y-119004170D01*
X116544962Y-119013349D01*
X116524750Y-119020581D01*
X116503926Y-119025797D01*
X116482691Y-119028947D01*
X116461250Y-119030000D01*
X115948750Y-119030000D01*
X115927309Y-119028947D01*
X115906074Y-119025797D01*
X115885250Y-119020581D01*
X115865038Y-119013349D01*
X115845632Y-119004170D01*
X115827219Y-118993134D01*
X115809976Y-118980346D01*
X115794070Y-118965930D01*
X115779654Y-118950024D01*
X115766866Y-118932781D01*
X115755830Y-118914368D01*
X115746651Y-118894962D01*
X115739419Y-118874750D01*
X115734203Y-118853926D01*
X115731053Y-118832691D01*
X115730000Y-118811250D01*
X115730000Y-118373750D01*
X115731053Y-118352309D01*
X115734203Y-118331074D01*
X115739419Y-118310250D01*
X115746651Y-118290038D01*
X115755830Y-118270632D01*
X115766866Y-118252219D01*
X115779654Y-118234976D01*
X115794070Y-118219070D01*
X115809976Y-118204654D01*
X115827219Y-118191866D01*
X115845632Y-118180830D01*
X115865038Y-118171651D01*
X115885250Y-118164419D01*
X115906074Y-118159203D01*
X115927309Y-118156053D01*
X115948750Y-118155000D01*
X116461250Y-118155000D01*
X116482691Y-118156053D01*
G37*
G36*
X122947691Y-116366053D02*
G01*
X122968926Y-116369203D01*
X122989750Y-116374419D01*
X123009962Y-116381651D01*
X123029368Y-116390830D01*
X123047781Y-116401866D01*
X123065024Y-116414654D01*
X123080930Y-116429070D01*
X123095346Y-116444976D01*
X123108134Y-116462219D01*
X123119170Y-116480632D01*
X123128349Y-116500038D01*
X123135581Y-116520250D01*
X123140797Y-116541074D01*
X123143947Y-116562309D01*
X123145000Y-116583750D01*
X123145000Y-117096250D01*
X123143947Y-117117691D01*
X123140797Y-117138926D01*
X123135581Y-117159750D01*
X123128349Y-117179962D01*
X123119170Y-117199368D01*
X123108134Y-117217781D01*
X123095346Y-117235024D01*
X123080930Y-117250930D01*
X123065024Y-117265346D01*
X123047781Y-117278134D01*
X123029368Y-117289170D01*
X123009962Y-117298349D01*
X122989750Y-117305581D01*
X122968926Y-117310797D01*
X122947691Y-117313947D01*
X122926250Y-117315000D01*
X122488750Y-117315000D01*
X122467309Y-117313947D01*
X122446074Y-117310797D01*
X122425250Y-117305581D01*
X122405038Y-117298349D01*
X122385632Y-117289170D01*
X122367219Y-117278134D01*
X122349976Y-117265346D01*
X122334070Y-117250930D01*
X122319654Y-117235024D01*
X122306866Y-117217781D01*
X122295830Y-117199368D01*
X122286651Y-117179962D01*
X122279419Y-117159750D01*
X122274203Y-117138926D01*
X122271053Y-117117691D01*
X122270000Y-117096250D01*
X122270000Y-116583750D01*
X122271053Y-116562309D01*
X122274203Y-116541074D01*
X122279419Y-116520250D01*
X122286651Y-116500038D01*
X122295830Y-116480632D01*
X122306866Y-116462219D01*
X122319654Y-116444976D01*
X122334070Y-116429070D01*
X122349976Y-116414654D01*
X122367219Y-116401866D01*
X122385632Y-116390830D01*
X122405038Y-116381651D01*
X122425250Y-116374419D01*
X122446074Y-116369203D01*
X122467309Y-116366053D01*
X122488750Y-116365000D01*
X122926250Y-116365000D01*
X122947691Y-116366053D01*
G37*
G36*
X121372691Y-116366053D02*
G01*
X121393926Y-116369203D01*
X121414750Y-116374419D01*
X121434962Y-116381651D01*
X121454368Y-116390830D01*
X121472781Y-116401866D01*
X121490024Y-116414654D01*
X121505930Y-116429070D01*
X121520346Y-116444976D01*
X121533134Y-116462219D01*
X121544170Y-116480632D01*
X121553349Y-116500038D01*
X121560581Y-116520250D01*
X121565797Y-116541074D01*
X121568947Y-116562309D01*
X121570000Y-116583750D01*
X121570000Y-117096250D01*
X121568947Y-117117691D01*
X121565797Y-117138926D01*
X121560581Y-117159750D01*
X121553349Y-117179962D01*
X121544170Y-117199368D01*
X121533134Y-117217781D01*
X121520346Y-117235024D01*
X121505930Y-117250930D01*
X121490024Y-117265346D01*
X121472781Y-117278134D01*
X121454368Y-117289170D01*
X121434962Y-117298349D01*
X121414750Y-117305581D01*
X121393926Y-117310797D01*
X121372691Y-117313947D01*
X121351250Y-117315000D01*
X120913750Y-117315000D01*
X120892309Y-117313947D01*
X120871074Y-117310797D01*
X120850250Y-117305581D01*
X120830038Y-117298349D01*
X120810632Y-117289170D01*
X120792219Y-117278134D01*
X120774976Y-117265346D01*
X120759070Y-117250930D01*
X120744654Y-117235024D01*
X120731866Y-117217781D01*
X120720830Y-117199368D01*
X120711651Y-117179962D01*
X120704419Y-117159750D01*
X120699203Y-117138926D01*
X120696053Y-117117691D01*
X120695000Y-117096250D01*
X120695000Y-116583750D01*
X120696053Y-116562309D01*
X120699203Y-116541074D01*
X120704419Y-116520250D01*
X120711651Y-116500038D01*
X120720830Y-116480632D01*
X120731866Y-116462219D01*
X120744654Y-116444976D01*
X120759070Y-116429070D01*
X120774976Y-116414654D01*
X120792219Y-116401866D01*
X120810632Y-116390830D01*
X120830038Y-116381651D01*
X120850250Y-116374419D01*
X120871074Y-116369203D01*
X120892309Y-116366053D01*
X120913750Y-116365000D01*
X121351250Y-116365000D01*
X121372691Y-116366053D01*
G37*
G36*
X150252691Y-169706053D02*
G01*
X150273926Y-169709203D01*
X150294750Y-169714419D01*
X150314962Y-169721651D01*
X150334368Y-169730830D01*
X150352781Y-169741866D01*
X150370024Y-169754654D01*
X150385930Y-169769070D01*
X150400346Y-169784976D01*
X150413134Y-169802219D01*
X150424170Y-169820632D01*
X150433349Y-169840038D01*
X150440581Y-169860250D01*
X150445797Y-169881074D01*
X150448947Y-169902309D01*
X150450000Y-169923750D01*
X150450000Y-170436250D01*
X150448947Y-170457691D01*
X150445797Y-170478926D01*
X150440581Y-170499750D01*
X150433349Y-170519962D01*
X150424170Y-170539368D01*
X150413134Y-170557781D01*
X150400346Y-170575024D01*
X150385930Y-170590930D01*
X150370024Y-170605346D01*
X150352781Y-170618134D01*
X150334368Y-170629170D01*
X150314962Y-170638349D01*
X150294750Y-170645581D01*
X150273926Y-170650797D01*
X150252691Y-170653947D01*
X150231250Y-170655000D01*
X149793750Y-170655000D01*
X149772309Y-170653947D01*
X149751074Y-170650797D01*
X149730250Y-170645581D01*
X149710038Y-170638349D01*
X149690632Y-170629170D01*
X149672219Y-170618134D01*
X149654976Y-170605346D01*
X149639070Y-170590930D01*
X149624654Y-170575024D01*
X149611866Y-170557781D01*
X149600830Y-170539368D01*
X149591651Y-170519962D01*
X149584419Y-170499750D01*
X149579203Y-170478926D01*
X149576053Y-170457691D01*
X149575000Y-170436250D01*
X149575000Y-169923750D01*
X149576053Y-169902309D01*
X149579203Y-169881074D01*
X149584419Y-169860250D01*
X149591651Y-169840038D01*
X149600830Y-169820632D01*
X149611866Y-169802219D01*
X149624654Y-169784976D01*
X149639070Y-169769070D01*
X149654976Y-169754654D01*
X149672219Y-169741866D01*
X149690632Y-169730830D01*
X149710038Y-169721651D01*
X149730250Y-169714419D01*
X149751074Y-169709203D01*
X149772309Y-169706053D01*
X149793750Y-169705000D01*
X150231250Y-169705000D01*
X150252691Y-169706053D01*
G37*
G36*
X148677691Y-169706053D02*
G01*
X148698926Y-169709203D01*
X148719750Y-169714419D01*
X148739962Y-169721651D01*
X148759368Y-169730830D01*
X148777781Y-169741866D01*
X148795024Y-169754654D01*
X148810930Y-169769070D01*
X148825346Y-169784976D01*
X148838134Y-169802219D01*
X148849170Y-169820632D01*
X148858349Y-169840038D01*
X148865581Y-169860250D01*
X148870797Y-169881074D01*
X148873947Y-169902309D01*
X148875000Y-169923750D01*
X148875000Y-170436250D01*
X148873947Y-170457691D01*
X148870797Y-170478926D01*
X148865581Y-170499750D01*
X148858349Y-170519962D01*
X148849170Y-170539368D01*
X148838134Y-170557781D01*
X148825346Y-170575024D01*
X148810930Y-170590930D01*
X148795024Y-170605346D01*
X148777781Y-170618134D01*
X148759368Y-170629170D01*
X148739962Y-170638349D01*
X148719750Y-170645581D01*
X148698926Y-170650797D01*
X148677691Y-170653947D01*
X148656250Y-170655000D01*
X148218750Y-170655000D01*
X148197309Y-170653947D01*
X148176074Y-170650797D01*
X148155250Y-170645581D01*
X148135038Y-170638349D01*
X148115632Y-170629170D01*
X148097219Y-170618134D01*
X148079976Y-170605346D01*
X148064070Y-170590930D01*
X148049654Y-170575024D01*
X148036866Y-170557781D01*
X148025830Y-170539368D01*
X148016651Y-170519962D01*
X148009419Y-170499750D01*
X148004203Y-170478926D01*
X148001053Y-170457691D01*
X148000000Y-170436250D01*
X148000000Y-169923750D01*
X148001053Y-169902309D01*
X148004203Y-169881074D01*
X148009419Y-169860250D01*
X148016651Y-169840038D01*
X148025830Y-169820632D01*
X148036866Y-169802219D01*
X148049654Y-169784976D01*
X148064070Y-169769070D01*
X148079976Y-169754654D01*
X148097219Y-169741866D01*
X148115632Y-169730830D01*
X148135038Y-169721651D01*
X148155250Y-169714419D01*
X148176074Y-169709203D01*
X148197309Y-169706053D01*
X148218750Y-169705000D01*
X148656250Y-169705000D01*
X148677691Y-169706053D01*
G37*
G36*
X151730142Y-163131174D02*
G01*
X151753803Y-163134684D01*
X151777007Y-163140496D01*
X151799529Y-163148554D01*
X151821153Y-163158782D01*
X151841670Y-163171079D01*
X151860883Y-163185329D01*
X151878607Y-163201393D01*
X151894671Y-163219117D01*
X151908921Y-163238330D01*
X151921218Y-163258847D01*
X151931446Y-163280471D01*
X151939504Y-163302993D01*
X151945316Y-163326197D01*
X151948826Y-163349858D01*
X151950000Y-163373750D01*
X151950000Y-164286250D01*
X151948826Y-164310142D01*
X151945316Y-164333803D01*
X151939504Y-164357007D01*
X151931446Y-164379529D01*
X151921218Y-164401153D01*
X151908921Y-164421670D01*
X151894671Y-164440883D01*
X151878607Y-164458607D01*
X151860883Y-164474671D01*
X151841670Y-164488921D01*
X151821153Y-164501218D01*
X151799529Y-164511446D01*
X151777007Y-164519504D01*
X151753803Y-164525316D01*
X151730142Y-164528826D01*
X151706250Y-164530000D01*
X151218750Y-164530000D01*
X151194858Y-164528826D01*
X151171197Y-164525316D01*
X151147993Y-164519504D01*
X151125471Y-164511446D01*
X151103847Y-164501218D01*
X151083330Y-164488921D01*
X151064117Y-164474671D01*
X151046393Y-164458607D01*
X151030329Y-164440883D01*
X151016079Y-164421670D01*
X151003782Y-164401153D01*
X150993554Y-164379529D01*
X150985496Y-164357007D01*
X150979684Y-164333803D01*
X150976174Y-164310142D01*
X150975000Y-164286250D01*
X150975000Y-163373750D01*
X150976174Y-163349858D01*
X150979684Y-163326197D01*
X150985496Y-163302993D01*
X150993554Y-163280471D01*
X151003782Y-163258847D01*
X151016079Y-163238330D01*
X151030329Y-163219117D01*
X151046393Y-163201393D01*
X151064117Y-163185329D01*
X151083330Y-163171079D01*
X151103847Y-163158782D01*
X151125471Y-163148554D01*
X151147993Y-163140496D01*
X151171197Y-163134684D01*
X151194858Y-163131174D01*
X151218750Y-163130000D01*
X151706250Y-163130000D01*
X151730142Y-163131174D01*
G37*
G36*
X153605142Y-163131174D02*
G01*
X153628803Y-163134684D01*
X153652007Y-163140496D01*
X153674529Y-163148554D01*
X153696153Y-163158782D01*
X153716670Y-163171079D01*
X153735883Y-163185329D01*
X153753607Y-163201393D01*
X153769671Y-163219117D01*
X153783921Y-163238330D01*
X153796218Y-163258847D01*
X153806446Y-163280471D01*
X153814504Y-163302993D01*
X153820316Y-163326197D01*
X153823826Y-163349858D01*
X153825000Y-163373750D01*
X153825000Y-164286250D01*
X153823826Y-164310142D01*
X153820316Y-164333803D01*
X153814504Y-164357007D01*
X153806446Y-164379529D01*
X153796218Y-164401153D01*
X153783921Y-164421670D01*
X153769671Y-164440883D01*
X153753607Y-164458607D01*
X153735883Y-164474671D01*
X153716670Y-164488921D01*
X153696153Y-164501218D01*
X153674529Y-164511446D01*
X153652007Y-164519504D01*
X153628803Y-164525316D01*
X153605142Y-164528826D01*
X153581250Y-164530000D01*
X153093750Y-164530000D01*
X153069858Y-164528826D01*
X153046197Y-164525316D01*
X153022993Y-164519504D01*
X153000471Y-164511446D01*
X152978847Y-164501218D01*
X152958330Y-164488921D01*
X152939117Y-164474671D01*
X152921393Y-164458607D01*
X152905329Y-164440883D01*
X152891079Y-164421670D01*
X152878782Y-164401153D01*
X152868554Y-164379529D01*
X152860496Y-164357007D01*
X152854684Y-164333803D01*
X152851174Y-164310142D01*
X152850000Y-164286250D01*
X152850000Y-163373750D01*
X152851174Y-163349858D01*
X152854684Y-163326197D01*
X152860496Y-163302993D01*
X152868554Y-163280471D01*
X152878782Y-163258847D01*
X152891079Y-163238330D01*
X152905329Y-163219117D01*
X152921393Y-163201393D01*
X152939117Y-163185329D01*
X152958330Y-163171079D01*
X152978847Y-163158782D01*
X153000471Y-163148554D01*
X153022993Y-163140496D01*
X153046197Y-163134684D01*
X153069858Y-163131174D01*
X153093750Y-163130000D01*
X153581250Y-163130000D01*
X153605142Y-163131174D01*
G37*
D18*
X109855000Y-97155000D03*
X109855000Y-99695000D03*
X109855000Y-102235000D03*
X109855000Y-104775000D03*
X109855000Y-107315000D03*
D19*
X109855000Y-109855000D03*
D18*
X109855000Y-125730000D03*
X109855000Y-123190000D03*
X109855000Y-120650000D03*
X109855000Y-118110000D03*
D19*
X109855000Y-115570000D03*
D20*
X106336000Y-184471000D03*
X106336000Y-189671000D03*
X107786000Y-189671000D03*
X107786000Y-184471000D03*
X116369000Y-183836000D03*
X116369000Y-189036000D03*
X117819000Y-189036000D03*
X117819000Y-183836000D03*
X126275000Y-183582000D03*
X126275000Y-188782000D03*
X127725000Y-188782000D03*
X127725000Y-183582000D03*
X136308000Y-183836000D03*
X136308000Y-189036000D03*
X137758000Y-189036000D03*
X137758000Y-183836000D03*
D15*
X127000000Y-93158000D03*
X127000000Y-98358000D03*
X142240000Y-81347000D03*
X142240000Y-86547000D03*
D20*
X146341000Y-184471000D03*
X146341000Y-189671000D03*
X147791000Y-189671000D03*
X147791000Y-184471000D03*
D15*
X147701000Y-65599000D03*
X147701000Y-70799000D03*
D10*
G36*
X92529077Y-108236580D02*
G01*
X92550312Y-108239730D01*
X92571136Y-108244946D01*
X92591348Y-108252178D01*
X92610754Y-108261357D01*
X92629167Y-108272393D01*
X92646410Y-108285181D01*
X92662316Y-108299597D01*
X93024709Y-108661990D01*
X93039125Y-108677896D01*
X93051913Y-108695139D01*
X93062949Y-108713552D01*
X93072128Y-108732958D01*
X93079360Y-108753170D01*
X93084576Y-108773994D01*
X93087726Y-108795229D01*
X93088779Y-108816670D01*
X93087726Y-108838111D01*
X93084576Y-108859346D01*
X93079360Y-108880170D01*
X93072128Y-108900382D01*
X93062949Y-108919788D01*
X93051913Y-108938201D01*
X93039125Y-108955444D01*
X93024709Y-108971350D01*
X92715350Y-109280709D01*
X92699444Y-109295125D01*
X92682201Y-109307913D01*
X92663788Y-109318949D01*
X92644382Y-109328128D01*
X92624170Y-109335360D01*
X92603346Y-109340576D01*
X92582111Y-109343726D01*
X92560670Y-109344779D01*
X92539229Y-109343726D01*
X92517994Y-109340576D01*
X92497170Y-109335360D01*
X92476958Y-109328128D01*
X92457552Y-109318949D01*
X92439139Y-109307913D01*
X92421896Y-109295125D01*
X92405990Y-109280709D01*
X92043597Y-108918316D01*
X92029181Y-108902410D01*
X92016393Y-108885167D01*
X92005357Y-108866754D01*
X91996178Y-108847348D01*
X91988946Y-108827136D01*
X91983730Y-108806312D01*
X91980580Y-108785077D01*
X91979527Y-108763636D01*
X91980580Y-108742195D01*
X91983730Y-108720960D01*
X91988946Y-108700136D01*
X91996178Y-108679924D01*
X92005357Y-108660518D01*
X92016393Y-108642105D01*
X92029181Y-108624862D01*
X92043597Y-108608956D01*
X92352956Y-108299597D01*
X92368862Y-108285181D01*
X92386105Y-108272393D01*
X92404518Y-108261357D01*
X92423924Y-108252178D01*
X92444136Y-108244946D01*
X92464960Y-108239730D01*
X92486195Y-108236580D01*
X92507636Y-108235527D01*
X92529077Y-108236580D01*
G37*
G36*
X93642771Y-109350274D02*
G01*
X93664006Y-109353424D01*
X93684830Y-109358640D01*
X93705042Y-109365872D01*
X93724448Y-109375051D01*
X93742861Y-109386087D01*
X93760104Y-109398875D01*
X93776010Y-109413291D01*
X94138403Y-109775684D01*
X94152819Y-109791590D01*
X94165607Y-109808833D01*
X94176643Y-109827246D01*
X94185822Y-109846652D01*
X94193054Y-109866864D01*
X94198270Y-109887688D01*
X94201420Y-109908923D01*
X94202473Y-109930364D01*
X94201420Y-109951805D01*
X94198270Y-109973040D01*
X94193054Y-109993864D01*
X94185822Y-110014076D01*
X94176643Y-110033482D01*
X94165607Y-110051895D01*
X94152819Y-110069138D01*
X94138403Y-110085044D01*
X93829044Y-110394403D01*
X93813138Y-110408819D01*
X93795895Y-110421607D01*
X93777482Y-110432643D01*
X93758076Y-110441822D01*
X93737864Y-110449054D01*
X93717040Y-110454270D01*
X93695805Y-110457420D01*
X93674364Y-110458473D01*
X93652923Y-110457420D01*
X93631688Y-110454270D01*
X93610864Y-110449054D01*
X93590652Y-110441822D01*
X93571246Y-110432643D01*
X93552833Y-110421607D01*
X93535590Y-110408819D01*
X93519684Y-110394403D01*
X93157291Y-110032010D01*
X93142875Y-110016104D01*
X93130087Y-109998861D01*
X93119051Y-109980448D01*
X93109872Y-109961042D01*
X93102640Y-109940830D01*
X93097424Y-109920006D01*
X93094274Y-109898771D01*
X93093221Y-109877330D01*
X93094274Y-109855889D01*
X93097424Y-109834654D01*
X93102640Y-109813830D01*
X93109872Y-109793618D01*
X93119051Y-109774212D01*
X93130087Y-109755799D01*
X93142875Y-109738556D01*
X93157291Y-109722650D01*
X93466650Y-109413291D01*
X93482556Y-109398875D01*
X93499799Y-109386087D01*
X93518212Y-109375051D01*
X93537618Y-109365872D01*
X93557830Y-109358640D01*
X93578654Y-109353424D01*
X93599889Y-109350274D01*
X93621330Y-109349221D01*
X93642771Y-109350274D01*
G37*
D21*
X149320000Y-167005000D03*
X145320000Y-167005000D03*
D10*
G36*
X129613077Y-83188274D02*
G01*
X129634312Y-83191424D01*
X129655136Y-83196640D01*
X129675348Y-83203872D01*
X129694754Y-83213051D01*
X129713167Y-83224087D01*
X129730410Y-83236875D01*
X129746316Y-83251291D01*
X130108709Y-83613684D01*
X130123125Y-83629590D01*
X130135913Y-83646833D01*
X130146949Y-83665246D01*
X130156128Y-83684652D01*
X130163360Y-83704864D01*
X130168576Y-83725688D01*
X130171726Y-83746923D01*
X130172779Y-83768364D01*
X130171726Y-83789805D01*
X130168576Y-83811040D01*
X130163360Y-83831864D01*
X130156128Y-83852076D01*
X130146949Y-83871482D01*
X130135913Y-83889895D01*
X130123125Y-83907138D01*
X130108709Y-83923044D01*
X129799350Y-84232403D01*
X129783444Y-84246819D01*
X129766201Y-84259607D01*
X129747788Y-84270643D01*
X129728382Y-84279822D01*
X129708170Y-84287054D01*
X129687346Y-84292270D01*
X129666111Y-84295420D01*
X129644670Y-84296473D01*
X129623229Y-84295420D01*
X129601994Y-84292270D01*
X129581170Y-84287054D01*
X129560958Y-84279822D01*
X129541552Y-84270643D01*
X129523139Y-84259607D01*
X129505896Y-84246819D01*
X129489990Y-84232403D01*
X129127597Y-83870010D01*
X129113181Y-83854104D01*
X129100393Y-83836861D01*
X129089357Y-83818448D01*
X129080178Y-83799042D01*
X129072946Y-83778830D01*
X129067730Y-83758006D01*
X129064580Y-83736771D01*
X129063527Y-83715330D01*
X129064580Y-83693889D01*
X129067730Y-83672654D01*
X129072946Y-83651830D01*
X129080178Y-83631618D01*
X129089357Y-83612212D01*
X129100393Y-83593799D01*
X129113181Y-83576556D01*
X129127597Y-83560650D01*
X129436956Y-83251291D01*
X129452862Y-83236875D01*
X129470105Y-83224087D01*
X129488518Y-83213051D01*
X129507924Y-83203872D01*
X129528136Y-83196640D01*
X129548960Y-83191424D01*
X129570195Y-83188274D01*
X129591636Y-83187221D01*
X129613077Y-83188274D01*
G37*
G36*
X130726771Y-82074580D02*
G01*
X130748006Y-82077730D01*
X130768830Y-82082946D01*
X130789042Y-82090178D01*
X130808448Y-82099357D01*
X130826861Y-82110393D01*
X130844104Y-82123181D01*
X130860010Y-82137597D01*
X131222403Y-82499990D01*
X131236819Y-82515896D01*
X131249607Y-82533139D01*
X131260643Y-82551552D01*
X131269822Y-82570958D01*
X131277054Y-82591170D01*
X131282270Y-82611994D01*
X131285420Y-82633229D01*
X131286473Y-82654670D01*
X131285420Y-82676111D01*
X131282270Y-82697346D01*
X131277054Y-82718170D01*
X131269822Y-82738382D01*
X131260643Y-82757788D01*
X131249607Y-82776201D01*
X131236819Y-82793444D01*
X131222403Y-82809350D01*
X130913044Y-83118709D01*
X130897138Y-83133125D01*
X130879895Y-83145913D01*
X130861482Y-83156949D01*
X130842076Y-83166128D01*
X130821864Y-83173360D01*
X130801040Y-83178576D01*
X130779805Y-83181726D01*
X130758364Y-83182779D01*
X130736923Y-83181726D01*
X130715688Y-83178576D01*
X130694864Y-83173360D01*
X130674652Y-83166128D01*
X130655246Y-83156949D01*
X130636833Y-83145913D01*
X130619590Y-83133125D01*
X130603684Y-83118709D01*
X130241291Y-82756316D01*
X130226875Y-82740410D01*
X130214087Y-82723167D01*
X130203051Y-82704754D01*
X130193872Y-82685348D01*
X130186640Y-82665136D01*
X130181424Y-82644312D01*
X130178274Y-82623077D01*
X130177221Y-82601636D01*
X130178274Y-82580195D01*
X130181424Y-82558960D01*
X130186640Y-82538136D01*
X130193872Y-82517924D01*
X130203051Y-82498518D01*
X130214087Y-82480105D01*
X130226875Y-82462862D01*
X130241291Y-82446956D01*
X130550650Y-82137597D01*
X130566556Y-82123181D01*
X130583799Y-82110393D01*
X130602212Y-82099357D01*
X130621618Y-82090178D01*
X130641830Y-82082946D01*
X130662654Y-82077730D01*
X130683889Y-82074580D01*
X130705330Y-82073527D01*
X130726771Y-82074580D01*
G37*
G36*
X135784504Y-79771204D02*
G01*
X135808773Y-79774804D01*
X135832571Y-79780765D01*
X135855671Y-79789030D01*
X135877849Y-79799520D01*
X135898893Y-79812133D01*
X135918598Y-79826747D01*
X135936777Y-79843223D01*
X135953253Y-79861402D01*
X135967867Y-79881107D01*
X135980480Y-79902151D01*
X135990970Y-79924329D01*
X135999235Y-79947429D01*
X136005196Y-79971227D01*
X136008796Y-79995496D01*
X136010000Y-80020000D01*
X136010000Y-81270000D01*
X136008796Y-81294504D01*
X136005196Y-81318773D01*
X135999235Y-81342571D01*
X135990970Y-81365671D01*
X135980480Y-81387849D01*
X135967867Y-81408893D01*
X135953253Y-81428598D01*
X135936777Y-81446777D01*
X135918598Y-81463253D01*
X135898893Y-81477867D01*
X135877849Y-81490480D01*
X135855671Y-81500970D01*
X135832571Y-81509235D01*
X135808773Y-81515196D01*
X135784504Y-81518796D01*
X135760000Y-81520000D01*
X135010000Y-81520000D01*
X134985496Y-81518796D01*
X134961227Y-81515196D01*
X134937429Y-81509235D01*
X134914329Y-81500970D01*
X134892151Y-81490480D01*
X134871107Y-81477867D01*
X134851402Y-81463253D01*
X134833223Y-81446777D01*
X134816747Y-81428598D01*
X134802133Y-81408893D01*
X134789520Y-81387849D01*
X134779030Y-81365671D01*
X134770765Y-81342571D01*
X134764804Y-81318773D01*
X134761204Y-81294504D01*
X134760000Y-81270000D01*
X134760000Y-80020000D01*
X134761204Y-79995496D01*
X134764804Y-79971227D01*
X134770765Y-79947429D01*
X134779030Y-79924329D01*
X134789520Y-79902151D01*
X134802133Y-79881107D01*
X134816747Y-79861402D01*
X134833223Y-79843223D01*
X134851402Y-79826747D01*
X134871107Y-79812133D01*
X134892151Y-79799520D01*
X134914329Y-79789030D01*
X134937429Y-79780765D01*
X134961227Y-79774804D01*
X134985496Y-79771204D01*
X135010000Y-79770000D01*
X135760000Y-79770000D01*
X135784504Y-79771204D01*
G37*
G36*
X132984504Y-79771204D02*
G01*
X133008773Y-79774804D01*
X133032571Y-79780765D01*
X133055671Y-79789030D01*
X133077849Y-79799520D01*
X133098893Y-79812133D01*
X133118598Y-79826747D01*
X133136777Y-79843223D01*
X133153253Y-79861402D01*
X133167867Y-79881107D01*
X133180480Y-79902151D01*
X133190970Y-79924329D01*
X133199235Y-79947429D01*
X133205196Y-79971227D01*
X133208796Y-79995496D01*
X133210000Y-80020000D01*
X133210000Y-81270000D01*
X133208796Y-81294504D01*
X133205196Y-81318773D01*
X133199235Y-81342571D01*
X133190970Y-81365671D01*
X133180480Y-81387849D01*
X133167867Y-81408893D01*
X133153253Y-81428598D01*
X133136777Y-81446777D01*
X133118598Y-81463253D01*
X133098893Y-81477867D01*
X133077849Y-81490480D01*
X133055671Y-81500970D01*
X133032571Y-81509235D01*
X133008773Y-81515196D01*
X132984504Y-81518796D01*
X132960000Y-81520000D01*
X132210000Y-81520000D01*
X132185496Y-81518796D01*
X132161227Y-81515196D01*
X132137429Y-81509235D01*
X132114329Y-81500970D01*
X132092151Y-81490480D01*
X132071107Y-81477867D01*
X132051402Y-81463253D01*
X132033223Y-81446777D01*
X132016747Y-81428598D01*
X132002133Y-81408893D01*
X131989520Y-81387849D01*
X131979030Y-81365671D01*
X131970765Y-81342571D01*
X131964804Y-81318773D01*
X131961204Y-81294504D01*
X131960000Y-81270000D01*
X131960000Y-80020000D01*
X131961204Y-79995496D01*
X131964804Y-79971227D01*
X131970765Y-79947429D01*
X131979030Y-79924329D01*
X131989520Y-79902151D01*
X132002133Y-79881107D01*
X132016747Y-79861402D01*
X132033223Y-79843223D01*
X132051402Y-79826747D01*
X132071107Y-79812133D01*
X132092151Y-79799520D01*
X132114329Y-79789030D01*
X132137429Y-79780765D01*
X132161227Y-79774804D01*
X132185496Y-79771204D01*
X132210000Y-79770000D01*
X132960000Y-79770000D01*
X132984504Y-79771204D01*
G37*
G36*
X131361771Y-157639580D02*
G01*
X131383006Y-157642730D01*
X131403830Y-157647946D01*
X131424042Y-157655178D01*
X131443448Y-157664357D01*
X131461861Y-157675393D01*
X131479104Y-157688181D01*
X131495010Y-157702597D01*
X131857403Y-158064990D01*
X131871819Y-158080896D01*
X131884607Y-158098139D01*
X131895643Y-158116552D01*
X131904822Y-158135958D01*
X131912054Y-158156170D01*
X131917270Y-158176994D01*
X131920420Y-158198229D01*
X131921473Y-158219670D01*
X131920420Y-158241111D01*
X131917270Y-158262346D01*
X131912054Y-158283170D01*
X131904822Y-158303382D01*
X131895643Y-158322788D01*
X131884607Y-158341201D01*
X131871819Y-158358444D01*
X131857403Y-158374350D01*
X131548044Y-158683709D01*
X131532138Y-158698125D01*
X131514895Y-158710913D01*
X131496482Y-158721949D01*
X131477076Y-158731128D01*
X131456864Y-158738360D01*
X131436040Y-158743576D01*
X131414805Y-158746726D01*
X131393364Y-158747779D01*
X131371923Y-158746726D01*
X131350688Y-158743576D01*
X131329864Y-158738360D01*
X131309652Y-158731128D01*
X131290246Y-158721949D01*
X131271833Y-158710913D01*
X131254590Y-158698125D01*
X131238684Y-158683709D01*
X130876291Y-158321316D01*
X130861875Y-158305410D01*
X130849087Y-158288167D01*
X130838051Y-158269754D01*
X130828872Y-158250348D01*
X130821640Y-158230136D01*
X130816424Y-158209312D01*
X130813274Y-158188077D01*
X130812221Y-158166636D01*
X130813274Y-158145195D01*
X130816424Y-158123960D01*
X130821640Y-158103136D01*
X130828872Y-158082924D01*
X130838051Y-158063518D01*
X130849087Y-158045105D01*
X130861875Y-158027862D01*
X130876291Y-158011956D01*
X131185650Y-157702597D01*
X131201556Y-157688181D01*
X131218799Y-157675393D01*
X131237212Y-157664357D01*
X131256618Y-157655178D01*
X131276830Y-157647946D01*
X131297654Y-157642730D01*
X131318889Y-157639580D01*
X131340330Y-157638527D01*
X131361771Y-157639580D01*
G37*
G36*
X130248077Y-158753274D02*
G01*
X130269312Y-158756424D01*
X130290136Y-158761640D01*
X130310348Y-158768872D01*
X130329754Y-158778051D01*
X130348167Y-158789087D01*
X130365410Y-158801875D01*
X130381316Y-158816291D01*
X130743709Y-159178684D01*
X130758125Y-159194590D01*
X130770913Y-159211833D01*
X130781949Y-159230246D01*
X130791128Y-159249652D01*
X130798360Y-159269864D01*
X130803576Y-159290688D01*
X130806726Y-159311923D01*
X130807779Y-159333364D01*
X130806726Y-159354805D01*
X130803576Y-159376040D01*
X130798360Y-159396864D01*
X130791128Y-159417076D01*
X130781949Y-159436482D01*
X130770913Y-159454895D01*
X130758125Y-159472138D01*
X130743709Y-159488044D01*
X130434350Y-159797403D01*
X130418444Y-159811819D01*
X130401201Y-159824607D01*
X130382788Y-159835643D01*
X130363382Y-159844822D01*
X130343170Y-159852054D01*
X130322346Y-159857270D01*
X130301111Y-159860420D01*
X130279670Y-159861473D01*
X130258229Y-159860420D01*
X130236994Y-159857270D01*
X130216170Y-159852054D01*
X130195958Y-159844822D01*
X130176552Y-159835643D01*
X130158139Y-159824607D01*
X130140896Y-159811819D01*
X130124990Y-159797403D01*
X129762597Y-159435010D01*
X129748181Y-159419104D01*
X129735393Y-159401861D01*
X129724357Y-159383448D01*
X129715178Y-159364042D01*
X129707946Y-159343830D01*
X129702730Y-159323006D01*
X129699580Y-159301771D01*
X129698527Y-159280330D01*
X129699580Y-159258889D01*
X129702730Y-159237654D01*
X129707946Y-159216830D01*
X129715178Y-159196618D01*
X129724357Y-159177212D01*
X129735393Y-159158799D01*
X129748181Y-159141556D01*
X129762597Y-159125650D01*
X130071956Y-158816291D01*
X130087862Y-158801875D01*
X130105105Y-158789087D01*
X130123518Y-158778051D01*
X130142924Y-158768872D01*
X130163136Y-158761640D01*
X130183960Y-158756424D01*
X130205195Y-158753274D01*
X130226636Y-158752221D01*
X130248077Y-158753274D01*
G37*
G36*
X124354504Y-118506204D02*
G01*
X124378773Y-118509804D01*
X124402571Y-118515765D01*
X124425671Y-118524030D01*
X124447849Y-118534520D01*
X124468893Y-118547133D01*
X124488598Y-118561747D01*
X124506777Y-118578223D01*
X124523253Y-118596402D01*
X124537867Y-118616107D01*
X124550480Y-118637151D01*
X124560970Y-118659329D01*
X124569235Y-118682429D01*
X124575196Y-118706227D01*
X124578796Y-118730496D01*
X124580000Y-118755000D01*
X124580000Y-120005000D01*
X124578796Y-120029504D01*
X124575196Y-120053773D01*
X124569235Y-120077571D01*
X124560970Y-120100671D01*
X124550480Y-120122849D01*
X124537867Y-120143893D01*
X124523253Y-120163598D01*
X124506777Y-120181777D01*
X124488598Y-120198253D01*
X124468893Y-120212867D01*
X124447849Y-120225480D01*
X124425671Y-120235970D01*
X124402571Y-120244235D01*
X124378773Y-120250196D01*
X124354504Y-120253796D01*
X124330000Y-120255000D01*
X123580000Y-120255000D01*
X123555496Y-120253796D01*
X123531227Y-120250196D01*
X123507429Y-120244235D01*
X123484329Y-120235970D01*
X123462151Y-120225480D01*
X123441107Y-120212867D01*
X123421402Y-120198253D01*
X123403223Y-120181777D01*
X123386747Y-120163598D01*
X123372133Y-120143893D01*
X123359520Y-120122849D01*
X123349030Y-120100671D01*
X123340765Y-120077571D01*
X123334804Y-120053773D01*
X123331204Y-120029504D01*
X123330000Y-120005000D01*
X123330000Y-118755000D01*
X123331204Y-118730496D01*
X123334804Y-118706227D01*
X123340765Y-118682429D01*
X123349030Y-118659329D01*
X123359520Y-118637151D01*
X123372133Y-118616107D01*
X123386747Y-118596402D01*
X123403223Y-118578223D01*
X123421402Y-118561747D01*
X123441107Y-118547133D01*
X123462151Y-118534520D01*
X123484329Y-118524030D01*
X123507429Y-118515765D01*
X123531227Y-118509804D01*
X123555496Y-118506204D01*
X123580000Y-118505000D01*
X124330000Y-118505000D01*
X124354504Y-118506204D01*
G37*
G36*
X121554504Y-118506204D02*
G01*
X121578773Y-118509804D01*
X121602571Y-118515765D01*
X121625671Y-118524030D01*
X121647849Y-118534520D01*
X121668893Y-118547133D01*
X121688598Y-118561747D01*
X121706777Y-118578223D01*
X121723253Y-118596402D01*
X121737867Y-118616107D01*
X121750480Y-118637151D01*
X121760970Y-118659329D01*
X121769235Y-118682429D01*
X121775196Y-118706227D01*
X121778796Y-118730496D01*
X121780000Y-118755000D01*
X121780000Y-120005000D01*
X121778796Y-120029504D01*
X121775196Y-120053773D01*
X121769235Y-120077571D01*
X121760970Y-120100671D01*
X121750480Y-120122849D01*
X121737867Y-120143893D01*
X121723253Y-120163598D01*
X121706777Y-120181777D01*
X121688598Y-120198253D01*
X121668893Y-120212867D01*
X121647849Y-120225480D01*
X121625671Y-120235970D01*
X121602571Y-120244235D01*
X121578773Y-120250196D01*
X121554504Y-120253796D01*
X121530000Y-120255000D01*
X120780000Y-120255000D01*
X120755496Y-120253796D01*
X120731227Y-120250196D01*
X120707429Y-120244235D01*
X120684329Y-120235970D01*
X120662151Y-120225480D01*
X120641107Y-120212867D01*
X120621402Y-120198253D01*
X120603223Y-120181777D01*
X120586747Y-120163598D01*
X120572133Y-120143893D01*
X120559520Y-120122849D01*
X120549030Y-120100671D01*
X120540765Y-120077571D01*
X120534804Y-120053773D01*
X120531204Y-120029504D01*
X120530000Y-120005000D01*
X120530000Y-118755000D01*
X120531204Y-118730496D01*
X120534804Y-118706227D01*
X120540765Y-118682429D01*
X120549030Y-118659329D01*
X120559520Y-118637151D01*
X120572133Y-118616107D01*
X120586747Y-118596402D01*
X120603223Y-118578223D01*
X120621402Y-118561747D01*
X120641107Y-118547133D01*
X120662151Y-118534520D01*
X120684329Y-118524030D01*
X120707429Y-118515765D01*
X120731227Y-118509804D01*
X120755496Y-118506204D01*
X120780000Y-118505000D01*
X121530000Y-118505000D01*
X121554504Y-118506204D01*
G37*
G36*
X124217691Y-120811053D02*
G01*
X124238926Y-120814203D01*
X124259750Y-120819419D01*
X124279962Y-120826651D01*
X124299368Y-120835830D01*
X124317781Y-120846866D01*
X124335024Y-120859654D01*
X124350930Y-120874070D01*
X124365346Y-120889976D01*
X124378134Y-120907219D01*
X124389170Y-120925632D01*
X124398349Y-120945038D01*
X124405581Y-120965250D01*
X124410797Y-120986074D01*
X124413947Y-121007309D01*
X124415000Y-121028750D01*
X124415000Y-121541250D01*
X124413947Y-121562691D01*
X124410797Y-121583926D01*
X124405581Y-121604750D01*
X124398349Y-121624962D01*
X124389170Y-121644368D01*
X124378134Y-121662781D01*
X124365346Y-121680024D01*
X124350930Y-121695930D01*
X124335024Y-121710346D01*
X124317781Y-121723134D01*
X124299368Y-121734170D01*
X124279962Y-121743349D01*
X124259750Y-121750581D01*
X124238926Y-121755797D01*
X124217691Y-121758947D01*
X124196250Y-121760000D01*
X123758750Y-121760000D01*
X123737309Y-121758947D01*
X123716074Y-121755797D01*
X123695250Y-121750581D01*
X123675038Y-121743349D01*
X123655632Y-121734170D01*
X123637219Y-121723134D01*
X123619976Y-121710346D01*
X123604070Y-121695930D01*
X123589654Y-121680024D01*
X123576866Y-121662781D01*
X123565830Y-121644368D01*
X123556651Y-121624962D01*
X123549419Y-121604750D01*
X123544203Y-121583926D01*
X123541053Y-121562691D01*
X123540000Y-121541250D01*
X123540000Y-121028750D01*
X123541053Y-121007309D01*
X123544203Y-120986074D01*
X123549419Y-120965250D01*
X123556651Y-120945038D01*
X123565830Y-120925632D01*
X123576866Y-120907219D01*
X123589654Y-120889976D01*
X123604070Y-120874070D01*
X123619976Y-120859654D01*
X123637219Y-120846866D01*
X123655632Y-120835830D01*
X123675038Y-120826651D01*
X123695250Y-120819419D01*
X123716074Y-120814203D01*
X123737309Y-120811053D01*
X123758750Y-120810000D01*
X124196250Y-120810000D01*
X124217691Y-120811053D01*
G37*
G36*
X122642691Y-120811053D02*
G01*
X122663926Y-120814203D01*
X122684750Y-120819419D01*
X122704962Y-120826651D01*
X122724368Y-120835830D01*
X122742781Y-120846866D01*
X122760024Y-120859654D01*
X122775930Y-120874070D01*
X122790346Y-120889976D01*
X122803134Y-120907219D01*
X122814170Y-120925632D01*
X122823349Y-120945038D01*
X122830581Y-120965250D01*
X122835797Y-120986074D01*
X122838947Y-121007309D01*
X122840000Y-121028750D01*
X122840000Y-121541250D01*
X122838947Y-121562691D01*
X122835797Y-121583926D01*
X122830581Y-121604750D01*
X122823349Y-121624962D01*
X122814170Y-121644368D01*
X122803134Y-121662781D01*
X122790346Y-121680024D01*
X122775930Y-121695930D01*
X122760024Y-121710346D01*
X122742781Y-121723134D01*
X122724368Y-121734170D01*
X122704962Y-121743349D01*
X122684750Y-121750581D01*
X122663926Y-121755797D01*
X122642691Y-121758947D01*
X122621250Y-121760000D01*
X122183750Y-121760000D01*
X122162309Y-121758947D01*
X122141074Y-121755797D01*
X122120250Y-121750581D01*
X122100038Y-121743349D01*
X122080632Y-121734170D01*
X122062219Y-121723134D01*
X122044976Y-121710346D01*
X122029070Y-121695930D01*
X122014654Y-121680024D01*
X122001866Y-121662781D01*
X121990830Y-121644368D01*
X121981651Y-121624962D01*
X121974419Y-121604750D01*
X121969203Y-121583926D01*
X121966053Y-121562691D01*
X121965000Y-121541250D01*
X121965000Y-121028750D01*
X121966053Y-121007309D01*
X121969203Y-120986074D01*
X121974419Y-120965250D01*
X121981651Y-120945038D01*
X121990830Y-120925632D01*
X122001866Y-120907219D01*
X122014654Y-120889976D01*
X122029070Y-120874070D01*
X122044976Y-120859654D01*
X122062219Y-120846866D01*
X122080632Y-120835830D01*
X122100038Y-120826651D01*
X122120250Y-120819419D01*
X122141074Y-120814203D01*
X122162309Y-120811053D01*
X122183750Y-120810000D01*
X122621250Y-120810000D01*
X122642691Y-120811053D01*
G37*
G36*
X101242691Y-189911053D02*
G01*
X101263926Y-189914203D01*
X101284750Y-189919419D01*
X101304962Y-189926651D01*
X101324368Y-189935830D01*
X101342781Y-189946866D01*
X101360024Y-189959654D01*
X101375930Y-189974070D01*
X101390346Y-189989976D01*
X101403134Y-190007219D01*
X101414170Y-190025632D01*
X101423349Y-190045038D01*
X101430581Y-190065250D01*
X101435797Y-190086074D01*
X101438947Y-190107309D01*
X101440000Y-190128750D01*
X101440000Y-190566250D01*
X101438947Y-190587691D01*
X101435797Y-190608926D01*
X101430581Y-190629750D01*
X101423349Y-190649962D01*
X101414170Y-190669368D01*
X101403134Y-190687781D01*
X101390346Y-190705024D01*
X101375930Y-190720930D01*
X101360024Y-190735346D01*
X101342781Y-190748134D01*
X101324368Y-190759170D01*
X101304962Y-190768349D01*
X101284750Y-190775581D01*
X101263926Y-190780797D01*
X101242691Y-190783947D01*
X101221250Y-190785000D01*
X100708750Y-190785000D01*
X100687309Y-190783947D01*
X100666074Y-190780797D01*
X100645250Y-190775581D01*
X100625038Y-190768349D01*
X100605632Y-190759170D01*
X100587219Y-190748134D01*
X100569976Y-190735346D01*
X100554070Y-190720930D01*
X100539654Y-190705024D01*
X100526866Y-190687781D01*
X100515830Y-190669368D01*
X100506651Y-190649962D01*
X100499419Y-190629750D01*
X100494203Y-190608926D01*
X100491053Y-190587691D01*
X100490000Y-190566250D01*
X100490000Y-190128750D01*
X100491053Y-190107309D01*
X100494203Y-190086074D01*
X100499419Y-190065250D01*
X100506651Y-190045038D01*
X100515830Y-190025632D01*
X100526866Y-190007219D01*
X100539654Y-189989976D01*
X100554070Y-189974070D01*
X100569976Y-189959654D01*
X100587219Y-189946866D01*
X100605632Y-189935830D01*
X100625038Y-189926651D01*
X100645250Y-189919419D01*
X100666074Y-189914203D01*
X100687309Y-189911053D01*
X100708750Y-189910000D01*
X101221250Y-189910000D01*
X101242691Y-189911053D01*
G37*
G36*
X101242691Y-191486053D02*
G01*
X101263926Y-191489203D01*
X101284750Y-191494419D01*
X101304962Y-191501651D01*
X101324368Y-191510830D01*
X101342781Y-191521866D01*
X101360024Y-191534654D01*
X101375930Y-191549070D01*
X101390346Y-191564976D01*
X101403134Y-191582219D01*
X101414170Y-191600632D01*
X101423349Y-191620038D01*
X101430581Y-191640250D01*
X101435797Y-191661074D01*
X101438947Y-191682309D01*
X101440000Y-191703750D01*
X101440000Y-192141250D01*
X101438947Y-192162691D01*
X101435797Y-192183926D01*
X101430581Y-192204750D01*
X101423349Y-192224962D01*
X101414170Y-192244368D01*
X101403134Y-192262781D01*
X101390346Y-192280024D01*
X101375930Y-192295930D01*
X101360024Y-192310346D01*
X101342781Y-192323134D01*
X101324368Y-192334170D01*
X101304962Y-192343349D01*
X101284750Y-192350581D01*
X101263926Y-192355797D01*
X101242691Y-192358947D01*
X101221250Y-192360000D01*
X100708750Y-192360000D01*
X100687309Y-192358947D01*
X100666074Y-192355797D01*
X100645250Y-192350581D01*
X100625038Y-192343349D01*
X100605632Y-192334170D01*
X100587219Y-192323134D01*
X100569976Y-192310346D01*
X100554070Y-192295930D01*
X100539654Y-192280024D01*
X100526866Y-192262781D01*
X100515830Y-192244368D01*
X100506651Y-192224962D01*
X100499419Y-192204750D01*
X100494203Y-192183926D01*
X100491053Y-192162691D01*
X100490000Y-192141250D01*
X100490000Y-191703750D01*
X100491053Y-191682309D01*
X100494203Y-191661074D01*
X100499419Y-191640250D01*
X100506651Y-191620038D01*
X100515830Y-191600632D01*
X100526866Y-191582219D01*
X100539654Y-191564976D01*
X100554070Y-191549070D01*
X100569976Y-191534654D01*
X100587219Y-191521866D01*
X100605632Y-191510830D01*
X100625038Y-191501651D01*
X100645250Y-191494419D01*
X100666074Y-191489203D01*
X100687309Y-191486053D01*
X100708750Y-191485000D01*
X101221250Y-191485000D01*
X101242691Y-191486053D01*
G37*
G36*
X115839504Y-107711204D02*
G01*
X115863773Y-107714804D01*
X115887571Y-107720765D01*
X115910671Y-107729030D01*
X115932849Y-107739520D01*
X115953893Y-107752133D01*
X115973598Y-107766747D01*
X115991777Y-107783223D01*
X116008253Y-107801402D01*
X116022867Y-107821107D01*
X116035480Y-107842151D01*
X116045970Y-107864329D01*
X116054235Y-107887429D01*
X116060196Y-107911227D01*
X116063796Y-107935496D01*
X116065000Y-107960000D01*
X116065000Y-109210000D01*
X116063796Y-109234504D01*
X116060196Y-109258773D01*
X116054235Y-109282571D01*
X116045970Y-109305671D01*
X116035480Y-109327849D01*
X116022867Y-109348893D01*
X116008253Y-109368598D01*
X115991777Y-109386777D01*
X115973598Y-109403253D01*
X115953893Y-109417867D01*
X115932849Y-109430480D01*
X115910671Y-109440970D01*
X115887571Y-109449235D01*
X115863773Y-109455196D01*
X115839504Y-109458796D01*
X115815000Y-109460000D01*
X115065000Y-109460000D01*
X115040496Y-109458796D01*
X115016227Y-109455196D01*
X114992429Y-109449235D01*
X114969329Y-109440970D01*
X114947151Y-109430480D01*
X114926107Y-109417867D01*
X114906402Y-109403253D01*
X114888223Y-109386777D01*
X114871747Y-109368598D01*
X114857133Y-109348893D01*
X114844520Y-109327849D01*
X114834030Y-109305671D01*
X114825765Y-109282571D01*
X114819804Y-109258773D01*
X114816204Y-109234504D01*
X114815000Y-109210000D01*
X114815000Y-107960000D01*
X114816204Y-107935496D01*
X114819804Y-107911227D01*
X114825765Y-107887429D01*
X114834030Y-107864329D01*
X114844520Y-107842151D01*
X114857133Y-107821107D01*
X114871747Y-107801402D01*
X114888223Y-107783223D01*
X114906402Y-107766747D01*
X114926107Y-107752133D01*
X114947151Y-107739520D01*
X114969329Y-107729030D01*
X114992429Y-107720765D01*
X115016227Y-107714804D01*
X115040496Y-107711204D01*
X115065000Y-107710000D01*
X115815000Y-107710000D01*
X115839504Y-107711204D01*
G37*
G36*
X118639504Y-107711204D02*
G01*
X118663773Y-107714804D01*
X118687571Y-107720765D01*
X118710671Y-107729030D01*
X118732849Y-107739520D01*
X118753893Y-107752133D01*
X118773598Y-107766747D01*
X118791777Y-107783223D01*
X118808253Y-107801402D01*
X118822867Y-107821107D01*
X118835480Y-107842151D01*
X118845970Y-107864329D01*
X118854235Y-107887429D01*
X118860196Y-107911227D01*
X118863796Y-107935496D01*
X118865000Y-107960000D01*
X118865000Y-109210000D01*
X118863796Y-109234504D01*
X118860196Y-109258773D01*
X118854235Y-109282571D01*
X118845970Y-109305671D01*
X118835480Y-109327849D01*
X118822867Y-109348893D01*
X118808253Y-109368598D01*
X118791777Y-109386777D01*
X118773598Y-109403253D01*
X118753893Y-109417867D01*
X118732849Y-109430480D01*
X118710671Y-109440970D01*
X118687571Y-109449235D01*
X118663773Y-109455196D01*
X118639504Y-109458796D01*
X118615000Y-109460000D01*
X117865000Y-109460000D01*
X117840496Y-109458796D01*
X117816227Y-109455196D01*
X117792429Y-109449235D01*
X117769329Y-109440970D01*
X117747151Y-109430480D01*
X117726107Y-109417867D01*
X117706402Y-109403253D01*
X117688223Y-109386777D01*
X117671747Y-109368598D01*
X117657133Y-109348893D01*
X117644520Y-109327849D01*
X117634030Y-109305671D01*
X117625765Y-109282571D01*
X117619804Y-109258773D01*
X117616204Y-109234504D01*
X117615000Y-109210000D01*
X117615000Y-107960000D01*
X117616204Y-107935496D01*
X117619804Y-107911227D01*
X117625765Y-107887429D01*
X117634030Y-107864329D01*
X117644520Y-107842151D01*
X117657133Y-107821107D01*
X117671747Y-107801402D01*
X117688223Y-107783223D01*
X117706402Y-107766747D01*
X117726107Y-107752133D01*
X117747151Y-107739520D01*
X117769329Y-107729030D01*
X117792429Y-107720765D01*
X117816227Y-107714804D01*
X117840496Y-107711204D01*
X117865000Y-107710000D01*
X118615000Y-107710000D01*
X118639504Y-107711204D01*
G37*
G36*
X118661771Y-52229580D02*
G01*
X118683006Y-52232730D01*
X118703830Y-52237946D01*
X118724042Y-52245178D01*
X118743448Y-52254357D01*
X118761861Y-52265393D01*
X118779104Y-52278181D01*
X118795010Y-52292597D01*
X119157403Y-52654990D01*
X119171819Y-52670896D01*
X119184607Y-52688139D01*
X119195643Y-52706552D01*
X119204822Y-52725958D01*
X119212054Y-52746170D01*
X119217270Y-52766994D01*
X119220420Y-52788229D01*
X119221473Y-52809670D01*
X119220420Y-52831111D01*
X119217270Y-52852346D01*
X119212054Y-52873170D01*
X119204822Y-52893382D01*
X119195643Y-52912788D01*
X119184607Y-52931201D01*
X119171819Y-52948444D01*
X119157403Y-52964350D01*
X118848044Y-53273709D01*
X118832138Y-53288125D01*
X118814895Y-53300913D01*
X118796482Y-53311949D01*
X118777076Y-53321128D01*
X118756864Y-53328360D01*
X118736040Y-53333576D01*
X118714805Y-53336726D01*
X118693364Y-53337779D01*
X118671923Y-53336726D01*
X118650688Y-53333576D01*
X118629864Y-53328360D01*
X118609652Y-53321128D01*
X118590246Y-53311949D01*
X118571833Y-53300913D01*
X118554590Y-53288125D01*
X118538684Y-53273709D01*
X118176291Y-52911316D01*
X118161875Y-52895410D01*
X118149087Y-52878167D01*
X118138051Y-52859754D01*
X118128872Y-52840348D01*
X118121640Y-52820136D01*
X118116424Y-52799312D01*
X118113274Y-52778077D01*
X118112221Y-52756636D01*
X118113274Y-52735195D01*
X118116424Y-52713960D01*
X118121640Y-52693136D01*
X118128872Y-52672924D01*
X118138051Y-52653518D01*
X118149087Y-52635105D01*
X118161875Y-52617862D01*
X118176291Y-52601956D01*
X118485650Y-52292597D01*
X118501556Y-52278181D01*
X118518799Y-52265393D01*
X118537212Y-52254357D01*
X118556618Y-52245178D01*
X118576830Y-52237946D01*
X118597654Y-52232730D01*
X118618889Y-52229580D01*
X118640330Y-52228527D01*
X118661771Y-52229580D01*
G37*
G36*
X117548077Y-53343274D02*
G01*
X117569312Y-53346424D01*
X117590136Y-53351640D01*
X117610348Y-53358872D01*
X117629754Y-53368051D01*
X117648167Y-53379087D01*
X117665410Y-53391875D01*
X117681316Y-53406291D01*
X118043709Y-53768684D01*
X118058125Y-53784590D01*
X118070913Y-53801833D01*
X118081949Y-53820246D01*
X118091128Y-53839652D01*
X118098360Y-53859864D01*
X118103576Y-53880688D01*
X118106726Y-53901923D01*
X118107779Y-53923364D01*
X118106726Y-53944805D01*
X118103576Y-53966040D01*
X118098360Y-53986864D01*
X118091128Y-54007076D01*
X118081949Y-54026482D01*
X118070913Y-54044895D01*
X118058125Y-54062138D01*
X118043709Y-54078044D01*
X117734350Y-54387403D01*
X117718444Y-54401819D01*
X117701201Y-54414607D01*
X117682788Y-54425643D01*
X117663382Y-54434822D01*
X117643170Y-54442054D01*
X117622346Y-54447270D01*
X117601111Y-54450420D01*
X117579670Y-54451473D01*
X117558229Y-54450420D01*
X117536994Y-54447270D01*
X117516170Y-54442054D01*
X117495958Y-54434822D01*
X117476552Y-54425643D01*
X117458139Y-54414607D01*
X117440896Y-54401819D01*
X117424990Y-54387403D01*
X117062597Y-54025010D01*
X117048181Y-54009104D01*
X117035393Y-53991861D01*
X117024357Y-53973448D01*
X117015178Y-53954042D01*
X117007946Y-53933830D01*
X117002730Y-53913006D01*
X116999580Y-53891771D01*
X116998527Y-53870330D01*
X116999580Y-53848889D01*
X117002730Y-53827654D01*
X117007946Y-53806830D01*
X117015178Y-53786618D01*
X117024357Y-53767212D01*
X117035393Y-53748799D01*
X117048181Y-53731556D01*
X117062597Y-53715650D01*
X117371956Y-53406291D01*
X117387862Y-53391875D01*
X117405105Y-53379087D01*
X117423518Y-53368051D01*
X117442924Y-53358872D01*
X117463136Y-53351640D01*
X117483960Y-53346424D01*
X117505195Y-53343274D01*
X117526636Y-53342221D01*
X117548077Y-53343274D01*
G37*
G36*
X111579077Y-46358274D02*
G01*
X111600312Y-46361424D01*
X111621136Y-46366640D01*
X111641348Y-46373872D01*
X111660754Y-46383051D01*
X111679167Y-46394087D01*
X111696410Y-46406875D01*
X111712316Y-46421291D01*
X112074709Y-46783684D01*
X112089125Y-46799590D01*
X112101913Y-46816833D01*
X112112949Y-46835246D01*
X112122128Y-46854652D01*
X112129360Y-46874864D01*
X112134576Y-46895688D01*
X112137726Y-46916923D01*
X112138779Y-46938364D01*
X112137726Y-46959805D01*
X112134576Y-46981040D01*
X112129360Y-47001864D01*
X112122128Y-47022076D01*
X112112949Y-47041482D01*
X112101913Y-47059895D01*
X112089125Y-47077138D01*
X112074709Y-47093044D01*
X111765350Y-47402403D01*
X111749444Y-47416819D01*
X111732201Y-47429607D01*
X111713788Y-47440643D01*
X111694382Y-47449822D01*
X111674170Y-47457054D01*
X111653346Y-47462270D01*
X111632111Y-47465420D01*
X111610670Y-47466473D01*
X111589229Y-47465420D01*
X111567994Y-47462270D01*
X111547170Y-47457054D01*
X111526958Y-47449822D01*
X111507552Y-47440643D01*
X111489139Y-47429607D01*
X111471896Y-47416819D01*
X111455990Y-47402403D01*
X111093597Y-47040010D01*
X111079181Y-47024104D01*
X111066393Y-47006861D01*
X111055357Y-46988448D01*
X111046178Y-46969042D01*
X111038946Y-46948830D01*
X111033730Y-46928006D01*
X111030580Y-46906771D01*
X111029527Y-46885330D01*
X111030580Y-46863889D01*
X111033730Y-46842654D01*
X111038946Y-46821830D01*
X111046178Y-46801618D01*
X111055357Y-46782212D01*
X111066393Y-46763799D01*
X111079181Y-46746556D01*
X111093597Y-46730650D01*
X111402956Y-46421291D01*
X111418862Y-46406875D01*
X111436105Y-46394087D01*
X111454518Y-46383051D01*
X111473924Y-46373872D01*
X111494136Y-46366640D01*
X111514960Y-46361424D01*
X111536195Y-46358274D01*
X111557636Y-46357221D01*
X111579077Y-46358274D01*
G37*
G36*
X112692771Y-45244580D02*
G01*
X112714006Y-45247730D01*
X112734830Y-45252946D01*
X112755042Y-45260178D01*
X112774448Y-45269357D01*
X112792861Y-45280393D01*
X112810104Y-45293181D01*
X112826010Y-45307597D01*
X113188403Y-45669990D01*
X113202819Y-45685896D01*
X113215607Y-45703139D01*
X113226643Y-45721552D01*
X113235822Y-45740958D01*
X113243054Y-45761170D01*
X113248270Y-45781994D01*
X113251420Y-45803229D01*
X113252473Y-45824670D01*
X113251420Y-45846111D01*
X113248270Y-45867346D01*
X113243054Y-45888170D01*
X113235822Y-45908382D01*
X113226643Y-45927788D01*
X113215607Y-45946201D01*
X113202819Y-45963444D01*
X113188403Y-45979350D01*
X112879044Y-46288709D01*
X112863138Y-46303125D01*
X112845895Y-46315913D01*
X112827482Y-46326949D01*
X112808076Y-46336128D01*
X112787864Y-46343360D01*
X112767040Y-46348576D01*
X112745805Y-46351726D01*
X112724364Y-46352779D01*
X112702923Y-46351726D01*
X112681688Y-46348576D01*
X112660864Y-46343360D01*
X112640652Y-46336128D01*
X112621246Y-46326949D01*
X112602833Y-46315913D01*
X112585590Y-46303125D01*
X112569684Y-46288709D01*
X112207291Y-45926316D01*
X112192875Y-45910410D01*
X112180087Y-45893167D01*
X112169051Y-45874754D01*
X112159872Y-45855348D01*
X112152640Y-45835136D01*
X112147424Y-45814312D01*
X112144274Y-45793077D01*
X112143221Y-45771636D01*
X112144274Y-45750195D01*
X112147424Y-45728960D01*
X112152640Y-45708136D01*
X112159872Y-45687924D01*
X112169051Y-45668518D01*
X112180087Y-45650105D01*
X112192875Y-45632862D01*
X112207291Y-45616956D01*
X112516650Y-45307597D01*
X112532556Y-45293181D01*
X112549799Y-45280393D01*
X112568212Y-45269357D01*
X112587618Y-45260178D01*
X112607830Y-45252946D01*
X112628654Y-45247730D01*
X112649889Y-45244580D01*
X112671330Y-45243527D01*
X112692771Y-45244580D01*
G37*
G36*
X117376545Y-50669536D02*
G01*
X117400206Y-50673046D01*
X117423410Y-50678858D01*
X117445932Y-50686916D01*
X117467556Y-50697144D01*
X117488073Y-50709441D01*
X117507286Y-50723691D01*
X117525010Y-50739755D01*
X118170245Y-51384990D01*
X118186309Y-51402714D01*
X118200559Y-51421927D01*
X118212856Y-51442444D01*
X118223084Y-51464068D01*
X118231142Y-51486590D01*
X118236954Y-51509794D01*
X118240464Y-51533455D01*
X118241638Y-51557347D01*
X118240464Y-51581239D01*
X118236954Y-51604900D01*
X118231142Y-51628104D01*
X118223084Y-51650626D01*
X118212856Y-51672250D01*
X118200559Y-51692767D01*
X118186309Y-51711980D01*
X118170245Y-51729704D01*
X117825530Y-52074419D01*
X117807806Y-52090483D01*
X117788593Y-52104733D01*
X117768076Y-52117030D01*
X117746452Y-52127258D01*
X117723930Y-52135316D01*
X117700726Y-52141128D01*
X117677065Y-52144638D01*
X117653173Y-52145812D01*
X117629281Y-52144638D01*
X117605620Y-52141128D01*
X117582416Y-52135316D01*
X117559894Y-52127258D01*
X117538270Y-52117030D01*
X117517753Y-52104733D01*
X117498540Y-52090483D01*
X117480816Y-52074419D01*
X116835581Y-51429184D01*
X116819517Y-51411460D01*
X116805267Y-51392247D01*
X116792970Y-51371730D01*
X116782742Y-51350106D01*
X116774684Y-51327584D01*
X116768872Y-51304380D01*
X116765362Y-51280719D01*
X116764188Y-51256827D01*
X116765362Y-51232935D01*
X116768872Y-51209274D01*
X116774684Y-51186070D01*
X116782742Y-51163548D01*
X116792970Y-51141924D01*
X116805267Y-51121407D01*
X116819517Y-51102194D01*
X116835581Y-51084470D01*
X117180296Y-50739755D01*
X117198020Y-50723691D01*
X117217233Y-50709441D01*
X117237750Y-50697144D01*
X117259374Y-50686916D01*
X117281896Y-50678858D01*
X117305100Y-50673046D01*
X117328761Y-50669536D01*
X117352653Y-50668362D01*
X117376545Y-50669536D01*
G37*
G36*
X116050719Y-51995362D02*
G01*
X116074380Y-51998872D01*
X116097584Y-52004684D01*
X116120106Y-52012742D01*
X116141730Y-52022970D01*
X116162247Y-52035267D01*
X116181460Y-52049517D01*
X116199184Y-52065581D01*
X116844419Y-52710816D01*
X116860483Y-52728540D01*
X116874733Y-52747753D01*
X116887030Y-52768270D01*
X116897258Y-52789894D01*
X116905316Y-52812416D01*
X116911128Y-52835620D01*
X116914638Y-52859281D01*
X116915812Y-52883173D01*
X116914638Y-52907065D01*
X116911128Y-52930726D01*
X116905316Y-52953930D01*
X116897258Y-52976452D01*
X116887030Y-52998076D01*
X116874733Y-53018593D01*
X116860483Y-53037806D01*
X116844419Y-53055530D01*
X116499704Y-53400245D01*
X116481980Y-53416309D01*
X116462767Y-53430559D01*
X116442250Y-53442856D01*
X116420626Y-53453084D01*
X116398104Y-53461142D01*
X116374900Y-53466954D01*
X116351239Y-53470464D01*
X116327347Y-53471638D01*
X116303455Y-53470464D01*
X116279794Y-53466954D01*
X116256590Y-53461142D01*
X116234068Y-53453084D01*
X116212444Y-53442856D01*
X116191927Y-53430559D01*
X116172714Y-53416309D01*
X116154990Y-53400245D01*
X115509755Y-52755010D01*
X115493691Y-52737286D01*
X115479441Y-52718073D01*
X115467144Y-52697556D01*
X115456916Y-52675932D01*
X115448858Y-52653410D01*
X115443046Y-52630206D01*
X115439536Y-52606545D01*
X115438362Y-52582653D01*
X115439536Y-52558761D01*
X115443046Y-52535100D01*
X115448858Y-52511896D01*
X115456916Y-52489374D01*
X115467144Y-52467750D01*
X115479441Y-52447233D01*
X115493691Y-52428020D01*
X115509755Y-52410296D01*
X115854470Y-52065581D01*
X115872194Y-52049517D01*
X115891407Y-52035267D01*
X115911924Y-52022970D01*
X115933548Y-52012742D01*
X115956070Y-52004684D01*
X115979274Y-51998872D01*
X116002935Y-51995362D01*
X116026827Y-51994188D01*
X116050719Y-51995362D01*
G37*
G36*
X112621719Y-48693362D02*
G01*
X112645380Y-48696872D01*
X112668584Y-48702684D01*
X112691106Y-48710742D01*
X112712730Y-48720970D01*
X112733247Y-48733267D01*
X112752460Y-48747517D01*
X112770184Y-48763581D01*
X113415419Y-49408816D01*
X113431483Y-49426540D01*
X113445733Y-49445753D01*
X113458030Y-49466270D01*
X113468258Y-49487894D01*
X113476316Y-49510416D01*
X113482128Y-49533620D01*
X113485638Y-49557281D01*
X113486812Y-49581173D01*
X113485638Y-49605065D01*
X113482128Y-49628726D01*
X113476316Y-49651930D01*
X113468258Y-49674452D01*
X113458030Y-49696076D01*
X113445733Y-49716593D01*
X113431483Y-49735806D01*
X113415419Y-49753530D01*
X113070704Y-50098245D01*
X113052980Y-50114309D01*
X113033767Y-50128559D01*
X113013250Y-50140856D01*
X112991626Y-50151084D01*
X112969104Y-50159142D01*
X112945900Y-50164954D01*
X112922239Y-50168464D01*
X112898347Y-50169638D01*
X112874455Y-50168464D01*
X112850794Y-50164954D01*
X112827590Y-50159142D01*
X112805068Y-50151084D01*
X112783444Y-50140856D01*
X112762927Y-50128559D01*
X112743714Y-50114309D01*
X112725990Y-50098245D01*
X112080755Y-49453010D01*
X112064691Y-49435286D01*
X112050441Y-49416073D01*
X112038144Y-49395556D01*
X112027916Y-49373932D01*
X112019858Y-49351410D01*
X112014046Y-49328206D01*
X112010536Y-49304545D01*
X112009362Y-49280653D01*
X112010536Y-49256761D01*
X112014046Y-49233100D01*
X112019858Y-49209896D01*
X112027916Y-49187374D01*
X112038144Y-49165750D01*
X112050441Y-49145233D01*
X112064691Y-49126020D01*
X112080755Y-49108296D01*
X112425470Y-48763581D01*
X112443194Y-48747517D01*
X112462407Y-48733267D01*
X112482924Y-48720970D01*
X112504548Y-48710742D01*
X112527070Y-48702684D01*
X112550274Y-48696872D01*
X112573935Y-48693362D01*
X112597827Y-48692188D01*
X112621719Y-48693362D01*
G37*
G36*
X113947545Y-47367536D02*
G01*
X113971206Y-47371046D01*
X113994410Y-47376858D01*
X114016932Y-47384916D01*
X114038556Y-47395144D01*
X114059073Y-47407441D01*
X114078286Y-47421691D01*
X114096010Y-47437755D01*
X114741245Y-48082990D01*
X114757309Y-48100714D01*
X114771559Y-48119927D01*
X114783856Y-48140444D01*
X114794084Y-48162068D01*
X114802142Y-48184590D01*
X114807954Y-48207794D01*
X114811464Y-48231455D01*
X114812638Y-48255347D01*
X114811464Y-48279239D01*
X114807954Y-48302900D01*
X114802142Y-48326104D01*
X114794084Y-48348626D01*
X114783856Y-48370250D01*
X114771559Y-48390767D01*
X114757309Y-48409980D01*
X114741245Y-48427704D01*
X114396530Y-48772419D01*
X114378806Y-48788483D01*
X114359593Y-48802733D01*
X114339076Y-48815030D01*
X114317452Y-48825258D01*
X114294930Y-48833316D01*
X114271726Y-48839128D01*
X114248065Y-48842638D01*
X114224173Y-48843812D01*
X114200281Y-48842638D01*
X114176620Y-48839128D01*
X114153416Y-48833316D01*
X114130894Y-48825258D01*
X114109270Y-48815030D01*
X114088753Y-48802733D01*
X114069540Y-48788483D01*
X114051816Y-48772419D01*
X113406581Y-48127184D01*
X113390517Y-48109460D01*
X113376267Y-48090247D01*
X113363970Y-48069730D01*
X113353742Y-48048106D01*
X113345684Y-48025584D01*
X113339872Y-48002380D01*
X113336362Y-47978719D01*
X113335188Y-47954827D01*
X113336362Y-47930935D01*
X113339872Y-47907274D01*
X113345684Y-47884070D01*
X113353742Y-47861548D01*
X113363970Y-47839924D01*
X113376267Y-47819407D01*
X113390517Y-47800194D01*
X113406581Y-47782470D01*
X113751296Y-47437755D01*
X113769020Y-47421691D01*
X113788233Y-47407441D01*
X113808750Y-47395144D01*
X113830374Y-47384916D01*
X113852896Y-47376858D01*
X113876100Y-47371046D01*
X113899761Y-47367536D01*
X113923653Y-47366362D01*
X113947545Y-47367536D01*
G37*
G36*
X115852545Y-49272536D02*
G01*
X115876206Y-49276046D01*
X115899410Y-49281858D01*
X115921932Y-49289916D01*
X115943556Y-49300144D01*
X115964073Y-49312441D01*
X115983286Y-49326691D01*
X116001010Y-49342755D01*
X116646245Y-49987990D01*
X116662309Y-50005714D01*
X116676559Y-50024927D01*
X116688856Y-50045444D01*
X116699084Y-50067068D01*
X116707142Y-50089590D01*
X116712954Y-50112794D01*
X116716464Y-50136455D01*
X116717638Y-50160347D01*
X116716464Y-50184239D01*
X116712954Y-50207900D01*
X116707142Y-50231104D01*
X116699084Y-50253626D01*
X116688856Y-50275250D01*
X116676559Y-50295767D01*
X116662309Y-50314980D01*
X116646245Y-50332704D01*
X116301530Y-50677419D01*
X116283806Y-50693483D01*
X116264593Y-50707733D01*
X116244076Y-50720030D01*
X116222452Y-50730258D01*
X116199930Y-50738316D01*
X116176726Y-50744128D01*
X116153065Y-50747638D01*
X116129173Y-50748812D01*
X116105281Y-50747638D01*
X116081620Y-50744128D01*
X116058416Y-50738316D01*
X116035894Y-50730258D01*
X116014270Y-50720030D01*
X115993753Y-50707733D01*
X115974540Y-50693483D01*
X115956816Y-50677419D01*
X115311581Y-50032184D01*
X115295517Y-50014460D01*
X115281267Y-49995247D01*
X115268970Y-49974730D01*
X115258742Y-49953106D01*
X115250684Y-49930584D01*
X115244872Y-49907380D01*
X115241362Y-49883719D01*
X115240188Y-49859827D01*
X115241362Y-49835935D01*
X115244872Y-49812274D01*
X115250684Y-49789070D01*
X115258742Y-49766548D01*
X115268970Y-49744924D01*
X115281267Y-49724407D01*
X115295517Y-49705194D01*
X115311581Y-49687470D01*
X115656296Y-49342755D01*
X115674020Y-49326691D01*
X115693233Y-49312441D01*
X115713750Y-49300144D01*
X115735374Y-49289916D01*
X115757896Y-49281858D01*
X115781100Y-49276046D01*
X115804761Y-49272536D01*
X115828653Y-49271362D01*
X115852545Y-49272536D01*
G37*
G36*
X114526719Y-50598362D02*
G01*
X114550380Y-50601872D01*
X114573584Y-50607684D01*
X114596106Y-50615742D01*
X114617730Y-50625970D01*
X114638247Y-50638267D01*
X114657460Y-50652517D01*
X114675184Y-50668581D01*
X115320419Y-51313816D01*
X115336483Y-51331540D01*
X115350733Y-51350753D01*
X115363030Y-51371270D01*
X115373258Y-51392894D01*
X115381316Y-51415416D01*
X115387128Y-51438620D01*
X115390638Y-51462281D01*
X115391812Y-51486173D01*
X115390638Y-51510065D01*
X115387128Y-51533726D01*
X115381316Y-51556930D01*
X115373258Y-51579452D01*
X115363030Y-51601076D01*
X115350733Y-51621593D01*
X115336483Y-51640806D01*
X115320419Y-51658530D01*
X114975704Y-52003245D01*
X114957980Y-52019309D01*
X114938767Y-52033559D01*
X114918250Y-52045856D01*
X114896626Y-52056084D01*
X114874104Y-52064142D01*
X114850900Y-52069954D01*
X114827239Y-52073464D01*
X114803347Y-52074638D01*
X114779455Y-52073464D01*
X114755794Y-52069954D01*
X114732590Y-52064142D01*
X114710068Y-52056084D01*
X114688444Y-52045856D01*
X114667927Y-52033559D01*
X114648714Y-52019309D01*
X114630990Y-52003245D01*
X113985755Y-51358010D01*
X113969691Y-51340286D01*
X113955441Y-51321073D01*
X113943144Y-51300556D01*
X113932916Y-51278932D01*
X113924858Y-51256410D01*
X113919046Y-51233206D01*
X113915536Y-51209545D01*
X113914362Y-51185653D01*
X113915536Y-51161761D01*
X113919046Y-51138100D01*
X113924858Y-51114896D01*
X113932916Y-51092374D01*
X113943144Y-51070750D01*
X113955441Y-51050233D01*
X113969691Y-51031020D01*
X113985755Y-51013296D01*
X114330470Y-50668581D01*
X114348194Y-50652517D01*
X114367407Y-50638267D01*
X114387924Y-50625970D01*
X114409548Y-50615742D01*
X114432070Y-50607684D01*
X114455274Y-50601872D01*
X114478935Y-50598362D01*
X114502827Y-50597188D01*
X114526719Y-50598362D01*
G37*
G36*
X151730142Y-160591174D02*
G01*
X151753803Y-160594684D01*
X151777007Y-160600496D01*
X151799529Y-160608554D01*
X151821153Y-160618782D01*
X151841670Y-160631079D01*
X151860883Y-160645329D01*
X151878607Y-160661393D01*
X151894671Y-160679117D01*
X151908921Y-160698330D01*
X151921218Y-160718847D01*
X151931446Y-160740471D01*
X151939504Y-160762993D01*
X151945316Y-160786197D01*
X151948826Y-160809858D01*
X151950000Y-160833750D01*
X151950000Y-161746250D01*
X151948826Y-161770142D01*
X151945316Y-161793803D01*
X151939504Y-161817007D01*
X151931446Y-161839529D01*
X151921218Y-161861153D01*
X151908921Y-161881670D01*
X151894671Y-161900883D01*
X151878607Y-161918607D01*
X151860883Y-161934671D01*
X151841670Y-161948921D01*
X151821153Y-161961218D01*
X151799529Y-161971446D01*
X151777007Y-161979504D01*
X151753803Y-161985316D01*
X151730142Y-161988826D01*
X151706250Y-161990000D01*
X151218750Y-161990000D01*
X151194858Y-161988826D01*
X151171197Y-161985316D01*
X151147993Y-161979504D01*
X151125471Y-161971446D01*
X151103847Y-161961218D01*
X151083330Y-161948921D01*
X151064117Y-161934671D01*
X151046393Y-161918607D01*
X151030329Y-161900883D01*
X151016079Y-161881670D01*
X151003782Y-161861153D01*
X150993554Y-161839529D01*
X150985496Y-161817007D01*
X150979684Y-161793803D01*
X150976174Y-161770142D01*
X150975000Y-161746250D01*
X150975000Y-160833750D01*
X150976174Y-160809858D01*
X150979684Y-160786197D01*
X150985496Y-160762993D01*
X150993554Y-160740471D01*
X151003782Y-160718847D01*
X151016079Y-160698330D01*
X151030329Y-160679117D01*
X151046393Y-160661393D01*
X151064117Y-160645329D01*
X151083330Y-160631079D01*
X151103847Y-160618782D01*
X151125471Y-160608554D01*
X151147993Y-160600496D01*
X151171197Y-160594684D01*
X151194858Y-160591174D01*
X151218750Y-160590000D01*
X151706250Y-160590000D01*
X151730142Y-160591174D01*
G37*
G36*
X153605142Y-160591174D02*
G01*
X153628803Y-160594684D01*
X153652007Y-160600496D01*
X153674529Y-160608554D01*
X153696153Y-160618782D01*
X153716670Y-160631079D01*
X153735883Y-160645329D01*
X153753607Y-160661393D01*
X153769671Y-160679117D01*
X153783921Y-160698330D01*
X153796218Y-160718847D01*
X153806446Y-160740471D01*
X153814504Y-160762993D01*
X153820316Y-160786197D01*
X153823826Y-160809858D01*
X153825000Y-160833750D01*
X153825000Y-161746250D01*
X153823826Y-161770142D01*
X153820316Y-161793803D01*
X153814504Y-161817007D01*
X153806446Y-161839529D01*
X153796218Y-161861153D01*
X153783921Y-161881670D01*
X153769671Y-161900883D01*
X153753607Y-161918607D01*
X153735883Y-161934671D01*
X153716670Y-161948921D01*
X153696153Y-161961218D01*
X153674529Y-161971446D01*
X153652007Y-161979504D01*
X153628803Y-161985316D01*
X153605142Y-161988826D01*
X153581250Y-161990000D01*
X153093750Y-161990000D01*
X153069858Y-161988826D01*
X153046197Y-161985316D01*
X153022993Y-161979504D01*
X153000471Y-161971446D01*
X152978847Y-161961218D01*
X152958330Y-161948921D01*
X152939117Y-161934671D01*
X152921393Y-161918607D01*
X152905329Y-161900883D01*
X152891079Y-161881670D01*
X152878782Y-161861153D01*
X152868554Y-161839529D01*
X152860496Y-161817007D01*
X152854684Y-161793803D01*
X152851174Y-161770142D01*
X152850000Y-161746250D01*
X152850000Y-160833750D01*
X152851174Y-160809858D01*
X152854684Y-160786197D01*
X152860496Y-160762993D01*
X152868554Y-160740471D01*
X152878782Y-160718847D01*
X152891079Y-160698330D01*
X152905329Y-160679117D01*
X152921393Y-160661393D01*
X152939117Y-160645329D01*
X152958330Y-160631079D01*
X152978847Y-160618782D01*
X153000471Y-160608554D01*
X153022993Y-160600496D01*
X153046197Y-160594684D01*
X153069858Y-160591174D01*
X153093750Y-160590000D01*
X153581250Y-160590000D01*
X153605142Y-160591174D01*
G37*
G36*
X141882691Y-161336053D02*
G01*
X141903926Y-161339203D01*
X141924750Y-161344419D01*
X141944962Y-161351651D01*
X141964368Y-161360830D01*
X141982781Y-161371866D01*
X142000024Y-161384654D01*
X142015930Y-161399070D01*
X142030346Y-161414976D01*
X142043134Y-161432219D01*
X142054170Y-161450632D01*
X142063349Y-161470038D01*
X142070581Y-161490250D01*
X142075797Y-161511074D01*
X142078947Y-161532309D01*
X142080000Y-161553750D01*
X142080000Y-161991250D01*
X142078947Y-162012691D01*
X142075797Y-162033926D01*
X142070581Y-162054750D01*
X142063349Y-162074962D01*
X142054170Y-162094368D01*
X142043134Y-162112781D01*
X142030346Y-162130024D01*
X142015930Y-162145930D01*
X142000024Y-162160346D01*
X141982781Y-162173134D01*
X141964368Y-162184170D01*
X141944962Y-162193349D01*
X141924750Y-162200581D01*
X141903926Y-162205797D01*
X141882691Y-162208947D01*
X141861250Y-162210000D01*
X141348750Y-162210000D01*
X141327309Y-162208947D01*
X141306074Y-162205797D01*
X141285250Y-162200581D01*
X141265038Y-162193349D01*
X141245632Y-162184170D01*
X141227219Y-162173134D01*
X141209976Y-162160346D01*
X141194070Y-162145930D01*
X141179654Y-162130024D01*
X141166866Y-162112781D01*
X141155830Y-162094368D01*
X141146651Y-162074962D01*
X141139419Y-162054750D01*
X141134203Y-162033926D01*
X141131053Y-162012691D01*
X141130000Y-161991250D01*
X141130000Y-161553750D01*
X141131053Y-161532309D01*
X141134203Y-161511074D01*
X141139419Y-161490250D01*
X141146651Y-161470038D01*
X141155830Y-161450632D01*
X141166866Y-161432219D01*
X141179654Y-161414976D01*
X141194070Y-161399070D01*
X141209976Y-161384654D01*
X141227219Y-161371866D01*
X141245632Y-161360830D01*
X141265038Y-161351651D01*
X141285250Y-161344419D01*
X141306074Y-161339203D01*
X141327309Y-161336053D01*
X141348750Y-161335000D01*
X141861250Y-161335000D01*
X141882691Y-161336053D01*
G37*
G36*
X141882691Y-162911053D02*
G01*
X141903926Y-162914203D01*
X141924750Y-162919419D01*
X141944962Y-162926651D01*
X141964368Y-162935830D01*
X141982781Y-162946866D01*
X142000024Y-162959654D01*
X142015930Y-162974070D01*
X142030346Y-162989976D01*
X142043134Y-163007219D01*
X142054170Y-163025632D01*
X142063349Y-163045038D01*
X142070581Y-163065250D01*
X142075797Y-163086074D01*
X142078947Y-163107309D01*
X142080000Y-163128750D01*
X142080000Y-163566250D01*
X142078947Y-163587691D01*
X142075797Y-163608926D01*
X142070581Y-163629750D01*
X142063349Y-163649962D01*
X142054170Y-163669368D01*
X142043134Y-163687781D01*
X142030346Y-163705024D01*
X142015930Y-163720930D01*
X142000024Y-163735346D01*
X141982781Y-163748134D01*
X141964368Y-163759170D01*
X141944962Y-163768349D01*
X141924750Y-163775581D01*
X141903926Y-163780797D01*
X141882691Y-163783947D01*
X141861250Y-163785000D01*
X141348750Y-163785000D01*
X141327309Y-163783947D01*
X141306074Y-163780797D01*
X141285250Y-163775581D01*
X141265038Y-163768349D01*
X141245632Y-163759170D01*
X141227219Y-163748134D01*
X141209976Y-163735346D01*
X141194070Y-163720930D01*
X141179654Y-163705024D01*
X141166866Y-163687781D01*
X141155830Y-163669368D01*
X141146651Y-163649962D01*
X141139419Y-163629750D01*
X141134203Y-163608926D01*
X141131053Y-163587691D01*
X141130000Y-163566250D01*
X141130000Y-163128750D01*
X141131053Y-163107309D01*
X141134203Y-163086074D01*
X141139419Y-163065250D01*
X141146651Y-163045038D01*
X141155830Y-163025632D01*
X141166866Y-163007219D01*
X141179654Y-162989976D01*
X141194070Y-162974070D01*
X141209976Y-162959654D01*
X141227219Y-162946866D01*
X141245632Y-162935830D01*
X141265038Y-162926651D01*
X141285250Y-162919419D01*
X141306074Y-162914203D01*
X141327309Y-162911053D01*
X141348750Y-162910000D01*
X141861250Y-162910000D01*
X141882691Y-162911053D01*
G37*
G36*
X143787691Y-161336053D02*
G01*
X143808926Y-161339203D01*
X143829750Y-161344419D01*
X143849962Y-161351651D01*
X143869368Y-161360830D01*
X143887781Y-161371866D01*
X143905024Y-161384654D01*
X143920930Y-161399070D01*
X143935346Y-161414976D01*
X143948134Y-161432219D01*
X143959170Y-161450632D01*
X143968349Y-161470038D01*
X143975581Y-161490250D01*
X143980797Y-161511074D01*
X143983947Y-161532309D01*
X143985000Y-161553750D01*
X143985000Y-161991250D01*
X143983947Y-162012691D01*
X143980797Y-162033926D01*
X143975581Y-162054750D01*
X143968349Y-162074962D01*
X143959170Y-162094368D01*
X143948134Y-162112781D01*
X143935346Y-162130024D01*
X143920930Y-162145930D01*
X143905024Y-162160346D01*
X143887781Y-162173134D01*
X143869368Y-162184170D01*
X143849962Y-162193349D01*
X143829750Y-162200581D01*
X143808926Y-162205797D01*
X143787691Y-162208947D01*
X143766250Y-162210000D01*
X143253750Y-162210000D01*
X143232309Y-162208947D01*
X143211074Y-162205797D01*
X143190250Y-162200581D01*
X143170038Y-162193349D01*
X143150632Y-162184170D01*
X143132219Y-162173134D01*
X143114976Y-162160346D01*
X143099070Y-162145930D01*
X143084654Y-162130024D01*
X143071866Y-162112781D01*
X143060830Y-162094368D01*
X143051651Y-162074962D01*
X143044419Y-162054750D01*
X143039203Y-162033926D01*
X143036053Y-162012691D01*
X143035000Y-161991250D01*
X143035000Y-161553750D01*
X143036053Y-161532309D01*
X143039203Y-161511074D01*
X143044419Y-161490250D01*
X143051651Y-161470038D01*
X143060830Y-161450632D01*
X143071866Y-161432219D01*
X143084654Y-161414976D01*
X143099070Y-161399070D01*
X143114976Y-161384654D01*
X143132219Y-161371866D01*
X143150632Y-161360830D01*
X143170038Y-161351651D01*
X143190250Y-161344419D01*
X143211074Y-161339203D01*
X143232309Y-161336053D01*
X143253750Y-161335000D01*
X143766250Y-161335000D01*
X143787691Y-161336053D01*
G37*
G36*
X143787691Y-162911053D02*
G01*
X143808926Y-162914203D01*
X143829750Y-162919419D01*
X143849962Y-162926651D01*
X143869368Y-162935830D01*
X143887781Y-162946866D01*
X143905024Y-162959654D01*
X143920930Y-162974070D01*
X143935346Y-162989976D01*
X143948134Y-163007219D01*
X143959170Y-163025632D01*
X143968349Y-163045038D01*
X143975581Y-163065250D01*
X143980797Y-163086074D01*
X143983947Y-163107309D01*
X143985000Y-163128750D01*
X143985000Y-163566250D01*
X143983947Y-163587691D01*
X143980797Y-163608926D01*
X143975581Y-163629750D01*
X143968349Y-163649962D01*
X143959170Y-163669368D01*
X143948134Y-163687781D01*
X143935346Y-163705024D01*
X143920930Y-163720930D01*
X143905024Y-163735346D01*
X143887781Y-163748134D01*
X143869368Y-163759170D01*
X143849962Y-163768349D01*
X143829750Y-163775581D01*
X143808926Y-163780797D01*
X143787691Y-163783947D01*
X143766250Y-163785000D01*
X143253750Y-163785000D01*
X143232309Y-163783947D01*
X143211074Y-163780797D01*
X143190250Y-163775581D01*
X143170038Y-163768349D01*
X143150632Y-163759170D01*
X143132219Y-163748134D01*
X143114976Y-163735346D01*
X143099070Y-163720930D01*
X143084654Y-163705024D01*
X143071866Y-163687781D01*
X143060830Y-163669368D01*
X143051651Y-163649962D01*
X143044419Y-163629750D01*
X143039203Y-163608926D01*
X143036053Y-163587691D01*
X143035000Y-163566250D01*
X143035000Y-163128750D01*
X143036053Y-163107309D01*
X143039203Y-163086074D01*
X143044419Y-163065250D01*
X143051651Y-163045038D01*
X143060830Y-163025632D01*
X143071866Y-163007219D01*
X143084654Y-162989976D01*
X143099070Y-162974070D01*
X143114976Y-162959654D01*
X143132219Y-162946866D01*
X143150632Y-162935830D01*
X143170038Y-162926651D01*
X143190250Y-162919419D01*
X143211074Y-162914203D01*
X143232309Y-162911053D01*
X143253750Y-162910000D01*
X143766250Y-162910000D01*
X143787691Y-162911053D01*
G37*
G36*
X147077691Y-169706053D02*
G01*
X147098926Y-169709203D01*
X147119750Y-169714419D01*
X147139962Y-169721651D01*
X147159368Y-169730830D01*
X147177781Y-169741866D01*
X147195024Y-169754654D01*
X147210930Y-169769070D01*
X147225346Y-169784976D01*
X147238134Y-169802219D01*
X147249170Y-169820632D01*
X147258349Y-169840038D01*
X147265581Y-169860250D01*
X147270797Y-169881074D01*
X147273947Y-169902309D01*
X147275000Y-169923750D01*
X147275000Y-170436250D01*
X147273947Y-170457691D01*
X147270797Y-170478926D01*
X147265581Y-170499750D01*
X147258349Y-170519962D01*
X147249170Y-170539368D01*
X147238134Y-170557781D01*
X147225346Y-170575024D01*
X147210930Y-170590930D01*
X147195024Y-170605346D01*
X147177781Y-170618134D01*
X147159368Y-170629170D01*
X147139962Y-170638349D01*
X147119750Y-170645581D01*
X147098926Y-170650797D01*
X147077691Y-170653947D01*
X147056250Y-170655000D01*
X146618750Y-170655000D01*
X146597309Y-170653947D01*
X146576074Y-170650797D01*
X146555250Y-170645581D01*
X146535038Y-170638349D01*
X146515632Y-170629170D01*
X146497219Y-170618134D01*
X146479976Y-170605346D01*
X146464070Y-170590930D01*
X146449654Y-170575024D01*
X146436866Y-170557781D01*
X146425830Y-170539368D01*
X146416651Y-170519962D01*
X146409419Y-170499750D01*
X146404203Y-170478926D01*
X146401053Y-170457691D01*
X146400000Y-170436250D01*
X146400000Y-169923750D01*
X146401053Y-169902309D01*
X146404203Y-169881074D01*
X146409419Y-169860250D01*
X146416651Y-169840038D01*
X146425830Y-169820632D01*
X146436866Y-169802219D01*
X146449654Y-169784976D01*
X146464070Y-169769070D01*
X146479976Y-169754654D01*
X146497219Y-169741866D01*
X146515632Y-169730830D01*
X146535038Y-169721651D01*
X146555250Y-169714419D01*
X146576074Y-169709203D01*
X146597309Y-169706053D01*
X146618750Y-169705000D01*
X147056250Y-169705000D01*
X147077691Y-169706053D01*
G37*
G36*
X145502691Y-169706053D02*
G01*
X145523926Y-169709203D01*
X145544750Y-169714419D01*
X145564962Y-169721651D01*
X145584368Y-169730830D01*
X145602781Y-169741866D01*
X145620024Y-169754654D01*
X145635930Y-169769070D01*
X145650346Y-169784976D01*
X145663134Y-169802219D01*
X145674170Y-169820632D01*
X145683349Y-169840038D01*
X145690581Y-169860250D01*
X145695797Y-169881074D01*
X145698947Y-169902309D01*
X145700000Y-169923750D01*
X145700000Y-170436250D01*
X145698947Y-170457691D01*
X145695797Y-170478926D01*
X145690581Y-170499750D01*
X145683349Y-170519962D01*
X145674170Y-170539368D01*
X145663134Y-170557781D01*
X145650346Y-170575024D01*
X145635930Y-170590930D01*
X145620024Y-170605346D01*
X145602781Y-170618134D01*
X145584368Y-170629170D01*
X145564962Y-170638349D01*
X145544750Y-170645581D01*
X145523926Y-170650797D01*
X145502691Y-170653947D01*
X145481250Y-170655000D01*
X145043750Y-170655000D01*
X145022309Y-170653947D01*
X145001074Y-170650797D01*
X144980250Y-170645581D01*
X144960038Y-170638349D01*
X144940632Y-170629170D01*
X144922219Y-170618134D01*
X144904976Y-170605346D01*
X144889070Y-170590930D01*
X144874654Y-170575024D01*
X144861866Y-170557781D01*
X144850830Y-170539368D01*
X144841651Y-170519962D01*
X144834419Y-170499750D01*
X144829203Y-170478926D01*
X144826053Y-170457691D01*
X144825000Y-170436250D01*
X144825000Y-169923750D01*
X144826053Y-169902309D01*
X144829203Y-169881074D01*
X144834419Y-169860250D01*
X144841651Y-169840038D01*
X144850830Y-169820632D01*
X144861866Y-169802219D01*
X144874654Y-169784976D01*
X144889070Y-169769070D01*
X144904976Y-169754654D01*
X144922219Y-169741866D01*
X144940632Y-169730830D01*
X144960038Y-169721651D01*
X144980250Y-169714419D01*
X145001074Y-169709203D01*
X145022309Y-169706053D01*
X145043750Y-169705000D01*
X145481250Y-169705000D01*
X145502691Y-169706053D01*
G37*
M02*
